<svg xmlns="http://www.w3.org/2000/svg" viewBox="0 0 594.74 313.12"><title>hta-map</title><path d="M166.82,216.39l-2.1-1-8.69-.45L152.74,208l-6.61-.76-7,.15-6.94-1.31-7,.43-7-1-7,.46-7-.16-6.94-1.38-7,0-7-.14-7,.38-6.94-1.48-7,.26-7,.25-7-.85-7-.43-7-.16-1-.77-3.3-6-3.24-6.08-2.47-6.45-1.84-6.67.62-6.8v-6L23,157.61l-.73-7,.07-6.24,3.13-5.48,4.08-4.77,2.23-4.84-2.27-6.16-3.88-5L23,112.42l-2.08-5.82-2.45-6.91-.87-7.26-1.69-7.09-1.14-7.21-2-7L11.19,64l-1.11-7.21L9.24,49.5,7.5,42.41,5.77,35.32,5.09,28,2.81,21l-1-7.23L1.08,6.53,0,3.73l7.12.2,7-.56,7-.4,7,0,7-.24,7-.84,7-.08,7-.17,7,.68,7-1,7,.15,7-.83,7,.45h7l7-.25,7-.67,6.68.16-3.3,3.25-4,6.1-3.39,6.16L113.12,22l7.35,3.17L128,26.44l5.91,5.17,4.59,6.51,3.42,7.19,3.52,7.23,5.32,6.1,6.73,4.59,7.56,4.35,5.82,8.18,3.56,5.42,4.66,4.38,2.18,2.12,5.94,4.07,5.42,4.81,4,6,3.41,6.31,2.47,6.72,3.13,7.08.51,7.62,3.12,1.88,5.51,4.26,5.3,3.43-4.65,8.31L209.08,155l-5.15,6-2.14,7.55-1.19,6.2-.79,6.24-.79,6.26-1.61,7.61-5.58,4.46-3.37,1.27-5.13,2-5.61-.81-8.6-2.25-.35,5.53,1.77,5.46L168,215.21Zm-7.24-6.87,5.71-.06-.92-3.75-1.06-5.44,3.23-4.48,7.17-1.64,6.49,3.52,6.44-1.28,4.83-.75,1.65-5.59,1.14-5.36,2.48-8.06.58-8.38,1.16-6.19,2.68-5.86,5.2-3.89,5.59-7,2.43-4.09-1.35-1-6.64-3.8-5.32-6.85-.93-6.26-1.85-6.15-2.78-6-3.12-5.77-4-5.19-4.2-5.19-5.8-3.3-2.28-2.19-5-5.31-4.7-5.72-5-7.54-5.78-4.43-6.42-2.68-4.34-5.42-4.59-5-2.7-6.28L134,39.53l-5.52-6.35-7.05-3.72-9-2.67-5-4.71-4.29-5.49,4.52-9.85,1.93-1.42L102.16,5l-7.41.59-7.41.58L79.9,5.68,72.52,6.84l-7.43-.15-7.44-.43-7.39.94L42.82,7l-7.41.57L28,8l-7.43,0-7.42.26L5.88,9l1.65,6.26,1.28,7,.46,7.12,2.1,6.8,1,7L14.3,50l.7,7.08,1.13,7L17.51,71l1.81,6.86.86,7,1.32,7,1.94,6.83,1.83,6.83,2.64,8.26L32.81,121l3.83,6.77-3.78,9.12-4.07,6.34L27,150.12l.58,6.73.31,6.73-1.08,6.64,1.52,7.28,2.37,7,3,6.74,3.41,6.08,6.91.63h7l7,.14,7,.85,7,.5,7,.69,7.06-.58,7,.23,7,.17,7,1.37,7.06-.69,7,1,7,.39,7,.21,7,0,7,.85,6.84.1Z"/><polygon points="59.19 37.92 57.03 43.9 55.16 49.74 54.02 55.84 61.16 50.51 67.71 44.69 59.62 45.01 51.27 45.6 56.09 50.16 61.59 53.55 66.69 57.76 63.51 51.35 61.7 44.61 59.19 37.92"/><path d="M65.17,59.14l-6.12-4.27-3.53,3.36-3.73-3.1,2-5.14L50.4,47.43l1-3.85,4-.33,1.42-5.85L61.58,37l1.86,5.47,4.12,0,2.23,4.08-4.4,2.61,3.56,7.59Zm-6.88-10.7.7.14.85-1.28.37.16-1.61-.39Z"/><path d="M452.76,216l-3.33-1.66-5.51-3.62-3.48-5.69-.52-6.58-1.14-7.1L435,185.28l-5.64-4.44-5.64-3.38-5.43-3.89-2.55-6.13-2.12-6.31,2-6.43,3.06-4.83.09-5.46-3.6-.9-3.91.06-6-1-1.4-8-2.66-5.72-4-4.63L392.78,120l-4.47-5-4.89-4.67-1.81-6.51.26-8.45,2.07-8.2,1.55-8.14,2-5L391,69.65l3.86-6.93-2.35-6.34-.23-6.63,2.67-6,8.56-3.45,5.59-1.12,4.93-3,3.2-5.3L422,24l-2.82-3.52-5-4.3-3.12-5.84L408.32,7l.27-5,7.63-.26,7.51.68L431.21,2,438.68,1l7.51.43,7.48-.37,7.49-.38,7.5.14L476.14,0l7.51.29,7.47-.11-.11,3-.9,10.24.23.33,5.21,5.1L499,25.34l.63,7.38,1,7.22,1,7.27-.19,7.33-.17,7.32.45,7.79-1.16,7.73.63,7.82-.6,7.75-1,7.72-1,7.71v7l-.8,6.91.61,7.14,2.67,5.62,1.85,6,.11,6.33-1.3,6.24-5.42,8.79-3.53,6.13-3.25,6.27-3.22,6.31-.44,6.94-.16,7.5-3.61,3.84-4.63.87L479,208.9l1.07,5-3.1.47-8.69-3.78-7.58-3.77-.93,2.07L454,215.37Zm-37.27-77.55,7.34,3.37.72,7.72-3,7.46-1.75,6.08,2.29,6.06,4.77,4.4,5.4,3.56,5.4,3.62,4.75,4.64,1.5,6.48,2.11,6.33,1.51,7.28,5.1,5.76,1.12-.46,2.71-3.92,4.63-4.63L465.3,204l4.81,2.93,4,1.61-1.36-4,2.6-7.65,5.22-2.22.18-.73.08-5.2.46-7.9,3.56-7.07,3.91-6.81,3.9-6.83,4.13-8.75,1.53-6.59-1-6.81-2-6.69-2-7.47.15-7.92.87-7.86,1.24-7.66-.21-7.76L496.45,85l.32-7.73-.14-7.74.21-7.73-.12-7.68-.19-7.67-.58-7.65L495.67,31,493.1,23.7l-5.36-5.18-.85-1.24-2-9.22.44-2.93-7-.15-7,.84-7.07-.3-7.05.1-7,.83L443,6.58,436,6.52l-7.06-.11-7,.8-7.13-.84.46,2.21,6.68,8.19,4.26,6.7-1.58,5.63-3.17,5.24-4.18,3.93L412,43.83l-7.46,1.94-6.38,1.61-1.76,6.88L399.37,61l-.53,7-4.89,5.24-4.7,6.35L388.33,88,387,95.89l-.32,8,3.77,6.95,5.74,5.86,5.18,5.18,4.15,6,3,6.69-.08,4.54,2.49-.69,4.28.94Z"/><polygon points="484.82 28.73 482.5 35.23 481.06 41.59 479.43 47.78 484.19 43.65 488.7 39.12 492.93 34.13 485.01 35.36 477.04 35.93 481.82 39.81 486.88 43.12 491.6 46.11 489.51 40.71 487.72 34.72 484.82 28.73"/><path d="M481.08,49.67l-3.78-2.5,1.4-6.82L476,37.84l.83-4.27,4.59-.25,1.39-4.66,4,0,1.59,4.16,4-.61,1.69,3.64L491.36,39l2.92,6.6-3.77,3.19-4.91-4Zm3.67-11.29.39.54.35-1.2.28-.52-.8.36Z"/><polygon points="84.1 59.45 75.87 56.02 77.11 52.48 85.6 56.12 84.1 59.45"/><path d="M227.24,80.77l-6.15-.25-6-.45-5.87.25-.28-3.76,6.21.51,6-.08,6.09-.05Zm17.89-.16.16-3.72,5.89.27,6-.49,6.21-.57-.26,3.74-5.83.3-6,.35ZM191,79.66l-6.13-.6-6-.8L173,78.14l0-3.77,6.16.89,6,.27,6.08.3ZM281.32,79V75.3l5.9,0,6-.74,6.18-.82-.1,3.75-5.81.54-6,.6ZM154.9,76.3l-6.08-1L142.89,74,137,73.45l.28-3.79,9,1.85,8.9,1Zm162.5-.35-.15-3.72,5.9-.21,5.94-1,6.15-1,0,3.75-5.78.75-6,.82Zm35.94-4.38-.28-3.72,5.89-.41,5.91-1.16L371,65l.15,3.75-5.75.94-5.95,1Zm-234.21-1.5-6-1.61-5.78-1.84-5.77-1.19.7-3.73,8.74,2.79,8.74,1.89Zm270-4-.39-3.71,5.88-.59,5.87-1.34L406.55,59l.26,3.74-5.72,1.1L395.18,65Zm35.59-6.56-.49-3.69,5.86-.75,5.84-1.5,6-1.59.36,3.74-5.69,1.25-5.88,1.36Z"/><polygon points="460.31 51.8 459.17 48.12 468.15 46.64 469.45 49.88 460.31 51.8"/><polygon points="114.23 313.13 108.88 306.66 115.15 302.4 121.32 298.74 127.28 294.73 133.71 291.51 139.61 287.38 145.9 283.91 152.45 280.94 158.6 277.22 165.06 274.09 171.65 271.23 178.05 267.96 184.54 264.89 191.43 262.77 198 259.89 204.69 257.32 211.2 254.25 218.25 252.69 224.93 250.05 231.81 248.05 238.67 245.97 245.57 244.06 252.49 242.17 259.44 240.45 266.21 237.89 273.35 236.97 280.47 236.03 287.45 234.38 294.61 233.77 301.57 232.49 308.59 231.62 315.58 230.36 322.61 229.53 329.73 229.78 336.79 229.37 343.83 228.21 350.92 228.3 358 228.53 365.08 228.49 372.15 228.87 379.21 229.38 386.3 229.3 393.32 230.36 400.36 231.04 407.41 231.69 414.47 232.23 421.48 233.25 428.45 234.51 435.44 235.65 442.47 236.57 449.43 237.93 456.42 239.74 463.38 241.64 470.16 244.19 477.19 245.8 484.18 247.56 491.18 249.34 497.92 251.94 504.66 254.51 511.67 256.35 518.04 259.86 524.9 262.12 531.6 264.77 538.06 268 544.53 271.16 551.11 274.08 557.72 276.98 563.98 280.56 570.1 284.39 576.94 286.94 582.99 290.88 588.81 295.14 594.74 298.83 589.96 305.7 584.11 301.85 578.41 297.64 571.84 294.88 565.85 291.14 559.54 287.95 553.66 283.95 546.87 281.73 540.45 278.8 534.24 275.41 527.77 272.57 521.33 269.65 514.51 267.7 508.2 264.42 501.5 262.17 494.74 260.09 488.28 257.13 481.52 255.01 474.63 253.38 467.62 252.21 460.92 249.93 453.98 248.54 447.16 246.66 440.28 244.72 433.21 243.68 426.24 242.14 419.1 241.65 412.08 240.35 404.95 239.96 397.87 239.09 390.81 238.02 383.67 237.79 376.56 237.11 369.41 237.72 362.3 236.82 355.16 236.64 348.04 237.39 340.89 236.79 333.77 237.31 326.7 238.55 319.6 239.12 312.46 239.38 305.43 240.57 298.33 241.31 291.38 242.94 284.32 243.96 277.22 244.77 270.21 246.11 263.44 248.47 256.29 249.27 249.41 251.14 242.77 253.87 235.96 255.95 229.07 257.8 222.02 259.2 215.5 262.16 208.59 264.06 202.33 267.65 195.64 270.11 189.16 273.07 182.42 275.47 175.81 278.18 169.3 281.1 163 284.47 156.63 287.69 150.49 291.34 144.18 294.68 138.31 298.78 132.28 302.59 125.97 305.94 119.99 309.82 114.23 313.13"/><polygon points="504.37 22.32 501.5 18.89 505.86 13.74 511.07 9.09 515.88 4.14 519.14 7.26 514.1 12.11 508.97 16.86 504.37 22.32"/><polygon points="527.83 70.83 522.52 65.86 517.82 60.36 512.31 55.66 507.95 50.2 510.81 46.57 516.07 51.89 521.02 57.13 526.29 62.07 530.8 67.53 527.83 70.83"/><polygon points="537.9 36.89 530.67 36.52 523.42 37.08 516.17 36.98 509.03 36.76 509.26 32.42 516.17 31.57 523.41 32.11 530.66 31.41 537.82 32.06 537.9 36.89"/></svg>