<svg xmlns="http://www.w3.org/2000/svg" viewBox="0 0 250.25 105.43"><title>logo-stacked-thin</title><g id="Layer_2" data-name="Layer 2"><g id="Layer_1-2" data-name="Layer 1"><path d="M189.44,20.58c0,1.59,0,3.57,1.13,5.15a5.12,5.12,0,0,0,4.35,2.05A10.57,10.57,0,0,0,201,25.67l.08-.06L200,23l-.13.1a7.26,7.26,0,0,1-4.11,1.68,2.93,2.93,0,0,1-3-2.91,33.16,33.16,0,0,1-.12-3.57c0-2.39.11-4.81.34-7.19h6.15V8.47h-6.09c.05-.64.29-3.35.46-4.25a1.57,1.57,0,0,1,.13-.4,1,1,0,0,0,.1-.77l0-.1-3.41.56-.35,5h-4.46l0,2.65h4.37C189.57,14.28,189.44,17.45,189.44,20.58Z"/><path d="M211.57,16.53a4.59,4.59,0,0,1,.9-3.13c.66-.88,2.43-2.55,4.38-2.55A3.12,3.12,0,0,1,219.29,12a6.06,6.06,0,0,1,1,4V27.42h3.14V16a10.91,10.91,0,0,0-.68-4.55A5.53,5.53,0,0,0,217.65,8a7.78,7.78,0,0,0-6.08,3.47V1.08a.37.37,0,0,1,.11-.31l0,0A.68.68,0,0,0,212,.25a.88.88,0,0,0,0-.17l0-.08h-3.6V27.42h3.25Z"/><path d="M240.1,27.85a8.6,8.6,0,0,0,6.79-3l.07-.08-1.8-1.76-.09.09a6.32,6.32,0,0,1-4.74,2.06c-1.38,0-5.9-.48-6.21-6.72h13.24v-.11a13.91,13.91,0,0,0-.13-3.6,8,8,0,0,0-2.91-5.28A7.61,7.61,0,0,0,239.72,8a8.29,8.29,0,0,0-6.05,2.48A10.76,10.76,0,0,0,231,18.17C231,24.05,234.58,27.85,240.1,27.85ZM234.23,16c.75-5.17,4.53-5.43,5.29-5.43A4.61,4.61,0,0,1,243,12.1,5.05,5.05,0,0,1,244.24,16Z"/><path d="M76.46,41.62a3.12,3.12,0,0,1,2.44,1.14,6.06,6.06,0,0,1,1,4.05V58.19H83V46.74a11,11,0,0,0-.68-4.56,5.54,5.54,0,0,0-5.09-3.37,7.78,7.78,0,0,0-6.08,3.47V31.85a.36.36,0,0,1,.11-.31l0,0a.68.68,0,0,0,.25-.48.5.5,0,0,0,0-.17l0-.08h-3.6V58.19h3.25V47.3a4.59,4.59,0,0,1,.9-3.13C72.74,43.29,74.51,41.62,76.46,41.62Z"/><path d="M105.21,56.09a10.42,10.42,0,0,0,2.58-7.28c0-6.85-4.38-10-8.44-10-5,0-9,4.4-9,10s3.9,9.81,8.88,9.81A8,8,0,0,0,105.21,56.09Zm-5.93-.2c-2.75,0-5.54-2.5-5.54-7.28,0-4.6,2.72-7,5.41-7,3.73,0,5.43,3.8,5.43,7.33C104.58,53.71,101.83,55.89,99.28,55.89Z"/><path d="M120.33,41.31a1.72,1.72,0,0,1,1.61,1.35,6.73,6.73,0,0,1,.18,2.05V58.19h3V45.71a4.94,4.94,0,0,1,.77-2.88c.23-.4,1-1.62,2.06-1.62a1.49,1.49,0,0,1,1.37,1,5.49,5.49,0,0,1,.25,2.2c0,.16,0,.31,0,.45V58.22h3V44.48a7.33,7.33,0,0,0-.78-4.13,3.56,3.56,0,0,0-3-1.54,4.67,4.67,0,0,0-4.14,2.48,3.49,3.49,0,0,0-3.35-2.48,4.83,4.83,0,0,0-3.69,2l0-1.56h-3V58.19h2.93V45.61a5.05,5.05,0,0,1,.58-2.62A2.65,2.65,0,0,1,120.33,41.31Z"/><path d="M155.36,55.67l.07-.09-1.8-1.76-.09.1A6.31,6.31,0,0,1,148.8,56c-1.38,0-5.9-.48-6.21-6.72h13.24v-.11a13.87,13.87,0,0,0-.13-3.6,8,8,0,0,0-2.91-5.28,7.63,7.63,0,0,0-4.61-1.47,8.3,8.3,0,0,0-6.05,2.49,10.74,10.74,0,0,0-2.66,7.65c0,5.88,3.57,9.68,9.09,9.68A8.6,8.6,0,0,0,155.36,55.67ZM142.7,46.75c.75-5.17,4.53-5.43,5.29-5.43a4.64,4.64,0,0,1,3.5,1.55,5.07,5.07,0,0,1,1.22,3.88Z"/><path d="M166.49,51.35c0,1.59,0,3.57,1.13,5.15a5.12,5.12,0,0,0,4.35,2A10.54,10.54,0,0,0,178,56.43l.07,0-1-2.57-.13.09a7.28,7.28,0,0,1-4.11,1.69,3,3,0,0,1-3-2.92c-.09-.74-.11-2.35-.11-3.57,0-2.39.11-4.81.34-7.18h6.15V39.24h-6.1c.06-.64.3-3.36.47-4.26a1.63,1.63,0,0,1,.13-.39,1,1,0,0,0,.09-.77l0-.1-3.32.54-.09,0-.35,5h-4.46l0,2.65h4.37C166.62,45,166.49,48.21,166.49,51.35Z"/><path d="M198.68,56.09a10.42,10.42,0,0,0,2.58-7.28c0-6.85-4.38-10-8.44-10-5,0-9,4.4-9,10s3.9,9.81,8.88,9.81A8.06,8.06,0,0,0,198.68,56.09Zm-5.93-.2c-2.75,0-5.54-2.5-5.54-7.28,0-4.6,2.72-7,5.41-7,3.72,0,5.42,3.8,5.42,7.33C198,53.71,195.3,55.89,192.75,55.89Z"/><path d="M216.48,46.46l3.34,11.67,0,.09h2.95l0-.1c1.26-6.17,2.31-12.46,3.11-18.71l0-.14h-3v.13c.08,2.24-.12,4.33-1.64,14.39l-3.79-12.7,0-.09h-2l-3.1,12.82-2.61-12.93a1.08,1.08,0,0,1,0-.68l0-.06a1.33,1.33,0,0,0,0-.83l0-.08h-3.25l3.81,18.88,0,.1h2.84Z"/><path d="M236.13,47.3a4.59,4.59,0,0,1,.9-3.13c.66-.88,2.43-2.55,4.38-2.55a3.11,3.11,0,0,1,2.44,1.14,6.06,6.06,0,0,1,1,4.05V58.19H248V46.74a11,11,0,0,0-.68-4.56,5.54,5.54,0,0,0-5.09-3.37,7.78,7.78,0,0,0-6.08,3.47v-3h-3.25V58.19h3.25Z"/><polygon points="1.49 91.83 5.81 91.83 5.81 90.42 0 90.42 0 105.43 5.83 105.43 5.83 104.07 1.49 104.07 1.49 91.83"/><path d="M15.49,90.62V90.5H13.75v5a3,3,0,0,0-2.49-1.19c-2.67,0-3.86,2.37-3.86,4.73,0,3.34,1.83,4.84,3.66,4.84a3.28,3.28,0,0,0,2.62-1.33v.35a2.28,2.28,0,0,0,.09.7l0,.08h1.64l0-.15a3.2,3.2,0,0,1-.08-.8V91.18a.26.26,0,0,1,.06-.21A.54.54,0,0,0,15.49,90.62Zm-1.86,8.61a4.94,4.94,0,0,1-.18,1.58,2.21,2.21,0,0,1-2.07,1.6c-1.09,0-2.38-.94-2.38-3.58,0-2.29,1.21-3.11,2.33-3.11a2.18,2.18,0,0,1,2.16,1.65A7.7,7.7,0,0,1,13.63,99.23Z"/><polygon points="23.21 94.55 19.4 94.55 19.4 95.94 21.55 95.94 21.55 102.33 19.29 102.33 19.29 103.7 25.3 103.7 25.3 102.33 23.21 102.33 23.21 94.55"/><path d="M22.42,92.94a1.13,1.13,0,1,0-1.14-1.13A1.14,1.14,0,0,0,22.42,92.94Z"/><path d="M35.55,98.88a10.14,10.14,0,0,0-2-.72,8.41,8.41,0,0,1-1.32-.45c-.67-.32-.81-.7-.81-1,0-.61.77-1.09,1.75-1.09a3.09,3.09,0,0,1,2.37,1.18s0,0,0,.07v0a.26.26,0,0,0,.2.27l.09,0,.92-1.37-.06-.08a4.54,4.54,0,0,0-3.41-1.43c-2,0-3.55,1.12-3.55,2.61s1.67,2.2,2.21,2.39l0,0,.94.3a10.83,10.83,0,0,1,1.44.51c.67.31.82.73.82,1,0,.73-.93,1.28-2.16,1.28a3.68,3.68,0,0,1-2.69-1.2s0,0,0-.11a.28.28,0,0,0-.15-.31l-.11,0-.91,1.58.07.07a5.6,5.6,0,0,0,3.84,1.44c2.49,0,3.83-1.49,3.83-2.9A2.38,2.38,0,0,0,35.55,98.88Z"/><polygon points="38.66 91.83 42.98 91.83 42.98 104.07 38.64 104.07 38.64 105.43 44.47 105.43 44.47 90.42 38.66 90.42 38.66 91.83"/><path d="M57.68,74.62a9.15,9.15,0,0,0-6.76,2.65l-.08.08,1.61,2.07.1-.1a7.29,7.29,0,0,1,5.27-2A4,4,0,0,1,61.55,79a5.73,5.73,0,0,1,.59,3.08v.62h-1a22.63,22.63,0,0,0-7.61.85c-3.22,1.18-4.37,3.59-4.37,5.45,0,2.63,2.25,5.41,6.41,5.41a10.78,10.78,0,0,0,6.59-2.37V94h3V82.27a8.14,8.14,0,0,0-.93-4.48C63.05,75.75,60.71,74.62,57.68,74.62ZM59.35,85.2h2.9v1.11A4.37,4.37,0,0,1,61,89.76a6.88,6.88,0,0,1-4.82,2.16c-2.49,0-3.8-1.56-3.8-3.11,0-1.23.84-2.75,3.2-3.32A17.46,17.46,0,0,1,59.35,85.2Z"/><path d="M89.25,67.28a1,1,0,0,0,.22-.65v-.12H86.08V77.38a6,6,0,0,0-5.35-2.83c-3.69,0-8,2.57-8,9.79,0,6.94,3.8,10,7.55,10a6.75,6.75,0,0,0,5.65-3.09v1.17a4.65,4.65,0,0,0,.18,1.42l0,.08h3.18l0-.15a6.9,6.9,0,0,1-.17-1.7l0-24.31a.76.76,0,0,1,.15-.49ZM85.84,84.72a10.86,10.86,0,0,1-.38,3.36A4.78,4.78,0,0,1,81,91.53c-3.79,0-5.13-4.13-5.13-7.67,0-6.34,4.18-6.66,5-6.66a4.72,4.72,0,0,1,4.67,3.55A15.59,15.59,0,0,1,85.84,84.72Z"/><path d="M110.31,75.12a36.52,36.52,0,0,1-2.53,7.73l-2.88,6.68L99.61,76.15a.5.5,0,0,1,0-.21,1,1,0,0,1,.06-.26,1.1,1.1,0,0,0,.07-.57l0-.1H95.85l7.48,19,0,.08h2.46l4.59-10.74a46.83,46.83,0,0,0,2.79-8.2l0-.16h-2.9Z"/><path d="M127.25,74.62a9.16,9.16,0,0,0-6.76,2.65l-.07.08,1.6,2.07.1-.1a7.29,7.29,0,0,1,5.27-2A4,4,0,0,1,131.12,79a5.76,5.76,0,0,1,.59,3.09v.61H131c-2.73,0-5.54,0-7.87.85-3.22,1.18-4.37,3.59-4.37,5.45,0,2.63,2.25,5.41,6.42,5.41a10.77,10.77,0,0,0,6.58-2.37V94h3V82.27a8.15,8.15,0,0,0-.94-4.48C132.63,75.75,130.28,74.62,127.25,74.62Zm1.67,10.58h2.9v1.11a4.37,4.37,0,0,1-1.24,3.44,6.88,6.88,0,0,1-4.82,2.16c-2.49,0-3.8-1.56-3.8-3.11,0-1.23.84-2.75,3.2-3.32A17.46,17.46,0,0,1,128.92,85.2Z"/><path d="M152.56,74.59a7.83,7.83,0,0,0-6.09,3.46v-3h-3.25V94h3.25V83.08a4.59,4.59,0,0,1,.91-3.13c.66-.89,2.43-2.55,4.38-2.55a3.14,3.14,0,0,1,2.44,1.13,6.09,6.09,0,0,1,1,4V94h3.14V82.51a11,11,0,0,0-.68-4.55A5.53,5.53,0,0,0,152.56,74.59Z"/><path d="M180,89.68a7.26,7.26,0,0,1-4.11,1.68,2.94,2.94,0,0,1-3-2.91c-.1-.74-.12-2.35-.12-3.57,0-2.39.12-4.81.35-7.18h6.15V75h-6.1c.06-.63.3-3.35.47-4.25a1.63,1.63,0,0,1,.13-.39,1,1,0,0,0,.09-.78l0-.1-3.41.57-.36,5h-4.45l0,2.65h4.37c-.25,3.11-.38,6.28-.38,9.42,0,1.59,0,3.58,1.13,5.16a5.12,5.12,0,0,0,4.35,2,10.59,10.59,0,0,0,6.05-2.11l.07,0-1-2.58Z"/><path d="M196.18,74.62a9.16,9.16,0,0,0-6.76,2.65l-.07.08,1.6,2.07.1-.1a7.29,7.29,0,0,1,5.27-2A4,4,0,0,1,200.05,79a5.73,5.73,0,0,1,.59,3.08v.62h-1a22.66,22.66,0,0,0-7.61.85c-3.22,1.18-4.36,3.59-4.36,5.45,0,2.63,2.24,5.41,6.41,5.41a10.75,10.75,0,0,0,6.58-2.37V94h3V82.27a8.06,8.06,0,0,0-.94-4.48C201.56,75.75,199.21,74.62,196.18,74.62Zm1.68,10.58h2.89v1.11a4.39,4.39,0,0,1-1.23,3.44,6.94,6.94,0,0,1-4.83,2.16c-2.49,0-3.79-1.56-3.79-3.11,0-1.23.84-2.75,3.2-3.32A17.35,17.35,0,0,1,197.86,85.2Z"/><path d="M228.21,74.55A7.33,7.33,0,0,0,223,76.17a6.36,6.36,0,0,0-4.43-1.74,7,7,0,0,0-7.11,6.73,6.15,6.15,0,0,0,2.68,5.07,5,5,0,0,0-2,3.59,2.88,2.88,0,0,0,1.38,2.5c-1.94,1.28-2.92,2.67-2.92,4.13,0,2.85,3.2,4.55,8.57,4.55,6.88,0,8.72-3.67,8.72-5.84a4.46,4.46,0,0,0-3-4.17,12.82,12.82,0,0,0-5.1-.56l-1.27,0a10.41,10.41,0,0,1-2.64-.23c-.67-.18-1-.57-1-1.1a3.13,3.13,0,0,1,1.24-2,6.92,6.92,0,0,0,2.35.41,6.79,6.79,0,0,0,6.85-6.52,5.87,5.87,0,0,0-.9-3.13,6.26,6.26,0,0,1,4.14-.73l.17,0-.39-2.67Zm-14.67,21.2c0-1.27,1.2-2.21,2.23-2.78.79.1,1.83.17,3.1.22.51,0,1,0,1.55,0a16.14,16.14,0,0,1,2.39.09c2,.29,2.12,1.64,2.12,2a2.73,2.73,0,0,1-1.68,2.37,8.75,8.75,0,0,1-4.14.8,10.76,10.76,0,0,1-3.81-.6A2.35,2.35,0,0,1,213.54,95.75ZM218.41,77a4,4,0,1,1-4,4A4,4,0,0,1,218.41,77Z"/><path d="M250.06,81.33a8,8,0,0,0-2.92-5.28,7.52,7.52,0,0,0-4.6-1.47,8.3,8.3,0,0,0-6.06,2.49,10.76,10.76,0,0,0-2.65,7.64c0,5.88,3.57,9.68,9.09,9.68a8.6,8.6,0,0,0,6.79-2.94l.07-.09L248,89.6l-.09.1a6.34,6.34,0,0,1-4.74,2.06c-1.38,0-5.9-.49-6.21-6.72h13.24v-.12A13.81,13.81,0,0,0,250.06,81.33Zm-13,1.2c.75-5.17,4.53-5.44,5.29-5.44a4.62,4.62,0,0,1,3.49,1.56,5.08,5.08,0,0,1,1.23,3.88Z"/></g></g></svg>