<svg xmlns="http://www.w3.org/2000/svg" viewBox="0 0 444.21 94.71"><defs><style>.cls-1{fill:#fff;}.cls-2{stroke:#000;stroke-miterlimit:10;stroke-width:0.5px;}</style></defs><title>logo-1</title><g id="Layer_2" data-name="Layer 2"><g id="Layer_1-2" data-name="Layer 1"><path class="cls-1" d="M10,2C10.06,29.08-.08,63.62,0,90.69,149.8,95.33,289.53,95.2,439.64,94c5.05-32.22-1-57.07,4.57-87.95C321.36,3.92,230.93,3.92,131.24.58,84.41-1,56.89,1,10,2"/><path class="cls-2" d="M31.79,37.66c.1.3-.11.48-.17.8-.14.74-.34,3.16-.34,3.16h4.38v1.75H31.25c-.17,1.74-.25,3.49-.25,5.25a19.22,19.22,0,0,0,.09,2.58,2.2,2.2,0,0,0,2.25,2.16,5.27,5.27,0,0,0,3-1.22L37,53.81a7.53,7.53,0,0,1-4.29,1.5,3.58,3.58,0,0,1-3.06-1.43,6.08,6.08,0,0,1-.79-3.65c0-2.28.09-4.56.28-6.86H26l0-1.73h3.2l.25-3.59Z"/><path class="cls-2" d="M42.43,35.54h2.43a.19.19,0,0,1,0,.08.45.45,0,0,1-.19.32.34.34,0,0,0-.11.28V44A5.61,5.61,0,0,1,49,41.32a3.86,3.86,0,0,1,3.58,2.36,7.85,7.85,0,0,1,.48,3.24v8.13H51V47a4.42,4.42,0,0,0-.73-3,2.33,2.33,0,0,0-1.82-.85A4.59,4.59,0,0,0,45.25,45a3.39,3.39,0,0,0-.67,2.3v7.73H42.43Z"/><path class="cls-2" d="M70.21,46.08a10.19,10.19,0,0,1,.1,2.56H60.78c.16,4,2.76,5,4.56,5a4.61,4.61,0,0,0,3.47-1.51L70,53.28a6.11,6.11,0,0,1-4.81,2.08c-3.64,0-6.44-2.39-6.44-6.86,0-4.9,3-7.19,6.17-7.19C67.1,41.31,69.6,42.48,70.21,46.08Zm-2,.94a3.56,3.56,0,0,0-3.48-4.09c-1.44,0-3.48.92-3.9,4.09Z"/><path class="cls-2" d="M93.73,35.54h2.43a.19.19,0,0,1,0,.08.48.48,0,0,1-.18.32.34.34,0,0,0-.11.28V44a5.61,5.61,0,0,1,4.46-2.68,3.83,3.83,0,0,1,3.57,2.36,7.7,7.7,0,0,1,.49,3.24v8.13h-2.08V47a4.47,4.47,0,0,0-.73-3,2.35,2.35,0,0,0-1.82-.85A4.59,4.59,0,0,0,96.55,45a3.39,3.39,0,0,0-.67,2.3v7.73H93.73Z"/><path class="cls-2" d="M116.14,55.41c-3.38,0-6.28-2.88-6.28-7s2.93-7.11,6.35-7.11c3.05,0,6,2.43,6,7.06C122.18,52.85,119.32,55.41,116.14,55.41Zm-4-7.14c0,3.31,1.93,5.31,4.07,5.31,2,0,3.89-1.71,3.89-5.09,0-3.68-2-5.35-4-5.35S112.09,45,112.09,48.27Z"/><path class="cls-2" d="M127.31,41.64h1.95l0,1.32A3.45,3.45,0,0,1,132,41.31a2.4,2.4,0,0,1,2.37,2,3.29,3.29,0,0,1,3-2,2.45,2.45,0,0,1,2.1,1.06,5.6,5.6,0,0,1,.54,3.14v9.56h-2V45.55a5,5,0,0,0-.18-1.94,1.16,1.16,0,0,0-1.06-.75c-.82,0-1.34.83-1.57,1.21a3.67,3.67,0,0,0-.56,2.11v8.87h-2V45.73a5.88,5.88,0,0,0-.13-1.77,1.32,1.32,0,0,0-1.24-1c-.54,0-1.14.35-1.62,1.25a3.72,3.72,0,0,0-.43,1.93v8.94h-1.92Z"/><path class="cls-2" d="M156.61,46.08a10.21,10.21,0,0,1,.09,2.56h-9.52c.16,4,2.76,5,4.55,5a4.64,4.64,0,0,0,3.48-1.51l1.16,1.14a6.11,6.11,0,0,1-4.8,2.08c-3.65,0-6.44-2.39-6.44-6.86,0-4.9,3-7.19,6.17-7.19C153.5,41.31,156,42.48,156.61,46.08Zm-2,.94a3.55,3.55,0,0,0-3.47-4.09c-1.44,0-3.48.92-3.9,4.09Z"/><path class="cls-2" d="M167.45,37.66c.1.3-.11.48-.17.8-.14.74-.34,3.16-.34,3.16h4.38v1.75h-4.41c-.17,1.74-.25,3.49-.25,5.25a24.13,24.13,0,0,0,.08,2.58A2.21,2.21,0,0,0,169,53.36a5.27,5.27,0,0,0,3-1.22l.66,1.67a7.53,7.53,0,0,1-4.29,1.5,3.58,3.58,0,0,1-3.06-1.43,6.08,6.08,0,0,1-.79-3.65c0-2.28.09-4.56.28-6.86h-3.14l0-1.73h3.2l.25-3.59Z"/><path class="cls-2" d="M183.29,55.41c-3.38,0-6.29-2.88-6.29-7s2.93-7.11,6.35-7.11c3.05,0,6,2.43,6,7.06C189.32,52.85,186.46,55.41,183.29,55.41Zm-4.06-7.14c0,3.31,1.93,5.31,4.07,5.31,2,0,3.9-1.71,3.9-5.09,0-3.68-2.06-5.35-4-5.35S179.23,45,179.23,48.27Z"/><path class="cls-2" d="M195.53,41.62a.85.85,0,0,1-.05.58.88.88,0,0,0,0,.53l1.95,9.69,2.31-9.53H201l2.84,9.5c1.15-7.63,1.29-9.12,1.24-10.75H207q-.87,6.77-2.23,13.44h-2l-2.48-8.7L198,55.08h-1.9l-2.71-13.46Z"/><path class="cls-2" d="M212.22,41.64h2.15V44a5.61,5.61,0,0,1,4.46-2.68,3.86,3.86,0,0,1,3.58,2.36,7.85,7.85,0,0,1,.48,3.24v8.13h-2.08V47a4.42,4.42,0,0,0-.73-3,2.33,2.33,0,0,0-1.82-.85A4.59,4.59,0,0,0,215,45a3.39,3.39,0,0,0-.67,2.3v7.73h-2.15Z"/><path class="cls-2" d="M250.42,52.68v.84h-3.11v9h3.12v.8h-4V52.68Z"/><path class="cls-2" d="M256.3,52.75h1.07a.34.34,0,0,1-.08.2.29.29,0,0,0-.05.19v8.32a2.41,2.41,0,0,0,.06.59h-1a1.56,1.56,0,0,1-.06-.47V61a2.27,2.27,0,0,1-2,1.17c-1.23,0-2.54-1-2.54-3.39s1.47-3.3,2.69-3.3a2,2,0,0,1,1.88,1.09Zm-3.59,5.89c0,2.1,1.07,2.66,1.8,2.66a1.67,1.67,0,0,0,1.57-1.21,3.86,3.86,0,0,0,.13-1.16,5.48,5.48,0,0,0-.1-1.37,1.66,1.66,0,0,0-1.64-1.24C253.73,56.32,252.71,56.82,252.71,58.64Z"/><path class="cls-2" d="M262.92,55.65v5.59h1.49v.81h-4.14v-.81h1.63V56.47h-1.54v-.82Zm.24-2a.72.72,0,0,1-.73.71.72.72,0,1,1,0-1.43A.73.73,0,0,1,263.16,53.6Z"/><path class="cls-2" d="M272.06,57.39a.11.11,0,0,1-.07-.11.19.19,0,0,0,0-.14,2.3,2.3,0,0,0-1.77-.87c-.72,0-1.35.36-1.35.87,0,.21.11.52.63.78s1.63.43,2.35.83a1.63,1.63,0,0,1,.94,1.45c0,1-.91,2-2.66,2a3.89,3.89,0,0,1-2.69-1l.58-1c.06,0,.06.11.06.13a.15.15,0,0,0,0,.15,2.72,2.72,0,0,0,2,.89c.92,0,1.65-.41,1.65-1,0-.23-.11-.57-.64-.82s-1.18-.39-1.72-.58c-.34-.13-1.55-.53-1.55-1.65,0-.95,1-1.78,2.45-1.78a3.14,3.14,0,0,1,2.38,1Z"/><path class="cls-2" d="M278.19,63.29h-4v-.8h3.11v-9h-3.1v-.84h4Z"/><path class="cls-2" d="M287.76,41.34a5.16,5.16,0,0,1,4.67,2.23,5.74,5.74,0,0,1,.66,3.17v8.31h-2V53.58a7.65,7.65,0,0,1-4.82,1.8c-2.81,0-4.52-1.83-4.52-3.79a4.2,4.2,0,0,1,3.08-3.84,17.43,17.43,0,0,1,5.8-.61h.43v-.48a4.3,4.3,0,0,0-.44-2.31,3,3,0,0,0-2.76-1.29,5.27,5.27,0,0,0-3.85,1.5l-1-1.34A6.52,6.52,0,0,1,287.76,41.34Zm2.89,7.43a21.75,21.75,0,0,0-4.4.2,2.67,2.67,0,0,0-2.37,2.47,2.53,2.53,0,0,0,2.82,2.33,5.07,5.07,0,0,0,3.53-1.59,3.25,3.25,0,0,0,.91-2.53v-.88Z"/><path class="cls-2" d="M308.26,35.51h2.25a.72.72,0,0,1-.16.44.62.62,0,0,0-.12.4l0,17.46a4.76,4.76,0,0,0,.13,1.24h-2.11a3.36,3.36,0,0,1-.12-1V52.9A4.77,4.77,0,0,1,304,55.35c-2.59,0-5.33-2.16-5.33-7.12,0-5.13,3.08-6.94,5.64-6.94a4.19,4.19,0,0,1,3.94,2.31Zm-7.53,12.38c0,4.42,2.25,5.6,3.77,5.6a3.54,3.54,0,0,0,3.31-2.55,8.14,8.14,0,0,0,.28-2.44,11,11,0,0,0-.23-2.87A3.49,3.49,0,0,0,304.42,43C302.88,43,300.73,44.07,300.73,47.89Z"/><path class="cls-2" d="M317.85,41.62c0,.24-.09.4-.09.57a.58.58,0,0,0,0,.19l3.88,9.81,2.15-5a26.25,26.25,0,0,0,1.83-5.58h1.9a33.65,33.65,0,0,1-2,5.88l-3.27,7.65h-1.65l-5.32-13.53Z"/><path class="cls-2" d="M337.74,41.34a5.15,5.15,0,0,1,4.66,2.23,5.74,5.74,0,0,1,.66,3.17v8.31h-2V53.58a7.63,7.63,0,0,1-4.82,1.8c-2.8,0-4.51-1.83-4.51-3.79a4.2,4.2,0,0,1,3.08-3.84,17.37,17.37,0,0,1,5.79-.61H341v-.48a4.3,4.3,0,0,0-.44-2.31,3,3,0,0,0-2.76-1.29,5.27,5.27,0,0,0-3.85,1.5l-1-1.34A6.5,6.5,0,0,1,337.74,41.34Zm2.89,7.43a21.88,21.88,0,0,0-4.41.2,2.68,2.68,0,0,0-2.37,2.47,2.53,2.53,0,0,0,2.82,2.33,5,5,0,0,0,3.53-1.59,3.21,3.21,0,0,0,.91-2.53v-.88Z"/><path class="cls-2" d="M349.31,41.64h2.15V44a5.61,5.61,0,0,1,4.46-2.68,3.83,3.83,0,0,1,3.57,2.36,7.7,7.7,0,0,1,.49,3.24v8.13H357.9V47a4.47,4.47,0,0,0-.73-3,2.35,2.35,0,0,0-1.82-.85A4.59,4.59,0,0,0,352.13,45a3.39,3.39,0,0,0-.67,2.3v7.73h-2.15Z"/><path class="cls-2" d="M371.11,37.66c.1.3-.11.48-.17.8-.13.74-.34,3.16-.34,3.16H375v1.75h-4.41c-.17,1.74-.26,3.49-.26,5.25a19.22,19.22,0,0,0,.09,2.58,2.2,2.2,0,0,0,2.26,2.16,5.27,5.27,0,0,0,3-1.22l.66,1.67a7.51,7.51,0,0,1-4.29,1.5A3.55,3.55,0,0,1,369,53.88a6.08,6.08,0,0,1-.79-3.65c0-2.28.09-4.56.27-6.86h-3.14l0-1.73h3.19l.25-3.59Z"/><path class="cls-2" d="M387.26,41.34a5.15,5.15,0,0,1,4.66,2.23,5.74,5.74,0,0,1,.66,3.17v8.31h-2V53.58a7.65,7.65,0,0,1-4.82,1.8c-2.8,0-4.51-1.83-4.51-3.79a4.2,4.2,0,0,1,3.07-3.84,17.45,17.45,0,0,1,5.8-.61h.43v-.48a4.38,4.38,0,0,0-.43-2.31,3,3,0,0,0-2.76-1.29,5.27,5.27,0,0,0-3.85,1.5l-1-1.34A6.5,6.5,0,0,1,387.26,41.34Zm2.89,7.43a21.85,21.85,0,0,0-4.41.2,2.68,2.68,0,0,0-2.37,2.47,2.53,2.53,0,0,0,2.82,2.33,5,5,0,0,0,3.53-1.59,3.25,3.25,0,0,0,.91-2.53v-.88Z"/><path class="cls-2" d="M406.53,42.48a5.16,5.16,0,0,1,3.73-1.19l.25,1.72a4.9,4.9,0,0,0-.77-.06,4.52,4.52,0,0,0-2.35.65,4.07,4.07,0,0,1,.69,2.27,4.77,4.77,0,0,1-4.84,4.6,4.92,4.92,0,0,1-1.7-.31c-.13.11-1,.79-1,1.5a1,1,0,0,0,.81.88,8.09,8.09,0,0,0,1.92.17,12.08,12.08,0,0,1,4.54.38A3.12,3.12,0,0,1,409.94,56c0,1.8-1.63,4.11-6.18,4.11s-6.06-1.72-6.06-3.18c0-1.07.74-2,2.18-3a2,2,0,0,1-1.08-1.79,3.63,3.63,0,0,1,1.52-2.59,4.35,4.35,0,0,1-2-3.64,4.94,4.94,0,0,1,5-4.74A4.46,4.46,0,0,1,406.53,42.48Zm-6.89,14A1.79,1.79,0,0,0,401,58.07a7.84,7.84,0,0,0,2.77.44,6.36,6.36,0,0,0,3-.59A2.08,2.08,0,0,0,408,56.14c0-.59-.36-1.38-1.6-1.56a27.91,27.91,0,0,0-2.84-.08c-1,0-1.74-.1-2.25-.16C400.54,54.76,399.64,55.46,399.64,56.43Zm3.58-7.66a3,3,0,1,0-3-3A3,3,0,0,0,403.22,48.77Z"/><path class="cls-2" d="M425.87,46.08a9.74,9.74,0,0,1,.1,2.56h-9.53c.16,4,2.76,5,4.56,5a4.61,4.61,0,0,0,3.47-1.51l1.17,1.14a6.11,6.11,0,0,1-4.81,2.08c-3.64,0-6.44-2.39-6.44-6.86,0-4.9,3-7.19,6.17-7.19C422.76,41.31,425.26,42.48,425.87,46.08Zm-2,.94a3.56,3.56,0,0,0-3.48-4.09c-1.44,0-3.48.92-3.9,4.09Z"/></g></g></svg>