<svg xmlns="http://www.w3.org/2000/svg" viewBox="0 0 800 800"><defs><style>.cls-1{isolation:isolate;}.cls-2,.cls-4{fill:none;stroke:#000;stroke-linejoin:bevel;}.cls-2{stroke-width:8px;}.cls-3{fill:#fff;}.cls-4{stroke-width:6px;}.cls-5{mix-blend-mode:multiply;}.cls-6{fill:red;}.cls-7{fill:blue;}</style></defs><title>15set</title><g class="cls-1"><g id="Layer_1" data-name="Layer 1"><polyline class="cls-2" points="419.42 183.48 399.21 176.74 257 208.18 279.21 215.91"/><polyline class="cls-3" points="703.04 590.81 702.75 584.47 703.51 578.11 703.22 571.76 696.52 569.33 689.85 566.78 683.49 564.16 683.13 557.73 683.11 551.03 683.14 544.3 676.39 541.91 669.8 539.16 663 536.99 663.49 530.3 663.31 523.59 663.14 516.78 656.36 514.25 649.49 512.25 642.6 509.76 643.02 502.86 642.51 496.15 643.04 489.33 636.11 487.18 629.44 484.63 622.71 482.16 623.1 475.43 622.82 468.72 622.6 462.13 615.99 459.76 609.26 457.39 602.45 454.83 602.89 447.99 602.66 441.28 602.49 434.69 595.93 432.18 589.32 429.47 582.39 427.36 582.42 420.55 582.46 413.85 582.92 406.86 575.74 404.94 569.01 402.55 562.32 399.88 562.9 393.12 562.64 386.41 562.48 379.66 555.69 377.33 549.08 374.63 542.47 371.92"/><polyline class="cls-2" points="703.04 590.81 702.75 584.47 703.51 578.11 703.22 571.76 696.52 569.33 689.85 566.78 683.49 564.16 683.13 557.73 683.11 551.03 683.14 544.3 676.39 541.91 669.8 539.16 663 536.99 663.49 530.3 663.31 523.59 663.14 516.78 656.36 514.25 649.49 512.25 642.6 509.76 643.02 502.86 642.51 496.15 643.04 489.33 636.11 487.18 629.44 484.63 622.71 482.16 623.1 475.43 622.82 468.72 622.6 462.13 615.99 459.76 609.26 457.39 602.45 454.83 602.89 447.99 602.66 441.28 602.49 434.69 595.93 432.18 589.32 429.47 582.39 427.36 582.42 420.55 582.46 413.85 582.92 406.86 575.74 404.94 569.01 402.55 562.32 399.88 562.9 393.12 562.64 386.41 562.48 379.66 555.69 377.33 549.08 374.63 542.47 371.92"/><polygon points="560.79 603.36 554.44 600.39 547.7 598.04 540.98 595.81 541.28 589.17 540.78 582.46 540.54 576.02 534.35 572.9 527.59 570.6 520.5 568.64 520.5 561.73 521.1 555.03 520.93 548.21 514 546.09 507.47 543.17 500.31 541.26 500.91 534.3 500.71 527.59 500.44 521.05 493.89 518.65 487.11 516.4 480.81 513.37 480.5 506.86 480.84 500.15 480.63 493.39 473.75 491.29 467.21 488.37 460.4 486.15 460.49 479.42 460.32 472.72 460.75 465.78 453.58 464 447.07 461 440.22 458.76 440.71 451.99 440.26 445.28 440.72 438.28 433.74 435.79 426.78 434.05 420.06 431.36 420.68 424.55 420.01 417.84 420.37 411.02 413.56 408.56 406.95 405.83 400.33 404.14 400.12 411.08 400.14 418.34 400.5 425.61 399.6 432.87 400.11 440.13 400.09 447.4 400.22 454.66 399.6 461.93 399.69 469.19 400.47 476.46 399.86 483.73 399.72 490.99 400.48 498.26 399.72 505.52 399.92 512.79 399.91 520.06 399.69 527.32 400.29 534.59 400.44 541.86 400.28 549.13 400.09 556.41 400.1 563.67 406.91 565.79 413.51 568.51 420.18 571.05 426.87 573.52 433.52 576.1 440.46 577.88 447.03 580.68 453.83 582.87 460.28 586 467.08 588.17 473.94 590.21 480.58 592.82 487.38 595 493.97 597.77 500.57 600.49 507.21 603.09 513.93 605.49 520.88 607.27 527.58 609.72 534.06 612.79 540.95 614.72 547.55 617.45 554.13 620.27 561.24 622.64 561.08 615.9 560.93 609.55 560.79 603.36"/><polygon class="cls-2" points="560.79 603.36 554.44 600.39 547.7 598.04 540.98 595.81 541.28 589.17 540.78 582.46 540.54 576.02 534.35 572.9 527.59 570.6 520.5 568.64 520.5 561.73 521.1 555.03 520.93 548.21 514 546.09 507.47 543.17 500.31 541.26 500.91 534.3 500.71 527.59 500.44 521.05 493.89 518.65 487.11 516.4 480.81 513.37 480.5 506.86 480.84 500.15 480.63 493.39 473.75 491.29 467.21 488.37 460.4 486.15 460.49 479.42 460.32 472.72 460.75 465.78 453.58 464 447.07 461 440.22 458.76 440.71 451.99 440.26 445.28 440.72 438.28 433.74 435.79 426.78 434.05 420.06 431.36 420.68 424.55 420.01 417.84 420.37 411.02 413.56 408.56 406.95 405.83 400.33 404.14 400.12 411.08 400.14 418.34 400.5 425.61 399.6 432.87 400.11 440.13 400.09 447.4 400.22 454.66 399.6 461.93 399.69 469.19 400.47 476.46 399.86 483.73 399.72 490.99 400.48 498.26 399.72 505.52 399.92 512.79 399.91 520.06 399.69 527.32 400.29 534.59 400.44 541.86 400.28 549.13 400.09 556.41 400.1 563.67 406.91 565.79 413.51 568.51 420.18 571.05 426.87 573.52 433.52 576.1 440.46 577.88 447.03 580.68 453.83 582.87 460.28 586 467.08 588.17 473.94 590.21 480.58 592.82 487.38 595 493.97 597.77 500.57 600.49 507.21 603.09 513.93 605.49 520.88 607.27 527.58 609.72 534.06 612.79 540.95 614.72 547.55 617.45 554.13 620.27 561.24 622.64 561.08 615.9 560.93 609.55 560.79 603.36"/><polygon class="cls-3" points="400.58 404.11 407.1 402.06 414.32 401 421.36 399.09 428.54 397.86 435.68 396.42 442.76 394.72 449.79 392.8 456.97 391.53 463.98 389.53 471.16 388.25 478.39 387.21 485.32 384.85 492.54 383.77 499.66 382.24 506.62 380 513.93 379.32 521.02 377.66 528.07 375.8 535.09 373.76 542.31 372.4 548.92 375.21 555.72 377.26 562.87 379.39 555.42 381.02 548.25 382.3 541.27 384.46 534.03 385.44 526.99 387.32 519.78 388.4 512.77 390.46 505.69 392.18 498.55 393.61 491.37 394.85 484.31 396.63 477.1 397.75 470.05 399.6 463.06 401.7 455.89 403 448.73 404.36 441.66 406.13 434.45 407.25 427.4 409.15 420.32 410.43 413.42 409 406.79 406.43 400.58 404.11"/><polygon class="cls-4" points="400.58 404.11 407.1 402.06 414.32 401 421.36 399.09 428.54 397.86 435.68 396.42 442.76 394.72 449.79 392.8 456.97 391.53 463.98 389.53 471.16 388.25 478.39 387.21 485.32 384.85 492.54 383.77 499.66 382.24 506.62 380 513.93 379.32 521.02 377.66 528.07 375.8 535.09 373.76 542.31 372.4 548.92 375.21 555.72 377.26 562.87 379.39 555.42 381.02 548.25 382.3 541.27 384.46 534.03 385.44 526.99 387.32 519.78 388.4 512.77 390.46 505.69 392.18 498.55 393.61 491.37 394.85 484.31 396.63 477.1 397.75 470.05 399.6 463.06 401.7 455.89 403 448.73 404.36 441.66 406.13 434.45 407.25 427.4 409.15 420.32 410.43 413.42 409 406.79 406.43 400.58 404.11"/><polygon class="cls-3" points="440.49 438.73 447.61 436.9 454.78 435.61 461.8 433.64 468.95 432.28 476.04 430.62 483.17 429.14 490.25 427.4 497.42 426.13 504.59 424.82 511.51 422.37 518.67 421.03 525.8 419.56 532.96 418.2 540.06 416.62 547.08 414.62 554.26 413.37 561.45 412.15 568.42 409.93 575.55 408.39 582.54 407.04 576.14 404.14 569.37 401.73 562.52 399.37 555.49 401.55 548.21 402.32 541.26 404.63 534.1 405.93 526.93 407.25 519.78 408.65 512.73 410.49 505.6 411.96 498.63 414.18 491.44 415.36 484.24 416.55 477.15 418.21 470.01 419.64 462.93 421.32 455.91 423.32 448.85 425.13 441.64 426.24 434.55 427.91 427.38 429.26 419.88 430.96 427.11 433.28 433.86 435.75 440.49 438.73"/><polygon class="cls-4" points="440.49 438.73 447.61 436.9 454.78 435.61 461.8 433.64 468.95 432.28 476.04 430.62 483.17 429.14 490.25 427.4 497.42 426.13 504.59 424.82 511.51 422.37 518.67 421.03 525.8 419.56 532.96 418.2 540.06 416.62 547.08 414.62 554.26 413.37 561.45 412.15 568.42 409.93 575.55 408.39 582.54 407.04 576.14 404.14 569.37 401.73 562.52 399.37 555.49 401.55 548.21 402.32 541.26 404.63 534.1 405.93 526.93 407.25 519.78 408.65 512.73 410.49 505.6 411.96 498.63 414.18 491.44 415.36 484.24 416.55 477.15 418.21 470.01 419.64 462.93 421.32 455.91 423.32 448.85 425.13 441.64 426.24 434.55 427.91 427.38 429.26 419.88 430.96 427.11 433.28 433.86 435.75 440.49 438.73"/><polygon class="cls-3" points="440.41 458.69 447.57 456.94 454.74 455.65 461.84 454.03 468.93 452.35 475.97 450.48 483.21 449.52 490.34 448.04 497.48 446.58 504.56 444.9 511.7 443.47 518.61 440.97 525.87 440.09 532.85 437.94 540.03 436.66 547.19 435.33 554.23 433.41 561.45 432.36 568.54 430.67 575.66 429.1 582.72 427.19 589.31 430.14 596.13 432.4 603.12 434.76 595.88 436.61 588.71 437.89 581.54 439.19 574.49 441.01 567.38 442.57 560.22 443.88 553.08 445.35 546.02 447.15 538.9 448.66 531.79 450.24 524.69 451.85 517.57 453.37 510.44 454.87 503.5 457.22 496.19 457.88 489.19 459.93 482.17 461.9 474.96 463.05 467.8 464.44 460.72 466.17 454.05 463.51 447.23 461.23 440.41 458.69"/><polygon class="cls-4" points="440.41 458.69 447.57 456.94 454.74 455.65 461.84 454.03 468.93 452.35 475.97 450.48 483.21 449.52 490.34 448.04 497.48 446.58 504.56 444.9 511.7 443.47 518.61 440.97 525.87 440.09 532.85 437.94 540.03 436.66 547.19 435.33 554.23 433.41 561.45 432.36 568.54 430.67 575.66 429.1 582.72 427.19 589.31 430.14 596.13 432.4 603.12 434.76 595.88 436.61 588.71 437.89 581.54 439.19 574.49 441.01 567.38 442.57 560.22 443.88 553.08 445.35 546.02 447.15 538.9 448.66 531.79 450.24 524.69 451.85 517.57 453.37 510.44 454.87 503.5 457.22 496.19 457.88 489.19 459.93 482.17 461.9 474.96 463.05 467.8 464.44 460.72 466.17 454.05 463.51 447.23 461.23 440.41 458.69"/><polygon class="cls-3" points="461 486.44 467.85 484.94 474.98 483.48 482.11 482.01 489.2 480.37 496.27 478.6 503.3 476.69 510.54 475.7 517.67 474.2 524.77 472.6 531.88 471.02 538.93 469.16 545.93 467.11 553.21 466.32 560.26 464.45 567.33 462.73 574.53 461.56 581.52 459.45 588.66 457.96 595.88 456.84 602.92 454.99 609.33 457.43 616.03 459.06 622.15 461.65 615.21 462.93 608.17 464.83 600.99 466.05 593.95 467.96 586.9 469.77 579.84 471.57 572.55 472.33 565.5 474.2 558.46 476.05 551.4 477.87 544.15 478.81 537.08 480.54 529.91 481.86 522.78 483.34 515.72 485.11 508.73 487.27 501.62 488.83 494.32 489.57 487.3 491.58 480.16 493.4 473.75 490.72 467.29 488.38 461 486.44"/><polygon class="cls-4" points="461 486.44 467.85 484.94 474.98 483.48 482.11 482.01 489.2 480.37 496.27 478.6 503.3 476.69 510.54 475.7 517.67 474.2 524.77 472.6 531.88 471.02 538.93 469.16 545.93 467.11 553.21 466.32 560.26 464.45 567.33 462.73 574.53 461.56 581.52 459.45 588.66 457.96 595.88 456.84 602.92 454.99 609.33 457.43 616.03 459.06 622.15 461.65 615.21 462.93 608.17 464.83 600.99 466.05 593.95 467.96 586.9 469.77 579.84 471.57 572.55 472.33 565.5 474.2 558.46 476.05 551.4 477.87 544.15 478.81 537.08 480.54 529.91 481.86 522.78 483.34 515.72 485.11 508.73 487.27 501.62 488.83 494.32 489.57 487.3 491.58 480.16 493.4 473.75 490.72 467.29 488.38 461 486.44"/><polygon class="cls-3" points="480.52 513.56 487.69 512.12 494.87 510.9 501.79 508.48 508.93 507.04 515.99 505.26 523.29 504.55 530.22 502.16 537.43 501.04 544.57 499.61 551.59 497.61 558.67 495.91 565.83 494.59 573.01 493.31 580.15 491.88 587.28 490.39 594.33 488.54 601.36 486.63 608.57 485.49 615.71 484 622.75 482.34 629.35 484.89 636.11 487.18 643.07 489.47 635.74 490.87 628.64 492.48 621.5 493.94 614.53 496.11 607.3 497.15 600.2 498.74 593.02 500.01 585.95 501.76 578.84 503.34 571.77 505.09 564.63 506.54 557.61 508.51 550.41 509.65 543.33 511.37 536.3 513.32 529.05 514.25 521.98 515.97 514.8 517.27 507.76 519.21 500.69 520.5 494.04 518.24 487.4 515.61 480.52 513.56"/><polygon class="cls-4" points="480.52 513.56 487.69 512.12 494.87 510.9 501.79 508.48 508.93 507.04 515.99 505.26 523.29 504.55 530.22 502.16 537.43 501.04 544.57 499.61 551.59 497.61 558.67 495.91 565.83 494.59 573.01 493.31 580.15 491.88 587.28 490.39 594.33 488.54 601.36 486.63 608.57 485.49 615.71 484 622.75 482.34 629.35 484.89 636.11 487.18 643.07 489.47 635.74 490.87 628.64 492.48 621.5 493.94 614.53 496.11 607.3 497.15 600.2 498.74 593.02 500.01 585.95 501.76 578.84 503.34 571.77 505.09 564.63 506.54 557.61 508.51 550.41 509.65 543.33 511.37 536.3 513.32 529.05 514.25 521.98 515.97 514.8 517.27 507.76 519.21 500.69 520.5 494.04 518.24 487.4 515.61 480.52 513.56"/><polygon class="cls-3" points="500.7 541 507.83 539.7 514.85 537.7 522.09 536.76 529.02 534.36 536.22 533.19 543.3 531.52 550.47 530.19 557.64 528.9 564.74 527.3 571.84 525.67 578.78 523.31 585.98 522.17 593.06 520.47 600.28 519.37 607.39 517.83 614.42 515.86 621.48 514.1 628.56 512.37 635.65 510.66 642.86 509.81 649.71 511.65 656.35 514.25 662.92 516.88 655.92 518.6 648.87 520.42 641.68 521.65 634.5 522.89 627.4 524.5 620.4 526.58 613.14 527.45 606.04 529.09 599.11 531.46 591.92 532.66 584.88 534.58 577.71 535.84 570.53 537.09 563.52 539.14 556.36 540.49 549.15 541.63 542.11 543.5 535.1 545.55 527.96 547.02 520.8 547.97 514.05 545.96 507.5 543.09 500.7 541"/><polygon class="cls-4" points="500.7 541 507.83 539.7 514.85 537.7 522.09 536.76 529.02 534.36 536.22 533.19 543.3 531.52 550.47 530.19 557.64 528.9 564.74 527.3 571.84 525.67 578.78 523.31 585.98 522.17 593.06 520.47 600.28 519.37 607.39 517.83 614.42 515.86 621.48 514.1 628.56 512.37 635.65 510.66 642.86 509.81 649.71 511.65 656.35 514.25 662.92 516.88 655.92 518.6 648.87 520.42 641.68 521.65 634.5 522.89 627.4 524.5 620.4 526.58 613.14 527.45 606.04 529.09 599.11 531.46 591.92 532.66 584.88 534.58 577.71 535.84 570.53 537.09 563.52 539.14 556.36 540.49 549.15 541.63 542.11 543.5 535.1 545.55 527.96 547.02 520.8 547.97 514.05 545.96 507.5 543.09 500.7 541"/><polygon class="cls-3" points="520.81 568.44 527.64 570.46 534.14 573.46 540.91 575.47 548.1 574.61 555.19 572.98 562.13 570.67 569.43 569.94 576.45 567.99 583.64 566.78 590.75 565.2 597.66 562.71 604.82 561.37 611.99 560.04 619.04 558.24 626.23 557.01 633.34 555.46 640.38 553.56 647.62 552.58 654.57 550.26 661.73 548.92 668.96 547.88 675.99 545.91 682.79 544.29 676.37 541.98 669.75 539.3 662.99 537.08 655.97 538.96 648.67 539.66 641.76 542.12 634.53 543.13 627.47 544.92 620.45 546.91 613.22 547.92 606.19 549.87 598.93 550.78 591.92 552.81 584.86 554.59 577.71 555.98 570.55 557.31 563.44 558.91 556.37 560.65 549.18 561.88 542.06 563.39 534.93 564.91 527.91 566.92 520.81 568.44"/><polygon class="cls-4" points="520.81 568.44 527.64 570.46 534.14 573.46 540.91 575.47 548.1 574.61 555.19 572.98 562.13 570.67 569.43 569.94 576.45 567.99 583.64 566.78 590.75 565.2 597.66 562.71 604.82 561.37 611.99 560.04 619.04 558.24 626.23 557.01 633.34 555.46 640.38 553.56 647.62 552.58 654.57 550.26 661.73 548.92 668.96 547.88 675.99 545.91 682.79 544.29 676.37 541.98 669.75 539.3 662.99 537.08 655.97 538.96 648.67 539.66 641.76 542.12 634.53 543.13 627.47 544.92 620.45 546.91 613.22 547.92 606.19 549.87 598.93 550.78 591.92 552.81 584.86 554.59 577.71 555.98 570.55 557.31 563.44 558.91 556.37 560.65 549.18 561.88 542.06 563.39 534.93 564.91 527.91 566.92 520.81 568.44"/><polygon class="cls-3" points="540.93 595.88 548.02 594.37 555.03 592.35 562.14 590.82 569.29 589.44 576.4 587.84 583.49 586.19 590.74 585.27 597.71 583.06 604.77 581.25 611.93 579.91 619.06 578.4 626.18 576.9 633.21 574.96 640.39 573.7 647.64 572.77 654.62 570.6 661.86 569.63 668.88 567.63 676.03 566.18 683.09 564.69 689.66 567.28 696.58 569.13 703.7 571.8 696.18 573.64 688.91 574.44 681.92 576.55 674.84 578.26 667.64 579.44 660.63 581.46 653.54 583.09 646.4 584.56 639.18 585.6 632.05 587.11 625 588.93 617.96 590.84 610.87 592.48 603.63 593.46 596.58 595.29 589.58 597.38 582.46 598.91 575.2 599.82 568.15 601.73 561.01 603.18 554.22 600.99 547.6 598.31 540.93 595.88"/><polygon class="cls-4" points="540.93 595.88 548.02 594.37 555.03 592.35 562.14 590.82 569.29 589.44 576.4 587.84 583.49 586.19 590.74 585.27 597.71 583.06 604.77 581.25 611.93 579.91 619.06 578.4 626.18 576.9 633.21 574.96 640.39 573.7 647.64 572.77 654.62 570.6 661.86 569.63 668.88 567.63 676.03 566.18 683.09 564.69 689.66 567.28 696.58 569.13 703.7 571.8 696.18 573.64 688.91 574.44 681.92 576.55 674.84 578.26 667.64 579.44 660.63 581.46 653.54 583.09 646.4 584.56 639.18 585.6 632.05 587.11 625 588.93 617.96 590.84 610.87 592.48 603.63 593.46 596.58 595.29 589.58 597.38 582.46 598.91 575.2 599.82 568.15 601.73 561.01 603.18 554.22 600.99 547.6 598.31 540.93 595.88"/><polygon points="420.2 410.71 420.44 417.53 420.75 424.27 420.04 431.36 427.47 429.71 434.45 427.56 441.64 426.39 448.83 425.19 455.87 423.29 462.95 421.59 469.97 419.62 477.08 418.04 484.23 416.63 491.49 415.74 498.51 413.78 505.5 411.68 512.7 410.48 519.86 409.16 526.97 407.58 534.09 406.03 541.16 404.29 548.22 402.48 555.43 401.32 562.57 399.62 562.36 392.83 562.28 386.1 562.52 379.34 555.31 380.52 548.31 382.58 541.27 384.45 534.1 385.73 526.86 386.74 519.86 388.79 512.78 390.51 505.58 391.66 498.49 393.32 491.38 394.9 484.33 396.73 477.26 398.5 470 399.39 463.01 401.5 455.82 402.72 448.74 404.43 441.69 406.26 434.59 407.9 427.52 409.68 420.2 410.71"/><polygon class="cls-4" points="420.2 410.71 420.44 417.53 420.75 424.27 420.04 431.36 427.47 429.71 434.45 427.56 441.64 426.39 448.83 425.19 455.87 423.29 462.95 421.59 469.97 419.62 477.08 418.04 484.23 416.63 491.49 415.74 498.51 413.78 505.5 411.68 512.7 410.48 519.86 409.16 526.97 407.58 534.09 406.03 541.16 404.29 548.22 402.48 555.43 401.32 562.57 399.62 562.36 392.83 562.28 386.1 562.52 379.34 555.31 380.52 548.31 382.58 541.27 384.45 534.1 385.73 526.86 386.74 519.86 388.79 512.78 390.51 505.58 391.66 498.49 393.32 491.38 394.9 484.33 396.73 477.26 398.5 470 399.39 463.01 401.5 455.82 402.72 448.74 404.43 441.69 406.26 434.59 407.9 427.52 409.68 420.2 410.71"/><polygon points="440.73 458.4 447.53 456.73 454.66 455.26 461.75 453.65 468.85 452.02 475.99 450.59 483.12 449.1 490.27 447.74 497.36 446.05 504.41 444.23 511.53 442.7 518.62 441.03 525.71 439.36 532.99 438.58 540.01 436.57 547.23 435.52 554.31 433.8 561.44 432.33 568.54 430.66 575.62 428.95 582.95 427.46 582.54 420.53 582.66 413.79 582.45 407.42 575.56 408.4 568.56 410.46 561.34 411.52 554.26 413.2 547.23 415.15 540.18 416.96 532.92 417.9 525.82 419.47 518.82 421.56 511.67 422.96 504.53 424.41 497.47 426.19 490.23 427.14 483.27 429.42 476.18 431.06 468.88 431.78 461.86 433.78 454.71 435.17 447.58 436.72 440.56 438.54 440.31 445.22 440.99 451.95 440.73 458.4"/><polygon class="cls-4" points="440.73 458.4 447.53 456.73 454.66 455.26 461.75 453.65 468.85 452.02 475.99 450.59 483.12 449.1 490.27 447.74 497.36 446.05 504.41 444.23 511.53 442.7 518.62 441.03 525.71 439.36 532.99 438.58 540.01 436.57 547.23 435.52 554.31 433.8 561.44 432.33 568.54 430.66 575.62 428.95 582.95 427.46 582.54 420.53 582.66 413.79 582.45 407.42 575.56 408.4 568.56 410.46 561.34 411.52 554.26 413.2 547.23 415.15 540.18 416.96 532.92 417.9 525.82 419.47 518.82 421.56 511.67 422.96 504.53 424.41 497.47 426.19 490.23 427.14 483.27 429.42 476.18 431.06 468.88 431.78 461.86 433.78 454.71 435.17 447.58 436.72 440.56 438.54 440.31 445.22 440.99 451.95 440.73 458.4"/><polygon points="460.81 466.26 460.68 472.92 460.64 479.65 460.89 486.15 467.76 484.55 474.92 483.21 482.13 482.09 489.16 480.17 496.26 478.55 503.4 477.11 510.4 475.06 517.57 473.75 524.7 472.29 531.7 470.2 538.89 468.98 546 467.44 553.05 465.59 560.28 464.56 567.38 462.95 574.47 461.26 581.62 459.9 588.6 457.69 595.88 456.84 603.12 455.12 602.52 448.22 602.99 441.48 603.18 434.39 595.91 436.71 588.66 437.63 581.51 439.05 574.51 441.11 567.49 443.04 560.2 443.83 553.24 446.07 546.14 447.71 539.05 449.34 531.83 450.44 524.74 452.11 517.67 453.82 510.43 454.83 503.45 456.97 496.21 457.97 489.12 459.63 482.13 461.72 474.94 462.95 467.8 464.43 460.81 466.26"/><polygon class="cls-4" points="460.81 466.26 460.68 472.92 460.64 479.65 460.89 486.15 467.76 484.55 474.92 483.21 482.13 482.09 489.16 480.17 496.26 478.55 503.4 477.11 510.4 475.06 517.57 473.75 524.7 472.29 531.7 470.2 538.89 468.98 546 467.44 553.05 465.59 560.28 464.56 567.38 462.95 574.47 461.26 581.62 459.9 588.6 457.69 595.88 456.84 603.12 455.12 602.52 448.22 602.99 441.48 603.18 434.39 595.91 436.71 588.66 437.63 581.51 439.05 574.51 441.11 567.49 443.04 560.2 443.83 553.24 446.07 546.14 447.71 539.05 449.34 531.83 450.44 524.74 452.11 517.67 453.82 510.43 454.83 503.45 456.97 496.21 457.97 489.12 459.63 482.13 461.72 474.94 462.95 467.8 464.43 460.81 466.26"/><polygon points="622.79 461.97 615.59 463.35 608.59 465.5 601.41 466.81 594.21 468.03 587.22 470.18 580.11 471.83 572.86 472.85 565.78 474.63 558.54 475.69 551.47 477.47 544.35 479.08 537.23 480.67 530.18 482.58 522.91 483.52 515.81 485.2 508.77 487.18 501.51 488.13 494.45 490.01 487.26 491.34 480.43 493.34 480.35 499.94 480.66 506.75 480.7 513.35 487.61 511.79 494.71 510.17 501.86 508.77 509.01 507.42 516.17 506.09 523.11 503.72 530.32 502.61 537.43 501.06 544.53 499.41 551.64 497.85 558.73 496.19 565.8 494.43 572.97 493.15 580.04 491.37 587.21 490.07 594.28 488.35 601.5 487.28 608.53 485.32 615.63 483.63 622.39 481.81 623.19 475.43 622.89 468.72 622.79 461.97"/><polygon class="cls-4" points="622.79 461.97 615.59 463.35 608.59 465.5 601.41 466.81 594.21 468.03 587.22 470.18 580.11 471.83 572.86 472.85 565.78 474.63 558.54 475.69 551.47 477.47 544.35 479.08 537.23 480.67 530.18 482.58 522.91 483.52 515.81 485.2 508.77 487.18 501.51 488.13 494.45 490.01 487.26 491.34 480.43 493.34 480.35 499.94 480.66 506.75 480.7 513.35 487.61 511.79 494.71 510.17 501.86 508.77 509.01 507.42 516.17 506.09 523.11 503.72 530.32 502.61 537.43 501.06 544.53 499.41 551.64 497.85 558.73 496.19 565.8 494.43 572.97 493.15 580.04 491.37 587.21 490.07 594.28 488.35 601.5 487.28 608.53 485.32 615.63 483.63 622.39 481.81 623.19 475.43 622.89 468.72 622.79 461.97"/><polygon points="500.65 520.87 500.44 527.59 500.93 534.29 500.75 540.88 507.85 539.78 514.97 538.24 521.99 536.29 529.05 534.5 536.24 533.3 543.28 531.44 550.48 530.23 557.46 528.07 564.75 527.31 571.83 525.61 578.87 523.75 586.01 522.31 593.01 520.24 600.23 519.16 607.39 517.83 614.51 516.27 621.58 514.55 628.75 513.2 635.69 510.85 642.92 509.6 642.45 502.86 642.96 496.15 643 489.27 635.74 490.88 628.65 492.53 621.52 494.02 614.38 495.42 607.24 496.86 600.14 498.5 593.12 500.45 585.93 501.65 579 504.04 571.81 505.27 564.76 507.13 557.49 507.93 550.5 510.05 543.29 511.19 536.28 513.23 529.21 514.98 522.04 516.27 514.8 517.27 507.71 518.95 500.65 520.87"/><polygon class="cls-4" points="500.65 520.87 500.44 527.59 500.93 534.29 500.75 540.88 507.85 539.78 514.97 538.24 521.99 536.29 529.05 534.5 536.24 533.3 543.28 531.44 550.48 530.23 557.46 528.07 564.75 527.31 571.83 525.61 578.87 523.75 586.01 522.31 593.01 520.24 600.23 519.16 607.39 517.83 614.51 516.27 621.58 514.55 628.75 513.2 635.69 510.85 642.92 509.6 642.45 502.86 642.96 496.15 643 489.27 635.74 490.88 628.65 492.53 621.52 494.02 614.38 495.42 607.24 496.86 600.14 498.5 593.12 500.45 585.93 501.65 579 504.04 571.81 505.27 564.76 507.13 557.49 507.93 550.5 510.05 543.29 511.19 536.28 513.23 529.21 514.98 522.04 516.27 514.8 517.27 507.71 518.95 500.65 520.87"/><polygon points="521.01 548.52 521.18 555.02 520.79 561.73 520.95 568.21 527.85 566.67 535.04 565.48 542.03 563.41 549.12 561.73 556.22 560.11 563.33 558.57 570.62 557.79 577.74 556.26 584.72 554.13 591.87 552.73 598.9 550.79 606.01 549.21 613.26 548.29 620.38 546.78 627.47 545.09 634.53 543.31 641.65 541.77 648.79 540.33 655.94 538.9 662.64 536.7 663.35 530.3 663.02 523.59 662.8 517.14 655.8 518.06 648.88 520.49 641.61 521.31 634.56 523.17 627.36 524.31 620.45 526.79 613.34 528.35 606.15 529.56 599.11 531.46 591.88 532.51 584.83 534.35 577.74 535.97 570.48 536.9 563.47 538.91 556.33 540.34 549.27 542.17 542.05 543.24 535.12 545.64 527.89 546.72 521.01 548.52"/><polygon class="cls-4" points="521.01 548.52 521.18 555.02 520.79 561.73 520.95 568.21 527.85 566.67 535.04 565.48 542.03 563.41 549.12 561.73 556.22 560.11 563.33 558.57 570.62 557.79 577.74 556.26 584.72 554.13 591.87 552.73 598.9 550.79 606.01 549.21 613.26 548.29 620.38 546.78 627.47 545.09 634.53 543.31 641.65 541.77 648.79 540.33 655.94 538.9 662.64 536.7 663.35 530.3 663.02 523.59 662.8 517.14 655.8 518.06 648.88 520.49 641.61 521.31 634.56 523.17 627.36 524.31 620.45 526.79 613.34 528.35 606.15 529.56 599.11 531.46 591.88 532.51 584.83 534.35 577.74 535.97 570.48 536.9 563.47 538.91 556.33 540.34 549.27 542.17 542.05 543.24 535.12 545.64 527.89 546.72 521.01 548.52"/><polygon points="540.98 575.83 540.45 582.46 540.63 589.17 540.61 596.27 548.06 594.56 555.07 592.55 562.25 591.31 569.35 589.67 576.41 587.9 583.52 586.33 590.76 585.35 597.72 583.09 604.92 581.96 611.97 580.08 619 578.14 626.17 576.87 633.37 575.69 640.36 573.6 647.43 571.81 654.58 570.42 661.73 569.06 668.82 567.34 676.09 566.45 683.01 564.35 683.49 557.73 683.16 551.03 682.86 544.67 675.94 545.61 668.99 547.91 661.87 549.4 654.69 550.66 647.57 552.18 640.53 554.08 633.44 555.72 626.29 557.11 619.22 558.87 612 559.97 604.98 561.94 597.71 562.78 590.74 564.96 583.61 566.45 576.41 567.61 569.38 569.54 562.24 571 555.1 572.46 547.96 573.93 540.98 575.83"/><polygon class="cls-4" points="540.98 575.83 540.45 582.46 540.63 589.17 540.61 596.27 548.06 594.56 555.07 592.55 562.25 591.31 569.35 589.67 576.41 587.9 583.52 586.33 590.76 585.35 597.72 583.09 604.92 581.96 611.97 580.08 619 578.14 626.17 576.87 633.37 575.69 640.36 573.6 647.43 571.81 654.58 570.42 661.73 569.06 668.82 567.34 676.09 566.45 683.01 564.35 683.49 557.73 683.16 551.03 682.86 544.67 675.94 545.61 668.99 547.91 661.87 549.4 654.69 550.66 647.57 552.18 640.53 554.08 633.44 555.72 626.29 557.11 619.22 558.87 612 559.97 604.98 561.94 597.71 562.78 590.74 564.96 583.61 566.45 576.41 567.61 569.38 569.54 562.24 571 555.1 572.46 547.96 573.93 540.98 575.83"/><polygon points="560.89 622.42 561.05 615.9 560.65 609.55 560.8 603.01 568.03 601.24 575.29 600.33 582.26 598.13 589.53 597.31 596.53 595.25 603.73 594.07 610.66 591.71 617.82 590.34 624.93 588.8 632.07 587.33 639.27 586.17 646.35 584.46 653.53 583.22 660.62 581.58 667.74 580.02 674.83 578.37 681.8 576.19 688.89 574.47 696.03 573.01 703.06 572 702.9 578.11 703.31 584.46 703.26 590.85 696.03 592 689.02 594.01 681.92 595.61 674.69 596.64 667.79 599.16 660.64 600.52 653.5 602 646.43 603.75 639.26 605.04 632.19 606.8 625.02 608.11 617.96 609.85 610.74 610.95 603.71 612.89 596.63 614.6 589.54 616.29 582.28 617.17 575.27 619.2 568.09 620.48 560.89 622.42"/><polygon class="cls-4" points="560.89 622.42 561.05 615.9 560.65 609.55 560.8 603.01 568.03 601.24 575.29 600.33 582.26 598.13 589.53 597.31 596.53 595.25 603.73 594.07 610.66 591.71 617.82 590.34 624.93 588.8 632.07 587.33 639.27 586.17 646.35 584.46 653.53 583.22 660.62 581.58 667.74 580.02 674.83 578.37 681.8 576.19 688.89 574.47 696.03 573.01 703.06 572 702.9 578.11 703.31 584.46 703.26 590.85 696.03 592 689.02 594.01 681.92 595.61 674.69 596.64 667.79 599.16 660.64 600.52 653.5 602 646.43 603.75 639.26 605.04 632.19 606.8 625.02 608.11 617.96 609.85 610.74 610.95 603.71 612.89 596.63 614.6 589.54 616.29 582.28 617.17 575.27 619.2 568.09 620.48 560.89 622.42"/><polyline class="cls-3" points="562.42 395.93 562.1 389.58 562.08 383.23 562.48 376.61 555.5 374.24 548.86 371.63 541.98 369.58 541.8 362.85 542.22 356.15 542.36 349.19 535.17 347.39 528.66 344.43 522.25 341.86 521.65 335.42 522.36 328.71 522.27 321.74 515.29 319.33 508.47 317.18 501.62 314.8 502.1 307.98 501.34 301.27 501.57 294.73 494.95 292.5 488.37 289.72 481.51 287.36 482.08 280.54 481.38 273.84 481.81 267.03 475.05 264.49 468.4 261.88 461.8 259.64 461.78 253.11 461.97 246.4 461.69 239.6 454.77 237.5 448 235.22 441.62 232.25 440.96 225.67 441.76 218.97 441.65 212.1 434.7 209.93 428.16 207.03 421.12 205.09 420.95 198.24 421.75 191.53 421.45 184.73 414.6 182.45 407.76 180.37 401.29 177.3"/><polyline class="cls-2" points="562.42 395.93 562.1 389.58 562.08 383.23 562.48 376.61 555.5 374.24 548.86 371.63 541.98 369.58 541.8 362.85 542.22 356.15 542.36 349.19 535.17 347.39 528.66 344.43 522.25 341.86 521.65 335.42 522.36 328.71 522.27 321.74 515.29 319.33 508.47 317.18 501.62 314.8 502.1 307.98 501.34 301.27 501.57 294.73 494.95 292.5 488.37 289.72 481.51 287.36 482.08 280.54 481.38 273.84 481.81 267.03 475.05 264.49 468.4 261.88 461.8 259.64 461.78 253.11 461.97 246.4 461.69 239.6 454.77 237.5 448 235.22 441.62 232.25 440.96 225.67 441.76 218.97 441.65 212.1 434.7 209.93 428.16 207.03 421.12 205.09 420.95 198.24 421.75 191.53 421.45 184.73 414.6 182.45 407.76 180.37 401.29 177.3"/><polygon points="420.31 408.02 413.17 406.03 406.54 403.36 399.45 401.26 399.73 394.29 399.49 387.58 400.1 380.66 393.15 378.32 386.31 376.24 379.44 373.74 379.23 366.85 379.65 360.15 379.79 353.37 373.12 350.64 366.39 348.26 359.96 345.83 359.72 339.42 359.54 332.71 359.43 326.11 352.89 323.54 346.23 320.96 339.51 318.65 339 311.98 339.68 305.27 339.29 298.69 332.77 296.09 326.19 293.33 318.96 291.53 319.34 284.54 319.66 277.84 319.21 271.23 312.52 269.04 306.1 265.8 299.16 263.86 299.33 257.11 299.48 250.4 298.83 243.99 292.4 241.6 285.94 238.5 279.04 236.43 279.48 229.67 279.41 222.96 278.92 216.4 272.49 213.63 265.64 211.57 258.91 208.81 259.13 216.2 258.53 223.46 258.51 230.72 258.89 237.99 258.58 245.25 259.05 252.52 258.98 259.78 259.15 267.05 258.63 274.31 259.42 281.58 258.8 288.85 258.65 296.11 259.32 303.38 259.5 310.64 258.66 317.91 258.93 325.18 259.06 332.44 258.65 339.71 258.6 346.98 258.74 354.25 259.23 361.53 258.61 369.07 265.87 370.78 272.25 374.12 279.1 376.13 285.77 378.66 292.61 380.72 299.21 383.44 306.06 385.49 312.73 388.01 319.47 390.35 325.94 393.44 332.67 395.82 339.37 398.27 345.98 400.98 352.98 402.6 359.73 404.94 366.23 407.91 372.88 410.52 379.69 412.66 386.32 415.31 393.05 417.71 399.87 419.81 406.38 422.81 413.14 425.12 419.98 427.47 420.29 421.02 420.21 414.68 420.31 408.02"/><polygon class="cls-2" points="420.31 408.02 413.17 406.03 406.54 403.36 399.45 401.26 399.73 394.29 399.49 387.58 400.1 380.66 393.15 378.32 386.31 376.24 379.44 373.74 379.23 366.85 379.65 360.15 379.79 353.37 373.12 350.64 366.39 348.26 359.96 345.83 359.72 339.42 359.54 332.71 359.43 326.11 352.89 323.54 346.23 320.96 339.51 318.65 339 311.98 339.68 305.27 339.29 298.69 332.77 296.09 326.19 293.33 318.96 291.53 319.34 284.54 319.66 277.84 319.21 271.23 312.52 269.04 306.1 265.8 299.16 263.86 299.33 257.11 299.48 250.4 298.83 243.99 292.4 241.6 285.94 238.5 279.04 236.43 279.48 229.67 279.41 222.96 278.92 216.4 272.49 213.63 265.64 211.57 258.91 208.81 259.13 216.2 258.53 223.46 258.51 230.72 258.89 237.99 258.58 245.25 259.05 252.52 258.98 259.78 259.15 267.05 258.63 274.31 259.42 281.58 258.8 288.85 258.65 296.11 259.32 303.38 259.5 310.64 258.66 317.91 258.93 325.18 259.06 332.44 258.65 339.71 258.6 346.98 258.74 354.25 259.23 361.53 258.61 369.07 265.87 370.78 272.25 374.12 279.1 376.13 285.77 378.66 292.61 380.72 299.21 383.44 306.06 385.49 312.73 388.01 319.47 390.35 325.94 393.44 332.67 395.82 339.37 398.27 345.98 400.98 352.98 402.6 359.73 404.94 366.23 407.91 372.88 410.52 379.69 412.66 386.32 415.31 393.05 417.71 399.87 419.81 406.38 422.81 413.14 425.12 419.98 427.47 420.29 421.02 420.21 414.68 420.31 408.02"/><polygon class="cls-3" points="258.83 209.16 266.13 207.7 273.2 205.98 280.38 204.74 287.49 203.14 294.5 201.12 301.67 199.85 308.76 198.18 315.87 196.59 322.96 194.94 330.02 193.16 337.3 192.34 344.32 190.39 351.49 189.06 358.47 186.9 365.66 185.69 372.82 184.34 379.76 182.02 387.02 181.1 394.12 179.44 401.24 177.29 407.96 179.94 414.67 182.26 420.95 184.43 414.26 185.81 407.23 187.73 400.1 189.19 392.93 190.47 385.93 192.54 378.81 194.1 371.71 195.71 364.57 197.13 357.45 198.66 350.27 199.91 343.13 201.36 336.11 203.32 329.01 204.92 321.84 206.22 314.74 207.86 307.69 209.72 300.62 211.43 293.36 212.34 286.43 214.79 279.2 216.11 272.35 214.06 265.72 211.47 258.83 209.16"/><polygon class="cls-4" points="258.83 209.16 266.13 207.7 273.2 205.98 280.38 204.74 287.49 203.14 294.5 201.12 301.67 199.85 308.76 198.18 315.87 196.59 322.96 194.94 330.02 193.16 337.3 192.34 344.32 190.39 351.49 189.06 358.47 186.9 365.66 185.69 372.82 184.34 379.76 182.02 387.02 181.1 394.12 179.44 401.24 177.29 407.96 179.94 414.67 182.26 420.95 184.43 414.26 185.81 407.23 187.73 400.1 189.19 392.93 190.47 385.93 192.54 378.81 194.1 371.71 195.71 364.57 197.13 357.45 198.66 350.27 199.91 343.13 201.36 336.11 203.32 329.01 204.92 321.84 206.22 314.74 207.86 307.69 209.72 300.62 211.43 293.36 212.34 286.43 214.79 279.2 216.11 272.35 214.06 265.72 211.47 258.83 209.16"/><polygon class="cls-3" points="299.44 243.23 306.46 241.72 313.68 240.65 320.79 239.13 327.83 237.23 335.01 236 342.13 234.44 349.16 232.51 356.22 230.72 363.43 229.59 370.49 227.79 377.61 226.26 384.72 224.72 391.86 223.28 398.97 221.72 406.09 220.16 413.26 218.86 420.38 217.38 427.42 215.43 434.46 213.5 441.74 212.18 434.9 209.66 428.14 207.23 421.42 204.79 414.4 206.64 407.15 207.57 400.02 209.04 393.08 211.38 385.79 212.1 378.71 213.81 371.63 215.52 364.6 217.48 357.37 218.51 350.43 220.83 343.32 222.43 336.04 223.19 328.92 224.74 322 227.17 314.81 228.36 307.6 229.52 300.48 231.02 293.37 232.61 286.38 234.8 279.34 236.13 286.07 238.26 292.58 241.41 299.44 243.23"/><polygon class="cls-4" points="299.44 243.23 306.46 241.72 313.68 240.65 320.79 239.13 327.83 237.23 335.01 236 342.13 234.44 349.16 232.51 356.22 230.72 363.43 229.59 370.49 227.79 377.61 226.26 384.72 224.72 391.86 223.28 398.97 221.72 406.09 220.16 413.26 218.86 420.38 217.38 427.42 215.43 434.46 213.5 441.74 212.18 434.9 209.66 428.14 207.23 421.42 204.79 414.4 206.64 407.15 207.57 400.02 209.04 393.08 211.38 385.79 212.1 378.71 213.81 371.63 215.52 364.6 217.48 357.37 218.51 350.43 220.83 343.32 222.43 336.04 223.19 328.92 224.74 322 227.17 314.81 228.36 307.6 229.52 300.48 231.02 293.37 232.61 286.38 234.8 279.34 236.13 286.07 238.26 292.58 241.41 299.44 243.23"/><polygon class="cls-3" points="299.14 263.79 306.5 262.1 313.61 260.55 320.83 259.5 327.91 257.78 334.98 256.07 342.01 254.13 349.14 252.64 356.25 251.07 363.48 250.03 370.57 248.4 377.66 246.72 384.65 244.6 391.76 243.06 398.94 241.79 406.12 240.51 413.08 238.29 420.33 237.35 427.32 235.22 434.46 233.73 441.64 232.18 448.5 234.52 455.19 237.12 461.62 239.84 454.7 241.31 447.6 242.9 440.51 244.55 433.45 246.33 426.25 247.49 419.1 248.87 412.09 250.93 404.88 252.04 397.96 254.47 390.77 255.68 383.67 257.3 376.49 258.52 369.37 260.04 362.37 262.12 355.22 263.51 348.02 264.69 341.03 266.8 333.78 267.75 326.77 269.82 319.61 271.56 312.79 269.11 306.18 266.25 299.14 263.79"/><polygon class="cls-4" points="299.14 263.79 306.5 262.1 313.61 260.55 320.83 259.5 327.91 257.78 334.98 256.07 342.01 254.13 349.14 252.64 356.25 251.07 363.48 250.03 370.57 248.4 377.66 246.72 384.65 244.6 391.76 243.06 398.94 241.79 406.12 240.51 413.08 238.29 420.33 237.35 427.32 235.22 434.46 233.73 441.64 232.18 448.5 234.52 455.19 237.12 461.62 239.84 454.7 241.31 447.6 242.9 440.51 244.55 433.45 246.33 426.25 247.49 419.1 248.87 412.09 250.93 404.88 252.04 397.96 254.47 390.77 255.68 383.67 257.3 376.49 258.52 369.37 260.04 362.37 262.12 355.22 263.51 348.02 264.69 341.03 266.8 333.78 267.75 326.77 269.82 319.61 271.56 312.79 269.11 306.18 266.25 299.14 263.79"/><polygon class="cls-3" points="319.82 291.54 326.8 290.25 333.81 288.24 340.99 286.98 348.05 285.19 355.25 284.05 362.2 281.72 369.49 280.96 376.49 278.92 383.63 277.45 390.77 276.02 397.76 273.93 404.95 272.72 411.99 270.81 419.18 269.6 426.28 268.02 433.32 266.09 440.5 264.87 447.6 263.2 454.72 261.65 461.86 259.7 468.32 262.34 474.74 264.78 481.51 266.84 474.24 268.59 467.06 269.84 460.08 272.01 452.85 273.01 445.82 274.94 438.6 276.03 431.52 277.71 424.44 279.43 417.37 281.18 410.27 282.81 403.16 284.39 396.03 285.84 388.9 287.34 381.69 288.45 374.75 290.78 367.47 291.61 360.45 293.54 353.42 295.52 346.14 296.36 339.11 297.86 332.65 295.87 326.06 293.91 319.82 291.54"/><polygon class="cls-4" points="319.82 291.54 326.8 290.25 333.81 288.24 340.99 286.98 348.05 285.19 355.25 284.05 362.2 281.72 369.49 280.96 376.49 278.92 383.63 277.45 390.77 276.02 397.76 273.93 404.95 272.72 411.99 270.81 419.18 269.6 426.28 268.02 433.32 266.09 440.5 264.87 447.6 263.2 454.72 261.65 461.86 259.7 468.32 262.34 474.74 264.78 481.51 266.84 474.24 268.59 467.06 269.84 460.08 272.01 452.85 273.01 445.82 274.94 438.6 276.03 431.52 277.71 424.44 279.43 417.37 281.18 410.27 282.81 403.16 284.39 396.03 285.84 388.9 287.34 381.69 288.45 374.75 290.78 367.47 291.61 360.45 293.54 353.42 295.52 346.14 296.36 339.11 297.86 332.65 295.87 326.06 293.91 319.82 291.54"/><polygon class="cls-3" points="339.83 318.72 346.6 317.25 353.74 315.81 360.81 314.11 367.94 312.61 374.96 310.63 382.02 308.86 389.22 307.66 396.25 305.72 403.52 304.91 410.56 303.01 417.7 301.54 424.69 299.47 431.83 298.03 438.98 296.62 446.19 295.52 453.2 293.47 460.26 291.71 467.48 290.62 474.61 289.06 481.69 287.06 488.35 289.74 495.03 292.27 502.1 294.6 494.79 296.61 487.48 297.27 480.41 299.03 473.34 300.77 466.19 302.15 459.17 304.11 452.05 305.67 444.87 306.89 437.77 308.53 430.75 310.5 423.67 312.21 416.42 313.13 409.38 315.02 402.28 316.65 395.26 318.61 388.15 320.2 381.04 321.75 373.76 322.62 366.77 324.77 359.61 325.52 352.94 323.38 346.07 321.39 339.83 318.72"/><polygon class="cls-4" points="339.83 318.72 346.6 317.25 353.74 315.81 360.81 314.11 367.94 312.61 374.96 310.63 382.02 308.86 389.22 307.66 396.25 305.72 403.52 304.91 410.56 303.01 417.7 301.54 424.69 299.47 431.83 298.03 438.98 296.62 446.19 295.52 453.2 293.47 460.26 291.71 467.48 290.62 474.61 289.06 481.69 287.06 488.35 289.74 495.03 292.27 502.1 294.6 494.79 296.61 487.48 297.27 480.41 299.03 473.34 300.77 466.19 302.15 459.17 304.11 452.05 305.67 444.87 306.89 437.77 308.53 430.75 310.5 423.67 312.21 416.42 313.13 409.38 315.02 402.28 316.65 395.26 318.61 388.15 320.2 381.04 321.75 373.76 322.62 366.77 324.77 359.61 325.52 352.94 323.38 346.07 321.39 339.83 318.72"/><polygon class="cls-3" points="359.34 346.1 366.79 345.02 373.78 342.92 380.8 340.96 388.08 340.17 395.19 338.6 402.26 336.83 409.39 335.34 416.43 333.46 423.51 331.75 430.62 330.18 437.7 328.47 444.91 327.38 452.05 325.95 459.05 323.86 466.24 322.67 473.22 320.5 480.45 319.49 487.63 318.19 494.75 316.6 501.78 314.77 508.58 316.87 515.06 319.94 521.85 322 514.88 323.94 507.61 324.79 500.5 326.33 493.43 328.1 486.38 329.9 479.16 330.99 472.1 332.78 465.07 334.72 457.83 335.74 450.84 337.81 443.72 339.38 436.67 341.21 429.58 342.84 422.32 343.74 415.16 345.1 408.15 347.11 401.11 349 393.93 350.27 386.78 351.72 379.72 353.04 372.95 351.11 366.14 348.96 359.34 346.1"/><polygon class="cls-4" points="359.34 346.1 366.79 345.02 373.78 342.92 380.8 340.96 388.08 340.17 395.19 338.6 402.26 336.83 409.39 335.34 416.43 333.46 423.51 331.75 430.62 330.18 437.7 328.47 444.91 327.38 452.05 325.95 459.05 323.86 466.24 322.67 473.22 320.5 480.45 319.49 487.63 318.19 494.75 316.6 501.78 314.77 508.58 316.87 515.06 319.94 521.85 322 514.88 323.94 507.61 324.79 500.5 326.33 493.43 328.1 486.38 329.9 479.16 330.99 472.1 332.78 465.07 334.72 457.83 335.74 450.84 337.81 443.72 339.38 436.67 341.21 429.58 342.84 422.32 343.74 415.16 345.1 408.15 347.11 401.11 349 393.93 350.27 386.78 351.72 379.72 353.04 372.95 351.11 366.14 348.96 359.34 346.1"/><polygon class="cls-3" points="379.67 373.55 386.29 376.28 392.93 378.9 399.81 380.78 406.99 379.63 414.05 377.84 421.06 375.82 428.15 374.18 435.3 372.81 442.37 371.07 449.47 369.42 456.68 368.31 463.68 366.25 470.89 365.13 477.99 363.52 485.16 362.21 492.25 360.57 499.32 358.8 506.55 357.75 513.56 355.74 520.71 354.37 527.8 352.69 534.85 350.8 541.63 349.4 535.47 346.59 528.75 344.17 521.9 342.11 514.76 343.54 507.65 345.06 500.56 346.71 493.51 348.59 486.41 350.18 479.25 351.52 472.07 352.8 465.02 354.64 458.02 356.67 450.75 357.56 443.66 359.2 436.68 361.36 429.4 362.17 422.45 364.47 415.29 365.8 408.11 367.08 400.95 368.41 393.97 370.58 386.76 371.75 379.67 373.55"/><polygon class="cls-4" points="379.67 373.55 386.29 376.28 392.93 378.9 399.81 380.78 406.99 379.63 414.05 377.84 421.06 375.82 428.15 374.18 435.3 372.81 442.37 371.07 449.47 369.42 456.68 368.31 463.68 366.25 470.89 365.13 477.99 363.52 485.16 362.21 492.25 360.57 499.32 358.8 506.55 357.75 513.56 355.74 520.71 354.37 527.8 352.69 534.85 350.8 541.63 349.4 535.47 346.59 528.75 344.17 521.9 342.11 514.76 343.54 507.65 345.06 500.56 346.71 493.51 348.59 486.41 350.18 479.25 351.52 472.07 352.8 465.02 354.64 458.02 356.67 450.75 357.56 443.66 359.2 436.68 361.36 429.4 362.17 422.45 364.47 415.29 365.8 408.11 367.08 400.95 368.41 393.97 370.58 386.76 371.75 379.67 373.55"/><polygon class="cls-3" points="399.51 400.96 407 399.83 414.04 397.94 421.14 396.32 428.16 394.36 435.4 393.38 442.49 391.72 449.61 390.17 456.74 388.7 463.73 386.6 470.84 385 478.1 384.1 485.05 381.84 492.14 380.15 499.43 379.41 506.39 377.16 513.65 376.25 520.6 373.98 527.86 373.06 534.98 371.48 542.02 369.47 548.6 372.34 555.27 374.86 562.17 376.88 555.06 378.6 547.84 379.67 540.86 381.82 533.61 382.75 526.58 384.66 519.42 385.99 512.4 387.98 505.31 389.64 498.17 391.1 491.06 392.66 483.9 394.03 476.8 395.62 469.77 397.57 462.62 398.94 455.57 400.79 448.29 401.61 441.29 403.64 434.24 405.52 426.95 406.34 419.92 408.46 413.25 405.8 406.52 403.42 399.51 400.96"/><polygon class="cls-4" points="399.51 400.96 407 399.83 414.04 397.94 421.14 396.32 428.16 394.36 435.4 393.38 442.49 391.72 449.61 390.17 456.74 388.7 463.73 386.6 470.84 385 478.1 384.1 485.05 381.84 492.14 380.15 499.43 379.41 506.39 377.16 513.65 376.25 520.6 373.98 527.86 373.06 534.98 371.48 542.02 369.47 548.6 372.34 555.27 374.86 562.17 376.88 555.06 378.6 547.84 379.67 540.86 381.82 533.61 382.75 526.58 384.66 519.42 385.99 512.4 387.98 505.31 389.64 498.17 391.1 491.06 392.66 483.9 394.03 476.8 395.62 469.77 397.57 462.62 398.94 455.57 400.79 448.29 401.61 441.29 403.64 434.24 405.52 426.95 406.34 419.92 408.46 413.25 405.8 406.52 403.42 399.51 400.96"/><polygon points="279.09 215.81 279.1 222.65 279.21 229.38 279.22 236.1 286.3 234.47 293.47 233.18 300.46 231.1 307.69 230.07 314.67 227.91 321.83 226.55 329.02 225.37 336.18 224.02 343.21 222.07 350.37 220.72 357.36 218.58 364.59 217.59 371.62 215.64 378.74 214.14 385.82 212.42 392.99 211.1 400.05 209.32 407.19 207.88 414.37 206.58 421.47 204.73 421.63 197.95 421.61 191.22 421.14 184.86 414.22 185.63 407.1 187.14 400.13 189.31 393.05 191.02 385.99 192.79 378.8 194.01 371.68 195.55 364.55 197.04 357.38 198.34 350.23 199.73 343.13 201.37 336.12 203.38 328.94 204.62 321.93 206.65 314.71 207.71 307.71 209.8 300.51 210.95 293.46 212.84 286.32 214.31 279.09 215.81"/><polygon class="cls-4" points="279.09 215.81 279.1 222.65 279.21 229.38 279.22 236.1 286.3 234.47 293.47 233.18 300.46 231.1 307.69 230.07 314.67 227.91 321.83 226.55 329.02 225.37 336.18 224.02 343.21 222.07 350.37 220.72 357.36 218.58 364.59 217.59 371.62 215.64 378.74 214.14 385.82 212.42 392.99 211.1 400.05 209.32 407.19 207.88 414.37 206.58 421.47 204.73 421.63 197.95 421.61 191.22 421.14 184.86 414.22 185.63 407.1 187.14 400.13 189.31 393.05 191.02 385.99 192.79 378.8 194.01 371.68 195.55 364.55 197.04 357.38 198.34 350.23 199.73 343.13 201.37 336.12 203.38 328.94 204.62 321.93 206.65 314.71 207.71 307.71 209.8 300.51 210.95 293.46 212.84 286.32 214.31 279.09 215.81"/><polygon points="299.44 263.79 306.61 262.62 313.63 260.67 320.7 258.94 327.78 257.2 334.9 255.71 341.99 254.03 349.14 252.65 356.19 250.82 363.44 249.88 370.46 247.9 377.56 246.25 384.79 245.24 391.75 243.01 398.98 241.95 405.96 239.81 413.27 239.12 420.31 237.26 427.4 235.59 434.4 233.47 441.47 232.25 441.79 225.65 441.46 218.91 441.84 211.88 434.54 213.82 427.51 215.74 420.2 216.41 413.15 218.24 406.11 220.09 398.95 221.46 391.81 222.87 384.87 225.23 377.61 226.11 370.49 227.64 363.42 229.4 356.27 230.79 349.13 232.25 342.15 234.37 335.06 236.06 327.89 237.36 320.8 239 313.74 240.85 306.6 242.31 299.51 243.68 299.02 250.34 299.84 257.08 299.44 263.79"/><polygon class="cls-4" points="299.44 263.79 306.61 262.62 313.63 260.67 320.7 258.94 327.78 257.2 334.9 255.71 341.99 254.03 349.14 252.65 356.19 250.82 363.44 249.88 370.46 247.9 377.56 246.25 384.79 245.24 391.75 243.01 398.98 241.95 405.96 239.81 413.27 239.12 420.31 237.26 427.4 235.59 434.4 233.47 441.47 232.25 441.79 225.65 441.46 218.91 441.84 211.88 434.54 213.82 427.51 215.74 420.2 216.41 413.15 218.24 406.11 220.09 398.95 221.46 391.81 222.87 384.87 225.23 377.61 226.11 370.49 227.64 363.42 229.4 356.27 230.79 349.13 232.25 342.15 234.37 335.06 236.06 327.89 237.36 320.8 239 313.74 240.85 306.6 242.31 299.51 243.68 299.02 250.34 299.84 257.08 299.44 263.79"/><polygon points="319.91 271.54 319.29 278.04 319.55 284.77 319.69 291.43 326.65 289.58 333.81 288.2 340.86 286.37 348.08 285.32 355.26 284.09 362.32 282.3 369.45 280.77 376.57 279.25 383.51 276.94 390.64 275.45 397.8 274.1 405.02 273.04 412.12 271.41 419.09 269.2 426.36 268.36 433.44 266.63 440.56 265.11 447.65 263.46 454.68 261.48 462.2 260.38 461.51 253.34 462 246.6 461.99 239.66 454.74 241.45 447.52 242.53 440.47 244.35 433.33 245.78 426.38 248.06 419.11 248.91 412.02 250.6 404.97 252.42 397.94 254.35 390.79 255.78 383.72 257.5 376.56 258.86 369.38 260.12 362.22 261.45 355.18 263.33 348.05 264.85 341 266.66 333.76 267.67 326.67 269.41 319.91 271.54"/><polygon class="cls-4" points="319.91 271.54 319.29 278.04 319.55 284.77 319.69 291.43 326.65 289.58 333.81 288.2 340.86 286.37 348.08 285.32 355.26 284.09 362.32 282.3 369.45 280.77 376.57 279.25 383.51 276.94 390.64 275.45 397.8 274.1 405.02 273.04 412.12 271.41 419.09 269.2 426.36 268.36 433.44 266.63 440.56 265.11 447.65 263.46 454.68 261.48 462.2 260.38 461.51 253.34 462 246.6 461.99 239.66 454.74 241.45 447.52 242.53 440.47 244.35 433.33 245.78 426.38 248.06 419.11 248.91 412.02 250.6 404.97 252.42 397.94 254.35 390.79 255.78 383.72 257.5 376.56 258.86 369.38 260.12 362.22 261.45 355.18 263.33 348.05 264.85 341 266.66 333.76 267.67 326.67 269.41 319.91 271.54"/><polygon points="481.77 267 474.63 269.07 467.33 269.84 460.25 271.58 453.07 272.88 445.98 274.63 439 276.88 431.69 277.61 424.72 279.86 417.49 280.96 410.47 283.01 403.27 284.24 396.13 285.74 388.95 287.06 381.95 289.19 374.68 290.11 367.7 292.37 360.57 293.89 353.34 295 346.15 296.33 339.09 298.25 339.05 305.06 339.03 311.87 339.67 318.4 346.58 317.17 353.59 315.14 360.84 314.2 367.88 312.35 375.04 310.98 382.16 309.49 389.2 307.58 396.24 305.68 403.42 304.42 410.63 303.33 417.6 301.09 424.77 299.82 431.97 298.64 438.93 296.38 446.2 295.57 453.19 293.44 460.35 292.09 467.36 290.06 474.47 288.46 482.05 287.57 481.94 280.54 482.04 273.84 481.77 267"/><polygon class="cls-4" points="481.77 267 474.63 269.07 467.33 269.84 460.25 271.58 453.07 272.88 445.98 274.63 439 276.88 431.69 277.61 424.72 279.86 417.49 280.96 410.47 283.01 403.27 284.24 396.13 285.74 388.95 287.06 381.95 289.19 374.68 290.11 367.7 292.37 360.57 293.89 353.34 295 346.15 296.33 339.09 298.25 339.05 305.06 339.03 311.87 339.67 318.4 346.58 317.17 353.59 315.14 360.84 314.2 367.88 312.35 375.04 310.98 382.16 309.49 389.2 307.58 396.24 305.68 403.42 304.42 410.63 303.33 417.6 301.09 424.77 299.82 431.97 298.64 438.93 296.38 446.2 295.57 453.19 293.44 460.35 292.09 467.36 290.06 474.47 288.46 482.05 287.57 481.94 280.54 482.04 273.84 481.77 267"/><polygon points="359.55 325.98 359.46 332.71 359.35 339.41 359.78 345.84 366.61 344.21 373.78 342.91 380.85 341.19 387.95 339.57 395.14 338.37 402.29 336.98 409.36 335.21 416.39 333.31 423.57 332.04 430.57 329.97 437.87 329.24 444.92 327.4 451.97 325.57 459.19 324.5 466.16 322.29 473.27 320.72 480.34 318.96 487.57 317.9 494.62 316.02 501.55 314.48 502.23 307.98 501.57 301.27 501.9 294.41 494.78 296.57 487.62 297.93 480.5 299.43 473.28 300.5 466.18 302.08 459.17 304.14 452.01 305.49 445.01 307.55 437.74 308.38 430.7 310.3 423.52 311.57 416.41 313.12 409.46 315.41 402.26 316.54 395.13 318.04 388.14 320.19 380.94 321.3 373.88 323.13 366.69 324.39 359.55 325.98"/><polygon class="cls-4" points="359.55 325.98 359.46 332.71 359.35 339.41 359.78 345.84 366.61 344.21 373.78 342.91 380.85 341.19 387.95 339.57 395.14 338.37 402.29 336.98 409.36 335.21 416.39 333.31 423.57 332.04 430.57 329.97 437.87 329.24 444.92 327.4 451.97 325.57 459.19 324.5 466.16 322.29 473.27 320.72 480.34 318.96 487.57 317.9 494.62 316.02 501.55 314.48 502.23 307.98 501.57 301.27 501.9 294.41 494.78 296.57 487.62 297.93 480.5 299.43 473.28 300.5 466.18 302.08 459.17 304.14 452.01 305.49 445.01 307.55 437.74 308.38 430.7 310.3 423.52 311.57 416.41 313.12 409.46 315.41 402.26 316.54 395.13 318.04 388.14 320.19 380.94 321.3 373.88 323.13 366.69 324.39 359.55 325.98"/><polygon points="379.86 353.58 380 360.14 380.13 366.85 379.49 373.84 386.84 372.15 393.95 370.61 401.04 368.96 408.11 367.22 415.13 365.24 422.33 364.05 429.37 362.17 436.66 361.43 443.61 359.12 450.75 357.68 457.82 355.92 465 354.67 472.18 353.42 479.28 351.81 486.27 349.73 493.48 348.58 500.59 347.01 507.68 345.33 514.87 344.09 521.94 342.15 521.43 335.42 521.7 328.71 522.15 321.66 514.72 323.21 507.75 325.41 500.64 326.96 493.43 328.1 486.29 329.52 479.19 331.14 472.22 333.35 464.99 334.38 457.92 336.11 450.81 337.71 443.72 339.37 436.49 340.38 429.44 342.24 422.47 344.43 415.19 345.24 408.11 346.94 401.02 348.58 393.96 350.44 386.84 351.98 379.86 353.58"/><polygon class="cls-4" points="379.86 353.58 380 360.14 380.13 366.85 379.49 373.84 386.84 372.15 393.95 370.61 401.04 368.96 408.11 367.22 415.13 365.24 422.33 364.05 429.37 362.17 436.66 361.43 443.61 359.12 450.75 357.68 457.82 355.92 465 354.67 472.18 353.42 479.28 351.81 486.27 349.73 493.48 348.58 500.59 347.01 507.68 345.33 514.87 344.09 521.94 342.15 521.43 335.42 521.7 328.71 522.15 321.66 514.72 323.21 507.75 325.41 500.64 326.96 493.43 328.1 486.29 329.52 479.19 331.14 472.22 333.35 464.99 334.38 457.92 336.11 450.81 337.71 443.72 339.37 436.49 340.38 429.44 342.24 422.47 344.43 415.19 345.24 408.11 346.94 401.02 348.58 393.96 350.44 386.84 351.98 379.86 353.58"/><polygon points="399.9 380.96 399.7 387.58 399.33 394.29 399.58 401.31 406.89 399.31 414.05 397.96 421.09 396.1 428.27 394.84 435.39 393.32 442.51 391.8 449.53 389.8 456.71 388.56 463.88 387.26 470.81 384.89 478.06 383.94 485.04 381.8 492.19 380.42 499.31 378.88 506.42 377.31 513.66 376.3 520.73 374.57 527.8 372.79 534.88 371.05 541.78 369.35 541.78 362.85 541.83 356.15 542.28 349.07 534.84 350.68 527.73 352.23 520.59 353.69 513.67 356.08 506.4 356.92 499.4 359 492.16 359.99 485.11 361.83 478 363.38 471.03 365.6 463.77 366.49 456.73 368.38 449.5 369.43 442.39 370.96 435.46 373.38 428.23 374.41 421.21 376.39 414.01 377.54 406.87 379.06 399.9 380.96"/><polygon class="cls-4" points="399.9 380.96 399.7 387.58 399.33 394.29 399.58 401.31 406.89 399.31 414.05 397.96 421.09 396.1 428.27 394.84 435.39 393.32 442.51 391.8 449.53 389.8 456.71 388.56 463.88 387.26 470.81 384.89 478.06 383.94 485.04 381.8 492.19 380.42 499.31 378.88 506.42 377.31 513.66 376.3 520.73 374.57 527.8 372.79 534.88 371.05 541.78 369.35 541.78 362.85 541.83 356.15 542.28 349.07 534.84 350.68 527.73 352.23 520.59 353.69 513.67 356.08 506.4 356.92 499.4 359 492.16 359.99 485.11 361.83 478 363.38 471.03 365.6 463.77 366.49 456.73 368.38 449.5 369.43 442.39 370.96 435.46 373.38 428.23 374.41 421.21 376.39 414.01 377.54 406.87 379.06 399.9 380.96"/><polygon points="419.69 427.72 419.49 421.02 419.82 414.67 420.26 408.62 426.95 406.38 434.09 404.94 441.18 403.31 448.36 402.06 455.41 400.2 462.49 398.52 469.79 397.79 476.69 395.3 483.86 393.99 490.92 392.19 498.09 390.88 505.28 389.68 512.27 387.54 519.54 386.73 526.67 385.22 533.72 383.37 540.84 381.85 547.98 380.39 554.94 378.1 562.1 376.93 562.53 383.23 561.71 389.58 562.02 395.83 554.97 397.25 547.87 398.85 540.72 400.24 533.8 402.66 526.52 403.44 519.52 405.53 512.33 406.73 505.32 408.75 498.15 410.06 491.04 411.62 483.91 413.11 476.89 415.07 469.7 416.27 462.69 418.29 455.46 419.35 448.47 421.47 441.31 422.82 434.26 424.66 426.96 425.46 419.69 427.72"/><polygon class="cls-4" points="419.69 427.72 419.49 421.02 419.82 414.67 420.26 408.62 426.95 406.38 434.09 404.94 441.18 403.31 448.36 402.06 455.41 400.2 462.49 398.52 469.79 397.79 476.69 395.3 483.86 393.99 490.92 392.19 498.09 390.88 505.28 389.68 512.27 387.54 519.54 386.73 526.67 385.22 533.72 383.37 540.84 381.85 547.98 380.39 554.94 378.1 562.1 376.93 562.53 383.23 561.71 389.58 562.02 395.83 554.97 397.25 547.87 398.85 540.72 400.24 533.8 402.66 526.52 403.44 519.52 405.53 512.33 406.73 505.32 408.75 498.15 410.06 491.04 411.62 483.91 413.11 476.89 415.07 469.7 416.27 462.69 418.29 455.46 419.35 448.47 421.47 441.31 422.82 434.26 424.66 426.96 425.46 419.69 427.72"/><polyline class="cls-3" points="96.51 591.06 96.8 584.72 97.05 578.36 97.08 572.24 103.51 569.65 110.28 567.39 116.95 564.73 117.37 557.98 116.57 551.28 116.58 544.34 123.53 541.97 130.21 539.45 136.73 537.05 137.32 530.55 137.27 523.84 137.03 517.15 143.78 514.88 150.33 512 157.31 509.95 157.01 503.11 157.62 496.4 157.09 489.67 163.93 487.54 170.6 484.99 177.4 482.49 177.46 475.67 176.91 468.97 177.14 462.19 184.11 460.29 190.53 457.07 197.01 454.69 197.42 448.24 197.19 441.53 197.61 435.01 203.96 432.12 210.81 430.08 217.84 427.77 217.23 420.8 217.26 414.1 217.64 407.51 224.07 404.67 230.73 402.1 237.38 399.92 237.94 393.37 238.02 386.66 237.4 379.81 244.26 377.45 251.1 375.36 257.81 372.94"/><polyline class="cls-2" points="96.51 591.06 96.8 584.72 97.05 578.36 97.08 572.24 103.51 569.65 110.28 567.39 116.95 564.73 117.37 557.98 116.57 551.28 116.58 544.34 123.53 541.97 130.21 539.45 136.73 537.05 137.32 530.55 137.27 523.84 137.03 517.15 143.78 514.88 150.33 512 157.31 509.95 157.01 503.11 157.62 496.4 157.09 489.67 163.93 487.54 170.6 484.99 177.4 482.49 177.46 475.67 176.91 468.97 177.14 462.19 184.11 460.29 190.53 457.07 197.01 454.69 197.42 448.24 197.19 441.53 197.61 435.01 203.96 432.12 210.81 430.08 217.84 427.77 217.23 420.8 217.26 414.1 217.64 407.51 224.07 404.67 230.73 402.1 237.38 399.92 237.94 393.37 238.02 386.66 237.4 379.81 244.26 377.45 251.1 375.36 257.81 372.94"/><polygon points="239.29 603.67 245.79 601.29 252.42 598.63 258.87 595.95 258.79 589.42 259.55 582.71 259.2 576.08 265.92 573.87 272.46 570.98 279.07 568.58 279.42 561.98 279.08 555.28 279.34 548.66 286 546.35 292.62 543.66 299.21 541.16 299.35 534.55 299.55 527.84 299.5 521.25 305.93 518.41 312.82 516.48 319.13 513.58 319.84 507.11 319.51 500.4 319.82 493.97 326.21 491.43 332.73 488.46 339.77 486.53 339.33 479.67 339.84 472.97 339.53 466.24 346.15 463.51 353.01 461.49 359.8 459.03 359.97 452.24 359.29 445.53 359.34 438.58 366.54 436.83 373.01 433.74 379.49 431.28 379.96 424.8 380.26 418.09 379.91 411.47 386.4 408.67 393.23 406.58 399.88 404.11 400.4 411.33 399.54 418.59 399.64 425.85 400.31 433.12 399.48 440.38 399.83 447.65 399.77 454.91 400.28 462.18 400.22 469.44 399.91 476.71 399.74 483.98 399.83 491.24 399.61 498.51 399.44 505.77 399.48 513.04 399.47 520.31 400.31 527.57 399.6 534.84 400.24 542.11 399.51 549.38 400.19 556.66 399.69 563.78 393.2 566.33 386.43 568.6 379.7 570.96 373.21 573.99 366.4 576.13 359.79 578.82 353.06 581.18 346.35 583.62 339.74 586.3 332.94 588.48 326.1 590.55 319.53 593.37 312.6 595.18 306.2 598.47 299.5 600.93 292.75 603.24 285.78 604.96 279.29 607.98 272.54 610.29 266 613.19 259.19 615.35 252.31 617.32 245.74 620.15 238.9 622.65 238.95 616.15 239.01 609.8 239.29 603.67"/><polygon class="cls-2" points="239.29 603.67 245.79 601.29 252.42 598.63 258.87 595.95 258.79 589.42 259.55 582.71 259.2 576.08 265.92 573.87 272.46 570.98 279.07 568.58 279.42 561.98 279.08 555.28 279.34 548.66 286 546.35 292.62 543.66 299.21 541.16 299.35 534.55 299.55 527.84 299.5 521.25 305.93 518.41 312.82 516.48 319.13 513.58 319.84 507.11 319.51 500.4 319.82 493.97 326.21 491.43 332.73 488.46 339.77 486.53 339.33 479.67 339.84 472.97 339.53 466.24 346.15 463.51 353.01 461.49 359.8 459.03 359.97 452.24 359.29 445.53 359.34 438.58 366.54 436.83 373.01 433.74 379.49 431.28 379.96 424.8 380.26 418.09 379.91 411.47 386.4 408.67 393.23 406.58 399.88 404.11 400.4 411.33 399.54 418.59 399.64 425.85 400.31 433.12 399.48 440.38 399.83 447.65 399.77 454.91 400.28 462.18 400.22 469.44 399.91 476.71 399.74 483.98 399.83 491.24 399.61 498.51 399.44 505.77 399.48 513.04 399.47 520.31 400.31 527.57 399.6 534.84 400.24 542.11 399.51 549.38 400.19 556.66 399.69 563.78 393.2 566.33 386.43 568.6 379.7 570.96 373.21 573.99 366.4 576.13 359.79 578.82 353.06 581.18 346.35 583.62 339.74 586.3 332.94 588.48 326.1 590.55 319.53 593.37 312.6 595.18 306.2 598.47 299.5 600.93 292.75 603.24 285.78 604.96 279.29 607.98 272.54 610.29 266 613.19 259.19 615.35 252.31 617.32 245.74 620.15 238.9 622.65 238.95 616.15 239.01 609.8 239.29 603.67"/><polygon points="399.56 404.34 392.72 403.13 385.69 401.19 378.54 399.82 371.56 397.65 364.42 396.26 357.19 395.22 350.15 393.3 343.11 391.43 335.97 389.97 328.76 388.86 321.72 386.98 314.69 385.06 307.59 383.43 300.35 382.46 293.33 380.49 286.1 379.46 279.14 377.2 272.03 375.59 264.73 374.84 257.69 372.69 251.1 375.52 244.19 377.24 237.15 379.64 244.61 381.11 251.78 382.39 258.76 384.54 265.89 386.04 272.94 387.85 280.2 388.76 287.29 390.44 294.26 392.62 301.39 394.09 308.65 395.01 315.73 396.71 322.77 398.59 329.9 400.06 337.01 401.64 344.13 403.17 351.17 405.09 358.33 406.42 365.4 408.2 372.61 409.35 379.69 410.73 386.48 408.95 393.04 406.15 399.56 404.34"/><polygon class="cls-2" points="399.56 404.34 392.72 403.13 385.69 401.19 378.54 399.82 371.56 397.65 364.42 396.26 357.19 395.22 350.15 393.3 343.11 391.43 335.97 389.97 328.76 388.86 321.72 386.98 314.69 385.06 307.59 383.43 300.35 382.46 293.33 380.49 286.1 379.46 279.14 377.2 272.03 375.59 264.73 374.84 257.69 372.69 251.1 375.52 244.19 377.24 237.15 379.64 244.61 381.11 251.78 382.39 258.76 384.54 265.89 386.04 272.94 387.85 280.2 388.76 287.29 390.44 294.26 392.62 301.39 394.09 308.65 395.01 315.73 396.71 322.77 398.59 329.9 400.06 337.01 401.64 344.13 403.17 351.17 405.09 358.33 406.42 365.4 408.2 372.61 409.35 379.69 410.73 386.48 408.95 393.04 406.15 399.56 404.34"/><polygon points="359.51 439.05 352.46 436.84 345.32 435.41 338.14 434.15 331.05 432.52 323.92 431.02 316.79 429.58 309.69 427.95 302.53 426.61 295.59 424.26 288.51 422.56 281.35 421.18 274.17 419.95 267.18 417.82 260.02 416.49 252.75 415.65 245.74 413.62 238.7 411.74 231.54 410.35 224.37 409.02 217.23 407.31 224.12 405.1 230.83 402.51 237.49 399.81 244.51 401.78 251.72 402.9 258.87 404.28 265.98 405.83 272.93 408.14 280.12 409.32 287.22 410.96 294.36 412.39 301.46 413.98 308.67 415.14 315.76 416.8 322.76 418.84 329.97 419.99 336.94 422.16 344.22 422.96 351.27 424.81 358.39 426.35 365.51 427.89 372.49 430.08 379.3 431.29 372.84 433.39 366.21 436.19 359.51 439.05"/><polygon class="cls-2" points="359.51 439.05 352.46 436.84 345.32 435.41 338.14 434.15 331.05 432.52 323.92 431.02 316.79 429.58 309.69 427.95 302.53 426.61 295.59 424.26 288.51 422.56 281.35 421.18 274.17 419.95 267.18 417.82 260.02 416.49 252.75 415.65 245.74 413.62 238.7 411.74 231.54 410.35 224.37 409.02 217.23 407.31 224.12 405.1 230.83 402.51 237.49 399.81 244.51 401.78 251.72 402.9 258.87 404.28 265.98 405.83 272.93 408.14 280.12 409.32 287.22 410.96 294.36 412.39 301.46 413.98 308.67 415.14 315.76 416.8 322.76 418.84 329.97 419.99 336.94 422.16 344.22 422.96 351.27 424.81 358.39 426.35 365.51 427.89 372.49 430.08 379.3 431.29 372.84 433.39 366.21 436.19 359.51 439.05"/><polygon points="359.87 458.91 352.28 457.85 345.36 455.44 338.19 454.15 331.17 452.19 323.92 451.23 316.84 449.54 309.71 448.07 302.64 446.28 295.48 444.95 288.43 443.12 281.38 441.28 274.21 439.99 266.97 438.99 259.93 437.12 252.84 435.47 245.76 433.73 238.72 431.85 231.44 431.03 224.31 429.48 217.26 427.16 210.47 429.8 203.76 432.37 196.81 435.02 204.2 436.49 211.35 437.85 218.32 440.05 225.52 441.23 232.69 442.52 239.74 444.35 246.81 446.1 254.01 447.27 261.12 448.81 268.12 450.92 275.28 452.25 282.35 453.99 289.48 455.49 296.56 457.2 303.7 458.63 310.78 460.34 317.92 461.77 325.1 463.03 332.2 464.71 339.26 466.04 345.92 463.68 352.85 461.71 359.87 458.91"/><polygon class="cls-2" points="359.87 458.91 352.28 457.85 345.36 455.44 338.19 454.15 331.17 452.19 323.92 451.23 316.84 449.54 309.71 448.07 302.64 446.28 295.48 444.95 288.43 443.12 281.38 441.28 274.21 439.99 266.97 438.99 259.93 437.12 252.84 435.47 245.76 433.73 238.72 431.85 231.44 431.03 224.31 429.48 217.26 427.16 210.47 429.8 203.76 432.37 196.81 435.02 204.2 436.49 211.35 437.85 218.32 440.05 225.52 441.23 232.69 442.52 239.74 444.35 246.81 446.1 254.01 447.27 261.12 448.81 268.12 450.92 275.28 452.25 282.35 453.99 289.48 455.49 296.56 457.2 303.7 458.63 310.78 460.34 317.92 461.77 325.1 463.03 332.2 464.71 339.26 466.04 345.92 463.68 352.85 461.71 359.87 458.91"/><polygon points="339.23 486.65 332.24 484.78 324.97 483.94 317.95 481.97 310.9 480.12 303.74 478.83 296.72 476.85 289.42 476.12 282.45 473.9 275.35 472.3 268.09 471.39 261.02 469.65 253.88 468.24 246.92 465.98 239.85 464.23 232.63 463.15 225.63 461.05 218.53 459.47 211.41 457.91 204.28 456.4 197.1 455.7 190.53 457.27 183.96 459.29 177.24 462 184.72 463.52 191.9 464.77 198.88 466.92 205.96 468.63 213.18 469.68 220.34 471.02 227.46 472.55 234.39 474.94 241.53 476.34 248.7 477.67 255.87 478.98 262.84 481.17 269.94 482.76 277.1 484.11 284.27 485.4 291.36 487.11 298.45 488.73 305.52 490.53 312.77 491.5 319.81 493.21 326.24 490.93 332.86 489.07 339.23 486.65"/><polygon class="cls-2" points="339.23 486.65 332.24 484.78 324.97 483.94 317.95 481.97 310.9 480.12 303.74 478.83 296.72 476.85 289.42 476.12 282.45 473.9 275.35 472.3 268.09 471.39 261.02 469.65 253.88 468.24 246.92 465.98 239.85 464.23 232.63 463.15 225.63 461.05 218.53 459.47 211.41 457.91 204.28 456.4 197.1 455.7 190.53 457.27 183.96 459.29 177.24 462 184.72 463.52 191.9 464.77 198.88 466.92 205.96 468.63 213.18 469.68 220.34 471.02 227.46 472.55 234.39 474.94 241.53 476.34 248.7 477.67 255.87 478.98 262.84 481.17 269.94 482.76 277.1 484.11 284.27 485.4 291.36 487.11 298.45 488.73 305.52 490.53 312.77 491.5 319.81 493.21 326.24 490.93 332.86 489.07 339.23 486.65"/><polygon points="319.01 513.86 312.41 511.94 305.3 510.39 298.11 509.2 291.13 507.04 283.85 506.22 276.74 504.66 269.77 502.44 262.52 501.51 255.56 499.26 248.37 498.06 241.25 496.54 234.08 495.22 226.97 493.66 219.99 491.5 212.88 489.93 205.64 488.94 198.62 486.99 191.4 485.86 184.29 484.27 177.22 482.15 170.39 484.4 163.74 487 157.17 489.69 164.3 490.95 171.25 493.26 178.46 494.35 185.46 496.43 192.71 497.34 199.86 498.71 206.86 500.78 213.93 502.56 221.05 504.09 228.27 505.15 235.3 507.07 242.51 508.2 249.44 510.59 256.74 511.29 263.78 513.18 270.78 515.28 278.07 516 285.06 518.14 292.13 519.95 299.34 521.21 305.98 518.54 312.63 515.95 319.01 513.86"/><polygon class="cls-2" points="319.01 513.86 312.41 511.94 305.3 510.39 298.11 509.2 291.13 507.04 283.85 506.22 276.74 504.66 269.77 502.44 262.52 501.51 255.56 499.26 248.37 498.06 241.25 496.54 234.08 495.22 226.97 493.66 219.99 491.5 212.88 489.93 205.64 488.94 198.62 486.99 191.4 485.86 184.29 484.27 177.22 482.15 170.39 484.4 163.74 487 157.17 489.69 164.3 490.95 171.25 493.26 178.46 494.35 185.46 496.43 192.71 497.34 199.86 498.71 206.86 500.78 213.93 502.56 221.05 504.09 228.27 505.15 235.3 507.07 242.51 508.2 249.44 510.59 256.74 511.29 263.78 513.18 270.78 515.28 278.07 516 285.06 518.14 292.13 519.95 299.34 521.21 305.98 518.54 312.63 515.95 319.01 513.86"/><polygon points="298.98 541.28 292.31 539.31 285.04 538.47 277.91 537 270.91 534.92 263.79 533.4 256.63 532.08 249.48 530.67 242.37 529.1 235.39 526.95 228.19 525.79 221.15 523.89 214.11 522 206.94 520.73 199.88 518.89 192.69 517.72 185.52 516.38 178.45 514.64 171.28 513.34 164.25 511.36 157.12 509.82 150.45 512.33 143.8 514.93 136.69 517.17 144.22 518.25 151.15 520.62 158.32 521.88 165.4 523.59 172.62 524.65 179.72 526.27 186.85 527.74 193.77 530.19 201.05 531.01 208.17 532.5 215.18 534.55 222.31 536.04 229.51 537.2 236.62 538.77 243.64 540.72 250.66 542.71 257.93 543.54 265.04 545.17 272.03 547.31 279.19 548.16 285.82 545.86 292.75 544.02 298.98 541.28"/><polygon class="cls-2" points="298.98 541.28 292.31 539.31 285.04 538.47 277.91 537 270.91 534.92 263.79 533.4 256.63 532.08 249.48 530.67 242.37 529.1 235.39 526.95 228.19 525.79 221.15 523.89 214.11 522 206.94 520.73 199.88 518.89 192.69 517.72 185.52 516.38 178.45 514.64 171.28 513.34 164.25 511.36 157.12 509.82 150.45 512.33 143.8 514.93 136.69 517.17 144.22 518.25 151.15 520.62 158.32 521.88 165.4 523.59 172.62 524.65 179.72 526.27 186.85 527.74 193.77 530.19 201.05 531.01 208.17 532.5 215.18 534.55 222.31 536.04 229.51 537.2 236.62 538.77 243.64 540.72 250.66 542.71 257.93 543.54 265.04 545.17 272.03 547.31 279.19 548.16 285.82 545.86 292.75 544.02 298.98 541.28"/><polygon points="279.46 568.66 272.58 571.31 265.8 573.55 259.1 575.99 252.05 574.21 244.87 572.97 237.68 571.77 230.76 569.3 223.61 567.95 216.37 566.99 209.39 564.82 202.14 563.85 195.22 561.41 187.97 560.49 180.84 559.03 173.71 557.52 166.7 555.5 159.59 553.96 152.46 552.47 145.26 551.31 138.33 548.9 131.17 547.56 124.11 545.69 116.94 544.57 123.44 541.72 130.32 539.74 137 537.05 144.18 538.52 151.22 540.39 158.32 542 165.41 543.66 172.6 544.85 179.71 546.45 186.84 547.93 193.91 549.68 200.95 551.57 208.1 552.97 215.11 554.98 222.38 555.83 229.35 558.03 236.46 559.62 243.73 560.45 250.8 562.19 257.92 563.75 265.02 565.38 272.06 567.3 279.46 568.66"/><polygon class="cls-2" points="279.46 568.66 272.58 571.31 265.8 573.55 259.1 575.99 252.05 574.21 244.87 572.97 237.68 571.77 230.76 569.3 223.61 567.95 216.37 566.99 209.39 564.82 202.14 563.85 195.22 561.41 187.97 560.49 180.84 559.03 173.71 557.52 166.7 555.5 159.59 553.96 152.46 552.47 145.26 551.31 138.33 548.9 131.17 547.56 124.11 545.69 116.94 544.57 123.44 541.72 130.32 539.74 137 537.05 144.18 538.52 151.22 540.39 158.32 542 165.41 543.66 172.6 544.85 179.71 546.45 186.84 547.93 193.91 549.68 200.95 551.57 208.1 552.97 215.11 554.98 222.38 555.83 229.35 558.03 236.46 559.62 243.73 560.45 250.8 562.19 257.92 563.75 265.02 565.38 272.06 567.3 279.46 568.66"/><polygon points="259.05 596.13 251.95 594.78 244.99 592.52 237.87 591.03 230.74 589.54 223.46 588.75 216.41 586.88 209.25 585.53 202.3 583.27 195.09 582.12 187.98 580.58 180.94 578.66 173.85 577.01 166.6 576.06 159.62 573.9 152.37 572.99 145.31 571.17 138.24 569.41 131.24 567.35 124.05 566.11 116.9 564.74 110.12 566.93 103.54 569.71 97.21 571.97 103.91 573.47 111.02 575.03 118.14 576.55 125.14 578.62 132.27 580.08 139.36 581.74 146.6 582.72 153.7 584.34 160.67 586.53 167.76 588.2 175 589.2 182.08 590.87 189.12 592.79 196.32 593.92 203.38 595.75 210.62 596.72 217.6 598.87 224.73 600.37 231.84 602.01 239.01 603.8 245.8 601.32 252.33 598.37 259.05 596.13"/><polygon class="cls-2" points="259.05 596.13 251.95 594.78 244.99 592.52 237.87 591.03 230.74 589.54 223.46 588.75 216.41 586.88 209.25 585.53 202.3 583.27 195.09 582.12 187.98 580.58 180.94 578.66 173.85 577.01 166.6 576.06 159.62 573.9 152.37 572.99 145.31 571.17 138.24 569.41 131.24 567.35 124.05 566.11 116.9 564.74 110.12 566.93 103.54 569.71 97.21 571.97 103.91 573.47 111.02 575.03 118.14 576.55 125.14 578.62 132.27 580.08 139.36 581.74 146.6 582.72 153.7 584.34 160.67 586.53 167.76 588.2 175 589.2 182.08 590.87 189.12 592.79 196.32 593.92 203.38 595.75 210.62 596.72 217.6 598.87 224.73 600.37 231.84 602.01 239.01 603.8 245.8 601.32 252.33 598.37 259.05 596.13"/><polygon class="cls-3" points="379.62 411.12 380.03 417.78 379.42 424.51 379.99 431.64 372.59 429.72 365.59 427.63 358.45 426.24 351.19 425.32 344.14 423.5 336.99 422.09 329.89 420.49 322.84 418.66 315.63 417.52 308.64 415.42 301.46 414.14 294.4 412.38 287.22 411.13 280.18 409.23 273.17 407.22 265.91 406.31 258.74 405 251.75 402.88 244.53 401.73 237.78 399.57 237.92 393.08 237.75 386.35 237.44 379.54 244.6 381.18 251.78 382.41 258.81 384.33 265.9 386 272.94 387.86 280.1 389.24 287.19 390.86 294.33 392.31 301.57 393.31 308.49 395.75 315.68 396.95 322.9 398 329.87 400.2 337.1 401.24 344.06 403.49 351.3 404.49 358.42 405.99 365.56 407.48 372.64 409.23 379.62 411.12"/><polygon class="cls-2" points="379.62 411.12 380.03 417.78 379.42 424.51 379.99 431.64 372.59 429.72 365.59 427.63 358.45 426.24 351.19 425.32 344.14 423.5 336.99 422.09 329.89 420.49 322.84 418.66 315.63 417.52 308.64 415.42 301.46 414.14 294.4 412.38 287.22 411.13 280.18 409.23 273.17 407.22 265.91 406.31 258.74 405 251.75 402.88 244.53 401.73 237.78 399.57 237.92 393.08 237.75 386.35 237.44 379.54 244.6 381.18 251.78 382.41 258.81 384.33 265.9 386 272.94 387.86 280.1 389.24 287.19 390.86 294.33 392.31 301.57 393.31 308.49 395.75 315.68 396.95 322.9 398 329.87 400.2 337.1 401.24 344.06 403.49 351.3 404.49 358.42 405.99 365.56 407.48 372.64 409.23 379.62 411.12"/><polygon class="cls-3" points="359.75 459.29 352.47 456.98 345.22 456.06 338.21 454.04 331 452.93 323.88 451.44 316.75 449.94 309.84 447.47 302.61 446.42 295.44 445.12 288.3 443.69 281.35 441.41 274.16 440.18 267.14 438.23 260.03 436.65 252.93 435.06 245.68 434.11 238.72 431.83 231.58 430.41 224.46 428.81 217.34 427.46 217.5 420.78 217.31 414.04 217.29 407.31 224.4 408.83 231.49 410.48 238.5 412.48 245.74 413.49 252.86 414.99 260.02 416.34 266.94 418.78 274.12 420 281.24 421.55 288.38 422.97 295.43 424.84 302.59 426.15 309.64 427.98 316.87 429.03 323.99 430.54 331.07 432.25 338.05 434.43 345.26 435.54 352.3 437.52 359.32 438.89 359.05 445.47 359.22 452.21 359.75 459.29"/><polygon class="cls-2" points="359.75 459.29 352.47 456.98 345.22 456.06 338.21 454.04 331 452.93 323.88 451.44 316.75 449.94 309.84 447.47 302.61 446.42 295.44 445.12 288.3 443.69 281.35 441.41 274.16 440.18 267.14 438.23 260.03 436.65 252.93 435.06 245.68 434.11 238.72 431.83 231.58 430.41 224.46 428.81 217.34 427.46 217.5 420.78 217.31 414.04 217.29 407.31 224.4 408.83 231.49 410.48 238.5 412.48 245.74 413.49 252.86 414.99 260.02 416.34 266.94 418.78 274.12 420 281.24 421.55 288.38 422.97 295.43 424.84 302.59 426.15 309.64 427.98 316.87 429.03 323.99 430.54 331.07 432.25 338.05 434.43 345.26 435.54 352.3 437.52 359.32 438.89 359.05 445.47 359.22 452.21 359.75 459.29"/><polygon class="cls-3" points="339.48 466.26 338.86 473.17 339.48 479.9 339.29 486.65 332.21 484.93 325.14 483.17 317.96 481.94 310.76 480.79 303.78 478.61 296.58 477.48 289.61 475.28 282.39 474.19 275.36 472.27 268.17 471.02 261.15 469.06 253.92 468.03 246.78 466.62 239.66 465.06 232.71 462.8 225.46 461.83 218.33 460.35 211.41 457.88 204.15 456.95 196.8 455.44 197.26 448.47 197.15 441.73 197.17 435.13 204.19 436.51 211.24 438.37 218.47 439.36 225.56 441.04 232.67 442.61 239.72 444.43 246.87 445.81 253.89 447.79 261.15 448.7 268.22 450.46 275.26 452.36 282.36 453.94 289.59 454.97 296.63 456.87 303.69 458.67 310.75 460.48 318.01 461.34 325.02 463.41 332.09 465.22 339.48 466.26"/><polygon class="cls-2" points="339.48 466.26 338.86 473.17 339.48 479.9 339.29 486.65 332.21 484.93 325.14 483.17 317.96 481.94 310.76 480.79 303.78 478.61 296.58 477.48 289.61 475.28 282.39 474.19 275.36 472.27 268.17 471.02 261.15 469.06 253.92 468.03 246.78 466.62 239.66 465.06 232.71 462.8 225.46 461.83 218.33 460.35 211.41 457.88 204.15 456.95 196.8 455.44 197.26 448.47 197.15 441.73 197.17 435.13 204.19 436.51 211.24 438.37 218.47 439.36 225.56 441.04 232.67 442.61 239.72 444.43 246.87 445.81 253.89 447.79 261.15 448.7 268.22 450.46 275.26 452.36 282.36 453.94 289.59 454.97 296.63 456.87 303.69 458.67 310.75 460.48 318.01 461.34 325.02 463.41 332.09 465.22 339.48 466.26"/><polygon class="cls-3" points="177.48 462.59 184.46 463.38 191.46 465.5 198.55 467.22 205.7 468.68 212.85 470.13 219.96 471.76 227.14 473.1 234.29 474.57 241.29 476.71 248.56 477.61 255.6 479.57 262.79 480.83 269.92 482.37 277.07 483.85 284.06 486.03 291.21 487.51 298.5 488.33 305.63 489.88 312.77 491.44 320.15 493.11 319.32 500.18 319.89 507 319.63 514.05 312.44 511.78 305.21 510.78 298.07 509.34 291.09 507.2 283.87 506.13 276.77 504.54 269.74 502.6 262.57 501.29 255.41 499.97 248.36 498.12 241.33 496.15 234.22 494.58 227.12 492.98 220.03 491.34 212.85 490.08 205.63 489 198.49 487.55 191.56 485.16 184.29 484.25 177.6 482.06 177.2 475.67 177.5 468.97 177.48 462.59"/><polygon class="cls-2" points="177.48 462.59 184.46 463.38 191.46 465.5 198.55 467.22 205.7 468.68 212.85 470.13 219.96 471.76 227.14 473.1 234.29 474.57 241.29 476.71 248.56 477.61 255.6 479.57 262.79 480.83 269.92 482.37 277.07 483.85 284.06 486.03 291.21 487.51 298.5 488.33 305.63 489.88 312.77 491.44 320.15 493.11 319.32 500.18 319.89 507 319.63 514.05 312.44 511.78 305.21 510.78 298.07 509.34 291.09 507.2 283.87 506.13 276.77 504.54 269.74 502.6 262.57 501.29 255.41 499.97 248.36 498.12 241.33 496.15 234.22 494.58 227.12 492.98 220.03 491.34 212.85 490.08 205.63 489 198.49 487.55 191.56 485.16 184.29 484.25 177.6 482.06 177.2 475.67 177.5 468.97 177.48 462.59"/><polygon class="cls-3" points="299.19 521.26 299.33 527.84 299.26 534.54 299.57 541.58 292.15 540.01 285.2 537.73 278.06 536.32 270.87 535.1 263.7 533.81 256.61 532.15 249.55 530.35 242.4 528.97 235.34 527.18 228.22 525.65 221.22 523.58 214.03 522.37 206.97 520.59 199.76 519.47 192.65 517.89 185.49 516.53 178.43 514.76 171.33 513.12 164.16 511.74 156.99 509.93 157.13 503.11 156.74 496.4 157.27 489.9 164.27 491.07 171.25 493.26 178.41 494.57 185.52 496.13 192.61 497.78 199.79 499.06 206.83 500.93 214.01 502.17 221 504.31 228.31 504.95 235.33 506.94 242.47 508.4 249.56 510.02 256.65 511.68 263.82 513.01 270.92 514.63 278.04 516.15 285.1 517.95 292.19 519.68 299.19 521.26"/><polygon class="cls-2" points="299.19 521.26 299.33 527.84 299.26 534.54 299.57 541.58 292.15 540.01 285.2 537.73 278.06 536.32 270.87 535.1 263.7 533.81 256.61 532.15 249.55 530.35 242.4 528.97 235.34 527.18 228.22 525.65 221.22 523.58 214.03 522.37 206.97 520.59 199.76 519.47 192.65 517.89 185.49 516.53 178.43 514.76 171.33 513.12 164.16 511.74 156.99 509.93 157.13 503.11 156.74 496.4 157.27 489.9 164.27 491.07 171.25 493.26 178.41 494.57 185.52 496.13 192.61 497.78 199.79 499.06 206.83 500.93 214.01 502.17 221 504.31 228.31 504.95 235.33 506.94 242.47 508.4 249.56 510.02 256.65 511.68 263.82 513.01 270.92 514.63 278.04 516.15 285.1 517.95 292.19 519.68 299.19 521.26"/><polygon class="cls-3" points="279.2 548.59 279.63 555.27 279.11 561.98 279.28 568.77 272.19 566.78 265.07 565.23 257.98 563.58 250.81 562.29 243.75 560.5 236.63 559.01 229.55 557.3 222.28 556.43 215.26 554.47 208.17 552.78 200.99 551.54 193.95 549.65 186.87 547.95 179.61 547.06 172.56 545.21 165.44 543.69 158.36 541.98 151.35 539.94 144.02 539.3 137.11 537.16 137 530.55 137.25 523.84 137.06 517.2 144.12 518.66 151.17 520.5 158.38 521.63 165.34 523.87 172.58 524.84 179.7 526.36 186.72 528.35 193.81 530.03 200.94 531.48 208.12 532.76 215.26 534.18 222.28 536.14 229.43 537.57 236.58 538.92 243.56 541.08 250.83 541.95 257.9 543.69 265 545.35 272.02 547.33 279.2 548.59"/><polygon class="cls-2" points="279.2 548.59 279.63 555.27 279.11 561.98 279.28 568.77 272.19 566.78 265.07 565.23 257.98 563.58 250.81 562.29 243.75 560.5 236.63 559.01 229.55 557.3 222.28 556.43 215.26 554.47 208.17 552.78 200.99 551.54 193.95 549.65 186.87 547.95 179.61 547.06 172.56 545.21 165.44 543.69 158.36 541.98 151.35 539.94 144.02 539.3 137.11 537.16 137 530.55 137.25 523.84 137.06 517.2 144.12 518.66 151.17 520.5 158.38 521.63 165.34 523.87 172.58 524.84 179.7 526.36 186.72 528.35 193.81 530.03 200.94 531.48 208.12 532.76 215.26 534.18 222.28 536.14 229.43 537.57 236.58 538.92 243.56 541.08 250.83 541.95 257.9 543.69 265 545.35 272.02 547.33 279.2 548.59"/><polygon class="cls-3" points="258.97 576.12 258.99 582.71 259.03 589.41 259.14 596.18 252.02 594.46 244.92 592.85 237.74 591.58 230.7 589.7 223.59 588.14 216.42 586.84 209.31 585.29 202.28 583.35 195.16 581.85 188.06 580.23 180.97 578.52 173.89 576.85 166.72 575.54 159.51 574.4 152.51 572.37 145.41 570.71 138.3 569.17 131.17 567.65 123.99 566.35 117.06 564.54 117.27 557.98 116.78 551.28 116.65 544.23 124.06 545.88 131.17 547.43 138.11 549.75 145.34 550.79 152.5 552.14 159.56 553.91 166.62 555.72 173.74 557.23 180.84 558.83 187.95 560.41 195.17 561.51 202.21 563.39 209.29 565.08 216.36 566.83 223.52 568.2 230.62 569.83 237.77 571.19 244.88 572.81 251.99 574.43 258.97 576.12"/><polygon class="cls-2" points="258.97 576.12 258.99 582.71 259.03 589.41 259.14 596.18 252.02 594.46 244.92 592.85 237.74 591.58 230.7 589.7 223.59 588.14 216.42 586.84 209.31 585.29 202.28 583.35 195.16 581.85 188.06 580.23 180.97 578.52 173.89 576.85 166.72 575.54 159.51 574.4 152.51 572.37 145.41 570.71 138.3 569.17 131.17 567.65 123.99 566.35 117.06 564.54 117.27 557.98 116.78 551.28 116.65 544.23 124.06 545.88 131.17 547.43 138.11 549.75 145.34 550.79 152.5 552.14 159.56 553.91 166.62 555.72 173.74 557.23 180.84 558.83 187.95 560.41 195.17 561.51 202.21 563.39 209.29 565.08 216.36 566.83 223.52 568.2 230.62 569.83 237.77 571.19 244.88 572.81 251.99 574.43 258.97 576.12"/><polygon class="cls-3" points="239.04 622.58 238.94 616.15 239.43 609.8 239.28 603.18 231.96 601.53 224.75 600.42 217.72 598.48 210.56 597.13 203.35 596.04 196.4 593.74 189.2 592.58 182.06 591.13 175.01 589.29 167.85 587.97 160.8 586.11 153.79 584.11 146.59 582.92 139.4 581.71 132.44 579.45 125.24 578.27 118.06 577.05 110.92 575.57 103.94 573.41 96.78 572 97.06 578.36 96.54 584.71 96.89 590.97 103.91 592.5 111.07 593.85 118.16 595.49 125.12 597.75 132.22 599.36 139.36 600.78 146.52 602.15 153.75 603.17 160.78 605.1 167.97 606.32 174.9 608.69 182.04 610.11 189.28 611.13 196.3 613.08 203.5 614.28 210.55 616.09 217.61 617.89 224.68 619.68 231.82 621.14 239.04 622.58"/><polygon class="cls-2" points="239.04 622.58 238.94 616.15 239.43 609.8 239.28 603.18 231.96 601.53 224.75 600.42 217.72 598.48 210.56 597.13 203.35 596.04 196.4 593.74 189.2 592.58 182.06 591.13 175.01 589.29 167.85 587.97 160.8 586.11 153.79 584.11 146.59 582.92 139.4 581.71 132.44 579.45 125.24 578.27 118.06 577.05 110.92 575.57 103.94 573.41 96.78 572 97.06 578.36 96.54 584.71 96.89 590.97 103.91 592.5 111.07 593.85 118.16 595.49 125.12 597.75 132.22 599.36 139.36 600.78 146.52 602.15 153.75 603.17 160.78 605.1 167.97 606.32 174.9 608.69 182.04 610.11 189.28 611.13 196.3 613.08 203.5 614.28 210.55 616.09 217.61 617.89 224.68 619.68 231.82 621.14 239.04 622.58"/><polygon class="cls-3" points="335.06 390.99 328.07 389.54 321.64 387.18 314.82 386.45 308.2 384.9 301.61 383.2 294.92 381.91 288.64 379.72 287.99 372.9 288.69 365.89 288.25 358.88 288.58 351.87 288.3 344.85 288.18 337.84 288.86 330.82 288.89 323.81 287.95 316.8 288.48 309.77 288.2 302.53 295.01 304.3 301.67 305.7 308.25 307.43 315 308.41 321.47 310.65 328.23 311.68 334.99 313.36 335.02 320.52 334.67 327.53 335.04 334.54 334.57 341.56 334.55 348.57 334.88 355.58 334.78 362.6 335.17 369.61 335.16 376.63 334.96 383.64 335.06 390.99"/><polygon class="cls-2" points="335.06 390.99 328.07 389.54 321.64 387.18 314.82 386.45 308.2 384.9 301.61 383.2 294.92 381.91 288.64 379.72 287.99 372.9 288.69 365.89 288.25 358.88 288.58 351.87 288.3 344.85 288.18 337.84 288.86 330.82 288.89 323.81 287.95 316.8 288.48 309.77 288.2 302.53 295.01 304.3 301.67 305.7 308.25 307.43 315 308.41 321.47 310.65 328.23 311.68 334.99 313.36 335.02 320.52 334.67 327.53 335.04 334.54 334.57 341.56 334.55 348.57 334.88 355.58 334.78 362.6 335.17 369.61 335.16 376.63 334.96 383.64 335.06 390.99"/><polygon class="cls-3" points="334.98 390.9 328.25 388.78 321.56 387.5 314.82 386.46 308.34 384.31 301.72 382.74 295.12 381.04 288.8 379.63 288.61 371.88 288.06 363.85 288.15 355.82 288.02 347.78 288.7 340.28 288.5 332.78 288.58 325.27 288.88 317.77 288.39 310.26 288.3 302.66 295.02 304.28 301.72 305.49 308.21 307.62 314.85 309.08 321.44 310.8 328.22 311.72 334.6 313.65 334.77 320.52 334.7 327.53 334.59 334.54 334.52 341.56 334.69 348.57 335 355.58 334.3 362.6 334.64 369.61 334.99 376.63 335.08 383.64 334.98 390.9"/><polygon class="cls-2" points="334.98 390.9 328.25 388.78 321.56 387.5 314.82 386.46 308.34 384.31 301.72 382.74 295.12 381.04 288.8 379.63 288.61 371.88 288.06 363.85 288.15 355.82 288.02 347.78 288.7 340.28 288.5 332.78 288.58 325.27 288.88 317.77 288.39 310.26 288.3 302.66 295.02 304.28 301.72 305.49 308.21 307.62 314.85 309.08 321.44 310.8 328.22 311.72 334.6 313.65 334.77 320.52 334.7 327.53 334.59 334.54 334.52 341.56 334.69 348.57 335 355.58 334.3 362.6 334.64 369.61 334.99 376.63 335.08 383.64 334.98 390.9"/><polygon class="cls-3" points="300.23 371.34 307.29 373.06 314.24 374.17 321.09 375.71 328.02 376.93 334.84 378.91 335.09 371.6 334.65 364.34 334.62 357.08 334.77 349.82 334.85 342.56 335.02 335.3 335.23 328.04 334.38 320.77 335.02 313.33 327.96 311.87 320.99 310.89 314.33 308.5 307.44 307.06 300.77 306.06 300.3 313.02 300.51 320.28 300.08 327.54 300.98 334.8 300.58 342.06 300.32 349.32 300.97 356.58 300.44 363.84 300.23 371.34"/><polygon class="cls-2" points="300.23 371.34 307.29 373.06 314.24 374.17 321.09 375.71 328.02 376.93 334.84 378.91 335.09 371.6 334.65 364.34 334.62 357.08 334.77 349.82 334.85 342.56 335.02 335.3 335.23 328.04 334.38 320.77 335.02 313.33 327.96 311.87 320.99 310.89 314.33 308.5 307.44 307.06 300.77 306.06 300.3 313.02 300.51 320.28 300.08 327.54 300.98 334.8 300.58 342.06 300.32 349.32 300.97 356.58 300.44 363.84 300.23 371.34"/><polyline class="cls-3" points="302.11 371.25 293.84 373.98 285.66 376.98"/><polyline class="cls-2" points="302.11 371.25 293.84 373.98 285.66 376.98"/><polyline class="cls-3" points="300.54 338.83 294.38 340.25 288.31 341.98"/><polyline class="cls-2" points="300.54 338.83 294.38 340.25 288.31 341.98"/><polyline class="cls-3" points="300.47 355.92 294.52 358.07 288.4 359.63"/><polyline class="cls-2" points="300.47 355.92 294.52 358.07 288.4 359.63"/><polyline class="cls-3" points="300.6 321.48 294.48 323.04 288.5 325.08"/><polyline class="cls-2" points="300.6 321.48 294.48 323.04 288.5 325.08"/><g class="cls-5"><polygon class="cls-6" points="378.92 213.84 379.06 214.4 383.92 216.98 378.92 213.84"/></g><g class="cls-5"><polygon class="cls-6" points="648.8 585.65 645.97 577.3 643.77 568.77 641.33 562.17 639.77 555.28 636.75 548.91 634.39 542.27 631.01 536.09 627.71 529.89 623.73 524.09 620.45 517.87 616.49 512.08 613.05 505.92 608.99 500.18 604.47 494.79 599.7 489.6 595.59 483.9 590.99 478.6 586.51 473.19 582.37 467.5 577.67 462.28 573.37 456.69 568.68 451.43 563.51 446.59 559.16 441.04 554.65 435.62 549.78 430.52 544.53 425.77 540.03 420.35 535.42 415.01 530.34 410.12 525.79 404.72 520.62 399.92 516.13 394.46 510.92 389.7 506.17 384.49 501.07 379.57 497.81 372.97 494.27 366.55 491.17 359.88 486.94 353.85 483.31 347.49 479.3 341.34 475.35 335.16 470.86 329.35 467.01 323.1 462.91 317.01 458.2 311.37 454.2 305.19 449.14 299.83 444.67 294.02 440.6 287.88 435.68 282.43 430.76 276.98 426.45 271.02 421.93 265.24 416.7 260.06 412.54 253.88 407.56 248.39 402.72 242.77 398.36 236.77 393.33 231.31 388.41 225.77 383.66 220.09 379.08 214.31 372.66 210.44 365.68 207.59 358.85 204.46 351.88 201.63 344.94 199.37 347.21 205.55 351.46 210.89 355.84 216.08 360.23 221.26 363.8 227.04 366.99 232.98 368.44 240.13 369.58 247.4 369.3 254.78 370.76 262.02 372.71 269.59 374.97 277.16 379.08 283.91 383.01 290.71 387.1 297.44 389.9 304.28 393.04 310.92 396.39 317.44 400.11 323.82 402.88 330.64 405.99 337.29 408.86 344.05 411.94 350.71 414.84 357.23 418.15 363.54 422.15 369.47 424.97 376.06 429.2 381.84 433.06 387.82 436.51 394.07 440.73 399.82 444.97 405.55 448.87 411.52 453.49 416.95 457.23 423.06 461.8 428.54 466.29 434.07 470.94 439.48 475.7 444.78 480.35 450.19 485.54 455.1 489.79 460.87 495.01 465.74 500 470.82 505.05 475.84 509.89 481.07 515.22 485.82 519.79 491.33 525.41 495.77 530.16 501.1 535.34 506 540.47 510.94 545.54 515.96 550.84 520.72 556.3 525.08 559.83 520.56 563.93 526.33 567.93 532.25 572.24 537.86 576.82 543.28 581.43 548.67 585.12 554.76 589.41 560.39 593.82 565.94 598.16 571.53 602.89 578.2 605.34 586 603.77 594.72 601.57 600.72 605.09 606.12 609.71 606.63 614.93 602.02 621.29 599.37 628.03 597.68 634.98 597.11 641.97 597.35 648.89 596.22 655.27 593.34 658.93 589.95 654.13 587.39 648.8 585.65"/></g><g class="cls-5"><path class="cls-6" d="M601.54,601l.67-.14Z"/></g><g class="cls-5"><path class="cls-6" d="M659.62,589.73l-.32.15Z"/></g><g class="cls-5"><polyline class="cls-6" points="363.32 246.46 360.73 239.89 357.13 233.82 353.38 227.85 349.37 222.06 345.52 216.14 340.84 210.85 336.31 205.46 331.66 200.17 326.31 195.05 333.16 193.84 339.52 192.07 345.97 190.73 349.54 191.19 353.65 197.05 357.53 203.68 362.78 209.26 368.45 214.42 374.47 219.15 380.37 223.99 385.52 229.62 389.29 236.26 393.07 242.85 393.36 246.86"/></g><g class="cls-5"><path class="cls-7" d="M286.38,297.75c1.12,11.28.15,22.5.27,33.81.05,5.26.35,10.72.18,16-.17,5.4-1.66,10.4-1.92,15.84-.32,6.51-2,12.64-3.26,19.19a1.52,1.52,0,0,0,1.44,1.9,64.13,64.13,0,0,1,13.7,1.2c4.52.77,9.36.68,13.72,1.38,8.64,1.39,17.63,4.68,26.11,7.26a1.52,1.52,0,0,0,1.9-1.45c.5-4.54,1-9.08,1.49-13.62.23-2.22.65-4.52.67-6.75s-.62-4.65-.57-7,.72-4.46.82-6.69-.2-4.64-.31-6.93c-.22-4.6.11-9.1,0-13.67-.21-8.81-2.95-17.74-4.86-26.29-.93-4.16-5.18-5.71-8.17-8.13a58.18,58.18,0,0,0-12.1-8.05c-2.2-1.05-4.8-2.55-7.16-3.12s-5.24-.22-7.74-.2a85.82,85.82,0,0,0-15.27,1.42c-1.9.35-1.1,3.24.79,2.9a76.36,76.36,0,0,1,14.07-1.32,59.73,59.73,0,0,1,6.69,0,5.45,5.45,0,0,1,1.73.6c1.58.71,3.21,1.34,4.78,2.08a45.52,45.52,0,0,1,10.78,6.74c1.38,1.16,2.73,2.26,4.19,3.32,1.25.89,2.52,1.76,3.74,2.69a6,6,0,0,1,.88.64c-1.14-1.53-.18.67-.1,1.26,1.05,8.37,4.4,16.78,4.77,25,.2,4.56-.27,9.14,0,13.73a126.78,126.78,0,0,1-.43,13.24c-.11,2.33.43,4.64.47,7a63,63,0,0,1-.61,7.36c-.48,4.59-1,9.19-1.51,13.78l1.9-1.44c-8.62-2.62-17.59-6-26.51-7.33-4.65-.7-8.88-.55-13.55-1.35a68.89,68.89,0,0,0-14.27-1.27l1.45,1.9c1-5,2.66-10.18,3.18-15.21.62-5.88,1-11.57,1.74-17.57.68-5.58.15-11.47.21-17.12.06-5.37-.29-10.74,0-16.1a121,121,0,0,0-.33-19.6c-.19-1.9-3.19-1.92-3,0Z"/></g><polyline class="cls-2" points="703.24 571.76 702.79 578.11 702.94 584.46 703.45 591.02 696.04 592.04 688.94 593.66 681.84 595.24 674.88 597.49 667.78 599.13 660.56 600.17 653.45 601.76 646.37 603.44 639.32 605.3 632.03 606.06 624.94 607.75 617.9 609.62 610.74 610.93 603.68 612.76 596.57 614.32 589.5 616.08 582.4 617.7 575.2 618.86 568.12 620.61 560.99 622.29 560.68 615.9 561.15 609.55 561.43 603.19"/></g></g></svg>