<svg xmlns="http://www.w3.org/2000/svg" viewBox="0 0 800 800"><defs><style>.cls-2{fill:#fff}.cls-3{fill:#00f}.cls-5{fill:red}</style></defs><g style="isolation:isolate"><g id="Layer_1" data-name="Layer 1"><path class="cls-2" d="M279.33 550.44c-14.58-17.33-29.86-36.33-31.27-58.92-1.63-26.06 15.45-49 30.2-70.55 14.14-20.64 27-42.65 33.06-66.94s4.5-51.3-8.73-72.54c17 29.88 34.52 62.7 29.47 96.69-3.42 23-17 43.9-18 67.11a63.76 63.76 0 0 0 20.22 48.86"/><path class="cls-3" d="M280.39 549.37c-12.6-15-26.06-31.19-29.93-50.94-4-20.59 5.1-40.06 15.85-57 10.48-16.56 22.37-32.1 31.6-49.45 8.7-16.33 15.41-33.94 17.55-52.41 2.34-20.28-.89-41.2-11.57-58.8a1.5 1.5 0 0 0-2.59 1.52c15.45 27.26 32.24 57.36 29.93 89.79-2.07 29.11-22.29 54.62-18.09 84.53a66 66 0 0 0 20.08 38.64c1.41 1.33 3.53-.79 2.12-2.12a63 63 0 0 1-19.45-38.47c-1.7-15 3-29.44 8-43.38 4.79-13.32 9.74-26.66 10.46-40.95.73-14.76-2.53-29.44-7.62-43.23-6-16.19-14.34-31.35-22.83-46.33l-2.59 1.52c22.12 36.43 10 80.61-9.79 115.06-17.66 30.7-51.1 62.48-44.1 101.12 3.73 20.59 17.78 37.5 30.86 53.07 1.24 1.48 3.35-.66 2.12-2.13z"/><path class="cls-2" d="M318 464.36c15.5-15.47 31.18-31.16 42.21-50.07s17.06-41.73 11.7-63c-2.16-8.54-6.06-16.53-8.91-24.86-13.94-40.73.41-89.53 34.18-116.23a100.72 100.72 0 0 0-12.55 73c4.38 20.44 15 38.89 23 58.23s13.24 41.22 6.43 61c20.73-24.36 23.2-62.51 5.78-89.33 18.09 19.19 36 42 35.48 68.42-.3 14.92-6.61 29.11-8.18 43.95-3.48 32.9 16.18 63.28 35 90.5"/><path class="cls-3" d="M319 465.42c27.1-27 57.63-58.82 56.29-100-.62-19.29-11.58-35.76-14.76-54.54a106.36 106.36 0 0 1 4.35-51.44 104.31 104.31 0 0 1 33.3-48.09l-2.35-1.82c-16.81 27.88-18.82 61-7.63 91.27 11.88 32.19 36 65.49 24.33 101.32-.45 1.37 1.54 2.62 2.51 1.46 21.1-25.35 23.69-63.26 6-91.15l-2.35 1.82c20.24 21.56 39.56 47.2 33.82 78.47-2.64 14.39-7.8 28.14-7.33 43 .43 13.21 4.3 26 9.71 38 6.92 15.31 16.34 29.33 25.85 43.11 1.09 1.58 3.69.08 2.59-1.51-16.75-24.27-35.22-51.45-35.18-82.13 0-15.28 6.09-29.45 8-44.45 1.7-13.3-1.07-26.27-6.91-38.26-7-14.39-17.57-26.75-28.45-38.33a1.51 1.51 0 0 0-2.36 1.81c16.93 26.69 14.72 63.19-5.54 87.51l2.51 1.46c10.67-32.75-8-64.1-20.48-93.31-6.79-15.9-11.47-32.32-11-49.75A100.07 100.07 0 0 1 398.43 211c.94-1.56-1.1-2.83-2.36-1.82-25.56 20.53-40.17 53-39.91 85.7a103.75 103.75 0 0 0 2.93 23.74c2.37 9.68 6.75 18.61 9.84 28 6.67 20.36 2.68 42.14-6.84 60.93-10.9 21.54-28.29 38.82-45.2 55.7a1.5 1.5 0 0 0 2.12 2.12z"/><path class="cls-2" d="M496 541.6c33.19-69.31 32.54-153.9-1.7-222.7-14.62-29.37-35.5-58-34.95-90.8l.58-2.09c-12.78 19.56-11 45.25-5 67.8s16.05 44.25 18.47 67.48c4.2 40.22-14.54 78.88-32.77 115"/><path class="cls-3" d="M497.26 542.36a260.41 260.41 0 0 0 12.61-188.82c-6.63-20.91-16.57-40-27-59.22-6-10.93-11.82-22-16.05-33.73a106.19 106.19 0 0 1-4.75-17.34c-.92-5.18-2.14-11.66-.71-16.84a1.51 1.51 0 0 0-2.74-1.16c-17.12 27.09-8.44 60.23.88 88.39 5.72 17.29 11.85 34.7 12.86 53.05 1 17.81-2.5 35.51-8.06 52.37-6.46 19.57-15.67 38.08-24.93 56.44-.87 1.72 1.71 3.24 2.59 1.51 15.22-30.16 30.94-61.76 33.29-96 1.19-17.32-2.05-34.06-7.13-50.55s-11.51-32.56-14.54-49.56c-3.28-18.35-2.57-38 7.63-54.09l-2.74-1.16c-2.16 7.85.29 17.9 2.28 25.6a150 150 0 0 0 10.9 28.12c9.84 20.12 21.88 39 30 60a258.16 258.16 0 0 1 14.61 129.77 250.18 250.18 0 0 1-21.61 71.78c-.82 1.74 1.77 3.26 2.59 1.52z"/><g style="mix-blend-mode:multiply"><path class="cls-5" d="M220 564.51c13.24-31 26.59-62.27 45.35-90.32s43.45-53 74.22-66.85c48-21.6 108.41-12 147.31 23.5 21.1 19.22 35.56 44.51 49 69.69q23.45 43.92 44.16 89.22"/><path class="cls-5" d="M221.28 565.27C248.25 502 281.43 427.21 352.42 404c29.71-9.73 62.62-8.42 91.79 2.62 32.71 12.39 56.21 37 74.28 66.3C529.66 491 539.36 510 549 529q15.5 30.45 29.71 61.53c.81 1.75 3.39.23 2.59-1.52-17.11-37.36-35.07-74.75-55.81-110.26-17.39-29.77-39.33-56.47-71.23-71.17a143.35 143.35 0 0 0-91.21-9.67c-32.8 7.5-60.75 28.07-82.31 53.37-28.05 32.92-45.25 73.1-62.06 112.49-.75 1.76 1.83 3.29 2.59 1.52z"/></g></g></g></svg>