<svg xmlns="http://www.w3.org/2000/svg" viewBox="0 0 800 800"><defs><style>.a{fill:#fff}.c{fill:#fca14f}</style></defs><path d="M524.61 587c-4.66-.29-8.6-.49-12.53-.79-1.75-.14-2.57.16-3.18 2.2-1.48 4.88-4.69 8.87-7.81 12.83a43.92 43.92 0 0 1-12.42 11.27c-3.58 2-7 4.55-11.29 5.16a5.43 5.43 0 0 0-1.07.17c-3.79 1.31-7.57 2.65-11.36 3.94a9 9 0 0 1-2.46.5c-9.3.49-18.52-.41-27.23-3.61a35.46 35.46 0 0 1-14.58-10.81c-4.43-5.25-8.43-10.77-10.17-17.58a2.49 2.49 0 0 0-2.81-2.12c-6.72.08-13.4.64-19.82 2.68-5.57 1.77-11.16 3.68-16.11 6.85-6.84 4.37-13.63 8.82-20.2 13.58-10.65 7.71-22.14 13.13-35.25 15.13a52.07 52.07 0 0 1-22.7-1.41 67.44 67.44 0 0 1-7.05-2.66 24.14 24.14 0 0 1-9.64-7.29 73.06 73.06 0 0 1-12.44-22.47c-.9-2.62-1.84-5.11-5.44-4-7.16-1.35-14.35-2.59-21.48-4.1a107.39 107.39 0 0 1-13.48-3.57c-10.47-3.71-21.23-6.72-30.83-12.63-4.36-2.68-9.1-4.74-13.48-7.38a105.93 105.93 0 0 1-16.34-12.18 9.39 9.39 0 0 1-2.17-3.61 2.34 2.34 0 0 1 1-2 17.34 17.34 0 0 1 4.31-1.75 57.07 57.07 0 0 0 13.53-5.6c3.87-2.08 7.59-4.46 11.3-6.83 7.47-4.74 14.94-9.49 22.32-14.38a58.67 58.67 0 0 1 11.77-6c2.13-.8 2.12-1.26.38-2.65-9.47-7.56-14.05-17.62-15-29.5a62.42 62.42 0 0 1 1.13-18.2 49 49 0 0 1 2.87-8.12c1.17-2.88 1.25-2.83-.86-4.85a46.37 46.37 0 0 1-14.4-28.93 55.79 55.79 0 0 1-.7-10c.11-2-.82-3-2.54-3.84-5.19-2.43-10.43-4.79-15.44-7.56-4.79-2.66-9.39-5.7-13.91-8.8a18.67 18.67 0 0 1-4.09-4.44c-1.11-1.49-.72-2.32 1-2.91 3.62-1.23 7.35-2.21 10.85-3.71 5.05-2.17 10-4.55 14.86-7.15 9.31-5 17.55-11.59 26.14-17.66a64.31 64.31 0 0 1 8-4.82 4 4 0 0 0 2.38-3.29c.55-4.2 2.69-7.66 5.17-10.9a39.14 39.14 0 0 0 6.43-12 51.57 51.57 0 0 0 2-12.69 63.85 63.85 0 0 1 5.75-24.52 20 20 0 0 1 6.52-7.55c1.82-1.3 2.51-2.48 1.83-5-.9-3.39-1.66-7-.44-10.63.54-1.62 0-2.45-1.76-2.62-8.76-.83-17.18-3.22-25.51-5.88-5.58-1.78-11.09-3.78-16.54-5.93-8.57-3.38-17.07-6.93-25.55-10.52a34.62 34.62 0 0 1-4.92-2.92c-4.26-2.68-8.56-5.3-12.7-8.14a14.88 14.88 0 0 1-3.64-3.86c-1.32-1.88-.74-2.9 1.51-3.62 4.31-1.39 8.8-2.45 12.82-4.44a203.32 203.32 0 0 0 17.7-10.2c6.15-3.88 12.21-8 18-12.27a96.11 96.11 0 0 1 15-9.1 68.55 68.55 0 0 1 22.2-6.62 159.65 159.65 0 0 1 18.9-1.34 60.49 60.49 0 0 1 15.65 1.64c6.57 1.72 13.32 2.75 19.88 4.48a93 93 0 0 1 14.89 5.09c8.6 3.93 17 8.32 25.38 12.66a59.26 59.26 0 0 1 5.87 4.08c1.76 1.21 3.6 2.33 5.34 3.58 2.33 1.67 4.56 3.48 6.92 5.1.56.39 1.76.68 2.13.37 4.63-3.85 10-2.56 15.17-2.25 7.18.44 12.78 4.42 18.31 8.47 2.41 1.77 2.32 1.84 4.61-.06A23.55 23.55 0 0 1 415 209c2.6-.36 5.15-1.15 7.77-1.48a21.48 21.48 0 0 1 6.78-.15c3.34.7 5.32-1 7.54-2.94 4.68-4.08 9.15-8.59 14.4-11.79 7.82-4.77 16.16-8.71 24.43-12.7a77.69 77.69 0 0 1 14.29-5.62c11.11-2.86 22.32-5.49 34-4.89 7.17.37 14.35.58 21.49 1.26 3.28.32 6.48 1.57 9.69 2.48 1.85.53 3.62 1.31 5.46 1.84a61.09 61.09 0 0 1 14.63 6.58c6 3.62 12.25 7 18.33 10.57s11.84 7.25 17.86 10.69a105.32 105.32 0 0 0 11.55 5.76c3.83 1.6 7.85 2.74 11.82 4 1.24.4 2.76.31 3 2s.13 3.4-1.51 4.5c-2.09 1.4-4.19 2.78-6.32 4.11-3.55 2.2-7.13 4.33-10.68 6.52-5.78 3.57-11.49 7.28-17.35 10.72-10.59 6.21-22.08 10.39-33.62 14.35a79.69 79.69 0 0 1-16.75 3.77 54.68 54.68 0 0 0-5.64 1.14c-1 .22-1 .89-.54 1.6a13.85 13.85 0 0 0 1 1c4.4 5.36 9.12 10.5 13.13 16.15 5.35 7.56 9.46 15.81 10.81 25.16a64.92 64.92 0 0 1-3.42 32.52c-1 2.6-.94 2.65 1.63 3.72 11.33 4.71 21.67 11.2 32 17.72 6.17 3.91 12.31 7.91 18.74 11.34 4.41 2.34 9.31 3.74 14 5.59a9.44 9.44 0 0 1 2.56 1.22c3 2.43 3.05 3.81-.19 5.9-8.72 5.67-17.68 11-26.27 16.83-6 4.06-12.74 6.45-19 10-5.25 3-11.27 4.58-17 6.58-1.75.61-2.88 1.27-3.31 3.2-1.15 5.11-3.13 10-2.62 15.48a31.4 31.4 0 0 0 2.87 9.95 65.24 65.24 0 0 0 9.25 14.9c5.9 7.24 11.65 14.65 15.85 23 1.48 3 2.13 6.33 3 9.55 2.16 7.94 1.73 15.91 0 23.85a25.9 25.9 0 0 1-1.43 3.68c-1 2.53-1.05 2.65 1.19 4.08 2.72 1.74 5.56 3.29 8.37 4.88 4.59 2.58 9.23 5.08 13.79 7.71a47.17 47.17 0 0 0 13.24 5.36c2.34.51 4.19 1.49 4.81 4.13.33 1.39.15 2.36-1 3.11-3.58 2.39-7.12 4.85-10.79 7.09a121.21 121.21 0 0 1-10.64 5.89c-12.5 6-24.81 12.37-38.31 16-4.14 1.1-8.08 3-12.24 4-9.28 2.23-18.46 5-28.14 5.24-4.51.05-9.07.54-12.9.85zM502 256.67l-1.7-.51-1.21-.28-1.66-.45a.66.66 0 0 1-.49-.11l-1.86-.49a7.27 7.27 0 0 1-1.77-.22c-4.1-1.62-8.06-3.88-12.3-4.81-5.36-1.16-8.84-5.32-13.63-7.26a28.51 28.51 0 0 1-5.89-3.33c-6.37-4.6-12.49-9.56-19-13.93-4.09-2.74-8.65-5.09-13.36-.53-1.26 1.22-3.68.39-5.07-1.37-1.11-1.41-.49-2.62.46-3.88 1.07-1.42 2-2.95 2.94-4.47.57-.94.15-1.32-.84-1.16-3.2.51-6.39 1-9.57 1.56-3.85.67-7.16 2.61-10.49 4.49-1.42.81-1.54 1.8-.58 3.22 1.73 2.56 3.28 5.24 4.85 7.91.55.92 1.16 1 2.08.59 2.3-1 4.63-1.94 7-2.87a20.88 20.88 0 0 1 18.38 1.3c4.61 2.51 8.84 5.71 13.35 8.44s8.7 5.57 13.41 7.48c8.63 3.51 17.53 6.36 26.32 9.49l1.72.45 13.42 3.27 2.59.62c2.17 1 4.41 1.9 6.47 3.1a94 94 0 0 1 11.2 7 71.08 71.08 0 0 1 13.73 14.55 73.36 73.36 0 0 1 10.07 20.11c2.8 8.6 3.76 17.52 1.74 26.57-.7 3.12-.13 3.76 2.9 4.48.82.2 1.65.3 2.47.49 2.85.66 3.34.52 4.2-2.1.78-2.37 1.24-4.86 1.92-7.27 2.39-8.55 1-17.08-.36-25.55a27.46 27.46 0 0 0-2.92-7.69 98.91 98.91 0 0 0-7.16-12.82c-2.81-4-6.47-7.35-9.66-11.08a25.31 25.31 0 0 0-6.55-5.51 34.84 34.84 0 0 1-4.15-3.38c-6.75-1.87-13.75-.53-20.57-1.53l-1.06-.34-3.7-.63a.85.85 0 0 1-.57-.22l-1.7-.41-1.21-.24-1.62-.54a.71.71 0 0 1-.57-.14zm3 78.62l3.65-.69c2.15-.12 4.45.76 6.36-.95a32.13 32.13 0 0 0 9-13.21 9.93 9.93 0 0 0-3.79-12 102.19 102.19 0 0 0-9.75-5.33 34.36 34.36 0 0 1-9-5.73c-4.08-3.92-5.9-8.88-7.17-14.21a52.77 52.77 0 0 0-3.3-10.26c-2.93-6.28-8.78-8.77-15.12-9.67-11.09-1.57-22-.73-32.12 4.68-.76.41-2.1.39-1.44 1.88.52 1.14.67 2.46 2.6 2.34a23 23 0 0 1 7.09.41 69.14 69.14 0 0 1 11.17 3.84c5.28 2.39 10.5 4.72 14.47 9.52 5.62 6.82 8.06 14.3 7.16 22.95-.95 9.22-5.34 17-10.64 24.32a31.23 31.23 0 0 1-3.11 3.93c-6 6-11.95 12-18.83 17.07a206 206 0 0 1-20.67 13.57c-3.74 2.11-7.68 4-11.05 6.62-7.93 6.15-16 12.19-22.78 19.7-6 6.63-11.27 13.76-14.46 22.11a134.17 134.17 0 0 0-6.63 23.08c-.29 1.55-.23 2.17 1.52 2.23 4.17.14 8.34.49 12.52.64a3.15 3.15 0 0 0 2.16-.79 42.31 42.31 0 0 0 2.79-3.68 38.77 38.77 0 0 1 4-5.07c9.4-8.76 20.4-14.23 33.37-14.87a40.51 40.51 0 0 0 21.41-7.24c3-2.07 4.72-5 6.68-7.89a1.56 1.56 0 0 0-.15-1.48 85.88 85.88 0 0 0-5.23-4.3c-3.82-2.88-7.58-5.85-11.56-8.49-3-2-6.48-3.28-10.17-2.67-1.78.3-3.34.65-4.52-1s-.06-3.17.77-4.61a10.34 10.34 0 0 1 .84-1.16c2.74-3.46 5.93-6.5 9-9.68 5.36-5.63 11.71-9.87 17.91-14.28 10.28-7.3 21.71-12.49 33.58-16.68 2-.71 4.15-1.06 6.24-1.58l3.64-.74 3.67-.68zm-128.34 112l-.05.46c-.71 0-1.44-.06-2.15 0-10.47 1.07-21 1.83-31.39 3.37-6.68 1-13.49 1.86-19.84 4.56a36.52 36.52 0 0 1-6.12 2c-10.7 2.4-20.53 7.2-30.67 11.14-2 .77-3.91 1.72-5.86 2.59-2.3 1-4.61 2-6.88 3.07-.36.17-.56.66-.84 1a5.65 5.65 0 0 0 1.21.43c4 .5 8.12.68 12.09 1.5 6.07 1.25 12.07 2.88 18.06 4.47 2.34.61 4.56 1.71 6.9 2.29 3.23.81 6.54 1.27 9.79 2a52.57 52.57 0 0 0 23.51.08c7.58-1.71 14.19-5.66 21-9.3a51.09 51.09 0 0 1 10-3.85c3-.85 6.12-1.06 9.17-1.65a37.34 37.34 0 0 1 16.66.73c7.38 1.9 14 5.75 20.21 9.84a173.7 173.7 0 0 0 16.18 9.94 59 59 0 0 0 9.62 3.93c3.78 1.14 7.74 2 11.69 1 8.81-2.17 17.6-4.42 26.35-6.81 7.39-2 14.73-4.21 22.55-2.7a13.8 13.8 0 0 0 3.2-.1c-.86-.7-1.67-1.47-2.59-2.08a18.53 18.53 0 0 0-2.54-1.32q-6.68-3.09-13.35-6.15c-5.44-2.48-10.82-5.1-16.36-7.35-6.41-2.6-12.86-5.22-19.49-7.17-10.43-3.07-21-5.63-31.55-8.33-3.35-.85-6.76-1.48-10.15-2.16-6-1.2-11.95-2.61-18-3.45-6.79-.97-13.59-1.39-20.36-2.03zm145.41 71.59c-5.49.49-12.05.92-18.58 1.7-4.85.58-9.86 1-14.42 2.59-7 2.43-14.28 3.88-21.38 6-6.94 2-13.58 4.66-19.43 9-1.63 1.21-3.44 2.16-5.15 3.27-2.31 1.49-4.63 3-6.88 4.56a9.1 9.1 0 0 0-1.56 1.85c.76.48 1.51 1 2.29 1.42.19.12.47.07.7.14a38.15 38.15 0 0 1 14.64 7.4c3.38 2.85 6.77 5.7 10.3 8.35 5.32 4 11.68 5.93 17.68 8.56a52.18 52.18 0 0 0 6.44 2.24c1.82.52 3.7.8 5.56 1.19q1.11-2.8 2.21-5.62a42 42 0 0 1 7.4-12.55c3.05-3.46 6.94-6.21 10.54-9.16 6.27-5.13 13.85-7.61 21.48-9.49a54 54 0 0 1 19.89-.94 20.55 20.55 0 0 1 2.44.57c2.31.6 4.6 1.35 6.94 1.81a33.29 33.29 0 0 1 10.92 4.48 84.26 84.26 0 0 1 19.07 16.19c1.29 1.45 2.42 1.82 4 1.06 5-2.34 10-4.68 14.9-7.11.64-.31 1-1.11 1.57-1.69-.59-.36-1.14-.79-1.76-1.09-4.54-2.14-9.43-3.58-13.32-7a7.2 7.2 0 0 0-2.28-.86 13.69 13.69 0 0 1-2.29-.87c-6.1-3.52-12.14-7.13-18.26-10.62a100.34 100.34 0 0 0-10.41-5.48A159.46 159.46 0 0 0 548 522c-8.16-2.38-16.48-2.71-25.93-3.17zm-2.62-330.71c-4.06.29-8.61.5-13.13 1A116 116 0 0 0 492.5 191c-4.74 1.08-9.23 3.19-14 4.27-6.25 1.43-11.82 4.42-17.6 6.91a63.11 63.11 0 0 0-8.05 4.68c-4.26 2.65-8.46 5.39-12.71 8.06-1 .64-1.68 1.51-.07 1.88 4.44 1 7.19 4.65 10.93 6.73a31 31 0 0 1 5.48 4c7.49 6.66 16.38 11.14 24.95 16.11a29.84 29.84 0 0 0 6.61 2.54c2.5.74 2.6.56 3.52-2 .67-1.9 1-4.09 2.2-5.61 4-5.17 7.47-10.93 13-14.67 4.46-3 9.09-5.7 13.64-8.55 3.88-2.44 8.42-2.65 12.7-3.67 6.7-1.59 13.55-1.23 20.34-.71a38.92 38.92 0 0 1 8.33 1.66c3.4 1 6.67 2.48 10 3.73A39.12 39.12 0 0 1 584 223.8c3.93 3.48 7.62 7.23 11.4 10.88.88.86 1.67 1.76 3.1 1.12 4.92-2.2 9.76-4.57 13.92-8.08 1.5-1.26 1.49-1.75-.24-2.47-2.84-1.19-5.65-2.47-8.45-3.68-4.33-1.88-8.21-4.8-12.27-7.3-1.82-1.13-3.6-2.34-5.44-3.45-3.78-2.29-7.65-4.44-11.38-6.83a109.31 109.31 0 0 0-27-12.38c-9.01-2.76-18.4-2.78-28.19-3.49zm2.18 162.77c-3.7.28-7.4.89-11.09.79-9.14-.26-17.83 2.07-26.42 4.54-11.93 3.42-22.92 9.06-33.37 15.75-3.12 2-6.37 3.8-9.53 5.75-.44.28-.68.88-1 1.33a9.67 9.67 0 0 0 1.37 1c1.84.85 3.89 1.38 5.53 2.5a101.86 101.86 0 0 1 11.48 8.56c5.89 5.39 12.67 9.41 19.35 13.6a45.53 45.53 0 0 0 13.26 5.24c1.59.4 2.17-.06 2.6-1.45a20.06 20.06 0 0 1 1.58-4 70.2 70.2 0 0 1 19.24-21.94c5.33-4 11.35-6 17.43-7.91 5.36-1.7 11-2 16.68-1.91a65.27 65.27 0 0 1 31.53 8.56 35.3 35.3 0 0 1 7.15 5.35 98.43 98.43 0 0 1 6.79 7.88c3 3.57 3 3.69 7.25 1.7 3.35-1.59 6.58-3.44 9.81-5.28 1.69-1 1.59-1.76-.17-2.73-.42-.24-.9-.35-1.31-.6-4.94-2.91-9.92-5.75-14.78-8.8-3.84-2.41-7.48-5.15-11.29-7.62-1.89-1.22-4.14-1.94-5.92-3.29-7.46-5.65-15.92-9.41-24.69-12.19a112.2 112.2 0 0 0-31.48-4.88zm-247.08 168.5c-9.72 0-19.42.48-28.72 3.38-7.92 2.47-16.19 4.17-23 9.63-4.54 3.63-9.89 6.26-14.4 9.93-5.12 4.18-10.34 8.09-16.35 10.86-1.73.81-3.54 1.47-5.25 2.32-2.17 1.09-2.19 2-.08 3.17 3.12 1.77 6.25 3.56 9.49 5.11 5.92 2.82 11.81 5.75 17.92 8.12s12.26 4.06 18.42 6c1.65.52 3.07.44 3.67-1.61 1.26-4.36 3.84-7.94 6.7-11.36 3.37-4 6.3-8.34 10.51-11.69 2.8-2.23 5.36-4.67 8.55-6.39 2.47-1.33 4.62-3.32 7.16-4.44 6.23-2.74 12.55-5.07 19.52-5.64 4.86-.39 9.55-1.09 14.54-.65a60.93 60.93 0 0 1 25 8.16c5.47 3.13 11.13 6.13 15 11.39 1 1.36 2 1.6 3.59.48 5.07-3.53 10.92-5.27 16.8-6.87a17.1 17.1 0 0 0 1.89-.78 11.57 11.57 0 0 0-1.3-1.48c-9-7.55-19.58-12.43-30.28-17a134 134 0 0 0-29.17-8.19 154.92 154.92 0 0 0-30.21-2.45zm-3-165.7v.32a30.18 30.18 0 0 0-4.66 0 155.53 155.53 0 0 0-16.16 2.94 78.06 78.06 0 0 0-13.61 5.32 129.28 129.28 0 0 0-12.65 7.4c-5 3.21-10.11 6.42-14.85 10-5.07 3.87-10.27 7.37-16.28 9.59a22.82 22.82 0 0 0-3.56 1.71c-1.21.7-1 1.48.12 2.11.53.29 1.1.49 1.62.78 6.76 3.69 14 6.21 21.28 8.59 8.31 2.7 16.54 5.67 24.82 8.47 2.74.92 3 .9 4-1.84 2.46-6.78 6.51-12.5 11.22-17.84 1.49-1.7 2.7-3.75 4.45-5.11 5.25-4.09 10.28-8.49 16.66-11 6.86-2.7 13.73-4.78 21.21-4.59 6.57.17 13.17-.12 19.5 2.14 4.58 1.64 9.24 3.11 13.72 5A47.91 47.91 0 0 1 345 390.05a3.21 3.21 0 0 0 4.43.68 16 16 0 0 0 2.05-1.43c3.95-3.15 8.06-6 13.08-7.26a1.87 1.87 0 0 0 1.26-1.06 1.74 1.74 0 0 0-.79-1.4c-2.78-1.64-5.56-3.28-8.44-4.73-4-2-8.12-3.59-12-5.7a123 123 0 0 0-21.8-8.78c-3.63-1.15-7.4-1.87-11-3-7.4-2.23-15-2.92-22.66-3.32-5.89-.27-11.74-.21-17.58-.31zm93.29-134.69l-1.84-1.26c-3.52-2.28-7-4.59-10.54-6.82a188.69 188.69 0 0 0-27.47-13.9 92.1 92.1 0 0 0-17.42-5.52c-7.51-1.51-15-2.9-22.76-2.54-3.59.16-7.2.12-10.79-.07a54.18 54.18 0 0 0-19.77 2.58 124.81 124.81 0 0 0-23.32 10c-5.23 3-10 6.56-14.79 10-6.36 4.5-12.58 9.13-19.58 12.58-2.35 1.16-4.79 2.12-7.15 3.26-1.64.79-1.64 1.54-.05 2.45a31.51 31.51 0 0 0 3.56 1.72c3.52 1.45 7 2.92 10.6 4.26q12.94 4.86 25.93 9.57a49.6 49.6 0 0 0 5.52 1.55c2.65.64 2.46 1 4-2.11a68 68 0 0 1 2.85-6.19c6.09-10.07 13.69-18.67 24.27-24.25 2-1.06 4.13-1.9 6.05-3.08 3.53-2.16 7.51-3 11.42-3.95a56.84 56.84 0 0 1 9.26-.86c3.66-.23 7.37-.79 11-.45a49.08 49.08 0 0 1 21.21 6.92c6.65 4.06 13.08 8.37 18 14.59.92 1.18 1.88 1.32 3 .25a7.63 7.63 0 0 1 1.51-1c4.77-2.6 9-6.41 14.76-6.9a6.34 6.34 0 0 0 1.36-.44zm37.91 51.63v-.13h1.08c4.42-.14 5.6 1.08 5.36 5.39-.21 3.7-.47 7.4-.47 11.11 0 9.2.12 18.4.22 27.59 0 2.09.14 2.11 2.19 1.7 7.59-1.49 14.17-5.24 20-10s9.91-11.08 9.56-19.2a37.29 37.29 0 0 0-1-8.18c-.67-2.48-2.14-4.74-3.15-7.15-1.33-3.16-4.51-4.17-6.89-6.1a36.56 36.56 0 0 0-16.65-7.77c-8.15-1.53-16.18-1-24.24-.26-4.2.38-8.28 2-12.48 2.71a41.47 41.47 0 0 0-17.77 7.94c-6.32 4.71-9.41 11.68-11.18 19.1-1.59 6.66.32 12.84 4.11 18.41a22 22 0 0 0 3.68 3.91c1.22 1.08 1.89.77 2.09-.77.09-.71.07-1.43.12-2.15a54.08 54.08 0 0 1 7.46-23.78c2.17-3.69 5.13-6.94 8.93-8.62 7.68-3.41 15.77-5.49 24.35-4.13 1.57.24 3.13.26 4.68.38zM329.2 267c-5.07-.23-9.72 1.36-14.45 2.68-6.66 1.86-10.85 6.52-13.74 12.32-2.23 4.49-3.67 9.36-5.5 14a14.41 14.41 0 0 1-1.52 3.22 38.49 38.49 0 0 1-12.58 11.59 21.68 21.68 0 0 0-6.62 5.34c-4.15 5.35-4.32 11.47-2.28 17.77a2 2 0 0 0 2.05 1.59c2.73.25 5.46.58 8.18 1a94.9 94.9 0 0 1 11.31 1.86c7.72 2.09 15.33 4.58 23 6.87a5.41 5.41 0 0 0 1.69-.07 10.6 10.6 0 0 0-.66-1.25c-6.27-9-7.76-19.16-6.65-29.81a26.75 26.75 0 0 1 1.72-6.54c1.63-4.35 3-8.94 5.33-12.86a43.43 43.43 0 0 1 14-14.64c4.29-2.67 6.85-7 10.58-10.16.63-.54.77-1.29-.41-1.43zm103.11 317.1a44.36 44.36 0 0 0 17.24-4.42 16.61 16.61 0 0 0 6.65-5.89c2.47-3.73 2.07-5.38-1.78-7.53-1-.53-1.47-.61-2.23.57a14 14 0 0 1-7.19 5.6c-4.19 1.57-8.44 1.56-12.73 1.21-6.18-.51-12.34-1.23-18.51-1.86-8.61-.88-17-.84-25.62 1.29a82.05 82.05 0 0 0-26.51 12.27c-4.06 2.75-8.29 5.26-12.53 7.71-2.53 1.45-5.18 2.64-7.29 4.77a16.74 16.74 0 0 1-4 2.94c-7.09 3.76-14.38 7-22.32 8.63a28.13 28.13 0 0 1-23.92-5.78c-1.35-1.06-2.06-2.89-3.32-4.1a35.45 35.45 0 0 1-7.22-9.77c-.62-1.25-1.31-1.82-2.78-1.53-1.88.36-3.8.46-5.7.69-2.34.28-2.34.28-1.73 2.46 2 7.29 6.12 13.46 10.69 19.34a16.2 16.2 0 0 0 4.27 3.81 41.56 41.56 0 0 0 25 6.29c12.81-.93 24.37-5.59 34.86-13 7.32-5.19 14.77-10.21 22.26-15.16a50.08 50.08 0 0 1 9.67-5.37 111.13 111.13 0 0 1 14.1-4 65.39 65.39 0 0 1 23.87-.94c5.39.74 10.9 1.16 16.77 1.77zm-42.62-49.42c9.89 0 19.55-1.67 29.27-3 10.55-1.4 20.48-4.81 30.32-8.54a44.67 44.67 0 0 0 10.14-5.27 96.9 96.9 0 0 1 11.29-6.87 29.33 29.33 0 0 0 7.1-4.76q4.5-4.35 8.93-8.79c.26-.26.24-.81.35-1.22a3.41 3.41 0 0 0-1-.09c-.94.2-1.86.45-2.78.74q-5.83 1.82-11.65 3.66c-6.07 1.92-12.74 2.36-17.63 7.18a1.43 1.43 0 0 1-.33.15c-7.86 3.43-15.7 6.92-23.59 10.29-6.34 2.7-13.17 3.55-19.87 4.55a106.08 106.08 0 0 1-52.86-6.15 120.18 120.18 0 0 1-23.25-12.67c-1.88-1.27-3.88-2.37-5.68-3.74-2.94-2.24-5.75-4.66-8.66-6.94a6.6 6.6 0 0 0-2.18-1.06c-3.66-1.1-7.33-2.18-11-3.17a37.81 37.81 0 0 0-4.11-.66c.68 1.37 1.36 2.75 2.05 4.12.05.09.21.11.3.19 4.08 3.68 8.11 7.43 12.25 11s8.39 7.11 12.59 10.66c1.71 1.44 3.22 3.73 5.15 4.14 3.7.8 6.45 3.1 9.45 4.87a82.17 82.17 0 0 0 24.1 9c6.89 1.55 14.17 1.7 21.3 2.38zm47-177l-.07-.41a58.25 58.25 0 0 1-5.95 1.13c-5.95.54-12 1.63-17.88 1.21-7.47-.53-14.88-2.14-22.25-3.63a99.82 99.82 0 0 1-14.84-4c-8.2-3-16.11-6.64-23.14-12.06-5.36-4.13-10.15-8.66-13.48-14.61-.2-.35-.67-.54-1-.81a6.47 6.47 0 0 0-.11 1.06c.46 7.75.91 15.49 1.46 23.23a3.18 3.18 0 0 0 1.19 2 121.15 121.15 0 0 0 10.8 7.76c4.83 2.86 9.91 5.29 15 7.75a94.67 94.67 0 0 0 21.3 7.33c6.19 1.35 12.43 2.42 18.87 2.07a8.25 8.25 0 0 0 4.81-1.72c3.79-2.72 7.68-5.3 11.61-7.81 4.49-2.93 9.1-5.68 13.68-8.49zm25 165.59c5-1.48 9.19-2.92 13.44-3.9 6.16-1.42 12.39-2.58 18.61-3.75a189.6 189.6 0 0 1 31-2.75A84.15 84.15 0 0 1 545 515a93.22 93.22 0 0 1 19.45 7.19c5.29 2.5 10.47 5.23 15.65 8 4.77 2.51 9.64 4.89 14.16 7.82 6.39 4.14 13.55 6.55 20.42 9.6a51.55 51.55 0 0 0 6.74 2.32 4.48 4.48 0 0 0 2.76-.1 24.28 24.28 0 0 0 4-2.34c1.53-1 1.4-1.51-.34-2.36-5.68-2.8-11.41-5.5-17-8.49s-10.8-6.17-16.19-9.27c-3.22-1.84-6.55-3.52-9.65-5.54-9.8-6.41-20.57-10.76-31.46-14.84a42.29 42.29 0 0 0-9-2.36c-5.17-.72-10.4-1.11-15.62-1.47a50.94 50.94 0 0 0-9.64-.11c-6.76.82-13.48 2-20.18 3.19a64 64 0 0 0-9.3 2.46c-3.15 1.1-6.09 2.82-9.26 3.84-6 1.94-11.23 5.23-16.44 8.61-.62.44-1.18 1.03-2.44 2.12zm-162.42 18.39c-3.44.35-6.91.59-10.34 1.07-10.2 1.42-19.14 5.72-27.36 11.82-5.26 3.91-9.41 8.87-13.65 13.74a79.24 79.24 0 0 0-6.15 8.74c-1 1.46-.6 3 .66 3.25 3.86.81 7.74 1.54 11.62 2.25 1.9.35 3.21-.25 3.72-2.34 1-4.07 3.58-7.31 6-10.52a25.14 25.14 0 0 1 6.31-6.29c5.89-3.56 12-6.73 19-7.72a35.7 35.7 0 0 1 17 1.33 76.58 76.58 0 0 1 18.68 9.84c2.31 1.62 3 1.69 5.16.24 2.6-1.72 5.18-3.47 7.75-5.22s2.85-2.14.38-4.15a70.65 70.65 0 0 0-10.83-7.65c-8.66-4.7-17.68-8.62-27.95-8.39zM543.4 378.83c-1.82.41-4.82 1.27-7.87 1.73-9.25 1.42-16.6 6.53-23.56 12.22-4.68 3.83-7.55 9.23-10.72 14.3a23.86 23.86 0 0 0-1.35 3.7c-.5 1.19 0 1.47 1 2.07 3.59 2.16 7.9 1.08 11.55 2.81 1.7.8 2.35 0 3.24-1.53 2.6-4.51 4.64-9.41 9.23-12.6s8.94-7.29 14.94-8.07c2-.26 4.08-.13 6.07-.49 5.68-1 10.95.58 16 2.75a56 56 0 0 1 15.44 10.33c1.31 1.19 2.3 1.37 3.78.56 3-1.67 6.11-3.29 9.23-4.82 1.37-.67 1-1.32.32-2.21-5.33-7.29-11.79-12.87-20.46-16.23-8.33-3.23-16.87-4.13-26.84-4.52zm48-139.27a19.13 19.13 0 0 0-1.4-2.06c-2-2-3.93-4.17-6.08-6a62.11 62.11 0 0 0-21.3-12.31 38.43 38.43 0 0 0-18.78-1.71c-5.75 1-11.4 2.62-17 4.17s-11.26 3.42-15.88 7.28c-1.72 1.45-3.12 3.3-4.91 4.65-4.6 3.47-7.14 8.25-9.16 13.46-.55 1.4-.15 2 1.08 2.41 2.17.67 4.33 1.34 6.52 1.91 1.72.43 3.85 1.47 5.12.85 1.44-.71 2.18-2.94 3.12-4.56 1.91-3.32 3.71-6.73 6.81-9.14a41.78 41.78 0 0 1 24.14-8.91c6.4-.32 12.32 1.29 18.06 3.86a37.75 37.75 0 0 1 13.24 10.26c1.27 1.48 2.51 2 4.37 1.17 3.39-1.49 6.85-2.84 10.26-4.28a18.43 18.43 0 0 0 1.78-1.05zm-292.63-27.67c-4.15.4-8.35.53-12.44 1.26a53.67 53.67 0 0 0-22.63 10.28 57.53 57.53 0 0 0-18.79 23.16c-1 2.27-.83 2.74 1.63 3 3.2.39 6.43.55 9.63.94 2.14.26 3.22-.48 3.94-2.59.91-2.69 1.86-5.6 3.61-7.75 4.48-5.53 9.58-10.4 16.85-12.29s14.43-4.42 22.13-2.77a41 41 0 0 1 4.2.77 67 67 0 0 1 10 3.64 80.69 80.69 0 0 1 9.78 6.42c1.58 1.13 3 1.9 4.9.81 2.47-1.45 5-2.85 7.41-4.35 1.08-.67 1-1.38 0-2.22a142.19 142.19 0 0 0-15.58-11.46 47.24 47.24 0 0 0-24.64-6.85zm222.43-37.45c-3.3.4-7.79 1.18-12.31 1.46-6.91.43-13.5 2.34-19.94 4.45a140 140 0 0 0-27 12.4c-2.88 1.68-5.65 3.56-8.43 5.41-.28.18-.33.72-.49 1.09a4 4 0 0 0 1-.19c2.25-1.11 4.47-2.28 6.73-3.37 3.43-1.63 6.8-3.41 10.34-4.77 4.1-1.59 8.32-2.89 12.55-4.13a67.93 67.93 0 0 1 8.34-1.88c4.71-.77 9.45-1.42 14.19-2a59.44 59.44 0 0 1 9.29-.73c6.66.22 13.3 1 20 1.14s13 2.18 19.16 4.27a106.43 106.43 0 0 1 23.83 11.68c3.11 2 6.25 4 9.38 6 3.73 2.37 7.31 5 11.22 7 5.4 2.79 11 5.14 16.59 7.62a15.72 15.72 0 0 0 3.76 1.21 5.59 5.59 0 0 0 3.07-.21c2.06-.94 4-2.17 6-3.3a4.48 4.48 0 0 0 .76-.69 5.19 5.19 0 0 0-1.07-.6 96.48 96.48 0 0 1-20.24-9.26c-9.81-5.73-19.58-11.54-29.23-17.55a100.46 100.46 0 0 0-27-11.35c-9.7-2.59-19.47-2.88-30.5-3.7zM362.7 332.31h.4c0 .95-.11 1.91-.13 2.87-.08 4.24 0 4.41 4.06 6 3.33 1.33 6.78 2.36 10.07 3.79a23.09 23.09 0 0 0 16.49.5c6.78-2.2 13.3-5.43 18.47-10.72a98.46 98.46 0 0 1 7.7-7.46 44.9 44.9 0 0 0 7.94-9.21 7.38 7.38 0 0 0 .58-1.2 4.8 4.8 0 0 0-1.33.15q-4.26 1.79-8.49 3.65c-4.56 2-9.46 2.56-14.32 2.92-3.77.28-7.61-.45-11.4-.29a27.05 27.05 0 0 1-10.1-1.79 36.06 36.06 0 0 1-17.45-13.27 10.26 10.26 0 0 0-1-1 5.88 5.88 0 0 0-.72 1.41 16.16 16.16 0 0 0-.32 2.86c-.15 6.96-.29 13.87-.45 20.79zM328.48 521c-1.12-.63-1.62-.94-2.14-1.19a151.82 151.82 0 0 0-26.09-10.09c-6.08-1.71-12.2-3.51-18.67-3.09a9.89 9.89 0 0 1-2.11-.35 40.6 40.6 0 0 0-5.64-.83q-6.4-.12-12.82.17c-8.55.37-16.71 2.66-24.82 5.2a34.68 34.68 0 0 0-5.37 1.93c-6.1 3.05-12.19 6.13-18.17 9.41-3.13 1.72-6 3.9-9 5.82-4.63 2.92-9.4 5.62-13.91 8.72a59.89 59.89 0 0 1-14.81 7.2c-1.47.5-3 .71-4.51 1.21-1.72.58-1.84 1.17-.38 2.42 1.27 1.08 2.91 1.74 4.08 2.9 2.65 2.63 5.29 2.12 8.17.53 1.88-1.05 3.91-1.83 5.8-2.86 4.5-2.46 9.11-4.75 13.37-7.57 4-2.64 7.41-6 11.31-8.8 4.67-3.32 9.32-6.84 14.46-9.28s10.65-3.39 15.94-5.23c8.5-3 17.36-3.55 26.19-3.8 13.54-.37 27 .39 40.33 3.31 2.08.46 4.21.71 6.26 1.26 3.58 1 7.12 2.08 10.69 3.1a8 8 0 0 0 1.84-.09zm-82.25-19.58A36.63 36.63 0 0 1 235 490.3c-6.37-9.76-7.63-20.66-4.67-31.73 2.74-10.25 9.65-17.73 18.36-23.51 4.88-3.22 9.91-6.21 15.66-7.71.35-.1.86-.58.86-.88a39.72 39.72 0 0 0-.31-5 1.66 1.66 0 0 0-1.15-1.08c-3.42-.28-6.91-1.28-10.18.61-2.59 1.5-5.14 3.05-7.72 4.57-5.78 3.41-11.22 7.26-15.53 12.49-3.19 3.87-6.7 7.52-8.42 12.37-1.44 4.05-3.41 8-4 12.2a59 59 0 0 0-.25 15c.85 7.83 3.15 15.24 9.45 20.69 2 1.71 4.14 3.23 5.93 5.13a3 3 0 0 0 3.76.88c2.96-1.07 6.04-1.89 9.44-2.89zm315.9-82.51c-3.84.56-7.14 1-10.44 1.51a2.07 2.07 0 0 0-2 2.17c0 4.64-.39 9.35.22 13.92 1.47 10.85 6.92 20 13.3 28.67 2.12 2.88 4.77 5.37 6.9 8.25 3.32 4.5 7.34 8.39 9.74 13.69a32.84 32.84 0 0 1 1.89 23.34c-.46 1.64-.44 2.71 1.12 3.56 2.28 1.24 4.5 2.58 6.79 3.81 1.13.61 1.77 0 2.07-1.1 1.69-6.4 2.83-12.87 1.7-19.51s-3-13.22-7.51-18.75c-3.09-3.77-5.41-8.15-8.26-12.13-2.09-2.91-4.57-5.53-6.72-8.39-2.61-3.45-4.13-7.54-6.24-11.25-4-7.13-4.53-14.46-3.09-22.2.28-1.53.74-3 1-4.56.04-.41-.43-.94-.47-1.01zm-34.77-80.51c-7.09.69-13.75 1.27-20.4 2a71.53 71.53 0 0 0-17.31 4.44c-3.9 1.46-7.7 3.22-11.51 4.93-1.62.72-3.17 1.63-4.72 2.51-.3.18-.47.6-.7.9a2.93 2.93 0 0 0 1 .07c3.61-1.19 7.18-2.52 10.83-3.59 7.11-2.1 14.26-4 21.75-4.17 2.52 0 5-.15 7.55-.17 4.88 0 9.78-.24 14.65 0a106.13 106.13 0 0 1 11.34 1.54 103.47 103.47 0 0 1 12.31 2.29 107.42 107.42 0 0 1 26.93 12.49c4.55 2.86 9.08 5.77 13.48 8.84 7.18 5 15.16 8.57 22.73 12.88.84.47 1.74.82 2.59 1.27a3.16 3.16 0 0 0 3.67-.33c2-1.5 4.12-2.88 6.15-4.35a4.79 4.79 0 0 0 .82-1.09 5.36 5.36 0 0 0-1.15-.79c-1.69-.59-3.47-1-5.09-1.7A116.75 116.75 0 0 1 602.46 365c-3-2.15-6.45-3.68-9.51-5.77a139.61 139.61 0 0 0-25.53-13.82 88.44 88.44 0 0 0-9.18-3 66.71 66.71 0 0 0-14.13-2.32c-5.71-.31-11.4-1.09-16.75-1.67zm-20.62 241.43c4.87-.07 5 0 7-4.25 4.34-9.27 11.94-14.34 21.49-16.87a32.73 32.73 0 0 1 15.25-.66c5.55 1.13 11 2.33 15.59 5.89 2.64 2 5.18 4.22 7.72 6.4 1 .9 2 1.64 3.5 1 2.83-1.25 5.74-2.36 8.6-3.55s2.89-1.59.67-3.58a121.57 121.57 0 0 0-11-9.18 45.83 45.83 0 0 0-10.37-5.61 58.92 58.92 0 0 0-12.19-2.91c-4.25-.6-8.65-1.17-12.86-.68a53.45 53.45 0 0 0-26 10.49c-7.41 5.49-11.78 13.09-15.66 21.13-.4.83-.21 1.32.79 1.44 2.49.29 4.98.62 7.47.94zM255.23 414c1.85-.3 3.81.7 4.78-1.76a48.58 48.58 0 0 1 3.56-7 34.79 34.79 0 0 1 18-14.69c7.14-2.69 14.78-2.9 22.35-2.37a23.91 23.91 0 0 1 7.33 1.54c6.43 2.67 12.46 6.06 17 11.52a2.2 2.2 0 0 0 3.14.65c3-1.76 6-3.38 9-5.15a1.52 1.52 0 0 0 .26-2.68c-1-1-2-2-3.12-3a51.09 51.09 0 0 0-12.81-7.81 69.3 69.3 0 0 0-18.18-5.2 48.15 48.15 0 0 0-13.53-.34c-8.33 1.12-16.29 2.67-23.44 7.77a82.27 82.27 0 0 0-18.14 17.68 46.88 46.88 0 0 0-4.14 7.53c-.74 1.47-.26 2.29 1.31 2.51 2.32.28 4.58.51 6.63.8zm190.83-77.21h.11c-.15 2.86-.36 5.73-.45 8.6-.07 2.11.23 2.38 2.25 1.57 4.22-1.7 8.39-3.52 11.72-6.79 4.92-4.82 9-10.12 11.56-16.66 1.86-4.8 2.38-9-.08-14-4.55-9.23-12.52-13.09-21.58-15.68-2.5-.71-2.77-.33-2.69 2.51.1 3.58.68 7.17.56 10.73-.33 9.87-.92 19.77-1.4 29.67zm-179.79 4.63a83.49 83.49 0 0 0-21.45 2.21c-9 2-17.35 6.25-25.1 11.3-6.3 4.11-12.22 8.79-18.57 12.9a158.61 158.61 0 0 1-25 13.17c-1.1.46-2.18 1-3.27 1.46.9.68 1.78 1.4 2.71 2 1.38 1 2.76 1.92 4.21 2.76a2.61 2.61 0 0 0 2 .33c5.18-2.18 10.6-4 15.39-6.82 6.57-3.9 12.63-8.64 18.94-13 1.77-1.21 3.78-2.09 5.45-3.42 7-5.53 15.14-8.91 23.3-11.85a78.65 78.65 0 0 1 21.2-4.4c9-.63 17.94-.06 26.9.39a51.54 51.54 0 0 1 7.13.7c8.37 1.6 16.88 2.63 24.85 5.92a8.74 8.74 0 0 0 1.66.67 5.23 5.23 0 0 0 1.55-.17 12.63 12.63 0 0 0-1.21-1.11 3.64 3.64 0 0 0-1-.38c-7.82-2.54-15.61-5.19-23.48-7.56a83.34 83.34 0 0 0-13.26-3.09c-7.68-.95-15.33-1.43-22.95-2.06zm-.92-164.1c-4.41.34-8.84.47-13.22 1.07s-8.84 1.14-13 2.59c-8.73 3.07-16.7 7.78-24.38 12.9-5 3.31-9.62 7.09-14.62 10.36-6.09 4-12 8.3-18.79 11.16-2.65 1.11-5.32 2.17-8 3.2-1.45.57-1.26 1.28-.2 2q2.38 1.61 4.87 3.05a2.35 2.35 0 0 0 1.65.36 91.05 91.05 0 0 0 11.13-4.01 89.11 89.11 0 0 0 17.78-10.69c4.17-3.39 8.79-6.21 13.12-9.4a63.31 63.31 0 0 1 12.65-7.18c4.71-2 9.57-3.66 14.36-5.51 6.55-2.52 13.42-3.28 20.34-3.85 8.22-.68 16.44-.16 24.66 0a46.71 46.71 0 0 1 7.79 1c3.5.68 6.94 1.61 10.42 2.4.25.06.57-.17.86-.27-.17-.16-.31-.41-.51-.47-2-.67-4.08-1.29-6.11-2-13.25-4.24-26.77-6.85-40.8-6.76zM456 616.09a29.06 29.06 0 0 0 3.12-.36c3.36-.76 6.71-1.63 10.08-2.37a55.08 55.08 0 0 0 14.65-5.64c5.63-3.06 9.82-7.6 13.68-12.49a76.58 76.58 0 0 0 5-7.85c.72-1.19.43-2-1.07-2.29-2-.34-4-.65-5.92-1.07a2.59 2.59 0 0 0-3.2 1.41c-2.51 4-5.29 7.89-8 11.77a6.54 6.54 0 0 1-1.72 1.24c-6.83 4.67-14.56 7.17-22.49 9a24.67 24.67 0 0 1-8.52.44c-8-1-14.64-4.89-20.4-10.39-1.72-1.65-3.92-3.16-4.8-5.21s-2-2.67-4-2.69c-1.08 0-2.15-.19-3.22-.29-2-.18-2.2 0-1.58 1.81 2.31 6.78 6.78 12.06 12.06 16.66 4.84 4.2 10.88 5.89 17 7.11 3.14.62 6.33.84 9.33 1.21zm-183.2-33v-.12a41.67 41.67 0 0 0 6.8-.06c6.33-1 12.63-2.29 18.92-3.57a101.78 101.78 0 0 0 21-6.91c.39-.18 1-.56 1-.83a1.59 1.59 0 0 0-.81-1 108.26 108.26 0 0 0-15.08-7.33c-7.36-2.72-14.51-2.05-21.4.33-8.81 3-15.73 8.8-19.7 17.57-.52 1.13-.32 1.91 1 1.93 2.75-.02 5.47-.05 8.25-.05zM254.28 304c.13-7.37 2.47-14 7.79-19.37 1.27-1.27 2.56-2.53 3.91-3.71a10.18 10.18 0 0 1 2.37-1.52c7.37-3.39 15-3.46 22.82-1.92 4.33.86 4.33.89 6.67-2.89.13-.2.27-.4.39-.6 2.25-3.77 2.25-3.77-2-4.18a4.33 4.33 0 0 1-.71-.1c-6-1.69-11.83-.85-17.7.59a77.66 77.66 0 0 0-17.13 6.26 19.67 19.67 0 0 0-8.47 7.48 48.89 48.89 0 0 0-5 13.36c-1.13 5.1-1.22 10.43-1.7 15.67-.34 3.7-.69 7.38-2.25 10.83a64.46 64.46 0 0 1-7.52 13.34 10.56 10.56 0 0 0-1.06 2.79c.9-.25 1.79-.52 2.7-.75a22.35 22.35 0 0 0 2.45-.57c1.78-.68 3.51-1.32 4.72-3.06a86.81 86.81 0 0 0 8.86-16 12 12 0 0 0 .84-4.19c.09-3.85.02-7.68.02-11.46zm133.65 92.28a5 5 0 0 0-.8-.95c-3.47-2.55-6.91-5.15-10.47-7.57a8.73 8.73 0 0 0-3.64-1.18c-4.92-.69-9.24 1.29-13.19 3.76-5.83 3.66-11.44 7.77-17.2 11.66-1.52 1-1.27 2-.18 2.79a43.75 43.75 0 0 0 5.95 3.89c3.49 1.85 7.28 1.09 10.93.68 6.31-.7 12.35-.44 17.77 3.41a1.74 1.74 0 0 0 1.64-.46c2.9-4.94 5.71-9.94 8.54-14.92.17-.39.36-.66.65-1.15zm-113.78 17.53v.22c3.21-.25 6.42-.71 9.63-.7a103.75 103.75 0 0 0 25.83-3.58c4.15-1.05 8.17-2.59 12.28-3.84 1.56-.47 1.23-1.15.32-1.92a43.39 43.39 0 0 0-3.64-2.88c-4.61-3.07-9.35-5.86-15.08-6.13-7.43-.35-14.7-.2-21.71 3.13-6.67 3.17-11.38 8.09-15.09 14.23-.64 1.07-.19 1.5 1 1.48 2.15-.03 4.31-.01 6.46-.01zm7.2-163.34c4.32-.37 9.24-.54 14.08-1.26a96.2 96.2 0 0 0 19.69-5.32c2-.76 4.06-1.42 6.07-2.17.85-.32 1.14-1 .36-1.61a71.27 71.27 0 0 0-7.26-5.15 24.41 24.41 0 0 0-6.07-2.18c-4.5-1.14-9-2.33-13.76-1.2-3.37.8-6.79 1.38-10.16 2.18-8.39 2-14.07 7.3-17.77 14.92-.58 1.18-.39 1.8 1 1.79zm116.42 59.66h-.13a23.75 23.75 0 0 0 0-3.58c-.64-4.09-.6-8.42-3.55-11.8a39.61 39.61 0 0 0-4.05-4c-8.26-7.07-16.24-4.19-22.29 3.12a1.46 1.46 0 0 0-.28 1c.4 2.58.37 5.35 1.39 7.67 1.65 3.75 4.74 6.51 7.9 9.11 3.66 3 8 4.12 12.52 4.87 2.23.37 4.49.57 6.74.75a1.52 1.52 0 0 0 1.78-1.73zm142.89-55.77v-.46c.84 0 1.69 0 2.51-.12 4.59-.72 9.2-1.32 13.74-2.27 4-.82 7.88-2 11.75-3.16 2-.63 2-.86.55-2.14a47.26 47.26 0 0 0-8.63-6.32c-9.28-5-18.76-5.16-28.39-1.45-2.42.94-4.52 2.68-6.86 3.88-4.15 2.15-6.39 6-8.78 9.69-.52.83-.37 1.66.88 1.77.59.05 1.19 0 1.79 0zM514.7 422c-3.26-.25-3.19-.25-3.53 2.85a71.28 71.28 0 0 1-1.29 8.49c-.61 2.54-2 4.92-2.5 7.47a78 78 0 0 1-10.1 24.75c-.87 1.42-1.9 2.75-2.69 4.22-.25.46-.15 1.63.15 1.79 2.62 1.38 5.37 2.53 8 3.91 1.73.91 2.62.26 3.34-1.26 2.59-5.39 5.35-10.69 7.74-16.17 4.51-10.36 7-21.33 9.36-32.33.48-2.23.27-2.51-2.23-3-2.12-.39-4.29-.48-6.25-.72zM373.3 212.66c-.71.13-1.41.28-2.12.38-1.4.2-1.16.74-.47 1.62 2.24 2.85 4.91 5.43 5.67 9.21.07.34.67.63 1.08.82q1.62.75 3.3 1.38a28.18 28.18 0 0 1 14.15 11.63 80.83 80.83 0 0 1 5 9.89c.5 1.09 1 1.79 2.25 1.91 2.36.2 4.71.55 7.06.83 1.76.21 2.11-.13 1.62-2-.61-2.31-1.34-4.6-2.14-6.85-2.44-6.93-5.67-13.36-10.92-18.69C391 216 383 212.32 373.3 212.66zm154.63 204.16v-.17a45.24 45.24 0 0 0 4.66 0c12.6-1.27 25.2-2.55 37.27-6.7.5-.17 1-.4 1.47-.6a6.53 6.53 0 0 0-1.06-1.31c-6.82-5-13.78-8.8-22.9-8.69-8.62.1-14.76 3.86-20.36 9.44a43.52 43.52 0 0 0-4.74 6.25c-.72 1-.44 1.82 1 1.81zm-251.63 3.42l-1.76-.14c-3.56-.16-4 .29-3.19 3.91 2 9.6 4.43 19.1 8.89 27.94 1.51 3 2.85 6.06 4.23 9.12.4.88.91 1.37 1.93 1 2.91-1.05 5.82-2.07 8.72-3.14a1.29 1.29 0 0 0 .85-2c-2.59-6.29-5.26-12.54-7.7-18.89-2-5.22-4.56-10.34-4.19-16.19.11-1.73-.76-2.37-2.41-2.2-2.01.26-4.03.45-5.37.59zm249 160.55c2.87-.23 5.37-.55 7.88-.6 11.46-.25 22.46-2.85 33.31-6.3 1.47-.46 1-1.19.35-1.68-1.32-1-2.81-1.79-4.2-2.7a31.33 31.33 0 0 0-21.83-5.15c-8.55 1.14-15.81 4.64-20.55 12.14a19.07 19.07 0 0 0-1.35 3.57c1.05.13 2.09.28 3.15.4s2.37.24 3.2.32zM321.53 310.61c.33 8.52 3 15.14 8 20.83a5.36 5.36 0 0 0 1.45.82 5.28 5.28 0 0 0 .5-1.55c0-6.46.14-12.93-.18-19.38a63.67 63.67 0 0 1 2.42-21.28 8 8 0 0 0 .17-1.39 7.11 7.11 0 0 0-1.24.6c-7.54 5.51-10.57 13.26-11.12 21.35zm-115.6 95.77c-.43.57-1.14 1.08-1.13 1.57a36.16 36.16 0 0 0 .53 5.69c.36 2 1.29 3.9 1.43 5.89.49 7.26 4.34 12.84 8.82 18.06 3.47 4.06 3.58 3.91 7-.4.91-1.16.92-1.9-.11-3.05-1.42-1.59-3-3.29-3.67-5.24a109 109 0 0 1-4.4-15.88c-.49-2.72-1.11-4.22-3.89-4.75a24.19 24.19 0 0 1-4.58-1.89zm53.48-142.88c.08.49.17 1.08.29 1.67.67 3.3.83 3.46 4.2 2.47 2.73-.79 5.34-2 8.1-2.69 5.14-1.21 5.16-1.09 6-5.91 0-.11.05-.23.08-.35.31-1.05-.07-1.62-1.18-1.63-4.65-.05-9.3-.05-13.94-.15a2.45 2.45 0 0 0-2.68 2.28c-.28 1.4-.57 2.81-.87 4.31zm97.46 398.89a41.3 41.3 0 0 0 20.68-6 45.08 45.08 0 0 0 21.11-28.25c.57-2.17 1.16-2.61 3.22-2.48 2.52.16 3.69.89 3.62 3-.09 3.14 1.4 5.49 3 7.9 3.87 5.8 7.95 11.37 14 15.15 5 3.14 10.24 5.81 16.22 6.44a22.45 22.45 0 0 0 4.93-.48 16.12 16.12 0 0 1 2.78-.46c2.73.14 3.9 1.87 3 4.4a7 7 0 0 1-1.43 2.46 37.57 37.57 0 0 0-9.27 16.39c-1.15 4.35-1.3 9-1.9 13.47-1.15 8.46 2.19 16 5.1 23.56 1.61 4.19 4.3 8 6.58 11.89 1.05 1.82 1.9 3.6 1.14 5.76-.55 1.56-1.58 2-3 1.16a2.68 2.68 0 0 1-.82-.67c-2.43-3.25-6-4.66-9.59-6a43.61 43.61 0 0 1-4.11-2.16c-7-3.47-14.48-4.59-22.14-5.06a59 59 0 0 0-17.84 1.46c-7.08 1.74-14.14 3.67-20.55 7.26a42.12 42.12 0 0 0-6.44 5.09c-1.72 1.48-3.35 3.07-5 4.65a1.78 1.78 0 0 1-2.57.12c-.58-.42-1.11-.9-1.67-1.34-.72-.55-2-1.06-2-1.64a4.69 4.69 0 0 1 1.07-3.24c3.74-3.72 5.23-8.46 6.61-13.32.88-3.11 1.93-6.16 2.89-9.25 2.2-7.11 2.82-14.27.59-21.52-.39-1.24-.42-2.59-.7-3.87-1.52-7.09-5.66-12.56-10.78-17.42a12 12 0 0 1-2.35-2.65c-1.16-2.07.05-4.14 2.44-4.34 1.02-.09 2.1-.01 3.18-.01zm14.08 51h-.51l.4 1.14a3.72 3.72 0 0 0 .89-.52 14.23 14.23 0 0 0 .83-1.16c4-5.24 7.82-10.56 11.91-15.69 5.54-6.94 12.29-12.75 19.17-18.2 6.14-4.86 13.22-8.53 20-12.62a44.22 44.22 0 0 1 4.65-1.87 6.62 6.62 0 0 0 1.5-1.27 9.83 9.83 0 0 0-1.35-1.08 57.51 57.51 0 0 0-6.1-3c-5-1.88-8.63-5.49-11.81-9.56-2.5-3.19-4.74-6.58-7.13-9.86a12.57 12.57 0 0 0-1.45-1.47 15.27 15.27 0 0 0-1.36 1.89 46.15 46.15 0 0 1-2.67 5.47A52.87 52.87 0 0 1 382.47 661a54.66 54.66 0 0 1-5.27 3 51.81 51.81 0 0 1-13.07 4.64c-1.75.32-1.83 1-.9 2.4a69.62 69.62 0 0 1 4.57 7.7c3.27 6.8 4 14.24 4.4 21.61.22 4.27-.79 8.65-1.2 13.08zm41.8-563.79c-12.3-.2-20 2-27.82 4.65s-14.09 7.52-21 11.47a30.07 30.07 0 0 0-3.64 2.88c-.38.29-.79.82-1.15.8-1.38-.08-3.1.07-4-.69-.66-.56-.51-2.45-.25-3.64a6.82 6.82 0 0 1 1.79-2.65c5.63-6.17 6.71-13.9 7.13-21.71a90.57 90.57 0 0 0-.6-13.26 37.24 37.24 0 0 0-5.68-16.51c-1.18-1.86-3.1-3.26-4.73-4.82s-3.79-2.57-4.47-5c-.59-2.12.28-3.56 2.44-3.81a55 55 0 0 0 21.17-7.19 27.4 27.4 0 0 1 4.09-2.2c3.94-1.43 6.75-4.5 9.84-7 2.59-2.08 4.23-5.37 6.18-8.19 2.48-3.58 3.8-7.68 5.13-11.78.3-.93 1.06-2.24 1.81-2.4 1.39-.29 2.38.85 2.93 2.17a18.12 18.12 0 0 1 .8 2c3.91 13.3 12.34 22.09 25.76 26a25.94 25.94 0 0 0 16.2-.51c.22-.07.44-.18.67-.24 2.05-.59 4.24-.08 4.81 1.31.69 1.72 0 3.28-1.05 4.67-1.3 1.69-2.65 3.34-3.92 5.06-4.31 5.85-6.09 12.64-7.15 19.68-.83 5.46-1.54 10.92-.64 16.44 1.31 8 2.89 16 6.29 23.41.25.54.38 1.14.58 1.7.53 1.53 1.82 3.22-.06 4.53-1.71 1.2-3.24-.17-4.57-1.07-2.67-1.81-5.32-3.67-7.79-5.73-6.73-5.57-14.43-8.3-19.1-8.37zm-43.24-12.9v6.21c0 .36.41.72.63 1.08a4 4 0 0 0 .79-.66c.5-.67.92-1.4 1.41-2.08 3.3-4.67 6.36-9.54 10-13.93a91.63 91.63 0 0 1 42.56-29.89c1.34-.46 2.65-1 4-1.53-1.25-.45-2.51-.89-3.76-1.35-.22-.08-.43-.2-.65-.29-7.66-3.33-14.71-7.49-19.61-14.52-1.3-1.86-2.43-3.82-3.74-5.67-.45-.64-1.19-1.45-1.82-1.47s-1.31.93-1.58 1.6c-3.39 8.56-9.86 14.32-17.54 18.74-6.27 3.61-12.65 7.14-19.78 9-2.05.52-2.08.89-1 2.66a85.42 85.42 0 0 1 5 8.25 51.86 51.86 0 0 1 5.09 23.85z"/><path class="a" d="M376.66 447.24c6.77.64 13.57 1.06 20.3 2 6 .84 12 2.25 18 3.45 3.39.68 6.8 1.31 10.15 2.16 10.54 2.7 21.12 5.26 31.55 8.33 6.63 1.95 13.08 4.57 19.49 7.17 5.54 2.25 10.92 4.87 16.36 7.35q6.69 3 13.35 6.15a18.53 18.53 0 0 1 2.54 1.32c.92.61 1.73 1.38 2.59 2.08a13.8 13.8 0 0 1-3.2.1c-7.82-1.51-15.16.68-22.55 2.7-8.75 2.39-17.54 4.64-26.35 6.81-3.95 1-7.91.15-11.69-1a59 59 0 0 1-9.62-3.93 173.7 173.7 0 0 1-16.2-9.93c-6.23-4.09-12.83-7.94-20.21-9.84a37.34 37.34 0 0 0-16.66-.73c-3.05.59-6.21.8-9.17 1.65a51.09 51.09 0 0 0-10 3.85c-6.77 3.64-13.38 7.59-21 9.3a52.57 52.57 0 0 1-23.51-.08c-3.25-.74-6.56-1.2-9.79-2-2.34-.58-4.56-1.68-6.9-2.29-6-1.59-12-3.22-18.06-4.47-4-.82-8.06-1-12.09-1.5a5.65 5.65 0 0 1-1.21-.43c.28-.34.48-.83.84-1 2.27-1.07 4.58-2.06 6.88-3.07 1.95-.87 3.87-1.82 5.86-2.59 10.14-3.94 20-8.74 30.67-11.14a36.52 36.52 0 0 0 6.12-2c6.35-2.7 13.16-3.57 19.84-4.56 10.4-1.54 20.92-2.3 31.39-3.37.71-.07 1.44 0 2.15 0zm121.09-110.55c-2.09.52-4.23.87-6.24 1.58-11.87 4.19-23.3 9.38-33.58 16.68-6.2 4.41-12.55 8.65-17.91 14.28-3 3.18-6.22 6.22-9 9.68a10.34 10.34 0 0 0-.84 1.16c-.83 1.44-2 2.89-.77 4.61s2.74 1.27 4.52 1c3.69-.61 7.15.67 10.17 2.67 4 2.64 7.74 5.61 11.56 8.49 1.8 1.36 3.54 2.8 5.23 4.3a1.56 1.56 0 0 1 .15 1.48c-2 2.85-3.66 5.82-6.68 7.89a40.51 40.51 0 0 1-21.36 7.21c-13 .64-24 6.11-33.37 14.87a38.77 38.77 0 0 0-4 5.07 42.31 42.31 0 0 1-2.79 3.68 3.15 3.15 0 0 1-2.16.79c-4.18-.15-8.35-.5-12.52-.64-1.75-.06-1.81-.68-1.52-2.23a134.17 134.17 0 0 1 6.63-23.08c3.19-8.35 8.48-15.48 14.46-22.11 6.79-7.51 14.85-13.55 22.78-19.7 3.37-2.61 7.31-4.51 11.05-6.62a206 206 0 0 0 20.67-13.57c6.88-5.05 12.82-11.09 18.83-17.07a31.23 31.23 0 0 0 3.11-3.93c5.3-7.34 9.69-15.1 10.64-24.32.9-8.65-1.54-16.13-7.16-22.95-4-4.8-9.19-7.13-14.47-9.52a69.14 69.14 0 0 0-11.18-3.84 23 23 0 0 0-7.09-.41c-1.93.12-2.08-1.2-2.6-2.34-.66-1.49.68-1.47 1.44-1.88 10.15-5.41 21-6.25 32.12-4.68 6.34.9 12.19 3.39 15.12 9.67a52.77 52.77 0 0 1 3.18 10.25c1.27 5.33 3.09 10.29 7.17 14.21a34.36 34.36 0 0 0 9 5.73 102.19 102.19 0 0 1 9.75 5.33 9.93 9.93 0 0 1 3.79 12 32.13 32.13 0 0 1-9 13.21l-6.36.95-3.65.69-3.67.68z"/><path d="M522.07 518.83c9.45.46 17.77.79 25.93 3.18a159.46 159.46 0 0 1 17.34 6.73 100.34 100.34 0 0 1 10.41 5.48c6.12 3.49 12.16 7.1 18.26 10.62a13.69 13.69 0 0 0 2.29.87 7.2 7.2 0 0 1 2.28.86c3.89 3.4 8.78 4.84 13.32 7 .62.3 1.17.73 1.76 1.09-.52.58-.93 1.38-1.57 1.69-4.94 2.43-9.92 4.77-14.9 7.11-1.6.76-2.73.39-4-1.06a84.26 84.26 0 0 0-19.07-16.19 33.29 33.29 0 0 0-10.92-4.48c-2.34-.46-4.63-1.21-6.94-1.81a20.55 20.55 0 0 0-2.44-.57 54 54 0 0 0-19.89.94c-7.63 1.88-15.21 4.36-21.48 9.49-3.6 3-7.49 5.7-10.54 9.16a42 42 0 0 0-7.4 12.55q-1.1 2.82-2.21 5.62c-1.86-.39-3.74-.67-5.56-1.19a52.18 52.18 0 0 1-6.44-2.24c-6-2.63-12.36-4.58-17.68-8.56-3.53-2.65-6.92-5.5-10.3-8.35a38.15 38.15 0 0 0-14.64-7.4c-.23-.07-.51 0-.7-.14-.78-.45-1.53-.94-2.29-1.42a9.1 9.1 0 0 1 1.56-1.85c2.25-1.58 4.57-3.07 6.88-4.56 1.71-1.11 3.52-2.06 5.15-3.27 5.85-4.37 12.49-7 19.43-9 7.1-2.08 14.35-3.53 21.38-6 4.56-1.58 9.57-2 14.42-2.59 6.49-.79 13.07-1.22 18.56-1.71zm-2.62-330.71c9.79.71 19.18.73 28.19 3.49a109.31 109.31 0 0 1 27 12.38c3.73 2.39 7.6 4.54 11.38 6.83 1.84 1.11 3.62 2.32 5.44 3.45 4.06 2.5 7.94 5.42 12.27 7.3 2.8 1.21 5.61 2.49 8.45 3.68 1.73.72 1.74 1.21.24 2.47-4.16 3.51-9 5.88-13.92 8.08-1.43.64-2.22-.26-3.1-1.12-3.78-3.65-7.47-7.4-11.4-10.88a39.12 39.12 0 0 0-12.18-7.46c-3.33-1.25-6.6-2.7-10-3.73a38.92 38.92 0 0 0-8.33-1.66c-6.79-.52-13.64-.88-20.34.71-4.28 1-8.82 1.23-12.7 3.67-4.55 2.85-9.18 5.56-13.64 8.55-5.58 3.74-9 9.5-13 14.67-1.18 1.52-1.53 3.71-2.2 5.61-.92 2.59-1 2.77-3.52 2a29.84 29.84 0 0 1-6.61-2.54c-8.57-5-17.46-9.45-24.95-16.11a31 31 0 0 0-5.48-4c-3.74-2.08-6.49-5.72-10.93-6.73-1.61-.37-.94-1.24.07-1.88 4.25-2.67 8.45-5.41 12.71-8.06a63.11 63.11 0 0 1 8.05-4.68c5.78-2.49 11.35-5.48 17.6-6.91 4.74-1.08 9.23-3.19 14-4.27a116 116 0 0 1 13.82-1.92c4.47-.44 9.02-.65 13.08-.94zm2.18 162.77a112.2 112.2 0 0 1 31.48 4.9c8.77 2.78 17.23 6.54 24.69 12.19 1.78 1.35 4 2.07 5.92 3.29 3.81 2.47 7.45 5.21 11.29 7.62 4.86 3.05 9.84 5.89 14.78 8.8.41.25.89.36 1.31.6 1.76 1 1.86 1.77.17 2.73-3.23 1.84-6.46 3.69-9.81 5.28-4.21 2-4.25 1.87-7.25-1.7a98.43 98.43 0 0 0-6.79-7.88 35.3 35.3 0 0 0-7.15-5.35 65.27 65.27 0 0 0-31.53-8.56c-5.68-.09-11.32.21-16.68 1.91-6.08 1.92-12.1 3.9-17.43 7.91a70.2 70.2 0 0 0-19.24 21.94 20.06 20.06 0 0 0-1.58 4c-.43 1.39-1 1.85-2.6 1.45a45.53 45.53 0 0 1-13.27-5.35c-6.68-4.19-13.46-8.21-19.35-13.6a101.86 101.86 0 0 0-11.48-8.56c-1.64-1.12-3.69-1.65-5.53-2.5a9.67 9.67 0 0 1-1.37-1c.33-.45.57-1.05 1-1.33 3.16-2 6.41-3.75 9.53-5.75 10.45-6.69 21.44-12.33 33.37-15.75 8.59-2.47 17.28-4.8 26.42-4.54 3.7.14 7.4-.47 11.1-.75zM274.55 519.44a154.92 154.92 0 0 1 30.24 2.48 134 134 0 0 1 29.21 8.19c10.7 4.56 21.25 9.44 30.28 17a11.57 11.57 0 0 1 1.3 1.48 17.1 17.1 0 0 1-1.89.78c-5.88 1.6-11.73 3.34-16.8 6.87-1.6 1.12-2.59.88-3.59-.48-3.9-5.26-9.56-8.26-15-11.39a60.93 60.93 0 0 0-25-8.16c-5-.44-9.68.26-14.54.65-7 .57-13.29 2.9-19.52 5.64-2.54 1.12-4.69 3.11-7.16 4.44-3.19 1.72-5.75 4.16-8.55 6.39-4.27 3.34-7.2 7.67-10.53 11.67-2.86 3.42-5.44 7-6.7 11.36-.6 2-2 2.13-3.67 1.61-6.16-2-12.41-3.68-18.42-6s-12-5.3-17.92-8.12c-3.24-1.55-6.37-3.34-9.49-5.11-2.11-1.19-2.09-2.08.08-3.17 1.71-.85 3.52-1.51 5.25-2.32 6-2.77 11.23-6.68 16.35-10.86 4.51-3.67 9.86-6.3 14.4-9.93 6.8-5.46 15.07-7.16 23-9.63 9.25-2.91 18.95-3.41 28.67-3.39zm-3-165.7c5.84.1 11.69 0 17.52.35 7.64.4 15.26 1.09 22.66 3.32 3.65 1.09 7.42 1.81 11 3a123 123 0 0 1 21.8 8.78c3.88 2.11 8 3.72 12 5.7 2.88 1.45 5.66 3.09 8.44 4.73a1.74 1.74 0 0 1 .79 1.4 1.87 1.87 0 0 1-1.26 1.06c-5 1.25-9.13 4.11-13.08 7.26a16 16 0 0 1-2.05 1.43 3.21 3.21 0 0 1-4.43-.68 47.91 47.91 0 0 0-16.65-12.25c-4.48-1.9-9.14-3.37-13.72-5-6.33-2.26-12.93-2-19.5-2.14-7.48-.19-14.35 1.89-21.21 4.59-6.38 2.51-11.41 6.91-16.66 11-1.75 1.36-3 3.41-4.45 5.11-4.71 5.34-8.76 11.06-11.22 17.84-1 2.74-1.22 2.76-4 1.84-8.28-2.8-16.51-5.77-24.82-8.47-7.3-2.38-14.52-4.9-21.28-8.59-.52-.29-1.09-.49-1.62-.78-1.15-.63-1.33-1.41-.12-2.11a22.82 22.82 0 0 1 3.56-1.71c6-2.22 11.21-5.72 16.28-9.59 4.74-3.62 9.81-6.83 14.85-10a129.28 129.28 0 0 1 12.65-7.4 78.06 78.06 0 0 1 13.7-5.43 155.53 155.53 0 0 1 16.15-2.93 30.18 30.18 0 0 1 4.66 0zm93.29-134.69l-1.33.37a6.34 6.34 0 0 1-1.36.44c-5.77.49-10 4.3-14.76 6.9a7.63 7.63 0 0 0-1.51 1c-1.13 1.07-2.09.93-3-.25-4.88-6.22-11.31-10.53-18-14.59A49.08 49.08 0 0 0 303.7 206c-3.61-.34-7.32.22-11 .45a56.84 56.84 0 0 0-9.26.86c-3.91.92-7.89 1.79-11.42 3.95-1.92 1.18-4 2-6.05 3.08-10.58 5.58-18.18 14.18-24.27 24.25a68 68 0 0 0-2.85 6.19c-1.49 3.15-1.3 2.75-4 2.11a49.6 49.6 0 0 1-5.52-1.55q-13-4.71-25.93-9.57c-3.56-1.34-7.08-2.81-10.6-4.26a31.51 31.51 0 0 1-3.56-1.72c-1.59-.91-1.59-1.66.05-2.45 2.36-1.14 4.8-2.1 7.15-3.26 7-3.45 13.22-8.08 19.58-12.58 4.83-3.41 9.56-7 14.79-10a124.81 124.81 0 0 1 23.32-10 54.18 54.18 0 0 1 19.87-2.56c3.59.19 7.2.23 10.79.07 7.74-.36 15.25 1 22.76 2.54a92.1 92.1 0 0 1 17.42 5.52A188.69 188.69 0 0 1 352.41 211c3.54 2.23 7 4.54 10.54 6.82z" fill="#e83131"/><path class="a" d="M402.75 270.68c-1.55-.12-3.11-.14-4.64-.38-8.58-1.36-16.67.72-24.35 4.13-3.8 1.68-6.76 4.93-8.93 8.62a54.08 54.08 0 0 0-7.46 23.78c-.05.72 0 1.44-.12 2.15-.2 1.54-.87 1.85-2.09.77a22 22 0 0 1-3.68-3.91c-3.79-5.57-5.7-11.75-4.11-18.41 1.77-7.42 4.86-14.39 11.18-19.1a41.47 41.47 0 0 1 17.77-7.94c4.2-.73 8.28-2.33 12.48-2.71 8.06-.73 16.09-1.27 24.24.26a36.56 36.56 0 0 1 16.65 7.79c2.38 1.93 5.56 2.94 6.89 6.1 1 2.41 2.48 4.67 3.15 7.15a37.29 37.29 0 0 1 1 8.18c.35 8.12-3.6 14.39-9.56 19.2s-12.44 8.49-20 10c-2.05.41-2.16.39-2.19-1.7-.1-9.19-.22-18.39-.22-27.59 0-3.71.26-7.41.47-11.11.24-4.31-.94-5.53-5.36-5.39h-1.08zM329.2 267l13.5 1.5c1.18.14 1 .89.41 1.43-3.73 3.17-6.29 7.49-10.58 10.16a43.43 43.43 0 0 0-14 14.64c-2.38 3.92-3.7 8.51-5.33 12.86a26.75 26.75 0 0 0-1.72 6.54c-1.11 10.65.38 20.77 6.65 29.81a10.6 10.6 0 0 1 .66 1.25 5.41 5.41 0 0 1-1.69.07c-7.67-2.29-15.28-4.78-23-6.87a94.9 94.9 0 0 0-11.31-1.86c-2.72-.39-5.45-.72-8.18-1a2 2 0 0 1-2.05-1.59c-2-6.3-1.87-12.42 2.28-17.77a21.68 21.68 0 0 1 6.62-5.34A38.49 38.49 0 0 0 294 299.25a14.41 14.41 0 0 0 1.52-3.22c1.83-4.69 3.27-9.56 5.5-14 2.89-5.8 7.08-10.46 13.74-12.32 4.72-1.37 9.37-2.96 14.44-2.71zm103.11 317.1c-5.87-.61-11.38-1-16.84-1.77a65.39 65.39 0 0 0-23.87.94 111.13 111.13 0 0 0-14.1 4 50.08 50.08 0 0 0-9.67 5.37c-7.49 4.95-14.94 10-22.26 15.16-10.49 7.45-22.05 12.11-34.86 13a41.56 41.56 0 0 1-25-6.29 16.2 16.2 0 0 1-4.27-3.81c-4.57-5.88-8.65-12.05-10.69-19.34-.61-2.18-.61-2.18 1.73-2.46 1.9-.23 3.82-.33 5.7-.69 1.47-.29 2.16.28 2.78 1.53a35.45 35.45 0 0 0 7.22 9.77c1.26 1.21 2 3 3.32 4.1a28.13 28.13 0 0 0 23.92 5.78c7.94-1.59 15.23-4.87 22.32-8.63a16.74 16.74 0 0 0 4-2.94c2.11-2.13 4.76-3.32 7.29-4.77 4.24-2.45 8.47-5 12.53-7.71a82.05 82.05 0 0 1 26.51-12.27c8.62-2.13 17-2.17 25.62-1.29 6.17.63 12.33 1.35 18.51 1.86 4.29.35 8.54.36 12.73-1.21a14 14 0 0 0 7.19-5.6c.76-1.18 1.27-1.1 2.23-.57 3.85 2.15 4.25 3.8 1.78 7.53a16.61 16.61 0 0 1-6.65 5.89 44.36 44.36 0 0 1-17.17 4.42zm-42.62-49.42c-7.13-.73-14.41-.83-21.36-2.36a82.17 82.17 0 0 1-24.1-9c-3-1.77-5.75-4.07-9.45-4.87-1.93-.41-3.44-2.7-5.15-4.14-4.2-3.55-8.45-7-12.59-10.66s-8.17-7.36-12.25-11c-.09-.08-.25-.1-.3-.19-.69-1.37-1.37-2.75-2.05-4.12a37.81 37.81 0 0 1 4.11.66c3.69 1 7.36 2.07 11 3.17a6.6 6.6 0 0 1 2.18 1.06c2.91 2.28 5.72 4.7 8.66 6.94 1.8 1.37 3.8 2.47 5.68 3.74a120.18 120.18 0 0 0 23.25 12.67 106.08 106.08 0 0 0 52.86 6.15c6.7-1 13.53-1.85 19.87-4.55 7.89-3.37 15.73-6.86 23.59-10.29a1.43 1.43 0 0 0 .33-.15c4.89-4.82 11.56-5.26 17.63-7.18q5.82-1.85 11.65-3.66c.92-.29 1.84-.54 2.78-.74a3.41 3.41 0 0 1 1 .09c-.11.41-.09 1-.35 1.22q-4.42 4.44-8.93 8.79a29.33 29.33 0 0 1-7.1 4.76 96.9 96.9 0 0 0-11.29 6.95 44.67 44.67 0 0 1-10.14 5.27c-9.84 3.73-19.77 7.14-30.32 8.54-9.66 1.22-19.32 2.87-29.21 2.9zm47-177c-4.58 2.81-9.19 5.56-13.72 8.45-3.93 2.51-7.82 5.09-11.61 7.81a8.25 8.25 0 0 1-4.81 1.72c-6.44.35-12.68-.72-18.87-2.07a94.67 94.67 0 0 1-21.3-7.33c-5.06-2.46-10.14-4.89-15-7.75a121.15 121.15 0 0 1-10.8-7.76 3.18 3.18 0 0 1-1.19-2c-.55-7.74-1-15.48-1.46-23.23a6.47 6.47 0 0 1 .11-1.06c.34.27.81.46 1 .81 3.33 6 8.12 10.48 13.48 14.61 7 5.42 14.94 9.05 23.14 12.06a99.82 99.82 0 0 0 14.84 4c7.37 1.49 14.78 3.1 22.25 3.63 5.91.42 11.93-.67 17.88-1.21a58.25 58.25 0 0 0 5.95-1.13z"/><path class="c" d="M461.66 523.27c1.26-1.09 1.82-1.68 2.48-2.12 5.21-3.38 10.44-6.67 16.44-8.61 3.17-1 6.11-2.74 9.26-3.84a64 64 0 0 1 9.3-2.46c6.7-1.22 13.42-2.37 20.18-3.19a50.94 50.94 0 0 1 9.64.11c5.22.36 10.45.75 15.62 1.47a42.29 42.29 0 0 1 9 2.36c10.89 4.08 21.66 8.43 31.46 14.84 3.1 2 6.43 3.7 9.65 5.54 5.39 3.1 10.71 6.34 16.19 9.27s11.31 5.69 17 8.49c1.74.85 1.87 1.35.34 2.36a24.28 24.28 0 0 1-4 2.34 4.48 4.48 0 0 1-2.76.1 51.55 51.55 0 0 1-6.74-2.32c-6.87-3.05-14-5.46-20.42-9.6-4.52-2.93-9.39-5.31-14.16-7.82-5.18-2.73-10.36-5.46-15.65-8A93.22 93.22 0 0 0 545 515a84.15 84.15 0 0 0-20.27-2.17 189.6 189.6 0 0 0-31 2.75c-6.22 1.17-12.45 2.33-18.61 3.75-4.27 1.02-8.42 2.46-13.46 3.94zm-162.39 18.39c10.27-.23 19.29 3.69 28 8.39a70.65 70.65 0 0 1 10.83 7.65c2.47 2 2.27 2.34-.38 4.15s-5.15 3.5-7.75 5.22c-2.19 1.45-2.85 1.38-5.16-.24A76.58 76.58 0 0 0 306.1 557a35.7 35.7 0 0 0-17-1.33c-7.06 1-13.14 4.16-19 7.72a25.14 25.14 0 0 0-6.31 6.29c-2.46 3.21-5.05 6.45-6 10.52-.51 2.09-1.82 2.69-3.72 2.34-3.88-.71-7.76-1.44-11.62-2.25-1.26-.27-1.62-1.79-.66-3.25a79.24 79.24 0 0 1 6.15-8.74c4.24-4.87 8.39-9.83 13.65-13.74 8.22-6.1 17.16-10.4 27.36-11.82 3.41-.49 6.88-.74 10.32-1.08zM543.4 378.83c10 .39 18.51 1.29 26.86 4.52 8.67 3.36 15.13 8.94 20.46 16.23.65.89 1 1.54-.32 2.21-3.12 1.53-6.19 3.15-9.23 4.82-1.48.81-2.47.63-3.78-.56A56 56 0 0 0 562 395.72c-5-2.17-10.3-3.77-16-2.75-2 .36-4.06.23-6.07.49-6 .78-10.24 4.8-14.94 8.07s-6.63 8.09-9.23 12.6c-.89 1.54-1.54 2.33-3.24 1.53-3.65-1.73-8-.65-11.55-2.81-1-.6-1.54-.88-1-2.07a23.86 23.86 0 0 1 1.35-3.7c3.17-5.07 6-10.47 10.72-14.3 7-5.69 14.31-10.8 23.56-12.22 2.98-.46 5.98-1.32 7.8-1.73zm47.99-139.27a18.43 18.43 0 0 1-1.84 1c-3.41 1.44-6.87 2.79-10.26 4.28-1.86.81-3.1.31-4.37-1.17a37.75 37.75 0 0 0-13.24-10.26c-5.74-2.57-11.66-4.18-18.06-3.86a41.78 41.78 0 0 0-24.14 8.91c-3.1 2.41-4.9 5.82-6.81 9.14-.94 1.62-1.68 3.85-3.12 4.56-1.27.62-3.4-.42-5.12-.85-2.19-.57-4.35-1.24-6.52-1.91-1.23-.38-1.63-1-1.08-2.41 2-5.21 4.56-10 9.16-13.46 1.79-1.35 3.19-3.2 4.91-4.65 4.62-3.86 10.21-5.71 15.88-7.28s11.28-3.19 17-4.17a38.43 38.43 0 0 1 18.78 1.71 62.11 62.11 0 0 1 21.3 12.31c2.15 1.87 4.08 4 6.08 6a19.13 19.13 0 0 1 1.45 2.11zm-292.62-27.67a47.24 47.24 0 0 1 24.6 6.89A142.19 142.19 0 0 1 339 230.24c1 .84 1.12 1.55 0 2.22-2.44 1.5-4.94 2.9-7.41 4.35-1.87 1.09-3.32.32-4.9-.81a80.69 80.69 0 0 0-9.78-6.42 67 67 0 0 0-10-3.64 41 41 0 0 0-4.2-.77c-7.7-1.65-14.86.89-22.13 2.77s-12.37 6.76-16.85 12.29c-1.75 2.15-2.7 5.06-3.61 7.75-.72 2.11-1.8 2.85-3.94 2.59-3.2-.39-6.43-.55-9.63-.94-2.46-.3-2.62-.77-1.63-3a57.53 57.53 0 0 1 18.79-23.16 53.67 53.67 0 0 1 22.63-10.28c4.08-.77 8.28-.9 12.43-1.3zm222.43-37.45c11 .82 20.82 1.11 30.37 3.72a100.46 100.46 0 0 1 27 11.35c9.65 6 19.42 11.82 29.23 17.55a96.48 96.48 0 0 0 20.24 9.26 5.19 5.19 0 0 1 1.07.6 4.48 4.48 0 0 1-.76.69c-2 1.13-3.92 2.36-6 3.3a5.59 5.59 0 0 1-3.07.21 15.72 15.72 0 0 1-3.76-1.21c-5.56-2.48-11.19-4.83-16.59-7.62-3.91-2-7.49-4.67-11.22-7-3.13-2-6.27-4-9.38-6a106.43 106.43 0 0 0-23.83-11.68c-6.16-2.09-12.44-4.16-19.16-4.27s-13.3-.92-20-1.14a59.44 59.44 0 0 0-9.29.73c-4.74.57-9.48 1.22-14.19 2a67.93 67.93 0 0 0-8.34 1.88c-4.23 1.24-8.45 2.54-12.55 4.13-3.54 1.36-6.91 3.14-10.34 4.77-2.26 1.09-4.48 2.26-6.73 3.37a4 4 0 0 1-1 .19c.16-.37.21-.91.49-1.09 2.78-1.85 5.55-3.73 8.43-5.41a140 140 0 0 1 27-12.4c6.44-2.11 13-4 19.94-4.45 4.65-.3 9.14-1.08 12.44-1.48z"/><path class="a" d="M362.7 332.31c.16-6.92.31-13.83.49-20.75a16.16 16.16 0 0 1 .32-2.86 5.88 5.88 0 0 1 .72-1.41 10.26 10.26 0 0 1 1 1 36.06 36.06 0 0 0 17.45 13.27 27.05 27.05 0 0 0 10.1 1.79c3.79-.16 7.63.57 11.4.29 4.86-.36 9.76-.92 14.32-2.92q4.23-1.86 8.49-3.65a4.8 4.8 0 0 1 1.33-.15 7.38 7.38 0 0 1-.58 1.2 44.9 44.9 0 0 1-7.94 9.21 98.46 98.46 0 0 0-7.7 7.46c-5.17 5.29-11.69 8.52-18.47 10.72a23.09 23.09 0 0 1-16.49-.5c-3.29-1.43-6.74-2.46-10.07-3.79-4.08-1.63-4.14-1.8-4.06-6 0-1 .09-1.92.13-2.87z"/><path class="c" d="M328.48 521a8 8 0 0 1-1.88.09c-3.57-1-7.11-2.14-10.69-3.1-2.05-.55-4.18-.8-6.26-1.26-13.29-2.92-26.79-3.68-40.33-3.31-8.83.25-17.69.84-26.19 3.8-5.29 1.84-10.93 2.85-15.94 5.23s-9.79 6-14.46 9.28c-3.9 2.76-7.34 6.16-11.31 8.8-4.26 2.82-8.87 5.11-13.37 7.57-1.89 1-3.92 1.81-5.8 2.86-2.88 1.59-5.52 2.1-8.17-.53-1.17-1.16-2.81-1.82-4.08-2.9-1.46-1.25-1.34-1.84.38-2.42 1.47-.5 3-.71 4.51-1.21a59.89 59.89 0 0 0 14.81-7.2c4.51-3.1 9.28-5.8 13.91-8.72 3-1.92 5.91-4.1 9-5.82 6-3.28 12.07-6.36 18.17-9.41a34.68 34.68 0 0 1 5.37-1.93c8.11-2.54 16.27-4.83 24.82-5.2q6.4-.28 12.82-.17a40.6 40.6 0 0 1 5.64.83 9.89 9.89 0 0 0 2.11.35c6.47-.42 12.59 1.38 18.67 3.09a151.82 151.82 0 0 1 26.09 10.09c.56.27 1.06.58 2.18 1.19z"/><path class="a" d="M246.23 501.44c-3.4 1-6.48 1.82-9.48 2.85a3 3 0 0 1-3.76-.88c-1.79-1.9-4-3.42-5.93-5.13-6.3-5.45-8.6-12.86-9.45-20.69a59 59 0 0 1 .25-15c.63-4.18 2.6-8.15 4-12.2 1.72-4.85 5.23-8.5 8.42-12.37 4.31-5.23 9.75-9.08 15.53-12.49 2.58-1.52 5.13-3.07 7.72-4.57 3.27-1.89 6.76-.89 10.18-.61a1.66 1.66 0 0 1 1.15 1.08 39.72 39.72 0 0 1 .31 5c0 .3-.51.78-.86.88-5.75 1.5-10.78 4.49-15.66 7.71-8.71 5.78-15.62 13.26-18.36 23.51-3 11.07-1.7 22 4.67 31.73a36.63 36.63 0 0 0 11.27 11.18zm315.9-82.51c0 .09.51.6.45 1-.23 1.54-.69 3-1 4.56-1.44 7.74-1 15.07 3.09 22.2 2.11 3.71 3.63 7.8 6.24 11.25 2.15 2.86 4.63 5.48 6.72 8.39 2.85 4 5.17 8.36 8.26 12.13 4.54 5.53 6.36 12 7.51 18.75s0 13.11-1.7 19.51c-.3 1.14-.94 1.71-2.07 1.1-2.29-1.23-4.51-2.57-6.79-3.81-1.56-.85-1.58-1.92-1.12-3.56a32.84 32.84 0 0 0-1.89-23.34c-2.4-5.3-6.42-9.19-9.74-13.69-2.13-2.88-4.78-5.37-6.9-8.25-6.38-8.64-11.83-17.82-13.3-28.67-.61-4.57-.21-9.28-.22-13.92a2.07 2.07 0 0 1 2-2.17c3.33-.41 6.62-.92 10.46-1.48z"/><path class="c" d="M527.36 338.42c5.35.56 11 1.36 16.75 1.71a66.71 66.71 0 0 1 14.13 2.32 88.44 88.44 0 0 1 9.18 3A139.61 139.61 0 0 1 593 359.23c3.06 2.09 6.51 3.62 9.51 5.77a116.75 116.75 0 0 0 19.87 11.42c1.62.74 3.4 1.11 5.09 1.7a5.36 5.36 0 0 1 1.15.79 4.79 4.79 0 0 1-.82 1.09c-2 1.47-4.13 2.85-6.15 4.35a3.16 3.16 0 0 1-3.67.33c-.85-.45-1.75-.8-2.59-1.27-7.57-4.31-15.55-7.87-22.73-12.88-4.4-3.07-8.93-6-13.48-8.84a107.42 107.42 0 0 0-26.98-12.49 103.47 103.47 0 0 0-12.31-2.29 106.13 106.13 0 0 0-11.34-1.54c-4.87-.26-9.77-.06-14.65 0-2.52 0-5 .12-7.55.17-7.49.16-14.64 2.07-21.75 4.17-3.65 1.07-7.22 2.4-10.83 3.59a2.93 2.93 0 0 1-1-.07c.23-.3.4-.72.7-.9 1.55-.88 3.1-1.79 4.72-2.51 3.81-1.71 7.61-3.47 11.51-4.93a71.53 71.53 0 0 1 17.3-4.46c6.61-.74 13.27-1.32 20.36-2.01zm-20.62 241.41c-2.49-.32-5-.65-7.47-.94-1-.12-1.19-.61-.79-1.44 3.88-8 8.25-15.64 15.66-21.13a53.45 53.45 0 0 1 26-10.49c4.21-.49 8.61.08 12.86.68a58.92 58.92 0 0 1 12.19 2.87 45.83 45.83 0 0 1 10.32 5.62 121.57 121.57 0 0 1 11 9.18c2.22 2 2 2.45-.67 3.58s-5.77 2.3-8.6 3.55c-1.53.68-2.45-.06-3.5-1-2.54-2.18-5.08-4.35-7.72-6.4-4.58-3.56-10-4.76-15.59-5.89a32.73 32.73 0 0 0-15.25.66c-9.55 2.53-17.15 7.6-21.49 16.87-1.97 4.26-2.08 4.21-6.95 4.28zM255.23 414c-2-.24-4.31-.47-6.55-.78-1.57-.22-2.05-1-1.31-2.51a46.88 46.88 0 0 1 4.14-7.53 82.27 82.27 0 0 1 18.14-17.68c7.15-5.1 15.11-6.65 23.44-7.77a48.15 48.15 0 0 1 13.53.34 69.3 69.3 0 0 1 18.18 5.2 51.09 51.09 0 0 1 12.81 7.73c1.08 1 2.08 2 3.12 3a1.52 1.52 0 0 1-.26 2.68c-3 1.77-6 3.39-9 5.15a2.2 2.2 0 0 1-3.14-.65c-4.58-5.46-10.61-8.85-17-11.52a23.91 23.91 0 0 0-7.33-1.54c-7.57-.53-15.21-.32-22.35 2.37a34.79 34.79 0 0 0-18 14.69 48.58 48.58 0 0 0-3.56 7c-1.09 2.47-3.01 1.47-4.86 1.82z"/><path class="a" d="M511.32 258.85l1.07.35a20.64 20.64 0 0 0 3.75.89c5.6.28 11.21.43 16.82.64a34.84 34.84 0 0 0 4.15 3.38 25.31 25.31 0 0 1 6.55 5.51c3.19 3.73 6.85 7.1 9.66 11.08a98.91 98.91 0 0 1 7.16 12.82 27.46 27.46 0 0 1 2.92 7.69c1.36 8.47 2.75 17 .36 25.55-.68 2.41-1.14 4.9-1.92 7.27-.86 2.62-1.35 2.76-4.2 2.1-.82-.19-1.65-.29-2.47-.49-3-.72-3.6-1.36-2.9-4.48 2-9.05 1.06-18-1.74-26.57a73.36 73.36 0 0 0-10.07-20.11 71.08 71.08 0 0 0-13.73-14.55 94 94 0 0 0-11.2-7c-2.06-1.2-4.3-2.08-6.47-3.1zm-65.26 77.89c.48-9.9 1.07-19.8 1.4-29.71.12-3.56-.46-7.15-.56-10.73-.08-2.84.19-3.22 2.69-2.51 9.06 2.59 17 6.45 21.58 15.68 2.46 5 1.94 9.2.08 14-2.54 6.54-6.64 11.84-11.56 16.66-3.33 3.27-7.5 5.09-11.72 6.79-2 .81-2.32.54-2.25-1.57.09-2.87.3-5.74.45-8.6z"/><path class="c" d="M266.27 341.37c7.62.66 15.27 1.11 22.86 2.08a83.34 83.34 0 0 1 13.26 3.09c7.87 2.37 15.66 5 23.48 7.56a3.64 3.64 0 0 1 1 .38 12.63 12.63 0 0 1 1.21 1.11 5.23 5.23 0 0 1-1.55.17 8.74 8.74 0 0 1-1.66-.67c-8-3.29-16.48-4.32-24.85-5.92a51.54 51.54 0 0 0-7.13-.7c-9-.45-17.88-1-26.9-.39a78.65 78.65 0 0 0-21.2 4.4c-8.16 2.94-16.33 6.32-23.3 11.85-1.67 1.33-3.68 2.21-5.45 3.42-6.31 4.34-12.37 9.08-18.94 13-4.79 2.85-10.21 4.64-15.39 6.82a2.61 2.61 0 0 1-2-.33c-1.45-.84-2.83-1.81-4.21-2.76-.93-.65-1.81-1.37-2.71-2 1.09-.49 2.17-1 3.27-1.46a158.61 158.61 0 0 0 25-13.17c6.35-4.11 12.27-8.79 18.57-12.9 7.75-5.05 16.07-9.27 25.1-11.3a83.49 83.49 0 0 1 21.54-2.28zm-.92-164.1c14-.09 27.55 2.52 40.8 6.83 2 .66 4.08 1.28 6.11 2 .2.06.34.31.51.47-.29.1-.61.33-.86.27-3.48-.79-6.92-1.72-10.42-2.4a46.71 46.71 0 0 0-7.79-1c-8.22-.19-16.44-.71-24.66 0-6.92.57-13.79 1.33-20.34 3.85-4.79 1.85-9.65 3.49-14.36 5.51a63.31 63.31 0 0 0-12.65 7.18c-4.33 3.19-8.95 6-13.12 9.4A89.11 89.11 0 0 1 190.79 220a91.05 91.05 0 0 1-11.09 4 2.35 2.35 0 0 1-1.65-.36q-2.49-1.44-4.87-3.05c-1.06-.71-1.25-1.42.2-2 2.68-1 5.35-2.09 8-3.2 6.77-2.86 12.7-7.16 18.79-11.16 5-3.27 9.66-7.05 14.62-10.36 7.68-5.12 15.65-9.83 24.38-12.9 4.12-1.45 8.6-2 13-2.59s8.77-.77 13.18-1.11z"/><path class="a" d="M456 616.09c-2.94-.37-6.17-.59-9.32-1.21-6.14-1.22-12.18-2.91-17-7.11-5.28-4.6-9.75-9.88-12.06-16.66-.62-1.81-.39-2 1.58-1.81 1.07.1 2.14.27 3.22.29 1.95 0 3 .58 4 2.69s3.08 3.56 4.8 5.21c5.76 5.5 12.43 9.35 20.4 10.39a24.67 24.67 0 0 0 8.52-.44c7.93-1.83 15.66-4.33 22.49-9a6.54 6.54 0 0 0 1.72-1.24c2.74-3.88 5.52-7.74 8-11.77a2.59 2.59 0 0 1 3.2-1.41c2 .42 3.95.73 5.92 1.07 1.5.25 1.79 1.1 1.07 2.29a76.58 76.58 0 0 1-5 7.85c-3.86 4.89-8.05 9.43-13.68 12.49a55.08 55.08 0 0 1-14.65 5.64c-3.37.74-6.72 1.61-10.08 2.37a29.06 29.06 0 0 1-3.13.36zm-183.22-33.04h-8.25c-1.36 0-1.56-.8-1-1.93 4-8.77 10.89-14.53 19.7-17.57 6.89-2.38 14-3 21.4-.33a108.26 108.26 0 0 1 15.08 7.33 1.59 1.59 0 0 1 .81 1c0 .27-.56.65-1 .83a101.78 101.78 0 0 1-21 6.91c-6.29 1.28-12.59 2.53-18.92 3.57a41.67 41.67 0 0 1-6.8.06zM254.28 304c0 3.82.07 7.65 0 11.46a12 12 0 0 1-.84 4.19 86.81 86.81 0 0 1-8.86 16c-1.21 1.74-2.94 2.38-4.72 3.06a22.35 22.35 0 0 1-2.45.57c-.91.23-1.8.5-2.7.75a10.56 10.56 0 0 1 1.06-2.79 64.46 64.46 0 0 0 7.52-13.34c1.56-3.45 1.91-7.13 2.25-10.83.48-5.24.57-10.57 1.7-15.67a48.89 48.89 0 0 1 5-13.36 19.67 19.67 0 0 1 8.47-7.48 77.66 77.66 0 0 1 17.13-6.26c5.87-1.44 11.74-2.28 17.7-.59a4.33 4.33 0 0 0 .71.1c4.25.41 4.25.41 2 4.18-.12.2-.26.4-.39.6-2.34 3.78-2.34 3.75-6.67 2.89-7.79-1.54-15.45-1.47-22.82 1.92a10.18 10.18 0 0 0-2.37 1.52c-1.35 1.18-2.64 2.44-3.91 3.71-5.34 5.37-7.68 11.96-7.81 19.37zm133.65 92.24c-.29.49-.48.79-.65 1.1-2.83 5-5.64 10-8.54 14.92a1.74 1.74 0 0 1-1.64.46c-5.42-3.85-11.46-4.11-17.77-3.41-3.65.41-7.44 1.17-10.93-.68a43.75 43.75 0 0 1-5.95-3.89c-1.09-.82-1.34-1.78.18-2.79 5.76-3.84 11.34-8 17.2-11.65 3.95-2.47 8.27-4.45 13.19-3.76a8.73 8.73 0 0 1 3.64 1.18c3.56 2.42 7 5 10.47 7.57a5 5 0 0 1 .8.95zm-113.78 17.57h-6.46c-1.17 0-1.62-.41-1-1.48 3.71-6.14 8.42-11.06 15.09-14.23 7-3.33 14.28-3.48 21.71-3.13 5.73.27 10.47 3.06 15.08 6.13a43.39 43.39 0 0 1 3.64 2.88c.91.77 1.24 1.45-.32 1.92-4.11 1.25-8.13 2.79-12.28 3.84a103.75 103.75 0 0 1-25.83 3.58c-3.21 0-6.42.45-9.63.7zm7.2-163.34h-13.78c-1.43 0-1.62-.61-1-1.79 3.7-7.62 9.38-12.91 17.77-14.92 3.37-.8 6.79-1.38 10.16-2.18 4.74-1.13 9.26.06 13.76 1.2a24.41 24.41 0 0 1 6.07 2.18 71.27 71.27 0 0 1 7.26 5.15c.78.6.49 1.29-.36 1.61-2 .75-4.06 1.41-6.07 2.17a96.2 96.2 0 0 1-19.69 5.32c-4.88.72-9.8.89-14.12 1.26zm116.42 59.66v5.38a1.52 1.52 0 0 1-1.78 1.73c-2.25-.18-4.51-.38-6.74-.75-4.5-.75-8.86-1.85-12.52-4.87-3.16-2.6-6.25-5.36-7.9-9.11-1-2.32-1-5.09-1.39-7.67a1.46 1.46 0 0 1 .28-1c6-7.31 14-10.19 22.29-3.12a39.61 39.61 0 0 1 4.05 4c2.95 3.38 2.91 7.71 3.55 11.8a23.75 23.75 0 0 1 0 3.58zm142.89-55.77l-21.42-.54h-1.79c-1.25-.11-1.4-.94-.88-1.77 2.39-3.7 4.63-7.54 8.78-9.69 2.34-1.2 4.44-2.94 6.86-3.88 9.63-3.71 19.11-3.6 28.39 1.45a47.26 47.26 0 0 1 8.63 6.32c1.44 1.28 1.46 1.51-.55 2.14-3.87 1.19-7.78 2.34-11.75 3.16-4.54 1-9.15 1.55-13.74 2.27a10.18 10.18 0 0 0-2.53.54zM514.7 422c2 .22 4.13.31 6.24.72 2.5.49 2.71.77 2.23 3-2.39 11-4.85 22-9.36 32.33-2.39 5.48-5.15 10.78-7.74 16.17-.72 1.52-1.61 2.17-3.34 1.26-2.62-1.38-5.37-2.53-8-3.91-.3-.16-.4-1.33-.15-1.79.79-1.47 1.82-2.8 2.69-4.22a78 78 0 0 0 10.1-24.75c.54-2.55 1.89-4.93 2.5-7.47a71.28 71.28 0 0 0 1.29-8.49c.35-3.08.28-3.08 3.54-2.85zm-8.23-162.8l-13.42-3.27-1.72-.45c-8.79-3.13-17.69-6-26.32-9.49-4.71-1.91-9-4.84-13.41-7.48s-8.74-5.93-13.35-8.44a20.88 20.88 0 0 0-18.38-1.3c-2.33.93-4.66 1.87-7 2.87-.92.4-1.53.33-2.08-.59-1.57-2.67-3.12-5.35-4.85-7.91-1-1.42-.84-2.41.58-3.22 3.33-1.88 6.64-3.82 10.49-4.49 3.18-.55 6.37-1.05 9.57-1.56 1-.16 1.41.22.84 1.16-.94 1.52-1.87 3.05-2.94 4.47-.95 1.26-1.57 2.47-.46 3.88 1.39 1.76 3.81 2.59 5.07 1.37 4.71-4.56 9.27-2.21 13.36.53 6.52 4.37 12.64 9.33 19 13.93a28.51 28.51 0 0 0 5.89 3.33c4.79 1.94 8.27 6.1 13.63 7.26 4.24.93 8.2 3.19 12.3 4.81a7.27 7.27 0 0 0 1.77.22l1.86.49a.64.64 0 0 0 .48.11l1.67.45 1.21.28 1.7.51a.71.71 0 0 0 .52.15l1.62.54 1.21.24 1.7.41a.85.85 0 0 0 .57.22zM373.3 212.66c9.71-.34 17.69 3.31 24.44 10.17 5.25 5.33 8.48 11.76 10.92 18.69.8 2.25 1.53 4.54 2.14 6.85.49 1.83.14 2.17-1.62 2-2.35-.28-4.7-.63-7.06-.83-1.29-.12-1.75-.82-2.25-1.91a80.83 80.83 0 0 0-5-9.89 28.18 28.18 0 0 0-14.15-11.63q-1.68-.63-3.3-1.38c-.41-.19-1-.48-1.08-.82-.76-3.78-3.43-6.36-5.67-9.21-.69-.88-.93-1.42.47-1.62.75-.14 1.45-.29 2.16-.42zm154.63 204.16h-4.66c-1.44 0-1.72-.78-1-1.81a43.52 43.52 0 0 1 4.74-6.25c5.6-5.58 11.74-9.34 20.36-9.44 9.12-.11 16.08 3.69 22.9 8.69a6.53 6.53 0 0 1 1.06 1.31c-.49.2-1 .43-1.47.6-12.07 4.15-24.67 5.43-37.27 6.7a45.24 45.24 0 0 1-4.66 0zm-251.63 3.42c1.34-.14 3.36-.33 5.37-.55 1.65-.17 2.52.47 2.41 2.2-.37 5.85 2.19 11 4.19 16.19 2.44 6.35 5.11 12.6 7.7 18.89a1.29 1.29 0 0 1-.85 2c-2.9 1.07-5.81 2.09-8.72 3.14-1 .37-1.53-.12-1.93-1-1.38-3.06-2.72-6.13-4.23-9.12-4.46-8.84-6.84-18.34-8.89-27.94-.78-3.62-.37-4.07 3.19-3.91zm248.96 160.55c-.83-.08-2-.18-3.2-.32s-2.1-.27-3.15-.4a19.07 19.07 0 0 1 1.35-3.57c4.74-7.55 12-11 20.51-12.14a31.33 31.33 0 0 1 21.83 5.15c1.39.91 2.88 1.69 4.2 2.7.64.49 1.12 1.22-.35 1.68-10.85 3.45-21.85 6.05-33.31 6.3-2.51.05-5.01.37-7.88.6zM321.53 310.61c.55-8.09 3.58-15.84 11.14-21.35a7.11 7.11 0 0 1 1.24-.6 8 8 0 0 1-.17 1.39 63.67 63.67 0 0 0-2.42 21.28c.32 6.45.17 12.92.18 19.38a5.28 5.28 0 0 1-.5 1.55 5.36 5.36 0 0 1-1.45-.82c-4.98-5.69-7.69-12.31-8.02-20.83zm-115.6 95.77a24.19 24.19 0 0 0 4.54 1.89c2.78.53 3.4 2 3.89 4.75a109 109 0 0 0 4.4 15.88c.66 2 2.25 3.65 3.67 5.24 1 1.15 1 1.89.11 3.05-3.38 4.31-3.49 4.46-7 .4-4.48-5.22-8.33-10.8-8.82-18.06-.14-2-1.07-3.91-1.43-5.89a36.16 36.16 0 0 1-.53-5.69c.03-.49.74-.95 1.17-1.57zm53.48-142.88c.3-1.51.56-2.91.87-4.31a2.45 2.45 0 0 1 2.68-2.28c4.64.1 9.29.1 13.94.15 1.11 0 1.49.58 1.18 1.63 0 .12-.06.24-.08.35-.84 4.82-.86 4.7-6 5.91-2.76.66-5.37 1.9-8.1 2.69-3.37 1-3.53.83-4.2-2.47-.12-.59-.21-1.17-.29-1.67z"/><path class="c" d="M508.62 334.61l6.36-.95c-1.91 1.71-4.21.83-6.36.95zm-10.87 2.08l3.64-.74zm3.61-.69l3.67-.68zm3.64-.71l3.65-.69zm-8-79.97l-1.86-.49zm10.06 2.68l-1.7-.41zm-2.91-.64l-1.62-.54zm-2.15-.69l-1.7-.51zm-2.9-.79l-1.67-.45zm-7.77-.4l1.72.45zM371 713.43c.46-4.39 1.47-8.81 1.25-13.16-.38-7.37-1.13-14.81-4.4-21.61a69.62 69.62 0 0 0-4.57-7.7c-.93-1.41-.85-2.08.9-2.4a51.81 51.81 0 0 0 13.07-4.64 54.66 54.66 0 0 0 5.27-3 52.87 52.87 0 0 0 15.41-15.3 46.15 46.15 0 0 0 2.67-5.47 15.27 15.27 0 0 1 1.36-1.89 12.57 12.57 0 0 1 1.45 1.47c2.39 3.28 4.63 6.67 7.13 9.86 3.18 4.07 6.77 7.68 11.81 9.56a57.51 57.51 0 0 1 6.1 3 9.83 9.83 0 0 1 1.35 1.08 6.62 6.62 0 0 1-1.5 1.27 44.22 44.22 0 0 0-4.65 1.87c-6.74 4.09-13.82 7.76-20 12.62-6.88 5.45-13.63 11.26-19.17 18.2-4.09 5.13-8 10.45-11.91 15.69a14.23 14.23 0 0 1-.83 1.16 3.72 3.72 0 0 1-.89.52l-.4-1.14zm-1.49-576.73a51.86 51.86 0 0 0-5.07-23.89 85.42 85.42 0 0 0-5-8.25c-1.09-1.77-1.06-2.14 1-2.66 7.13-1.82 13.51-5.35 19.78-9 7.68-4.42 14.15-10.18 17.54-18.74.27-.67 1.06-1.61 1.58-1.6s1.37.83 1.82 1.47c1.31 1.85 2.44 3.81 3.74 5.67 4.9 7 11.95 11.19 19.61 14.52.22.09.43.21.65.29 1.25.46 2.51.9 3.76 1.35-1.32.51-2.63 1.07-4 1.53a91.63 91.63 0 0 0-42.53 29.89c-3.64 4.39-6.7 9.26-10 13.93-.49.68-.91 1.41-1.41 2.08a4 4 0 0 1-.79.66c-.22-.36-.62-.72-.63-1.08-.09-2-.05-4.03-.05-6.17z"/></svg>