<svg xmlns="http://www.w3.org/2000/svg" viewBox="0 0 800 800"><defs><style>.cls-1{isolation:isolate;}.cls-2{fill:none;stroke:#000;stroke-linejoin:bevel;stroke-width:8px;}.cls-3{fill:#fff;}.cls-4{mix-blend-mode:darken;}.cls-5{fill:red;}</style></defs><title>army man</title><g class="cls-1"><g id="Layer_1" data-name="Layer 1"><polyline class="cls-2" points="398.97 556.54 394.98 557.92 390.75 558.29 386.62 559.02 382.48 559.88 378.27 560.03 374.05 560.05 369.89 559.33 365.76 558.63 361.66 557.83 357.54 556.91 353.88 554.81 349.99 553.12 346.59 550.6 343.76 547.45 340.68 544.53"/><polyline class="cls-2" points="476.07 381.55 476.39 385.8 475.45 390 475.83 394.27 475.41 398.49 475.1 402.72 474.57 406.93 473.83 411.11 473.43 415.34 472.31 419.45 471.92 423.69 470.18 427.67 469.83 431.92 468.7 436 468.06 440.21 467.04 444.32 465.8 448.38 464.02 452.27 462.54 456.24 461.15 460.24 460.24 464.41 458.67 468.35 456.97 472.24 455.55 476.23 454.16 480.24 452.08 483.96 450.62 487.95 449.14 491.94 447.16 495.69 444.97 499.34 443.02 503.1 440.65 506.63 438.85 510.48 436.96 514.28 434.75 517.91 432.04 521.22 430.35 525.17 427.51 528.37 425.1 531.86 422.7 535.36 420.3 539.03 417.46 542.36 414.35 545.44 411.17 548.43 408.02 551.49 404.5 554.16 400.3 555.56 396.38 557.64 392 558.04 387.67 558.82 383.38 557.73 379.03 557.42 374.86 556.08 371.14 553.75 368.01 550.72 364.95 547.66 362.33 544.19 360.21 540.38 358.95 536.19 357.36 532.15 355.63 528.09 355.45 523.67 354.11 519.46 354.54 515.2 353.36 511.12 353.46 506.91 353.15 502.75 353.16 498.56 352.74 494.4 351.78 490.26 352.55 486.05 351.78 481.89 351.5 477.71 351.31 473.53 352.14 469.33 352.01 465.15 351.53 460.98 351.88 456.79 351.55 452.61 352.1 448.43 351.88 444.24 352.24 440.06 352.2 435.87 352.4 431.69 352.52 427.51 351.85 423.3 352.54 419.14 352.38 414.95 352.98 410.79 352.46 406.58 352.7 402.4 353.04 398.23 352.8 394.04 353.06 389.87 354.2 385.74 354.04 381.55"/><polyline class="cls-2" points="449.6 383.32 448.25 387.41 448.13 391.7 446.68 395.74 445.95 399.92 444.99 404.05 444.58 408.3 443.11 412.32 442.82 416.61 441.6 420.68 440.11 424.68 438.86 428.73 438.47 433.02 437.17 437.07 435.91 441.12 434.33 445.07 433.47 449.25 432.11 453.28 430.69 457.29 428.86 461.14 427.56 465.19 425.68 469.01 424.16 472.98 422.07 476.7 420.67 480.73 419.12 484.69 416.88 488.32 415.53 492.4 413.06 495.9 410.88 499.55 409.46 503.63 406.75 506.96 404.63 510.64 402.36 514.23 399.96 517.73 397.29 521.04 395.11 524.7 392.77 528.27 389.64 531.2 386.87 534.4 383.96 537.49 380.96 540.53 377.38 542.86 374.02 545.48 370.27 547.49 366.3 549.01 362.53 551.02 358.35 551.9 354.1 551.83 349.9 551.29 345.78 550.01 342.36 547.36 339.82 543.93 336.72 540.92 335.19 536.9 332.8 533.33 331.91 529.12 330.51 525.11 329.79 520.92 328.42 516.88 327.46 512.75 326.89 508.55 326.19 504.37 325.03 500.26 325.22 495.94 323.83 491.85 323.63 487.6 322.86 483.42 322.97 479.14 322.48 474.93 321.52 470.76 321.47 466.5 320.44 462.33 320.87 458.04 319.8 453.86 319.29 449.64 319.1 445.4 318.73 441.16 319.31 436.87 318.22 432.68 318.31 428.42 317.69 424.2 317.54 419.95 318.17 415.68 317.63 411.45 317.13 407.22 317 402.98 316.75 398.75 317.38 394.48 317.47 390.24 316.61 386.02 316.82 381.77 316.98 377.58"/><polygon points="318.69 394.37 322.87 396.26 327.08 397.73 331.5 398.64 335.39 401 339.67 402.32 343.98 403.53 347.97 405.26 348.63 409.37 348.15 413.66 348.33 417.93 348.48 422.19 349.43 426.42 349.03 430.71 349.87 434.94 349.92 439.21 349.72 443.49 350.21 447.74 349.76 452.03 350.75 456.26 350.7 460.54 351.1 464.79 351.09 469.07 350.55 473.36 351.34 477.6 351.24 481.88 351.11 486.17 351.8 490.42 351.88 494.54 352.49 498.63 352.83 502.73 353.11 506.84 352.41 511 352.86 515.1 353.08 519.21 353.09 523.34 353.84 527.43 353.52 531.67 355.64 535.46 357.95 539.05 359.73 542.91 361.46 546.79 363.71 550.42 365.22 554.23 361.87 552.61 358.15 551.41 354.38 550.36 350.95 548.37 347.1 547.51 343.25 546.27 341.42 542.13 339.46 538.16 337.9 534.02 336.04 530.01 334.13 526.02 332.94 521.71 330.45 517.99 328.71 513.92 326.65 509.91 327.13 505.51 326.9 501.22 326.06 496.96 326.26 492.64 325.86 488.36 325.14 484.1 325.51 479.77 324.92 475.5 324.61 471.21 323.87 466.95 323.89 462.64 323.56 458.36 323.42 454.06 322.74 449.8 322.32 445.52 322.81 441.18 322.42 436.89 321.99 432.61 321.24 428.35 321.36 424.03 320.66 419.76 320.79 415.44 320.25 411.17 320.01 406.87 320.02 402.55 319.11 398.56 318.69 394.37"/><polygon class="cls-2" points="318.69 394.37 322.87 396.26 327.08 397.73 331.5 398.64 335.39 401 339.67 402.32 343.98 403.53 347.97 405.26 348.63 409.37 348.15 413.66 348.33 417.93 348.48 422.19 349.43 426.42 349.03 430.71 349.87 434.94 349.92 439.21 349.72 443.49 350.21 447.74 349.76 452.03 350.75 456.26 350.7 460.54 351.1 464.79 351.09 469.07 350.55 473.36 351.34 477.6 351.24 481.88 351.11 486.17 351.8 490.42 351.88 494.54 352.49 498.63 352.83 502.73 353.11 506.84 352.41 511 352.86 515.1 353.08 519.21 353.09 523.34 353.84 527.43 353.52 531.67 355.64 535.46 357.95 539.05 359.73 542.91 361.46 546.79 363.71 550.42 365.22 554.23 361.87 552.61 358.15 551.41 354.38 550.36 350.95 548.37 347.1 547.51 343.25 546.27 341.42 542.13 339.46 538.16 337.9 534.02 336.04 530.01 334.13 526.02 332.94 521.71 330.45 517.99 328.71 513.92 326.65 509.91 327.13 505.51 326.9 501.22 326.06 496.96 326.26 492.64 325.86 488.36 325.14 484.1 325.51 479.77 324.92 475.5 324.61 471.21 323.87 466.95 323.89 462.64 323.56 458.36 323.42 454.06 322.74 449.8 322.32 445.52 322.81 441.18 322.42 436.89 321.99 432.61 321.24 428.35 321.36 424.03 320.66 419.76 320.79 415.44 320.25 411.17 320.01 406.87 320.02 402.55 319.11 398.56 318.69 394.37"/><polyline class="cls-2" points="400.07 556.82 395.95 557.82 391.79 558.5 387.62 559.01 383.5 560.08 379.26 559.63 375.04 560.35 370.8 560.13 366.7 558.96 362.66 557.83 358.47 557.09 354.78 554.99 350.96 553.17 348 550.12 344.87 547.35 341.67 544.53"/><polyline class="cls-2" points="477.34 381.54 476.59 385.78 476.32 389.99 476.61 394.25 476.11 398.46 476.19 402.73 475.18 406.88 474.28 411.03 474.29 415.32 473.45 419.48 472.63 423.64 471.72 427.78 470.49 431.84 469.64 435.99 468.92 440.17 467.68 444.23 466.42 448.27 465.03 452.27 463.85 456.34 462.27 460.28 461.32 464.44 460.13 468.52 458.45 472.42 456.41 476.17 455.29 480.3 452.96 483.91 451.26 487.78 450.08 491.91 447.58 495.4 446.31 499.51 444.38 503.29 442.27 506.97 439.64 510.36 437.98 514.3 435.67 517.85 433.56 521.54 430.73 524.76 429.1 528.77 426.4 532.07 424.19 535.71 420.99 538.78 418.74 542.61 415.24 545.34 412.15 548.41 408.74 551.11 405.46 554.09 401.53 556.09 397.19 556.92 392.96 557.75 388.66 558.37 384.34 557.99 380.04 557.4 376.07 555.63 371.92 554.07 369.09 550.64 365.87 547.73 363.26 544.23 361.11 540.42 359.12 536.5 358.65 532.06 356.95 528.02 356.24 523.71 355.88 519.36 354.7 515.29 354.53 511.1 354.61 506.9 353.78 502.77 353.86 498.58 353.45 494.42 352.88 490.26 352.7 486.08 352.92 481.88 353.24 477.69 352.35 473.53 353.17 469.33 353.01 465.15 352.57 460.97 352.76 456.79 352.79 452.61 352.4 448.42 352.93 444.24 353.02 440.05 352.69 435.86 353.36 431.69 353.27 427.5 353.49 423.32 353.52 419.14 353.86 414.97 353.16 410.75 354.16 406.61 353.57 402.4 354.4 398.25 354.55 394.07 354.34 389.88 355.07 385.73 355.42 381.58"/><polyline class="cls-2" points="450.14 383.26 449.22 387.41 448.91 391.66 447.78 395.76 446.84 399.9 446.19 404.09 445.83 408.36 444.4 412.38 443.41 416.51 442.31 420.61 441.01 424.65 439.95 428.75 439.22 432.95 437.7 436.92 436.65 441.04 435.01 444.96 434.56 449.29 432.37 453.02 431.24 457.12 429.54 461.02 428.33 465.1 426.34 468.87 424.99 472.91 423.78 477.01 422.17 480.95 419.72 484.5 417.68 488.23 416.02 492.14 414.3 496.03 412.33 499.8 410.05 503.39 407.92 507.06 405.62 510.64 403.43 514.27 400.7 517.55 399 521.55 395.95 524.59 393.6 528.14 390.51 531.1 387.64 534.17 384.98 537.52 381.94 540.51 378.32 542.79 374.85 545.22 371.04 547.08 367.63 549.76 363.48 550.83 359.35 551.86 355.11 551.64 350.94 551.15 347.03 549.55 343.25 547.49 340.22 544.42 337.79 540.88 336.32 536.83 334.11 533.2 332.98 529.09 331.12 525.23 330.3 521.04 328.96 516.98 329 512.65 327.61 508.6 327.25 504.36 325.91 500.28 325.77 496 324.89 491.85 324.74 487.59 323.83 483.43 323.43 479.2 323.23 474.95 322.69 470.74 322.27 466.52 321.51 462.33 321.86 458.04 320.75 453.87 320.41 449.63 320.53 445.37 320.52 441.11 320.02 436.89 320.06 432.63 319.08 428.43 318.73 424.19 318.92 419.93 319.19 415.68 318.56 411.46 318.25 407.22 318.73 402.96 318.22 398.73 317.73 394.5 317.88 390.25 318.39 386.01 318.22 381.77 318.02 377.58"/><polygon points="319.74 394.44 323.97 395.97 328.01 397.94 332.49 398.66 336.72 400.1 340.68 402.29 344.98 403.53 349.42 404.93 348.93 409.4 349.61 413.64 350.06 417.9 350.14 422.16 350.26 426.43 350.06 430.71 350 434.98 350.73 439.22 350.98 443.48 351.17 447.74 351.17 452.01 351.43 456.27 351.19 460.56 351.96 464.8 352.12 469.06 351.56 473.36 351.76 477.63 352.17 481.89 352.53 486.15 352.33 490.44 353.13 494.52 352.95 498.65 353.65 502.74 353.71 506.86 353.94 510.97 354.39 515.07 354.13 519.21 354.36 523.32 355.18 527.41 355.08 531.52 356.6 535.48 358.71 539.17 360.5 543.03 362.86 546.6 364.08 550.74 366.71 554.58 362.61 553.29 359.18 551.33 355.45 550.15 351.94 548.4 348.09 547.54 344.74 545.78 342.41 542.13 341.17 537.84 338.96 533.99 337.08 529.99 334.98 526.09 333.68 521.83 331.93 517.77 329.51 514 327.65 509.91 328.17 505.51 326.95 501.28 327.08 496.96 327.15 492.65 326.7 488.37 326.54 484.07 326.34 479.78 325.86 475.5 325.61 471.21 324.89 466.95 324.79 462.65 324.3 458.38 324.47 454.06 323.92 449.79 323.76 445.49 323.68 441.19 323.27 436.9 322.61 432.63 323.12 428.29 322.77 424 322.38 419.72 322.15 415.42 321.63 411.14 321.64 406.82 320.99 402.55 320.65 398.47 319.74 394.44"/><polygon class="cls-2" points="319.74 394.44 323.97 395.97 328.01 397.94 332.49 398.66 336.72 400.1 340.68 402.29 344.98 403.53 349.42 404.93 348.93 409.4 349.61 413.64 350.06 417.9 350.14 422.16 350.26 426.43 350.06 430.71 350 434.98 350.73 439.22 350.98 443.48 351.17 447.74 351.17 452.01 351.43 456.27 351.19 460.56 351.96 464.8 352.12 469.06 351.56 473.36 351.76 477.63 352.17 481.89 352.53 486.15 352.33 490.44 353.13 494.52 352.95 498.65 353.65 502.74 353.71 506.86 353.94 510.97 354.39 515.07 354.13 519.21 354.36 523.32 355.18 527.41 355.08 531.52 356.6 535.48 358.71 539.17 360.5 543.03 362.86 546.6 364.08 550.74 366.71 554.58 362.61 553.29 359.18 551.33 355.45 550.15 351.94 548.4 348.09 547.54 344.74 545.78 342.41 542.13 341.17 537.84 338.96 533.99 337.08 529.99 334.98 526.09 333.68 521.83 331.93 517.77 329.51 514 327.65 509.91 328.17 505.51 326.95 501.28 327.08 496.96 327.15 492.65 326.7 488.37 326.54 484.07 326.34 479.78 325.86 475.5 325.61 471.21 324.89 466.95 324.79 462.65 324.3 458.38 324.47 454.06 323.92 449.79 323.76 445.49 323.68 441.19 323.27 436.9 322.61 432.63 323.12 428.29 322.77 424 322.38 419.72 322.15 415.42 321.63 411.14 321.64 406.82 320.99 402.55 320.65 398.47 319.74 394.44"/><polygon class="cls-3" points="591.01 479.7 588.96 475.84 587.2 472.12 585.34 468.45 583.98 464.54 582.34 460.75 579.97 457.34 577.79 453.84 575.76 450.26 574.18 446.38 571.52 443.19 568.87 440.02 566.31 436.8 564.06 433.31 561.17 430.35 557.19 428.99 553.36 427.2 549.29 426.07 545.48 424.22 541.54 422.75 537.28 422.15 533.55 420.07 529.56 418.74 525.5 417.59 521.65 415.86 517.73 414.31 513.49 413.65 509.64 411.91 505.85 410.02 501.8 408.84 497.89 407.26 493.69 406.51 489.87 404.7 485.94 403.17 481.97 401.75 477.92 400.59 473.91 399.3 470.12 397.38 466.25 395.7 462.05 394.93 458.38 392.72 454.35 391.47 450.35 390.15 446.33 388.89 442.28 387.72 438.49 385.84 434.45 384.63 430.46 383.28 426.58 381.64 422.72 379.93 418.59 378.97 414.62 377.57 410.8 375.76 406.62 374.96 402.73 373.34 398.88 371.59 394.87 370.3 390.78 369.22 386.97 367.38 383.01 365.97 379.14 364.25 375.05 363.19 370.98 362.06 367.29 359.9 363.1 359.1 359.29 357.22 355.35 355.74 351.18 354.87 347.22 353.44 343.41 351.59 339.42 350.25 335.48 348.74 331.45 347.5 327.58 345.79 323.56 344.52 319.7 342.81 315.63 341.69 311.67 340.25 307.65 338.98 303.89 336.98 299.81 335.87 295.84 334.47 291.93 332.88 287.8 331.9 283.82 330.5 280 328.66 275.92 327.56 271.9 326.26 268.19 324.12 264.15 322.76 259.96 323.62 255.99 324.93 251.81 325.27 247.76 326.21 243.92 327.86 239.82 328.69 235.87 329.98 232.06 331.65 228.06 332.85 224.51 335.11 220.67 336.69 216.65 337.88 213.23 340.33 209.25 341.81 209.79 342.23 210.05 342.65 211.43 346.1 214.66 348.81 217.73 351.8 221.16 354.36 224.93 356.39 228.53 358.67 232.38 360.52 236.16 362.5 240.13 364.1 243.65 366.59 247.76 367.89 251.31 370.34 255.18 372.13 258.94 374.17 263.13 375.25 266.88 377.31 270.9 378.76 274.81 380.47 278.5 382.66 282.25 384.73 286.49 385.68 290.4 387.36 293.96 389.88 298.16 390.92 302.16 392.39 305.76 394.85 309.7 396.49 313.71 397.95 317.65 399.61 321.85 400.62 325.55 402.85 329.63 404.14 333.53 405.88 337.45 407.58 341.44 409.09 345.62 410.13 349.6 411.68 353.61 413.14 357.54 414.81 361.64 416.04 365.47 417.98 369.33 419.83 373.47 420.95 377.55 422.24 381.43 424.07 385.59 425.13 389.58 426.65 393.51 428.35 397.43 430.07 401.5 431.37 405.57 432.65 409.65 433.93 413.69 435.32 417.61 437.03 421.66 438.36 425.82 439.39 429.87 440.75 433.96 441.96 437.96 443.43 442.04 444.7 446.02 446.24 450.06 447.62 454.04 449.18 458.25 450.03 462.05 452.16 466.35 452.74 470.45 453.9 474.52 455.2 478.42 457.03 482.4 458.61 486.73 459.06 490.6 461 494.92 461.46 499.02 462.64 502.96 464.35 507.11 465.36 511.24 466.44 515.33 467.65 519.5 468.57 523.52 470.01 527.54 471.53 531.75 472.26 535.89 473.32 540.05 474.27 544.25 475.01 548.3 476.4 552.53 477.03 556.64 478.2 560.82 479.07 565.03 479.76 569.16 480.93 573.41 481.41 577.69 481.39 581.92 482.06 586.1 481.21 589.82 479.81 589.9 479.19 591.01 479.7"/><polygon class="cls-2" points="591.01 479.7 588.96 475.84 587.2 472.12 585.34 468.45 583.98 464.54 582.34 460.75 579.97 457.34 577.79 453.84 575.76 450.26 574.18 446.38 571.52 443.19 568.87 440.02 566.31 436.8 564.06 433.31 561.17 430.35 557.19 428.99 553.36 427.2 549.29 426.07 545.48 424.22 541.54 422.75 537.28 422.15 533.55 420.07 529.56 418.74 525.5 417.59 521.65 415.86 517.73 414.31 513.49 413.65 509.64 411.91 505.85 410.02 501.8 408.84 497.89 407.26 493.69 406.51 489.87 404.7 485.94 403.17 481.97 401.75 477.92 400.59 473.91 399.3 470.12 397.38 466.25 395.7 462.05 394.93 458.38 392.72 454.35 391.47 450.35 390.15 446.33 388.89 442.28 387.72 438.49 385.84 434.45 384.63 430.46 383.28 426.58 381.64 422.72 379.93 418.59 378.97 414.62 377.57 410.8 375.76 406.62 374.96 402.73 373.34 398.88 371.59 394.87 370.3 390.78 369.22 386.97 367.38 383.01 365.97 379.14 364.25 375.05 363.19 370.98 362.06 367.29 359.9 363.1 359.1 359.29 357.22 355.35 355.74 351.18 354.87 347.22 353.44 343.41 351.59 339.42 350.25 335.48 348.74 331.45 347.5 327.58 345.79 323.56 344.52 319.7 342.81 315.63 341.69 311.67 340.25 307.65 338.98 303.89 336.98 299.81 335.87 295.84 334.47 291.93 332.88 287.8 331.9 283.82 330.5 280 328.66 275.92 327.56 271.9 326.26 268.19 324.12 264.15 322.76 259.96 323.62 255.99 324.93 251.81 325.27 247.76 326.21 243.92 327.86 239.82 328.69 235.87 329.98 232.06 331.65 228.06 332.85 224.51 335.11 220.67 336.69 216.65 337.88 213.23 340.33 209.25 341.81 209.79 342.23 210.05 342.65 211.43 346.1 214.66 348.81 217.73 351.8 221.16 354.36 224.93 356.39 228.53 358.67 232.38 360.52 236.16 362.5 240.13 364.1 243.65 366.59 247.76 367.89 251.31 370.34 255.18 372.13 258.94 374.17 263.13 375.25 266.88 377.31 270.9 378.76 274.81 380.47 278.5 382.66 282.25 384.73 286.49 385.68 290.4 387.36 293.96 389.88 298.16 390.92 302.16 392.39 305.76 394.85 309.7 396.49 313.71 397.95 317.65 399.61 321.85 400.62 325.55 402.85 329.63 404.14 333.53 405.88 337.45 407.58 341.44 409.09 345.62 410.13 349.6 411.68 353.61 413.14 357.54 414.81 361.64 416.04 365.47 417.98 369.33 419.83 373.47 420.95 377.55 422.24 381.43 424.07 385.59 425.13 389.58 426.65 393.51 428.35 397.43 430.07 401.5 431.37 405.57 432.65 409.65 433.93 413.69 435.32 417.61 437.03 421.66 438.36 425.82 439.39 429.87 440.75 433.96 441.96 437.96 443.43 442.04 444.7 446.02 446.24 450.06 447.62 454.04 449.18 458.25 450.03 462.05 452.16 466.35 452.74 470.45 453.9 474.52 455.2 478.42 457.03 482.4 458.61 486.73 459.06 490.6 461 494.92 461.46 499.02 462.64 502.96 464.35 507.11 465.36 511.24 466.44 515.33 467.65 519.5 468.57 523.52 470.01 527.54 471.53 531.75 472.26 535.89 473.32 540.05 474.27 544.25 475.01 548.3 476.4 552.53 477.03 556.64 478.2 560.82 479.07 565.03 479.76 569.16 480.93 573.41 481.41 577.69 481.39 581.92 482.06 586.1 481.21 589.82 479.81 589.9 479.19 591.01 479.7"/><polygon class="cls-3" points="561.04 430.38 557.47 432.34 553.21 432.3 549.08 431.24 544.83 431.25 540.71 430.33 536.51 429.79 532.5 428.4 528.25 428.04 524.33 426.3 520.08 425.94 515.95 425.05 511.98 423.54 507.94 422.37 503.89 421.22 499.72 420.47 495.65 419.38 491.6 418.19 487.66 416.65 483.5 415.83 479.5 414.49 475.68 412.56 471.57 411.56 467.37 410.87 463.35 409.59 459.49 407.81 455.59 406.17 451.54 405 447.52 403.72 443.44 402.63 439.41 401.35 435.57 399.56 431.52 398.34 427.53 396.97 423.47 395.81 419.39 394.67 415.49 393.07 411.62 391.32 407.68 389.79 403.54 388.82 399.6 387.34 395.7 385.72 391.77 384.17 387.71 383 383.7 381.64 379.87 379.85 375.98 378.21 372.03 376.72 368.01 375.43 364.08 373.89 360.24 372.13 356.46 370.21 352.52 368.7 348.38 367.69 344.43 366.19 340.55 364.52 336.82 362.52 333 360.72 328.85 359.71 324.95 358.1 321.3 355.91 317.47 354.15 313.35 353.04 309.58 351.12 305.72 349.42 302.08 347.25 298.26 345.46 294.31 343.95 290.69 341.76 287 339.71 283.28 337.72 279.64 335.61 275.69 334.03 272.11 331.79 268.79 329.18 265.71 326.34 263.42 322.89 267.39 321.63 271.61 320.94 275.8 321.61 279.93 322.51 284.07 323.28 288.21 324.04 292.4 324.6 296.56 325.37 300.56 326.8 304.71 327.56 308.8 328.6 312.82 329.88 316.92 330.87 320.92 332.23 325.1 332.9 329.03 334.5 333.12 335.52 337.06 337.09 341.13 338.19 345.17 339.4 349.34 340.18 353.29 341.71 357.17 343.42 361.33 344.25 365.29 345.69 369.25 347.15 373.29 348.37 377.46 349.18 381.46 350.54 385.49 351.79 389.23 353.91 393.36 354.88 397.46 355.92 401.42 357.38 405.46 358.61 409.21 360.67 413.24 361.95 417.25 363.28 421.19 364.81 425.2 366.12 428.96 368.1 433.01 369.32 437.2 370.15 440.93 372.24 445.1 373.14 448.71 375.52 452.83 376.55 456.65 378.37 460.52 380.05 464.65 381.08 468.42 383.04 472.57 384.02 476.49 385.59 480.44 387.07 484.19 389.04 488.07 390.71 491.95 392.36 495.92 393.8 499.57 395.99 503.55 397.41 507.44 399.05 511.48 400.34 514.96 402.88 519.1 403.96 522.95 405.69 526.47 408.1 530.23 410.03 534.18 411.53 537.84 413.65 541.53 415.69 545.54 417.14 548.87 419.81 552.79 421.48 556.31 423.83 559.4 426.76 561.04 430.38"/><polygon class="cls-2" points="561.04 430.38 557.47 432.34 553.21 432.3 549.08 431.24 544.83 431.25 540.71 430.33 536.51 429.79 532.5 428.4 528.25 428.04 524.33 426.3 520.08 425.94 515.95 425.05 511.98 423.54 507.94 422.37 503.89 421.22 499.72 420.47 495.65 419.38 491.6 418.19 487.66 416.65 483.5 415.83 479.5 414.49 475.68 412.56 471.57 411.56 467.37 410.87 463.35 409.59 459.49 407.81 455.59 406.17 451.54 405 447.52 403.72 443.44 402.63 439.41 401.35 435.57 399.56 431.52 398.34 427.53 396.97 423.47 395.81 419.39 394.67 415.49 393.07 411.62 391.32 407.68 389.79 403.54 388.82 399.6 387.34 395.7 385.72 391.77 384.17 387.71 383 383.7 381.64 379.87 379.85 375.98 378.21 372.03 376.72 368.01 375.43 364.08 373.89 360.24 372.13 356.46 370.21 352.52 368.7 348.38 367.69 344.43 366.19 340.55 364.52 336.82 362.52 333 360.72 328.85 359.71 324.95 358.1 321.3 355.91 317.47 354.15 313.35 353.04 309.58 351.12 305.72 349.42 302.08 347.25 298.26 345.46 294.31 343.95 290.69 341.76 287 339.71 283.28 337.72 279.64 335.61 275.69 334.03 272.11 331.79 268.79 329.18 265.71 326.34 263.42 322.89 267.39 321.63 271.61 320.94 275.8 321.61 279.93 322.51 284.07 323.28 288.21 324.04 292.4 324.6 296.56 325.37 300.56 326.8 304.71 327.56 308.8 328.6 312.82 329.88 316.92 330.87 320.92 332.23 325.1 332.9 329.03 334.5 333.12 335.52 337.06 337.09 341.13 338.19 345.17 339.4 349.34 340.18 353.29 341.71 357.17 343.42 361.33 344.25 365.29 345.69 369.25 347.15 373.29 348.37 377.46 349.18 381.46 350.54 385.49 351.79 389.23 353.91 393.36 354.88 397.46 355.92 401.42 357.38 405.46 358.61 409.21 360.67 413.24 361.95 417.25 363.28 421.19 364.81 425.2 366.12 428.96 368.1 433.01 369.32 437.2 370.15 440.93 372.24 445.1 373.14 448.71 375.52 452.83 376.55 456.65 378.37 460.52 380.05 464.65 381.08 468.42 383.04 472.57 384.02 476.49 385.59 480.44 387.07 484.19 389.04 488.07 390.71 491.95 392.36 495.92 393.8 499.57 395.99 503.55 397.41 507.44 399.05 511.48 400.34 514.96 402.88 519.1 403.96 522.95 405.69 526.47 408.1 530.23 410.03 534.18 411.53 537.84 413.65 541.53 415.69 545.54 417.14 548.87 419.81 552.79 421.48 556.31 423.83 559.4 426.76 561.04 430.38"/><polygon class="cls-3" points="561.51 430.55 561.43 430.17 561.14 429.79 563.47 424.28 564.44 420.1 566.41 416.25 566.83 411.93 568.55 407.96 568.95 403.68 570.05 399.54 570.89 395.34 571.06 391.06 570.98 386.78 571.05 382.52 571.59 378.26 571.4 374 570.99 369.74 570.18 365.55 569.52 361.34 568.77 357.14 567.51 353.07 566.68 348.86 564.87 344.97 563.16 341.07 561.51 337.15 559.63 333.33 557.77 329.49 555.5 325.88 553.44 322.12 550.5 318.97 547.91 315.59 545.75 311.85 542.53 308.99 539.74 305.76 536.6 302.87 533.74 299.68 530.44 296.97 527.11 294.31 523.99 291.38 520.45 288.98 517.17 286.24 513.69 283.76 510.25 281.22 506.39 279.32 502.55 277.45 498.88 275.28 495.43 272.72 491.69 270.66 488.02 268.43 483.88 267.19 480.03 265.34 476.39 263.02 472.44 261.39 468.26 260.34 464.39 258.51 460.41 256.96 456.43 255.42 452.5 253.72 448.26 252.92 444.36 251.11 440.33 249.67 436.2 248.57 432.1 247.35 427.81 246.85 423.76 245.46 419.57 244.62 415.34 243.97 411.18 242.96 406.98 242.21 402.76 241.48 398.51 241.06 394.24 240.73 389.97 240.57 385.74 239.74 381.45 240.27 377.19 239.64 372.92 239.96 368.63 239.85 364.43 240.87 360.19 241.31 355.96 241.8 351.77 242.52 347.46 242.72 343.43 244.22 339.29 245.21 335.06 245.99 331.12 247.66 327.29 249.55 323.21 250.87 319.35 252.69 315.51 254.58 312.05 257.12 308.44 259.38 305.04 261.96 301.6 264.49 298.19 267.07 295.44 270.38 292.48 273.44 289.59 276.56 286.94 279.89 283.87 282.91 281.64 286.57 279.36 290.17 277.02 293.74 274.86 297.42 273.05 301.29 270.86 304.97 269.01 308.83 267.42 312.81 266.4 316.99 264.18 321.71 263.77 322.67 263.32 322.86 263.6 323.31 263.53 323.52 263.33 323.69 263.39 324.02 263.28 324.12 263.64 324.43 264.27 324.52 263.76 324.38 266.3 327.76 270.13 329.62 273.08 332.73 277.01 334.31 280.52 336.58 284.26 338.45 288.14 340.04 291.81 342.05 295.43 344.15 299.35 345.65 302.93 347.84 306.56 349.96 310.36 351.69 314.54 352.57 318.08 354.9 322 356.35 325.92 357.82 329.81 359.34 333.42 361.53 337.31 363.07 341.37 364.2 345.21 365.85 349.15 367.26 352.68 369.68 356.8 370.64 360.6 372.41 364.62 373.59 368.57 374.97 372.21 377.15 376.16 378.52 380.14 379.82 383.94 381.62 387.84 383.12 391.88 384.26 395.91 385.41 399.57 387.6 403.53 388.97 407.59 390.04 411.55 391.44 415.32 393.36 419.3 394.74 423.5 395.43 427.41 396.99 431.38 398.36 435.19 400.2 439.29 401.19 443.34 402.35 447.3 403.75 451.09 405.66 455.13 406.83 459.26 407.71 463.33 408.78 467.23 410.39 471.28 411.51 475.37 412.51 479.3 414.01 483.22 415.54 487.35 416.38 491.23 418.08 495.4 418.76 499.49 419.74 503.52 420.92 507.6 421.94 511.55 423.42 515.49 424.98 519.67 425.58 523.79 426.4 527.87 427.38 531.96 428.32 535.99 429.57 540.11 430.38 544.35 430.48 548.45 431.35 552.6 431.98 556.77 431.54 560.81 431.02 560.72 430.89 560.97 431.19 561.14 430.81 561.51 430.55"/><polygon class="cls-2" points="561.51 430.55 561.43 430.17 561.14 429.79 563.47 424.28 564.44 420.1 566.41 416.25 566.83 411.93 568.55 407.96 568.95 403.68 570.05 399.54 570.89 395.34 571.06 391.06 570.98 386.78 571.05 382.52 571.59 378.26 571.4 374 570.99 369.74 570.18 365.55 569.52 361.34 568.77 357.14 567.51 353.07 566.68 348.86 564.87 344.97 563.16 341.07 561.51 337.15 559.63 333.33 557.77 329.49 555.5 325.88 553.44 322.12 550.5 318.97 547.91 315.59 545.75 311.85 542.53 308.99 539.74 305.76 536.6 302.87 533.74 299.68 530.44 296.97 527.11 294.31 523.99 291.38 520.45 288.98 517.17 286.24 513.69 283.76 510.25 281.22 506.39 279.32 502.55 277.45 498.88 275.28 495.43 272.72 491.69 270.66 488.02 268.43 483.88 267.19 480.03 265.34 476.39 263.02 472.44 261.39 468.26 260.34 464.39 258.51 460.41 256.96 456.43 255.42 452.5 253.72 448.26 252.92 444.36 251.11 440.33 249.67 436.2 248.57 432.1 247.35 427.81 246.85 423.76 245.46 419.57 244.62 415.34 243.97 411.18 242.96 406.98 242.21 402.76 241.48 398.51 241.06 394.24 240.73 389.97 240.57 385.74 239.74 381.45 240.27 377.19 239.64 372.92 239.96 368.63 239.85 364.43 240.87 360.19 241.31 355.96 241.8 351.77 242.52 347.46 242.72 343.43 244.22 339.29 245.21 335.06 245.99 331.12 247.66 327.29 249.55 323.21 250.87 319.35 252.69 315.51 254.58 312.05 257.12 308.44 259.38 305.04 261.96 301.6 264.49 298.19 267.07 295.44 270.38 292.48 273.44 289.59 276.56 286.94 279.89 283.87 282.91 281.64 286.57 279.36 290.17 277.02 293.74 274.86 297.42 273.05 301.29 270.86 304.97 269.01 308.83 267.42 312.81 266.4 316.99 264.18 321.71 263.77 322.67 263.32 322.86 263.6 323.31 263.53 323.52 263.33 323.69 263.39 324.02 263.28 324.12 263.64 324.43 264.27 324.52 263.76 324.38 266.3 327.76 270.13 329.62 273.08 332.73 277.01 334.31 280.52 336.58 284.26 338.45 288.14 340.04 291.81 342.05 295.43 344.15 299.35 345.65 302.93 347.84 306.56 349.96 310.36 351.69 314.54 352.57 318.08 354.9 322 356.35 325.92 357.82 329.81 359.34 333.42 361.53 337.31 363.07 341.37 364.2 345.21 365.85 349.15 367.26 352.68 369.68 356.8 370.64 360.6 372.41 364.62 373.59 368.57 374.97 372.21 377.15 376.16 378.52 380.14 379.82 383.94 381.62 387.84 383.12 391.88 384.26 395.91 385.41 399.57 387.6 403.53 388.97 407.59 390.04 411.55 391.44 415.32 393.36 419.3 394.74 423.5 395.43 427.41 396.99 431.38 398.36 435.19 400.2 439.29 401.19 443.34 402.35 447.3 403.75 451.09 405.66 455.13 406.83 459.26 407.71 463.33 408.78 467.23 410.39 471.28 411.51 475.37 412.51 479.3 414.01 483.22 415.54 487.35 416.38 491.23 418.08 495.4 418.76 499.49 419.74 503.52 420.92 507.6 421.94 511.55 423.42 515.49 424.98 519.67 425.58 523.79 426.4 527.87 427.38 531.96 428.32 535.99 429.57 540.11 430.38 544.35 430.48 548.45 431.35 552.6 431.98 556.77 431.54 560.81 431.02 560.72 430.89 560.97 431.19 561.14 430.81 561.51 430.55"/><polygon points="565.2 419.98 560.68 419.36 556.74 417.68 552.45 417.57 548.49 416 544.34 415.25 540.27 414.17 536.09 413.55 532.08 412.22 527.86 411.74 523.94 410.06 519.86 409.03 515.84 407.75 511.71 406.9 507.57 406.08 503.46 405.17 499.46 403.85 495.34 402.92 491.44 401.27 487.25 400.61 483.16 399.58 479.14 398.32 475.31 396.43 471.26 395.3 467.15 394.34 463.21 392.84 459.17 391.68 455.17 390.37 451.01 389.57 447.05 388.13 442.99 387 439.24 384.96 435.03 384.29 431.05 382.92 427.07 381.56 423.1 380.17 419.12 378.82 415.12 377.51 411.27 375.78 407.5 373.87 403.47 372.64 399.3 371.79 395.44 370.09 391.43 368.81 387.68 366.82 383.86 365.04 379.98 363.43 375.73 362.74 371.9 360.97 368.25 358.77 364.13 357.74 360.3 355.99 356.52 354.14 352.45 352.99 348.45 351.63 344.9 349.25 340.88 347.96 336.96 346.43 333.18 344.58 329.16 343.29 325.59 340.97 321.57 339.66 317.91 337.56 313.96 336.08 310.36 333.87 306.17 332.9 302.43 330.96 298.81 328.81 294.94 327.14 291.37 324.88 287.33 323.59 283.73 321.41 279.74 319.63 281.75 315.68 283.11 311.61 285.07 307.82 287.26 304.15 289.32 300.42 292.07 297.12 294.42 293.58 297.02 290.23 299.19 286.51 302.11 283.39 304.79 280.06 308.35 277.6 310.98 274.16 314.27 271.43 317.82 269.03 321.38 266.69 324.71 263.99 328.33 261.75 332.42 260.31 336.06 258.11 339.62 255.68 343.83 254.68 347.77 253.09 351.76 251.65 355.71 250.05 359.62 248.24 363.77 247.22 367.88 246.08 372.19 245.84 376.39 245.2 380.47 243.71 384.77 243.78 388.97 242.99 393.25 243.22 397.47 242.51 401.73 242.38 406.04 242.22 410.11 243.71 414.36 244.49 418.53 245.52 422.6 246.99 426.87 247.67 430.94 249.13 435.06 250.37 439.35 250.97 443.42 252.44 447.57 253.58 451.92 254 455.9 255.72 459.45 257.97 463.15 260.01 466.89 261.97 470.59 264.01 474.16 266.27 477.99 268.09 481.4 270.61 485.22 272.45 488.64 274.96 492.17 277.28 495.66 279.68 499.37 281.71 503.42 283.17 506.9 285.58 510.65 287.54 514.11 289.98 517.8 292.05 521.54 294.05 525.13 296.36 527.56 299.79 530.45 302.8 532.33 306.6 535.2 309.62 538.13 312.59 540.53 315.99 543.23 319.14 545.8 322.4 547.83 326.09 551.09 328.8 553.77 331.99 556.04 335.51 556.96 339.71 558.2 343.79 559.28 347.93 561.05 351.86 561.8 356.09 562.92 360.21 564.52 364.19 565.95 368.23 566.62 372.49 568.32 376.51 567.32 380.85 567.14 385.19 567.38 389.56 566.45 393.84 566.1 398.17 565.92 402.5 565.84 406.85 565.78 411.2 565.6 415.53 565.2 419.98"/><polygon class="cls-2" points="565.2 419.98 560.68 419.36 556.74 417.68 552.45 417.57 548.49 416 544.34 415.25 540.27 414.17 536.09 413.55 532.08 412.22 527.86 411.74 523.94 410.06 519.86 409.03 515.84 407.75 511.71 406.9 507.57 406.08 503.46 405.17 499.46 403.85 495.34 402.92 491.44 401.27 487.25 400.61 483.16 399.58 479.14 398.32 475.31 396.43 471.26 395.3 467.15 394.34 463.21 392.84 459.17 391.68 455.17 390.37 451.01 389.57 447.05 388.13 442.99 387 439.24 384.96 435.03 384.29 431.05 382.92 427.07 381.56 423.1 380.17 419.12 378.82 415.12 377.51 411.27 375.78 407.5 373.87 403.47 372.64 399.3 371.79 395.44 370.09 391.43 368.81 387.68 366.82 383.86 365.04 379.98 363.43 375.73 362.74 371.9 360.97 368.25 358.77 364.13 357.74 360.3 355.99 356.52 354.14 352.45 352.99 348.45 351.63 344.9 349.25 340.88 347.96 336.96 346.43 333.18 344.58 329.16 343.29 325.59 340.97 321.57 339.66 317.91 337.56 313.96 336.08 310.36 333.87 306.17 332.9 302.43 330.96 298.81 328.81 294.94 327.14 291.37 324.88 287.33 323.59 283.73 321.41 279.74 319.63 281.75 315.68 283.11 311.61 285.07 307.82 287.26 304.15 289.32 300.42 292.07 297.12 294.42 293.58 297.02 290.23 299.19 286.51 302.11 283.39 304.79 280.06 308.35 277.6 310.98 274.16 314.27 271.43 317.82 269.03 321.38 266.69 324.71 263.99 328.33 261.75 332.42 260.31 336.06 258.11 339.62 255.68 343.83 254.68 347.77 253.09 351.76 251.65 355.71 250.05 359.62 248.24 363.77 247.22 367.88 246.08 372.19 245.84 376.39 245.2 380.47 243.71 384.77 243.78 388.97 242.99 393.25 243.22 397.47 242.51 401.73 242.38 406.04 242.22 410.11 243.71 414.36 244.49 418.53 245.52 422.6 246.99 426.87 247.67 430.94 249.13 435.06 250.37 439.35 250.97 443.42 252.44 447.57 253.58 451.92 254 455.9 255.72 459.45 257.97 463.15 260.01 466.89 261.97 470.59 264.01 474.16 266.27 477.99 268.09 481.4 270.61 485.22 272.45 488.64 274.96 492.17 277.28 495.66 279.68 499.37 281.71 503.42 283.17 506.9 285.58 510.65 287.54 514.11 289.98 517.8 292.05 521.54 294.05 525.13 296.36 527.56 299.79 530.45 302.8 532.33 306.6 535.2 309.62 538.13 312.59 540.53 315.99 543.23 319.14 545.8 322.4 547.83 326.09 551.09 328.8 553.77 331.99 556.04 335.51 556.96 339.71 558.2 343.79 559.28 347.93 561.05 351.86 561.8 356.09 562.92 360.21 564.52 364.19 565.95 368.23 566.62 372.49 568.32 376.51 567.32 380.85 567.14 385.19 567.38 389.56 566.45 393.84 566.1 398.17 565.92 402.5 565.84 406.85 565.78 411.2 565.6 415.53 565.2 419.98"/><polyline points="401.55 415.25 405.48 416.77 409.65 417.63 413.46 419.53 417.6 420.48 421.26 422.78 425.39 423.75 429.44 424.95 433.53 426.04 437.38 427.81 441.33 429.29 445.39 430.46 449.24 432.27 453.24 433.6 457.5 434.17 461.4 435.81 465.52 436.79 469.27 438.93 473.28 440.23 477.47 440.98 481.4 442.55 485.49 443.62 489.44 445.11 493.6 445.95 497.45 447.76 501.71 448.25 505.62 449.93 509.63 451.24 513.75 452.2 517.74 453.59 521.79 454.77 525.95 455.57 530.04 456.61 534.09 457.78 538.15 458.9 542.23 459.97 546.44 460.52 550.4 462.06 554.63 462.51 558.67 463.74 562.85 464.34 566.86 465.74 570.92 466.96 575.12 467.47 579.31 467.94 583.9 468.27 580.92 464.86 578.4 461.25 575.64 457.82 572.82 454.44 570.6 450.6 567.89 447.14 565.37 443.53 562.33 440.29 560.15 436.24 555.95 436.65 552 435.7 547.96 435.99 544 435.3 539.97 434.8 535.94 434.19 532.05 432.86 527.96 432.53 523.92 432 519.98 430.89 515.91 430.46 512.02 429.13 508.02 428.38 503.98 427.36 500.08 425.9 496.04 424.85 492.05 423.65 488.09 422.35 484.16 420.98 480.37 419.17 476.27 418.29 472.26 417.18 468.46 415.42 464.5 414.12 460.47 413.06 456.62 411.43 452.6 410.31 448.69 408.87 444.75 407.5 440.74 406.37 436.8 404.99 432.93 403.43 428.9 402.35 424.97 400.96 420.98 399.72 416.89 398.77 412.91 397.34 409 395.77 405.46 393.3 401.27 392.42 397.35 390.87 393.49 389.18 389.57 387.63 385.8 385.72 381.97 383.96 377.87 382.84 373.98 381.22 370.18 379.38 366.12 378.19 362.25 376.51 358.57 374.38 354.7 372.7 350.66 371.45 346.89 369.54 342.75 368.52 338.87 366.89 335.1 364.96 331.1 363.61 327.22 361.97 323.28 360.45 319.42 358.74 315.44 357.34 311.78 355.14 307.69 354.01 303.88 352.14 300.11 350.28 296.58 348.2 292.66 346.76 289.18 344.56 285.71 342.34 282.31 340 278.93 337.64 275.21 335.84 271.56 333.94 267.89 332.06 264.76 329.24 261.04 327.07 256.86 328.82 252.71 329.9 248.53 330.9 244.38 332.05 240.08 332.53 235.86 333.39 231.72 334.56 227.55 335.58 223.57 337.18 227.14 339.12 230.43 341.83 234.2 343.76 237.57 346.4 241.27 348.47 245.09 350.3 248.97 352.02 252.94 353.54 256.36 356.18 260.23 357.92 264.14 359.55 267.98 361.34 271.97 362.81 275.54 365.18 279.38 366.97 283.49 368.16 287.29 370.03 291.1 371.86 294.99 373.56 298.85 375.29 302.95 376.48 306.58 378.77 310.67 379.96 314.69 381.32 318.42 383.39 322.26 385.19 326.5 386.03 330.35 387.79 334 390.09 338.02 391.45 342.16 392.5 346.05 394.2 349.93 395.93 353.76 397.75 358 398.54 361.68 400.78 365.65 402.27 369.6 403.82 373.81 404.66 377.5 406.9 381.49 408.34 385.77 408.98 389.48 411.19 393.47 412.62 397.63 413.61 401.52 415.34"/><polyline class="cls-2" points="401.55 415.25 405.48 416.77 409.65 417.63 413.46 419.53 417.6 420.48 421.26 422.78 425.39 423.75 429.44 424.95 433.53 426.04 437.38 427.81 441.33 429.29 445.39 430.46 449.24 432.27 453.24 433.6 457.5 434.17 461.4 435.81 465.52 436.79 469.27 438.93 473.28 440.23 477.47 440.98 481.4 442.55 485.49 443.62 489.44 445.11 493.6 445.95 497.45 447.76 501.71 448.25 505.62 449.93 509.63 451.24 513.75 452.2 517.74 453.59 521.79 454.77 525.95 455.57 530.04 456.61 534.09 457.78 538.15 458.9 542.23 459.97 546.44 460.52 550.4 462.06 554.63 462.51 558.67 463.74 562.85 464.34 566.86 465.74 570.92 466.96 575.12 467.47 579.31 467.94 583.9 468.27 580.92 464.86 578.4 461.25 575.64 457.82 572.82 454.44 570.6 450.6 567.89 447.14 565.37 443.53 562.33 440.29 560.15 436.24 555.95 436.65 552 435.7 547.96 435.99 544 435.3 539.97 434.8 535.94 434.19 532.05 432.86 527.96 432.53 523.92 432 519.98 430.89 515.91 430.46 512.02 429.13 508.02 428.38 503.98 427.36 500.08 425.9 496.04 424.85 492.05 423.65 488.09 422.35 484.16 420.98 480.37 419.17 476.27 418.29 472.26 417.18 468.46 415.42 464.5 414.12 460.47 413.06 456.62 411.43 452.6 410.31 448.69 408.87 444.75 407.5 440.74 406.37 436.8 404.99 432.93 403.43 428.9 402.35 424.97 400.96 420.98 399.72 416.89 398.77 412.91 397.34 409 395.77 405.46 393.3 401.27 392.42 397.35 390.87 393.49 389.18 389.57 387.63 385.8 385.72 381.97 383.96 377.87 382.84 373.98 381.22 370.18 379.38 366.12 378.19 362.25 376.51 358.57 374.38 354.7 372.7 350.66 371.45 346.89 369.54 342.75 368.52 338.87 366.89 335.1 364.96 331.1 363.61 327.22 361.97 323.28 360.45 319.42 358.74 315.44 357.34 311.78 355.14 307.69 354.01 303.88 352.14 300.11 350.28 296.58 348.2 292.66 346.76 289.18 344.56 285.71 342.34 282.31 340 278.93 337.64 275.21 335.84 271.56 333.94 267.89 332.06 264.76 329.24 261.04 327.07 256.86 328.82 252.71 329.9 248.53 330.9 244.38 332.05 240.08 332.53 235.86 333.39 231.72 334.56 227.55 335.58 223.57 337.18 227.14 339.12 230.43 341.83 234.2 343.76 237.57 346.4 241.27 348.47 245.09 350.3 248.97 352.02 252.94 353.54 256.36 356.18 260.23 357.92 264.14 359.55 267.98 361.34 271.97 362.81 275.54 365.18 279.38 366.97 283.49 368.16 287.29 370.03 291.1 371.86 294.99 373.56 298.85 375.29 302.95 376.48 306.58 378.77 310.67 379.96 314.69 381.32 318.42 383.39 322.26 385.19 326.5 386.03 330.35 387.79 334 390.09 338.02 391.45 342.16 392.5 346.05 394.2 349.93 395.93 353.76 397.75 358 398.54 361.68 400.78 365.65 402.27 369.6 403.82 373.81 404.66 377.5 406.9 381.49 408.34 385.77 408.98 389.48 411.19 393.47 412.62 397.63 413.61 401.52 415.34"/><g class="cls-4"><polyline class="cls-5" points="371.6 667.03 373.63 663.31 375.91 659.74 378.08 656.1 380.24 652.46 381.77 648.46 384.13 644.93 386.41 641.36 388.54 637.69 390.04 633.69 392.53 630.24 394.13 626.28 396.63 622.83 398.43 618.99 400.45 615.27 402.6 611.62 404.44 607.8 406.86 604.3 409.11 600.71 410.95 596.89 412.93 593.14 415.38 589.66 417.43 585.96 419.37 582.19 421.01 578.25 423.11 574.58 425.15 570.86 427.46 567.3 428.94 563.28 431.3 559.74 433.36 556.04 435.25 552.24 437.33 548.54 439.19 544.73 441.52 541.17 443.47 537.39 445.48 533.66 447.59 529.97 450.08 526.5 451.81 522.61 454.15 519.05 455.47 514.95 458.17 511.59 459.66 507.58 461.42 503.72 463.56 500.05 465.69 496.39 468.12 492.88 469.98 489.07 472 485.34 473.34 481.26 475.35 477.53 477.73 474 479.85 470.33 481.29 466.31 483.49 462.68 485.14 459.3 481.51 457.23 477.25 456.53 473.25 455.08 469.44 453.07 465.36 451.86 461.38 450.35 457.33 449.06 453.34 447.56 449.24 446.4 445.3 444.78 441.24 443.48 437.04 442.6 433.32 440.36 429.26 439.04 425.02 438.29 421.04 436.79 417.22 434.79 413.09 433.7 409.06 432.33 405.16 430.59 400.97 429.66 396.86 428.53 392.79 427.26 388.77 425.86 384.95 423.87 380.8 422.86 376.71 421.64 372.82 419.86 368.83 418.37 364.61 417.54 360.75 415.67 356.57 414.73 352.86 412.43 348.69 411.45 344.6 410.25 340.48 409.14 336.59 407.33 332.6 405.82 328.51 404.61 324.65 402.74 320.62 401.36 316.32 400.72 312.5 398.93"/></g></g></g></svg>