<svg xmlns="http://www.w3.org/2000/svg" viewBox="0 0 800 800"><defs><style>.a{fill:#fff}.b{fill:#e83131}.c{fill:#fca14f}</style></defs><path class="a" d="M252.45 174.09c.55 3.79-.28 8.56-1.06 13.33a7.2 7.2 0 0 1-3.81 4.88 3 3 0 0 1-4.05-.81c-1.56-2.47-3.4-4.89-4.33-7.61a64.17 64.17 0 0 1-3.06-26.26 42.33 42.33 0 0 0 .19-4.5c0-2-1-2.51-2.68-1.44a4.87 4.87 0 0 0-1.72 2c-1.58 3.27-3.24 6.53-4.5 9.92a30 30 0 0 0-2 9.11c-.2 4-.16 8 0 12.08a56.14 56.14 0 0 0 2.9 15.73c1.9 5.62 3.77 11.27 6.77 16.46 2.42 4.19 4.65 8.5 7.13 12.65 1.4 2.34 3.18 4.43 4.7 6.69 2.48 3.67 4.75 7.49 7.36 11.06a27.28 27.28 0 0 1 5.71 14.11 11.24 11.24 0 0 1-2 7.44c-1.31 1.92-1.81 2.14-4 1.5a8.75 8.75 0 0 1-2.17-1 16.33 16.33 0 0 1-5.75-6.85c-2.7-5.42-5.19-10.94-7.81-16.4A43.84 43.84 0 0 0 227 231.33c-2.77-2.34-5.66-4.6-9.21-5.63a7.93 7.93 0 0 0-4.07-.13c-2.19.58-2.53 2.73-1 4.41a34.1 34.1 0 0 1 3.75 4.67c2.63 4.31 5.18 8.7 6.12 13.75a170.78 170.78 0 0 0 6.22 22.37 60.26 60.26 0 0 0 3.93 9.17c2.26 4.3 5.94 7.56 8.95 11.32a22 22 0 0 0 3.81 3.84 44.35 44.35 0 0 0 12.5 6.55c4.73 1.58 9.41 3.55 14.52 3.91 3.61.25 7.19 1 10.79 1.1a16.12 16.12 0 0 1 10 3.41c3.15 2.55 6.9 3.21 10.73 3.63a3.93 3.93 0 0 0 2-.42c2.14-1.11 4.18-2.41 6.35-3.46 2.44-1.18 4.95-2.22 7.46-3.22 2.22-.88 4.15 0 5.93 1.28.41.3.69.75 1.1 1.05 1.24.91 2 .75 2.54-.7a18.56 18.56 0 0 0 1.55-5.18c.1-1.72-.07-3.86-1-5.16a39.93 39.93 0 0 0-7-7.43c-3.73-3-7.83-5.57-11.77-8.33a82 82 0 0 0-7.36-5.17c-6.8-3.74-9.9-9.79-11.07-17.08-1.1-6.82.75-13.32 3.1-19.53a123.55 123.55 0 0 0 4-13.3 26.54 26.54 0 0 0 .84-7.47c-.28-6.65-.89-13.29-1.31-19.94a17.55 17.55 0 0 1 6.65-15.45 95.64 95.64 0 0 1 10.35-6.8 29.66 29.66 0 0 1 14.3-4.32c3.71-.2 7.41-.65 11.11-1 1.51-.13 3-.36 4.52-.36 5.31 0 10.49-.3 15.66-2.07a42.35 42.35 0 0 0 12.16-6.49c2.32-1.76 4.69-3.49 7.15-5a41.71 41.71 0 0 1 27.7-4.81 72.5 72.5 0 0 1 9.93 2.6 73.79 73.79 0 0 1 12.78 5.19 53 53 0 0 0 11.29 4.35c4 1.18 8.13 1 12.28.71a77.55 77.55 0 0 1 20.72 1.15c5.29 1 8.66 4.2 11.81 7.79a16.7 16.7 0 0 1 3.72 9.71c.36 4.13.49 8.29-.71 12.31s-2.86 8-4 12a22.72 22.72 0 0 0-.1 13.12c1 3.15 2.39 6.18 3.44 9.31 1.26 3.73 2.48 7.48 3.46 11.29 1.54 6 3.77 11.87 3.28 18.3-.46 6-.54 12-3.43 17.58a39.21 39.21 0 0 1-7.42 10.51c-2.54 2.44-5.09 4.85-7.64 7.28a42.56 42.56 0 0 1-5.06 4.74c-3.48 2.36-5.28 6-7.85 9.11a8.27 8.27 0 0 0-1.45 3 95.9 95.9 0 0 0-2.44 9.35c-1.57 8.49-5.77 15.69-11 22.29-2.07 2.61-5.2 4.38-7.78 6.62a3.45 3.45 0 0 1-2.94.88c-5.86-.54-11.71-.42-17.32 1.66a2.11 2.11 0 0 1-2.45-.51c-.52-.48-1-1-1.52-1.48-1.3-1.11-2.93-1.46-4.15-.5-2.58 2-5.48 2-8.37 1.42-5.12-1.06-10.19-2.38-15.29-3.56a44.52 44.52 0 0 0-6.22-1.26 50.65 50.65 0 0 0-17.13 1.05c-5.95 1.53-12.05 2.62-17.85 4.59a161.43 161.43 0 0 0-16.91 7.3c-6 2.84-11.83 6-17.73 9-.89.46-1.77 1.39-2.61 1.34s-1.41-1.19-2.18-1.76a12.9 12.9 0 0 0-2.58-1.57c-2.32-1-4.7-1.82-7-2.74a6.89 6.89 0 0 0-4.73-.34 4.34 4.34 0 0 1-4.5-1 10.68 10.68 0 0 0-7.83-2.63c-3.9.18-7.89.11-11.12 3.07a3.29 3.29 0 0 1-4.42.17c-1.57-1.09-3.3-1.95-4.93-2.94-3.43-2.09-6.69-4.42-10.9-4.89-4.69-.53-9.25-1.66-14.1-.77a44.36 44.36 0 0 0-10.5 3.63c-7.28 3.34-13.47 8.08-17.63 15.28-2.38 4.13-4.47 8.28-5.28 13a23.87 23.87 0 0 0 .56 11.4 37 37 0 0 0 8.54 14.78c2.94 3 5.79 6.21 10.12 7.35 1.18.3 1.5 1.08 1.48 2.26 0 1.5.21 3 .31 4.51.17 2.43 1.83 4.22 2.69 6.33A31.25 31.25 0 0 0 240 449.36c1.07.72 2.2 1.38 3.29 2.07 3.82 2.41 8.16 3.41 12.45 4.49a29.67 29.67 0 0 0 11.06.84 34.47 34.47 0 0 0 5-1.06 32.31 32.31 0 0 0 6.27-2.1 55.36 55.36 0 0 0 13-9.29c3.23-3.12 6.43-6.4 7.53-11.06.32-1.34 1.22-1.37 2.52-1.39 5.56-.08 11.2-.25 15-5.27.78-1 1.63-.94 2.67-.67 1.2.32 1.43 1.07 1.54 2.23.3 3.16 1.07 6.2 3.83 8.25.89.66.76 1.31.08 2a34.66 34.66 0 0 0-2.74 2.82c-3.91 5.13-7.37 10.42-9.4 16.71-1.74 5.37-2.47 10.61-1.27 16a17.21 17.21 0 0 1-2.67 14.07c-3 4.4-6 8.78-9 13.24a25.88 25.88 0 0 0-4 11.88 54.13 54.13 0 0 0 .34 13.21 43.42 43.42 0 0 0 16.56 28.57c4.29 3.4 9.59 4.55 14.9 5.39a8.62 8.62 0 0 1 1.79.19c5.31 2.15 11 3.55 15.62 7.18 1.74 1.36 3.65 2.53 5.3 4 3 2.68 5.85 5.49 8.72 8.29 2.3 2.25 4.23 5 6.85 6.78 5.18 3.47 10.84 5.63 17.42 4.8 3-.38 6-.58 8.65-2.26a7.16 7.16 0 0 1 2-.8c2.54-.65 4.34-2.4 6.26-4 2.92-2.42 4.76-5.69 7.09-8.57 4.13-5.11 5.42-11.13 5.08-17.29-.33-5.89-2-11.7-2.8-17.57a89.57 89.57 0 0 1-.82-10.85 21.47 21.47 0 0 1 .75-6.89c1.71-5.35 4.39-10.11 9.47-13.11 1.29-.77 1.09-1.94-.22-2.81a4.18 4.18 0 0 0-3.46-.45c-5.34 1.17-10 3.41-13.61 7.71-2.67 3.17-5.24 6.36-6.71 10.3a63 63 0 0 0-3.71 21.62 21 21 0 0 1-6.46 15.2c-2.62 2.6-6.75 3.28-9.47 1.73-3-1.66-4-4.91-3-9 .83-3.62 2.67-6.73 4.55-9.85 2.64-4.38 4-8.91 2.49-14.1a116.24 116.24 0 0 1-2.68-12.11c-.44-2.49-.37-5.06 1.41-7.16 4-4.74 8.06-9.52 12.27-14.12a18.37 18.37 0 0 0 3.39-4.93c.65-1.48 1.57-2.85 2.1-4.36.94-2.65 1.73-5.35 2.42-8.08a3.94 3.94 0 0 0-.44-2.28c-.69-1.58-1.26-1.76-2.38-.53a42.64 42.64 0 0 0-4.72 5.86c-3.6 5.7-9 8.75-15.16 10.82-2.47.83-5.08 1.32-7.48 2.31-4.73 1.93-9.14 4.51-11.57 9.23a106.35 106.35 0 0 0-4.51 10.85c-.73 1.93-3.24 4.44-4.62 4.28-2-.25-5-3-5.12-5a14 14 0 0 1 2.2-9c1.59-2.3 3-4.72 5.21-6.59a35.33 35.33 0 0 0 3.26-3.54c2.47-2.78 3.13-6.37 3.88-9.76 1.4-6.39 5.47-10.68 10.43-14.32a21 21 0 0 1 9.76-3.83c3.67-.48 7.3-1.51 11-1.73a49.11 49.11 0 0 1 9.34.8c3.39.47 6.74 1.52 10.14 1.71 8.35.45 16.6 2 25 2 6.79 0 12.67-1.71 17.53-6.58a49.1 49.1 0 0 1 5.8-5.29 21.89 21.89 0 0 0 6.3-7.27c2.8-5 7.29-8.05 12-10.74s10-3.77 15.21-4.78c2.27-.43 4.7 0 7.06 0 1.82 0 2.6-1.18 1.67-2.72a5.9 5.9 0 0 0-2.38-2.19 32.09 32.09 0 0 0-5.67-2.07c-9.72-2.53-19.29-1.1-28.63 1.73-5.28 1.61-10.24 4.27-15.44 6.19-4.4 1.63-8.75 3.85-13.71 3-2-.32-4.09-.22-5.56-1.95a5.16 5.16 0 0 1-.53-1c.33-.16.64-.45 1-.47a39.29 39.29 0 0 0 12.49-3.4c2.31-1 4.64-1.95 6.94-3 3.38-1.5 6.83-2.87 10.08-4.61 6-3.22 12.42-5.3 18.78-7.54 2.53-.89 5.32-1 7.95-1.68 2.86-.69 4.64 0 5.64 3a7 7 0 0 0 4.76 4.74c2.6.7 5.21 1.71 8 1.09 1-.22 1.62.13 2.07 1.2a16.18 16.18 0 0 0 2.4 4.18 66.5 66.5 0 0 0 7 7.45c3.16 2.74 6.68 5.06 10.06 7.55a2.85 2.85 0 0 0 .87.24c5 1.46 10.06 2.9 15.09 4.37a27.52 27.52 0 0 0 13.1.31A42.88 42.88 0 0 0 564 447c2.74-1.45 5.82-2.4 8-4.77a37.93 37.93 0 0 1 3.47-3.78c2.62-2.12 4-5.05 5.38-7.91a26.18 26.18 0 0 0 2.43-11.44c0-5.88-2.76-10.74-6.22-15-1.83-2.27-1.47-3.76-.36-5.74.64-1.15 1.38-2.24 2-3.42a24.48 24.48 0 0 0 1.28-3.34c1.64-5.29.38-10.48-1.12-15.46a31.73 31.73 0 0 0-9-13.78c-6-5.62-13.52-7.84-21.53-8.56a21.79 21.79 0 0 0-5.07.41c-2.1.31-4.16.89-6.26 1.11s-2.34-.21-1.55-2.12c.7-1.67 1.38-3.35 2-5.06 1.32-3.69 2.44-7.45 3.93-11.07 2.17-5.24 5.67-9.27 11.28-11.1 3.67-1.19 6.75-3.5 10.1-5.31a24 24 0 0 0 5.32-3.43 80.9 80.9 0 0 0 7.8-8.44c5.95-7.54 8.94-16.34 10.43-25.72.25-1.54-1.72-4.78-3-4.83-1.83-.06-1.9 1.83-2.75 2.86a1.85 1.85 0 0 0-.25.55 39.18 39.18 0 0 1-18.87 19.68A92.15 92.15 0 0 1 544 308a28.91 28.91 0 0 0-7.54 3.06 49 49 0 0 0-14.6 14.3 12.78 12.78 0 0 1-6.37 4.93c-3.91 1.34-6.39-.62-5.48-4.66a37.2 37.2 0 0 1 2.8-6.94c1.82-4 4.81-7.15 7.89-10.24a72 72 0 0 1 13-10.38c4.19-2.59 8.45-5.1 12.53-7.85 2.75-1.86 5.24-4.1 7.87-6.13 1.51-1.16 3.31-2 4.58-3.39 3.21-3.46 6.24-7.08 9.26-10.72 3.81-4.6 5.71-10.09 7.37-15.75a34.89 34.89 0 0 0 .64-15.53c-.74-4.78-1.87-9.51-3.08-14.2-2.21-8.54-2.91-17.11-.89-25.75a39.81 39.81 0 0 1 2.81-8.28c2.67-5.5 6.61-10.1 10.94-14.38a13.09 13.09 0 0 0 2.27-3.39c.67-1.34.07-2.23-1.46-2a21.65 21.65 0 0 0-6.17 1.4 36.61 36.61 0 0 0-12.69 9.08A49.2 49.2 0 0 0 560.1 192c-2.43 5-5.06 9.85-5.77 15.48-.36 2.9-1.14 5.73-1.64 8.61-.57 3.27-1.4 6.47-1 9.89a41.21 41.21 0 0 1-.09 7.85c-.3 4.57-1.93 8.38-6.21 10.74a4.87 4.87 0 0 1-4.89.31 4 4 0 0 1-2-4.16c.33-2.69.82-5.37 1.35-8 .73-3.65 2.45-7.09 2.21-10.94-.14-2.21-.21-4.43-.26-6.65a21.62 21.62 0 0 0-2.07-9.09 39.52 39.52 0 0 1-3.68-11.04 13.89 13.89 0 0 1-.23-4.16c.58-4.09 2.93-7.3 6-9.88 4-3.4 8.13-6.6 12.34-9.71 4.52-3.34 7-8 8.81-13.08a11 11 0 0 0 .74-5.34c-1.19-6.85-2.66-13.64-4.1-20.44-.78-3.72-2.46-7.32-1.19-11.24.43-1.34.83-2.69 1.32-4a38.45 38.45 0 0 1 8.75-13.65 35.77 35.77 0 0 1 12.27-8.13 24.1 24.1 0 0 0 3.54-1.72 15.6 15.6 0 0 1 6.25-2.13 20.9 20.9 0 0 0 4.09-1 1.45 1.45 0 0 0 1.11-1.86 4.13 4.13 0 0 0-5-3.06 11.38 11.38 0 0 1-2.39.34c-6.57.17-13 .77-19.28 3.13a65.11 65.11 0 0 0-13.79 6.76 47.53 47.53 0 0 0-5.8 4.82c-3.67 3.46-7.73 6.61-10.28 11-2.76 4.8-5.1 9.84-7.78 14.69-3.1 5.62-7 7.55-11.7 6.49a28.73 28.73 0 0 1-4.3-1.39c-5.19-2.08-10.42-3.61-16.17-3a100.27 100.27 0 0 0-11.59 1.87 13.88 13.88 0 0 1-9.33-1.52c-2.31-1.16-3.59-4.62-2.4-6.77a86.83 86.83 0 0 1 5.75-9.16c1.64-2.25 3.95-4 5.54-6.29a29.47 29.47 0 0 0 4.43-8.16c.95-3.23.92-6.76 1.17-10.17.52-7 1.37-13.86 5-20.07 2.89-4.93 6.67-8.76 12.25-10.59a6.56 6.56 0 0 0 2.29-1.38 12.59 12.59 0 0 0 1.55-2c-.79-.53-1.55-1.1-2.37-1.58a2 2 0 0 0-.89-.1 28.71 28.71 0 0 0-16.78 4.29 46.38 46.38 0 0 0-12.65 12c-3.17 4.41-6.14 9-9.21 13.44-.8 1.16-1.74 2.23-2.46 3.43a7.87 7.87 0 0 1-4.38 3.49 108.51 108.51 0 0 1-14.86 4 47.79 47.79 0 0 1-20.11-.6 43.87 43.87 0 0 0-16.31-.41 26.14 26.14 0 0 0-12.56 5.49c-3.34 2.58-6.27 5.69-9.5 8.41a21.91 21.91 0 0 1-5.47 3.66c-2.8 1.16-4.95-.55-4.66-3.54a19.78 19.78 0 0 1 2.29-7.9 117.11 117.11 0 0 0 6.25-12.41 41.48 41.48 0 0 0 2.67-10.19c1-7.16-1.47-13.72-4.54-20a10.58 10.58 0 0 0-4.35-4.9c-2.67-1.47-3.61-1-3.88 1.92-.05.6 0 1.22 0 1.82-.44 3.68-.76 7.38-1.39 11-1.21 7-4.41 13.17-8.34 18.93a25.52 25.52 0 0 1-6.33 6.55 139.12 139.12 0 0 1-13.8 8.14c-3.9 2.06-8.09 3.58-12 5.58-4.18 2.12-8.46 3.85-12 7.33a40.5 40.5 0 0 0-7.83 10.13 106.61 106.61 0 0 0-5.34 13.14 15 15 0 0 1-3.33 5.69c-2.15 2.13-4.28 4.35-7.66 4.36-2.51 0-3.76-.89-3.7-3.33a25.47 25.47 0 0 1 2.12-10.56c2.15-4.52 4.11-9.14 6-13.78 2.43-6 2.88-12.32 2.8-18.69A30.71 30.71 0 0 0 307 87.79a13.71 13.71 0 0 0-5.6-6.79c-1.56-1-2.81-.25-2.83 1.61a46.3 46.3 0 0 0 .34 4.84 38.48 38.48 0 0 1-2.4 17.21c-1.62 4.36-4.22 8.41-6.75 12.37-1.93 3-4.49 5.65-6.64 8.55a87 87 0 0 1-13.49 14.23c-1.54 1.3-3 2.74-4.41 4.15-2 1.89-3.86 3.83-5.8 5.73a22.19 22.19 0 0 0-6.42 10.39c-1.07 4.28-1 8.59-.55 14.01zm199.17 46.7c-.26-2.88-.34-5.5-.76-8.07-1.35-8.33-5-15.27-12.39-19.84-1.37-.84-3-1.37-4.28-2.26-4.67-3.12-9.63-2.1-14.59-1.18-3.24.59-5.77 2.61-8.58 4.13a22.35 22.35 0 0 0-8.63 8.18c-.58.95-1.08 1.95-1.66 2.89-1.39 2.22-1.75 2.21-3.11-.16-.7-1.22-1.21-2.57-2-3.73-3.38-5-7.77-8.83-13.49-10.71a21.07 21.07 0 0 0-10.13-1.17 34.77 34.77 0 0 0-7.54 2.06 61.92 61.92 0 0 0-8.51 4.52 21.69 21.69 0 0 0-9.69 12.27c-3.42 11.15-1.78 22 2.7 32.43 3.57 8.32 7.5 16.49 11.37 24.69q4 8.61 8.37 17.1c2.23 4.4 4.78 8.64 6.94 13.07a72.9 72.9 0 0 0 6.13 10.36c2.33 3.27 4.22 6.83 6.46 10.16q2.94 4.39 6.25 8.52c1.44 1.8 2.16 1.85 4 .28a19.08 19.08 0 0 0 3.82-4.16c4.87-7.62 9.61-15.33 14.38-23 3-4.87 6.07-9.73 9-14.66q5.76-9.76 11.32-19.65c1.76-3.15 3.36-6.42 4.83-9.72 1.93-4.31 3.39-8.85 5.55-13 3.23-6.26 4.07-12.83 4.24-19.35zM372.63 750c1.52-.37 3.06-.69 4.57-1.11s3.24-1.11 4.89-1.53c5.55-1.41 11.16-2.6 16.67-4.16a118.46 118.46 0 0 0 11.66-4.09 6.23 6.23 0 0 0 2.86-2.51c2.38-4.21 4.57-8.52 6.78-12.82 3.26-6.36 6.4-12.78 9.72-19.12 2.62-5 5.42-9.9 8.16-14.83q7.5-13.47 15-26.93c.62-1.11 1-2.36 0-3.37-1.74-1.75-3-3.91-5.38-5.09a87.41 87.41 0 0 1-8.47-5.24l-37-23.68c-4.39-2.81-8.88-5.49-13.13-8.5a63 63 0 0 0-11.26-6.81c-1.91-.83-3.58-1.45-5.75-.71a45.53 45.53 0 0 1-8.75 2.1 72.46 72.46 0 0 0-9.7 2.08c-3.88 1-7.86 1.74-11.79 2.59a8.57 8.57 0 0 0-5.61 4.12c-3.28 5.66-6.22 11.52-9.32 17.28-1.24 2.31-2.61 4.55-3.82 6.87-1 1.86-1.63 3.91-2.72 5.69a189 189 0 0 0-9.69 17.23c-1.59 3.36-3.52 6.56-5.36 9.8-3.94 6.9-7.86 13.82-11.9 20.66-1.81 3.07-1.1 6.52 2.06 8.26 3.94 2.18 7.39 5.1 11.62 6.9 3.48 1.47 6.58 3.83 9.84 5.8s6.51 4 9.82 6c5.59 3.21 11.27 6.25 16.83 9.5 7.2 4.21 14.25 8.7 21.54 12.75 2.29 1.2 4.48 3.33 7.63 2.87z"/><path d="M252.45 174.09c-.42-5.42-.52-9.73.58-14a22.19 22.19 0 0 1 6.39-10.43c1.94-1.9 3.85-3.84 5.8-5.73 1.44-1.41 2.87-2.85 4.41-4.15a87 87 0 0 0 13.49-14.23c2.15-2.9 4.71-5.52 6.64-8.55 2.53-4 5.13-8 6.75-12.37a38.48 38.48 0 0 0 2.4-17.21 46.3 46.3 0 0 1-.34-4.84c0-1.86 1.27-2.59 2.83-1.61a13.71 13.71 0 0 1 5.6 6.82A30.71 30.71 0 0 1 309.28 99c.08 6.37-.37 12.7-2.8 18.69-1.88 4.64-3.84 9.26-6 13.78a25.47 25.47 0 0 0-2.11 10.53c-.06 2.44 1.19 3.34 3.7 3.33 3.38 0 5.51-2.23 7.66-4.36a15 15 0 0 0 3.33-5.69 106.61 106.61 0 0 1 5.34-13.14 40.5 40.5 0 0 1 7.83-10.14c3.58-3.48 7.86-5.21 12-7.33 3.93-2 8.12-3.52 12-5.58A139.12 139.12 0 0 0 364.09 91a25.52 25.52 0 0 0 6.25-6.52c3.93-5.76 7.13-12 8.34-18.93.63-3.65.95-7.35 1.39-11 .07-.6 0-1.22 0-1.82.27-3 1.21-3.39 3.88-1.92a10.58 10.58 0 0 1 4.35 4.9c3.07 6.31 5.5 12.87 4.54 20a41.48 41.48 0 0 1-2.67 10.19A117.11 117.11 0 0 1 384 98.28a19.78 19.78 0 0 0-2.26 7.79c-.29 3 1.86 4.7 4.66 3.54a21.91 21.91 0 0 0 5.47-3.66c3.23-2.72 6.16-5.83 9.5-8.41a26.14 26.14 0 0 1 12.56-5.49 43.87 43.87 0 0 1 16.31.41 47.79 47.79 0 0 0 20.11.6 108.51 108.51 0 0 0 14.86-4 7.87 7.87 0 0 0 4.38-3.49c.72-1.2 1.66-2.27 2.46-3.43 3.07-4.48 6-9 9.21-13.44a46.38 46.38 0 0 1 12.65-12 28.71 28.71 0 0 1 16.78-4.29 2 2 0 0 1 .89.1c.82.48 1.58 1.05 2.37 1.58a12.59 12.59 0 0 1-1.55 2 6.56 6.56 0 0 1-2.29 1.38c-5.58 1.83-9.36 5.66-12.25 10.59-3.65 6.21-4.5 13.09-5 20.07-.25 3.41-.22 6.94-1.17 10.17a29.47 29.47 0 0 1-4.43 8.16c-1.59 2.28-3.9 4-5.54 6.29a86.83 86.83 0 0 0-5.75 9.16c-1.19 2.15.09 5.61 2.4 6.77a13.88 13.88 0 0 0 9.33 1.52 100.27 100.27 0 0 1 11.59-1.87c5.75-.56 11 1 16.17 3a28.73 28.73 0 0 0 4.3 1.39c4.67 1.06 8.6-.87 11.7-6.49 2.68-4.85 5-9.89 7.78-14.69 2.55-4.43 6.61-7.58 10.28-11a47.53 47.53 0 0 1 5.8-4.82A65.11 65.11 0 0 1 569.05 89c6.26-2.36 12.71-3 19.28-3.13a11.38 11.38 0 0 0 2.39-.34 4.13 4.13 0 0 1 5 3.06 1.45 1.45 0 0 1-1.11 1.86 20.9 20.9 0 0 1-4.09 1 15.6 15.6 0 0 0-6.25 2.13 24.1 24.1 0 0 1-3.54 1.72 35.77 35.77 0 0 0-12.27 8.13 38.45 38.45 0 0 0-8.75 13.65c-.49 1.31-.89 2.66-1.32 4-1.27 3.92.41 7.52 1.19 11.24 1.44 6.8 2.91 13.59 4.1 20.44a11 11 0 0 1-.74 5.34c-1.81 5.08-4.29 9.74-8.81 13.08-4.21 3.11-8.37 6.31-12.34 9.71-3 2.58-5.38 5.79-6 9.88a13.89 13.89 0 0 0 .23 4.16 39.52 39.52 0 0 0 3.75 11.07 21.62 21.62 0 0 1 2.07 9.09c0 2.22.12 4.44.26 6.65.24 3.85-1.48 7.29-2.21 10.94-.53 2.66-1 5.34-1.35 8a4 4 0 0 0 2 4.16 4.87 4.87 0 0 0 4.89-.31c4.28-2.36 5.91-6.17 6.21-10.74a41.21 41.21 0 0 0 .09-7.85c-.42-3.42.41-6.62 1-9.89.5-2.88 1.28-5.71 1.64-8.61.71-5.63 3.34-10.52 5.77-15.48a49.2 49.2 0 0 1 7.59-10.88 36.61 36.61 0 0 1 12.69-9.08 21.65 21.65 0 0 1 6.17-1.4c1.53-.2 2.13.69 1.46 2a13.09 13.09 0 0 1-2.35 3.42c-4.33 4.28-8.27 8.88-10.94 14.38a39.81 39.81 0 0 0-2.81 8.28c-2 8.64-1.32 17.21.89 25.75 1.21 4.69 2.34 9.42 3.08 14.2a34.89 34.89 0 0 1-.64 15.53c-1.66 5.66-3.56 11.15-7.37 15.75-3 3.64-6 7.26-9.26 10.72-1.27 1.37-3.07 2.23-4.58 3.39-2.63 2-5.12 4.27-7.87 6.13-4.08 2.75-8.34 5.26-12.53 7.85a72 72 0 0 0-13 10.38c-3.08 3.09-6.07 6.21-7.89 10.24a37.2 37.2 0 0 0-2.8 6.94c-.91 4 1.57 6 5.48 4.66a12.78 12.78 0 0 0 6.37-4.93 49 49 0 0 1 14.6-14.3A28.91 28.91 0 0 1 544 308a92.15 92.15 0 0 0 17.43-6.74 39.18 39.18 0 0 0 18.87-19.68 1.85 1.85 0 0 1 .25-.55c.85-1 .92-2.92 2.75-2.86 1.3.05 3.27 3.29 3 4.83-1.49 9.38-4.48 18.18-10.43 25.72a80.9 80.9 0 0 1-7.8 8.44 24 24 0 0 1-5.32 3.43c-3.35 1.81-6.43 4.12-10.1 5.31-5.61 1.83-9.11 5.86-11.28 11.1-1.49 3.62-2.61 7.38-3.93 11.07-.62 1.71-1.3 3.39-2 5.06-.79 1.91-.58 2.34 1.55 2.12s4.16-.8 6.26-1.11a21.79 21.79 0 0 1 5.07-.41c8 .72 15.54 2.94 21.53 8.56a31.73 31.73 0 0 1 9 13.78c1.5 5 2.76 10.17 1.12 15.46a24.48 24.48 0 0 1-1.28 3.34c-.57 1.18-1.31 2.27-2 3.42-1.11 2-1.47 3.47.36 5.74 3.46 4.29 6.27 9.15 6.22 15a26.18 26.18 0 0 1-2.43 11.44c-1.42 2.86-2.76 5.79-5.38 7.91a37.93 37.93 0 0 0-3.47 3.78c-2.19 2.37-5.27 3.32-8 4.77a42.88 42.88 0 0 1-12.31 4 27.52 27.52 0 0 1-13.1-.31c-5-1.47-10.06-2.91-15.09-4.37a2.85 2.85 0 0 1-.87-.24c-3.38-2.49-6.9-4.81-10.06-7.55a66.5 66.5 0 0 1-7-7.45 16.18 16.18 0 0 1-2.4-4.18c-.45-1.07-1-1.42-2.07-1.2-2.8.62-5.41-.39-8-1.09a7 7 0 0 1-4.76-4.74c-1-3-2.78-3.72-5.64-3-2.63.64-5.42.79-7.95 1.68-6.3 2.26-12.74 4.34-18.74 7.52-3.25 1.74-6.7 3.11-10.08 4.61-2.3 1-4.63 2-6.94 3a39.29 39.29 0 0 1-12.49 3.4c-.34 0-.65.31-1 .47a5.16 5.16 0 0 0 .53 1c1.47 1.73 3.6 1.63 5.56 1.95 5 .83 9.31-1.39 13.71-3 5.2-1.92 10.16-4.58 15.44-6.19 9.34-2.83 18.91-4.26 28.63-1.73a32.09 32.09 0 0 1 5.67 2.07 5.9 5.9 0 0 1 2.38 2.19c.93 1.54.15 2.71-1.67 2.72-2.36 0-4.79-.45-7.06 0-5.23 1-10.53 2.12-15.21 4.78S464.3 447 461.5 452a21.89 21.89 0 0 1-6.3 7.27 49.1 49.1 0 0 0-5.8 5.29c-4.86 4.87-10.74 6.61-17.53 6.58-8.41 0-16.66-1.58-25-2-3.4-.19-6.75-1.24-10.14-1.71a49.11 49.11 0 0 0-9.34-.8c-3.68.22-7.31 1.25-11 1.73a21 21 0 0 0-9.76 3.83c-5 3.64-9 7.93-10.43 14.32-.75 3.39-1.41 7-3.88 9.76a35.33 35.33 0 0 1-3.26 3.54c-2.17 1.87-3.62 4.29-5.21 6.59a14 14 0 0 0-2.2 9c.11 2.07 3.07 4.78 5.12 5 1.38.16 3.89-2.35 4.62-4.28a106.35 106.35 0 0 1 4.51-10.85c2.43-4.72 6.84-7.3 11.57-9.23 2.4-1 5-1.48 7.48-2.31 6.14-2.07 11.56-5.12 15.16-10.82a42.64 42.64 0 0 1 4.72-5.86c1.12-1.23 1.69-1.05 2.38.53a3.94 3.94 0 0 1 .44 2.28c-.69 2.73-1.48 5.43-2.42 8.08-.53 1.51-1.45 2.88-2.1 4.36a18.37 18.37 0 0 1-3.39 4.93c-4.21 4.6-8.22 9.38-12.27 14.12-1.78 2.1-1.85 4.67-1.41 7.16a116.24 116.24 0 0 0 2.68 12.11c1.5 5.19.15 9.72-2.49 14.1-1.88 3.12-3.72 6.23-4.55 9.85-.94 4.09.07 7.34 3 9 2.72 1.55 6.85.87 9.47-1.73a21 21 0 0 0 6.46-15.2 63 63 0 0 1 3.74-21.64c1.47-3.94 4-7.13 6.71-10.3 3.6-4.3 8.27-6.54 13.61-7.71a4.18 4.18 0 0 1 3.46.45c1.31.87 1.51 2 .22 2.81-5.08 3-7.76 7.76-9.47 13.11a21.47 21.47 0 0 0-.75 6.89 89.57 89.57 0 0 0 .82 10.85c.84 5.87 2.47 11.68 2.8 17.57.34 6.16-.95 12.18-5.08 17.29-2.33 2.88-4.17 6.15-7.09 8.57-1.92 1.6-3.72 3.35-6.26 4a7.16 7.16 0 0 0-2 .8c-2.66 1.68-5.61 1.88-8.65 2.26-6.58.83-12.24-1.33-17.42-4.8-2.62-1.75-4.55-4.53-6.85-6.78-2.87-2.8-5.74-5.61-8.72-8.29-1.65-1.47-3.56-2.64-5.3-4-4.64-3.63-10.31-5-15.62-7.18a8.62 8.62 0 0 0-1.79-.19c-5.31-.84-10.61-2-14.9-5.39a43.42 43.42 0 0 1-16.56-28.57 54.13 54.13 0 0 1-.34-13.21 25.88 25.88 0 0 1 4-11.88c2.92-4.46 6-8.84 9-13.24a17.21 17.21 0 0 0 2.7-14.06c-1.2-5.43-.47-10.67 1.27-16 2-6.29 5.49-11.58 9.4-16.71a34.66 34.66 0 0 1 2.74-2.82c.68-.69.81-1.34-.08-2-2.76-2-3.53-5.09-3.83-8.25-.11-1.16-.34-1.91-1.54-2.23-1-.27-1.89-.35-2.67.67-3.84 5-9.48 5.19-15 5.27-1.3 0-2.2.05-2.52 1.39-1.1 4.66-4.3 7.94-7.53 11.06a55.36 55.36 0 0 1-13 9.29 32.31 32.31 0 0 1-6.27 2.1 34.47 34.47 0 0 1-5 1.06 29.67 29.67 0 0 1-11.06-.84c-4.29-1.08-8.63-2.08-12.45-4.49-1.09-.69-2.22-1.35-3.29-2.07a31.25 31.25 0 0 1-11.65-14.65c-.86-2.11-2.52-3.9-2.69-6.33-.1-1.5-.33-3-.31-4.51 0-1.18-.3-2-1.48-2.26-4.33-1.14-7.18-4.31-10.12-7.35a37 37 0 0 1-8.54-14.78 23.87 23.87 0 0 1-.56-11.4c.81-4.69 2.9-8.84 5.28-13 4.16-7.2 10.35-11.94 17.63-15.28a44.36 44.36 0 0 1 10.5-3.63c4.85-.89 9.41.24 14.1.77 4.21.47 7.47 2.8 10.9 4.89 1.63 1 3.36 1.85 4.93 2.94a3.29 3.29 0 0 0 4.42-.17c3.23-3 7.22-2.89 11.12-3.07a10.68 10.68 0 0 1 7.83 2.63 4.34 4.34 0 0 0 4.5 1 6.89 6.89 0 0 1 4.73.34c2.35.92 4.73 1.76 7 2.74a12.9 12.9 0 0 1 2.58 1.57c.77.57 1.42 1.72 2.18 1.76s1.72-.88 2.61-1.34c5.9-3 11.75-6.14 17.73-9a161.43 161.43 0 0 1 16.91-7.3c5.8-2 11.9-3.06 17.85-4.59a50.65 50.65 0 0 1 17.13-1.05 44.52 44.52 0 0 1 6.22 1.26c5.1 1.18 10.17 2.5 15.29 3.56 2.89.6 5.79.63 8.37-1.42 1.22-1 2.85-.61 4.15.5.54.45 1 1 1.52 1.48a2.11 2.11 0 0 0 2.45.51c5.61-2.08 11.46-2.2 17.32-1.66a3.45 3.45 0 0 0 2.94-.88c2.58-2.24 5.71-4 7.78-6.62 5.22-6.6 9.42-13.8 11-22.29a95.9 95.9 0 0 1 2.44-9.35 8.27 8.27 0 0 1 1.45-3c2.57-3.07 4.37-6.75 7.85-9.11a42.56 42.56 0 0 0 5.06-4.74c2.55-2.43 5.1-4.84 7.64-7.28a39.21 39.21 0 0 0 7.42-10.51c2.89-5.62 3-11.57 3.43-17.58.49-6.43-1.74-12.29-3.28-18.3-1-3.81-2.2-7.56-3.46-11.29-1.05-3.13-2.42-6.16-3.44-9.31a22.72 22.72 0 0 1 .1-13.12c1.11-4.07 2.76-8 4-12s1.07-8.18.71-12.31a16.7 16.7 0 0 0-3.72-9.71c-3.15-3.59-6.52-6.78-11.81-7.79a77.55 77.55 0 0 0-20.77-1.15c-4.15.32-8.3.47-12.28-.71a53 53 0 0 1-11.23-4.35 73.79 73.79 0 0 0-12.79-5.25 72.5 72.5 0 0 0-9.93-2.6 41.71 41.71 0 0 0-27.73 4.79c-2.46 1.55-4.83 3.28-7.15 5a42.35 42.35 0 0 1-12.19 6.53c-5.17 1.77-10.35 2.05-15.66 2.07-1.5 0-3 .23-4.52.36-3.7.33-7.4.78-11.11 1a29.66 29.66 0 0 0-14.3 4.32 95.64 95.64 0 0 0-10.35 6.8 17.55 17.55 0 0 0-6.65 15.45c.42 6.65 1 13.29 1.31 19.94a26.54 26.54 0 0 1-.84 7.47 123.55 123.55 0 0 1-4 13.3c-2.35 6.21-4.2 12.71-3.1 19.53 1.17 7.29 4.27 13.34 11.07 17.08a82 82 0 0 1 7.36 5.17c3.94 2.76 8 5.31 11.77 8.33a39.93 39.93 0 0 1 7 7.43c.95 1.3 1.12 3.44 1 5.16a18.56 18.56 0 0 1-1.55 5.18c-.54 1.45-1.3 1.61-2.54.7-.41-.3-.69-.75-1.1-1.05-1.78-1.31-3.71-2.16-5.93-1.28-2.51 1-5 2-7.46 3.22-2.17 1.05-4.21 2.35-6.35 3.46a3.93 3.93 0 0 1-2 .42c-3.83-.42-7.58-1.08-10.73-3.63a16.12 16.12 0 0 0-10-3.41c-3.6-.12-7.18-.85-10.79-1.1-5.11-.36-9.79-2.33-14.52-3.91a44.35 44.35 0 0 1-12.5-6.55 22 22 0 0 1-3.81-3.84c-3-3.76-6.69-7-8.95-11.32a60.26 60.26 0 0 1-3.93-9.17 170.78 170.78 0 0 1-6.22-22.37c-.94-5.05-3.49-9.44-6.12-13.75a34.1 34.1 0 0 0-3.78-4.67c-1.5-1.68-1.16-3.83 1-4.41a7.93 7.93 0 0 1 4.07.13c3.55 1 6.44 3.29 9.21 5.63a43.84 43.84 0 0 1 11.21 14.84c2.62 5.46 5.11 11 7.81 16.4a16.33 16.33 0 0 0 5.75 6.85 8.75 8.75 0 0 0 2.17 1c2.21.64 2.71.42 4-1.5a11.24 11.24 0 0 0 2-7.44 27.28 27.28 0 0 0-5.63-14.15c-2.61-3.57-4.88-7.39-7.36-11.06-1.52-2.26-3.3-4.35-4.7-6.69-2.48-4.15-4.71-8.46-7.13-12.65-3-5.19-4.87-10.84-6.77-16.46a56.14 56.14 0 0 1-2.9-15.73c-.17-4-.21-8 0-12.08a30 30 0 0 1 2-9.11c1.26-3.39 2.92-6.65 4.5-9.92a4.87 4.87 0 0 1 1.72-2c1.7-1.07 2.64-.54 2.68 1.44a42.33 42.33 0 0 1-.19 4.5 64.17 64.17 0 0 0 3.06 26.26c.93 2.72 2.77 5.14 4.33 7.61a3 3 0 0 0 4.05.81 7.2 7.2 0 0 0 3.81-4.88c.78-4.74 1.61-9.51 1.06-13.3zm266.76 199.29l-.28-.45-.29.32.45.27c.3.93.58 1.86.93 2.77.72 1.88 2 3.69 2.16 5.61.89 8.57.77 17.13-1.75 25.48a14.77 14.77 0 0 1-1.92 4.39 3.28 3.28 0 0 0-.23 3.63c2 4.93 5.37 8.91 9 12.66a35 35 0 0 0 15 8.76c6.39 2 12.93 2.49 19.27-.14 2.38-1 4.47-2.68 6.68-4.08 4.8-3.06 7.31-7.68 8.51-13a9.55 9.55 0 0 0-1.73-8 35.57 35.57 0 0 1-2.58-4.09c-.51-.92-.94-1.16-1.84-.51-1.47 1.05-3.28 1.76-4.46 3.05-3.45 3.76-8.06 4.34-12.64 5.05a4.94 4.94 0 0 1-2.89-.56 3.15 3.15 0 0 1-1.46-2c-.14-1.12 1-1.26 1.89-1.5 1.74-.48 3.72-.7 5.1-1.72 3.88-2.85 7.5-5.9 9.62-10.59 2.52-5.61 3.12-10.95.36-16.56-1.63-3.32-3.6-6.48-6.59-8.56-5.58-3.9-11.76-5.06-18.41-2.8-4.08 1.38-4.2 1.34-2.43 5.28a33 33 0 0 1 2.92 15.58c-.22 4.25-.91 8.46-3.5 12a8.09 8.09 0 0 1-2.76 2.21 2.12 2.12 0 0 1-1.93-.34 2 2 0 0 1-.34-1.86c1.22-2.58.6-5.32.73-8 .29-5.8-1.75-10.86-5.28-15.42-2.52-3.26-5.28-5.87-9.31-6.88zM253.77 276l-3.62-.21c-1.43-.09-1.61.15-.91 1.48.61 1.15 1.51 2.17 2 3.36 2.65 6.07 7.36 10.27 12.72 13.78a11.46 11.46 0 0 0 6.46 2.24 85.22 85.22 0 0 1 8.72.74c5.86.54 11.2 3.05 16.85 4.39a61 61 0 0 0 8 1.54c2.17.21 4.88-2 5.34-3.79.42-1.61-.78-3.66-2.86-4.82-3-1.65-6.08-3.15-9-4.93-5-3-8.82-7.1-10.76-12.63a104.2 104.2 0 0 1-2.88-10.81 13.3 13.3 0 0 1-.46-5.07 140.06 140.06 0 0 1 3.48-16.84c1.51-5 3.95-9.71 6-14.52 2-4.5 3.34-9 2.57-14.06-.3-2 0-4-.22-6.05-.23-2.39-.26-4.93-1.13-7.11a24.41 24.41 0 0 1-1.07-12.8c1.25-8.34 4.88-15.57 12.23-20.42a60.69 60.69 0 0 1 11.83-5.88 34.84 34.84 0 0 1 12.59-2.42c7.55 0 15.1.5 22.65.76 6.94.24 13.49-.69 18.4-6.37 1-1.13 2.1-2.13 3.19-3.16a52.11 52.11 0 0 1 16.1-11c1.95-.8 3.9-1.92 5.93-2.14a44.07 44.07 0 0 1 18.5 1.8 61.86 61.86 0 0 1 16.62 8.48 40.13 40.13 0 0 0 11.58 5.82c4.05 1.23 8.19 1.08 12.28 1.43a85.2 85.2 0 0 0 10.23-.08c5.06-.18 10.19-.37 15 1.05 7.14 2.08 13.69 5.46 18.37 11.55 1.77 2.31 3.48 4.77 3.95 7.74 1.43 9 .82 14.35-2.75 22.41a65.49 65.49 0 0 0-4.39 14.43 17.12 17.12 0 0 0-.25 5.66 75.3 75.3 0 0 0 2.2 9.71c1.13 3.86 2.61 7.63 3.81 11.47 1.44 4.61 3 9.21 4.06 13.91a48.24 48.24 0 0 1 .45 18.25c-1.63 10.85-7.46 19.24-14.51 27a31.28 31.28 0 0 1-5.83 4.78c-4 2.64-7.77 5.43-10.61 9.29-1.36 1.84-2.94 3.71-3.64 5.82-1.87 5.63-3.46 11.36-4.89 17.12-1.7 6.86-4.25 13.23-9.17 18.48-1.33 1.42-1.27 1.59.63 2.52 4.15 2 8.23 4.3 12.52 6s8.83 2.84 13.29 4.11a3.88 3.88 0 0 0 2.28-.28c3.29-1.22 6.53-2.56 9.82-3.76a5.85 5.85 0 0 1 2.4-.13 3.83 3.83 0 0 0 3.25-1.15 12.76 12.76 0 0 1 6.84-3.66 35.22 35.22 0 0 1 7.79-.44 5.49 5.49 0 0 0 5.3-2.08 21.34 21.34 0 0 1 1.7-1.73 43.41 43.41 0 0 0 10.65-16.63 28.93 28.93 0 0 1 3.29-6.78c2-2.92 3.88-6.14 7.73-7.17a4.42 4.42 0 0 0 1.5-1 5.44 5.44 0 0 0 .65-.9 5.33 5.33 0 0 0-1.18-.1 18.77 18.77 0 0 0-10.17 4.87c-2.34 2-4.68 4.13-6.88 6.3a40.17 40.17 0 0 1-9.67 6.61 11.17 11.17 0 0 1-5.5 1.25 11.39 11.39 0 0 1-9.59-5.43 11.12 11.12 0 0 1-2-6.77c.18-4.54 2.1-8.58 3.16-12.86a5.29 5.29 0 0 1 .78-1.29c1.86-3 3.69-6 6.37-8.38 2.33-2.07 4.39-4.5 6.92-6.28 4.7-3.3 9.73-6.11 14.46-9.37a134 134 0 0 0 12.73-9.53c3.92-3.44 7.38-7.41 11-11.2a40.33 40.33 0 0 0 10.22-19.27 117.9 117.9 0 0 0 2.09-13.77c.22-2.16-.3-4.4-.51-6.61a3.12 3.12 0 0 0-.31-.85c-.27.25-.63.44-.8.75-2.42 4.3-4.79 8.61-8.19 12.26-2.27 2.43-4.34 5.05-6.72 7.36-3.56 3.48-8 4.18-12.62 2.94a8.06 8.06 0 0 1-6.39-7.27 37.07 37.07 0 0 1 .07-7.22c.41-4.1 1.34-8.17 1.55-12.27.27-5.25-.21-10.51-2.68-15.29-1.93-3.75-4.21-7.32-5.6-11.34a16.43 16.43 0 0 1-.2-10.66c2.06-6.51 6.76-10.93 12-14.82a60.3 60.3 0 0 0 16.48-18.29 3.68 3.68 0 0 0 .41-1.12c1-4.93.38-9.86-.47-14.68-.81-4.62-2.37-9.1-2.33-13.86a3.22 3.22 0 0 0-.41-1 4.25 4.25 0 0 0-1 .51c-1.54 1.43-2.87 3.2-4.62 4.29a99.41 99.41 0 0 1-11.64 6.36c-4.81 2.16-9.86 3.49-15.19 1.68a11.94 11.94 0 0 0-2.09-.26c-1.6-.22-3.2-.41-4.78-.7-3.06-.57-6.08-1.47-9.17-1.74a18.13 18.13 0 0 0-8.33.72 56.12 56.12 0 0 1-9.86 2.73c-7.09 1.27-12.9-1.58-16.91-6.89a5.78 5.78 0 0 1-.9-1.89c-1.49-5.29 0-10 3.2-14.16 3.64-4.81 8.19-8.92 11.13-14.26 1.26-2.29 2.34-4.67 3.43-7 .15-.34-.13-.9-.21-1.35a5.51 5.51 0 0 0-1.07.5 35 35 0 0 1-10.7 5.35 43.07 43.07 0 0 1-7 1.53c-5 .68-10 1.42-15 1.7a88.42 88.42 0 0 1-25.11-2.14 25.38 25.38 0 0 0-13.42.68 16.36 16.36 0 0 0-5.75 3.23c-3.39 3-6.52 6.26-9.7 9.47a20.16 20.16 0 0 1-7.5 4.94 9.34 9.34 0 0 1-9.43-1.36c-4.19-3.28-5.43-7.77-4.6-12.9.19-1.18.68-2.32 1-3.49a6.6 6.6 0 0 0 .11-1.09 5.7 5.7 0 0 0-1.12.23c-4.53 1.93-9 3.92-13.74 5.44-8.15 2.6-16.35 5.19-23.93 9.19a71.66 71.66 0 0 0-10.87 7.6 8.42 8.42 0 0 0-3 5.06c-.66 3.09-2.32 6-3.42 9a30.87 30.87 0 0 1-6 10.64 15.21 15.21 0 0 1-12.67 5.27c-4-.26-6.57-2.93-8.41-5.78a10.3 10.3 0 0 1-1.53-8.12 20.18 20.18 0 0 0 .39-2.7 3.1 3.1 0 0 0-.05-.6c-.27 0-.6 0-.79.12-2.88 2.2-5.68 4.52-8.63 6.63-3.19 2.27-6.46 4.45-9.8 6.5a25.78 25.78 0 0 0-9.76 10.41 43.25 43.25 0 0 0-4.37 21.37 24.49 24.49 0 0 1-2.26 12.35 11.36 11.36 0 0 1-15.14 4.89c-.71-.39-1.46-.69-2.15-1.11-1.1-.66-1.54-.51-1.65.89a32.71 32.71 0 0 0 2.68 15.33 57.82 57.82 0 0 0 3.8 7.22c2.77 4.67 5.45 9.41 8.55 13.87 5.57 8 10.3 16.3 11.63 26.26a21 21 0 0 1-1.4 10.93c-1.84 4.55-4 5.76-8.85 5.59-.41 0-.81-.05-1.22-.05zm175 186.71c9-.08 16-4.05 21.73-8.37a6.8 6.8 0 0 0 1.08-1.38 6.54 6.54 0 0 0-1.55-.51c-3-.19-6-.29-9-.47-7.58-.47-13.94-3.7-19.39-8.81a8.06 8.06 0 0 1-2-3.66c-.38-1.38-.88-1.82-2.29-1.55a29.13 29.13 0 0 1-9.9-.05c-1.78-.29-3.57-1.05-5.6-.41-3.62 1.13-7.35 1.92-11.07 2.7-4.51.95-8.76-.41-12.86-2.06a3.4 3.4 0 0 0-2.76-.26 24.55 24.55 0 0 1-4.91 1.42 51.94 51.94 0 0 1-7.47.55c-4.55 0-9.07-.34-12.95-3.18-.46-.34-1.11-.8-1.55-.7a41 41 0 0 0-5.48 1.59c-5.31 2-9.59 5.56-13.74 9.25a35.38 35.38 0 0 0-8.41 11.68c-2.22 4.69-3.19 9.28-2 14.28a35.3 35.3 0 0 1 .55 14.11c-1.23 7.84-5.69 13.81-11 19.33-3.13 3.27-4.8 7.38-6.3 11.53-1.23 3.39 0 6.82.44 10.18a26.75 26.75 0 0 0 4.66 11.36c4.07 5.92 10.12 8.86 16.87 10.4a128.45 128.45 0 0 1 16.51 4.63 46.07 46.07 0 0 1 16.12 10.4c2.49 2.42 4.37 5.5 6.34 8.41a16.78 16.78 0 0 0 7.63 6.08c2.54 1.06 5.48 1.13 8.22 1.73a15.06 15.06 0 0 0 10.31-1.54c3.23-1.64 6.49-3.25 9.59-5.12a10.26 10.26 0 0 0 3.95-3.62c2.79-5.51 5.23-11.21 3.27-17.65-.13-.43-.35-.84-.52-1.26a5 5 0 0 0-1.05.92c-3.45 5.29-7.08 10.34-11.93 14.59-5.45 4.78-15.74 6-22 .69a10.77 10.77 0 0 1-3.15-5c-.63-1.9-.86-3.93-1.41-5.87a14.43 14.43 0 0 1 .38-8.91c1.23-3.63 2.55-7.23 3.81-10.85.89-2.54 2.25-5 1.12-7.86s-2.29-5.77-3.54-8.61c-.43-1-1.24-.53-1.69 0-2.16 2.66-5.11 4.19-8 5.88-5.9 3.46-11.55 2.67-17.08-.82a24.06 24.06 0 0 1-3.44-2.45c-3-2.76-4.88-6-4.25-10.36a16.48 16.48 0 0 1 5.12-10.34 15.9 15.9 0 0 0 1.76-2.07c1.4-1.8 3.1-3.47 4.08-5.48a68.63 68.63 0 0 0 2.9-8.2c.87-2.57 1.44-5.3 2.67-7.68 3.26-6.26 8.93-10.52 13.58-15.63a4.73 4.73 0 0 1 1.57-.84c2.64-1.2 5.24-2.54 8-3.52a35.9 35.9 0 0 1 6.72-1.59 56.56 56.56 0 0 1 6.64-.49 31.16 31.16 0 0 1 5.38.08c2.68.37 5.32 1.06 8 1.52 4.24.74 8.52 1.27 12.74 2.12 5.69 1.15 11.47 2.18 16.58 1.72zm-65.73-28c2.15 0 3.78.24 5.26-.11 9.36-2.16 17.69-6.65 25.75-11.71 4.42-2.78 8.89-5.48 13.34-8.21a43.07 43.07 0 0 1 4.14-2.43 3 3 0 0 1 2.22-.1 1.57 1.57 0 0 1 .64 2.35 14.75 14.75 0 0 1-2.8 3.42c-6.55 5.36-13.17 10.62-19.76 15.93a3.45 3.45 0 0 0-.59.92 3.82 3.82 0 0 0 1.15.12 34.54 34.54 0 0 0 6.48-1.38c4-1.63 7.88-3.57 11.75-5.5 5.88-2.92 11.65-6 16.2-10.93a6.6 6.6 0 0 1 1.52-1 2.3 2.3 0 0 1 3 .22c1.06 1 .69 2.14.12 3a27.32 27.32 0 0 1-3.44 4.55c-2.43 2.54-5 4.92-7.55 7.39-.17.17-.18.52-.26.78a1.79 1.79 0 0 0 .56.17c1.11-.05 2.23-.09 3.33-.2 8.9-.83 17-4.32 24.85-8.13 6-2.88 11.66-6.33 17.53-9.41 4.92-2.58 9.89-5.09 15.42-6.06 3.56-.63 7.17-.93 10.76-1.37.73-.09 1.69.39 1.89-.88.36-2.18.9-4.35 1.09-6.54.61-6.9-1.31-13.13-5-19a17.46 17.46 0 0 0-10.27-7.6c-2.51-.74-5.12-1.15-7.54-2.1-3.37-1.32-6.59-3-9.89-4.52-2.47-1.12-4.87-2.6-7.47-3.18-4.78-1.07-9.45-2.57-14.51-2.57a52.41 52.41 0 0 0-9.81 1.18 3.29 3.29 0 0 0-1 .62c.28.39.47.93.84 1.14 3.07 1.74 6.15 3.46 9.27 5.1 2.39 1.27 4.77 2.59 7.62 2.69.5 0 1.23.75 1.43 1.3a5.06 5.06 0 0 1-.53 5.1c-3.24 4.61-7.68 7.31-12.91 8.93-6.58 2-13.05 2.21-19.21-1.38a2.53 2.53 0 0 0-3.23.18 18.07 18.07 0 0 1-10 3.84 42.17 42.17 0 0 1-7.54 0c-2.73-.42-4.86-.41-5.7 2.74 0 .08-.15.13-.22.2-3.69 3.78-7.57 7.28-12.79 8.85a13.92 13.92 0 0 0-2.72 1.32c-3.48 2-6.93 4.07-10.42 6.07-4.62 2.65-9.26 5.24-13.88 7.87a67.92 67.92 0 0 1-6.29 3.6c-5.57 2.46-10.23 6.32-15.24 9.65-2.22 1.47-2.2 1.93-.14 3.47a9 9 0 0 0 3.2 1.42c3.24.76 6.42 0 9.48-1 3.37-1 6.66-2.31 10-3.55 4.21-1.6 8.43-3.16 12.56-4.93 2.39-1 4.61-2.45 6.92-3.66 1.07-.56 2.44-.77 3.25-1.57 3.59-3.56 8.12-5.58 12.44-7.95a2.73 2.73 0 0 1 2.16-.14c.93.48.92 1.47.43 2.39a8.07 8.07 0 0 1-1.28 2.34 150.59 150.59 0 0 1-16.12 12.17c-2.85 1.76-5.43 3.84-8.46 6.04zm8.77-79.57c-3.76.57-6.75.9-9.69 1.5s-5.88 1.36-8.78 2.2a81.4 81.4 0 0 0-10 3.22c-6.09 2.63-12 5.57-18 8.48a85 85 0 0 0-7.65 4.24c-2.73 1.7-5.33 3.62-8 5.44-1.08.74-2.21 1.43-3.24 2.23a6.77 6.77 0 0 0-2.87 4.09 51.18 51.18 0 0 0-.65 16.83 6.67 6.67 0 0 0 1.58 3.8 42.53 42.53 0 0 0 6.61 4.74c3 1.81 6.28 3.2 9.24 5.09a39.59 39.59 0 0 0 10.24 4.39 2.61 2.61 0 0 0 1.92-.26c3.19-2.11 6.31-4.33 9.47-6.48 2.33-1.58 4.71-3.08 7-4.68q4.32-3 8.55-6.09a1.17 1.17 0 0 0-.17-1 8.62 8.62 0 0 0-2-.55 7.87 7.87 0 0 1-4.91-2.72 2.53 2.53 0 0 1-.36-1.64c0-.14.86-.33 1.33-.33 2.51 0 5 .21 7.53.1 4.89-.21 9.45-1.9 14.13-3.13a18.75 18.75 0 0 0 9.24-5.48c1.44-1.58 4.14-3.32 1.73-6.34-.37-.47.3-2.11.89-2.92s1.56-.21 2.37.28a12 12 0 0 0 2.45.92 16.77 16.77 0 0 0 9.21.38c3-.67 6.11-1.19 9.16-1.78 1.25-.24 1.8-.85 1.05-2.11s-.15-2.33.47-3.39a1.22 1.22 0 0 1 2-.4c.47.36.74 1 1.2 1.34 1.89 1.47 3.63 3.54 5.78 4.21 7 2.15 13.74 1.59 19.74-3.15 2.28-1.82 2.25-1.69-.23-3a101.25 101.25 0 0 1-10.82-5.94 77.4 77.4 0 0 1-8.21-7.09c-1-.91-1.78-1.33-3.13-.49a12.78 12.78 0 0 1-3.73 1.16c-4.82 1.12-9.38-.27-13.94-1.53-3.79-1-7.5-2.58-11.36-3.12-5.22-.79-10.56-.79-15.12-1.07zM246.53 366c-5.34.13-9.18 1.59-13.09 3-6.9 2.41-10.05 7.92-12.4 14.23-.88 2.36-.28 4.74-.28 7.12a17.31 17.31 0 0 0 3.49 11c1.24 1.59 2.49 3.17 3.78 4.71s1.58 1.76 2.83-.1a19.29 19.29 0 0 1 6.52-5.72 24.9 24.9 0 0 1 6-2.57 2.37 2.37 0 0 1 3.08 1.75c.38 1.54-.45 2.28-1.69 3.11a42.28 42.28 0 0 0-6.82 5.36c-2.75 2.79-4.08 6.42-4.75 10.27a11.46 11.46 0 0 0-.39 2.63 24.65 24.65 0 0 0 2.93 11.11c4.9 8.66 12.46 13.83 23 12.78a21.75 21.75 0 0 0 8.85-2.82c4.49-2.62 7.48-6.61 10.09-11a61.52 61.52 0 0 0 5.16-11.54 4.59 4.59 0 0 0 .16-3.43 57.68 57.68 0 0 1-2.69-7.67 88.23 88.23 0 0 1-1.77-11.32c-.37-4.21-.76-8.47.26-12.65.4-1.66 1.08-3.25 1.57-4.9a5.82 5.82 0 0 0 0-1.39 5.7 5.7 0 0 0-1.4.29c-1.27.62-2.46 1.38-3.73 2-3.49 1.65-5.54 4.59-7.05 8a10.61 10.61 0 0 0-1.22 4.3c.07 3 .07 6.05 1.38 8.89a6.37 6.37 0 0 1 .65 2.62 3.76 3.76 0 0 1-.72 2.4c-.79.84-1.74.18-2.36-.5a9.17 9.17 0 0 1-1.9-2.68 77.92 77.92 0 0 1-3.16-9.07 26.82 26.82 0 0 1 1.8-17.91 13.92 13.92 0 0 1 1.21-2.08c1.34-2 1.31-2.3-.63-3.57a9.34 9.34 0 0 0-1.62-.79 39.52 39.52 0 0 0-8.81-2.82z"/><path d="M451.62 220.79c-.17 6.52-1 13.09-4.2 19.3-2.16 4.19-3.62 8.73-5.55 13-1.47 3.3-3.07 6.57-4.83 9.72q-5.54 9.9-11.32 19.65c-2.92 4.93-6 9.79-9 14.66-4.77 7.68-9.51 15.39-14.38 23a19.08 19.08 0 0 1-3.82 4.16c-1.85 1.57-2.57 1.52-4-.28q-3.3-4.12-6.25-8.52c-2.24-3.33-4.13-6.89-6.46-10.16a72.9 72.9 0 0 1-6.13-10.32c-2.16-4.43-4.71-8.67-6.94-13.07q-4.31-8.49-8.37-17.1c-3.87-8.2-7.8-16.37-11.37-24.69-4.48-10.46-6.12-21.28-2.7-32.43a21.69 21.69 0 0 1 9.7-12.26 61.92 61.92 0 0 1 8.51-4.52 34.77 34.77 0 0 1 7.54-2.06 21.07 21.07 0 0 1 10.08 1.13c5.72 1.88 10.11 5.75 13.49 10.71.79 1.16 1.3 2.51 2 3.73 1.36 2.37 1.72 2.38 3.11.16.58-.94 1.08-1.94 1.66-2.89a22.35 22.35 0 0 1 8.63-8.18c2.81-1.52 5.34-3.54 8.58-4.13 5-.92 9.92-1.94 14.59 1.18 1.33.89 2.91 1.42 4.28 2.26 7.38 4.57 11 11.51 12.39 19.84.42 2.61.5 5.23.76 8.11zM372.63 750c-3.15.45-5.34-1.68-7.57-2.92-7.29-4.05-14.34-8.54-21.54-12.75-5.56-3.25-11.24-6.29-16.83-9.5-3.31-1.91-6.55-4-9.82-6s-6.36-4.33-9.84-5.8c-4.23-1.8-7.68-4.72-11.62-6.9-3.16-1.74-3.87-5.19-2.06-8.26 4-6.84 8-13.76 11.9-20.66 1.84-3.24 3.77-6.44 5.36-9.8a189 189 0 0 1 9.69-17.23c1.09-1.78 1.74-3.83 2.72-5.69 1.21-2.32 2.58-4.56 3.82-6.87 3.1-5.76 6-11.62 9.32-17.28a8.57 8.57 0 0 1 5.61-4.12c3.93-.85 7.91-1.54 11.79-2.59a72.46 72.46 0 0 1 9.7-2.08 45.53 45.53 0 0 0 8.75-2.1c2.17-.74 3.84-.12 5.75.71A63 63 0 0 1 389 617c4.25 3 8.74 5.69 13.13 8.5l37 23.68a87.41 87.41 0 0 0 8.47 5.24c2.41 1.18 3.64 3.34 5.38 5.09 1 1 .59 2.26 0 3.37q-7.49 13.47-15 26.93c-2.74 4.93-5.54 9.84-8.16 14.83-3.32 6.34-6.46 12.76-9.72 19.12-2.21 4.3-4.4 8.61-6.78 12.82a6.23 6.23 0 0 1-2.86 2.51 118.46 118.46 0 0 1-11.66 4.09c-5.51 1.56-11.12 2.75-16.67 4.16-1.65.42-3.25 1.06-4.89 1.53s-3.09.77-4.61 1.13zm40.78-81.64a9.11 9.11 0 0 0-1.38-1.32c-4.26-2.69-8.52-5.39-12.83-8-5.62-3.37-11.31-6.64-16.95-10-6.16-3.64-12.29-7.33-18.46-11-3.9-2.29-7.86-4.47-11.77-6.74q-5.47-3.18-10.9-6.46a1.33 1.33 0 0 0-2.06.39c-.45.66-.85 1.37-1.24 2.08-2.35 4.34-4.67 8.7-7.05 13-4.32 7.85-8.71 15.65-13 23.51-2 3.61-3.77 7.33-5.75 10.95-4.25 7.77-8.57 15.5-12.84 23.25a13.67 13.67 0 0 0-.86 2.26 2.16 2.16 0 0 0 1.15 3c3.39 1.89 6.7 3.92 10.05 5.88 4.44 2.6 8.88 5.21 13.34 7.78a66.88 66.88 0 0 1 6.32 3.53c6.91 5.12 14.49 9.11 21.94 13.34q3.42 1.94 6.78 4 5.83 3.5 11.64 7c1 .64 1.63.73 2.3-.58 2.09-4.1 4.3-8.15 6.55-12.17 2.69-4.83 5.51-9.58 8.21-14.4 4.18-7.48 8.31-15 12.45-22.51 2.39-4.32 4.79-8.64 7.14-13 2.25-4.17 4.45-8.36 6.67-12.54.14-.26.3-.61.55-1.24zm-25.63 59.39a26 26 0 0 0 4.27-1.34c4.18-2.2 8.41-4.34 12.35-6.92a38 38 0 0 0 9.08-8.35c2.73-3.47 6.11-6.42 8.82-9.89 3.09-4 5.83-8.2 8.6-12.4s5.27-8.35 7.88-12.54c1.92-3.08 3.88-6.13 5.68-9.28a20.75 20.75 0 0 0 1.3-3.8c-1.17.15-2.36.23-3.51.48q-11.07 2.4-22.12 4.89a3 3 0 0 0-1.75.94 63.74 63.74 0 0 0-3.55 5.6q-5.58 10.05-11.07 20.16-7.63 14.1-15.18 28.26a19.15 19.15 0 0 0-1.26 3.08c-.08.28.27.69.46 1.12zm-12.12-105.83c.61 2.19.95 4.64 2 6.77 3.05 6.34 6.66 12.22 12.14 17a139.48 139.48 0 0 0 20.94 15.08c1.62 1 3.13 2.13 4.8 3a4.5 4.5 0 0 0 2.78.55c2.34-.48 4.63-1.24 6.94-1.9 5.22-1.5 10.41-3.09 15.85-3.63a9.84 9.84 0 0 0 2.05-.48 3.78 3.78 0 0 0 .85-.56 3.64 3.64 0 0 0-.59-.64c-4.32-2.78-8.64-5.57-13-8.31-1.79-1.13-3.71-2.05-5.47-3.2-3.7-2.42-7.28-5-11-7.38-6-3.84-12.16-7.54-18.23-11.33-1.7-1.06-3.28-2.34-5-3.35-4-2.34-8.06-4.54-12.06-6.86-1-.56-1.57-.38-1.86.57-.47 1.45-.74 2.92-1.14 4.67z"/><path class="b" d="M253.77 276c.41 0 .81.07 1.22.08 4.84.17 7-1 8.85-5.59a21 21 0 0 0 1.4-10.93c-1.33-10-6.06-18.23-11.63-26.26-3.1-4.46-5.78-9.2-8.55-13.87a57.82 57.82 0 0 1-3.8-7.22 32.71 32.71 0 0 1-2.68-15.33c.11-1.4.55-1.55 1.65-.89.69.42 1.44.72 2.15 1.11a11.36 11.36 0 0 0 15.14-4.89 24.49 24.49 0 0 0 2.26-12.35 43.25 43.25 0 0 1 4.37-21.37 25.78 25.78 0 0 1 9.76-10.41c3.34-2.05 6.61-4.23 9.8-6.5 3-2.11 5.75-4.43 8.63-6.63.19-.14.52-.08.79-.12a3.1 3.1 0 0 1 .05.6 20.18 20.18 0 0 1-.39 2.7 10.3 10.3 0 0 0 1.53 8.12c1.84 2.85 4.46 5.52 8.41 5.78a15.21 15.21 0 0 0 12.66-5.28 30.87 30.87 0 0 0 6-10.64c1.1-3 2.76-5.87 3.42-9a8.42 8.42 0 0 1 3-5.06 71.66 71.66 0 0 1 10.87-7.6c7.58-4 15.78-6.59 23.93-9.19 4.72-1.52 9.21-3.51 13.74-5.44a5.7 5.7 0 0 1 1.12-.23 6.6 6.6 0 0 1-.11 1.09c-.31 1.17-.8 2.31-1 3.49-.83 5.13.41 9.62 4.6 12.9a9.34 9.34 0 0 0 9.43 1.36 20.16 20.16 0 0 0 7.5-4.94c3.18-3.21 6.31-6.49 9.7-9.47a16.36 16.36 0 0 1 5.75-3.23 25.38 25.38 0 0 1 13.42-.68 88.42 88.42 0 0 0 25.11 2.14c5-.28 10-1 15-1.7a43.07 43.07 0 0 0 7-1.53 35 35 0 0 0 10.7-5.48 5.51 5.51 0 0 1 1.07-.5c.08.45.36 1 .21 1.35-1.09 2.38-2.17 4.76-3.43 7-2.94 5.34-7.49 9.45-11.13 14.26-3.18 4.2-4.69 8.87-3.2 14.16a5.78 5.78 0 0 0 .9 1.89c4 5.31 9.82 8.16 16.91 6.89a56.12 56.12 0 0 0 9.86-2.73 18.13 18.13 0 0 1 8.33-.72c3.09.27 6.11 1.17 9.17 1.74 1.58.29 3.18.48 4.78.7a11.94 11.94 0 0 1 2.09.26c5.33 1.81 10.38.48 15.19-1.68a99.41 99.41 0 0 0 11.68-6.29c1.75-1.09 3.08-2.86 4.62-4.29a4.25 4.25 0 0 1 1-.51 3.22 3.22 0 0 1 .41 1c0 4.76 1.52 9.24 2.33 13.86.85 4.82 1.51 9.75.47 14.68a3.68 3.68 0 0 1-.41 1.12 60.3 60.3 0 0 1-16.48 18.29c-5.19 3.89-9.89 8.31-12 14.82a16.43 16.43 0 0 0 .2 10.66c1.39 4 3.67 7.59 5.6 11.34 2.47 4.78 2.95 10 2.68 15.29-.21 4.1-1.14 8.17-1.55 12.27a37.07 37.07 0 0 0-.07 7.22 8.06 8.06 0 0 0 6.39 7.27c4.63 1.24 9.06.54 12.62-2.94 2.38-2.31 4.45-4.93 6.72-7.36 3.4-3.65 5.77-8 8.19-12.26.17-.31.53-.5.8-.75a3.12 3.12 0 0 1 .31.85c.21 2.21.73 4.45.51 6.61a117.9 117.9 0 0 1-2.09 13.77A40.33 40.33 0 0 1 557 270.12c-3.6 3.79-7.06 7.76-11 11.2a134 134 0 0 1-12.73 9.58c-4.73 3.26-9.76 6.07-14.46 9.37-2.53 1.78-4.59 4.21-6.92 6.28-2.68 2.38-4.51 5.39-6.37 8.38a5.29 5.29 0 0 0-.78 1.29c-1.06 4.28-3 8.32-3.16 12.86a11.12 11.12 0 0 0 2 6.77 11.39 11.39 0 0 0 9.59 5.43 11.17 11.17 0 0 0 5.5-1.25 40.17 40.17 0 0 0 9.67-6.61c2.2-2.17 4.54-4.27 6.88-6.3a18.77 18.77 0 0 1 10.17-4.87 5.33 5.33 0 0 1 1.18.1 5.44 5.44 0 0 1-.65.9 4.42 4.42 0 0 1-1.5 1c-3.85 1-5.72 4.25-7.73 7.17a28.93 28.93 0 0 0-3.29 6.78 43.41 43.41 0 0 1-10.65 16.63 21.34 21.34 0 0 0-1.7 1.73 5.49 5.49 0 0 1-5.3 2.08 35.22 35.22 0 0 0-7.79.44 12.76 12.76 0 0 0-6.84 3.66 3.83 3.83 0 0 1-3.25 1.15 5.85 5.85 0 0 0-2.4.13c-3.29 1.2-6.53 2.54-9.82 3.76a3.88 3.88 0 0 1-2.28.28c-4.46-1.27-9-2.42-13.29-4.11s-8.37-3.94-12.52-6c-1.9-.93-2-1.1-.63-2.52 4.92-5.25 7.47-11.62 9.17-18.48 1.43-5.76 3-11.49 4.89-17.12.7-2.11 2.28-4 3.64-5.82 2.84-3.86 6.66-6.65 10.61-9.29a31.28 31.28 0 0 0 5.83-4.78c7.05-7.79 12.88-16.18 14.51-27a48.24 48.24 0 0 0-.45-18.25c-1.08-4.7-2.62-9.3-4.06-13.91-1.2-3.84-2.68-7.61-3.81-11.47a75.3 75.3 0 0 1-2.2-9.71 17.12 17.12 0 0 1 .25-5.66 65.49 65.49 0 0 1 4.39-14.43c3.57-8.06 4.18-13.38 2.75-22.41-.47-3-2.18-5.43-3.95-7.74-4.68-6.09-11.23-9.47-18.37-11.55-4.85-1.42-10-1.23-15-1.05a85.2 85.2 0 0 1-10.23.08c-4.09-.35-8.23-.2-12.28-1.43a40.13 40.13 0 0 1-11.58-5.82 61.86 61.86 0 0 0-16.62-8.48 44.07 44.07 0 0 0-18.5-1.8c-2 .22-4 1.34-5.93 2.14a52.11 52.11 0 0 0-16.1 11c-1.09 1-2.21 2-3.19 3.16-4.91 5.68-11.46 6.61-18.4 6.37-7.55-.26-15.1-.78-22.65-.76a34.84 34.84 0 0 0-12.59 2.42 60.69 60.69 0 0 0-11.83 5.88c-7.35 4.85-11 12.08-12.23 20.42a24.41 24.41 0 0 0 1.11 12.81c.87 2.18.9 4.72 1.13 7.11.2 2-.08 4.07.22 6.05.77 5-.61 9.56-2.57 14.06-2.09 4.81-4.53 9.52-6 14.52a140.06 140.06 0 0 0-3.48 16.84 13.3 13.3 0 0 0 .46 5.07 104.2 104.2 0 0 0 2.88 10.81c1.94 5.53 5.81 9.62 10.76 12.63 2.92 1.78 6 3.28 9 4.93 2.08 1.16 3.28 3.21 2.86 4.82-.46 1.83-3.17 4-5.34 3.79a61 61 0 0 1-8-1.54c-5.65-1.34-11-3.85-16.85-4.39a85.22 85.22 0 0 0-8.72-.74 11.46 11.46 0 0 1-6.46-2.24c-5.36-3.51-10.07-7.71-12.72-13.78-.52-1.19-1.42-2.21-2-3.36-.7-1.33-.52-1.57.91-1.48l3.62.21zM428.8 462.69c-5.11.46-10.89-.57-16.68-1.73-4.22-.85-8.5-1.38-12.74-2.12-2.67-.46-5.31-1.15-8-1.52a31.16 31.16 0 0 0-5.38-.08 56.56 56.56 0 0 0-6.64.49 35.9 35.9 0 0 0-6.72 1.59c-2.72 1-5.32 2.32-8 3.52a4.73 4.73 0 0 0-1.57.84c-4.65 5.11-10.32 9.37-13.58 15.63-1.23 2.38-1.8 5.11-2.67 7.68a68.63 68.63 0 0 1-2.9 8.2c-1 2-2.68 3.68-4.08 5.48a15.9 15.9 0 0 1-1.76 2.07 16.48 16.48 0 0 0-5.08 10.34c-.63 4.35 1.21 7.6 4.25 10.36a24.06 24.06 0 0 0 3.44 2.45c5.53 3.49 11.18 4.28 17.08.82 2.87-1.69 5.82-3.22 8-5.88.45-.56 1.26-1 1.69 0 1.25 2.84 2.39 5.72 3.54 8.61s-.23 5.32-1.12 7.86c-1.26 3.62-2.58 7.22-3.81 10.85a14.43 14.43 0 0 0-.38 8.91c.55 1.94.78 4 1.41 5.87a10.77 10.77 0 0 0 3.15 5c6.29 5.35 16.58 4.09 22-.69 4.85-4.25 8.48-9.3 11.93-14.59a5 5 0 0 1 1.05-.92c.17.42.39.83.52 1.26 2 6.44-.48 12.14-3.27 17.65a10.26 10.26 0 0 1-3.95 3.62c-3.1 1.87-6.36 3.48-9.59 5.12a15.06 15.06 0 0 1-10.27 1.54c-2.74-.6-5.68-.67-8.22-1.73a16.78 16.78 0 0 1-7.63-6.08c-2-2.91-3.85-6-6.34-8.41a46.07 46.07 0 0 0-16.12-10.4 128.45 128.45 0 0 0-16.51-4.63c-6.75-1.54-12.8-4.48-16.87-10.4a26.75 26.75 0 0 1-4.57-11.38c-.48-3.36-1.67-6.79-.44-10.18 1.5-4.15 3.17-8.26 6.3-11.53 5.3-5.52 9.76-11.49 11-19.33a35.3 35.3 0 0 0-.55-14.11c-1.22-5-.25-9.59 2-14.28a35.38 35.38 0 0 1 8.41-11.68c4.15-3.69 8.43-7.26 13.74-9.25a41 41 0 0 1 5.48-1.59c.44-.1 1.09.36 1.55.7 3.88 2.84 8.4 3.16 12.95 3.18a51.94 51.94 0 0 0 7.47-.55 24.55 24.55 0 0 0 4.91-1.42 3.4 3.4 0 0 1 2.76.26c4.1 1.65 8.35 3 12.86 2.06 3.72-.78 7.45-1.57 11.07-2.7 2-.64 3.82.12 5.6.41a29.13 29.13 0 0 0 9.9.05c1.41-.27 1.91.17 2.29 1.55a8.06 8.06 0 0 0 2 3.66c5.45 5.11 11.81 8.34 19.39 8.81 3 .18 6 .28 9 .47a6.54 6.54 0 0 1 1.55.51 6.8 6.8 0 0 1-1.08 1.38c-5.75 4.33-12.76 8.3-21.77 8.38z"/><path class="a" d="M363.07 434.66c3-2.2 5.61-4.28 8.39-6.05a150.59 150.59 0 0 0 16.12-12.17 8.07 8.07 0 0 0 1.28-2.34c.49-.92.5-1.91-.43-2.39a2.73 2.73 0 0 0-2.16.14c-4.32 2.37-8.85 4.39-12.44 7.95-.81.8-2.18 1-3.25 1.57-2.31 1.21-4.53 2.63-6.92 3.66-4.13 1.77-8.35 3.33-12.56 4.93-3.29 1.24-6.58 2.54-10 3.55-3.06.92-6.24 1.72-9.48 1a9 9 0 0 1-3.2-1.42c-2.06-1.54-2.08-2 .14-3.47 5-3.33 9.67-7.19 15.24-9.65a67.92 67.92 0 0 0 6.29-3.6c4.62-2.63 9.26-5.22 13.88-7.87 3.49-2 6.94-4.06 10.42-6.07a13.92 13.92 0 0 1 2.72-1.32c5.22-1.57 9.1-5.07 12.79-8.85.07-.07.2-.12.22-.2.84-3.15 3-3.16 5.7-2.74a42.17 42.17 0 0 0 7.54 0 18.07 18.07 0 0 0 10-3.84 2.53 2.53 0 0 1 3.23-.18c6.16 3.59 12.63 3.41 19.21 1.38 5.23-1.62 9.67-4.32 12.91-8.93a5.06 5.06 0 0 0 .53-5.1c-.2-.55-.93-1.28-1.43-1.3-2.85-.1-5.23-1.42-7.62-2.69-3.12-1.64-6.2-3.36-9.27-5.1-.37-.21-.56-.75-.84-1.14a3.29 3.29 0 0 1 1-.62 52.41 52.41 0 0 1 9.81-1.18c5.06 0 9.73 1.5 14.51 2.57 2.6.58 5 2.06 7.47 3.18 3.3 1.5 6.52 3.2 9.89 4.52 2.42.95 5 1.36 7.54 2.1a17.46 17.46 0 0 1 10.36 7.66c3.67 5.83 5.59 12.06 5 19-.19 2.19-.73 4.36-1.09 6.54-.2 1.27-1.16.79-1.89.88-3.59.44-7.2.74-10.76 1.37-5.53 1-10.5 3.48-15.42 6.06-5.82 3.04-11.5 6.5-17.5 9.37-7.89 3.81-15.95 7.3-24.85 8.13-1.1.11-2.22.15-3.33.2a1.79 1.79 0 0 1-.56-.17c.08-.26.09-.61.26-.78 2.51-2.47 5.12-4.85 7.55-7.39a27.32 27.32 0 0 0 3.44-4.55c.57-.9.94-2.05-.12-3a2.3 2.3 0 0 0-3-.22 6.6 6.6 0 0 0-1.52 1c-4.55 4.9-10.32 8-16.2 10.93-3.87 1.93-7.75 3.87-11.75 5.5a34.54 34.54 0 0 1-6.48 1.38 3.82 3.82 0 0 1-1.15-.12 3.45 3.45 0 0 1 .59-.92c6.59-5.31 13.21-10.57 19.76-15.93a14.75 14.75 0 0 0 2.8-3.42 1.57 1.57 0 0 0-.64-2.35 3 3 0 0 0-2.22.1 43.07 43.07 0 0 0-4.14 2.43c-4.45 2.73-8.92 5.43-13.34 8.21-8.06 5.06-16.39 9.55-25.75 11.71-1.5.29-3.13.02-5.28.05z"/><path class="a" d="M371.84 355.09c4.56.28 9.9.28 15.13 1 3.86.54 7.57 2.08 11.36 3.12 4.56 1.26 9.12 2.65 13.94 1.53a12.78 12.78 0 0 0 3.73-1.16c1.35-.84 2.13-.42 3.13.49a77.4 77.4 0 0 0 8.21 7.09 101.25 101.25 0 0 0 10.82 5.94c2.48 1.27 2.51 1.14.23 3-6 4.74-12.76 5.3-19.74 3.15-2.15-.67-3.89-2.74-5.78-4.21-.46-.36-.73-1-1.2-1.34a1.22 1.22 0 0 0-2 .4c-.62 1.06-1.22 2.14-.47 3.39s.2 1.87-1.05 2.11c-3.05.59-6.12 1.11-9.16 1.78a16.77 16.77 0 0 1-9.21-.38 12 12 0 0 1-2.45-.92c-.81-.49-1.69-1.22-2.37-.28s-1.26 2.45-.89 2.92c2.41 3-.29 4.76-1.73 6.34a18.75 18.75 0 0 1-9.24 5.48c-4.68 1.23-9.24 2.92-14.13 3.13-2.5.11-5-.08-7.53-.1-.47 0-1.32.19-1.33.33a2.53 2.53 0 0 0 .36 1.64 7.87 7.87 0 0 0 4.91 2.72 8.62 8.62 0 0 1 2 .55 1.17 1.17 0 0 1 .17 1q-4.23 3.1-8.55 6.09c-2.31 1.6-4.69 3.1-7 4.68-3.16 2.15-6.28 4.37-9.47 6.48a2.61 2.61 0 0 1-1.92.26 39.59 39.59 0 0 1-10.26-4.32c-3-1.89-6.23-3.28-9.24-5.09a42.53 42.53 0 0 1-6.61-4.74 6.67 6.67 0 0 1-1.58-3.8 51.18 51.18 0 0 1 .65-16.83 6.77 6.77 0 0 1 2.87-4.09c1-.8 2.16-1.49 3.24-2.23 2.66-1.82 5.26-3.74 8-5.44a85 85 0 0 1 7.65-4.24c6-2.91 11.93-5.85 18-8.48a81.4 81.4 0 0 1 10-3.22c2.9-.84 5.83-1.61 8.78-2.2s5.97-.98 9.73-1.55z"/><path class="c" d="M246.53 366l6.35.95a39.52 39.52 0 0 1 8.81 2.82 9.34 9.34 0 0 1 1.62.79c1.94 1.27 2 1.57.63 3.57a13.92 13.92 0 0 0-1.21 2.08 26.82 26.82 0 0 0-1.8 17.91 77.92 77.92 0 0 0 3.16 9.07 9.17 9.17 0 0 0 1.9 2.68c.62.68 1.57 1.34 2.36.5a3.76 3.76 0 0 0 .72-2.4 6.37 6.37 0 0 0-.65-2.62c-1.31-2.84-1.31-5.9-1.38-8.89a10.61 10.61 0 0 1 1.22-4.3c1.51-3.38 3.56-6.32 7.05-8 1.27-.61 2.46-1.37 3.73-2a5.7 5.7 0 0 1 1.4-.29 5.82 5.82 0 0 1 0 1.39c-.49 1.65-1.17 3.24-1.57 4.9-1 4.18-.63 8.44-.26 12.65a88.23 88.23 0 0 0 1.77 11.32 57.68 57.68 0 0 0 2.69 7.67 4.59 4.59 0 0 1-.16 3.43 61.52 61.52 0 0 1-5.16 11.54c-2.61 4.38-5.6 8.37-10.09 11a21.75 21.75 0 0 1-8.85 2.82c-10.55 1-18.11-4.12-23-12.78a24.65 24.65 0 0 1-2.93-11.11 11.46 11.46 0 0 1 .39-2.63c.67-3.85 2-7.48 4.75-10.27a42.28 42.28 0 0 1 6.82-5.36c1.24-.83 2.07-1.57 1.69-3.11a2.37 2.37 0 0 0-3.08-1.75 24.9 24.9 0 0 0-6 2.57 19.29 19.29 0 0 0-6.52 5.72c-1.25 1.86-1.46 1.75-2.83.1s-2.54-3.12-3.78-4.71a17.31 17.31 0 0 1-3.49-11c0-2.38-.6-4.76.28-7.12 2.35-6.31 5.5-11.82 12.4-14.23 3.84-1.28 7.68-2.74 13.02-2.91zm272.68 7.38c4 1 6.81 3.66 9.28 6.85 3.53 4.56 5.57 9.62 5.28 15.42-.13 2.64.49 5.38-.73 8a2 2 0 0 0 .34 1.86 2.12 2.12 0 0 0 1.93.34 8.09 8.09 0 0 0 2.76-2.21c2.59-3.56 3.28-7.77 3.5-12a33 33 0 0 0-2.92-15.64c-1.77-3.94-1.65-3.9 2.43-5.28 6.65-2.26 12.83-1.1 18.41 2.8 3 2.08 5 5.24 6.59 8.56 2.76 5.61 2.16 10.95-.36 16.56-2.12 4.69-5.74 7.74-9.62 10.59-1.38 1-3.36 1.24-5.1 1.72-.91.24-2 .38-1.89 1.5a3.15 3.15 0 0 0 1.46 2 4.94 4.94 0 0 0 2.89.56c4.58-.71 9.19-1.29 12.64-5.05 1.18-1.29 3-2 4.46-3.05.9-.65 1.33-.41 1.84.51a35.57 35.57 0 0 0 2.58 4.09 9.55 9.55 0 0 1 1.73 8c-1.2 5.36-3.71 10-8.51 13-2.21 1.4-4.3 3.09-6.68 4.08-6.34 2.63-12.88 2.15-19.27.14a35 35 0 0 1-15-8.76c-3.63-3.75-7-7.73-9-12.66a3.28 3.28 0 0 1 .23-3.63 14.77 14.77 0 0 0 1.92-4.39c2.52-8.35 2.64-16.91 1.75-25.48-.21-1.92-1.44-3.73-2.16-5.61-.35-.91-.63-1.84-.93-2.77z"/><path class="a" d="M519.09 373.52l-.45-.27.29-.32.28.45zM413.41 668.37c-.25.6-.38 1-.56 1.34-2.22 4.18-4.42 8.37-6.67 12.54-2.35 4.34-4.75 8.66-7.14 13-4.14 7.51-8.27 15-12.45 22.51-2.7 4.82-5.52 9.57-8.21 14.4-2.25 4-4.46 8.07-6.55 12.17-.67 1.31-1.26 1.22-2.3.58q-5.79-3.54-11.64-7-3.36-2-6.78-4c-7.45-4.23-15-8.22-21.94-13.34a66.88 66.88 0 0 0-6.32-3.53c-4.46-2.57-8.9-5.18-13.34-7.78-3.35-2-6.66-4-10.05-5.88a2.16 2.16 0 0 1-1.15-3 13.67 13.67 0 0 1 .86-2.26c4.27-7.75 8.59-15.48 12.84-23.25 2-3.62 3.77-7.34 5.75-10.95 4.3-7.86 8.69-15.66 13-23.51 2.38-4.32 4.7-8.68 7.05-13 .39-.71.79-1.42 1.24-2.08a1.33 1.33 0 0 1 2.06-.39q5.42 3.28 10.9 6.46c3.91 2.27 7.87 4.45 11.77 6.74 6.17 3.62 12.3 7.31 18.46 11 5.64 3.33 11.33 6.6 16.95 10 4.31 2.59 8.57 5.29 12.83 8a9.11 9.11 0 0 1 1.39 1.23zm-38.12-8.89c.33-2.33-.13-3.9-1.57-4.88s-2.81.31-4.16.91c-1.92.85-3.89 2-5.91 2.17a28.44 28.44 0 0 1-17.65-3.81c-3.39-2-4.85-1.33-5.31 2.57-.12 1 .07 2 0 3-.21 2.71-.07 5.54-.85 8.08A36.33 36.33 0 0 1 327 686.47c-2.09 1.57-4 3.75-7 3.75-.94 0-1.44 1.5-.92 2.47a13.18 13.18 0 0 0 1.71 2.48 2.61 2.61 0 0 0 3 .7 23.33 23.33 0 0 1 6.44-1c7.65.13 14.33 3.18 20.35 7.61a99.54 99.54 0 0 1 10.31 8.82c2.51 2.43 5.43 4.49 7.25 7.64a2.91 2.91 0 0 0 2.53 1 2.19 2.19 0 0 0 1.75-2.77 11.55 11.55 0 0 1 .34-6c2-7.7 6.45-13.87 11.84-19.42 2.95-3 6.21-5.75 9.38-8.55.76-.67 1.83-1.1 1.21-2.37a7.22 7.22 0 0 0-1.62-2.47 27.75 27.75 0 0 0-5.05-3.3c-5.66-2.73-9-7.63-12.21-12.68a10.2 10.2 0 0 1-1.02-2.9z"/><path class="c" d="M387.78 727.76c-.19-.43-.54-.84-.46-1.11a19.15 19.15 0 0 1 1.26-3.08q7.56-14.15 15.18-28.26 5.48-10.11 11.07-20.16a63.74 63.74 0 0 1 3.55-5.6 3 3 0 0 1 1.75-.94q11.06-2.49 22.12-4.89c1.15-.25 2.34-.33 3.51-.48a20.75 20.75 0 0 1-1.3 3.8c-1.8 3.15-3.76 6.2-5.68 9.28-2.61 4.19-5.17 8.41-7.88 12.54s-5.51 8.44-8.6 12.4c-2.71 3.47-6.09 6.42-8.82 9.89a38 38 0 0 1-9.08 8.35c-3.94 2.58-8.17 4.72-12.35 6.92a26 26 0 0 1-4.27 1.34zm-12.12-105.84c.4-1.75.67-3.22 1.1-4.64.29-.95.9-1.13 1.86-.57 4 2.32 8.07 4.52 12.06 6.86 1.74 1 3.32 2.29 5 3.35 6.07 3.79 12.19 7.49 18.23 11.33 3.73 2.36 7.31 5 11 7.38 1.76 1.15 3.68 2.07 5.47 3.2 4.34 2.74 8.66 5.53 13 8.31a3.64 3.64 0 0 1 .59.64 3.78 3.78 0 0 1-.85.56 9.84 9.84 0 0 1-2.05.48c-5.44.54-10.63 2.13-15.85 3.63-2.31.66-4.6 1.42-6.94 1.9a4.5 4.5 0 0 1-2.78-.55c-1.67-.88-3.18-2-4.8-3a139.48 139.48 0 0 1-20.94-15.08c-5.48-4.8-9.09-10.68-12.14-17-1.01-2.16-1.35-4.61-1.96-6.8z"/><path d="M375.29 659.48a10.2 10.2 0 0 0 .92 2.88c3.19 5 6.55 9.95 12.21 12.68a27.75 27.75 0 0 1 5.05 3.3 7.22 7.22 0 0 1 1.62 2.47c.62 1.27-.45 1.7-1.21 2.37-3.17 2.8-6.43 5.52-9.38 8.55-5.39 5.55-9.88 11.72-11.84 19.42a11.55 11.55 0 0 0-.34 6 2.19 2.19 0 0 1-1.75 2.77 2.91 2.91 0 0 1-2.53-1c-1.82-3.15-4.74-5.21-7.25-7.64a99.54 99.54 0 0 0-10.31-8.82c-6-4.43-12.7-7.48-20.35-7.61a23.33 23.33 0 0 0-6.44 1 2.61 2.61 0 0 1-3-.7 13.18 13.18 0 0 1-1.71-2.48c-.52-1 0-2.46.92-2.47 3.06 0 4.95-2.18 7-3.75a36.33 36.33 0 0 0 12.85-18.94c.78-2.54.64-5.37.85-8.08.08-1-.11-2 0-3 .46-3.9 1.92-4.62 5.31-2.57a28.44 28.44 0 0 0 17.67 3.81c2-.17 4-1.32 5.91-2.17 1.35-.6 2.59-2 4.16-.91s1.97 2.56 1.64 4.89zm-4 15.79v.32c2.4-.16 4.81-.31 7.21-.48a3.91 3.91 0 0 0 .76-.24c-.1-.18-.16-.41-.31-.52-4.09-3-5.7-7.72-7.9-12-.75-1.44-1.27-1.39-2.45-.74a5.59 5.59 0 0 1-2.58.79c-4.9.05-9.87 1.21-14.68-.72-1.39-.55-2.81-1.08-4.17-1.7s-1.55-.11-1.59 1.13a28.48 28.48 0 0 1-.57 5.38c-.35 1.55-1.22 3-1.69 4.51a30.65 30.65 0 0 1-4.65 10 3.08 3.08 0 0 0-.31 1 8.59 8.59 0 0 0 1.12-.24 74.26 74.26 0 0 1 7.12-2.5c4.49-1.11 9-2.08 13.58-2.84 3.7-.55 7.43-.76 11.13-1.15z"/><path class="b" d="M371.31 675.27c-3.7.39-7.43.6-11.09 1.21-4.56.76-9.09 1.73-13.58 2.84a74.26 74.26 0 0 0-7.12 2.5 8.59 8.59 0 0 1-1.12.24 3.08 3.08 0 0 1 .31-1 30.65 30.65 0 0 0 4.65-10c.47-1.53 1.34-3 1.69-4.51a28.48 28.48 0 0 0 .57-5.38c0-1.24.31-1.71 1.59-1.13s2.78 1.15 4.17 1.7c4.81 1.93 9.78.77 14.68.72a5.59 5.59 0 0 0 2.58-.79c1.18-.65 1.7-.7 2.45.74 2.2 4.26 3.81 9 7.9 12 .15.11.21.34.31.52a3.91 3.91 0 0 1-.76.24c-2.4.17-4.81.32-7.21.48z"/></svg>