<svg id="Layer_1" data-name="Layer 1" xmlns="http://www.w3.org/2000/svg" viewBox="0 0 800 800"><defs><style>.cls-1,.cls-4{fill:none}.cls-2,.cls-6{fill:#00f}.cls-3{fill:#fff}.cls-3,.cls-4,.cls-6{stroke:#00f;stroke-linejoin:bevel;stroke-width:3px}</style><clipPath id="clip-path"><path class="cls-1" d="M403.48 301.27l-35.31-4.58a38.81 38.81 0 0 0-17.7 1.7c-11.83 4-20.94 14.57-24.39 26.58l-20.31 70.81c-1.26 4.39-2.33 8.94-3.25 13.6-5.4 35.42-1.28 76.43 12.65 107.18 10.51 23.21 25.58 43 44.19 52.2 17.42-13.22 28.42-94.89 28.42-94.89s12.16-88.49 17.77-129.33c.69-5 1.15-9.55 1.44-13.63.56-23.45-3.51-29.64-3.51-29.64z"/></clipPath><clipPath id="clip-path-2"><path class="cls-1" d="M412.58 301.27l35.31-4.58a38.75 38.75 0 0 1 17.69 1.7C477.42 302.4 486.53 313 490 325l20.32 70.81c1.25 4.39 2.33 8.94 3.24 13.6 5.41 35.42 1.29 76.43-12.65 107.18-10.51 23.21-25.58 43-44.19 52.2-17.42-13.22-28.42-94.89-28.42-94.89s-12.15-88.49-17.77-129.33c-.69-5-1.15-9.55-1.43-13.63-.59-23.48 3.48-29.67 3.48-29.67z"/></clipPath></defs><path class="cls-2" d="M397.76 215.72a57.6 57.6 0 0 1-21-7.44l.31 2.36c13.13-10.59 14.64-26 15.11-41.83l-2.94.4c1.81 11.63 2.49 25.49-2.16 36.5a1.55 1.55 0 0 0 .24 1.82c5.21 4.34 12 4.58 17.94 1.61l-2.26-1.29c-.47 3.77.9 7.4 4.24 9.33a1.5 1.5 0 0 0 1.51-2.59c-2.51-1.46-3.08-4.07-2.75-6.74.15-1.23-1.36-1.75-2.26-1.3-4.59 2.31-10.21 2.26-14.3-1.14l.23 1.82c5-11.88 4.41-26.28 2.46-38.82-.27-1.72-2.9-1.22-2.95.4-.45 15.06-1.7 29.6-14.24 39.7a1.52 1.52 0 0 0 .31 2.36 59.42 59.42 0 0 0 21.75 7.74c1.88.31 2.7-2.58.79-2.89z"/><path class="cls-2" d="M419.12 218.61a59.44 59.44 0 0 0 21.75-7.74 1.52 1.52 0 0 0 .31-2.36c-12.53-10.09-13.79-24.65-14.24-39.7-.05-1.61-2.68-2.14-2.95-.4-1.95 12.54-2.56 26.94 2.46 38.82l.23-1.82c-4.09 3.4-9.71 3.45-14.3 1.14-.9-.45-2.41.07-2.26 1.3.33 2.67-.24 5.28-2.75 6.74a1.5 1.5 0 0 0 1.51 2.59c3.34-1.93 4.71-5.56 4.24-9.33l-2.26 1.29c5.91 3 12.73 2.73 17.95-1.61a1.54 1.54 0 0 0 .23-1.82c-4.65-11-4-24.86-2.16-36.5l-2.94-.4c.47 15.81 2 31.24 15.12 41.83l.3-2.36a57.66 57.66 0 0 1-21 7.44c-1.9.31-1.1 3.2.8 2.89z"/><ellipse class="cls-3" cx="408.04" cy="238.07" rx="31.28" ry="22.9"/><path class="cls-4" d="M408.22 217.62c17.28 0 31.28 10.25 31.28 22.9m-62.5 0c0-12.65 14-22.9 31.27-22.9"/><ellipse class="cls-3" cx="380.99" cy="231.48" rx="8.59" ry="10.56"/><ellipse class="cls-3" cx="435.63" cy="231.48" rx="8.59" ry="10.56"/><path class="cls-4" d="M390.88 218.92s5.29 4.41 4.87 15.49m12.29-19.24v17.87m-8.11-16.88a54.69 54.69 0 0 1 1.89 17.23m23.38-14.47s-5.29 4.41-4.87 15.49m-4.18-18.25a54.69 54.69 0 0 0-1.89 17.23"/><path class="cls-3" d="M477.18 304c0 30.09-31 54.49-69.14 54.49S338.9 334.08 338.9 304s31-70 69.14-70 69.14 39.89 69.14 70z"/><path class="cls-2" d="M472.69 283.14c-7.5 1.29-12.73-1.42-18.55-5.76a14.9 14.9 0 0 0-11.65-3.26c-3.51.42-6.81 1.5-10.39.84a29.4 29.4 0 0 1-8.65-3.59c-5-2.75-9.61-5.28-15.41-5.65a1.51 1.51 0 0 0-1.5 1.5l1.5-1.5c-5.23.24-9.64 2.33-14.15 4.84-3 1.65-6 3.43-9.29 4.21-3.91.91-7.35-.16-11.18-.65-4.9-.62-8.35.77-12.24 3.71-5.35 4-10.8 6.68-17.72 5.36-1.88-.35-2.69 2.54-.79 2.9a23.11 23.11 0 0 0 13.59-1.46c6.66-2.93 9.79-8.63 17.95-7.36 5.53.86 9.68 1.34 15-.93 6.33-2.68 11.67-7.3 18.82-7.62a1.53 1.53 0 0 0 1.5-1.5l-1.5 1.5c7.1.45 12.35 5 18.64 7.62 5.27 2.24 9.55 1.8 15 .93 8.19-1.3 11.23 4.35 17.88 7.33a23.68 23.68 0 0 0 13.94 1.4c1.9-.33 1.1-3.22-.8-2.9z"/><path class="cls-2" d="M347.12 276.54a23.78 23.78 0 0 0 13.82-4.75c2.12-1.58 4-3.4 6.58-4.28 3.83-1.32 7.61.15 11.46.57 11.09 1.21 18.46-9.5 29.17-9.36 10.55.14 17.8 10.54 28.78 9.36 3.36-.36 6.87-1.72 10.26-1 2.81.6 5 2.6 7.19 4.27a24.2 24.2 0 0 0 14.62 5.2c1.93.06 1.93-2.94 0-3a21 21 0 0 1-10.72-3c-2.3-1.43-4.2-3.42-6.56-4.78-4.06-2.33-8-1.77-12.4-1-7.44 1.21-12.38-1.5-18.72-4.92-3.84-2.07-8-4-12.45-4s-8.41 1.68-12.15 3.67c-6.59 3.51-11.7 6.5-19.41 5.29-4.13-.65-7.89-1.33-11.78.67-2.41 1.25-4.35 3.22-6.58 4.73a20.47 20.47 0 0 1-11.11 3.46c-1.92.07-1.93 3.07 0 3z"/><path stroke="#00f" stroke-linejoin="bevel" fill="#00f" d="M348.75 274.19l6.88-10.56 11.25-11.88 12.25-8.71 11.37-4.66L400 236h13.88l14.25 3.07 16.09 9.06 8.78 8 7.88 6.12 5.87 11.94-10.37-4.81-8.25-4.75-15 .75-12.88-5.63-7.5-3.12-5.4-.63-12.65 3.79-5.82 3.84-7.25 1.37-9.22-.37-6.53.12-6.5 4.75-5.75 3.75-4.88.94z"/><path class="cls-3" d="M347.75 285.02v9.19m8-11.19v8.19m8-13.19v13.19m8-16.19v17.19m8-15.19v15.19m8-16.19v18.19m8-23.19v24.19m8-27.19v23.19m64-6.19v9.19m-8-11.19v8.19m-8-13.19v13.19m-8-16.19v17.19m-8-15.19v15.19m-8-16.19v18.19m-8-23.19v24.19m-8-27.19v23.19m-85.32 32.11L316 395.55c-5.79 40.29 2.45 81.52 24.14 116C357.5 539.14 381.5 560.1 408 560.1s50.5-21 67.86-48.55c21.69-34.44 29.93-75.67 24.14-116l-10.39-72.23a37.74 37.74 0 0 0-20.49-28.39 38.34 38.34 0 0 0-17.12-4.05l-33.67 4.3c-6.55-6.55-14.42-6.2-20.62 0l-33.67-4.3a38.34 38.34 0 0 0-17.14 4.05 37.74 37.74 0 0 0-20.47 28.39z"/><path class="cls-3" d="M469.12 492.88c-15.63 24.83-37.23 43.69-61.08 43.69s-45.45-18.86-61.04-43.69"/><path class="cls-3" d="M353.07 475.12c14.07 22.34 33.5 39.32 55 39.32s40.9-17 55-39.32"/><path class="cls-3" d="M457.51 458.13c-12.66 20.11-30.15 35.39-49.47 35.39s-36.81-15.28-49.47-35.39"/><path class="cls-3" d="M363.51 441.84c11.4 18.1 27.14 31.85 44.53 31.85s33.13-13.75 44.53-31.85"/><path class="cls-3" d="M448.11 426.18c-10.25 16.29-24.42 28.66-40.07 28.66s-29.82-12.37-40.04-28.66"/><path class="cls-3" d="M372 411.08c9.23 14.66 22 25.8 36.07 25.8s26.84-11.14 36.07-25.8"/><path class="cls-3" d="M440.5 396.5c-8.31 13.19-19.78 23.22-32.46 23.22s-24.15-10-32.46-23.22"/><path class="cls-3" d="M378.83 382.37c7.47 11.87 17.8 20.9 29.21 20.9s21.74-9 29.21-20.9"/><path class="cls-3" d="M434.33 368.66c-6.73 10.68-16 18.8-26.29 18.8s-19.56-8.12-26.29-18.8"/><path class="cls-3" d="M384.38 355.31c6.05 9.62 14.42 16.93 23.66 16.93s17.61-7.31 23.66-16.93"/><path class="cls-3" d="M429.34 342.19c-5.45 8.66-13 15.24-21.3 15.24s-15.85-6.58-21.3-15.24"/><path class="cls-4" d="M408.04 332.14v227.92M408 411.08s-.55 102.53-26.85 141.58M408 411.08s.55 102.53 26.85 141.58"/><path class="cls-3" d="M359.36 568.76c17.42-13.22 28.42-94.89 28.42-94.89l17.77-129.33c5.61-40.85-3.7-48.77-3.7-48.77l-33-4.53a38.38 38.38 0 0 0-17.54 1.67 37.78 37.78 0 0 0-24.16 25.35L307 388.4c-11.22 39.12-8.66 91.09 8.13 128.16 10.55 23.21 25.62 42.95 44.23 52.2z"/><g id="Web"><path class="cls-4" d="M335.5 432.5c-8.5 69 23.86 136.26 23.86 136.26L375.84 453"/><path class="cls-4" d="M355.81 440.5c-7.69 46 3.55 128.26 3.55 128.26S307 503.14 314.24 421.82"/><path class="cls-4" d="M300.22 427.5s7.27 7.14 14-5.68c0 0 6.76 29.68 21.26 10.68 0 0 6.12 25.5 20.31 8 0 0 5.36 29.47 20 12.48 0 0 1.45 11.92 13.31 11m-88.88-15.48s5.35 6.31 13.59-3.49c0 0 7.47 24.37 20.27 12 0 0 6.1 22.5 19.24 9.51 0 0 9.25 18.83 19.36 6.66 0 0 .66 10.39 13.49 9.36m-83.56-11.13s6 9.36 13.43-1.77c0 0 4.47 20.75 19.34 9.82 0 0 5.9 18.74 17.76 7.14 0 0 6.46 15.38 17.13 7.51 0 0 1.92 10.65 13.07 8.52m-76.77-10.78s6 9.71 14.9 0c0 0 7.12 15.91 16.82 8.78 0 0 5.78 13.64 15.49 5.75 0 0 5.74 11.64 13.73 5.13 0 0 3.45 11.21 12 7.6m-65.96-6.27s5.12 7.84 15 0c0 0 5.38 11.31 12.9 5 0 0 6.93 11.33 13.48 5.5 0 0 3.46 9.52 10 5.09 0 0 3.21 10.19 10.88 5.13m-54.59-4.96s9 6.25 14.51.7c0 0 5.34 8.11 10.22 3.16 0 0 3.54 8.87 9.92 4 0 0 3.27 6.81 7.58 3.57 0 0 3.05 8.76 9.05 5m-42.4-2.47s7.37 7 12.93.87c0 0 3.41 4.34 6.9 1.45 0 0 3.56 4.85 6.94 2.19 0 0 2.48 4.24 5.31 1.92 0 0 2.32 7.12 7.11 4.15"/><path class="cls-6" d="M339.16 553.46s6 5.23 10.54 1.26l3.74-.14s2.68 2.27 4.28.5c0 0 2.83 2.28 3.43 1.13 0 0 1.54 4.95 5.13 3.4l-5.47 7-9.9-2.93-7.91-7.24"/><path class="cls-2" d="M313.22 429.74c.08 10.66 6.87 26.25 18.62 28 1.89.28 2.71-2.61.8-2.89-10.32-1.5-16.35-15.62-16.42-25.07a1.5 1.5 0 0 0-3 0z"/><path class="cls-2" d="M331.82 454.8c-8 4.92-13.22-10.24-15.78-15.32a1.51 1.51 0 0 0-2.8.76 13 13 0 0 0 2.2 7.21 16.41 16.41 0 0 1 2.41 4.43 13.5 13.5 0 0 0 1.39 3.62 10.8 10.8 0 0 0 11.17 4.75c1.9-.32 1.09-3.21-.8-2.89-5 .84-7.7-2.6-9-6.83-1.18-3.78-4.27-6-4.35-10.29l-2.8.75c3.38 6.7 9.47 22.8 19.9 16.4 1.64-1 .14-3.61-1.52-2.59zm3.18-16.05c-.49 11.1 4.46 27.49 17.21 29.15 1.91.25 1.89-2.75 0-3-10.76-1.4-14.61-17.08-14.21-26.15.08-1.93-2.92-1.92-3 0z"/><path class="cls-2" d="M352.09 464.74c-9.92 1.36-13.2-9.15-15-16.77-.41-1.72-2.84-1.22-3 .4-.36 5.36-.41 12.94 3.32 17.28a10.4 10.4 0 0 0 11.74 2.73c1.19-.48 1.64-2.62 0-2.89-3.2-.52-8.37.82-8.55-4-.07-1.92-3.07-1.93-3 0a6.85 6.85 0 0 0 2.52 5.39c2.47 1.94 5.37 1 8.23 1.48v-2.89c-10.59 4.26-11.72-10.22-11.26-17.12l-2.95.4c2.27 9.62 6.86 20.49 18.69 18.86 1.9-.26 1.09-3.15-.8-2.89z"/><path class="cls-2" d="M338 462a1.5 1.5 0 0 0 0-3 1.5 1.5 0 0 0 0 3zm16.69-14c-.91 11.17 1.83 28.75 17.05 27 1.9-.21 1.92-3.22 0-3-13.52 1.51-14.83-14.49-14.05-24 .16-1.92-2.84-1.91-3 0z"/><path class="cls-2" d="M370.24 473a9.74 9.74 0 0 1-8.79-3.69c-1.84-2.14-4.75-6.22-4.43-9.17h-3a21.47 21.47 0 0 0 4 13c2 2.76 5 5.85 8.55 3.94 1.7-.9.19-3.49-1.52-2.59-2.48 1.32-5.49-4.28-6.26-5.88a18.47 18.47 0 0 1-1.79-8.51c0-2-2.8-1.88-3 0-.42 3.84 2.91 8.57 5.31 11.29a12.49 12.49 0 0 0 10.93 4.61c1.89-.24 1.91-3.24 0-3zm4.76-14c-.17 5-1.4 11.27 1 15.95 1.93 3.78 5.6 6 9.49 7.36l.4-2.95c-5.35.6-9.79-2.57-10.29-8.11-.18-1.91-3.18-1.93-3 0 .64 7 6.15 11.91 13.29 11.11a1.5 1.5 0 0 0 .4-2.94c-4.12-1.44-7.58-4-8.38-8.47-.69-3.83 0-8.09.1-11.95.06-1.94-2.94-1.93-3 0zm-76-23.09c1.21 6.71 5.8 12.67 13.3 11l-1.16-2.74c-1.48 1-4.08 2.77-5.92 1.93-1.31-.6-1.71-2.52-2.85-3.5a1.51 1.51 0 0 0-2.51 1.45c.43 2.21 1.62 5.1 4.37 4.9a2.41 2.41 0 0 0 1.58-4.22c-1.45-1.25-3.58.86-2.12 2.12-.37-.32-.8-2.89-.93-3.59l-2.51 1.46c1.83 1.59 1.92 4 4.71 4.53s5.58-1.06 7.7-2.49a1.51 1.51 0 0 0-1.16-2.75c-5.88 1.34-8.72-4-9.61-8.87-.34-1.9-3.23-1.09-2.89.8zm.59 20.45c.68 4.42 1.61 10.55 5.54 13.35a9.31 9.31 0 0 0 10.28.29l-1.82-2.36a13.24 13.24 0 0 1-3.66 3.15c-2.7 1.15-3.53-.45-4.41-2.77l-2.21 1.69a23.2 23.2 0 0 0 6 3.29c1.82.67 2.6-2.23.8-2.9a20.35 20.35 0 0 1-5.3-3c-1-.78-2.65.52-2.21 1.69.94 2.46 2.24 5.23 5.18 5.58 3.1.37 6-2.61 7.92-4.63a1.51 1.51 0 0 0-1.82-2.35 6.18 6.18 0 0 1-8.56-1.84c-1.77-2.81-2.36-6.78-2.85-10-.3-1.91-3.19-1.1-2.9.79z"/><path class="cls-2" d="M313.92 453c.42 6.5.61 14.75 4.48 20.28a15.66 15.66 0 0 0 14.6 6.36 1.5 1.5 0 0 0 0-3c-9.31-.23-13.45-9.07-16.06-16.71-.62-1.82-3.52-1-2.89.79 3.08 9 8.18 18.65 18.95 18.92v-3c-13.89 1.49-15.45-13.32-16.11-23.64-.13-1.92-3.13-1.93-3 0z"/><path class="cls-2" d="M316.84 472.64a13 13 0 0 0 13.24 8.49l-.4-2.94a11.11 11.11 0 0 1-3.19.38c-2 0-1.89 2.82 0 3a39.52 39.52 0 0 0 5.76.15c1.92-.09 1.93-3.09 0-3a39.52 39.52 0 0 1-5.76-.15v3a13.77 13.77 0 0 0 4-.49c1.59-.43 1.33-3.09-.4-2.95a10 10 0 0 1-10.35-6.29c-.69-1.78-3.59-1-2.89.8zm16.27-8.39c1.36 10.72 3.72 25.31 18 23.1l-.8-2.89c-3.24 1.27-7.45 2.81-9.88-1l-2.43 1.81c2.81 2.69 5.49 4.82 9.47 5.07 1.93.12 1.93-2.88 0-3-3.18-.2-5.21-2.14-7.34-4.19-1.2-1.15-3.3.34-2.36 1.82 3.12 4.9 8.44 4.28 13.27 2.38a1.5 1.5 0 0 0-.8-2.89c-11.79 1.83-13.11-11.9-14.16-20.21-.24-1.89-3.25-1.91-3 0z"/><path class="cls-2" d="M338.25 484.5a1.5 1.5 0 0 0 0-3 1.5 1.5 0 0 0 0 3zm12.5 3a1.5 1.5 0 0 0 0-3 1.5 1.5 0 0 0 0 3z"/><path class="cls-2" d="M351.5 487.25a1.5 1.5 0 0 0 0-3 1.5 1.5 0 0 0 0 3z"/><path class="cls-2" d="M352.27 469.75c0 6.22-.77 12.83 3.14 18.16a16.44 16.44 0 0 0 13.4 6.59l-.76-2.8c-4.26 2.58-8.29-.83-11.36-3.62-1.42-1.3-3.55.82-2.12 2.12 4.21 3.83 9.41 7.47 15 4.1a1.52 1.52 0 0 0-.76-2.8 13.25 13.25 0 0 1-12.12-7.31c-2.14-4.42-1.41-9.68-1.42-14.44a1.5 1.5 0 0 0-3 0z"/><path class="cls-2" d="M372 477.14c-1.34 4.82-3.2 11.38-1.17 16.23 1.86 4.44 6.46 6.5 10.88 7.48l-.67-2.51c-2.92 2.39-5.75-.74-7.28-3-1-1.6-3.65-.1-2.59 1.52 2.78 4.21 7.43 7.37 12 3.65a1.5 1.5 0 0 0-.66-2.5c-4.65-1-9-3.11-9.47-8.5-.31-3.81.85-7.9 1.86-11.53a1.5 1.5 0 0 0-2.89-.79z"/><path class="cls-2" d="M378.82 498.08a12.3 12.3 0 0 1-5.82-11.85c.23-1.91-2.77-1.89-3 0a15.23 15.23 0 0 0 7.28 14.44c1.64 1 3.14-1.56 1.51-2.59zm-54.49-16.25a1.5 1.5 0 0 0 0-3 1.5 1.5 0 0 0 0 3zm-22.54-7.32c1.08 9.28 6.89 22.78 18.64 17.46l-1.82-2.35c-3 3.39-7.73 3.33-10.32-.54-1.06-1.6-3.66-.1-2.59 1.51 3.6 5.39 10.68 6.09 15 1.15a1.51 1.51 0 0 0-1.81-2.36c-9.22 4.17-13.35-8.17-14.13-14.87-.22-1.89-3.22-1.92-3 0z"/><path class="cls-2" d="M317.57 480.78c3.3 9.2 7.07 20.57 19.09 18.67l-1.9-1.44c-.3 3-6.28-.61-6.48-.78-1.47-1.24-3.6.87-2.12 2.12 3.15 2.67 11 4.65 11.6-1.34.11-1.07-1-1.59-1.89-1.45-9.94 1.57-12.8-9.3-15.41-16.57-.64-1.81-3.54-1-2.89.79z"/><path class="cls-2" d="M334.8 486.12c1.3 5.07 1.86 12.49 5.69 16.49 3.17 3.32 7.86 3.89 12.19 3.29l-1.7-2.21c-2.25 3-5.94 1-8.41-.45-1.68-.95-3.2 1.64-1.52 2.59 4.28 2.44 9.15 3.87 12.52-.62.9-1.19-.58-2.36-1.69-2.21-4.95.69-9.43-1-11.14-6-1.31-3.78-2.06-7.82-3.05-11.69-.48-1.87-3.37-1.07-2.89.8z"/><path class="cls-2" d="M351.81 491.1c.77 5 .84 11 3.81 15.28 2.48 3.59 6.38 4.38 10.51 4.45l-.75-2.79c-3.09 2-6.24.41-9.13-1.15-1.7-.92-3.22 1.67-1.52 2.59 3.91 2.11 8.09 3.78 12.16 1.15a1.52 1.52 0 0 0-.76-2.8c-5.21-.09-8.42-2.07-9.73-7.25-.84-3.34-1.17-6.87-1.69-10.28-.3-1.9-3.19-1.09-2.9.8z"/><path class="cls-2" d="M355.5 507.33a1.5 1.5 0 0 0 0-3 1.5 1.5 0 0 0 0 3zm14.2-10.26c-2.1 8.32-2.44 19 8 21.27v-2.9c-3.76 1.06-6.16-2-8.2-4.58-1.2-1.52-3.31.62-2.13 2.12 2.85 3.58 6.24 6.73 11.12 5.36a1.51 1.51 0 0 0 0-2.9c-8.69-1.9-7.55-10.92-5.86-17.57.47-1.87-2.42-2.67-2.9-.8zm-62.55-.86c1.83 9.54 8.73 19.58 19.76 17.1l-1.15-2.75c-3.41 1.59-7.85 2.46-10.27-1.24-1.06-1.61-3.66-.11-2.59 1.51 3.37 5.16 9.37 4.66 14.37 2.32 1.6-.74.43-3.1-1.15-2.74-9.37 2.11-14.59-7.25-16.08-15-.36-1.9-3.26-1.09-2.89.79z"/><path class="cls-2" d="M322.57 499.77c2.54 7.37 7.47 20 17.45 17.54l-1.69-2.2c-1.3 2.69-4.26.74-5.7-.09a1.5 1.5 0 0 0-1.51 2.59c3.21 1.87 7.78 3.22 9.8-1a1.52 1.52 0 0 0-1.7-2.2c-7.69 1.89-11.88-10-13.76-15.44-.63-1.82-3.53-1-2.89.79z"/><path class="cls-2" d="M338.17 506.23c1.26 4.2 2.17 8.88 4.78 12.49 2.4 3.33 5.7 4.38 9.62 4.93l-.36-2.74a3.12 3.12 0 0 1-3 .64c-1.88-.39-2.69 2.5-.8 2.89a6.52 6.52 0 0 0 5.29-.94c.95-.62 1-2.54-.36-2.74-3.93-.55-6.94-1.64-8.92-5.31-1.65-3.06-2.38-6.7-3.37-10-.56-1.84-3.45-1.05-2.9.8z"/><path class="cls-2" d="M353.56 510.15c-.27 7.25.66 17.24 9.57 18.64 1.89.29 2.7-2.6.8-2.9-7.53-1.18-7.59-9.83-7.37-15.74.07-1.93-2.93-1.92-3 0z"/><path class="cls-2" d="M366.19 514.33c-2.21 8.1-2.34 18.34 7.89 20.4 1.88.38 2.69-2.51.8-2.89-8.56-1.73-7.57-10.22-5.79-16.71a1.51 1.51 0 0 0-2.9-.8zm-51.38 3.74c1.31 3.86 3.27 8.6 7 10.69a17.46 17.46 0 0 0 11.31 1.41c1.92-.44 1.07-3.19-.8-2.9-4 .63-8 .1-11-3-2.09-2.19-3.32-5.11-4.53-7.84-.78-1.76-3.36-.24-2.59 1.52 1.64 3.7 3.46 7.62 6.83 10.06 3.57 2.57 7.86 2.79 12.06 2.14l-.8-2.9a14.27 14.27 0 0 1-9-1.1c-3-1.66-4.62-5.88-5.64-8.9-.61-1.82-3.51-1-2.89.8z"/><path class="cls-2" d="M333.5 530a1.5 1.5 0 0 0 0-3 1.5 1.5 0 0 0 0 3z"/><path class="cls-2" d="M331 520.91l2.55 5.79a16.17 16.17 0 0 0 2.52 4.66c2.15 2.29 5.31 2.42 8.2 1.79 1.63-.36 1.3-3.08-.4-2.95a7.63 7.63 0 0 1-7.56-4.14c-.9-1.71-3.49-.19-2.59 1.51a10.57 10.57 0 0 0 10.15 5.63l-.4-2.94c-3.08.67-5.14-.22-6.46-3.1-1.18-2.57-2.28-5.18-3.42-7.76-.78-1.77-3.36-.24-2.59 1.51z"/><path class="cls-2" d="M342.36 525.12c1 3.42 1.66 7.56 4.46 10a9.42 9.42 0 0 0 7.95 2.17c1.65-.26 1.28-3.16-.4-2.94-4 .51-6.51-2.37-8.17-5.61-.88-1.72-3.47-.2-2.59 1.52 2.1 4.09 5.8 7.73 10.76 7.09l-.4-2.95c-6.16 1-7.39-5.69-8.72-10.13-.55-1.84-3.44-1.06-2.89.8z"/><path class="cls-2" d="M354 528.62c0 5.37 1.57 12.34 8.19 12.53 1.94.05 1.93-2.95 0-3-4.74-.14-5.18-6-5.19-9.53a1.5 1.5 0 0 0-3 0z"/><path class="cls-2" d="M363.65 532c.12 1.91-.91 3.58-1 5.47a8.38 8.38 0 0 0 .86 4.12 9.27 9.27 0 0 0 6.69 4.61v-2.89c-1.57.29-3.1-1.77-3.6-2.95-.87-2.06-.62-4.38-.38-6.54.21-1.92-2.79-1.9-3 0-.37 3.37-.4 6.95 1.82 9.74a6.52 6.52 0 0 0 6 2.64 1.51 1.51 0 0 0 0-2.89c-2.49-.47-4.8-1.83-5.26-4.51-.4-2.31 1.07-4.45.92-6.8-.13-1.92-3.13-1.93-3 0zm-41.24.47c2 3.21 4.23 7.32 7.28 9.64s7.41 2.52 11 2.31c1.92-.11 1.93-3.11 0-3-3.3.19-7.37.1-9.88-2.36-2.31-2.25-4.11-5.37-5.79-8.11-1-1.64-3.61-.13-2.59 1.52z"/><path class="cls-2" d="M337.58 535.15c2.1 4.19 4.39 11.12 10.24 10.62 1.91-.16 1.92-3.16 0-3-4.25.37-6.13-6.1-7.65-9.13-.87-1.73-3.45-.21-2.59 1.51z"/><path class="cls-2" d="M346.6 538.26c1.19 4.1 3.47 10.35 8.76 9.55 1.9-.29 1.09-3.18-.8-2.89-2.79.42-4.52-5.59-5.07-7.46a1.5 1.5 0 0 0-2.89.8z"/><path class="cls-2" d="M355.25 544a6.89 6.89 0 0 0 4.71 5.88c1.83.61 2.62-2.29.8-2.9a3.75 3.75 0 0 1-2.51-3 1.54 1.54 0 0 0-1.5-1.5 1.52 1.52 0 0 0-1.5 1.5z"/><path class="cls-2" d="M361.7 543.64a8.92 8.92 0 0 0 5 10.54c1.75.77 3.28-1.82 1.52-2.59a6 6 0 0 1-3.65-7.15c.46-1.87-2.43-2.67-2.89-.8zm-28 5.12c3.22 4.2 7.89 7 13.3 6.91 1.93 0 1.93-3 0-3a13.29 13.29 0 0 1-10.71-5.43c-1.16-1.51-3.76 0-2.59 1.52z"/></g><g clip-path="url(#clip-path)"><path class="cls-2" d="M402.85 290.77l-33-4.53a38.38 38.38 0 0 0-17.54 1.67 37.75 37.75 0 0 0-24.15 25.35L308 383.4a183 183 0 0 0-6.41 38.76l.63-.65a6 6 0 0 0 4.65 1.5c2.45-.4 3.87-2.75 6-6.8l3.79.36c.91 4 4.43 14.63 9.67 15.77 2.61.57 5.63-1.34 8.93-5.66l2.65.56c.78 3.22 3.82 11.81 8.53 12.87 2.65.6 5.73-1.24 9.16-5.47l3.64.94c.74 4.08 2.8 14.72 7.95 16.12 2.41.65 5.26-.89 8.46-4.61l2.63.8c.05.43 1.46 10.47 11.7 9.65l.11 1.45c3.33-24.22 11.94-86.94 16.41-119.45 5.66-40.85-3.65-48.77-3.65-48.77zm-12.58 169.77l-.13-1.55-.21 1.56z"/><path class="cls-2" d="M301.63 422.16l-.41.43-1.05 1.07a8.62 8.62 0 0 0 1.32 1c.05-.83.09-1.66.14-2.5z"/></g><path class="cls-3" d="M456.69 568.76c-17.42-13.22-28.42-94.89-28.42-94.89L410.5 344.54c-5.61-40.85 3.71-48.77 3.71-48.77l33-4.53a38.34 38.34 0 0 1 17.53 1.67 37.76 37.76 0 0 1 24.16 25.35L509 388.4c11.22 39.12 8.67 91.09-8.13 128.16-10.5 23.21-25.57 42.95-44.18 52.2z"/><g id="Web-2" data-name="Web"><path class="cls-4" d="M480.55 432.5c8.5 69-23.86 136.26-23.86 136.26L440.22 453"/><path class="cls-4" d="M460.24 440.5c7.69 46-3.55 128.26-3.55 128.26s52.38-65.62 45.12-146.94"/><path class="cls-4" d="M515.84 427.5s-7.27 7.14-14-5.68c0 0-6.76 29.68-21.26 10.68 0 0-6.12 25.5-20.31 8 0 0-5.36 29.47-20 12.48 0 0-1.46 11.92-13.31 11m88.88-15.48s-5.35 6.31-13.6-3.49c0 0-7.47 24.37-20.26 12 0 0-6.1 22.5-19.24 9.51 0 0-9.25 18.83-19.37 6.66 0 0-.66 10.39-13.49 9.36m83.56-11.13s-6 9.36-13.43-1.77c0 0-4.47 20.75-19.33 9.82 0 0-5.91 18.74-17.77 7.14 0 0-6.46 15.38-17.13 7.51 0 0-1.91 10.65-13.07 8.52m76.77-10.78s-6 9.71-14.9 0c0 0-7.11 15.91-16.82 8.78 0 0-5.77 13.64-15.49 5.75 0 0-5.73 11.64-13.73 5.13 0 0-3.44 11.21-12 7.6m65.96-6.27s-5.11 7.84-15 0c0 0-5.38 11.31-12.9 5 0 0-6.93 11.33-13.47 5.5 0 0-3.47 9.52-10 5.09 0 0-3.21 10.19-10.87 5.13m54.57-4.96s-9 6.25-14.51.7c0 0-5.34 8.11-10.22 3.16 0 0-3.53 8.87-9.91 4 0 0-3.28 6.81-7.58 3.57 0 0-3.06 8.76-9.06 5m42.45-2.47s-7.37 7-12.93.87c0 0-3.42 4.34-6.91 1.45 0 0-3.56 4.85-6.94 2.19 0 0-2.48 4.24-5.3 1.92 0 0-2.33 7.12-7.12 4.15"/><path class="cls-6" d="M476.89 553.46s-6 5.23-10.53 1.26l-3.74-.14s-2.69 2.27-4.28.5c0 0-2.84 2.28-3.44 1.13 0 0-1.53 4.95-5.13 3.4l5.47 7 9.9-2.93 7.91-7.25"/><path class="cls-2" d="M499.84 429.74c-.07 9.45-6.1 23.57-16.43 25.07-1.9.28-1.09 3.17.8 2.89 11.75-1.7 18.55-17.31 18.63-28a1.5 1.5 0 0 0-3 0z"/><path class="cls-2" d="M482.72 457.39c10.42 6.4 16.53-9.72 19.89-16.4l-2.8-.75c-.07 4.3-3.16 6.47-4.35 10.29-1.32 4.23-4 7.68-9 6.83-1.89-.32-2.7 2.57-.79 2.89a10.81 10.81 0 0 0 11.17-4.75c1.51-2.43 1.81-5.2 3.48-7.6a13.21 13.21 0 0 0 2.51-7.66 1.51 1.51 0 0 0-2.79-.76c-2.55 5-7.76 20.25-15.79 15.32-1.65-1-3.16 1.58-1.51 2.59zM478 438.75c.39 9.07-3.46 24.75-14.22 26.15-1.88.25-1.91 3.25 0 3 12.75-1.66 17.7-18.06 17.22-29.15-.09-1.92-3.09-1.93-3 0z"/><path class="cls-2" d="M463.17 467.63c11.83 1.63 16.42-9.24 18.68-18.86l-3-.4c.47 6.9-.64 21.39-11.26 17.12v2.89c2.87-.47 5.75.47 8.24-1.48a6.89 6.89 0 0 0 2.51-5.39c.08-1.93-2.92-1.93-3 0-.18 4.8-5.35 3.46-8.55 4-1.63.27-1.19 2.41 0 2.89a10.41 10.41 0 0 0 11.75-2.73c3.73-4.34 3.67-11.92 3.31-17.28-.1-1.61-2.53-2.13-2.94-.4-1.8 7.62-5.07 18.13-15 16.77-1.89-.26-2.7 2.63-.79 2.89z"/><path class="cls-2" d="M478.05 462a1.5 1.5 0 0 0 0-3 1.5 1.5 0 0 0 0 3zm-19.69-14c.78 9.56-.53 25.56-14 24-1.92-.22-1.9 2.79 0 3 15.21 1.7 17.95-15.89 17-27-.15-1.91-3.16-1.92-3 0z"/><path class="cls-2" d="M445.81 476a12.51 12.51 0 0 0 10.92-4.57c2.4-2.72 5.72-7.47 5.31-11.29-.2-1.88-3-2-3 0a18.73 18.73 0 0 1-1.78 8.52c-.77 1.6-3.79 7.2-6.27 5.88-1.7-.9-3.22 1.69-1.51 2.59 3.59 1.91 6.53-1.17 8.55-3.94a21.52 21.52 0 0 0 4-13h-3c.32 2.92-2.61 7.08-4.43 9.17a9.82 9.82 0 0 1-8.8 3.69c-1.9-.24-1.89 2.76 0 3zM438 459c.13 3.86.78 8.12.1 11.95-.81 4.5-4.27 7-8.38 8.47a1.5 1.5 0 0 0 .4 2.94c7.12.8 12.65-4.11 13.29-11.11.17-1.92-2.83-1.91-3 0-.51 5.54-4.94 8.71-10.29 8.11l.39 2.95c3.9-1.36 7.56-3.57 9.5-7.36 2.39-4.68 1.16-10.93 1-15.95-.07-1.93-3.07-1.94-3 0zm76.17-23.89c-.89 4.92-3.72 10.21-9.61 8.87a1.51 1.51 0 0 0-1.15 2.75c2.12 1.44 5 3 7.69 2.49s2.89-3 4.72-4.53l-2.51-1.46c-.14.7-.56 3.27-.94 3.59 1.47-1.26-.66-3.37-2.12-2.12a2.42 2.42 0 0 0 1.59 4.22c2.74.17 3.93-2.67 4.36-4.9a1.51 1.51 0 0 0-2.51-1.45c-1.13 1-1.53 2.9-2.85 3.5-1.83.84-4.44-.93-5.92-1.93l-1.15 2.74c7.49 1.7 12.08-4.26 13.3-11 .34-1.89-2.55-2.7-2.9-.8zm-.6 20.46c-.5 3.22-1.09 7.2-2.85 10a6.19 6.19 0 0 1-8.56 1.84 1.5 1.5 0 0 0-1.82 2.35c2 2 4.82 5 7.91 4.63s4.24-3.1 5.18-5.58c.44-1.16-1.18-2.47-2.2-1.69a20.12 20.12 0 0 1-5.31 3c-1.79.67-1 3.57.8 2.9a23 23 0 0 0 6-3.29l-2.2-1.69c-.88 2.32-1.72 3.92-4.42 2.77a13.24 13.24 0 0 1-3.66-3.15l-1.8 2.34a9.32 9.32 0 0 0 10.29-.29c3.93-2.8 4.85-8.93 5.53-13.35.29-1.88-2.6-2.7-2.89-.79z"/><path class="cls-2" d="M499.14 453c-.67 10.35-2.21 25.13-16.12 23.64v3c10.77-.27 15.87-9.87 19-18.92.62-1.83-2.28-2.61-2.9-.79-2.6 7.63-6.75 16.48-16.06 16.71-2 0-1.88 2.79 0 3a15.66 15.66 0 0 0 14.63-6.36c3.88-5.54 4.07-13.78 4.49-20.28.12-1.93-2.88-1.92-3 0z"/><path class="cls-2" d="M496.32 471.84a10 10 0 0 1-10.32 6.29c-1.71-.14-2 2.52-.4 2.95a13.88 13.88 0 0 0 4 .49v-3a39.59 39.59 0 0 1-5.76.15c-1.93-.09-1.93 2.91 0 3a39.59 39.59 0 0 0 5.76-.15c1.88-.18 2-3 0-3a11.13 11.13 0 0 1-3.2-.38l-.4 2.94a13.06 13.06 0 0 0 13.25-8.49c.69-1.8-2.21-2.58-2.9-.8zM480 464.25c-1.06 8.31-2.38 22-14.17 20.21a1.5 1.5 0 0 0-.8 2.89c4.83 1.9 10.15 2.53 13.27-2.38.94-1.47-1.14-3-2.35-1.82-2.14 2.05-4.16 4-7.35 4.19-1.92.12-1.93 3.12 0 3 4-.25 6.67-2.38 9.47-5.07l-2.36-1.82c-2.42 3.82-6.64 2.28-9.88 1l-.8 2.89c14.24 2.21 16.61-12.39 18-23.1.24-1.91-2.76-1.89-3 0z"/><path class="cls-2" d="M477.8 484.5a1.5 1.5 0 0 0 0-3 1.5 1.5 0 0 0 0 3zm-12.5 3a1.5 1.5 0 0 0 0-3 1.5 1.5 0 0 0 0 3z"/><path class="cls-2" d="M464.55 487.25a1.5 1.5 0 0 0 0-3 1.5 1.5 0 0 0 0 3z"/><path class="cls-2" d="M460.78 469.75c0 4.73.76 10.06-1.42 14.44a13.31 13.31 0 0 1-12.12 7.31 1.51 1.51 0 0 0-.75 2.8c5.58 3.37 10.79-.27 15-4.1 1.43-1.3-.69-3.42-2.12-2.12-3.08 2.81-7 6.24-11.36 3.62l-.76 2.8a16.43 16.43 0 0 0 13.4-6.59c3.92-5.33 3.13-11.93 3.14-18.16a1.5 1.5 0 0 0-3 0z"/><path class="cls-2" d="M441.21 477.93c1 3.56 2.22 7.79 1.86 11.53-.51 5.34-4.74 7.45-9.47 8.5a1.5 1.5 0 0 0-.66 2.5c4.57 3.73 9.22.55 12-3.65 1.07-1.62-1.53-3.12-2.59-1.52-1.52 2.31-4.35 5.44-7.28 3l-.66 2.51c4.41-1 9-3 10.87-7.48 2-4.85.17-11.43-1.17-16.23a1.5 1.5 0 0 0-2.89.79z"/><path class="cls-2" d="M438.75 500.67a15.22 15.22 0 0 0 7.25-14.44c-.23-1.89-3.23-1.91-3 0a12.26 12.26 0 0 1-5.79 11.85c-1.63 1-.12 3.62 1.52 2.59zm52.97-18.84a1.5 1.5 0 0 0 0-3 1.5 1.5 0 0 0 0 3zm19.54-7.32c-.77 6.7-4.9 19-14.12 14.87a1.51 1.51 0 0 0-1.82 2.36c4.35 4.94 11.43 4.24 15-1.15 1.08-1.61-1.52-3.11-2.59-1.51-2.59 3.87-7.33 3.93-10.32.54l-1.79 2.38c11.76 5.32 17.57-8.18 18.64-17.46.22-1.91-2.78-1.9-3 0z"/><path class="cls-2" d="M495.59 480c-2.61 7.27-5.47 18.14-15.4 16.57-.86-.14-2 .38-1.9 1.45.6 6 8.47 4 11.61 1.34 1.47-1.25-.66-3.36-2.12-2.12-.2.17-6.19 3.75-6.49.78l-1.9 1.44c12 1.9 15.79-9.47 19.09-18.67.66-1.82-2.24-2.6-2.89-.79z"/><path class="cls-2" d="M478.36 485.32c-1 3.87-1.74 7.91-3 11.69-1.72 5-6.2 6.68-11.14 6-1.11-.15-2.59 1-1.7 2.21 3.37 4.49 8.25 3.06 12.52.62a1.5 1.5 0 0 0-1.51-2.59c-2.47 1.41-6.17 3.45-8.42.45l-1.69 2.21c4.29.59 9.06.05 12.19-3.29 3.81-4.06 4.38-11.37 5.69-16.49.47-1.87-2.42-2.67-2.9-.8z"/><path class="cls-2" d="M461.35 490.3c-.53 3.41-.85 6.94-1.7 10.28-1.31 5.18-4.51 7.16-9.73 7.25a1.52 1.52 0 0 0-.76 2.8c4.07 2.63 8.26 1 12.16-1.15 1.7-.92.19-3.51-1.51-2.59-2.93 1.58-6 3.15-9.13 1.15l-.76 2.79c4.14-.07 8-.85 10.52-4.45 3-4.27 3-10.3 3.8-15.28.29-1.89-2.6-2.7-2.89-.8z"/><path class="cls-2" d="M460.55 507.33a1.5 1.5 0 0 0 0-3 1.5 1.5 0 0 0 0 3zm-17.09-9.46c1.69 6.67 2.86 15.66-5.87 17.57a1.52 1.52 0 0 0 0 2.9c4.86 1.36 8.28-1.78 11.12-5.36 1.19-1.5-.92-3.64-2.12-2.12-2 2.57-4.42 5.65-8.2 4.58v2.9c10.41-2.29 10.07-13 8-21.27-.47-1.87-3.37-1.08-2.89.8zm62.54-2.45c-1.49 7.74-6.7 17.11-16.07 15-1.57-.35-2.77 2-1.16 2.74 5 2.34 11 2.83 14.38-2.32 1.06-1.61-1.54-3.12-2.59-1.51-2.43 3.7-6.87 2.83-10.27 1.24l-1.16 2.75c11 2.48 17.93-7.56 19.77-17.1.36-1.88-2.53-2.69-2.9-.79z"/><path class="cls-2" d="M490.6 499c-1.89 5.44-6.07 17.33-13.77 15.44a1.52 1.52 0 0 0-1.69 2.2c2 4.21 6.58 2.86 9.8 1a1.5 1.5 0 0 0-1.52-2.59c-1.43.83-4.4 2.78-5.69.09l-1.7 2.2c10 2.45 14.91-10.18 17.46-17.54.63-1.82-2.27-2.61-2.89-.79z"/><path class="cls-2" d="M475 505.43c-1 3.32-1.73 7-3.38 10-2 3.67-5 4.76-8.92 5.31-1.38.2-1.32 2.11-.36 2.74a6.52 6.52 0 0 0 5.29.94c1.89-.39 1.09-3.28-.8-2.89a3.1 3.1 0 0 1-3-.64l-.36 2.74c3.9-.55 7.21-1.61 9.61-4.93 2.61-3.59 3.53-8.31 4.78-12.49.56-1.85-2.34-2.64-2.89-.8z"/><path class="cls-2" d="M459.5 510.15c.22 5.91.16 14.56-7.38 15.74-1.9.3-1.09 3.19.8 2.9 8.92-1.4 9.85-11.4 9.58-18.64-.08-1.92-3.08-1.93-3 0z"/><path class="cls-2" d="M447 515.13c1.77 6.49 2.81 15-5.79 16.71-1.89.38-1.09 3.27.79 2.89 10.23-2.06 10.11-12.29 7.89-20.4a1.5 1.5 0 0 0-2.89.8zm51.35 2.14c-1 3-2.68 7.26-5.64 8.9a14.06 14.06 0 0 1-9 1.1l-.8 2.9c4.2.65 8.51.43 12.06-2.14 3.37-2.45 5.2-6.36 6.83-10.06.78-1.75-1.81-3.28-2.59-1.52-1.2 2.73-2.44 5.65-4.53 7.84-2.93 3.08-6.95 3.61-11 3-1.86-.29-2.72 2.45-.8 2.9a17.42 17.42 0 0 0 11.32-1.41c3.74-2.09 5.71-6.84 7-10.69.63-1.83-2.27-2.62-2.89-.8z"/><path class="cls-2" d="M482.55 530a1.5 1.5 0 0 0 0-3 1.5 1.5 0 0 0 0 3z"/><path class="cls-2" d="M482.44 519.4c-1.14 2.58-2.24 5.19-3.42 7.76-1.32 2.89-3.34 3.78-6.46 3.1l-.39 2.94a10.56 10.56 0 0 0 10.14-5.63c.91-1.7-1.68-3.22-2.59-1.51a7.61 7.61 0 0 1-7.55 4.14c-1.69-.13-2.05 2.59-.4 2.95 2.88.63 6.05.5 8.19-1.79a14.4 14.4 0 0 0 2.34-4.24l2.74-6.21c.77-1.75-1.82-3.28-2.6-1.51z"/><path class="cls-2" d="M470.8 524.32c-1.32 4.44-2.55 11.1-8.71 10.13l-.4 2.95c4.95.64 8.65-3 10.76-7.09.88-1.72-1.71-3.24-2.59-1.52-1.67 3.23-4.19 6.12-8.17 5.61-1.66-.22-2.07 2.68-.4 2.94a9.42 9.42 0 0 0 7.95-2.17c2.79-2.49 3.43-6.63 4.45-10 .56-1.86-2.34-2.65-2.89-.8z"/><path class="cls-2" d="M459 528.62c0 3.54-.44 9.39-5.19 9.53-1.93.05-1.93 3.05 0 3 6.66-.15 8.19-7.15 8.19-12.53a1.5 1.5 0 0 0-3 0z"/><path class="cls-2" d="M449.41 532c-.16 2.34 1.34 4.5.91 6.8-.49 2.66-2.75 4-5.26 4.51a1.51 1.51 0 0 0 0 2.89 6.54 6.54 0 0 0 6-2.64c2.21-2.8 2.19-6.36 1.81-9.74-.21-1.9-3.21-1.92-3 0 .24 2.16.5 4.48-.38 6.54-.49 1.16-2 3.24-3.6 2.95v2.89a9.25 9.25 0 0 0 6.69-4.61 8.17 8.17 0 0 0 .86-4.12c-.1-1.88-1.13-3.57-1-5.47s-2.87-1.92-3 0zm41.64-1c-1.68 2.74-3.48 5.86-5.79 8.11-2.51 2.46-6.58 2.55-9.87 2.36-1.93-.11-1.93 2.89 0 3 3.58.21 8 0 11-2.31s5.32-6.46 7.28-9.64c1-1.65-1.58-3.16-2.6-1.52z"/><path class="cls-2" d="M475.89 533.64c-1.52 3-3.41 9.5-7.65 9.13-1.93-.16-1.92 2.84 0 3 5.84.5 8.14-6.43 10.24-10.62.86-1.72-1.73-3.24-2.59-1.51z"/><path class="cls-2" d="M466.56 537.46c-.54 1.87-2.27 7.88-5.07 7.46-1.89-.29-2.7 2.6-.8 2.89 5.29.8 7.57-5.46 8.76-9.55a1.5 1.5 0 0 0-2.89-.8z"/><path class="cls-2" d="M457.8 544a3.74 3.74 0 0 1-2.5 3c-1.82.61-1 3.51.8 2.9a6.9 6.9 0 0 0 4.7-5.88 1.51 1.51 0 0 0-1.5-1.5 1.54 1.54 0 0 0-1.5 1.5z"/><path class="cls-2" d="M451.47 544.44a6 6 0 0 1-3.65 7.15c-1.77.77-.24 3.36 1.51 2.59a8.94 8.94 0 0 0 5-10.54c-.47-1.87-3.36-1.08-2.89.8zm28.29 2.8a13.27 13.27 0 0 1-10.71 5.43c-1.93 0-1.93 3 0 3 5.41.09 10.08-2.71 13.3-6.91 1.18-1.53-1.43-3-2.59-1.52z"/></g><g clip-path="url(#clip-path-2)"><path class="cls-2" d="M413.21 290.77l33-4.53a38.34 38.34 0 0 1 17.53 1.67 37.76 37.76 0 0 1 24.16 25.35L508 383.4a181.74 181.74 0 0 1 6.41 38.76l-.63-.65a6 6 0 0 1-4.65 1.5c-2.45-.4-3.87-2.75-6-6.8l-3.79.36c-.92 4-4.44 14.63-9.68 15.77-2.61.57-5.62-1.34-8.92-5.66l-2.65.56c-.78 3.22-3.83 11.81-8.53 12.87-2.65.6-5.74-1.24-9.16-5.47l-3.64.94c-.75 4.08-2.81 14.72-7.95 16.12-2.41.65-5.26-.89-8.47-4.61l-2.62.8c-.06.43-1.47 10.47-11.7 9.65l-.12 1.45c-3.32-24.22-11.94-86.94-16.41-119.45-5.6-40.85 3.72-48.77 3.72-48.77zm12.58 169.77l.12-1.55c.08.54.15 1.06.22 1.56zm88.63-38.38l.42.43 1 1.07a9 9 0 0 1-1.33 1c.01-.83-.03-1.66-.09-2.5z"/></g><path class="cls-2" d="M310 504.35a73.41 73.41 0 0 0-36.9 37.92 1.52 1.52 0 0 0 .54 2.05c10.19 4.58 15.08 15.18 18.2 25.32a105.4 105.4 0 0 1 4.21 34.56c-.75 23.23-7.15 45.88-13.62 68.06a1.5 1.5 0 0 0 2.89.8c7-24.1 14-48.88 13.8-74.2a102.14 102.14 0 0 0-6.11-35.1c-3.43-9.1-8.66-17.9-17.86-22l.54 2.06a71 71 0 0 1 35.83-36.85c1.75-.8.23-3.39-1.52-2.59z"/><path class="cls-4" d="M313.17 515.56S298 523.13 291 533.28c-7.29 10.58-12.34 9.94-16.59 9.75m12.44-3.62s16.77 18.14 18.36 42.92c1.36 21.17 1.36 35.32-8.68 35.32"/><path class="cls-2" d="M294.31 627.44c2.59 2.61 3.3 6.19 3.48 9.75.1 1.92 3.1 1.93 3 0-.22-4.36-1.19-8.68-4.36-11.87a1.5 1.5 0 0 0-2.12 2.12zm-3.12 15.87a12.49 12.49 0 0 1 3.31 9.86c-.17 1.92 2.83 1.91 3 0a15.46 15.46 0 0 0-4.19-12c-1.31-1.42-3.43.7-2.12 2.12zm-3.71 15.05a13.18 13.18 0 0 1 3 10.13c-.21 1.92 2.79 1.9 3 0a16.09 16.09 0 0 0-3.84-12.25c-1.24-1.48-3.35.65-2.12 2.12zm-10.66-116.31c5.76-3.25 9.58-8.37 13.52-13.53 5.72-7.48 12.4-12.21 20.73-16.56 1.72-.89.2-3.48-1.51-2.59-7.16 3.73-13.7 7.62-18.89 13.9-4.79 5.8-8.64 12.39-15.37 16.19a1.5 1.5 0 0 0 1.52 2.59zm5.5 1.16c9 9.28 14.39 20.84 17.07 33.38a108.9 108.9 0 0 1 2.19 18.17c.28 6.9 1.14 15.06-3.7 20.63-1.26 1.45.85 3.58 2.12 2.12 4.54-5.21 4.76-11.42 4.69-18a122.79 122.79 0 0 0-1.81-20.62c-2.54-14.15-8.38-27.34-18.44-37.75-1.35-1.39-3.47.73-2.12 2.12z"/><path class="cls-2" d="M283.32 543.21c8.93 9.26 14 20.84 16.43 33.38a116.72 116.72 0 0 1 1.86 18.17c.21 6.33 1.6 15.51-2.73 20.63-1.24 1.47.87 3.6 2.12 2.12 4.39-5.19 3.74-11.61 3.7-18a138.14 138.14 0 0 0-1.53-20.62c-2.23-14.14-7.71-27.36-17.73-37.75-1.34-1.39-3.46.73-2.12 2.12z"/><path class="cls-2" d="M304.52 583c.17-9.07-2.83-17.38-6.37-25.6-.76-1.77-3.35-.24-2.59 1.51 3.33 7.74 6.12 15.55 6 24.09 0 1.93 3 1.93 3 0z"/><path class="cls-2" d="M284.88 542.28a68.67 68.67 0 0 1 6.79 8.08c1.69 2.6 2.52 5.7 3.54 8.6.64 1.81 3.54 1 2.9-.8-1.11-3.14-2-6.5-3.85-9.31a74.29 74.29 0 0 0-7.26-8.69c-1.29-1.44-3.41.69-2.12 2.12zm18.95 44.22a1.5 1.5 0 0 0 0-3 1.5 1.5 0 0 0 0 3zm-24.02-49.74c8.86-11.12 17.91-21.26 30.81-27.75 1.72-.86.2-3.45-1.52-2.59-13.11 6.59-22.39 16.9-31.41 28.22-1.19 1.49.92 3.63 2.12 2.12z"/><path class="cls-2" d="M283.33 533.83a18.6 18.6 0 0 0 2.45-3.58c.88-1.71-1.7-3.23-2.59-1.52a15.29 15.29 0 0 1-2 3 1.54 1.54 0 0 0 0 2.12 1.51 1.51 0 0 0 2.12 0zm40.91-203.49a69.55 69.55 0 0 1-44.34-17.91 1.53 1.53 0 0 0-2.12 0 85.09 85.09 0 0 0-22.28 69.25c2.16 15.64 7.13 30.44 7.5 46.38a148.18 148.18 0 0 1-5.84 43.75 188 188 0 0 1-21 47c-1 1.65 1.58 3.16 2.59 1.51 18.71-30.44 30.3-66.51 26.61-102.52-1.89-18.48-9.06-36-7.32-54.77a82.39 82.39 0 0 1 21.86-48.47h-2.12a72.78 72.78 0 0 0 46.46 18.79c1.93.07 1.92-2.93 0-3z"/><path class="cls-4" d="M321.85 343.14c-46.32-4.34-43-29.65-43-29.65m4 13.02S259 349.19 267 388s1.58 38.2-2.5 40.42"/><path class="cls-2" d="M247.35 501.33a12.81 12.81 0 0 1 .47 9.2 1.5 1.5 0 0 0 2.89.8 16 16 0 0 0-.77-11.51c-.84-1.74-3.43-.22-2.59 1.51zm5.65-15.66a20.68 20.68 0 0 1 2.46 10.73c-.07 1.93 2.93 1.93 3 0a23.73 23.73 0 0 0-2.87-12.24c-.91-1.7-3.5-.19-2.59 1.51zm5.42-16.47c1.83 3.38 3.6 6.78 3.52 10.73 0 1.93 3 1.93 3 0 .09-4.47-1.85-8.41-3.93-12.25-.92-1.7-3.51-.18-2.59 1.52zm3.77-15.01a12.41 12.41 0 0 1 4.94 9.54c.06 1.93 3.06 1.94 3 0a15.23 15.23 0 0 0-5.82-11.66c-1.51-1.17-3.65.94-2.12 2.12zm1.64-16.33a9.8 9.8 0 0 1 5.87 7.23c.43 1.88 3.32 1.08 2.89-.8a12.6 12.6 0 0 0-7.25-9c-1.73-.83-3.25 1.75-1.51 2.59zM279 317.16a55.21 55.21 0 0 0 18.43 15.66c8 4.1 16.38 5.34 25.15 6.49 1.91.25 1.89-2.75 0-3-8.27-1.08-16.13-2.2-23.64-6.08a52 52 0 0 1-17.35-14.58c-1.16-1.51-3.77 0-2.59 1.51z"/><path class="cls-2" d="M287.1 324.05c3.27.75 6 3.38 8.95 5a60.49 60.49 0 0 0 7.46 3.42 61.59 61.59 0 0 0 17.33 3.7c1.92.14 1.92-2.86 0-3a57.58 57.58 0 0 1-19.39-4.77c-4.55-2.06-8.71-6.1-13.55-7.21-1.88-.44-2.68 2.45-.8 2.89zm-8.93-1.05c-11 11.8-17.14 29.64-18.1 45.58-.53 8.94 1.28 18.44 3.1 27.17 1.77 8.49 6.86 21.91 1 29.72-1.16 1.54 1.44 3 2.59 1.51 4.15-5.51 2.9-13.11 2-19.51-1.34-9.8-4.23-19.28-5.34-29.16-2-17.87 4.52-39.9 16.86-53.19 1.32-1.41-.8-3.54-2.12-2.12z"/><path class="cls-2" d="M269.37 406.5c-.89-7.46-2.19-14.88-3.44-22.28-.7-4.15-1.69-8.33-1.81-12.54-.22-7.29 1.66-14.3 4.42-21 .73-1.78-2.17-2.56-2.89-.8-4.45 10.79-5.09 20.81-3.12 32.16 1.41 8.12 2.86 16.27 3.84 24.45.22 1.89 3.22 1.92 3 0z"/><path class="cls-2" d="M269 350.12c1.63-8.53 6.82-16.54 12.18-23.22 1.2-1.5-.91-3.63-2.12-2.12-5.69 7.09-11.22 15.46-12.95 24.54-.36 1.89 2.53 2.69 2.89.8zm76.81-65.53c4.48-26.32-17-49.81-43.75-47l1.29 2.26a130 130 0 0 0 17.9-107.59 1.5 1.5 0 0 0-2.89.8 127 127 0 0 1-17.6 105.27 1.51 1.51 0 0 0 1.3 2.26 37.19 37.19 0 0 1 40.85 43.2c-.32 1.89 2.57 2.7 2.9.8z"/><path class="cls-4" d="M302.06 239.09S313 228.75 325.5 234a50.38 50.38 0 0 1 28.84 35.79"/><path class="cls-4" d="M317 232.51s13.5-24.09 15-45.76c1.24-18-7.55-17-7.55-17"/><path class="cls-2" d="M325.46 164.89c3.31-.95 5.27-3.67 6.35-6.81.62-1.84-2.28-2.62-2.9-.8-.72 2.13-2 4.07-4.25 4.72a1.5 1.5 0 0 0 .8 2.89zm-.29-10.33c3.18-1.61 5.74-4.15 5.86-7.9.06-1.93-2.94-1.93-3 0-.09 2.65-2.2 4.21-4.38 5.31-1.72.88-.2 3.47 1.52 2.59zm-1.85-11a11.82 11.82 0 0 0 5.1-7.5c.38-1.88-2.51-2.69-2.89-.8a8.76 8.76 0 0 1-3.73 5.74c-1.59 1.07-.09 3.67 1.52 2.59zm-16.53 96.31c9.37-1.17 19 .63 26 7.42 6.35 6.18 12.36 14.43 15.31 22.83.63 1.81 3.53 1 2.89-.8a64.05 64.05 0 0 0-17.21-25.21c-7.41-6.52-17.36-8.44-26.95-7.24-1.89.24-1.91 3.24 0 3z"/><path class="cls-2" d="M326.67 244.5c6.09 4 12.24 9.82 14.73 16.86 1.09 3.07 0 11.52 4.29 12.49a1.51 1.51 0 0 0 1.46-.39c2.6-2.83.19-7.14-.92-10.07-.68-1.79-3.58-1-2.9.8l1.34 3.53c1.16 2 1.46 2 .92-.1a16.48 16.48 0 0 0-.67-4.67 23.91 23.91 0 0 0-3.66-8.29 45.69 45.69 0 0 0-13.08-12.76c-1.62-1.06-3.12 1.54-1.51 2.6zm-3.14-71.5c7.32 8.85 3.11 21.84.13 31.66a99.6 99.6 0 0 1-13 27.5c-1.09 1.6 1.51 3.1 2.59 1.51A105.71 105.71 0 0 0 328 200.46c2.61-10 4.81-21-2.31-29.6-1.23-1.49-3.34.64-2.12 2.12z"/><path class="cls-2" d="M317.24 230.34c-.28-1.57 2.07-4.22 2.85-5.42l3-4.64c1.05-1.63-1.55-3.14-2.59-1.52l-4.37 6.79c-1.18 1.83-2.17 3.35-1.77 5.58.34 1.9 3.24 1.1 2.89-.79z"/><path class="cls-2" d="M325.53 172.91c5.37 6.6 3.87 15.49 2.3 23.25s-4.83 14.7-8.18 21.84c-.83 1.73 1.75 3.25 2.59 1.51 4.31-9 8-17.72 9.35-27.72 1.06-7.72 1.17-14.68-3.94-21-1.22-1.5-3.33.64-2.12 2.12zm179.01 334.03a71 71 0 0 1 35.83 36.85l.54-2.06c-8.9 4-14.11 12.39-17.54 21.19a101.56 101.56 0 0 0-6.43 35.94c-.2 25.32 6.77 50.1 13.8 74.2.54 1.84 3.44 1.06 2.89-.8-6.47-22.18-12.87-44.83-13.62-68.06a106 106 0 0 1 3.99-33.71c3.11-10.41 8-21.47 18.47-26.17a1.52 1.52 0 0 0 .54-2.05 73.41 73.41 0 0 0-36.9-37.92c-1.75-.8-3.27 1.79-1.52 2.59z"/><path class="cls-4" d="M502.91 515.56s15.17 7.57 22.17 17.72c7.29 10.58 12.34 9.94 16.59 9.75m-12.43-3.62s-16.77 18.14-18.37 42.92c-1.36 21.17-1.36 35.32 8.68 35.32"/><path class="cls-2" d="M519.65 625.32c-3.17 3.19-4.14 7.51-4.36 11.87-.1 1.93 2.9 1.92 3 0 .18-3.56.89-7.14 3.48-9.75a1.5 1.5 0 0 0-2.12-2.12zm3.12 15.87a15.46 15.46 0 0 0-4.19 12c.17 1.9 3.17 1.92 3 0a12.49 12.49 0 0 1 3.31-9.86c1.31-1.42-.8-3.54-2.12-2.12zm3.71 15.05a16.13 16.13 0 0 0-3.84 12.25c.21 1.9 3.22 1.92 3 0a13.18 13.18 0 0 1 3-10.13c1.23-1.47-.88-3.61-2.12-2.12zm14.3-116.78c-6.73-3.8-10.58-10.39-15.37-16.19-5.18-6.27-11.74-10.17-18.89-13.9-1.71-.89-3.23 1.7-1.51 2.59 8.35 4.36 15 9.06 20.73 16.56 3.94 5.16 7.76 10.28 13.52 13.53a1.5 1.5 0 0 0 1.52-2.59zm-9.14 1.63c-10 10.41-15.9 23.6-18.44 37.75a123.85 123.85 0 0 0-1.81 20.62c-.07 6.62.16 12.84 4.69 18 1.27 1.46 3.38-.67 2.12-2.12-4.7-5.4-4-13.14-3.72-19.84a110.85 110.85 0 0 1 2.21-19c2.66-12.54 8.12-24.11 17.07-33.38 1.35-1.38-.77-3.51-2.12-2.12z"/><path class="cls-2" d="M530.64 541.09c-10 10.39-15.5 23.61-17.73 37.75a138.14 138.14 0 0 0-1.53 20.62c0 6.42-.69 12.86 3.7 18 1.25 1.48 3.36-.65 2.12-2.12-4.23-5-2.93-13.68-2.76-19.84a120.49 120.49 0 0 1 1.89-19c2.38-12.53 7.51-24.13 16.43-33.38 1.34-1.39-.77-3.51-2.12-2.12z"/><path class="cls-2" d="M514.56 583c-.16-8.54 2.63-16.34 6-24.09.76-1.75-1.82-3.28-2.59-1.51-3.54 8.22-6.54 16.53-6.37 25.6 0 1.93 3 1.94 3 0z"/><path class="cls-2" d="M529.08 540.16a74.29 74.29 0 0 0-7.26 8.69c-1.83 2.81-2.73 6.17-3.84 9.31-.65 1.82 2.25 2.61 2.89.8 1-2.9 1.85-6 3.54-8.6a68.67 68.67 0 0 1 6.79-8.08c1.29-1.43-.83-3.56-2.12-2.12zm-16.83 46.34a1.5 1.5 0 0 0 0-3 1.5 1.5 0 0 0 0 3zm26.14-51.86c-9-11.32-18.3-21.63-31.41-28.22-1.72-.86-3.24 1.73-1.51 2.59 12.89 6.48 21.95 16.63 30.8 27.75 1.2 1.51 3.31-.63 2.12-2.12z"/><path class="cls-2" d="M534.87 531.71a15.29 15.29 0 0 1-2-3c-.88-1.71-3.47-.2-2.59 1.52a18.6 18.6 0 0 0 2.45 3.58 1.5 1.5 0 0 0 2.12-2.12zm-43.02-198.37a72.77 72.77 0 0 0 46.45-18.79h-2.12A82.33 82.33 0 0 1 558 363c1.74 18.82-5.43 36.29-7.32 54.77-3.69 36 7.9 72.08 26.61 102.52 1 1.65 3.61.14 2.59-1.51-15.66-25.48-26.2-54.63-26.84-84.74-.34-15.88 3.37-30.57 6.42-46a86.76 86.76 0 0 0-.62-37.91 85.47 85.47 0 0 0-20.58-37.73 1.53 1.53 0 0 0-2.12 0 69.54 69.54 0 0 1-44.33 17.91c-1.93.07-1.94 3.07 0 3z"/><path class="cls-4" d="M494.23 343.14c46.32-4.34 43-29.65 43-29.65m-4 13.02s23.85 22.68 15.85 61.45-1.58 38.2 2.5 40.42"/><path class="cls-2" d="M566.14 499.82a16 16 0 0 0-.77 11.51 1.5 1.5 0 0 0 2.89-.8 12.81 12.81 0 0 1 .47-9.2c.84-1.73-1.75-3.25-2.59-1.51zm-5.66-15.66a23.75 23.75 0 0 0-2.87 12.24c.07 1.92 3.07 1.93 3 0a20.68 20.68 0 0 1 2.46-10.73c.91-1.7-1.68-3.21-2.59-1.51zm-5.41-16.48c-2.08 3.84-4 7.78-3.93 12.25 0 1.92 3 1.93 3 0-.08-3.94 1.69-7.36 3.52-10.73.92-1.7-1.67-3.22-2.59-1.52zm-3.3-15.61a15.23 15.23 0 0 0-5.77 11.66c-.06 1.93 2.94 1.93 3 0a12.39 12.39 0 0 1 4.95-9.54c1.52-1.18-.62-3.29-2.13-2.12zm-1.03-16.8a12.6 12.6 0 0 0-7.25 9c-.43 1.88 2.46 2.68 2.89.8a9.8 9.8 0 0 1 5.87-7.23c1.74-.84.22-3.43-1.51-2.59zm-16.2-119.62a51.74 51.74 0 0 1-17.35 14.58c-7.54 3.87-15.34 5-23.64 6.08-1.89.25-1.91 3.25 0 3 8.78-1.15 17.19-2.39 25.15-6.49a55.21 55.21 0 0 0 18.43-15.66c1.18-1.53-1.42-3-2.59-1.51z"/><path class="cls-2" d="M528.18 321.16c-4.85 1.11-9 5.15-13.55 7.21a57.52 57.52 0 0 1-19.39 4.77c-1.91.14-1.93 3.14 0 3a61.94 61.94 0 0 0 17.33-3.7 59.94 59.94 0 0 0 6.69-3c3.15-1.66 6.24-4.58 9.72-5.38 1.88-.44 1.08-3.33-.8-2.89zm7.61 3.92c12.35 13.29 18.85 35.32 16.86 53.19-1.07 9.58-3.78 18.75-5.2 28.22-1 6.61-2.41 14.73 1.89 20.45 1.15 1.52 3.75 0 2.59-1.51-5.88-7.81-.79-21.23 1-29.72 1.82-8.73 3.63-18.23 3.1-27.17-1-15.94-7.14-33.78-18.1-45.58-1.32-1.42-3.44.71-2.12 2.12z"/><path class="cls-2" d="M549.72 406.5c1-8.18 2.42-16.33 3.83-24.45 2-11.36 1.34-21.36-3.11-32.16-.73-1.76-3.63-1-2.9.8 2.64 6.41 4.51 13.14 4.45 20.12 0 4.51-1.09 9-1.84 13.41-1.25 7.4-2.55 14.82-3.43 22.28-.23 1.91 2.77 1.9 3 0z"/><path class="cls-2" d="M550 349.32c-1.73-9.08-7.26-17.44-13-24.54-1.2-1.51-3.32.62-2.12 2.12 5.36 6.68 10.55 14.69 12.18 23.22.36 1.89 3.26 1.09 2.89-.8zm-76.83-65.53a37.2 37.2 0 0 1 40.83-43.2 1.51 1.51 0 0 0 1.3-2.26 127 127 0 0 1-17.6-105.27 1.5 1.5 0 0 0-2.89-.8 130 130 0 0 0 17.9 107.59l1.29-2.26c-26.73-2.81-48.23 20.68-43.75 47 .33 1.9 3.22 1.09 2.9-.8z"/><path class="cls-4" d="M514 239.09s-10.94-10.34-23.44-5.09a50.4 50.4 0 0 0-28.84 35.79"/><path class="cls-4" d="M499.08 232.51s-13.5-24.09-15-45.76c-1.24-18 7.55-17 7.55-17"/><path class="cls-2" d="M491.42 162c-2.26-.65-3.53-2.59-4.25-4.72-.62-1.82-3.52-1-2.9.8 1.08 3.14 3 5.86 6.35 6.81a1.5 1.5 0 0 0 .8-2.89zm1.01-10c-2.18-1.1-4.29-2.66-4.38-5.31-.06-1.93-3.06-1.94-3 0 .12 3.75 2.68 6.29 5.86 7.9 1.72.88 3.24-1.71 1.52-2.59zm1.85-11a8.76 8.76 0 0 1-3.73-5.71c-.37-1.89-3.27-1.09-2.89.8a11.79 11.79 0 0 0 5.1 7.5c1.61 1.07 3.12-1.52 1.52-2.59zm15.01 95.87c-9.59-1.2-19.54.72-27 7.24a64.05 64.05 0 0 0-17.21 25.21c-.64 1.83 2.26 2.61 2.9.8 2.94-8.4 9-16.65 15.3-22.83 7-6.79 16.59-8.59 26-7.42 1.91.24 1.89-2.76 0-3z"/><path class="cls-2" d="M487.9 241.9a45.43 45.43 0 0 0-13.08 12.76 24.59 24.59 0 0 0-3.48 7.4 33.45 33.45 0 0 0-.63 4c-.95 7.24 1.36 0 2-1.84s-2.22-2.59-2.9-.8c-1.11 2.93-3.53 7.23-.92 10.07a1.51 1.51 0 0 0 1.46.39c4.27-1 3.2-9.32 4.29-12.49 2.4-7 8.7-12.89 14.73-16.86 1.61-1.06.11-3.66-1.51-2.6zm2.53-71.04c-7.12 8.61-4.91 19.63-2.31 29.6a105.61 105.61 0 0 0 14.69 33.19c1.08 1.59 3.68.09 2.59-1.51a99.6 99.6 0 0 1-13-27.5c-3-9.83-7.2-22.8.13-31.66 1.22-1.48-.89-3.61-2.12-2.12z"/><path class="cls-2" d="M501.73 231.13c.4-2.22-.59-3.75-1.77-5.58l-4.37-6.79c-1-1.61-3.64-.11-2.59 1.52l3 4.64c.81 1.25 3.13 3.85 2.85 5.42-.34 1.88 2.55 2.69 2.89.79z"/><path class="cls-2" d="M488.43 170.79c-5.12 6.29-5 13.25-3.94 21 1.37 10 5.05 18.7 9.35 27.72.84 1.74 3.42.22 2.59-1.51-3.39-7.11-6.59-14.06-8.18-21.81s-3.07-16.64 2.3-23.25c1.21-1.48-.9-3.62-2.12-2.12z"/></svg>