<svg id="Layer_1" data-name="Layer 1" xmlns="http://www.w3.org/2000/svg" viewBox="0 0 800 800"><defs><style>.cls-1,.cls-2{fill:none;stroke:#000;stroke-linejoin:bevel;}.cls-1{stroke-width:5.45px;}.cls-2{stroke-width:5.45px;}.cls-3{fill:#fff;}</style></defs><title>beetljuic</title><polyline class="cls-1" points="358.07 219.88 365 220.09 371.87 221.01 378.78 221.47 385.7 221.81 392.62 222.01 399.55 221.38 406.46 221.34 413.39 221.32 420.32 221.34 427.26 221.34 434.15 220.51 441.09 220.25"/><polyline class="cls-1" points="362.54 229.21 369.75 230.41 377.04 230.57 384.32 231.05 391.61 230.71 398.9 230.61 406.18 231.16 413.47 230.83 420.77 231.04 428.06 230.57 435.34 230.05"/><polygon points="366.29 163.57 366.65 170.7 367.65 177.43 368.44 184.18 369.68 190.87 372.06 197.25 373.92 204.23 380.51 203.04 386.94 201.64 393.55 201.5 400.26 200.46 400.07 193.05 399.82 185.86 399.58 178.66 400.26 171.46 400.1 164.16 393.28 164.29 386.57 164.47 379.86 163.92 373.14 163.9 366.29 163.57"/><polygon class="cls-2" points="366.29 163.57 366.65 170.7 367.65 177.43 368.44 184.18 369.68 190.87 372.06 197.25 373.92 204.23 380.51 203.04 386.94 201.64 393.55 201.5 400.26 200.46 400.07 193.05 399.82 185.86 399.58 178.66 400.26 171.46 400.1 164.16 393.28 164.29 386.57 164.47 379.86 163.92 373.14 163.9 366.29 163.57"/><polygon points="433.72 163.54 433.28 170.7 433.04 177.52 431.95 184.25 430.5 190.91 428.81 197.53 426.03 203.97 419.47 203.16 412.94 202.5 406.51 201.1 400.2 200.09 400.3 193.05 400.03 185.86 399.98 178.66 400.41 171.46 400 164.25 406.72 164.31 413.43 164.54 420.14 163.6 426.88 164.31 433.72 163.54"/><polygon class="cls-2" points="433.72 163.54 433.28 170.7 433.04 177.52 431.95 184.25 430.5 190.91 428.81 197.53 426.03 203.97 419.47 203.16 412.94 202.5 406.51 201.1 400.2 200.09 400.3 193.05 400.03 185.86 399.98 178.66 400.41 171.46 400 164.25 406.72 164.31 413.43 164.54 420.14 163.6 426.88 164.31 433.72 163.54"/><polygon class="cls-1" points="521.5 155.5 514.74 158.57 507.59 159.3 500.46 159.97 493.37 161.07 486.26 162.14 479.1 162.39 471.91 162.22 464.77 162.99 457.6 163.12 450.44 163.58 443.27 163.47 436.1 163.38 428.95 164.47 421.77 164.14 414.6 164.42 407.42 164.13 400.25 163.98 393.08 164.12 385.9 164.47 378.74 164.01 371.57 163.94 364.41 163.37 357.24 163.43 350.05 163.9 342.9 163.1 335.73 163.07 328.59 162.23 321.44 161.78 314.27 161.66 307.12 161.04 300.02 160.06 292.87 159.51 285.82 158.27 279.8 155.5 285.88 153 292.85 151.3 299.96 150.28 307.13 149.91 314.29 149.65 321.41 148.67 328.59 148.69 335.74 148.36 342.89 147.53 350.05 147.18 357.23 147.54 364.39 147.11 371.56 146.78 378.72 146.39 385.9 146.83 393.07 146.61 400.25 146.25 407.42 146.61 414.59 147.03 421.76 147.08 428.92 147.48 436.1 147.09 443.27 147.04 450.42 148 457.6 147.8 464.74 148.55 471.94 148.04 479.1 148.59 486.2 149.82 493.34 150.38 500.54 150.44 507.57 151.96 514.7 152.66 521.5 155.5"/><polygon class="cls-1" points="278.87 155.5 285.39 157.96 292.37 159.61 299.45 160.77 306.61 161.22 313.77 161.69 320.92 162.16 328.05 163.01 335.24 162.71 342.4 163.19 349.56 163.26 356.72 163.7 363.89 163.73 371.06 164.08 378.23 164.52 385.4 163.82 392.58 164.24 399.75 164.36 406.92 163.77 414.1 164.57 421.26 164.05 428.44 164.22 435.6 163.85 442.76 163.41 449.94 163.74 457.11 163.47 464.28 163.24 471.41 162.24 478.57 162.01 485.72 161.5 492.89 161.14 500.04 160.6 507.11 159.34 514.13 158.03 520.06 155.5 514.09 153.13 507.12 151.5 500 150.69 492.88 149.91 485.7 149.72 478.58 148.88 471.41 148.81 464.25 148.6 457.1 147.81 449.94 147.74 442.78 147.35 435.62 146.65 428.45 146.6 421.26 147.24 414.1 146.42 406.92 146.82 399.75 146.85 392.58 146.3 385.41 147.22 378.23 146.58 371.07 147.01 363.91 147.53 356.73 147.22 349.58 148.01 342.4 147.79 335.24 148.08 328.06 148.15 320.9 148.53 313.73 148.89 306.64 150.2 299.51 150.88 292.36 151.41 285.3 152.66 278.87 155.5"/><polyline class="cls-1" points="279.21 155.19 281 162.06 283.98 168.51 286.6 175.12 290.03 181.35 294.31 186.99 300.32 190.71 306.81 193.97 313.82 195.9 320.92 197.34 327.95 199.03 334.98 200.83 342.11 202.21 349.33 202.9 356.53 203.79 363.79 203.93 371.02 204.34 378.24 205.22 385.51 204.67 392.75 204.75 400 205.72"/><polyline class="cls-1" points="520.57 155.13 518.9 162.03 516.18 168.58 512.96 174.9 509.45 181.05 506.28 187.49 499.95 191.27 493.15 193.88 486.23 196.08 479.14 197.58 472.05 199.03 464.97 200.54 457.78 201.41 450.68 202.99 443.39 202.97 436.23 204.18 428.98 204.47 421.73 204.35 414.51 205.35 407.25 204.97 400 205.13"/><polyline class="cls-3" points="378.62 463.21 377.51 470.51 376.47 477.74 376.86 485.05 378.02 492.24 379.3 499.44 381.65 506.4 384.95 512.97 389.01 519.09"/><polyline class="cls-2" points="378.62 463.21 377.51 470.51 376.47 477.74 376.86 485.05 378.02 492.24 379.3 499.44 381.65 506.4 384.95 512.97 389.01 519.09"/><polyline class="cls-3" points="378.59 423.2 377.5 430.06 376.45 436.87 376.53 443.75 376.91 450.65 378.54 457.38 380.6 463.98 383.55 470.23 387.1 476.14 391.03 481.8 395.15 487.33 400.14 492.11"/><polyline class="cls-2" points="378.59 423.2 377.5 430.06 376.45 436.87 376.53 443.75 376.91 450.65 378.54 457.38 380.6 463.98 383.55 470.23 387.1 476.14 391.03 481.8 395.15 487.33 400.14 492.11"/><polyline class="cls-3" points="378.74 384.26 377.6 391.08 376.97 397.89 376.74 404.74 377.35 411.58 378.41 418.41 381.13 424.77 383.65 431.18 387.25 437.05 390.74 443.01 395.01 448.46 399.87 453.38"/><polyline class="cls-2" points="378.74 384.26 377.6 391.08 376.97 397.89 376.74 404.74 377.35 411.58 378.41 418.41 381.13 424.77 383.65 431.18 387.25 437.05 390.74 443.01 395.01 448.46 399.87 453.38"/><polyline class="cls-3" points="416.22 517.03 417.94 510.45 418.86 503.67 419.16 496.79 418.09 489.99 416.91 483.21 414.92 476.6 411.8 470.44 408.55 464.37 404.73 458.63 400.36 453.29 395.82 448.07"/><polyline class="cls-2" points="416.22 517.03 417.94 510.45 418.86 503.67 419.16 496.79 418.09 489.99 416.91 483.21 414.92 476.6 411.8 470.44 408.55 464.37 404.73 458.63 400.36 453.29 395.82 448.07"/><polyline class="cls-3" points="378.42 345.32 377.38 352.17 376.38 358.96 376.13 365.86 377.21 372.68 378.76 379.39 380.9 385.94 383.92 392.13 387.54 397.97 391.15 403.83 395.32 409.34 400.47 413.96"/><polyline class="cls-2" points="378.42 345.32 377.38 352.17 376.38 358.96 376.13 365.86 377.21 372.68 378.76 379.39 380.9 385.94 383.92 392.13 387.54 397.97 391.15 403.83 395.32 409.34 400.47 413.96"/><polyline class="cls-3" points="416.41 444.11 418.32 437.52 419.21 430.69 419.15 423.79 418.48 416.93 417.07 410.17 415.04 403.55 412.21 397.24 408.22 391.58 404.72 385.64 400.29 380.35 395.95 374.95"/><polyline class="cls-2" points="416.41 444.11 418.32 437.52 419.21 430.69 419.15 423.79 418.48 416.93 417.07 410.17 415.04 403.55 412.21 397.24 408.22 391.58 404.72 385.64 400.29 380.35 395.95 374.95"/><polyline class="cls-3" points="417 478.12 418.26 471.38 419.84 464.62 418.93 457.74 418.16 450.94 417.36 444.06 414.44 437.77 411.59 431.54 408.76 425.23 404.9 419.48 399.88 414.68 395.25 409.6"/><polyline class="cls-2" points="417 478.12 418.26 471.38 419.84 464.62 418.93 457.74 418.16 450.94 417.36 444.06 414.44 437.77 411.59 431.54 408.76 425.23 404.9 419.48 399.88 414.68 395.25 409.6"/><polyline class="cls-3" points="379.41 311.53 377.38 318.04 376.38 324.86 376.67 331.74 377.73 338.52 379.09 345.22 380.67 351.95 383.66 358.18 387.12 364.13 391.18 369.68 395.6 374.94 400.01 380.24"/><polyline class="cls-2" points="379.41 311.53 377.38 318.04 376.38 324.86 376.67 331.74 377.73 338.52 379.09 345.22 380.67 351.95 383.66 358.18 387.12 364.13 391.18 369.68 395.6 374.94 400.01 380.24"/><polyline class="cls-3" points="379.12 272.59 376.65 279.05 376.32 285.96 376.06 292.87 376.78 299.76 378.73 306.4 381.37 312.75 383.45 319.37 387.57 324.94 391.41 330.63 395.25 336.4 400.16 341.27"/><polyline class="cls-2" points="379.12 272.59 376.65 279.05 376.32 285.96 376.06 292.87 376.78 299.76 378.73 306.4 381.37 312.75 383.45 319.37 387.57 324.94 391.41 330.63 395.25 336.4 400.16 341.27"/><polyline class="cls-3" points="416.69 303 418.34 296.39 419.33 289.6 419.26 282.72 418.93 275.81 417.23 269.09 415.11 262.51 411.77 256.45 408.22 250.57 404.89 244.49 400.43 239.2 395.78 234.06"/><polyline class="cls-2" points="416.69 303 418.34 296.39 419.33 289.6 419.26 282.72 418.93 275.81 417.23 269.09 415.11 262.51 411.77 256.45 408.22 250.57 404.89 244.49 400.43 239.2 395.78 234.06"/><polyline class="cls-3" points="417.33 334.25 418.68 327.45 419.51 320.61 419.35 313.71 418.29 306.92 417.33 300.06 414.42 293.78 412.14 287.26 408.89 281.15 404.7 275.63 400.19 270.41 395.5 265.35"/><polyline class="cls-2" points="417.33 334.25 418.68 327.45 419.51 320.61 419.35 313.71 418.29 306.92 417.33 300.06 414.42 293.78 412.14 287.26 408.89 281.15 404.7 275.63 400.19 270.41 395.5 265.35"/><polyline class="cls-3" points="417.28 370.23 418.3 363.38 419.39 356.6 418.99 349.73 418.09 342.95 416.96 336.17 415.16 329.49 411.8 323.43 408.4 317.46 404.81 311.55 400.08 306.5 395.35 301.5"/><polyline class="cls-2" points="417.28 370.23 418.3 363.38 419.39 356.6 418.99 349.73 418.09 342.95 416.96 336.17 415.16 329.49 411.8 323.43 408.4 317.46 404.81 311.55 400.08 306.5 395.35 301.5"/><polyline class="cls-3" points="416.77 405.04 418.91 398.49 419.01 391.58 419.15 384.73 418.46 377.89 416.63 371.26 414.34 364.81 411.69 358.49 408.36 352.48 404.86 346.51 400.25 341.35 395.77 336.07"/><polyline class="cls-2" points="416.77 405.04 418.91 398.49 419.01 391.58 419.15 384.73 418.46 377.89 416.63 371.26 414.34 364.81 411.69 358.49 408.36 352.48 404.86 346.51 400.25 341.35 395.77 336.07"/><polygon class="cls-3" points="400 212.11 402.98 218.39 406.76 224.1 409.61 230.32 413.08 236.2 416.46 242.12 419.77 248.09 422.62 254.31 426.23 260.24 423.01 267.2 420.17 274.22 417.52 281.31 414.23 288.15 411.87 295.37 408.59 302.2 405.92 309.29 402.89 316.24 400 323.22 396.82 316.38 393.87 309.4 391.69 302.11 388.77 295.13 385.19 288.42 382.85 281.19 379.32 274.45 376.77 267.31 373.83 260.25 377.11 254.18 380.87 248.46 383.69 242.23 386.69 236.09 390.47 230.39 393.72 224.38 396.6 218.18 400 212.11"/><polygon class="cls-2" points="400 212.11 402.98 218.39 406.76 224.1 409.61 230.32 413.08 236.2 416.46 242.12 419.77 248.09 422.62 254.31 426.23 260.24 423.01 267.2 420.17 274.22 417.52 281.31 414.23 288.15 411.87 295.37 408.59 302.2 405.92 309.29 402.89 316.24 400 323.22 396.82 316.38 393.87 309.4 391.69 302.11 388.77 295.13 385.19 288.42 382.85 281.19 379.32 274.45 376.77 267.31 373.83 260.25 377.11 254.18 380.87 248.46 383.69 242.23 386.69 236.09 390.47 230.39 393.72 224.38 396.6 218.18 400 212.11"/><polygon class="cls-3" points="400 241.6 403.17 248.03 406.94 254.26 410.55 260.66 407.67 266.91 405.5 273.39 402.71 279.61 400 285.5 397.5 279.54 394.9 273.24 391.85 267.12 389.74 260.68 393.02 254.25 396.86 248.05 400 241.6"/><polygon class="cls-2" points="400 241.6 403.17 248.03 406.94 254.26 410.55 260.66 407.67 266.91 405.5 273.39 402.71 279.61 400 285.5 397.5 279.54 394.9 273.24 391.85 267.12 389.74 260.68 393.02 254.25 396.86 248.05 400 241.6"/><polygon points="400.02 212.2 399.69 219.5 399.54 226.75 399.85 234 400.44 241.36 396.52 247.5 393.57 254.04 389.97 260.19 382 259.95 373.63 260.54 376.97 254.1 380.37 248.19 383.42 242.08 386.82 236.16 389.97 230.12 393.12 224.06 396.84 218.31 400.02 212.2"/><polygon class="cls-2" points="400.02 212.2 399.69 219.5 399.54 226.75 399.85 234 400.44 241.36 396.52 247.5 393.57 254.04 389.97 260.19 382 259.95 373.63 260.54 376.97 254.1 380.37 248.19 383.42 242.08 386.82 236.16 389.97 230.12 393.12 224.06 396.84 218.31 400.02 212.2"/><polygon class="cls-3" points="409.99 260.27 406.65 253.93 403.13 247.69 400.38 241.16 399.75 234 399.53 226.75 400.34 219.5 399.87 211.92 402.92 218.43 406.57 224.21 409.74 230.24 412.87 236.31 415.82 242.47 419.6 248.18 423.17 254.01 425.81 260.1 418 260.09 409.99 260.27"/><polygon class="cls-2" points="409.99 260.27 406.65 253.93 403.13 247.69 400.38 241.16 399.75 234 399.53 226.75 400.34 219.5 399.87 211.92 402.92 218.43 406.57 224.21 409.74 230.24 412.87 236.31 415.82 242.47 419.6 248.18 423.17 254.01 425.81 260.1 418 260.09 409.99 260.27"/><polygon points="399.74 286.2 400.47 293.65 399.54 301.05 399.74 308.44 400.11 315.85 400.05 322.9 403.18 316.38 405.88 309.3 408.76 302.3 411.44 295.22 414.24 288.18 417.06 281.15 420.01 274.18 423.28 267.33 426.34 260 418 259.77 409.76 259.86 407.8 266.86 404.6 273.09 402.85 279.89 399.74 286.2"/><polygon class="cls-2" points="399.74 286.2 400.47 293.65 399.54 301.05 399.74 308.44 400.11 315.85 400.05 322.9 403.18 316.38 405.88 309.3 408.76 302.3 411.44 295.22 414.24 288.18 417.06 281.15 420.01 274.18 423.28 267.33 426.34 260 418 259.77 409.76 259.86 407.8 266.86 404.6 273.09 402.85 279.89 399.74 286.2"/><polygon class="cls-3" points="389.89 260.43 392.31 266.81 395.33 273.12 397.46 279.76 399.96 286.26 399.77 293.65 399.8 301.05 400.03 308.44 399.6 315.85 399.96 322.94 397.29 316.18 394.6 309.1 391.02 302.39 388.14 295.39 385.78 288.17 382.53 281.33 380.07 274.15 376.59 267.38 374.05 260.28 382 259.86 389.89 260.43"/><polygon class="cls-2" points="389.89 260.43 392.31 266.81 395.33 273.12 397.46 279.76 399.96 286.26 399.77 293.65 399.8 301.05 400.03 308.44 399.6 315.85 399.96 322.94 397.29 316.18 394.6 309.1 391.02 302.39 388.14 295.39 385.78 288.17 382.53 281.33 380.07 274.15 376.59 267.38 374.05 260.28 382 259.86 389.89 260.43"/><polyline class="cls-3" points="425.91 595.39 431.82 598.9 437.34 603.04 443.39 606.34 449.43 609.66 454.79 614.06 460.94 617.2 466.56 621.17 472.39 624.84 478.42 628.19 484.35 632 477.86 636.21 471.42 639.65 464.91 643.09 457.76 644.86 450.9 647.49 443.82 649.46 436.51 650.34 429.3 651.68 422.02 652.72 414.68 652.93 407.34 653.12 400 652.86 392.65 653.45 385.35 652.49 378.04 652.09 370.68 651.85 363.49 650.32 356.24 649.16 349.14 647.29 342.23 644.86 335.03 643.22 328.69 639.42 321.85 636.69 315.63 631.98 321.85 628.64 327.41 624.57 333.25 620.94 339.12 617.35 345.08 613.9 351.01 610.41 356.6 606.38 362.17 602.31 368.3 599.12 374.11 595.43"/><polyline class="cls-2" points="425.91 595.39 431.82 598.9 437.34 603.04 443.39 606.34 449.43 609.66 454.79 614.06 460.94 617.2 466.56 621.17 472.39 624.84 478.42 628.19 484.35 632 477.86 636.21 471.42 639.65 464.91 643.09 457.76 644.86 450.9 647.49 443.82 649.46 436.51 650.34 429.3 651.68 422.02 652.72 414.68 652.93 407.34 653.12 400 652.86 392.65 653.45 385.35 652.49 378.04 652.09 370.68 651.85 363.49 650.32 356.24 649.16 349.14 647.29 342.23 644.86 335.03 643.22 328.69 639.42 321.85 636.69 315.63 631.98 321.85 628.64 327.41 624.57 333.25 620.94 339.12 617.35 345.08 613.9 351.01 610.41 356.6 606.38 362.17 602.31 368.3 599.12 374.11 595.43"/><polyline class="cls-3" points="425.22 474.15 425.15 481.31 424.57 488.42 424.42 495.55 423.32 502.63 423.46 509.77 423.37 516.9 423.12 524.02 423.05 531.15 423.11 538.28 422.54 545.42 422.78 552.55 423.64 559.66 423.71 566.8 424.21 573.91 424.81 581.02 424.84 588.19 426.18 595.32 419.81 598.07 413.12 599.48 406.32 600.1 399.5 600.44 392.92 600 386.32 599.71 380.07 597.55 374.41 595.11 374.98 588.18 375.84 581.09 376.29 573.95 376.26 566.8 376.78 559.69 377.33 552.57 377.11 545.42 377.26 538.29 377.53 531.16 376.62 524.03 377.21 516.88 376.54 509.77 376.74 502.62 376.1 495.5 375.31 488.41 375.43 481.25 374.71 474.16"/><polyline class="cls-2" points="425.22 474.15 425.15 481.31 424.57 488.42 424.42 495.55 423.32 502.63 423.46 509.77 423.37 516.9 423.12 524.02 423.05 531.15 423.11 538.28 422.54 545.42 422.78 552.55 423.64 559.66 423.71 566.8 424.21 573.91 424.81 581.02 424.84 588.19 426.18 595.32 419.81 598.07 413.12 599.48 406.32 600.1 399.5 600.44 392.92 600 386.32 599.71 380.07 597.55 374.41 595.11 374.98 588.18 375.84 581.09 376.29 573.95 376.26 566.8 376.78 559.69 377.33 552.57 377.11 545.42 377.26 538.29 377.53 531.16 376.62 524.03 377.21 516.88 376.54 509.77 376.74 502.62 376.1 495.5 375.31 488.41 375.43 481.25 374.71 474.16"/><polyline class="cls-2" points="376.59 500.86 381.68 506.4 387.14 511.66 393.68 515.5 400.31 519.34 407.7 521.37 415.33 521.83 422.94 522.44"/><polyline class="cls-2" points="375.93 491.3 381.04 497.05 387.07 501.75 393.43 505.97 400.56 508.64 407.69 511.39 415.32 511.94 422.93 512.22"/><polyline class="cls-2" points="376.1 481.18 381.51 486.57 387.25 491.51 393.6 495.67 400.46 498.91 407.83 500.75 415.33 501.84 422.94 502.39"/><polyline class="cls-2" points="375.95 511.29 381.53 516.55 387.31 521.43 393.34 526.14 400.45 528.95 407.73 531.23 415.31 532.1 422.92 532.16"/><polyline class="cls-2" points="376.58 520.86 381.69 526.39 387.21 531.57 393.79 535.32 400.41 539.06 407.8 540.91 415.34 541.68 422.94 542.52"/><polyline class="cls-2" points="376.22 531.1 381.04 537.05 386.98 541.88 393.58 545.69 400.44 548.98 407.88 550.55 415.29 552.33 422.93 552.28"/><polyline class="cls-2" points="376.75 540.75 381.54 546.54 387.19 551.59 393.35 556.12 400.61 558.51 407.85 560.67 415.32 561.91 422.89 561.64"/><polyline class="cls-2" points="376.26 551.07 381.06 557.03 387.07 561.75 393.75 565.38 400.46 568.93 407.81 570.84 415.34 571.62 422.91 572.02"/><polyline class="cls-2" points="376.66 560.81 381.48 566.61 386.93 571.95 393.38 576.07 400.54 578.72 407.7 581.39 415.31 582.02 422.93 582.26"/><polyline class="cls-2" points="376.3 571.05 380.92 576 385.82 580.71 391.41 584.59 397.62 587.36 404.03 589.48 410.58 590.99 417.22 592.21 424.01 592.46"/><polyline class="cls-2" points="374.74 579.43 380.02 584.45 385.28 589.37 390.61 594.38 397.36 597.17 404.14 599.59"/><polyline class="cls-3" points="399.56 447.21 399.98 446.9 407.71 448.32 415.54 449.07 422.97 451.66 429.69 455.63 434.62 461.23 431.8 467.53 429.08 474.03 425.33 480.02 422.51 486.48 419.2 492.68 416.36 499.12 413.11 505.37 409.52 511.44 406.46 517.77 403.65 524.25 400.04 530.34 399.29 529.94 395.21 524.3 392.68 517.68 388.72 511.82 386 505.31 382.81 499.03 379.31 492.92 376.63 486.39 373.18 480.25 370.44 473.76 367.15 467.54 363.95 461.25 368.95 455.19 376.05 451.81 383.61 449.89 391.14 447.61 399.01 447.36 399.4 446.82"/><polyline class="cls-2" points="399.56 447.21 399.98 446.9 407.71 448.32 415.54 449.07 422.97 451.66 429.69 455.63 434.62 461.23 431.8 467.53 429.08 474.03 425.33 480.02 422.51 486.48 419.2 492.68 416.36 499.12 413.11 505.37 409.52 511.44 406.46 517.77 403.65 524.25 400.04 530.34 399.29 529.94 395.21 524.3 392.68 517.68 388.72 511.82 386 505.31 382.81 499.03 379.31 492.92 376.63 486.39 373.18 480.25 370.44 473.76 367.15 467.54 363.95 461.25 368.95 455.19 376.05 451.81 383.61 449.89 391.14 447.61 399.01 447.36 399.4 446.82"/><polyline class="cls-3" points="385.32 504.3 391.68 499.47 399.54 497.75 407.48 499.14 413.66 504.28"/><polyline class="cls-2" points="385.32 504.3 391.68 499.47 399.54 497.75 407.48 499.14 413.66 504.28"/><polyline class="cls-3" points="399.24 530.26 398.84 522.15 399.75 514.08 400.21 505.99 400.02 497.89"/><polyline class="cls-2" points="399.24 530.26 398.84 522.15 399.75 514.08 400.21 505.99 400.02 497.89"/><polygon points="431.7 467.65 426.17 463.77 419.92 460.81 413.12 459.56 406.44 458.06 399.59 458.04 392.7 458.1 385.95 459.47 379.36 461.5 373.28 464.73 367.11 467.68 370.3 474.57 374.42 480.96 378.09 487.6 381.39 494.44 385.2 500.94 392.24 497.94 398.97 493.82 406.35 497.21 414.07 499.47 417.46 492.88 420.83 486.46 424.74 480.33 428.01 473.85 431.7 467.65"/><polygon class="cls-2" points="431.7 467.65 426.17 463.77 419.92 460.81 413.12 459.56 406.44 458.06 399.59 458.04 392.7 458.1 385.95 459.47 379.36 461.5 373.28 464.73 367.11 467.68 370.3 474.57 374.42 480.96 378.09 487.6 381.39 494.44 385.2 500.94 392.24 497.94 398.97 493.82 406.35 497.21 414.07 499.47 417.46 492.88 420.83 486.46 424.74 480.33 428.01 473.85 431.7 467.65"/><polyline points="302.99 160.62 304.83 168.17 307.21 175.59 309.24 183.18 312.58 190.29 317.03 196.72 324.32 197.9 331.52 199.61 338.8 200.93 346.02 201.96 343.12 196.02 341.01 189.44 338.82 182.92 336.11 176.53 334.48 169.79 334.44 162.85"/><polyline class="cls-2" points="302.99 160.62 304.83 168.17 307.21 175.59 309.24 183.18 312.58 190.29 317.03 196.72 324.32 197.9 331.52 199.61 338.8 200.93 346.02 201.96 343.12 196.02 341.01 189.44 338.82 182.92 336.11 176.53 334.48 169.79 334.44 162.85"/><polyline points="496.74 160.68 495.34 168.38 492.79 175.79 489.5 182.88 486.08 189.88 482.45 196.86 475.16 198.21 467.97 199.96 460.64 201 453.41 201.92 455.84 195.82 458.41 189.44 461.37 183.17 462.86 176.41 464.58 169.73 465.28 162.85"/><polyline class="cls-2" points="496.74 160.68 495.34 168.38 492.79 175.79 489.5 182.88 486.08 189.88 482.45 196.86 475.16 198.21 467.97 199.96 460.64 201 453.41 201.92 455.84 195.82 458.41 189.44 461.37 183.17 462.86 176.41 464.58 169.73 465.28 162.85"/><polyline class="cls-1" points="400.75 192.86 407.77 192.75 414.8 192.62 421.86 193.1 428.85 192.26 435.85 191.68 442.8 190.53 449.88 190.65 456.84 189.6 463.69 187.89 470.65 186.94 477.57 185.77 484.51 184.65 491.38 183.14 498.08 181 504.88 179.27 511.67 177.53"/><polyline class="cls-1" points="288.07 176.75 294.81 179.11 301.58 181.44 308.65 182.64 315.68 183.9 322.56 185.91 329.66 186.81 336.63 188.45 343.73 189.32 350.83 190.14 357.88 191.46 365.02 191.96 372.17 192.25 379.29 192.99 386.44 193.36 393.6 193.07 400.75 192.85"/><polyline class="cls-1" points="398.87 178.01 391.57 178.16 384.26 178.08 376.96 177.86 369.65 177.9 362.37 177.32 355.08 176.94 347.8 176.32 340.55 175.38 333.29 174.62 326.02 174 318.75 173.34 311.57 172 304.23 171.69 297.14 169.82 289.92 168.69 282.92 166.62"/><polyline class="cls-1" points="516.6 166.87 509.6 169.4 502.25 170.51 494.99 172 487.59 172.64 480.25 173.66 472.92 174.8 465.56 175.78 458.12 175.78 450.76 176.72 443.32 176.59 435.94 177.4 428.52 177.21 421.13 178.02 413.72 178.6 406.29 178.25 398.87 178.67"/><polyline class="cls-1" points="357.07 203.78 356.44 210.54 357.45 217.26 359.18 223.89 363.37 229.31 368.03 234.22 372.05 240.04 377.66 244.31 384.13 246.92 391 248.5"/><polyline class="cls-1" points="442.21 203.68 441.95 210.53 441.86 217.38 438.95 223.58 435.23 229.16 431.06 234.42 425.95 241.71 418.71 246.74"/><polyline class="cls-1" points="356.51 211.05 363.64 211.7 370.82 211.62 377.92 212.77 385.07 212.91 392.23 213.07 399.38 213.29 406.55 213.59 413.71 213.41 420.86 212.78 427.97 211.86 435.09 211.2 442.25 210.78"/><polygon points="474.82 626.11 468.13 629.51 461.38 632.41 454.25 634.29 447.28 636.53 440.24 638.65 433.06 640.27 425.7 640.71 418.4 641.42 411.11 642.17 403.77 642.1 396.43 642.33 389.14 641.42 381.77 641.46 374.55 640.07 367.27 639.12 360.04 637.83 353.01 635.65 345.76 634.33 338.79 632 331.83 629.63 325.44 626.61 318.6 634.38 325.37 636.43 331.97 638.41 338.63 640.2 345.18 642.31 351.79 644.27 358.44 646.09 364.94 648.56 372.36 648.33 379.64 649.57 386.96 650.23 394.35 649.96 401.66 650.76 409 651.2 416.71 650.39 424.31 648.79 432.01 647.82 439.63 646.37 447.33 645.42 454.94 644.05 462.18 641.07 469.38 637.96 476.88 635.57 484.07 632.28 479.64 628.91 474.82 626.11"/><polygon class="cls-1" points="474.82 626.11 468.13 629.51 461.38 632.41 454.25 634.29 447.28 636.53 440.24 638.65 433.06 640.27 425.7 640.71 418.4 641.42 411.11 642.17 403.77 642.1 396.43 642.33 389.14 641.42 381.77 641.46 374.55 640.07 367.27 639.12 360.04 637.83 353.01 635.65 345.76 634.33 338.79 632 331.83 629.63 325.44 626.61 318.6 634.38 325.37 636.43 331.97 638.41 338.63 640.2 345.18 642.31 351.79 644.27 358.44 646.09 364.94 648.56 372.36 648.33 379.64 649.57 386.96 650.23 394.35 649.96 401.66 650.76 409 651.2 416.71 650.39 424.31 648.79 432.01 647.82 439.63 646.37 447.33 645.42 454.94 644.05 462.18 641.07 469.38 637.96 476.88 635.57 484.07 632.28 479.64 628.91 474.82 626.11"/><polyline class="cls-1" points="352.77 608.24 360.36 607.81 367.83 608.05 375.29 609.26 381.91 612.96 388.81 616.1 394.82 620.72 399.96 626.29 405.06 631.15 411.38 634.28 418.09 636.2 424.95 637.43 431.94 638.07 438.93 637.33 445.71 635.54 452.54 634.05 459.26 632.05 465.68 629.23 471.84 625.96"/><polyline class="cls-1" points="335.21 619.68 342.07 618.21 349.01 617.43 355.93 618.43 362.77 619.68 369.46 621.65 376.2 623.64 382.18 627.36 388.68 630.08 394.28 634.33 400.05 638.3 405.96 642.12"/><polyline class="cls-1" points="334.01 630.13 341.2 628.34 348.63 628.32 356.1 628.48 363.21 630.77 370.34 633 376.94 636.54 382.98 640.99"/><polyline class="cls-1" points="386.47 599.3 393.53 602.18 400.39 605.52 406.41 610.16 412.29 615.05 417.19 620.77 423.73 624.59 430.43 628.14 437.81 629.92 445.08 632.2 452.67 632.68 460.29 632.66"/><polyline class="cls-1" points="415.09 599.12 422.55 603.67 427.94 610.27 433.29 615.74 440.18 619.46 447.95 620.56 455.68 620.43 463.21 618.86"/><polygon points="507.02 159.59 499.87 158.98 492.73 158.56 485.61 157.99 478.49 157.4 471.38 156.73 464.28 155.73 457.13 155.61 449.98 155.6 442.82 155.64 435.69 155.43 428.55 155.28 421.41 154.96 414.27 154.43 407.12 154.75 399.98 154.44 392.83 154.29 385.69 154.79 378.55 155.25 371.39 154.65 364.28 155.79 357.14 155.97 349.99 156.03 342.85 156.13 335.72 156.53 328.6 157.07 321.46 157.47 314.35 158.18 307.22 158.54 300.11 159.18 292.98 159.87 300.14 160.5 307.28 161.05 314.47 161 321.61 161.7 328.79 161.59 335.96 161.89 343.09 162.64 350.26 162.88 357.39 163.88 364.58 163.77 371.48 164.12 378.36 163.47 385.25 163.29 392.14 163.22 399.05 163.67 405.94 163.41 412.83 163.43 419.71 162.52 426.62 163.05 433.5 162.06 440.41 162.26 447.81 162.14 455.19 161.4 462.61 161.64 469.99 160.97 477.42 161.22 484.8 160.46 492.21 160.38 499.58 159.33 507.02 159.59"/><polygon class="cls-1" points="507.02 159.59 499.87 158.98 492.73 158.56 485.61 157.99 478.49 157.4 471.38 156.73 464.28 155.73 457.13 155.61 449.98 155.6 442.82 155.64 435.69 155.43 428.55 155.28 421.41 154.96 414.27 154.43 407.12 154.75 399.98 154.44 392.83 154.29 385.69 154.79 378.55 155.25 371.39 154.65 364.28 155.79 357.14 155.97 349.99 156.03 342.85 156.13 335.72 156.53 328.6 157.07 321.46 157.47 314.35 158.18 307.22 158.54 300.11 159.18 292.98 159.87 300.14 160.5 307.28 161.05 314.47 161 321.61 161.7 328.79 161.59 335.96 161.89 343.09 162.64 350.26 162.88 357.39 163.88 364.58 163.77 371.48 164.12 378.36 163.47 385.25 163.29 392.14 163.22 399.05 163.67 405.94 163.41 412.83 163.43 419.71 162.52 426.62 163.05 433.5 162.06 440.41 162.26 447.81 162.14 455.19 161.4 462.61 161.64 469.99 160.97 477.42 161.22 484.8 160.46 492.21 160.38 499.58 159.33 507.02 159.59"/></svg>