<svg xmlns="http://www.w3.org/2000/svg" viewBox="0 0 800 800"><defs><style>.a{fill:#bee0b9;}</style></defs><title>bell-of-awakening</title><path d="M164.07,51.82A15.52,15.52,0,0,1,172.53,50c53.41,1.1,106.84,1.17,160.27,1.24q146.55.2,293.12.14c1.19,0,2.39,0,3.58,0,6.51-.12,8.36,1.54,8.08,7.92-.92,21.3-.8,42.61-.8,63.91q0,124.42,0,248.86,0,178.86,0,357.72a110.14,110.14,0,0,0,.64,14.31c.65,4.88-1.67,6.18-5.76,5.88-16.73-1.22-33.48-.79-50.22-.81q-183-.2-366.07-.28-22.14,0-44.27,0c-6.87,0-9.14-2-8.65-8.66.91-12.33.47-24.67.5-37,.1-37.06.05-74.13.14-111.19q.19-84,.47-168.05.13-94.78.08-189.58.06-80.44.17-160.9C163.81,66.4,163.08,59.25,164.07,51.82ZM461.93,403.16c8-2.24,16.22-3.64,23.67-7.36,6-3,11.75-6.37,14.53-13l.22-.08-.15.15c-8.27,5-17.26,8.31-26.21,11.83-4.47,1.75-9.63,3.46-12,8.57M288.45,338.51l.41.27-.5-.18c-2-8.26-8.15-12.93-14.49-17.44C277.14,328.32,281,335,288.45,338.51Zm67.05-41.89c-.15,0-.31.11-.44.07s-.12-.22-.17-.34l.68.28c1.22,1.5,3,1.86,4.73,2.26A104.75,104.75,0,0,1,384,308c2,1,3.51,3.39,7.09,2.37C381,300.17,369,296.41,355.5,296.62ZM503.76,311c13-4.9,18.22-20.8,13.29-32.46-1.46,4.77-1.11,9.52-3.48,13.51s-4.89,8.19-7.1,12.41c-1.08,2.08-2.47,4.12-2.63,6.61l-.24.36ZM483.49,537.21c10.81-3.25,20.8-9.17,32.62-9.81-4.76-3.55-10-4.58-15.42-4.7-9.32-.19-15.37,5-17.15,14.53ZM387.67,283.55l.19.12-.27-.06c.46-4.53-.91-8.64-3-12.53-8.23-15.33-21-26.73-33.35-38.51a1.57,1.57,0,0,0-2.18.06c3.33,9.81,7.91,18.84,15.67,26C373,266.33,381.16,274.2,387.67,283.55Zm-95.8,91.05a53,53,0,0,0,.63-5.29c.16-7.14.55-14.55-3.55-20.72-5.33-8-14.21-12.94-19.25-21.36,7,27,11.74,36.83,22.26,47.29,1.54,4.2,5.28,6.39,8.38,9.14a3.65,3.65,0,0,0,4.37.64c6.4-3,13.05-1.94,19.29.06a24,24,0,0,0,13.47.32,111,111,0,0,1,3.77-18.8c3.19-10.4,10.76-17.49,18.07-24.81a3.18,3.18,0,0,1,4.37-.36,2.77,2.77,0,0,1,.82,4.17c-7.28,10.66-5.11,21.92-2.69,33.44,2.77,13.19,3.21,26.21-7.35,37.26,6.65,8.64,9.82,18.46,11.79,29.22,5.74.43,10,4.75,10,4.75a50.4,50.4,0,0,1,18.62,12.57c6.43,6.59,11.23,14.45,17.12,21.44,3.85,4.58,7.91,10.27,14.76,9.59a127,127,0,0,1,61.92,9c10.16,4.18,19,10.83,28.8,15.64,8.56,4.19,13.82,13.79,6.66,23.08a416.1,416.1,0,0,1-57.82,61.77c-18.51,15.95-39.11,28.78-61.08,39.46-16.38,8-33.21,14.42-51.47,16.42-7.62.83-12.92-2.41-16.2-8.9-3.09-6.09-3-12.66-4.11-19.09-3.07-17.33-1.23-34.45.86-51.65,1.24-10.18,6.89-18.6,10.54-27.81,4.34-10.91,3-21.7-2.2-31.7-3.17-6.05-7.12-11.48-9.77-18.07-4.58-11.45-4.95-22.64-3.21-34.09L313.89,455c-.35,2.77-.48,5-.93,7.1-3.69,17.41-13.53,30.62-31,33.87a171.77,171.77,0,0,1-21.34,2.5c-13.13.79-22.79,7.49-30.58,17.38-1.71,2.18-3,2.71-5.33,1.64-.06-.88-.32-1.55-.12-2,1.29-3.12,2.56-6.25,4.06-9.28,8.62-17.4,20.68-31,40.17-36.58a147.34,147.34,0,0,0,18.46-6.88c11.09-4.86,17.6-14.5,19.61-25.45,1.37-7.5,1.17-15.21,5.42-21.85-2.8-3-3.58-.38-4.64,1.08-2.68,3.7-4.79,7.76-7.92,11.19-12.87,14.09-30.39,19-47.66,24.36-1.37.43-2.9.28-3.65-1.22-.9-1.81.14-3.12,1.59-4s2.94-1.23,4.36-1.94a47.5,47.5,0,0,0,18.81-16.81c7.81-11.68,8.13-26.84,19.09-37.08-5.16-4.09-8-9.14-12.19-14.16-4.15,9.7-10.14,17.38-15.33,25.56-4.61,7.28-4.87,15-3.28,23,.23,1.17.65,2.3.82,3.48.23,1.64.13,3.34-1.75,4s-3.11-.25-3.9-1.87c-1.8-3.71-4.12-7.27-5.24-11.18-3.22-11.29-6.49-22.56-3.8-34.65a89.39,89.39,0,0,1,10.75-26c3.55-6,5.88-11.94,4.67-18.5a80.66,80.66,0,0,1,.18-30.89c1-4.9-1.11-6.79-5.95-5.49-6.46,1.74-13,3.16-19.7,3.21A17.26,17.26,0,0,0,224.19,314c-1.8,2.12-3.35,4.44-5,6.68-1.3,1.77-3,3.1-5,1.64-1.79-1.29-1.18-3.08.06-4.72a37.87,37.87,0,0,0,2.49-4.05c8.2-14.42,20-25,34.47-32.89,10.77-5.88,22.36-9.33,33.95-12.9,1.76-.54,4-.36,4.87-2.95a42.34,42.34,0,0,1-18.51-8.15c-9.19-6.73-18.53-10-29.3-3.69-1.64,1-3.94,2-5.15-.54-1.1-2.31.79-3.62,2.51-4.75,17.3-11.31,35.95-12.76,55.49-7.53,4.76,1.27,10.3,1.54,14.06,4.25,14.07,10.14,31.07,9.86,46.87,14.49-3.54-5.24-6.09-10.89-9.36-16.07-5.56-8.81-7.73-18.36-8-28.53-.07-3.23,1.07-5.73,5.13-6.3,2.11,4.27,1.72,9.37,5.11,12.76a163.77,163.77,0,0,0,24.59,20.68c17.67,11.88,28.41,27.93,27.58,49.8a59.21,59.21,0,0,0,5.2,25.91c1.77,4.15,1.89,9,5,13.3.47-9.54,2-16.61,4.67-21.58,6.31-11.89,5-22.8-3.94-33-1.33-1.52-3.26-3-1.58-5.07s4.16-1.33,5.82.2c8.17,7.51,15.1,15.72,17.13,27.27,1.92,11,1.25,21.83.15,32.74-1.62,15.88-.43,30.55,14.16,41.05,6.15,4.43,12.38,7.2,19.84,5.77a139,139,0,0,0,26.8-8.27c3.67-1.52,8.11-2.29,10.47-6.75-4.72-1.48-9.31-1-13.76-1.64-14.43-2-29-4.7-40.66,7.19-3.84-1.69-4.48-3.75-2.46-6.84,7.38-11.28,17-18.78,31.11-19.15,3.78-.1,7.56-.32,11.35-.42,20.24-.57,29.93-10.38,34.65-28.38,1-3.64,1.34-7.7-1.19-11.89a56.81,56.81,0,0,1-15.75,15.06A14.63,14.63,0,0,0,501.33,330c.08,3-.55,5.3-3.86,5.52-3.58.23-4-2.62-4.31-5.25-1.4-11.17,0-21.89,6-31.61,6.93-11.38,8-23.55,5.61-36.27-1.75-9.22-4.11-18.18-14.78-24,5.69,9.89,5,18.91,2.65,28.2-1.07,4.19,1,8.18,3.34,11.77.75,1.17,1.78,2.16,2.49,3.35,1,1.7,1.13,3.47-.6,4.82a3.18,3.18,0,0,1-4.38-.21c-7.06-6.43-14.29-12.73-19.09-21.2-4.69-8.28-5.74-17.77-8.73-26.62-3.67-10.9-10.19-19.69-19-28.35.21,15.06-1.44,29.41,12.13,39.07,1.41,1,2.53,2.83.8,4.63-1.56,1.62-3.62,2-5.43.72-5.29-3.87-10.85-7.49-15.56-12-9.58-9.17-15.34-20.69-18.8-33.42a177.76,177.76,0,0,0-11.65-31.92c-2.74-5.58-2.74-5.69-6-8.32,1.37,7.31-.78,14.05-2,20.87a28.23,28.23,0,0,0,1.49,15.8c2.34,5.86,7.06,10,10.47,15.06-1.95,3-3.87,3.25-7.13,2-6.78-2.54-10.59-8.21-14.95-13.14-6.23-7-11.46-15.16-12.92-24.52a108.61,108.61,0,0,1,1.24-38.63c1.61-7.82.58-15.43.52-23.12,0-2.13.1-4.88-2.41-6.71a66.63,66.63,0,0,1-6,20.41c-4.27,9.26-4.58,18.87-.23,28.35.57,1.25,1.53,2.41.5,4-4.22,2.4-6.43-.43-8.65-3.48-12.93-17.77-14.37-37.95-12-58.78,1.83-16,10-29.68,17.16-43.65,1.13-2.19,2.91-4.27,1.72-7.56-66.39.12-132.78-1-199.15.34-1.07,13.28-.93,25.42-1,37.55q-.36,210-.6,420-.08,106.76.34,213.5c0,5.25-.45,10.71,1.89,15.86,1.58.13,3,.33,4.32.35,22.12.26,44.24.66,66.36.71q101.71.23,203.42.2,89.43,0,178.87-.19c7.51,0,7.62-.07,7.7-7.65.21-19.74.44-39.47.46-59.21q.12-153.16.11-306.32-.06-147.48-.4-294.95c0-6.44.33-13-1.37-19.72H385.14c2.58,6.86,5.52,12.76,10.11,17.89s9.89,9.82,14.92,14.64c11.41,10.92,21.26,22.73,22.81,39.38.26,2.77.62,5.48-3,6-2.61.35-4.81-.73-5.2-3.7-1.34-10.3-8.63-15.87-16.81-20.2-8.75-4.63-18.61-7.18-26-14.41-.6-.59-1.91-1.52-3.23-.88-.12,3.84-.21,4.23,1.33,6.68,6.82,10.81,15.24,20.08,27.38,24.86,13.42,5.29,24.18,13.67,32,25.73,6.73,10.41,15.94,15.85,28.46,15.34,1.83-.08,3.61-.06,5,1.8.05,4.89-4,4.76-7.12,5-16.86,1.55-32.17-2.6-46.35-12.09-6-4-11.52-8.56-17.68-12.37,1.42,4.28,4.19,7.52,7.13,10.61,14.14,14.85,32.31,22.15,51.61,27,10.6,2.68,21.38,4.5,31.6,8.65,13,5.3,20.7,15.69,27.16,27.35,1.33,2.4,1.76,5.1-1.27,6.72s-4.28-.46-5.67-2.64c-4.92-7.71-11.9-11.57-21.13-10.48a52.91,52.91,0,0,1-17.36-.66c.77,3.41,3.37,3.84,5.58,4.16,4.52.67,8.3,2.86,11.88,5.34,9.41,6.52,19.78,11.14,30.4,15.08,11.71,4.36,22.73,9.7,31.71,18.52,7.48,7.36,12.1,16.18,12.41,26.93.07,2.68.16,5.53-3.1,6.3-3.74.89-4.2-2.57-4.89-4.78-1.78-5.73-5.07-9.89-10.76-11.95-5.89-2.13-12-3.13-19-4.28,4.8,6.22,8.06,12.36,12.58,17.74,6,7.11,12.06,14.51,15.56,23.06,8.64,21.05,2.48,39.61-11.59,56.25-3.06,3.62-5.75,3.55-9.91-.71,12.55-13.6,6.72-26.76-2.21-40.62-.69,3.69-.9,6.66-1.82,9.39-4.88,14.5-9.38,29.15-16.31,42.88-3.91,7.74-8.6,14.66-16.09,19.49-8.32,5.36-17.75,6.73-27.15,8.55-9.61,1.85-18.27,5.67-23.76,14.45-1.18,1.9-2.51,3.27-4.81,2.07s-1.94-3.3-.91-5.15c4.85-8.69,9.73-17.15,18.24-23.23,4.56-3.26,10.06-5.07,14.54-9.36a13,13,0,0,0-2.85-.12c-8.52,1.94-16.86.91-25.47-.13-8-1-15.74-2.23-23.24-4.95-9.4-3.4-17.47-9.1-23-17.38-8.1-12.17-16.27-23.83-32.27-25.63-.05-4,1.51-5.87,5-5.85a50.48,50.48,0,0,1,17.56,2.78,140.08,140.08,0,0,1,17,7.48,18.33,18.33,0,0,0-1.32-3.05c-12.59-15-28.78-24.75-46.42-32.66-10.53-4.73-22.27-8.24-26.61-21.08-.63-1.85-2.49-3.27-.23-5.11,2.08-1.69,3.68-.56,5.22.91,6.39,6.12,14.25,8.48,22.86,8.83,6.22.25,12.31,1.1,18,3.84a5.59,5.59,0,0,0,5.9-.15c-8.89-11.52-19.35-20-32.58-25-3.67-1.38-7.21-1-11,.23-6.5,2.16-10.29,7.41-14.55,11.95-11.52,12.27-25.12,16.85-41.56,12.8-2-.51-4.12-.73-4-3.41s2.23-2.7,4.33-3c5.64-.71,10.75-2.57,14.67-7.06,4.67-5.35,9.52-10.54,14.92-16.49a29.6,29.6,0,0,0-9.24,3.13c-9.09,4.69-17.38,10.4-24.34,18-6.21,6.79-6.9,14-1.45,21.4,2.7,3.69,5.53,7.29,8.31,10.93,11.67,15.31,15.66,32.36,11.7,51.25C298.46,375.1,297.56,375.76,291.87,374.6Zm47.86,231.91C370,543.68,420,512.79,488.87,510.28c-2-2-4-1.06-5.57-1.73-11.4-5-23.28-6.17-35.58-5a115.61,115.61,0,0,0-55.82,20.64,123.54,123.54,0,0,0-29.22,27.93C350.8,568.2,339.6,584.5,339.73,606.51Zm137-89.47c-56.54-1.48-119.64,50.36-128,92.21C383.59,566.9,427.2,536.92,476.69,517Zm-26.34,67.69c2.3-8.68-.89-15.41-4.59-22.4-15.86,8.91-31.36,18-44.28,31.09,5.59,7.43,12.92,9.86,21.48,10.2,2.33-8.2,3.35-15.94,2-23.71C429.19,578.06,444.94,583.81,450.35,584.73Zm-100.07,68.6c46.72-7.41,85.41-30.65,119.87-61.4,19.27-17.19,37.32-35.79,49.71-59.11C476.64,591.86,422.91,635.83,350.28,653.33ZM248,495.87c11.46-3.78,22.71-3.38,33.57-5.67,4.51-.95,9.09-2.3,12.35-5.65,4.36-4.47,9.14-9,8.55-16.87-8.57,3.46-16.08,7.53-24.48,9.22-5.67,1.15-11.32,2.72-16.16,6S250.7,488.26,248,495.87Zm78.28-68.7c-2.43,3.38-2.12,6.38-1.54,9.31,1,5.26,4.53,9.13,7.66,13.26,3,4,5.66,5.36,9.5,1.15a16.1,16.1,0,0,1,4.42-3c1.4-.75,2.29-1.73,2-3.28-1.23-5.95-1-12.41-6-17.5C337.11,429.55,331.74,430.29,326.3,427.17Zm34.16-282.84c8.58-16.89,11.52-34.79,8.43-54.78C357.67,107.42,353.9,125.14,360.46,144.33ZM278.4,432.6c6-2.83,10.26-7.3,14.2-12.33,7.71-9.86,10-23.23,22.07-31.6-12.5.68-20.56,5.62-24.74,15.78C286.1,413.77,282.4,423.15,278.4,432.6Zm57.25,53.6c20.35,4.51,41.82-13.08,45.89-27.39-1.58-1.8-3.34-3.25-6-2.87-8.48,16.48-20.78,26.55-40.52,23.81C334.6,482.52,334.56,484.42,335.65,486.2Zm213.11-139c6.31-10.71-.65-33.3-14.21-46.58C533,317.72,542.85,331.69,548.76,347.23ZM511.57,248.8c6.65,12.64,35.14,26.43,39.17,20.54C541.73,254.61,525.1,254.82,511.57,248.8ZM271.4,363.19c-2.71,6.25-6.74,11.46-10.57,16.65-5.52,7.46-4.21,15.44-3.26,23.75,3.83-7.45,8.72-14.08,13.16-21C275,376,273.55,369.8,271.4,363.19ZM389.49,149.52C385,166,385,181,392.55,196.17,396.2,180.28,398.41,165.11,389.49,149.52Zm85.66,391c-8.14-4.25-15.3-5.28-22.2-1.93s-8.57,10.47-9.52,18.24ZM308.63,257.26c-14.17-5.91-26.44-14.6-42.54-10.7C279,255.66,291.6,262.55,308.63,257.26Zm188.71-46.9c-14.37-8.45-30.88-8.6-46.48-12.25C464.35,209.5,479.92,213.39,497.34,210.36ZM405.27,582.53c9.54-8.58,20-15,30.8-21.68C420.57,554.55,403.22,566.57,405.27,582.53Zm-6.71,4.89c-6.3-3.16-14-1.07-20.39,5-5.57,5.24-7.36,12.36-4.57,18.91Zm-28.1-68.67c-2.39-9.71-8-16.13-13.5-22.77-2.81-3.42-5.4-4.24-9.22-1.72,3.33,10.29,13.12,16.56,15.92,27.31C366.26,520.63,367.68,518.3,370.46,518.75Zm57.22-325c-.39,11.35,3.55,28.72,12,35.46C441.36,215.72,439.9,203.26,427.68,193.75Zm87.49,153.82c-7.2,2.7-14.6,1.83-21.9,2-5.57.11-11.14-.25-16.71-.17a15.05,15.05,0,0,0-11.19,4.74c12.51-1.09,23.39,1.46,34.43,2.1C506.48,356.59,511.56,353.58,515.17,347.57ZM346.59,645.1c6.58-9.61,14.46-18.18,21.5-27.76C355,614.68,346,626.38,346.59,645.1Zm48.66-301.16c9.13,13.53,16.51,27.06,34.24,27.34C417.31,363.9,410,350.23,395.25,343.94Zm-7.41,120.43c-2.42,3-2.9,5,.09,7.09,1.76,1.21,3.07,3.08,4.52,4.7,3.76,4.22,5,9.93,8.44,14.33,3,3.83,6,7.71,12,4.11C402.65,486.24,399.49,472.07,387.84,464.37ZM353.72,362.45a27.32,27.32,0,0,0-4.25,15.33c-.14,9.89,5.12,18.89,4.29,28.87C361,392.12,354.66,377.64,353.72,362.45Zm83.64-198.63c-7.44-5.47-12-11.69-16.86-17.53-4.63-5.52-11.42-5.75-17.24-8.34A63.24,63.24,0,0,0,437.36,163.82Zm-101,331c4.14,13.89,17.6,23.13,17.51,38.84,2.67-1.92,4.46-3.57,3.76-6.59s-1.14-5.84-2.46-8.55c-3.93-8-11.22-13.94-14.22-22.59C340.41,494.28,338.81,493.71,336.39,494.81Zm43-421.68c2.38,17.41,14.29,25.39,29.87,29.71C399.48,92.76,386.5,85.89,379.35,73.13ZM421.09,341.3c2.26-12.53,8.58-24.6,4.7-38.09C418.3,315.42,417.32,328.09,421.09,341.3ZM269.51,285.8c-12.3,3.1-23.3,6.24-32.36,15.28C251.54,301.86,262.45,296.81,269.51,285.8Zm109,192c3.12,3.5,6.07,7,7.94,11.14a39.84,39.84,0,0,0,4.89,8.77c2,2.51,4.2,3.57,7.32.53a111.46,111.46,0,0,1-10.34-16.31,15.83,15.83,0,0,0-4.17-5.66C381.94,474.47,380.26,474.74,378.53,477.75ZM484.92,265.44c4.24-17.22,3.28-21-6.63-25.58C478,249.31,481.14,257.38,484.92,265.44Zm-105,243.79c-4-5.91-8-11.81-12.07-17.63-1.4-2-2.8-4.84-6-1.29,3.66,7.85,10.31,13.8,13.26,21.75C377.76,511.85,378.77,510.27,379.94,509.23Zm-78-221.69c11.72-2.85,15.63-13.5,22.32-21.35C313.71,270.09,309.38,280.51,301.92,287.54Zm45.46,135.77a31.19,31.19,0,0,1,7.12,18.4c.16,4.07,2.11,3.83,5.2,3.08-2.33-9-3.6-17.85-9.34-25.61Zm-22.52-16.19c6.13-2,11.4-1.95,17.59-2.56-3.52-4.1-6.44-8.57-11-8.08C327.1,397,326.12,402,324.86,407.12ZM319,438.34c-4.22,5.48-2.95,8.89.47,12.3a58.26,58.26,0,0,0,13.77,10.43c.28-.8.81-1.59.62-1.83C328.74,452.65,321.17,448,319,438.34Zm23.78-25.84c-9.11-3.9-19.58.43-20.28,8.45,4.37-3.94,9.09-5.78,14.74-4.37C340.24,417.33,341.27,415,342.74,412.5Zm46.16,91.08c-2.26-2.87-4.37-5.25-6.13-7.86-2.42-3.6-4.51-7.42-6.88-11.06-.85-1.3-2.06-2.77-3.86-1.32s-.54,2.93.46,4.08c4.93,5.65,8.52,12.27,13,18.28a13.93,13.93,0,0,0,1.82-.73A14.38,14.38,0,0,0,388.9,503.58ZM490.09,237.7c-.26-1.07-.89-1.66-2-1.5-.19,0-.52.75-.43.88A1.7,1.7,0,0,0,490.09,237.7Zm-44.48-29.78c-.05.15-.15.31-.12.45.11.54.33.56.53,0a.64.64,0,0,0-.1-.45C445.89,207.91,445.72,207.93,445.61,207.92Z"/><path class="a" d="M291.87,374.6c5.69,1.16,6.59.5,7.83-5.42,4-18.89,0-35.94-11.7-51.25-2.78-3.64-5.61-7.24-8.31-10.93-5.45-7.43-4.76-14.61,1.45-21.4,7-7.62,15.25-13.33,24.34-18a29.6,29.6,0,0,1,9.24-3.13c-5.4,5.95-10.25,11.14-14.92,16.49-3.92,4.49-9,6.35-14.67,7.06-2.1.27-4.19.29-4.33,3s1.93,2.9,4,3.41c16.44,4.05,30-.53,41.56-12.8,4.26-4.54,8.05-9.79,14.55-11.95,3.83-1.27,7.37-1.61,11-.23,13.23,4.94,23.69,13.46,32.58,25a5.59,5.59,0,0,1-5.9.15c-5.67-2.74-11.76-3.59-18-3.84-8.61-.35-16.47-2.71-22.86-8.83-1.54-1.47-3.14-2.6-5.22-.91-2.26,1.84-.4,3.26.23,5.11,4.34,12.84,16.08,16.35,26.61,21.08,17.64,7.91,33.83,17.67,46.42,32.66a18.33,18.33,0,0,1,1.32,3.05,140.08,140.08,0,0,0-17-7.48,50.48,50.48,0,0,0-17.56-2.78c-3.46,0-5,1.82-5,5.85,16,1.8,24.17,13.46,32.27,25.63,5.51,8.28,13.58,14,23,17.38,7.5,2.72,15.25,4,23.24,4.95,8.61,1,16.95,2.07,25.47.13a13,13,0,0,1,2.85.12c-4.48,4.29-10,6.1-14.54,9.36-8.51,6.08-13.39,14.54-18.24,23.23-1,1.85-1.48,3.91.91,5.15s3.63-.17,4.81-2.07c5.49-8.78,14.15-12.6,23.76-14.45,9.4-1.82,18.83-3.19,27.15-8.55,7.49-4.83,12.18-11.75,16.09-19.49,6.93-13.73,11.43-28.38,16.31-42.88.92-2.73,1.13-5.7,1.82-9.39,8.93,13.86,14.76,27,2.21,40.62,4.16,4.26,6.85,4.33,9.91.71,14.07-16.64,20.23-35.2,11.59-56.25-3.5-8.55-9.57-15.95-15.56-23.06-4.52-5.38-7.78-11.52-12.58-17.74,7,1.15,13.15,2.15,19,4.28,5.69,2.06,9,6.22,10.76,11.95.69,2.21,1.15,5.67,4.89,4.78,3.26-.77,3.17-3.62,3.1-6.3-.31-10.75-4.93-19.57-12.41-26.93-9-8.82-20-14.16-31.71-18.52-10.62-3.94-21-8.56-30.4-15.08-3.58-2.48-7.36-4.67-11.88-5.34-2.21-.32-4.81-.75-5.58-4.16a52.91,52.91,0,0,0,17.36.66c9.23-1.09,16.21,2.77,21.13,10.48,1.39,2.18,2.79,4.18,5.67,2.64s2.6-4.32,1.27-6.72c-6.46-11.66-14.14-22.05-27.16-27.35-10.22-4.15-21-6-31.6-8.65-19.3-4.88-37.47-12.18-51.61-27-2.94-3.09-5.71-6.33-7.13-10.61,6.16,3.81,11.72,8.37,17.68,12.37,14.18,9.49,29.49,13.64,46.35,12.09,3.12-.28,7.17-.15,7.12-5-1.37-1.86-3.15-1.88-5-1.8-12.52.51-21.73-4.93-28.46-15.34-7.79-12.06-18.55-20.44-32-25.73-12.14-4.78-20.56-14-27.38-24.86-1.54-2.45-1.45-2.84-1.33-6.68,1.32-.64,2.63.29,3.23.88,7.35,7.23,17.21,9.78,26,14.41,8.18,4.33,15.47,9.9,16.81,20.2.39,3,2.59,4.05,5.2,3.7,3.6-.49,3.24-3.2,3-6-1.55-16.65-11.4-28.46-22.81-39.38-5-4.82-10.25-9.42-14.92-14.64s-7.53-11-10.11-17.89H630c1.7,6.7,1.36,13.28,1.37,19.72q.32,147.48.4,295,.06,153.17-.11,306.32c0,19.74-.25,39.47-.46,59.21-.08,7.58-.19,7.64-7.7,7.65q-89.43.12-178.87.19-101.72,0-203.42-.2c-22.12-.05-44.24-.45-66.36-.71-1.37,0-2.74-.22-4.32-.35-2.34-5.15-1.87-10.61-1.89-15.86q-.32-106.75-.34-213.5.16-210,.6-420c0-12.13-.12-24.27,1-37.55C236.23,54.8,302.62,56,369,55.83c1.19,3.29-.59,5.37-1.72,7.56C360.09,77.36,352,91,350.13,107c-2.38,20.83-.94,41,12,58.78,2.22,3.05,4.43,5.88,8.65,3.48,1-1.6.07-2.76-.5-4-4.35-9.48-4-19.09.23-28.35a66.63,66.63,0,0,0,6-20.41c2.51,1.83,2.39,4.58,2.41,6.71.06,7.69,1.09,15.3-.52,23.12A108.61,108.61,0,0,0,377.12,185c1.46,9.36,6.69,17.47,12.92,24.52,4.36,4.93,8.17,10.6,14.95,13.14,3.26,1.22,5.18,1,7.13-2-3.41-5.1-8.13-9.2-10.47-15.06a28.23,28.23,0,0,1-1.49-15.8c1.19-6.82,3.34-13.56,2-20.87,3.24,2.63,3.24,2.74,6,8.32a177.76,177.76,0,0,1,11.65,31.92c3.46,12.73,9.22,24.25,18.8,33.42,4.71,4.5,10.27,8.12,15.56,12,1.81,1.32,3.87.9,5.43-.72,1.73-1.8.61-3.63-.8-4.63-13.57-9.66-11.92-24-12.13-39.07,8.82,8.66,15.34,17.45,19,28.35,3,8.85,4,18.34,8.73,26.62,4.8,8.47,12,14.77,19.09,21.2a3.18,3.18,0,0,0,4.38.21c1.73-1.35,1.6-3.12.6-4.82-.71-1.19-1.74-2.18-2.49-3.35-2.3-3.59-4.41-7.58-3.34-11.77,2.39-9.29,3-18.31-2.65-28.2,10.67,5.84,13,14.8,14.78,24,2.41,12.72,1.32,24.89-5.61,36.27-5.91,9.72-7.36,20.44-6,31.61.33,2.63.73,5.48,4.31,5.25,3.31-.22,3.94-2.5,3.86-5.52a14.63,14.63,0,0,1,6.73-13.27,56.81,56.81,0,0,0,15.75-15.06c2.53,4.19,2.15,8.25,1.19,11.89-4.72,18-14.41,27.81-34.65,28.38-3.79.1-7.57.32-11.35.42-14.09.37-23.73,7.87-31.11,19.15-2,3.09-1.38,5.15,2.46,6.84,11.64-11.89,26.23-9.16,40.66-7.19,4.45.6,9,.16,13.76,1.64-2.36,4.46-6.8,5.23-10.47,6.75a139,139,0,0,1-26.8,8.27c-7.46,1.43-13.69-1.34-19.84-5.77-14.59-10.5-15.78-25.17-14.16-41.05,1.1-10.91,1.77-21.78-.15-32.74-2-11.55-9-19.76-17.13-27.27-1.66-1.53-4.05-2.42-5.82-.2s.25,3.55,1.58,5.07c9,10.21,10.25,21.12,3.94,33-2.63,5-4.2,12-4.67,21.58-3.1-4.34-3.22-9.15-5-13.3a59.21,59.21,0,0,1-5.2-25.91c.83-21.87-9.91-37.92-27.58-49.8a163.77,163.77,0,0,1-24.59-20.68c-3.39-3.39-3-8.49-5.11-12.76-4.06.57-5.2,3.07-5.13,6.3.25,10.17,2.42,19.72,8,28.53,3.27,5.18,5.82,10.83,9.36,16.07-15.8-4.63-32.8-4.35-46.87-14.49-3.76-2.71-9.3-3-14.06-4.25-19.54-5.23-38.19-3.78-55.49,7.53-1.72,1.13-3.61,2.44-2.51,4.75,1.21,2.54,3.51,1.5,5.15.54,10.77-6.33,20.11-3,29.3,3.69A42.34,42.34,0,0,0,290,264.81c-.85,2.59-3.11,2.41-4.87,2.95-11.59,3.57-23.18,7-33.95,12.9-14.49,7.91-26.27,18.47-34.47,32.89a37.87,37.87,0,0,1-2.49,4.05c-1.24,1.64-1.85,3.43-.06,4.72,2,1.46,3.72.13,5-1.64,1.64-2.24,3.19-4.56,5-6.68a17.26,17.26,0,0,1,13.41-6.43c6.75-.05,13.24-1.47,19.7-3.21,4.84-1.3,6.93.59,5.95,5.49a80.66,80.66,0,0,0-.18,30.89c1.21,6.56-1.12,12.48-4.67,18.5a89.39,89.39,0,0,0-10.75,26c-2.69,12.09.58,23.36,3.8,34.65,1.12,3.91,3.44,7.47,5.24,11.18.79,1.62,2.13,2.47,3.9,1.87s2-2.33,1.75-4c-.17-1.18-.59-2.31-.82-3.48-1.59-8.05-1.33-15.74,3.28-23,5.19-8.18,11.18-15.86,15.33-25.56,4.19,5,7,10.07,12.19,14.16-11,10.24-11.28,25.4-19.09,37.08A47.5,47.5,0,0,1,254.42,445c-1.42.71-3,1.14-4.36,1.94s-2.49,2.17-1.59,4c.75,1.5,2.28,1.65,3.65,1.22,17.27-5.4,34.79-10.27,47.66-24.36,3.13-3.43,5.24-7.49,7.92-11.19,1.06-1.46,1.84-4.07,4.64-1.08-4.25,6.64-4,14.35-5.42,21.85-2,10.95-8.52,20.59-19.61,25.45a147.34,147.34,0,0,1-18.46,6.88c-19.49,5.61-31.55,19.18-40.17,36.58-1.5,3-2.77,6.16-4.06,9.28-.2.47.06,1.14.12,2,2.29,1.07,3.62.54,5.33-1.64,7.79-9.89,17.45-16.59,30.58-17.38A171.77,171.77,0,0,0,282,496c17.44-3.25,27.28-16.46,31-33.87.45-2.13.58-4.33.93-7.1l15.76,12.13c-1.74,11.45-1.37,22.64,3.21,34.09,2.65,6.59,6.6,12,9.77,18.07,5.23,10,6.54,20.79,2.2,31.7-3.65,9.21-9.3,17.63-10.54,27.81-2.09,17.2-3.93,34.32-.86,51.65,1.14,6.43,1,13,4.11,19.09,3.28,6.49,8.58,9.73,16.2,8.9,18.26-2,35.09-8.46,51.47-16.42,22-10.68,42.57-23.51,61.08-39.46a416.1,416.1,0,0,0,57.82-61.77c7.16-9.29,1.9-18.89-6.66-23.08-9.82-4.81-18.64-11.46-28.8-15.64a127,127,0,0,0-61.92-9c-6.85.68-10.91-5-14.76-9.59-5.89-7-10.69-14.85-17.12-21.44a50.4,50.4,0,0,0-18.62-12.57s-6-4.65-10-4.75c-2-10.76-5.14-20.58-11.79-29.22,10.56-11.05,10.12-24.07,7.35-37.26-2.42-11.52-4.59-22.78,2.69-33.44a2.77,2.77,0,0,0-.82-4.17,3.18,3.18,0,0,0-4.37.36c-7.31,7.32-14.88,14.41-18.07,24.81a111,111,0,0,0-3.77,18.8,24,24,0,0,1-13.47-.32c-6.24-2-12.89-3-19.29-.06a3.65,3.65,0,0,1-4.37-.64c-3.1-2.75-6.84-4.94-8.38-9.14Z"/><path class="a" d="M339.73,606.51c-.13-22,11.07-38.31,22.95-54.39a123.54,123.54,0,0,1,29.22-27.93,115.61,115.61,0,0,1,55.82-20.64c12.3-1.17,24.18,0,35.58,5,1.55.67,3.53-.23,5.57,1.73C420,512.79,370,543.68,339.73,606.51Z"/><path class="a" d="M476.69,517c-49.49,19.88-93.1,49.86-128,92.21C357.05,567.4,420.15,515.56,476.69,517Z"/><path class="a" d="M450.35,584.73c-5.41-.92-21.16-6.67-25.35-4.82,1.31,7.77.29,15.51-2,23.71-8.56-.34-15.89-2.77-21.48-10.2,12.92-13.13,28.42-22.18,44.28-31.09C449.46,569.32,452.65,576.05,450.35,584.73Z"/><path class="a" d="M350.28,653.33c72.63-17.5,126.36-61.47,169.58-120.51-12.39,23.32-30.44,41.92-49.71,59.11C435.69,622.68,397,645.92,350.28,653.33Z"/><path class="a" d="M248,495.87c2.68-7.61,8.9-9.67,13.83-13s10.49-4.83,16.16-6c8.4-1.69,15.91-5.76,24.48-9.22.59,7.86-4.19,12.4-8.55,16.87-3.26,3.35-7.84,4.7-12.35,5.65C270.73,492.49,259.48,492.09,248,495.87Z"/><path class="a" d="M326.3,427.17c5.44,3.12,10.81,2.38,16-.08,5,5.09,4.8,11.55,6,17.5.32,1.55-.57,2.53-2,3.28a16.1,16.1,0,0,0-4.42,3c-3.84,4.21-6.5,2.81-9.5-1.15-3.13-4.13-6.62-8-7.66-13.26C324.18,433.55,323.87,430.55,326.3,427.17Z"/><path class="a" d="M360.46,144.33c-6.56-19.19-2.79-36.91,8.43-54.78C372,109.54,369,127.44,360.46,144.33Z"/><path class="a" d="M278.4,432.6c4-9.45,7.7-18.83,11.53-28.15,4.18-10.16,12.24-15.1,24.74-15.78-12,8.37-14.36,21.74-22.07,31.6C288.66,425.3,284.35,429.77,278.4,432.6Z"/><path class="a" d="M387.67,283.55c-6.51-9.35-14.63-17.22-22.94-24.9-7.76-7.18-12.34-16.21-15.67-26a1.57,1.57,0,0,1,2.18-.06c12.34,11.78,25.12,23.18,33.35,38.51,2.09,3.89,3.46,8,3,12.53Z"/><path class="a" d="M292,374.52c-10.52-10.46-15.23-20.25-22.26-47.29,5,8.42,13.92,13.34,19.25,21.36,4.1,6.17,3.71,13.58,3.55,20.72a53,53,0,0,1-.63,5.29Z"/><path class="a" d="M335.65,486.2c-1.09-1.78-1-3.68-.64-6.45,19.74,2.74,32-7.33,40.52-23.81,2.67-.38,4.43,1.07,6,2.87C377.47,473.12,356,490.71,335.65,486.2Z"/><path class="a" d="M548.76,347.23c-5.91-15.54-15.77-29.51-14.21-46.58C548.11,313.93,555.07,336.52,548.76,347.23Z"/><path class="a" d="M511.57,248.8c13.53,6,30.16,5.81,39.17,20.54C546.71,275.23,518.22,261.44,511.57,248.8Z"/><path class="a" d="M271.4,363.19c2.15,6.61,3.63,12.78-.67,19.43-4.44,6.89-9.33,13.52-13.16,21-.95-8.31-2.26-16.29,3.26-23.75C264.66,374.65,268.69,369.44,271.4,363.19Z"/><path class="a" d="M389.49,149.52c8.92,15.59,6.71,30.76,3.06,46.65C385,181,385,166,389.49,149.52Z"/><path class="a" d="M475.15,540.56l-31.72,16.31c.95-7.77,2.48-14.82,9.52-18.24S467,536.31,475.15,540.56Z"/><path class="a" d="M308.63,257.26c-17,5.29-29.68-1.6-42.54-10.7C282.19,242.66,294.46,251.35,308.63,257.26Z"/><path class="a" d="M497.34,210.36c-17.42,3-33-.86-46.48-12.25C466.46,201.76,483,201.91,497.34,210.36Z"/><path class="a" d="M405.27,582.53c-2-16,15.3-28,30.8-21.68C425.3,567.49,414.81,574,405.27,582.53Z"/><path class="a" d="M398.56,587.42l-25,23.86c-2.79-6.55-1-13.67,4.57-18.91C384.56,586.35,392.26,584.26,398.56,587.42Z"/><path class="a" d="M370.46,518.75c-2.78-.45-4.2,1.88-6.8,2.82-2.8-10.75-12.59-17-15.92-27.31,3.82-2.52,6.41-1.7,9.22,1.72C362.42,502.62,368.07,509,370.46,518.75Z"/><path class="a" d="M427.68,193.75c12.22,9.51,13.68,22,12,35.46C431.23,222.47,427.29,205.1,427.68,193.75Z"/><path class="a" d="M515.17,347.57c-3.61,6-8.69,9-15.37,8.64-11-.64-21.92-3.19-34.43-2.1a15.05,15.05,0,0,1,11.19-4.74c5.57-.08,11.14.28,16.71.17C500.57,349.4,508,350.27,515.17,347.57Z"/><path class="a" d="M346.59,645.1c-.64-18.72,8.39-30.42,21.5-27.76C361.05,626.92,353.17,635.49,346.59,645.1Z"/><path class="a" d="M395.25,343.94c14.79,6.29,22.06,20,34.24,27.34C411.76,371,404.38,357.47,395.25,343.94Z"/><path class="a" d="M483.54,537.23c1.78-9.53,7.83-14.72,17.15-14.53,5.43.12,10.66,1.15,15.42,4.7-11.82.64-21.81,6.56-32.62,9.81Z"/><path class="a" d="M387.84,464.37c11.65,7.7,14.81,21.87,25,30.23-5.94,3.6-9-.28-12-4.11-3.45-4.4-4.68-10.11-8.44-14.33-1.45-1.62-2.76-3.49-4.52-4.7C384.94,469.4,385.42,467.38,387.84,464.37Z"/><path class="a" d="M353.72,362.45c.94,15.19,7.23,29.67,0,44.2.83-10-4.43-19-4.29-28.87A27.32,27.32,0,0,1,353.72,362.45Z"/><path class="a" d="M437.36,163.82A63.24,63.24,0,0,1,403.26,138c5.82,2.59,12.61,2.82,17.24,8.34C425.4,152.13,429.92,158.35,437.36,163.82Z"/><path class="a" d="M336.39,494.81c2.42-1.1,4-.53,4.59,1.11,3,8.65,10.29,14.55,14.22,22.59,1.32,2.71,1.78,5.66,2.46,8.55s-1.09,4.67-3.76,6.59C354,517.94,340.53,508.7,336.39,494.81Z"/><path class="a" d="M379.35,73.13c7.15,12.76,20.13,19.63,29.87,29.71C393.64,98.52,381.73,90.54,379.35,73.13Z"/><path class="a" d="M421.09,341.3c-3.77-13.21-2.79-25.88,4.7-38.09C429.67,316.7,423.35,328.77,421.09,341.3Z"/><path class="a" d="M269.51,285.8c-7.06,11-18,16.06-32.36,15.28C246.21,292,257.21,288.9,269.51,285.8Z"/><path class="a" d="M462,403.27c2.35-5.12,7.51-6.83,12-8.58,8.95-3.52,17.94-6.84,26.21-11.83l-.07-.07c-2.78,6.64-8.57,10-14.53,13-7.45,3.72-15.71,5.12-23.67,7.36Z"/><path class="a" d="M378.53,477.75c1.73-3,3.41-3.28,5.64-1.53a15.83,15.83,0,0,1,4.17,5.66,111.46,111.46,0,0,0,10.34,16.31c-3.12,3-5.33,2-7.32-.53a39.84,39.84,0,0,1-4.89-8.77C384.6,484.75,381.65,481.25,378.53,477.75Z"/><path class="a" d="M503.84,311c.16-2.49,1.55-4.53,2.63-6.61,2.21-4.22,4.67-8.31,7.1-12.41s2-8.74,3.48-13.51c4.93,11.66-.3,27.56-13.29,32.46Z"/><path class="a" d="M484.92,265.44c-3.78-8.06-7-16.13-6.63-25.58C488.2,244.4,489.16,248.22,484.92,265.44Z"/><path class="a" d="M379.94,509.23c-1.17,1-2.18,2.62-4.81,2.83-2.95-7.95-9.6-13.9-13.26-21.75,3.2-3.55,4.6-.72,6,1.29C371.94,497.42,375.91,503.32,379.94,509.23Z"/><path class="a" d="M355.5,296.62c13.52-.21,25.47,3.55,35.63,13.72-3.58,1-5.12-1.36-7.09-2.37a104.75,104.75,0,0,0-23.74-9.08c-1.71-.4-3.51-.76-4.73-2.26Z"/><path class="a" d="M301.92,287.54c7.46-7,11.79-17.45,22.32-21.35C317.55,274,313.64,284.69,301.92,287.54Z"/><path class="a" d="M347.38,423.31l3-4.13c5.74,7.76,7,16.65,9.34,25.61-3.09.75-5,1-5.2-3.08A31.19,31.19,0,0,0,347.38,423.31Z"/><path class="a" d="M324.86,407.12c1.26-5.14,2.24-10.17,6.59-10.64,4.56-.49,7.48,4,11,8.08C336.26,405.17,331,405.12,324.86,407.12Z"/><path class="a" d="M319,438.34c2.21,9.66,9.78,14.31,14.86,20.9.19.24-.34,1-.62,1.83a58.26,58.26,0,0,1-13.77-10.43C316,447.23,314.74,443.82,319,438.34Z"/><path class="a" d="M342.74,412.5c-1.47,2.49-2.5,4.83-5.54,4.08-5.65-1.41-10.37.43-14.74,4.37C323.16,412.93,333.63,408.6,342.74,412.5Z"/><path class="a" d="M388.9,503.58a14.38,14.38,0,0,1-1.61,1.39,13.93,13.93,0,0,1-1.82.73c-4.46-6-8.05-12.63-13-18.28-1-1.15-2.26-2.63-.46-4.08s3,0,3.86,1.32c2.37,3.64,4.46,7.46,6.88,11.06C384.53,498.33,386.64,500.71,388.9,503.58Z"/><path class="a" d="M288.45,338.51c-7.46-3.51-11.31-10.19-14.58-17.35,6.34,4.51,12.5,9.18,14.49,17.44Z"/><path class="a" d="M490.09,237.7a1.7,1.7,0,0,1-2.4-.62c-.09-.13.24-.85.43-.88C489.2,236,489.83,236.63,490.09,237.7Z"/><path class="a" d="M445.61,207.92c.11,0,.28,0,.31.05a.64.64,0,0,1,.1.45c-.2.51-.42.49-.53,0C445.46,208.23,445.56,208.07,445.61,207.92Z"/><path class="a" d="M355.57,296.63l-.68-.28c.05.12.09.32.17.34s.29,0,.44-.07Z"/><path class="a" d="M483.49,537.21l.05,0Z"/><polygon class="a" points="500.2 382.86 500.35 382.71 500.13 382.79 500.2 382.86"/><path class="a" d="M288.36,338.6l.5.18-.41-.27Z"/><polygon class="a" points="503.76 310.97 503.6 311.4 503.84 311.04 503.76 310.97"/><polygon class="a" points="387.6 283.61 387.86 283.67 387.67 283.55 387.6 283.61"/><rect x="485.29" y="235.24" width="5.31" height="2.95"/><rect x="445.02" y="206.94" width="1.43" height="2.06"/></svg>