<svg xmlns="http://www.w3.org/2000/svg" viewBox="0 0 800 800"><defs><style>.a{fill:#e2a1b4;}</style></defs><title>born-star</title><path d="M161.53,400.18q0-138.62,0-277.22c0-20.49-.2-41-.27-61.47,0-2.2.1-4.42.3-6.61.34-3.63,2.17-5.12,6-4.85,29.88,2.11,59.81,1.14,89.73,1.16q151.57.06,303.16-.23c18.43,0,36.87.36,55.32-.52,6.29-.3,12.68.4,19-.32,4.44-.5,6.12,1.78,5.85,6.11-1.7,27.25-1.6,54.55-1.62,81.83q-.19,204.63-.22,409.26c0,22.9.14,45.81,0,68.71-.08,11.12-1.65,22.29-.88,33.33,1.05,15.21.82,30.39.88,45.59.06,16.27-.15,32.54.1,48.81.08,5-2.28,6.26-6.55,6.24-31.93-.17-63.88.2-95.8-.66-15.65-.41-31.36-1-46.93-.57-22.37.58-44.72.57-67.08.76-5.38.05-10.82-.88-16.06-.8-8.38.12-16.79.82-25.22.82q-96.13-.06-192.26,0c-7.42,0-14.85.19-22.27.23-5.72,0-7.48-1.73-7.45-7.41.22-40.74.55-81.49.66-122.23.15-52.43,1-105.15,1-157.58,0-20.89.55-41.48.55-62.37Zm56-219.26a43.63,43.63,0,0,1-29.87-1.59c.49,14.56-2,27.21-12.38,38.18,13,4,22,11.87,26.59,24.71,4.95-11.67,12.82-19,26-21.4-11.24-11.94-11.37-25.36-9.63-39.18.22-.26.67-.68.61-.77C218.4,180.2,217.93,180.49,217.49,180.92Zm-.12,132.62c14.13-5.54,25.3,2.24,37.42,9,1-14.07,2.3-27.37,12.51-38.19-14-5.29-22.63-14.58-27.19-29.15C233.62,265.82,224,271,215.15,277a36.74,36.74,0,0,1,3.56,25.56c-.72,3.32-1.52,6.62-2.28,9.93-.17.31-.56.74-.47.9C216.3,314,216.86,313.89,217.37,313.54Zm268.25,315c1.47-1.82,1.07-3.69,1.1-5.45.13-9.44.34-18.88.3-28.32q-.5-112.67-1.1-225.33c-.19-33.88-.25-67.8-7.44-101.16-3.92-18.15-10.4-35-22.11-50-16.5-21.09-36.7-36.25-62.77-42.71-21.84-5.4-43.52-5.41-64.71,3.82-22.1,9.64-35.65,27.17-45.57,48.14-4.53,9.57-5.92,20-6.16,30.46-.42,18.87-.33,37.75-.12,56.62.92,81.92.88,163.85,2.39,245.77.08,4.82,2,6.63,6.17,7.91,21.08,6.44,42.17,12.89,63.14,19.72,41.38,13.48,83.3,25.21,124.83,38.24C477.47,627.53,481.56,628.74,485.62,628.56ZM167.38,75c.65,14.16-.9,28.75,1,43.32,1.48,11.51,7.77,20,17.29,26.2,1.84,1.2,4.46,2.05,3.46,4.81s-3.92,1.92-5.81,1.41c-6.85-1.83-12,1.07-15.77,4v61.51c8.16-6.46,12.34-13.54,14.25-22,1.72-7.64,1.54-15.16-2.15-22.29-.91-1.77-1.46-3.64.53-4.73s3.29.67,4.25,2.23,2,3.16,3.6,4c9.61,4.83,19.32,6.17,29.36,1,4.41-2.29,8.19-5.46,12.42-8.67,1.77,4.26,2.29,7.7-1.33,10.64-2.23,1.81-4.16,4-4.76,6.8-2.56,12.11-1.64,23.63,6.86,33.43,4.83,5.56,4.59,6.28-2.27,8.4-10.47,3.23-18.73,8.73-21,20.69-1,5.12-2.41,10.13-2.52,15.39,0,2.09-.14,4.46-2.91,4.31-2.46-.13-3-2.31-3-4.49,0-1.2,0-2.41,0-3.61a39.3,39.3,0,0,0-5.54-20.71c-6.3-10.15-15.28-17.3-26.06-13,0,6.5,0,13.11,0,19.72,0,7,2.3,9.74,9.27,10.48a22.73,22.73,0,0,0,8.38-.4c2.3-.62,4.59-.89,5.61,1.78s-1.09,3.51-3,4.88c-7.33,5.1-13.48,11.23-16.23,20.18-2.38,7.72-3,15.73-4.26,23.62a20.25,20.25,0,0,0,.72,10c6-3.48,6.91-9.1,7.94-14.59.53-2.81-.59-7.13,3.49-7.23,4.59-.11,3.12,4.64,4.08,7.45,4.36,12.72,8,26.2,24.7,28.07a3,3,0,0,1,2.52,2.32c.49,1.84-.55,2.95-2,3.93-5.3,3.57-7,8.85-7.39,15-.52,8,2.46,14.95,5.64,21.9.86,1.85,2.17,3.67,0,5.36-1.75,1.38-3.55.33-5-.71-9.69-7.06-19.85-6.24-30.18-1.87-5.38,2.28-6,4.39-3.82,10a13.75,13.75,0,0,0,6.84,7.89c4.51,2.28,4.52,4.19.8,7.38-8.39,7.18-11.56,19.19-7.95,30.54,9.49-8.06,12.58-19.56,15.53-30.84,4,1.34,4.22,3.3,4.07,5.73A44.59,44.59,0,0,0,193,429c4.75,8.49,10.62,16.18,21.69,16.94,1.84.13,3.6.94,4.13,3,.69,2.61-1.41,3.19-3.08,4.38-4.27,3-8,6.45-9.88,11.72-3.57,9.79-2.51,19.31.62,28.85.75,2.29,1.21,4.66-1.38,5.7s-4.11-1.15-4.89-3.27a15.81,15.81,0,0,0-4-6.56c-7.62-7-18.48-6.79-28.8,0-3.32,2.18-3.28,5.93-2,7,3.81,3.28,3.33,7.94,5.19,11.74,2.19,4.48,5,8.22,9.78,10.15,1.58.63,3.66,1,3.23,4-2.15.42-4.51.76-6.79,1.35-6.76,1.76-10.12,7-11,13.78-1.43,11.26,3.2,20.72,7.78,30.16,4.84,10,12.64,15.89,24.44,14.59,1.75-.19,3.25,0,4.11,1.68,1.11,2.18-.45,3.27-1.91,4.43a19.75,19.75,0,0,0-6.75,10.46c-2.55,9.24-3.09,18.6-.67,28,.91,3.5,2,6.94,3,10.42.48,1.7.24,3.33-1.56,4-1.54.62-2.66-.42-3.56-1.58-1.48-1.9-2.88-3.85-4.39-5.72-4.53-5.62-13.34-8.48-20.25-6.37v65.33c3.85.18,5.56-2.32,7.3-4.78,1.09-1.55,1.74-4.16,4.43-2.68,2.52,1.39,1.89,3.67,1,5.83-1.44,3.52-2.9,7-4.34,10.57-3.34,8.21-3.43,17.35-6.83,25.42-2.17,5.15-1.82,9.88-1.49,15.59A19.28,19.28,0,0,0,172.6,738c4-4.79,5.89-10.39,7.41-16.26.5-1.92,0-5.07,3.17-5,2.95.05,2.86,3,3.32,5,1.92,8.59,8.36,13.88,15.24,17.44,11.91,6.15,25.29,4.49,38,5.12,3.15-10.71-1.9-20.73-11.42-23.85-1.52-.5-3.07-.92-4.6-1.42a2.65,2.65,0,0,1-2-2.71,2.82,2.82,0,0,1,2-2.74c1.52-.49,3.16-.59,4.68-1.08,15.56-4.95,25.83-12.35,26.74-31.78.06-1.43,0-2.85,1.88-3.73,3.62.46,4.2,3.07,4.28,6.38.35,14.52,8.7,23.83,23.18,26.07a42.64,42.64,0,0,1,7.1,1.22c2.68.9,4.41,3.38,1.67,5.37-7.55,5.47-6.92,12.4-4.56,19.91.7,2.21,1,4.33-1.57,6-6.18-1.39-12.46-1.78-18.25,1.95,6.46.45,12.88.48,19.3.44,12.58-.09,15.1-1.87,19.41-13.83a22.37,22.37,0,0,0,1.05-5.28c.2-1.92.55-3.59,3.87-4.31,3.71,9.7,8.58,19.1,19.25,23.54,2.24-6.86,2.74-13.25.75-19.87-2.26-7.53-10.23-7-16.76-11.53,19.79-8,29.23-21.17,25.15-41.21,4.34-2.77,6.55-2,7.67,2.37,1.32,5.07,3.17,10.62,7.23,13.5,6.6,4.71,14.46,6.95,22.71,3.57,1.61-.66,3.08-1.35,4.16.54s-.18,2.86-1.53,4c-7.94,6.54-9.87,15.2-8.51,24.93.52,3.68,1.2,7.34,2,12.24-7.11-.79-13.43-3.27-19.59-.56-5.88,2.59-12.38,4.4-15.3,11.8h56c3.36-5.33,1.59-11.09,2.14-16.54.4-4-2-5.42-5.52-5.32-2.17.06-4.44.17-6.27,1.72-1.53,1.32-3,.92-4.22-.46a3.53,3.53,0,0,1-.18-4.94,19.16,19.16,0,0,1,4.53-3.91c6.22-3.6,9-9.51,11-15.92,1.29-4.09.61-8.39.67-12.59.1-7.34,0-14.68,0-22.31-13.84-.88-23,5.68-31,14.7-1.62,1.85-2.57,5.52-5.82,3.32s-.18-4.52.93-6.67a41.06,41.06,0,0,0,4.54-22.72c-.32-3.92-1.94-6.83-5.72-8.43-2-.84-4.49-1.47-4.4-4.28.1-3.16,3.13-2.65,5-3.38,16-6.26,23.38-17.52,21.13-33l-19.35-6c-1.46,2.58-3.15,4.68-3.92,7.08-1.71,5.32-3.74,10.83,1.76,15.49,1.17,1,2.12,2.73.63,4.25-1.32,1.34-2.9.8-4.45.08-5.82-2.7-11.86-3.79-18-1.28a29.9,29.9,0,0,0-17.26,18.06c-.74,2-.87,4.89-4.09,3.8s-2.26-3.61-1.28-6a35.81,35.81,0,0,0,2.85-18.83c-.95-6.8-3.17-12.95-11-14.71-2.1-.47-3.87-1.46-3.88-3.92,0-2.75,2.34-2.94,4.22-3.44,6.95-1.83,10.3-6.93,12.86-13.92-13.58-4.12-26.75-8.22-40-12.09-7.09-2.08-7.26-2.17-7.23-9.94.06-15.25,0-30.51,0-46.12-3.47-.5-5.77-2.79-8.32-4.65-2.75-2-5.4-4.14-8-6.3-1.57-1.28-3.16-2.71-2.37-5.05.72-2.14,2.67-1.84,4.47-2.17,7.29-1.31,14-10.33,13.16-17.32-12.11-3.06-28.66,11-33.13,22.38-.65,1.65-1,4-3.4,3.33-2.61-.72-2.13-3.1-1.52-5a46.64,46.64,0,0,0,2-17.87c-.67-7.91-2.59-15.12-11.08-18.36a3.37,3.37,0,0,1-2.48-3.67c.18-2.09,1.88-2.23,3.44-2.72,13.68-4.32,19.36-17.13,13.36-30-.42-.91-1-1.76-1.42-2.66a2.71,2.71,0,0,1,.88-3.73c1.4-.95,3.09-1.27,4.44,0a11.93,11.93,0,0,1,2.46,3.39c5.07,10.76,12,13.23,26.1,10.71.88-1.46.57-3.08.56-4.66q-.19-35.56-.38-71.12c-.05-7.94-2.46-14.58-10.55-17.81a4.57,4.57,0,0,1-3.22-4c-.08-2.16,1.85-2.77,3.54-3.55,4.65-2.15,7.25-5.7,8.59-10.82,2.19-8.38.88-16.75,1.05-25.13.07-3.63,0-7.27,0-10.9a19,19,0,0,0-7.46,8.1c-4,7.9-5.16,16.35-5.31,25.08-.07,3.73,1.55,8-2.84,11.22-2.7-2.51-5.07-5.26-7.94-7.28-12.31-8.65-22.21-13.42-37.79-2.65-2.55,1.77-4,.14-5.16-2.23a49.45,49.45,0,0,0,8.44-27.77c0-5.4-.62-10.95-5.89-14.3-1.42-.9-2.89-1.68-2.68-3.58.27-2.36,2.43-2.38,4.1-2.86,6.91-2,12.57-6,17.77-10.75,5.87-5.4,9.27-12.29,11.23-19.65,3.39-.31,4.06,1.5,4.21,3.67.46,6.37,3,12.11,5.88,17.58,4.81,9,12.07,15.09,23.19,16.93-.23-9.78,1-19.09-1-28.59-6.91,1-11.33,5.06-15,10-4.68-3-2.72-5.64-1.1-8.55,7.73-13.94,5.06-24.11-8-31-.24-.13-.24-.72-.69-2.16,5.91-2.2,12.15-4.16,17.27-8.36,5.34-4.37,6.81-10.95,9.7-16.5,4.82,1.08,4,5.62,6.25,8,2.41,2.62,4.51,5.72,9,5.61a84.28,84.28,0,0,1,23.74-25c3.29-2.25,3.61-5.7,4.14-8.9.76-4.53.7-9.19,1.18-13.77.21-2-.89-4.53,2.19-6.11,2.79,1.21,3.09,4.14,4,6.65,1.83,4.87,4.66,9.74,9.9,10.21,4.47.4,9.17-1.88,14-3-1-11.13-10-14.25-17.79-18.07,1.56-3.77,4.28-4.24,7.08-4.91,13.74-3.31,26.54-16.29,28.39-28.65,1.41-.42,2.69-1.54,4.33-1,6.18,17.29,15,23.18,27.48,18.1,0-10.1,0-20.34,0-30.57a20.73,20.73,0,0,0-.36-2.76c-16.24-4.23-34,2.36-43.12,15.87-1.56,2.3-2.74,5-6.57,4-1.2-3.83.91-7.08,1.84-10.4a48.16,48.16,0,0,0,1-23.8,27.3,27.3,0,0,0-16-19.81c2.58-5.34,9.14-5.29,11.47-9.46h-27.6c2,3.32,3.45,5.25,6.13,6.22,2.39.87,5.23.53,7.47,2.76-2.31,10.85-.15,20.86,6.87,29.69,1.25,1.57.63,2.95-.12,4.44a3.06,3.06,0,0,1-4.07,1.57,10.1,10.1,0,0,0-5.91-.24c-10.66,2.86-19.31,8.6-25.53,17.81-1.25,1.86-1.67,5.34-4.91,3.76-2.59-1.25-1-3.88-.49-5.95.23-1,.58-1.93.74-2.92,1.93-11.67,1.23-22.56-9.39-30.32-3.92-2.87-8.07-5.28-13.2-5.21A3.21,3.21,0,0,1,272.22,76c-.43-2,1-2.52,2.55-3.35a144.44,144.44,0,0,0,13.42-7.92A16.82,16.82,0,0,0,295,56.25c-3.87,0-7.06-.13-10.24,0-4.93.24-10.45-1-14.49,2.29-6.6,5.33-12,11.86-14.1,20.45-.34,1.36-.55,2.75-.79,4.14-.32,1.89-.9,3.81-3.17,3.67s-2.78-2-2.84-4c-.13-4.22,0-8.45-.34-12.65C247.9,57.58,246.25,56.11,233.75,56c-5.22,0-10.44,0-15.67,0H206.36c9,12.73,20.41,10.08,32,8.29-.75,3.6-1.12,6.3-1.87,8.9-4.1,14.28-2,27,9.2,37.5,1.57,1.47,3.51,2.92,2.26,5.4a3.65,3.65,0,0,1-3.42,1.33c-8-.8-14.25,3-20.56,7.1-10.82,7.07-17.55,17.38-23.39,28.46-.9,1.72-1.33,4.32-4,3.3s-1.37-3.35-1-5.22c.3-1.57.84-3.1,1.14-4.68,1.79-9.6,2.13-19-1.89-28.34-3.62-8.37-9.39-12.65-17.75-12.1-1.78.12-3.27,0-3.86-1.89-.65-2.05-.64-4.17,1.67-5.16,7.25-3.1,11.58-9.33,15.69-15.4,5.44-8.07,8.53-17,5.9-27.21-6.5-.24-12.42-.65-18.16.93-.54,7.53,6.6,12.64,5.63,20.18C178,78.23,174,71.56,167.38,75ZM492,623.87l1.42.57a19,19,0,0,1,8.87-6.4,3.33,3.33,0,0,0,2.36-2.55c.45-3.41,3.08-5.4,5.43-6.87,6.42-4,7.84-10,7.86-16.8q.23-65.66.4-131.31c.07-52.38.38-104.77-1.88-157.13-.8-18.56-1.69-36.92-7.2-55-6.74-22.12-19.5-39.34-38.46-52a68.12,68.12,0,0,0-22.26-10.1c-7.74-2-15.13-8.66-22.82-10.7-6-1.59-12.11-3.15-19.11-2.36a12.82,12.82,0,0,0,1.8,1.53c1.61.8,3.26,1.54,4.9,2.28C437.73,188.07,456,205.82,469,229a128,128,0,0,1,14.84,42.84c2.48,15.44,5.78,30.88,6.1,46.43.76,37.1.21,74.23.34,111.35q.27,81.9.78,163.79C491.15,603.57,491.66,613.72,492,623.87ZM231.62,71.77c-6.35-.33-11.45-.3-16.57-1.92-5.36-1.68-8-6.26-12.74-10.17.77,17.52-8.52,29.52-18.67,41.43,15.12,7.83,19.11,21.18,20,37.12,9.45-12.38,20-21.51,34.76-26C231,99.17,226.87,86.38,231.62,71.77Zm-48.1,347.39c-4.72,3.37-5.89,9-9.94,11.76-7.47,5-8.32,11.95-7.49,19.8.12,1.19-.05,2.41,0,3.61.55,8.9-.7,17.86.51,27.29,11.07-2.75,21.7-4.95,32.29,3.66-1.1-13.51,1.36-24.54,10.08-34.27C195,444.87,187.81,433.49,183.52,419.16ZM397.14,56.09c-12,0-22.84.95-33.44-.28-9.82-1.14-15.22,4.53-22,9.91,14.22,10.94,15,25.78,12.93,42.64,10.89-10.41,23.18-14.77,38.12-13.7C383.86,80.55,387.46,68.38,397.14,56.09ZM201.7,331.79c-11.9-4.21-17-13.71-21.94-24.1-3.15,6-6.46,10.52-10.95,14-1.85,1.44-2,3.28-2,5.35-.06,9.24-.19,18.48-.26,27.71,0,4.72,0,9.44,0,14.51,5.92-1.37,10.56-4.39,15.85-4.15s10.62,1.07,16.43,1.69C195.43,354.72,192.88,343.13,201.7,331.79ZM282.58,74.62c14.59,7.16,22.87,17.77,21.43,35.26,9-7.33,17.78-12.61,29-14.42-4.64-8.37-7.58-16.77-7.43-25.89-4.07-2-8.53-3.58-10.41-7.33-3.24-6.46-8.4-6.3-14.18-5.6C296.37,63.83,290.92,70.31,282.58,74.62ZM247.15,744.13c5.13.1,9.91,1.22,13.32-3.75.89-1.3,3-1.77,4.65-2.54,5.1-2.45,10.73-2.67,17-3.48-1.69-6.71.26-12.76,2.34-19.06-12.57-1.63-20.71-8.25-26.3-18.8-2.9,4.68-5.65,9.07-9.66,12.5s-8.74,5.49-13.12,8.27C244.17,727.26,245.84,731,247.15,744.13ZM353.83,167.81c12-3.26,23.87-1.87,36-2.94-1.62-9-1.36-16.8,4.61-25.18-12.37,1.4-19.41-4.89-25.55-13.82-6,11.7-16.06,18-27.13,23.69C346.67,155,352.47,159.41,353.83,167.81ZM243,489.88c9.17-9.78,18.79-15,31.36-15.17-1-10.65.32-20.95-1.12-31.67-9.06.89-17.24,0-24.8-6.18-.2,12.08-5.48,19.9-14.58,25.54C240.4,470.25,242.55,478.9,243,489.88Zm124.54,235.7c-.72-9.14-1-18.1,3.88-26.46-9.56-2.7-19.41-4-24.17-14.37-1.75,12.3-8.74,20.84-17.17,28.09,4.91,7,8.67,13.9,10.31,22.73C348.24,728.1,357.22,725.83,367.54,725.58Zm30.39-66.76c0-10.06-.72-19.5.21-28.78.85-8.36-3.61-12.22-10.11-16.24-2.39,13.11-9.74,21.91-23.24,27,9.91,6.62,6.94,16.08,7.57,25.18C380.4,661.19,388,657.86,397.93,658.82Zm-45-42.12c-.88-7.35,0-14.16,4-21l-29.6-9.66c-2.44,6.88-6.57,11.87-12.54,16.4,8.87,5.59,9.63,14.49,10.74,23.5,5.09-1.68,7.12-6.81,12.13-8.1S347.54,617.28,352.91,616.7ZM166.15,622c7.79-2.32,13.73,1.16,20,4.61-.29-13.5-1-26.55,6.79-38.36-6.09-2-11.68-3.31-16.3-7.25s-7-8.87-10.53-13.59Zm97.43-374.72c3.38-2.54,9.47-.58,10.53-5.62,2.11-9.91,6.33-18.85,11.49-27.88-4.42-1.86-6.9-5.61-10.91-8.77-3.55,8.22-11.05,12-18.22,16.82C263.86,228.91,266.31,237.09,263.58,247.28ZM198.76,743.69a67.87,67.87,0,0,1-14.95-14.22c-2.09,5.53-5.3,9.1-8,13.59C183.19,744.6,190.13,744.47,198.76,743.69ZM397.5,90.76V65.13C390.37,76,390.46,84.08,397.5,90.76ZM250.41,57c1.3,4.09,2.52,7.95,3.94,12.41,3.27-4.36,6.1-8.13,9.49-12.67C259.1,56.8,255.1,55.61,250.41,57ZM168,272.31c2.24-5.11,6.86-8.22,10.1-13-3.85-.66-6.71-2.68-10.48-2.67A51.08,51.08,0,0,0,168,272.31Zm95.66,230.53c4,2.52,5.78,6.36,10.36,6.2,1-4.48.16-8.69.26-13.32C270.18,497.4,268.6,501.43,263.66,502.84ZM313,734.33c-3.28,2.85-4,6.18-5.73,9.61A39,39,0,0,0,320,744C317.46,740.48,315.41,737.64,313,734.33Zm-145.12-587L177,145l-9.07-11.51Z"/><path class="a" d="M485.62,628.56c-4.06.18-8.15-1-12.05-2.25-41.53-13-83.45-24.76-124.83-38.24-21-6.83-42.06-13.28-63.14-19.72-4.18-1.28-6.09-3.09-6.17-7.91C277.92,478.52,278,396.59,277,314.67c-.21-18.87-.3-37.75.12-56.62.24-10.42,1.63-20.89,6.16-30.46,9.92-21,23.47-38.5,45.57-48.14,21.19-9.23,42.87-9.22,64.71-3.82,26.07,6.46,46.27,21.62,62.77,42.71,11.71,15,18.19,31.81,22.11,50,7.19,33.36,7.25,67.28,7.44,101.16q.63,112.67,1.1,225.33c0,9.44-.17,18.88-.3,28.32C486.69,624.87,487.09,626.74,485.62,628.56Z"/><path class="a" d="M167.38,75c6.59-3.46,10.63,3.21,16.53,2.44,1-7.54-6.17-12.65-5.63-20.18,5.74-1.58,11.66-1.17,18.16-.93,2.63,10.19-.46,19.14-5.9,27.21-4.11,6.07-8.44,12.3-15.69,15.4-2.31,1-2.32,3.11-1.67,5.16.59,1.89,2.08,2,3.86,1.89,8.36-.55,14.13,3.73,17.75,12.1,4,9.31,3.68,18.74,1.89,28.34-.3,1.58-.84,3.11-1.14,4.68-.36,1.87-1.68,4.22,1,5.22s3.15-1.58,4-3.3c5.84-11.08,12.57-21.39,23.39-28.46,6.31-4.12,12.59-7.9,20.56-7.1a3.65,3.65,0,0,0,3.42-1.33c1.25-2.48-.69-3.93-2.26-5.4-11.19-10.52-13.3-23.22-9.2-37.5.75-2.6,1.12-5.3,1.87-8.9-11.61,1.79-23,4.44-32-8.29h11.72c5.23,0,10.45-.07,15.67,0,12.5.08,14.15,1.55,15.29,14.16.37,4.2.21,8.43.34,12.65.06,1.94.65,3.85,2.84,4s2.85-1.78,3.17-3.67c.24-1.39.45-2.78.79-4.14,2.12-8.59,7.5-15.12,14.1-20.45,4-3.26,9.56-2.05,14.49-2.29,3.18-.15,6.37,0,10.24,0a16.82,16.82,0,0,1-6.82,8.48,144.44,144.44,0,0,1-13.42,7.92c-1.56.83-3,1.32-2.55,3.35a3.21,3.21,0,0,0,3.56,2.59c5.13-.07,9.28,2.34,13.2,5.21,10.62,7.76,11.32,18.65,9.39,30.32-.16,1-.51,1.94-.74,2.92-.47,2.07-2.1,4.7.49,5.95,3.24,1.58,3.66-1.9,4.91-3.76,6.22-9.21,14.87-15,25.53-17.81a10.1,10.1,0,0,1,5.91.24,3.06,3.06,0,0,0,4.07-1.57c.75-1.49,1.37-2.87.12-4.44-7-8.83-9.18-18.84-6.87-29.69-2.24-2.23-5.08-1.89-7.47-2.76-2.68-1-4.13-2.9-6.13-6.22h27.6c-2.33,4.17-8.89,4.12-11.47,9.46a27.3,27.3,0,0,1,16,19.81,48.16,48.16,0,0,1-1,23.8c-.93,3.32-3,6.57-1.84,10.4,3.83,1,5-1.75,6.57-4,9.11-13.51,26.88-20.1,43.12-15.87a20.73,20.73,0,0,1,.36,2.76c0,10.23,0,20.47,0,30.57-12.49,5.08-21.3-.81-27.48-18.1-1.64-.55-2.92.57-4.33,1-1.85,12.36-14.65,25.34-28.39,28.65-2.8.67-5.52,1.14-7.08,4.91C338,154.13,347,157.25,348,168.38c-4.81,1.14-9.51,3.42-14,3-5.24-.47-8.07-5.34-9.9-10.21-.94-2.51-1.24-5.44-4-6.65-3.08,1.58-2,4.1-2.19,6.11-.48,4.58-.42,9.24-1.18,13.77-.53,3.2-.85,6.65-4.14,8.9a84.28,84.28,0,0,0-23.74,25c-4.5.11-6.6-3-9-5.61-2.21-2.41-1.43-6.95-6.25-8-2.89,5.55-4.36,12.13-9.7,16.5-5.12,4.2-11.36,6.16-17.27,8.36.45,1.44.45,2,.69,2.16,13,6.88,15.7,17.05,8,31-1.62,2.91-3.58,5.59,1.1,8.55,3.62-5,8-9,15-10,2.07,9.5.81,18.81,1,28.59C261.27,278,254,271.93,249.2,262.89c-2.9-5.47-5.42-11.21-5.88-17.58-.15-2.17-.82-4-4.21-3.67-2,7.36-5.36,14.25-11.23,19.65-5.2,4.78-10.86,8.79-17.77,10.75-1.67.48-3.83.5-4.1,2.86-.21,1.9,1.26,2.68,2.68,3.58,5.27,3.35,5.9,8.9,5.89,14.3a49.45,49.45,0,0,1-8.44,27.77c1.15,2.37,2.61,4,5.16,2.23,15.58-10.77,25.48-6,37.79,2.65,2.87,2,5.24,4.77,7.94,7.28,4.39-3.18,2.77-7.49,2.84-11.22.15-8.73,1.34-17.18,5.31-25.08a19,19,0,0,1,7.46-8.1c0,3.63.06,7.27,0,10.9-.17,8.38,1.14,16.75-1.05,25.13-1.34,5.12-3.94,8.67-8.59,10.82-1.69.78-3.62,1.39-3.54,3.55a4.57,4.57,0,0,0,3.22,4c8.09,3.23,10.5,9.87,10.55,17.81q.24,35.55.38,71.12c0,1.58.32,3.2-.56,4.66-14.1,2.52-21,0-26.1-10.71a11.93,11.93,0,0,0-2.46-3.39c-1.35-1.31-3-1-4.44,0a2.71,2.71,0,0,0-.88,3.73c.45.9,1,1.75,1.42,2.66,6,12.9.32,25.71-13.36,30-1.56.49-3.26.63-3.44,2.72a3.37,3.37,0,0,0,2.48,3.67c8.49,3.24,10.41,10.45,11.08,18.36a46.64,46.64,0,0,1-2,17.87c-.61,1.94-1.09,4.32,1.52,5,2.4.67,2.75-1.68,3.4-3.33,4.47-11.34,21-25.44,33.13-22.38.87,7-5.87,16-13.16,17.32-1.8.33-3.75,0-4.47,2.17-.79,2.34.8,3.77,2.37,5.05,2.63,2.16,5.28,4.3,8,6.3,2.55,1.86,4.85,4.15,8.32,4.65,0,15.61,0,30.87,0,46.12,0,7.77.14,7.86,7.23,9.94,13.24,3.87,26.41,8,40,12.09-2.56,7-5.91,12.09-12.86,13.92-1.88.5-4.23.69-4.22,3.44,0,2.46,1.78,3.45,3.88,3.92,7.87,1.76,10.09,7.91,11,14.71A35.81,35.81,0,0,1,316.72,639c-1,2.35-2,4.83,1.28,6s3.35-1.79,4.09-3.8a29.9,29.9,0,0,1,17.26-18.06c6.11-2.51,12.15-1.42,18,1.28,1.55.72,3.13,1.26,4.45-.08,1.49-1.52.54-3.25-.63-4.25-5.5-4.66-3.47-10.17-1.76-15.49.77-2.4,2.46-4.5,3.92-7.08l19.35,6c2.25,15.52-5.11,26.78-21.13,33-1.86.73-4.89.22-5,3.38-.09,2.81,2.42,3.44,4.4,4.28,3.78,1.6,5.4,4.51,5.72,8.43a41.06,41.06,0,0,1-4.54,22.72c-1.11,2.15-4.18,4.47-.93,6.67s4.2-1.47,5.82-3.32c8-9,17.13-15.58,31-14.7,0,7.63.07,15,0,22.31-.06,4.2.62,8.5-.67,12.59-2,6.41-4.83,12.32-11,15.92a19.16,19.16,0,0,0-4.53,3.91,3.53,3.53,0,0,0,.18,4.94c1.19,1.38,2.69,1.78,4.22.46,1.83-1.55,4.1-1.66,6.27-1.72,3.48-.1,5.92,1.3,5.52,5.32-.55,5.45,1.22,11.21-2.14,16.54h-56c2.92-7.4,9.42-9.21,15.3-11.8,6.16-2.71,12.48-.23,19.59.56-.81-4.9-1.49-8.56-2-12.24-1.36-9.73.57-18.39,8.51-24.93,1.35-1.11,2.57-2.14,1.53-4s-2.55-1.2-4.16-.54c-8.25,3.38-16.11,1.14-22.71-3.57-4.06-2.88-5.91-8.43-7.23-13.5-1.12-4.32-3.33-5.14-7.67-2.37,4.08,20-5.36,33.24-25.15,41.21,6.53,4.57,14.5,4,16.76,11.53,2,6.62,1.49,13-.75,19.87-10.67-4.44-15.54-13.84-19.25-23.54-3.32.72-3.67,2.39-3.87,4.31a22.37,22.37,0,0,1-1.05,5.28c-4.31,12-6.83,13.74-19.41,13.83-6.42,0-12.84,0-19.3-.44,5.79-3.73,12.07-3.34,18.25-1.95,2.61-1.66,2.27-3.78,1.57-6-2.36-7.51-3-14.44,4.56-19.91,2.74-2,1-4.47-1.67-5.37a42.64,42.64,0,0,0-7.1-1.22c-14.48-2.24-22.83-11.55-23.18-26.07-.08-3.31-.66-5.92-4.28-6.38-1.91.88-1.82,2.3-1.88,3.73-.91,19.43-11.18,26.83-26.74,31.78-1.52.49-3.16.59-4.68,1.08a2.82,2.82,0,0,0-2,2.74,2.65,2.65,0,0,0,2,2.71c1.53.5,3.08.92,4.6,1.42,9.52,3.12,14.57,13.14,11.42,23.85-12.73-.63-26.11,1-38-5.12-6.88-3.56-13.32-8.85-15.24-17.44-.46-2-.37-4.94-3.32-5-3.2-.06-2.67,3.09-3.17,5-1.52,5.87-3.46,11.47-7.41,16.26a19.28,19.28,0,0,1-6.41,5.12c-.33-5.71-.68-10.44,1.49-15.59,3.4-8.07,3.49-17.21,6.83-25.42,1.44-3.53,2.9-7,4.34-10.57.88-2.16,1.51-4.44-1-5.83-2.69-1.48-3.34,1.13-4.43,2.68-1.74,2.46-3.45,5-7.3,4.78V627.88c6.91-2.11,15.72.75,20.25,6.37,1.51,1.87,2.91,3.82,4.39,5.72.9,1.16,2,2.2,3.56,1.58,1.8-.72,2-2.35,1.56-4-1-3.48-2.11-6.92-3-10.42-2.42-9.37-1.88-18.73.67-28a19.75,19.75,0,0,1,6.75-10.46c1.46-1.16,3-2.25,1.91-4.43-.86-1.68-2.36-1.87-4.11-1.68-11.8,1.3-19.6-4.6-24.44-14.59-4.58-9.44-9.21-18.9-7.78-30.16.86-6.74,4.22-12,11-13.78,2.28-.59,4.64-.93,6.79-1.35.43-3.09-1.65-3.41-3.23-4-4.8-1.93-7.59-5.67-9.78-10.15-1.86-3.8-1.38-8.46-5.19-11.74-1.28-1.1-1.32-4.85,2-7,10.32-6.77,21.18-7,28.8,0a15.81,15.81,0,0,1,4,6.56c.78,2.12,2.24,4.33,4.89,3.27s2.13-3.41,1.38-5.7c-3.13-9.54-4.19-19.06-.62-28.85,1.92-5.27,5.61-8.71,9.88-11.72,1.67-1.19,3.77-1.77,3.08-4.38-.53-2-2.29-2.85-4.13-3-11.07-.76-16.94-8.45-21.69-16.94A44.59,44.59,0,0,1,187,404.14c.15-2.43-.06-4.39-4.07-5.73-3,11.28-6,22.78-15.53,30.84-3.61-11.35-.44-23.36,7.95-30.54,3.72-3.19,3.71-5.1-.8-7.38a13.75,13.75,0,0,1-6.84-7.89c-2.19-5.58-1.56-7.69,3.82-10,10.33-4.37,20.49-5.19,30.18,1.87,1.43,1,3.23,2.09,5,.71,2.14-1.69.83-3.51,0-5.36-3.18-6.95-6.16-13.91-5.64-21.9.4-6.13,2.09-11.41,7.39-15,1.46-1,2.5-2.09,2-3.93a3,3,0,0,0-2.52-2.32c-16.75-1.87-20.34-15.35-24.7-28.07-1-2.81.51-7.56-4.08-7.45-4.08.1-3,4.42-3.49,7.23-1,5.49-1.9,11.11-7.94,14.59a20.25,20.25,0,0,1-.72-10c1.28-7.89,1.88-15.9,4.26-23.62,2.75-8.95,8.9-15.08,16.23-20.18,2-1.37,4.08-2.16,3-4.88s-3.31-2.4-5.61-1.78a22.73,22.73,0,0,1-8.38.4c-7-.74-9.31-3.46-9.27-10.48.05-6.61,0-13.22,0-19.72,10.78-4.27,19.76,2.88,26.06,13a39.3,39.3,0,0,1,5.54,20.71c0,1.2,0,2.41,0,3.61,0,2.18.53,4.36,3,4.49,2.77.15,2.87-2.22,2.91-4.31.11-5.26,1.54-10.27,2.52-15.39,2.3-12,10.56-17.46,21-20.69,6.86-2.12,7.1-2.84,2.27-8.4-8.5-9.8-9.42-21.32-6.86-33.43.6-2.83,2.53-5,4.76-6.8,3.62-2.94,3.1-6.38,1.33-10.64-4.23,3.21-8,6.38-12.42,8.67-10,5.19-19.75,3.85-29.36-1-1.64-.82-2.64-2.42-3.6-4s-2.16-3.37-4.25-2.23-1.44,3-.53,4.73c3.69,7.13,3.87,14.65,2.15,22.29-1.91,8.46-6.09,15.54-14.25,22V154.78c3.79-2.95,8.92-5.85,15.77-4,1.89.51,4.79,1.41,5.81-1.41s-1.62-3.61-3.46-4.81c-9.52-6.24-15.81-14.69-17.29-26.2C166.48,103.77,168,89.18,167.38,75Zm133.7,112.4c3.58-2.42,3-5.55,2.72-8.47a138,138,0,0,1-.07-24.64,35.3,35.3,0,0,1,5.77-16.9c1.27-1.95,4-3.58,2.09-6.17s-3.74-4.58-7.83-4.11c-11.07,1.25-20.06-3.17-26.49-12.2-3.7-5.18-7.91-10.14-9.79-16.45-.45-1.5-1.37-2.38-3.13-2-1.21,1.51-1.05,3.21-1,5,.13,10.77-3.56,20-11.64,27.28-6.12,5.57-12.56,10.52-20.68,12.93-1.57.47-3.68,1-3.47,3.47.18,2.14,1.56,3.16,3.49,3.57,4.48.95,6.62,4.5,8.3,8.09,3.67,7.81,4.49,16.13,3.53,24.68a79.12,79.12,0,0,1-3.74,15.13c-1.08,3.37-.14,4.87,3.48,5.18,4.22-7.66,8.75-15,16-19.94,10.89-7.32,22.48-11.86,35.16-1.08C296.2,182.86,298.49,185.06,301.08,187.42Zm-90,248.49a3.43,3.43,0,0,0,3.91-3.13c.72-4.51,3.8-7.57,6.77-10.44,10.57-10.24,22.44-16.85,37.86-11.93,1.8.57,3.74.92,4.92-.87s.42-3.64-.88-5.46c-9.24-13.07-8.29-29.49,2.24-40.87,1.17-1.27,3.29-2.11,2.2-4.38-1.23-2.57-3.58-1.53-5.32-1.06-6,1.62-11.66.91-16.59-2.83-6.25-4.74-10.68-10.83-12.06-18.76-.45-2.57-.29-5.8-4.32-4.75-3.47.9-2.18,3.59-1.74,5.94.95,5.08,2.37,9.95,1.34,15.41-2.94,15.68-11.39,26.62-26.09,32.76-1.71.71-3.41,1.44-3.46,3.67s1.39,3.13,3.26,3.73c4.53,1.47,6.56,5,7.47,9.37,1.11,5.33,1.76,10.69.71,16.12-.83,4.33-1.66,8.66-2.52,13C208.35,433.62,208.52,435.45,211.09,435.91Zm37.29,214.31c-10.38,2-19.58-.26-26.57-8.44-5.42-6.35-6.48-14.49-7.88-22.36-.47-2.63-.42-5.25-4-5.85-2.9,2.44-1.88,5.77-2.06,8.86-.61,10.68-2,21.18-9.08,29.87-5,6.06-12,9.17-18.79,12.53-1.67.82-3.39,1.42-3.28,3.72s1.71,3,3.61,3.32c4.25.69,6.51,3.81,8.41,7.13,5,8.75,6.45,18,3.19,27.74-1.21,3.61-.88,6.37,3.74,6.09,4.69-7.91,10.8-14.1,18.62-17.76,6.71-3.14,13.91-6.53,21.84-3,2.74,1.23,4.17-.53,4.59-3.06a15.75,15.75,0,0,0,0-4.17c-1.17-10.52-.3-20.44,7.73-28.47C250,654.82,250.15,652.9,248.38,650.22ZM263.44,520c-1.05-4.36-3.74-3.72-7.18-2.28-12,5-25.88-.45-31.15-13.32a61.18,61.18,0,0,1-4.43-18.59c-.19-2.34-.71-4.61-3.81-4.2-2.82.37-2.83,2.61-2.26,4.6,1.65,5.77,0,11.34-1.87,16.43-2.63,7-5.25,14.53-12.28,18.75-4.28,2.57-8.8,4.75-13.29,6.95-1.53.75-3.07,1.35-2.78,3.34s1.91,2.66,3.52,2.77c5.08.36,7,3.93,8.79,7.94a25.69,25.69,0,0,1,2.15,9.91,47.88,47.88,0,0,1-3.53,19.38c-1.06,2.65-2.56,5.85,2,7.2,14.16-18.14,31.38-24.4,53.89-12.64C250.45,548.78,250,532.53,263.44,520ZM289.6,624.54c1.84-2.49.27-5,.09-7.54-.7-9.59-1.85-19.12,3.08-28.19,2.47-4.54,1-6.44-4.33-6.93-15.69-1.45-21.94-7.28-23.93-22.43-.33-2.52-.52-5.23-3.78-5-3.07.17-2.65,3-2.83,5.14-.61,7.07-2.95,13.2-8.69,17.84-6.56,5.3-13.8,8.8-22.25,9.77-2.08.24-4.69.41-5.14,3.28-.34,2.19,1.35,3.36,3.05,4,7.18,2.58,9.65,8.65,11.28,15.21,2.24,9,.14,17.49-3.92,25.6-.78,1.56-1.29,3.08.6,4.15s3.16.17,3.94-1.46c2.18-4.51,6.18-7.3,9.75-10.49,11.79-10.52,23.17-11.91,37-4.53C285.41,623.9,287.09,625.63,289.6,624.54Zm10.63-5.09c-2.13,1.37-1.47,3.11-1.56,4.63a45.18,45.18,0,0,1-.21,4.81c-2.55,15.75-11.71,26.38-25.89,33-1.91.89-3.81,1.64-3.84,4,0,2,1.57,2.45,3.21,2.94,15.38,4.54,20.39,15.75,13.64,30.36-.86,1.87-1.9,3.79.57,5.23s3.77-.05,4.88-1.91c4.13-6.92,11-10.67,17.78-13.88,6.08-2.9,13.19-4.1,19.07,1.75a3.18,3.18,0,0,0,4.54.34c0-5.66.16-11.47-.05-17.26-.21-6.13,1.77-11,7.07-14.32,2.8-1.76,2.94-4,1-6.76a83.16,83.16,0,0,1-8.9.83c-14.53-.15-24-4.9-25.69-19.4-.4-3.38-1.35-6.68-1.88-10.05C303.62,621.58,302.66,620.08,300.23,619.45Z"/><path class="a" d="M492,623.87c-.31-10.15-.82-20.3-.88-30.46q-.49-81.9-.78-163.79c-.13-37.12.42-74.25-.34-111.35-.32-15.55-3.62-31-6.1-46.43A128,128,0,0,0,469,229c-13-23.18-31.3-40.93-55.75-51.94-1.64-.74-3.29-1.48-4.9-2.28a12.82,12.82,0,0,1-1.8-1.53c7-.79,13.11.77,19.11,2.36,7.69,2,15.49,3.89,22.82,7.08,8.22,3.58,15,8.9,22.26,13.72,19,12.65,31.72,29.87,38.46,52,5.51,18.06,6.4,36.42,7.2,55,2.26,52.36,2,104.75,1.88,157.13q-.09,65.65-.4,131.31c0,6.79.31,16.44.31,16.44-2.35,1.47-22.43,13.21-24.83,16.18Z"/><path class="a" d="M231.62,71.77c-4.75,14.61-.62,27.4,6.76,40.41-14.72,4.54-25.31,13.67-34.76,26-.87-15.94-4.86-29.29-20-37.12,10.15-11.91,19.44-23.91,18.67-41.43,4.76,3.91,7.38,8.49,12.74,10.17C220.17,71.47,225.27,71.44,231.62,71.77Z"/><path class="a" d="M216.43,312.51c.76-3.31,1.56-6.61,2.28-9.93A36.74,36.74,0,0,0,215.15,277c8.88-6,18.47-11.2,25-21.79,4.56,14.57,13.23,23.86,27.19,29.15-10.21,10.82-11.56,24.12-12.51,38.19-12.12-6.79-23.29-14.57-37.42-9Z"/><path class="a" d="M218.21,181.64c-1.74,13.82-1.61,27.24,9.63,39.18-13.19,2.37-21.06,9.73-26,21.4-4.59-12.84-13.54-20.72-26.59-24.71,10.36-11,12.87-23.62,12.38-38.18a43.63,43.63,0,0,0,29.87,1.59Q217.85,181.3,218.21,181.64Z"/><path class="a" d="M183.52,419.16C187.81,433.49,195,444.87,209,451c-8.72,9.73-11.18,20.76-10.08,34.27-10.59-8.61-21.22-6.41-32.29-3.66-1.21-9.43,0-18.39-.51-27.29-.07-1.2.1-2.42,0-3.61-.83-7.85,0-14.8,7.49-19.8C177.63,428.21,178.8,422.53,183.52,419.16Z"/><path class="a" d="M397.14,56.09c-9.68,12.29-13.28,24.46-4.38,38.57-14.94-1.07-27.23,3.29-38.12,13.7,2-16.86,1.29-31.7-12.93-42.64,6.77-5.38,12.17-11,22-9.91C374.3,57,385.15,56.09,397.14,56.09Z"/><path class="a" d="M201.7,331.79c-8.82,11.34-6.27,22.93-2.91,35-5.81-.62-11.11-1.45-16.43-1.69s-9.93,2.78-15.85,4.15c0-5.07,0-9.79,0-14.51.07-9.23.2-18.47.26-27.71,0-2.07.19-3.91,2-5.35,4.49-3.49,7.8-8,10.95-14C184.72,318.08,189.8,327.58,201.7,331.79Z"/><path class="a" d="M282.58,74.62c8.34-4.31,13.79-10.79,18.43-18,5.78-.7,10.94-.86,14.18,5.6,1.88,3.75,6.34,5.33,10.41,7.33-.15,9.12,2.79,17.52,7.43,25.89-11.24,1.81-20,7.09-29,14.42C305.45,92.39,297.17,81.78,282.58,74.62Z"/><path class="a" d="M247.15,744.13c-1.31-13.12-3-16.87-11.77-26.86,4.38-2.78,9.16-4.87,13.12-8.27s6.76-7.82,9.66-12.5c5.59,10.55,13.73,17.17,26.3,18.8-2.08,6.3-4,12.35-2.34,19.06-6.27.81-11.9,1-17,3.48-1.61.77-3.76,1.24-4.65,2.54C257.06,745.35,252.28,744.23,247.15,744.13Z"/><path class="a" d="M353.83,167.81c-1.36-8.4-7.16-12.78-12-18.25,11.07-5.73,21.16-12,27.13-23.69,6.14,8.93,13.18,15.22,25.55,13.82-6,8.38-6.23,16.23-4.61,25.18C377.7,165.94,365.85,164.55,353.83,167.81Z"/><path class="a" d="M243,489.88c-.45-11-2.6-19.63-9.14-27.48,9.1-5.64,14.38-13.46,14.58-25.54,7.56,6.14,15.74,7.07,24.8,6.18,1.44,10.72.14,21,1.12,31.67C261.79,474.9,252.17,480.1,243,489.88Z"/><path class="a" d="M367.54,725.58c-10.32.25-19.3,2.52-27.15,10-1.64-8.83-5.4-15.68-10.31-22.73,8.43-7.25,15.42-15.79,17.17-28.09,4.76,10.39,14.61,11.67,24.17,14.37C366.5,707.48,366.82,716.44,367.54,725.58Z"/><path class="a" d="M397.93,658.82c-9.89-1-17.53,2.37-25.57,7.12-.63-9.1,2.34-18.56-7.57-25.18,13.5-5,20.85-13.85,23.24-27,6.5,4,11,7.88,10.11,16.24C397.21,639.32,397.93,648.76,397.93,658.82Z"/><path class="a" d="M352.91,616.7c-5.37.58-10.31-.09-15.24,1.18s-7,6.42-12.13,8.1c-1.11-9-1.87-17.91-10.74-23.5,6-4.53,10.1-9.52,12.54-16.4l29.6,9.66C352.91,602.54,352,609.35,352.91,616.7Z"/><path class="a" d="M166.15,622V567.41c3.5,4.72,6,9.77,10.53,13.59s10.21,5.3,16.3,7.25c-7.78,11.81-7.08,24.86-6.79,38.36C179.88,623.16,173.94,619.68,166.15,622Z"/><path class="a" d="M263.58,247.28c2.73-10.19.28-18.37-7.11-25.45,7.17-4.85,14.67-8.6,18.22-16.82,4,3.16,6.49,6.91,10.91,8.77-5.16,9-9.38,18-11.49,27.88C273.05,246.7,267,244.74,263.58,247.28Z"/><path class="a" d="M198.76,743.69c-8.63.78-15.57.91-22.94-.63,2.69-4.49,5.9-8.06,8-13.59A67.87,67.87,0,0,0,198.76,743.69Z"/><path class="a" d="M397.5,90.76c-7-6.68-7.13-14.78,0-25.63V90.76Z"/><path class="a" d="M250.41,57c4.69-1.35,8.69-.16,13.43-.26-3.39,4.54-6.22,8.31-9.49,12.67C252.93,64.91,251.71,61.05,250.41,57Z"/><path class="a" d="M168,272.31a51.08,51.08,0,0,1-.38-15.68c3.77,0,6.63,2,10.48,2.67C174.86,264.09,170.24,267.2,168,272.31Z"/><path class="a" d="M263.66,502.84c4.94-1.41,6.52-5.44,10.62-7.12-.1,4.63.7,8.84-.26,13.32C269.44,509.2,267.67,505.36,263.66,502.84Z"/><path class="a" d="M313,734.33c2.41,3.31,4.46,6.15,7,9.63a39,39,0,0,1-12.71,0C309,740.51,309.72,737.18,313,734.33Z"/><path class="a" d="M167.88,147.29V133.47L177,145Z"/><path class="a" d="M217.49,180.92c.44-.43.91-.72,1.33,0,.06.09-.39.51-.61.77Q217.85,181.3,217.49,180.92Z"/><path class="a" d="M217.37,313.54c-.51.35-1.07.5-1.41-.13-.09-.16.3-.59.47-.9Z"/><path d="M301.08,187.42c-2.59-2.36-4.88-4.56-7.3-6.62-12.68-10.78-24.27-6.24-35.16,1.08-7.27,4.89-11.8,12.28-16,19.94-3.62-.31-4.56-1.81-3.48-5.18a79.12,79.12,0,0,0,3.74-15.13c1-8.55.14-16.87-3.53-24.68-1.68-3.59-3.82-7.14-8.3-8.09-1.93-.41-3.31-1.43-3.49-3.57-.21-2.5,1.9-3,3.47-3.47,8.12-2.41,14.56-7.36,20.68-12.93,8.08-7.33,11.77-16.51,11.64-27.28,0-1.84-.19-3.54,1-5,1.76-.34,2.68.54,3.13,2,1.88,6.31,6.09,11.27,9.79,16.45,6.43,9,15.42,13.45,26.49,12.2,4.09-.47,6,1.65,7.83,4.11s-.82,4.22-2.09,6.17a35.3,35.3,0,0,0-5.77,16.9A138,138,0,0,0,303.8,179C304.1,181.87,304.66,185,301.08,187.42Zm-33.75-76.58c-3,18.78-17.35,26.62-30.61,35.66,10.57,11,11.6,24.18,10.74,38.51,15.63-14.11,31.49-22.64,51.2-7.64.14-15.75-.64-30.29,7-44.1a36.54,36.54,0,0,1-21.8-5.53C277.28,123.78,273.46,117.07,267.33,110.84Z"/><path d="M211.09,435.91c-2.57-.46-2.74-2.29-2.3-4.5.86-4.32,1.69-8.65,2.52-13,1.05-5.43.4-10.79-.71-16.12-.91-4.36-2.94-7.9-7.47-9.37-1.87-.6-3.3-1.54-3.26-3.73s1.75-3,3.46-3.67c14.7-6.14,23.15-17.08,26.09-32.76,1-5.46-.39-10.33-1.34-15.41-.44-2.35-1.73-5,1.74-5.94,4-1.05,3.87,2.18,4.32,4.75,1.38,7.93,5.81,14,12.06,18.76,4.93,3.74,10.56,4.45,16.59,2.83,1.74-.47,4.09-1.51,5.32,1.06,1.09,2.27-1,3.11-2.2,4.38-10.53,11.38-11.48,27.8-2.24,40.87,1.3,1.82,2.14,3.55.88,5.46s-3.12,1.44-4.92.87c-15.42-4.92-27.29,1.69-37.86,11.93-3,2.87-6.05,5.93-6.77,10.44A3.43,3.43,0,0,1,211.09,435.91Zm44-32.35c.31.18.73.58.89.49.76-.4.38-.88,0-1.31-6.48-13.2-4.86-26.15,3.07-39.79-11,1.61-17-4.25-24-10.38-2.73,17-12,28.45-25.74,36.7,3,4.8,5.6,9,6.53,14.08s.33,10.16,1.59,15.78C228.55,409.18,240.3,402.48,255.13,403.56Z"/><path d="M248.38,650.22c1.77,2.68,1.63,4.6,0,6.2-8,8-8.9,18-7.73,28.47a15.75,15.75,0,0,1,0,4.17c-.42,2.53-1.85,4.29-4.59,3.06-7.93-3.58-15.13-.19-21.84,3-7.82,3.66-13.93,9.85-18.62,17.76-4.62.28-5-2.48-3.74-6.09,3.26-9.76,1.84-19-3.19-27.74-1.9-3.32-4.16-6.44-8.41-7.13-1.9-.31-3.5-1-3.61-3.32s1.61-2.9,3.28-3.72c6.8-3.36,13.83-6.47,18.79-12.53,7.09-8.69,8.47-19.19,9.08-29.87.18-3.09-.84-6.42,2.06-8.86,3.57.6,3.52,3.22,4,5.85,1.4,7.87,2.46,16,7.88,22.36C228.8,650,238,652.23,248.38,650.22Zm-61.1,18.66c8.49,8.91,10.78,19.29,11.79,31.21,10.11-9.6,21.17-15.1,34.12-15.61,1.58-9.62,1.16-18.77,6.41-27-12.83-3.5-23.29-9.1-27.29-23C209.3,649.88,201.94,661.65,187.28,668.88Z"/><path d="M263.44,520c-13.42,12.58-13,28.83-12.22,46.24-22.51-11.76-39.73-5.5-53.89,12.64-4.57-1.35-3.07-4.55-2-7.2a47.88,47.88,0,0,0,3.53-19.38,25.69,25.69,0,0,0-2.15-9.91c-1.77-4-3.71-7.58-8.79-7.94-1.61-.11-3.24-.88-3.52-2.77s1.25-2.59,2.78-3.34c4.49-2.2,9-4.38,13.29-6.95,7-4.22,9.65-11.72,12.28-18.75,1.9-5.09,3.52-10.66,1.87-16.43-.57-2-.56-4.23,2.26-4.6,3.1-.41,3.62,1.86,3.81,4.2a61.18,61.18,0,0,0,4.43,18.59c5.27,12.87,19.14,18.34,31.15,13.32C259.7,516.23,262.39,515.59,263.44,520Zm-59.59,44.18c13.31-8.17,26.61-12.48,41.69-6.82-.8-11.9,2.63-22.51,6.23-33.1-21.19-3.27-22.06-2.29-33.56-20.2-3.32,13.08-13,20.1-23,26.63C203.26,542.46,203.26,542.46,203.85,564.13Z"/><path d="M289.6,624.54c-2.51,1.09-4.19-.64-6.08-1.65-13.83-7.38-25.21-6-37,4.53-3.57,3.19-7.57,6-9.75,10.49-.78,1.63-2.15,2.48-3.94,1.46s-1.38-2.59-.6-4.15c4.06-8.11,6.16-16.58,3.92-25.6-1.63-6.56-4.1-12.63-11.28-15.21-1.7-.61-3.39-1.78-3.05-4,.45-2.87,3.06-3,5.14-3.28,8.45-1,15.69-4.47,22.25-9.77,5.74-4.64,8.08-10.77,8.69-17.84.18-2.13-.24-5,2.83-5.14,3.26-.19,3.45,2.52,3.78,5,2,15.15,8.24,21,23.93,22.43,5.31.49,6.8,2.39,4.33,6.93-4.93,9.07-3.78,18.6-3.08,28.19C289.87,619.5,291.44,622.05,289.6,624.54ZM242,623.35c13.21-8.33,25.94-14.09,41.12-6.08.77-10.55-.11-20.64,4.17-30.59a40.27,40.27,0,0,1-15-3.73c-5-2.16-7.44-7-11.6-10.72-6.82,9.82-16,15.91-27.78,19.47C240.42,601,242.57,611.38,242,623.35Z"/><path d="M300.23,619.45c2.43.63,3.39,2.13,3.73,4.35.53,3.37,1.48,6.67,1.88,10.05,1.72,14.5,11.16,19.25,25.69,19.4a83.16,83.16,0,0,0,8.9-.83c1.95,2.77,1.81,5-1,6.76-5.3,3.33-7.28,8.19-7.07,14.32.21,5.79.05,11.6.05,17.26a3.18,3.18,0,0,1-4.54-.34c-5.88-5.85-13-4.65-19.07-1.75-6.74,3.21-13.65,7-17.78,13.88-1.11,1.86-2.52,3.3-4.88,1.91s-1.43-3.36-.57-5.23c6.75-14.61,1.74-25.82-13.64-30.36-1.64-.49-3.24-.92-3.21-2.94,0-2.41,1.93-3.16,3.84-4,14.18-6.61,23.34-17.24,25.89-33a45.18,45.18,0,0,0,.21-4.81C298.76,622.56,298.1,620.82,300.23,619.45Zm32.15,39.64c-14.12.12-24.72-4.87-31.48-18.61-4.19,11.91-13.48,17.76-21.69,24.92,4.37,3.6,9,5.8,11.25,10.66,2.17,4.68,3.9,9.41,3.81,15.69,10.09-7.48,20-12.64,32.9-8.71C326.16,674,328.72,666.73,332.38,659.09Z"/><path class="a" d="M267.33,110.84c6.13,6.23,9.95,12.94,16.58,16.9a36.54,36.54,0,0,0,21.8,5.53c-7.69,13.81-6.91,28.35-7,44.1-19.71-15-35.57-6.47-51.2,7.64.86-14.33-.17-27.48-10.74-38.51C250,137.46,264.36,129.62,267.33,110.84Z"/><path class="a" d="M255.13,403.56c-14.83-1.08-26.58,5.62-37.66,15.57-1.26-5.62-.69-10.78-1.59-15.78s-3.53-9.28-6.53-14.08c13.71-8.25,23-19.71,25.74-36.7,7,6.13,13,12,24,10.38-7.93,13.64-9.55,26.59-3.07,39.79C255.68,403,255.4,403.27,255.13,403.56Z"/><path class="a" d="M256,402.74c.43.43.81.91,0,1.31-.16.09-.58-.31-.89-.49C255.4,403.27,255.68,403,256,402.74Z"/><path class="a" d="M187.28,668.88c14.66-7.23,22-19,25-34.33,4,13.85,14.46,19.45,27.29,23-5.25,8.21-4.83,17.36-6.41,27-12.95.51-24,6-34.12,15.61C198.06,688.17,195.77,677.79,187.28,668.88Z"/><path class="a" d="M203.85,564.13c-.59-21.67-.59-21.67-8.64-33.49,10-6.53,19.68-13.55,23-26.63,11.5,17.91,12.37,16.93,33.56,20.2-3.6,10.59-7,21.2-6.23,33.1C230.46,551.65,217.16,556,203.85,564.13Z"/><path class="a" d="M242,623.35c.58-12-1.57-22.32-9.14-31.65,11.77-3.56,21-9.65,27.78-19.47,4.16,3.71,6.58,8.56,11.6,10.72a40.27,40.27,0,0,0,15,3.73c-4.28,10-3.4,20-4.17,30.59C267.93,609.26,255.2,615,242,623.35Z"/><path class="a" d="M332.38,659.09c-3.66,7.64-6.22,14.95-5.21,23.95-12.87-3.93-22.81,1.23-32.9,8.71.09-6.28-1.64-11-3.81-15.69-2.26-4.86-6.88-7.06-11.25-10.66,8.21-7.16,17.5-13,21.69-24.92C307.66,654.22,318.26,659.21,332.38,659.09Z"/></svg>