<svg xmlns="http://www.w3.org/2000/svg" viewBox="0 0 800 800"><defs><style>.cls-2{fill:#00f}.cls-4{fill:red}</style></defs><g style="isolation:isolate"><g id="Layer_1" data-name="Layer 1"><path class="cls-2" d="M262.6 212.94l-1.21 6.17-1.48 6.07-1.91 5.94-1.88 5.97-2.23 5.86-2.57 5.71-3.28 5.37-2.65 5.66-2.2 5.88-2.57 5.43-2.49 5.47-2.43 5.49-2.69 5.4-2.27 5.57-1.81 5.74-2.06 5.65-1.81 5.74-2.25 5.58-2.25 5.58-1.81 5.73-1.98 5.68-1.83 5.73-1.4 5.86-1.94 5.69-1.47 5.84-1.88 5.71-1.63 5.79-1.95 5.69-1.76 5.61-1.68 5.64-1.02 5.8-1.63 5.66-.88 5.81-.66 5.84-.37 5.87.41 5.88.66 5.85 1.27 5.76 1.87 5.59 2.51 5.33 2.72 5.19 2.7 5.27 3.71 4.6 3.9 4.44 4.82 3.44 4.59 3.67 5.13 2.86 5.18 2.83 5.71 1.52 5.77 1.14 5.86.35 5.87.47 5.89-.44 5.72-1.46 5.6-1.8 5.36-2.39 5.13-2.85 4.84-3.36 4.01-4.3 3.78-4.47 3.57-4.7 2.28-5.44 2.13-5.46 1.97-5.53 1.31-5.74.8-5.83.47-5.87-.14-5.88.03-5.91-.73-5.85-1.3-5.76-1.02-5.8-1.23-5.76-1.52-5.68-1.28-5.76-2.05-5.54-1.18-5.8-2.18-5.69-1.6-5.87-1.69-5.85-1.5-5.89-1.46-5.91-1.55-5.89-1.5-5.89-1.62-5.87-1.75-5.84-1.3-5.95-1.45-5.91-1.33-5.94-1.78-5.83-.95-6.04-1.84-5.82-1.21-5.97-1.97-5.78-1.37-5.94-1.23-5.97-1.65-5.86-1.43-5.92-1.82-5.81-1.45-5.92-1.91-5.78-1.65-5.9z"/><path class="cls-2" d="M259.7 212.14a159.8 159.8 0 0 1-8.56 29.62c-1.23 3-4.67 8.57-6.62 12.75-2.54 5.43-4 9.6-6.22 14.41-4 8.53-8.53 17.1-11.36 26.08s-6.64 17.7-9.66 26.66C211 340.19 205.73 359 200 377.75c-5.93 19.44-9.93 42.16-1.07 61.4 4.37 9.47 9.26 19.74 18 26 3.78 2.7 7.81 5.93 12.71 8.63a49.07 49.07 0 0 0 15.7 5.39 59.17 59.17 0 0 0 31.32-2.35c10.31-3.74 18.18-9.75 25-18.22 12.59-15.57 16.08-40.12 12.55-59.48-1.85-10.17-3.56-21.17-7.16-30.87-1.78-4.8-3-9.83-4.56-14.72-1.47-4.5-2.64-9.2-3.81-13.79-4.84-19-10.33-37.8-14.71-56.85-1.07-4.63-2.28-9.3-3.23-14-1-5.08-2.85-9.9-4-15-2.1-9.43-4.91-18.64-7.2-28-1.14-4.64-2.79-9.17-4.08-13.77-1-3.71-6.83-2.14-5.79 1.59 10.32 36.78 19.4 73.69 28.89 110.68 4.81 18.61 10.44 36.9 15.36 55.41 5.39 20.3 8.28 40.16.85 60.1-3.83 10.24-8.65 18.59-17.22 24.53s-18.38 9.84-28 9.92c-10.77.08-19.39-1.64-28.41-6.63-9.18-5.09-17.24-12.4-22.1-21.8-2.25-4.36-4.82-9.13-6-12.8a55.89 55.89 0 0 1-2.94-14.28 77.87 77.87 0 0 1 .56-16.64c0-.38.13-1 .34-2.37.18-1.19.3-2.41.57-3.58.6-2.66 1.52-5.18 2-7.88 1.68-9.49 5.26-19 8.27-28.12 2.92-8.85 4.91-18 7.87-26.82 3-9.1 6.72-18 9.71-27.07a259.6 259.6 0 0 1 10.12-25.63c1.94-4.39 4.06-8.7 6-13.08 2.18-4.9 2.72-7.7 5.21-12.26a143.64 143.64 0 0 0 11.67-28.13c1.33-4.44 2.21-9 3.1-13.53.71-3.73-5.07-5.38-5.82-1.59zM487.93 377.1l-1.21 5.89-1.34 5.75-2.1 5.53-1.43 5.73-2.12 5.5-1.54 5.71-2.39 5.41-2.06 5.52-1.88 5.6-2.53 5.34-1.77 5.64-2.4 5.39-2.33 5.42-2.15 5.49-2.38 5.4-1.65 5.69-2.23 5.46-1.99 5.55-2.3 5.44-1.67 5.67-1.21 5.79-1.71 5.63-1.87 5.62-1.15 6.02-.6 6.1-.86 6.06-.12 6.11.1 6.1.68 6.07 1.24 5.98 1.76 5.87 2.64 5.54 3.53 4.69 3.72 4.52 4.52 3.71 4.63 3.55 5.15 2.75 5.14 2.82 5.42 2.26 5.78 1.07 5.65 1.58 5.81.86 6.59.43 6.54-.93 6.42-1.18 6.1-2.29 5.48-3.48 4.25-4.27 3.25-5.09 3.09-5.28 1.65-5.9 1.25-5.99.6-6.16.59-6.16-.46-6.18-.48-6.15v-6.21l-1.62-6-1.12-6.06-1.29-6.04-1.52-5.99-1.67-5.96-2.17-5.79-2.11-5.82-2.4-5.7-2.9-5.47-2.05-5.86-2.88-5.08-2.57-5.22-2-5.49-2.51-5.25-2.67-5.18-2.61-5.21-2.47-5.28-2.19-5.4-2.15-5.41-1.91-5.51-2.38-5.32-1.96-5.48-1.8-5.54-1.98-5.48-1.23-5.71-1.49-5.74z"/><path class="cls-2" d="M485 376.3a194.9 194.9 0 0 1-6.35 23.59c-3 8.73-5.9 15.64-8.94 24.72-2.52 7.52-6.08 15.16-9.51 23.41-3.06 7.37-5.74 15-8.87 23.2-1.65 4.33-3.06 7.28-4.56 12-1.35 4.22-2 8.58-3.31 12.81a120 120 0 0 0-3.46 12.34c-.8 4.23-1 8-1.43 11.25-2.27 15.92 0 33.48 10.17 46.31 10.43 13.2 27 20.8 43.3 23.32 17.13 2.64 35.46-1 45.16-16.51a49.12 49.12 0 0 0 7.31-22c.39-3.94 1.06-7.95.85-11.91s-.73-7.93-.81-11.91c-.15-8-2.34-16.12-4.18-23.94a174.69 174.69 0 0 0-7.4-23.3c-1.54-4-3.52-7.58-5.33-11.41a20.1 20.1 0 0 1-.72-1.91c-.37-1.06-.7-2.14-1.11-3.18a57.7 57.7 0 0 0-3-5.77c-2.33-4.33-3-6.84-4.93-11.36-1.55-3.62-3.49-7.09-5.27-10.6a175.84 175.84 0 0 1-10.14-23.62c-1.63-4.69-3.31-7.88-4.76-12-1.37-3.92-2.93-7.91-4.09-11.89-1.11-3.8-1.79-7.8-2.79-11.64s-6.75-2.15-5.78 1.59c2 7.86 4.09 15.49 6.74 23.17 2.84 8.2 5.43 14.28 8.72 22.43 3.14 7.75 7.13 15 10.73 22.57 1.58 3.31 2.58 6.78 4.53 10.73 2.14 4.36 4 7.25 5.4 11.21a32.62 32.62 0 0 0 2.05 4.7 49.09 49.09 0 0 1 2.78 5.68c1.43 3.39 2.64 6.86 3.92 10.31A144.41 144.41 0 0 1 536 511c.39 2 .65 4 1.09 5.9.19.86.46 1.7.69 2.55.17.64.9 3.62.82 2.82.42 4 .17 8.11.47 12.1a77.26 77.26 0 0 1-1.73 23.16 37.45 37.45 0 0 1-10.92 19.16c-.95.87.2 0-1.26 1-1.11.75-2.26 1.49-3.42 2.17s.15.07-1.48.75a43.92 43.92 0 0 1-4.14 1.56 64.16 64.16 0 0 1-12.19 2.14 44.13 44.13 0 0 1-11.74-1c-3.79-.75-8-1.63-11.71-2.67-6.75-1.9-15.25-7.41-20.38-11.61-6.52-5.34-11.2-11.93-13.35-19.11-2.33-7.77-2.91-13.87-2.75-22.44.13-6.77.86-15.16 2.82-22 1.15-4.05 2.74-7.93 3.66-12.05a72.78 72.78 0 0 1 3.6-12.41c3.26-7.7 5.68-16.29 8.59-23 2-4.5 3-7.47 4.81-11.63 1.64-3.79 3.09-7.45 4.42-11.35.86-2.51 3.23-7.65 4.51-11.32 1.56-4.45 2.76-6.58 4.39-10.91 2.85-7.54 5.19-15.58 7.51-23.3 1.13-3.74 1.75-7.71 2.53-11.54s-5.02-5.46-5.84-1.67z"/><g style="mix-blend-mode:multiply"><path class="cls-4" d="M702.47 273.32l-2.06 1.19-3.68 4.6-3.69 4.6-3.92 4.41-4.21 4.15-4.79 3.48-4.49 3.85-4.94 3.25-5.35 2.54-5 3.11-5.34 2.57-5.75 1.48-6 2.2-6.25 1.36-6.26 1.2-6.35.52-6.35.74-6.37-.56-6.6-.09 5.93-2.07 5.73-2 5.51-2.54 5.3-2.93 5-3.4 5.18-3.19 4.65-3.92 4.05-4.53 4.17-4.21 4.08-4.31 3.49-4.81 3.74-4.61 3.46-4.82 2.91-5.18 3.56-4.77 2.91-5.18 2.77-5.24 2.92-5.16 2.88-5.19 3-5.12-.31-2.3-2-.85-1.82.78-2.46 5.63-3.11 5.22-3.14 5.2-2.74 5.44-3.31 5.09-3.19 5.17-3.17 5.19-3.7 4.83-3.86 4.68-3.59 4.91-4.36 4.27-3.85 4.59-4.55 3.9-4.87 3.47-5 3.31-5.08 3.13-5.31 2.77-5.54 2.25-5.61 2.11-6.1 1.17 4.25-4.16 4.46-3.85 3.89-4.43 4.31-4 4.16-4.16.15-2.92h-3l-4 3.74-4.07 3.7-3.79 4.04-4 3.78-4 3.8-3.62 4.33-4.8-4.59-4.82-4.17-4.48-4.52-4.25-4.75-4.31-4.68h-2.7l-.44 3 4.16 3.93 3.86 4.2 4.05 4 3.72 4.38 4.29 3.65-6.66-1.21-5.18-1.6-5.05-2-5.21-1.47-5.23-1.41-6.05-2-6-2.29-6.1-1.83-6.17-1.61-6.1-1.6-6.29-1-6.32-.74-6.33-.58-6.36-.49-6.36.45-6.36.56-6.18 1.64-6.06 2-5.95 2.31-5.43 2.81 2.59-4.59 3.17-4.59 3.48-4.37 3.07-4.66 3.45-4.38.41-2.39-1.92-1.4-1.44 1-4 4.37-3.45 4.78-3 5.11-3.46 4.77-2.95 5.11-3.13 4.81-5.09-2-5.57-2.85-5.75-2.53-5.88-2.21-6.24-.74-6.22-.69-2.06 1.19.45 2.36 1.7 1.05 6.05.14 5.95 1.35 5.53 2.56 6.38 2.2 5.8 3-6.74 1.25-6.79 2-5.45 2-5.48 1.88-5.48 1.95-5.08 2.86-5.25 2.46-5.1 2.77-4.9 3.12-4.69 3.35-4.88 3.15-4.5 3.67-4.75 3.37-4.2 4.45-4.37 4.24-4 4.58-4 4.6-3.92 4.67-3.61 4.92-3.61 4.9-3.93 4.68-3 4.45-3.05 4.32-3.36 4.13-3.44 4.09-3.9 4.61-3.82 4.7-4.67 3.87-4.61 3.89-4.78 3.7-5 3.35-5.11 3.23-5.58 2.43-5.46 2.86 3.29-4.57 3.57-4.19 3.69-4.08 3.68-4.08 3.21-4.48-.36-2.84-2.38.16-4.13 4.57-4.06 4.65-3.69 4.94-4.3 4.43-3.62 4.87-5.35-2.83-5.55-2.64-5.63-2.51-5.14-3.44-5.39-2.95-2.18.43-1.49 1.87 1.4 1.63 4.68 2.94 5 2.38 4.79 2.74 5 2.41 4.72 2.32-6.12.24-6.33-.41-6.32-.4-6.35.2-5.66-.57h-5.68l-5.68-.07-5.67-.62-5.68.47-5.67.17h-5.67l-5.69.09-5.65.55-5.79 1.2-5.77 1.13-5.84.9-5.82 1.37-5.57 2-5.6 1.88-5.38 2.28-5.07 3.07-5.38 2.48-4.92 3.26-5 3.35 3-5.53 3.53-5.11 2.88-5.52 3.8-4.91 3.89-4.83-.13-1.9-1.65-1.16-2.14.57-3.38 4.69-3.06 4.9-3.5 4.64-2.93 5-2.66 5.13-3.07 4.87-2.72 5.1v.63l-6.32-1.12-6.38-.17-6.37-.39h-6.39l-6.36-.75-6.39.48-6.38-.45-2.09 2.37 2.09 2.45V465l6.42-.1 6.43-.16 6.42.35 6.41.36 6.43.17 6.46.4-1.92 1.34-5.63 2.73-5.56 2.91-5.3 3.35-5.3 3.35-4.87 4-4.49 4.3-4.16 4.66-4 4.78-3.42 5.24-2.72 5.65 1.32 2.28.81.7 2.29-1.6 2.37-5.33 3.31-4.8 3.18-4.94 4.4-3.89 4.36-3.88 4.58-3.61 4.72-3.47 5.09-2.88L134 474l-4.11 4.47-3.59 4.9-3.39 5-3.54 4.95-3 5.32-2.68 5.46-2.37 5.6.59 1.71 1.53.86h.33l1.7-1.35 2.73-5.33 2.33-5.53 3.28-5 3.27-5 3-5.21 4.07-4.41 3.92-4.51 4.18-4.61-2.63 5.82-1.62 5.95-1.48 6-1.47 5.91.68 1.88 1.45.74.6-.19L139 496l1.41-6 1.57-5.93 2.1-5.77 2.29-5.69 2.32-5.76 6.08 1 6 .71 6.11.2 6 1.32 6.07.51 5.91 1.54 6 .89h.46l1.89-1.95-1.21-2.27-5.68-1.13-5.75-.76-5.67-1.24-5.73-.89-5.74-.73-5.53-.46 5.32-2.09 5.72-1.67 5.74-1.64 5.83-1.26 5.78-1.42 5.89-.95 5.89-.94 5.89-.92 6-.44 5.62-1 5.66-.59h5.73l6.21-1 6.25-.62 6.26-.64 6.24-.7 6.18-1.16 6.23-.87 6.17-1.11 6.26-.79 6.11-1.47 5.82-1.71-3.48 5.08-3.59 5.32-2.88 5.71-3.28 5.47-3.08 5.59.36 2.22 1.82.91.15.07 1.36-1.14 3.19-5.34 2.71-5.58 3.3-5.26 3.44-5.16 3.34-5.23 3.46-5.2 1.52-.26 1.85.25 5.26 2.11 5.18 2.36 5.24 2.23 5 2.67 5.39 1.89 5.11 2.52 5.31 2.06.87-.06 1.21-.21.73-2.3-1.41-1.9-5.76-2.27-5.71-2.41-5.88-2-5.52-2.74-5.66-2.63 5.83-.22 5.72-1 5.71-.88 5.69-1 5.74-.9 5.43-2.06 5.48-1.8 5.59-1.62 5.62-2.71 5.32-3.25 5.14-3.51 5-3.72 4.61-4.18 4.3-4.49 4.36-4.44 3.7-5 4.07-4.71 3.58-5.09 3.34-4.8 3.82-4.45 3.6-4.61 3.26-4.86 3.46-4.73 3.85-4.41 3.84-4.41 3.55-4.66 3.93-4.33 4.08-4.19 3.63-4.59 3.86-4.4 4.28-4 4.73-4.69 4.83-4.71-2.76 5.92-2 6.12-1.88 6.16-1.06 6.35-.76 6.37 1.56 2.14.26-.34 2.36-1.7.76-6.14 1.29-6.05 2.13-5.78 1.69-5.95 2.52-5.65 2.81-5.46h.49l5.7 2.37 5.46 2.9 5.68 2.47 5.38 3.07 5.42 3 5.29 3.21h1.19l1-.14 1-2.07-1.11-1.52-5.05-3.41-5.53-2.54L484 319l-5.67-2.24-5.53-3 6.43-.53 6.23.5 6.22.05 6.23-.08 6.19.78 6.19.6 6.45 1 6.51.52 6.42 1.14 6 .46 5.87 1.19 6 .22 5.88 1.18h6l5.92.93h6l6 .38 6-.32 4.28-.38-4 4.13-4.62 3.69-3.84 4.28-2.32 1.7-4.94 5.44-4.28 5.89.35 3.05 1.37.13 1.84-1.09 4.16-6.08 5.5-4.91 2.86-2.63 4.45-5.11 5.1-4.46 4.8-4.77.92.4 4.93 3.85 4.88 3.93 4.88 3.93 5 3.84 5.37 3.26 5.06 3.69 1.1.21.77-.07 1-1.86-.63-1.93-4.85-3.54-5-3.3-4.87-3.51-4.69-3.75-4.48-3.76 6 .62 6.22-.31 6.19-.08 6.17-.45 6.21-.43 6.09-1.24 5.9-2 6.06-1.45 5.48-2.59 5.37-2.75 5.6-2.33 5.26-3 4.91-3.55 4.8-3.68 4.3-4.26 4.44-4.08 4.31-4.23 4-4.56 3.42-5v-1.77zM282.63 437.75l-5.72 1.45-6.07 1.08-6 1.24-6.06 1.15-6.09 1-6.17.34-6.08 1-6.14.58-6.18.06-6.08 1-6.1.78h-6.19l-6 1-6 .71-5.94 1.07-6 .93-5.8 1.68-6 .94-5.68 2.06-5.77 1.69-5.72 1.7 5.24-3.4 5.4-3.22 5.5-3.1 6.02-2.09 5.82-2.38 5.79-2.53 6.1-1.61 6.19-1.18 6.15-1.4 6.28-.56 6.27-.46 6.26-.74 6.3.32 6.29-.18 6.29-.11 6.29.22 6.29.28 6.28.45 5.77-.06 5.78-.07zm170.85-120.91l-.54.11-4.5 3.92-4.16 4.27-4 4.38-4 4.43-4.3 4.13-3.63 4.74-3.88 4.51-4.21 4.26-3.37 4.93-3.55 4.79-4.17 4.31-3.35 4.94-3.36 4.27-3.13 4.43-3.75 4.83-3.31 5.16-4.13 4.53-3.48 5-4.11 4.54-4.55 4.21-4.57 4-4.82 3.74-5 3.51-5.59 2.48-5.61 2.59-5.6 2.69-6 1.75-6.06 1.31-6 1.53-6.16.72-6.16.64-6.35.74 6-2.63 5.44-3.3 5.19-3.67 5.08-3.79 4.85-4.11 4.67-4.32 3.57-4.36 3.4-4.46 3.79-4.16 3-4.77 3.52-4.38 3.47-4.42 3.27-5.08 3.75-4.73 3.62-4.83 3.61-4.85 4.11-4.43 4.3-4.22 4.22-4.6 4.9-3.86 4.47-4.37 5-3.7 5.26-3.36 5.28-3.29 5.32-3.24 5.48-3 5.67-2.58 5.69-2.57 5.84-2.21 6.68-2zm126.29.57h-6l-6.28-.35-6.28-.22-6.28-.34-6.27-.53-6.19-1.18-6.29-.45-6.22-.91-5.82-1.35-6-.35-5.94-.57-6-1.32-6.16-.22-6.12-.53-6.15-.12-6.15-.19-6.12.64-5.84.22 5.48-3.54 5.65-2.45 5.91-1.65 6-1.29 6.07-.8 6.11-.49 6.12.58 6.3.5 6.35.4 6.2 1.34 6.11 1.71 6.19 1.39 6 2.06 6 2 6.15 1.58 6.42 2.61 6.65 1.94z"/><path class="cls-4" d="M697.35 260.5l.15 6.48 1.99 2.03 1.39-.53.44-1.5.5-6.48h-4.47zM717.03 263.65l-.14-1.98-1.85-1.23-1.5 1.2-6.63 4.99-1.27 1.41.58 1.96 1.23.61.51-.15.04.16 5.42-2.31 3.61-4.66zM720.77 277.23l-5.14-1.7-5.34-.47-1.61.34-.43 1.48.51 1.44 1.52.76V279l8.3 2.07.93.76.99-.77.97-1.85-.7-1.98zM680.28 227.25l2.01 1.63.84-.28 1-2.48-.08.02-2.29-4.66-2.85-4.46-3.3.21.06 3.03 4.61 6.99zM686.73 227.94l1.19.23.62-.48 1.11-.79 4-5.29.68-1.2-.33-1.88-2.98.36-4.7 6.14.41 2.91zM689.01 231.24l.18 2.42 1.73.74.49-.6 5.06-1 5.03-1.1 1.5-1.43-.62-2.23-2.03-.69-5.01 1.21-5.02 1.17-1.31 1.51zM91.04 510.78l-1.43-.99-5.23-.34-4.83 2.02-.92 1.35.84 1.82 1.08.89 1.06-.37 6.98-1.09 1.97-1.24.48-2.05zM92.77 513.14l-1.08 1.68-1.84 6.37.4 2.07 1.7.48.68.35 1.59-1.72 1.43-6.48-.55-2.11-2.33-.64zM100.41 513.33l-1.31-1.5-2.37.45-.29 2.15 3.42 5.35 1.57.34 1.39-.5.9-1.65-.9-1.32-2.41-3.32zM110.23 512.37l-3.34.86-3.54 5.84.84 2.67.52.53 2.67-.8 3.63-5.78-.78-3.32zM115.76 517.56l-1.29-1.25-.03-.01-2 .51-.68 1.87 2.51 8.01 1.4 1.32 1.14-.1 1.51-2.35-2.56-8zM127.09 515.77l-6.3-4.09-2.2-.28-1.36 2.2 1.41 1.7 6.2 4.25.63.31 2.42-.88-.8-3.21z"/></g></g></g></svg>