<svg xmlns="http://www.w3.org/2000/svg" viewBox="0 0 800 800"><defs><style>.a{fill:#fca14f}.b{fill:#fff}.c{fill:#e83131}</style></defs><path d="M639.93 451c-.45 5.33-.93 12.46-1.68 19.56a127.46 127.46 0 0 1-3.79 22c-1.51 5.29-2.35 10.78-4 16a163.63 163.63 0 0 1-8.59 22.24c-3.25 6.83-7 13.34-10.84 19.84-3.66 6.23-7.49 12.38-11.51 18.39a84.67 84.67 0 0 1-7.95 10.06c-6.19 6.75-12.56 13.34-18.94 19.91-1.91 2-4.09 3.69-6.16 5.5-3.3 2.87-6.5 5.85-9.93 8.56s-7.06 5.2-10.68 7.67c-3.94 2.71-7.92 5.37-12 7.9-4.32 2.7-8.77 5.22-13.14 7.83-1.31.79-2.53 1.73-3.87 2.46a93.1 93.1 0 0 1-10.24 5.34c-9.2 3.61-18.23 7.7-27.85 10.17-3.26.84-6.44 2-9.68 2.92-1.45.41-3 .57-4.44.9-8.06 1.79-16.06 3.8-24.28 4.84-6.57.82-13.06 2.3-19.64 2.88a132.31 132.31 0 0 1-18 .2c-8.65-.43-17.31-1-25.89-2.1a175.55 175.55 0 0 1-19.18-3.87c-5.85-1.4-11.6-3.21-17.37-4.9-2.15-.63-4.26-1.4-6.38-2.13a215.08 215.08 0 0 1-23.29-9.17c-3.49-1.68-7.21-2.86-10.7-4.52a109.18 109.18 0 0 1-9.68-5.27A286.86 286.86 0 0 1 258.75 612a114.84 114.84 0 0 1-15.49-14.76c-2.24-2.63-4.95-4.86-7.27-7.43-2.54-2.8-5-5.69-7.26-8.69-3.57-4.72-7.12-9.47-10.41-14.38s-6.48-10.12-9.5-15.32c-3.43-5.9-6.69-11.91-9.91-17.94a117.25 117.25 0 0 1-5.39-11c-2.62-6.4-4.93-12.93-7.38-19.41-.72-1.91-1.63-3.76-2.18-5.72-2.12-7.55-4.23-15.12-6.12-22.74a23.82 23.82 0 0 1-.46-7 17.66 17.66 0 0 1 1.44-4.91c.4-1.06 1.26-1.3 2.21-.56a4.45 4.45 0 0 1 1.06 1.06c2.72 4.16 5.39 8.35 8.14 12.5 1 1.52 2.15 3 3.27 4.4.81 1 1.52 1 2.42-.08a75 75 0 0 1 5.56-6.12c6-5.72 12-11.34 18-17a6.66 6.66 0 0 0 .92-1.42 5.66 5.66 0 0 0-1.66-.43c-5.59.28-11.18.62-16.77.93-5.19.28-10.4.41-15.58.86-7 .61-14-.29-21.07-.07-1.51.05-3.11.07-3.84-1.79s-.73-3.37.67-4.8a25.86 25.86 0 0 1 2.78-2.76c3.74-2.83 7.49-5.64 11.34-8.31 2.68-1.85 5.49-3.52 8.32-5.16 6.18-3.57 12.35-7.15 18.62-10.56 3.3-1.8 6.8-3.24 10.22-4.84a8.67 8.67 0 0 0 1.13-.47c.91-.6 1.78-1.26 2.67-1.89-.92-.28-1.83-.58-2.75-.82-5.22-1.38-10.51-2.56-15.66-4.16-4.66-1.45-9.13-3.47-13.76-5a90.31 90.31 0 0 1-14.93-6.92c-2.41-1.31-5-2.29-7.43-3.57-3.41-1.78-3.52-4-.61-6.63a9.5 9.5 0 0 1 4.85-2.36c5.62-1 11.21-2.25 16.83-3.26 5.21-.94 10.47-1.69 15.7-2.56 2.91-.49 5.82-1 8.72-1.61a2.93 2.93 0 0 0 1.82-.9c1.31-2 2.49-4.16 3.62-6.31 3-5.82 2.67-11.82.72-17.83-1-3.1-2.41-6.07-3.38-9.18-2.17-7-4.2-14.14-1.87-21.58a12.46 12.46 0 0 1 1.15-2.82c3.93-6.25 8.77-11.35 16-14a111.41 111.41 0 0 1 15.79-4.7c6.06-1.26 12-3 18-4.77 1.37-.4 2.5-1.62 3.74-2.46s2.51-2.2 4-2.66c3.63-1.15 5.85-3.9 8.28-6.48.07-.08.1-.19.18-.25 4.7-3.56 6.62-8.89 8.87-14s1.62-10-.16-14.93a26.77 26.77 0 0 0-2.82-5.73 13 13 0 0 0-8.39-5.63c-3.3-.72-6.52-1.39-10-.83a23.56 23.56 0 0 0-12.86 6.65c-5.1 5-8.75 10.75-8.51 18.32.28 8.51 6.29 11.19 13.06 10.35a13.52 13.52 0 0 0 10.48-6.64 9.73 9.73 0 0 0 1.32-6.44c-.43-3.19-5.18-5.47-8.78-4.39-1.77.54-3.49 1.23-4.19 3.24s.32 3.46 2.5 3.22c.61-.07 1.2-.26 1.8-.38 1.14-.22 2.56-.43 3 .83a4.77 4.77 0 0 1-.2 3.69c-2.27 3.19-7.89 3.4-10.15 1.26-3.14-3-3.88-6.69-2.6-10.81 1.61-5.16 5.44-7.08 10.14-8.07a8.38 8.38 0 0 1 2.72.14c.39 0 .77.43 1.14.41 3.61-.14 5.64 2.3 7.89 4.56a8.23 8.23 0 0 1 2.14 3.95c2.17 8.22-.81 14.72-6.93 18.69-5.89 3.81-12.69 4.81-19.58 1.58-6.4-3-8.28-8.54-8.94-14.88-.76-7.31 2.52-13.36 6.42-19a20.5 20.5 0 0 1 8.08-7.22 36.23 36.23 0 0 0 3.43-2.37 19.45 19.45 0 0 1 12-2.55c4.79.4 9.45 1.11 13.81 3.51a14.6 14.6 0 0 1 6.34 6.82 101.74 101.74 0 0 1 3.47 9.76 8 8 0 0 0 .53 1c.27-.36.67-.68.78-1.08 1.86-6.47 3.84-12.9 4.76-19.61.89-6.46 1.76-12.93 2.9-19.35.59-3.28 1.77-6.45 2.67-9.68.41-1.47.78-2.94 1.16-4.41a4.93 4.93 0 0 1 .22-1.19c4.27-7.74 8-15.85 14.4-22.2 3.26-3.22 6.27-6.71 9.63-9.82a53.09 53.09 0 0 1 14.21-9.21 75.65 75.65 0 0 1 19.25-5.71 2.57 2.57 0 0 1 2.95 1.55c.5.82.22 1.43-.24 2.22-1.69 2.91-4.76 3.65-7.5 4.77a24.2 24.2 0 0 0-14.2 14.25c-1.76 4.58-2 9.17-2.18 14-.21 6.69-.52 13.48-3.58 19.7a18.09 18.09 0 0 0-1 2.57 3.09 3.09 0 0 0 0 1.09 2.85 2.85 0 0 0 1.13-.21c2.71-1.93 5.69-3.4 8.05-5.95a130.22 130.22 0 0 1 10.42-9.47c2.82-2.47 5.91-4.57 8.12-7.76 2-2.9 4.82-5.24 6.94-8.07 3.67-4.88 7-10 10.64-14.93a100.28 100.28 0 0 1 7.6-8.75 100.25 100.25 0 0 1 9.42-9.14c5.12-4.14 9.92-8.8 16.17-11.39 3.48-1.44 6.76-3.4 10.32-4.56a59.88 59.88 0 0 1 12.47-3.13 71.05 71.05 0 0 1 14.94 0c2.62.27 5.27.21 7.88.54a4 4 0 0 1 2.46 1.49c1.05 1.41.46 2.82-1.24 3.24-3 .72-6 1.23-8.92 2-8.66 2.24-16.82 5.29-23.35 11.95a32 32 0 0 0-8.64 16.17 33.8 33.8 0 0 1-5.36 11.61 5 5 0 0 0-.38 1.34 5.36 5.36 0 0 0 1.2 0c2.78-.66 5.56-1.31 8.32-2.07a5.72 5.72 0 0 0 3.17-2.49 33.2 33.2 0 0 1 6.3-6.56 48.13 48.13 0 0 1 13.75-7.8c4-1.41 7.87-3.45 12.27-3.44 3.74 0 7.49.32 11.24.25 3.54-.06 6.85.93 10.24 1.65 7.06 1.5 14.11 3.07 21.21 4.34 2.25.4 4.66-.05 7-.13.71 0 1.41-.16 2.11-.22a12.62 12.62 0 0 0 2.14-.14c5.62-1.42 11.3-2.74 15.85-6.69 1.69-1.47 3.22-3.14 5-4.43a8.2 8.2 0 0 1 3.9-1.42c1.6-.15 2.65 2.3 1.68 4.05a69.22 69.22 0 0 1-5.08 8.34c-4.65 6.19-9.5 12.29-15.42 17.31-4.11 3.48-8.75 6.33-13.12 9.5-5 3.65-10.77 5.82-16.65 7.45a53.49 53.49 0 0 1-13.22 2.06c-3.92.06-7.87-1-11.78-1.73a29.34 29.34 0 0 1-8.55-3.17c-4.3-2.28-8.84-4.1-13.26-6.14-2.94-1.36-5.76-3-8.79-4.11a21.83 21.83 0 0 0-13.51-.92c-4.22 1.17-8.5 2.15-12.68 3.45a74.34 74.34 0 0 0-8.2 3.31c-3.9 1.75-7.83 3.48-11.59 5.51-5.64 3.05-11.16 6.35-16.71 9.58-.3.17-.45.61-.68.93.44.12.91.43 1.31.36 6.76-1.24 13.37-.29 20 1.07a77.77 77.77 0 0 0 13.9 1.96 30.34 30.34 0 0 0 12.93-3 37.28 37.28 0 0 0 12.22-8.46 4.32 4.32 0 0 1 4.57-.41 3.22 3.22 0 0 1 .46 4.39 70.55 70.55 0 0 1-23.45 23.22c-7 4.32-14.63 6.74-22.42 8.48a68.63 68.63 0 0 1-23.63.88 28.77 28.77 0 0 0-7.3 0 100.16 100.16 0 0 0-19.83 4.75 30.63 30.63 0 0 0-4.8 2.66c-1.59.89-3.2 1.75-4.79 2.66a4.08 4.08 0 0 0-1.13 1c-1.12 1.45-2.18 3-3.29 4.42a11.39 11.39 0 0 0-1.95 8.15c.2 2.31 3.67 5.23 6.07 5.2a3.77 3.77 0 0 0 1.66-.67c4.73-2.8 9.41-5.67 14.17-8.41a8.51 8.51 0 0 1 3.21-.92 76.21 76.21 0 0 1 10.63-1 10.12 10.12 0 0 1 8.63 4.54c2.23 3.51 4 7.31 6.15 10.88a36.89 36.89 0 0 0 4.32 5.86 10.88 10.88 0 0 0 7.66 3.25 47.61 47.61 0 0 0 5.2.23 6.55 6.55 0 0 0 3.11-.91c2.3-1.52 4.35-3.4 6.69-4.84a56.53 56.53 0 0 1 7.33-3.7c8.16-3.5 18 1.27 21.37 7.72a21.42 21.42 0 0 1 2.17 5 13.68 13.68 0 0 0 4.31 6.91 7.06 7.06 0 0 0 5.07 1.76c4.18 0 8.36 0 12.54.06a22.36 22.36 0 0 1 9.16 2.22c3.21 1.5 5.31 4.1 7.14 6.94a9.16 9.16 0 0 1 1 7.38c-.71 2.92-.73 3.13 1.9 4.16 3.52 1.39 5.3 4.43 7.23 7.23a53.84 53.84 0 0 1 4.62 8.6c.6 1.33.48 3 .61 4.51.05.7-.15 1.42-.14 2.13a7.55 7.55 0 0 0 .28 1.4 7.1 7.1 0 0 0 1.31-1c1.14-1.44 2.16-3 3.29-4.41a24.7 24.7 0 0 1 13.59-8.76c3-.78 6-1.91 9.3-1.58 5.42.55 10 2.13 14 6.43 3.19 3.48 4.59 7.41 5.63 11.62.42 1.68-.11 3.64-.42 5.43a36.46 36.46 0 0 1-4 12.14 23.15 23.15 0 0 1-7.61 7.76 2.76 2.76 0 0 1-1.08.57c-5.5.76-11 2.36-16.28-1.14-4.11-2.75-6.38-6.44-6.47-11.43 0-.92-.12-1.83-.2-2.75a11.47 11.47 0 0 1 4.74-10.94 17.92 17.92 0 0 1 11.06-3.55 8.5 8.5 0 0 1 8.31 5.68 11.61 11.61 0 0 1-1.37 12.11 4.48 4.48 0 0 1-5.39 1.64c-2.37-.75-4.26-2-4.71-4.68-.34-2 1-3.05 3-2.53l.29.11c1 .36 2.11 1.24 2.92-.24a3.78 3.78 0 0 0-1.19-4.13c-2.74-1.65-5.57-1.23-8.18.17-2.22 1.2-3.91 3-3.69 5.86a35 35 0 0 0 .43 4.23c.84 4.08 5.2 6.34 8.73 6.1 4.46-.29 8.33-1.56 10.73-5.4 3.13-5 5.34-10.35 4-16.49-1-4.47-4-7.35-8-9-2.88-1.21-6-1.8-9.25-.54-1.38.53-3.09.2-4.52.66a21.66 21.66 0 0 0-10.23 6.8 38 38 0 0 0-6.74 11.18c-1.4 3.83-2.39 7.82-1.55 12a12.66 12.66 0 0 1 .26 2.12 13.73 13.73 0 0 0 2.43 7.75 32.58 32.58 0 0 1 2.15 3c2.58 4.62 5 9.32 7.67 13.91a64.25 64.25 0 0 0 4.54 7.03c4.69 6.2 5.49 13 3.37 20.27-.66 2.25-1.37 4.5-2.25 6.67-1.59 3.91-3.68 7.48-7.48 9.73a4.82 4.82 0 0 0-1.37 1.21c-2.92 4.11-7.48 5.56-11.85 7.2s-8.28 3.39-11.71 6.36a10.79 10.79 0 0 0-3.61 8.78c.08 3.51-.11 6.9-1.69 10.14-.7 1.43-.88 3.14-1.64 4.53a22.25 22.25 0 0 1-10.24 9.29 26.85 26.85 0 0 1-8.31 3c-2.22.29-3.52 1.69-4.06 4.22a27.79 27.79 0 0 1-8.11 14.37c-4.14 4-9 6.9-13.77 10-4.45 2.88-9.12 5.42-13.47 8.44-5.19 3.6-10 7.55-13.3 13.25a48.72 48.72 0 0 1-10.15 12.92 74.56 74.56 0 0 1-9.43 6.67c-2.92 1.81-6.07 3.27-9.14 4.85a12 12 0 0 1-2.55 1c-2.86.7-5.83 1-8.58 2-6.11 2.21-12.28 1.24-18.47.91-2.84-.15-5.71 0-8.37-1.29a42.18 42.18 0 0 1-10.68-7.39c-5.13-4.89-8.53-10.93-12.56-16.54-2.37-3.3-4.11-7-6.52-10.33-4.81-6.54-11.29-11-18.53-14.62-5.45-2.7-11.22-4.15-17.11-5.4a14.25 14.25 0 0 1-8.41-4.6c-2.5-3-2.7-2.9-5.71-1.24-7.93 4.36-16.53 6.81-25.27 8.86-2.39.56-4.78 1.09-7.16 1.67-.88.21-1.65.55-.7 1.61 3.48 3.86 6.75 7.94 10.48 11.54 4.1 3.95 8.58 7.52 13 11.17q3.63 3 7.48 5.8c5 3.62 10.06 7.27 15.26 10.66 5 3.28 10.22 6.34 15.43 9.35a133.47 133.47 0 0 0 21.1 9.64c2.49.91 4.94 1.95 7.48 2.67s4.95 1.06 7.44 1.51q5.73 1.05 11.46 2a37.28 37.28 0 0 0 17.82-1.28c4-1.28 8-2.48 12-3.44a29.13 29.13 0 0 1 14-.14 15.23 15.23 0 0 1 7.6 4.88c1.14 1.27 1.49 1.26 2-.28 2.06-6.15 6.79-8.49 12.77-9.1a22.84 22.84 0 0 1 2.44-.29c2.38 0 4.69.22 6.37 2.28a9.13 9.13 0 0 0 1.67 1.33c.77.58 1.16.33 1.62-.5 1.18-2.13 2.44-4.22 3.8-6.24 2.91-4.3 9.92-5.48 14.1-3.89a6.74 6.74 0 0 1 2 .8c2.52 2.19 4.66 1.15 6.75-.65 3.86-3.33 8.59-3.94 13.4-4.39 5-.46 9.94-1.08 14.35-3.66a27.39 27.39 0 0 0 3.81-3c.27-.23.55-.89.43-1.05a2.09 2.09 0 0 0-1.2-.67 10.93 10.93 0 0 0-2.14 0 82.91 82.91 0 0 1-14.61-.1c-2.47-.3-4.93.22-7.52-.46a9.87 9.87 0 0 1-5.55-3.89 18.92 18.92 0 0 1-3.53-15c.27-1.64.59-3 2.18-4.09 1-.67 1.29-2.28 2.12-3.28A33 33 0 0 1 445 505.83c2.72-.87 5.31-2.11 8-3.15 3.32-1.3 6.72-2.43 10-3.86 6.73-2.95 13.46-6 18.5-11.59a113.2 113.2 0 0 0 7.2-9.49c3.12-4.31 6.39-8.42 11-11.32a79.64 79.64 0 0 1 13.83-7 76.05 76.05 0 0 0 12.7-6c5.27-3.33 9.89-7.55 12.9-13.21 1-1.94 1-1.87-1.26-2.4-2.81-.68-5.42-1.7-7.2-4.24-1.11-1.57-2.71-2.81-3.68-4.43-2.47-4.14-2.14-8.7-1.13-13.13.88-3.85 2.25-7.6 3.46-11.37a13.18 13.18 0 0 1 1.2-2.48c1.84-3.29 3.76-6.54 5.55-9.86a74.54 74.54 0 0 0 6-13.68 61.08 61.08 0 0 0 2.64-21.75c-.39-6.51-.64-13.11-1.93-19.47-1.57-7.76-2.39-15.74-5.68-23.12-1.15-2.59-1.77-5.42-2.73-8.1-1.73-4.8-3.36-9.64-5.34-14.34-2.37-5.65-5.74-10.8-8.94-16-2.93-4.78-5.81-9.6-9-14.22a67.34 67.34 0 0 0-8.82-10.5c-1.52-1.47-2.8-3.2-4.27-4.75q-5-5.2-10-10.37a22.66 22.66 0 0 0-4.06-3.67c-3.54-2.18-5.93-5.54-8.95-8.24a50.37 50.37 0 0 0-6.84-5.12 31.07 31.07 0 0 1-7.38-6.71 11.4 11.4 0 0 1-.93-1.15c-.3-.48-.86-1.26-.7-1.48.43-.6 1.16-1.35 1.8-1.38a31.79 31.79 0 0 1 6.4.24c7.89 1.31 15.37 4 22.72 7.09 3.76 1.58 7.59 3 11.25 4.8 5.12 2.5 10.15 5.2 15.14 8 5.49 3 10.94 6.08 16.32 9.29 2.62 1.56 5 3.5 7.54 5.22 9.79 6.68 19.3 13.71 27.6 22.22a220.9 220.9 0 0 1 23.12 27.2c3.22 4.6 5.47 9.69 8.68 14.25a121.71 121.71 0 0 1 7.29 11.63c2.43 4.46 4.53 9.1 6.67 13.7 2.24 4.81 4.56 9.6 6.5 14.53 1.82 4.64 3.2 9.47 4.79 14.21.64 1.93 1.48 3.82 2 5.79 2.13 8.6 4.23 17.21 6.2 25.84 1.46 6.37 2.77 12.77 4 19.17.59 3 .93 6.06 1.26 9.1.56 5.17 1.19 10.34 1.48 15.53.22 4.37.03 8.77.03 14.94zM336.44 229.57l-.72.49a3.6 3.6 0 0 0-.81.4A147.87 147.87 0 0 0 321 244.11c-4.45 5-7.76 10.64-11.57 16-.92 1.29-.75 1.64 1 1.88a27.59 27.59 0 0 0 4 .22c2.26 0 2.25-.2 2.49-2.4a25 25 0 0 1 1.48-7.35c2.58-5.88 7.12-10.38 11.41-15 2.13-2.3 4.37-4.51 6.56-6.76.22-.2.44-.4.65-.61l.43-.69zm3.81 5.05c.79 0 1.58 0 2.36-.14 5.13-.7 10.25-1.49 15.39-2.13 2.5-.31 5.08-.11 7.54-.6 5.38-1.06 10.71-2.4 16.06-3.64 3.67-.85 6.33-3.12 8.51-6.08.72-1 1.5-1.92 2.2-2.92s1.13-1.8 1.69-2.7c-1.09-.45-2.18-.92-3.3-1.33a4.83 4.83 0 0 0-1.21-.12 95.71 95.71 0 0 1-10.05-.91c-4.37-.83-8.43.3-12.23 1.86a106.87 106.87 0 0 0-15.48 7.81c-4.51 2.78-8.1 6.78-11.41 10.95l-.07.41zm295.38 207.59c0-12.43-1.56-22.41-3.1-32.39-.57-3.63-1.38-7.22-2.11-10.82-1.07-5.29-2-10.63-3.32-15.85-1.72-6.71-3.8-13.33-5.73-20a154.47 154.47 0 0 0-9.74-26c-4.17-8.4-8.28-16.81-13.26-24.77-2.59-4.15-5-8.42-7.5-12.62-.89-1.49-1.79-3-2.74-4.42-7.43-11.33-16.74-21.08-26.35-30.49-5.09-5-10.84-9.28-16.48-13.65a126.54 126.54 0 0 0-18.11-12c-8.29-4.4-16.42-9.08-24.72-13.44-3.33-1.75-7-2.93-10.41-4.41a131.85 131.85 0 0 0-18.27-6.8 9.94 9.94 0 0 0-1.81-.21 1.72 1.72 0 0 0-.59.12 2 2 0 0 0 .36.71c2.54 2.21 5.11 4.39 7.66 6.59 2.37 2.06 4.75 4.13 7.1 6.21s4.79 4 6.94 6.27c3.17 3.3 5.81 7.12 10 9.37a5.35 5.35 0 0 1 1.45 1.13c2.59 2.87 5.19 5.73 7.7 8.68 2 2.32 3.79 4.77 5.7 7.14 4 5 8 10.06 11 15.81 2.67 5.16 5.49 10.25 8 15.48s5 10.47 7.07 15.84c1.59 4 2.63 8.31 3.89 12.48a214.68 214.68 0 0 1 6.34 27.66c.63 3.84.45 7.71.53 11.58.21 9.4-1.57 18.49-3.86 27.5A121.38 121.38 0 0 0 547.5 407c-.58 7 5.21 14.55 10.63 15.79a56.21 56.21 0 0 1 7.45 2.76c3.22 1.26 6.36 2.78 9.67 3.78a91.46 91.46 0 0 1 18.2 7.86c2.18 1.22 4 3.05 6.11 4.47 3.2 2.18 5.27 5.36 7.66 8.27 1.34 1.63 2.75 3.23 4 4.95 2.35 3.32 4.59 6.72 6.86 10.09a9.72 9.72 0 0 1 2 5.36c0 1.47-.9 2-2.17 1.31a4.71 4.71 0 0 1-1.12-1c-2.4-2.76-4.76-5.56-7.18-8.3a12.51 12.51 0 0 0-2-1.81c-2.45-1.83-5.06-3.48-7.38-5.46a56.4 56.4 0 0 0-15.23-8.94 94.44 94.44 0 0 0-30.31-7.13c-4-.26-4.09-.34-5.39 3.39a26 26 0 0 1-11.73 14 111.63 111.63 0 0 1-11.57 5.5 30.57 30.57 0 0 1-4.64 1.48c-2.65.7-5.4 1.11-8 2a41.71 41.71 0 0 0-12.69 7.2 34 34 0 0 0-9.59 11.71c-2 4.33-3.57 8.89-5.3 13.36a21.83 21.83 0 0 1-11.33 11.86c-6.34 3.06-12.84 5.77-19.24 8.68a15.87 15.87 0 0 0-8 7.29 3.09 3.09 0 0 0 .22 3.69c2.56 3 5.57 5.45 9.61 6.14a111.94 111.94 0 0 0 11.48 1.72c4 .27 7.22 2.4 10.39 4.18a20.07 20.07 0 0 1 8.8 9.42c1.66 3.76 2.33 7.34.59 11.18a5.53 5.53 0 0 0-.22 1.37 4.13 4.13 0 0 0 1.32-.27c4.15-2.58 8.49-4.33 13.51-3.47a2.49 2.49 0 0 0 .61 0c4.83-.71 8.58 2.08 12.62 3.9.27.12.63.32.71.55a3.24 3.24 0 0 1 .2 1.69c-.06.24-.87.45-1.29.38-1-.15-2-.55-3-.71-4.8-.79-9.42-1.14-13.5 2.58a53.15 53.15 0 0 1-12.45 8.75 7.15 7.15 0 0 1-2.24.91c-9.64.84-18-1.58-24-9.69a78.52 78.52 0 0 1-5.39-8.18c-.82-1.48-1.57-1.48-2.88-1a58.65 58.65 0 0 1-5.72 2c-3 .84-6.07 1.52-9.1 2.3a2.62 2.62 0 0 0-1.05.59c-1.3 1.15-2.58 2.32-3.86 3.49a2.08 2.08 0 0 0-.48 2.94c3.2 5.9 5.6 12.29 10.39 17.21 3.83 3.94 7.51 8.09 11.75 11.54a119.56 119.56 0 0 0 16.56 11.41c1.85 1.05 3.53 2.4 5.41 3.39 4.25 2.21 8.65 4.12 12.83 6.46a63.23 63.23 0 0 0 13.72 5.93 8.68 8.68 0 0 1 3.68 2.59c.82.9 1.69 2.21.79 3.6s-1.69 2.77-3.8 2.47c-1.8-.25-3.68 0-5.48-.24-4.73-.65-9.5-.72-14.23-1.59s-9.73-.71-14.53-1.49c-5.5-.89-10.92-2.35-16.38-3.52-1.78-.39-3.59-.71-5.39-1-3-.48-6.22-.43-9-1.47-5.45-2-11.13-3.14-16.61-5.07a124.24 124.24 0 0 1-25.21-12.12c-5.55-3.5-10.38-7.89-15.48-12-3.72-3-7.15-6.35-11.46-8.5a42.92 42.92 0 0 0-6.26-2.38c-3.88-1.21-7.91-.86-11.85-.57-6.18.46-12.28 1.78-18.54 1.65-3.88-.09-7.72 0-11.48-1.26-1.73-.59-3.56-.87-5.35-1.29-5.93-1.4-11.87-2.78-17.44-5.35-2.41-1.11-4.84-2.17-7.21-3.37-5.45-2.75-11-5.37-16.26-8.43-5.91-3.42-11.67-7.12-17.33-11a133.48 133.48 0 0 1-10.86-8.42c-4.28-3.6-8.39-7.41-12.57-11.14-2.8-2.49-5.64-4.93-8.38-7.5-2.9-2.72-5.78-5.47-8.51-8.36-3-3.18-6-6.4-8.69-9.82-3-3.83-5.84-7.86-8.62-11.89-5.25-7.62-11-14.88-15.61-23-.22-.38-.74-.6-1.12-.89a4.4 4.4 0 0 0-.2 1.58c1.09 4.35 2.06 8.75 3.39 13A233.24 233.24 0 0 0 197.7 518c3.38 7.31 6.83 14.6 10.48 21.78 2 3.91 4.39 7.59 6.66 11.35 2.11 3.49 4.14 7 6.45 10.39 3.3 4.79 6.75 9.47 10.26 14.1q3.32 4.39 7 8.5 4.41 4.88 9.14 9.49c4.82 4.69 9.63 9.4 14.7 13.82 4.23 3.68 8.77 7 13.27 10.36 2.94 2.2 6.21 4 9 6.3 5 4.14 10.91 6.9 16.65 9.63 10.65 5.09 21.37 10.15 32.74 13.61 3.89 1.18 7.67 2.75 11.58 3.89 5.87 1.72 11.76 3.43 17.73 4.76a151.39 151.39 0 0 0 17.77 3.07c7.08.71 14.16 1.51 21.31 1.69a196.51 196.51 0 0 0 26.58-.72c5.07-.57 10.12-1.32 15.17-2 2-.27 4.07-.4 6-.84 3.78-.86 7.46-2.2 11.27-2.79 8.13-1.26 15.72-4.33 23.5-6.73C491.19 646 497 643.09 503 641c7.52-2.65 13.73-7.58 20.66-11.25 4.59-2.43 8.93-5.34 13.29-8.15 4.11-2.65 8.19-5.37 12.14-8.24 2.38-1.74 4.49-3.86 6.74-5.77 4.73-4 9.56-8 14.18-12.11 3-2.72 5.81-5.74 8.66-8.67 3.06-3.13 6.23-6.18 9.08-9.49a128.11 128.11 0 0 0 12.82-17.9c6.23-10.42 12.78-20.63 17.91-31.72a179.61 179.61 0 0 0 10.17-29.48c1.67-6.3 2.7-12.78 3.86-19.2a113.12 113.12 0 0 0 1.66-12.14c.67-8.99 1.08-17.96 1.46-24.67zM424.91 324.38c-1.7.3-3.12.52-4.51.81-.76.16-1.5.44-2.25.67.62.46 1.22.92 1.84 1.37s1.51 1 2.26 1.56c3.91 2.71 6.69 6.54 9.78 10a5.7 5.7 0 0 1 1.23 1.74c1.3 3.74 2.58 7.49 3.71 11.29a9.34 9.34 0 0 1 0 3.34c-.33 4.21-2.85 7.57-4.53 11.25-1.9 4.18-5.57 6.77-9.25 9.12-7.56 4.84-15.74 8-24.86 8.33a9.51 9.51 0 0 0-1.49.27c-3.78.84-7.53 1.79-11.33 2.47-4.1.74-8.27 1.1-12.37 1.85a76.8 76.8 0 0 0-11 2.58c-5.28 1.81-10.49 3.9-15.57 6.21-6.24 2.84-12.18 6.24-17.13 11.11-1.6 1.57-3.18 3.17-4.76 4.76s-1.44 1.6.35 3a32.87 32.87 0 0 1 3.12 2.47c2.49 2.52 5.23 3.54 8.65 2 .73-.33 1.61-.31 2.37-.58 2.82-1 5.4-2.43 7.13-5a15.38 15.38 0 0 1 6.91-5.78c4.16-1.76 8.61-2.45 12.78-.6a61.12 61.12 0 0 0 13.45 3.89 22.52 22.52 0 0 0 8.48.38 15.94 15.94 0 0 0 11.38-8.44c2.95-5.41 7-10 12.81-12.74a25.52 25.52 0 0 1 5.23-1.49c2.08-.47 4.2-1.22 6.27-1.13 4.77.2 9.52.84 14.28 1.29 3.88.37 7.53-.52 10-3.56 2.57-3.21 4.72-6.66 5.24-11.13.63-5.33-1-9.76-3.33-14.27a28.16 28.16 0 0 1-2.8-7.72 10.42 10.42 0 0 1 1.11-5.55 27.71 27.71 0 0 1 3.43-5.43c3.29-4.38 1.63-7.09-1.42-9.13-5.23-3.5-10.47-7.18-17-8-2.85-.31-5.66-.82-8.21-1.21zM430.15 473c-.27 1.6-.18 3.37-.87 4.76-2.08 4.16-4.34 8.17-8.16 11.2-6.27 5-13.37 8.57-20.23 12.55-1.19.69-2.21 1.21-2.74 2.62-.27.72-1.3 1.67-1.95 1.64-2.36-.12-3.76 1.36-5.23 2.71-1.65 1.52-3.18 3.16-4.73 4.79-2.17 2.29-4.39 4.54-6.43 7-3.17 3.72-6.08 7.68-9.34 11.32a30.54 30.54 0 0 1-8.13 6.34c-4.63 2.58-9.75 3.51-14.67 5.12a14.47 14.47 0 0 1-4.84.43 37 37 0 0 1-11.61-2.24c-.93-.34-2.23-.09-2.92-.65a63.49 63.49 0 0 1-7.6-7c-2.73-3.12-5.05-6.6-7.49-10-1.62-2.22-3-4.59-4.75-6.75-2.57-3.26-4.21-7.18-7.59-9.9-3.15-2.53-6-5.48-8.86-8.31-3.63-3.54-8.4-4.89-12.89-6.79a15 15 0 0 0-3.48-1c-2.29-.34-4.63-.37-6.89-.84-4.39-.92-6.17-3.25-6.39-7.61a10.31 10.31 0 0 1 1.61-5.8 33.24 33.24 0 0 1 6.84-8.55c.62-.54 1.35-1.08.63-2-1.19-1.54-2.4-3.06-3.61-4.58-.68-.87-1.26-.61-2 0a50.6 50.6 0 0 0-10.4 12 18.21 18.21 0 0 0-3 9.81c0 6.39 3 11.75 10.11 13.42 2.87.68 5.85 1 8.67 1.83a64.53 64.53 0 0 1 17.61 8.31c7.22 4.85 12.6 11.22 17.12 18.48 2.7 4.33 5.21 8.79 8.18 12.93 4.8 6.68 11.2 11.16 19.45 12.63 2 .36 4.07.3 6.06.71 4.56.93 9.06.15 13.32-1.07a86.9 86.9 0 0 0 17.54-7.07c1.78-1 3.43-2.15 5.16-3.2 5.52-3.36 8.93-8.65 12.22-13.9a50 50 0 0 1 14.41-15.19c5.58-3.76 11.25-7.41 17.11-10.69a43.57 43.57 0 0 0 8.46-5.9c1.2-1.1 2.08-2.56 3.34-3.56a14.94 14.94 0 0 0 4.6-6.73 28.62 28.62 0 0 0 1-18c-.75-2.74-1.4-5.71-3-7.95-1.95-2.79-4.83-4.93-7.29-7.38-.69-.69-1.21-.55-1.74.17-.37.49-.8.93-1.16 1.42-1.25 1.68-1.32 1.78.34 3.22a15.9 15.9 0 0 1 4.23 7c1.16 3.25 1.36 6.82 1.98 10.25zm-40.66 20.91c-.53-.8-.84-1.33-1.2-1.8-.87-1.13-1.82-2.21-2.65-3.37Q380 480.91 374.32 473c-1.36-1.91-2.51-4-4-5.8q-4-5.11-8.35-10c-3.84-4.36-7.52-8.9-11.76-12.84A253.75 253.75 0 0 0 324 422.44a246.52 246.52 0 0 0-21.15-13.94c-7.81-4.37-15.59-8.81-23.42-13.15-3.91-2.17-7.89-4.23-11.86-6.29a52.63 52.63 0 0 0-5.55-2.58c-4.8-1.79-9.64-3.45-14.48-5.13a2.25 2.25 0 0 0-.88.07c.09.36.07.8.28 1.05 1.25 1.47 2.52 2.93 3.84 4.33 3.16 3.36 6.51 6.47 11 8 1.84.62 3.67 1.23 5.51 1.83a8.65 8.65 0 0 1 2.3.77c2.94 2.14 5.92 4.26 8.68 6.62 4.7 4 7.81 9.35 11.38 14.27s7.06 10.16 10.58 15.25a32.88 32.88 0 0 0 15.83 12 35.81 35.81 0 0 0 10.65 2.46 45.5 45.5 0 0 1 11.69 2 41 41 0 0 1 20.6 14.11c3.94 5.18 7.84 10.42 11.41 15.86a34.88 34.88 0 0 0 12.75 12 51 51 0 0 0 5 2.22c.3.13.74-.12 1.33-.25zm-72-198.48a37.17 37.17 0 0 0-15.75 3.33c-5.11 2.3-7.86 6.71-7 12.3a40.14 40.14 0 0 0 2.64 8.38c1.44 3.63 2.09 7.19.59 11a74 74 0 0 0-2.88 8.38 34.42 34.42 0 0 0-.87 6.95 3.83 3.83 0 0 0 3 4.13c1.75.51 3.51 1 5.27 1.48 3.82 1.09 7.66 2.1 11.44 3.3a9.15 9.15 0 0 1 5.07 4.62c1.6 2.85 1.76 6 2.2 9.15a13.06 13.06 0 0 0 9.06 11.24 15 15 0 0 1 3.4 1.91 28.15 28.15 0 0 1 7.56 8.33c1.12 1.84 1.92 2.74 4.53 1.34a16.93 16.93 0 0 1 3.46-1.23c.93-.26 1.42-.6 1.07-1.71-.55-1.74-1-3.52-1.47-5.29-1.6-5.8-5.74-10.28-8.24-15.61a3.84 3.84 0 0 0-.57-.72c-4.31-5.17-8.69-10.36-14.49-13.84-4.8-2.88-7.48-7.39-10.66-11.58a11.17 11.17 0 0 1-1.75-2.86c-2.95-8.1-3.62-16.07 1.27-23.8a42 42 0 0 1 9.44-11 32.94 32.94 0 0 1 12.34-5.8c3.65-.95 7.35-1.55 11.17-.74s7.62 1.4 11.44 2.05a10.6 10.6 0 0 0 1.78 0 5.85 5.85 0 0 0-.65-1.86c-3.43-4.12-7.32-7.47-12.67-9.07-3.84-1.16-7-.28-10.09 1.76-1.61 1.07-3 2.42-4.56 3.59a8 8 0 0 1-5.05 1.93c-3.32-.06-6.66-.03-10.01-.03zm161.3 42.06a17.43 17.43 0 0 0-1.28-10.18c-.68-1.38-1.37-2.75-2.14-4.07-1.33-2.27-2.48-4.74-5.51-5.28-.36-.06-.64-.47-1-.69-3.2-2.05-6.62-3-10.41-2a9.55 9.55 0 0 1-1.75.49c-5.26.29-9.77 2.58-14.16 5.2-.72.43-1.11 1 0 1.53 1.84.88 3.71 1.7 5.48 2.7 1 .55 1.57.27 2.47-.2a34 34 0 0 1 7-3 10.24 10.24 0 0 1 10.27 3.31c2.29 2.45 2.89 5.86 3.33 9 .61 4.34-.09 8.74-.56 13.11-.71 6.58-1.19 13.13 0 19.78a37.93 37.93 0 0 0 7.45 17.2c1.45 1.83 2.83 3.72 4.23 5.59s2.52 4 4.23 5.56a16.11 16.11 0 0 1 5.37 15.15c-.53 3.65-1.84 7.2-5.59 8.95-4.62 2.15-9.23 4.32-14 6.22a39.07 39.07 0 0 0-12.93 7.94c-2.89 2.78-5.58 5.66-5.6 10.11 0 2-.7 4-.75 6.06a22.27 22.27 0 0 1-2.89 9.88c-.87 1.63-2.33 3.49-4 4.07-3.35 1.21-4 3.27-3.29 6.3a6.68 6.68 0 0 1 .09.91c.12 1.31.55 1.9 2.13 1.72 2.56-.29 4.59-1.56 6.73-2.76 7.64-4.28 9.93-10 9.39-18a16 16 0 0 1 6.59-14.64 35.06 35.06 0 0 1 6.45-3.4c3.15-1.44 6.32-2.85 9.54-4.1a26.52 26.52 0 0 0 15.06-14.84 20.92 20.92 0 0 0 1.94-11.91c-.85-5.41-3.73-9.65-7-13.72s-7.34-7.39-10.17-11.79a64.25 64.25 0 0 1-5.06-8.65 23.83 23.83 0 0 1-2.25-8.53 51.13 51.13 0 0 1 1.17-12.14c.89-3.6 1.69-7.14 1.44-10.85zm-254.68-2.67l.35-.05v-2.14c.17-5 2.4-8.78 6.94-11a79.55 79.55 0 0 1 19.26-6.28c2.49-.52 5-.82 7.52-1.4a40.4 40.4 0 0 0 8.22-2.34c9.2-4.36 17.58-9.87 24.06-18 2.18-2.74 4-5.88 7.18-7.79 2.26-1.36 4.42-2.9 6.65-4.31a19.94 19.94 0 0 1 9.77-3.19c4.54-.22 8.6 1.51 12.67 3.1a16.36 16.36 0 0 1 3.94 2.33c2.2 1.68 2.1 1.67 4.37.43 1.17-.64 1.35-1.19.78-2.38-3.85-8.11-10.48-12.27-19.13-13.33a24.39 24.39 0 0 0-14.23 2.14c-5.63 2.75-10.82 5.84-14.33 11a95.75 95.75 0 0 1-7.78 9.79 42.57 42.57 0 0 1-13.52 9.83c-4.76 2.31-10 3.53-15.14 4.76-7 1.67-14.31 2.39-20.86 5.75a9 9 0 0 1-1.18.35 40.77 40.77 0 0 0-4.51 1.73c-3.15 1.62-5.41 4.24-7.73 6.86a13.34 13.34 0 0 0-3.51 8.57 31 31 0 0 0 2.75 14 79.6 79.6 0 0 1 5.08 16.65c1 4.87-.51 9.49-2.28 14a34.59 34.59 0 0 0-1 3.65 32.14 32.14 0 0 0 3.93-.1c.84-.12 2.07-.42 2.37-1 2.49-5 4.65-10.16 3.9-15.8-.86-6.45-2.36-12.82-3.53-19.24-.41-2.15-.67-4.36-.99-6.56zM342 337.2c-.57 6.94 1.69 9.64 3.8 12.91.94 1.46 1.32 1.31 2.15-.3 1.34-2.63 2.74-5.22 4.14-7.81a37.83 37.83 0 0 0 2.78-5.1 28.32 28.32 0 0 1 8-11.36 13.09 13.09 0 0 1 3.25-2.22 32.25 32.25 0 0 1 15.36-3.14c3.55.18 5.1 2.12 3.68 5.43-1.72 4-3.78 7.85-5.7 11.77-.54 1.09-1.17 2.15-1.66 3.26-.81 1.84-.79 2 1.31 2.22a49.26 49.26 0 0 0 5.16.11c7.38.07 13.79-2.29 18.95-7.67 1.41-1.47 2.66-3.09 4.12-4.51a9.49 9.49 0 0 0 1.75-10.52c-2.23-4.17-5.24-7.8-10-9.4a75.48 75.48 0 0 0-20.31-3.75 41.41 41.41 0 0 0-14.7 2.35c-3.55 1.12-7.27 2.15-9.89 5.15-2.21 2.53-4.48 5-6.62 7.58-3.74 4.54-6.13 9.62-5.57 15zm4.44 155.55a68.82 68.82 0 0 0 21.44-4.65c.81-.33.89-.79.49-1.37-1.27-1.85-2.56-3.69-3.95-5.45a2.12 2.12 0 0 0-1.61-.4c-7.38.7-14.75 1.59-22.14 2.09a48.72 48.72 0 0 1-10.93-.44 66.09 66.09 0 0 1-12.74-3.18c-5.5-2.08-11-4.28-16-7.55a81.92 81.92 0 0 1-16.9-14.8c-4.22-4.85-7.33-10.47-10.57-16a78.19 78.19 0 0 1-4.25-8.79c-1.45-3.36-2.59-6.86-4.08-10.21a53.47 53.47 0 0 1-4.49-17.29c-.13-1.57 0-3.38-1.68-4.38a125.58 125.58 0 0 0-5.87-3.3c-.21-.11-1 .3-1 .43a48.78 48.78 0 0 0 .78 7c1.5 6.45 3.29 12.83 4.79 19.27a76.44 76.44 0 0 0 8.27 20.38 67.92 67.92 0 0 1 3.94 7.25c3.41 8.16 9.49 14.12 15.9 19.8 2.75 2.43 5.85 4.46 8.58 6.9a29.33 29.33 0 0 0 7.22 4.44c4.05 1.91 8.23 3.52 12.33 5.32 3.45 1.52 6.85 3.09 10.71 3.35 1.31.09 2.58.63 3.88.83a43.17 43.17 0 0 0 5.76.72c4.02.11 8.08.03 12.13.03zm-143.72.45a5.41 5.41 0 0 0 1.37-.9c1.68-2.19 4.16-3.2 6.47-4.48a69.07 69.07 0 0 0 7.53-4.55c6.78-4.95 14.24-8.74 21.47-12.91 6.51-3.76 13.26-7.12 19.42-11.47 1.25-.88 2.56-1.68 3.85-2.49.7-.43 1-.89.54-1.74-1.19-2.13-2.26-4.32-3.48-6.44a1.63 1.63 0 0 0-1.35-.65 30.68 30.68 0 0 0-4.73 1.12c-5.41 1.85-11 2.68-16.63 3.69a6.61 6.61 0 0 0-2.85 1c-2.91 2.21-5.75 4.52-8.52 6.9-4.31 3.7-9.18 6.69-13 11s-8.32 8.37-12.44 12.6c-2.19 2.25-2.1 2.32-.49 5 .63 1.05 1.18 2.14 1.82 3.18a8 8 0 0 0 1.03 1.14zM436 396.08c-2.08-.24-2.65-.43-3.16 2.58-1.52 8.93-5.22 17.08-9 25.19a86.56 86.56 0 0 1-8.63 14.73c-2.6 3.51-5.42 6.9-7.71 10.6-3 4.82-6.94 8.8-10.89 12.66a66.21 66.21 0 0 1-14.31 10.73c-.95.53-1.18 1.12-.55 1.93 1.25 1.6 2.64 3.1 3.87 4.72a1.86 1.86 0 0 0 2.67.52c.55-.28 1.05-.64 1.58-.95 7.61-4.53 14.05-10.5 19.93-17a137.71 137.71 0 0 0 12.12-15.71 123.06 123.06 0 0 0 9.87-17.17c4-8.73 6.37-18.05 8.28-27.46.3-1.49.44-3 .65-4.52zm29.66-222v.48c1.43 0 2.86.05 4.29 0a6.09 6.09 0 0 1 5.58 2.87c.67 1 .29 1.28-.64 1.35-2.33.19-4.66.37-7 .52-4.07.26-8.16.35-12.21.78-5.05.53-10.07 1.32-15.11 2-.4.06-.74.5-1.12.76a5.6 5.6 0 0 0 .91.78c3.22 1.72 6.42 3.49 9.7 5.09 2 1 4.08 2.13 6.23 2.42a27.81 27.81 0 0 0 8.83-.09c6.25-1.21 12.18-3.38 16.87-8 2.53-2.49 5-5.09 7.48-7.59 1.3-1.29 2.7-2.49 4.08-3.69.75-.65.48-.93-.3-1.18s-1.7-.74-2.59-.93c-6.37-1.36-12.73-2.73-19.12-4a39 39 0 0 0-16.07.68 42.63 42.63 0 0 0-20 10.12c-.28.26-.51.57-.77.86a3.43 3.43 0 0 0 1.3.21 74.19 74.19 0 0 1 14.14-2.28c5.22-.24 10.37-.74 15.52-1.15zm-286 272.14a7.3 7.3 0 0 0 1.18-.24 142.66 142.66 0 0 1 16.33-5.55 35.2 35.2 0 0 0 4.26-1.68 19 19 0 0 1 2.54-1 130.14 130.14 0 0 0 18.03-5.3 14 14 0 0 1 2.65-.72c2.69-.52 5.4-.92 8.08-1.5 2.28-.49 4.52-1.15 6.77-1.76 3.43-.93 6.84-1.92 10.28-2.79 1.27-.32 1.33-.92 1-2-1.11-3.47-2.39-6.91-2.63-10.6-.06-.95-.58-.94-1.21-.7-1.24.46-2.44 1-3.68 1.46-6 2-12.07 3.74-17.88 6.15-7.52 3.13-14.94 6.56-22.15 10.34-6.8 3.55-13.23 7.67-19.81 11.67a43.5 43.5 0 0 0-3.92 2.85 1 1 0 0 0-.22.8 1.74 1.74 0 0 0 .33.58zM334 199.31c0-.61.08-1.22.09-1.83a7.14 7.14 0 0 0-.08-.91 3.82 3.82 0 0 0-1 .46 68.19 68.19 0 0 1-5.13 4.67c-3.7 2.7-7.51 5.26-11.36 7.74-7.07 4.55-11.6 10.69-12.49 19.23-.06.6-.26 1.18-.35 1.79q-1.41 9.06-2.76 18.12c-.05.32.21.67.32 1a3.94 3.94 0 0 0 1-.47 13.12 13.12 0 0 0 1.23-1.34q3.78-4.36 7.57-8.75c2.12-2.46 4.24-4.93 6.32-7.42a20.52 20.52 0 0 1 1.56-2.26c4.69-4.29 7.24-10 10.49-15.29 2.85-4.52 3.91-9.56 4.59-14.74zm72.38 370.61a10.56 10.56 0 0 0 0 7.35 5.7 5.7 0 0 0 .57 1.13c2.8 4.32 6.78 7.6 10.7 10.86 2 1.65 4.05 3.16 6.16 4.63 3.95 2.75 7.68 5.92 11.87 8.25 8.19 4.54 16.59 8.72 24.94 13a42.87 42.87 0 0 0 5.36 2c.24.08.57-.11.86-.18-.09-.26-.11-.65-.28-.79-1.06-.87-2.38-1.36-3.48-2.17-4.63-3.43-10.15-5.51-14.32-9.62-4.35-4.27-9.49-7.68-13.48-12.35-2.18-2.55-4.54-5-6.64-7.58-4.26-5.32-8.37-10.77-12.64-16.08a7.82 7.82 0 0 0-3.31-2.53c-.81-.27-2 .65-3 1-1.24.4-2.57.57-3 2.18-.08.24-.18.57-.3.9zM292.89 324.58c-.87-2.78-1.61-5.21-2.45-7.61-.07-.22-.93-.44-1.17-.28a7.36 7.36 0 0 0-1.49 1.51c-3.45 4.17-7 8.28-10.28 12.55-2.25 2.88-4.32 5.91-6.28 9-1.85 2.93-3.3 6.11-5.19 9a72.15 72.15 0 0 0-7.75 16.25c-.84 2.5-1.44 5.08-2.18 7.62-.45 1.54-.94 3.07-1.41 4.61 1.59.67 3.18 1.36 4.78 2 .95.39 1.92.69 2.86 1.09.77.33 1.12.08 1.26-.7a11.38 11.38 0 0 0 .36-1.48c.18-4.5 2.82-8.21 4.05-12.39 1-3.45 3-6.6 4.6-9.88 1.33-2.75 2.62-5.53 4-8.22.85-1.61 1.92-3.1 2.9-4.63.55-.86 1.1-1.72 1.69-2.55 1.81-2.47 3.81-4.83 5.32-7.47a22.42 22.42 0 0 1 4.64-6 11 11 0 0 0 1.74-2.42zm91.26 250.06c-2.69-.06-4.15 1.67-3.49 4.88a7.56 7.56 0 0 0 1.07 3.15c2.54 3.18 4.87 6.7 8 9.21 4.65 3.73 9.9 6.73 14.93 10a37.83 37.83 0 0 0 5.3 3c4.47 2 9.11 3.54 13.5 5.67 10.47 5.07 21.48 8.5 32.71 11.35a5.23 5.23 0 0 0 1.42 0c-.34-.33-.61-.83-1-1-2.15-.81-4.41-1.34-6.47-2.32-3.83-1.81-7.48-4-11.32-5.8-4.49-2.11-9.26-3.67-13.62-6a102.44 102.44 0 0 1-13.57-8.59 39.22 39.22 0 0 1-7-7.59c-3.29-4.27-6.44-8.6-10.5-12.24-2.78-2.54-5.93-3.44-9.96-3.72zM367.91 199.2c2.59-1.1 5.37-1.89 7.73-3.35a65 65 0 0 1 13.34-6 51.75 51.75 0 0 0 13.93-6.74c3.73-2.69 7.52-5.33 9.4-9.76 1-2.33 1.75-4.77 2.56-7.18a9.12 9.12 0 0 0 .24-1.74 8.78 8.78 0 0 0-2 0c-4.24 1.05-8.51 2-12.7 3.29a39.61 39.61 0 0 0-7.89 3.22 49.11 49.11 0 0 0-7.47 5.27 28.68 28.68 0 0 0-4.58 4.89c-3.59 4.8-6.41 10.16-10.94 14.25a16.28 16.28 0 0 0-2.17 2.92 1.07 1.07 0 0 0 0 .77c.03.13.36.12.55.16zm91.61 109.6v.13h2.14c2.82-.11 3.4-1 2.41-3.59a10.12 10.12 0 0 0-7-6.31 47.69 47.69 0 0 0-17-1.52c-4.68.36-10.2-2.4-12.11-6.53-1-2.2-1.85-4.5-2.76-6.75-1.54-3.85-3.9-7-8-8.3-4.29-1.4-14 2-16.58 5.75-.22.32-.26 1.14 0 1.33a9.73 9.73 0 0 0 3 2c.48.17 1.33-.7 2-1.11s1.17-.83 1.79-1.16c3-1.58 8.25-.78 10.14 1.82a23.66 23.66 0 0 1 3.67 6.64 25.21 25.21 0 0 0 5.89 9.53 11.71 11.71 0 0 0 8.83 3.63c3.56 0 7.11-.41 10.67-.48a10.08 10.08 0 0 1 8.06 3.64 2.75 2.75 0 0 0 2.74 1.29 15.13 15.13 0 0 1 2.11-.01zm-221.11 87v-.16a59.28 59.28 0 0 1 6.11.06c1.29.13 2 .15 1.75-1.42a2.28 2.28 0 0 1 .12-1.48c.71-1 .25-1.6-.43-2.35-2.51-2.8-5-5.67-7.43-8.5a1.58 1.58 0 0 0-2.1-.47 27.86 27.86 0 0 1-6.38 1.91c-7 1-13.94 1.71-20.9 2.61-8.68 1.12-17.35 2.31-26 3.48a5.43 5.43 0 0 0-1.48.36 3.33 3.33 0 0 0-.81.71c.32.18.63.52 1 .54 4.77.32 9.55.58 14.32.9 6.29.43 12.6.8 18.88 1.37 7.77.72 15.56 1.64 23.35 2.44zm114-127.23c5 .36 6.62 1.12 9.3 4.86a57.69 57.69 0 0 1 4.06 6.45 25.92 25.92 0 0 0 6.89 8.12 11.19 11.19 0 0 0 6.13 2.52q3.8.32 7.58.7c3 .3 5.91 1 7.85 3.57a7.05 7.05 0 0 1 1.31 7.2c-.3.77.05 1.29.87 1.65 2.37 1 2.75 1.92 3.79-1.06.17-.47.61-.85.75-1.33.57-2 1.49-3.95.48-6.18-1.82-4.07-4.54-7-9.09-7.78-2.6-.46-5.22-.81-7.83-1.21-4.09-.63-8.28-1.55-11.09-4.65-3-3.34-6.12-6.84-7.37-11.47a16.07 16.07 0 0 0-2.11-4.4c-2.22-3.43-5.62-4.52-9.51-4.35-5.51.24-10.05 3-14.54 5.82-1 .65-2.05 1.31-3.09 2s-1.69 1.26-.42 2.29a4.4 4.4 0 0 1 .4.46c2.08 2.49 2 2.44 4.63.53a17.6 17.6 0 0 1 11.06-3.74zm-27.6 54c.75 3 1.54 6.61 2.54 10.12a14.08 14.08 0 0 0 1.81 3.48 5.28 5.28 0 0 0 1.3 1.06 6.19 6.19 0 0 0 1-1.47 61.27 61.27 0 0 1 5.8-12.75 41.51 41.51 0 0 1 10.35-11.45c2.32-1.8 4.86-3.31 7.27-5 .3-.2.66-.63.62-.91s-.47-.61-.81-.74a10.2 10.2 0 0 0-1.48-.29 35.14 35.14 0 0 0-14.55.25 16.19 16.19 0 0 0-10.43 6.43c-2.23 3.13-2.58 6.97-3.37 11.27zm56.39 36.61a37.93 37.93 0 0 0 13.91-2.94c2.94-1.18 5.12-3.25 7.35-5.32a4.75 4.75 0 0 0 .7-1.3 7.91 7.91 0 0 0-1.46.1c-5.33 1.28-10.62 3-16.2 2.19a89.66 89.66 0 0 1-11.07-2.1c-2.22-.61-4.15-2.19-6.32-3a16.06 16.06 0 0 1-6.82-5c-.89-1.12-1.47-.89-2 .09-1.48 2.56-3 5.12-4.32 7.75-1.09 2.13-.88 3.08 1.37 4.11 2.95 1.36 6 2.83 9.15 3.34 5.81.9 11.56 2.58 15.76 2.08zm-3.59 22.91c1-.15 2-.29 3-.46 7.43-1.24 14.86-2.5 22.3-3.72 3.13-.51 3.21-.56 3.7-3.67.15-1 0-1.33-1.11-.95a39.13 39.13 0 0 1-16.82 2.17 87.75 87.75 0 0 1-18.09-2.9C362 370 354.31 365.51 347.1 360c-4.7-3.56-7-8.65-10.05-13.3a14.52 14.52 0 0 1-1.16-3.08c-.57 1.11-1.14 2.21-1.68 3.33a9.27 9.27 0 0 1-.58 1.41c-1.06 1.48-.61 2.56.65 3.69 5.1 4.54 10.09 9.17 13.5 15.23a2.94 2.94 0 0 0 1.79 1.47c3.89.45 7.42 1.94 10.95 3.43 5.18 2.17 10.16 4.72 14.22 8.7a3.16 3.16 0 0 0 2.92 1.21zm43.22-46.65c1.78 6.63 2.81 12.84.45 19.19a50.89 50.89 0 0 0-1.66 7.1c-.16.73 0 1.19.93.78 4-1.79 7.36-4.32 8.82-8.72.35-1 1.13-2.14 1-3.1-.54-3.4-1.45-6.74-3.92-9.37-1.7-1.83-3.45-3.65-5.57-5.88zm-4.26 12.18c-.09-.91-.14-1.83-.29-2.73a3.61 3.61 0 0 0-.54-1 4 4 0 0 0-.85.72 122.25 122.25 0 0 0-11.18 21.24 5.4 5.4 0 0 0-.23 1.09 3.76 3.76 0 0 0 1.08-.18c8.06-3.86 11.44-10.63 12.06-19.14zm65.33 219.22c-6-.29-10.17-2.62-13.25-6.69a12.87 12.87 0 0 1-2-5.31 11.23 11.23 0 0 1 1.29-8c.2-.34-.16-1-.26-1.54-.37.24-.91.39-1.08.73-3.37 6.73-2.76 12.79 2.13 18.41a24.11 24.11 0 0 0 5.06 4.4 14.15 14.15 0 0 0 5.1 1.89c3.13.55 5.15-1.45 6.87-3.71a36.5 36.5 0 0 0 2.37-3.83c-.56.1-2.88 2.21-3.41 2.42-1.17.46-2.3 1-2.82 1.23zm-.5-10.18c0-2.34-3-6.54-5.21-7.4-1.21-.48-2-.06-1.95 1.35a24.07 24.07 0 0 0 .62 4.78 4.32 4.32 0 0 0 4.1 3.46c2.13.27 2.49-.03 2.44-2.19zm-104-229c-.37 0-.77-.18-1-.06a34.6 34.6 0 0 0-5.15 2.52c-2.81 1.89-2.9 2.84-1.11 5.75 1.15 1.87 1.83 1.95 2.92.11 1.45-2.46 2.72-5 4.06-7.53a8.16 8.16 0 0 0 .32-.83zm-198 118.31c-.55-.19-.85-.4-1-.32a3.35 3.35 0 0 0-.68.72c.22.12.49.39.66.34a4.46 4.46 0 0 0 1.02-.78zm120.75-194.28l.12-.22h-.19zm.68-1.14c.07-.07.19-.14.19-.21s-.12-.14-.18-.21l-.2.31z"/><path class="a" d="M635.63 442.21c-.38 6.71-.79 15.68-1.44 24.64a113.12 113.12 0 0 1-1.66 12.15c-1.16 6.42-2.19 12.9-3.86 19.2a179.61 179.61 0 0 1-10.17 29.48c-5.13 11.09-11.68 21.3-17.91 31.72a128.11 128.11 0 0 1-12.82 17.9c-2.85 3.31-6 6.36-9.08 9.49-2.85 2.93-5.62 6-8.66 8.67-4.62 4.15-9.45 8.07-14.18 12.11-2.25 1.91-4.36 4-6.74 5.77-4 2.87-8 5.59-12.14 8.24-4.36 2.81-8.7 5.72-13.29 8.15-6.93 3.67-13.14 8.6-20.66 11.25-6 2.12-11.83 5-17.93 6.92-7.78 2.4-15.37 5.47-23.5 6.73-3.81.59-7.49 1.93-11.27 2.79-2 .44-4 .57-6 .84-5 .66-10.1 1.41-15.17 2a196.51 196.51 0 0 1-26.58.72c-7.15-.18-14.23-1-21.31-1.69a151.39 151.39 0 0 1-17.77-3.07c-6-1.33-11.86-3-17.73-4.76-3.91-1.14-7.69-2.71-11.58-3.89-11.37-3.46-22.09-8.52-32.74-13.61-5.74-2.73-11.62-5.49-16.65-9.63-2.82-2.33-6.09-4.1-9-6.3-4.5-3.36-9-6.68-13.27-10.36-5.07-4.42-9.88-9.13-14.7-13.82q-4.73-4.61-9.14-9.49-3.69-4.1-7-8.5c-3.51-4.63-7-9.31-10.26-14.1-2.31-3.36-4.34-6.9-6.45-10.39-2.27-3.76-4.68-7.44-6.66-11.35-3.65-7.18-7.1-14.47-10.48-21.78a233.24 233.24 0 0 1-10.94-28.91c-1.33-4.28-2.3-8.68-3.39-13a4.4 4.4 0 0 1 .2-1.58c.38.29.9.51 1.12.89 4.57 8.09 10.36 15.35 15.61 23 2.78 4 5.58 8.06 8.62 11.89 2.72 3.42 5.69 6.64 8.69 9.82 2.73 2.89 5.61 5.64 8.51 8.36 2.74 2.57 5.58 5 8.38 7.5 4.18 3.73 8.29 7.54 12.57 11.14a133.48 133.48 0 0 0 10.8 8.33c5.66 3.83 11.42 7.53 17.33 11 5.28 3.06 10.81 5.68 16.26 8.43 2.37 1.2 4.8 2.26 7.21 3.37 5.57 2.57 11.51 4 17.44 5.35 1.79.42 3.62.7 5.35 1.29 3.76 1.26 7.6 1.17 11.48 1.26 6.26.13 12.36-1.19 18.54-1.65 3.94-.29 8-.64 11.85.57a42.92 42.92 0 0 1 6.26 2.38c4.31 2.15 7.74 5.54 11.46 8.5 5.1 4.07 9.93 8.46 15.48 12a124.24 124.24 0 0 0 25.21 12.12c5.48 1.93 11.16 3 16.61 5.07 2.79 1 6 1 9 1.47 1.8.29 3.61.61 5.39 1 5.46 1.17 10.88 2.63 16.38 3.52 4.8.78 9.76.61 14.53 1.49s9.5.94 14.23 1.59c1.8.25 3.68 0 5.48.24 2.11.3 2.92-1.12 3.8-2.47s0-2.7-.79-3.6a8.68 8.68 0 0 0-3.68-2.59 63.23 63.23 0 0 1-13.73-6.02c-4.18-2.34-8.58-4.25-12.83-6.46-1.88-1-3.56-2.34-5.41-3.39a119.56 119.56 0 0 1-16.56-11.41c-4.24-3.45-7.92-7.6-11.75-11.54-4.79-4.92-7.19-11.31-10.39-17.21a2.08 2.08 0 0 1 .48-2.94c1.28-1.17 2.56-2.34 3.86-3.49a2.62 2.62 0 0 1 1.05-.59c3-.78 6.09-1.46 9.1-2.3a58.65 58.65 0 0 0 5.72-2c1.31-.51 2.06-.51 2.88 1a78.52 78.52 0 0 0 5.39 8.18c6 8.11 14.37 10.53 24 9.69a7.15 7.15 0 0 0 2.24-.91 53.15 53.15 0 0 0 12.45-8.75c4.08-3.72 8.7-3.37 13.5-2.58 1 .16 2 .56 3 .71.42.07 1.23-.14 1.29-.38a3.24 3.24 0 0 0-.2-1.69c-.08-.23-.44-.43-.71-.55-4-1.82-7.79-4.61-12.62-3.9a2.49 2.49 0 0 1-.61 0c-5-.86-9.36.89-13.51 3.47a4.13 4.13 0 0 1-1.32.27 5.53 5.53 0 0 1 .22-1.37c1.74-3.84 1.07-7.42-.59-11.18a20.07 20.07 0 0 0-8.8-9.42c-3.17-1.78-6.4-3.91-10.39-4.18a111.94 111.94 0 0 1-11.48-1.72c-4-.69-7.05-3.12-9.61-6.14a3.09 3.09 0 0 1-.22-3.69 15.87 15.87 0 0 1 8-7.29c6.4-2.91 12.9-5.62 19.24-8.68a21.83 21.83 0 0 0 11.33-11.86c1.73-4.47 3.27-9 5.3-13.36a34 34 0 0 1 9.59-11.71 41.71 41.71 0 0 1 12.69-7.2c2.58-.92 5.33-1.33 8-2a30.57 30.57 0 0 0 4.64-1.48 111.63 111.63 0 0 0 11.57-5.53 26 26 0 0 0 11.73-14c1.3-3.73 1.35-3.65 5.39-3.39a94.44 94.44 0 0 1 30.25 7.11 56.4 56.4 0 0 1 15.17 8.86c2.32 2 4.93 3.63 7.38 5.46a12.51 12.51 0 0 1 2 1.81c2.42 2.74 4.78 5.54 7.18 8.3a4.71 4.71 0 0 0 1.12 1c1.27.73 2.19.16 2.17-1.31a9.72 9.72 0 0 0-2-5.36c-2.27-3.37-4.51-6.77-6.86-10.09-1.22-1.72-2.63-3.32-4-4.95-2.39-2.91-4.46-6.09-7.66-8.27-2.09-1.42-3.93-3.25-6.11-4.47a91.46 91.46 0 0 0-18.2-7.86c-3.31-1-6.45-2.52-9.67-3.78a56.21 56.21 0 0 0-7.45-2.76c-5.42-1.24-11.21-8.83-10.63-15.79a121.38 121.38 0 0 1 3.77-20.05c2.29-9 4.07-18.1 3.86-27.5-.08-3.87.1-7.74-.53-11.58a214.68 214.68 0 0 0-6.34-27.66c-1.26-4.17-2.3-8.43-3.89-12.48-2.12-5.37-4.55-10.64-7.07-15.84s-5.36-10.32-8-15.48c-3-5.75-7-10.79-11-15.81-1.91-2.37-3.73-4.82-5.7-7.14-2.51-2.95-5.11-5.81-7.7-8.68a5.35 5.35 0 0 0-1.45-1.13c-4.15-2.25-6.79-6.07-10-9.37-2.15-2.24-4.6-4.2-6.94-6.27s-4.73-4.15-7.1-6.21c-2.55-2.2-5.12-4.38-7.66-6.59a2 2 0 0 1-.36-.71 1.72 1.72 0 0 1 .59-.12 9.94 9.94 0 0 1 1.81.21 131.85 131.85 0 0 1 18.27 6.8c3.46 1.48 7.08 2.66 10.41 4.41 8.3 4.36 16.43 9 24.72 13.44a126.54 126.54 0 0 1 18.11 12c5.64 4.37 11.39 8.68 16.48 13.65 9.61 9.41 18.92 19.16 26.35 30.49 1 1.45 1.85 2.93 2.74 4.42 2.51 4.2 4.91 8.47 7.5 12.62 5 8 9.09 16.37 13.26 24.77a154.47 154.47 0 0 1 9.74 26c1.93 6.66 4 13.28 5.73 20 1.34 5.22 2.25 10.56 3.32 15.85.73 3.6 1.54 7.19 2.11 10.82 1.6 10.01 3.21 19.99 3.16 32.42zm-84.42 108.56c2.08.11 4.63.14 7.16.41a11.15 11.15 0 0 1 6.87 3c1.44 1.39 1.56 2.42.38 4a6.14 6.14 0 0 1-1 1.11c-.68.54-1.4 1.23-.72 2a2.84 2.84 0 0 0 2.15.66 5.74 5.74 0 0 0 5.4-4.7 6.64 6.64 0 0 0-2-6.7c-1.78-1.43-4-2.27-6.13-3.32a13.53 13.53 0 0 1-2.23-.92 6.19 6.19 0 0 0-4.34-1.09 8.72 8.72 0 0 1-3-.18c-4.12-1.46-8.57-1.58-12.58-3.59-2.36-1.19-4.54-2.44-6-4.59a21.92 21.92 0 0 1-3.36-6.8 14.63 14.63 0 0 1 .07-7.8 21.92 21.92 0 0 1 6.29-9.25 75.48 75.48 0 0 1 19-11.43 89.22 89.22 0 0 1 15-5.14c3.55-.86 7-2 10.66-2.53a85.63 85.63 0 0 1 20.72-.86 80.36 80.36 0 0 1 8.11.68c3.44.67 7 1.41 9.14 4.68a19.9 19.9 0 0 0 1.57 2.27c1 1.11 2.21.83 2.44-.62a5.91 5.91 0 0 0-.28-3 44.51 44.51 0 0 0-13.12-18.32 12.84 12.84 0 0 1-1.7-2.08 7.33 7.33 0 0 0-.87-1.21c-3.05-2.51-6.09-5-9.22-7.45-4.2-3.23-8.29-6.64-12.75-9.45-8.38-5.28-17.67-8.68-26.85-12.27a8.78 8.78 0 0 0-2.67-.43c-1.31-.08-4.08 1.72-4.37 2.75s.56 1.82 3.12 2.68a1.67 1.67 0 0 0 .3.08c1.25.28 1.18.75.35 1.6-1.62 1.66-3.2 3.39-4.71 5.16-3 3.56-4.65 7.82-6.26 12.16a28.7 28.7 0 0 0-.76 19.17c.68 2.18.65 2.5-1.52 2.67a24 24 0 0 0-8.41 2.45c-2.11 1-4.27 1.9-6.28 3.08-2.79 1.63-5.44 3.52-8.19 5.23-4.8 3-9.2 6.28-12.06 11.34-3.53 6.24-5.76 12.51-2.89 19.76 2.12 5.36 4.57 10.24 10.39 12.41 1.43.53 2.86 1.07 4.24 1.7 4.55 2 9.45 2.64 14.28 3 5.35.32 10.76-.18 16.63-.32z"/><path class="b" d="M424.91 324.38c2.55.39 5.36.9 8.18 1.24 6.56.79 11.8 4.47 17 8 3.05 2 4.71 4.75 1.42 9.13a27.71 27.71 0 0 0-3.43 5.43 10.42 10.42 0 0 0-1.08 5.52 28.16 28.16 0 0 0 2.82 7.71c2.31 4.51 4 8.94 3.33 14.27-.52 4.47-2.67 7.92-5.24 11.13-2.44 3-6.09 3.93-10 3.56-4.76-.45-9.51-1.09-14.28-1.29-2.07-.09-4.19.66-6.27 1.13a25.52 25.52 0 0 0-5.23 1.49c-5.76 2.71-9.86 7.33-12.81 12.74a15.94 15.94 0 0 1-11.32 8.44 22.52 22.52 0 0 1-8.48-.38 61.12 61.12 0 0 1-13.52-3.89c-4.17-1.85-8.62-1.16-12.78.6a15.38 15.38 0 0 0-6.91 5.78c-1.73 2.59-4.31 4-7.13 5-.76.27-1.64.25-2.37.58-3.42 1.57-6.16.55-8.65-2a32.87 32.87 0 0 0-3.12-2.47c-1.79-1.39-1.81-1.52-.35-3s3.16-3.19 4.76-4.76c4.95-4.87 10.89-8.27 17.13-11.11 5.08-2.31 10.29-4.4 15.57-6.21a76.8 76.8 0 0 1 11-2.58c4.1-.75 8.27-1.11 12.37-1.85 3.8-.68 7.55-1.63 11.33-2.47a9.51 9.51 0 0 1 1.49-.27c9.12-.3 17.3-3.49 24.86-8.33 3.68-2.35 7.35-4.94 9.25-9.12 1.68-3.68 4.2-7 4.53-11.25a9.34 9.34 0 0 0 0-3.34c-1.13-3.8-2.41-7.55-3.71-11.29a5.7 5.7 0 0 0-1.23-1.74c-3.09-3.51-5.87-7.34-9.78-10-.75-.52-1.51-1-2.26-1.56s-1.22-.91-1.84-1.37c.75-.23 1.49-.51 2.25-.67 1.38-.28 2.8-.5 4.5-.8z"/><path class="c" d="M430.15 473c-.62-3.46-.82-7-2-10.21a15.9 15.9 0 0 0-4.23-7c-1.66-1.44-1.59-1.54-.34-3.22.36-.49.79-.93 1.16-1.42.53-.72 1.05-.86 1.74-.17 2.46 2.45 5.34 4.59 7.29 7.38 1.57 2.24 2.22 5.21 3 7.95a28.62 28.62 0 0 1-1 18 14.94 14.94 0 0 1-4.6 6.73c-1.26 1-2.14 2.46-3.34 3.56a43.57 43.57 0 0 1-8.46 5.9c-5.86 3.28-11.53 6.93-17.11 10.69a50 50 0 0 0-14.41 15.19c-3.29 5.25-6.7 10.54-12.22 13.9-1.73 1-3.38 2.24-5.16 3.2a86.9 86.9 0 0 1-17.54 7.07c-4.26 1.22-8.76 2-13.32 1.07-2-.41-4.06-.35-6.06-.71-8.25-1.47-14.65-6-19.45-12.63-3-4.14-5.48-8.6-8.18-12.93-4.52-7.26-9.9-13.63-17.12-18.48a64.53 64.53 0 0 0-17.61-8.31c-2.82-.85-5.8-1.15-8.67-1.83-7.11-1.67-10.09-7-10.11-13.42a18.21 18.21 0 0 1 3-9.81 50.6 50.6 0 0 1 10.4-12c.76-.64 1.34-.9 2 0 1.21 1.52 2.42 3 3.61 4.58.72.94 0 1.48-.63 2a33.24 33.24 0 0 0-6.84 8.55 10.31 10.31 0 0 0-1.61 5.8c.22 4.36 2 6.69 6.39 7.61 2.26.47 4.6.5 6.89.84a15 15 0 0 1 3.48 1c4.49 1.9 9.26 3.25 12.89 6.79 2.9 2.83 5.71 5.78 8.86 8.31 3.38 2.72 5 6.64 7.59 9.9 1.7 2.16 3.13 4.53 4.75 6.75 2.44 3.35 4.76 6.83 7.49 10a63.49 63.49 0 0 0 7.6 7c.69.56 2 .31 2.92.65a37 37 0 0 0 11.61 2.24 14.47 14.47 0 0 0 4.84-.43c4.92-1.61 10-2.54 14.67-5.12a30.54 30.54 0 0 0 8.13-6.34c3.26-3.64 6.17-7.6 9.34-11.32 2-2.41 4.26-4.66 6.43-7 1.55-1.63 3.08-3.27 4.73-4.79 1.47-1.35 2.87-2.83 5.23-2.71.65 0 1.68-.92 1.95-1.64.53-1.41 1.55-1.93 2.74-2.62 6.86-4 14-7.57 20.23-12.55 3.82-3 6.08-7 8.16-11.2.74-1.4.62-3.17.89-4.8z"/><path class="b" d="M389.49 493.94c-.59.13-1 .38-1.33.26a51 51 0 0 1-5-2.22 34.88 34.88 0 0 1-12.75-12c-3.57-5.44-7.47-10.68-11.41-15.86A41 41 0 0 0 338.4 450a45.5 45.5 0 0 0-11.69-2 35.81 35.81 0 0 1-10.71-2.43 32.88 32.88 0 0 1-15.83-12c-3.52-5.09-6.95-10.24-10.58-15.25S282.94 408 278.24 404c-2.76-2.36-5.74-4.48-8.68-6.62a8.65 8.65 0 0 0-2.3-.77c-1.84-.6-3.67-1.21-5.51-1.83-4.49-1.52-7.84-4.63-11-8-1.32-1.4-2.59-2.86-3.84-4.33-.21-.25-.19-.69-.28-1.05a2.25 2.25 0 0 1 .88-.07c4.84 1.68 9.68 3.34 14.48 5.13a52.63 52.63 0 0 1 5.55 2.58c4 2.06 7.95 4.12 11.86 6.29 7.83 4.34 15.61 8.78 23.42 13.15A246.52 246.52 0 0 1 324 422.44a253.75 253.75 0 0 1 26.28 21.9c4.24 3.94 7.92 8.48 11.76 12.84q4.31 4.89 8.35 10c1.45 1.83 2.6 3.89 4 5.8q5.63 7.9 11.32 15.77c.83 1.16 1.78 2.24 2.65 3.37.29.49.64 1.02 1.13 1.82zm-71.98-198.48h10a8 8 0 0 0 5.05-1.93c1.53-1.17 2.95-2.52 4.56-3.59 3.07-2 6.25-2.92 10.09-1.76 5.35 1.6 9.24 4.95 12.67 9.07a5.85 5.85 0 0 1 .65 1.86 10.6 10.6 0 0 1-1.78 0c-3.82-.65-7.65-1.25-11.44-2.05s-7.52-.21-11.17.74a32.94 32.94 0 0 0-12.34 5.8 42 42 0 0 0-9.44 11c-4.89 7.73-4.22 15.7-1.27 23.8a11.17 11.17 0 0 0 1.75 2.86c3.18 4.19 5.86 8.7 10.66 11.58 5.8 3.48 10.18 8.67 14.49 13.84a3.84 3.84 0 0 1 .57.72c2.5 5.33 6.64 9.81 8.24 15.61.49 1.77.92 3.55 1.47 5.29.35 1.11-.14 1.45-1.07 1.71a16.93 16.93 0 0 0-3.46 1.23c-2.61 1.4-3.41.5-4.53-1.34a28.15 28.15 0 0 0-7.56-8.33 15 15 0 0 0-3.4-1.91 13.06 13.06 0 0 1-9.06-11.24c-.44-3.11-.6-6.3-2.2-9.15a9.15 9.15 0 0 0-5.09-4.62c-3.78-1.2-7.62-2.21-11.44-3.3-1.76-.5-3.52-1-5.27-1.48a3.83 3.83 0 0 1-3-4.13 34.42 34.42 0 0 1 .87-6.95 74 74 0 0 1 2.88-8.38c1.5-3.78.85-7.34-.59-11a40.14 40.14 0 0 1-2.64-8.38c-.88-5.59 1.87-10 7-12.3a37.17 37.17 0 0 1 15.8-3.27z"/><path class="c" d="M478.81 337.52c.25 3.71-.55 7.25-1.32 10.86a51.13 51.13 0 0 0-1.17 12.14 23.83 23.83 0 0 0 2.25 8.53 64.25 64.25 0 0 0 5.06 8.65c2.83 4.4 6.93 7.74 10.17 11.79s6.13 8.31 7 13.72a20.92 20.92 0 0 1-1.94 11.91A26.52 26.52 0 0 1 483.78 430c-3.22 1.25-6.39 2.66-9.54 4.1a35.06 35.06 0 0 0-6.45 3.4 16 16 0 0 0-6.59 14.64c.54 8-1.75 13.76-9.39 18-2.14 1.2-4.17 2.47-6.73 2.76-1.58.18-2-.41-2.13-1.72a6.68 6.68 0 0 0-.09-.91c-.68-3-.06-5.09 3.29-6.3 1.62-.58 3.08-2.44 4-4.07A22.27 22.27 0 0 0 453 450c.05-2 .73-4 .75-6.06 0-4.45 2.71-7.33 5.6-10.11a39.07 39.07 0 0 1 12.93-7.94c4.72-1.9 9.33-4.07 14-6.22 3.75-1.75 5.06-5.3 5.59-8.95a16.11 16.11 0 0 0-5.37-15.15c-1.71-1.53-2.83-3.7-4.23-5.56s-2.78-3.76-4.23-5.59a37.93 37.93 0 0 1-7.45-17.2c-1.2-6.65-.72-13.2 0-19.78.47-4.37 1.17-8.77.56-13.11-.44-3.17-1-6.58-3.33-9a10.24 10.24 0 0 0-10.34-3.33 34 34 0 0 0-7 3c-.9.47-1.5.75-2.47.2-1.77-1-3.64-1.82-5.48-2.7-1.09-.53-.7-1.1 0-1.53 4.39-2.62 8.9-4.91 14.16-5.2a9.55 9.55 0 0 0 1.75-.49c3.79-1 7.21 0 10.41 2 .35.22.63.63 1 .69 3 .54 4.18 3 5.51 5.28.77 1.32 1.46 2.69 2.14 4.07a17.43 17.43 0 0 1 1.31 10.2zm-254.68-2.67c.32 2.2.58 4.41 1 6.59 1.17 6.42 2.67 12.79 3.53 19.24.75 5.64-1.41 10.84-3.9 15.8-.3.6-1.53.9-2.37 1a32.14 32.14 0 0 1-3.93.1 34.59 34.59 0 0 1 1-3.65c1.77-4.52 3.28-9.14 2.28-14a79.6 79.6 0 0 0-5.08-16.65 31 31 0 0 1-2.75-14 13.34 13.34 0 0 1 3.51-8.57c2.32-2.62 4.58-5.24 7.73-6.86a40.77 40.77 0 0 1 4.51-1.73 9 9 0 0 0 1.18-.35c6.55-3.36 13.84-4.08 20.86-5.75 5.18-1.23 10.38-2.45 15.14-4.76a42.57 42.57 0 0 0 13.52-9.83 95.75 95.75 0 0 0 7.78-9.79c3.51-5.19 8.7-8.28 14.33-11a24.39 24.39 0 0 1 14.23-2.14c8.65 1.06 15.28 5.22 19.13 13.33.57 1.19.39 1.74-.78 2.38-2.27 1.24-2.17 1.25-4.37-.43a16.36 16.36 0 0 0-3.94-2.33c-4.07-1.59-8.13-3.32-12.67-3.1a19.94 19.94 0 0 0-9.77 3.19c-2.23 1.41-4.39 3-6.65 4.31-3.15 1.91-5 5.05-7.18 7.79-6.48 8.11-14.86 13.62-24.06 18a40.4 40.4 0 0 1-8.21 2.36c-2.48.58-5 .88-7.52 1.4a79.55 79.55 0 0 0-19.26 6.28c-4.54 2.25-6.77 6-6.94 11v2.14zM342 337.2c-.57-5.38 1.82-10.46 5.59-15 2.14-2.58 4.41-5.05 6.62-7.58 2.62-3 6.34-4 9.89-5.15a41.41 41.41 0 0 1 14.7-2.35 75.48 75.48 0 0 1 20.31 3.75c4.75 1.6 7.76 5.23 10 9.4a9.49 9.49 0 0 1-1.75 10.52c-1.46 1.42-2.71 3-4.12 4.51-5.16 5.38-11.57 7.74-18.95 7.67a49.26 49.26 0 0 1-5.16-.11c-2.1-.25-2.12-.38-1.31-2.22.49-1.11 1.12-2.17 1.66-3.26 1.92-3.92 4-7.77 5.7-11.77 1.42-3.31-.13-5.25-3.68-5.43a32.25 32.25 0 0 0-15.36 3.14 13.09 13.09 0 0 0-3.25 2.22 28.32 28.32 0 0 0-8 11.36 37.83 37.83 0 0 1-2.78 5.1c-1.4 2.59-2.8 5.18-4.14 7.81-.83 1.61-1.21 1.76-2.15.3-2.12-3.27-4.38-5.97-3.82-12.91zm4.45 155.55c-4.05 0-8.11.08-12.16 0a43.17 43.17 0 0 1-5.76-.72c-1.3-.2-2.57-.74-3.88-.83-3.86-.26-7.26-1.83-10.71-3.35-4.1-1.8-8.28-3.41-12.33-5.32a29.33 29.33 0 0 1-7.22-4.44c-2.73-2.44-5.83-4.47-8.58-6.9-6.41-5.68-12.49-11.64-15.9-19.8a67.92 67.92 0 0 0-3.94-7.25 76.44 76.44 0 0 1-8.22-20.37c-1.5-6.44-3.29-12.82-4.79-19.27a48.78 48.78 0 0 1-.78-7c0-.13.77-.54 1-.43 2 1.05 3.94 2.14 5.87 3.3 1.66 1 1.55 2.81 1.68 4.38a53.47 53.47 0 0 0 4.49 17.29c1.49 3.35 2.63 6.85 4.08 10.21a78.19 78.19 0 0 0 4.25 8.79c3.24 5.51 6.35 11.13 10.57 16A81.92 81.92 0 0 0 301 471.8c5 3.27 10.48 5.47 16 7.55a66.09 66.09 0 0 0 12.75 3.18 48.72 48.72 0 0 0 10.93.44c7.39-.5 14.76-1.39 22.14-2.09a2.12 2.12 0 0 1 1.61.4c1.39 1.76 2.68 3.6 3.95 5.45.4.58.32 1-.49 1.37a68.82 68.82 0 0 1-21.44 4.65z"/><path class="a" d="M202.73 493.2a8 8 0 0 1-1-1.14c-.64-1-1.19-2.13-1.82-3.18-1.61-2.68-1.7-2.75.49-5 4.12-4.23 8.55-8.17 12.44-12.6s8.7-7.34 13-11c2.77-2.38 5.61-4.69 8.52-6.9a6.61 6.61 0 0 1 2.85-1c5.59-1 11.22-1.84 16.63-3.69a30.68 30.68 0 0 1 4.73-1.12 1.63 1.63 0 0 1 1.35.65c1.22 2.12 2.29 4.31 3.48 6.44.46.85.16 1.31-.54 1.74-1.29.81-2.6 1.61-3.85 2.49-6.16 4.35-12.91 7.71-19.42 11.47-7.23 4.17-14.69 8-21.47 12.91a69.07 69.07 0 0 1-7.53 4.55c-2.31 1.28-4.79 2.29-6.47 4.48a5.41 5.41 0 0 1-1.39.9z"/><path class="c" d="M436 396.08l4.67.86c-.21 1.51-.35 3-.65 4.52-1.91 9.41-4.29 18.73-8.28 27.46a123.06 123.06 0 0 1-9.87 17.17 137.71 137.71 0 0 1-12.12 15.71c-5.88 6.49-12.32 12.46-19.93 17-.53.31-1 .67-1.58.95a1.86 1.86 0 0 1-2.67-.52c-1.23-1.62-2.62-3.12-3.87-4.72-.63-.81-.4-1.4.55-1.93a66.21 66.21 0 0 0 14.31-10.73c3.95-3.86 7.9-7.84 10.89-12.66 2.29-3.7 5.11-7.09 7.71-10.6a86.56 86.56 0 0 0 8.63-14.73c3.83-8.11 7.53-16.26 9-25.19.56-3.02 1.13-2.83 3.21-2.59z"/><path class="a" d="M465.66 174.09c-5.15.41-10.3.88-15.45 1.22a74.19 74.19 0 0 0-14.14 2.28 3.43 3.43 0 0 1-1.3-.21c.26-.29.49-.6.77-.86a42.63 42.63 0 0 1 20-10.12 39 39 0 0 1 16.07-.68c6.39 1.24 12.75 2.61 19.12 4 .89.19 1.72.65 2.59.93s1 .53.3 1.18c-1.38 1.2-2.78 2.4-4.08 3.69-2.52 2.5-4.95 5.1-7.48 7.59-4.69 4.61-10.62 6.78-16.87 8a27.81 27.81 0 0 1-8.83.09c-2.15-.29-4.22-1.44-6.23-2.42-3.28-1.6-6.48-3.37-9.7-5.09a5.6 5.6 0 0 1-.91-.78c.38-.26.72-.7 1.12-.76 5-.72 10.06-1.51 15.11-2 4-.43 8.14-.52 12.21-.78 2.33-.15 4.66-.33 7-.52.93-.07 1.31-.4.64-1.35a6.09 6.09 0 0 0-5.58-2.87c-1.43.07-2.86 0-4.29 0zM179.61 446.23a1.74 1.74 0 0 1-.33-.63 1 1 0 0 1 .22-.8 43.5 43.5 0 0 1 3.92-2.85c6.56-3.92 13-8.07 19.77-11.61 7.21-3.78 14.63-7.21 22.15-10.34 5.81-2.41 11.91-4.11 17.88-6.15 1.24-.43 2.44-1 3.68-1.46.63-.24 1.15-.25 1.21.7.24 3.69 1.52 7.13 2.63 10.6.35 1.07.29 1.67-1 2-3.44.87-6.85 1.86-10.28 2.79-2.25.61-4.49 1.27-6.77 1.76-2.68.58-5.39 1-8.08 1.5a14 14 0 0 0-2.65.72 130.14 130.14 0 0 1-18.06 5.28 19 19 0 0 0-2.54 1 35.2 35.2 0 0 1-4.26 1.68 142.66 142.66 0 0 0-16.31 5.58 7.3 7.3 0 0 1-1.18.23zM334 199.31c-.69 5.18-1.75 10.22-4.55 14.75-3.25 5.27-5.8 11-10.49 15.29a20.52 20.52 0 0 0-1.56 2.26c-2.08 2.49-4.2 5-6.32 7.42q-3.78 4.4-7.57 8.75a13.12 13.12 0 0 1-1.23 1.34 3.94 3.94 0 0 1-1 .47c-.11-.34-.37-.69-.32-1q1.35-9.06 2.76-18.12c.09-.61.29-1.19.35-1.79.89-8.54 5.42-14.68 12.49-19.23 3.85-2.48 7.66-5 11.36-7.74A68.19 68.19 0 0 0 333 197a3.82 3.82 0 0 1 1-.46 7.14 7.14 0 0 1 .08.91c.01.64-.03 1.25-.08 1.86z"/><path class="c" d="M406 575.8a9.55 9.55 0 0 1 .34-5.62c.15-.42.29-.83.4-1.25.42-1.61 1.75-1.78 3-2.18 1-.33 2.23-1.25 3-1a7.82 7.82 0 0 1 3.26 2.55c4.27 5.31 8.38 10.76 12.64 16.08 2.1 2.61 4.46 5 6.64 7.58 4 4.67 9.13 8.08 13.48 12.35 4.17 4.11 9.69 6.19 14.32 9.62 1.1.81 2.42 1.3 3.48 2.17.17.14.19.53.28.79-.29.07-.62.26-.86.18a42.87 42.87 0 0 1-5.36-2c-8.35-4.24-16.75-8.42-24.94-13-4.19-2.33-7.92-5.5-11.87-8.25-2.11-1.47-4.19-3-6.16-4.63-3.92-3.26-7.9-6.54-10.7-10.86a8.47 8.47 0 0 1-.95-2.53zM292.89 324.58a11 11 0 0 1-1.74 2.5 22.42 22.42 0 0 0-4.64 6c-1.56 2.6-3.52 5-5.28 7.43-.59.83-1.14 1.69-1.69 2.55-1 1.53-2.05 3-2.9 4.63-1.42 2.69-2.71 5.47-4 8.22-1.58 3.28-3.59 6.43-4.6 9.88-1.23 4.18-3.87 7.89-4.05 12.39a11.38 11.38 0 0 1-.36 1.48c-.14.78-.49 1-1.26.7-.94-.4-1.91-.7-2.86-1.09-1.6-.66-3.19-1.35-4.78-2 .47-1.54 1-3.07 1.41-4.61.74-2.54 1.34-5.12 2.18-7.62a72.15 72.15 0 0 1 7.68-16.28c1.89-2.9 3.34-6.08 5.19-9 2-3.09 4-6.12 6.28-9 3.32-4.27 6.83-8.38 10.28-12.55a7.36 7.36 0 0 1 1.49-1.51c.24-.16 1.1.06 1.17.28.87 2.39 1.59 4.82 2.48 7.6zm91.26 250.06c4 .28 7.18 1.18 10 3.68 4.06 3.64 7.21 8 10.5 12.24a39.22 39.22 0 0 0 7 7.59 102.44 102.44 0 0 0 13.57 8.59c4.36 2.33 9.13 3.89 13.62 6 3.84 1.8 7.49 4 11.32 5.8 2.06 1 4.32 1.51 6.47 2.32.4.15.67.65 1 1a5.23 5.23 0 0 1-1.42 0c-11.23-2.85-22.24-6.28-32.71-11.35-4.39-2.13-9-3.71-13.5-5.67a37.83 37.83 0 0 1-5.3-3c-5-3.26-10.28-6.26-14.93-10-3.13-2.51-5.46-6-8-9.21a7.56 7.56 0 0 1-1.07-3.15c-.7-3.17.76-4.9 3.45-4.84z"/><path class="a" d="M367.91 199.2c-.19 0-.52 0-.54-.11a1.07 1.07 0 0 1 0-.77 16.28 16.28 0 0 1 2.17-2.92c4.53-4.09 7.35-9.45 10.94-14.25a28.68 28.68 0 0 1 4.58-4.89 49.11 49.11 0 0 1 7.47-5.27 39.61 39.61 0 0 1 7.89-3.22c4.19-1.26 8.46-2.24 12.7-3.29a8.78 8.78 0 0 1 2 0 9.12 9.12 0 0 1-.24 1.74c-.81 2.41-1.57 4.85-2.56 7.18-1.88 4.43-5.67 7.07-9.4 9.76a51.75 51.75 0 0 1-13.92 6.69 65 65 0 0 0-13.34 6c-2.38 1.46-5.16 2.25-7.75 3.35zm-27.6 35.47c3.32-4.17 6.91-8.17 11.42-10.95a106.87 106.87 0 0 1 15.48-7.81c3.8-1.56 7.86-2.69 12.23-1.86a95.71 95.71 0 0 0 10.05.91 4.83 4.83 0 0 1 1.21.12c1.12.41 2.21.88 3.3 1.33-.56.9-1.08 1.83-1.69 2.7s-1.48 1.94-2.2 2.92c-2.18 3-4.84 5.23-8.51 6.08-5.35 1.24-10.68 2.58-16.06 3.64-2.46.49-5 .29-7.54.6-5.14.64-10.26 1.43-15.39 2.13-.78.11-1.57.1-2.36.14z"/><path class="c" d="M459.52 308.8a15.13 15.13 0 0 0-2.13 0 2.75 2.75 0 0 1-2.74-1.29 10.08 10.08 0 0 0-8.06-3.64c-3.56.07-7.11.5-10.67.48a11.71 11.71 0 0 1-8.83-3.63 25.21 25.21 0 0 1-5.89-9.53 23.66 23.66 0 0 0-3.67-6.64c-1.89-2.6-7.15-3.4-10.14-1.82-.62.33-1.19.78-1.79 1.16s-1.53 1.28-2 1.11a9.73 9.73 0 0 1-3-2c-.22-.19-.18-1 0-1.33 2.54-3.72 12.29-7.15 16.58-5.75 4.09 1.33 6.45 4.45 8 8.3.91 2.25 1.74 4.55 2.76 6.75 1.91 4.13 7.43 6.89 12.11 6.53a47.69 47.69 0 0 1 17 1.52 10.12 10.12 0 0 1 7 6.31c1 2.58.41 3.48-2.41 3.59h-2.14z"/><path class="a" d="M238.41 395.8c-7.79-.82-15.58-1.72-23.38-2.44-6.28-.57-12.59-.94-18.88-1.37-4.77-.32-9.55-.58-14.32-.9-.32 0-.63-.36-1-.54a3.33 3.33 0 0 1 .81-.71 5.43 5.43 0 0 1 1.48-.36c8.67-1.17 17.34-2.36 26-3.48 7-.9 13.95-1.63 20.9-2.61a27.86 27.86 0 0 0 6.38-1.91 1.58 1.58 0 0 1 2.1.47c2.47 2.83 4.92 5.7 7.43 8.5.68.75 1.14 1.35.43 2.35a2.28 2.28 0 0 0-.12 1.48c.25 1.57-.46 1.55-1.75 1.42a59.28 59.28 0 0 0-6.11-.06z"/><path class="c" d="M352.46 268.57a17.6 17.6 0 0 0-11 3.69c-2.59 1.91-2.55 2-4.63-.53a4.4 4.4 0 0 0-.4-.46c-1.27-1-.59-1.68.42-2.29s2.06-1.3 3.09-2c4.49-2.84 9-5.58 14.54-5.82 3.89-.17 7.29.92 9.51 4.35a16.07 16.07 0 0 1 2.11 4.4c1.25 4.63 4.33 8.13 7.37 11.47 2.81 3.1 7 4 11.09 4.65 2.61.4 5.23.75 7.83 1.21 4.55.8 7.27 3.71 9.09 7.78 1 2.23.09 4.16-.48 6.18-.14.48-.58.86-.75 1.33-1 3-1.42 2.09-3.79 1.06-.82-.36-1.17-.88-.87-1.65a7.05 7.05 0 0 0-1.31-7.2c-1.94-2.52-4.83-3.27-7.85-3.57q-3.78-.39-7.58-.7a11.19 11.19 0 0 1-6.13-2.52 25.92 25.92 0 0 1-6.89-8.12 57.69 57.69 0 0 0-4.06-6.45c-2.69-3.69-4.31-4.45-9.31-4.81zm-27.6 54c.79-4.3 1.16-8.14 3.38-11.26a16.19 16.19 0 0 1 10.43-6.43 35.14 35.14 0 0 1 14.55-.25 10.2 10.2 0 0 1 1.48.29c.34.13.78.46.81.74s-.32.71-.62.91c-2.41 1.68-4.95 3.19-7.27 5A41.51 41.51 0 0 0 337.27 323a61.27 61.27 0 0 0-5.8 12.75 6.19 6.19 0 0 1-1 1.47 5.28 5.28 0 0 1-1.3-1.06 14.08 14.08 0 0 1-1.81-3.48c-.96-3.5-1.75-7.07-2.5-10.11zm56.39 36.61c-4.2.5-9.95-1.21-15.75-2.13-3.15-.51-6.2-2-9.15-3.34-2.25-1-2.46-2-1.37-4.11 1.35-2.63 2.84-5.19 4.32-7.75.57-1 1.15-1.21 2-.09a16.06 16.06 0 0 0 6.82 5c2.17.85 4.1 2.43 6.32 3a89.66 89.66 0 0 0 11.07 2.1c5.58.8 10.87-.91 16.2-2.19a7.91 7.91 0 0 1 1.46-.1 4.75 4.75 0 0 1-.7 1.3c-2.23 2.07-4.41 4.14-7.35 5.32a37.93 37.93 0 0 1-13.87 2.99z"/><path class="c" d="M377.66 382.09a3.16 3.16 0 0 1-2.92-1.18c-4.06-4-9-6.53-14.22-8.7-3.53-1.49-7.06-3-10.95-3.43a2.94 2.94 0 0 1-1.79-1.47c-3.41-6.06-8.4-10.69-13.5-15.23-1.26-1.13-1.71-2.21-.65-3.69a9.27 9.27 0 0 0 .58-1.41c.54-1.12 1.11-2.22 1.68-3.33a14.52 14.52 0 0 0 1.16 3.08c3.05 4.65 5.35 9.74 10.05 13.3 7.21 5.48 14.92 10 23.55 12.53a87.75 87.75 0 0 0 18.09 2.9 39.13 39.13 0 0 0 16.82-2.17c1.07-.38 1.26 0 1.11.95-.49 3.11-.57 3.16-3.7 3.67-7.44 1.22-14.87 2.48-22.3 3.72-1 .17-2.01.31-3.01.46zm43.22-46.65c2.12 2.23 3.87 4.05 5.6 5.88 2.47 2.63 3.38 6 3.92 9.37.15 1-.63 2.06-1 3.1-1.46 4.4-4.77 6.93-8.82 8.72-.94.41-1.09-.05-.93-.78a50.89 50.89 0 0 1 1.66-7.1c2.38-6.35 1.35-12.56-.43-19.19zm-4.26 12.18c-.61 8.51-4 15.28-12 19.14a3.76 3.76 0 0 1-1.08.18 5.4 5.4 0 0 1 .23-1.09 122.25 122.25 0 0 1 11.18-21.24 4 4 0 0 1 .85-.72 3.61 3.61 0 0 1 .54 1c.14.9.19 1.82.28 2.73z"/><path class="a" d="M336.31 230.68c-2.19 2.25-4.43 4.46-6.56 6.76-4.29 4.65-8.83 9.15-11.41 15a25 25 0 0 0-1.48 7.35c-.24 2.2-.23 2.42-2.49 2.4a27.59 27.59 0 0 1-4-.22c-1.71-.24-1.88-.59-1-1.88 3.81-5.37 7.12-11.05 11.57-16a147.87 147.87 0 0 1 13.89-13.65 3.6 3.6 0 0 1 .81-.4zM481.9 566.84c.52-.23 1.65-.77 2.81-1.22a9.53 9.53 0 0 1 1.69-.33 6.33 6.33 0 0 1-.65 1.74c-1.72 2.26-3.74 4.26-6.87 3.71a14.15 14.15 0 0 1-5.1-1.89 24.11 24.11 0 0 1-5.06-4.4c-4.89-5.62-5.5-11.68-2.13-18.41.17-.34.71-.49 1.08-.73.1.52.46 1.2.26 1.54a11.23 11.23 0 0 0-1.29 8 12.87 12.87 0 0 0 2 5.31c3.09 4.06 7.27 6.39 13.26 6.68z"/><path class="c" d="M481.4 556.66c.05 2.16-.31 2.46-2.44 2.19a4.32 4.32 0 0 1-4.1-3.46 24.07 24.07 0 0 1-.62-4.78c0-1.41.74-1.83 1.95-1.35 2.2.86 5.16 5.06 5.21 7.4zM377.44 327.62a8.16 8.16 0 0 1-.31.79c-1.34 2.52-2.61 5.07-4.06 7.53-1.09 1.84-1.77 1.76-2.92-.11-1.79-2.91-1.7-3.86 1.11-5.75a34.6 34.6 0 0 1 5.15-2.52c.26-.12.66.03 1.03.06z"/><path class="b" d="M179.4 445.93a4.46 4.46 0 0 1-1 .74c-.17.05-.44-.22-.66-.34a3.35 3.35 0 0 1 .68-.72c.13-.08.43.13.98.32zm120.74-194.24l-.06-.24.19.02-.13.22zm.69-1.14l-.19-.11.2-.31c.06.07.18.14.18.21s-.12.14-.19.21zm39.42-15.93v.46c0-.14.05-.28.07-.41zm-4.53-4.56l.72-.49.52.5c-.21.21-.43.41-.65.61-.19-.21-.39-.42-.59-.62z"/><path class="b" d="M336.44 229.57l.95-.19c-.15.23-.29.46-.43.69z"/><path d="M551.21 550.77c-5.87.14-11.28.64-16.64.29-4.83-.32-9.73-.92-14.28-3-1.38-.63-2.81-1.17-4.24-1.7-5.82-2.17-8.27-7-10.39-12.41-2.87-7.25-.64-13.52 2.89-19.76 2.86-5.06 7.26-8.38 12.06-11.34 2.75-1.71 5.4-3.6 8.19-5.23 2-1.18 4.17-2.08 6.28-3.08a24 24 0 0 1 8.41-2.45c2.17-.17 2.2-.49 1.52-2.67a28.7 28.7 0 0 1 .76-19.17c1.61-4.34 3.24-8.6 6.26-12.16 1.51-1.77 3.09-3.5 4.71-5.16.83-.85.9-1.32-.35-1.6a1.67 1.67 0 0 1-.3-.08c-2.56-.86-3.42-1.61-3.12-2.68s3.06-2.83 4.37-2.75a8.78 8.78 0 0 1 2.67.43c9.18 3.59 18.47 7 26.85 12.27 4.46 2.81 8.55 6.22 12.75 9.45 3.13 2.41 6.17 4.94 9.22 7.45a7.33 7.33 0 0 1 .87 1.21 12.84 12.84 0 0 0 1.7 2.08 44.51 44.51 0 0 1 13.12 18.32 5.91 5.91 0 0 1 .28 3c-.23 1.45-1.46 1.73-2.44.62a19.9 19.9 0 0 1-1.57-2.27c-2.16-3.27-5.7-4-9.14-4.68a80.36 80.36 0 0 0-8.11-.68 85.63 85.63 0 0 0-20.72.86c-3.67.56-7.11 1.67-10.66 2.53a89.22 89.22 0 0 0-15 5.14 75.48 75.48 0 0 0-19 11.43 21.92 21.92 0 0 0-6.29 9.25 14.63 14.63 0 0 0-.07 7.8 21.92 21.92 0 0 0 3.36 6.8c1.41 2.15 3.59 3.4 6 4.59 4 2 8.46 2.13 12.58 3.59a8.72 8.72 0 0 0 3 .18 6.19 6.19 0 0 1 4.26 1.11 13.53 13.53 0 0 0 2.23.92c2.08 1 4.35 1.89 6.13 3.32a6.64 6.64 0 0 1 2 6.7 5.74 5.74 0 0 1-5.4 4.7 2.84 2.84 0 0 1-2.15-.66c-.68-.77 0-1.46.72-2a6.14 6.14 0 0 0 1-1.11c1.18-1.59 1.06-2.62-.38-4a11.15 11.15 0 0 0-6.87-3c-2.44-.26-4.99-.29-7.07-.4zM604.3 488v.3l1.59-.5a4.14 4.14 0 0 0-.51-1.37c-3.44-3.87-6.56-8.14-10.48-11.47a142.68 142.68 0 0 0-27.72-18.83c-3.7-1.88-3.64-2-6.82.76-.38.34-.76.69-1.1 1.06-1.19 1.3-1.12 1.77.68 2 5.36.8 9.22 4.09 13 7.57a14.73 14.73 0 0 1 2.85 3.17 42.78 42.78 0 0 1 5 14c.44 2.4.71 2.64 3.1 2.57 3.55-.1 7.11-.13 10.66 0 3.25.15 6.5.49 9.75.74zm-54.52-3a8.57 8.57 0 0 0 .43-1.12 53.93 53.93 0 0 1 5.86-14.07c.55-1 1.09-2 1.58-3 .69-1.41.54-1.66-1-2-2-.44-2.36-.31-3.38 1.63-3.06 5.78-4.83 11.82-3.49 18.56z"/><path class="c" d="M604.3 488c-3.25-.24-6.5-.58-9.76-.69-3.55-.11-7.11-.08-10.66 0-2.39.07-2.66-.17-3.1-2.57a42.78 42.78 0 0 0-5-14 14.73 14.73 0 0 0-2.85-3.17c-3.77-3.48-7.63-6.77-13-7.57-1.8-.27-1.87-.74-.68-2 .34-.37.72-.72 1.1-1.06 3.18-2.77 3.12-2.64 6.82-.76A142.68 142.68 0 0 1 594.93 475c3.92 3.33 7 7.6 10.48 11.47a4.14 4.14 0 0 1 .51 1.37l-1.59.5z"/><path class="b" d="M549.78 485c-1.34-6.75.43-12.79 3.46-18.56 1-1.94 1.41-2.07 3.38-1.63 1.57.36 1.72.61 1 2-.49 1-1 2-1.58 3a53.93 53.93 0 0 0-5.86 14.07 8.57 8.57 0 0 1-.4 1.12z"/><path class="a" d="M485.24 567.67s3.2-5.26 8.67-7.08-.44-3.87-.44-3.87l-4.59 3.33s-1.44 4.76-5.43 6.09-2.73 2.06-2.73 2.06z"/></svg>