<svg xmlns="http://www.w3.org/2000/svg" viewBox="0 0 800 800"><defs><style>.cls-2{fill:#00f}.cls-4{fill:red}</style></defs><g style="isolation:isolate"><g id="Layer_1" data-name="Layer 1"><path class="cls-2" d="M296 260.58c.06 93.62-4 186.28-1.75 278.84l22.07-.51q1.6-139-.9-277.92c-4.97-.14-14.51-.27-19.42-.41z"/><path class="cls-2" d="M312.73 260.86q64.51-.63 129 2.49c.36 4.7-1.28 10.4-.92 15.1-43.83 1.35-85.73-.17-129.52-2.57"/><path class="cls-2" d="M316.77 335.8c18.83-18.06 39.37-35.43 54.53-56.83 1.12-1.58-1.48-3.08-2.59-1.52-15 21.17-35.44 38.36-54.06 56.23-1.39 1.34.73 3.46 2.12 2.12zM315.15 316.77c8.11-6.47 15.46-13.82 22.79-21.15l5.15-5.16 13.73-13.72"/><path class="cls-2" d="M316.21 317.83c15-12.09 28.09-26.45 41.67-40a1.5 1.5 0 0 0-2.12-2.13c-13.58 13.59-26.72 27.95-41.67 40-1.5 1.22.63 3.33 2.12 2.12zM428.7 279.16c3.88 17.07.17 34.19-3.12 51-2.72 13.85-6.74 30.56-2.59 44.49 3 9.92 15.8 15.5 21.23 4.28 2.7-5.59 2.57-12.65 2.5-18.69a149 149 0 0 0-2.46-23.73c-3.39-19.35-9.17-38.26-10.85-57.9-.17-1.91-3.17-1.93-3 0 1.52 17.79 6.3 35 9.78 52.44 1.52 7.62 10.62 55-6.9 50.89-10.16-2.38-9-18.1-8.5-26 .57-9.29 2.4-18.44 4.19-27.56 3.26-16.53 6.41-33.27 2.62-50-.43-1.88-3.32-1.08-2.9.8z"/><g style="mix-blend-mode:multiply"><path class="cls-4" d="M443.62 399a59 59 0 0 0 35 11.22c10.55-.1 22.9-2.61 29.14-11.92 1.08-1.61-1.52-3.11-2.59-1.51-6.16 9.18-19.62 10.86-29.8 10.37a56.35 56.35 0 0 1-30.23-10.75c-1.57-1.13-3.07 1.47-1.52 2.59zM428.55 412.06c2.28 4.19 4.95 9.37 5.21 14.14a7.85 7.85 0 0 1-.62 4 3.73 3.73 0 0 1-3.19 2.15c-1.92 0-3.32-2-3.5-3.93s.53-3.78 1.05-5.63a30.86 30.86 0 0 0 1.05-10.69"/><path class="cls-4" d="M427.9 412.44a59.07 59.07 0 0 1 3.79 8 23.86 23.86 0 0 1 1 3.32 9.56 9.56 0 0 1 .27 3.68c.25 2.64-1.6 3.2-5.58 1.7-.81-2.8 1.06-6.44 1.54-9.2a34.63 34.63 0 0 0 .4-7.88c-.05-1-1.55-1-1.5 0a34.38 34.38 0 0 1-1 10.49c-.49 2-1.32 4-1 6 .33 2.45 2.24 4.84 4.91 4.38 9-1.58.65-17.4-1.44-21.28-.46-.85-1.76-.09-1.3.76zM498.62 405.88a11 11 0 0 1 2.74 10.12c-.44 1.87 2.45 2.67 2.89.79a14.08 14.08 0 0 0-3.51-13.05c-1.33-1.4-3.45.72-2.12 2.12zM488.15 409.58a10.29 10.29 0 0 1 2 9.45 1.5 1.5 0 0 0 2.89.8 13.47 13.47 0 0 0-2.77-12.37c-1.25-1.48-3.36.65-2.13 2.12zM476 410.2a14.2 14.2 0 0 1 1.38 9.82c-.41 1.88 2.48 2.68 2.89.79a17.43 17.43 0 0 0-1.68-12.12c-.9-1.71-3.49-.19-2.59 1.51zM464.65 409a10.86 10.86 0 0 1-.46 9.62c-.92 1.7 1.67 3.21 2.59 1.51a14 14 0 0 0 .46-12.64c-.77-1.77-3.36-.24-2.59 1.51zM454.68 405.62a10.35 10.35 0 0 1-2.91 10c-1.39 1.35.73 3.47 2.12 2.12a13.44 13.44 0 0 0 3.69-12.9c-.45-1.88-3.35-1.09-2.9.79zM361.43 403.1c8.57 7.9 22.43 9.39 33.57 10.21 12.85 1 26.3-1.66 35.16-11.69 1.27-1.44-.84-3.57-2.12-2.12-8.37 9.48-20.94 11.71-33 10.81-10.15-.75-23.61-2.13-31.44-9.33-1.41-1.31-3.54.81-2.12 2.12z"/><path class="cls-4" d="M416.5 410.56c2.82 2 1.93 7.54 1.08 10.27-.58 1.85 2.31 2.64 2.89.8 1.35-4.29 1.65-10.74-2.45-13.66-1.58-1.12-3.08 1.48-1.52 2.59zM405.79 413.16c2.83 2 1.94 7.54 1.08 10.27-.58 1.85 2.31 2.64 2.89.8 1.35-4.29 1.65-10.74-2.45-13.66-1.58-1.12-3.08 1.48-1.52 2.59zM394.81 413a15.47 15.47 0 0 1-.55 10.35c-.72 1.79 2.18 2.57 2.89.79a18.12 18.12 0 0 0 .55-11.94 1.5 1.5 0 0 0-2.89.8zM381.55 411.34c1.51 3.84.69 7.68-.69 11.43-.67 1.81 2.23 2.59 2.89.79 1.55-4.21 2.38-8.72.7-13-.7-1.77-3.6-1-2.9.8zM369.65 408.85a13.22 13.22 0 0 1-2.12 10.2c-1.09 1.61 1.51 3.11 2.59 1.52a16.26 16.26 0 0 0 2.42-12.52c-.38-1.89-3.28-1.09-2.89.8z"/></g></g></g></svg>