<svg xmlns="http://www.w3.org/2000/svg" viewBox="0 0 800 800"><defs><style>.a{fill:#f4e976;}</style></defs><title>cemetery-sky</title><path d="M161.84,50.78c5.67-1.28,10.87-.6,16-.58,58.45.23,116.9.62,175.35.73q136.38.26,272.77.2c.6,0,1.2-.06,1.8-.05,9.51.19,10.37,1.56,11.25,11.27,1.37,15.16,1.16,30.36.46,45.46-.49,10.55-.45,218.52-.15,312,.17,52.45-.41,104.91-.56,157.36-.14,48.64-.11,97.28-.29,145.92,0,6.93-.78,13.83.11,20.77.67,5.18-3.08,5.9-6.93,5.91-10.61,0-21.22-.12-31.83-.11q-196.73.12-393.44.29c-13,0-26,.14-39,.07-6,0-7.75-1.85-7.37-7.52,1.91-28.79.95-57.62,1-86.43.1-70.66-.1-141.32-.17-212,0-19.21.45-38.45-.2-57.64-.52-15.41-.5-30.85-.27-46.21,1.46-94.72.39-189.45,1.11-284.17C161.47,54.44,161.68,52.87,161.84,50.78ZM634.52,505.64c-3.19-.34-6,1.17-8.68-.12-7.18-3.47-14.47-3.5-22-1.2-2,.62-4.39.35-6.58.2a28.07,28.07,0,0,0-16.09,3.66,18.72,18.72,0,0,1-11,2.06c-7.43-.66-21.26,8.43-23,15.58a44.47,44.47,0,0,0-.94,17.33,11.45,11.45,0,0,0,1.86-.62c9.62-5.37,19.63-8.68,30.87-6.35,4.67,1,9.71,5.72,9.8,9.69-2.58,1.26-5,.56-7.37-.68-10.54-5.47-20.7-3.66-28.27,5-5.34,6.1-11.71,7.8-19.24,5.28-3.8-1.28-7.85-2.76-11.57-.35-7.48,4.85-15.26,7.18-24.35,6.12-6.79-.78-9.7,2.14-11.42,8.82-.5,1.92-.73,4.26-2,5.58-4.57,4.89-2.69,10.23-2,15.39,1.89,1.38,3.76,1.13,5.5,1,14.55-.6,29.1-1.14,43.48-3.9a32.87,32.87,0,0,1,14.7.85c9.64,2.48,19.43,4.2,28.87-2,5.39-3.57,11.28-4.49,17.51,0,4.39,3.19,9.45,6,15.14,6.79,2.07.31,3.41,1.23,2.39,3.87-2,1-4.07.42-6.19-.36a64,64,0,0,1-11.86-5.69c-6.14-3.88-8-3.32-13.64,1.83-2.92,2.68-6.21,5.54-10.34,5.6-7.18.1-14.39.91-21.57-.34a75.3,75.3,0,0,0-32.71,1.24c-5.36,1.43-11.1,2.26-16.64,1.36a51.54,51.54,0,0,0-25.44,1.85c-2.22.75-4.72.73-7.1.93-6.77.58-13.58.85-20.31,1.71a28.46,28.46,0,0,1-15.19-1.9c-6.91-2.91-14.2-3.72-20.33,1.71-5.62,5-12.08,6.93-19.25,6.89-6.7,0-13,2.16-19.5,3.08A6,6,0,0,0,365,620c-2.39,7.08-4.92,14.11-7.41,21.23,13,2,13.13,2.23,18.43-.59,7.33-3.9,15.56-4,23.31-6.14,8.88-2.4,17.22,2.42,25.93,3.11,2.29.18,5.68,1.39,5,5.23-2,2-3.78.93-5.67.23a43.44,43.44,0,0,0-29.33-.67,288,288,0,0,1-38,9.6,10.15,10.15,0,0,1-5.31-.3c-3.34-1.28-6.75-.87-10.09-.83-5.8.06-11.49,3.38-13.22,7.78-2.49,6.32-5.83,10.23-12.19,11.86,5.76,10.25,3.45,20.24.65,30.21-.43,1.51-1.79,2-3.35,2-1.78,0-3.56.17-5.44.26-1.75,5.42-5.56,6.09-10.48,5.52-9.86-1.12-12.18.22-16.49,8.84-1.09,2.18-2.93,3.15-4.7,4.42-2.63,1.88-5.46,4.11-4.44,7.72,1.34,4.73-1,7.75-3.85,10.69-1.42,1.46-3.08,2.69-1.88,5.36H405c.05-5.14,1.91-9.4,3.52-13.67,1.93-5.15,5.66-9.17,11.22-9.67,4.28-.39,6.91-2.42,9.6-5.18,4.34-4.45,7.76-10.79,15.79-8.34.27.08.68-.33,1.07-.53.45-1.67-1.34-3.45.33-5.19,1.5-1.25,3.26-.41,5-.2,16.8,1.93,33.65,5.56,50.27-1.11a2.66,2.66,0,0,1,1.76,0c3.38,1.16,5.3-.81,7-3.22,4.21-6.09,8.27-12.24,9.23-19.88.31-2.42,1.9-4.25,3.37-6.21,3.35-4.42,10.63-6.1,9.49-13.79-.23-1.57,2.17-2.2,3.69-2.55,5.68-1.3,11.34-2.09,17.23-.91,8,1.61,16,1,23.14-3,3.23-1.8,6-4.42,9.93-5.11.47-3.75,2.9-6.82,1.48-10.67-.79-2.16,1-3.23,2.67-4.09,8.47-4.48,16.67-8.34,21.94-17.84,3.59-6.48,9.35-14,19-14.17a10.81,10.81,0,0,0,2.81-.88ZM625.63,297.9a13.27,13.27,0,0,1-17.32,8.73,28.27,28.27,0,0,0-15.25-1c-4.33.87-9,1.09-13-.22-12.63-4.06-24.6.72-36.83,1.95-4.74.48-4.14,5.77-7.06,8.16-5.28,4.32-4.44,11.23-3,16.25a35.76,35.76,0,0,1,.09,20.37c-1.62,6-6.13,10.65-7.13,16.84-.78,4.81-2.59,9.1-6.67,12.06,3.19,3.49,9.27,3.23,13.63-.34,4.68-3.83,15.34-5.48,20-2,5.1,3.83,10.74,5.09,16.66,5.78,3.94.45,3.87,2.39,2.89,6-7.38-1.6-14.65-2.67-21.55-4.87-4-1.27-6.93-2.16-11.08.17-4.82,2.71-9.4,6.22-16.05,5.47-7.77-.87-16.26-6-23.6,1.61a2.68,2.68,0,0,1-1.73.41c-5,0-6.54,3.15-6.6,7.43a11.4,11.4,0,0,1-3.24,7.55c-5.49,6.26-10.57,13-19.3,15.29a11.48,11.48,0,0,0-4.69,2.59c-9.26,8.46-20.6,10-32.4,9.71-7.12-.2-13.92.54-20.44,3.55-2.86,1.32-6.68.37-8.93,3-5.09,6-11.41,10.6-16.84,16.19-4.61,4.73-9.41,9-16.71,9.5-11.55.82-23.5-.13-34.06,6.29a3.42,3.42,0,0,1-2.33.43c-5.35-1.21-8.82,2.57-12,5.43s-6.39,7.05-6.92,11c-.81,6-2.75,10.19-8.49,12.34,1,1.29,1.65,2.52,3.09,3.05,13.67,5,27.38,7.58,41.4,1.25,4.52-2.05,9-1.24,13.33.79,2.52,1.19,4.9,2.89,7.54,3.58,6.1,1.61,12.22,4.76,18.63,2.78a9.05,9.05,0,0,1,9.36,1.81c2.94,2.45,6,3.56,10,2.66,3.37-.77,7.15-.41,9.61,2,4.73,4.69,10.61,5.59,16.57,5.62,4.89,0,9.42-1,13.13-5.52A43.71,43.71,0,0,1,461.63,511c8.57-4.52,17.34-3.39,25.64,1.67s17.3,7.1,27,4.79c3.53-.85,7.68-1.73,10.55-.12,4.93,2.75,10,2.3,15.08,2.93a9.14,9.14,0,0,0,10.42-6.9c1.88-6.92,6.17-10.33,12.73-12.28-.61-8.83-1.38-17.38-1.28-26,.23-20.91,8.69-30.26,28.29-30.69,17.22-.38,29.66,9.49,27.18,29.2a89.35,89.35,0,0,0-.35,17.38c.11,1.55-.32,3.73,1.5,4.21,5.19,1.36,10.14,5.34,16.36,1.73V269.26c-11.23.72-21.44,5-32.58,3.1-2.74,8-3.62,16.59-11.42,21.91,8.47,3.64,17.57,1.53,24.42,7.16C618.32,299.47,621.3,297.57,625.63,297.9Zm-388.9,296c2.77,1,5.55,2.43,8.59,1.7,3.57-.86,6,1.85,9,2.4a4.36,4.36,0,0,0,2.77-.89c3.78-2.51,7.54-1.54,11.5-.45,6.55,1.79,9.15,7.46,12.43,12.34,5.5,8.21,11.52,10.06,20.23,5.39A7,7,0,0,1,308,614c4.45,1.85,8.79,3.74,12.48,6.92,1.86,1.61,4.16,2.16,6.6,2.54,10.26,1.6,20.56-.94,31.23,1,1.05-14,12.18-15.9,21.92-17.47s18.51-4.35,26.05-10.63a7.68,7.68,0,0,1,5.43-1.78c13.54-.07,26.95,2.54,40.51,1.78,13.25-.75,17.05,1.45,18.45-15.12.17-2,.35-4.49,2-5.53,4.88-3.14,6.29-8.58,9.41-12.86,2-2.68,4.3-5.32,7.85-6,14.31-2.86,26.58-11,40.19-15.63a4.15,4.15,0,0,0,3-2.37c-.74-3.5,1.19-7,2-11.43-5.71.83-9.52-5.66-14.76-3.51-6.17,2.52-11.92,1.71-17.45-.45-5.93-2.31-12.23-3.12-18.12-5.54-3.59-1.47-7.81-3.51-11.54-2.09-6.23,2.36-12.83,4.87-17.13,10.27-7.85,9.85-18.76,10-29,8a47.13,47.13,0,0,0-26.76,2.55c-9.73,3.7-19.77,6.59-30.44,3.79-14.17-3.72-26.85,1.47-39.44,6.85-2.11.9-4,1.32-5.24-.65s-.23-4,1.95-4.83c7.73-3.07,15.51-6.19,23.73-7.54,9.2-1.51,18.6-1.92,27.79-3.5,3.39-.59,7.86-1.85,7.36-6.84-9.64-3.15-19.23-4.66-27.81-9.45a12.26,12.26,0,0,0-10.93-.81,40.27,40.27,0,0,1-11.59,2.91c-12,1-22.78-3.67-33.58-7.7-10-3.72-19.13.21-28.57,1.85a4.45,4.45,0,0,0-2.27,1.89,12.59,12.59,0,0,1-13.88,5c-7.2-1.93-12.1,1.48-16.5,5.62a17.15,17.15,0,0,1-17.87,3.68c-8.13-2.77-14.48.54-19.79,4.47-10.68,7.9-21.65,14.87-34.21,19.26-3.89,1.36-6.84,3.48-4.54,8.4,1.86.41,3.79-.9,5.75.38,6.84,4.51,14.8,4.28,22.51,5,6.53.57,9.9,3.25,11.62,9.63,8.21,2.62,17,.3,25.32,3.72,7.16,2.95,8.08,3.07,7.49,10.64C237,590.13,236.86,591.89,236.73,593.91Zm-71.91-61c8.72-.07,16.6.13,23.94-3.71,7.65-4,14.19-10.48,24-9.71,3.36.27,6.73.68,10.12.84,6.37.29,12.09.56,17-5.56,3.83-4.81,9-9.75,16.91-4.69,3.33,2.14,7.85.87,10.7-2.8a10.58,10.58,0,0,1,11.67-4.08c3.24.76,5.55,0,7.44-3.13,1.71-2.86,3.9-5.91,7.11-7.16,9.45-3.68,16.17-10.84,23.19-17.61a17.61,17.61,0,0,1,11.72-5.3c1.4-.07,3.08,1,4.52-1-7.91-4.81-7.84-13.48-10.61-21-11.23-3.24-22.54-3.29-34.13-1.07-11.29,2.16-22.53,4.06-34-.92-5.48-2.36-12.1-3.17-18.45.69-7.22,4.38-15.26,6.8-24,4.86-1.87-.41-4-.83-5.88.25-2.36,1.33-4.18.44-4.48-1.92a3.54,3.54,0,0,1,3.83-4.28c2.17,0,4.33.6,6.51.78,7.25.6,14.71,1,20.58-4.09,8.5-7.39,14.16-8.44,24.76-3.81,4.41,1.92,9,2,14.25.28-2.17-3.67-4.08-6.65-5.73-9.78-3-5.71-10.69-8.63-9.91-16.62,0-.38-.71-.95-1.21-1.24-3.78-2.22-7.57-4.71-12.08-4.78-8.43-.14-15.78-3.81-21.78-8.75-6.95-5.72-13.4-8.51-22.17-5.18-2.89,1.11-6.91,1.77-7.58-3.4,9.13-7.33,26.44-3.73,35.08,3.12,4.24,3.35,8.34,5.9,14.49,4.15a91.11,91.11,0,0,1-1.3-15.53c.19-9-3.08-12.41-12.08-12.28a66.56,66.56,0,0,0-13,1.86,29,29,0,0,1-8.31.37c-8-.57-15.47-6.56-23.95-2.4-.07,0-.29-.25-.69-.61-.9-7.43,6-6.64,10.1-8.76-4.82-8.26-14.19-11.22-26.4-8.45Zm265.29-173.5c5.3.16,5-.3,9.26-2.65,5.59-3.11,10.08-7.66,15.38-11,8.43-5.26,14.45-13,21.78-19.36a4.47,4.47,0,0,0,1.59-2.45c1.11-8.63,6.08-16,8.08-24.22.75-3.09,3.36-4.67,4.08-7.73,1.29-5.46-2.46-8.56-4.91-12.08-2.63-3.77-2.22-9.4-6.32-11.82a17.31,17.31,0,0,1-7.95-10.63c-1.77-6-5.83-10-9.5-14.68-2.73-3.48-6.11-6.41-8.55-10.12-7.33-11.14-14.58-22.33-22.11-33.33-6-8.8-11.63-17.89-18.32-26.27-4.66-5.83-5.14-14.65-13-18.46-.93-.45-1-2.53-1.66-3.72-2.17-3.84-3.81-7.73-8-10.42-9.52-6.07-20.46-8.06-30.73-11.87-7.8-2.89-16.73-3.72-23.62-8.11-9.08-5.77-19.72-4.5-28.93-8.78-1.51-.7-3.34.22-5.14,1.74a46.62,46.62,0,0,0-13,17.65c-.36.83-1.26,1.89-2,2-10.62,1.51-14.87,11.23-21.33,17.52-12,11.74-21,26.1-27.44,41.83-2.41,5.88-4.11,11.25.55,17,4.19,5.16,6.72,11.08,6.25,18.14-.18,2.66,1.83,5.09,3.88,7.1,6.93,6.8,10.18,15.25,11.36,24.78.66,5.34,1.18,11,6.17,14.62,1.51,1.1,1.07,2.8,1.38,4.34.75,3.69,2.76,6.53,5.5,9.37,2.12,2.2,3.64,1.54,5.67,1.38a3.09,3.09,0,0,1,3.18,1.31c2.34,4.68,7.15,5.3,11.28,6.82a81.28,81.28,0,0,1,15.19,7,70.92,70.92,0,0,0,11.5,5.49c3.56,1.41,8-.19,10.47,2.18,4.2,4.11,9.83,6.58,13.12,11.67a5.07,5.07,0,0,0,3.81,2.67c9.28.62,16.4,6.5,24.3,10.31,7,3.37,14.2,5.53,21.46,7.88,8.29,2.7,16.51,5.81,23.89,10.4C421,357.68,424.83,360.59,430.11,359.43Zm172,137c-.21-11.6,1.32-21.88.24-32.22a14.4,14.4,0,0,0-2.19-6.13c-3.81-6.23-9.73-9.47-16.59-8.57A17.3,17.3,0,0,0,568.84,462c-3.93,13.13-1.48,26.3.06,39.6C580.8,503.35,590,494.07,602.14,496.43Z"/><path class="a" d="M634.52,505.64v93.78a10.81,10.81,0,0,1-2.81.88c-9.69.2-15.45,7.69-19,14.17-5.27,9.5-13.47,13.36-21.94,17.84-1.63.86-3.46,1.93-2.67,4.09,1.42,3.85-1,6.92-1.48,10.67-3.89.69-6.7,3.31-9.93,5.11-7.12,4-15.16,4.56-23.14,3-5.89-1.18-11.55-.39-17.23.91-1.52.35-3.92,1-3.69,2.55,1.14,7.69-6.14,9.37-9.49,13.79-1.47,2-3.06,3.79-3.37,6.21-1,7.64-5,13.79-9.23,19.88-1.67,2.41-3.59,4.38-7,3.22a2.66,2.66,0,0,0-1.76,0c-16.62,6.67-33.47,3-50.27,1.11-1.76-.21-3.52-1-5,.2-1.67,1.74.12,3.52-.33,5.19-.39.2-.8.61-1.07.53-8-2.45-11.45,3.89-15.79,8.34-2.69,2.76-5.32,4.79-9.6,5.18-5.56.5-9.29,4.52-11.22,9.67-1.61,4.27-3.47,8.53-3.52,13.67H266.47c-1.2-2.67.46-3.9,1.88-5.36,2.88-2.94,5.19-6,3.85-10.69-1-3.61,1.81-5.84,4.44-7.72,1.77-1.27,3.61-2.24,4.7-4.42,4.31-8.62,6.63-10,16.49-8.84,4.92.57,8.73-.1,10.48-5.52,1.88-.09,3.66-.25,5.44-.26,1.56,0,2.92-.48,3.35-2,2.8-10,5.11-20-.65-30.21,6.36-1.63,9.7-5.54,12.19-11.86,1.73-4.4,7.42-7.72,13.22-7.78,3.34,0,6.75-.45,10.09.83a10.15,10.15,0,0,0,5.31.3,288,288,0,0,0,38-9.6,43.44,43.44,0,0,1,29.33.67c1.89.7,3.68,1.75,5.67-.23.68-3.84-2.71-5-5-5.23-8.71-.69-17.05-5.51-25.93-3.11-7.75,2.11-16,2.24-23.31,6.14-5.3,2.82-5.44,2.56-18.43.59,2.49-7.12,5-14.15,7.41-21.23a6,6,0,0,1,5.07-4.48c6.51-.92,12.8-3.11,19.5-3.08,7.17,0,13.63-1.92,19.25-6.89,6.13-5.43,13.42-4.62,20.33-1.71a28.46,28.46,0,0,0,15.19,1.9c6.73-.86,13.54-1.13,20.31-1.71,2.38-.2,4.88-.18,7.1-.93a51.54,51.54,0,0,1,25.44-1.85c5.54.9,11.28.07,16.64-1.36a75.3,75.3,0,0,1,32.71-1.24c7.18,1.25,14.39.44,21.57.34,4.13-.06,7.42-2.92,10.34-5.6,5.6-5.15,7.5-5.71,13.64-1.83a64,64,0,0,0,11.86,5.69c2.12.78,4.15,1.36,6.19.36,1-2.64-.32-3.56-2.39-3.87C602,593,597,590.18,592.58,587c-6.23-4.52-12.12-3.6-17.51,0-9.44,6.25-19.23,4.53-28.87,2a32.87,32.87,0,0,0-14.7-.85c-14.38,2.76-28.93,3.3-43.48,3.9-1.74.08-3.61.33-5.5-1-.67-5.16-2.55-10.5,2-15.39,1.23-1.32,1.46-3.66,2-5.58,1.72-6.68,4.63-9.6,11.42-8.82,9.09,1.06,16.87-1.27,24.35-6.12,3.72-2.41,7.77-.93,11.57.35,7.53,2.52,13.9.82,19.24-5.28,7.57-8.64,17.73-10.45,28.27-5,2.4,1.24,4.79,1.94,7.37.68-.09-4-5.13-8.72-9.8-9.69-11.24-2.33-21.25,1-30.87,6.35a11.45,11.45,0,0,1-1.86.62,44.47,44.47,0,0,1,.94-17.33c1.72-7.15,15.55-16.24,23-15.58a18.72,18.72,0,0,0,11-2.06,28.07,28.07,0,0,1,16.09-3.66c2.19.15,4.55.42,6.58-.2,7.54-2.3,14.83-2.27,22,1.2C628.52,506.81,631.33,505.3,634.52,505.64Z"/><path class="a" d="M625.63,297.9c-4.33-.33-7.31,1.57-10.46,3.53-6.85-5.63-15.95-3.52-24.42-7.16,7.8-5.32,8.68-13.92,11.42-21.91,11.14,1.94,21.35-2.38,32.58-3.1V496.9c-6.22,3.61-11.17-.37-16.36-1.73-1.82-.48-1.39-2.66-1.5-4.21a89.35,89.35,0,0,1,.35-17.38c2.48-19.71-10-29.58-27.18-29.2-19.6.43-28.06,9.78-28.29,30.69-.1,8.59.67,17.14,1.28,26-6.56,1.95-10.85,5.36-12.73,12.28a9.14,9.14,0,0,1-10.42,6.9c-5.11-.63-10.15-.18-15.08-2.93-2.87-1.61-7-.73-10.55.12-9.7,2.31-18.65.31-27-4.79s-17.07-6.19-25.64-1.67a43.71,43.71,0,0,0-13.34,10.72c-3.71,4.56-8.24,5.56-13.13,5.52-6,0-11.84-.93-16.57-5.62-2.46-2.44-6.24-2.8-9.61-2-3.94.9-7-.21-10-2.66a9.05,9.05,0,0,0-9.36-1.81c-6.41,2-12.53-1.17-18.63-2.78-2.64-.69-5-2.39-7.54-3.58-4.33-2-8.81-2.84-13.33-.79-14,6.33-27.73,3.73-41.4-1.25-1.44-.53-2.07-1.76-3.09-3.05,5.74-2.15,7.68-6.31,8.49-12.34.53-4,3.77-8.16,6.92-11s6.62-6.64,12-5.43a3.42,3.42,0,0,0,2.33-.43c10.56-6.42,22.51-5.47,34.06-6.29,7.3-.52,12.1-4.77,16.71-9.5,5.43-5.59,11.75-10.23,16.84-16.19,2.25-2.63,6.07-1.68,8.93-3,6.52-3,13.32-3.75,20.44-3.55,11.8.33,23.14-1.25,32.4-9.71a11.48,11.48,0,0,1,4.69-2.59c8.73-2.26,13.81-9,19.3-15.29a11.4,11.4,0,0,0,3.24-7.55c.06-4.28,1.6-7.42,6.6-7.43a2.68,2.68,0,0,0,1.73-.41c7.34-7.62,15.83-2.48,23.6-1.61,6.65.75,11.23-2.76,16.05-5.47,4.15-2.33,7.08-1.44,11.08-.17,6.9,2.2,14.17,3.27,21.55,4.87,1-3.64,1-5.58-2.89-6-5.92-.69-11.56-1.95-16.66-5.78-4.62-3.48-15.28-1.83-20,2-4.36,3.57-10.44,3.83-13.63.34,4.08-3,5.89-7.25,6.67-12.06,1-6.19,5.51-10.84,7.13-16.84a35.76,35.76,0,0,0-.09-20.37c-1.47-5-2.31-11.93,3-16.25,2.92-2.39,2.32-7.68,7.06-8.16,12.23-1.23,24.2-6,36.83-1.95,4.06,1.31,8.71,1.09,13,.22a28.27,28.27,0,0,1,15.25,1A13.27,13.27,0,0,0,625.63,297.9Z"/><path class="a" d="M236.73,593.91c.13-2,.22-3.78.35-5.54.59-7.57-.33-7.69-7.49-10.64-8.3-3.42-17.11-1.1-25.32-3.73-1.72-6.37-5.09-9-11.62-9.62-7.71-.67-15.67-.44-22.51-5-2-1.28-3.89,0-5.75-.38-2.3-4.92.65-7,4.54-8.4,12.56-4.39,23.53-11.36,34.21-19.26,5.31-3.93,11.66-7.24,19.79-4.47a17.15,17.15,0,0,0,17.87-3.68c4.4-4.14,9.3-7.55,16.5-5.62a12.59,12.59,0,0,0,13.88-5,4.45,4.45,0,0,1,2.27-1.89c9.44-1.64,18.61-5.57,28.57-1.85,10.8,4,21.55,8.67,33.58,7.7a40.27,40.27,0,0,0,11.59-2.91,12.26,12.26,0,0,1,10.93.81c8.58,4.79,18.17,6.3,27.81,9.45.5,5-4,6.25-7.36,6.84-9.19,1.58-18.59,2-27.79,3.5-8.22,1.35-16,4.47-23.73,7.54-2.18.87-3.23,2.77-1.95,4.83s3.13,1.55,5.24.65c12.59-5.38,25.27-10.57,39.44-6.85,10.67,2.8,20.71-.09,30.44-3.79A47.13,47.13,0,0,1,427,534.12c10.26,2,21.17,1.85,29-8,4.3-5.4,10.9-7.91,17.13-10.27,3.73-1.42,7.95.62,11.54,2.09,5.89,2.42,12.19,3.23,18.12,5.54,5.53,2.16,11.28,3,17.45.45,5.24-2.15,9,4.34,14.76,3.51-.77,4.46-2.7,7.93-2,11.43a4.15,4.15,0,0,1-3,2.37c-13.61,4.66-25.88,12.77-40.19,15.63-3.55.71-5.89,3.35-7.85,6-3.12,4.28-4.53,9.72-9.41,12.86-1.61,1-1.79,3.56-2,5.53-1.4,16.57-5.2,14.37-18.45,15.12-13.56.76-27-1.85-40.51-1.78a7.68,7.68,0,0,0-5.43,1.78c-7.54,6.28-16.26,9.05-26.05,10.63s-20.87,3.49-21.92,17.47c-10.67-2-21,.57-31.23-1-2.44-.38-4.74-.93-6.6-2.54-3.69-3.18-8-5.07-12.48-6.92a7,7,0,0,0-6.71.38c-8.71,4.67-14.73,2.82-20.23-5.39-3.28-4.88-5.88-10.55-12.43-12.34-4-1.09-7.72-2.06-11.5.45a4.36,4.36,0,0,1-2.77.89c-3-.55-5.43-3.26-9-2.4C242.28,596.34,239.5,594.88,236.73,593.91Z"/><path class="a" d="M164.82,532.93V350.54c12.21-2.77,21.58.19,26.4,8.45-4.05,2.12-11,1.33-10.1,8.76.4.36.62.64.69.61,8.48-4.16,15.95,1.83,23.95,2.4a29,29,0,0,0,8.31-.37,66.56,66.56,0,0,1,13-1.86c9-.13,12.27,3.29,12.08,12.28a91.11,91.11,0,0,0,1.3,15.53c-6.15,1.75-10.25-.8-14.49-4.15-8.64-6.85-26-10.45-35.08-3.12.67,5.17,4.69,4.51,7.58,3.4,8.77-3.33,15.22-.54,22.17,5.18,6,4.94,13.35,8.61,21.78,8.75,4.51.07,8.3,2.56,12.08,4.78.5.29,1.24.86,1.21,1.24-.78,8,6.91,10.91,9.91,16.62,1.65,3.13,3.56,6.11,5.73,9.78-5.24,1.68-9.84,1.64-14.25-.28-10.6-4.63-16.26-3.58-24.76,3.81-5.87,5.11-13.33,4.69-20.58,4.09-2.18-.18-4.34-.73-6.51-.78a3.54,3.54,0,0,0-3.83,4.28c.3,2.36,2.12,3.25,4.48,1.92,1.9-1.08,4-.66,5.88-.25,8.77,1.94,16.81-.48,24-4.86,6.35-3.86,13-3.05,18.45-.69,11.52,5,22.76,3.08,34,.92,11.59-2.22,22.9-2.17,34.13,1.07,2.77,7.51,2.7,16.18,10.61,21-1.44,2-3.12.91-4.52,1a17.61,17.61,0,0,0-11.72,5.3c-7,6.77-13.74,13.93-23.19,17.61-3.21,1.25-5.4,4.3-7.11,7.16-1.89,3.18-4.2,3.89-7.44,3.13a10.58,10.58,0,0,0-11.67,4.08c-2.85,3.67-7.37,4.94-10.7,2.8-7.89-5.06-13.08-.12-16.91,4.69-4.89,6.12-10.61,5.85-17,5.56-3.39-.16-6.76-.57-10.12-.84-9.76-.77-16.3,5.7-24,9.71C181.42,533.06,173.54,532.86,164.82,532.93Z"/><path class="a" d="M430.11,359.43c-5.28,1.16-9.07-1.75-13.4-4.44-7.38-4.59-15.6-7.7-23.89-10.4-7.26-2.35-14.5-4.51-21.46-7.88-7.9-3.81-15-9.69-24.3-10.31a5.07,5.07,0,0,1-3.81-2.67c-3.29-5.09-8.92-7.56-13.12-11.67-2.42-2.37-6.91-.77-10.47-2.18a70.92,70.92,0,0,1-11.5-5.49,81.28,81.28,0,0,0-15.19-7c-4.13-1.52-8.94-2.14-11.28-6.82a3.09,3.09,0,0,0-3.18-1.31c-2,.16-3.55.82-5.67-1.38-2.74-2.84-4.75-5.68-5.5-9.37-.31-1.54.13-3.24-1.38-4.34-5-3.64-5.51-9.28-6.17-14.62-1.18-9.53-4.43-18-11.36-24.78-2.05-2-4.06-4.44-3.88-7.1.47-7.06-2.06-13-6.25-18.14-4.66-5.74-3-11.11-.55-17,6.47-15.73,15.4-30.09,27.44-41.83,6.46-6.29,10.71-16,21.33-17.52.76-.11,1.66-1.17,2-2a46.62,46.62,0,0,1,13-17.65c1.8-1.52,3.63-2.44,5.14-1.74,9.21,4.28,19.85,3,28.93,8.78,6.89,4.39,15.82,5.22,23.62,8.11,10.27,3.81,21.21,5.8,30.73,11.87,4.23,2.69,5.87,6.58,8,10.42.68,1.19.73,3.27,1.66,3.72,7.84,3.81,8.32,12.63,13,18.46,6.69,8.38,12.29,17.47,18.32,26.27,7.53,11,14.78,22.19,22.11,33.33,2.44,3.71,5.82,6.64,8.55,10.12,3.67,4.66,7.73,8.72,9.5,14.68a17.31,17.31,0,0,0,7.95,10.63c4.1,2.42,3.69,8.05,6.32,11.82,2.45,3.52,6.2,6.62,4.91,12.08-.72,3.06-3.33,4.64-4.08,7.73-2,8.26-7,15.59-8.08,24.22a4.47,4.47,0,0,1-1.59,2.45c-7.33,6.36-13.35,14.1-21.78,19.36-5.3,3.31-9.79,7.86-15.38,11C435.15,359.13,435.41,359.59,430.11,359.43ZM483,292c.71-2-.66-3.44-1.82-5.12-6.78-9.87-13.74-19.64-20-29.81-12.37-20-26.86-38.54-39.55-58.33-7.92-12.34-15.74-24.82-24.46-36.64-4.85-6.57-7.46-14.38-17.23-17.41-22.3-6.92-43.91-16-65.43-25.11-4.12-1.75-7.26-1.6-10.92,2.45a381.58,381.58,0,0,1-27.3,27c-14.1,12.73-26.33,26.39-32.31,45.11-1.91,6-1.64,10.65.92,15.66a407.88,407.88,0,0,1,23,53.74c4.54,13.27,12.1,20.72,24.81,26.34,34.55,15.28,68.1,32.75,102.84,47.69,11.71,5,23.57,9.86,34.41,16.77,2.73,1.74,5.31.54,7.48-1.69a160.6,160.6,0,0,1,19.27-17.14c10.73-8,18.76-17.63,22.11-30.88C479.86,300.34,482.85,296.71,483,292Z"/><path class="a" d="M602.14,496.43c-12.12-2.36-21.34,6.92-33.24,5.16-1.54-13.3-4-26.47-.06-39.6a17.3,17.3,0,0,1,14.76-12.48c6.86-.9,12.78,2.34,16.59,8.57a14.4,14.4,0,0,1,2.19,6.13C603.46,474.55,601.93,484.83,602.14,496.43Z"/><path d="M483,292c-.13,4.75-3.12,8.38-4.19,12.59-3.35,13.25-11.38,22.9-22.11,30.88a160.6,160.6,0,0,0-19.27,17.14c-2.17,2.23-4.75,3.43-7.48,1.69-10.84-6.91-22.7-11.74-34.41-16.77-34.74-14.94-68.29-32.41-102.84-47.69-12.71-5.62-20.27-13.07-24.81-26.34a407.88,407.88,0,0,0-23-53.74c-2.56-5-2.83-9.66-.92-15.66,6-18.72,18.21-32.38,32.31-45.11a381.58,381.58,0,0,0,27.3-27c3.66-4,6.8-4.2,10.92-2.45,21.52,9.14,43.13,18.19,65.43,25.11,9.77,3,12.38,10.84,17.23,17.41,8.72,11.82,16.54,24.3,24.46,36.64C434.27,218.49,448.76,237,461.13,257c6.29,10.17,13.25,19.94,20,29.81C482.32,288.52,483.69,289.91,483,292ZM258.71,173c2.82,7.79,6.56,14.65,9.1,21.82,6.65,18.82,14.8,37,22.5,55.35a8.82,8.82,0,0,0,4.36,4.62c13.59,7.18,27.45,13.85,41.18,20.73,34.57,17.32,69.53,33.86,105.71,51.38,10.38-10.83,21-21.9,31.61-33.05,1.88-2,3.86-3.95,1.64-7.28-9.75-14.61-19.19-29.44-29-44-16.13-24.06-33.15-47.52-48.52-72.08-7-11.21-14.11-21.85-28.61-23.91a8.74,8.74,0,0,1-1.63-.74c-17.68-6.85-35.38-13.63-53-20.58-3.08-1.21-5.25-.58-7.52,1.62C290.75,142.11,274.91,157.34,258.71,173ZM438.05,330.49,290.66,258.1a138,138,0,0,0-10.78,21.32C330.37,303,380.05,326.89,431,348.82,433.64,342.47,436.91,337.4,438.05,330.49ZM255.93,179.22c-2.92,6.21-5.13,11.34-7.71,16.27-1.91,3.65-1.89,6.93-.5,10.84,3.49,9.83,9.09,18.65,12.83,28.37,5,13,10.8,25.66,16.53,39.1,3.3-4.91,4.62-9.77,6.82-14.19,2.06-4.16,1.38-7.85-.12-12-4.48-12.41-9.94-24.4-14.88-36.61C264.78,200.85,260.63,190.72,255.93,179.22ZM439.81,340.86l1.23,1.4c7.8-7.06,15.29-14.49,23.5-21,6.38-5.1,6.26-12.41,8.56-19C461.19,314.51,445.77,323.72,439.81,340.86Z"/><path class="a" d="M258.71,173c16.2-15.62,32-30.85,47.82-46.15,2.27-2.2,4.44-2.83,7.52-1.62,17.64,6.95,35.34,13.73,53,20.58a8.74,8.74,0,0,0,1.63.74c14.5,2.06,21.6,12.7,28.61,23.91,15.37,24.56,32.39,48,48.52,72.08,9.79,14.59,19.23,29.42,29,44,2.22,3.33.24,5.29-1.64,7.28C462.6,305,451.94,316,441.56,326.86c-36.18-17.52-71.14-34.06-105.71-51.38-13.73-6.88-27.59-13.55-41.18-20.73a8.82,8.82,0,0,1-4.36-4.62c-7.7-18.36-15.85-36.53-22.5-55.35C265.27,187.61,261.53,180.75,258.71,173Z"/><path class="a" d="M438.05,330.49c-1.14,6.91-4.41,12-7.08,18.33-50.92-21.93-100.6-45.83-151.09-69.4a138,138,0,0,1,10.78-21.32Z"/><path class="a" d="M255.93,179.22c4.7,11.5,8.85,21.63,13,31.78,4.94,12.21,10.4,24.2,14.88,36.61,1.5,4.15,2.18,7.84.12,12-2.2,4.42-3.52,9.28-6.82,14.19-5.73-13.44-11.54-26.11-16.53-39.1-3.74-9.72-9.34-18.54-12.83-28.37-1.39-3.91-1.41-7.19.5-10.84C250.8,190.56,253,185.43,255.93,179.22Z"/><path class="a" d="M439.81,340.86c6-17.14,21.38-26.35,33.29-38.66-2.3,6.61-2.18,13.92-8.56,19-8.21,6.55-15.7,14-23.5,21Z"/></svg>