<svg xmlns="http://www.w3.org/2000/svg" viewBox="0 0 800 800"><defs><style>.cls-1{isolation:isolate;}.cls-2{fill:#fff;}.cls-2,.cls-3,.cls-4{stroke:blue;stroke-linejoin:bevel;stroke-width:3px;}.cls-3,.cls-5{fill:blue;}.cls-4{fill:none;}.cls-6{mix-blend-mode:multiply;}.cls-7{fill:red;}</style></defs><title>change w- me</title><g class="cls-1"><g id="Layer_1" data-name="Layer 1"><path class="cls-2" d="M507.23,344.87S493.7,362.22,493.7,390s19.15,50.11,32.57,65.87c1.54,1.64,3,3.32,4.48,5.06l0,0h0a106.38,106.38,0,0,1-84.72,173.92c-56.62-1.33-102.72-47.66-103.79-104.29A106,106,0,0,1,366.47,461h0l0,0c1.43-1.74,2.94-3.42,4.48-5.06,13.42-15.76,32.56-35.11,32.56-65.87S390,344.87,390,344.87"/><ellipse class="cls-2" cx="448.63" cy="344.87" rx="58.49" ry="8.24"/><path class="cls-3" d="M390.14,344.87H390l.14.15S390.14,344.92,390.14,344.87Z"/><path class="cls-3" d="M507.08,345.06l.15-.19h-.12A1.25,1.25,0,0,1,507.08,345.06Z"/><path class="cls-3" d="M349.52,489.91c.62.22,99.1,45.9,198.21,0a106.22,106.22,0,0,0-17-28.92h0l0,0c-1.44-1.74-2.94-3.42-4.48-5.06C512.85,440.13,493.7,417.83,493.7,390c0-23.15,9.37-39,12.51-43.72-4.82,3.87-28.76,6.8-57.58,6.8-28.15,0-51.64-2.8-57.23-6.52,3.44,4.62,12.15,18.76,12.15,43.44,0,30.76-19.14,50.11-32.56,65.87-1.54,1.64-3.05,3.32-4.48,5.06l0,0h0A106.22,106.22,0,0,0,349.52,489.91Z"/><path class="cls-3" d="M345.56,554.8h0c11.56,45.09,52.2,79,100.5,80.11A106.4,106.4,0,0,0,551.73,554.8C448.62,601.15,345.56,554.8,345.56,554.8Z"/><polyline class="cls-4" points="349.52 489.91 390.16 568.53 448.64 510.36"/><polyline class="cls-4" points="547.47 489.91 506.82 568.53 448.34 510.36"/><path class="cls-5" d="M274.33,338.93c-7.46-25.65,2-54.64,24.37-69.73a64.74,64.74,0,0,1,36.7-11.06c14.13.16,27.49,5.64,39.3,13.09,45.43,28.65,64.34,84,68.65,135,2.95,34.94.41,70-.84,105-.06,1.93,2.94,1.93,3,0,2.21-62.13,8.41-127.87-19.95-185.5-21.71-44.11-75-91.67-125.81-60.78-25.16,15.29-36.48,46.7-28.31,74.76a1.5,1.5,0,0,0,2.89-.8Z"/><path class="cls-5" d="M334.3,286.55c31.21-3.06,60.36,12.52,81,35.06,23.37,25.48,34.25,59.08,39.73,92.62,3.34,20.36,4.8,41,6.22,61.54.13,1.92,3.13,1.93,3,0-2.6-37.62-5.31-76.23-19.39-111.63-11.76-29.57-32.49-56.1-61.24-70.74-15.27-7.77-32.24-11.53-49.35-9.85-1.91.19-1.93,3.19,0,3Z"/><path class="cls-5" d="M505.5,272.06c-10.58,10.41-16.17,24.21-19.69,38.4a341.42,341.42,0,0,0-8.26,50.33c-3.11,33.65.78,69.34,21.38,97.24,1.13,1.54,3.74.05,2.59-1.51-19.92-27-23.91-61.21-21.14-93.79a340.14,340.14,0,0,1,7.95-50c3.4-14.23,8.68-28.15,19.29-38.6,1.38-1.36-.74-3.48-2.12-2.12Z"/><path class="cls-5" d="M390.81,165.82c19.24,34.31,38.68,69,50.56,106.65,12.19,38.66,15,79.39,14.35,119.71-.37,22.62-1.81,45.2-3.26,67.77-.13,1.93,2.87,1.92,3,0,2.64-40.94,5.25-82.14,1.47-123.1-3.67-39.62-14.71-77-31.78-112.84-9.69-20.36-20.72-40-31.75-59.71-.94-1.68-3.53-.17-2.59,1.52Z"/><path class="cls-5" d="M266.88,412.26a136.7,136.7,0,0,1-6.29-38.7c-.14-9.79.12-23.8,10.1-29.09,12.45-6.61,24,6.14,29.45,15.82a126.53,126.53,0,0,1,13.17,35.51c.4,1.89,3.3,1.09,2.89-.8-3.07-14.24-8.17-28.93-16.43-41.06-6.19-9.1-17.39-17.37-28.89-12.84-10,3.95-12.72,15.77-13.2,25.42A134.9,134.9,0,0,0,264,413.05c.57,1.84,3.46,1.06,2.89-.79Z"/><path class="cls-5" d="M275.41,343.36c8.63,10.73,14.23,24.4,12.65,38.35-1.49,13.17-9.38,26-22.64,29.61a1.51,1.51,0,0,0,.8,2.9c13.92-3.8,22.49-16.74,24.59-30.56,2.34-15.42-3.72-30.54-13.28-42.42-1.21-1.5-3.32.63-2.12,2.12Z"/><path class="cls-5" d="M284.59,397.41c9.75,5.84,21.31,5.07,31.21,0,1.71-.89.2-3.48-1.52-2.59-8.94,4.62-19.35,5.33-28.18,0a1.5,1.5,0,0,0-1.51,2.59Z"/><path class="cls-5" d="M273.71,410.87a24.18,24.18,0,0,0,27.8-8.83c1.13-1.57-1.47-3.07-2.59-1.51A21.18,21.18,0,0,1,274.51,408c-1.82-.65-2.61,2.25-.8,2.9Z"/><path class="cls-5" d="M329.32,258.2c11.52,3.22,13.95,15.67,11.36,25.95-.47,1.87,2.42,2.67,2.89.8,3-11.89-.33-26-13.45-29.64a1.5,1.5,0,0,0-.8,2.89Z"/><path class="cls-5" d="M352.8,260.91a24.58,24.58,0,0,1,4.12,24.47c-.67,1.82,2.23,2.6,2.89.8a27.62,27.62,0,0,0-4.89-27.39c-1.24-1.48-3.35.65-2.12,2.12Z"/><path class="cls-5" d="M371.64,269.44a26.61,26.61,0,0,1-1,19.44c-.79,1.75,1.8,3.28,2.59,1.52a29.78,29.78,0,0,0,1.31-21.76c-.59-1.83-3.48-1.05-2.89.8Z"/><path class="cls-5" d="M386.51,280.2a23.9,23.9,0,0,1-2.57,14.5c-.9,1.71,1.69,3.23,2.59,1.52a26.7,26.7,0,0,0,3-16c-.24-1.89-3.24-1.91-3,0Z"/><path class="cls-5" d="M399.22,292.45a19.42,19.42,0,0,1-3.56,9.49c-1.11,1.58,1.49,3.09,2.59,1.52a22.33,22.33,0,0,0,4-11c.17-1.93-2.83-1.91-3,0Z"/><path class="cls-5" d="M409.17,304.28a8.85,8.85,0,0,1-2.87,4.7c-1.46,1.26.67,3.38,2.12,2.12a11.49,11.49,0,0,0,3.64-6c.46-1.87-2.43-2.67-2.89-.8Z"/><g class="cls-6"><path class="cls-7" d="M269.65,335.72c-10.62.06-17.78,11-20.58,21.29a73.64,73.64,0,0,0,3,47.18c3.66,8.83,9.48,17.29,18.13,21.37a38.4,38.4,0,0,0,14.72,3.18c8.47.37,17.16-.9,24.71-4.78s13.87-10.52,16.3-18.65A37.51,37.51,0,0,0,327,391.55c-1.18-14.75-7.68-28.73-16.7-40.45-6-7.81-13.39-14.89-22.52-18.59s-20.22-3.54-28.23,2.2c-6.12,4.4-9.81,11.48-12,18.7a63.22,63.22,0,0,0,1.64,40.7"/></g></g></g></svg>