<svg xmlns="http://www.w3.org/2000/svg" xmlns:xlink="http://www.w3.org/1999/xlink" viewBox="0 0 800 800"><defs><style>.cls-1,.cls-3,.cls-6{fill:none;}.cls-2{isolation:isolate;}.cls-3{stroke:#000;}.cls-3,.cls-6{stroke-linejoin:bevel;stroke-width:8px;}.cls-4{mix-blend-mode:multiply;}.cls-5{fill:red;}.cls-6{stroke:red;}.cls-7{clip-path:url(#clip-path);}.cls-8{clip-path:url(#clip-path-3);}.cls-9{clip-path:url(#clip-path-4);}</style><clipPath id="clip-path"><polygon class="cls-1" points="1289.01 397.48 1285.87 400.22 1282.3 402.48 1279.03 405.18 1275.35 407.29 1271.65 409.36 1268.52 412.26 1264.89 414.43 1261.56 417.04 1258.07 419.43 1254.17 421.2 1250.9 423.9 1247.17 425.93 1243.95 428.71 1240.61 431.31 1236.67 433.04 1233.07 435.25 1230.12 438.43 1226.19 440.16 1222.7 442.55 1219.35 445.13 1215.85 447.51 1212.37 449.91 1208.78 452.13 1205.24 454.44 1201.69 456.73 1198.44 459.47 1194.67 461.44 1191.09 463.69 1187.94 466.58 1184.26 468.68 1180.96 471.36 1177.17 473.3 1173.62 475.6 1170.1 477.94 1166.97 480.85 1163.14 482.75 1159.61 485.1 1156.24 487.55 1152.1 487.28 1147.9 487.45 1143.69 487.62 1139.48 487.3 1135.28 487.52 1131.07 487.35 1126.87 487.41 1122.66 487.24 1118.46 487.34 1114.26 487.8 1110.06 487.86 1105.85 487.45 1101.65 487.35 1097.44 487.68 1093.23 487.92 1089.03 487.57 1084.83 487.08 1080.62 487.69 1076.42 487.32 1072.21 487.55 1068.01 487.24 1063.8 487.7 1059.6 487 1055.39 487.16 1051.18 487.3 1046.98 486.84 1042.77 487.51 1038.56 487.43 1034.35 487.26 1030.15 486.84 1025.93 487.25 1021.73 486.78 1017.52 486.67 1013.31 486.73 1009.1 487.02 1004.89 487.29 1000.68 487.52 996.47 487.36 992.27 486.73 988.06 486.63 983.85 487.26 979.65 486.8 975.43 486.72 971.23 487.14 967.02 486.5 962.8 487.17 958.59 486.56 954.38 486.79 950.17 486.64 945.96 486.85 941.74 486.72 937.52 487.24 933.13 486.89 935.1 482.92 936.49 478.88 938.55 475.14 940.48 471.35 942.39 467.55 943.77 463.5 945.64 459.68 947.55 455.88 949.73 452.21 950.69 447.97 953.01 444.36 954.57 440.4 956.32 436.52 957.81 432.52 959.9 428.8 961.32 424.78 963.83 421.25 965.5 417.34 967.3 413.49 968.68 409.44 970.57 405.63 972.53 401.85 974.5 398.07 975.84 394 977.57 390.12 979.35 386.25 980.93 382.29 982.65 378.4 985.1 374.84 986.67 370.88 988.6 367.08 990.51 363.28 991.62 359.11 994.02 355.52 995.25 351.4 996.82 347.44 998.96 343.74 1000.67 339.84 1002.56 336.03 1004.43 332.21 1005.76 328.13 1007.9 324.44 1009.63 320.54 1011.25 316.6 1013.02 312.73 1015.27 309.08 1016.83 305.1 1018.58 301.22 1020.13 297.25 1022.48 293.64 1023.96 289.63 1025.3 285.55 1027.73 282.27 1031.69 282.18 1035.94 281.7 1040.16 282.19 1044.39 282.22 1048.61 282.39 1052.84 282.65 1057.06 283.08 1061.29 283.07 1065.54 282.57 1069.76 283.13 1074 282.79 1078.2 283.68 1082.46 283.03 1086.66 283.95 1090.91 283.55 1095.14 283.77 1099.36 283.97 1103.59 284.36 1107.83 283.88 1112.05 284.48 1116.28 284.46 1120.51 284.84 1124.75 284.45 1128.97 284.75 1133.19 285.42 1137.43 285.12 1141.66 285.38 1145.9 285.13 1150.12 285.67 1154.35 285.6 1158.59 285.53 1162.81 285.93 1167.05 285.63 1171.27 286.05 1175.48 286.51 1179.72 286.29 1183.93 286.82 1188.17 286.57 1192.4 286.92 1196.63 286.96 1200.87 286.63 1205.1 286.75 1209.31 287.34 1213.55 287.43 1217.78 287.61 1221.99 288.11 1226.23 287.91 1230.45 288.28 1234.71 287.73 1238.91 288.61 1243.14 288.73 1247.39 288.25 1251.61 288.85 1255.86 288.38 1260.08 289.09 1264.32 289.01 1268.56 288.84 1272.77 289.53 1277 289.68 1281.26 289.05 1285.48 289.58 1289.7 290.04 1293.94 289.84 1298.19 289.73 1302.4 290.29 1306.63 290.62 1310.88 290 1315.09 290.9 1319.34 290.46 1323.57 290.78 1327.8 291.26 1332.04 291.11 1336.29 290.83 1340.5 291.62 1344.75 291.42 1348.98 291.79 1353.23 291.57 1357.51 291.83 1354.87 295.17 1352.61 298.7 1350.68 302.45 1348.44 306 1346.53 309.76 1343.91 313.07 1341.74 316.66 1339.12 319.97 1337.22 323.73 1334.7 327.1 1332.76 330.85 1329.95 334.03 1327.55 337.48 1325.65 341.25 1323.06 344.57 1321.38 348.48 1319.11 352.01 1316.77 355.49 1314.06 358.74 1312.14 362.5 1309.4 365.73 1307.13 369.26 1304.81 372.76 1302.61 376.34 1300.37 379.89 1298.69 383.81 1296.07 387.12 1293.46 390.44 1291.59 394.24 1289.01 397.48"/></clipPath><clipPath id="clip-path-3"><polygon class="cls-1" points="784.22 161.69 788.58 162.01 792.85 161.5 797.13 161.78 801.4 161.83 805.67 161.51 809.94 161.3 814.21 162.23 818.48 161.4 822.75 161.48 827.02 161.51 831.29 162.23 835.57 161.55 839.84 161.72 844.11 161.49 848.38 162.15 852.65 161.78 856.92 161.43 861.2 161.55 865.47 161.63 869.74 161.55 874.01 161.75 878.29 161.59 882.56 162.02 886.83 161.75 891.11 161.69 895.38 161.81 899.66 161.49 903.93 161.4 908.21 161.59 912.48 161.85 916.76 161.66 921.03 161.67 925.31 161.46 929.58 161.87 933.86 162.23 938.14 161.54 942.41 161.57 946.68 161.95 950.96 162.26 955.23 162.22 959.51 161.72 963.79 161.47 968.06 161.56 972.34 161.63 976.62 161.32 980.9 161.69 985.18 161.98 989.46 162.14 993.74 161.93 998.02 162.18 1002.09 162 1002.34 166.02 1001.87 170.26 1002.54 174.51 1002.31 178.75 1002.17 182.99 1001.95 187.22 1002.27 191.46 1002.59 195.7 1002.63 199.95 1001.91 204.19 1001.99 208.43 1002.4 212.67 1002.79 216.91 1002.6 221.16 1002.23 225.4 1002.18 229.64 1002.24 233.89 1002.25 238.13 1002.73 242.37 1002.64 246.62 1002.39 250.86 1002.04 255.1 1002.39 259.35 1002.34 263.59 1002.79 267.84 1002.03 272.08 1002.17 276.33 1002.54 280.57 1002.63 284.82 1002.05 289.06 1002.36 293.31 1002.12 297.56 1001.87 301.8 1002.2 306.05 1002.02 310.3 1002.52 314.54 1002.06 318.78 1002.62 323.03 1002.71 327.28 1002.54 331.52 1002.42 335.77 1002.24 340.02 1002.44 344.27 1002.1 348.52 1002.11 352.76 1002.01 357.01 1002.12 361.26 1002.56 365.52 1002.32 369.79 998.03 369.99 993.76 369.62 989.49 369.29 985.22 369.67 980.94 369.84 976.67 370.1 972.4 369.29 968.14 369.5 963.87 369.7 959.6 370.27 955.32 370.14 951.05 369.4 946.78 369.49 942.51 369.53 938.24 369.38 933.97 369.8 929.69 369.46 925.42 369.87 921.15 369.73 916.88 369.94 912.6 369.8 908.33 369.91 904.05 369.77 899.78 369.77 895.51 369.46 891.23 369.34 886.96 369.96 882.68 369.45 878.41 369.73 874.13 370.14 869.86 369.36 865.58 369.77 861.31 369.39 857.03 370.21 852.75 369.46 848.48 369.74 844.2 369.95 839.93 369.79 835.65 369.66 831.38 369.65 827.1 369.8 822.83 369.45 818.55 369.52 814.27 369.93 810 369.65 805.72 369.9 801.44 369.58 797.16 369.99 792.88 369.28 788.59 369.4 784.34 369.74 784.73 365.53 784.2 361.29 784.03 357.04 784.19 352.8 784.57 348.56 784.02 344.33 784.26 340.09 783.88 335.85 784.6 331.6 784.46 327.36 784.64 323.12 783.87 318.88 784.41 314.64 784.64 310.39 783.97 306.15 784.64 301.91 784.01 297.67 784.69 293.42 783.9 289.18 784.32 284.93 783.83 280.69 784.41 276.45 784.45 272.2 784.21 267.96 784.76 263.71 784.55 259.47 784.42 255.22 784.5 250.98 783.9 246.73 784.48 242.49 783.98 238.24 784.21 233.99 784.78 229.75 783.98 225.5 784.06 221.25 784.54 217.01 784.65 212.77 784.25 208.52 783.89 204.27 784.51 200.03 784.74 195.78 784.68 191.53 784.25 187.28 784.27 183.03 784.02 178.79 784.51 174.54 783.83 170.28 783.89 166.03 784.22 161.69"/></clipPath><clipPath id="clip-path-4"><polygon class="cls-1" points="784.38 369.85 788.58 370 792.85 370.1 797.13 369.53 801.4 370.14 805.67 369.6 809.94 369.98 814.21 369.36 818.48 370.17 822.75 369.52 827.02 369.94 831.29 369.45 835.57 369.67 839.84 370.13 844.11 369.96 848.38 369.65 852.65 369.28 856.92 370.06 861.2 369.93 865.47 370.18 869.74 370.27 874.01 369.98 878.29 369.94 882.56 370.25 886.83 369.43 891.11 369.29 895.38 369.29 899.66 370.23 903.93 369.96 908.21 369.48 912.48 369.8 916.76 369.75 921.03 369.93 925.31 370.13 929.58 369.71 933.86 369.68 938.14 370.16 942.41 370.26 946.68 369.9 950.96 370.17 955.23 370.18 959.51 369.96 963.79 369.62 968.06 369.78 972.34 370.01 976.62 370.12 980.9 369.39 985.18 369.82 989.46 369.46 993.74 370.1 998.02 369.43 1002.16 369.93 1002.38 374.02 1001.87 378.26 1001.84 382.51 1002.62 386.75 1002.36 390.99 1002.31 395.22 1002.56 399.46 1002.74 403.7 1002.46 407.95 1002.39 412.19 1002.78 416.43 1002.19 420.67 1001.97 424.91 1002.72 429.15 1001.84 433.4 1001.86 437.64 1002.73 441.89 1002.4 446.13 1001.93 450.37 1002.16 454.62 1002.64 458.86 1001.96 463.1 1002.42 467.35 1002.61 471.59 1002.48 475.84 1002.46 480.08 1002.21 484.33 1002.44 488.57 1002.52 492.82 1001.9 497.06 1002.8 501.31 1002.14 505.56 1002.1 509.8 1002.08 514.05 1002.48 518.3 1001.89 522.54 1002.52 526.78 1002.08 531.03 1002.45 535.28 1002.72 539.52 1002.44 543.77 1002.59 548.02 1001.97 552.27 1002.31 556.52 1002.22 560.76 1001.98 565.01 1002.48 569.26 1002.47 573.52 1002.29 577.75 998.03 578.17 993.76 577.42 989.49 577.42 985.22 577.4 980.94 578.23 976.67 577.68 972.4 578.24 968.14 577.38 963.87 578.11 959.6 577.95 955.32 578.18 951.05 577.3 946.78 578.27 942.51 577.55 938.24 577.64 933.97 577.36 929.69 577.35 925.42 577.77 921.15 577.39 916.88 577.69 912.6 578.21 908.33 578.02 904.05 577.54 899.78 577.32 895.51 578.05 891.23 578.25 886.96 578.25 882.68 577.46 878.41 577.67 874.13 577.63 869.86 577.4 865.58 577.96 861.31 578.07 857.03 577.6 852.75 577.88 848.48 577.61 844.2 577.56 839.93 578.23 835.65 577.6 831.38 578.17 827.1 577.57 822.83 578.05 818.55 577.98 814.27 577.87 810 578.09 805.72 578.24 801.44 577.94 797.16 578.18 792.88 577.34 788.59 577.29 784.04 578.05 784.54 573.53 784.79 569.29 783.94 565.04 784.35 560.8 784.08 556.57 784.42 552.33 784.17 548.09 784.25 543.85 784.71 539.6 783.84 535.36 784.05 531.12 784.5 526.88 784.26 522.64 784.25 518.39 783.98 514.15 784.29 509.91 784.49 505.67 784.15 501.42 784.81 497.18 784.38 492.93 784.43 488.69 784.76 484.45 784.74 480.2 784.7 475.96 783.99 471.71 784.4 467.47 784.69 463.22 784.14 458.98 784.07 454.73 784.58 450.49 784.76 446.24 783.81 441.99 784.39 437.75 783.85 433.5 784.15 429.25 784.73 425.01 784.26 420.77 783.98 416.52 784.16 412.27 784.17 408.03 784.51 403.78 784.62 399.53 784.5 395.28 784.59 391.03 784.76 386.79 783.91 382.54 784.71 378.29 784.48 374.03 784.38 369.85"/></clipPath></defs><title>cheree</title><g class="cls-2"><g id="Layer_1" data-name="Layer 1"><polygon class="cls-3" points="400.61 218.27 403.94 220.67 406.38 224.24 409.9 226.72 412.63 230 415.71 232.93 418.36 236.28 421.81 238.83 424.45 242.19 427.6 245.05 430.47 248.18 433.73 250.93 436.76 253.9 439.91 256.75 442.88 259.79 446.09 262.58 448.51 266.17 452.01 268.67 454.56 272.13 457.58 275.11 461.1 277.59 463.95 280.75 466.97 283.74 469.98 286.73 473.15 289.56 475.77 292.94 479 295.72 481.64 299.09 485.19 301.54 487.95 304.78 490.76 307.96 493.61 311.11 496.66 314.06 499.7 317.01 502.96 319.77 505.76 322.98 509 325.74 512.29 328.44 515.22 331.51 518.26 334.47 521.27 337.46 523.9 340.83 527.17 343.55 530.04 346.69 533.18 349.56 536.25 352.5 539.23 355.52 541.84 358.91 545.21 361.55 547.97 364.79 551.12 367.64 554.47 370.29 557.24 373.54 559.91 376.88 563.16 379.63 566.13 382.66 569.08 385.71 572.47 388.34 575.19 391.63 578.15 394.68 581.26 397.57 584.37 400.47 587.61 403.24 590.32 406.53 593.1 409.76 596.51 412.36 599.48 415.41 602.65 418.24 605.03 421.87 608.21 424.71 611.5 427.43 614.17 430.77 617.23 433.72 620.14 436.82 623.35 439.62 626.6 442.37 629.25 445.73 632.81 448.18 635.2 451.79 638.77 454.24 641.44 457.58 644.87 460.17 647.21 463.84 650.54 466.53 653.41 469.68 656.93 472.17 659.59 475.52 662.95 478.18 665.39 481.76 668.51 484.65 671.55 487.65 674.48 490.65 670.57 489.49 666.49 488.23 662.36 487.11 658.09 486.69 653.83 486.32 649.65 485.44 645.4 485.05 641.15 484.54 636.88 484.39 632.6 484.17 628.32 484.32 624.07 484.9 619.83 485.49 615.65 486.43 611.56 487.66 607.34 488.61 603.51 490.58 599.91 492.9 596.01 494.79 592.71 497.58 589.82 500.78 587.6 504.47 585.22 507.99 582.84 511.56 581.8 515.74 579.75 519.56 579.1 523.81 578.24 528.03 574.43 525.95 570.54 524.06 566.46 522.63 562.28 521.51 558.02 520.79 553.98 519.13 549.73 518.37 545.43 517.92 541.11 518.08 536.81 517.2 532.53 518.11 528.32 518.86 524.13 519.7 519.91 520.61 516.12 522.65 512.15 524.35 508.54 526.73 505.46 529.76 502.7 533.05 499.43 535.95 497.56 539.89 495.57 543.68 493.29 547.36 491.99 551.47 490.04 555.36 488.95 559.54 487.7 563.68 487.39 568.4 483.31 566.25 479.2 565.03 475.23 563.45 471.13 562.23 466.92 561.47 462.86 559.89 458.57 559.52 454.29 559.18 449.98 558.88 445.76 560.04 441.52 560.42 437.4 561.49 433.19 562.39 429.38 564.39 425.51 566.28 422.48 569.39 419.16 572.05 416.05 575.03 413.82 578.71 411.16 582.09 409.01 585.83 407.24 589.75 405.85 593.82 404.39 597.87 403.89 602.18 402.98 606.36 401.44 610.43 400.91 614.71 400.61 618.76 400.27 614.72 399.28 610.53 398.79 606.25 397.9 602.04 397.02 597.82 395.33 593.84 394.07 589.71 392.14 585.86 389.56 582.38 387.6 578.56 385.3 574.91 381.89 572.22 378.8 569.3 375.6 566.44 371.93 564.2 367.82 562.91 363.99 560.91 359.65 560.65 355.47 559.89 351.22 559.68 346.93 559.08 342.71 560.05 338.38 560.02 334.12 560.64 329.95 561.72 325.8 562.83 321.73 564.25 317.81 566.04 313.99 568.01 313.05 563.79 311.75 559.68 311 555.41 309.05 551.54 308.06 547.3 306.3 543.34 303.57 539.94 301.68 536.02 298.51 533.05 295.85 529.66 292.67 526.74 288.78 524.82 285.29 522.27 281.29 520.66 277.24 519.17 272.95 518.58 268.69 518.07 264.41 517.54 260.08 517.3 255.81 518.08 251.46 518.17 247.34 519.6 243.03 520.13 238.97 521.62 234.72 522.51 230.94 524.72 226.79 525.95 223.18 527.57 222.14 523.81 221.29 519.62 219.86 515.59 218.06 511.71 216.53 507.68 214.17 504.08 211.06 501.09 208.53 497.56 205.06 495 201.19 493.1 197.5 491.01 193.73 489.01 189.71 487.55 185.49 486.8 181.41 485.48 177.15 485.01 172.92 484.33 168.62 484.7 164.36 484.84 160.07 484.33 155.83 485.08 151.57 485.33 147.32 485.82 143.07 486.33 138.95 487.56 134.65 487.89 130.63 489.45 126.68 490.61 129.4 487.4 132.71 484.71 135.25 481.24 138.5 478.48 141.43 475.4 144.68 472.66 147.72 469.69 150.82 466.8 153.33 463.3 156.38 460.34 159.79 457.75 162.63 454.58 165.99 451.94 168.77 448.71 171.41 445.35 174.84 442.77 177.41 439.35 180.88 436.81 183.68 433.6 187.05 430.98 189.86 427.78 193.08 424.99 195.45 421.35 198.77 418.67 201.73 415.62 204.7 412.59 207.68 409.57 210.61 406.49 213.71 403.6 216.84 400.73 219.58 397.47 222.73 394.62 226.16 392.06 228.96 388.85 232.1 385.98 234.53 382.4 237.96 379.84 240.73 376.61 244.21 374.09 246.8 370.68 249.81 367.7 252.79 364.67 256.18 362.06 258.71 358.57 262.13 356 265.15 353.01 268.02 349.88 271.24 347.1 273.69 343.55 276.68 340.53 280.27 338.12 283.06 334.89 286.12 331.95 288.78 328.6 291.79 325.61 294.82 322.63 297.81 319.62 301.11 316.91 304.29 314.09 307.03 310.82 310.02 307.79 313.01 304.77 316.53 302.29 319.11 298.86 322.33 296.07 325.56 293.29 328.31 290.03 330.9 286.6 334.57 284.27 337.54 281.22 340.12 277.79 343.11 274.77 346.58 272.23 349.12 268.76 352.29 265.94 355.04 262.67 358.67 260.29 361.08 256.7 364.38 253.99 367.34 250.93 370.73 248.31 373.46 245.02 376.48 242.03 379.68 239.21 382.5 236.02 385.3 232.8 388.82 230.3 391.88 227.35 394.69 224.14 397.72 221.15 400.61 218.27"/><polyline class="cls-3" points="115.17 502.17 118.24 499.25 121.16 496.17 123.74 492.76 127.09 490.11 129.95 486.97 133.38 484.41 135.9 480.93 138.88 477.9 142.41 475.44 145.2 472.23 147.98 469.02 151.39 466.43 153.9 462.94 157.35 460.4 160.23 457.28 162.98 454.03 166.44 451.49 169.33 448.38 171.85 444.9 175.08 442.14 178.23 439.3 180.91 435.98 184.45 433.52 187.07 430.15 190.05 427.12 193.37 424.44 196.36 421.43 198.97 418.04 202 415.08 205.3 412.38 208.43 409.51 210.97 406.05 214.49 403.58 217.61 400.71 220.48 397.6 223.12 394.24 226.07 391.2 229.16 388.29 232.04 385.17 235.41 382.54 238.44 379.58 241.23 376.38 244.65 373.81 247.66 370.82 250.63 367.81 253.59 364.77 256.36 361.54 259.36 358.53 262.69 355.87 265.53 352.71 268.14 349.32 271.27 346.46 274.27 343.47 277.23 340.43 280.78 337.98 283.37 334.56 286.53 331.72 289.33 328.52 292.31 325.5 295.3 322.5 298.32 319.52 301.8 317 304.65 313.84 307.28 310.47 310.8 308 313.39 304.57 316.45 301.64 319.3 298.48 322.97 296.15 325.62 292.8 328.54 289.71 331.38 286.54 334.9 284.07 337.79 280.95 340.89 278.05 343.53 274.68 346.49 271.64 349.71 268.85 352.88 266.03 356.02 263.17 358.9 260.05 361.98 257.13 364.71 253.85 367.88 251.01 371.07 248.19 373.92 245.04 376.92 242.03 379.85 238.94 383.22 236.31 386.19 233.28 388.74 229.81 392.08 227.14 394.82 223.87 397.98 221 401 217.6 403.92 221.1 407.04 223.99 410.23 226.81 413.09 229.98 416.36 232.72 419.43 235.67 421.98 239.15 425.03 242.12 428.49 244.67 431.14 248.03 434.12 251.07 437.51 253.7 440.32 256.91 443.53 259.72 446.6 262.67 449.13 266.17 452.53 268.78 455.33 272 458.65 274.69 461.56 277.81 464.73 280.65 467.1 284.3 470.43 286.99 473.3 290.15 476.6 292.87 479.37 296.11 482.6 298.9 485.9 301.62 488.74 304.8 491.64 307.92 494.81 310.77 497.73 313.86 500.86 316.74 503.51 320.11 506.83 322.79 509.88 325.76 512.54 329.12 515.8 331.88 519 334.7 521.87 337.84 524.76 340.97 527.99 343.75 530.66 347.1 534.05 349.71 537.11 352.67 539.77 356.03 542.63 359.2 545.78 362.07 548.71 365.16 552.31 367.57 555.28 370.62 558.21 373.7 561 376.93 564.34 379.61 567.38 382.59 569.76 386.25 573.15 388.87 576.27 391.76 578.85 395.21 581.93 398.16 585.03 401.07 588.32 403.8 591.06 407.09 594.46 409.7 596.96 413.24 600.14 416.08 603.68 418.56 606.32 421.95 609.41 424.88 612.1 428.22 615.17 431.17 618.64 433.72 621.59 436.8 624.46 439.96 627.24 443.21 630.58 445.89 633.63 448.86 636.62 451.89 639.88 454.65 642.89 457.67 645.44 461.14 649 463.6 651.61 467.03 654.58 470.08 657.96 472.73 660.78 475.94 663.98 478.77 666.92 481.87 669.62 485.2 672.79 488.05 676.17 490.7 679.17 493.74 682.22 496.73 684.85 500.15"/><polyline class="cls-3" points="211.94 546.97 214.49 543.57 216.16 539.67 218.54 536.17 220.06 532.19 222.38 528.66 224.71 525.14 227.09 521.65 228.94 517.86 230.5 513.9 232.88 510.4 235.49 507.04 237.43 503.3 239.2 499.45 241.6 495.97 243.06 491.95 245.19 488.31 247.55 484.81 249.57 481.11 251.73 477.49 253.6 473.7 256 470.22 257.86 466.43 260.25 462.94 262.74 459.51 264.81 455.84 266.26 451.81 268.58 448.29 271.15 444.9 272.95 441.07 274.64 437.18 276.83 433.58 279.36 430.17 281.65 426.63 283.26 422.69 285.35 419.03 287.46 415.38 289.92 411.93 291.66 408.08 293.46 404.26 296.38 401.08 298.28 397.32 300.28 393.61 302.67 390.12 304.12 386.09 306.44 382.56 308.47 378.87 310.29 375.06 312.42 371.43 314.99 368.05 317.29 364.5 319.44 360.88 321.51 357.21 322.89 353.14 325.64 349.86 327.1 345.84 329.17 342.17 331.77 338.8 333.36 334.85 336.01 331.51 337.63 327.58 340.17 324.17 342.29 320.53 344.45 316.91 346.7 313.34 348.15 309.31 350.79 305.96 352.53 302.1 354.55 298.39 357.21 295.05 358.81 291.11 360.93 287.46 362.93 283.75 365.19 280.18 367.68 276.74 369.38 272.85 371.8 269.38 373.94 265.75 375.95 262.04 377.65 258.15 380 254.64 381.71 250.75 384.38 247.42 386.16 243.57 388.37 239.97 390.27 236.2 392.94 232.86 394.36 228.81 396.64 225.25 398.62 221.51 401 218.22 403.4 221.52 405.06 225.47 407.47 228.98 409.86 232.5 411.96 236.19 413.93 239.95 415.72 243.82 418.21 247.28 419.86 251.23 422.45 254.64 423.87 258.72 426.17 262.3 428.26 266 430.3 269.72 432.56 273.32 434.91 276.87 436.77 280.69 438.73 284.46 441.1 288 443.15 291.72 445.61 295.2 447.35 299.11 449.57 302.73 451.45 306.54 454.04 309.95 455.52 314 457.77 317.6 459.89 321.28 461.94 325 464.21 328.6 466.48 332.19 468.64 335.85 470.7 339.56 472.96 343.16 474.49 347.18 476.74 350.79 478.82 354.48 481.66 357.74 482.94 361.9 485.17 365.51 487.41 369.12 489.3 372.94 491.98 376.3 494.28 379.87 495.61 384 498.32 387.33 500.01 391.26 502.44 394.76 504.32 398.57 506.63 402.15 509.06 405.65 510.87 409.5 512.77 413.31 514.68 417.11 517.02 420.66 518.97 424.45 521.15 428.09 523.77 431.48 525.33 435.49 527.91 438.91 529.66 442.8 532.11 446.29 534.19 450 536.21 453.74 537.91 457.66 540.43 461.11 542.74 464.69 544.87 468.36 546.29 472.45 548.42 476.13 551.36 479.35 553.24 483.17 555.2 486.94 557.27 490.65 559.05 494.53 561.45 498.05 564 501.49 565.78 505.37 568.24 508.86 570.19 512.64 572.5 516.22 574.26 520.11 576.51 523.72 578.85 527.29 580.54 531.22 583.04 534.69 585.18 538.37 586.62 542.45 588.78 546.12"/><polyline class="cls-3" points="307.41 589.1 308.21 584.92 309.23 580.79 309.8 576.55 310.84 572.43 312.55 568.48 313.18 564.25 314.77 560.28 315.38 556.05 316.53 551.96 317.43 547.8 318.61 543.71 319.82 539.63 320.75 535.48 321.72 531.34 322.59 527.18 323.61 523.05 324.86 518.98 325.9 514.86 327.3 510.83 328.1 506.65 328.78 502.43 330.25 498.42 330.96 494.21 331.72 490.02 333.39 486.06 334.04 481.84 335.18 477.74 335.92 473.54 337.3 469.51 338.04 465.31 338.99 461.17 340.82 457.24 341.79 453.1 342.54 448.9 343.62 444.79 344.47 440.62 345.96 436.61 346.6 432.39 347.82 428.31 349.06 424.24 349.93 420.07 350.77 415.9 351.57 411.71 352.96 407.68 354.07 403.58 355.34 399.52 356.5 395.43 357.14 391.21 358.46 387.16 359.42 383.02 360.61 378.93 360.99 374.65 362.12 370.55 363.42 366.5 364.61 362.41 365.51 358.25 366.4 354.09 367.69 350.03 368.23 345.78 369.35 341.68 370.25 337.52 371.9 333.55 372.71 329.37 373.91 325.29 374.42 321.03 375.59 316.94 376.55 312.79 378.17 308.81 379.51 304.76 380.53 300.63 380.84 296.32 382.14 292.26 383.11 288.12 383.84 283.92 385.35 279.91 386.55 275.82 387.22 271.61 388.67 267.58 389.74 263.47 390.3 259.22 391.17 255.05 393.06 251.14 393.75 246.92 394.38 242.69 395.71 238.64 396.69 234.49 398.08 230.45 398.45 226.15 400.28 222.22 401.01 218.44 402.31 222.01 403.48 226.06 403.61 230.37 405.49 234.24 405.9 238.47 406.85 242.58 408.27 246.56 409 250.72 409.85 254.84 411.46 258.78 412.36 262.9 412.82 267.12 413.76 271.23 415.1 275.23 415.9 279.37 417.47 283.32 418.35 287.44 419.59 291.47 420.2 295.65 421.5 299.67 422.38 303.79 423.04 307.97 423.93 312.08 425.27 316.09 425.86 320.28 427.05 324.32 427.86 328.46 429.77 332.33 430.64 336.45 431.34 340.61 431.98 344.79 433.1 348.85 434.32 352.89 434.88 357.09 436.41 361.05 437.25 365.18 438.62 369.18 439.18 373.38 440.52 377.39 441.71 381.44 442.78 385.51 442.99 389.79 444.1 393.86 445.28 397.9 446.23 402 447.22 406.09 448.65 410.07 449.09 414.3 450.43 418.3 451.5 422.38 452.98 426.35 454.02 430.43 454.91 434.55 455.5 438.74 456.88 442.73 457.17 447 458.9 450.91 459.91 455 461.02 459.06 462.07 463.14 462.61 467.35 463.8 471.39 464.29 475.61 465.35 479.69 466.77 483.68 467.74 487.78 469.07 491.79 469.6 496 470.55 500.1 471.64 504.17 472.46 508.31 473.5 512.39 474.96 516.37 475.83 520.5 477.05 524.54 478.23 528.59 478.48 532.87 479.93 536.85 480.91 540.95 481.64 545.11 482.53 549.23 483.43 553.35 485.31 557.23 485.66 561.49 486.82 565.54 488.25 569.53 489.4 573.59 490.25 577.73 491.29 581.83 491.62 586.09"/><polyline class="cls-3" points="401.21 218 401.04 222.23 400.86 226.47 401.07 230.7 400.53 234.93 401.01 239.17 401.26 243.4 401.37 247.64 400.56 251.87 401.18 256.11 400.54 260.35 401.01 264.58 401.01 268.81 401.22 273.05 401.21 277.28 401.08 281.52 400.91 285.75 401.21 289.99 400.92 294.22 401.38 298.46 400.8 302.7 401.5 306.93 401.4 311.17 401.2 315.4 401.29 319.64 400.56 323.87 400.92 328.11 400.72 332.35 400.72 336.58 401.35 340.82 401.01 345.06 400.84 349.29 400.93 353.52 401.04 357.76 400.89 362 400.78 366.24 400.93 370.47 400.97 374.71 400.55 378.94 401.07 383.18 400.62 387.42 401.46 391.66 400.79 395.89 401.36 400.13 401.06 404.37 401.4 408.6 401.3 412.84 400.78 417.08 400.72 421.31 401.34 425.55 400.94 429.79 401.11 434.03 401.03 438.26 400.79 442.49 401.41 446.72 400.59 450.96 400.74 455.19 400.75 459.43 401.44 463.67 400.58 467.9 401.45 472.13 400.84 476.37 400.61 480.6 400.94 484.84 400.62 489.08 401.33 493.31 401.15 497.55 401.34 501.79 400.72 506.03 401.31 510.26 400.52 514.5 401.28 518.74 400.56 522.98 401.31 527.22 401.37 531.45 401.21 535.69 400.64 539.93 400.67 544.17 400.62 548.41 401.37 552.65 400.5 556.89 400.82 561.13 401.11 565.37 400.7 569.61 400.8 573.85 400.94 578.09 400.82 582.32 400.72 586.57 401.29 590.8 401.15 595.04 400.94 599.29 401.43 603.53 401.38 607.77 400.54 612.01 400.72 616.26 401.2 620.5 401.35 624.75 401.3 629"/><polygon points="365.15 254.03 367.87 256.77 371.4 258.97 375.17 260.72 378.71 262.86 382.69 264.05 386.27 266.31 390.37 267.1 394.51 267.41 398.57 267.97 402.68 268.3 406.85 268.57 410.82 267.21 414.82 266.3 418.88 265.36 422.71 263.74 426.02 261.18 429.55 259.05 432.97 256.71 436.12 253.79 432.57 251.02 428.81 248.61 425.49 245.62 421.65 243.32 418.23 240.46 414.49 238.02 410.95 235.28 406.35 235.32 401.77 234.91 397.18 235.1 392.59 235.62 388.1 235.62 384.64 237.91 381.2 240.37 378.26 243.47 374.78 245.9 371.4 248.45 368.38 251.44 365.15 254.03"/><polygon class="cls-3" points="365.15 254.03 367.87 256.77 371.4 258.97 375.17 260.72 378.71 262.86 382.69 264.05 386.27 266.31 390.37 267.1 394.51 267.41 398.57 267.97 402.68 268.3 406.85 268.57 410.82 267.21 414.82 266.3 418.88 265.36 422.71 263.74 426.02 261.18 429.55 259.05 432.97 256.71 436.12 253.79 432.57 251.02 428.81 248.61 425.49 245.62 421.65 243.32 418.23 240.46 414.49 238.02 410.95 235.28 406.35 235.32 401.77 234.91 397.18 235.1 392.59 235.62 388.1 235.62 384.64 237.91 381.2 240.37 378.26 243.47 374.78 245.9 371.4 248.45 368.38 251.44 365.15 254.03"/><polyline class="cls-3" points="188.96 428.33 193.23 427.71 197.49 427.09 201.8 427.13 206.09 427.25 210.37 427.43 214.68 427.61 218.97 428.16 223.1 429.48 227.01 431.32 231.19 432.5 235.06 434.42 238.75 436.69 241.97 439.6 245.51 442.09 248.2 445.49 251.25 448.55 253.91 451.96 256.06 455.7 257.89 459.61 260.09 463.25 263.72 461.06 267.76 459.63 271.79 458.24 275.83 456.89 279.93 455.7 284.14 454.98 288.27 453.92 292.55 453.87 296.77 453.28 301.01 453.61 305.34 453.27 309.39 454.75 313.33 456.32 317.28 457.91 320.73 460.43 323.99 463.23 326.51 466.72 328.73 470.41 329.59 474.67 331.43 478.55 332.44 482.7 332.71 487.3 336.92 485.61 340.86 483.98 344.85 482.44 348.96 481.15 353.21 480.5 357.5 480.32 361.78 480.52 366 481.02 370.31 481.12 374.48 482.23 378.13 484.55 381.8 486.66 385.3 489.04 388.59 491.76 391.45 494.94 393.73 498.56 395.76 502.31 398.27 505.85 399.87 509.84 400.76 514.08"/><polyline class="cls-3" points="240.54 377.25 244.81 377.06 249.1 376.66 253.43 376.66 257.67 377.47 262.01 377.93 266.06 379.51 270.05 381.22 273.54 383.81 276.8 386.58 280.32 389.19 282.5 392.97 284.9 396.58 285.84 400.84 287.08 404.93 288.67 409.02 288.57 413.8 292.54 411.64 296.09 409.38 299.99 407.9 304.15 407.29 307.95 405.39 312.08 404.68 316.28 404.85 320.43 404.64 324.48 405.58 328.49 406.53 332.1 408.51 335.93 410.31 338.71 413.48 341.23 416.83 343.06 420.59 344.13 424.63 346.1 428.38 346.66 432.47 350.16 430.3 353.66 427.98 357.71 426.81 361.66 425.51 365.45 423.63 369.69 423.57 373.78 422.39 377.94 423.15 382.04 423.91 385.86 425.58 389.41 427.78 392.15 430.93 394.5 434.32 397.13 437.6 398.68 441.49 399.85 445.49 401.06 449.49"/><polyline class="cls-3" points="275.58 342.38 279.72 341.92 283.88 341 288.09 341.42 292.31 341.71 296.46 342.58 300.17 344.66 304.12 346.19 307.16 349.12 309.71 352.4 312.32 355.75 313.51 359.82 314.46 363.93 314.68 368.29 318.76 366.46 322.89 365.03 327.13 363.92 331.48 363.35 335.87 363.3 340.26 363.69 344.32 365.39 348.5 366.82 351.57 369.99 354.15 373.45 355.9 377.39 357.69 381.35 358.45 385.86 362.48 383.84 366.13 381.47 370.12 379.73 374.25 378.32 378.56 377.51 382.92 378.07 387.11 378.73 391.36 379.74 394.84 382.45 397.38 386.03 399.08 390.05 400.35 394.2 401.31 398.46"/><polyline class="cls-3" points="314.11 303.82 318.44 303.51 322.77 303.27 326.99 304.32 330.81 306.25 333.89 309.09 336.53 312.39 337.41 316.54 337.98 320.72 338.51 324.58 342.02 323.28 346.04 322.28 350.13 321.61 354.26 321.72 358.39 321.86 362.08 323.67 365.47 325.79 368.23 328.78 369.66 332.6 370.96 336.54 374.47 334.22 378.26 332.4 382.38 331.5 386.59 331.48 390.6 332.63 393.88 335.09 396.73 337.96 399.67 341 401.02 344.99"/><polyline class="cls-3" points="343.55 274.81 347.69 274.26 351.75 275.57 354.56 278.71 356.92 282.18 357.52 286.34 357.43 290.85 361.19 288.5 365.05 287.01 369.23 287.24 373.25 287.08 377.28 288.17 379.62 291.62 381.32 295.72 384.88 293.31 388.68 292.15 392.61 292.4 396.1 294.13 399.38 296.53 400.56 300.44"/><polygon points="289.07 412.96 286.55 409.63 283.3 407.02 280.1 404.37 276.52 402.28 272.65 400.8 268.85 399.19 264.81 398.36 260.73 397.82 256.63 397.55 252.49 397.34 248.34 397.52 244.33 398.65 240.12 398.93 236.19 400.33 232.44 402.18 228.43 403.36 224.63 405.04 221.03 407.15 217.58 409.48 213.9 411.42 210.55 413.88 207.23 416.37 203.57 418.39 200.36 421.04 196.85 423.34 199.79 420.43 203.1 417.94 205.9 414.88 209.15 412.32 212.43 409.8 215.65 407.2 218.72 404.44 221.74 401.62 224.73 398.77 227.52 395.7 230.84 393.21 233.48 389.97 236.66 387.32 239.97 384.82 243.11 382.3 247.53 382.14 252.06 382.32 256.6 382.08 261.13 382.61 265.54 382.84 269.35 385.04 272.29 388.48 276.1 390.91 278.32 394.57 280 398.52 282.63 401.91 284.51 405.75 286.79 409.35 289.07 412.96"/><polygon class="cls-3" points="289.07 412.96 286.55 409.63 283.3 407.02 280.1 404.37 276.52 402.28 272.65 400.8 268.85 399.19 264.81 398.36 260.73 397.82 256.63 397.55 252.49 397.34 248.34 397.52 244.33 398.65 240.12 398.93 236.19 400.33 232.44 402.18 228.43 403.36 224.63 405.04 221.03 407.15 217.58 409.48 213.9 411.42 210.55 413.88 207.23 416.37 203.57 418.39 200.36 421.04 196.85 423.34 199.79 420.43 203.1 417.94 205.9 414.88 209.15 412.32 212.43 409.8 215.65 407.2 218.72 404.44 221.74 401.62 224.73 398.77 227.52 395.7 230.84 393.21 233.48 389.97 236.66 387.32 239.97 384.82 243.11 382.3 247.53 382.14 252.06 382.32 256.6 382.08 261.13 382.61 265.54 382.84 269.35 385.04 272.29 388.48 276.1 390.91 278.32 394.57 280 398.52 282.63 401.91 284.51 405.75 286.79 409.35 289.07 412.96"/><polygon points="260.13 462.91 256.39 460.81 252.41 459.43 248.5 457.89 244.54 456.52 240.53 455.26 236.32 454.84 232.23 453.94 228.16 452.82 224.01 452.02 219.8 451.84 215.58 452.02 211.4 452.57 207.22 452.79 202.99 452.59 198.85 453.29 194.75 454.21 190.54 454.62 186.57 456.05 182.5 457.07 178.72 458.97 174.54 459.82 170.77 461.71 167.16 463.87 163.11 465.2 159.39 467.19 156.24 470.1 152.27 471.7 149.28 474.76 145.67 476.94 142.3 479.46 139.02 482.1 136.35 485.44 133.28 488.31 136.13 485.03 139.05 481.83 142.49 479.2 145.47 476.07 148.7 473.2 151.73 470.12 155.22 467.53 157.98 464.16 161.07 461.15 164.31 458.29 167.6 455.48 171.12 452.92 173.78 449.43 176.94 446.5 180.42 443.89 183.34 440.68 186.76 438.01 190.1 435.24 192.99 431.97 197.07 432.01 201.14 432.25 205.21 432.12 209.28 432.3 213.35 431.99 217.42 431.57 221.56 431.71 225.27 433.98 229.27 435.44 232.95 437.63 237.12 438.83 240.18 441.71 242.91 444.84 245.55 448.06 248.41 451.07 251.58 453.78 254.34 456.9 256.96 460.15 260.13 462.91"/><polygon class="cls-3" points="260.13 462.91 256.39 460.81 252.41 459.43 248.5 457.89 244.54 456.52 240.53 455.26 236.32 454.84 232.23 453.94 228.16 452.82 224.01 452.02 219.8 451.84 215.58 452.02 211.4 452.57 207.22 452.79 202.99 452.59 198.85 453.29 194.75 454.21 190.54 454.62 186.57 456.05 182.5 457.07 178.72 458.97 174.54 459.82 170.77 461.71 167.16 463.87 163.11 465.2 159.39 467.19 156.24 470.1 152.27 471.7 149.28 474.76 145.67 476.94 142.3 479.46 139.02 482.1 136.35 485.44 133.28 488.31 136.13 485.03 139.05 481.83 142.49 479.2 145.47 476.07 148.7 473.2 151.73 470.12 155.22 467.53 157.98 464.16 161.07 461.15 164.31 458.29 167.6 455.48 171.12 452.92 173.78 449.43 176.94 446.5 180.42 443.89 183.34 440.68 186.76 438.01 190.1 435.24 192.99 431.97 197.07 432.01 201.14 432.25 205.21 432.12 209.28 432.3 213.35 431.99 217.42 431.57 221.56 431.71 225.27 433.98 229.27 435.44 232.95 437.63 237.12 438.83 240.18 441.71 242.91 444.84 245.55 448.06 248.41 451.07 251.58 453.78 254.34 456.9 256.96 460.15 260.13 462.91"/><polygon points="314.17 369.96 311.33 366.68 307.89 364.18 304.31 361.93 300.59 359.92 296.42 359.12 292.44 357.36 288.14 357.73 283.91 357.86 279.64 358.09 275.66 359.67 271.53 360.72 267.88 362.94 263.69 364.06 260.02 366.24 256.8 369.07 253.41 371.62 249.79 373.86 246.54 376.59 249.74 373.89 252.7 370.94 255.84 368.18 258.98 365.41 261.9 362.4 264.54 359.11 267.51 356.17 270.54 353.28 273.96 350.81 276.89 347.82 280.04 345.1 283.75 345.3 287.49 345.44 291.25 344.68 295.04 344.88 298.84 347.76 303.1 349.89 305.58 353.16 307.27 356.94 310.24 359.87 311.23 363.37 312.51 366.73 314.17 369.96"/><polygon class="cls-3" points="314.17 369.96 311.33 366.68 307.89 364.18 304.31 361.93 300.59 359.92 296.42 359.12 292.44 357.36 288.14 357.73 283.91 357.86 279.64 358.09 275.66 359.67 271.53 360.72 267.88 362.94 263.69 364.06 260.02 366.24 256.8 369.07 253.41 371.62 249.79 373.86 246.54 376.59 249.74 373.89 252.7 370.94 255.84 368.18 258.98 365.41 261.9 362.4 264.54 359.11 267.51 356.17 270.54 353.28 273.96 350.81 276.89 347.82 280.04 345.1 283.75 345.3 287.49 345.44 291.25 344.68 295.04 344.88 298.84 347.76 303.1 349.89 305.58 353.16 307.27 356.94 310.24 359.87 311.23 363.37 312.51 366.73 314.17 369.96"/><polygon points="337.83 324.09 334.73 321.59 330.87 320.25 326.74 319.4 322.56 320.02 318.51 321.09 314.31 321.62 310.28 322.82 306.62 324.99 302.54 326.12 298.68 327.79 294.99 329.81 291.06 331.37 287.61 333.83 283.73 335.52 280.13 337.77 283.53 335.11 286.94 332.5 290.01 329.44 293.35 326.72 296.85 324.2 300.56 321.95 303.86 319.17 307.25 316.52 310.02 313.09 313.52 310.56 317.15 308.47 322 308.24 326.96 308.17 330.81 310.2 332.73 313.5 334.07 317.21 336.33 320.46 337.83 324.09"/><polygon class="cls-3" points="337.83 324.09 334.73 321.59 330.87 320.25 326.74 319.4 322.56 320.02 318.51 321.09 314.31 321.62 310.28 322.82 306.62 324.99 302.54 326.12 298.68 327.79 294.99 329.81 291.06 331.37 287.61 333.83 283.73 335.52 280.13 337.77 283.53 335.11 286.94 332.5 290.01 329.44 293.35 326.72 296.85 324.2 300.56 321.95 303.86 319.17 307.25 316.52 310.02 313.09 313.52 310.56 317.15 308.47 322 308.24 326.96 308.17 330.81 310.2 332.73 313.5 334.07 317.21 336.33 320.46 337.83 324.09"/><polygon points="358.13 289.85 355.12 287 350.99 285.9 346.77 286.49 342.76 287.85 338.69 289.05 334.98 291.1 331.34 293.25 327.48 295.06 324.33 297.98 320.66 300.14 323.93 297.75 326.55 294.63 330.03 292.5 332.81 289.57 335.64 286.68 339.04 284.44 341.65 281.3 344.91 278.65 348.42 280.3 352.03 280.96 353.85 284.1 355.77 287.16 358.13 289.85"/><polygon class="cls-3" points="358.13 289.85 355.12 287 350.99 285.9 346.77 286.49 342.76 287.85 338.69 289.05 334.98 291.1 331.34 293.25 327.48 295.06 324.33 297.98 320.66 300.14 323.93 297.75 326.55 294.63 330.03 292.5 332.81 289.57 335.64 286.68 339.04 284.44 341.65 281.3 344.91 278.65 348.42 280.3 352.03 280.96 353.85 284.1 355.77 287.16 358.13 289.85"/><polygon points="371.82 263.34 367.82 263.01 363.92 264.69 360.02 266.44 356.52 268.89 353 271.32 349.79 274.2 352.99 271.31 356.19 268.43 358.87 265.04 362.23 262.31 365 258.99 368.29 261.33 371.82 263.34"/><polygon class="cls-3" points="371.82 263.34 367.82 263.01 363.92 264.69 360.02 266.44 356.52 268.89 353 271.32 349.79 274.2 352.99 271.31 356.19 268.43 358.87 265.04 362.23 262.31 365 258.99 368.29 261.33 371.82 263.34"/><polygon points="332.63 488.15 330.11 484.99 327.06 482.1 323.29 480.19 319.97 477.57 315.94 476.31 312.02 474.9 307.98 473.91 303.84 473.53 299.72 472.97 295.53 472.61 291.41 473.44 287.2 473.8 283.46 475.87 279.47 477.04 275.42 478.25 272 480.73 268.65 483.22 264.8 484.98 261.74 487.86 258.52 490.5 255.57 493.45 252.06 495.83 249.69 499.34 246.36 501.95 243.58 505.08 241.05 508.41 238.61 511.81 236.01 515.08 233.29 518.26 231.43 522.07 229 525.44 230.75 521.62 233.33 518.28 234.81 514.29 237.01 510.74 239.42 507.29 241.66 503.75 243.74 500.12 246.02 496.6 248.14 492.99 250.5 489.52 252.63 485.91 254.59 482.2 256.13 478.25 258.97 475.06 260.98 471.38 262.59 467.45 264.97 463.96 269.08 463.15 273.04 461.88 276.99 460.56 280.88 459.05 284.96 458.2 289.11 457.55 292.99 455.74 297.2 456.79 301.36 457.76 305.53 458.74 309.74 459.5 313.81 460.33 317.19 463.16 319.85 466.8 322.73 470.2 324.7 473.76 327.43 476.95 329.36 480.59 331.33 484.23 332.63 488.15"/><polygon class="cls-3" points="332.63 488.15 330.11 484.99 327.06 482.1 323.29 480.19 319.97 477.57 315.94 476.31 312.02 474.9 307.98 473.91 303.84 473.53 299.72 472.97 295.53 472.61 291.41 473.44 287.2 473.8 283.46 475.87 279.47 477.04 275.42 478.25 272 480.73 268.65 483.22 264.8 484.98 261.74 487.86 258.52 490.5 255.57 493.45 252.06 495.83 249.69 499.34 246.36 501.95 243.58 505.08 241.05 508.41 238.61 511.81 236.01 515.08 233.29 518.26 231.43 522.07 229 525.44 230.75 521.62 233.33 518.28 234.81 514.29 237.01 510.74 239.42 507.29 241.66 503.75 243.74 500.12 246.02 496.6 248.14 492.99 250.5 489.52 252.63 485.91 254.59 482.2 256.13 478.25 258.97 475.06 260.98 471.38 262.59 467.45 264.97 463.96 269.08 463.15 273.04 461.88 276.99 460.56 280.88 459.05 284.96 458.2 289.11 457.55 292.99 455.74 297.2 456.79 301.36 457.76 305.53 458.74 309.74 459.5 313.81 460.33 317.19 463.16 319.85 466.8 322.73 470.2 324.7 473.76 327.43 476.95 329.36 480.59 331.33 484.23 332.63 488.15"/><polygon points="346.71 432.14 343.57 429.51 339.6 428 335.78 426.17 331.6 425.43 327.48 424.55 323.28 424.17 319.05 423.82 314.88 424.62 310.7 425.19 306.73 426.62 302.47 427.2 298.75 429.29 294.79 430.83 291.53 433.62 287.8 435.61 284.68 438.47 280.86 440.48 278.3 443.95 274.99 446.59 272.14 449.71 269.38 452.9 266.37 455.92 268.59 452.32 271.46 449.2 273.71 445.63 275.96 442.07 278.83 438.94 281.26 435.5 283.67 432.05 285.84 428.43 287.85 424.7 290.83 421.63 292.68 417.7 296.1 415.8 299.18 413.57 302.08 411.19 305.82 410.57 309.67 410.29 313.39 409.17 317.19 408.57 320.95 408.34 324.92 409.85 329.09 411.1 333.17 412.78 335.19 416.26 337.38 419.53 339.99 422.5 342.66 425.41 344.34 429.05 346.71 432.14"/><polygon class="cls-3" points="346.71 432.14 343.57 429.51 339.6 428 335.78 426.17 331.6 425.43 327.48 424.55 323.28 424.17 319.05 423.82 314.88 424.62 310.7 425.19 306.73 426.62 302.47 427.2 298.75 429.29 294.79 430.83 291.53 433.62 287.8 435.61 284.68 438.47 280.86 440.48 278.3 443.95 274.99 446.59 272.14 449.71 269.38 452.9 266.37 455.92 268.59 452.32 271.46 449.2 273.71 445.63 275.96 442.07 278.83 438.94 281.26 435.5 283.67 432.05 285.84 428.43 287.85 424.7 290.83 421.63 292.68 417.7 296.1 415.8 299.18 413.57 302.08 411.19 305.82 410.57 309.67 410.29 313.39 409.17 317.19 408.57 320.95 408.34 324.92 409.85 329.09 411.1 333.17 412.78 335.19 416.26 337.38 419.53 339.99 422.5 342.66 425.41 344.34 429.05 346.71 432.14"/><polygon points="357.97 386.02 354.68 383.45 350.66 382.23 346.72 381.06 342.76 379.94 338.69 379.16 334.54 379.25 330.39 379.52 326.35 380.49 322.4 381.81 318.69 383.68 314.87 385.41 311.78 388.24 308.54 390.83 305.66 393.81 302.38 396.43 299.73 399.64 297.45 403.14 294.59 406.32 297.25 403.03 298.79 399.2 300.26 395.33 302.85 392.04 304.16 388.08 306.25 384.54 307.96 380.79 310.51 377.48 312.23 373.72 314.05 370.07 317.77 369.23 321.56 368.58 325.37 368.08 329.15 367.3 333.01 367.12 338.25 366.61 343.58 366.8 346.06 370.05 348.4 373.27 351.13 376.2 352.82 379.91 355.25 383.08 357.97 386.02"/><polygon class="cls-3" points="357.97 386.02 354.68 383.45 350.66 382.23 346.72 381.06 342.76 379.94 338.69 379.16 334.54 379.25 330.39 379.52 326.35 380.49 322.4 381.81 318.69 383.68 314.87 385.41 311.78 388.24 308.54 390.83 305.66 393.81 302.38 396.43 299.73 399.64 297.45 403.14 294.59 406.32 297.25 403.03 298.79 399.2 300.26 395.33 302.85 392.04 304.16 388.08 306.25 384.54 307.96 380.79 310.51 377.48 312.23 373.72 314.05 370.07 317.77 369.23 321.56 368.58 325.37 368.08 329.15 367.3 333.01 367.12 338.25 366.61 343.58 366.8 346.06 370.05 348.4 373.27 351.13 376.2 352.82 379.91 355.25 383.08 357.97 386.02"/><polygon points="371.81 338.03 368.08 336.4 363.96 335.57 359.81 334.88 355.54 334.74 351.5 336.15 347.23 336.86 343.76 339.46 340.06 341.54 336.8 344.26 333.85 347.31 330.57 350.07 327.63 353.19 325.19 356.7 322.66 360.15 320.4 363.79 323.27 360.48 324.95 356.46 327.01 352.66 329.61 349.19 331.58 345.33 334.16 341.85 336.06 337.95 338.46 334.36 340.76 330.7 343.14 327.18 346.62 325.85 350.39 325.21 354.01 324.09 357.62 324.3 361.24 324.63 364.7 325.14 366.64 328.16 368.76 331.25 370.18 334.74 371.81 338.03"/><polygon class="cls-3" points="371.81 338.03 368.08 336.4 363.96 335.57 359.81 334.88 355.54 334.74 351.5 336.15 347.23 336.86 343.76 339.46 340.06 341.54 336.8 344.26 333.85 347.31 330.57 350.07 327.63 353.19 325.19 356.7 322.66 360.15 320.4 363.79 323.27 360.48 324.95 356.46 327.01 352.66 329.61 349.19 331.58 345.33 334.16 341.85 336.06 337.95 338.46 334.36 340.76 330.7 343.14 327.18 346.62 325.85 350.39 325.21 354.01 324.09 357.62 324.3 361.24 324.63 364.7 325.14 366.64 328.16 368.76 331.25 370.18 334.74 371.81 338.03"/><polygon points="381.09 294.84 376.77 295.81 372.67 297.11 368.6 298.56 364.79 300.63 361.01 302.81 357.73 305.69 355.12 309.2 352.34 312.48 349.85 315.99 347.33 319.5 345.34 323.33 343.01 327 344.9 323.1 347.27 319.47 349.36 315.68 351.65 312 353.53 308.08 356.13 304.58 358.47 300.94 360.11 296.88 362.96 293.52 364.83 289.52 368.76 291.39 372.78 292.75 376.83 294.07 381.09 294.84"/><polygon class="cls-3" points="381.09 294.84 376.77 295.81 372.67 297.11 368.6 298.56 364.79 300.63 361.01 302.81 357.73 305.69 355.12 309.2 352.34 312.48 349.85 315.99 347.33 319.5 345.34 323.33 343.01 327 344.9 323.1 347.27 319.47 349.36 315.68 351.65 312 353.53 308.08 356.13 304.58 358.47 300.94 360.11 296.88 362.96 293.52 364.83 289.52 368.76 291.39 372.78 292.75 376.83 294.07 381.09 294.84"/><polyline points="364.58 283.8 367.57 280.96 369.76 277.51 372.69 274.67 376.1 272.45 379.74 270.73 383.7 270.25 387.68 270.52 383.94 269.93 380.58 268.15 377.15 266.59"/><polyline class="cls-3" points="364.58 283.8 367.57 280.96 369.76 277.51 372.69 274.67 376.1 272.45 379.74 270.73 383.7 270.25 387.68 270.52 383.94 269.93 380.58 268.15 377.15 266.59"/><polygon points="399.74 509.46 396.15 506.94 392.4 504.8 388.32 503.38 384.06 502.65 379.97 501.5 375.8 500.27 371.49 500.94 367.24 501.22 362.97 501.74 358.88 503.09 354.96 504.88 351.37 507.25 347.85 509.69 344.63 512.51 341.1 515.03 338.22 518.23 336.04 521.99 333.58 525.48 330.88 528.81 328.55 532.41 326.24 536.02 324.56 539.98 322.64 543.81 320.26 547.43 319.08 551.6 317.31 555.5 316.09 559.63 313.81 563.38 315.54 559.48 316.82 555.44 318.22 551.44 319.52 547.41 321.24 543.52 322.51 539.48 323.24 535.26 324.45 531.19 326.45 527.39 327.2 523.17 328.62 519.18 330.22 515.24 331.65 511.24 333.17 507.28 334.44 503.24 335.56 499.14 337.01 495.14 337.7 490.79 341.05 489.08 343.97 486.95 347.1 485.32 350.66 484.79 354.33 485 358 484.66 362.67 484.74 367.33 484.57 371.98 485.09 374.93 487.1 378.01 488.98 381.05 490.94 384.38 493.81 387.1 497.28 390.12 500.45 393.52 503.24 396.59 506.36 399.74 509.46"/><polygon class="cls-3" points="399.74 509.46 396.15 506.94 392.4 504.8 388.32 503.38 384.06 502.65 379.97 501.5 375.8 500.27 371.49 500.94 367.24 501.22 362.97 501.74 358.88 503.09 354.96 504.88 351.37 507.25 347.85 509.69 344.63 512.51 341.1 515.03 338.22 518.23 336.04 521.99 333.58 525.48 330.88 528.81 328.55 532.41 326.24 536.02 324.56 539.98 322.64 543.81 320.26 547.43 319.08 551.6 317.31 555.5 316.09 559.63 313.81 563.38 315.54 559.48 316.82 555.44 318.22 551.44 319.52 547.41 321.24 543.52 322.51 539.48 323.24 535.26 324.45 531.19 326.45 527.39 327.2 523.17 328.62 519.18 330.22 515.24 331.65 511.24 333.17 507.28 334.44 503.24 335.56 499.14 337.01 495.14 337.7 490.79 341.05 489.08 343.97 486.95 347.1 485.32 350.66 484.79 354.33 485 358 484.66 362.67 484.74 367.33 484.57 371.98 485.09 374.93 487.1 378.01 488.98 381.05 490.94 384.38 493.81 387.1 497.28 390.12 500.45 393.52 503.24 396.59 506.36 399.74 509.46"/><polygon points="399.85 443.92 395.87 442.02 392.33 439.69 388.26 438.58 384.07 438.31 379.94 438.29 375.73 438.19 371.58 439.07 367.82 441.01 364.23 443.22 360.72 445.59 358.12 448.97 355.23 452 352.64 455.28 349.92 458.51 347.45 461.93 345.72 465.79 343.94 469.59 341.64 473.15 340.36 477.19 338.99 481.17 337 484.98 338.12 480.95 338.61 476.83 339.67 472.81 340.27 468.71 341.19 464.66 342.05 460.61 342.28 456.43 342.79 452.31 344.09 448.34 345.06 444.3 345.04 440.08 346.04 436.05 346.79 431.8 351.12 430.7 355.41 430.08 359.48 428.54 363.69 427.57 367.97 426.72 372.75 426.81 377.5 426.58 382.25 427.24 387.06 426.88 389.55 430.38 391.93 433.88 394.74 437.08 397.05 440.64 399.85 443.92"/><polygon class="cls-3" points="399.85 443.92 395.87 442.02 392.33 439.69 388.26 438.58 384.07 438.31 379.94 438.29 375.73 438.19 371.58 439.07 367.82 441.01 364.23 443.22 360.72 445.59 358.12 448.97 355.23 452 352.64 455.28 349.92 458.51 347.45 461.93 345.72 465.79 343.94 469.59 341.64 473.15 340.36 477.19 338.99 481.17 337 484.98 338.12 480.95 338.61 476.83 339.67 472.81 340.27 468.71 341.19 464.66 342.05 460.61 342.28 456.43 342.79 452.31 344.09 448.34 345.06 444.3 345.04 440.08 346.04 436.05 346.79 431.8 351.12 430.7 355.41 430.08 359.48 428.54 363.69 427.57 367.97 426.72 372.75 426.81 377.5 426.58 382.25 427.24 387.06 426.88 389.55 430.38 391.93 433.88 394.74 437.08 397.05 440.64 399.85 443.92"/><polygon points="398.87 389.67 394.67 388.77 390.37 388.25 386.11 389.03 381.81 389.43 377.75 390.88 373.91 392.79 370.03 394.7 366.87 397.65 363.83 400.67 361.3 404.12 358.43 407.33 356.4 411.12 354.88 415.13 353.01 418.98 351.14 422.85 349.66 426.95 350.68 422.98 351.37 418.96 352.86 415.1 352.78 410.93 354.13 407.04 355.12 403.08 355.47 398.99 356.03 394.94 357.56 391.08 358.02 387.01 362.06 385.95 366.02 384.58 370.01 383.28 374.02 382.13 377.66 381.97 381.33 382.02 384.91 382.32 388.44 383.95 392.14 385.44 395.53 387.5 398.87 389.67"/><polygon class="cls-3" points="398.87 389.67 394.67 388.77 390.37 388.25 386.11 389.03 381.81 389.43 377.75 390.88 373.91 392.79 370.03 394.7 366.87 397.65 363.83 400.67 361.3 404.12 358.43 407.33 356.4 411.12 354.88 415.13 353.01 418.98 351.14 422.85 349.66 426.95 350.68 422.98 351.37 418.96 352.86 415.1 352.78 410.93 354.13 407.04 355.12 403.08 355.47 398.99 356.03 394.94 357.56 391.08 358.02 387.01 362.06 385.95 366.02 384.58 370.01 383.28 374.02 382.13 377.66 381.97 381.33 382.02 384.91 382.32 388.44 383.95 392.14 385.44 395.53 387.5 398.87 389.67"/><polygon points="398.97 340.17 394.76 340.38 390.71 341.03 386.93 342.7 383.13 344.5 380.53 347.86 377.71 350.85 375.09 354.02 372.29 357.1 369.63 360.34 367.9 364.15 366.46 368.07 363.88 371.44 362.93 375.56 360.95 379.23 359.13 382.99 358.34 387.08 359.2 382.93 360.52 378.89 361.76 374.84 363.1 370.8 364.1 366.67 364.98 362.51 365.91 358.36 367.37 354.36 368.82 350.36 369.97 346.27 370.37 341.96 372.13 338.14 376.37 336.8 380.58 335.06 385 333.9 388.58 335.32 392.11 336.78 395.28 339.04 398.97 340.17"/><polygon class="cls-3" points="398.97 340.17 394.76 340.38 390.71 341.03 386.93 342.7 383.13 344.5 380.53 347.86 377.71 350.85 375.09 354.02 372.29 357.1 369.63 360.34 367.9 364.15 366.46 368.07 363.88 371.44 362.93 375.56 360.95 379.23 359.13 382.99 358.34 387.08 359.2 382.93 360.52 378.89 361.76 374.84 363.1 370.8 364.1 366.67 364.98 362.51 365.91 358.36 367.37 354.36 368.82 350.36 369.97 346.27 370.37 341.96 372.13 338.14 376.37 336.8 380.58 335.06 385 333.9 388.58 335.32 392.11 336.78 395.28 339.04 398.97 340.17"/><polygon points="400.11 296.65 395.78 298.13 391.69 299.72 388.2 302.44 385.4 305.84 382.23 309.04 380.5 313.17 378.36 317.09 377 321.33 375.63 325.58 374.55 329.85 375.97 325.98 377.04 321.98 378.26 318.02 379.77 314.15 381 310.2 381.88 306.15 382.43 302.01 384.44 298.27 385.11 294.08 388.94 294.49 392.54 295.8 396.35 295.84 400.11 296.65"/><polygon class="cls-3" points="400.11 296.65 395.78 298.13 391.69 299.72 388.2 302.44 385.4 305.84 382.23 309.04 380.5 313.17 378.36 317.09 377 321.33 375.63 325.58 374.55 329.85 375.97 325.98 377.04 321.98 378.26 318.02 379.77 314.15 381 310.2 381.88 306.15 382.43 302.01 384.44 298.27 385.11 294.08 388.94 294.49 392.54 295.8 396.35 295.84 400.11 296.65"/><polyline points="398.05 272.17 394.63 273.95 392.04 276.85 389.1 279.59 387.54 283.26 387.13 287.23 385.57 290.95"/><polyline class="cls-3" points="398.05 272.17 394.63 273.95 392.04 276.85 389.1 279.59 387.54 283.26 387.13 287.23 385.57 290.95"/><polyline class="cls-3" points="613.26 428.36 609 427.71 604.69 427.68 600.44 427.01 596.14 426.9 591.88 427.56 587.59 427.83 583.38 428.71 579.15 429.52 575.08 430.94 571.36 433.16 567.41 434.84 563.58 436.82 560.36 439.71 556.74 442.11 553.89 445.36 551.43 448.91 548.33 451.96 546.06 455.63 543.89 459.37 542.13 463.18 538.4 461.31 534.4 459.82 530.53 458 526.42 456.81 522.23 455.99 518.04 455.24 513.88 454.42 509.7 453.69 505.47 453.01 501.19 452.92 496.98 453.81 492.75 454.44 488.6 455.59 485.1 458.14 481.73 460.68 478.38 463.35 475.96 466.87 473.59 470.45 471.84 474.38 471.05 478.61 470.45 482.82 469.58 487.41 465.49 485.18 461.55 483.49 457.29 482.78 453.2 481.51 448.95 481.09 444.71 480.81 440.45 480.13 436.23 480.93 432 481.45 427.79 482.32 423.89 484.12 420.01 485.99 416.58 488.61 413.4 491.52 410.8 494.95 408.37 498.47 406.21 502.16 404.3 506 402.47 509.88 401.69 514.14"/><polyline class="cls-3" points="561.69 377.27 557.43 376.82 553.14 376.82 548.85 377.01 544.48 377 540.34 378.33 536.09 379.29 532.17 381.2 528.7 383.81 525.23 386.36 522.27 389.5 519.73 392.96 517.47 396.64 515.56 400.55 515.18 404.94 513.91 409.07 513.45 413.32 509.81 411.41 506.02 409.69 502.24 407.93 498.36 406.35 494.17 405.92 490.16 404.67 485.95 405.01 481.78 404.24 477.76 405.59 473.61 406.17 469.72 407.81 466.85 410.94 463.59 413.53 461.16 416.92 459.7 420.83 458.18 424.65 456.11 428.37 455.63 432.64 451.9 430.61 448.51 428.11 444.59 426.64 440.59 425.49 436.66 424.14 432.55 423.55 428.44 423.32 424.3 423.21 420.25 424.07 416.56 425.92 413.15 428.19 409.91 430.78 407.67 434.27 404.9 437.5 403.18 441.34 402.23 445.44 400.92 449.43"/><polyline class="cls-3" points="526.64 342.47 522.59 341.13 518.35 341.56 514.15 341.58 509.9 341.55 505.75 342.5 502.06 344.66 498.05 346.08 494.94 348.99 491.91 351.98 489.79 355.69 488.95 359.88 487.88 363.94 487.57 368.31 483.35 366.81 479.18 365.65 474.96 364.74 470.7 363.98 466.38 363.95 462.12 364.48 458.02 365.68 453.92 367.1 450.87 370.18 447.7 373.21 445.63 377.1 444.54 381.35 443.76 385.77 439.89 383.59 436.1 381.48 431.91 380.33 427.91 378.64 423.63 377.86 419.29 377.36 415.14 378.78 411.24 380.35 407.74 382.77 405.47 386.39 403.14 390.04 402.31 394.3 400.83 398.45"/><polyline class="cls-3" points="488.05 304.14 483.77 303.95 479.5 303.64 475.23 304.27 471.51 306.4 467.88 308.68 465.69 312.38 464.55 316.49 463.99 320.71 463.91 324.88 460.02 323.9 456.09 322.75 452.14 321.28 447.96 321.07 443.96 322.41 439.9 323.14 436.43 325.43 434.08 328.82 431.85 332.36 431.35 336.83 427.51 334.73 423.84 332.8 419.86 331.48 415.67 331.69 411.77 332.96 408 334.65 405.42 337.89 402.57 341 401.13 344.96"/><polyline class="cls-3" points="458.77 274.3 454.63 274.75 450.57 275.71 447.78 278.79 445.64 282.3 444.42 286.31 444.67 290.58 440.88 288.93 436.99 287.77 433.05 286.71 429.02 287.26 425.23 288.56 422.48 291.53 420.86 295.48 417.47 293.04 413.56 292.15 409.54 292.04 405.79 293.67 403.03 296.65 401.42 300.32"/><polygon points="469 488.01 464.81 488.34 460.63 488.97 456.87 491 452.8 492.09 449.08 494.03 445.15 495.61 442.06 498.56 438.32 500.54 435.33 503.5 432.03 506.12 429.43 509.43 426.18 512.17 423.9 515.72 421.51 519.17 419.48 522.84 417.02 526.27 415.75 530.33 413.64 533.97 411.88 537.78 410.9 541.89 409.62 545.88 407.74 549.69 407.07 553.86 406.01 557.91 405.3 562.05 404.68 566.19 403.29 570.22 402.74 574.38 402.84 578.62 402.51 582.8 401.25 586.91 401.87 591.16 400.81 595.35 401.51 591.06 401.38 586.8 400.94 582.54 401.33 578.27 400.93 574.01 401.36 569.74 400.4 565.49 400.43 561.22 400.93 556.95 401.11 552.68 400.14 548.43 400.03 544.16 400.47 539.89 400.84 535.62 400.27 531.35 399.98 527.09 399.93 522.82 400.29 518.55 400.46 514.27 399.69 509.85 403.64 507.6 406.42 504.16 409.78 501.42 413.43 499.03 416.67 496.14 419.73 493.04 423.02 490.21 426.92 488.11 430.04 485.15 433.74 484.71 437.49 484.53 441.24 484.92 445.01 484.79 448.94 485.95 453.03 485.73 456.94 486.88 461.03 486.71 465.05 487.09 469 488.01"/><polygon class="cls-3" points="469 488.01 464.81 488.34 460.63 488.97 456.87 491 452.8 492.09 449.08 494.03 445.15 495.61 442.06 498.56 438.32 500.54 435.33 503.5 432.03 506.12 429.43 509.43 426.18 512.17 423.9 515.72 421.51 519.17 419.48 522.84 417.02 526.27 415.75 530.33 413.64 533.97 411.88 537.78 410.9 541.89 409.62 545.88 407.74 549.69 407.07 553.86 406.01 557.91 405.3 562.05 404.68 566.19 403.29 570.22 402.74 574.38 402.84 578.62 402.51 582.8 401.25 586.91 401.87 591.16 400.81 595.35 401.51 591.06 401.38 586.8 400.94 582.54 401.33 578.27 400.93 574.01 401.36 569.74 400.4 565.49 400.43 561.22 400.93 556.95 401.11 552.68 400.14 548.43 400.03 544.16 400.47 539.89 400.84 535.62 400.27 531.35 399.98 527.09 399.93 522.82 400.29 518.55 400.46 514.27 399.69 509.85 403.64 507.6 406.42 504.16 409.78 501.42 413.43 499.03 416.67 496.14 419.73 493.04 423.02 490.21 426.92 488.11 430.04 485.15 433.74 484.71 437.49 484.53 441.24 484.92 445.01 484.79 448.94 485.95 453.03 485.73 456.94 486.88 461.03 486.71 465.05 487.09 469 488.01"/><polygon points="456 432 451.75 432.49 447.66 433.8 443.45 434.58 439.29 435.69 435.62 437.98 431.46 439.29 427.8 441.56 424.9 444.86 421.09 446.99 418.08 450.08 415.93 453.86 412.79 456.88 411.12 460.88 408.6 464.39 407.27 468.49 405.71 472.47 404.65 476.61 403.84 480.8 402.89 484.97 401.5 489.1 401.18 493.4 400.94 497.69 401.26 502 401.64 497.9 401.39 493.75 401.99 489.67 402.38 485.57 402.35 481.44 402.96 477.35 403.67 473.27 403.79 469.15 403.8 465.02 404.32 460.93 404.7 456.82 405.12 452.72 405.24 448.6 405.98 444.51 405.82 440.36 406.41 436.44 410.06 434.3 413.73 431.89 417.38 429.43 421.07 427.16 425.5 426.6 430 427.14 434.45 427.39 438.73 428.21 443.18 428.59 447.42 429.87 451.77 430.66 456 432"/><polygon class="cls-3" points="456 432 451.75 432.49 447.66 433.8 443.45 434.58 439.29 435.69 435.62 437.98 431.46 439.29 427.8 441.56 424.9 444.86 421.09 446.99 418.08 450.08 415.93 453.86 412.79 456.88 411.12 460.88 408.6 464.39 407.27 468.49 405.71 472.47 404.65 476.61 403.84 480.8 402.89 484.97 401.5 489.1 401.18 493.4 400.94 497.69 401.26 502 401.64 497.9 401.39 493.75 401.99 489.67 402.38 485.57 402.35 481.44 402.96 477.35 403.67 473.27 403.79 469.15 403.8 465.02 404.32 460.93 404.7 456.82 405.12 452.72 405.24 448.6 405.98 444.51 405.82 440.36 406.41 436.44 410.06 434.3 413.73 431.89 417.38 429.43 421.07 427.16 425.5 426.6 430 427.14 434.45 427.39 438.73 428.21 443.18 428.59 447.42 429.87 451.77 430.66 456 432"/><polygon points="444.9 387.16 440.76 386.31 436.47 386.5 432.36 387.74 428.31 389 424.21 390.35 420.74 392.91 417.86 396.09 415.33 399.49 412.62 402.81 410.88 406.73 409.34 410.71 408.08 414.79 406.97 418.93 406.93 423.25 406.14 427.46 406.24 431.74 405.8 436 406.27 431.88 405.75 427.76 405.85 423.64 406.2 419.52 406.12 415.4 406.23 411.28 406.44 407.16 406.23 403.04 406.01 398.92 406.02 394.79 405.69 390.53 408.92 387.86 411.77 384.97 415.17 382.76 418.5 381.08 422.16 380.02 425.52 377.77 429.27 380.23 433.33 381.63 437.35 383.12 440.89 385.66 444.9 387.16"/><polygon class="cls-3" points="444.9 387.16 440.76 386.31 436.47 386.5 432.36 387.74 428.31 389 424.21 390.35 420.74 392.91 417.86 396.09 415.33 399.49 412.62 402.81 410.88 406.73 409.34 410.71 408.08 414.79 406.97 418.93 406.93 423.25 406.14 427.46 406.24 431.74 405.8 436 406.27 431.88 405.75 427.76 405.85 423.64 406.2 419.52 406.12 415.4 406.23 411.28 406.44 407.16 406.23 403.04 406.01 398.92 406.02 394.79 405.69 390.53 408.92 387.86 411.77 384.97 415.17 382.76 418.5 381.08 422.16 380.02 425.52 377.77 429.27 380.23 433.33 381.63 437.35 383.12 440.89 385.66 444.9 387.16"/><polygon points="430.04 337.93 425.93 339.06 422 340.73 418.45 343.14 415.83 346.53 413.57 350.1 411.57 353.79 409.65 357.56 407.93 361.47 407.28 365.68 406.88 369.9 405.85 374.05 405.88 378.3 405.63 382.53 405.63 386.77 405.53 390.99 406.46 386.93 406.08 382.85 405.98 378.78 406.06 374.7 406.45 370.63 405.7 366.55 406.2 362.48 406.38 358.4 405.59 354.32 405.55 350.25 406.22 346.17 405.88 342.08 406 338 409.95 336.66 413.98 335.5 417.88 333.93 421.94 335.27 425.95 336.69 430.04 337.93"/><polygon class="cls-3" points="430.04 337.93 425.93 339.06 422 340.73 418.45 343.14 415.83 346.53 413.57 350.1 411.57 353.79 409.65 357.56 407.93 361.47 407.28 365.68 406.88 369.9 405.85 374.05 405.88 378.3 405.63 382.53 405.63 386.77 405.53 390.99 406.46 386.93 406.08 382.85 405.98 378.78 406.06 374.7 406.45 370.63 405.7 366.55 406.2 362.48 406.38 358.4 405.59 354.32 405.55 350.25 406.22 346.17 405.88 342.08 406 338 409.95 336.66 413.98 335.5 417.88 333.93 421.94 335.27 425.95 336.69 430.04 337.93"/><polygon points="421.13 294.38 418 296.97 414.92 299.85 412.39 303.22 409.85 306.57 407.21 309.88 405.42 313.71 403.92 317.64 402.04 321.44 401.14 325.58 400.96 329.8 400.15 333.95 400.55 329.96 401.72 326.05 402.06 322.04 401.9 317.97 402.69 314.01 403.26 310.03 403.17 305.96 404.21 302.17 408.38 300.28 412.57 298.15 416.66 295.8 421.13 294.38"/><polygon class="cls-3" points="421.13 294.38 418 296.97 414.92 299.85 412.39 303.22 409.85 306.57 407.21 309.88 405.42 313.71 403.92 317.64 402.04 321.44 401.14 325.58 400.96 329.8 400.15 333.95 400.55 329.96 401.72 326.05 402.06 322.04 401.9 317.97 402.69 314.01 403.26 310.03 403.17 305.96 404.21 302.17 408.38 300.28 412.57 298.15 416.66 295.8 421.13 294.38"/><polyline points="411.03 272.05 407.79 275.08 405.14 278.76 404.15 283.18 403.09 287.52 402.97 292"/><polyline class="cls-3" points="411.03 272.05 407.79 275.08 405.14 278.76 404.15 283.18 403.09 287.52 402.97 292"/><polygon points="542.15 463.56 537.77 463.8 533.51 463.46 529.26 463.79 525.09 464.64 520.88 465.35 516.88 466.82 512.86 468.25 508.94 469.96 505.37 472.34 502.3 475.33 498.74 477.76 495.98 481.04 493.95 484.83 491.09 488.05 489.8 492.17 488.28 496.11 486.59 500 485.56 504.12 484.58 508.24 483.36 512.34 482.92 516.58 482.84 520.84 482.46 525.08 482.77 529.33 482.99 533.56 482.81 537.82 482.86 542.08 483.65 546.27 484.49 550.45 484.58 554.73 485.64 558.87 484.9 554.66 484.32 550.42 483.14 546.28 482.54 542.05 482.43 537.74 480.97 533.64 480.32 529.42 480.15 525.13 479.61 520.89 478.85 516.68 478.24 512.45 477.29 508.27 476.71 504.03 476.21 499.78 475.93 495.5 474.47 491.39 474.69 487.03 473.15 482.94 473.13 478.61 472.5 474.48 475.45 471.22 478.75 468.18 482.33 465.42 485.32 462.03 489.03 459.41 491.96 455.91 495.93 455.94 499.86 456.08 503.79 456.13 507.73 456.49 511.66 456.02 516.09 456.79 520.27 458.49 524.61 459.6 529.04 460.36 533.27 461.92 537.59 463.23 542.15 463.56"/><polygon class="cls-3" points="542.15 463.56 537.77 463.8 533.51 463.46 529.26 463.79 525.09 464.64 520.88 465.35 516.88 466.82 512.86 468.25 508.94 469.96 505.37 472.34 502.3 475.33 498.74 477.76 495.98 481.04 493.95 484.83 491.09 488.05 489.8 492.17 488.28 496.11 486.59 500 485.56 504.12 484.58 508.24 483.36 512.34 482.92 516.58 482.84 520.84 482.46 525.08 482.77 529.33 482.99 533.56 482.81 537.82 482.86 542.08 483.65 546.27 484.49 550.45 484.58 554.73 485.64 558.87 484.9 554.66 484.32 550.42 483.14 546.28 482.54 542.05 482.43 537.74 480.97 533.64 480.32 529.42 480.15 525.13 479.61 520.89 478.85 516.68 478.24 512.45 477.29 508.27 476.71 504.03 476.21 499.78 475.93 495.5 474.47 491.39 474.69 487.03 473.15 482.94 473.13 478.61 472.5 474.48 475.45 471.22 478.75 468.18 482.33 465.42 485.32 462.03 489.03 459.41 491.96 455.91 495.93 455.94 499.86 456.08 503.79 456.13 507.73 456.49 511.66 456.02 516.09 456.79 520.27 458.49 524.61 459.6 529.04 460.36 533.27 461.92 537.59 463.23 542.15 463.56"/><polygon points="512.86 413.35 508.85 413.55 504.74 414.32 500.57 414.94 496.57 416.26 492.57 417.58 488.69 419.24 485.37 421.91 481.75 424.02 478.54 426.73 475.49 429.63 473.29 433.22 470.97 436.66 468.82 440.24 467.22 444.11 466 448.11 464.88 452.15 464.08 456.29 463.97 460.51 464.17 464.71 464.63 468.89 464.72 473.09 465.69 477.19 466.25 481.36 465.26 477.28 464.38 473.17 463.39 469.09 462.31 465.03 462.21 460.76 461.33 456.65 459.84 452.67 459.34 448.48 458.78 444.31 457.71 440.24 457.33 436.02 455.54 431.92 458.04 428.44 460.47 425.12 462.23 421.38 465.02 418.29 467.04 414.7 469.11 411.22 472.94 410.18 476.82 409.06 480.67 407.79 484.49 406 488.63 407.16 492.74 407.9 496.69 409.36 500.81 410.06 504.9 410.92 509.06 411.59 512.86 413.35"/><polygon class="cls-3" points="512.86 413.35 508.85 413.55 504.74 414.32 500.57 414.94 496.57 416.26 492.57 417.58 488.69 419.24 485.37 421.91 481.75 424.02 478.54 426.73 475.49 429.63 473.29 433.22 470.97 436.66 468.82 440.24 467.22 444.11 466 448.11 464.88 452.15 464.08 456.29 463.97 460.51 464.17 464.71 464.63 468.89 464.72 473.09 465.69 477.19 466.25 481.36 465.26 477.28 464.38 473.17 463.39 469.09 462.31 465.03 462.21 460.76 461.33 456.65 459.84 452.67 459.34 448.48 458.78 444.31 457.71 440.24 457.33 436.02 455.54 431.92 458.04 428.44 460.47 425.12 462.23 421.38 465.02 418.29 467.04 414.7 469.11 411.22 472.94 410.18 476.82 409.06 480.67 407.79 484.49 406 488.63 407.16 492.74 407.9 496.69 409.36 500.81 410.06 504.9 410.92 509.06 411.59 512.86 413.35"/><polygon points="487.96 366.74 483.82 367.45 479.57 367.78 475.79 369.78 471.75 371.09 468.07 373.22 465.24 376.42 462.13 379.25 460 382.89 458 386.56 456.45 390.45 454.98 394.39 453.73 398.45 453.47 402.68 453.19 406.89 452.91 411.12 453.26 415.34 453.46 419.57 454.01 423.77 455.53 427.8 456.04 431.99 454.96 427.92 454.07 423.81 453 419.74 452.45 415.54 451.39 411.46 450.28 407.4 449.44 403.27 448.19 399.24 446.93 395.21 445.75 391.16 445.14 387.01 446.09 382.61 448.17 378.55 448.81 374 450.87 370.07 454.82 369.17 459.02 369.61 463.1 368.46 467.29 368.78 471.44 368.63 475.59 368.32 479.68 367.37 483.83 367.16 487.96 366.74"/><polygon class="cls-3" points="487.96 366.74 483.82 367.45 479.57 367.78 475.79 369.78 471.75 371.09 468.07 373.22 465.24 376.42 462.13 379.25 460 382.89 458 386.56 456.45 390.45 454.98 394.39 453.73 398.45 453.47 402.68 453.19 406.89 452.91 411.12 453.26 415.34 453.46 419.57 454.01 423.77 455.53 427.8 456.04 431.99 454.96 427.92 454.07 423.81 453 419.74 452.45 415.54 451.39 411.46 450.28 407.4 449.44 403.27 448.19 399.24 446.93 395.21 445.75 391.16 445.14 387.01 446.09 382.61 448.17 378.55 448.81 374 450.87 370.07 454.82 369.17 459.02 369.61 463.1 368.46 467.29 368.78 471.44 368.63 475.59 368.32 479.68 367.37 483.83 367.16 487.96 366.74"/><polygon points="458.68 318.36 455.84 321.97 452.44 324.76 449.85 328.27 447.79 332.12 445.49 335.81 443.86 339.85 441.77 343.71 440.92 348.01 440.09 352.27 439.37 356.56 438.88 360.89 439.41 365.24 439.28 369.59 439.95 373.89 440.81 378.18 440.23 373.93 439.8 369.66 438.97 365.44 438.46 361.18 438.76 356.83 437.42 352.66 437.86 348.3 437.42 344.03 437.02 339.76 435.72 335.58 435.29 331.31 435.3 327.07 439.08 325.52 442.88 323.8 446.82 322.49 450.8 321.27 454.95 320.47 458.68 318.36"/><polygon class="cls-3" points="458.68 318.36 455.84 321.97 452.44 324.76 449.85 328.27 447.79 332.12 445.49 335.81 443.86 339.85 441.77 343.71 440.92 348.01 440.09 352.27 439.37 356.56 438.88 360.89 439.41 365.24 439.28 369.59 439.95 373.89 440.81 378.18 440.23 373.93 439.8 369.66 438.97 365.44 438.46 361.18 438.76 356.83 437.42 352.66 437.86 348.3 437.42 344.03 437.02 339.76 435.72 335.58 435.29 331.31 435.3 327.07 439.08 325.52 442.88 323.8 446.82 322.49 450.8 321.27 454.95 320.47 458.68 318.36"/><polygon points="445.01 290.89 441.38 293.46 438.49 296.77 435.75 300.17 434 304.19 431.71 307.91 430.7 312.16 429.51 316.33 428.4 320.6 428.81 325 428.92 329.35 428.96 333.74 430.21 337.99 429.69 333.58 428.64 329.25 428.87 324.77 427.51 320.46 427.11 316.06 426.92 311.62 426.99 307.16 426.12 302.8 425.8 298.37 425.39 294.27 428.98 293.27 433 292.88 437.03 292.43 440.99 291.56 445.01 290.89"/><polygon class="cls-3" points="445.01 290.89 441.38 293.46 438.49 296.77 435.75 300.17 434 304.19 431.71 307.91 430.7 312.16 429.51 316.33 428.4 320.6 428.81 325 428.92 329.35 428.96 333.74 430.21 337.99 429.69 333.58 428.64 329.25 428.87 324.77 427.51 320.46 427.11 316.06 426.92 311.62 426.99 307.16 426.12 302.8 425.8 298.37 425.39 294.27 428.98 293.27 433 292.88 437.03 292.43 440.99 291.56 445.01 290.89"/><polyline points="425.26 264.26 423.07 267.49 421.56 271.16 420.81 275.06 419.72 278.98 419.46 283.04 420.73 286.97 421.01 291"/><polyline class="cls-3" points="425.26 264.26 423.07 267.49 421.56 271.16 420.81 275.06 419.72 278.98 419.46 283.04 420.73 286.97 421.01 291"/><polygon points="609.89 429.33 606.19 430.95 602.3 432.76 598.75 435.15 595.01 437.28 591.44 439.68 588.59 442.95 584.95 445.36 582.15 448.66 579.46 452.02 577.12 455.64 575.11 459.44 573.43 463.38 571.64 467.27 569.79 471.19 568.69 475.37 567.98 479.63 567.62 483.94 568.19 488.25 568.45 492.51 567.93 496.87 568.98 501.06 570.34 505.16 571.11 509.37 571.79 513.65 573.12 517.75 574.74 521.79 573.37 517.65 571.04 514.02 569 510.23 567.23 506.31 564.92 502.65 563.33 498.64 561.48 494.76 559.11 491.13 557.62 487.07 555.41 483.36 553.36 479.58 551.7 475.6 549.61 471.83 547.83 467.91 545.53 463.98 548.29 460.36 550.84 456.89 552.7 452.99 554.88 449.29 557.1 445.61 559.63 442.11 561.62 438.22 565.47 436.69 569.53 435.95 573.31 434.42 577.08 432.84 580.87 431.33 584.78 430.17 588.74 429.11 592.55 427.93 596.9 427.52 601.28 427.81 605.59 428.91 609.89 429.33"/><polygon class="cls-3" points="609.89 429.33 606.19 430.95 602.3 432.76 598.75 435.15 595.01 437.28 591.44 439.68 588.59 442.95 584.95 445.36 582.15 448.66 579.46 452.02 577.12 455.64 575.11 459.44 573.43 463.38 571.64 467.27 569.79 471.19 568.69 475.37 567.98 479.63 567.62 483.94 568.19 488.25 568.45 492.51 567.93 496.87 568.98 501.06 570.34 505.16 571.11 509.37 571.79 513.65 573.12 517.75 574.74 521.79 573.37 517.65 571.04 514.02 569 510.23 567.23 506.31 564.92 502.65 563.33 498.64 561.48 494.76 559.11 491.13 557.62 487.07 555.41 483.36 553.36 479.58 551.7 475.6 549.61 471.83 547.83 467.91 545.53 463.98 548.29 460.36 550.84 456.89 552.7 452.99 554.88 449.29 557.1 445.61 559.63 442.11 561.62 438.22 565.47 436.69 569.53 435.95 573.31 434.42 577.08 432.84 580.87 431.33 584.78 430.17 588.74 429.11 592.55 427.93 596.9 427.52 601.28 427.81 605.59 428.91 609.89 429.33"/><polygon points="559.01 379.62 555.6 382.63 552.67 385.79 549.36 388.58 547.11 392.31 544.6 395.78 542.18 399.3 539.51 402.71 538.01 406.76 536.01 410.56 534.25 414.51 533.62 418.8 532.22 422.92 532.45 427.27 532.19 431.54 532.04 435.85 532.79 440.09 533.93 444.23 534.88 448.4 536.6 452.33 537.7 456.53 539.78 460.31 542.39 463.85 539.88 460.45 538.76 456.44 536.68 452.87 535.1 449.07 533.07 445.47 531.48 441.68 529.83 437.9 528.54 433.96 525.97 430.62 524.23 426.89 523.27 422.8 520.89 419.36 519.4 415.52 517.75 411.73 515.73 408 517.46 404.3 519.35 400.81 521.04 397.22 523.27 393.9 524.64 390.15 526.72 386.73 530.72 385.68 534.84 385.27 538.89 384.49 542.91 383.62 546.94 382.77 550.96 381.88 554.88 380.53 559.01 379.62"/><polygon class="cls-3" points="559.01 379.62 555.6 382.63 552.67 385.79 549.36 388.58 547.11 392.31 544.6 395.78 542.18 399.3 539.51 402.71 538.01 406.76 536.01 410.56 534.25 414.51 533.62 418.8 532.22 422.92 532.45 427.27 532.19 431.54 532.04 435.85 532.79 440.09 533.93 444.23 534.88 448.4 536.6 452.33 537.7 456.53 539.78 460.31 542.39 463.85 539.88 460.45 538.76 456.44 536.68 452.87 535.1 449.07 533.07 445.47 531.48 441.68 529.83 437.9 528.54 433.96 525.97 430.62 524.23 426.89 523.27 422.8 520.89 419.36 519.4 415.52 517.75 411.73 515.73 408 517.46 404.3 519.35 400.81 521.04 397.22 523.27 393.9 524.64 390.15 526.72 386.73 530.72 385.68 534.84 385.27 538.89 384.49 542.91 383.62 546.94 382.77 550.96 381.88 554.88 380.53 559.01 379.62"/><polygon points="522.03 343.95 518.62 346.84 515.41 349.63 512.43 352.69 510.19 356.33 507.4 359.58 505.33 363.32 504.18 367.46 502.94 371.51 501.81 375.61 502.13 379.89 501.58 384.12 502.6 388.27 503.03 392.5 504.3 396.56 505.72 400.58 507.91 404.25 509.82 408.04 507.65 404.42 506.33 400.33 503.66 396.97 501.65 393.26 499.74 389.49 497.58 385.85 495.99 381.91 493.66 378.36 491.94 374.49 490.24 370.6 488.03 367 489.83 363.43 490.53 359.41 492.38 355.85 494.29 352.3 495.21 348.11 499.92 347.92 504.32 347.14 508.8 346.83 513.17 345.79 517.62 345.2 522.03 343.95"/><polygon class="cls-3" points="522.03 343.95 518.62 346.84 515.41 349.63 512.43 352.69 510.19 356.33 507.4 359.58 505.33 363.32 504.18 367.46 502.94 371.51 501.81 375.61 502.13 379.89 501.58 384.12 502.6 388.27 503.03 392.5 504.3 396.56 505.72 400.58 507.91 404.25 509.82 408.04 507.65 404.42 506.33 400.33 503.66 396.97 501.65 393.26 499.74 389.49 497.58 385.85 495.99 381.91 493.66 378.36 491.94 374.49 490.24 370.6 488.03 367 489.83 363.43 490.53 359.41 492.38 355.85 494.29 352.3 495.21 348.11 499.92 347.92 504.32 347.14 508.8 346.83 513.17 345.79 517.62 345.2 522.03 343.95"/><polygon points="488.16 306.8 484.88 310.01 482.15 313.43 480.68 317.55 478.54 321.42 477.83 325.77 477.97 330.15 478.4 334.46 478.55 338.81 479.38 343.09 480.61 347.27 482.17 351.35 483.63 355.48 485.84 359.26 487.71 363.19 485.77 359.59 484.76 355.51 482.63 351.99 480.85 348.29 478.64 344.81 476.59 341.25 475.09 337.41 473.24 333.75 471.59 329.99 469.51 326.44 467.51 322.84 466.26 319.03 468.69 316.05 471.34 313.08 473.79 309.93 476.41 306.92 478.86 303.83 483.46 305.26 488.16 306.8"/><polygon class="cls-3" points="488.16 306.8 484.88 310.01 482.15 313.43 480.68 317.55 478.54 321.42 477.83 325.77 477.97 330.15 478.4 334.46 478.55 338.81 479.38 343.09 480.61 347.27 482.17 351.35 483.63 355.48 485.84 359.26 487.71 363.19 485.77 359.59 484.76 355.51 482.63 351.99 480.85 348.29 478.64 344.81 476.59 341.25 475.09 337.41 473.24 333.75 471.59 329.99 469.51 326.44 467.51 322.84 466.26 319.03 468.69 316.05 471.34 313.08 473.79 309.93 476.41 306.92 478.86 303.83 483.46 305.26 488.16 306.8"/><polygon points="457 277 454.67 280.36 453.37 284.23 451.85 288.04 451.23 292.1 451.81 296.18 451.29 300.28 452.64 304.17 453.72 308.06 455.4 311.73 457.14 315.38 459.1 318.96 456.75 315.13 455.02 310.99 453.33 306.84 451.39 302.81 448.77 299.13 447.24 294.89 445.05 291.01 447.76 287.3 450.75 283.8 454.25 280.72 457 277"/><polygon class="cls-3" points="457 277 454.67 280.36 453.37 284.23 451.85 288.04 451.23 292.1 451.81 296.18 451.29 300.28 452.64 304.17 453.72 308.06 455.4 311.73 457.14 315.38 459.1 318.96 456.75 315.13 455.02 310.99 453.33 306.84 451.39 302.81 448.77 299.13 447.24 294.89 445.05 291.01 447.76 287.3 450.75 283.8 454.25 280.72 457 277"/><polyline points="434.58 256.94 435.16 261.23 435.47 265.44 435.77 269.7 436.74 273.87 438.7 277.68 440.96 281.26 442.98 285.01"/><polyline class="cls-3" points="434.58 256.94 435.16 261.23 435.47 265.44 435.77 269.7 436.74 273.87 438.7 277.68 440.96 281.26 442.98 285.01"/><polyline class="cls-3" points="127.14 218.63 130.85 216.52 134.94 215.28 138.59 212.97 142.71 211.82 146.64 210.18 150.64 208.72 154.64 207.28 158.67 205.91 162.95 205.39 166.84 203.5 171.19 203.35 175.18 201.79 179.47 201.52 183.51 200.08 187.74 199.56 191.93 198.83 196.13 198.22 200.33 197.48 204.63 197.82 208.83 196.85 213.09 196.62 217.35 197.17 221.6 196.69 225.83 197.59 230.07 197.62 234.32 197.72 238.5 198.5 242.78 198.59 246.95 199.38 251.18 199.92 255.33 200.84 259.41 202.07 263.56 203.03 267.43 204.85 271.62 205.74 275.66 207.07 279.31 209.38 283.31 210.81 287.17 212.59 290.67 215.02 294.35 217.12 298.14 219.04 301.73 221.31 304.94 224 301.7 226.56 298.2 228.82 294.92 231.46 291.1 233.2 287.51 235.4 283.53 236.75 279.8 238.74 275.59 239.37 271.68 240.89 267.58 241.75 263.52 242.78 259.41 243.54 255.36 244.72 251.21 245.33 247.04 245.79 242.88 246.33 238.69 246.55 234.53 247.12 230.32 246.63 226.15 247.52 221.96 247.09 217.76 247.25 213.58 246.93 209.4 246.67 205.22 246.34 201.01 246.29 196.84 245.89 192.7 245.19 188.51 244.95 184.36 244.31 180.3 243.2 176.11 242.85 171.89 242.72 167.88 241.32 163.68 240.95 159.58 240.08 155.44 239.36 151.33 238.55 147.29 237.38 143.29 236.06 139.13 235.4 135.14 234.08 131.05 233.12 127.03 231.93"/><polyline class="cls-3" points="272.78 236.45 271.95 232.3 269.98 228.39 267.92 224.48 264.49 221.7 260.87 219.22 256.73 217.7 252.38 216.75 248.12 216.83 244.14 218.32 240.27 219.99 236.87 222.51 233.98 225.64 232.48 229.61 230.97 233.47 230.36 237.59 230.52 241.53 231.46 245.81"/><polyline points="268.63 237.58 267.24 233.91 264.59 230.77 260.83 229.16 256.9 228.98 252.99 230.24 249.61 232.74 247.83 236.59 247.95 240.75 248.91 245.06"/><polyline class="cls-3" points="268.63 237.58 267.24 233.91 264.59 230.77 260.83 229.16 256.9 228.98 252.99 230.24 249.61 232.74 247.83 236.59 247.95 240.75 248.91 245.06"/><polyline points="205.3 197.66 201 198.02 197.1 199.86 192.98 200.95 188.93 202.29 185.02 204.01 181.33 206.17 177.7 208.37 173.63 209.89 170.45 212.79 167.24 215.58 164.31 218.64 161.49 221.84 159.08 225.41 157.94 229.56 157.19 233.75 157.04 237.79 152.77 236.26 148.84 233.98 145.1 231.34 140.78 229.76 137.05 227.08 133.49 224.95 136.79 223.22 140.11 220.7 143.56 218.37 147.27 216.45 150.46 213.71 154.39 212.13 157.55 209.33"/><polyline class="cls-3" points="205.3 197.66 201 198.02 197.1 199.86 192.98 200.95 188.93 202.29 185.02 204.01 181.33 206.17 177.7 208.37 173.63 209.89 170.45 212.79 167.24 215.58 164.31 218.64 161.49 221.84 159.08 225.41 157.94 229.56 157.19 233.75 157.04 237.79 152.77 236.26 148.84 233.98 145.1 231.34 140.78 229.76 137.05 227.08 133.49 224.95 136.79 223.22 140.11 220.7 143.56 218.37 147.27 216.45 150.46 213.71 154.39 212.13 157.55 209.33"/><polyline class="cls-3" points="282.96 210.07 278.85 208.75 274.61 207.54 270.85 205.27 267.29 202.69 264.23 199.52 261.7 195.94 259.56 192.14 258.57 187.9 257.5 183.69 257.57 179.33 258.38 175.07"/><polyline class="cls-3" points="225.85 196.71 222.05 197.78 218 197.94 214.29 195.9 212.19 192.25 210.6 188.41 209.53 184.39 208.92 180.28 209.52 176.11 208.96 172"/><polyline class="cls-3" points="176.88 203.77 172.83 203.61 168.88 202.64 165 201.31 161.89 198.65 158.7 195.94 157.56 191.9 156.11 188.11 154.76 184.16 154.55 180"/><polyline class="cls-3" points="494.96 217.24 499.07 216.04 502.77 213.86 506.93 212.81 510.54 210.37 514.71 209.37 518.68 207.85 522.65 206.3 526.9 205.66 530.93 204.31 535 203.09 539.11 202.01 543.29 201.26 547.35 199.97 551.49 198.96 555.71 198.38 559.96 198.08 564.15 197.37 568.32 196.35 572.62 196.65 576.85 196.26 581.11 196.42 585.35 196.23 589.61 195.52 593.85 196.09 598.06 196.83 602.36 196.37 606.58 196.87 610.8 197.44 614.89 198.75 619.03 199.66 623.35 199.79 627.44 200.96 631.61 201.83 635.65 203.19 639.68 204.56 643.46 206.57 647.51 207.89 651.15 210.16 655.15 211.62 658.77 213.84 662.64 215.63 666.42 217.61 669.69 220.36 673.27 222.98 669.68 225.53 666.57 228.38 662.99 230.59 659.41 232.8 655.44 234.24 651.53 235.74 647.58 237.13 643.59 238.35 639.82 240.36 635.6 240.82 631.61 242.16 627.51 243.07 623.4 243.98 619.19 244.15 614.99 244.34 610.86 245.09 606.68 245.29 602.53 246 598.32 245.64 594.14 245.68 589.96 245.98 585.78 245.66 581.58 245.87 577.39 245.69 573.18 245.88 569.06 244.76 564.9 244.26 560.69 244.29 556.47 244.23 552.43 242.8 548.21 242.76 544.14 241.69 539.96 241.29 535.88 240.32 531.71 239.81 527.5 239.46 523.45 238.32 519.47 236.9 515.35 236.15 511.32 234.97 507.04 234.76 503.07 233.38 498.97 232.42 494.94 231.24"/><polyline class="cls-3" points="640.74 235.38 639.66 231.39 638.77 226.96 635.91 223.49 632.6 220.57 628.72 218.53 624.81 216.38 620.38 215.62 616.2 216.36 612.08 217.16 608.2 218.89 605.39 222.08 602.39 224.93 600.55 228.65 598.93 232.46 598 236.57 598.48 240.54 599.46 244.66"/><polyline points="636.85 236.8 635.51 232.74 632.55 229.81 628.82 228.2 624.83 227.43 620.88 229.04 617.44 231.6 615.5 235.5 615.63 239.8 616.89 243.86"/><polyline class="cls-3" points="636.85 236.8 635.51 232.74 632.55 229.81 628.82 228.2 624.83 227.43 620.88 229.04 617.44 231.6 615.5 235.5 615.63 239.8 616.89 243.86"/><polyline points="573.17 196.04 569.15 197.57 564.98 198.49 561.13 200.38 557.18 201.93 553.27 203.56 549.1 204.7 545.48 207 541.98 209.43 538.33 211.63 534.96 214.27 532.43 217.75 529.92 221.13 527.88 224.79 525.49 228.44 524.93 232.72 525.06 236.66 521.06 234.72 517 232.69 513.04 230.44 509.2 227.98 504.96 226.25 501.36 223.96 504.49 221.74 508.14 219.75 511.49 217.26 515.12 215.21 518.73 213.13 522.41 211.18 525.94 208.95"/><polyline class="cls-3" points="573.17 196.04 569.15 197.57 564.98 198.49 561.13 200.38 557.18 201.93 553.27 203.56 549.1 204.7 545.48 207 541.98 209.43 538.33 211.63 534.96 214.27 532.43 217.75 529.92 221.13 527.88 224.79 525.49 228.44 524.93 232.72 525.06 236.66 521.06 234.72 517 232.69 513.04 230.44 509.2 227.98 504.96 226.25 501.36 223.96 504.49 221.74 508.14 219.75 511.49 217.26 515.12 215.21 518.73 213.13 522.41 211.18 525.94 208.95"/><polyline class="cls-3" points="650.86 209.46 646.8 207.87 642.59 206.58 638.83 204.31 635.63 201.28 632.48 198.29 629.54 195.05 627.4 191.21 625.82 187.09 625.34 182.7 625.46 178.33 626.06 174.01"/><polyline class="cls-3" points="594.07 196.07 590.06 196.82 586.01 196.91 582.52 194.68 580.33 191.17 578.66 187.39 578.21 183.27 577.18 179.25 577.27 175.12 577.4 171"/><polyline class="cls-3" points="544.91 203.14 540.83 202.56 536.94 201.45 533.08 200.17 529.55 198.01 526.87 194.83 524.71 191.25 523.84 187.18 523.46 183.09 522.78 179"/><g class="cls-4"><polygon class="cls-5" points="297.43 398.72 297.75 403.07 296.81 407.33 296.36 411.65 295.16 415.81 293.96 419.98 292.78 424.2 290.85 428.13 287.86 431.39 285.45 434.98 282.85 438.49 279.44 441.21 275.95 443.8 272.11 445.87 268.08 447.56 263.78 448.41 259.42 448.27 255.07 448.38 250.76 447.57 246.81 445.69 243.14 443.4 239.11 441.58 236.44 438.04 233.29 435.06 230.49 431.73 228.05 428.1 226.67 423.93 224.61 420.08 223.39 415.9 222.05 411.74 221.49 407.41 221.59 403.04 220.98 398.72 220.88 394.52 221.5 390.39 222.59 386.35 223.12 382.19 225.01 378.39 225.29 374.14 227.08 370.33 228.15 366.3 229.19 362.26 230.6 358.33 231.8 354.34 233.26 350.43 235.28 346.74 237.06 342.95 238.03 338.86 239.45 334.93 240.81 330.98 242.7 327.25 244.76 323.6 245.78 319.5 247.55 315.72 249.63 312.08 250.62 307.96 252.16 304.09 253.94 300.31 255.9 296.63 257.31 292.7 259.42 289.3 261.15 292.88 263.02 296.6 264.98 300.28 266.09 304.34 267.84 308.12 269.81 311.81 271.47 315.63 272.73 319.62 274.63 323.34 276.25 327.17 278.04 330.94 279.23 334.95 280.93 338.76 282.67 342.56 284.1 346.48 285.07 350.57 286.28 354.56 288.34 358.25 289.4 362.3 291.02 366.17 291.9 370.26 293.09 374.26 294.06 378.31 295.7 382.2 296.45 386.31 297.38 390.38 297.63 394.57 297.43 398.72"/><polygon class="cls-6" points="297.43 398.72 297.75 403.07 296.81 407.33 296.36 411.65 295.16 415.81 293.96 419.98 292.78 424.2 290.85 428.13 287.86 431.39 285.45 434.98 282.85 438.49 279.44 441.21 275.95 443.8 272.11 445.87 268.08 447.56 263.78 448.41 259.42 448.27 255.07 448.38 250.76 447.57 246.81 445.69 243.14 443.4 239.11 441.58 236.44 438.04 233.29 435.06 230.49 431.73 228.05 428.1 226.67 423.93 224.61 420.08 223.39 415.9 222.05 411.74 221.49 407.41 221.59 403.04 220.98 398.72 220.88 394.52 221.5 390.39 222.59 386.35 223.12 382.19 225.01 378.39 225.29 374.14 227.08 370.33 228.15 366.3 229.19 362.26 230.6 358.33 231.8 354.34 233.26 350.43 235.28 346.74 237.06 342.95 238.03 338.86 239.45 334.93 240.81 330.98 242.7 327.25 244.76 323.6 245.78 319.5 247.55 315.72 249.63 312.08 250.62 307.96 252.16 304.09 253.94 300.31 255.9 296.63 257.31 292.7 259.42 289.3 261.15 292.88 263.02 296.6 264.98 300.28 266.09 304.34 267.84 308.12 269.81 311.81 271.47 315.63 272.73 319.62 274.63 323.34 276.25 327.17 278.04 330.94 279.23 334.95 280.93 338.76 282.67 342.56 284.1 346.48 285.07 350.57 286.28 354.56 288.34 358.25 289.4 362.3 291.02 366.17 291.9 370.26 293.09 374.26 294.06 378.31 295.7 382.2 296.45 386.31 297.38 390.38 297.63 394.57 297.43 398.72"/></g><g class="cls-4"><polygon class="cls-5" points="664.59 433.72 664.85 438.08 663.95 442.35 663.27 446.63 662.6 450.94 661.1 455.03 659.7 459.17 657.74 463.07 655.19 466.62 652.29 469.85 649.8 473.44 646.31 476.04 642.67 478.35 638.95 480.51 634.99 482.27 630.72 482.96 626.42 483.09 622.12 483.06 617.96 481.92 613.7 480.95 610.04 478.57 606.38 476.23 602.98 473.5 600.36 470.01 597.75 466.55 595.34 462.94 593.73 458.9 591.81 455.01 590.14 450.98 589.62 446.63 588.95 442.35 588.23 438.06 587.83 433.72 588.11 429.55 588.4 425.37 589.63 421.36 590.12 417.2 591.7 413.3 593.19 409.4 593.52 405.15 595.29 401.35 596.95 397.51 598.18 393.54 598.97 389.4 600.27 385.43 602.14 381.68 603.5 377.74 605.29 373.96 606.89 370.11 608.23 366.15 609.47 362.15 610.95 358.26 612.96 354.57 614.84 350.85 616.06 346.83 618.11 343.18 619.46 339.22 621.07 335.38 623.18 331.76 624.93 327.98 626.42 323.77 627.95 327.97 629.58 331.8 631.26 335.6 633.22 339.29 634.64 343.21 636.65 346.88 638.51 350.62 640.1 354.47 641.1 358.56 643.32 362.15 644.28 366.25 646 370.05 647.65 373.87 649.27 377.71 650.95 381.53 652.54 385.39 653.17 389.6 654.58 393.52 655.94 397.46 657.98 401.18 658.73 405.32 660.29 409.2 661.54 413.18 662.04 417.36 663.32 421.34 663.88 425.47 665.05 429.52 664.59 433.72"/><polygon class="cls-6" points="664.59 433.72 664.85 438.08 663.95 442.35 663.27 446.63 662.6 450.94 661.1 455.03 659.7 459.17 657.74 463.07 655.19 466.62 652.29 469.85 649.8 473.44 646.31 476.04 642.67 478.35 638.95 480.51 634.99 482.27 630.72 482.96 626.42 483.09 622.12 483.06 617.96 481.92 613.7 480.95 610.04 478.57 606.38 476.23 602.98 473.5 600.36 470.01 597.75 466.55 595.34 462.94 593.73 458.9 591.81 455.01 590.14 450.98 589.62 446.63 588.95 442.35 588.23 438.06 587.83 433.72 588.11 429.55 588.4 425.37 589.63 421.36 590.12 417.2 591.7 413.3 593.19 409.4 593.52 405.15 595.29 401.35 596.95 397.51 598.18 393.54 598.97 389.4 600.27 385.43 602.14 381.68 603.5 377.74 605.29 373.96 606.89 370.11 608.23 366.15 609.47 362.15 610.95 358.26 612.96 354.57 614.84 350.85 616.06 346.83 618.11 343.18 619.46 339.22 621.07 335.38 623.18 331.76 624.93 327.98 626.42 323.77 627.95 327.97 629.58 331.8 631.26 335.6 633.22 339.29 634.64 343.21 636.65 346.88 638.51 350.62 640.1 354.47 641.1 358.56 643.32 362.15 644.28 366.25 646 370.05 647.65 373.87 649.27 377.71 650.95 381.53 652.54 385.39 653.17 389.6 654.58 393.52 655.94 397.46 657.98 401.18 658.73 405.32 660.29 409.2 661.54 413.18 662.04 417.36 663.32 421.34 663.88 425.47 665.05 429.52 664.59 433.72"/></g><g class="cls-4"><polygon class="cls-5" points="486.22 566.72 485.78 571.07 485.2 575.39 484.47 579.67 483 583.77 481.71 587.89 480.05 591.87 478.76 596.08 476.43 599.78 473.93 603.37 471.02 606.66 467.67 609.5 464.1 612.05 460.08 613.81 455.87 614.87 451.8 616.52 447.42 616.34 443.03 616.65 438.82 615.4 434.58 614.2 431.13 611.42 427.09 609.61 424.06 606.42 421.52 602.87 418.3 599.86 416.06 596.09 414.14 592.17 412.67 588.06 411.26 583.94 410.13 579.73 409.24 575.45 409.41 571.05 408.62 566.72 409.31 562.57 410.05 558.48 410.71 554.38 411.9 550.39 412.61 546.28 413.56 542.22 414.74 538.22 416.43 534.39 417.28 530.29 418.64 526.35 420.61 522.63 421.75 518.61 422.79 514.55 424.52 510.75 426.49 507.04 427.53 502.96 429.54 499.28 431.1 495.42 432.68 491.56 433.54 487.4 435.81 483.83 437.69 480.1 438.91 476.09 440.9 472.41 442.61 468.62 443.97 464.66 445.29 460.69 447.42 457.25 449.29 460.81 450.8 464.7 452.92 468.31 454.67 472.09 455.53 476.26 457.88 479.78 458.87 483.89 460.53 487.71 462.57 491.37 464.25 495.17 465.66 499.1 467.6 502.81 468.99 506.74 470.42 510.66 471.94 514.54 473.24 518.5 474.6 522.45 476.27 526.28 476.9 530.47 479.03 534.16 480.36 538.12 481.58 542.12 481.96 546.34 483.61 550.22 484.58 554.28 484.71 558.5 485.77 562.55 486.22 566.72"/><polygon class="cls-6" points="486.22 566.72 485.78 571.07 485.2 575.39 484.47 579.67 483 583.77 481.71 587.89 480.05 591.87 478.76 596.08 476.43 599.78 473.93 603.37 471.02 606.66 467.67 609.5 464.1 612.05 460.08 613.81 455.87 614.87 451.8 616.52 447.42 616.34 443.03 616.65 438.82 615.4 434.58 614.2 431.13 611.42 427.09 609.61 424.06 606.42 421.52 602.87 418.3 599.86 416.06 596.09 414.14 592.17 412.67 588.06 411.26 583.94 410.13 579.73 409.24 575.45 409.41 571.05 408.62 566.72 409.31 562.57 410.05 558.48 410.71 554.38 411.9 550.39 412.61 546.28 413.56 542.22 414.74 538.22 416.43 534.39 417.28 530.29 418.64 526.35 420.61 522.63 421.75 518.61 422.79 514.55 424.52 510.75 426.49 507.04 427.53 502.96 429.54 499.28 431.1 495.42 432.68 491.56 433.54 487.4 435.81 483.83 437.69 480.1 438.91 476.09 440.9 472.41 442.61 468.62 443.97 464.66 445.29 460.69 447.42 457.25 449.29 460.81 450.8 464.7 452.92 468.31 454.67 472.09 455.53 476.26 457.88 479.78 458.87 483.89 460.53 487.71 462.57 491.37 464.25 495.17 465.66 499.1 467.6 502.81 468.99 506.74 470.42 510.66 471.94 514.54 473.24 518.5 474.6 522.45 476.27 526.28 476.9 530.47 479.03 534.16 480.36 538.12 481.58 542.12 481.96 546.34 483.61 550.22 484.58 554.28 484.71 558.5 485.77 562.55 486.22 566.72"/></g><g class="cls-7"><g class="cls-8"><polyline class="cls-3" points="781.43 361.44 784.08 364.91 787.43 367.7 791.05 370.12 794.75 372.42 798.7 374.27 802.92 375.39 807.17 376.21 811.46 377.05 815.75 376.07 820.14 376.11 824.21 374.53 828.13 372.67 831.6 370.06 835.28 367.76 838.66 365.01 841.24 361.48"/><polyline class="cls-3" points="787.23 361.48 784.13 364.45 780.8 367.19 777.12 369.43 773.61 371.94 769.58 373.46 765.57 374.95 761.47 376.36 757.13 376.35 752.84 376.32 748.48 376.1 744.4 374.53 740.64 372.39 736.77 370.43 733.74 367.28 729.93 365.04 727.22 361.62"/><polyline class="cls-3" points="814.75 309.71 811.41 312.49 807.86 314.94 804.76 318.03 800.79 319.8 796.92 321.68 793.04 323.73 788.69 324.21 784.39 324.5 780.08 324.42 775.93 323.3 771.8 322.15 767.8 320.54 764.41 317.87 760.72 315.61 757.34 312.88 754.37 309.71"/><polyline class="cls-3" points="726.7 257.64 730.12 260.31 733.51 262.94 736.71 265.87 740.65 267.65 744.4 269.8 748.53 271.04 752.73 271.89 756.98 272.42 761.3 272.6 765.43 271.27 769.7 270.5 773.49 268.42 777.07 266.03 780.64 263.6 783.54 260.39 787.07 257.77"/><polyline class="cls-3" points="842.03 257.74 839 260.87 835.63 263.62 831.85 265.79 828.34 268.36 824.28 269.95 820.02 270.8 816.01 272.62 811.64 272.44 807.29 272.85 803.05 271.81 799.12 269.98 795.18 268.31 791.52 266.05 788.25 263.27 785.03 260.43 781.76 257.58"/><polyline class="cls-3" points="754.07 205.53 757.41 208.26 760.51 211.26 764.24 213.43 767.84 215.78 771.48 218.19 775.82 218.89 779.93 220.19 784.21 220.91 788.5 220.13 792.78 219.65 796.89 218.36 800.64 216.24 804.24 213.91 808.06 211.8 810.77 208.37 813.74 205.26"/><polyline class="cls-3" points="781.15 153.68 784.45 156.5 787.64 159.42 791.24 161.83 794.96 164.03 799.02 165.5 802.86 167.6 807.13 168.47 811.47 168.85 815.78 168.41 820.11 168 823.99 165.98 827.92 164.29 831.66 162.15 834.99 159.42 838.25 156.6 841.55 153.76"/><polyline class="cls-3" points="787.25 153.5 784.44 156.81 780.93 159.36 777.54 162.07 773.45 163.64 769.85 166.12 765.73 167.53 761.49 168.51 757.16 169.12 752.8 168.74 748.57 167.71 744.6 166.05 740.35 164.91 736.87 162.27 733.46 159.61 729.99 156.99 727.64 153.25"/></g><g class="cls-9"><polyline class="cls-3" points="781.4 569.46 784.31 572.66 787.55 575.55 791.24 577.82 795.09 579.78 798.88 581.85 803.1 582.79 807.1 584.66 811.48 584.24 815.84 584.95 820.01 583.6 824.14 582.34 827.86 580.16 831.9 578.51 835.11 575.56 838.53 572.88 841.01 569.28"/><polyline class="cls-3" points="787.62 569.82 784.48 572.85 780.73 575.11 777.41 577.88 773.41 579.55 769.79 581.96 765.76 583.62 761.41 584 757.14 584.38 752.78 584.9 748.62 583.55 744.53 582.21 740.63 580.39 736.75 578.46 733.53 575.53 730 572.97 727.39 569.47"/><polyline class="cls-3" points="814.7 517.66 811.32 520.39 808.16 523.34 804.35 525.39 800.7 527.62 796.97 529.81 792.83 530.99 788.64 531.91 784.39 532.41 780.05 532.69 775.93 531.28 771.84 530.08 767.81 528.53 764.13 526.27 760.5 523.87 757.55 520.66 754.68 517.43"/><polyline class="cls-3" points="727.17 465.23 729.71 468.76 733.04 471.56 736.8 473.73 740.39 476.15 744.3 478.02 748.54 478.97 752.71 480.01 756.97 480.78 761.34 480.89 765.53 479.65 769.51 478.02 773.79 476.96 776.96 473.87 780.58 471.53 784.17 469.02 786.55 465.32"/><polyline class="cls-3" points="841.79 465.53 838.58 468.41 835.42 471.36 831.7 473.55 828.05 475.82 824.18 477.71 820.16 479.29 815.98 480.47 811.64 480.55 807.35 480.28 803.06 479.76 798.93 478.46 795.04 476.56 791.45 474.16 787.74 471.88 784.85 468.61 781.57 465.75"/><polyline class="cls-3" points="753.69 413.87 757.2 416.5 760.28 419.57 763.85 422.04 767.91 423.63 771.63 425.84 775.82 426.88 779.94 428.13 784.22 428.86 788.5 428.11 792.78 427.67 796.71 425.91 800.95 424.8 804.34 422.05 807.61 419.27 811.02 416.62 814.03 413.52"/><polyline class="cls-3" points="781.25 361.59 784.53 364.41 787.42 367.71 791.25 369.8 794.77 372.38 798.79 374.05 802.93 375.36 807.22 375.96 811.48 376.23 815.81 376.67 820.03 375.68 824.32 374.8 828.16 372.73 831.46 369.86 834.93 367.35 838.17 364.51 841.24 361.48"/><polyline class="cls-3" points="787.3 361.54 784.19 364.53 780.63 366.97 777.6 370.17 773.85 372.38 769.73 373.83 765.57 374.96 761.5 376.54 757.15 376.74 752.83 376.48 748.56 375.76 744.3 374.79 740.52 372.61 736.64 370.61 733.36 367.74 730.13 364.84 727.28 361.57"/></g></g></g></g></svg>