<svg xmlns="http://www.w3.org/2000/svg" viewBox="0 0 800 800"><defs><style>.cls-1{isolation:isolate;}.cls-10,.cls-11,.cls-2,.cls-3,.cls-5,.cls-9{fill:none;}.cls-11,.cls-2,.cls-8{stroke:#000;}.cls-2,.cls-3,.cls-5,.cls-8{stroke-linejoin:bevel;}.cls-10,.cls-11,.cls-2,.cls-5,.cls-8{stroke-width:8px;}.cls-3,.cls-9{stroke:#fff;}.cls-3{stroke-width:20px;}.cls-4{fill:blue;}.cls-10,.cls-5{stroke:blue;}.cls-6{mix-blend-mode:multiply;}.cls-7{fill:red;}.cls-10,.cls-11,.cls-9{stroke-miterlimit:10;}.cls-9{stroke-width:18px;}</style></defs><title>corner pocket</title><g class="cls-1"><g id="Layer_1" data-name="Layer 1"><polyline points="135.7 504.27 139.97 504.61 144.25 504.63 148.52 504.26 152.8 504.34 157.07 504.31 161.34 504.26 165.61 504.04 169.88 504.5 174.15 504.68 178.43 504.34 182.7 504.35 186.97 504.28 191.25 504.62 195.52 504.55 199.8 504.25 204.07 504.01 208.35 503.84 212.62 504.47 216.9 504.76 221.17 504.26 225.45 504.07 229.72 503.81 234 504.44 238.28 504.12 242.55 504.21 246.83 503.88 251.11 504.27 255.38 503.98 259.66 504.57 263.94 504.45 268.21 504.76 272.49 504.63 276.77 504.78 281.05 503.85 285.33 504.57 289.6 504.24 293.88 504.42 298.15 504.39 302.43 504.46 306.71 504.08 310.99 504.04 315.27 503.97 319.55 503.95 323.83 504.6 328.11 504.6 332.39 503.96 336.68 504.61 340.96 504.7 345.14 503.95 345.89 500.11 346.67 495.93 347.96 491.83 348.19 487.57 349.05 483.39 348.94 479.11 349.32 474.88 349.44 470.63 349.43 466.38 350.07 462.13 349.29 457.89 349.76 453.63 349.27 449.39 348.58 445.19 348.38 440.94 347.88 436.73 347.33 432.51 346.99 428.26 345.68 424.19 345.21 419.94 344.28 415.79 343.18 411.68 341.97 407.6 340.04 403.75 339.04 399.61 337.09 395.81 335.94 391.71 334.72 387.61 333.07 383.69 330.54 380.19 329.13 376.14 327.14 372.39 324.74 368.87 323.06 364.92 320.73 361.36 318.27 357.89 315.22 354.34 316.69 358.91 317.94 363.08 319.42 367.25 319.45 371.65 319.89 376.04 319.63 380.46 317.73 384.51 316.65 388.77 314.74 392.76 311.85 396.12 308.83 399.37 305.1 401.83 300.79 402.95 296.44 403.55 292.35 402.58 288.36 401.29 284.91 398.89 281.76 396.19 278.89 393.11 277.37 389.19 275.42 385.41 274.92 381.21 274.94 377.01 274.75 372.81 275.74 368.71 276.37 364.59 277.5 360.57 278.63 356.55 279.63 352.49 281.3 348.64 282.3 344.54 284.45 340.9 285.73 336.88 287.89 333.26 288.83 329.14 290.23 325.22 291.48 321.25 293.33 317.44 293.73 313.24 295.22 309.29 295.45 305.09 296.14 300.97 296.06 296.79 297.05 292.65 296.75 288.46 296.34 284.3 295.43 280.21 294.72 276.12 294.32 271.95 293.51 267.84 292.2 263.87 290.53 260.04 288.83 256.23 287.11 252.41 284.57 248.98 285.12 253.16 285.07 257.31 286.32 261.35 286.02 265.51 285.7 269.63 285.8 273.75 286.08 277.9 285.08 281.94 284.81 286.08 283.33 289.96 282.16 293.91 280.34 297.62 278 301.02 275.21 304.06 272.07 306.77 268.25 308.39 264.5 310.02 260.8 311.84 256.66 313.15 252.44 312.05 248.41 310.7 245.01 308.14 241.42 305.62 239.12 301.89 237.58 297.82 236.83 293.57 235.75 289.38 235.5 285.06 235.75 280.74 235.9 276.39 237.37 272.26 238.1 268 238.9 263.72 240.71 259.76 242.16 255.69 243.71 251.65 245 247.52 246.03 243.32 246.69 239.03 247.87 234.87 248.63 230.61 249 226.29 249.75 222.04 250.7 217.82 251.68 213.59 251.76 209.26 252.06 204.95 251.97 200.63 252.89 196.35 252.42 192.02 252.3 187.72 252.68 183.4 252.65 179.14 252.47 183.21 253.09 187.34 252.33 191.43 251.88 195.56 249.96 199.31 248.79 203.25 247.24 207.07 245.2 210.65 243.11 214.2 240.81 217.63 238.59 221.13 235.41 223.84 233.01 227.24 230.13 230.22 226.96 232.88 223.78 235.53 221.2 238.79 218.5 241.92 215.58 244.84 213.15 248.18 210.28 251.16 207.96 254.57 205.69 258 203.57 261.53 201.48 265.12 200.14 269.06 199.72 273.2 198.51 277.19 198.6 281.35 198.74 285.47 198.64 289.62 199.65 293.66 200.51 297.69 201.28 301.86 202.2 305.99 203.02 310.15 204.14 314.24 205.49 318.26 206.98 322.24 208.15 326.32 208.98 330.48 209.5 334.72 210.82 338.76 211.36 342.98 212.92 346.99 213.53 351.2 213.79 355.45 214.4 359.65 214.52 363.9 214.1 368.14 214.08 372.39 213.4 376.6 212.25 380.73 209.86 384.3 207.28 387.59 204.91 391.22 201.09 393.22 197.26 395.03 193.13 395.95 189.11 396.8 184.99 397.06 181.13 395.71 177.25 394.28 174.72 390.98 172.5 387.41 171.76 383.29 171.19 379.18 171.29 375.03 171.2 370.89 171.3 366.74 172.54 362.72 172.77 358.56 173.1 354.4 174.01 350.35 175.44 346.43 176.31 342.37 177.53 338.41 178.71 334.76 176.19 337.53 173.45 340.59 170.46 343.4 167.92 346.63 164.78 349.32 162.02 352.35 159.35 355.48 156.45 358.4 153.79 361.54 151.57 365.14 148.74 368.31 146.57 371.94 145.32 376.01 143.87 379.95 142.37 383.87 140.5 387.68 139.71 391.84 138.52 395.87 137.02 399.84 136.14 403.96 135.1 408.05 134.33 412.19 133.88 416.39 133.27 420.56 132.32 424.69 132.57 428.96 131.72 433.11 131.14 437.29 131.42 441.54 130.83 445.72 130.8 449.94 131 454.16 130.61 458.37 131.03 462.58 130.34 466.81 131.22 470.99 131.23 475.21 131.38 479.42 132.27 483.56 132.68 487.76 133.12 491.95 133.38 496.19 134.96 500.15 136.17 504.18"/><polyline class="cls-2" points="135.7 504.27 139.97 504.61 144.25 504.63 148.52 504.26 152.8 504.34 157.07 504.31 161.34 504.26 165.61 504.04 169.88 504.5 174.15 504.68 178.43 504.34 182.7 504.35 186.97 504.28 191.25 504.62 195.52 504.55 199.8 504.25 204.07 504.01 208.35 503.84 212.62 504.47 216.9 504.76 221.17 504.26 225.45 504.07 229.72 503.81 234 504.44 238.28 504.12 242.55 504.21 246.83 503.88 251.11 504.27 255.38 503.98 259.66 504.57 263.94 504.45 268.21 504.76 272.49 504.63 276.77 504.78 281.05 503.85 285.33 504.57 289.6 504.24 293.88 504.42 298.15 504.39 302.43 504.46 306.71 504.08 310.99 504.04 315.27 503.97 319.55 503.95 323.83 504.6 328.11 504.6 332.39 503.96 336.68 504.61 340.96 504.7 345.14 503.95 345.89 500.11 346.67 495.93 347.96 491.83 348.19 487.57 349.05 483.39 348.94 479.11 349.32 474.88 349.44 470.63 349.43 466.38 350.07 462.13 349.29 457.89 349.76 453.63 349.27 449.39 348.58 445.19 348.38 440.94 347.88 436.73 347.33 432.51 346.99 428.26 345.68 424.19 345.21 419.94 344.28 415.79 343.18 411.68 341.97 407.6 340.04 403.75 339.04 399.61 337.09 395.81 335.94 391.71 334.72 387.61 333.07 383.69 330.54 380.19 329.13 376.14 327.14 372.39 324.74 368.87 323.06 364.92 320.73 361.36 318.27 357.89 315.22 354.34 316.69 358.91 317.94 363.08 319.42 367.25 319.45 371.65 319.89 376.04 319.63 380.46 317.73 384.51 316.65 388.77 314.74 392.76 311.85 396.12 308.83 399.37 305.1 401.83 300.79 402.95 296.44 403.55 292.35 402.58 288.36 401.29 284.91 398.89 281.76 396.19 278.89 393.11 277.37 389.19 275.42 385.41 274.92 381.21 274.94 377.01 274.75 372.81 275.74 368.71 276.37 364.59 277.5 360.57 278.63 356.55 279.63 352.49 281.3 348.64 282.3 344.54 284.45 340.9 285.73 336.88 287.89 333.26 288.83 329.14 290.23 325.22 291.48 321.25 293.33 317.44 293.73 313.24 295.22 309.29 295.45 305.09 296.14 300.97 296.06 296.79 297.05 292.65 296.75 288.46 296.34 284.3 295.43 280.21 294.72 276.12 294.32 271.95 293.51 267.84 292.2 263.87 290.53 260.04 288.83 256.23 287.11 252.41 284.57 248.98 285.12 253.16 285.07 257.31 286.32 261.35 286.02 265.51 285.7 269.63 285.8 273.75 286.08 277.9 285.08 281.94 284.81 286.08 283.33 289.96 282.16 293.91 280.34 297.62 278 301.02 275.21 304.06 272.07 306.77 268.25 308.39 264.5 310.02 260.8 311.84 256.66 313.15 252.44 312.05 248.41 310.7 245.01 308.14 241.42 305.62 239.12 301.89 237.58 297.82 236.83 293.57 235.75 289.38 235.5 285.06 235.75 280.74 235.9 276.39 237.37 272.26 238.1 268 238.9 263.72 240.71 259.76 242.16 255.69 243.71 251.65 245 247.52 246.03 243.32 246.69 239.03 247.87 234.87 248.63 230.61 249 226.29 249.75 222.04 250.7 217.82 251.68 213.59 251.76 209.26 252.06 204.95 251.97 200.63 252.89 196.35 252.42 192.02 252.3 187.72 252.68 183.4 252.65 179.14 252.47 183.21 253.09 187.34 252.33 191.43 251.88 195.56 249.96 199.31 248.79 203.25 247.24 207.07 245.2 210.65 243.11 214.2 240.81 217.63 238.59 221.13 235.41 223.84 233.01 227.24 230.13 230.22 226.96 232.88 223.78 235.53 221.2 238.79 218.5 241.92 215.58 244.84 213.15 248.18 210.28 251.16 207.96 254.57 205.69 258 203.57 261.53 201.48 265.12 200.14 269.06 199.72 273.2 198.51 277.19 198.6 281.35 198.74 285.47 198.64 289.62 199.65 293.66 200.51 297.69 201.28 301.86 202.2 305.99 203.02 310.15 204.14 314.24 205.49 318.26 206.98 322.24 208.15 326.32 208.98 330.48 209.5 334.72 210.82 338.76 211.36 342.98 212.92 346.99 213.53 351.2 213.79 355.45 214.4 359.65 214.52 363.9 214.1 368.14 214.08 372.39 213.4 376.6 212.25 380.73 209.86 384.3 207.28 387.59 204.91 391.22 201.09 393.22 197.26 395.03 193.13 395.95 189.11 396.8 184.99 397.06 181.13 395.71 177.25 394.28 174.72 390.98 172.5 387.41 171.76 383.29 171.19 379.18 171.29 375.03 171.2 370.89 171.3 366.74 172.54 362.72 172.77 358.56 173.1 354.4 174.01 350.35 175.44 346.43 176.31 342.37 177.53 338.41 178.71 334.76 176.19 337.53 173.45 340.59 170.46 343.4 167.92 346.63 164.78 349.32 162.02 352.35 159.35 355.48 156.45 358.4 153.79 361.54 151.57 365.14 148.74 368.31 146.57 371.94 145.32 376.01 143.87 379.95 142.37 383.87 140.5 387.68 139.71 391.84 138.52 395.87 137.02 399.84 136.14 403.96 135.1 408.05 134.33 412.19 133.88 416.39 133.27 420.56 132.32 424.69 132.57 428.96 131.72 433.11 131.14 437.29 131.42 441.54 130.83 445.72 130.8 449.94 131 454.16 130.61 458.37 131.03 462.58 130.34 466.81 131.22 470.99 131.23 475.21 131.38 479.42 132.27 483.56 132.68 487.76 133.12 491.95 133.38 496.19 134.96 500.15 136.17 504.18"/><polyline class="cls-2" points="135.7 504.06 139.97 504.74 144.25 504.05 148.52 503.96 152.8 503.82 157.07 504.29 161.34 504.29 165.61 504.24 169.88 504.12 174.15 504.79 178.43 504.13 182.7 504.55 186.97 503.97 191.25 503.97 195.52 504.65 199.8 504.03 204.07 504.8 208.35 503.99 212.62 504.35 216.9 504.09 221.17 503.88 225.45 504.61 229.72 504.21 234 503.94 238.28 504.11 242.55 504.02 246.83 503.98 251.11 504.64 255.38 504.64 259.66 504.41 263.94 504.77 268.21 504.5 272.49 504.4 276.77 503.96 281.05 503.86 285.33 504.22 289.6 504.73 293.88 504.17 298.15 504.72 302.43 504.55 306.71 504.44 310.99 504.31 315.27 504.21 319.55 503.82 323.83 504.49 328.11 503.96 332.39 503.9 336.68 504.32 340.96 504.32 345.25 504.31 346.24 500.17 347.17 496.02 347.67 491.79 348 487.55 348.53 483.34 348.68 479.09 349.18 474.87 349.93 470.65 349.15 466.38 349.23 462.14 350 457.88 349.25 453.65 349.36 449.39 349.16 445.14 348.09 440.98 347.5 436.78 347.74 432.45 346.93 428.27 346.06 424.11 344.84 420.03 343.76 415.92 342.62 411.83 342.01 407.59 340.22 403.69 339.06 399.61 337.9 395.5 335.87 391.74 334.24 387.82 332.93 383.76 330.91 380.01 328.95 376.24 326.65 372.66 325.26 368.56 322.37 365.35 320.74 361.36 318.12 358 315.33 354.51 317.38 358.67 318.03 363.06 318.67 367.37 319.93 371.63 320.07 376.05 318.89 380.33 318.45 384.74 316.48 388.69 314.37 392.52 311.77 396.05 308.77 399.31 304.96 401.57 300.88 403.28 296.5 403.01 292.26 402.93 288.35 401.31 284.69 399.2 281.68 396.26 279.12 392.96 276.96 389.36 275.44 385.4 274.82 381.22 274.38 377.01 274.85 372.81 275.83 368.72 275.69 364.45 277 360.44 278.44 356.5 279.6 352.47 280.72 348.42 282.38 344.57 283.9 340.66 285.77 336.89 287.78 333.21 289.31 329.32 290.61 325.35 292.13 321.45 292.8 317.3 294.1 313.32 294.67 309.19 295.44 305.09 295.62 300.92 296.3 296.8 296.42 292.64 296.63 288.47 296.68 284.27 296.24 280.11 295.14 276.04 294.52 271.9 293.68 267.8 292.13 263.9 290.78 259.93 288.99 256.15 287.07 252.43 284.56 248.93 285.09 253.16 285.11 257.31 286.18 261.36 286.37 265.5 286.55 269.63 286.39 273.78 285.38 277.84 284.91 281.92 284.48 286.01 283.31 289.95 281.68 293.7 280.64 297.8 277.75 300.82 275.15 304 271.85 306.44 268.19 308.26 264.64 310.36 260.81 311.86 256.64 312.87 252.37 312.33 248.54 310.45 244.82 308.37 241.53 305.53 239.28 301.8 237.92 297.7 236.43 293.65 235.87 289.37 236.03 285.06 235.37 280.71 236.06 276.42 237.55 272.3 238.16 268.02 238.84 263.7 240.92 259.84 242.44 255.79 243.81 251.68 244.82 247.47 246.15 243.35 246.51 238.99 247.45 234.77 248.3 230.54 249.18 226.32 250.32 222.13 250.78 217.83 250.87 213.5 252.13 209.29 252.26 204.97 252.81 200.67 252.46 196.34 252.5 192.02 252.33 187.72 252.85 183.39 252.38 179.12 252.27 183.22 252.78 187.32 252.58 191.47 251.54 195.49 250.66 199.54 248.83 203.27 247.69 207.29 245.2 210.65 243.25 214.3 241.03 217.78 238.39 220.97 236.06 224.42 232.94 227.17 230.3 230.39 226.98 232.89 223.8 235.56 221.42 239.01 218.04 241.49 215.72 244.96 212.81 247.9 209.91 250.87 208.14 254.7 205.1 257.64 203.63 261.56 201.61 265.18 200.62 269.2 199 273.06 198.44 277.19 198.57 281.35 198.53 285.48 199.38 289.54 199.26 293.72 200.05 297.79 201.07 301.9 202.64 305.88 203.09 310.14 204.46 314.15 205.53 318.25 206.76 322.3 207.32 326.54 208.98 330.48 209.8 334.64 210.42 338.85 211.47 342.95 212.12 347.14 213 351.28 213.37 355.49 214.6 359.64 214.84 363.9 214.13 368.14 213.66 372.34 212.69 376.43 211.45 380.43 209.96 384.36 207.75 387.99 204.59 390.83 201.14 393.3 197.29 395.11 193.11 395.87 189.12 396.86 184.95 397.51 180.89 396.35 177.64 393.81 174.67 391.01 173.06 387.21 171.97 383.25 171.79 379.13 170.96 375.03 171.47 370.9 171.65 366.77 171.66 362.59 172.39 358.49 173.6 354.5 174.21 350.39 175.71 346.5 176.84 342.52 178.05 338.57 179.14 334.35 176.47 337.8 173.1 340.26 170.68 343.61 168.12 346.82 164.83 349.37 162.34 352.65 159.87 355.96 156.73 358.66 153.75 361.5 150.91 364.66 148.87 368.38 146.53 371.92 145.16 375.94 143.9 379.96 142.07 383.76 140.66 387.73 139.81 391.87 138.46 395.86 137.36 399.92 136.44 404.02 135.17 408.06 134.21 412.17 134.34 416.47 132.9 420.51 132.77 424.75 131.87 428.88 131.52 433.09 131.78 437.34 130.76 441.5 130.44 445.7 130.28 449.92 130.06 454.14 130.94 458.37 130.82 462.58 131.02 466.79 130.46 471.03 131.39 475.19 131.37 479.42 131.52 483.65 131.95 487.86 133.51 491.88 133.57 496.15 134.96 500.16 135.68 504.31"/><polygon points="343.65 518.1 343.31 522.34 343.32 526.59 343.19 530.85 341.89 534.96 341.05 539.1 340.38 543.3 339.25 547.38 338.56 551.63 337.12 555.65 334.62 559.21 333.26 563.26 331.56 567.17 328.84 570.51 326.8 574.23 324.3 577.65 322.26 581.44 319.4 584.6 316.37 587.59 313.71 590.93 310.7 593.94 307 596.17 304.18 599.42 300.5 601.6 297.2 604.3 293.29 606.05 289.94 608.74 285.96 610.31 282.19 612.28 278.43 614.33 274.29 615.39 270.17 616.46 266.2 618.06 262.09 619.2 257.86 619.8 253.63 620.3 249.35 620.23 245.13 620.69 240.88 620.52 236.65 620.57 232.4 620.48 228.2 619.86 224.02 619.14 219.86 618.35 215.65 617.72 211.44 616.98 207.43 615.55 203.67 613.46 199.45 612.54 195.83 610.25 192.18 608.1 188.38 606.22 184.82 603.9 180.99 601.98 177.61 599.39 174.44 596.54 171.17 593.83 167.92 591.06 164.97 587.98 162.77 584.25 159.79 581.21 157.2 577.85 154.91 574.26 152.82 570.57 150.48 567.02 148.12 563.45 146.36 559.56 145.34 555.38 143.68 551.47 142.51 547.39 141.27 543.33 139.99 539.25 139.56 535.01 139.03 530.8 138.22 526.61 138.18 522.35 137.86 518.1 138.02 513.84 138.04 509.57 138.49 505.33 139.26 501.14 139.93 496.93 141.32 492.88 142.5 488.81 143.68 484.72 145.21 480.76 147.15 476.98 148.16 472.76 150.24 469.04 152.56 465.47 154.94 461.94 157.28 458.4 159.49 454.74 162.5 451.71 165.32 448.53 168.51 445.72 171 442.18 174.35 439.54 177.69 436.9 180.99 434.2 184.57 431.89 188.46 430.12 192.13 427.99 195.78 425.82 199.52 423.79 203.5 422.28 207.4 420.56 211.61 419.78 215.54 418.01 219.86 417.85 224.03 417.08 228.21 416.39 232.36 415.23 236.63 415.28 240.88 414.94 245.11 415.87 249.39 415.51 253.55 416.51 257.81 416.72 261.91 417.86 266.07 418.66 270.2 419.64 274.22 421.01 278.21 422.45 282.29 423.71 286.15 425.5 289.69 427.91 293.72 429.43 297.08 432.09 300.38 434.77 304.32 436.6 307.17 439.84 310.27 442.73 313.87 445.12 316.81 448.21 319.58 451.45 322.37 454.68 324.59 458.34 327.11 461.77 329.35 465.39 331.63 468.99 333.48 472.84 334.87 476.87 336.74 480.7 338.46 484.6 339.17 488.83 340.27 492.93 341.16 497.07 342.12 501.2 343.35 505.32 343.43 509.6 344.01 513.83 343.65 518.1"/><polygon class="cls-3" points="343.65 518.1 343.31 522.34 343.32 526.59 343.19 530.85 341.89 534.96 341.05 539.1 340.38 543.3 339.25 547.38 338.56 551.63 337.12 555.65 334.62 559.21 333.26 563.26 331.56 567.17 328.84 570.51 326.8 574.23 324.3 577.65 322.26 581.44 319.4 584.6 316.37 587.59 313.71 590.93 310.7 593.94 307 596.17 304.18 599.42 300.5 601.6 297.2 604.3 293.29 606.05 289.94 608.74 285.96 610.31 282.19 612.28 278.43 614.33 274.29 615.39 270.17 616.46 266.2 618.06 262.09 619.2 257.86 619.8 253.63 620.3 249.35 620.23 245.13 620.69 240.88 620.52 236.65 620.57 232.4 620.48 228.2 619.86 224.02 619.14 219.86 618.35 215.65 617.72 211.44 616.98 207.43 615.55 203.67 613.46 199.45 612.54 195.83 610.25 192.18 608.1 188.38 606.22 184.82 603.9 180.99 601.98 177.61 599.39 174.44 596.54 171.17 593.83 167.92 591.06 164.97 587.98 162.77 584.25 159.79 581.21 157.2 577.85 154.91 574.26 152.82 570.57 150.48 567.02 148.12 563.45 146.36 559.56 145.34 555.38 143.68 551.47 142.51 547.39 141.27 543.33 139.99 539.25 139.56 535.01 139.03 530.8 138.22 526.61 138.18 522.35 137.86 518.1 138.02 513.84 138.04 509.57 138.49 505.33 139.26 501.14 139.93 496.93 141.32 492.88 142.5 488.81 143.68 484.72 145.21 480.76 147.15 476.98 148.16 472.76 150.24 469.04 152.56 465.47 154.94 461.94 157.28 458.4 159.49 454.74 162.5 451.71 165.32 448.53 168.51 445.72 171 442.18 174.35 439.54 177.69 436.9 180.99 434.2 184.57 431.89 188.46 430.12 192.13 427.99 195.78 425.82 199.52 423.79 203.5 422.28 207.4 420.56 211.61 419.78 215.54 418.01 219.86 417.85 224.03 417.08 228.21 416.39 232.36 415.23 236.63 415.28 240.88 414.94 245.11 415.87 249.39 415.51 253.55 416.51 257.81 416.72 261.91 417.86 266.07 418.66 270.2 419.64 274.22 421.01 278.21 422.45 282.29 423.71 286.15 425.5 289.69 427.91 293.72 429.43 297.08 432.09 300.38 434.77 304.32 436.6 307.17 439.84 310.27 442.73 313.87 445.12 316.81 448.21 319.58 451.45 322.37 454.68 324.59 458.34 327.11 461.77 329.35 465.39 331.63 468.99 333.48 472.84 334.87 476.87 336.74 480.7 338.46 484.6 339.17 488.83 340.27 492.93 341.16 497.07 342.12 501.2 343.35 505.32 343.43 509.6 344.01 513.83 343.65 518.1"/><polygon points="343.53 518.1 343.67 522.35 343.07 526.57 343.33 530.87 342.45 535.05 341.36 539.17 340.82 543.41 339.26 547.39 337.83 551.38 336.38 555.36 334.89 559.34 332.98 563.12 331.61 567.2 329.54 570.92 326.64 574.13 324.36 577.7 321.81 581.09 319.18 584.41 316.62 587.82 313.45 590.66 310.34 593.55 307 596.16 303.95 599.13 300.38 601.43 296.98 603.97 293.72 606.77 289.83 608.55 285.89 610.17 282.35 612.63 278.38 614.2 274.25 615.29 270.19 616.52 266.23 618.17 261.94 618.48 257.89 620 253.65 620.46 249.41 620.96 245.13 620.58 240.88 621.32 236.64 620.63 232.43 620.17 228.21 619.8 224.03 619.08 219.87 618.33 215.69 617.59 211.54 616.66 207.47 615.44 203.37 614.24 199.62 612.17 195.51 610.91 192.04 608.35 188.41 606.15 184.44 604.49 181.28 601.59 177.5 599.54 174.46 596.52 171.38 593.6 167.86 591.12 165.31 587.67 162.43 584.54 159.91 581.12 157.09 577.92 154.65 574.43 152.65 570.67 150.82 566.84 148.47 563.27 147.14 559.22 144.92 555.54 143.91 551.39 142.31 547.44 141.66 543.23 139.99 539.26 139.68 534.99 139.34 530.76 138.34 526.6 138.27 522.34 138.09 518.1 138 513.84 138.79 509.64 139.2 505.42 139.27 501.14 140.71 497.09 141.44 492.91 141.99 488.65 143.35 484.61 145.11 480.72 146.79 476.82 148.22 472.8 150.6 469.24 152.57 465.47 155.06 462.02 156.99 458.19 159.41 454.68 162.6 451.79 165.07 448.31 168.16 445.37 171.28 442.48 174.58 439.81 177.61 436.79 181.37 434.74 184.58 431.91 188.37 429.96 191.88 427.54 195.85 425.97 199.42 423.57 203.49 422.26 207.44 420.67 211.59 419.71 215.69 418.63 219.85 417.81 223.9 416.32 228.13 415.76 232.41 415.89 236.63 415.39 240.88 415.8 245.13 415.56 249.41 415.29 253.58 416.31 257.87 416.31 261.93 417.73 266.14 418.39 270.09 420.01 274.21 421.03 278.09 422.76 282.36 423.55 286.04 425.74 289.85 427.62 293.57 429.68 297.2 431.9 300.79 434.2 304.12 436.86 307.31 439.68 310.75 442.21 313.68 445.31 316.18 448.78 319.22 451.75 321.75 455.16 324.96 458.07 326.87 461.93 329.41 465.35 330.93 469.37 333.4 472.87 335.19 476.74 336.86 480.65 337.82 484.82 339.77 488.66 340.33 492.91 341.26 497.05 342.24 501.18 342.56 505.42 343.77 509.57 344.07 513.83 343.53 518.1"/><polygon class="cls-2" points="343.53 518.1 343.67 522.35 343.07 526.57 343.33 530.87 342.45 535.05 341.36 539.17 340.82 543.41 339.26 547.39 337.83 551.38 336.38 555.36 334.89 559.34 332.98 563.12 331.61 567.2 329.54 570.92 326.64 574.13 324.36 577.7 321.81 581.09 319.18 584.41 316.62 587.82 313.45 590.66 310.34 593.55 307 596.16 303.95 599.13 300.38 601.43 296.98 603.97 293.72 606.77 289.83 608.55 285.89 610.17 282.35 612.63 278.38 614.2 274.25 615.29 270.19 616.52 266.23 618.17 261.94 618.48 257.89 620 253.65 620.46 249.41 620.96 245.13 620.58 240.88 621.32 236.64 620.63 232.43 620.17 228.21 619.8 224.03 619.08 219.87 618.33 215.69 617.59 211.54 616.66 207.47 615.44 203.37 614.24 199.62 612.17 195.51 610.91 192.04 608.35 188.41 606.15 184.44 604.49 181.28 601.59 177.5 599.54 174.46 596.52 171.38 593.6 167.86 591.12 165.31 587.67 162.43 584.54 159.91 581.12 157.09 577.92 154.65 574.43 152.65 570.67 150.82 566.84 148.47 563.27 147.14 559.22 144.92 555.54 143.91 551.39 142.31 547.44 141.66 543.23 139.99 539.26 139.68 534.99 139.34 530.76 138.34 526.6 138.27 522.34 138.09 518.1 138 513.84 138.79 509.64 139.2 505.42 139.27 501.14 140.71 497.09 141.44 492.91 141.99 488.65 143.35 484.61 145.11 480.72 146.79 476.82 148.22 472.8 150.6 469.24 152.57 465.47 155.06 462.02 156.99 458.19 159.41 454.68 162.6 451.79 165.07 448.31 168.16 445.37 171.28 442.48 174.58 439.81 177.61 436.79 181.37 434.74 184.58 431.91 188.37 429.96 191.88 427.54 195.85 425.97 199.42 423.57 203.49 422.26 207.44 420.67 211.59 419.71 215.69 418.63 219.85 417.81 223.9 416.32 228.13 415.76 232.41 415.89 236.63 415.39 240.88 415.8 245.13 415.56 249.41 415.29 253.58 416.31 257.87 416.31 261.93 417.73 266.14 418.39 270.09 420.01 274.21 421.03 278.09 422.76 282.36 423.55 286.04 425.74 289.85 427.62 293.57 429.68 297.2 431.9 300.79 434.2 304.12 436.86 307.31 439.68 310.75 442.21 313.68 445.31 316.18 448.78 319.22 451.75 321.75 455.16 324.96 458.07 326.87 461.93 329.41 465.35 330.93 469.37 333.4 472.87 335.19 476.74 336.86 480.65 337.82 484.82 339.77 488.66 340.33 492.91 341.26 497.05 342.24 501.18 342.56 505.42 343.77 509.57 344.07 513.83 343.53 518.1"/><polygon points="343.32 518.1 343.86 522.36 343.5 526.6 342.85 530.81 341.9 534.96 341.56 539.21 340.64 543.36 339.47 547.45 338.5 551.61 337.01 555.61 334.77 559.28 333.67 563.46 331.19 566.97 329.03 570.62 327.2 574.5 324.55 577.84 322.21 581.4 319.42 584.62 316.26 587.49 313.48 590.7 310.76 594 307.53 596.79 304.25 599.51 300.5 601.59 296.96 603.94 293.74 606.8 289.64 608.21 286.2 610.79 282.17 612.23 278.28 613.93 274.12 614.92 270.27 616.81 266.04 617.43 261.95 618.57 257.75 619.16 253.6 620.11 249.38 620.57 245.14 621.03 240.88 621.06 236.62 621.25 232.43 620.15 228.13 620.41 224.02 619.16 219.85 618.39 215.55 618.14 211.5 616.79 207.44 615.5 203.44 614.04 199.42 612.61 195.8 610.32 191.88 608.65 188.45 606.09 184.44 604.49 181.13 601.79 177.89 599.03 174.75 596.18 171.54 593.42 168.45 590.53 165.27 587.71 162.69 584.33 159.75 581.24 156.89 578.07 154.56 574.49 152.27 570.9 150.16 567.19 148.68 563.17 146.55 559.47 145.11 555.47 143.48 551.54 142.11 547.51 141.02 543.39 140.62 539.13 139.34 535.04 139.08 530.79 138.45 526.59 137.71 522.37 137.98 518.1 138.54 513.86 138.47 509.61 138.95 505.39 139.64 501.2 139.91 496.92 141.27 492.87 142.47 488.79 143.63 484.71 144.96 480.67 146.3 476.61 148.47 472.92 150.72 469.3 152.33 465.33 154.65 461.76 156.87 458.11 160.13 455.24 162.63 451.82 165.15 448.37 168.44 445.65 171.45 442.66 174.72 439.97 177.83 437.08 181.04 434.27 184.83 432.29 188.03 429.38 192.15 428.04 195.57 425.39 199.63 424.05 203.34 421.88 207.66 421.32 211.56 419.6 215.71 418.68 219.69 417.03 223.97 416.74 228.11 415.65 232.43 416.03 236.65 415.63 240.88 415.52 245.12 415.68 249.39 415.46 253.6 416.11 257.77 416.92 262.02 417.31 266.25 417.95 270.28 419.39 274.35 420.64 278.26 422.31 282.19 423.94 285.94 425.95 289.68 427.94 293.45 429.88 297.04 432.15 300.59 434.48 304.06 436.93 307.04 439.99 310.39 442.6 313.67 445.32 316.16 448.81 319 451.95 321.81 455.12 324.82 458.17 327.17 461.73 329.04 465.57 331.72 468.94 333 473.07 335.14 476.75 336.71 480.71 337.94 484.78 339.02 488.88 340.24 492.94 341.43 497.01 342.68 501.11 342.62 505.41 343.08 509.63 343.48 513.85 343.32 518.1"/><polygon class="cls-2" points="343.32 518.1 343.86 522.36 343.5 526.6 342.85 530.81 341.9 534.96 341.56 539.21 340.64 543.36 339.47 547.45 338.5 551.61 337.01 555.61 334.77 559.28 333.67 563.46 331.19 566.97 329.03 570.62 327.2 574.5 324.55 577.84 322.21 581.4 319.42 584.62 316.26 587.49 313.48 590.7 310.76 594 307.53 596.79 304.25 599.51 300.5 601.59 296.96 603.94 293.74 606.8 289.64 608.21 286.2 610.79 282.17 612.23 278.28 613.93 274.12 614.92 270.27 616.81 266.04 617.43 261.95 618.57 257.75 619.16 253.6 620.11 249.38 620.57 245.14 621.03 240.88 621.06 236.62 621.25 232.43 620.15 228.13 620.41 224.02 619.16 219.85 618.39 215.55 618.14 211.5 616.79 207.44 615.5 203.44 614.04 199.42 612.61 195.8 610.32 191.88 608.65 188.45 606.09 184.44 604.49 181.13 601.79 177.89 599.03 174.75 596.18 171.54 593.42 168.45 590.53 165.27 587.71 162.69 584.33 159.75 581.24 156.89 578.07 154.56 574.49 152.27 570.9 150.16 567.19 148.68 563.17 146.55 559.47 145.11 555.47 143.48 551.54 142.11 547.51 141.02 543.39 140.62 539.13 139.34 535.04 139.08 530.79 138.45 526.59 137.71 522.37 137.98 518.1 138.54 513.86 138.47 509.61 138.95 505.39 139.64 501.2 139.91 496.92 141.27 492.87 142.47 488.79 143.63 484.71 144.96 480.67 146.3 476.61 148.47 472.92 150.72 469.3 152.33 465.33 154.65 461.76 156.87 458.11 160.13 455.24 162.63 451.82 165.15 448.37 168.44 445.65 171.45 442.66 174.72 439.97 177.83 437.08 181.04 434.27 184.83 432.29 188.03 429.38 192.15 428.04 195.57 425.39 199.63 424.05 203.34 421.88 207.66 421.32 211.56 419.6 215.71 418.68 219.69 417.03 223.97 416.74 228.11 415.65 232.43 416.03 236.65 415.63 240.88 415.52 245.12 415.68 249.39 415.46 253.6 416.11 257.77 416.92 262.02 417.31 266.25 417.95 270.28 419.39 274.35 420.64 278.26 422.31 282.19 423.94 285.94 425.95 289.68 427.94 293.45 429.88 297.04 432.15 300.59 434.48 304.06 436.93 307.04 439.99 310.39 442.6 313.67 445.32 316.16 448.81 319 451.95 321.81 455.12 324.82 458.17 327.17 461.73 329.04 465.57 331.72 468.94 333 473.07 335.14 476.75 336.71 480.71 337.94 484.78 339.02 488.88 340.24 492.94 341.43 497.01 342.68 501.11 342.62 505.41 343.08 509.63 343.48 513.85 343.32 518.1"/><polygon class="cls-4" points="216.68 554.21 220.15 556.7 222.61 560.28 225.74 563.14 228.02 566.7 230.4 570.22 231.56 574.3 232.61 578.4 232.88 582.7 231.49 586.8 229.24 590.42 226.4 593.7 222.67 595.91 218.64 597.51 214.31 597.61 210.01 597.91 205.75 597.19 201.79 595.42 197.73 594.01 193.85 592.11 190.4 589.5 187.31 586.71 184.14 583.98 181.86 580.47 179.04 577.37 176.9 573.77 175.6 569.78 174.42 565.81 173.25 561.86 172.85 557.75 172.09 553.57 173.04 549.43 175.09 545.71 178.4 543.13 182.16 541.18 186.4 540.78 190.44 542.14 194.59 542.61 198.58 543.85 202.15 546.09 205.87 547.92 209.52 549.91 213.23 551.85 216.68 554.21"/><polygon class="cls-5" points="216.68 554.21 220.15 556.7 222.61 560.28 225.74 563.14 228.02 566.7 230.4 570.22 231.56 574.3 232.61 578.4 232.88 582.7 231.49 586.8 229.24 590.42 226.4 593.7 222.67 595.91 218.64 597.51 214.31 597.61 210.01 597.91 205.75 597.19 201.79 595.42 197.73 594.01 193.85 592.11 190.4 589.5 187.31 586.71 184.14 583.98 181.86 580.47 179.04 577.37 176.9 573.77 175.6 569.78 174.42 565.81 173.25 561.86 172.85 557.75 172.09 553.57 173.04 549.43 175.09 545.71 178.4 543.13 182.16 541.18 186.4 540.78 190.44 542.14 194.59 542.61 198.58 543.85 202.15 546.09 205.87 547.92 209.52 549.91 213.23 551.85 216.68 554.21"/><polygon class="cls-2" points="196.27 556.48 199.85 559.58 200.94 564.25 199.34 568.63 196.14 571.68 191.56 572.42 187.7 569.91 184.61 566.41 183.27 561.93 184.28 557.48 187.74 554.89 192.25 554.29 196.27 556.48"/><polygon class="cls-2" points="215.18 567.24 218.16 570.68 219.57 575.02 219.39 579.55 217.47 583.56 214.68 586.45 210.76 587.51 206.75 586.9 202.88 585.37 200.39 581.52 198.58 577.55 197.99 573.19 199.74 569.19 202.47 565.74 206.81 564.59 211.26 565.07 215.18 567.24"/><g class="cls-6"><polyline class="cls-7" points="252.42 190.42 251.06 194.46 248.71 198.01 247.29 202.02 245.14 205.68 243.5 209.58 241.82 213.46 240.16 217.35 238.23 221.12 236.48 224.97 234.75 228.83 232.69 232.53 230.58 236.22 229.09 240.19 227.26 244 225.53 247.86 224.34 251.96 221.85 255.49 220.5 259.51 218.76 263.37 216.92 267.19 215.45 271.16 214.09 275.19 212.15 278.96 210.65 282.92 209.16 286.89 206.76 290.46 205.71 294.61 203.75 298.37 202.46 302.41 200.32 306.1 198.73 310.02 197.66 314.16 195.71 317.93 193.53 321.61 192.68 325.84 190.8 329.64 188.99 333.47 187.67 337.5 186.06 341.42 184.62 345.4 182.86 349.26 181.06 353.1 179.22 356.93 178.45 361.18 176.62 365.01 175.43 369.09 173.85 373.02 171.58 376.69 170.8 380.93 169.33 384.9 167.45 388.72 165.78 392.61 164.56 396.68 162.68 400.49 161.72 404.64 159.36 408.34 157 412 154.58 415.7 151.13 418.49 148.18 421.74 145.31 425.06 143.1 428.86 140.82 432.63 139.35 436.58 138.94 440.85 137.05 444.68 136.2 448.81 135.44 452.95 134.69 457.09 133.76 461.18 132.85 465.29 132.53 469.49 131.8 473.63 130.65 477.72 130.55 481.95 130.51 486.16 129.79 490.32 129.64 494.51 129.71 498.58 133.82 498.52 138.07 498.55 142.3 499.08 146.54 499.61 150.78 499.75 155.02 499.8 159.28 499.26 163.51 499.81 167.77 499.33 171.99 500.31 176.25 499.87 180.49 499.93 184.73 500.51 188.97 500.7 193.23 500.34 197.48 500 201.71 500.96 205.96 500.89 210.21 501 214.45 501.16 218.71 500.76 222.95 501.26 227.2 501.02 231.45 500.9 235.7 500.55 239.94 501.11 244.2 500.79 248.45 500.87 252.7 501.37 256.96 501.39 261.21 501.05 265.47 501.1 269.72 501.08 273.98 501.38 278.23 501.37 282.48 500.97 286.73 500.89 290.99 501.33 295.22 500.33 299.48 500.86 303.73 500.96 307.98 500.77 312.21 500.05 316.49 500.66 320.74 500.51 324.94 499.38 329.18 499.2 333.43 499.17 337.7 499.38 341.95 499.26 346.14 498.43 350.74 498.36 350.45 493.94 351.08 489.86 350.68 485.71 351.36 481.65 351.66 477.56 352.55 473.5 352.42 469.36 351.75 465.28 350.27 461.4 349.78 457.3 348.16 453.52 347.31 449.46 344.64 446.02 342.15 442.49 339.15 439.4 335.6 436.88 332.87 433.52 329.86 430.45 326.36 427.88 323.28 424.87 320.67 421.4 317.46 418.51 314.69 415.2 312.59 411.43 310.99 407.45 309.38 403.46 308.91 399.09 307.33 395.1 305.97 391.03 304.15 387.11 303.32 382.87 302.08 378.76 300.6 374.73 299.1 370.69 298.49 366.4 296.56 362.49 296.16 358.14 294.54 354.14 293.66 349.93 292.27 345.87 291.06 341.75 290.25 337.52 288.9 333.44 287.5 329.37 286.71 325.14 285.54 321.01 285.06 316.71 284.19 312.51 282.49 308.5 281.63 304.3 281.07 300.03 280.41 295.79 278.97 291.71 278.46 287.45 277.69 283.34 276.61 279.3 275.87 275.18 274.59 271.19 273.8 267.08 272.99 262.97 271.43 259.06 270.92 254.87 269.12 251.02 268.3 246.91 267.56 242.77 265.54 239 265.24 234.73 263.42 230.9 262.06 226.93 261.62 222.71 260.07 218.79 259.38 214.64 257.55 210.81 256.42 206.78 255.32 202.74 254.27 198.69 253.9 194.47 252.74 190.46"/></g><path class="cls-8" d="M454.05,501.93H663.61c19.12-90.43-29.8-149.61-29.8-149.61,13.06,30.86-7.12,49.85-19,48.66s-35.61-13.05-10.68-66.46S603,246.69,603,246.69c7.12,52.22-11.87,58.16-23.74,62.9s-35.6-9.49-20.18-52.22,11.54-80.64,11.54-80.64c1.18,5.93,2.61,27-22.22,51-26.11,25.26-35.6,38-29.67,67.65s32.05,89-7.12,98.51-14.24-61.72-14.24-61.72-8.45,9.32-25.06,27.12c-19.51,20.9-30.53,97.31-18.21,142.67"/><path class="cls-2" d="M454.05,502.76H663.61c19.12-90.43-29.8-149.6-29.8-149.6,13.06,30.86-7.12,49.85-19,48.66s-35.61-13.06-10.68-66.47S603,247.52,603,247.52c7.12,52.23-11.87,58.16-23.74,62.91s-35.6-9.5-20.18-52.22,11.54-80.64,11.54-80.64c1.18,5.93,2.61,27-22.22,51-26.11,25.26-35.6,38-29.67,67.66s32.05,89-7.12,98.51S497.32,333,497.32,333s-8.45,9.31-25.06,27.12c-19.51,20.89-30.53,97.31-18.21,142.66"/><circle class="cls-9" cx="558.52" cy="519.48" r="102.79"/><g class="cls-6"><path class="cls-7" d="M570.94,192.3c-26.82,54.8-63.35,138.81-91.06,214.06-3.81,10.37-20.37,20.56-23.81,30.49-8.1,23.47-3.09,44.47-8.14,63.66,52.51,1.47,168.54,4.85,220.79-.67,0-20.89,5.55-25.58-3.34-48.47-3-7.63-31.58-30.22-34.38-38.16-15.18-43.14-27.55-89.46-34.15-124-4.68-24.44-20.07-72.75-25.91-96.94"/></g><circle cx="558.52" cy="520.48" r="102.79"/><path class="cls-10" d="M462.65,482.31s26.61-17.19,72-17.79c61.09-.8,57.23-27.35,63.95-39.75"/><path class="cls-10" d="M515.09,426.28s66.49-17.79,106.14,68c22,47.63,11.68,85.48-1.11,107.43"/><path class="cls-10" d="M530.6,618.43s24.51-21.78,47.53-69.43c24.57-50.86,30.17-48.27,43.1-54.74s28.44,13.4,39.65,15.75"/><path class="cls-10" d="M476.05,580.85s-4.81-18.92,27.95-46.5,72.26-56.67,102.72-65.62,30.53-9.81,38.68-4.21"/><circle class="cls-11" cx="558.52" cy="519.48" r="102.79"/></g></g></svg>