<svg xmlns="http://www.w3.org/2000/svg" viewBox="0 0 800 800"><defs><style>.cls-1{isolation:isolate;}.cls-2{fill:#fff;}.cls-3{fill:none;stroke:#000;stroke-linejoin:bevel;stroke-width:8px;}.cls-4{mix-blend-mode:darken;}.cls-5{fill:red;}</style></defs><title>coughinnails</title><g class="cls-1"><g id="Layer_1" data-name="Layer 1"><polyline class="cls-2" points="420.58 242.21 419.27 249.29 418.98 256.51 417.6 263.58 416.9 270.75 416.16 277.9 414.87 284.98 414 292.12 413.17 299.27 412.3 306.41 410.96 313.49 409.73 320.58 409.13 327.75 407.76 334.83 407.16 342 406.33 349.15 405.05 356.24 404.72 363.45 402.89 370.46 402.74 377.7 401.76 384.82 400.88 391.96 399.2 399 398.61 406.18 397.37 413.27 396.89 420.46 395.54 427.54 395.12 434.74 393.95 441.83 392.64 448.91 391.65 456.04 390.58 463.15 390.37 470.38 388.67 477.41 387.9 484.56 387.04 491.7 386.47 498.88 385.46 506.01 384.67 513.16 383.36 520.24 382.5 527.38 381.93 534.57 380.91 541.69 379.79 548.8 378.34 555.87 377.81 563.06 376.52 570.15 375.53 577.27 375.28 584.5 373.34 591.5 372.83 598.7 372.42 605.9 370.9 612.96 369.89 620.09 368.66 627.19 368.13 634.27 370.39 627.49 372.1 620.43 373.89 613.39 375.63 606.34 377.42 599.3 379.49 592.34 381.42 585.34 383.46 578.37 385.25 571.34 387.13 564.32 389.27 557.38 391.09 550.35 393.22 543.41 394.52 536.24 396.49 529.25 399.06 522.42 400.69 515.34 402.88 508.41 405.05 501.48 406.23 494.27 408.37 487.33 410.24 480.31 412.32 473.35 414.66 466.46 416.1 459.33 418.4 452.44 419.61 445.24 421.53 438.24 424.1 431.42 425.41 424.25 427.3 417.24 429.68 410.36 431.22 403.26 433.63 396.39 435.69 389.43 436.9 382.23 439.32 375.36 441.33 368.38 443.23 361.37 445.22 354.38 446.61 347.23 448.96 340.35 450.62 333.27 452.3 326.19 454.54 319.27 456.49 312.28 458.61 305.33 460.27 298.25 462.4 291.3 463.78 284.15 466.16 277.27 468.21 270.3 470.37 263.34 471.75 256.18"/><polyline class="cls-3" points="420.58 242.21 419.27 249.29 418.98 256.51 417.6 263.58 416.9 270.75 416.16 277.9 414.87 284.98 414 292.12 413.17 299.27 412.3 306.41 410.96 313.49 409.73 320.58 409.13 327.75 407.76 334.83 407.16 342 406.33 349.15 405.05 356.24 404.72 363.45 402.89 370.46 402.74 377.7 401.76 384.82 400.88 391.96 399.2 399 398.61 406.18 397.37 413.27 396.89 420.46 395.54 427.54 395.12 434.74 393.95 441.83 392.64 448.91 391.65 456.04 390.58 463.15 390.37 470.38 388.67 477.41 387.9 484.56 387.04 491.7 386.47 498.88 385.46 506.01 384.67 513.16 383.36 520.24 382.5 527.38 381.93 534.57 380.91 541.69 379.79 548.8 378.34 555.87 377.81 563.06 376.52 570.15 375.53 577.27 375.28 584.5 373.34 591.5 372.83 598.7 372.42 605.9 370.9 612.96 369.89 620.09 368.66 627.19 368.13 634.27 370.39 627.49 372.1 620.43 373.89 613.39 375.63 606.34 377.42 599.3 379.49 592.34 381.42 585.34 383.46 578.37 385.25 571.34 387.13 564.32 389.27 557.38 391.09 550.35 393.22 543.41 394.52 536.24 396.49 529.25 399.06 522.42 400.69 515.34 402.88 508.41 405.05 501.48 406.23 494.27 408.37 487.33 410.24 480.31 412.32 473.35 414.66 466.46 416.1 459.33 418.4 452.44 419.61 445.24 421.53 438.24 424.1 431.42 425.41 424.25 427.3 417.24 429.68 410.36 431.22 403.26 433.63 396.39 435.69 389.43 436.9 382.23 439.32 375.36 441.33 368.38 443.23 361.37 445.22 354.38 446.61 347.23 448.96 340.35 450.62 333.27 452.3 326.19 454.54 319.27 456.49 312.28 458.61 305.33 460.27 298.25 462.4 291.3 463.78 284.15 466.16 277.27 468.21 270.3 470.37 263.34 471.75 256.18"/><polygon class="cls-2" points="456.37 246.81 450.72 242.03 444.9 237.53 438.83 233.35 433.15 228.68 427.26 224.28 421.61 219.56 415.82 215.01 409.95 210.7 415.23 206.72 421.03 203.31 426.15 198.95 431.68 195.15 437.24 191.38 442.65 187.46 448.17 192.29 454.27 196.43 460.25 200.71 466.13 205.14 471.55 210.15 477.78 214.12 483.41 218.87 489.23 223.43 483.66 227.22 478.51 231.55 472.52 234.68 467.19 238.78 461.77 242.73 456.37 246.81"/><polygon class="cls-3" points="456.37 246.81 450.72 242.03 444.9 237.53 438.83 233.35 433.15 228.68 427.26 224.28 421.61 219.56 415.82 215.01 409.95 210.7 415.23 206.72 421.03 203.31 426.15 198.95 431.68 195.15 437.24 191.38 442.65 187.46 448.17 192.29 454.27 196.43 460.25 200.71 466.13 205.14 471.55 210.15 477.78 214.12 483.41 218.87 489.23 223.43 483.66 227.22 478.51 231.55 472.52 234.68 467.19 238.78 461.77 242.73 456.37 246.81"/><polygon class="cls-2" points="410.3 209.67 409 216.35 407.89 223.47 406.45 230.3 412.15 234.88 417.65 240.01 423.29 244.99 429.58 249.17 435.38 253.94 441 258.94 447.12 263.34 452.8 268.84 454.08 261.38 455.36 254.3 456.81 247.23 451.05 242.37 444.88 238.06 439.42 232.87 433.17 228.64 427.65 223.51 421.98 218.57 416.29 213.64 410.3 209.67"/><polygon class="cls-3" points="410.3 209.67 409 216.35 407.89 223.47 406.45 230.3 412.15 234.88 417.65 240.01 423.29 244.99 429.58 249.17 435.38 253.94 441 258.94 447.12 263.34 452.8 268.84 454.08 261.38 455.36 254.3 456.81 247.23 451.05 242.37 444.88 238.06 439.42 232.87 433.17 228.64 427.65 223.51 421.98 218.57 416.29 213.64 410.3 209.67"/><polygon points="489.24 224.34 487.75 231.59 486.15 238.61 484.89 245.62 478.65 250.38 472.08 254.77 465.49 259.15 459.23 264 452.53 268.73 454.45 261.45 455.06 254.24 456.67 247.17 463.43 242.97 469.95 238.51 476.38 233.91 482.84 229.33 489.24 224.34"/><polygon class="cls-3" points="489.24 224.34 487.75 231.59 486.15 238.61 484.89 245.62 478.65 250.38 472.08 254.77 465.49 259.15 459.23 264 452.53 268.73 454.45 261.45 455.06 254.24 456.67 247.17 463.43 242.97 469.95 238.51 476.38 233.91 482.84 229.33 489.24 224.34"/><polyline class="cls-2" points="440.73 258.08 439.32 265.19 438.06 272.32 436.31 279.36 435.91 286.65 434.31 293.72 432.31 300.72 431.87 308 430.03 315.03 429.14 322.23 427.11 329.22 426.41 336.46 424.61 343.49 423.65 350.68 421.87 357.72 420.39 364.81 419.85 372.08 417.96 379.1 417.02 386.29 415.36 393.34 413.72 400.4 413.28 407.69 411.26 414.68 410.5 421.9 409.28 429.04 407.17 436.01 405.94 443.16 404.41 450.24 403.92 457.52 402.28 464.58 400.41 471.6 399.63 478.82 398.24 485.94 396.97 493.07 395.65 500.19 394.34 507.32 393.15 514.47 391.75 521.59 389.88 528.6 388.6 535.74 387.68 542.94 385.79 549.96 384.45 557.08 383.44 564.26 382.18 571.4 380.63 578.5 379.83 585.73"/><polyline class="cls-3" points="440.73 258.08 439.32 265.19 438.06 272.32 436.31 279.36 435.91 286.65 434.31 293.72 432.31 300.72 431.87 308 430.03 315.03 429.14 322.23 427.11 329.22 426.41 336.46 424.61 343.49 423.65 350.68 421.87 357.72 420.39 364.81 419.85 372.08 417.96 379.1 417.02 386.29 415.36 393.34 413.72 400.4 413.28 407.69 411.26 414.68 410.5 421.9 409.28 429.04 407.17 436.01 405.94 443.16 404.41 450.24 403.92 457.52 402.28 464.58 400.41 471.6 399.63 478.82 398.24 485.94 396.97 493.07 395.65 500.19 394.34 507.32 393.15 514.47 391.75 521.59 389.88 528.6 388.6 535.74 387.68 542.94 385.79 549.96 384.45 557.08 383.44 564.26 382.18 571.4 380.63 578.5 379.83 585.73"/><polyline class="cls-2" points="444.87 212.13 450.51 218 455.91 224.11"/><polyline class="cls-3" points="444.87 212.13 450.51 218 455.91 224.11"/><polyline class="cls-2" points="331.59 207.25 333.24 214.25 334.63 221.3 336.51 228.25 338.17 235.25 339.44 242.34 341.04 249.35 342.75 256.33 344.39 263.34 346.21 270.31 347.47 277.39 349.02 284.41 350.08 291.55 352.18 298.45 353.06 305.62 355.4 312.47 356.08 319.69 358.41 326.54 359.77 333.6 360.8 340.74 362.99 347.62 364.1 354.75 365.74 361.75 367.29 368.78 368.8 375.81 370.59 382.78 372.27 389.78 373.21 396.93 374.93 403.92 376.25 410.99 378.43 417.87 379.87 424.92 381.19 431.99 383.25 438.9 384.71 445.95 386.03 453.02 387.13 460.14 388.88 467.13 390.42 474.15 392.18 481.13 393.69 488.17 395.12 495.22 396.57 502.27 398.5 509.21 399.43 516.38 401.43 523.31 402.84 530.37 404.85 537.29 405.64 544.49 407.52 551.44 409.28 558.42 410.45 565.53 412 572.56 413.57 579.59 415.4 586.56 416.94 594.01 415.77 586.43 415.4 579.17 415.24 571.9 414.89 564.64 413.53 557.47 412.96 550.24 412.74 542.97 412.55 535.7 411.07 528.54 411.2 521.24 410.49 514.01 409.91 506.78 408.76 499.59 408.96 492.28 408.2 485.06 407.53 477.83 406.76 470.61 405.94 463.39 405.61 456.13 405.39 448.86 404.71 441.63 403.94 434.41 403.26 427.18 402.18 419.98 401.98 412.71 401.62 405.46 401.19 398.21 400.58 390.98 399.48 383.79 398.71 376.57 398.05 369.34 398.33 362.03 397.32 354.83 397.02 347.56 395.79 340.38 395.24 333.14 395.07 325.87 394.47 318.63 393.55 311.42 392.79 304.19 392.09 296.96 392.34 289.65 391.78 282.41 390.75 275.2 389.76 267.99 389.93 260.69 389.2 253.47 388.3 246.25 387.84 239 386.89 231.79 386.72 224.51 386.02 217.28 384.93 210.07 384.39 202.82"/><polyline class="cls-3" points="331.59 207.25 333.24 214.25 334.63 221.3 336.51 228.25 338.17 235.25 339.44 242.34 341.04 249.35 342.75 256.33 344.39 263.34 346.21 270.31 347.47 277.39 349.02 284.41 350.08 291.55 352.18 298.45 353.06 305.62 355.4 312.47 356.08 319.69 358.41 326.54 359.77 333.6 360.8 340.74 362.99 347.62 364.1 354.75 365.74 361.75 367.29 368.78 368.8 375.81 370.59 382.78 372.27 389.78 373.21 396.93 374.93 403.92 376.25 410.99 378.43 417.87 379.87 424.92 381.19 431.99 383.25 438.9 384.71 445.95 386.03 453.02 387.13 460.14 388.88 467.13 390.42 474.15 392.18 481.13 393.69 488.17 395.12 495.22 396.57 502.27 398.5 509.21 399.43 516.38 401.43 523.31 402.84 530.37 404.85 537.29 405.64 544.49 407.52 551.44 409.28 558.42 410.45 565.53 412 572.56 413.57 579.59 415.4 586.56 416.94 594.01 415.77 586.43 415.4 579.17 415.24 571.9 414.89 564.64 413.53 557.47 412.96 550.24 412.74 542.97 412.55 535.7 411.07 528.54 411.2 521.24 410.49 514.01 409.91 506.78 408.76 499.59 408.96 492.28 408.2 485.06 407.53 477.83 406.76 470.61 405.94 463.39 405.61 456.13 405.39 448.86 404.71 441.63 403.94 434.41 403.26 427.18 402.18 419.98 401.98 412.71 401.62 405.46 401.19 398.21 400.58 390.98 399.48 383.79 398.71 376.57 398.05 369.34 398.33 362.03 397.32 354.83 397.02 347.56 395.79 340.38 395.24 333.14 395.07 325.87 394.47 318.63 393.55 311.42 392.79 304.19 392.09 296.96 392.34 289.65 391.78 282.41 390.75 275.2 389.76 267.99 389.93 260.69 389.2 253.47 388.3 246.25 387.84 239 386.89 231.79 386.72 224.51 386.02 217.28 384.93 210.07 384.39 202.82"/><polygon class="cls-2" points="367.06 199.18 360.02 197.04 352.98 194.91 346.19 192 338.95 190.5 332.15 187.63 325.11 185.49 318.11 183.21 311.23 181.16 314.92 175.82 318.82 170.36 322.33 164.64 326.63 159.46 329.79 153.49 333.83 148.07 340.91 150.19 347.75 152.96 354.95 154.58 361.83 157.22 368.84 159.44 375.75 161.97 382.94 163.67 389.72 166.13 386.24 171.65 382.58 177.28 378.42 182.55 374.74 188.16 370.91 193.67 367.06 199.18"/><polygon class="cls-3" points="367.06 199.18 360.02 197.04 352.98 194.91 346.19 192 338.95 190.5 332.15 187.63 325.11 185.49 318.11 183.21 311.23 181.16 314.92 175.82 318.82 170.36 322.33 164.64 326.63 159.46 329.79 153.49 333.83 148.07 340.91 150.19 347.75 152.96 354.95 154.58 361.83 157.22 368.84 159.44 375.75 161.97 382.94 163.67 389.72 166.13 386.24 171.65 382.58 177.28 378.42 182.55 374.74 188.16 370.91 193.67 367.06 199.18"/><polygon class="cls-2" points="310.57 179.47 312.41 186.81 313.15 193.98 314.15 201.15 321.47 203.1 328.55 205.62 335.54 208.4 342.68 210.74 349.85 212.99 356.89 215.64 363.82 218.6 371.14 221 370.31 213.66 369.05 206.58 367.45 199.66 360.61 196.77 353.43 194.53 346.44 191.76 339.35 189.28 332.21 186.93 324.88 185.12 318.06 181.86 310.57 179.47"/><polygon class="cls-3" points="310.57 179.47 312.41 186.81 313.15 193.98 314.15 201.15 321.47 203.1 328.55 205.62 335.54 208.4 342.68 210.74 349.85 212.99 356.89 215.64 363.82 218.6 371.14 221 370.31 213.66 369.05 206.58 367.45 199.66 360.61 196.77 353.43 194.53 346.44 191.76 339.35 189.28 332.21 186.93 324.88 185.12 318.06 181.86 310.57 179.47"/><polygon points="390.21 167.36 391.75 174.14 392.22 181.35 393.9 188.47 389.08 194.86 385 201.65 380.48 208.14 375.62 214.4 370.97 221.23 369.68 213.76 368.93 206.6 368 199.62 372.08 193 376.95 186.76 381.51 180.3 385.53 173.46 390.21 167.36"/><polygon class="cls-3" points="390.21 167.36 391.75 174.14 392.22 181.35 393.9 188.47 389.08 194.86 385 201.65 380.48 208.14 375.62 214.4 370.97 221.23 369.68 213.76 368.93 206.6 368 199.62 372.08 193 376.95 186.76 381.51 180.3 385.53 173.46 390.21 167.36"/><polyline class="cls-2" points="356.51 215.15 357.33 222.35 359.13 229.4 360.07 236.59 361.24 243.73 362.11 250.93 363.12 258.11 365.02 265.13 365.41 272.41 367.35 279.43 368.62 286.56 369.24 293.8 370.4 300.95 371.61 308.09 373.11 315.19 373.87 322.4 375.5 329.48 376.47 336.66 377.89 343.76 378.49 351 380.35 358.03 381.27 365.22 382.77 372.31 383.15 379.59 385.08 386.62 385.86 393.83 387.28 400.93 388 408.16 389.31 415.28 390.99 422.35 391.69 429.57 392.85 436.73 393.98 443.88 395.76 450.93 396.31 458.19 397.65 465.31 399.01 472.43 400.26 479.57 401.12 486.77 402.19 493.94 403.89 501 405.19 508.13 406.24 515.31 407 522.52 408.12 529.69 409.61 536.8 411.25 543.88"/><polyline class="cls-3" points="356.51 215.15 357.33 222.35 359.13 229.4 360.07 236.59 361.24 243.73 362.11 250.93 363.12 258.11 365.02 265.13 365.41 272.41 367.35 279.43 368.62 286.56 369.24 293.8 370.4 300.95 371.61 308.09 373.11 315.19 373.87 322.4 375.5 329.48 376.47 336.66 377.89 343.76 378.49 351 380.35 358.03 381.27 365.22 382.77 372.31 383.15 379.59 385.08 386.62 385.86 393.83 387.28 400.93 388 408.16 389.31 415.28 390.99 422.35 391.69 429.57 392.85 436.73 393.98 443.88 395.76 450.93 396.31 458.19 397.65 465.31 399.01 472.43 400.26 479.57 401.12 486.77 402.19 493.94 403.89 501 405.19 508.13 406.24 515.31 407 522.52 408.12 529.69 409.61 536.8 411.25 543.88"/><polyline class="cls-2" points="342.03 170.08 349.97 173.24 357.99 176.19"/><polyline class="cls-3" points="342.03 170.08 349.97 173.24 357.99 176.19"/><g class="cls-4"><polygon class="cls-5" points="381.67 411.28 374.06 414.37 366.82 418.19 359.71 422.25 353.34 426.24 347.65 431.17 342.64 436.76 338.02 442.7 335.21 448.21 334.19 454.32 332.15 460.08 329.55 468.38 326.99 475.36 325.92 482.73 324.93 490.14 325.74 497.58 327.08 504.9 329.53 511.93 332.81 518.58 337.04 524.66 341.35 529.69 346.61 533.73 351.78 537.88 357.81 541.55 363.8 545.32 370.47 547.73 376.93 550.52 383.69 552.5 390.41 554.55 397.31 555.9 404.14 557.84 411.22 557.98 418.25 558.73 427.14 557.5 435.84 555.69 442.13 552.5 446.96 547.37 451.53 542.06 455.5 536.23 457.75 529.52 460.58 522.72 462.59 515.63 464.75 508.55 465.83 501.24 466.73 493.88 466.23 486.49 466.35 479.07 464.82 471.82 463.82 464.47 460.78 457.68 458.78 450.52 454.6 444.37 450.93 438.24 446.36 432.75 441.51 427.47 435.74 423.22 430.13 418.71 423.75 415.39 417.11 412.61 410.01 411.4 403.06 409.65 395.89 409.36 388.8 410.4 381.67 411.28"/></g><polyline class="cls-5" points="397.54 598.87 397.42 602.95 396.58 606.86 395.46 610.73 394.36 614.6 394.59 618.7 393.29 622.55 392.86 626.54 392.37 630.52 392.52 634.91 391.69 639.28 392.51 643.64 394.28 647.69 397.43 650.72 401.57 651.63 405.55 650.32 407.81 646.04 407.45 641.18 406.39 637 405.2 632.87 403.48 628.91 402.53 624.71 401.46 620.55 400.42 616.39 399.38 612.25 398.16 608.11 397.63 603.83 397.7 599.49"/><path class="cls-5" d="M396,598.87a44.77,44.77,0,0,1-2,11.46,23.64,23.64,0,0,0-1.13,4.79c-.08,1.1.33,2.26.19,3.35s-.9,2.31-1.17,3.47a43.34,43.34,0,0,0-1,10.78c.16,4.24-1.12,7.43.28,11.67,1.21,3.69,3.53,7.21,7.44,8.13s7.36.12,9.32-3.59c3.71-7-1.7-15.16-3.43-22.07-2.24-9-5.5-18.07-5.35-27.37,0-1.93-3-1.93-3,0-.12,7.51,2,14.23,3.82,21.46.87,3.43,1.43,7,2.84,10.28A43,43,0,0,1,406,641.94c.42,3,.48,3.4-.62,5.48-.33.62-1.72,2.44-.46,1.52a9.73,9.73,0,0,1-3.54,1.17,8.24,8.24,0,0,1-4.14-1.64,10.79,10.79,0,0,1-3.34-5.37c-1.17-3.81.08-6.55,0-10.85A39.92,39.92,0,0,1,395,622.19c1-3.85.88-7.44,2-11.28a47,47,0,0,0,2.07-12c.06-1.93-2.94-1.93-3,0Z"/><polyline class="cls-5" points="449.2 568.86 449.21 573.24 448.27 577.49 446.94 581.63 445.27 585.65 444.16 589.85 442.9 593.99 441.98 598.23 441.04 602.46 440.48 606.02 440.57 609.65 442.15 612.88 444.28 615.81 447.87 616.39 451.21 615.33 452.44 612.4 453.81 609.38 453.86 605.05 453.84 600.75 454.23 596.45 454.04 592.15 453.62 587.86 452.76 583.64 452.48 579.32 450.66 575.32 449.74 571.14 448.82 566.92"/><path class="cls-5" d="M447.7,568.86c0,7.62-3.13,14.2-5.23,21.41-1.75,6-5.19,14.89-2.79,21,1.43,3.62,3.39,6.52,7.53,6.56s5.19-1.59,6.67-5c1.69-3.86,1.35-7.07,1.46-11.24a93.1,93.1,0,0,0,.11-10.3,62.36,62.36,0,0,0-.9-6.4c-.36-1.95-.14-4.09-.62-6-.54-2.12-1.81-3.91-2.28-6.09l-1.38-6.31c-.41-1.89-3.3-1.09-2.89.8.66,3,1.09,6.35,2.22,9.27,1.34,3.47,1.47,5.9,2.24,10,1.22,6.57.56,13.1.5,19.73a9.28,9.28,0,0,1-1.12,5.15c-.22.51-.49,1-.66,1.55a7.83,7.83,0,0,1-.67,1.6c1.06-1.37.26-.28-.75-.21s-1.07.39-1.8.37c-.55,0-3.17-.77-1.93.05-1.18-.78-2.16-3.06-2.76-4.34-2.3-4.89,1.26-14.33,2.89-20,2.09-7.34,5.17-13.84,5.16-21.61a1.5,1.5,0,0,0-3,0Z"/><polyline class="cls-5" points="345.08 556.74 344.25 560.8 342.38 564.48 341.01 568.34 339.57 572.17 338.09 575.99 336.87 579.91 335.56 583.95 333.85 587.9 333.53 592.19 333.85 596.51 336.95 600.61 341.33 602.66 345.42 601.19 347.4 597.31 348.21 593.05 348.26 588.61 348.3 584.17 347.61 579.82 347.1 575.44 346.44 571.07 346.14 566.67 346.12 562.26 346.36 557.87"/><path class="cls-5" d="M343.63,556.34c-1.34,6.56-4.72,12.78-6.95,19.15s-5.67,13.26-4.39,20.16c1,5.52,9,11.45,14.19,6.6,4.34-4.1,3.75-14.06,3.13-19.34-1-8.48-2.21-16.46-1.76-25,.11-1.93-2.89-1.93-3,0a106.16,106.16,0,0,0,.9,18.86c.79,6.3,2.3,13.73.25,19.94-.26.78-.8,1.47-1.1,2.23a5.65,5.65,0,0,1-.67,1.32s1-.76.27-.29a10.21,10.21,0,0,1-2.76,1c-1.27.25-.2.31.16.35a5.7,5.7,0,0,1-1.6-.75c-3.36-1.69-5.11-3.42-5.21-7.48-.13-5.49,2.43-10.88,4.44-16.66,2.25-6.44,5.64-12.61,7-19.26.39-1.88-2.5-2.69-2.89-.79Z"/></g></g></svg>