<svg xmlns="http://www.w3.org/2000/svg" xmlns:xlink="http://www.w3.org/1999/xlink" viewBox="0 0 800 800"><defs><style>.cls-1,.cls-3,.cls-4,.cls-5,.cls-7{fill:none;}.cls-2{isolation:isolate;}.cls-3,.cls-4{stroke:#000;}.cls-3,.cls-5{stroke-linejoin:bevel;}.cls-3,.cls-4,.cls-7{stroke-width:8px;}.cls-4,.cls-7{stroke-miterlimit:10;}.cls-5{stroke:#fff;stroke-width:6px;}.cls-6{mix-blend-mode:multiply;}.cls-7{stroke:red;}.cls-8{clip-path:url(#clip-path);}</style><clipPath id="clip-path"><polygon class="cls-1" points="568.45 295.56 568.66 302.73 567.77 309.85 566.93 316.94 566.11 324.05 565.43 331.22 563.25 338.07 561.58 345.05 558.88 351.7 556.46 358.44 553.87 365.12 550.97 371.68 547.68 378.06 543.31 383.81 539.65 389.95 535.91 396.09 531.58 401.81 526.5 406.9 521.75 412.26 517.02 417.66 511.16 421.88 506.27 427.19 500.56 431.53 494.53 435.44 488.4 439.15 482.42 443.11 476.12 446.55 469.63 449.6 462.98 452.29 456.25 454.78 449.56 457.38 442.43 458.51 435.51 460.31 428.59 462.27 421.44 462.98 414.27 463.22 407.14 463.69 400 464.68 392.85 463.9 385.69 463.63 378.59 462.73 371.56 461.43 364.46 460.43 357.49 458.82 350.51 457.16 343.66 455.01 337.12 452.05 330.29 449.78 324.22 445.87 317.59 443.09 311.75 438.9 305.35 435.61 299.85 430.97 294.11 426.7 288.72 422 283.14 417.49 278.46 412.04 273.5 406.9 268.37 401.85 264.53 395.75 259.88 390.26 256.23 384.08 252.86 377.76 249.23 371.58 245.87 365.23 243.79 358.33 241.29 351.64 238.72 344.96 236.74 338.08 235.26 331.07 233.82 324.06 232.7 316.99 231.45 309.91 231.59 302.72 231.6 295.56 231.04 288.39 231.46 281.22 233.09 274.19 233.21 266.96 235.25 260.05 236.91 253.09 238.45 246.09 241.28 239.49 243.28 232.59 246.57 226.21 248.93 219.4 252.77 213.32 256.44 207.17 259.94 200.9 264.52 195.36 268.47 189.36 273.09 183.87 278.49 179.11 283.4 173.9 288.62 169 294.26 164.59 299.42 159.57 305.54 155.79 311.6 151.99 317.75 148.33 323.88 144.58 330.57 141.96 337.16 139.18 343.91 136.81 350.71 134.61 357.55 132.54 364.35 130.14 371.55 129.65 378.5 127.68 385.72 127.79 392.85 127.31 400 126.85 407.17 126.76 414.27 127.9 421.38 128.64 428.5 129.38 435.62 130.3 442.61 131.94 449.35 134.43 456.07 136.87 462.84 139.19 469.61 141.56 476.2 144.44 482.39 148.07 488.71 151.49 494.52 155.72 500.06 160.27 506.24 163.99 511.8 168.54 516.73 173.77 521.55 179.07 526.75 184.01 531.55 189.35 535.99 195 539.47 201.3 543.97 206.93 547.25 213.31 550.91 219.48 554.09 225.91 556.52 232.67 559.44 239.23 561.23 246.19 563.42 253.01 564.78 260.05 566.3 267.05 567.69 274.09 568.35 281.23 568.37 288.41 568.45 295.56"/></clipPath></defs><title>cover the world</title><g class="cls-2"><g id="Layer_1" data-name="Layer 1"><polygon points="345.33 416.93 352.21 418.97 359.42 419.27 366.5 417.23 370.02 410.75 373.21 404.21 376.46 397.71 379.39 391.06 382.42 384.45 385.04 377.67 388.37 371.18 390.94 364.37 392.81 357.32 395.07 350.41 397.42 343.54 399.69 336.63 401.66 329.63 404.06 322.76 405.3 315.56 407.75 308.69 409.52 301.63 411.06 294.53 412.69 287.44 414.23 280.34 415.12 273.1 416.4 265.95 417.36 258.74 419.39 251.7 420.23 244.48 420.76 237.23 421.99 230.07 417.73 225.56 412.13 222.55 406.03 220.58 399.97 218.26 393.51 217.87 387.69 219.9 384.73 226.53 381.53 233.05 377.83 239.35 374.86 245.99 371.99 252.66 369.17 259.36 366.78 266.24 363.75 272.86 361.18 279.66 359.39 286.75 356.48 293.42 354.42 300.39 351.51 307.09 350.2 314.3 348.03 321.23 345.82 328.15 343.68 335.09 341.94 342.15 340.82 349.36 338.98 356.39 337.37 363.48 335.93 370.61 335.03 377.83 333.88 385.01 332.8 392.21 332.35 399.47 332.34 406.65 336.89 411.65 342.58 415.93 349.27 418.49 345.33 416.93"/><polygon class="cls-3" points="345.33 416.93 352.21 418.97 359.42 419.27 366.5 417.23 370.02 410.75 373.21 404.21 376.46 397.71 379.39 391.06 382.42 384.45 385.04 377.67 388.37 371.18 390.94 364.37 392.81 357.32 395.07 350.41 397.42 343.54 399.69 336.63 401.66 329.63 404.06 322.76 405.3 315.56 407.75 308.69 409.52 301.63 411.06 294.53 412.69 287.44 414.23 280.34 415.12 273.1 416.4 265.95 417.36 258.74 419.39 251.7 420.23 244.48 420.76 237.23 421.99 230.07 417.73 225.56 412.13 222.55 406.03 220.58 399.97 218.26 393.51 217.87 387.69 219.9 384.73 226.53 381.53 233.05 377.83 239.35 374.86 245.99 371.99 252.66 369.17 259.36 366.78 266.24 363.75 272.86 361.18 279.66 359.39 286.75 356.48 293.42 354.42 300.39 351.51 307.09 350.2 314.3 348.03 321.23 345.82 328.15 343.68 335.09 341.94 342.15 340.82 349.36 338.98 356.39 337.37 363.48 335.93 370.61 335.03 377.83 333.88 385.01 332.8 392.21 332.35 399.47 332.34 406.65 336.89 411.65 342.58 415.93 349.27 418.49 345.33 416.93"/><polyline class="cls-3" points="378.44 459.15 383.05 452.48 387.29 445.56 384.18 438.38 378.1 433.01 372.24 428.45 365.59 425.1 358.42 423.05 351.03 421.96 343.66 422.69 347.78 424.21 341.82 419.29 335.05 416.15 327.87 414.31 320.56 413.02 313.1 413.36 305.25 415.4 298.38 419.1 298.32 427.25 298.78 435.37"/><polyline class="cls-4" points="365.2 425.37 363.2 432.2 360.44 438.79 358.47 445.63 356.85 452.57 354.87 459.4 352.38 466.08 350.49 472.93 348.51 479.76 346.86 486.69 344.38 493.37 341.78 500.01 339.61 506.79 337.74 513.65 335.66 520.45 333.58 527.26 331.36 534.01 329.03 540.74 326.79 547.49 324.6 554.26 322.25 560.98 320.28 567.83 318.28 574.66 316.2 581.48 313.15 587.96 310.78 594.67 309.27 601.68 306.49 608.25 304.44 615.08 301.96 621.76 299.22 628.34 296.83 635.05 293.53 641.39 291.11 648.09 288.42 654.63 285.13 660.15 280.93 664.93 276.62 669.74 271.1 673.06 270.41 672.95 267.78 667.21 266.57 660.9 266.31 654.56 267.13 648.28 268.81 641.38 269.87 634.35 270.62 627.24 272.11 620.28 274.48 613.52 275.17 606.38 277.64 599.65 278.61 592.57 280.7 585.76 282.7 578.92 283.88 571.88 285.78 565.02 288.06 558.27 289.93 551.4 290.88 544.29 292.79 537.43 294.79 530.6 296.52 523.7 298.74 516.92 300.71 510.08 302.15 503.09 304.29 496.29 306.34 489.48 308.8 482.78 310.77 475.95 312.45 469.03 314.08 462.09 316.48 455.38 318.3 448.5 320.38 441.69 321.95 434.74 324.69 428.13 326.82 421.35 328.2 414.35"/><polyline class="cls-3" points="345.9 423.42 343.37 430.02 341.97 436.95 340.03 443.74 337.28 450.27 335.38 457.06 333.29 463.8 332.04 470.79 329.17 477.29 327.95 484.29 325.8 491 323.79 497.76 321.79 504.52 320.01 511.35 317.71 518.02 315.96 524.86 313.9 531.61 311.36 538.21 309.33 544.97 307.65 551.85 304.98 558.73 302.44 565.66 299.51 572.45 296.76 579.3 294.53 586.35 292.18 593.35 289.59 600.27 286.3 606.91 284.48 614.11 281.9 621.03 279.24 627.92 276.75 634.87 274.18 641.79 271.51 648.68 268.38 655.4 266.06 662.42"/><polygon points="345.85 422.88 344.21 430.44 342.09 437.42 340.52 444.54 337.99 451.41 336.6 458.57 334.34 465.5 332.4 472.52 331.08 479.71 328.97 486.69 327.44 493.81 325.47 500.83 323.64 507.88 321.42 514.83 319.92 521.97 317.77 528.93 315.5 535.87 313.79 542.96 312.45 550.14 310.63 557.2 308.04 564.05 306.06 571.07 304.71 578.25 302.49 585.2 300.65 592.25 298.59 599.24 297.02 606.37 295.76 613.57 293.87 620.61 291.5 627.53 289.56 634.55 288.11 641.71 285.64 648.6 284.05 655.72 277.95 661.06 271.75 666.18 270.69 659.13 268.87 652.02 271.11 644.97 274.08 638.25 276.01 631.19 278.35 624.27 280.94 617.43 282.88 610.38 285.29 603.49 287.67 596.58 290.26 589.74 292.62 582.83 294.5 575.75 297.35 569 299.53 562.03 301.56 555 303.66 548 306.14 541.12 308.99 534.37 311.3 527.44 313.39 520.43 315.53 513.43 318.27 506.64 320.47 499.67 322.89 492.77 325.35 485.88 327.25 478.82 329.51 471.86 331.73 464.9 333.91 457.92 336.88 451.2 338.61 444.07 341.13 437.21 343.47 430.27 345.85 422.88"/><polygon class="cls-3" points="345.85 422.88 344.21 430.44 342.09 437.42 340.52 444.54 337.99 451.41 336.6 458.57 334.34 465.5 332.4 472.52 331.08 479.71 328.97 486.69 327.44 493.81 325.47 500.83 323.64 507.88 321.42 514.83 319.92 521.97 317.77 528.93 315.5 535.87 313.79 542.96 312.45 550.14 310.63 557.2 308.04 564.05 306.06 571.07 304.71 578.25 302.49 585.2 300.65 592.25 298.59 599.24 297.02 606.37 295.76 613.57 293.87 620.61 291.5 627.53 289.56 634.55 288.11 641.71 285.64 648.6 284.05 655.72 277.95 661.06 271.75 666.18 270.69 659.13 268.87 652.02 271.11 644.97 274.08 638.25 276.01 631.19 278.35 624.27 280.94 617.43 282.88 610.38 285.29 603.49 287.67 596.58 290.26 589.74 292.62 582.83 294.5 575.75 297.35 569 299.53 562.03 301.56 555 303.66 548 306.14 541.12 308.99 534.37 311.3 527.44 313.39 520.43 315.53 513.43 318.27 506.64 320.47 499.67 322.89 492.77 325.35 485.88 327.25 478.82 329.51 471.86 331.73 464.9 333.91 457.92 336.88 451.2 338.61 444.07 341.13 437.21 343.47 430.27 345.85 422.88"/><polyline points="421.69 236.28 418.48 242.82 415.1 249.28 412.02 255.88 408.33 262.18 404.91 268.61 402.15 275.39 398.04 281.47 395.48 288.34 391.47 294.47 388.23 301 385.01 307.54 381.57 313.97 378.4 320.53 374.67 326.81 371.39 333.32 368.04 339.79 364.68 346.26 361.37 352.75 358.07 359.25 355.52 366.13 351.74 372.38 348.51 378.92 345.18 385.41 341.6 391.76 338.27 398.25 335 404.78 332.19 411.54"/><polyline class="cls-5" points="421.69 236.28 418.48 242.82 415.1 249.28 412.02 255.88 408.33 262.18 404.91 268.61 402.15 275.39 398.04 281.47 395.48 288.34 391.47 294.47 388.23 301 385.01 307.54 381.57 313.97 378.4 320.53 374.67 326.81 371.39 333.32 368.04 339.79 364.68 346.26 361.37 352.75 358.07 359.25 355.52 366.13 351.74 372.38 348.51 378.92 345.18 385.41 341.6 391.76 338.27 398.25 335 404.78 332.19 411.54"/><polygon class="cls-3" points="345.31 417.01 352.29 418.4 359.35 418.46 365.91 416.67 369.35 410.38 372.73 403.96 376.16 397.56 379.08 390.91 382.73 384.59 385.17 377.73 388.46 371.21 390.76 364.3 392.65 357.26 395.77 350.64 397.46 343.55 400.04 336.74 401.95 329.72 403.74 322.67 406.05 315.76 407.99 308.75 408.87 301.48 411.1 294.54 412.79 287.46 414.31 280.35 415.41 273.15 416.33 265.93 417.44 258.75 419.42 251.71 419.98 244.45 420.79 237.23 421.53 230.02 417.9 225.3 412.26 222.23 406.03 220.59 399.84 218.94 393.51 218.06 387.65 219.87 384.18 226.26 381.55 233.06 377.73 239.3 375.16 246.11 372.33 252.81 369.07 259.32 367.22 266.42 364.22 273.04 361.08 279.62 358.71 286.5 356.42 293.4 354.58 300.45 352.34 307.36 350.19 314.29 347.76 321.15 345.31 328.01 343.78 335.12 341.91 342.15 339.98 349.17 338.77 356.35 337.6 363.52 336.52 370.71 335.38 377.88 333.8 385 333.2 392.25 332.55 399.49 331.99 406.71 336.72 411.87 342.71 415.67 349.29 418.47 345.31 417.01"/><g class="cls-6"><polygon class="cls-7" points="568.89 295.56 568.48 302.72 567.87 309.86 566.96 316.95 566.16 324.06 565.02 331.13 563.36 338.1 561.72 345.09 559.42 351.89 556.27 358.36 554.1 365.23 550.8 371.6 547.3 377.85 543.38 383.85 539.91 390.13 536.07 396.2 530.98 401.33 526.7 407.07 521.63 412.14 516.84 417.48 511.21 421.93 506.25 427.17 500.59 431.58 494.65 435.62 488.6 439.47 482.42 443.11 475.83 445.97 469.39 449.07 463 452.36 456.33 454.98 449.49 457.17 442.47 458.65 435.59 460.68 428.5 461.73 421.48 463.24 414.35 464.07 407.18 464.56 400 464.52 392.85 463.77 385.65 464.18 378.56 463 371.53 461.55 364.33 461.04 357.38 459.23 350.59 456.9 343.86 454.46 336.95 452.46 330.45 449.43 323.84 446.62 317.59 443.09 311.36 439.53 305.46 435.45 299.83 431 293.81 427.08 288.73 421.99 283.16 417.47 277.83 412.65 273.48 406.91 268.41 401.81 264.62 395.69 260.26 390.01 256.26 384.06 252.82 377.78 249.42 371.48 246.44 364.97 243.35 358.51 241.1 351.71 238.93 344.89 236.24 338.21 234.64 331.2 233.91 324.05 232.17 317.06 231.8 309.88 231.11 302.74 230.79 295.56 231.42 288.4 231.56 281.23 232.54 274.12 233.83 267.07 235.18 260.04 236.32 252.94 239.02 246.26 241.13 239.43 243.59 232.71 246.07 225.98 249.37 219.62 252.52 213.18 256.03 206.92 260.04 200.97 264.29 195.2 269 189.79 273.01 183.8 278.17 178.79 283.11 173.6 288.38 168.73 294.21 164.54 299.41 159.55 305.38 155.56 311.73 152.19 317.72 148.27 323.97 144.76 330.65 142.14 337.24 139.37 343.81 136.54 350.5 133.92 357.51 132.39 364.54 131.03 371.45 129.11 378.59 128.41 385.7 127.6 392.85 127.3 400 127.22 407.17 126.82 414.32 127.29 421.47 127.95 428.55 129.07 435.66 130.12 442.52 132.29 449.43 134.19 456.29 136.27 462.89 139.05 469.54 141.74 475.94 144.95 482.34 148.17 488.56 151.73 494.55 155.68 500.31 159.94 506.11 164.15 511.47 168.91 516.6 173.91 521.76 178.87 526.34 184.37 531.58 189.33 535.72 195.19 539.94 200.99 543.51 207.21 547.25 213.31 550.85 219.51 554.24 225.84 556.33 232.75 559.01 239.38 561.76 246.03 563.19 253.07 564.63 260.08 566.01 267.1 566.98 274.18 567.8 281.28 568.62 288.4 568.89 295.56"/><g class="cls-8"><polygon class="cls-7" points="574.23 285.02 573.26 292.18 571.4 299.15 569.36 306.08 566.88 312.88 563.39 319.22 559.73 325.43 555.81 331.47 551.6 337.31 547.37 343.18 542.29 348.33 537.21 353.46 531.68 358.11 526.04 362.63 520.02 366.62 513.69 370.09 507.64 374.02 501.2 377.28 494.57 380.12 488.11 383.38 481.08 385.17 474.15 387.11 467.3 389.35 460.33 391.22 453.27 392.78 446.08 393.46 438.95 394.66 431.76 395.31 424.53 395.37 417.31 395.8 410.12 394.9 402.87 395.15 395.75 393.81 388.59 392.96 381.45 391.94 374.3 390.87 367.31 389.06 360.49 386.65 353.41 385.11 346.65 382.59 340.06 379.64 333.3 377.1 326.84 373.89 320.41 370.61 314.39 366.63 308.06 363.16 302.05 359.18 296.4 354.69 290.38 350.66 284.9 345.94 280.02 340.6 275.4 335.05 270.04 330.15 265.77 324.32 261.5 318.5 257.71 312.35 254.11 306.09 251.01 299.57 248.08 292.97 246.07 286.03 244.23 279.07 242.5 272.09 241.07 265.01 240.44 257.82 240.75 250.6 240.92 243.41 241.81 236.26 242.79 229.12 244.19 222.01 246.5 215.15 249.61 208.62 252.49 202 255.95 195.66 259.91 189.62 264.11 183.75 268.73 178.19 273.61 172.86 279.07 168.13 284.42 163.29 290.05 158.79 296.04 154.75 302.22 151.04 308.45 147.42 315.01 144.44 321.56 141.47 327.91 137.96 334.94 136.2 341.62 133.41 348.68 131.86 355.68 130.13 362.73 128.58 369.85 127.31 377.05 126.73 384.25 126.16 391.46 125.77 398.67 126.26 405.9 125.88 413.06 126.98 420.23 127.64 427.48 127.83 434.46 129.81 441.66 130.59 448.66 132.35 455.52 134.6 462.58 136.17 469.28 138.88 475.99 141.5 482.59 144.4 489.24 147.23 495.42 150.97 501.96 154.06 508.02 157.98 514.13 161.84 519.48 166.74 525.51 170.74 530.52 175.97 535.72 180.94 540.68 186.16 545.85 191.21 550.04 197.1 554.29 202.92 557.95 209.13 561.96 215.15 564.77 221.81 567.81 228.35 570.05 235.21 572.52 242.01 574.07 249.08 574.75 256.29 575.19 263.48 575.51 270.68 574.85 277.86 574.23 285.02"/><polygon class="cls-7" points="558.4 250.12 557.25 257.3 555.25 264.3 552.22 270.93 548.63 277.24 544.41 283.12 540.16 288.99 534.89 293.96 529.62 298.9 524.23 303.75 517.98 307.44 511.83 311.22 505.6 314.9 498.89 317.64 492.23 320.43 485.6 323.4 478.51 324.99 471.46 326.61 464.4 328.2 457.36 330.02 450.1 330.44 442.89 331.13 435.66 331.54 428.41 331.9 421.14 332.03 413.96 330.7 406.68 330.6 399.56 329.13 392.42 327.96 385.22 327.05 378.14 325.45 371.07 323.75 364.26 321.22 357.33 319.02 350.88 315.63 344.27 312.7 337.46 310.14 331.19 306.48 324.86 302.93 318.81 298.92 312.98 294.61 307.55 289.8 302.25 284.88 296.95 279.94 292.28 274.42 287.43 269.02 283.3 263.06 280 256.6 276.17 250.41 273.91 243.5 272.13 236.5 269.82 229.57 269.04 222.32 269.71 215.06 270.16 207.84 271.23 200.64 273.91 193.88 276.87 187.29 279.5 180.48 284.1 174.82 288.14 168.77 293.29 163.64 298.51 158.6 304.28 154.19 310.07 149.79 316.53 146.45 322.7 142.61 329.49 140 336.02 136.81 342.83 134.27 350 132.95 356.9 130.65 364.12 129.79 371.16 127.95 378.38 127.21 385.58 126.24 392.86 126.48 400.11 125.94 407.37 125.91 414.59 126.78 421.82 127.43 429 128.43 436.11 129.9 443.32 130.78 450.39 132.44 457.21 134.99 464.17 136.98 471.24 138.75 477.69 142.16 484.42 144.86 490.77 148.35 497.42 151.29 503.58 155.13 509.6 159.17 515.18 163.8 521.38 167.65 526.79 172.51 531.52 178.04 536.47 183.33 540.89 189.06 544.86 195.12 548.48 201.36 552.42 207.5 554.52 214.47 557.18 221.25 558.57 228.39 559.19 235.64 559.12 242.9 558.4 250.12"/><polygon class="cls-7" points="516.53 208.43 515.1 215.46 512.02 221.92 509.25 228.58 504.16 233.71 499.78 239.41 493.73 243.32 488 247.58 481.79 251.1 475.42 254.43 468.62 256.72 461.58 258.11 454.7 260.1 447.66 261.42 440.47 261.44 433.34 261.76 426.19 261.92 419.04 261.62 411.94 260.66 404.82 259.76 397.91 257.82 391.08 255.69 384.1 253.96 377.56 251 371.15 247.81 364.91 244.31 358.95 240.35 353.25 236.04 347.87 231.34 342.94 226.18 337.93 221.03 334.51 214.71 330.58 208.69 328.06 201.94 326.37 194.93 326.3 187.73 326.72 180.59 328.78 173.75 330.89 166.93 334.2 160.56 338.55 154.83 343.86 150.01 349.46 145.59 355.1 141.16 361.36 137.66 368.16 135.35 374.56 132.02 381.63 130.65 388.55 128.79 395.65 127.84 402.77 127.11 409.94 127.19 417.09 127.08 424.2 127.83 431.31 128.59 438.47 129.21 445.36 131.25 452.42 132.64 458.92 135.75 465.88 137.66 472.26 140.96 478.42 144.63 484.2 148.87 489.91 153.14 495.67 157.41 500.54 162.67 504.83 168.38 509.07 174.13 512.76 180.31 515.09 187.12 516.17 194.21 516.92 201.3 516.53 208.43"/></g><polygon class="cls-7" points="458.04 177.72 455.25 184.5 450.35 190.03 443.75 193.36 436.62 195.12 429.35 196.48 422.02 195.41 414.67 194.41 408.06 191.03 401.67 187.36 396.68 181.93 393.35 175.41 392.27 168.07 395.44 161.37 400.68 156.34 406.82 152.3 413.95 150.36 421.29 149.4 428.71 149.77 435.9 151.65 442.88 154.2 448.63 158.9 453.67 164.12 457.21 170.45 458.04 177.72"/><polyline class="cls-7" points="339.02 452.99 341.17 446.13 342.14 439.01 343.34 431.94 345.18 425.02 346.82 418.05 348.94 411.2 350.41 404.19 351.7 397.14 354.22 390.39 355.41 383.31 357.11 376.35 359.24 369.51 360.88 362.54 363.02 355.7 364.74 348.75 366.68 341.86 368.37 334.9 370.61 328.1 373.01 321.34 374.51 314.31 377.1 307.61 378.88 300.67 381.15 293.88 382.72 286.87 385.2 280.15 387.1 273.24 389.45 266.48 391.83 259.72 394.66 253.13 396.41 246.16 398.99 239.48 401.44 232.76 403.77 225.99 406.03 219.2 408.97 212.66 411.21 205.86 413.77 199.17 416.58 192.59 419.81 186.18 422.35 179.5 425.02 173.26 428.27 179.32 431.81 185.61 435 192.08 438.18 198.56 441.38 205.03 444.6 211.51 447.65 218.06 450.49 224.71 453.17 231.42 454.99 238.45 458.05 245.02 460.6 251.78 462.23 258.85 464.64 265.66 467.09 272.47 468.24 279.65 470.15 286.61 472.04 293.58 473.28 300.71 474.92 307.75 475.89 314.91 477.16 322.02 478.49 329.14 478.36 336.41 479.11 343.59 479.52 350.8 479.92 358.02 479.94 365.25 479.53 372.47 479.12 379.69 478.3 386.87 477.52 394.07 476.23 401.19 474.49 408.21 472.06 415.04 470.17 422 468.15 428.94 464.96 435.44 462.76 442.38 459.39 448.78 455.79 455.06"/><polyline class="cls-7" points="558.18 353.71 558.98 346.61 559.31 339.47 558.89 332.34 558.3 325.23 557.94 318.09 556.76 311.04 555.62 303.98 553.72 297.09 551.26 290.38 549.1 283.57 546.06 277.11 543.49 270.43 539.74 264.34 536.47 257.99 532.19 252.25 527.96 246.52 523.51 240.97 519.12 235.35 514.72 229.69 509.29 225.03 504.4 219.8 498.95 215.19 493.56 210.49 487.76 206.31 481.8 202.38 475.76 198.58 469.88 194.54 463.71 190.95 457.71 187.06 451.04 184.41 444.65 181.27 438.14 178.38 431.73 175.25 425.22 172.9 432.14 171.2 439.42 170.6 446.7 169.98 454.01 169.67 461.3 170.23 468.6 170.34 475.78 171.75 483.1 172.04 490.24 173.59 497.36 175.21 504.46 176.95 511.3 179.56 518.05 182.34 524.6 185.58 530.82 189.4"/><polyline class="cls-7" points="467.6 140.45 460.87 142.16 454.4 144.56 448.25 147.74 442.6 151.75 438.01 156.95 432.97 161.65 428.83 167.16 425.05 172.52 424.15 166.17 423.29 159.45 421.28 152.95 420.43 146.21 418.4 139.75 416.97 133.1 414.55 126.76"/><polyline class="cls-7" points="334.13 139.91 341.28 139.65 348.4 138.84 355.55 139.2 362.55 140.7 369.54 142.05 376.64 143.18 383.19 146.12 389.74 148.95 396.09 152.19 402.25 155.79 408.22 159.67 413.94 163.91 419.77 168.04 424.82 172.77 418.16 170.97 411.06 170.45 404.05 169.44 397.05 168.05 389.93 168.34 382.85 167.83 375.76 167.89 368.7 168.63 361.56 168.43 354.59 169.87 347.63 171.19 340.63 172.3 333.75 174 326.8 175.5 320.24 178.23 313.34 180.01 306.8 182.8 300.48 186.06 294.12 189.23 288.37 193.44 281.98 196.62 276.37 200.98 270.66 205.21 265.18 209.74 260 214.61 255.11 219.77 250.41 225.1 245.84 230.53 241.76 236.35"/><polyline class="cls-7" points="425.13 173.17 418.65 176.05 412.06 178.7 405.62 181.73 399.27 184.93 392.86 188.03 387.02 192.13 380.83 195.6 374.69 199.19 368.64 202.92 362.65 206.74 356.55 210.4 350.74 214.51 345.34 219.17 339.42 223.13 334.23 228.04 328.72 232.51 322.84 236.6 317.88 241.73 312.59 246.48 307.94 251.89 302.76 256.78 298.25 262.29 293.71 267.76 289.14 273.21 285.19 279.12 280.67 284.65 277.03 290.77 273.42 296.9 269.92 303.11 267.47 309.81 263.86 316 261.62 322.77 259.9 329.69 257.84 336.48 255.96 343.34 254.77 350.35 253.38 357.35 253.11 364.48 252.78 371.6 253.56 378.69"/><polyline class="cls-7" points="238.96 346.57 243.29 352.39 247.75 358.08 252.04 363.9 256.31 369.79 261.28 375.07 266.39 380.2 271.24 385.62 276.99 390.08 282.51 394.76 287.76 399.79 293.95 403.62 299.56 408.21 305.54 412.32 311.83 415.91 317.89 419.92 324.69 422.56 331.2 425.7 337.64 429.05 344.38 431.74 351.4 433.6 358.2 436.11 365.21 437.98 372.34 439.3 379.5 440.35 386.67 441.38 393.84 442.46 401.07 443.12 408.34 443.03 415.66 442.67 422.99 442.64 430.29 441.9 437.56 441 444.76 439.66 452.04 438.78 459.27 437.52 466.13 434.8 473.23 432.99 480.09 430.43 486.75 427.4 493.77 425.13 500.04 421.29 506.49 417.78 512.53 413.63 518.62 409.52 523.85 404.34 529.4 399.57 534.17 394.01 539.53 388.96 544.07 383.19 547.45 376.65 550.83 370.24"/></g></g></g></svg>