<svg id="Layer_1" data-name="Layer 1" xmlns="http://www.w3.org/2000/svg" viewBox="0 0 800 800"><defs><style>.cls-1{fill:none;stroke:#000;stroke-linejoin:bevel;stroke-width:8px;}.cls-2{fill:#fff;}.cls-3{fill:blue;}</style></defs><title>cross2bear</title><polyline points="428.27 312.3 420.77 309.69 413.43 306.61 405.69 304.67 398.16 302.11 391.86 299.02 385.17 297.1 378.63 294.7 371.94 292.76 365.29 290.65 358.89 287.87 352.13 286.1 345.49 283.99 339.03 281.35 332.36 279.32 325.83 276.94 319.62 279.37 313.88 282.82 307.76 285.52 301.61 288.14 295.44 291.46 302.51 294.11 309.57 295.93 316.45 298.25 323.08 301.29 330.01 303.49 336.77 306.17 343.89 307.79 350.76 310.14 357.51 312.85 364.18 315.77 371.17 317.81 377.91 320.53 384.76 322.96 391.67 325.23 398.64 327.34"/><polyline class="cls-1" points="428.27 312.3 420.77 309.69 413.43 306.61 405.69 304.67 398.16 302.11 391.86 299.02 385.17 297.1 378.63 294.7 371.94 292.76 365.29 290.65 358.89 287.87 352.13 286.1 345.49 283.99 339.03 281.35 332.36 279.32 325.83 276.94 319.62 279.37 313.88 282.82 307.76 285.52 301.61 288.14 295.44 291.46 302.51 294.11 309.57 295.93 316.45 298.25 323.08 301.29 330.01 303.49 336.77 306.17 343.89 307.79 350.76 310.14 357.51 312.85 364.18 315.77 371.17 317.81 377.91 320.53 384.76 322.96 391.67 325.23 398.64 327.34"/><polygon points="398.26 242.79 404.26 239.62 410.41 236.78 416.25 233.34 422.55 230.79 428.17 227.59 427.94 234.45 428.74 241.6 428.15 248.75 428.19 255.9 428.67 263.06 428.19 270.21 427.89 277.36 428.68 284.51 427.96 291.67 428.2 298.82 428.14 305.97 428.21 313.12 428.85 320.27 427.9 327.43 428.38 334.58 428 341.73 428.18 348.88 428.57 356.04 427.89 363.19 428.47 370.34 428.8 377.49 428.1 384.64 428.71 391.79 428.45 398.94 428.81 406.09 428.12 413.25 428.26 420.39 427.93 427.55 428.67 434.7 428.09 441.85 428.2 449.01 428.7 456.16 428.5 463.31 428.83 470.47 428.36 477.63 428.77 484.78 428.22 491.94 428.86 499.09 428.65 506.25 428.07 513.4 428.01 520.56 427.97 527.71 428.53 534.87 428.19 542.03 428.59 549.18 428.43 556.34 427.96 563.5 428.67 570.84 422.17 573.4 416.3 576.76 410.43 580.16 404.11 582.67 398.5 585.89 397.83 579.04 397.83 571.88 398.33 564.73 398.01 557.58 398.04 550.43 398.67 543.28 398.48 536.13 397.81 528.97 397.88 521.82 398.03 514.67 397.98 507.52 398.46 500.37 397.89 493.21 398.21 486.06 398.02 478.91 398.04 471.75 397.83 464.6 398.32 457.45 398.21 450.3 398.15 443.15 398.6 436 398.43 428.85 398.21 421.69 398.5 414.55 398.39 407.4 397.98 400.24 398.65 393.09 398.03 385.94 398.4 378.79 398.71 371.63 398.26 364.48 398.68 357.32 398.04 350.17 398.34 343.02 398.02 335.86 398.57 328.7 397.81 321.55 398.3 314.39 398.24 307.24 397.94 300.08 397.9 292.93 398.45 285.77 398.25 278.62 398.24 271.46 398.69 264.31 398.46 257.15 397.83 249.98 398.26 242.79"/><polygon class="cls-1" points="398.26 242.79 404.26 239.62 410.41 236.78 416.25 233.34 422.55 230.79 428.17 227.59 427.94 234.45 428.74 241.6 428.15 248.75 428.19 255.9 428.67 263.06 428.19 270.21 427.89 277.36 428.68 284.51 427.96 291.67 428.2 298.82 428.14 305.97 428.21 313.12 428.85 320.27 427.9 327.43 428.38 334.58 428 341.73 428.18 348.88 428.57 356.04 427.89 363.19 428.47 370.34 428.8 377.49 428.1 384.64 428.71 391.79 428.45 398.94 428.81 406.09 428.12 413.25 428.26 420.39 427.93 427.55 428.67 434.7 428.09 441.85 428.2 449.01 428.7 456.16 428.5 463.31 428.83 470.47 428.36 477.63 428.77 484.78 428.22 491.94 428.86 499.09 428.65 506.25 428.07 513.4 428.01 520.56 427.97 527.71 428.53 534.87 428.19 542.03 428.59 549.18 428.43 556.34 427.96 563.5 428.67 570.84 422.17 573.4 416.3 576.76 410.43 580.16 404.11 582.67 398.5 585.89 397.83 579.04 397.83 571.88 398.33 564.73 398.01 557.58 398.04 550.43 398.67 543.28 398.48 536.13 397.81 528.97 397.88 521.82 398.03 514.67 397.98 507.52 398.46 500.37 397.89 493.21 398.21 486.06 398.02 478.91 398.04 471.75 397.83 464.6 398.32 457.45 398.21 450.3 398.15 443.15 398.6 436 398.43 428.85 398.21 421.69 398.5 414.55 398.39 407.4 397.98 400.24 398.65 393.09 398.03 385.94 398.4 378.79 398.71 371.63 398.26 364.48 398.68 357.32 398.04 350.17 398.34 343.02 398.02 335.86 398.57 328.7 397.81 321.55 398.3 314.39 398.24 307.24 397.94 300.08 397.9 292.93 398.45 285.77 398.25 278.62 398.24 271.46 398.69 264.31 398.46 257.15 397.83 249.98 398.26 242.79"/><polygon points="398.32 243.24 404.25 239.59 410.48 236.92 416.14 233.13 422.35 230.4 428.71 227.21 420.92 225.26 413.62 222.72 406.35 220.09 398.71 218.64 391.38 216.2 384.04 214.09 377.91 216.51 371.93 219.48 365.8 222.14 360.05 225.59 353.56 228.46 361.38 230.66 368.58 233.65 376.25 235.22 383.36 238.46 391.03 240.07 398.32 243.24"/><polygon class="cls-1" points="398.32 243.24 404.25 239.59 410.48 236.92 416.14 233.13 422.35 230.4 428.71 227.21 420.92 225.26 413.62 222.72 406.35 220.09 398.71 218.64 391.38 216.2 384.04 214.09 377.91 216.51 371.93 219.48 365.8 222.14 360.05 225.59 353.56 228.46 361.38 230.66 368.58 233.65 376.25 235.22 383.36 238.46 391.03 240.07 398.32 243.24"/><polyline class="cls-2" points="428.21 338.13 435.73 340.26 442.98 343.18 450.41 345.58 457.87 347.88 465.62 350.19 465.52 357.51 464.87 364.54 465.18 371.57 465.39 378.61 465.19 385.63 464.82 392.67 465 399.7 465.25 406.77 458.24 403.97 451.18 401.42 443.79 399.81 437 396.42 429.61 394.77 423.49 392.12 417.14 390.12 411.05 387.39 404.63 385.57 398.38 383.43 398.2 376.51 398.15 369.54 398.13 362.57 398.42 355.6 398.09 348.63 398.45 341.65 398.35 334.67 398.53 328.07 405.9 329.95 413.37 332.58 420.99 334.76 428.46 337.42"/><polyline class="cls-1" points="428.21 338.13 435.73 340.26 442.98 343.18 450.41 345.58 457.87 347.88 465.62 350.19 465.52 357.51 464.87 364.54 465.18 371.57 465.39 378.61 465.19 385.63 464.82 392.67 465 399.7 465.25 406.77 458.24 403.97 451.18 401.42 443.79 399.81 437 396.42 429.61 394.77 423.49 392.12 417.14 390.12 411.05 387.39 404.63 385.57 398.38 383.43 398.2 376.51 398.15 369.54 398.13 362.57 398.42 355.6 398.09 348.63 398.45 341.65 398.35 334.67 398.53 328.07 405.9 329.95 413.37 332.58 420.99 334.76 428.46 337.42"/><polygon class="cls-1" points="465.02 350.36 471.02 346.95 477.16 344.11 483.45 341.53 489.14 337.8 495.55 334.58 495.3 342 494.81 349.02 495.13 356.05 495.23 363.08 495.13 370.11 495.72 377.15 495.42 384.19 494.94 391.01 489.34 394.43 483.45 397.75 477.48 400.95 471.04 403.23 465.33 406.6 464.96 399.71 465.31 392.68 465.49 385.65 465.7 378.62 465.2 371.6 464.99 364.56 465.33 357.52 465.02 350.36"/><polygon points="398.8 327.26 405.38 329.38 411.92 332.03 418.67 334.08 425.25 336.63 431.91 338.92 438.62 341.1 445.32 343.3 452 345.57 458.52 348.3 465.21 350.18 471.19 347.27 477.26 344.3 483.15 340.95 489.1 337.71 495.21 334.98 488.48 333.05 481.78 330.78 475.37 327.69 468.52 325.84 461.85 323.49 455 321.64 448.59 318.54 441.87 316.33 434.93 314.74 428.36 311.75 422.54 315.29 416.33 317.8 410.76 321.58 404.66 324.33 398.8 327.26"/><polygon class="cls-1" points="398.8 327.26 405.38 329.38 411.92 332.03 418.67 334.08 425.25 336.63 431.91 338.92 438.62 341.1 445.32 343.3 452 345.57 458.52 348.3 465.21 350.18 471.19 347.27 477.26 344.3 483.15 340.95 489.1 337.71 495.21 334.98 488.48 333.05 481.78 330.78 475.37 327.69 468.52 325.84 461.85 323.49 455 321.64 448.59 318.54 441.87 316.33 434.93 314.74 428.36 311.75 422.54 315.29 416.33 317.8 410.76 321.58 404.66 324.33 398.8 327.26"/><polygon class="cls-2" points="465.18 351 458.61 348.5 451.98 346.08 445.21 344.04 438.47 341.9 432 339 425.37 336.55 418.68 334.29 411.79 332.58 405.09 330.31 398.71 327.14 398.09 327.46 398.17 320.4 398.58 313.35 397.86 306.3 398.23 299.25 398.62 292.2 397.82 285.14 398.35 278.09 398.76 271.04 398.45 263.99 398.74 256.94 398.05 249.88 398.06 242.99 391.79 240.96 385.32 238.97 378.92 236.77 372.48 234.69 366 232.72 359.5 230.81 352.93 227.91 353.25 235.21 352.86 242.15 353.34 249.1 353.29 256.04 353.65 262.98 353.05 269.92 353.59 276.86 352.88 283.81 353.43 290.75 353.03 297.7 353.65 304.65 353.38 311.9 346.01 309.01 338.86 306.29 331.67 303.7 324.24 301.79 317.21 298.73 310.02 296.11 302.58 294.21 295.62 291.52 295.79 298.35 295.08 305.38 295.31 312.4 295.69 319.44 295.83 326.46 295.87 333.5 295.93 340.54 295.66 347.44 302.57 350.48 309.9 352.65 317.28 354.73 324.21 358.06 331.66 359.92 338.85 362.51 346 365.25 352.99 368.01 353.53 375.13 353.38 382.4 353.45 389.68 352.83 396.95 353.07 404.22 353.62 411.5 352.81 418.77 353.45 426.05 353.13 433.33 353.18 440.6 353.33 447.88 352.98 455.16 353.24 462.43 353 469.71 353.3 476.99 353.43 484.27 353.34 491.55 352.87 498.83 353.66 506.11 353.63 513.38 353.28 520.66 353.16 527.94 352.76 535.22 353.56 542.5 353.01 549.79 353.35 557.07 352.82 564.35 353.11 571.7 359.65 573.7 365.98 576.12 372.51 577.91 378.92 580.07 385.52 581.67 391.9 583.97 398.14 585.98 398.46 578.97 398.36 571.74 398.68 564.51 398.48 557.28 398.32 550.05 398.3 542.82 398.74 535.6 398.05 528.37 398.45 521.14 398.36 513.91 397.84 506.68 397.9 499.45 397.87 492.22 398.01 484.98 398.38 477.75 398.18 470.52 398.32 463.29 398.63 456.05 398.57 448.82 398.78 441.59 398.07 434.36 398.62 427.13 398.28 419.89 398.01 412.66 398.76 405.42 398.77 398.19 398.25 390.95 398.28 383.68 405.13 385.66 411.82 388.02 418.24 391.14 424.99 393.32 431.75 395.47 438.59 397.41 445.29 399.74 451.81 402.6 458.54 404.84 465.16 407.12 465.01 400.2 465.61 393.17 465.31 386.14 464.96 379.11 465.51 372.08 465.27 365.05 465.04 358.01 465.18 351"/><polygon class="cls-1" points="465.18 351 458.61 348.5 451.98 346.08 445.21 344.04 438.47 341.9 432 339 425.37 336.55 418.68 334.29 411.79 332.58 405.09 330.31 398.71 327.14 398.09 327.46 398.17 320.4 398.58 313.35 397.86 306.3 398.23 299.25 398.62 292.2 397.82 285.14 398.35 278.09 398.76 271.04 398.45 263.99 398.74 256.94 398.05 249.88 398.06 242.99 391.79 240.96 385.32 238.97 378.92 236.77 372.48 234.69 366 232.72 359.5 230.81 352.93 227.91 353.25 235.21 352.86 242.15 353.34 249.1 353.29 256.04 353.65 262.98 353.05 269.92 353.59 276.86 352.88 283.81 353.43 290.75 353.03 297.7 353.65 304.65 353.38 311.9 346.01 309.01 338.86 306.29 331.67 303.7 324.24 301.79 317.21 298.73 310.02 296.11 302.58 294.21 295.62 291.52 295.79 298.35 295.08 305.38 295.31 312.4 295.69 319.44 295.83 326.46 295.87 333.5 295.93 340.54 295.66 347.44 302.57 350.48 309.9 352.65 317.28 354.73 324.21 358.06 331.66 359.92 338.85 362.51 346 365.25 352.99 368.01 353.53 375.13 353.38 382.4 353.45 389.68 352.83 396.95 353.07 404.22 353.62 411.5 352.81 418.77 353.45 426.05 353.13 433.33 353.18 440.6 353.33 447.88 352.98 455.16 353.24 462.43 353 469.71 353.3 476.99 353.43 484.27 353.34 491.55 352.87 498.83 353.66 506.11 353.63 513.38 353.28 520.66 353.16 527.94 352.76 535.22 353.56 542.5 353.01 549.79 353.35 557.07 352.82 564.35 353.11 571.7 359.65 573.7 365.98 576.12 372.51 577.91 378.92 580.07 385.52 581.67 391.9 583.97 398.14 585.98 398.46 578.97 398.36 571.74 398.68 564.51 398.48 557.28 398.32 550.05 398.3 542.82 398.74 535.6 398.05 528.37 398.45 521.14 398.36 513.91 397.84 506.68 397.9 499.45 397.87 492.22 398.01 484.98 398.38 477.75 398.18 470.52 398.32 463.29 398.63 456.05 398.57 448.82 398.78 441.59 398.07 434.36 398.62 427.13 398.28 419.89 398.01 412.66 398.76 405.42 398.77 398.19 398.25 390.95 398.28 383.68 405.13 385.66 411.82 388.02 418.24 391.14 424.99 393.32 431.75 395.47 438.59 397.41 445.29 399.74 451.81 402.6 458.54 404.84 465.16 407.12 465.01 400.2 465.61 393.17 465.31 386.14 464.96 379.11 465.51 372.08 465.27 365.05 465.04 358.01 465.18 351"/><polyline class="cls-3" points="464.91 520.76 468.94 515.37 472.35 509.52 475 503.3 477.98 497.17 479.62 490.57 480.97 483.88 481.37 477.07 480.39 470.31"/><polyline class="cls-1" points="464.91 520.76 468.94 515.37 472.35 509.52 475 503.3 477.98 497.17 479.62 490.57 480.97 483.88 481.37 477.07 480.39 470.31"/><polyline class="cls-3" points="498.51 542.12 499.42 534.99 500.94 527.99 502.05 520.9 502.9 513.78 503.58 506.64 503.48 499.45 504.46 492.33 504.09 485.14 504.65 477.99 504.81 470.83 505.31 463.67 505.18 456.5 504.58 449.32 504.95 442.15 504.83 434.93 505.26 427.69 504.36 420.49 504.33 413.27 504.46 406.04 503.93 398.83 502.81 391.67 502.31 384.47 501.53 377.3 501.36 370.06 499.57 363 499.14 355.77 498.08 348.63 496.58 341.57 495.3 334.5 489.23 337.46 483.12 340.37 477.48 344.2 471.42 347.22 465.33 350.06 465.52 357.21 465.08 364.42 465.68 371.63 464.99 378.83 465.02 386.04 464.93 393.25 465.51 400.46 464.83 407.67 465.31 414.88 464.81 422.1 465.2 429.31 465.31 436.52 465.71 443.73 465.71 450.94 465.5 458.15 465.65 465.36 465 472.57 464.77 479.79 464.83 487 465.01 494.21 464.87 501.42 465.65 508.64 465.06 515.87"/><polyline class="cls-1" points="498.51 542.12 499.42 534.99 500.94 527.99 502.05 520.9 502.9 513.78 503.58 506.64 503.48 499.45 504.46 492.33 504.09 485.14 504.65 477.99 504.81 470.83 505.31 463.67 505.18 456.5 504.58 449.32 504.95 442.15 504.83 434.93 505.26 427.69 504.36 420.49 504.33 413.27 504.46 406.04 503.93 398.83 502.81 391.67 502.31 384.47 501.53 377.3 501.36 370.06 499.57 363 499.14 355.77 498.08 348.63 496.58 341.57 495.3 334.5 489.23 337.46 483.12 340.37 477.48 344.2 471.42 347.22 465.33 350.06 465.52 357.21 465.08 364.42 465.68 371.63 464.99 378.83 465.02 386.04 464.93 393.25 465.51 400.46 464.83 407.67 465.31 414.88 464.81 422.1 465.2 429.31 465.31 436.52 465.71 443.73 465.71 450.94 465.5 458.15 465.65 465.36 465 472.57 464.77 479.79 464.83 487 465.01 494.21 464.87 501.42 465.65 508.64 465.06 515.87"/><polyline class="cls-3" points="439.79 473.19 440.5 480.33 439.76 487.47 440.48 494.61 440.07 501.75 440.24 508.89 439.76 516.03 440.08 523.17 439.68 530.31 439.6 537.46 439.74 544.61 439.73 551.85 444.88 546.83 448.79 541.11 453.12 535.71 456.58 529.7 459.81 523.58 462.85 517.35 464.48 510.6 464.86 503.74"/><polyline class="cls-1" points="439.79 473.19 440.5 480.33 439.76 487.47 440.48 494.61 440.07 501.75 440.24 508.89 439.76 516.03 440.08 523.17 439.68 530.31 439.6 537.46 439.74 544.61 439.73 551.85 444.88 546.83 448.79 541.11 453.12 535.71 456.58 529.7 459.81 523.58 462.85 517.35 464.48 510.6 464.86 503.74"/><polyline class="cls-3" points="464.95 471.89 464.94 478.86 463.55 485.69 461.47 492.34 458.74 498.76 455.44 504.92 450.95 510.3 447.26 516.26 442.23 521.11 437.29 526 432.2 530.75 426.63 534.93 421.04 538.99 420.91 531.72 421.05 524.44 420.67 517.16 421.04 509.88 421.07 502.59 420.9 495.31 420.87 488.03 420.93 480.74 421.25 473.46 421.08 466.18 420.64 458.89 420.66 451.61 420.82 444.32 421.46 437.04 420.97 429.75 421.2 422.46 421.36 415.18 421.08 407.89 420.78 400.6 420.95 393.32 421.31 386.03 421.27 378.74 421.25 371.46 420.51 364.17 420.75 356.88 420.56 349.59 421.16 342.29 420.9 334.85 428.24 337.87 435.72 340.06 443.06 342.65 450.61 344.62 457.93 347.29 465.05 350.14 465.36 357.08 465.07 364.17 465.18 371.26 464.87 378.35 465.59 385.43 464.88 392.52 465.23 399.61 465.14 406.69 465.6 413.79 465.37 420.87 465.3 427.96 465.25 435.05 464.78 442.14 465.56 449.23 465.29 456.32 464.75 463.42 465.51 470.51 465.57 477.6 464.96 484.69 465.67 491.79 465.4 498.88 464.85 505.97 465.02 513.06 465.23 520.15 464.84 527.25 465.32 534.34 464.97 541.43 465.32 548.53 465.67 555.46 471.51 553.22 477.63 550.43 483.35 546.83 487.79 541.74 492.18 536.64 494.24 530.24 495.46 523.63"/><polyline class="cls-1" points="464.95 471.89 464.94 478.86 463.55 485.69 461.47 492.34 458.74 498.76 455.44 504.92 450.95 510.3 447.26 516.26 442.23 521.11 437.29 526 432.2 530.75 426.63 534.93 421.04 538.99 420.91 531.72 421.05 524.44 420.67 517.16 421.04 509.88 421.07 502.59 420.9 495.31 420.87 488.03 420.93 480.74 421.25 473.46 421.08 466.18 420.64 458.89 420.66 451.61 420.82 444.32 421.46 437.04 420.97 429.75 421.2 422.46 421.36 415.18 421.08 407.89 420.78 400.6 420.95 393.32 421.31 386.03 421.27 378.74 421.25 371.46 420.51 364.17 420.75 356.88 420.56 349.59 421.16 342.29 420.9 334.85 428.24 337.87 435.72 340.06 443.06 342.65 450.61 344.62 457.93 347.29 465.05 350.14 465.36 357.08 465.07 364.17 465.18 371.26 464.87 378.35 465.59 385.43 464.88 392.52 465.23 399.61 465.14 406.69 465.6 413.79 465.37 420.87 465.3 427.96 465.25 435.05 464.78 442.14 465.56 449.23 465.29 456.32 464.75 463.42 465.51 470.51 465.57 477.6 464.96 484.69 465.67 491.79 465.4 498.88 464.85 505.97 465.02 513.06 465.23 520.15 464.84 527.25 465.32 534.34 464.97 541.43 465.32 548.53 465.67 555.46 471.51 553.22 477.63 550.43 483.35 546.83 487.79 541.74 492.18 536.64 494.24 530.24 495.46 523.63"/><polyline class="cls-2" points="480.2 342.73 480.43 349.94 481.04 357.12 481.93 364.28 482.19 371.49 482.93 378.66 483.45 385.86 483.23 393.09 483.98 400.28 483.66 407.5 484.19 414.71 484.27 421.92 484.26 429.14 483.79 436.34"/><polyline class="cls-1" points="480.2 342.73 480.43 349.94 481.04 357.12 481.93 364.28 482.19 371.49 482.93 378.66 483.45 385.86 483.23 393.09 483.98 400.28 483.66 407.5 484.19 414.71 484.27 421.92 484.26 429.14 483.79 436.34"/><polygon class="cls-3" points="420.68 335.08 427.2 332.41 433.02 329.06 438.92 325.85 444.88 322.77 451.02 320.41 458.23 322.88 465.72 324.94 473.08 327.44 480.65 329.28 487.82 332.36 495.22 334.5 489.35 337.69 483.25 340.62 477.32 343.89 471.16 346.72 465.25 350.4 457.92 347.34 450.61 344.64 443.27 342.07 435.6 340.44 428.43 337.33 420.68 335.08"/><polygon class="cls-1" points="420.68 335.08 427.2 332.41 433.02 329.06 438.92 325.85 444.88 322.77 451.02 320.41 458.23 322.88 465.72 324.94 473.08 327.44 480.65 329.28 487.82 332.36 495.22 334.5 489.35 337.69 483.25 340.62 477.32 343.89 471.16 346.72 465.25 350.4 457.92 347.34 450.61 344.64 443.27 342.07 435.6 340.44 428.43 337.33 420.68 335.08"/><polyline class="cls-3" points="465.42 381.5 464.63 388.75 464.55 396.03 464.01 403.28 463.91 410.57 463.08 417.81 462.33 425.05 461.36 432.27 459.26 439.29 458.06 446.47 456.7 453.63 453.84 460.35 450.86 466.92 447.28 473.28"/><polyline class="cls-1" points="465.42 381.5 464.63 388.75 464.55 396.03 464.01 403.28 463.91 410.57 463.08 417.81 462.33 425.05 461.36 432.27 459.26 439.29 458.06 446.47 456.7 453.63 453.84 460.35 450.86 466.92 447.28 473.28"/><polyline class="cls-1" points="322.98 436 322.04 428.59 321.7 421.12 321.32 413.66 321.43 406.18 320.59 398.73 320.01 391.28 319.86 383.81 319.55 376.33 318.15 368.97 317.44 361.52 316.1 354.17 314.73 347.5 313.49 340.77 313.17 333.95 313.61 327.13 313.9 320.34 314.5 313.57 314.75 306.76 316.25 300.21 320.63 294.79 326.01 290.28 331.64 286.14 337.37 282.16 343.63 283.07"/><polyline class="cls-1" points="331.48 359.57 331.65 366.76 331.23 373.94 330.95 381.12 330.03 388.25 329.34 395.41 328.03 402.48 326.93 409.59 325.76 416.69 323.45 423.56"/><polygon class="cls-1" points="336.03 463.5 334.74 470.92 330.32 476.77 323 478.29 316.51 476.32 312.67 470.62 310.37 464.19 310.05 457.38 311.03 449.6 312.39 441.79 316.88 435.28 323 430.79 328.85 435.14 331.89 441.87 333.63 449.02 335.46 456.15 336.03 463.5"/><polyline class="cls-1" points="313.92 429.7 319.98 428.27 326.13 427.15 331.96 424.85"/><polyline class="cls-1" points="313.95 422.83 319.86 420.85 326.12 420.1 331.87 417.53"/><polyline class="cls-1" points="314.98 415.92 320.9 413.98 327.06 412.91 333.12 411.42"/></svg>