<svg xmlns="http://www.w3.org/2000/svg" viewBox="0 0 800 800"><defs><style>.a{fill:#fca14f}.b{fill:#fff}.c{fill:#e83131}</style></defs><path d="M349 160.44c1.51 0 3-.13 4.53 0 5.77.58 11.54 1.25 17.31 1.89 4.12.45 8.25.84 12.36 1.41 1.56.21 2.29-.51 3-1.63 5.47-8 10.9-16.11 16.48-24.07 3.7-5.27 7.57-10.43 11.47-15.56 3.58-4.71 8.4-8 13.27-11.21 2.3-1.52 4.49-3.25 6.92-4.53 4.49-2.36 9.56-2.37 14.43-3 7.16-.87 14.34-1.55 21.54-2 8.43-.47 16.87-1 25.29.55 7.2 1.32 14.54 2 21.66 3.63 9 2 18 3.93 26.39 8.1 10.31 5.13 20.5 10.41 30.08 16.84 8 5.35 16.15 10.42 24 16a166.48 166.48 0 0 1 16.81 13.6 57.66 57.66 0 0 1 8.93 11.24c6.46 10.13 7 21 3.64 32.4a128.48 128.48 0 0 1-10.47 24.7c-2.32 4.32-3.86 9.05-5.84 13.55-2.29 5.19-4.51 10.43-7.1 15.47-1 1.85-.86 2.85.6 4.15 3.56 3.18 6.92 6.6 10.57 9.68 6.32 5.32 10.32 12.38 14.66 19.18a76 76 0 0 1 6 11.33 58.32 58.32 0 0 1 4.47 20.38 45.89 45.89 0 0 1-3.74 21.12c-3.58 7.74-8.65 14.56-16.05 19.28-2.77 1.77-5.4 3.79-8.29 5.35-5.55 3-11.12 6-17.39 7.27-1.22.25-2.35.9-3.57 1.1-2 .34-2.77 1.75-3.13 3.38-1.68 7.53-3.58 15-4.73 22.65-.54 3.53.35 7.29.73 10.94a56.81 56.81 0 0 0 5.35 18.09 70.11 70.11 0 0 1 3.82 11.45c2 7.55 4.08 15.12 5.6 22.78.72 3.67.28 7.57.29 11.36 0 1.42-.21 2.83 1.78 3.09a1.58 1.58 0 0 1 1 .56c4.06 5.13 9.73 9 12.25 15.33a9.86 9.86 0 0 1 .58 1.4c1.36 6.33 2.35 12.65.76 19.11-1.43 5.78-4.34 10.7-8 15.37a143.68 143.68 0 0 1-13.59 14.75c-7.34 7.18-14 14.92-17.84 24.68a34.45 34.45 0 0 0-1.57 5.06c-1.28 5.79-2.4 11.63-3.7 17.42-1.56 6.92-3.53 13.75-6.88 20-4.63 8.67-11.67 14.56-21.41 16.66a21.83 21.83 0 0 1-8.66.31c-4.76-1-9.82-1.33-13.93-4.51a2.52 2.52 0 0 0-2.27 0c-1.71 1-3.25 2.37-4.88 3.57a30.1 30.1 0 0 1-9.73 5c-3.05.85-3 1-3.05 4.16-.13 6-2.71 11.13-5.48 16.31-4 7.44-11.09 10-18.23 12.53a46.72 46.72 0 0 1-16.77 2.48c-4.76-.1-9.51-1.09-14.24-1.83a79.21 79.21 0 0 0-25.34-.07 28.39 28.39 0 0 0-14.63 6.81c-4.93 4.51-9.64 9.25-14.49 13.85a28.54 28.54 0 0 1-13.68 7 137.79 137.79 0 0 1-14.62 2.19 17.76 17.76 0 0 1-10.27-1.95 54.61 54.61 0 0 1-14.12-10.14 14.38 14.38 0 0 1-2.19-3.52c-2.89-5.62-5.33-11.35-6.1-17.78s-1.44-12.77-.61-19.23a3.12 3.12 0 0 0-1.19-2.43c-5.36-3.48-10.12-7.9-16.83-9.15-3.53-.65-6.82-2.55-10.56-2.75-9.08-.5-18.11-2-27.26-1.43a27.93 27.93 0 0 1-7.17-.59 117.33 117.33 0 0 1-18-4.69c-5.38-2-10.46-4.39-14.9-8-9-7.41-16.09-16.1-17.62-28.17a98.91 98.91 0 0 1-.57-10.18c-.08-3-.14-2.94-2.92-3.77-8.9-2.64-16.46-7.11-20.68-15.89-1.63-3.4-3.47-6.72-4.94-10.19-3.18-7.49-1.83-15.12-.54-22.78 1.19-7 2.35-14 2.9-21 .59-7.42-1.82-14.2-5.9-20.42a184.74 184.74 0 0 0-13.9-18.78 23.8 23.8 0 0 1-3.34-5.46 56.69 56.69 0 0 1-5.56-20.3 2.68 2.68 0 0 1 0-.75 93.69 93.69 0 0 1 1.91-9.63c1.57-5.23 4-10 8.19-13.77 4.05-3.61 7.87-7.48 11.84-11.19a19.06 19.06 0 0 1 3.58-2.77c2.87-1.61 3.76-4.06 4-7.19.37-4.52 1.14-9 1.82-13.51s3.34-8.22 6-11.69a43.33 43.33 0 0 1 18.73-14.26 165.49 165.49 0 0 0 16.21-7.39c6.78-3.59 13.82-6.79 19.76-11.85 2.27-1.94 5-3.35 7.27-5.31a65.24 65.24 0 0 0 14.11-18.07c1.26-2.25.92-2.82-1.65-3.78a47.84 47.84 0 0 0-4.69-1.43C261 305.73 255 304 250.49 299c-2.35-2.6-5.34-4.61-7.83-7.1a58.43 58.43 0 0 1-13.66-22 57.78 57.78 0 0 1-3.81-19.26c0-7 .35-14 2.9-20.88a111.31 111.31 0 0 1 11.48-22.09 46.59 46.59 0 0 1 5.83-6.95c3.7-3.77 7.71-7.22 11.32-11.07 3.45-3.67 7.83-5.92 12-8.49a104.91 104.91 0 0 1 11.59-6.33c5.05-2.29 10.24-4.33 15.49-6.13a118 118 0 0 1 15.27-4.35c7.66-1.51 15.42-2.65 23.18-3.57 4.88-.59 9.84-.49 14.76-.7zm145.62 65.07c0 .3 0-.39.05-.08 5.18 0 22.08.75 25.35 1 9.55.86 19.22 2 28.29 5.75a7.6 7.6 0 0 0 1.85.38 37.27 37.27 0 0 1 13.76 5 24.13 24.13 0 0 0 2.67 1.39c4.51 2 9.21 3.57 13.5 5.92 4.84 2.66 9.31 6 14 9 .34.22 1.33.16 1.38 0a107.63 107.63 0 0 0 3.76-11.88c1.17-5.53 1.87-11.17 2.6-16.78a61.68 61.68 0 0 0 .89-11.31 154.44 154.44 0 0 0-2.15-19.21 71.19 71.19 0 0 0-10.81-26.88 134.72 134.72 0 0 0-15.62-19c-4.26-4.43-9.08-8.34-13.71-12.41a32.93 32.93 0 0 0-5.37-4.06c-5.52-3.07-11-6.17-16.78-8.81-6.38-2.93-12.95-5.49-19.54-8a83.9 83.9 0 0 0-9.48-2.44 93.18 93.18 0 0 0-9.48-2.26c-10.23-1.41-20.34-1.34-30.41 1.76-6.77 2.09-11.36 6.3-14.83 12.11a6.87 6.87 0 0 0-.94 3.24c-.1 4.18 5.57 11.48 9.56 12.69a97.44 97.44 0 0 0 21.59 3.78c8.18.56 16.39.59 24.58 1 5.55.25 11.13.48 16.64 1.13 6 .7 11.94 1.84 17.9 2.86 1.6.28 3.14.89 4.74 1.24 3.89.84 7 3.23 10.45 5 5.77 3 11.25 6.27 15.93 10.77a29.19 29.19 0 0 1 4 5 2.9 2.9 0 0 1-.88 4c-1.44.78-1.9-.53-2.74-1.26a77.45 77.45 0 0 0-7-5.65c-2-1.34-4.34-2.06-6.31-3.39a32.15 32.15 0 0 0-10.77-4.34c-5.14-1.25-10.33-2.38-15.57-3.14a77.27 77.27 0 0 0-12.81-.77c-5 .11-10 .87-15.05 1.16-11 .62-22 1-32.93 1.75a75.74 75.74 0 0 1-12.78-.06 43.06 43.06 0 0 1-6-1c-3.56-.86-7.06-2-10.62-2.81-9.05-2.17-15.27-7.51-18.44-16.28-.6-1.67-1-3.39-1.49-5.11-.78-3-3.13-4-5.59-2.11a15.53 15.53 0 0 0-3 3.39q-4.05 5.71-7.95 11.54c-4.56 6.84-9.11 13.67-13.55 20.59-3.67 5.72-7 11.7-10.79 17.33-6.38 9.4-13 18.62-19.6 27.9-.54.76-.65 1.35.26 1.83 3.23 1.71 6.39 3.58 9.72 5.06 5.29 2.37 10.76 4.34 16 6.71 12 5.36 24.54 8.63 37.31 11.29a8.62 8.62 0 0 0 4-.1c4.36-1.29 8.62-2.94 13-4.19 7-2 14.05-4.37 21.25-5.53 9.34-1.41 18.7-1.83 27.99-2.71zM299.77 299.7l-.11.63c5.92.53 11.83 1.1 17.75 1.56 5.4.41 10.81 1 16.21 1a131.31 131.31 0 0 0 24-2.53c13.65-2.53 27.26-5.27 40.89-7.91 13-2.51 26-5.29 39.11-7.4 10-1.62 20-2.54 30.1-3.46a115.06 115.06 0 0 1 18.17-.62 216.9 216.9 0 0 1 24.39 3.03c5.67 1 11.11 3.29 16.75 4.62a49.78 49.78 0 0 1 15.2 6.51c2 1.27 4.28 2.22 6.22 3.61 4.82 3.45 9.62 6.94 14.2 10.69 2.52 2.06 4.45 4.8 6.85 7 4.24 3.94 8.68 7.66 13 11.57 2.89 2.65 5.76 5.36 6.56 9.5.25 1.28 1.15 1.69 2.18.7a80.57 80.57 0 0 0 7.25-7.18 32.24 32.24 0 0 0 7.14-19.95 35.07 35.07 0 0 0-4.08-16.76 109.16 109.16 0 0 0-7.1-11.1 88.6 88.6 0 0 0-28.15-26.55c-4.09-2.49-8.37-4.68-12.63-6.87s-8.23-4.49-12.59-6.06c-14.39-5.16-29.38-7.41-44.6-8a119.87 119.87 0 0 0-18.18.29c-6.73.76-13.53 1.47-20.05 3.65-2.87 1-5.89 1.43-8.77 2.35-7.69 2.44-15.43 4.76-23 7.58-5.17 1.94-10.82 2.54-15.58 5.71a15.61 15.61 0 0 1-5.55 2.28 57.86 57.86 0 0 0-16.16 6.27c-6 3.21-12.52 5.22-18.64 8.11q-4.09 1.92-8.17 3.87c-2.28 1.09-4.53 2.22-6.82 3.29-4 1.87-8.29 3.26-11.94 5.65-8.41 5.5-17.91 8.08-27.28 11-5.43 1.67-11.05 2.64-16.57 3.92zm26.09-122.18c-5.66.37-11.33.65-17 1.15-7.5.66-14.64 3.08-21.47 5.94s-12.89 6.78-19.25 10.39a17.93 17.93 0 0 0-4.38 3.53c-3.3 3.62-6.57 7.28-9.6 11.14a63.42 63.42 0 0 0-7.27 10.57c-2.45 4.92-5.19 9.88-5 15.72.15 4.93-.11 9.87.21 14.78A47.42 47.42 0 0 0 259.2 285a5.91 5.91 0 0 0 1.25.86c4.76 2.23 9.1 5.5 14.65 5.84a55.7 55.7 0 0 1 6 .95c8.3 1.47 16.54 1.58 24.7-1 4.22-1.31 8.48-2.52 12.79-3.48a60 60 0 0 0 15.18-5.72c4.31-2.3 8.7-4.44 13.09-6.59 5.08-2.5 10.19-4.94 15.27-7.44a1.27 1.27 0 0 0 .23-.93c-11.69-2.45-21.92-11-27.13-15.42-3.17-2.7-5.21-3.47-8.9-1.53a13.49 13.49 0 0 1-10.33 1c-1.05-.32-2.45-1.32-2.65-2.24-.33-1.54 1.37-1.34 2.42-1.6a34.36 34.36 0 0 0 4.75-1.32c3.72-1.54 7.74-2.71 11-5 8.3-5.74 14.79-13.41 20.53-21.62 3.45-5 6.31-10.31 9.41-15.51 3.23-5.43 6.45-10.87 9.61-16.35 2-3.41 1.88-3.71-2-4.87a78.35 78.35 0 0 0-9.55-2.25 213.68 213.68 0 0 0-33.66-3.26zm109.83 137.06c3.79.25 6.68.32 9.55.65 4.55.53 8.69 2.39 13 4 9.16 3.38 17.22 8.1 22.29 16.66 3.51 5.93 5.64 12.35 4.48 19.54a31.18 31.18 0 0 1-3.87 10.23c-1.7 3.07-3.31 6.44-5.81 8.75-5.26 4.88-11 9.24-16.71 13.61a51.66 51.66 0 0 1-7.53 4.4c-4.58 2.4-9.18 4.77-13.86 7-1.92.91-4.35.93-6.05 2.08-3.46 2.34-7.35 3.37-11.2 4.52-9.2 2.75-18.51 5.14-27.32 9-3.34 1.47-6.61 3.12-10 4.44a85.38 85.38 0 0 0-29.13 19.37c-.81.8-1.39 1.82-2.16 2.65-1.13 1.23-.81 2.17.33 3.2 1.69 1.52 3.29 3.13 4.9 4.74.85.84 1.43.76 2.06-.28a14.47 14.47 0 0 1 8.21-6.35c4.3-1.39 8.63-2.75 13-4 6.32-1.84 12.5-1.07 18.74-.74s12.34 1.37 18.52 1.44c9.08.11 17-2.62 23.11-10a189.77 189.77 0 0 1 14.5-15.51 16.46 16.46 0 0 1 12.6-5.05 79.81 79.81 0 0 0 15.54-.52c10.59-1.65 15-4.12 17.73-15.14.92-3.67 1.44-7.43 2.21-11.13 1.16-5.52 3.53-10.19 8.76-13.08a17.89 17.89 0 0 0 5-4c2.94-3.48 5.26-7.65 3.78-12.19-1.64-5-4.29-9.87-9-12.78a107.53 107.53 0 0 0-12.11-6.27c-6.1-2.74-12.57-4.74-17.54-9.54-1.92-1.85-3.85-3.68-5.84-5.45-3.1-2.77-6.29-5.67-10.38-6.68a44.49 44.49 0 0 0-29.8 2.43zM270 610.68l-.06.59c-4-.44-8.07-.49-11.94-1.43-2.45-.6-4.67-2.36-6.81-3.86a33.52 33.52 0 0 1-6.37-5.27c-6.94-8.18-8.74-17.75-6.81-28.1.93-5 2.15-9.88 3.21-14.82s2.2-10.11 3.17-15.19c2.15-11.25 2-22.36-2.71-33-4.11-9.38-8.12-18.79-10.64-28.75-3.19-12.64-.81-23.84 9-32.9 2.4-2.22 5.22-4 7.78-6 3.5-2.8 7.18-5.07 11.78-5.68 2.9-.38 3.59-1.52 3.63-4.64v-3c-.1-3.35-.17-3.5-3.48-3.17a62.33 62.33 0 0 0-21 5.89c-3 1.46-5.66 3.76-8.4 5.76a42.2 42.2 0 0 0-3.73 3.22 32.43 32.43 0 0 0-9.53 15.15c-1.79 6.48-1.71 13-1.62 19.57a62.71 62.71 0 0 0 9.53 32.19c3.23 5.31 5.51 11.07 5.63 17.45.07 3.66.73 7.43.05 10.94-.73 3.81-1.78 7.58-2.25 11.46a11.21 11.21 0 0 1-.91 2.88c-3.29 7.76-4.68 16-6 24.24a24.75 24.75 0 0 0-.45 8.29c1.25 6.9 1.86 14 6.81 19.81 3.47 4.05 6.69 8.29 11.21 11.21 11.75 7.6 24.81 10.14 38.63 10.31 10.57.13 21.2-.25 31.63 2.69a54.14 54.14 0 0 1 19.17 9.48c3.67 2.89 7.07 6.17 11 8.68 3.23 2.08 7 3.3 10.58 4.9 3 1.35 6-.12 9-.15a30.63 30.63 0 0 0 16.13-4.86 80.29 80.29 0 0 0 11.38-8.15c3.91-3.55 7.22-7.76 10.76-11.72a4 4 0 0 0 .46-1.36 4.52 4.52 0 0 0-1.36-.28c-4.38.55-8.79 1-13.12 1.82-1.56.3-3.58.36-4.57 2.1-2 3.42-5.49 4.78-8.77 5.95-9.17 3.29-17.95 1.59-26.09-3.45a162.15 162.15 0 0 0-23.39-12.37 104.23 104.23 0 0 0-20-5.72 67.28 67.28 0 0 0-12.41-1.3c-6.07-.09-12.12.36-18.12.59zm245.15-28.2c.37 3.86-2.1 8.11-3.47 12.69-2.36 7.87-7.43 13.47-13.92 17.86-5.83 3.94-12.11 6.28-19.59 5.69a78.08 78.08 0 0 1-15.83-3.28c-4.52-1.31-8.8-3.52-13.17-5.36-3-1.27-6-2.68-9-3.86-6.17-2.38-12.69-2-19.12-2.24a96.63 96.63 0 0 0-10.19.55c-2.5.19-5 .69-7.49.71-11.11.1-22.26.5-33.08-2.92-8.34-2.64-15.46-6.86-19.81-14.73-1.46-2.64-2.3-5.62-3.67-8.32-1.62-3.19-1.82-6.52-1.77-10 0-2.65-.24-5.29-.28-7.94a2.52 2.52 0 0 0-1.91-2.5c-2.36-.9-4.73-1.77-7.08-2.71-1.13-.46-1.64 0-1.82 1.06a12.17 12.17 0 0 0-.35 1.86c0 4.89-.85 9.8.77 14.67 1.06 3.2 1.21 6.72 2.37 9.88a70 70 0 0 0 9.08 16.56c4.5 6.27 9.41 12.11 16.84 14.71a64.07 64.07 0 0 0 15.83 3.39c4.32.35 8.78-.75 13.16-1.37 8.37-1.18 16.6-2.9 25.24-1.71 9.33 1.29 18.39 3.24 27.05 6.92a138.09 138.09 0 0 0 28.55 8.73c6.58 1.25 13.28 2.09 20 .44 2.32-.58 4.57-1.46 6.9-2 8.52-2.13 14.65-7.44 18.58-15a80.72 80.72 0 0 0 8.3-25.52c1.06-7.22 1.11-14.6 1.51-21.91.2-3.53-.16-7.12.27-10.62 1.09-8.76 1.64-17.63 4.57-26.07.83-2.38 1.84-4.7 2.63-7.1.94-2.87 1.41-5.94 2.66-8.66a165.88 165.88 0 0 1 8.27-16.22c4.83-8.05 5.35-16.41 1.72-24.7-4.1-9.37-10-17.5-19.3-22.68-1.7-.94-2.7-.79-4 .17-2.13 1.58-4.2 3.25-6.38 4.76-1.39.95-1.26 1.36.07 2.35a88.75 88.75 0 0 1 9 7.42 54.73 54.73 0 0 1 5.66 7.08c3.41 4.67 5.2 10 4.22 15.68a44.2 44.2 0 0 1-7.17 17.7 62.14 62.14 0 0 0-8.06 14.82c-1.67 4.74-4 9.27-5 14.25-.88 4.44-2 8.87-2.36 13.36-.39 5.66-.08 11.37 0 17.06.11 5.3.36 10.57.59 17.05zM417.11 572c-.14-.71-.22-1.34-.4-1.94-1.16-4.11-2.63-8.16-3.46-12.34-1.87-9.36-5.23-18.24-8.56-27.1a180.65 180.65 0 0 0-9.54-21.05 158.77 158.77 0 0 0-14.85-23.74c-3.87-5-8-9.8-12.16-14.52-5.35-6-10.67-12.11-16.43-17.74s-12.15-11-18.43-16.32c-4.15-3.49-8.55-6.7-13-9.84-5.56-4-11.52-7.41-16.84-11.66-7.36-5.88-15.58-10.29-23.62-15-2.7-1.59-5.53-3-8.31-4.41a6.2 6.2 0 0 0-1-.3 3.31 3.31 0 0 0 0 1.33 7.92 7.92 0 0 0 1 1.57c2.09 2.82 4.3 5.56 6.27 8.46 4.46 6.57 8.69 13.3 13.23 19.81 5.26 7.53 12.05 13.3 20.79 16.43a56.88 56.88 0 0 1 16.44 9.26c6 4.8 10.31 11.06 14.13 17.62 1.89 3.25 3.46 6.71 5.06 10.12a83.89 83.89 0 0 1 3.86 9c1.56 4.68 2.71 9.49 4.19 14.19a95 95 0 0 0 3.72 10.3c1 2.27 2.69 4.25 4 6.39a43.35 43.35 0 0 0 10.84 12.45c6.58 4.91 12.85 10.23 19.45 15.1 7.83 5.78 14.68 12.38 19.6 20.85a30 30 0 0 0 2.79 3.59c.14.17.56.35.64.29a3.27 3.27 0 0 0 .59-.8zm81.33-133.7c-6.87.85-11.92 1.16-16.84 2.15-6.18 1.24-12.3 2.87-18.35 4.64a152.2 152.2 0 0 0-25.45 9.73c-7.23 3.61-14.37 7.46-21.74 10.77-9.89 4.43-18.25 11.25-27.43 16.77-1.06.64-1.83 1.42-1 2.77 2.58 4.32 5.14 8.67 7.76 13 .68 1.12 1.48.28 2.28 0 2.21-.89 4.42-2.27 6.69-2.41 5.66-.36 11.44-.76 17 0 5.74.81 10.74-.8 15.77-2.68s8.54-5.73 12.32-9.31c5.95-5.66 11.93-11.31 18.22-16.58 4.05-3.39 8.65-6.19 14-7.21 5.07-1 10.15-1.92 15.26-2.69s10.6-1.27 15-4.62c5.75-4.35 11.54-8.64 18.38-11.2a5.06 5.06 0 0 0 1.17-.88 9.88 9.88 0 0 0-1.6-.71 9 9 0 0 0-1.88-.2zM586 354.49c-.24-2-.46-5.17-1-8.26-1.37-7.19-4.76-13-11.71-16.23a5 5 0 0 1-1-.46 34.5 34.5 0 0 0-20.44-7c-3.78-.06-7.57 0-11.35 0a25.44 25.44 0 0 0-10.64 2.36c-3 1.39-6 2.78-9 4.14-2.06.93-4.17 1.8-6.24 2.73-1.37.61-1.76 1.32-.23 2.29 1.71 1.09 3.63 2 5 3.45s2.44 1.62 4.25 1c4.67-1.59 9.4-3 14.15-4.31a30.3 30.3 0 0 1 16.86.29c5.61 1.62 10.27 4.79 13 10.21a4.92 4.92 0 0 0 .66.93 18.22 18.22 0 0 1 4 14.21c-.57 5.13-1.5 10.22-2.33 15.33-.72 4.47-1.66 8.92-2.22 13.41-.76 6.14-1.37 12.3-1.79 18.46-.5 7.2-.58 14.42 1 21.51 2.16 9.77 4.85 19.34 9.61 28.27 3.41 6.42 5.55 13.25 5.28 20.73-.33 9.69-2.68 18.27-11.7 23.6a1.66 1.66 0 0 0-.3.22 20.51 20.51 0 0 1-15.75 5.15c-5.84-.37-4.35-1-6.86 4.67-.54 1.21-.09 1.84.89 2.48 5.26 3.46 10.75 5.24 17.23 4 2.62-.51 4.52-2 6.83-2.93 8.05-3.11 13.25-9.08 16.14-17.05a72.64 72.64 0 0 0 3.14-11.31c.74-4 1.47-8.07 1.15-12a128.75 128.75 0 0 0-2.06-16.12 152.44 152.44 0 0 0-8.67-27 61 61 0 0 1-4.56-17.91 91.35 91.35 0 0 1-.6-11.32c.35-10.09 4.15-19.46 6.47-29.14a87.5 87.5 0 0 0 2.79-18.4zM386.51 561c3.39-.17 6.79-.32 10.17-.52a6.55 6.55 0 0 0 1.35-.35 4.15 4.15 0 0 0-.7-1.22c-4.51-3.65-9-7.34-13.63-10.84a7.92 7.92 0 0 0-3.82-1.09c-3.62-.37-7.38-.11-10.87-1A114.54 114.54 0 0 1 354 541c-5.5-2.19-10.78-5-16.26-7.2a48.52 48.52 0 0 1-14.56-9.4c-3.15-2.9-6.73-5.35-9.76-8.36-5.21-5.18-8.91-11.55-13.12-17.51a19.11 19.11 0 0 1-1.29-2.3c-1.88-3.55-3.94-7-5.6-10.68-2.13-4.69-4.43-9.39-5.79-14.33-1.83-6.68-2.9-13.58-4.18-20.4-1.59-8.44-3.16-16.87-1.84-25.53a3.93 3.93 0 0 0-.79-2.47c-2.75-4-5.58-8-8.41-12a1.06 1.06 0 0 0-.89-.4c-.24.09-.45.55-.49.87-1.06 7.51-2.25 15-1.27 22.65.67 5.27 1.06 10.58 1.28 15.88a92.31 92.31 0 0 0 2.67 20.26c2 7.43 4.52 14.72 7.08 22a89.72 89.72 0 0 0 13.79 25.16c2.15 2.8 4.16 5.85 6.83 8.09 6.67 5.61 13.67 10.82 20.54 16.18a4.8 4.8 0 0 0 .93.48c2.73 1.24 5.51 2.37 8.19 3.73 6.83 3.47 13.59 7.06 20.93 9.42 11.2 3.55 22.64 5.97 34.52 5.86zm-56.09-215a31.45 31.45 0 0 0 1.28 3 21.86 21.86 0 0 0 5.91 6.77c6.5 5.14 10.8 11.61 11.34 20.18a85.88 85.88 0 0 0 1.1 10.14 8.9 8.9 0 0 0 6.16 7.08c2 .7 4 1.5 6 2.24 6.08 2.21 10.24 6.24 12.16 12.52a23.08 23.08 0 0 0 1.87 4.54 2.36 2.36 0 0 0 2 1c4.68-1.52 9.28-3.27 13.95-4.83 2.84-1 2.67-2.11 1.49-3.95-3.54-5.53-6.76-11.49-11.32-16.06a116 116 0 0 1-10.81-13.1c-6.43-8.66-12.21-17.75-15.61-28.28-2-6.17-3.31-12.16-2.53-18.54.74-6.12 2.18-12 7.42-16 2.67-2 5.5-3.89 8.24-5.85a4.82 4.82 0 0 0 .8-1c-.37-.05-.74-.11-1.11-.15a1.26 1.26 0 0 0-.38 0 247.2 247.2 0 0 1-32.95 4.65c-1.53.14-1.18.94-.88 1.8.92 2.62 1.88 5.22 2.78 7.85 1.91 5.54.82 10.59-2.28 15.46a68 68 0 0 0-3.93 7.76 16.39 16.39 0 0 0-.7 2.77zm101 314.64v.19c1.64 0 3.3-.13 4.93 0 6.79.65 13.62 1.06 20.34 2.16 8.53 1.41 16.24-.68 23.9-4.07 5.16-2.29 8.1-6.36 9.82-11.39a24.81 24.81 0 0 0 1.06-7.45c.05-2.06-.44-2.12-2.64-1.78a23.08 23.08 0 0 1-4.48.16c-3.16-.13-3.16-.18-4.18 3-1.65 5.11-4.64 8.53-10.12 10.22a39.77 39.77 0 0 1-21.31.43c-3.94-.91-7.88-2.31-11.84-2.42-8.18-.21-16.48-.36-24.36 2.42a68.77 68.77 0 0 0-12.82 5.6c-6.24 3.77-12.06 8.25-18.12 12.36-3.66 2.47-7.31 5-11.16 7.14-7.34 4.14-16.68.72-20.49-6.85a42.54 42.54 0 0 1-3.76-13 3.07 3.07 0 0 0-1.69-2.68c-2.48-1.24-4.91-2.59-7.38-3.86-1.48-.76-2.06-.46-2.27 1.17a14.45 14.45 0 0 0-.08 2.28 63.53 63.53 0 0 0 4.12 20.33 24.84 24.84 0 0 0 9.3 11.65c6.09 4.34 12.54 6.41 20 4.43a14.6 14.6 0 0 1 1.88-.2c5.29-.77 10.45-1.83 14.56-5.68 5.17-4.83 10.34-9.65 15.61-14.37a33.08 33.08 0 0 1 14.66-7.56c5.4-1.34 11.02-1.57 16.53-2.26zM196.27 396.06c.1 1.83.13 2.84.21 3.85a33.7 33.7 0 0 0 7.39 19.17 40.09 40.09 0 0 0 15.34 12.09c1.55.67 3.13 2.23 4.53 2.05s2.86-1.91 4.26-3c.5-.39.91-.88 1.4-1.28 1.06-.86.92-1.48-.12-2.35A64.55 64.55 0 0 1 222 420c-4-4.57-7-9.87-9.77-15.29-1.6-3.14-1.58-6.51-1.32-9.62a24.66 24.66 0 0 1 5.76-14.44c3-3.5 5-7.83 9.18-10.34 8-4.82 15.92-9.79 24-14.57a132.63 132.63 0 0 0 13.29-8.66 91.74 91.74 0 0 0 15.26-14.66 58.6 58.6 0 0 0 9.73-17.05c1.28-3.49.89-4-2.68-4.16a13.13 13.13 0 0 1-2.27-.12c-1.67-.36-2.54.22-3.11 1.86a23.14 23.14 0 0 1-2.51 5.46c-3.25 4.79-6.08 10.09-10.2 14a106.56 106.56 0 0 1-21.53 15.29 219.93 219.93 0 0 1-25.38 12.67 41.83 41.83 0 0 0-12.44 7.82c-8.4 7.61-12.75 17.14-11.74 27.87zM191 537.74c.27 2 .18 4.26.93 6.21a72.2 72.2 0 0 0 5.59 12.41c3.66 6 9.34 9.36 16.25 10.69 1.35.25 2.13 0 2.43-1.5a46.46 46.46 0 0 1 1.64-6.6c.51-1.43.48-1.79-1.15-2.22-7.12-1.88-11.63-6.3-12.6-13.87a9.77 9.77 0 0 0-.59-2.18c-1.75-4.49-1.31-9.16-.69-13.68.89-6.65 1.85-13.26 1.67-20a61.12 61.12 0 0 0-.46-8.68c-.9-5.33-1.23-11-3.51-15.79-3.18-6.65-7.89-12.58-12-18.77-1.32-2-3-3.73-4.2-5.79-1.62-2.85-3-5.86-4.3-8.85-4-9-2.36-17.2 3.3-24.92a34.14 34.14 0 0 1 9.16-9c.4-.26.86-1.1.72-1.44-.85-2.05-1.87-4-2.82-6.05a35.49 35.49 0 0 0-5.42 3.18c-2.69 2.27-5 5-7.65 7.29-6.17 5.37-9 12.17-9.72 20.22-.37 4.18.61 7.91 1.6 11.86 1.66 6.62 5.66 11.78 9.55 17 5.67 7.59 11.43 15 14.6 24.16 2.36 6.87 2.22 13.71 1.51 20.62-.53 5.14-1.85 10.2-2.65 15.32-.58 3.41-.83 6.82-1.19 10.38zm418.88-29.28c1-7.13-3.4-13.46-9.62-18.91-1.6-1.4-2.76-1.11-3.42.86-.89 2.62-1.54 5.33-2.31 8-.48 1.66-.31 2.83 1.67 3.42a5.83 5.83 0 0 1 3.9 4.78c1 4.86.94 9.71-2.87 13.48a177.17 177.17 0 0 1-14.44 13.39 71.28 71.28 0 0 0-18.06 21.2c-5.34 9.5-9.22 19.71-8.61 31a4.45 4.45 0 0 1-.19 1.5c-1.65 5-3.18 10.11-5.07 15a20.35 20.35 0 0 1-3.75 6.06c-5.13 5.82-9.29 6.9-17.32 5-3.75-.9-3.7-1.14-5.35 2.21a25.41 25.41 0 0 0-1.53 3.47 1.59 1.59 0 0 0 .52 1.44c2.8 1.09 5.57 2.6 8.49 3 9.85 1.26 18.19-1.73 24.37-9.82 4.56-6 6.47-13.08 8.16-20.21 1.61-6.76 3-13.59 4.44-20.38 1.84-8.41 6.6-15.36 12-21.67 5.92-6.88 12.72-13 19-19.61 5.67-6.02 9.62-12.91 9.95-23.21zm-105.81-46.18a71.81 71.81 0 0 1-9.15 1.56c-2.63.15-3.95 1.13-4.41 3.6-.09.49-.49.92-.56 1.4-.89 6-4.44 10.68-7.68 15.43-4.68 6.87-9.52 13.7-14.84 20.08a134 134 0 0 1-14.14 14.15c-5.18 4.59-10.73 8.79-16.29 12.93a109 109 0 0 1-10.2 6.47c-3.15 1.85-6.42 3.5-9.67 5.17a2.08 2.08 0 0 0-1.17 2.79c.67 2.44 1.32 4.89 1.82 7.37.35 1.77 1.1 2 2.59 1.18 3.74-2.09 7.44-4.27 11.29-6.13a138.18 138.18 0 0 0 32.18-21.79 175.06 175.06 0 0 0 18.27-18.66 135 135 0 0 0 15.54-24.15c2.19-4.24 4.11-8.64 6-13a66.39 66.39 0 0 0 2.29-6.81c.34-1.12-.11-1.75-1.87-1.59zM331.51 325.81c-.22-1.28-.28-1.79-.39-2.28-.63-2.9-1.25-3.17-3.57-1.25-4.28 3.54-8.67 7-12.14 11.36-2.2 2.78-4.65 5.36-6.7 8.23-4.46 6.26-8.79 12.62-13.07 19-2.1 3.13-4.09 6.36-5.95 9.64-3.79 6.68-7.45 13.43-11.18 20.14-.59 1.06-.54 2 .58 2.55 2.9 1.54 5.82 3 8.73 4.56.87.46 1.34.1 1.76-.72q4.8-9.45 9.66-18.87a28.75 28.75 0 0 1 2.73-4.93c6.7-8.37 13.54-16.64 20.28-25a6.16 6.16 0 0 0 1.48-2.92c.53-5 2.65-9.37 5.36-13.57 1.26-1.94 1.8-4.36 2.42-5.94zm185.67 68.63h.26v-19a7 7 0 0 0-.43-1.7 8.63 8.63 0 0 0-1.63.64c-4.81 3.12-6.27 8.1-7 13.29a54.77 54.77 0 0 1-4.92 15.88 6.34 6.34 0 0 0-.14 3.17c.28 2.62 1 5.24 1 7.84-.14 5.29-.7 10.56-1.09 15.84-.16 2.29.38 2.87 2.77 2.73 1.76-.11 3.52-.42 5.29-.4a2.07 2.07 0 0 0 2.46-2.1c.68-4.88 1.72-9.72 2.16-14.61.61-7.17.85-14.38 1.27-21.58zm-142.92-41.65c-2.64.41-4.82 1.57-5.62 3.73-.42 1.16.74 3 1.34 4.41.28.67 1 1.15 1.39 1.79.65 1 1.31 1 2 .13 2.16-2.72 5.09-2.5 8-2a18.23 18.23 0 0 1 3.89 1.43c4.3 1.84 8.54 3.15 13 .42a16.6 16.6 0 0 1 4.65-1.59 10.88 10.88 0 0 1 11.08 3.14 25.71 25.71 0 0 1 6.63 14.25c.9 6.32 4.7 11 7.24 16.41.16.34.76.48 1.16.71.15-.52.51-1.07.43-1.55q-.94-5.42-2.06-10.8c-.92-4.45-2.09-8.86-2.85-13.34a26.06 26.06 0 0 0-6.24-13.6c-4.24-4.61-11-6.83-17.08-2.66a20.16 20.16 0 0 1-4.37 2.21c-5.45 2-10.91 3.34-16.28-.37a24.13 24.13 0 0 0-4.06-2.05 17.23 17.23 0 0 0-2.25-.67zm123.07-63.65c-2 .28-3.6.47-5.2.75-4.22.75-8.47 1.32-12.61 2.36-6.32 1.57-11.88 4.9-17.47 8.12-1.09.63-2.25 1.14-3.32 1.81a11.76 11.76 0 0 0-1.62 1.47c.63.28 1.26.57 1.9.84a.9.9 0 0 0 .37.05 27.52 27.52 0 0 1 12.34 3.21c1.07.6 1.82.27 2.7-.48A32.1 32.1 0 0 1 483 302c7-2.93 13.65-6.55 21.25-7.75a28.12 28.12 0 0 0 4.61-1.56c-1.42-.5-2.82-1.06-4.26-1.49-2.5-.77-5.05-1.45-7.27-2.06zm-62.06 31.23c-3.1.43-6.22.76-9.3 1.33a8.79 8.79 0 0 0-2.56 1.51 35 35 0 0 0 3.26 3c.37.27 1.22-.07 1.83-.19 4.46-.92 8.87 0 13.13.85a59.34 59.34 0 0 1 18.13 7.35c7.92 4.72 13.85 10.87 17.51 19.29.15.37.57.62.87.93a6.28 6.28 0 0 0 .33-1A20 20 0 0 0 476 341c-4.64-8.79-12.63-13.36-21.36-16.58-6.15-2.25-12.58-4.04-19.37-4.05zm-4.41 17c-2.13 0-9.62 3.57-12.41 6.26-.8.76-1.9 1.55-.67 2.81 1 1 2 1.93 3.5.52a13.87 13.87 0 0 1 3.58-2.1c5.48-2.53 10.6-1.73 13.23 2.55a28.68 28.68 0 0 0 12.69 10.91c6.15 2.94 12.2 6.11 16.94 11.23.58.63 1 2 2.37 1.11s2.63-2.72 2.14-3.95c-1.56-3.93-4-7-8.38-8-1.48-.33-2.93-.77-4.42-1-6.64-1.19-11.52-4.85-15-10.5-.79-1.29-1.44-2.68-2.33-3.89-2.61-3.55-5.86-5.97-11.24-5.96zm-57.37-2.93c-2.27.55-4.81.71-6.85 1.8a18.16 18.16 0 0 0-5.19 4.79c-.42.53.44 2.07.67 3.15.34 1.54 1 1.46 2.08.57a14.54 14.54 0 0 1 7.94-3.34 36.91 36.91 0 0 1 13.14.9 28.91 28.91 0 0 0 9.7.82c6.82-.71 12.32-4.11 16.54-9.6a15.72 15.72 0 0 1 2.85-2.45c.82-.64 1.7-1.2 2.55-1.8a22.42 22.42 0 0 0-3.35-1.62c-1.91-.58-3.45.46-4.79 1.66a39.68 39.68 0 0 1-8.82 5.74 23 23 0 0 1-17.96 1.67c-1.45-.45-2.87-1-4.33-1.39s-2.67-.59-4.18-.91zm39.93-88.33c.7-.37 1.8-.89 2.84-1.51a9.07 9.07 0 0 0 1.32-1.16 7.71 7.71 0 0 0-1.51-.88c-4.95-1.48-10-2.74-14.85-4.43-7.26-2.52-14.4-5.41-21.64-8-5.84-2.09-11.6-4.29-16.75-7.88-2.34-1.63-3.3-1.23-4.83 1.21-.65 1-.3 1.5.6 2.07a134.92 134.92 0 0 0 23.73 11.73c6.35 2.42 12.95 4.2 19.48 6.1 3.63 1.04 7.36 1.75 11.61 2.74zm1.27 68.89l-.81-.36c-1.25-.59-2.52-1.17-3.76-1.78a33 33 0 0 0-19.82-3.36c-3.86.58-7.69 1.33-11.53 2-4.93.93-9.43 2.76-12.85 6.61a19.48 19.48 0 0 0-4.95 9.65 14.87 14.87 0 0 0-.13 1.51 6.42 6.42 0 0 1 .71-1.26c2-2.28 3.85-4.66 6-6.77 2.81-2.75 6.86-3.06 10.23-4.73 6.9-3.43 14.19-3.36 21.5-2.42 3.45.45 7.09.72 10 3.12.57.47 4.69-.78 5.12-1.43a5.62 5.62 0 0 0 .29-.78zm17.58 44.13c-2.58 0-3 .63-2.32 2.74.51 1.55.81 3.17 1.38 4.7.26.71.91 1.75 1.45 1.8 3.46.31 4.89 2.67 6.19 5.42a20.36 20.36 0 0 0 6.36 7.86c4.46 3.31 9.4 2.92 13-1.19.72-.82.6-1.31-.38-1.59-.73-.2-1.5-.26-2.24-.39-7-1.24-12.26-4.55-14.38-11.73a6.55 6.55 0 0 0-.33-1.09 11.7 11.7 0 0 0-8.73-6.55zm-19.55-62.66a31.89 31.89 0 0 0-3.28.39c-3.67.89-7.34 1.8-11 2.81a41.87 41.87 0 0 0-4.22 1.65 46.85 46.85 0 0 0 4.56 1.39c1.85.37 3.76.43 5.62.74a20.89 20.89 0 0 1 3.65 1c4.25 1.53 8.52 3.11 12.19 5.8 2.51 1.84 4.78.83 7.11-.07a1.82 1.82 0 0 0 .5-1.64 36.14 36.14 0 0 0-5-5.62 100.18 100.18 0 0 0-8.65-6 4.38 4.38 0 0 0-1.48-.47zm-11.16 89.49a10.45 10.45 0 0 0-7.7 3c-.44.4-.88 1.37-.69 1.78.4.86 1.07 1.84 2.36 1.19a4.61 4.61 0 0 1 1.36-.66c2.22-.22 4.59-.9 6.66-.39 5.32 1.31 10.24 3.62 13.55 8.34a1.7 1.7 0 0 0 2.89.18 2.41 2.41 0 0 0 .17-2.22c-3.95-7-9.55-11.38-18.6-11.24z"/><path class="a" d="M466.8 228.29c-7.2 1.16-14.21 3.53-21.25 5.53-4.37 1.25-8.63 2.9-13 4.19a8.62 8.62 0 0 1-4 .1c-12.77-2.66-25.35-5.93-37.31-11.29-5.29-2.37-10.76-4.34-16-6.71-3.33-1.48-6.49-3.35-9.72-5.06-.91-.48-.8-1.07-.26-1.83 6.56-9.28 13.22-18.5 19.6-27.9 3.82-5.63 7.12-11.61 10.79-17.33 4.44-6.92 9-13.75 13.55-20.59q3.88-5.84 7.95-11.54a15.53 15.53 0 0 1 3-3.39c2.46-1.87 4.81-.89 5.59 2.11.45 1.72.89 3.44 1.49 5.11 3.17 8.77 9.39 14.11 18.44 16.28 3.56.85 7.06 1.95 10.62 2.81a43.06 43.06 0 0 0 6 1 75.74 75.74 0 0 0 12.78.06c11-.78 22-1.13 32.93-1.75 5-.29 10-1 15.05-1.16a77.27 77.27 0 0 1 12.81.77c5.24.76 10.43 1.89 15.57 3.14a32.15 32.15 0 0 1 10.77 4.34c2 1.33 4.35 2.05 6.31 3.39a77.45 77.45 0 0 1 7 5.65c.84.73 1.3 2 2.74 1.26a2.9 2.9 0 0 0 .88-4 29.19 29.19 0 0 0-4-5c-4.68-4.5-10.16-7.8-15.93-10.77-3.44-1.77-6.56-4.16-10.45-5-1.6-.35-3.14-1-4.74-1.24-6-1-11.9-2.16-17.9-2.86-5.51-.65-11.09-.88-16.64-1.13-8.19-.38-16.4-.41-24.58-1a97.44 97.44 0 0 1-21.59-3.78c-4-1.21-9.66-8.51-9.56-12.69a6.87 6.87 0 0 1 .94-3.24c3.47-5.81 8.06-10 14.83-12.11 10.07-3.1 20.18-3.17 30.41-1.76a93.18 93.18 0 0 1 9.48 2.26 83.9 83.9 0 0 1 9.48 2.44c6.59 2.46 13.16 5 19.54 8 5.74 2.64 11.26 5.74 16.78 8.81a32.93 32.93 0 0 1 5.37 4.06c4.63 4.07 9.45 8 13.71 12.41a134.72 134.72 0 0 1 15.62 19 71.19 71.19 0 0 1 10.81 26.88 154.44 154.44 0 0 1 2.01 19.24 61.68 61.68 0 0 1-.89 11.31c-.73 5.61-1.43 11.25-2.6 16.78a107.63 107.63 0 0 1-3.76 11.88c-.05.15-1 .21-1.38 0-4.66-3-9.13-6.32-14-9-4.29-2.35-9-4-13.5-5.92-.92-.4-11.48-5.73-16.43-6.43a7.6 7.6 0 0 1-1.85-.38c-9.07-3.73-18.74-4.89-28.29-5.75-3.27-.29-20.17-1-25.35-1 .01-.37-18.67 1.32-27.87 2.8zm60.34-62.95c-4 .4-8.77.29-13.23 1.47-7.2 1.91-13.94 4.88-18.91 11.06s-8.27 12.93-8.47 21a9.58 9.58 0 0 0 2.26 7c2.37 2.51 5.44 2.4 8.47 1.35 2.87-1 5.64-2.25 8.52-3.18 2.66-.86 3.72-2.68 4.15-5.28a47.56 47.56 0 0 1 2-8.8c2.39-6.42 6.7-11.39 13.15-13.85a34.41 34.41 0 0 1 24.06-.08c1.27.43 2.4 1 3.44-.19 1.2-1.36.9-2.84 0-4.18a5.31 5.31 0 0 0-1.67-1.49 35.82 35.82 0 0 0-3.74-1.82c-6.17-2.58-12.8-2.79-20.03-3.01z"/><path class="b" d="M299.77 299.7c5.52-1.28 11.14-2.25 16.54-3.93 9.37-2.9 18.87-5.48 27.28-11 3.65-2.39 8-3.78 11.94-5.65 2.29-1.07 4.54-2.2 6.82-3.29q4.08-2 8.17-3.87c6.12-2.89 12.6-4.9 18.64-8.11 5-2.7 20.07-7.46 21.71-8.55 4.76-3.17 10.41-3.77 15.58-5.71 7.55-2.82 15.29-5.14 23-7.58 2.88-.92 5.9-1.39 8.77-2.35 6.52-2.18 13.32-2.89 20.05-3.65a119.87 119.87 0 0 1 18.18-.29c15.22.61 30.21 2.86 44.6 8 4.36 1.57 8.44 3.93 12.59 6.06s8.54 4.38 12.63 6.87a88.6 88.6 0 0 1 28.15 26.55 109.16 109.16 0 0 1 7.1 11.1 35.07 35.07 0 0 1 4.08 16.76 32.24 32.24 0 0 1-7.14 19.95 80.57 80.57 0 0 1-7.25 7.18c-1 1-1.93.58-2.18-.7-.8-4.14-3.67-6.85-6.56-9.5-4.27-3.91-8.71-7.63-13-11.57-2.4-2.22-4.33-5-6.85-7-4.58-3.75-9.38-7.24-14.2-10.69-1.94-1.39-4.19-2.34-6.22-3.61a49.78 49.78 0 0 0-15.2-6.51c-5.61-1.31-11-3.61-16.72-4.61a216.9 216.9 0 0 0-24.35-3.08 115.06 115.06 0 0 0-18.17.62c-10.06.92-20.14 1.84-30.1 3.46-13.09 2.11-26.08 4.89-39.11 7.4-13.63 2.64-27.24 5.38-40.89 7.91a131.31 131.31 0 0 1-24 2.53c-5.4 0-10.81-.55-16.21-1-5.92-.46-11.83-1-17.75-1.56z"/><path class="a" d="M325.86 177.52a213.68 213.68 0 0 1 33.62 3.3 78.35 78.35 0 0 1 9.55 2.25c3.89 1.16 4 1.46 2 4.87-3.16 5.48-6.38 10.92-9.61 16.35-3.1 5.2-6 10.56-9.41 15.51-5.74 8.21-12.23 15.88-20.53 21.62-3.26 2.25-7.28 3.42-11 5a34.36 34.36 0 0 1-4.75 1.32c-1.05.26-2.75.06-2.42 1.6.2.92 1.6 1.92 2.65 2.24a13.49 13.49 0 0 0 10.33-1c3.69-1.94 5.73-1.17 8.9 1.53 5.21 4.44 24 13.77 27.13 15.42a1.27 1.27 0 0 1-.23.93c-5.08 2.5-10.19 4.94-15.27 7.44-4.39 2.15-8.78 4.29-13.09 6.59a60 60 0 0 1-15.18 5.72c-4.31 1-8.57 2.17-12.79 3.48-8.16 2.54-16.4 2.43-24.7 1a55.7 55.7 0 0 0-6-.95c-5.55-.34-9.89-3.61-14.65-5.84a5.91 5.91 0 0 1-1.25-.86 47.42 47.42 0 0 1-17.12-34.25c-.32-4.91-.06-9.85-.21-14.78-.17-5.84 2.57-10.8 5-15.72a63.42 63.42 0 0 1 7.27-10.57c3-3.86 6.3-7.52 9.6-11.14a17.93 17.93 0 0 1 4.38-3.53c6.36-3.59 12.58-7.57 19.27-10.37s14-5.28 21.47-5.94c5.71-.57 11.38-.85 17.04-1.22z"/><path class="b" d="M435.69 314.58a44.49 44.49 0 0 1 29.72-2.58c4.09 1 7.28 3.91 10.38 6.68 2 1.77 3.92 3.6 5.84 5.45 5 4.8 11.44 6.8 17.54 9.54a107.53 107.53 0 0 1 12.11 6.33c4.74 2.91 7.39 7.75 9 12.78 1.48 4.54-.84 8.71-3.78 12.19a17.89 17.89 0 0 1-5 4c-5.23 2.89-7.6 7.56-8.76 13.08-.77 3.7-1.29 7.46-2.21 11.13-2.75 11-7.14 13.49-17.73 15.14a79.81 79.81 0 0 1-15.54.52 16.46 16.46 0 0 0-12.6 5.05 189.77 189.77 0 0 0-14.5 15.51c-6.08 7.41-14 10.14-23.11 10-6.18-.07-12.34-1.13-18.52-1.44s-12.42-1.1-18.74.74c-4.35 1.26-8.68 2.62-13 4a14.47 14.47 0 0 0-8.21 6.35c-.63 1-1.21 1.12-2.06.28-1.61-1.61-3.21-3.22-4.9-4.74-1.14-1-1.46-2-.33-3.2.77-.83 1.35-1.85 2.16-2.65a85.38 85.38 0 0 1 29.13-19.37c3.39-1.32 6.66-3 10-4.44 8.81-3.88 18.12-6.27 27.32-9 3.85-1.15 7.74-2.18 11.2-4.52 1.7-1.15 4.13-1.17 6.05-2.08 4.68-2.2 9.28-4.57 13.86-7a51.66 51.66 0 0 0 7.53-4.4c5.7-4.37 11.45-8.73 16.71-13.61 2.5-2.31 4.11-5.68 5.81-8.75a31.18 31.18 0 0 0 3.94-10.18c1.16-7.19-1-13.61-4.48-19.54-5.07-8.56-13.13-13.28-22.29-16.66-4.28-1.57-8.42-3.43-13-4-2.86-.29-5.75-.36-9.54-.61z"/><path class="c" d="M270 610.68c6-.23 12-.69 18.05-.62a67.28 67.28 0 0 1 12.41 1.3 104.23 104.23 0 0 1 20 5.72 162.15 162.15 0 0 1 23.39 12.37c8.14 5 16.92 6.74 26.09 3.45 3.28-1.17 6.81-2.53 8.77-5.95 1-1.74 3-1.8 4.57-2.1 4.33-.85 8.74-1.27 13.12-1.82a4.52 4.52 0 0 1 1.36.28 4 4 0 0 1-.46 1.36c-3.54 4-6.85 8.17-10.76 11.72a80.29 80.29 0 0 1-11.38 8.15 30.63 30.63 0 0 1-16.13 4.86c-3 0-6 1.5-9 .15-3.55-1.6-7.35-2.82-10.58-4.9-3.91-2.51-7.31-5.79-11-8.68a54.14 54.14 0 0 0-19.24-9.45c-10.43-2.94-21.06-2.56-31.63-2.69-13.82-.17-26.88-2.71-38.63-10.31-4.52-2.92-7.74-7.16-11.21-11.21-4.95-5.79-5.56-12.91-6.81-19.81a24.75 24.75 0 0 1 .45-8.29c1.36-8.24 2.75-16.48 6-24.24a11.21 11.21 0 0 0 .91-2.88c.47-3.88 1.52-7.65 2.25-11.46.68-3.51 0-7.28-.05-10.94-.12-6.38-2.4-12.14-5.63-17.45a62.71 62.71 0 0 1-9.41-32.24c-.09-6.56-.17-13.09 1.62-19.57a32.43 32.43 0 0 1 9.53-15.15 42.2 42.2 0 0 1 3.73-3.22c2.74-2 5.37-4.3 8.4-5.76a62.33 62.33 0 0 1 21-5.89c3.31-.33 3.38-.18 3.48 3.17v3c0 3.12-.73 4.26-3.63 4.64-4.6.61-8.28 2.88-11.78 5.68-2.56 2-5.38 3.78-7.78 6-9.79 9.06-12.17 20.26-9 32.9 2.52 10 6.53 19.37 10.64 28.75 4.69 10.66 4.86 21.77 2.71 33-1 5.08-2.09 10.13-3.17 15.19s-2.2 9.9-3.2 14.87c-1.93 10.35-.13 19.92 6.81 28.1a33.52 33.52 0 0 0 6.37 5.27c2.14 1.5 4.36 3.26 6.81 3.86 3.87.94 8 1 11.94 1.43z"/><path class="c" d="M515.17 582.48c-.23-6.45-.48-11.75-.59-17.05-.12-5.69-.43-11.4 0-17.06.31-4.49 1.48-8.92 2.36-13.36 1-5 3.32-9.51 5-14.25a62.14 62.14 0 0 1 8.06-14.82 44.2 44.2 0 0 0 7.17-17.72c1-5.7-.81-11-4.22-15.68a54.73 54.73 0 0 0-5.66-7.08 88.75 88.75 0 0 0-9-7.42c-1.33-1-1.46-1.4-.07-2.35 2.18-1.51 4.25-3.18 6.38-4.76 1.29-1 2.29-1.11 4-.17 9.31 5.18 15.2 13.31 19.3 22.68 3.63 8.29 3.11 16.65-1.72 24.7a165.88 165.88 0 0 0-8.27 16.22c-1.25 2.72-1.72 5.79-2.66 8.66-.79 2.4-1.8 4.72-2.63 7.1-2.93 8.44-3.48 17.31-4.57 26.07-.43 3.5-.07 7.09-.27 10.62-.4 7.31-.45 14.69-1.51 21.91a80.72 80.72 0 0 1-8.3 25.52c-3.93 7.56-10.06 12.87-18.58 15-2.33.59-4.58 1.47-6.9 2-6.69 1.65-13.39.81-20-.44a138.09 138.09 0 0 1-28.55-8.73c-8.66-3.68-17.72-5.63-27.05-6.92-8.64-1.19-16.87.53-25.24 1.71-4.38.62-8.84 1.72-13.16 1.37a64.07 64.07 0 0 1-15.83-3.39c-7.43-2.6-12.34-8.44-16.84-14.71a70 70 0 0 1-9.08-16.56c-1.16-3.16-1.31-6.68-2.37-9.88-1.62-4.87-.77-9.78-.77-14.67a12.17 12.17 0 0 1 .35-1.86c.18-1.1.69-1.52 1.82-1.06 2.35.94 4.72 1.81 7.08 2.71a2.52 2.52 0 0 1 1.91 2.5c0 2.65.32 5.29.28 7.94-.05 3.45.15 6.78 1.77 10 1.37 2.7 2.21 5.68 3.67 8.32 4.35 7.87 11.47 12.09 19.81 14.73 10.82 3.42 22 3 33.08 2.92 2.5 0 5-.52 7.49-.71a96.63 96.63 0 0 1 10.19-.55c6.43.2 12.95-.14 19.12 2.24 3.05 1.18 6 2.59 9 3.86 4.37 1.84 8.65 4 13.17 5.36a78.08 78.08 0 0 0 15.83 3.28c7.48.59 13.76-1.75 19.59-5.69 6.49-4.39 11.56-10 13.92-17.86 1.39-4.56 3.86-8.81 3.49-12.67z"/><path class="b" d="M417.11 572a3.27 3.27 0 0 1-.51.78c-.08.06-.5-.12-.64-.29a30 30 0 0 1-2.79-3.59c-4.92-8.47-11.77-15.07-19.6-20.85-6.6-4.87-12.87-10.19-19.45-15.1a43.35 43.35 0 0 1-10.84-12.45c-1.31-2.14-3-4.12-4-6.39a95 95 0 0 1-3.72-10.3c-1.48-4.7-2.63-9.51-4.19-14.19a83.89 83.89 0 0 0-3.86-9c-1.6-3.41-3.17-6.87-5.06-10.12-3.82-6.56-8.09-12.82-14.13-17.62a56.88 56.88 0 0 0-16.44-9.26c-8.74-3.13-15.53-8.9-20.79-16.43-4.54-6.51-8.77-13.24-13.23-19.81-2-2.9-4.18-5.64-6.27-8.46a7.92 7.92 0 0 1-1-1.57 3.31 3.31 0 0 1 0-1.33 6.2 6.2 0 0 1 1 .3c2.78 1.45 5.61 2.82 8.31 4.41 8 4.74 16.26 9.15 23.62 15 5.32 4.25 11.28 7.7 16.84 11.66 4.42 3.14 8.82 6.35 13 9.84 6.28 5.28 12.56 10.59 18.43 16.32s11.08 11.71 16.43 17.74c4.19 4.72 8.29 9.54 12.16 14.52a158.77 158.77 0 0 1 14.85 23.74 180.65 180.65 0 0 1 9.54 21.05c3.33 8.86 6.69 17.74 8.56 27.1.83 4.18 2.3 8.23 3.46 12.34.1.57.21 1.2.32 1.96zm81.33-133.75l29.56 1.29a9 9 0 0 1 1.88.2 9.88 9.88 0 0 1 1.6.71 5.06 5.06 0 0 1-1.17.88c-6.84 2.56-12.63 6.85-18.38 11.2-4.44 3.35-9.78 3.83-15 4.62s-10.19 1.72-15.26 2.69c-5.36 1-10 3.82-14 7.21-6.29 5.27-12.27 10.92-18.22 16.58-3.78 3.58-7.37 7.45-12.32 9.31s-10 3.49-15.77 2.68c-5.56-.78-11.34-.38-17 0-2.27.14-4.48 1.52-6.69 2.41-.8.32-1.6 1.16-2.28 0-2.62-4.3-5.18-8.65-7.76-13-.81-1.35 0-2.13 1-2.77 9.18-5.52 17.54-12.34 27.43-16.77 7.37-3.31 14.51-7.16 21.74-10.77a152.2 152.2 0 0 1 25.45-9.72c6.05-1.77 12.17-3.4 18.35-4.64 4.92-.95 9.97-1.26 16.84-2.11z"/><path class="c" d="M586 354.49a87.5 87.5 0 0 1-2.83 18.33c-2.32 9.68-6.12 19.05-6.47 29.14a91.35 91.35 0 0 0 .6 11.32 61 61 0 0 0 4.56 17.91 152.44 152.44 0 0 1 8.67 27 128.75 128.75 0 0 1 2.06 16.12c.32 4-.41 8.07-1.15 12a72.64 72.64 0 0 1-3.14 11.31c-2.89 8-8.09 13.94-16.14 17.05-2.31.9-4.21 2.42-6.83 2.93-6.48 1.26-12-.52-17.23-4-1-.64-1.43-1.27-.89-2.48 2.51-5.64 1-5 6.86-4.67a20.51 20.51 0 0 0 15.75-5.15 1.66 1.66 0 0 1 .3-.22c9-5.33 11.37-13.91 11.7-23.6.27-7.48-1.87-14.31-5.28-20.73-4.76-8.93-7.45-18.5-9.61-28.27-1.57-7.09-1.49-14.31-1-21.51.42-6.16 1-12.32 1.79-18.46.56-4.49 1.5-8.94 2.22-13.41.83-5.11 1.76-10.2 2.33-15.33a18.22 18.22 0 0 0-4-14.21 4.92 4.92 0 0 1-.66-.93c-2.77-5.42-7.43-8.59-13-10.21a30.3 30.3 0 0 0-16.86-.29c-4.75 1.33-9.48 2.72-14.15 4.31-1.81.62-2.88.49-4.25-1s-3.25-2.36-5-3.45c-1.53-1-1.14-1.68.23-2.29 2.07-.93 4.18-1.8 6.24-2.73 3-1.36 6-2.75 9-4.14a25.44 25.44 0 0 1 10.64-2.36c3.78 0 7.57-.06 11.35 0a34.5 34.5 0 0 1 20.44 7 5 5 0 0 0 1 .46c7 3.21 10.34 9 11.71 16.23.57 3.16.79 6.32 1.04 8.33zM386.51 561c-11.88.15-23.32-2.27-34.57-5.87-7.34-2.36-14.1-6-20.93-9.42-2.68-1.36-5.46-2.49-8.19-3.73a4.8 4.8 0 0 1-.93-.48c-6.89-5.4-13.89-10.61-20.54-16.22-2.67-2.24-4.68-5.29-6.83-8.09A89.72 89.72 0 0 1 280.73 492c-2.56-7.26-5.08-14.55-7.08-22a92.31 92.31 0 0 1-2.65-20.21c-.22-5.3-.61-10.61-1.28-15.88-1-7.65.21-15.14 1.27-22.65 0-.32.25-.78.49-.87a1.06 1.06 0 0 1 .89.4c2.83 4 5.66 8 8.41 12a3.93 3.93 0 0 1 .79 2.47c-1.32 8.66.25 17.09 1.84 25.53 1.28 6.82 2.35 13.72 4.18 20.4 1.36 4.94 3.66 9.64 5.79 14.33 1.66 3.65 3.72 7.13 5.6 10.68a19.11 19.11 0 0 0 1.29 2.3c4.21 6 7.91 12.33 13.12 17.51 3 3 6.61 5.46 9.76 8.36a48.52 48.52 0 0 0 14.56 9.4c5.48 2.25 10.76 5 16.26 7.2A114.54 114.54 0 0 0 369 546c3.49.85 7.25.59 10.87 1a7.92 7.92 0 0 1 3.83 1c4.63 3.5 9.12 7.19 13.63 10.84a4.15 4.15 0 0 1 .7 1.22 6.55 6.55 0 0 1-1.35.35c-3.38.23-6.78.38-10.17.59z"/><path class="b" d="M330.42 346a16.39 16.39 0 0 1 .76-2.69 68 68 0 0 1 3.93-7.76c3.1-4.87 4.19-9.92 2.28-15.46-.9-2.63-1.86-5.23-2.78-7.85-.3-.86-.65-1.66.88-1.8a247.2 247.2 0 0 0 32.95-4.65 1.26 1.26 0 0 1 .38 0c.37 0 .74.1 1.11.15a4.82 4.82 0 0 1-.8 1c-2.74 2-5.57 3.81-8.24 5.85-5.24 4-6.68 9.89-7.42 16-.78 6.38.54 12.37 2.53 18.54 3.4 10.53 9.18 19.62 15.61 28.28a116 116 0 0 0 10.81 13.1c4.56 4.57 7.78 10.53 11.32 16.06 1.18 1.84 1.35 3-1.49 3.95-4.67 1.56-9.27 3.31-13.95 4.83a2.36 2.36 0 0 1-2-1 23.08 23.08 0 0 1-1.9-4.55c-1.92-6.28-6.08-10.31-12.16-12.52-2-.74-4-1.54-6-2.24a8.9 8.9 0 0 1-6.16-7.08A85.88 85.88 0 0 1 349 376c-.54-8.57-4.84-15-11.34-20.18a21.86 21.86 0 0 1-5.96-6.82 31.45 31.45 0 0 1-1.28-3z"/><path class="c" d="M431.43 660.61c-5.51.69-11.13.92-16.51 2.18a33.08 33.08 0 0 0-14.66 7.56c-5.27 4.72-10.44 9.54-15.61 14.37-4.11 3.85-9.27 4.91-14.56 5.68a14.6 14.6 0 0 0-1.88.2c-7.43 2-13.88-.09-20-4.43a24.84 24.84 0 0 1-9.3-11.65 63.53 63.53 0 0 1-4.12-20.33 14.45 14.45 0 0 1 .08-2.28c.21-1.63.79-1.93 2.27-1.17 2.47 1.27 4.9 2.62 7.38 3.86a3.07 3.07 0 0 1 1.69 2.68 42.54 42.54 0 0 0 3.76 13c3.81 7.57 13.15 11 20.49 6.85 3.85-2.16 7.5-4.67 11.16-7.14 6.06-4.11 11.88-8.59 18.12-12.36a68.77 68.77 0 0 1 12.82-5.6c7.88-2.78 16.18-2.63 24.36-2.42 4 .11 7.9 1.51 11.84 2.42a39.77 39.77 0 0 0 21.31-.43c5.48-1.69 8.47-5.11 10.12-10.22 1-3.14 1-3.09 4.18-3a23.08 23.08 0 0 0 4.48-.16c2.2-.34 2.69-.28 2.64 1.78a24.81 24.81 0 0 1-1.06 7.45c-1.72 5-4.66 9.1-9.82 11.39-7.66 3.39-15.37 5.48-23.9 4.07-6.72-1.1-13.55-1.51-20.34-2.16-1.63-.15-3.29 0-4.93 0zM196.27 396.06c-1-10.73 3.34-20.26 11.66-27.84a41.83 41.83 0 0 1 12.44-7.82 219.93 219.93 0 0 0 25.38-12.67 106.56 106.56 0 0 0 21.53-15.29c4.12-3.92 7-9.22 10.2-14A23.14 23.14 0 0 0 280 313c.57-1.64 1.44-2.22 3.11-1.86a13.13 13.13 0 0 0 2.27.12c3.57.18 4 .67 2.68 4.16a58.6 58.6 0 0 1-9.73 17.05 91.74 91.74 0 0 1-15.26 14.66 132.63 132.63 0 0 1-13.29 8.66c-8 4.78-15.94 9.75-24 14.57-4.18 2.51-6.17 6.84-9.18 10.34a24.66 24.66 0 0 0-5.76 14.44c-.26 3.11-.28 6.48 1.32 9.62 2.78 5.42 5.74 10.72 9.77 15.29a64.55 64.55 0 0 0 7.31 6.58c1 .87 1.18 1.49.12 2.35-.49.4-.9.89-1.4 1.28-1.4 1.08-2.74 2.8-4.26 3s-3-1.38-4.53-2.05a40.09 40.09 0 0 1-15.34-12.09 33.7 33.7 0 0 1-7.39-19.17c-.04-1.05-.07-2.06-.17-3.89zM191 537.74c.4-3.56.65-7 1.18-10.34.8-5.12 2.12-10.18 2.65-15.32.71-6.91.85-13.75-1.51-20.62-3.17-9.18-8.93-16.57-14.6-24.16-3.89-5.21-7.89-10.37-9.55-17-1-3.95-2-7.68-1.6-11.86.7-8.05 3.55-14.85 9.72-20.22 2.65-2.31 5-5 7.65-7.29a35.49 35.49 0 0 1 5.42-3.18c1 2 2 4 2.82 6.05.14.34-.32 1.18-.72 1.44a34.14 34.14 0 0 0-9.16 9c-5.66 7.72-7.32 15.95-3.3 24.92 1.34 3 2.68 6 4.3 8.85 1.17 2.06 2.88 3.8 4.2 5.79 4.12 6.19 8.83 12.12 12 18.77 2.28 4.74 2.61 10.46 3.51 15.79a61.12 61.12 0 0 1 .46 8.68c.18 6.72-.78 13.33-1.67 20-.62 4.52-1.06 9.19.69 13.68a9.77 9.77 0 0 1 .59 2.18c1 7.57 5.48 12 12.6 13.87 1.63.43 1.66.79 1.15 2.22a46.46 46.46 0 0 0-1.64 6.6c-.3 1.51-1.08 1.75-2.43 1.5-6.91-1.33-12.59-4.73-16.25-10.69a72.2 72.2 0 0 1-5.62-12.4c-.75-2-.66-4.27-.89-6.26zm418.84-29.28c-.33 10.3-4.28 17.19-10 23.19-6.27 6.59-13.07 12.73-19 19.61-5.42 6.31-10.18 13.26-12 21.67-1.49 6.79-2.83 13.62-4.44 20.38-1.69 7.13-3.6 14.22-8.16 20.21-6.18 8.09-14.52 11.08-24.37 9.82-2.92-.37-5.69-1.88-8.49-3a1.59 1.59 0 0 1-.52-1.44 25.41 25.41 0 0 1 1.53-3.47c1.65-3.35 1.6-3.11 5.35-2.21 8 1.93 12.19.85 17.32-5a20.35 20.35 0 0 0 3.75-6.06c1.89-4.93 3.42-10 5.07-15a4.45 4.45 0 0 0 .19-1.5c-.61-11.3 3.27-21.51 8.61-31a71.28 71.28 0 0 1 18.06-21.2 177.17 177.17 0 0 0 14.44-13.39c3.81-3.77 3.86-8.62 2.87-13.48a5.83 5.83 0 0 0-3.9-4.78c-2-.59-2.15-1.76-1.67-3.42.77-2.66 1.42-5.37 2.31-8 .66-2 1.82-2.26 3.42-.86 6.23 5.47 10.59 11.8 9.63 18.93zm-105.77-46.18c1.76-.16 2.21.47 1.87 1.56a66.39 66.39 0 0 1-2.29 6.81c-1.89 4.39-3.81 8.79-6 13a135 135 0 0 1-15.54 24.15 175.06 175.06 0 0 1-18.27 18.66 138.18 138.18 0 0 1-32.18 21.79c-3.85 1.86-7.55 4-11.29 6.13-1.49.83-2.24.59-2.59-1.18-.5-2.48-1.15-4.93-1.82-7.37a2.08 2.08 0 0 1 1.17-2.79c3.25-1.67 6.52-3.32 9.67-5.17a109 109 0 0 0 10.2-6.47c5.56-4.14 11.11-8.34 16.29-12.93a134 134 0 0 0 14.14-14.15c5.32-6.38 10.16-13.21 14.84-20.08 3.24-4.75 6.79-9.46 7.68-15.43.07-.48.47-.91.56-1.4.46-2.47 1.78-3.45 4.41-3.6a71.81 71.81 0 0 0 9.15-1.53zM331.51 325.81c-.62 1.58-1.16 4-2.42 5.95-2.71 4.2-4.83 8.53-5.36 13.57a6.16 6.16 0 0 1-1.48 2.92c-6.74 8.35-13.58 16.62-20.28 25a28.75 28.75 0 0 0-2.73 4.93q-4.86 9.42-9.66 18.87c-.42.82-.89 1.18-1.76.72-2.91-1.52-5.83-3-8.73-4.56-1.12-.6-1.17-1.49-.58-2.55 3.73-6.71 7.39-13.46 11.18-20.14 1.86-3.28 3.85-6.51 5.95-9.64 4.28-6.38 8.61-12.74 13.07-19 2.05-2.87 4.5-5.45 6.7-8.23 3.47-4.41 7.86-7.82 12.14-11.36 2.32-1.92 2.94-1.65 3.57 1.25.11.46.17.99.39 2.27zm185.67 68.63c-.42 7.2-.66 14.41-1.31 21.59-.44 4.89-1.48 9.73-2.16 14.61a2.07 2.07 0 0 1-2.46 2.1c-1.77 0-3.53.29-5.29.4-2.39.14-2.93-.44-2.77-2.73.39-5.28.95-10.55 1.09-15.84.06-2.6-.69-5.22-1-7.84a6.34 6.34 0 0 1 .14-3.17 54.77 54.77 0 0 0 4.92-15.88c.72-5.19 2.18-10.17 7-13.29a8.63 8.63 0 0 1 1.63-.64 7 7 0 0 1 .43 1.7v19zm-142.92-41.65a17.23 17.23 0 0 1 2.31.7 24.13 24.13 0 0 1 4.06 2.05c5.37 3.71 10.83 2.36 16.28.37a20.16 20.16 0 0 0 4.37-2.21c6.12-4.17 12.84-1.95 17.08 2.66A26.06 26.06 0 0 1 424.6 370c.76 4.48 1.93 8.89 2.85 13.34q1.13 5.38 2.06 10.8c.08.48-.28 1-.43 1.55-.4-.23-1-.37-1.16-.71-2.54-5.4-6.34-10.09-7.24-16.41a25.71 25.71 0 0 0-6.63-14.25 10.88 10.88 0 0 0-11.05-3.18 16.6 16.6 0 0 0-4.65 1.59c-4.5 2.73-8.74 1.42-13-.42a18.23 18.23 0 0 0-3.89-1.43c-2.91-.53-5.84-.75-8 2-.71.91-1.37.91-2-.13-.4-.64-1.11-1.12-1.39-1.79-.6-1.45-1.76-3.25-1.34-4.41.71-2.19 2.89-3.35 5.53-3.76zm123.07-63.65c2.22.61 4.77 1.29 7.3 2 1.44.43 2.84 1 4.26 1.49a28.12 28.12 0 0 1-4.61 1.56c-7.6 1.2-14.29 4.82-21.25 7.75a32.1 32.1 0 0 0-8.61 5.29c-.88.75-1.63 1.08-2.7.48a27.52 27.52 0 0 0-12.34-3.21.9.9 0 0 1-.37-.05c-.64-.27-1.27-.56-1.9-.84a11.76 11.76 0 0 1 1.62-1.47c1.07-.67 2.23-1.18 3.32-1.81 5.59-3.22 11.15-6.55 17.47-8.12 4.14-1 8.39-1.61 12.61-2.36 1.6-.24 3.22-.43 5.2-.71zm-62.06 31.23c6.79 0 13.22 1.8 19.34 4.06 8.73 3.22 16.72 7.79 21.36 16.58a20 20 0 0 1 2.5 12.4 6.28 6.28 0 0 1-.33 1c-.3-.31-.72-.56-.87-.93-3.66-8.42-9.59-14.57-17.51-19.29a59.34 59.34 0 0 0-18.13-7.35c-4.26-.89-8.67-1.77-13.13-.85-.61.12-1.46.46-1.83.19a35 35 0 0 1-3.26-3 8.79 8.79 0 0 1 2.59-1.48c3.05-.57 6.17-.9 9.27-1.33zm-4.41 16.99c5.38 0 8.63 2.41 11.21 5.91.89 1.21 1.54 2.6 2.33 3.89 3.51 5.65 8.39 9.31 15 10.5 1.49.27 2.94.71 4.42 1 4.4 1 6.82 4.07 8.38 8 .49 1.23-.66 3.06-2.14 3.95s-1.79-.48-2.37-1.11c-4.74-5.12-10.79-8.29-16.94-11.23a28.68 28.68 0 0 1-12.69-10.91c-2.63-4.28-7.75-5.08-13.23-2.55a13.87 13.87 0 0 0-3.58 2.1c-1.54 1.41-2.49.51-3.5-.52-1.23-1.26-.13-2.05.67-2.81 2.82-2.65 10.31-6.18 12.44-6.22zm-57.37-2.93c1.52.32 2.87.55 4.2.91s2.88.94 4.33 1.39a23 23 0 0 0 17.98-1.68 39.68 39.68 0 0 0 8.82-5.74c1.34-1.2 2.88-2.24 4.79-1.66a22.42 22.42 0 0 1 3.35 1.62c-.85.6-1.73 1.16-2.55 1.8a15.72 15.72 0 0 0-2.85 2.45c-4.22 5.49-9.72 8.89-16.54 9.6a28.91 28.91 0 0 1-9.7-.82 36.91 36.91 0 0 0-13.14-.9 14.54 14.54 0 0 0-7.94 3.34c-1.05.89-1.74 1-2.08-.57-.23-1.08-1.09-2.62-.67-3.15a18.16 18.16 0 0 1 5.19-4.79c2-1.09 4.54-1.23 6.81-1.8z"/><path class="b" d="M413.42 246.1c-4.25-1-8-1.7-11.61-2.75-6.53-1.9-13.13-3.68-19.48-6.1a134.92 134.92 0 0 1-23.73-11.73c-.9-.57-1.25-1-.6-2.07 1.53-2.44 2.49-2.84 4.83-1.21 5.15 3.59 10.91 5.79 16.75 7.88 7.24 2.59 14.38 5.48 21.64 8 4.88 1.69 9.9 2.95 14.85 4.43a7.71 7.71 0 0 1 1.51.88 9.07 9.07 0 0 1-1.32 1.16c-1.04.62-2.14 1.14-2.84 1.51z"/><path class="c" d="M414.69 315a5.62 5.62 0 0 1-.27.82c-.43.65-4.55 1.9-5.12 1.43-2.93-2.4-6.57-2.67-10-3.12-7.31-.94-14.6-1-21.5 2.42-3.37 1.67-7.42 2-10.23 4.73-2.15 2.11-4 4.49-6 6.77a6.42 6.42 0 0 0-.71 1.26 14.87 14.87 0 0 1 .13-1.51 19.48 19.48 0 0 1 4.95-9.65c3.42-3.85 7.92-5.68 12.85-6.61 3.84-.71 7.67-1.46 11.53-2a33 33 0 0 1 19.82 3.36c1.24.61 2.51 1.19 3.76 1.78zm17.58 44.11a11.7 11.7 0 0 1 8.76 6.53 6.55 6.55 0 0 1 .33 1.09c2.12 7.18 7.41 10.49 14.38 11.73.74.13 1.51.19 2.24.39 1 .28 1.1.77.38 1.59-3.63 4.11-8.57 4.5-13 1.19a20.36 20.36 0 0 1-6.36-7.86c-1.3-2.75-2.73-5.11-6.19-5.42-.54-.05-1.19-1.09-1.45-1.8-.57-1.53-.87-3.15-1.38-4.7-.72-2.11-.29-2.77 2.29-2.74zm-19.55-62.66a4.38 4.38 0 0 1 1.53.41 100.18 100.18 0 0 1 8.65 6 36.14 36.14 0 0 1 5 5.62 1.82 1.82 0 0 1-.5 1.64c-2.33.9-4.6 1.91-7.11.07-3.67-2.69-7.94-4.27-12.19-5.8a20.89 20.89 0 0 0-3.65-1c-1.86-.31-3.77-.37-5.62-.74a46.85 46.85 0 0 1-4.56-1.39 41.87 41.87 0 0 1 4.22-1.65c3.64-1 7.31-1.92 11-2.81a31.89 31.89 0 0 1 3.23-.35zm-11.16 89.49c9.05-.14 14.65 4.24 18.6 11.18a2.41 2.41 0 0 1-.17 2.22 1.7 1.7 0 0 1-2.89-.18c-3.31-4.72-8.23-7-13.55-8.34-2.07-.51-4.44.17-6.66.39a4.61 4.61 0 0 0-1.36.66c-1.29.65-2-.33-2.36-1.19-.19-.41.25-1.38.69-1.78a10.45 10.45 0 0 1 7.7-2.96z"/><path d="M527.14 165.34c7.23.22 13.81.43 20 3a35.82 35.82 0 0 1 3.74 1.82 5.31 5.31 0 0 1 1.67 1.49c.92 1.34 1.22 2.82 0 4.18-1 1.18-2.17.62-3.44.19a34.41 34.41 0 0 0-24.06.08c-6.45 2.46-10.76 7.43-13.15 13.85a47.56 47.56 0 0 0-2 8.8c-.43 2.6-1.49 4.42-4.15 5.28-2.88.93-5.65 2.2-8.52 3.18-3 1.05-6.1 1.16-8.47-1.35a9.58 9.58 0 0 1-2.26-7c.2-8 3.48-14.76 8.47-21s11.71-9.15 18.91-11.06c4.49-1.17 9.29-1.06 13.26-1.46z"/></svg>