<svg xmlns="http://www.w3.org/2000/svg" viewBox="0 0 800 800"><defs><style>.a{fill:#fff}.b{fill:#fca14f}.c{fill:#e83131}</style></defs><path class="a" d="M616.12 548.15a34.46 34.46 0 0 0 14.62-2.33 8.11 8.11 0 0 0 3.91-3 38.13 38.13 0 0 0 3.74-7.84c1.61-4.65 2.26-9.42 0-14.12-1.76-3.58-3.35-7.25-5.33-10.71-2.45-4.28-5.18-8.42-7.88-12.56-1.84-2.84-3.91-5.52-5.71-8.38-2.3-3.68-4.45-7.45-6.63-11.21-3-5.13-6.23-10.11-8.73-15.45-3.21-6.88-5.8-14-8.64-21.09-2.53-6.29-5-12.58-7.55-18.87-1.21-3-2.75-5.95-3.61-9.08-1.35-4.88-2.37-9.86-3.32-14.84q-2.82-14.62-5.38-29.29c-1.26-7.25-2.18-14.55-3.48-21.79-1-5.36-2.29-10.64-3.42-16-1.86-8.76-3.68-17.53-5.54-26.28-.93-4.37-1.65-8.82-3-13.08-2.09-6.81-4.57-13.51-6.92-20.24-3.94-11.33-8.31-22.35-15.47-32.24-4.26-5.88-8.94-11.37-13.55-16.91a154.65 154.65 0 0 0-14-14.71A120.12 120.12 0 0 0 496 197.05a144 144 0 0 0-15.68-9c-6.36-3.2-12.9-6.06-19.46-8.82-3.89-1.63-8-2.65-12-4.16-9.49-3.63-19.38-4.87-29.44-5.13-4.22-.11-8.43-.33-12.64-.26-6.76.1-13.52.26-20.26.69a99.48 99.48 0 0 0-10.2 1.69c-2 .35-4 .63-6 1.1-4.12 1-8.18 2.31-12.34 3a75.69 75.69 0 0 0-17.09 4.57c-2.67 1.15-5.33 2.34-7.91 3.65-6.67 3.4-13.65 6.35-19.85 10.47a219.54 219.54 0 0 0-23 17.61c-7 6.09-13.44 12.82-18.37 20.83-2.92 4.74-6.07 9.33-9 14.06a52.83 52.83 0 0 0-3.75 7c-1.29 3-2.26 6.1-3.36 9.16-2.95 8.18-6 16.33-8.83 24.55-1.93 5.59-3.62 11.26-5.29 16.93-.51 1.72-.41 3.61-.88 5.33-2 7.45-4.28 14.84-6.21 22.31-1.73 6.67-3.13 13.42-4.7 20.12-1.19 5.07-2.38 10.13-3.64 15.17-2.41 9.61-4.89 19.19-7.31 28.8-.59 2.34-.9 4.76-1.57 7.08q-2.32 8.19-4.89 16.31c-1.54 4.84-3.21 9.64-4.91 14.42-1.86 5.24-3.8 10.44-5.73 15.65-3.22 8.73-6.4 17.48-9.71 26.17a64.6 64.6 0 0 1-4 8.52c-3.5 6.22-6.94 12.49-10.86 18.43-2.84 4.31-6.4 8.15-9.67 12.17-1.64 2-3.6 3.85-5 6-3 4.82-3.05 9.92 0 13.57a34.61 34.61 0 0 0 12.25 9.45c4.62 2.08 9.45 2.83 14.36 3.54a55.56 55.56 0 0 0 20.52-1c1.86-.42 3.59-1.49 5.46-1.8 5.53-.92 10.57-3.19 15.68-5.32 8.59-3.58 17.2-7.27 26.76-7.05 4.09.09 8.41 0 12.19 1.31 4.85 1.65 9.25 4.59 13.84 7 1.07.55 2.07 1.23 3.17 1.7 2.19.94 4.42 1.83 6.66 2.65 4.31 1.56 8.53 3.71 13 4.41 4.82.75 9.87.27 14.8.06 8.1-.35 15.56-3.27 22.93-6.32a127.5 127.5 0 0 1 20.68-6.57 30 30 0 0 1 19.09 2.1 10.92 10.92 0 0 1 3.78 2.6 21.75 21.75 0 0 0 6.38 4.7c2.63 1.39 5.47 1.61 8.32 2.07a85.21 85.21 0 0 0 22 .4 17 17 0 0 0 3.59-.44c13.46-4.43 26.66-9.44 38.4-17.63a28.67 28.67 0 0 1 6.19-3.72 51.47 51.47 0 0 1 9.79-2.48c5.06-.79 9.8-.21 13 4.56a6.59 6.59 0 0 0 2.12 1.91c3.12 1.82 6.29 3.56 9.46 5.31a5.91 5.91 0 0 0 1.68.67 77.38 77.38 0 0 0 9.27 1.48c3 .15 6-.44 9-.51a16 16 0 0 0 7.68-1.84 8.1 8.1 0 0 1 2.75-.81c1.88-.25 3.8-.24 5.66-.56 4.29-.72 8.53-1.33 12.92-.79a66.7 66.7 0 0 1 17.92 4.24 111.72 111.72 0 0 0 10.62 3.64c4.73 1.43 9.78 1.79 14.17 4.34a3.61 3.61 0 0 0 1.4.29c5.39.53 10.78 1.02 16.18 1.52zM365.83 78.42c-3.74 0-5.53.73-6.14 2.16-.81 1.85-.3 3.28 2.09 5.26 3.22 2.66 4 6.53 4.88 10.21 1.86 7.92.81 15.9-.25 23.82a18.71 18.71 0 0 1-1.4 4c-.95 2.47-2 4.92-2.88 7.42a2.64 2.64 0 0 0 3.21 3.61 5.43 5.43 0 0 0 1.91-1 25.65 25.65 0 0 1 9.29-3.84c5.42-1.34 11-1.44 16.46-2.09 7-.83 13.95-1.54 20.87-.29 6.73 1.21 13.68 1.8 19.78 5.51a9.14 9.14 0 0 0 4.48 1c2.64 0 3.65-1.73 2.58-4.13-.25-.55-.65-1-.93-1.56-4.44-8.45-7.41-17.2-6.28-27a34.85 34.85 0 0 1 5.57-15.89 22.43 22.43 0 0 0 1.93-3.38 3 3 0 0 0-1.73-4.39 10.14 10.14 0 0 0-3.17-.71A25.59 25.59 0 0 1 422.37 72c-7.2-5.35-14-11.25-17.79-19.73-.86-1.93-2.69-2-4.22-2.22-.65-.07-1.52 1.54-2.21 2.44-.28.37-.27.93-.48 1.36-2.23 4.54-3.9 9.44-8 12.8-1.77 1.45-3.84 2.57-5.47 4.15-3.34 3.26-7.67 4.61-11.77 6.31-2.36.94-5.11 1.02-6.6 1.31zM256.14 102.8c-.61.65-1.55 1.23-1.73 2a7.79 7.79 0 0 0 .06 3.56 35.44 35.44 0 0 1-.26 17.12c-1.83 7.71-6 13.85-10.79 19.79a3.5 3.5 0 0 0-.48 4.27c.76 1.58 2.15 1.74 3.41 2.39 3.21 1.65 6.61 3.12 9.39 5.34 5.75 4.59 9.08 11 11.14 17.89 1.14 3.8 2.57 7.84.82 12a2.67 2.67 0 0 0 1.41 3.4c1.34.69 2.29-.2 3.11-1.18.31-.37.56-.79.88-1.15 5.17-5.72 9.61-12 15.45-17.23a48.22 48.22 0 0 1 22.36-11.21c1.83-.42 3.67-.89 5.6.31 1.33.82 2.62 0 3-1.57a5.48 5.48 0 0 0-1.71-5.93 18.13 18.13 0 0 1-3.53-3.58c-2.14-3.22-4.1-6.55-6-9.91-4.76-8.43-6.95-17.19-3.65-26.78a4.67 4.67 0 0 0-1-4c-.58-.63-2.47-.4-3.62 0-2.2.65-4.27 1.71-6.43 2.51-5.79 2.18-11.78 3.21-17.72 1.1-4.88-1.72-9.53-4.1-14.24-6.26-1.73-.79-3.4-1.78-5.47-2.88zm246.48 7.94c-2.09 0-3 .6-3.25 2.22a19.84 19.84 0 0 0 0 2.88c-.16 6.77 0 13.6-2 20.15-2.05 6.73-4.55 13.29-10.48 17.8a6.6 6.6 0 0 0-1.39 1.66c-1.25 1.92-1 3.15 1.15 4a16.61 16.61 0 0 0 4.6 1c5.18.43 10.32.84 15.21 2.93s9.88 4.37 13.46 8.83a54.3 54.3 0 0 1 8.4 14.3c.91 2.33 2.06 3.46 4.66 3.6 3.09.16 3.29.24 3.76-2.7.64-4 .91-8.21 2-12.12 2.29-8.06 5.61-15.53 12.29-21.27a22 22 0 0 1 9.91-4.76c1.64-.37 2.79-.8 3.06-2.44a3.34 3.34 0 0 0-1.83-3.65c-1.17-.62-2.42-1.1-3.65-1.61a14.49 14.49 0 0 1-7-5.39c-4.28-6.4-5.43-13.61-5.63-21-.07-2.8.85-5.68 1.59-8.45.6-2.22.11-4.25-1.81-5.3s-3 .31-4.19 1.65a18.23 18.23 0 0 1-8.38 6 120.86 120.86 0 0 1-15.18 3.61c-4.37.7-8.91 1.17-13.11-1.2a8.4 8.4 0 0 0-2.19-.74zM172.94 257.67c-.08 2.13.68 3.2 2.4 3.45a19.94 19.94 0 0 0 2.87-.15c2.76 0 5.68-.64 8.24.08a30.6 30.6 0 0 1 18.79 15c1.54 2.73 2.66 5.69 4.06 8.5.7 1.4 1.45 2.87 3.54 2.39s2.45-1.06 2.71-3.57c.57-5.52.18-11.15 1.85-16.55.83-2.65 1.76-5.27 2.45-8a26.62 26.62 0 0 1 4.84-9.25 37 37 0 0 1 12.13-10.71c2.32-1.26 2.87-3.48 3.8-5.49.59-1.29-.3-2.35-1.61-2.79s-2.57-.71-3.84-1.09c-6.43-1.9-12.63-4.21-17.11-9.56-1.15-1.38-1.9-3.13-3.16-4.39-3-3.06-3.9-6.82-4.14-10.9-.13-2.24-.94-3.2-2.88-3.63a3.68 3.68 0 0 0-4.28 1.9 23 23 0 0 1-3.42 4.2 74.76 74.76 0 0 1-6.1 5.12c-6.8 5.16-14.17 5.49-21.92 2.46a8.64 8.64 0 0 0-3.48-.71c-2 .1-3 1.64-2.36 3.59a8.19 8.19 0 0 0 1 1.94 76.06 76.06 0 0 1 7.09 14.6 26.2 26.2 0 0 1-.13 19c-.62 1.63-.98 3.3-1.34 4.56zM631.54 224c-.21-1.06-.41-1.88-.52-2.72-.42-3.32-1-3.64-4.14-2.73a36.4 36.4 0 0 1-8.06 1.83c-6.39.33-12.29-1.08-16.32-6.66a33 33 0 0 1-2.77-5 5.3 5.3 0 0 0-4.37-3.34c-2.14-.18-2.69 1.57-3.17 3.3a10.44 10.44 0 0 1-1.33 3c-5.44 8.2-11.09 16.21-20.94 19.71-2 .72-4.13 1.24-6.22 1.78-1.52.39-2.73 1.07-3 2.75-.2 1.33 1.16 3.47 2.57 4.08.43.19 1 .13 1.42.28 5.59 1.9 10.82 4.23 13.54 10.08a66 66 0 0 0 4 6.88c2.91 4.66 5.21 9.52 5.72 15.1.27 3 .65 6 1 9 .17 1.46.28 3 2.15 3.34a3.88 3.88 0 0 0 4.2-2.17c3.68-7.25 9.35-12.5 16.3-16.54 4.74-2.76 9.78-4 15.17-2.65 3.21.79 5.48-1.92 4.35-5.37-.15-.45-.57-.81-.71-1.26-.82-2.51-2.15-5-2.28-7.55-.42-8 .16-15.94 3-23.56a14.52 14.52 0 0 0 .41-1.58zm-118.4 416.7c0-7.87-.28-15.71-2.91-23.27-1.15-3.3-2-6.71-3.32-9.93-1.55-3.78-3.48-7.4-5.25-11.09a21.84 21.84 0 0 0-2.25-4.48 3.53 3.53 0 0 0-3.09-1.08 3.69 3.69 0 0 0-1.66 2.85c-.18 7.47-2.12 14.55-4.6 21.5-2.64 7.39-5.49 14.71-8.17 22.09-2 5.47-1.12 11-.06 16.49a7.28 7.28 0 0 0 1.69 3.18c3.67 4.22 10.25 8.87 17.61 6 1-.39 2.1-.62 3.09-1.08a5.35 5.35 0 0 0 2-1.46c1.41-1.95 2.72-4 4-6 2.56-4.23 2.91-8.93 2.92-13.72zM308 595.15l.35-.1c0-1.56.3-3.21-.1-4.66a4.48 4.48 0 0 0-2.35-2.39c-1.33-.6-2.29.5-2.89 1.59-2 3.68-4 7.44-6 11.11-2.74 4.9-3.85 10.39-5.71 15.6-3.28 9.21-4.77 18.57-3.47 28.42.94 7 5.5 11.28 10.42 15.43a5.88 5.88 0 0 0 1.66.7c4.65 1.82 9 .93 13.19-1.45a12.09 12.09 0 0 0 5.81-7.51c2.37-8.4 1.24-16.54-1.78-24.5-2.53-6.66-5.26-13.25-6.84-20.21-.93-3.98-1.53-8.02-2.29-12.03zm145.29 97.51c0-10.33-1.29-17.32-4.84-26.48-2.05-5.29-4.19-10.54-6.35-15.78a16.17 16.17 0 0 0-2.08-3.81 3.46 3.46 0 0 0-5.82.24 12.56 12.56 0 0 0-1.36 4.79 118.45 118.45 0 0 1-6.25 30.38c-1.47 4.33-3.24 8.56-4.54 12.94-2.22 7.46-1.71 16.79 6.53 21.32a14.83 14.83 0 0 0 10.69 1.51c6.78-1.45 9.71-7.09 12.49-12.61 2.02-4.02 1.9-8.43 1.56-12.5zM236 689.36c.44 4.65 1.07 8.37 1.06 12.08 0 6.16 2.54 11.3 6 16 3 4.14 7.17 6.74 12.69 6.46 4.89-.25 9.19-1.84 11.66-6.11a18.91 18.91 0 0 0 1.4-15.41 69.4 69.4 0 0 0-6.81-15.57c-3.62-6-7-12.13-9.2-18.82-1.37-4.24-2.37-8.6-3.34-12.94a3.25 3.25 0 0 0-3-2.66 2.45 2.45 0 0 0-2.78 1.85c-1.7 5-3.81 10-4.87 15.17-1.43 6.83-1.99 13.85-2.81 19.95zM369.07 618a33.92 33.92 0 0 0 3.39 15.44 13.62 13.62 0 0 0 9.73 8 42.22 42.22 0 0 0 4.28.77c6 .65 10.78-1.27 14.08-7.11 2.57-4.56 2.64-9.57 2.22-14.47-.43-5.06-2.51-9.75-4.82-14.27-1.86-3.64-3.67-7.32-5.67-10.88-3.94-7-5.59-14.61-6.18-22.54a10.06 10.06 0 0 0-1.05-3.76 4.22 4.22 0 0 0-2.15-2c-1.32-.42-2.37.55-2.84 1.74-1.27 3.24-2.5 6.51-3.56 9.82-.73 2.29-.94 4.75-1.77 7-3.85 10.41-5 21.26-5.66 32.26zm198.19 78.1c-.51-4.54-.76-8.29-1.4-12a81.6 81.6 0 0 0-2.73-12c-1.57-4.67-3.69-9.17-5.69-13.69a2.76 2.76 0 0 0-3.64-1.59 3.18 3.18 0 0 0-2.31 3.3 11.91 11.91 0 0 1-.43 4.27c-2.19 6.13-4.39 12.27-6.91 18.27a84.53 84.53 0 0 1-5.29 9.88c-2.47 4.21-3.8 8.83-5 13.48a20 20 0 0 0-.74 6c.23 4.15 2.32 7.58 4.93 10.69a9.18 9.18 0 0 0 5.9 3.23c4.37.63 8.34.38 12.49-2 5.17-2.94 7.65-7.43 8.86-12.6s1.41-10.63 1.96-15.24zM197 606.87a19.53 19.53 0 0 0 .07 4.33 14.24 14.24 0 0 0 1.89 4.28c3.46 5.44 7.39 10 14.69 10.27 7.58.24 13.76-5 14.7-11.7a39 39 0 0 0-3.58-22.58c-1.59-3.37-3.57-6.62-4.6-10.16a84.16 84.16 0 0 1-2.61-13.85c-.32-2.71.38-5.52.35-8.29a4.35 4.35 0 0 0-1.26-3.06c-.65-.53-2.09-.44-3-.17a3.63 3.63 0 0 0-1.7 1.79c-2.06 3.82-4.27 7.58-6 11.55-2.24 5.2-3.89 10.64-6.09 15.85-3.04 7.02-2.46 14.43-2.86 21.74zm409.34-2c-.31-8.39-3.43-20.91-6.89-28.64-2.61-5.83-5.73-11.44-8.65-17.13a3.47 3.47 0 0 0-4-1.71 3.17 3.17 0 0 0-2.28 3.33c0 .72.37 1.43.34 2.14-.16 4 .26 8.11-.72 11.87-2.4 9.23-5.39 18.31-8.29 27.41a35.81 35.81 0 0 0-1.54 11.43c0 4.57 2.51 7.89 6.19 10.07 6.56 3.88 17.45 1.51 22.2-4.52a3.82 3.82 0 0 0 .57-.92c1.51-4.32 3.24-8.6 3.02-13.33zM335.39 725.72c.16 6.23 2.08 11.93 4.46 17.55a9.24 9.24 0 0 0 4.42 4.65 16.35 16.35 0 0 0 12.33 1.45 13.24 13.24 0 0 0 9-8.29c2.73-8.5.58-16.77-3.15-24.56-2.6-5.44-5.74-10.61-8.56-15.95a30.36 30.36 0 0 1-3.35-11 28.53 28.53 0 0 0-1.81-7.7c-1-2.56-2.7-2.52-4.15-.09a29.23 29.23 0 0 0-2.27 4.88c-3.08 8.45-4.64 17.25-5.85 26.1-.54 4.24-.71 8.63-1.07 12.96z"/><path d="M493.48 321.07l-2.45.18c0-.39-.18-.87.06-1.15.85-1 .93-3.25 3.16-2.38 1.65.63.64 2.34-.77 3.35z"/><path d="M616.12 548.15c-5.4-.5-10.79-1-16.18-1.51a3.61 3.61 0 0 1-1.4-.29c-4.39-2.55-9.44-2.91-14.17-4.34a111.72 111.72 0 0 1-10.62-3.65 66.7 66.7 0 0 0-17.92-4.24c-4.39-.54-8.63.07-12.92.79-1.86.32-3.78.31-5.66.56a8.1 8.1 0 0 0-2.75.81 16 16 0 0 1-7.68 1.84c-3 .07-6 .66-9 .51a77.38 77.38 0 0 1-9.27-1.48 5.91 5.91 0 0 1-1.68-.67c-3.17-1.75-6.34-3.49-9.46-5.31a6.59 6.59 0 0 1-2.12-1.91c-3.22-4.77-8-5.35-13-4.56a51.47 51.47 0 0 0-9.79 2.48 28.67 28.67 0 0 0-6.19 3.72c-11.74 8.19-24.94 13.2-38.4 17.63a17 17 0 0 1-3.59.44 85.21 85.21 0 0 1-22-.4c-2.85-.46-5.69-.68-8.32-2.07a21.75 21.75 0 0 1-6.41-4.66 10.92 10.92 0 0 0-3.78-2.6 30 30 0 0 0-19.09-2.1 127.5 127.5 0 0 0-20.68 6.57c-7.37 3-14.83 6-22.93 6.32-4.93.21-10 .69-14.8-.06-4.45-.7-8.67-2.85-13-4.41-2.24-.82-4.47-1.71-6.66-2.65-1.1-.47-2.1-1.15-3.17-1.7-4.59-2.39-9-5.33-13.84-7-3.78-1.29-8.1-1.22-12.19-1.31-9.56-.22-18.17 3.47-26.76 7.05-5.11 2.13-10.15 4.4-15.68 5.32-1.87.31-3.6 1.38-5.46 1.8a55.56 55.56 0 0 1-20.52 1c-4.91-.71-9.74-1.46-14.36-3.54a34.61 34.61 0 0 1-12.25-9.45c-3.08-3.65-3.05-8.75 0-13.57 1.38-2.19 3.34-4 5-6 3.27-4 6.83-7.86 9.67-12.17 3.92-5.94 7.36-12.21 10.86-18.43a64.6 64.6 0 0 0 4-8.52c3.31-8.69 6.49-17.44 9.71-26.17 1.93-5.21 3.87-10.41 5.73-15.65 1.7-4.78 3.37-9.58 4.91-14.42q2.58-8.11 4.89-16.31c.67-2.32 1-4.74 1.57-7.08 2.42-9.61 4.9-19.19 7.31-28.8 1.26-5 2.45-10.1 3.64-15.17 1.57-6.7 3-13.45 4.7-20.12 1.93-7.47 4.18-14.86 6.21-22.31.47-1.72.37-3.61.88-5.33 1.67-5.67 3.36-11.34 5.29-16.93 2.84-8.22 5.88-16.37 8.83-24.55 1.1-3.06 2.07-6.18 3.36-9.16a52.83 52.83 0 0 1 3.75-7c2.94-4.73 6.09-9.32 9-14.06 4.93-8 11.39-14.74 18.37-20.83a219.54 219.54 0 0 1 23-17.61c6.2-4.12 13.18-7.07 19.85-10.47 2.58-1.31 5.24-2.5 7.91-3.65a75.69 75.69 0 0 1 17.09-4.57c4.16-.73 8.22-2.06 12.34-3 2-.47 4-.75 6-1.1a99.48 99.48 0 0 1 10.2-1.69c6.74-.43 13.5-.59 20.26-.69 4.21-.07 8.42.15 12.64.26 10.06.26 19.95 1.5 29.44 5.13 3.95 1.51 8.09 2.53 12 4.16 6.56 2.76 13.1 5.62 19.46 8.82a144 144 0 0 1 15.68 9 120.12 120.12 0 0 1 14.25 11.16 154.65 154.65 0 0 1 14 14.71c4.61 5.54 9.29 11 13.55 16.91 7.16 9.89 11.53 20.91 15.47 32.24 2.35 6.73 4.83 13.43 6.92 20.24 1.31 4.26 2 8.71 3 13.08 1.86 8.75 3.68 17.52 5.54 26.28 1.13 5.32 2.46 10.6 3.42 16 1.3 7.24 2.22 14.54 3.48 21.79q2.55 14.67 5.38 29.29c.95 5 2 10 3.32 14.84.86 3.13 2.4 6.06 3.61 9.08 2.53 6.29 5 12.58 7.55 18.87 2.84 7.05 5.43 14.21 8.64 21.09 2.5 5.34 5.77 10.32 8.73 15.45 2.18 3.76 4.33 7.53 6.63 11.21 1.8 2.86 3.87 5.54 5.71 8.38 2.7 4.14 5.43 8.28 7.88 12.56 2 3.46 3.57 7.13 5.33 10.71 2.31 4.7 1.66 9.47 0 14.12a38.13 38.13 0 0 1-3.74 7.84 8.11 8.11 0 0 1-3.91 3 34.46 34.46 0 0 1-14.61 2.21zM194.43 517a.46.46 0 0 1-.35-.14l-1-.67c-1.33-1.25-2.73-2.47-2.54-4.56a24.75 24.75 0 0 1 4-11.93c4.13-6 6.6-12.84 9.73-19.33a41.05 41.05 0 0 0 2.07-5.79q1.91-6 3.69-12.1c1.52-5.2 3.19-10.37 4.41-15.64q3.41-14.65 6.32-29.43c.83-4.22 1.14-8.54 1.68-12.81a53.24 53.24 0 0 0-2.65 7.16c-2.79 9.63-6 19.11-9.49 28.52-2.63 7.15-4.93 14.43-7.61 21.56-2.9 7.68-5.67 15.46-9.26 22.82a242.68 242.68 0 0 1-12.46 21.66c-3.18 5.1-6.88 9.88-10.4 14.76-1.2 1.66-2.58 3.18-3.86 4.78-1.46 1.83-1.81 3.84-.64 4.93 1.75 1.65 3.57 3.45 6.16 3.54 4.47.15 9 .67 13.34-.76 5.26-1.74 10.87-2.43 15.76-5.23a234.6 234.6 0 0 0 9.27-5.58c3.37-2.13 6.69-4.34 10-6.6 2.27-1.57 4.44-3.28 6.65-4.93 3.37.08 5.54-2.75 8.56-3.53.15 0 .22-.39.33-.6-.21-.08-.47-.29-.62-.23-3 1.15-6.42 1-9 3.23l-.89.39-.59.39a1 1 0 0 1-.54.06l-2.32.7-1.19.9a8.55 8.55 0 0 0-6.09 2 .64.64 0 0 1-.39.22h-.3l-.21.24a.85.85 0 0 1-.56.27l-1.53.52-1.12.37-1 .24-1.43 1.09-3.66.5-.76.17-6.38.15a.84.84 0 0 1-.49-.13l-1.12-.48-1-.49-.16-.27zm249.5-6.64l2.57-3.36c-1.29.35-2.6.68-3.87 1.09-.3.1-.5.47-.75.71a17.1 17.1 0 0 1-2.86 2.06c-7.66 3.47-14.69 8.22-22.65 11.17-3.62 1.34-6.87 1.41-10-.46a24.3 24.3 0 0 1-5.56-4.6c-5-5.45-6.88-12.26-8.4-19.28-1.56-7.21-3.45-14.33-5.23-21.49-.06-.26-.43-.44-.65-.66a2.57 2.57 0 0 0-.2.69 15.4 15.4 0 0 0 0 1.8c.59 7.34 1.23 14.67 1.75 22a44.46 44.46 0 0 1-.18 5.76c-.25 4.46-.76 8.92-.75 13.38a43.28 43.28 0 0 0 1.05 10.74c3.07 11.83 11.37 13 20.67 10.42 6.13-1.68 10.26-6.24 14.65-10.32 5.22-4.85 10.21-10 15.31-14.92 1.43-1.4 2.92-2.74 4.39-4.11zm47.52-189.2l-.79 1.46-.19.4-.4 1-.94 1.35a30.75 30.75 0 0 0-3.72 4.4c-4.06 7.16-10.29 12-16.94 16.49a58.16 58.16 0 0 1-22.35 9 25.29 25.29 0 0 0-3 .95l3.08 1.23c.22.09.46.14.69.22 12.29 4.05 25.74-.92 34.39-10.61a48.83 48.83 0 0 0 4.4-6.16c3-4.7 4-10.16 5.61-15.39.93-.21 1.49-.66 1.09-1.71.24-.91.68-3.2.93-4.11.93-.9 1.41-1 .31-1.61-1.48-.76-1.54 1.24-2.1 2.13-.19.15-.06.58-.07.93zm-100.62-74.91c-.91 5.5-2 11-2.67 16.51-.9 8 .94 16 4.66 23.44a6.23 6.23 0 0 0 .1 1.44q3.48 10.88 7 21.72a4 4 0 0 0 .84 1.09c.27-.34.68-.64.79-1 1-3.34 2-6.69 2.93-10.06 1.18-4.37 1.93-8.86 4.21-12.9a12.39 12.39 0 0 0 .78-3.47c.91-3 1.91-6 2.68-9 1.34-5.27 2.9-10.58 1.92-16.08-.82-4.62-2-9.17-3.08-13.75l-8.88-21a5.75 5.75 0 0 0-1.11-1.83 1.43 1.43 0 0 0-1.29.28c-.64 1.67-1.13 3.4-1.68 5.1-1.2 3.76-2.66 7.46-3.53 11.3-.6 2.75-3.67 8.21-3.67 8.21zm185.26 157.23a11.9 11.9 0 0 0 .24-2.83 28.17 28.17 0 0 0-1-3.75 20.49 20.49 0 0 0-.28 3.56 14.07 14.07 0 0 0 .92 2.94 122.25 122.25 0 0 0 2.24 16.07c2.1 9.32 4 18.59 7.89 27.42 3.48 8 6.55 16.11 9.46 24.3 2.34 6.59 5 13.15 5.87 20.15.75 5.8 1.16 11.59-2.37 16.84-.95 1.41-.67 1.95 1.15 1.89a46.74 46.74 0 0 1 11.12 1.34c6.28 1.27 12.09 3.52 16.56 8.33 2.27 2.44 4.29 5.12 6.42 7.69a7.44 7.44 0 0 0-.51-3.55c-1-2.28-2.35-4.4-3.13-6.73-1.74-5.24-5.17-9.52-7.83-14.22-1.7-3-4.12-5.6-6.15-8.42-1.47-2.06-2.95-4.13-4.22-6.31-1.57-2.71-3-5.54-4.4-8.32-3.06-5.9-6.25-11.73-9.12-17.72-1.92-4-3.37-8.27-5.08-12.41-2.44-5.91-4.88-11.81-7.39-17.69-2.09-4.87-4.34-9.66-6.38-14.54a45.35 45.35 0 0 1-1.36-5.09c-.87-2.99-1.74-5.97-2.65-8.95zM395.58 174.23c-6.56.71-12.8 1.37-19 2.08a12.63 12.63 0 0 0-1.72.54c-3 .78-6.09 1.53-9.13 2.32-5.13 1.34-10.26 2.63-15.36 4.07-1.84.52-3.57 1.44-5.37 2.13-4.17 1.6-8.52 2.83-12.5 4.81-7.88 3.93-15.68 8-22.84 13.27-6.83 5-13.81 9.78-19.48 16.16-.8.9-1.49 1.9-2.22 2.87a4.28 4.28 0 0 0-.33.64c.34.07.76.31 1 .19.85-.42 1.63-1 2.45-1.46a31.21 31.21 0 0 1 4.36-2.44c4.84-1.82 9.75-3.43 14.6-5.21 6.69-2.44 13.28-5.15 20-7.37 7.21-2.37 14.34-5 21.89-6.33 7.26-1.25 14.45-2.92 21.68-4.34 2.37-.47 4.77-.76 7.16-1.11 3.57-.52 7.14-1.06 10.72-1.53 2.14-.28 4.29-.54 6.45-.61 4.71-.16 9.42-.35 14.13-.24s9.39.52 14.07.88c2.76.21 5.51.9 8.24.81 9.09-.31 17.6 2.66 26.33 4.34a27 27 0 0 1 4.85 1.34c6.15 2.45 12.23 5.08 18.4 7.49a239 239 0 0 1 25.8 12.3c2.34 1.26 4.61 2.67 6.93 4a4.27 4.27 0 0 0 1.26.25 4.42 4.42 0 0 0-.58-1.24c-1.43-1.46-3.27-2.66-4.29-4.35-2.72-4.49-7.2-7.07-10.78-10.61-3.4-3.37-7.72-5.38-11.69-7.87-6-3.78-12-7.78-18.52-10.65-7-3.12-14-6.56-21.69-8.12a34.12 34.12 0 0 1-6.67-1.57c-5.89-2.54-12.23-3.06-18.39-3.75-9.95-1.15-20.01-1.2-29.76-1.69zM284.2 510.75a8.5 8.5 0 0 0-1-2.89c-2.59-3.21-5.83-5.58-10.13-5.61-9-.07-17.78 1.2-25.8 5.79-1.67.95-3.57 1.51-5.29 2.38-4.52 2.3-9.16 4.42-13.46 7.09-5.94 3.68-11.41 8.17-17.47 11.65-8.46 4.85-17.27 9.09-27 10.9-.37.07-.68.44-1 .67.35.29.67.79 1.05.84 4.91.57 9.83 1.51 14.74 1.47a55.58 55.58 0 0 0 15.64-2.7c2.3-.7 4.8-1 6.89-2.14 7.76-4.07 16-6.73 24.35-9.26a51.27 51.27 0 0 1 10.7-1.73 49.47 49.47 0 0 1 21 3.16c2.51.91 2.59.79 3-1.66.51-3 1.09-6 1.71-8.9s1.35-5.89 2.07-9.06zm9.16-100.42c-.67 2.64-1.36 5.28-2 7.93a105 105 0 0 0-.92 43.26c1.84 10.29 3.21 20.56 2.38 31-.63 7.93-1.75 15.84-4.51 23.4a15.61 15.61 0 0 0-.82 3.14c-.48 3.47-.87 7-1.32 10.41-.51 3.89 1.52 7 5.39 7.76a17 17 0 0 0 11-1.35c5.52-2.72 10.76-6 16.13-9.05 1.57-.89 3.19-1.73 4.74-2.66.36-.22.55-.73.82-1.11a4.54 4.54 0 0 0-1.49-.3 44 44 0 0 1-15.1-.59 7.89 7.89 0 0 1-6.31-5.35 21.94 21.94 0 0 1-.53-12.53c1.17-5.41 2.62-10.76 3.94-16.14a52.6 52.6 0 0 0 1.33-18.75c-.77-6.32-2.54-12.54-4.14-18.73-1.34-5.15-3.22-10.15-4.6-15.29a112.68 112.68 0 0 1-3.99-25.05zm226.27 48.78l-.41-.07c0-2.89.08-5.78 0-8.67a65.18 65.18 0 0 0-7.7-29.2c-3.17-5.91-6.91-11.52-10.4-17.26-.19-.31-.42-.59-.64-.88a2 2 0 0 0-.27-.23l-.53-.49c.06.31.1.63.19.93 1.16 4 2.19 8.12 3.52 12.1 2.69 8.06 4.05 16.41 5.24 24.76A114.86 114.86 0 0 1 506 481c-2.32 8.88-5 17.67-7.2 26.59A36.71 36.71 0 0 0 498 518c.22 4.34 2.21 7.88 6.5 9.7a25 25 0 0 1 2.89 1.54c8 4.85 16.27 4.44 24.61.86.92-.4 1.79-.93 2.68-1.39a28 28 0 0 0-3-1.19c-1.16-.32-2.38-.43-3.56-.69a8.39 8.39 0 0 1-2.39-.7 22.8 22.8 0 0 1-11.32-16.47c-1.23-7.1-.44-14.23.64-21.3 1.47-9.73 3.04-19.48 4.58-29.25zM419.3 543.73c3.7-.64 7.42-.81 10.8-2 8-2.74 16.1-5.26 23.31-9.88 1.72-1.1 3.68-1.85 5.33-3 4.92-3.56 10-6.77 15.84-8.62a51.09 51.09 0 0 1 7.65-2.18 27.09 27.09 0 0 1 6.4.29c.57 0 1.09.55 1.67.68 1 .22 1.79-.13 1.63-1.27-.58-4.05.66-7.87 1.31-11.78.16-1 .09-2.53-.52-3-4.46-3.46-9.35-6-15.24-5.48-5.62.52-10.68 3-15.86 4.92a5.7 5.7 0 0 0-1.59.87c-4.4 3.6-9 7-13.1 10.9-9.61 9-19 18.26-28.46 27.43a11.76 11.76 0 0 0-1 1.3zm196.6-1.31a30.9 30.9 0 0 0 13.16-2.7c2.66-1.09 3.12-2.46 2.41-5.17a21 21 0 0 0-4.3-7.89c-2.62-3.2-5.43-6.39-9.29-8-8.94-3.61-18.23-4.68-27.68-2.24q-12.45 3.19-24.8 6.76a87.61 87.61 0 0 0-9.06 3.61c-.34.15-.54.66-.8 1a5 5 0 0 0 1.17.64c3.64.76 7.36 1.26 10.94 2.27 7.66 2.16 15.34 4.32 22.85 6.94 8.5 3.03 17.38 3.94 25.4 4.78zm-169.41-206.1c8.47-.24 16.08-2.71 22.39-8.67 1.27-1.2 2-2.45 1.31-4.13-1-2.31-2-4.61-3.21-6.81a24.33 24.33 0 0 0-2.5-3.11c-7.54-9.6-17.48-13.84-29.58-12.74-1.93.18-4.48-.82-5.83 1.71-1 1.91-2.12 3.78-3 5.75a16.41 16.41 0 0 0-.78 3.16c-1.76 7.42 2.53 18.8 11.82 21.63a10.39 10.39 0 0 1 3.26 1.53 8.22 8.22 0 0 0 6.12 1.68zm-82.16-38.38a38 38 0 0 0-20.51 7A21.47 21.47 0 0 0 335.1 317c-.91 3.12-1.37 6.38-2 9.59a2 2 0 0 0 .25 1.58c3.18 2.58 6.3 5.33 10.49 6.14a24.21 24.21 0 0 0 6.4.81 33 33 0 0 0 14.51-5.06 26.61 26.61 0 0 0 10.65-12.46 17.45 17.45 0 0 0-.73-15.08 3.93 3.93 0 0 0-2.8-2.55c-2.53-.51-5.02-1.34-7.54-2.03zm18.08 230.45c-.56-1.69-.64-3.89-1.78-5a29.24 29.24 0 0 0-15.25-7.88 37.22 37.22 0 0 0-16.15 1.24c-7.73 2.12-14.22 6.63-20.93 10.71-1.12.68-2 1.84-3.11 2.47-7.19 3.95-14.44 7.82-21.65 11.74-.25.13-.54.56-.49.78a1.11 1.11 0 0 0 .74.6 53.11 53.11 0 0 0 31.35-1.86c9.53-3.44 18.84-7.5 28.82-9.67 5-1.09 9.91-2 15-.71 3.04.8 3.16.61 3.45-2.42zm-21.35-236.94c-3.08-1-5.42-1.84-7.83-2.41-2.1-.5-4.28-.63-6.41-1-2.49-.38-5-.88-7.46-1.18-3.95-.49-8-.62-11.86-1.33-4.86-.87-9.64-2.18-14.45-3.29a15.79 15.79 0 0 0-1.7-.21 11.77 11.77 0 0 0 .24 2c1.39 4.62 2.7 9.28 4.27 13.85 2.73 8 5.45 16 10.45 22.93a8.36 8.36 0 0 0 1.27 1.17 5.59 5.59 0 0 0 .63-1.48c1-9.63 6.42-16.51 14.08-21.8 5.35-3.7 11.59-5.26 18.77-7.25zm93.2-.69a17.13 17.13 0 0 0-10.15 1.89 5.62 5.62 0 0 0-1.14 1.19 10.12 10.12 0 0 0 1.31.56c.81.25 1.63.45 2.45.63a30.58 30.58 0 0 1 11.27 4.78 48.31 48.31 0 0 1 11.11 10.26c2 2.56 4.73 4.49 5.73 7.8.28.89 1.11.85 1.62 0a11.69 11.69 0 0 0 .9-2q5.4-15.16 10.76-30.32a2 2 0 0 0 .15-.71c0-.58-.14-1.16-.21-1.73a6.39 6.39 0 0 0-1.66.39c-5.27 2.75-10.66 4.92-16.75 5.11a90.94 90.94 0 0 0-9.66 1.28c-1.93.3-3.83.59-5.73.87zm-175.71 68.62a11.55 11.55 0 0 0 .16-1.42c-.77-8.29-1.54-16.57-2.38-24.85 0-.2-1-.57-1.13-.44a13 13 0 0 0-1.86 2.2c-2 3-3.93 6.07-6 9-4.86 7.08-7 15-7.3 23.48a13.63 13.63 0 0 0 .83 5c1.1 3.13 3.14 5.33 6.67 5.91s6.67-.25 9-3.23c2.53-3.26 3.09-7 2.63-11-.17-1.75-.46-3.54-.62-4.65zm246.93-28c.36 5.28 1 10.76 1.07 16.24.13 7.12-.2 14.24-.17 21.36 0 3.19.56 6.35 3.82 8 4.93 2.55 10.26.09 12.34-5.08 2.16-5.38.76-10.54-.48-15.62-2.53-10.34-8.91-18.28-16.58-24.92zm-61.69 94.51a57.63 57.63 0 0 0-.53-6.41c-.74-3.53-1.64-7-2.62-10.5a49 49 0 0 0-6.75-14.29 3.3 3.3 0 0 0-.78-.64 3.53 3.53 0 0 0-.38.85c-.5 4.18-.92 8.37-1.48 12.55s-1.25 8.55-1.93 12.82c-.75 4.51-1.69 9-2.32 13.51a9.77 9.77 0 0 0 .6 4.25 5 5 0 0 0 4.5 3.65c5.51.28 8.81-2 10.49-7.5.87-2.84.88-5.94 1.2-8.31zm-124.62-.68c.3 3.33.41 6 .83 8.63a13.69 13.69 0 0 0 1.55 4.79c1.53 2.55 3.56 4.56 7 4.24a6.46 6.46 0 0 0 6.12-4.84 26.24 26.24 0 0 0-.42-17.4 74.15 74.15 0 0 1-5.2-23.22 8.65 8.65 0 0 0-.41-1.63c-.47.47-1.14.85-1.38 1.42-1.4 3.21-2.68 6.46-4 9.69a54.81 54.81 0 0 0-4.09 18.3zm-30-109.84c.62 7.87 3.92 14.74 7.24 21.59a38.26 38.26 0 0 0 3.47 5.94 30.94 30.94 0 0 0 14.84 11.19c5.85 2.08 11.88 2.91 18.4.88-1.48-.53-2.59-1-3.73-1.32a59.4 59.4 0 0 1-11.95-4.91c-4.67-2.68-8.57-6.25-12.47-9.86a20.65 20.65 0 0 1-3.34-3.26c-3-4.52-5.85-9.14-8.71-13.75-1.27-2.15-2.46-4.35-3.71-6.52zm56.66-236.95c1.49-.29 4.24-.37 6.62-1.36 4.1-1.7 8.43-3 11.77-6.31 1.63-1.58 3.7-2.7 5.47-4.15 4.08-3.36 5.75-8.26 8-12.8.21-.43.2-1 .48-1.36.69-.9 1.56-2.51 2.21-2.44 1.53.17 3.36.29 4.22 2.22 3.8 8.48 10.59 14.38 17.79 19.73a25.59 25.59 0 0 0 13.72 5.18 10.14 10.14 0 0 1 3.17.71 3 3 0 0 1 1.72 4.39 22.43 22.43 0 0 1-1.92 3.45 34.85 34.85 0 0 0-5.57 15.89c-1.13 9.8 1.84 18.55 6.28 27 .28.54.68 1 .93 1.56 1.07 2.4.06 4.17-2.58 4.13a9.14 9.14 0 0 1-4.48-1c-6.1-3.71-13-4.3-19.78-5.51-6.88-1.25-13.88-.54-20.88.25-5.49.65-11 .75-16.46 2.09a25.65 25.65 0 0 0-9.29 3.84 5.43 5.43 0 0 1-1.91 1 2.64 2.64 0 0 1-3.21-3.61c.88-2.5 1.93-5 2.88-7.42a18.71 18.71 0 0 0 1.4-4c1.06-7.92 2.11-15.9.25-23.82-.87-3.68-1.66-7.55-4.88-10.21-2.39-2-2.9-3.41-2.09-5.26.61-1.46 2.4-2.23 6.14-2.19zm8.06 27.1c-.16 2.52-.33 5-.47 7.57a3 3 0 0 0 .3 1c.29-.14.75-.21.85-.44 1.52-3.55 4.47-5.89 7.07-8.55 7.28-7.49 15.05-14.14 25.07-17.88 5.65-2.11 11-5 17.13-5.61.29 0 .54-.31.81-.48-.18-.27-.3-.66-.56-.81a43.62 43.62 0 0 1-5-2.84 79.68 79.68 0 0 1-15.75-15.91c-1.63-2.2-1.67-2.11-3 .17a66.45 66.45 0 0 1-4.05 6c-3.22 4.37-7.76 7.28-12.12 10.25-4.15 2.82-8.57 5.41-13.75 6.09-1.25.16-1.25.87-.8 1.8 2.99 6.12 4.03 12.78 4.27 19.64zm-117.75-2.72c2.07 1.1 3.74 2.09 5.5 2.89 4.71 2.16 9.36 4.54 14.24 6.26 5.94 2.11 11.93 1.08 17.72-1.1 2.16-.8 4.23-1.86 6.43-2.51 1.15-.35 3-.58 3.62 0a4.67 4.67 0 0 1 1 4c-3.3 9.59-1.11 18.35 3.65 26.78 1.9 3.36 3.86 6.69 6 9.91a18.13 18.13 0 0 0 3.53 3.58 5.48 5.48 0 0 1 1.71 5.93c-.38 1.56-1.67 2.39-3 1.57-1.93-1.2-3.77-.73-5.6-.31a48.22 48.22 0 0 0-22.39 11.2c-5.84 5.24-10.28 11.51-15.45 17.23-.32.36-.57.78-.88 1.15-.82 1-1.77 1.87-3.11 1.18a2.67 2.67 0 0 1-1.41-3.4c1.75-4.19.32-8.23-.82-12-2.06-6.89-5.39-13.3-11.14-17.89-2.78-2.22-6.18-3.69-9.39-5.34-1.26-.65-2.65-.81-3.41-2.39a3.5 3.5 0 0 1 .48-4.27c4.77-5.94 9-12.08 10.79-19.79a35.44 35.44 0 0 0 .26-17.12 7.79 7.79 0 0 1-.06-3.56c.18-.8 1.12-1.35 1.73-2zm5.45 16a35.7 35.7 0 0 1-2.37 12 48 48 0 0 1-7.64 13.91c-1.87 2.42-1.66 2.53 1 4 2.41 1.34 4.87 2.63 7.13 4.2 4.28 3 6.9 7.38 9.63 11.67a7.48 7.48 0 0 0 1.43 1.31 8.78 8.78 0 0 0 .58-1.6c.8-4.51 1.36-9.07 2.38-13.52a61.73 61.73 0 0 1 10.65-23.17 75.34 75.34 0 0 0 4.32-7.12c.35-.6.8-1.45-.57-1.34a39.67 39.67 0 0 1-22.31-4.65c-3.84-2-4-1.8-4.19 2.56-.06.56-.04 1.16-.04 1.77zm241.03-8.06a8.4 8.4 0 0 1 2.33.66c4.2 2.37 8.74 1.9 13.11 1.2a120.86 120.86 0 0 0 15.18-3.6 18.23 18.23 0 0 0 8.38-6c1.16-1.34 2.15-2.77 4.19-1.65s2.41 3.08 1.81 5.3c-.74 2.77-1.66 5.65-1.59 8.45.2 7.4 1.35 14.61 5.63 21a14.49 14.49 0 0 0 7 5.39c1.23.51 2.48 1 3.65 1.61a3.34 3.34 0 0 1 1.83 3.65c-.27 1.64-1.42 2.07-3.06 2.44a22 22 0 0 0-9.91 4.76c-6.68 5.74-10 13.21-12.29 21.27-1.12 3.91-1.39 8.07-2 12.12-.47 2.94-.67 2.86-3.76 2.7-2.6-.14-3.75-1.27-4.66-3.6a54.3 54.3 0 0 0-8.4-14.3c-3.58-4.46-8.43-6.68-13.46-8.83s-10-2.5-15.21-2.93a16.61 16.61 0 0 1-4.6-1c-2.13-.83-2.4-2.06-1.15-4a6.6 6.6 0 0 1 1.39-1.66c5.93-4.51 8.43-11.07 10.48-17.8 2-6.55 1.8-13.38 2-20.15a19.84 19.84 0 0 1 0-2.88c.13-1.55 1.02-2.17 3.11-2.15zm36.32 27.7v.37c1.8 0 3.6-.06 5.39 0 2.11.09 2.24.05 1.28-1.73a44.45 44.45 0 0 1-5.26-16.86c-.14-1.44-.31-2.89-.36-4.34 0-1.28-.63-1.73-1.84-1.44-4.93 1.18-9.84 2.42-14.78 3.52a36.31 36.31 0 0 1-7.8 1.29 52.11 52.11 0 0 1-8.57-1.15c-1.16-.2-1.91 0-2 1.3-.06 1-.15 1.94-.18 2.91-.1 2.89.21 5.86-.36 8.65-1 4.95-2.6 9.79-3.91 14.69a4.64 4.64 0 0 0 0 1.29l.94-.45c7.93-4 16.18-6.84 25.12-7.38 4.14-.24 8.24-.45 12.33-.67zm-366 119.23c.36-1.26.72-2.93 1.31-4.51a26.2 26.2 0 0 0 .13-19 76.06 76.06 0 0 0-7.09-14.6 8.19 8.19 0 0 1-1-1.94c-.59-1.95.35-3.49 2.36-3.59a8.64 8.64 0 0 1 3.48.71c7.75 3 15.12 2.7 21.92-2.46a74.76 74.76 0 0 0 6.1-5.12 23 23 0 0 0 3.42-4.2 3.68 3.68 0 0 1 4.28-1.9c1.94.43 2.75 1.39 2.88 3.63.24 4.08 1.11 7.84 4.14 10.9 1.26 1.26 2 3 3.16 4.39 4.48 5.35 10.68 7.66 17.11 9.56 1.27.38 2.58.67 3.84 1.09s2.2 1.5 1.61 2.79c-.93 2-1.48 4.23-3.8 5.49a37 37 0 0 0-12.13 10.71 26.62 26.62 0 0 0-4.84 9.25c-.69 2.69-1.62 5.31-2.45 8-1.67 5.4-1.28 11-1.85 16.55-.26 2.51-.69 3.11-2.71 3.57s-2.84-1-3.54-2.39c-1.4-2.81-2.52-5.77-4.06-8.5a30.6 30.6 0 0 0-18.79-15c-2.56-.72-5.48-.11-8.24-.08a19.94 19.94 0 0 1-2.87.15c-1.69-.3-2.45-1.37-2.37-3.5zm29.64 5.54l.88.8-.33-1.23c-.55-2.1-1.09-4.2-1.64-6.29-1.1-4.19-2.76-8.33-3.18-12.59-.61-6.09-1.25-12.26-.34-18.41.37-2.5.84-5 1.24-7.49a5.58 5.58 0 0 0-.06-1.07 4.71 4.71 0 0 0-1.2.4 28.49 28.49 0 0 1-19.85 5.23c-2.41-.26-2.49-.09-1.43 2.21s2.5 4.26 3 6.55c1.63 6.91 3.27 13.88 1 21-.61 1.93 0 2.57 2.26 2.45a18.61 18.61 0 0 1 7 1.37c4.73 1.6 8.65 4.38 12.65 7.07zM631.54 224a14.52 14.52 0 0 1-.41 1.53c-2.8 7.62-3.38 15.57-3 23.56.13 2.55 1.46 5 2.28 7.55.14.45.56.81.71 1.26 1.13 3.45-1.14 6.16-4.35 5.37-5.39-1.32-10.43-.11-15.17 2.65-6.95 4-12.62 9.29-16.3 16.54a3.88 3.88 0 0 1-4.2 2.17c-1.87-.36-2-1.88-2.15-3.34-.35-3-.73-6-1-9-.51-5.58-2.81-10.44-5.72-15.1a66 66 0 0 1-4-6.88c-2.72-5.85-8-8.18-13.54-10.08-.46-.15-1-.09-1.42-.28-1.41-.61-2.77-2.75-2.57-4.08.25-1.68 1.46-2.36 3-2.75 2.09-.54 4.19-1.06 6.22-1.78 9.85-3.5 15.5-11.51 20.94-19.71a10.44 10.44 0 0 0 1.33-3c.48-1.73 1-3.48 3.17-3.3a5.3 5.3 0 0 1 4.37 3.34 33 33 0 0 0 2.77 5c4 5.58 9.93 7 16.32 6.66a36.4 36.4 0 0 0 8.06-1.83c3.15-.91 3.72-.59 4.14 2.73.11.89.31 1.71.52 2.77zm-7.54 4.87c.31-1.23-.23-1.86-1.73-1.64-.84.12-1.69.16-2.53.27a19.51 19.51 0 0 1-12.23-2.29 33.59 33.59 0 0 1-9.93-7.77c-1.87-2.24-2.18-2.2-3.56.19a56 56 0 0 1-14 16c-.23.17-.31.52-.46.79a2.49 2.49 0 0 0 .7.14c3.9-.37 7.66.68 11.48 1.06a44.19 44.19 0 0 1 10.85 2.6 57 57 0 0 1 17.42 10.19 6.66 6.66 0 0 0 1.83.76 11.53 11.53 0 0 0 .35-1.71c.2-4.1.26-8.21.59-12.3a50.84 50.84 0 0 1 1.22-6.29zM513.14 640.7c0 4.79-.36 9.49-2.94 13.69-1.26 2.05-2.57 4.07-4 6a5.35 5.35 0 0 1-2 1.46c-1 .46-2.07.69-3.09 1.08-7.36 2.88-13.94-1.77-17.61-6a7.28 7.28 0 0 1-1.69-3.18c-1.06-5.48-1.92-11 .06-16.49 2.68-7.38 5.53-14.7 8.17-22.09 2.48-7 4.42-14 4.6-21.5a3.69 3.69 0 0 1 1.66-2.85 3.53 3.53 0 0 1 3.09 1.08 21.84 21.84 0 0 1 2.25 4.48c1.77 3.69 3.7 7.31 5.25 11.09 1.33 3.22 2.17 6.63 3.32 9.93 2.65 7.6 2.91 15.43 2.93 23.3zm-17.37 16.59c4.47-.42 8.1-1.81 9.48-6.3 1-3.22 1.79-6.51 2.55-9.79.12-.54-.39-1.22-.61-1.84a15 15 0 0 0-1.36 1c-1.15 1-2.15 2.73-3.42 2.94-2.62.45-5.54 1.2-8-.87-1.54-1.32-3-2.68-4.45-4.13s-1.57-1.42-2.21.21c-2 5.08-2 10.13.81 14.93 1.66 2.75 4.44 3.62 7.21 3.85zM308 595.15c.73 4 1.33 8.05 2.23 12 1.58 7 4.31 13.55 6.84 20.21 3 8 4.15 16.1 1.78 24.5a12.09 12.09 0 0 1-5.81 7.51c-4.15 2.38-8.54 3.27-13.19 1.45a5.88 5.88 0 0 1-1.66-.7c-4.92-4.15-9.48-8.38-10.42-15.43-1.3-9.85.19-19.21 3.47-28.42 1.86-5.21 3-10.7 5.71-15.6 2.07-3.67 4-7.43 6-11.11.6-1.09 1.56-2.19 2.89-1.59a4.48 4.48 0 0 1 2.38 2.39c.4 1.45.1 3.1.1 4.66zm5.7 41.4c-.31-1.24-.76-3.11-1.27-5-.07-.28-.42-.49-.65-.73a3.31 3.31 0 0 0-.66.8c-.3.65-.43 1.39-.76 2-1.47 2.81-3.48 4.79-6.88 5.21-3.06.38-5.39-.74-7.59-2.61a13.88 13.88 0 0 0-2.34-1.36 15.21 15.21 0 0 0-.79 3 14.9 14.9 0 0 0 .38 3.57c.89 4.46 2.39 8.63 5.9 11.76a7.93 7.93 0 0 0 13.24-4.23c.78-3.8.95-7.79 1.45-12.41zm139.62 56.11c.34 4.07.46 8.48-1.56 12.49-2.78 5.52-5.71 11.16-12.49 12.61a14.83 14.83 0 0 1-10.69-1.51c-8.24-4.53-8.75-13.86-6.53-21.32 1.3-4.38 3.07-8.61 4.54-12.94a118.45 118.45 0 0 0 6.28-30.37 12.56 12.56 0 0 1 1.36-4.79 3.46 3.46 0 0 1 5.82-.24 16.17 16.17 0 0 1 2.08 3.81c2.16 5.24 4.3 10.49 6.35 15.78 3.52 9.16 4.81 16.15 4.84 26.48zm-26.85 9.67c.7 2.15.85 4.43 2 5.88 3.25 4 11.3 3.86 14.72 0 3.78-4.28 5.13-9.45 5.05-15.06a4.11 4.11 0 0 0-.44-1.29 5.57 5.57 0 0 0-1.52.62c-1.12.92-2.06 2.07-3.24 2.9-4.18 3-10.18 1.63-12.25-2.63-.13-.27-.44-.7-.59-.67a1.18 1.18 0 0 0-.79.61c-.99 3.18-1.95 6.39-2.94 9.64zM236 689.36c.81-6.1 1.37-13.12 2.76-20 1.06-5.18 3.17-10.13 4.87-15.17a2.45 2.45 0 0 1 2.78-1.85 3.25 3.25 0 0 1 3 2.66c1 4.34 2 8.7 3.34 12.94 2.16 6.69 5.58 12.83 9.2 18.82a69.4 69.4 0 0 1 6.86 15.56 18.91 18.91 0 0 1-1.4 15.41c-2.47 4.27-6.77 5.86-11.66 6.11-5.52.28-9.64-2.32-12.69-6.46-3.47-4.69-6-9.83-6-16 .02-3.65-.61-7.38-1.06-12.02zm28 18.81c-.73-2.14-1.4-4.31-2.21-6.43-1.45-3.83-1.48-3.81-4.05-.68-3 3.65-6.24 4.44-10.64 2.59-.56-.23-1.09-.51-1.64-.76-1.33-.59-1.77.08-1.79 1.29a6.33 6.33 0 0 0 .11 1.8c1.44 4.63 3.91 8.56 8.19 11.06 2.64 1.54 6.48.88 8.77-1.19s2.83-4.66 3.26-7.68zM369.07 618c.66-11 1.81-21.88 5.66-32.33.83-2.24 1-4.7 1.77-7 1.06-3.31 2.29-6.58 3.56-9.82.47-1.19 1.52-2.16 2.84-1.74a4.22 4.22 0 0 1 2.15 2 10.06 10.06 0 0 1 1.05 3.89c.59 7.93 2.24 15.53 6.18 22.54 2 3.56 3.81 7.24 5.67 10.88 2.31 4.52 4.39 9.21 4.82 14.27.42 4.9.35 9.91-2.22 14.47-3.3 5.84-8 7.76-14.08 7.11a42.22 42.22 0 0 1-4.28-.77 13.62 13.62 0 0 1-9.73-8 33.92 33.92 0 0 1-3.39-15.5zm6.34 2.35h.09c0 .73-.05 1.46 0 2.18.46 5.8 2.53 10.37 8.52 12.61a9.75 9.75 0 0 0 13.26-8.41c.32-5.14-2-9.59-3.43-14.28-.1-.31-.67-.48-1-.71a3.87 3.87 0 0 0-.52.86 22.7 22.7 0 0 1-.95 3.47 8.77 8.77 0 0 1-13.6 2.31c-.82-.73-1.61-1.5-2.41-2.25 0 1.16.05 2.33.07 3.5-.02.27-.03.51-.03.75zm191.85 75.75c-.55 4.61-.74 10.08-2 15.31s-3.69 9.66-8.86 12.6c-4.15 2.37-8.12 2.62-12.49 2a9.18 9.18 0 0 1-5.9-3.23c-2.61-3.11-4.7-6.54-4.93-10.69a20 20 0 0 1 .74-6c1.21-4.65 2.54-9.27 5-13.48a84.53 84.53 0 0 0 5.29-9.88c2.52-6 4.72-12.14 6.91-18.27a11.91 11.91 0 0 0 .43-4.27 3.18 3.18 0 0 1 2.31-3.3 2.76 2.76 0 0 1 3.64 1.59c2 4.52 4.12 9 5.69 13.69a81.6 81.6 0 0 1 2.73 12c.68 3.64.93 7.39 1.44 11.93zM547.64 720c2.57 0 8.33-2.5 10.08-4.38a3.79 3.79 0 0 0 1-1.45c.84-3.38 1.59-6.79 2.33-10.19.06-.29-.19-.64-.3-1-.32.11-.76.13-.95.36a7.8 7.8 0 0 1-5.06 2.54c-5 .65-8.57-1.25-11-5.74a6.67 6.67 0 0 0-1.08-1.18c-.24.25-.58.46-.69.76-1.41 3.82-2.83 7.65-2.81 11.82a8.3 8.3 0 0 0 8.48 8.46zM197 606.87c.45-7.31-.13-14.72 2.84-21.74 2.2-5.21 3.85-10.65 6.09-15.85 1.71-4 3.92-7.73 6-11.55a3.63 3.63 0 0 1 1.7-1.79c.95-.27 2.39-.36 3 .17a4.35 4.35 0 0 1 1.26 3.06c0 2.77-.67 5.58-.35 8.29a84.16 84.16 0 0 0 2.61 13.85c1 3.54 3 6.79 4.6 10.16a39 39 0 0 1 3.58 22.58c-.94 6.74-7.12 11.94-14.7 11.7-7.3-.23-11.23-4.83-14.69-10.27a14.24 14.24 0 0 1-1.94-4.28 19.53 19.53 0 0 1 0-4.33zm5.83-1.57h.11a21.49 21.49 0 0 1 0 2.54c-.45 4.14 2.63 6.56 4.56 9.55 1.28 2 3.47 1.56 5.24 2 4.13.93 9.06-2.38 9.63-6.55a39.87 39.87 0 0 0-.16-8.59 12.59 12.59 0 0 0-1.22-3.3 27.12 27.12 0 0 0-2.56 2.34 8.41 8.41 0 0 1-12.26.48c-1-1-1.83-2.15-2.73-3.24zm403.46-.43c.22 4.73-1.51 9-3.08 13.33a3.82 3.82 0 0 1-.57.92c-4.75 6-15.64 8.4-22.2 4.52-3.68-2.18-6.14-5.5-6.19-10.07a35.81 35.81 0 0 1 1.54-11.43c2.9-9.1 5.89-18.18 8.29-27.41 1-3.76.56-7.9.72-11.87 0-.71-.33-1.42-.34-2.14a3.17 3.17 0 0 1 2.28-3.33 3.47 3.47 0 0 1 4 1.71c2.92 5.69 6 11.3 8.65 17.13 3.47 7.77 6.61 20.25 6.9 28.64zm-25.68 5.28c.11 3.84.31 5 2.08 6.37a11.91 11.91 0 0 0 4.48 2.06c4.37 1 11.12-3.21 12.21-7.52a20.44 20.44 0 0 0 .79-3.9 9.14 9.14 0 0 0-.67-2.61 14.39 14.39 0 0 0-1.72 1.1 8.65 8.65 0 0 1-11.53.07l-3.77-3.15c-.5 1.73-1 3.44-1.47 5.19a23 23 0 0 0-.4 2.39zM335.39 725.72c.36-4.33.53-8.69 1.11-13 1.21-8.85 2.77-17.65 5.85-26.1a29.23 29.23 0 0 1 2.27-4.88c1.45-2.43 3.11-2.47 4.15.09a28.53 28.53 0 0 1 1.81 7.7 30.36 30.36 0 0 0 3.35 11c2.82 5.34 6 10.51 8.56 15.95 3.73 7.79 5.88 16.06 3.15 24.56a13.24 13.24 0 0 1-9 8.29 16.35 16.35 0 0 1-12.33-1.45 9.24 9.24 0 0 1-4.42-4.65c-2.42-5.58-4.34-11.23-4.5-17.51zm25.88 7.77c-.5-2.27-1.06-5-1.7-7.65a22.12 22.12 0 0 0-1-2.57c-.48.75-1 1.48-1.44 2.26-.29.52-.43 1.13-.69 1.67a5.93 5.93 0 0 1-5.77 3.6 10.89 10.89 0 0 1-6.7-2.35 10.21 10.21 0 0 0-1.55-.78 16.25 16.25 0 0 0-.43 1.93c-.38 3.52.81 6.56 2.47 9.65 2 3.65 5 4.71 8.67 4.62a7.54 7.54 0 0 0 7.17-5.24 28.06 28.06 0 0 0 .97-5.14z"/><path class="b" d="M395.58 174.23c9.75.49 19.81.54 29.75 1.66 6.16.69 12.5 1.21 18.39 3.75a34.12 34.12 0 0 0 6.67 1.57c7.66 1.56 14.66 5 21.69 8.12 6.48 2.87 12.48 6.87 18.52 10.65 4 2.49 8.29 4.5 11.69 7.87 3.58 3.54 8.06 6.12 10.78 10.61 1 1.69 2.86 2.89 4.29 4.35a4.42 4.42 0 0 1 .58 1.24 4.27 4.27 0 0 1-1.26-.25c-2.32-1.3-4.59-2.71-6.93-4a239 239 0 0 0-25.8-12.3c-6.17-2.41-12.25-5-18.4-7.49a27 27 0 0 0-4.85-1.34c-8.73-1.68-17.24-4.65-26.33-4.34-2.73.09-5.48-.6-8.24-.81-4.68-.36-9.37-.78-14.07-.88s-9.42.08-14.13.24c-2.16.07-4.31.33-6.45.61-3.58.47-7.15 1-10.72 1.53-2.39.35-4.79.64-7.16 1.11-7.23 1.42-14.42 3.09-21.68 4.34-7.55 1.3-14.68 4-21.89 6.33-6.75 2.22-13.34 4.93-20 7.37-4.85 1.78-9.76 3.39-14.6 5.21a31.21 31.21 0 0 0-4.36 2.44c-.82.48-1.6 1-2.45 1.46-.24.12-.66-.12-1-.19a4.28 4.28 0 0 1 .33-.64c.73-1 1.42-2 2.22-2.87 5.67-6.38 12.65-11.16 19.48-16.16 7.16-5.23 15-9.34 22.84-13.27 4-2 8.33-3.21 12.5-4.81 1.8-.69 3.53-1.61 5.37-2.13 5.1-1.44 10.23-2.73 15.36-4.07 3-.79 6.09-1.54 9.13-2.32a12.63 12.63 0 0 1 1.72-.54c6.21-.68 12.43-1.34 19.01-2.05z"/><path class="c" d="M284.2 510.75c-.72 3.17-1.44 6.1-2.06 9.06s-1.2 5.92-1.71 8.9c-.42 2.45-.5 2.57-3 1.66a49.47 49.47 0 0 0-21-3.16 51.27 51.27 0 0 0-10.7 1.73c-8.31 2.53-16.59 5.19-24.35 9.26-2.09 1.1-4.59 1.44-6.89 2.14a55.58 55.58 0 0 1-15.64 2.7c-4.91 0-9.83-.9-14.74-1.47-.38-.05-.7-.55-1.05-.84.34-.23.65-.6 1-.67 9.73-1.81 18.54-6 27-10.9 6.06-3.48 11.53-8 17.47-11.65 4.3-2.67 8.94-4.79 13.46-7.09 1.72-.87 3.62-1.43 5.29-2.38 8-4.59 16.78-5.86 25.8-5.79 4.3 0 7.54 2.4 10.13 5.61a8.5 8.5 0 0 1 .99 2.89z"/><path class="b" d="M293.36 410.33a112.68 112.68 0 0 0 4 25c1.38 5.14 3.26 10.14 4.6 15.29 1.6 6.19 3.37 12.41 4.14 18.73a52.6 52.6 0 0 1-1.33 18.75c-1.32 5.38-2.77 10.73-3.94 16.14a21.94 21.94 0 0 0 .53 12.53 7.89 7.89 0 0 0 6.31 5.35 44 44 0 0 0 15.1.59 4.54 4.54 0 0 1 1.49.3c-.27.38-.46.89-.82 1.11-1.55.93-3.17 1.77-4.74 2.66-5.37 3-10.61 6.33-16.13 9.05a17 17 0 0 1-11 1.35c-3.87-.79-5.9-3.87-5.39-7.76.45-3.46.84-6.94 1.32-10.41a15.61 15.61 0 0 1 .82-3.14c2.76-7.56 3.88-15.47 4.51-23.4.83-10.42-.54-20.69-2.38-31a105 105 0 0 1 .92-43.26c.63-2.6 1.32-5.21 1.99-7.88zm226.27 48.78c-1.54 9.77-3.11 19.52-4.61 29.29-1.08 7.07-1.87 14.2-.64 21.3a22.8 22.8 0 0 0 11.32 16.47 8.39 8.39 0 0 0 2.39.7c1.18.26 2.4.37 3.56.69a28 28 0 0 1 3 1.19c-.89.46-1.76 1-2.68 1.39-8.34 3.58-16.57 4-24.61-.86a25 25 0 0 0-2.89-1.54c-4.29-1.82-6.28-5.36-6.5-9.7a36.71 36.71 0 0 1 .86-10.41c2.19-8.92 4.88-17.71 7.2-26.59a114.86 114.86 0 0 0 2.61-40.94c-1.19-8.35-2.55-16.7-5.24-24.76-1.33-4-2.36-8.06-3.52-12.1-.09-.3-.13-.62-.19-.93l.53.49a2 2 0 0 1 .27.23c.22.29.45.57.64.88 3.49 5.74 7.23 11.35 10.4 17.26a65.18 65.18 0 0 1 7.7 29.2c.09 2.89 0 5.78 0 8.67zM227.19 511.2c-2.21 1.65-4.38 3.36-6.65 4.93-3.28 2.26-6.6 4.47-10 6.6-3 1.93-6.14 3.79-9.27 5.58-4.89 2.8-10.5 3.49-15.76 5.23-4.34 1.43-8.87.91-13.34.76-2.59-.09-4.41-1.89-6.16-3.54-1.17-1.09-.82-3.1.64-4.93 1.28-1.6 2.66-3.12 3.86-4.78 3.52-4.88 7.22-9.66 10.4-14.76a242.68 242.68 0 0 0 12.46-21.66c3.59-7.36 6.36-15.14 9.26-22.82 2.68-7.13 5-14.41 7.61-21.56 3.45-9.41 6.7-18.89 9.49-28.52a53.24 53.24 0 0 1 2.65-7.16c-.54 4.27-.85 8.59-1.68 12.81q-2.94 14.76-6.32 29.43c-1.22 5.27-2.89 10.44-4.41 15.64q-1.78 6.07-3.69 12.1a41.05 41.05 0 0 1-2.07 5.79c-3.13 6.49-5.6 13.29-9.73 19.33a24.75 24.75 0 0 0-4 11.93c-.19 2.09 1.21 3.31 2.54 4.56l1 .67a.45.45 0 0 0 .34.14l.49.23 1 .49 1.13.48a.84.84 0 0 0 .49.13 5.71 5.71 0 0 0 6.38-.15l.76-.17 3.66-.5 1.42-1.09 1.05-.24 1.11-.37 1.54-.52a.85.85 0 0 0 .61-.26l.44-.26a.64.64 0 0 0 .39-.22l6.09-2 1.19-.9 2.32-.7a1 1 0 0 0 .54-.06l.59-.39.89-.39z"/><path class="c" d="M419.3 543.73l-1.86-.84a11.76 11.76 0 0 1 1-1.3c9.46-9.17 18.85-18.41 28.46-27.43 4.13-3.88 8.7-7.3 13.1-10.9a5.7 5.7 0 0 1 1.59-.87c5.18-2 10.24-4.4 15.86-4.92 5.89-.53 10.78 2 15.24 5.48.61.47.68 2 .52 3-.65 3.91-1.89 7.73-1.31 11.78.16 1.14-.64 1.49-1.63 1.27-.58-.13-1.1-.63-1.67-.68a27.09 27.09 0 0 0-6.4-.29 51.09 51.09 0 0 0-7.65 2.18c-5.83 1.85-10.92 5.06-15.84 8.62-1.65 1.19-3.61 1.94-5.33 3-7.21 4.62-15.32 7.14-23.31 9.88-3.35 1.21-7.07 1.38-10.77 2.02zm196.6-1.31c-8-.84-16.86-1.75-25.4-4.73-7.51-2.62-15.19-4.78-22.85-6.94-3.58-1-7.3-1.51-10.94-2.27a5 5 0 0 1-1.17-.64c.26-.35.46-.86.8-1a87.61 87.61 0 0 1 9.06-3.61q12.35-3.59 24.8-6.76c9.45-2.44 18.74-1.37 27.68 2.24 3.86 1.57 6.67 4.76 9.29 8a21 21 0 0 1 4.3 7.89c.71 2.71.25 4.08-2.41 5.17a30.9 30.9 0 0 1-13.16 2.65z"/><path class="a" d="M446.49 336.32a8.22 8.22 0 0 1-6.15-1.68 10.39 10.39 0 0 0-3.26-1.53c-9.29-2.83-13.58-14.21-11.82-21.63a16.41 16.41 0 0 1 .78-3.16c.91-2 2-3.84 3-5.75 1.35-2.53 3.9-1.53 5.83-1.71 12.11-1.1 22 3.11 29.58 12.74a24.33 24.33 0 0 1 2.5 3.11c1.2 2.2 2.23 4.5 3.21 6.81.72 1.68 0 2.93-1.31 4.13-6.28 5.96-13.85 8.43-22.36 8.67zm-3.4-16.4a12 12 0 0 0 0 1.8c.42 2.82 1.94 3.56 4.61 4.37 1.6.49 3.61-.83 4.53-2.84a7.77 7.77 0 0 0 .09-6.63 4.31 4.31 0 0 0-5.68-2.33c-2.29.81-3.44 2.62-3.55 5.63zm-78.76-21.98c2.52.69 5 1.52 7.57 2a3.93 3.93 0 0 1 2.8 2.55 17.45 17.45 0 0 1 .73 15.08 26.61 26.61 0 0 1-10.65 12.46 33 33 0 0 1-14.51 5.06 24.21 24.21 0 0 1-6.4-.81c-4.19-.81-7.31-3.56-10.49-6.14a2 2 0 0 1-.25-1.58c.6-3.21 1.06-6.47 2-9.59a21.47 21.47 0 0 1 8.72-12.08 38 38 0 0 1 20.48-6.95zm-.76 20.25c.2-2.49-2.42-5.51-4.95-5.7-3.08-.24-6.12 2.75-6.27 6.17-.11 2.35 2.39 5 5 5.36s5.97-2.71 6.22-5.83z"/><path class="c" d="M382.41 528.39c-.29 3-.39 3.22-3.42 2.45-5.12-1.29-10-.38-15 .71-10 2.17-19.29 6.23-28.82 9.67a53.11 53.11 0 0 1-31.35 1.86 1.11 1.11 0 0 1-.74-.6c-.05-.22.24-.65.49-.78 7.21-3.92 14.46-7.79 21.65-11.74 1.14-.63 2-1.79 3.11-2.47 6.71-4.08 13.2-8.59 20.93-10.71a37.22 37.22 0 0 1 16.15-1.24 29.24 29.24 0 0 1 15.25 7.88c1.11 1.08 1.19 3.28 1.75 4.97z"/><path class="b" d="M576.09 403.48c.88 3 1.78 6 2.63 8.95a45.35 45.35 0 0 0 1.36 5.09c2 4.88 4.29 9.67 6.38 14.54 2.51 5.88 4.95 11.78 7.39 17.69 1.71 4.14 3.16 8.39 5.08 12.41 2.87 6 6.06 11.82 9.12 17.72 1.45 2.78 2.83 5.61 4.4 8.32 1.27 2.18 2.75 4.25 4.22 6.31 2 2.82 4.45 5.42 6.15 8.42 2.66 4.7 6.09 9 7.83 14.22.78 2.33 2.15 4.45 3.13 6.73a7.44 7.44 0 0 1 .51 3.55c-2.13-2.57-4.15-5.25-6.42-7.69-4.47-4.81-10.28-7.06-16.56-8.33a46.74 46.74 0 0 0-11.12-1.34c-1.82.06-2.1-.48-1.15-1.89 3.53-5.25 3.12-11 2.37-16.84-.91-7-3.53-13.56-5.87-20.15-2.91-8.19-6-16.34-9.46-24.3-3.87-8.83-5.79-18.1-7.89-27.42A122.25 122.25 0 0 1 576 403.4zM443.22 511c-1.47 1.37-3 2.71-4.39 4.11-5.1 5-10.09 10.07-15.31 14.92-4.39 4.08-8.52 8.64-14.65 10.32-9.3 2.55-17.6 1.41-20.67-10.42a43.28 43.28 0 0 1-1.05-10.74c0-4.46.5-8.92.75-13.38a44.46 44.46 0 0 0 .18-5.76c-.52-7.34-1.16-14.67-1.75-22a15.4 15.4 0 0 1 0-1.8 2.57 2.57 0 0 1 .2-.69c.22.22.59.4.65.66 1.78 7.16 3.67 14.28 5.23 21.49 1.52 7 3.44 13.83 8.4 19.28a24.3 24.3 0 0 0 5.56 4.6c3.17 1.87 6.42 1.8 10 .46 8-3 15-7.7 22.65-11.17a17.1 17.1 0 0 0 2.86-2.06c1.2-.19 2.27-.21 2.06 1.51z"/><path class="a" d="M392.82 286.2c-3.72-7.46-4-15.41-3.14-23.44.62-5.53 1.76-11 2.66-16.51a51.89 51.89 0 0 1 4.91-3.64c2.91-1.7 5.9-2.58 9.12-.37a23.07 23.07 0 0 0 4.65 1.92c1 4.58 2.26 9.13 3.08 13.75 1 5.5-.58 10.81-1.92 16.08-.77 3-1.77 6-2.67 9-1.06 1-2.17 1.87-3.17 2.88-2.66 2.65-5.6 3.58-9.17 1.86a40.73 40.73 0 0 0-4.35-1.53zm5-23.55c0 2.93 1.38 4.36 4.08 4.37a5 5 0 0 0 4.94-5.15 5.16 5.16 0 0 0-4.83-4.56c-2.34-.01-4.2 2.36-4.16 5.34z"/><path class="c" d="M361.06 291.45c-7.18 2-13.42 3.57-18.77 7.27-7.66 5.29-13 12.17-14.08 21.8a5.59 5.59 0 0 1-.63 1.48 8.36 8.36 0 0 1-1.27-1.17c-5-6.95-7.72-15-10.45-22.93-1.57-4.57-2.88-9.23-4.27-13.85a11.77 11.77 0 0 1-.24-2 15.79 15.79 0 0 1 1.7.21c4.81 1.11 9.59 2.42 14.45 3.29 3.9.71 7.91.84 11.86 1.33 2.49.3 5 .8 7.46 1.18 2.13.33 4.31.46 6.41 1 2.41.55 4.77 1.42 7.83 2.39zm93.2-.69c1.9-.28 3.8-.57 5.71-.84a90.94 90.94 0 0 1 9.66-1.28c6.09-.19 11.48-2.36 16.75-5.11a6.39 6.39 0 0 1 1.66-.39c.07.57.17 1.15.21 1.73a2 2 0 0 1-.15.71q-5.37 15.17-10.76 30.32a11.69 11.69 0 0 1-.9 2c-.51.85-1.34.89-1.62 0-1-3.31-3.77-5.24-5.73-7.8A48.31 48.31 0 0 0 458 299.81a30.58 30.58 0 0 0-11.27-4.81c-.82-.18-1.64-.38-2.45-.63a10.12 10.12 0 0 1-1.31-.56 5.62 5.62 0 0 1 1.14-1.19 17.13 17.13 0 0 1 10.15-1.86z"/><path class="a" d="M278.55 359.38c.16 1.11.43 2.9.64 4.69.46 4-.1 7.71-2.63 11-2.32 3-5.33 3.85-9 3.23s-5.57-2.78-6.67-5.91a13.63 13.63 0 0 1-.83-5c.34-8.45 2.44-16.4 7.3-23.48l6-9a13 13 0 0 1 1.86-2.2c.14-.13 1.11.24 1.13.44.84 8.28 1.61 16.56 2.38 24.85a11.55 11.55 0 0 1-.18 1.38zm246.93-28.02c7.67 6.61 14 14.58 16.58 24.94 1.24 5.08 2.64 10.24.48 15.62-2.08 5.17-7.41 7.63-12.34 5.08-3.26-1.69-3.81-4.85-3.82-8 0-7.12.3-14.24.17-21.36-.11-5.52-.71-11-1.07-16.28zm-61.69 94.51c-.32 2.37-.33 5.47-1.2 8.31-1.68 5.46-5 7.78-10.49 7.5a5 5 0 0 1-4.5-3.65 9.77 9.77 0 0 1-.6-4.25c.63-4.53 1.57-9 2.32-13.51.7-4.27 1.36-8.55 1.93-12.84s1-8.37 1.48-12.55a3.53 3.53 0 0 1 .38-.85 3.3 3.3 0 0 1 .78.64 49 49 0 0 1 6.75 14.33c1 3.47 1.88 7 2.62 10.5a57.63 57.63 0 0 1 .53 6.37zm-124.62-.68a54.81 54.81 0 0 1 4.06-18.32c1.35-3.23 2.63-6.48 4-9.69.24-.57.91-.95 1.38-1.42a8.65 8.65 0 0 1 .41 1.63 74.15 74.15 0 0 0 5.2 23.22 26.24 26.24 0 0 1 .42 17.4 6.46 6.46 0 0 1-6.12 4.84c-3.44.32-5.47-1.69-7-4.24a13.69 13.69 0 0 1-1.55-4.79c-.39-2.63-.5-5.3-.8-8.63z"/><path class="c" d="M491.26 325.41c-1.59 5.23-2.61 10.69-5.61 15.39a48.83 48.83 0 0 1-4.4 6.16c-8.65 9.69-22.1 14.66-34.39 10.61-.23-.08-.47-.13-.69-.22l-3.08-1.23a25.29 25.29 0 0 1 3-.95 58.16 58.16 0 0 0 22.35-9c6.65-4.46 12.88-9.33 16.94-16.49a31.34 31.34 0 0 1 3.71-4.4l.95-1.35c.13-.33.27-.66.4-1l.19-.4.79-1.46c.54-.05 1.28-1.48 1.83-1.54-.25.91-.69 3.2-.93 4.11zm-182.05-10.06c1.25 2.17 2.44 4.37 3.75 6.5 2.86 4.61 5.71 9.23 8.71 13.75a20.65 20.65 0 0 0 3.34 3.26c3.9 3.61 7.8 7.18 12.47 9.86a59.4 59.4 0 0 0 11.95 4.91c1.14.36 2.25.79 3.73 1.32-6.52 2-12.55 1.2-18.4-.88a30.94 30.94 0 0 1-14.84-11.19 38.26 38.26 0 0 1-3.47-5.94c-3.32-6.85-6.62-13.72-7.24-21.59z"/><path class="b" d="M411 244.16a23.07 23.07 0 0 1-4.65-1.92c-3.22-2.21-6.21-1.33-9.12.37-1.75 1-4.79 2.41-6.42 3.64 0 0 6-15.78 7.23-19.54.55-1.7 1-3.43 1.68-5.1a1.43 1.43 0 0 1 1.29-.28 5.75 5.75 0 0 1 1.11 1.83q4.48 10.49 8.88 21zm-18.18 42.04a40.73 40.73 0 0 1 4.35 1.53c3.57 1.72 6.51.79 9.17-1.86 1-1 2.11-1.92 3.17-2.88a12.75 12.75 0 0 1-.79 3.47c-2.28 4-3 8.53-4.21 12.9-.91 3.37-1.92 6.72-2.93 10.06-.11.39-.52.69-.79 1a4 4 0 0 1-.84-1.09q-3.56-10.85-7-21.72a6.23 6.23 0 0 1-.13-1.41zm-165.63 225l-.73-1.13c2.58-2.24 6-2.08 9-3.23.15-.06.41.15.62.23-.11.21-.18.56-.33.6-3.02.78-5.19 3.61-8.56 3.53zm348.9-107.72l-.14-.08a14.07 14.07 0 0 1-.92-2.94 20.49 20.49 0 0 1 .28-3.56 28.17 28.17 0 0 1 1 3.75 11.9 11.9 0 0 1-.22 2.83zM443.94 510.29c.21-1.72-.86-1.7-2.06-1.51.25-.24.45-.61.75-.71 1.27-.41 2.58-.74 3.87-1.09zm-240.03 7.86a5.71 5.71 0 0 1-6.38.15zm17.02-5.64l-6.09 2a8.55 8.55 0 0 1 6.09-2zm-12.6 4.97l-3.66.5zM490.07 324l-.95 1.35z"/><path d="M491.26 325.41l1.09-1.71c.4 1.05-.16 1.5-1.09 1.71z"/><path class="b" d="M224.44 510.91l-2.32.7zm-10.99 4.35l-1.54.52zM197 518.17l-1.13-.48zm13.8-2.02l-1.05.24zm-16.72.68l-1-.67zm.83.37l-.49-.23h.33zm19.54-2.47l-.45.27.14-.27zM443.22 511l.71-.64zm-217.65-.54l-.59.39z"/><path class="c" d="M373.89 105.52c-.24-6.86-1.28-13.5-4.28-19.73-.45-.93-.45-1.64.8-1.8 5.18-.68 9.6-3.27 13.75-6.09 4.36-3 8.9-5.88 12.12-10.25a66.45 66.45 0 0 0 4.05-6c1.34-2.28 1.38-2.37 3-.17a79.68 79.68 0 0 0 15.75 15.91 43.62 43.62 0 0 0 5 2.84c.26.15.38.54.56.81-.27.17-.52.46-.81.48-6.12.63-11.48 3.5-17.13 5.61-10 3.74-17.79 10.39-25.07 17.88-2.6 2.66-5.55 5-7.07 8.55-.1.23-.56.3-.85.44a3 3 0 0 1-.3-1c.15-2.43.32-5 .48-7.48z"/><path class="b" d="M261.59 118.82v-1.81c.16-4.36.35-4.6 4.19-2.56a39.67 39.67 0 0 0 22.31 4.65c1.37-.11.92.74.57 1.34a75.34 75.34 0 0 1-4.32 7.12 61.73 61.73 0 0 0-10.65 23.17c-1 4.45-1.58 9-2.38 13.52a8.78 8.78 0 0 1-.58 1.6 7.48 7.48 0 0 1-1.43-1.31c-2.73-4.29-5.35-8.7-9.63-11.67-2.26-1.57-4.72-2.86-7.13-4.2-2.62-1.45-2.83-1.56-1-4a48 48 0 0 0 7.64-13.91 35.7 35.7 0 0 0 2.41-11.94zm277.35 19.62c-4.09.22-8.19.43-12.28.67-8.94.54-17.19 3.41-25.12 7.38l-.94.45a4.64 4.64 0 0 1 0-1.29c1.31-4.9 2.88-9.74 3.91-14.69.57-2.79.26-5.76.36-8.65 0-1 .12-1.94.18-2.91.07-1.32.82-1.5 2-1.3a52.11 52.11 0 0 0 8.55 1.16 36.31 36.31 0 0 0 7.8-1.29c4.94-1.1 9.85-2.34 14.78-3.52 1.21-.29 1.79.16 1.84 1.44 0 1.45.22 2.9.36 4.34a44.45 44.45 0 0 0 5.26 16.86c1 1.78.83 1.82-1.28 1.73-1.79-.07-3.59 0-5.39 0z"/><path class="c" d="M202.57 263.22c-4-2.7-7.91-5.48-12.57-7.05a18.61 18.61 0 0 0-7-1.37c-2.25.12-2.87-.52-2.26-2.45 2.26-7.15.62-14.12-1-21-.53-2.29-2-4.36-3-6.55s-1-2.47 1.43-2.21a28.49 28.49 0 0 0 19.83-5.26 4.71 4.71 0 0 1 1.2-.4 5.58 5.58 0 0 1 .06 1.07c-.4 2.5-.87 5-1.24 7.49-.91 6.15-.27 12.32.34 18.41.42 4.26 2.08 8.4 3.18 12.59.55 2.09 1.09 4.19 1.64 6.29z"/><path class="a" d="M203.13 262.78l.33 1.23-.89-.8z"/><path class="c" d="M624 228.87a50.84 50.84 0 0 0-1.27 6.24c-.33 4.09-.39 8.2-.59 12.3a11.53 11.53 0 0 1-.35 1.71 6.66 6.66 0 0 1-1.83-.76 57 57 0 0 0-17.42-10.19 44.19 44.19 0 0 0-10.85-2.6c-3.82-.38-7.58-1.43-11.48-1.06a2.49 2.49 0 0 1-.7-.14c.15-.27.23-.62.46-.79a56 56 0 0 0 14-16c1.38-2.39 1.69-2.43 3.56-.19a33.59 33.59 0 0 0 9.93 7.77 19.51 19.51 0 0 0 12.23 2.29c.84-.11 1.69-.15 2.53-.27 1.52-.18 2.06.46 1.78 1.69zM495.77 657.29c-2.78-.23-5.55-1.1-7.16-3.84-2.81-4.8-2.81-9.85-.81-14.93.64-1.63.94-1.53 2.21-.21s2.91 2.81 4.45 4.13c2.41 2.07 5.33 1.32 8 .87 1.27-.21 2.27-1.93 3.42-2.94a15 15 0 0 1 1.36-1c.22.62.73 1.3.61 1.84-.76 3.28-1.56 6.57-2.55 9.79-1.43 4.48-5.06 5.87-9.53 6.29zm-182.04-20.74c-.5 4.62-.67 8.61-1.42 12.5a7.93 7.93 0 0 1-13.24 4.23c-3.51-3.13-5-7.3-5.9-11.76a14.9 14.9 0 0 1-.38-3.57 15.21 15.21 0 0 1 .79-3 13.88 13.88 0 0 1 2.34 1.36c2.2 1.87 4.53 3 7.59 2.61 3.4-.42 5.41-2.4 6.88-5.21.33-.63.46-1.37.76-2a3.31 3.31 0 0 1 .66-.8c.23.24.58.45.65.73.54 1.8.96 3.67 1.27 4.91z"/><path class="b" d="M426.47 702.33c1-3.25 1.95-6.46 3-9.65a1.18 1.18 0 0 1 .79-.61c.15 0 .46.4.59.67 2.07 4.26 8.07 5.59 12.25 2.63 1.18-.83 2.12-2 3.24-2.9a5.57 5.57 0 0 1 1.52-.62 4.11 4.11 0 0 1 .44 1.29c.08 5.61-1.27 10.78-5.05 15.06-3.42 3.87-11.47 4-14.72 0-1.21-1.44-1.36-3.72-2.06-5.87zM264 708.17c-.4 3-1 5.64-3.26 7.68s-6.13 2.73-8.77 1.19c-4.28-2.5-6.75-6.43-8.19-11.06a6.33 6.33 0 0 1-.11-1.8c0-1.21.46-1.88 1.79-1.29.55.25 1.08.53 1.64.76 4.4 1.85 7.66 1.06 10.64-2.59 2.57-3.13 2.6-3.15 4.05.68.78 2.12 1.45 4.26 2.21 6.43z"/><path class="c" d="M375.41 620.38v-.72c0-1.17-.05-2.34-.07-3.5.8.75 1.59 1.52 2.41 2.25a8.77 8.77 0 0 0 13.6-2.31 22.7 22.7 0 0 0 .95-3.47 3.87 3.87 0 0 1 .52-.86c.36.23.93.4 1 .71 1.44 4.69 3.75 9.14 3.43 14.28a9.75 9.75 0 0 1-13.25 8.41c-6-2.24-8.06-6.81-8.52-12.61-.05-.72 0-1.45 0-2.18z"/><path class="b" d="M547.64 720a8.3 8.3 0 0 1-8.46-8.43c0-4.17 1.4-8 2.81-11.82.11-.3.45-.51.69-.76a6.67 6.67 0 0 1 1.08 1.18c2.45 4.49 6 6.39 11 5.74a7.8 7.8 0 0 0 5.06-2.54c.19-.23.63-.25.95-.36.11.33.36.68.3 1-.74 3.4-1.49 6.81-2.33 10.19a3.79 3.79 0 0 1-1 1.45c-1.74 1.82-7.53 4.35-10.1 4.35z"/><path class="c" d="M202.78 605.3c.19-1.6.39-3.2.59-4.8.9 1.09 1.73 2.24 2.73 3.24a8.41 8.41 0 0 0 12.26-.48 27.12 27.12 0 0 1 2.56-2.34 12.59 12.59 0 0 1 1.22 3.3 39.87 39.87 0 0 1 .16 8.59c-.57 4.17-5.5 7.48-9.63 6.55-1.77-.4-4 0-5.24-2-1.93-3-5-5.41-4.56-9.55a21.49 21.49 0 0 0 0-2.54zm377.83 4.85a23 23 0 0 1 .4-2.39c.43-1.75 1-3.46 1.47-5.19l3.77 3.15a8.65 8.65 0 0 0 11.53-.07 14.39 14.39 0 0 1 1.72-1.1 9.14 9.14 0 0 1 .67 2.61 20.44 20.44 0 0 1-.79 3.9c-1.09 4.31-7.84 8.56-12.21 7.52a11.91 11.91 0 0 1-4.48-2.06c-1.77-1.38-1.97-2.52-2.08-6.37z"/><path class="b" d="M361.27 733.49a28.06 28.06 0 0 1-.93 5.14 7.54 7.54 0 0 1-7.17 5.24c-3.66.09-6.71-1-8.67-4.62-1.66-3.09-2.85-6.13-2.47-9.65a16.25 16.25 0 0 1 .43-1.93 10.21 10.21 0 0 1 1.55.78 10.89 10.89 0 0 0 6.7 2.35 5.93 5.93 0 0 0 5.77-3.6c.26-.54.4-1.15.69-1.67.44-.78 1-1.51 1.44-2.26a22.12 22.12 0 0 1 1 2.57c.6 2.68 1.16 5.38 1.66 7.65z"/><path d="M443.09 319.92c.11-3 1.26-4.82 3.57-5.63a4.31 4.31 0 0 1 5.68 2.33 7.77 7.77 0 0 1-.09 6.63c-.92 2-2.93 3.33-4.53 2.84-2.67-.81-4.19-1.55-4.61-4.37a12 12 0 0 1-.02-1.8zm-79.52-1.73c-.25 3.12-3.5 6.16-6.22 5.83s-5.11-3-5-5.36c.15-3.42 3.19-6.41 6.27-6.17 2.53.19 5.15 3.21 4.95 5.7zm34.28-55.54c0-3 1.82-5.35 4.19-5.34a5.16 5.16 0 0 1 4.83 4.56 5 5 0 0 1-4.94 5.15c-2.7-.02-4.04-1.44-4.08-4.37zm175.34 132.9l5.41 2.59-2.23 5.34-1.49.16-1.69-8.09z"/></svg>