<svg xmlns="http://www.w3.org/2000/svg" xmlns:xlink="http://www.w3.org/1999/xlink" viewBox="0 0 800 800"><defs><style>.cls-1,.cls-3,.cls-6{fill:none;}.cls-2{isolation:isolate;}.cls-3{stroke:#000;stroke-width:8px;}.cls-3,.cls-6{stroke-linejoin:bevel;}.cls-4{clip-path:url(#clip-path);}.cls-5{fill:red;}.cls-6{stroke:red;}.cls-7{mix-blend-mode:multiply;}.cls-8{fill:#fff;}</style><clipPath id="clip-path"><polyline class="cls-1" points="184.43 312.51 186.65 315.4 188.89 318.27 191.07 321.19 193.25 324.1 195.47 327 197.52 330.01 199.8 332.86 202.08 335.7 204.14 338.71 206.38 341.59 208.58 344.49 210.86 347.34 212.97 350.31 215.31 353.11 217.53 356 219.6 359 221.86 361.86 224.14 364.69 226.31 367.62 228.46 370.57 230.66 373.47 232.89 376.36 235.13 379.23 237.24 382.21 239.6 384.99 241.76 387.93 243.84 390.94 246.2 393.72 248.24 396.75 250.61 399.53 252.82 402.43 254.96 405.39 257.13 408.33 259.41 411.19 262.94 412 266.51 412.62 270.09 413.23 273.65 413.9 277.23 414.55 280.83 415.04 284.45 415.44 288.03 416.05 291.61 416.67 295.24 416.98 298.83 417.53 302.42 418.06 306.04 418.34 309.64 418.81 313.26 419.12 316.87 419.5 320.48 419.93 324.12 420.08 327.73 420.43 331.35 420.73 334.97 421.14 338.61 421.22 342.24 421.47 345.85 421.85 349.49 421.85 353.11 422.24 356.75 422.19 360.38 422.39 364.02 422.45 367.65 422.52 371.28 422.74 374.92 422.86 378.56 422.68 382.19 422.81 385.83 422.69 389.47 422.81 393.11 422.81 396.74 422.51 400.39 422.64 403.96 422.42 407.54 422.44 411.11 422.12 414.69 422.11 418.27 421.99 421.85 421.95 425.42 421.85 429 421.76 432.58 421.64 436.15 421.52 439.73 421.37 443.31 421.21 446.88 421.07 450.45 420.83 454.03 420.74 457.61 420.61 461.17 420.32 464.75 420.2 468.32 420.09 471.89 419.86 475.47 419.67 479.04 419.41 482.6 419.1 486.16 418.72 489.74 418.54 493.3 418.15 496.86 417.81 500.42 417.48 503.96 416.94 507.51 416.52 511.03 415.93 514.57 415.44 518.11 414.89 521.64 414.29 525.15 413.6 528.62 412.74 532.09 411.9 535.48 410.77 538.91 409.76 542.21 408.38 545.48 406.95 548.66 405.31 550.63 402.23 552.42 399.05 554.36 395.95 556.29 392.85 558.07 389.65 559.9 386.5 561.87 383.41 563.66 380.23 565.55 377.1 567.56 374.05 569.35 370.86 571.25 367.74 573.12 364.61 575.03 361.5 576.88 358.35 578.92 355.31 580.62 352.07 582.55 348.97 584.52 345.88 586.39 342.75 588.23 339.59 590.26 336.54 592.09 333.37 594 330.25 595.88 327.12 597.77 323.99 599.64 320.85 601.54 317.71 603.38 314.54"/></clipPath></defs><title>fish soup</title><g class="cls-2"><g id="Layer_1" data-name="Layer 1"><polygon class="cls-3" points="448.86 515.76 446.19 513.66 442.73 512.84 439.25 512.15 435.76 511.44 432.22 511.12 428.69 510.67 425.15 510.42 421.59 510.36 418.05 510.11 414.5 509.94 410.95 509.72 407.4 509.63 403.84 509.56 400.28 509.71 396.73 509.67 393.17 509.69 389.61 509.83 386.06 509.92 382.51 510.11 378.95 510.14 375.42 510.59 371.86 510.69 368.34 511.14 364.83 511.68 361.32 512.2 357.81 512.74 354.4 513.75 351.78 515.76 354.43 517.7 357.84 518.67 361.31 519.41 364.82 519.97 368.35 520.34 371.88 520.71 375.42 521.05 378.96 521.32 382.52 521.38 386.06 521.51 389.61 521.8 393.17 521.78 396.72 521.93 400.28 521.96 403.84 521.77 407.4 521.83 410.95 521.68 414.51 521.65 418.06 521.52 421.6 521.19 425.15 521.03 428.68 520.63 432.23 520.42 435.76 519.99 439.25 519.34 442.74 518.67 446.17 517.79 448.86 515.76"/><polygon class="cls-3" points="488.81 469.76 486.51 467.19 483.16 465.81 479.69 464.76 476.15 464.01 472.58 463.34 469.01 462.73 465.44 462.13 461.85 461.65 458.25 461.26 454.63 461.03 451.03 460.53 447.41 460.31 443.8 460.05 440.18 459.86 436.56 459.6 432.94 459.46 429.32 459.09 425.69 459.02 422.07 458.85 418.44 458.72 414.81 458.67 411.18 458.61 407.55 458.64 403.92 458.7 400.28 458.55 396.65 458.64 393.02 458.73 389.39 458.6 385.77 458.72 382.14 458.9 378.52 458.99 374.89 459.13 371.27 459.3 367.65 459.41 364.03 459.66 360.4 459.77 356.78 460.08 353.15 460.21 349.54 460.69 345.93 461 342.32 461.38 338.72 461.77 335.12 462.22 331.54 462.75 327.94 463.2 324.4 464.02 320.86 464.78 317.42 465.9 314 467.1 311.63 469.76 314.03 472.36 317.41 473.69 320.86 474.79 324.43 475.46 327.98 476.16 331.53 476.93 335.13 477.35 338.71 477.9 342.32 478.28 345.94 478.47 349.55 478.86 353.16 479.17 356.76 479.55 360.38 479.79 364 480.04 367.63 480.06 371.25 480.29 374.87 480.47 378.5 480.53 382.13 480.68 385.75 480.73 389.38 480.95 393.02 480.79 396.65 481.02 400.28 480.94 403.91 480.81 407.54 480.79 411.17 480.89 414.8 480.77 418.42 480.61 422.05 480.5 425.67 480.4 429.3 480.31 432.92 480.18 436.54 479.92 440.17 479.72 443.79 479.52 447.42 479.27 451.02 478.83 454.63 478.48 458.26 478.26 461.85 477.75 465.45 477.38 469.05 476.87 472.59 476.11 476.17 475.52 479.68 474.66 483.18 473.73 486.54 472.37 488.81 469.76"/><polygon class="cls-3" points="249.83 406.89 251.52 403.91 254.55 401.98 257.94 400.82 261.32 399.66 264.71 398.49 268.21 397.71 271.72 396.97 275.22 396.21 278.78 395.78 282.29 395.01 285.84 394.52 289.4 394.12 292.93 393.52 296.5 393.19 300.05 392.65 303.61 392.34 307.17 391.89 310.73 391.58 314.3 391.19 317.87 390.97 321.45 390.75 325.02 390.42 328.59 390.11 332.17 389.89 335.76 389.8 339.34 389.59 342.91 389.23 346.49 389.09 350.08 388.96 353.66 388.94 357.24 388.69 360.82 388.51 364.41 388.5 367.99 388.42 371.58 388.21 375.16 388.1 378.75 388.07 382.33 387.97 385.92 387.95 389.51 388.03 393.1 387.92 396.69 387.77 400.28 387.79 403.87 387.82 407.45 388.01 411.04 387.82 414.62 388.02 418.21 388.01 421.79 388.1 425.38 388.08 428.96 388.12 432.54 388.43 436.13 388.33 439.71 388.64 443.29 388.75 446.88 388.92 450.47 388.88 454.05 389.14 457.62 389.43 461.2 389.56 464.78 389.82 468.37 389.97 471.95 390.12 475.53 390.37 479.1 390.75 482.68 390.9 486.24 391.28 489.82 391.52 493.38 391.91 496.95 392.25 500.51 392.7 504.07 393.09 507.63 393.53 511.19 393.95 514.74 394.46 518.29 394.98 521.81 395.69 525.34 396.32 528.85 397.04 532.35 397.8 535.81 398.72 539.26 399.67 542.7 400.66 546 402.06 549.03 403.95 550.84 406.89 549 409.82 545.98 411.72 542.68 413.12 539.28 414.23 535.81 415.12 532.33 415.96 528.83 416.75 525.34 417.57 521.79 418.05 518.27 418.72 514.73 419.26 511.19 419.83 507.63 420.26 504.08 420.75 500.5 420.97 496.95 421.44 493.39 421.76 489.82 422.08 486.26 422.44 482.69 422.74 479.12 423.11 475.55 423.46 471.97 423.58 468.39 423.89 464.82 424.18 461.23 424.21 457.65 424.46 454.07 424.73 450.49 424.88 446.91 425.05 443.33 425.22 439.74 425.28 436.16 425.45 432.57 425.45 428.99 425.61 425.4 425.55 421.82 425.79 418.23 425.83 414.65 425.89 411.06 425.89 407.47 425.91 403.88 425.93 400.28 425.78 396.7 425.92 393.11 425.85 389.53 425.94 385.94 425.7 382.36 425.67 378.78 425.65 375.19 425.65 371.61 425.48 368.02 425.53 364.44 425.41 360.86 425.11 357.27 425.09 353.69 424.86 350.11 424.74 346.51 424.77 342.94 424.53 339.35 424.33 335.78 424.01 332.2 423.79 328.62 423.53 325.04 423.45 321.46 423.12 317.89 422.8 314.32 422.56 310.75 422.2 307.18 421.89 303.63 421.36 300.05 421.18 296.51 420.57 292.94 420.22 289.37 419.86 285.82 419.35 282.29 418.66 278.75 418.13 275.21 417.56 271.69 416.87 268.19 416.09 264.73 415.18 261.29 414.18 257.87 413.12 254.57 411.72 251.54 409.82 249.83 406.89"/><polyline class="cls-3" points="448.95 515.83 451.38 513.12 453.83 510.42 456.4 507.83 458.9 505.19 461.31 502.47 463.91 499.91 466.33 497.19 468.89 494.59 471.31 491.88 473.86 489.27 476.32 486.59 478.74 483.86 481.31 481.27 483.8 478.62 486.27 475.95 488.75 473.27 491.2 470.58 493.85 468.07 496.19 465.27 498.71 462.64 501.18 459.95 503.81 457.44 506.21 454.7 508.65 451.99 511.31 449.5 513.77 446.82 516.12 444.02 518.67 441.42 521.18 438.77 523.62 436.07 526.27 433.56 528.63 430.77 531.16 428.15 533.74 425.56 536.14 422.82 538.72 420.25 541.13 417.5 543.68 414.9 546.12 412.18 548.65 409.54 551.1 406.82"/><polyline class="cls-3" points="249.34 406.94 251.92 409.51 254.35 412.23 256.87 414.86 259.41 417.46 261.81 420.2 264.33 422.82 266.9 425.41 269.39 428.06 271.92 430.69 274.34 433.4 276.82 436.07 279.28 438.76 281.74 441.45 284.21 444.13 286.79 446.7 289.36 449.28 291.72 452.06 294.27 454.67 296.68 457.4 299.31 459.92 301.69 462.7 304.18 465.35 306.73 467.94 309.27 470.55 311.69 473.27 314.18 475.93 316.75 478.52 319.13 481.27 321.71 483.86 324.14 486.57 326.7 489.17 329.15 491.87 331.68 494.5 334.26 497.08 336.67 499.81 339.17 502.46 341.69 505.1 344.21 507.74 346.75 510.36 349.1 513.17 351.75 515.7"/><polyline class="cls-3" points="394.48 521.85 392.81 518.63 391.3 515.33 390.04 511.93 388.63 508.59 387.21 505.25 385.99 501.83 384.95 498.35 383.6 494.98 382.58 491.49 381.54 488.01 380.47 484.54 379.37 481.09 378.4 477.6 377.6 474.06 376.51 470.6 375.67 467.07 374.99 463.5 374.18 459.96 373.5 456.4 372.79 452.84 372.01 449.29 371.46 445.7 370.83 442.13 370.2 438.55 369.81 434.94 369.29 431.35 368.75 427.76 368.34 424.15 367.93 420.55 367.69 416.92 367.42 413.3 367.22 409.67 367.06 406.05 366.92 402.42 366.66 398.79 366.46 395.16 366.59 391.52 366.49 387.89"/><polyline class="cls-3" points="370.33 520.93 368.21 518.03 366.11 515.11 364.1 512.13 361.97 509.23 359.93 506.27 358.04 503.21 356.05 500.22 353.96 497.28 352.11 494.2 350.21 491.14 348.34 488.07 346.5 484.98 344.59 481.93 342.72 478.86 340.95 475.73 339.18 472.6 337.52 469.4 335.77 466.26 334.26 462.99 332.42 459.89 330.99 456.58 329.3 453.4 327.73 450.16 326.38 446.82 324.87 443.55 323.35 440.28 322.03 436.93 320.9 433.5 319.48 430.19 318.41 426.74 317.35 423.3 316.3 419.86 315.25 416.41 314.38 412.92 313.75 409.37 312.89 405.86 312.37 402.3 312.11 398.71 311.82 395.12 311.79 391.53"/><polyline class="cls-3" points="448.16 515.83 450.49 513.12 453.01 510.59 455.48 508.01 457.95 505.43 460.33 502.77 462.77 500.16 465.29 497.63 467.73 495.02 470.25 492.49 472.66 489.86 475.14 487.29 477.62 484.71 480.03 482.07 482.41 479.41 484.97 476.91 487.47 474.36 489.8 471.65 492.35 469.15 494.71 466.46 497.27 463.96 499.73 461.37 502.11 458.71 504.58 456.14 507.05 453.56 509.55 451.01 511.94 448.36 514.38 445.75 516.94 443.25 519.39 440.65 521.74 437.95 524.27 435.43 526.75 432.84 529.22 430.27 531.71 427.69 534.11 425.04 536.52 422.41 539 419.83 541.46 417.23 543.98 414.69 546.41 412.06 549.01 409.58 551.31 406.82"/><polyline class="cls-3" points="405.39 521.89 406.87 518.57 408.56 515.36 409.99 512.02 411.32 508.64 412.54 505.22 413.96 501.87 415.06 498.41 416.36 495.01 417.55 491.57 418.52 488.07 419.57 484.59 420.7 481.14 421.73 477.66 422.75 474.18 423.66 470.66 424.4 467.1 425.33 463.59 426.13 460.05 426.93 456.5 427.7 452.94 428.21 449.34 428.95 445.78 429.58 442.2 430.16 438.61 430.6 435 431.06 431.4 431.61 427.81 432 424.19 432.45 420.58 432.73 416.96 433.06 413.33 433.35 409.71 433.5 406.08 433.57 402.44 433.85 398.81 434.01 395.17 433.89 391.53 434.04 387.89"/><polyline class="cls-3" points="431.35 520.86 433.5 517.99 435.54 515.02 437.78 512.2 439.73 509.18 441.82 506.25 443.75 503.22 445.76 500.24 447.79 497.27 449.72 494.23 451.63 491.19 453.51 488.12 455.29 484.99 457.11 481.89 458.92 478.78 460.65 475.63 462.43 472.5 464.17 469.36 466.06 466.29 467.53 463 469.22 459.82 470.88 456.62 472.34 453.33 474.07 450.17 475.55 446.88 476.95 443.57 478.24 440.2 479.72 436.92 480.88 433.51 482.22 430.16 483.43 426.76 484.39 423.29 485.4 419.84 486.45 416.39 487.35 412.91 488.19 409.4 488.84 405.86 489.23 402.28 489.73 398.71 489.99 395.12 490.11 391.53"/><g class="cls-4"><polygon class="cls-5" points="588.37 332.32 587.71 336.4 585.24 339.67 581.52 341.21 577.73 339.75 575.42 336.36 574.61 332.32 575.35 328.94 576.18 325.59 577.56 322.4 578.77 319.15 580.04 315.93 581.52 312.81 582.82 316 584.32 319.12 585.68 322.31 586.7 325.63 587.68 328.95 588.37 332.32"/><polygon class="cls-6" points="588.37 332.32 587.71 336.4 585.24 339.67 581.52 341.21 577.73 339.75 575.42 336.36 574.61 332.32 575.35 328.94 576.18 325.59 577.56 322.4 578.77 319.15 580.04 315.93 581.52 312.81 582.82 316 584.32 319.12 585.68 322.31 586.7 325.63 587.68 328.95 588.37 332.32"/><polygon class="cls-5" points="611.02 360.69 610.12 364.71 607.9 368.16 604.08 369.45 600.37 368.04 597.88 364.78 597.17 360.69 597.76 357.28 598.88 354 600.05 350.75 601.35 347.53 602.74 344.36 604.08 341.1 605.4 344.37 606.74 347.55 608.23 350.69 609.3 353.99 610.34 357.3 611.02 360.69"/><polygon class="cls-6" points="611.02 360.69 610.12 364.71 607.9 368.16 604.08 369.45 600.37 368.04 597.88 364.78 597.17 360.69 597.76 357.28 598.88 354 600.05 350.75 601.35 347.53 602.74 344.36 604.08 341.1 605.4 344.37 606.74 347.55 608.23 350.69 609.3 353.99 610.34 357.3 611.02 360.69"/><polygon class="cls-5" points="588.34 332.32 587.72 336.4 585.32 339.77 581.52 341.23 577.68 339.81 575.42 336.36 574.58 332.32 575.25 328.92 576.19 325.59 577.44 322.35 578.69 319.12 580.09 315.95 581.52 312.69 583.01 315.92 584.23 319.16 585.58 322.35 586.86 325.57 587.75 328.93 588.34 332.32"/><polygon class="cls-6" points="588.34 332.32 587.72 336.4 585.32 339.77 581.52 341.23 577.68 339.81 575.42 336.36 574.58 332.32 575.25 328.92 576.19 325.59 577.44 322.35 578.69 319.12 580.09 315.95 581.52 312.69 583.01 315.92 584.23 319.16 585.58 322.35 586.86 325.57 587.75 328.93 588.34 332.32"/><polygon class="cls-5" points="588.28 332.32 587.55 336.34 585.33 339.78 581.52 341.24 577.77 339.7 575.46 336.35 574.76 332.32 575.36 328.95 576.33 325.63 577.55 322.4 578.75 319.14 580.03 315.92 581.52 312.74 583.02 315.92 584.29 319.13 585.51 322.38 586.75 325.61 587.77 328.93 588.28 332.32"/><polygon class="cls-6" points="588.28 332.32 587.55 336.34 585.33 339.78 581.52 341.24 577.77 339.7 575.46 336.35 574.76 332.32 575.36 328.95 576.33 325.63 577.55 322.4 578.75 319.14 580.03 315.92 581.52 312.74 583.02 315.92 584.29 319.13 585.51 322.38 586.75 325.61 587.77 328.93 588.28 332.32"/><polygon class="cls-5" points="543.24 332.32 542.51 336.37 540.14 339.71 536.39 341.31 532.59 339.77 530.28 336.37 529.54 332.32 530.16 328.93 531.17 325.62 532.3 322.35 533.55 319.11 535.08 316 536.39 312.76 537.78 315.97 539.22 319.11 540.54 322.31 541.72 325.58 542.73 328.9 543.24 332.32"/><polygon class="cls-6" points="543.24 332.32 542.51 336.37 540.14 339.71 536.39 341.31 532.59 339.77 530.28 336.37 529.54 332.32 530.16 328.93 531.17 325.62 532.3 322.35 533.55 319.11 535.08 316 536.39 312.76 537.78 315.97 539.22 319.11 540.54 322.31 541.72 325.58 542.73 328.9 543.24 332.32"/><polygon class="cls-5" points="543.14 389.07 542.47 393.1 540.15 396.47 536.39 398 532.68 396.42 530.27 393.12 529.45 389.07 530.11 385.66 531.25 382.4 532.23 379.07 533.63 375.89 534.91 372.67 536.39 369.55 537.81 372.7 539.21 375.87 540.54 379.06 541.61 382.37 542.67 385.67 543.14 389.07"/><polygon class="cls-6" points="543.14 389.07 542.47 393.1 540.15 396.47 536.39 398 532.68 396.42 530.27 393.12 529.45 389.07 530.11 385.66 531.25 382.4 532.23 379.07 533.63 375.89 534.91 372.67 536.39 369.55 537.81 372.7 539.21 375.87 540.54 379.06 541.61 382.37 542.67 385.67 543.14 389.07"/><polygon class="cls-5" points="588.4 332.32 587.55 336.34 585.25 339.69 581.52 341.08 577.7 339.79 575.54 336.31 574.65 332.32 575.14 328.89 576.26 325.61 577.56 322.4 578.65 319.1 580.16 315.98 581.52 312.9 582.89 315.98 584.2 319.17 585.53 322.37 586.82 325.59 587.71 328.94 588.4 332.32"/><polygon class="cls-6" points="588.4 332.32 587.55 336.34 585.25 339.69 581.52 341.08 577.7 339.79 575.54 336.31 574.65 332.32 575.14 328.89 576.26 325.61 577.56 322.4 578.65 319.1 580.16 315.98 581.52 312.9 582.89 315.98 584.2 319.17 585.53 322.37 586.82 325.59 587.71 328.94 588.4 332.32"/><polygon class="cls-5" points="565.88 360.69 564.95 364.69 562.67 368.04 558.96 369.46 555.23 368.06 552.95 364.7 552.17 360.69 552.81 357.32 553.61 353.95 554.89 350.73 556.13 347.49 557.62 344.36 558.96 341.13 560.3 344.36 561.64 347.54 563.12 350.68 564.27 353.96 565.11 357.33 565.88 360.69"/><polygon class="cls-6" points="565.88 360.69 564.95 364.69 562.67 368.04 558.96 369.46 555.23 368.06 552.95 364.7 552.17 360.69 552.81 357.32 553.61 353.95 554.89 350.73 556.13 347.49 557.62 344.36 558.96 341.13 560.3 344.36 561.64 347.54 563.12 350.68 564.27 353.96 565.11 357.33 565.88 360.69"/><polygon class="cls-5" points="543.34 332.32 542.51 336.37 540.12 339.68 536.39 341.18 532.64 339.71 530.21 336.4 529.5 332.32 530.08 328.91 531.13 325.61 532.35 322.37 533.63 319.14 534.92 315.93 536.39 312.87 537.76 315.98 539.26 319.1 540.56 322.31 541.57 325.63 542.78 328.89 543.34 332.32"/><polygon class="cls-6" points="543.34 332.32 542.51 336.37 540.12 339.68 536.39 341.18 532.64 339.71 530.21 336.4 529.5 332.32 530.08 328.91 531.13 325.61 532.35 322.37 533.63 319.14 534.92 315.93 536.39 312.87 537.76 315.98 539.26 319.1 540.56 322.31 541.57 325.63 542.78 328.89 543.34 332.32"/><polyline class="cls-5" points="558.96 426.4 555.14 424.9 552.83 421.5 552.07 417.44 552.73 414.05 553.74 410.75 554.91 407.49 556.2 404.27 557.63 401.12 559.03 397.96"/><polyline class="cls-6" points="558.96 426.4 555.14 424.9 552.83 421.5 552.07 417.44 552.73 414.05 553.74 410.75 554.91 407.49 556.2 404.27 557.63 401.12 559.03 397.96"/><polygon class="cls-5" points="543.23 389.07 542.41 393.08 540.2 396.53 536.39 397.89 532.6 396.5 530.36 393.08 529.66 389.07 530.17 385.68 531.23 382.39 532.25 379.08 533.6 375.88 535.07 372.74 536.39 369.6 537.71 372.75 539.21 375.86 540.35 379.14 541.71 382.33 542.61 385.68 543.23 389.07"/><polygon class="cls-6" points="543.23 389.07 542.41 393.08 540.2 396.53 536.39 397.89 532.6 396.5 530.36 393.08 529.66 389.07 530.17 385.68 531.23 382.39 532.25 379.08 533.6 375.88 535.07 372.74 536.39 369.6 537.71 372.75 539.21 375.86 540.35 379.14 541.71 382.33 542.61 385.68 543.23 389.07"/><polygon class="cls-5" points="543.32 332.32 542.53 336.38 540.12 339.69 536.39 341.12 532.58 339.78 530.23 336.39 529.67 332.32 530.07 328.9 531.07 325.59 532.45 322.4 533.62 319.14 534.88 315.91 536.39 312.74 537.74 315.98 539.2 319.12 540.37 322.38 541.65 325.61 542.68 328.92 543.32 332.32"/><polygon class="cls-6" points="543.32 332.32 542.53 336.38 540.12 339.69 536.39 341.12 532.58 339.78 530.23 336.39 529.67 332.32 530.07 328.9 531.07 325.59 532.45 322.4 533.62 319.14 534.88 315.91 536.39 312.74 537.74 315.98 539.2 319.12 540.37 322.38 541.65 325.61 542.68 328.92 543.32 332.32"/><polygon class="cls-5" points="498.2 332.32 497.26 336.32 495.03 339.72 491.27 341.23 487.52 339.7 485.09 336.4 484.38 332.32 484.98 328.91 486.07 325.63 487.23 322.37 488.58 319.18 489.96 316 491.27 312.86 492.78 315.91 493.94 319.18 495.32 322.35 496.4 325.65 497.63 328.9 498.2 332.32"/><polygon class="cls-6" points="498.2 332.32 497.26 336.32 495.03 339.72 491.27 341.23 487.52 339.7 485.09 336.4 484.38 332.32 484.98 328.91 486.07 325.63 487.23 322.37 488.58 319.18 489.96 316 491.27 312.86 492.78 315.91 493.94 319.18 495.32 322.35 496.4 325.65 497.63 328.9 498.2 332.32"/><polygon class="cls-5" points="543.22 389.07 542.45 393.1 540.22 396.54 536.39 398 532.58 396.53 530.26 393.13 529.58 389.07 530.13 385.67 531.12 382.35 532.26 379.08 533.54 375.86 535.03 372.73 536.39 369.49 537.79 372.71 539.22 375.86 540.48 379.09 541.75 382.32 542.58 385.69 543.22 389.07"/><polygon class="cls-6" points="543.22 389.07 542.45 393.1 540.22 396.54 536.39 398 532.58 396.53 530.26 393.13 529.58 389.07 530.13 385.67 531.12 382.35 532.26 379.08 533.54 375.86 535.03 372.73 536.39 369.49 537.79 372.71 539.22 375.86 540.48 379.09 541.75 382.32 542.58 385.69 543.22 389.07"/><polygon class="cls-5" points="498.23 389.07 497.44 393.14 494.97 396.4 491.27 397.86 487.5 396.48 485.22 393.09 484.32 389.07 484.93 385.65 486.06 382.38 487.2 379.11 488.44 375.87 489.92 372.73 491.27 369.58 492.75 372.67 494.05 375.88 495.26 379.12 496.49 382.37 497.63 385.65 498.23 389.07"/><polygon class="cls-6" points="498.23 389.07 497.44 393.14 494.97 396.4 491.27 397.86 487.5 396.48 485.22 393.09 484.32 389.07 484.93 385.65 486.06 382.38 487.2 379.11 488.44 375.87 489.92 372.73 491.27 369.58 492.75 372.67 494.05 375.88 495.26 379.12 496.49 382.37 497.63 385.65 498.23 389.07"/><polygon class="cls-5" points="543.15 332.32 542.4 336.33 540.15 339.71 536.39 341.17 532.57 339.79 530.35 336.34 529.6 332.32 530.2 328.94 531.19 325.63 532.28 322.34 533.69 319.17 534.9 315.92 536.39 312.88 537.74 315.98 539.14 319.14 540.36 322.38 541.62 325.61 542.67 328.92 543.15 332.32"/><polygon class="cls-6" points="543.15 332.32 542.4 336.33 540.15 339.71 536.39 341.17 532.57 339.79 530.35 336.34 529.6 332.32 530.2 328.94 531.19 325.63 532.28 322.34 533.69 319.17 534.9 315.92 536.39 312.88 537.74 315.98 539.14 319.14 540.36 322.38 541.62 325.61 542.67 328.92 543.15 332.32"/><polygon class="cls-5" points="520.55 360.69 519.88 364.72 517.56 368.06 513.83 369.63 510.08 368.09 507.71 364.74 506.87 360.69 507.63 357.31 508.58 353.99 509.65 350.69 511.02 347.5 512.42 344.33 513.83 341.27 515.24 344.33 516.72 347.46 517.89 350.72 519.03 354 520.07 357.3 520.55 360.69"/><polygon class="cls-6" points="520.55 360.69 519.88 364.72 517.56 368.06 513.83 369.63 510.08 368.09 507.71 364.74 506.87 360.69 507.63 357.31 508.58 353.99 509.65 350.69 511.02 347.5 512.42 344.33 513.83 341.27 515.24 344.33 516.72 347.46 517.89 350.72 519.03 354 520.07 357.3 520.55 360.69"/><polygon class="cls-5" points="498 332.32 497.44 336.39 494.99 339.67 491.27 341.17 487.44 339.8 485.22 336.34 484.39 332.32 484.91 328.89 485.93 325.58 487.14 322.34 488.43 319.11 489.74 315.91 491.27 312.91 492.75 315.92 494.15 319.09 495.33 322.35 496.6 325.58 497.5 328.93 498 332.32"/><polygon class="cls-6" points="498 332.32 497.44 336.39 494.99 339.67 491.27 341.17 487.44 339.8 485.22 336.34 484.39 332.32 484.91 328.89 485.93 325.58 487.14 322.34 488.43 319.11 489.74 315.91 491.27 312.91 492.75 315.92 494.15 319.09 495.33 322.35 496.6 325.58 497.5 328.93 498 332.32"/><polygon class="cls-5" points="543.31 389.07 542.59 393.15 540.23 396.56 536.39 397.89 532.63 396.47 530.35 393.09 529.61 389.07 530.12 385.67 531.18 382.38 532.43 379.15 533.52 375.85 535.05 372.74 536.39 369.48 537.77 372.72 539.13 375.9 540.54 379.06 541.59 382.37 542.67 385.67 543.31 389.07"/><polygon class="cls-6" points="543.31 389.07 542.59 393.15 540.23 396.56 536.39 397.89 532.63 396.47 530.35 393.09 529.61 389.07 530.12 385.67 531.18 382.38 532.43 379.15 533.52 375.85 535.05 372.74 536.39 369.48 537.77 372.72 539.13 375.9 540.54 379.06 541.59 382.37 542.67 385.67 543.31 389.07"/><g class="cls-7"><polygon class="cls-5" points="520.72 417.44 519.91 421.48 517.66 424.93 513.83 426.37 510.12 424.78 507.8 421.46 506.96 417.44 507.6 414.05 508.55 410.73 509.66 407.44 510.95 404.22 512.5 401.11 513.83 397.95 515.27 401.06 516.64 404.24 517.86 407.48 519.05 410.74 520.12 414.04 520.72 417.44"/><polygon class="cls-6" points="520.72 417.44 519.91 421.48 517.66 424.93 513.83 426.37 510.12 424.78 507.8 421.46 506.96 417.44 507.6 414.05 508.55 410.73 509.66 407.44 510.95 404.22 512.5 401.11 513.83 397.95 515.27 401.06 516.64 404.24 517.86 407.48 519.05 410.74 520.12 414.04 520.72 417.44"/></g><polygon class="cls-5" points="498.14 389.07 497.29 393.08 494.99 396.43 491.27 397.89 487.49 396.49 485.11 393.13 484.39 389.07 484.98 385.66 486.06 382.38 487.16 379.09 488.52 375.9 489.81 372.69 491.27 369.63 492.65 372.71 493.95 375.92 495.33 379.1 496.46 382.38 497.56 385.66 498.14 389.07"/><polygon class="cls-6" points="498.14 389.07 497.29 393.08 494.99 396.43 491.27 397.89 487.49 396.49 485.11 393.13 484.39 389.07 484.98 385.66 486.06 382.38 487.16 379.09 488.52 375.9 489.81 372.69 491.27 369.63 492.65 372.71 493.95 375.92 495.33 379.1 496.46 382.38 497.56 385.66 498.14 389.07"/><polygon class="cls-5" points="498.13 332.32 497.35 336.36 495.01 339.69 491.27 341.13 487.52 339.71 485.16 336.37 484.44 332.32 485.04 328.93 486.08 325.63 487.31 322.4 488.44 319.12 489.84 315.95 491.27 312.77 492.69 315.95 494.15 319.09 495.26 322.38 496.56 325.59 497.63 328.9 498.13 332.32"/><polygon class="cls-6" points="498.13 332.32 497.35 336.36 495.01 339.69 491.27 341.13 487.52 339.71 485.16 336.37 484.44 332.32 485.04 328.93 486.08 325.63 487.31 322.4 488.44 319.12 489.84 315.95 491.27 312.77 492.69 315.95 494.15 319.09 495.26 322.38 496.56 325.59 497.63 328.9 498.13 332.32"/><polygon class="cls-5" points="452.97 332.32 452.29 336.38 449.95 339.77 446.14 341.3 442.39 339.7 440.14 336.32 439.41 332.32 439.97 328.94 440.83 325.6 442.1 322.37 443.4 319.16 444.75 315.97 446.14 312.91 447.62 315.93 448.82 319.17 450.16 322.36 451.37 325.62 452.3 328.95 452.97 332.32"/><polygon class="cls-6" points="452.97 332.32 452.29 336.38 449.95 339.77 446.14 341.3 442.39 339.7 440.14 336.32 439.41 332.32 439.97 328.94 440.83 325.6 442.1 322.37 443.4 319.16 444.75 315.97 446.14 312.91 447.62 315.93 448.82 319.17 450.16 322.36 451.37 325.62 452.3 328.95 452.97 332.32"/><polygon class="cls-5" points="498 389.07 497.4 393.13 495.11 396.56 491.27 398.04 487.46 396.52 485.19 393.1 484.5 389.07 484.88 385.64 486.04 382.37 487.28 379.14 488.38 375.84 489.96 372.75 491.27 369.67 492.66 372.71 494.02 375.89 495.24 379.13 496.59 382.33 497.51 385.68 498 389.07"/><polygon class="cls-6" points="498 389.07 497.4 393.13 495.11 396.56 491.27 398.04 487.46 396.52 485.19 393.1 484.5 389.07 484.88 385.64 486.04 382.37 487.28 379.14 488.38 375.84 489.96 372.75 491.27 369.67 492.66 372.71 494.02 375.89 495.24 379.13 496.59 382.33 497.51 385.68 498 389.07"/><polygon class="cls-5" points="452.98 389.07 452.34 393.15 449.86 396.42 446.14 397.89 442.39 396.46 440.11 393.08 439.31 389.07 439.77 385.64 440.92 382.37 441.97 379.07 443.3 375.86 444.83 372.75 446.14 369.43 447.59 372.69 448.96 375.86 450.23 379.09 451.44 382.34 452.5 385.65 452.98 389.07"/><polygon class="cls-6" points="452.98 389.07 452.34 393.15 449.86 396.42 446.14 397.89 442.39 396.46 440.11 393.08 439.31 389.07 439.77 385.64 440.92 382.37 441.97 379.07 443.3 375.86 444.83 372.75 446.14 369.43 447.59 372.69 448.96 375.86 450.23 379.09 451.44 382.34 452.5 385.65 452.98 389.07"/><polygon class="cls-5" points="498.2 332.32 497.46 336.4 495.09 339.79 491.27 341.19 487.47 339.76 485.08 336.4 484.35 332.32 485.1 328.94 486.09 325.64 487.2 322.36 488.45 319.12 489.82 315.94 491.27 312.78 492.64 315.97 494.06 319.13 495.36 322.33 496.48 325.62 497.54 328.92 498.2 332.32"/><polygon class="cls-6" points="498.2 332.32 497.46 336.4 495.09 339.79 491.27 341.19 487.47 339.76 485.08 336.4 484.35 332.32 485.1 328.94 486.09 325.64 487.2 322.36 488.45 319.12 489.82 315.94 491.27 312.78 492.64 315.97 494.06 319.13 495.36 322.33 496.48 325.62 497.54 328.92 498.2 332.32"/><polygon class="cls-5" points="475.5 360.69 474.83 364.75 472.47 368.1 468.7 369.55 464.98 368.05 462.52 364.77 461.84 360.69 462.54 357.32 463.39 353.97 464.61 350.72 466 347.54 467.22 344.3 468.7 341.11 470.1 344.34 471.38 347.55 472.7 350.75 474.02 353.96 475 357.29 475.5 360.69"/><polygon class="cls-6" points="475.5 360.69 474.83 364.75 472.47 368.1 468.7 369.55 464.98 368.05 462.52 364.77 461.84 360.69 462.54 357.32 463.39 353.97 464.61 350.72 466 347.54 467.22 344.3 468.7 341.11 470.1 344.34 471.38 347.55 472.7 350.75 474.02 353.96 475 357.29 475.5 360.69"/><polygon class="cls-5" points="452.98 332.32 452.13 336.32 449.96 339.79 446.14 341.3 442.42 339.67 440.03 336.37 439.3 332.32 439.82 328.9 441 325.65 442.08 322.36 443.25 319.09 444.77 315.97 446.14 312.7 447.54 315.96 448.83 319.17 450.28 322.32 451.38 325.61 452.35 328.94 452.98 332.32"/><polygon class="cls-6" points="452.98 332.32 452.13 336.32 449.96 339.79 446.14 341.3 442.42 339.67 440.03 336.37 439.3 332.32 439.82 328.9 441 325.65 442.08 322.36 443.25 319.09 444.77 315.97 446.14 312.7 447.54 315.96 448.83 319.17 450.28 322.32 451.38 325.61 452.35 328.94 452.98 332.32"/><polygon class="cls-5" points="498.02 389.07 497.43 393.13 495.08 396.53 491.27 398.01 487.55 396.42 485.28 393.07 484.44 389.07 485.09 385.69 486.09 382.39 487.16 379.09 488.5 375.89 489.75 372.66 491.27 369.57 492.7 372.69 493.97 375.91 495.44 379.05 496.42 382.39 497.48 385.69 498.02 389.07"/><polygon class="cls-6" points="498.02 389.07 497.43 393.13 495.08 396.53 491.27 398.01 487.55 396.42 485.28 393.07 484.44 389.07 485.09 385.69 486.09 382.39 487.16 379.09 488.5 375.89 489.75 372.66 491.27 369.57 492.7 372.69 493.97 375.91 495.44 379.05 496.42 382.39 497.48 385.69 498.02 389.07"/><g class="cls-7"><polygon class="cls-5" points="475.65 417.44 474.9 421.52 472.53 424.92 468.7 426.23 464.92 424.87 462.54 421.51 461.89 417.44 462.43 414.04 463.46 410.74 464.55 407.45 465.9 404.25 467.33 401.1 468.7 397.96 470.19 401.05 471.44 404.27 472.78 407.46 473.85 410.76 475.07 414.02 475.65 417.44"/><polygon class="cls-6" points="475.65 417.44 474.9 421.52 472.53 424.92 468.7 426.23 464.92 424.87 462.54 421.51 461.89 417.44 462.43 414.04 463.46 410.74 464.55 407.45 465.9 404.25 467.33 401.1 468.7 397.96 470.19 401.05 471.44 404.27 472.78 407.46 473.85 410.76 475.07 414.02 475.65 417.44"/></g><polygon class="cls-5" points="453.05 389.07 452.18 393.09 449.85 396.4 446.14 397.92 442.4 396.45 440.12 393.08 439.4 389.07 439.96 385.69 440.79 382.33 442.05 379.1 443.3 375.86 444.8 372.73 446.14 369.63 447.51 372.72 448.89 375.89 450.29 379.06 451.46 382.33 452.45 385.66 453.05 389.07"/><polygon class="cls-6" points="453.05 389.07 452.18 393.09 449.85 396.4 446.14 397.92 442.4 396.45 440.12 393.08 439.4 389.07 439.96 385.69 440.79 382.33 442.05 379.1 443.3 375.86 444.8 372.73 446.14 369.63 447.51 372.72 448.89 375.89 450.29 379.06 451.46 382.33 452.45 385.66 453.05 389.07"/><polygon class="cls-5" points="453.1 332.32 452.24 336.37 449.83 339.64 446.14 341.13 442.34 339.76 440.02 336.37 439.19 332.32 439.76 328.89 440.8 325.58 442.07 322.36 443.42 319.16 444.7 315.94 446.14 312.86 447.49 315.99 449.02 319.09 450.31 322.31 451.38 325.61 452.48 328.9 453.1 332.32"/><polygon class="cls-6" points="453.1 332.32 452.24 336.37 449.83 339.64 446.14 341.13 442.34 339.76 440.02 336.37 439.19 332.32 439.76 328.89 440.8 325.58 442.07 322.36 443.42 319.16 444.7 315.94 446.14 312.86 447.49 315.99 449.02 319.09 450.31 322.31 451.38 325.61 452.48 328.9 453.1 332.32"/><polygon class="cls-5" points="407.8 332.32 406.99 336.31 404.72 339.65 401.02 341.12 397.21 339.77 394.98 336.34 394.22 332.32 394.81 328.93 395.73 325.6 396.86 322.32 398.2 319.13 399.67 315.99 401.02 312.85 402.44 315.95 403.88 319.1 405.12 322.33 406.32 325.59 407.19 328.95 407.8 332.32"/><polygon class="cls-6" points="407.8 332.32 406.99 336.31 404.72 339.65 401.02 341.12 397.21 339.77 394.98 336.34 394.22 332.32 394.81 328.93 395.73 325.6 396.86 322.32 398.2 319.13 399.67 315.99 401.02 312.85 402.44 315.95 403.88 319.1 405.12 322.33 406.32 325.59 407.19 328.95 407.8 332.32"/><polygon class="cls-5" points="453.06 389.07 452.13 393.07 449.96 396.54 446.14 397.83 442.39 396.45 440.16 393.06 439.3 389.07 439.92 385.68 440.96 382.39 442.04 379.09 443.43 375.91 444.76 372.72 446.14 369.63 447.63 372.67 448.91 375.88 450.16 379.11 451.44 382.34 452.43 385.67 453.06 389.07"/><polygon class="cls-6" points="453.06 389.07 452.13 393.07 449.96 396.54 446.14 397.83 442.39 396.45 440.16 393.06 439.3 389.07 439.92 385.68 440.96 382.39 442.04 379.09 443.43 375.91 444.76 372.72 446.14 369.63 447.63 372.67 448.91 375.88 450.16 379.11 451.44 382.34 452.43 385.67 453.06 389.07"/><polygon class="cls-5" points="407.96 389.07 407.02 393.07 404.71 396.39 401.02 397.85 397.3 396.42 395.04 393.06 394.11 389.07 394.85 385.69 395.8 382.37 396.87 379.08 398.14 375.85 399.64 372.72 400.91 369.6 402.5 372.67 403.9 375.84 404.99 379.13 406.31 382.34 407.28 385.67 407.96 389.07"/><polygon class="cls-6" points="407.96 389.07 407.02 393.07 404.71 396.39 401.02 397.85 397.3 396.42 395.04 393.06 394.11 389.07 394.85 385.69 395.8 382.37 396.87 379.08 398.14 375.85 399.64 372.72 400.91 369.6 402.5 372.67 403.9 375.84 404.99 379.13 406.31 382.34 407.28 385.67 407.96 389.07"/><polygon class="cls-5" points="452.88 332.32 452.14 336.32 449.89 339.7 446.14 341.2 442.31 339.8 439.94 336.4 439.26 332.32 439.87 328.92 440.9 325.62 442.11 322.37 443.39 319.15 444.78 315.98 446.14 312.84 447.47 315.99 448.97 319.11 450.19 322.35 451.41 325.6 452.35 328.94 452.88 332.32"/><polygon class="cls-6" points="452.88 332.32 452.14 336.32 449.89 339.7 446.14 341.2 442.31 339.8 439.94 336.4 439.26 332.32 439.87 328.92 440.9 325.62 442.11 322.37 443.39 319.15 444.78 315.98 446.14 312.84 447.47 315.99 448.97 319.11 450.19 322.35 451.41 325.6 452.35 328.94 452.88 332.32"/><polygon class="cls-5" points="430.49 360.69 429.59 364.7 427.27 368.02 423.58 369.59 419.86 368.05 417.5 364.73 416.76 360.69 417.36 357.31 418.3 353.98 419.55 350.75 420.78 347.51 422.18 344.33 423.58 341.09 424.95 344.35 426.32 347.52 427.71 350.7 428.84 353.98 429.82 357.3 430.49 360.69"/><polygon class="cls-6" points="430.49 360.69 429.59 364.7 427.27 368.02 423.58 369.59 419.86 368.05 417.5 364.73 416.76 360.69 417.36 357.31 418.3 353.98 419.55 350.75 420.78 347.51 422.18 344.33 423.58 341.09 424.95 344.35 426.32 347.52 427.71 350.7 428.84 353.98 429.82 357.3 430.49 360.69"/><polygon class="cls-5" points="407.94 332.32 407.07 336.35 404.83 339.78 401.02 341.3 397.24 339.74 395 336.33 394.2 332.32 394.72 328.91 395.83 325.64 396.92 322.35 398.17 319.11 399.53 315.93 401.02 312.81 402.44 315.95 403.83 319.12 405.05 322.36 406.36 325.57 407.25 328.93 407.94 332.32"/><polygon class="cls-6" points="407.94 332.32 407.07 336.35 404.83 339.78 401.02 341.3 397.24 339.74 395 336.33 394.2 332.32 394.72 328.91 395.83 325.64 396.92 322.35 398.17 319.11 399.53 315.93 401.02 312.81 402.44 315.95 403.83 319.12 405.05 322.36 406.36 325.57 407.25 328.93 407.94 332.32"/><polygon class="cls-5" points="452.97 389.07 452.15 393.08 449.86 396.42 446.14 397.83 442.38 396.46 440.16 393.07 439.19 389.07 439.89 385.67 441.01 382.4 441.98 379.07 443.4 375.9 444.72 372.7 446.14 369.49 447.48 372.74 448.94 375.87 450.25 379.08 451.38 382.36 452.39 385.68 452.97 389.07"/><polygon class="cls-6" points="452.97 389.07 452.15 393.08 449.86 396.42 446.14 397.83 442.38 396.46 440.16 393.07 439.19 389.07 439.89 385.67 441.01 382.4 441.98 379.07 443.4 375.9 444.72 372.7 446.14 369.49 447.48 372.74 448.94 375.87 450.25 379.08 451.38 382.36 452.39 385.68 452.97 389.07"/><polygon class="cls-5" points="430.42 417.44 429.71 421.5 427.38 424.89 423.58 426.23 419.82 424.84 417.44 421.5 416.69 417.44 417.26 414.03 418.36 410.75 419.56 407.5 420.87 404.29 422.27 401.13 423.58 398.03 425.03 401.06 426.24 404.31 427.61 407.48 428.85 410.72 429.82 414.05 430.42 417.44"/><polygon class="cls-6" points="430.42 417.44 429.71 421.5 427.38 424.89 423.58 426.23 419.82 424.84 417.44 421.5 416.69 417.44 417.26 414.03 418.36 410.75 419.56 407.5 420.87 404.29 422.27 401.13 423.58 398.03 425.03 401.06 426.24 404.31 427.61 407.48 428.85 410.72 429.82 414.05 430.42 417.44"/><polygon class="cls-5" points="407.8 389.07 407.06 393.09 404.81 396.51 401.02 397.89 397.23 396.5 394.83 393.14 394.09 389.07 394.71 385.66 395.71 382.34 397 379.13 398.17 375.86 399.6 372.7 400.97 369.57 402.38 372.72 403.74 375.9 405.18 379.06 406.15 382.39 407.33 385.66 407.8 389.07"/><polygon class="cls-6" points="407.8 389.07 407.06 393.09 404.81 396.51 401.02 397.89 397.23 396.5 394.83 393.14 394.09 389.07 394.71 385.66 395.71 382.34 397 379.13 398.17 375.86 399.6 372.7 400.97 369.57 402.38 372.72 403.74 375.9 405.18 379.06 406.15 382.39 407.33 385.66 407.8 389.07"/><polygon class="cls-5" points="407.75 332.32 407.05 336.34 404.72 339.65 401.02 341.29 397.21 339.78 394.84 336.39 394.07 332.32 394.8 328.93 395.72 325.6 397.04 322.39 398.34 319.18 399.71 316 401.02 312.8 402.35 315.99 403.84 319.11 404.97 322.39 406.15 325.64 407.39 328.89 407.75 332.32"/><polygon class="cls-6" points="407.75 332.32 407.05 336.34 404.72 339.65 401.02 341.29 397.21 339.78 394.84 336.39 394.07 332.32 394.8 328.93 395.72 325.6 397.04 322.39 398.34 319.18 399.71 316 401.02 312.8 402.35 315.99 403.84 319.11 404.97 322.39 406.15 325.64 407.39 328.89 407.75 332.32"/><polygon class="cls-5" points="362.78 332.32 361.91 336.33 359.72 339.8 355.89 341.29 352.1 339.75 349.86 336.34 349.13 332.32 349.51 328.89 350.58 325.6 351.93 322.4 353.18 319.17 354.43 315.93 355.89 312.78 357.31 315.95 358.73 319.11 359.9 322.37 361.22 325.58 362.2 328.91 362.78 332.32"/><polygon class="cls-6" points="362.78 332.32 361.91 336.33 359.72 339.8 355.89 341.29 352.1 339.75 349.86 336.34 349.13 332.32 349.51 328.89 350.58 325.6 351.93 322.4 353.18 319.17 354.43 315.93 355.89 312.78 357.31 315.95 358.73 319.11 359.9 322.37 361.22 325.58 362.2 328.91 362.78 332.32"/><polygon class="cls-5" points="407.84 389.07 407.03 393.08 404.86 396.56 401.02 397.95 397.25 396.47 394.87 393.13 394.16 389.07 394.77 385.67 395.82 382.38 396.89 379.08 398.29 375.91 399.64 372.72 400.94 369.59 402.42 372.71 403.75 375.9 405.17 379.06 406.33 382.33 407.24 385.68 407.84 389.07"/><polygon class="cls-6" points="407.84 389.07 407.03 393.08 404.86 396.56 401.02 397.95 397.25 396.47 394.87 393.13 394.16 389.07 394.77 385.67 395.82 382.38 396.89 379.08 398.29 375.91 399.64 372.72 400.94 369.59 402.42 372.71 403.75 375.9 405.17 379.06 406.33 382.33 407.24 385.68 407.84 389.07"/><polygon class="cls-5" points="362.81 389.07 361.87 393.06 359.64 396.45 355.89 398.05 352.1 396.51 349.7 393.15 349.11 389.07 349.54 385.65 350.73 382.39 351.91 379.14 353.21 375.93 354.54 372.73 355.89 369.46 357.35 372.68 358.71 375.86 359.96 379.09 361.11 382.37 362.17 385.67 362.81 389.07"/><polygon class="cls-6" points="362.81 389.07 361.87 393.06 359.64 396.45 355.89 398.05 352.1 396.51 349.7 393.15 349.11 389.07 349.54 385.65 350.73 382.39 351.91 379.14 353.21 375.93 354.54 372.73 355.89 369.46 357.35 372.68 358.71 375.86 359.96 379.09 361.11 382.37 362.17 385.67 362.81 389.07"/><polygon class="cls-5" points="407.81 332.32 407.18 336.39 404.79 339.74 401.02 341.25 397.22 339.75 395.03 336.32 394.22 332.32 394.81 328.94 395.65 325.57 396.88 322.33 398.15 319.1 399.64 315.97 401.02 312.88 402.44 315.95 403.81 319.13 405.15 322.32 406.26 325.61 407.3 328.92 407.81 332.32"/><polygon class="cls-6" points="407.81 332.32 407.18 336.39 404.79 339.74 401.02 341.25 397.22 339.75 395.03 336.32 394.22 332.32 394.81 328.94 395.65 325.57 396.88 322.33 398.15 319.1 399.64 315.97 401.02 312.88 402.44 315.95 403.81 319.13 405.15 322.32 406.26 325.61 407.3 328.92 407.81 332.32"/><polygon class="cls-5" points="385.19 360.69 384.45 364.7 382.17 368.05 378.45 369.62 374.75 368.02 372.41 364.71 371.54 360.69 372.13 357.28 373.18 353.98 374.4 350.74 375.66 347.51 377.09 344.35 378.45 341.11 379.81 344.36 381.27 347.49 382.5 350.73 383.69 353.99 384.77 357.28 385.19 360.69"/><polygon class="cls-6" points="385.19 360.69 384.45 364.7 382.17 368.05 378.45 369.62 374.75 368.02 372.41 364.71 371.54 360.69 372.13 357.28 373.18 353.98 374.4 350.74 375.66 347.51 377.09 344.35 378.45 341.11 379.81 344.36 381.27 347.49 382.5 350.73 383.69 353.99 384.77 357.28 385.19 360.69"/><polygon class="cls-5" points="362.75 332.32 362.07 336.39 359.67 339.75 355.89 341.3 352.2 339.64 349.86 336.34 349.04 332.32 349.56 328.9 350.63 325.61 351.84 322.36 353.17 319.16 354.36 315.9 355.89 312.68 357.22 315.99 358.71 319.12 359.84 322.39 361.24 325.57 362.25 328.9 362.75 332.32"/><polygon class="cls-6" points="362.75 332.32 362.07 336.39 359.67 339.75 355.89 341.3 352.2 339.64 349.86 336.34 349.04 332.32 349.56 328.9 350.63 325.61 351.84 322.36 353.17 319.16 354.36 315.9 355.89 312.68 357.22 315.99 358.71 319.12 359.84 322.39 361.24 325.57 362.25 328.9 362.75 332.32"/><polygon class="cls-5" points="407.84 389.07 407.09 393.1 404.86 396.57 401.02 397.92 397.31 396.41 394.91 393.11 394.14 389.07 394.74 385.67 395.84 382.39 397.06 379.15 398.19 375.87 399.62 372.71 401.11 369.5 402.51 372.67 403.77 375.89 404.97 379.14 406.16 382.39 407.27 385.67 407.84 389.07"/><polygon class="cls-6" points="407.84 389.07 407.09 393.1 404.86 396.57 401.02 397.92 397.31 396.41 394.91 393.11 394.14 389.07 394.74 385.67 395.84 382.39 397.06 379.15 398.19 375.87 399.62 372.71 401.11 369.5 402.51 372.67 403.77 375.89 404.97 379.14 406.16 382.39 407.27 385.67 407.84 389.07"/><g class="cls-7"><polygon class="cls-5" points="385.39 417.44 384.45 421.45 382.15 424.77 378.45 426.31 374.69 424.85 372.46 421.44 371.54 417.44 372.17 414.04 373.18 410.73 374.36 407.47 375.67 404.26 377.08 401.1 378.45 398.05 379.81 401.1 381.3 404.23 382.5 407.47 383.74 410.72 384.72 414.05 385.39 417.44"/><polygon class="cls-6" points="385.39 417.44 384.45 421.45 382.15 424.77 378.45 426.31 374.69 424.85 372.46 421.44 371.54 417.44 372.17 414.04 373.18 410.73 374.36 407.47 375.67 404.26 377.08 401.1 378.45 398.05 379.81 401.1 381.3 404.23 382.5 407.47 383.74 410.72 384.72 414.05 385.39 417.44"/></g><polygon class="cls-5" points="362.83 389.07 361.94 393.09 359.66 396.47 355.89 397.85 352.15 396.44 349.78 393.12 349.15 389.07 349.61 385.66 350.66 382.37 351.78 379.09 353.11 375.89 354.49 372.71 355.89 369.62 357.36 372.68 358.61 375.91 359.85 379.13 361.24 382.32 362.26 385.64 362.83 389.07"/><polygon class="cls-6" points="362.83 389.07 361.94 393.09 359.66 396.47 355.89 397.85 352.15 396.44 349.78 393.12 349.15 389.07 349.61 385.66 350.66 382.37 351.78 379.09 353.11 375.89 354.49 372.71 355.89 369.62 357.36 372.68 358.61 375.91 359.85 379.13 361.24 382.32 362.26 385.64 362.83 389.07"/><polygon class="cls-5" points="362.77 332.32 361.96 336.35 359.64 339.7 355.89 341.11 352.14 339.71 349.71 336.39 349.05 332.32 349.68 328.93 350.53 325.58 351.79 322.35 353.15 319.15 354.57 315.99 355.89 312.81 357.24 315.98 358.57 319.17 359.91 322.37 361.25 325.57 362.1 328.94 362.77 332.32"/><polygon class="cls-6" points="362.77 332.32 361.96 336.35 359.64 339.7 355.89 341.11 352.14 339.71 349.71 336.39 349.05 332.32 349.68 328.93 350.53 325.58 351.79 322.35 353.15 319.15 354.57 315.99 355.89 312.81 357.24 315.98 358.57 319.17 359.91 322.37 361.25 325.57 362.1 328.94 362.77 332.32"/><polygon class="cls-5" points="317.59 332.32 316.93 336.39 314.57 339.77 310.76 341.22 307.04 339.68 304.65 336.37 303.82 332.32 304.58 328.94 305.44 325.59 306.6 322.32 307.96 319.13 309.45 316 310.76 312.87 312.2 315.94 313.53 319.14 314.75 322.38 316.13 325.57 317.1 328.9 317.59 332.32"/><polygon class="cls-6" points="317.59 332.32 316.93 336.39 314.57 339.77 310.76 341.22 307.04 339.68 304.65 336.37 303.82 332.32 304.58 328.94 305.44 325.59 306.6 322.32 307.96 319.13 309.45 316 310.76 312.87 312.2 315.94 313.53 319.14 314.75 322.38 316.13 325.57 317.1 328.9 317.59 332.32"/><polygon class="cls-5" points="362.79 389.07 361.99 393.11 359.69 396.51 355.89 397.98 352.16 396.43 349.9 393.07 349.13 389.07 349.51 385.64 350.6 382.35 351.78 379.09 353.2 375.92 354.52 372.72 355.89 369.67 357.35 372.68 358.66 375.88 360.03 379.06 361.1 382.37 362.2 385.66 362.79 389.07"/><polygon class="cls-6" points="362.79 389.07 361.99 393.11 359.69 396.51 355.89 397.98 352.16 396.43 349.9 393.07 349.13 389.07 349.51 385.64 350.6 382.35 351.78 379.09 353.2 375.92 354.52 372.72 355.89 369.67 357.35 372.68 358.66 375.88 360.03 379.06 361.1 382.37 362.2 385.66 362.79 389.07"/><polygon class="cls-5" points="317.72 389.07 316.83 393.1 314.57 396.52 310.76 397.98 306.99 396.48 304.72 393.09 304.04 389.07 304.57 385.69 305.41 382.33 306.59 379.06 308 375.89 309.37 372.71 310.76 369.65 312.22 372.69 313.46 375.92 314.76 379.12 316.05 382.34 317.13 385.64 317.72 389.07"/><polygon class="cls-6" points="317.72 389.07 316.83 393.1 314.57 396.52 310.76 397.98 306.99 396.48 304.72 393.09 304.04 389.07 304.57 385.69 305.41 382.33 306.59 379.06 308 375.89 309.37 372.71 310.76 369.65 312.22 372.69 313.46 375.92 314.76 379.12 316.05 382.34 317.13 385.64 317.72 389.07"/><polygon class="cls-5" points="362.69 332.32 362.09 336.4 359.62 339.68 355.89 341.07 352.19 339.64 349.88 336.33 349.13 332.32 349.51 328.89 350.69 325.63 351.89 322.38 353.07 319.12 354.51 315.97 355.89 312.92 357.39 315.92 358.68 319.13 359.9 322.37 361.08 325.63 362.11 328.94 362.69 332.32"/><polygon class="cls-6" points="362.69 332.32 362.09 336.4 359.62 339.68 355.89 341.07 352.19 339.64 349.88 336.33 349.13 332.32 349.51 328.89 350.69 325.63 351.89 322.38 353.07 319.12 354.51 315.97 355.89 312.92 357.39 315.92 358.68 319.13 359.9 322.37 361.08 325.63 362.11 328.94 362.69 332.32"/><polygon class="cls-5" points="340.08 360.69 339.33 364.7 337.07 368.08 333.33 369.46 329.49 368.18 327.15 364.77 326.45 360.69 326.98 357.27 328.16 354.02 329.27 350.74 330.51 347.5 331.94 344.34 333.33 341.2 334.84 344.29 336 347.55 337.41 350.71 338.48 354.02 339.71 357.27 340.08 360.69"/><polygon class="cls-6" points="340.08 360.69 339.33 364.7 337.07 368.08 333.33 369.46 329.49 368.18 327.15 364.77 326.45 360.69 326.98 357.27 328.16 354.02 329.27 350.74 330.51 347.5 331.94 344.34 333.33 341.2 334.84 344.29 336 347.55 337.41 350.71 338.48 354.02 339.71 357.27 340.08 360.69"/><polygon class="cls-5" points="317.56 332.32 316.83 336.35 314.54 339.74 310.76 341.15 306.93 339.8 304.67 336.36 303.86 332.32 304.4 328.89 305.45 325.59 306.69 322.36 308.07 319.17 309.35 315.95 310.76 312.9 312.15 315.97 313.51 319.14 314.72 322.39 315.93 325.64 317.05 328.92 317.56 332.32"/><polygon class="cls-6" points="317.56 332.32 316.83 336.35 314.54 339.74 310.76 341.15 306.93 339.8 304.67 336.36 303.86 332.32 304.4 328.89 305.45 325.59 306.69 322.36 308.07 319.17 309.35 315.95 310.76 312.9 312.15 315.97 313.51 319.14 314.72 322.39 315.93 325.64 317.05 328.92 317.56 332.32"/><polygon class="cls-5" points="362.63 389.07 361.97 393.11 359.63 396.45 355.89 398.04 352.2 396.38 349.75 393.13 349.15 389.07 349.53 385.64 350.58 382.34 351.91 379.14 353.08 375.87 354.44 372.69 355.89 369.44 357.23 372.74 358.66 375.88 360.01 379.07 361.1 382.37 362.12 385.68 362.63 389.07"/><polygon class="cls-6" points="362.63 389.07 361.97 393.11 359.63 396.45 355.89 398.04 352.2 396.38 349.75 393.13 349.15 389.07 349.53 385.64 350.58 382.34 351.91 379.14 353.08 375.87 354.44 372.69 355.89 369.44 357.23 372.74 358.66 375.88 360.01 379.07 361.1 382.37 362.12 385.68 362.63 389.07"/><g class="cls-7"><polygon class="cls-5" points="340.12 417.44 339.44 421.49 337.13 424.89 333.33 426.19 329.6 424.81 327.28 421.46 326.6 417.44 327.11 414.05 328.07 410.73 329.25 407.48 330.63 404.3 331.97 401.1 333.33 397.89 334.67 401.11 336 404.3 337.3 407.5 338.68 410.69 339.57 414.05 340.12 417.44"/><polygon class="cls-6" points="340.12 417.44 339.44 421.49 337.13 424.89 333.33 426.19 329.6 424.81 327.28 421.46 326.6 417.44 327.11 414.05 328.07 410.73 329.25 407.48 330.63 404.3 331.97 401.1 333.33 397.89 334.67 401.11 336 404.3 337.3 407.5 338.68 410.69 339.57 414.05 340.12 417.44"/></g><polygon class="cls-5" points="317.52 389.07 316.96 393.15 314.49 396.43 310.76 398 306.92 396.57 304.66 393.11 303.93 389.07 304.42 385.65 305.62 382.4 306.75 379.13 308.07 375.92 309.42 372.73 310.76 369.64 312.23 372.68 313.6 375.86 314.82 379.1 315.92 382.39 316.99 385.68 317.52 389.07"/><polygon class="cls-6" points="317.52 389.07 316.96 393.15 314.49 396.43 310.76 398 306.92 396.57 304.66 393.11 303.93 389.07 304.42 385.65 305.62 382.4 306.75 379.13 308.07 375.92 309.42 372.73 310.76 369.64 312.23 372.68 313.6 375.86 314.82 379.1 315.92 382.39 316.99 385.68 317.52 389.07"/><polygon class="cls-5" points="317.64 332.32 316.9 336.38 314.6 339.8 310.76 341.1 307.07 339.64 304.7 336.35 303.87 332.32 304.56 328.94 305.51 325.61 306.62 322.33 307.9 319.1 309.32 315.94 310.76 312.92 312.09 315.99 313.6 319.11 314.78 322.36 316.13 325.57 317.01 328.93 317.64 332.32"/><polygon class="cls-6" points="317.64 332.32 316.9 336.38 314.6 339.8 310.76 341.1 307.07 339.64 304.7 336.35 303.87 332.32 304.56 328.94 305.51 325.61 306.62 322.33 307.9 319.1 309.32 315.94 310.76 312.92 312.09 315.99 313.6 319.11 314.78 322.36 316.13 325.57 317.01 328.93 317.64 332.32"/><polygon class="cls-5" points="272.4 332.32 271.64 336.32 269.44 339.77 265.64 341.19 261.88 339.71 259.63 336.33 258.82 332.32 259.49 328.95 260.42 325.62 261.69 322.4 262.76 319.1 264.26 315.97 265.64 312.68 266.98 315.99 268.36 319.15 269.74 322.33 270.99 325.57 271.94 328.92 272.4 332.32"/><polygon class="cls-6" points="272.4 332.32 271.64 336.32 269.44 339.77 265.64 341.19 261.88 339.71 259.63 336.33 258.82 332.32 259.49 328.95 260.42 325.62 261.69 322.4 262.76 319.1 264.26 315.97 265.64 312.68 266.98 315.99 268.36 319.15 269.74 322.33 270.99 325.57 271.94 328.92 272.4 332.32"/><polygon class="cls-5" points="317.56 389.07 316.87 393.11 314.53 396.47 310.76 398 307.01 396.46 304.68 393.11 304.01 389.07 304.4 385.64 305.5 382.36 306.8 379.15 307.88 375.84 309.44 372.74 310.76 369.62 312.14 372.72 313.45 375.92 314.75 379.13 315.91 382.39 317.07 385.66 317.56 389.07"/><polygon class="cls-6" points="317.56 389.07 316.87 393.11 314.53 396.47 310.76 398 307.01 396.46 304.68 393.11 304.01 389.07 304.4 385.64 305.5 382.36 306.8 379.15 307.88 375.84 309.44 372.74 310.76 369.62 312.14 372.72 313.45 375.92 314.75 379.13 315.91 382.39 317.07 385.66 317.56 389.07"/><polygon class="cls-5" points="272.52 389.07 271.62 393.06 269.42 396.49 265.64 397.83 261.91 396.43 259.61 393.08 258.87 389.07 259.36 385.66 260.34 382.35 261.65 379.14 262.78 375.86 264.23 372.7 265.64 369.42 266.99 372.73 268.43 375.88 269.63 379.13 270.84 382.37 271.96 385.66 272.52 389.07"/><polygon class="cls-6" points="272.52 389.07 271.62 393.06 269.42 396.49 265.64 397.83 261.91 396.43 259.61 393.08 258.87 389.07 259.36 385.66 260.34 382.35 261.65 379.14 262.78 375.86 264.23 372.7 265.64 369.42 266.99 372.73 268.43 375.88 269.63 379.13 270.84 382.37 271.96 385.66 272.52 389.07"/><polygon class="cls-5" points="317.68 332.32 316.77 336.33 314.49 339.68 310.76 341.24 307.07 339.64 304.7 336.35 304 332.32 304.5 328.92 305.46 325.6 306.6 322.32 307.96 319.13 309.44 315.99 310.76 312.71 312.07 316 313.48 319.16 314.74 322.38 316.12 325.57 316.92 328.95 317.68 332.32"/><polygon class="cls-6" points="317.68 332.32 316.77 336.33 314.49 339.68 310.76 341.24 307.07 339.64 304.7 336.35 304 332.32 304.5 328.92 305.46 325.6 306.6 322.32 307.96 319.13 309.44 315.99 310.76 312.71 312.07 316 313.48 319.16 314.74 322.38 316.12 325.57 316.92 328.95 317.68 332.32"/><polygon class="cls-5" points="295.07 360.69 294.36 364.76 291.89 368.01 288.2 369.48 284.5 368.03 282.15 364.72 281.4 360.69 281.91 357.29 283.03 354.02 284.03 350.69 285.43 347.52 286.74 344.31 288.2 341.16 289.62 344.32 290.87 347.55 292.29 350.71 293.51 353.96 294.37 357.32 295.07 360.69"/><polygon class="cls-6" points="295.07 360.69 294.36 364.76 291.89 368.01 288.2 369.48 284.5 368.03 282.15 364.72 281.4 360.69 281.91 357.29 283.03 354.02 284.03 350.69 285.43 347.52 286.74 344.31 288.2 341.16 289.62 344.32 290.87 347.55 292.29 350.71 293.51 353.96 294.37 357.32 295.07 360.69"/><polygon class="cls-5" points="272.47 332.32 271.71 336.35 269.47 339.81 265.64 341.14 261.85 339.76 259.49 336.38 258.7 332.32 259.3 328.9 260.42 325.62 261.66 322.39 262.76 319.1 264.11 315.9 265.64 312.72 266.97 315.99 268.47 319.11 269.66 322.36 270.97 325.58 272.01 328.89 272.47 332.32"/><polygon class="cls-6" points="272.47 332.32 271.71 336.35 269.47 339.81 265.64 341.14 261.85 339.76 259.49 336.38 258.7 332.32 259.3 328.9 260.42 325.62 261.66 322.39 262.76 319.1 264.11 315.9 265.64 312.72 266.97 315.99 268.47 319.11 269.66 322.36 270.97 325.58 272.01 328.89 272.47 332.32"/><polygon class="cls-5" points="317.66 389.07 316.8 393.09 314.5 396.44 310.76 397.99 307.04 396.43 304.77 393.07 303.94 389.07 304.52 385.67 305.44 382.34 306.81 379.15 308.1 375.93 309.4 372.72 310.76 369.63 312.27 372.66 313.6 375.86 314.85 379.09 316.02 382.35 316.96 385.69 317.66 389.07"/><polygon class="cls-6" points="317.66 389.07 316.8 393.09 314.5 396.44 310.76 397.99 307.04 396.43 304.77 393.07 303.94 389.07 304.52 385.67 305.44 382.34 306.81 379.15 308.1 375.93 309.4 372.72 310.76 369.63 312.27 372.66 313.6 375.86 314.85 379.09 316.02 382.35 316.96 385.69 317.66 389.07"/><g class="cls-7"><polygon class="cls-5" points="294.99 417.44 294.25 421.46 291.92 424.79 288.2 426.39 284.51 424.76 282.18 421.46 281.25 417.44 282.05 414.07 283.03 410.76 284.06 407.45 285.41 404.26 286.72 401.05 288.2 397.92 289.68 401.05 291 404.25 292.23 407.48 293.48 410.72 294.38 414.07 294.99 417.44"/><polygon class="cls-6" points="294.99 417.44 294.25 421.46 291.92 424.79 288.2 426.39 284.51 424.76 282.18 421.46 281.25 417.44 282.05 414.07 283.03 410.76 284.06 407.45 285.41 404.26 286.72 401.05 288.2 397.92 289.68 401.05 291 404.25 292.23 407.48 293.48 410.72 294.38 414.07 294.99 417.44"/></g><polygon class="cls-5" points="272.36 389.07 271.84 393.15 269.33 396.39 265.64 397.9 261.88 396.47 259.46 393.14 258.76 389.07 259.46 385.69 260.47 382.39 261.66 379.14 262.82 375.87 264.22 372.7 265.64 369.45 267.04 372.71 268.44 375.87 269.69 379.1 270.91 382.35 271.9 385.67 272.36 389.07"/><polygon class="cls-6" points="272.36 389.07 271.84 393.15 269.33 396.39 265.64 397.9 261.88 396.47 259.46 393.14 258.76 389.07 259.46 385.69 260.47 382.39 261.66 379.14 262.82 375.87 264.22 372.7 265.64 369.45 267.04 372.71 268.44 375.87 269.69 379.1 270.91 382.35 271.9 385.67 272.36 389.07"/><polygon class="cls-5" points="272.45 332.32 271.63 336.32 269.42 339.74 265.64 341.23 261.79 339.82 259.56 336.36 258.79 332.32 259.34 328.91 260.41 325.62 261.49 322.32 262.78 319.11 264.22 315.95 265.64 312.82 267.06 315.95 268.37 319.15 269.63 322.38 270.91 325.6 271.89 328.93 272.45 332.32"/><polygon class="cls-6" points="272.45 332.32 271.63 336.32 269.42 339.74 265.64 341.23 261.79 339.82 259.56 336.36 258.79 332.32 259.34 328.91 260.41 325.62 261.49 322.32 262.78 319.11 264.22 315.95 265.64 312.82 267.06 315.95 268.37 319.15 269.63 322.38 270.91 325.6 271.89 328.93 272.45 332.32"/><polygon class="cls-5" points="227.43 332.32 226.5 336.32 224.27 339.72 220.51 341.21 216.75 339.73 214.43 336.36 213.75 332.32 214.25 328.92 215.28 325.62 216.49 322.37 217.64 319.1 219.1 315.95 220.51 312.9 222.02 315.92 223.34 319.11 224.55 322.36 225.72 325.62 226.86 328.9 227.43 332.32"/><polygon class="cls-6" points="227.43 332.32 226.5 336.32 224.27 339.72 220.51 341.21 216.75 339.73 214.43 336.36 213.75 332.32 214.25 328.92 215.28 325.62 216.49 322.37 217.64 319.1 219.1 315.95 220.51 312.9 222.02 315.92 223.34 319.11 224.55 322.36 225.72 325.62 226.86 328.9 227.43 332.32"/><polygon class="cls-5" points="272.44 389.07 271.7 393.1 269.36 396.42 265.64 398.02 261.85 396.5 259.56 393.11 258.76 389.07 259.41 385.68 260.4 382.37 261.68 379.15 262.93 375.92 264.12 372.66 265.64 369.57 267.16 372.65 268.32 375.92 269.81 379.06 270.95 382.33 271.86 385.68 272.44 389.07"/><polygon class="cls-6" points="272.44 389.07 271.7 393.1 269.36 396.42 265.64 398.02 261.85 396.5 259.56 393.11 258.76 389.07 259.41 385.68 260.4 382.37 261.68 379.15 262.93 375.92 264.12 372.66 265.64 369.57 267.16 372.65 268.32 375.92 269.81 379.06 270.95 382.33 271.86 385.68 272.44 389.07"/><polygon class="cls-5" points="227.41 389.07 226.67 393.13 224.33 396.53 220.51 397.88 216.76 396.45 214.35 393.14 213.75 389.07 214.19 385.65 215.32 382.38 216.56 379.15 217.85 375.94 219 372.66 220.51 369.43 221.89 372.72 223.27 375.89 224.64 379.07 225.64 382.4 226.89 385.64 227.41 389.07"/><polygon class="cls-6" points="227.41 389.07 226.67 393.13 224.33 396.53 220.51 397.88 216.76 396.45 214.35 393.14 213.75 389.07 214.19 385.65 215.32 382.38 216.56 379.15 217.85 375.94 219 372.66 220.51 369.43 221.89 372.72 223.27 375.89 224.64 379.07 225.64 382.4 226.89 385.64 227.41 389.07"/><polygon class="cls-5" points="272.44 332.32 271.71 336.35 269.48 339.82 265.64 341.2 261.83 339.77 259.6 336.34 258.86 332.32 259.31 328.9 260.41 325.62 261.61 322.37 262.82 319.13 264.11 315.9 265.64 312.76 267.08 315.94 268.39 319.14 269.75 322.33 270.95 325.58 271.82 328.94 272.44 332.32"/><polygon class="cls-6" points="272.44 332.32 271.71 336.35 269.48 339.82 265.64 341.2 261.83 339.77 259.6 336.34 258.86 332.32 259.31 328.9 260.41 325.62 261.61 322.37 262.82 319.13 264.11 315.9 265.64 312.76 267.08 315.94 268.39 319.14 269.75 322.33 270.95 325.58 271.82 328.94 272.44 332.32"/><polygon class="cls-5" points="249.98 360.69 249.06 364.69 246.92 368.19 243.08 369.53 239.25 368.18 236.92 364.76 236.32 360.69 236.92 357.32 237.94 354.03 238.94 350.7 240.24 347.49 241.62 344.31 243.08 341.18 244.45 344.35 245.84 347.51 247.14 350.72 248.21 354.02 249.29 357.31 249.98 360.69"/><polygon class="cls-6" points="249.98 360.69 249.06 364.69 246.92 368.19 243.08 369.53 239.25 368.18 236.92 364.76 236.32 360.69 236.92 357.32 237.94 354.03 238.94 350.7 240.24 347.49 241.62 344.31 243.08 341.18 244.45 344.35 245.84 347.51 247.14 350.72 248.21 354.02 249.29 357.31 249.98 360.69"/><polygon class="cls-5" points="227.44 332.32 226.68 336.39 224.2 339.64 220.51 341.23 216.75 339.73 214.36 336.38 213.77 332.32 214.34 328.94 215.33 325.64 216.41 322.35 217.7 319.13 219.21 316 220.51 312.79 221.95 315.95 223.22 319.16 224.54 322.36 225.81 325.59 226.76 328.93 227.44 332.32"/><polygon class="cls-6" points="227.44 332.32 226.68 336.39 224.2 339.64 220.51 341.23 216.75 339.73 214.36 336.38 213.77 332.32 214.34 328.94 215.33 325.64 216.41 322.35 217.7 319.13 219.21 316 220.51 312.79 221.95 315.95 223.22 319.16 224.54 322.36 225.81 325.59 226.76 328.93 227.44 332.32"/><polygon class="cls-5" points="272.49 389.07 271.63 393.07 269.4 396.47 265.64 397.91 261.87 396.48 259.55 393.11 258.85 389.07 259.29 385.65 260.35 382.35 261.63 379.13 262.91 375.91 264.31 372.74 265.64 369.57 266.99 372.73 268.37 375.9 269.8 379.06 270.81 382.38 271.86 385.68 272.49 389.07"/><polygon class="cls-6" points="272.49 389.07 271.63 393.07 269.4 396.47 265.64 397.91 261.87 396.48 259.55 393.11 258.85 389.07 259.29 385.65 260.35 382.35 261.63 379.13 262.91 375.91 264.31 372.74 265.64 369.57 266.99 372.73 268.37 375.9 269.8 379.06 270.81 382.38 271.86 385.68 272.49 389.07"/><polygon class="cls-5" points="227.27 389.07 226.53 393.08 224.26 396.45 220.51 397.87 216.68 396.56 214.47 393.09 213.63 389.07 214.21 385.66 215.25 382.36 216.49 379.12 217.84 375.93 219.21 372.75 220.51 369.44 221.86 372.73 223.32 375.87 224.57 379.1 225.77 382.35 226.66 385.7 227.27 389.07"/><polygon class="cls-6" points="227.27 389.07 226.53 393.08 224.26 396.45 220.51 397.87 216.68 396.56 214.47 393.09 213.63 389.07 214.21 385.66 215.25 382.36 216.49 379.12 217.84 375.93 219.21 372.75 220.51 369.44 221.86 372.73 223.32 375.87 224.57 379.1 225.77 382.35 226.66 385.7 227.27 389.07"/><polygon class="cls-5" points="227.47 332.32 226.66 336.38 224.35 339.81 220.51 341.07 216.68 339.81 214.51 336.33 213.56 332.32 214.23 328.91 215.22 325.6 216.36 322.32 217.64 319.1 219.03 315.93 220.51 312.77 221.9 315.97 223.4 319.09 224.5 322.38 225.8 325.59 226.82 328.91 227.47 332.32"/><polygon class="cls-6" points="227.47 332.32 226.66 336.38 224.35 339.81 220.51 341.07 216.68 339.81 214.51 336.33 213.56 332.32 214.23 328.91 215.22 325.6 216.36 322.32 217.64 319.1 219.03 315.93 220.51 312.77 221.9 315.97 223.4 319.09 224.5 322.38 225.8 325.59 226.82 328.91 227.47 332.32"/><polygon class="cls-5" points="227.36 389.07 226.49 393.06 224.22 396.4 220.51 397.98 216.82 396.39 214.39 393.12 213.72 389.07 214.32 385.69 215.31 382.38 216.48 379.12 217.79 375.91 219.15 372.73 220.51 369.49 221.84 372.74 223.3 375.88 224.53 379.11 225.77 382.35 226.84 385.66 227.36 389.07"/><polygon class="cls-6" points="227.36 389.07 226.49 393.06 224.22 396.4 220.51 397.98 216.82 396.39 214.39 393.12 213.72 389.07 214.32 385.69 215.31 382.38 216.48 379.12 217.79 375.91 219.15 372.73 220.51 369.49 221.84 372.74 223.3 375.88 224.53 379.11 225.77 382.35 226.84 385.66 227.36 389.07"/><polygon class="cls-5" points="227.29 332.32 226.53 336.33 224.32 339.77 220.51 341.11 216.75 339.72 214.47 336.34 213.58 332.32 214.14 328.89 215.28 325.62 216.35 322.32 217.66 319.11 219.17 315.98 220.51 312.86 221.93 315.95 223.2 319.17 224.56 322.36 225.85 325.58 226.68 328.95 227.29 332.32"/><polygon class="cls-6" points="227.29 332.32 226.53 336.33 224.32 339.77 220.51 341.11 216.75 339.72 214.47 336.34 213.58 332.32 214.14 328.89 215.28 325.62 216.35 322.32 217.66 319.11 219.17 315.98 220.51 312.86 221.93 315.95 223.2 319.17 224.56 322.36 225.85 325.58 226.68 328.95 227.29 332.32"/><polygon class="cls-5" points="227.39 389.07 226.71 393.15 224.21 396.39 220.51 397.97 216.83 396.38 214.52 393.07 213.7 389.07 214.22 385.66 215.28 382.37 216.55 379.15 217.84 375.93 219.16 372.73 220.51 369.49 221.95 372.69 223.35 375.86 224.5 379.13 225.7 382.38 226.85 385.65 227.39 389.07"/><polygon class="cls-6" points="227.39 389.07 226.71 393.15 224.21 396.39 220.51 397.97 216.83 396.38 214.52 393.07 213.7 389.07 214.22 385.66 215.28 382.37 216.55 379.15 217.84 375.93 219.16 372.73 220.51 369.49 221.95 372.69 223.35 375.86 224.5 379.13 225.7 382.38 226.85 385.65 227.39 389.07"/></g><polyline points="371.06 327.27 374.27 328.97 377.51 330.59 380.81 332.11 384.26 333.22 387.73 334.3 391.19 335.36 394.74 336.11 398.28 336.9 401.85 337.51 405.44 338.03 409.03 338.54 412.64 338.91 416.27 338.93 419.89 339.2 423.51 339.2 427.15 339.16 430.32 337.42 433.54 335.81 436.79 334.25 440.15 332.95 443.55 331.79 446.92 330.5 450.36 329.46 453.84 328.54 457.34 327.68 460.9 327.17 464.43 326.44 468 326 471.56 325.46 475.15 325.23 478.74 324.97 482.31 324.52 485.92 324.51 489.51 324.23 493.1 324.09 496.7 324.08 500.29 323.82 503.88 323.89 507.48 323.82 511.08 323.71 514.68 323.74 518.28 323.75 521.88 323.73 525.48 323.92 529.07 323.79 532.67 323.74 536.28 323.75 539.88 323.73 543.49 323.83 547.09 323.85 550.75 323.84 554.4 323.63 558.04 323.41 561.68 323.13 565.31 322.66 568.89 321.88 572.48 321.25 576.07 320.57 579.54 319.42 583 318.25 586.41 316.96 589.8 315.62 593.09 314.03 596.19 312.1 599.28 310.17 602.16 307.93 605.05 305.69 607.5 302.99 610.03 300.36 612.21 297.43 614.19 294.35 615.71 291.04 617 287.67 613.4 287.76 609.78 287.56 606.17 287.69 602.55 287.61 598.93 287.72 595.32 287.68 591.7 287.61 588.08 287.62 584.47 287.63 580.85 287.65 577.24 287.76 573.62 287.79 570 287.81 566.39 287.88 562.77 287.87 559.16 287.87 555.55 287.67 551.94 287.9 548.33 287.86 544.71 287.8 541.09 287.93 537.48 287.72 533.86 287.74 530.25 287.8 526.64 287.93 523.02 287.79 519.41 287.94 515.79 287.85 512.17 287.83 508.56 287.99 504.94 288.02 501.33 287.93 497.71 287.9 494.09 287.83 490.47 287.86 486.86 288.01 483.24 287.93 479.62 287.93 476 287.91 472.39 287.87 468.77 288.06 465.15 287.97 461.53 287.97 457.91 287.96 454.3 288.07 450.68 288.1 447.06 288.02 443.44 288.06 439.82 287.99 436.2 288.06 432.58 288.04 428.96 288.01 425.34 288.1 421.72 288.21 418.1 288.08 414.48 288.03 410.87 288.22 407.24 288.09 403.63 288.24 400 288.11 396.38 288.12 392.76 288.23 389.14 288.22 385.52 288.21 381.89 288.15 378.27 288.26 374.64 288.29 371.01 288.16"/><polyline class="cls-3" points="371.06 327.27 374.27 328.97 377.51 330.59 380.81 332.11 384.26 333.22 387.73 334.3 391.19 335.36 394.74 336.11 398.28 336.9 401.85 337.51 405.44 338.03 409.03 338.54 412.64 338.91 416.27 338.93 419.89 339.2 423.51 339.2 427.15 339.16 430.32 337.42 433.54 335.81 436.79 334.25 440.15 332.95 443.55 331.79 446.92 330.5 450.36 329.46 453.84 328.54 457.34 327.68 460.9 327.17 464.43 326.44 468 326 471.56 325.46 475.15 325.23 478.74 324.97 482.31 324.52 485.92 324.51 489.51 324.23 493.1 324.09 496.7 324.08 500.29 323.82 503.88 323.89 507.48 323.82 511.08 323.71 514.68 323.74 518.28 323.75 521.88 323.73 525.48 323.92 529.07 323.79 532.67 323.74 536.28 323.75 539.88 323.73 543.49 323.83 547.09 323.85 550.75 323.84 554.4 323.63 558.04 323.41 561.68 323.13 565.31 322.66 568.89 321.88 572.48 321.25 576.07 320.57 579.54 319.42 583 318.25 586.41 316.96 589.8 315.62 593.09 314.03 596.19 312.1 599.28 310.17 602.16 307.93 605.05 305.69 607.5 302.99 610.03 300.36 612.21 297.43 614.19 294.35 615.71 291.04 617 287.67 613.4 287.76 609.78 287.56 606.17 287.69 602.55 287.61 598.93 287.72 595.32 287.68 591.7 287.61 588.08 287.62 584.47 287.63 580.85 287.65 577.24 287.76 573.62 287.79 570 287.81 566.39 287.88 562.77 287.87 559.16 287.87 555.55 287.67 551.94 287.9 548.33 287.86 544.71 287.8 541.09 287.93 537.48 287.72 533.86 287.74 530.25 287.8 526.64 287.93 523.02 287.79 519.41 287.94 515.79 287.85 512.17 287.83 508.56 287.99 504.94 288.02 501.33 287.93 497.71 287.9 494.09 287.83 490.47 287.86 486.86 288.01 483.24 287.93 479.62 287.93 476 287.91 472.39 287.87 468.77 288.06 465.15 287.97 461.53 287.97 457.91 287.96 454.3 288.07 450.68 288.1 447.06 288.02 443.44 288.06 439.82 287.99 436.2 288.06 432.58 288.04 428.96 288.01 425.34 288.1 421.72 288.21 418.1 288.08 414.48 288.03 410.87 288.22 407.24 288.09 403.63 288.24 400 288.11 396.38 288.12 392.76 288.23 389.14 288.22 385.52 288.21 381.89 288.15 378.27 288.26 374.64 288.29 371.01 288.16"/><polyline class="cls-8" points="355.02 288.19 351.39 288.11 347.79 287.69 344.17 287.61 340.56 287.38 336.93 287.29 333.31 287.04 329.69 286.96 326.07 286.72 322.45 286.52 318.83 286.55 315.21 286.36 311.6 286.15 307.97 286.25 304.36 285.93 300.74 285.87 297.12 285.83 293.5 285.81 289.88 285.94 286.26 285.81 282.64 285.88 279.02 285.87 275.4 285.85 271.78 285.83 268.16 285.77 264.54 285.74 260.92 285.75 257.3 285.92 253.68 286.04 250.06 285.96 246.44 285.93 242.83 286.08 239.21 286.13 235.59 286.19 231.98 286.47 228.36 286.58 224.74 286.6 221.11 286.67 217.5 286.93 213.88 286.98 210.28 287.27 206.66 287.42 203.05 287.56 199.44 287.79 195.83 288.05 192.22 288.15 188.61 288.28 184.97 288.57 184.25 292.26 183.63 295.93 183.31 299.64 182.93 303.34 183.1 307.06 183.14 310.79 183.72 314.47 184.83 318.03 186.41 321.39 188.69 324.34 191.86 326.27 195.41 327.29 199.1 327.57 202.68 327.36 206.27 327.41 209.85 327.43 213.43 327.54 217 327.77 220.58 327.99 224.16 327.98 227.73 328.34 231.31 328.54 234.88 328.85 238.46 329.06 242.03 329.3 245.61 329.48 249.18 329.84 252.75 330.22 256.34 330.35 259.92 330.6 263.49 330.87 267.07 331.07 270.63 331.52 274.22 331.63 277.79 331.92 281.38 332.02 284.96 332.31 288.53 332.46 292.11 332.3 295.64 332.43 299.16 332.14 302.67 331.86 306.19 331.61 309.67 331.01 313.18 330.67 316.67 330.13 320.14 329.51 323.63 328.98 327.12 328.42 330.59 327.83 334.1 327.45 337.57 326.79 341.06 326.26 344.55 325.84 348.06 325.47 351.58 325.35 355.1 325.29"/><polyline class="cls-3" points="355.02 288.19 351.39 288.11 347.79 287.69 344.17 287.61 340.56 287.38 336.93 287.29 333.31 287.04 329.69 286.96 326.07 286.72 322.45 286.52 318.83 286.55 315.21 286.36 311.6 286.15 307.97 286.25 304.36 285.93 300.74 285.87 297.12 285.83 293.5 285.81 289.88 285.94 286.26 285.81 282.64 285.88 279.02 285.87 275.4 285.85 271.78 285.83 268.16 285.77 264.54 285.74 260.92 285.75 257.3 285.92 253.68 286.04 250.06 285.96 246.44 285.93 242.83 286.08 239.21 286.13 235.59 286.19 231.98 286.47 228.36 286.58 224.74 286.6 221.11 286.67 217.5 286.93 213.88 286.98 210.28 287.27 206.66 287.42 203.05 287.56 199.44 287.79 195.83 288.05 192.22 288.15 188.61 288.28 184.97 288.57 184.25 292.26 183.63 295.93 183.31 299.64 182.93 303.34 183.1 307.06 183.14 310.79 183.72 314.47 184.83 318.03 186.41 321.39 188.69 324.34 191.86 326.27 195.41 327.29 199.1 327.57 202.68 327.36 206.27 327.41 209.85 327.43 213.43 327.54 217 327.77 220.58 327.99 224.16 327.98 227.73 328.34 231.31 328.54 234.88 328.85 238.46 329.06 242.03 329.3 245.61 329.48 249.18 329.84 252.75 330.22 256.34 330.35 259.92 330.6 263.49 330.87 267.07 331.07 270.63 331.52 274.22 331.63 277.79 331.92 281.38 332.02 284.96 332.31 288.53 332.46 292.11 332.3 295.64 332.43 299.16 332.14 302.67 331.86 306.19 331.61 309.67 331.01 313.18 330.67 316.67 330.13 320.14 329.51 323.63 328.98 327.12 328.42 330.59 327.83 334.1 327.45 337.57 326.79 341.06 326.26 344.55 325.84 348.06 325.47 351.58 325.35 355.1 325.29"/><polygon class="cls-8" points="355.15 332.23 355.15 328.6 355.19 324.96 355.14 321.32 355.05 317.68 355.05 314.04 355.07 310.4 355 306.75 355.17 303.11 355.04 299.47 355.02 295.82 354.92 292.18 355.13 288.54 354.99 284.89 354.96 281.23 357.66 279.27 360.82 278.3 364.12 278.23 367.24 279.36 370.02 281.19 369.98 284.87 369.88 288.53 370 292.2 369.78 295.86 369.87 299.53 369.81 303.19 369.88 306.86 369.77 310.52 369.81 314.19 369.69 317.86 369.6 321.53 369.73 325.2 369.62 328.87 369.49 332.54 369.66 336.21 369.4 339.88 369.39 343.54 369.4 347.2 366.83 346.1 364.21 343.58 361.9 340.77 359.51 338.02 357.24 335.18 355.15 332.23"/><polygon class="cls-3" points="355.15 332.23 355.15 328.6 355.19 324.96 355.14 321.32 355.05 317.68 355.05 314.04 355.07 310.4 355 306.75 355.17 303.11 355.04 299.47 355.02 295.82 354.92 292.18 355.13 288.54 354.99 284.89 354.96 281.23 357.66 279.27 360.82 278.3 364.12 278.23 367.24 279.36 370.02 281.19 369.98 284.87 369.88 288.53 370 292.2 369.78 295.86 369.87 299.53 369.81 303.19 369.88 306.86 369.77 310.52 369.81 314.19 369.69 317.86 369.6 321.53 369.73 325.2 369.62 328.87 369.49 332.54 369.66 336.21 369.4 339.88 369.39 343.54 369.4 347.2 366.83 346.1 364.21 343.58 361.9 340.77 359.51 338.02 357.24 335.18 355.15 332.23"/><polyline class="cls-8" points="547.09 323.69 550.75 323.69 554.39 323.57 558.03 323.31 561.68 323.08 565.29 322.5 568.92 322.1 572.5 321.33 576.02 320.37 579.55 319.45 583.04 318.37 586.47 317.11 589.84 315.71 593.08 314.02 596.25 312.2 599.25 310.13 602.22 308.01 604.99 305.63 607.61 303.09 610.02 300.35 612.17 297.4 614.06 294.28 615.75 291.06 616.99 287.65 616.64 287.16 613.66 289.23 610.74 291.41 607.59 293.26 604.45 295.12 601.09 296.56 597.79 298.1 594.47 299.62 591.03 300.84 587.61 302.11 584.13 303.2 580.6 304.09 577.07 305.02 573.54 305.93 569.93 306.51 566.35 307.21 562.77 307.87 559.14 308.27 555.51 308.61 551.89 309 548.24 309.24 544.61 309.62 540.97 309.85 537.33 310.03 533.67 309.98 530.02 310.08 526.37 309.99 522.72 309.99 519.07 309.8 515.45 309.82 511.84 309.7 508.23 309.61 504.62 309.52 501.01 309.69 497.4 309.65 493.8 309.81 490.19 309.92 486.58 310 482.98 310.22 479.38 310.46 475.78 310.76 472.19 311.06 468.6 311.43 465.01 311.83 461.44 312.37 457.89 313.02 454.33 313.65 450.79 314.33 447.28 315.18 443.74 315.88 440.29 316.95 436.85 318.04 433.47 319.31 430.04 320.42 426.79 322 423.57 323.63 420.44 325.41 417.38 327.32 414.61 329.63 411.98 332.08 409.72 334.89 408.01 338.01 411.82 338.29 415.65 338.34 419.46 338.74 423.3 338.83 427.13 339.06 430.26 337.29 433.52 335.76 436.77 334.21 440.14 332.92 443.53 331.72 446.89 330.43 450.37 329.47 453.87 328.66 457.33 327.67 460.91 327.2 464.45 326.59 468 326.05 471.57 325.57 475.13 325.04 478.73 324.83 482.31 324.48 485.91 324.28 489.5 324.14 493.1 324.04 496.7 324.01 500.29 324 503.89 323.96 507.48 323.79 511.08 323.7 514.68 323.83 518.28 323.92 521.88 323.85 525.48 323.88 529.07 323.93 532.67 323.75 536.28 323.76 539.88 323.86 543.49 323.92 547.09 323.78"/><polyline class="cls-3" points="547.09 323.69 550.75 323.69 554.39 323.57 558.03 323.31 561.68 323.08 565.29 322.5 568.92 322.1 572.5 321.33 576.02 320.37 579.55 319.45 583.04 318.37 586.47 317.11 589.84 315.71 593.08 314.02 596.25 312.2 599.25 310.13 602.22 308.01 604.99 305.63 607.61 303.09 610.02 300.35 612.17 297.4 614.06 294.28 615.75 291.06 616.99 287.65 616.64 287.16 613.66 289.23 610.74 291.41 607.59 293.26 604.45 295.12 601.09 296.56 597.79 298.1 594.47 299.62 591.03 300.84 587.61 302.11 584.13 303.2 580.6 304.09 577.07 305.02 573.54 305.93 569.93 306.51 566.35 307.21 562.77 307.87 559.14 308.27 555.51 308.61 551.89 309 548.24 309.24 544.61 309.62 540.97 309.85 537.33 310.03 533.67 309.98 530.02 310.08 526.37 309.99 522.72 309.99 519.07 309.8 515.45 309.82 511.84 309.7 508.23 309.61 504.62 309.52 501.01 309.69 497.4 309.65 493.8 309.81 490.19 309.92 486.58 310 482.98 310.22 479.38 310.46 475.78 310.76 472.19 311.06 468.6 311.43 465.01 311.83 461.44 312.37 457.89 313.02 454.33 313.65 450.79 314.33 447.28 315.18 443.74 315.88 440.29 316.95 436.85 318.04 433.47 319.31 430.04 320.42 426.79 322 423.57 323.63 420.44 325.41 417.38 327.32 414.61 329.63 411.98 332.08 409.72 334.89 408.01 338.01 411.82 338.29 415.65 338.34 419.46 338.74 423.3 338.83 427.13 339.06 430.26 337.29 433.52 335.76 436.77 334.21 440.14 332.92 443.53 331.72 446.89 330.43 450.37 329.47 453.87 328.66 457.33 327.67 460.91 327.2 464.45 326.59 468 326.05 471.57 325.57 475.13 325.04 478.73 324.83 482.31 324.48 485.91 324.28 489.5 324.14 493.1 324.04 496.7 324.01 500.29 324 503.89 323.96 507.48 323.79 511.08 323.7 514.68 323.83 518.28 323.92 521.88 323.85 525.48 323.88 529.07 323.93 532.67 323.75 536.28 323.76 539.88 323.86 543.49 323.92 547.09 323.78"/><polygon class="cls-8" points="420.85 324.73 417.26 324.18 413.6 323.85 409.97 323.26 406.35 322.67 402.77 321.84 399.17 321.14 395.64 320.12 392.03 319.41 388.57 318.16 385.1 316.96 381.59 315.84 378.32 314.17 375.12 312.35 372.22 310.11 369.95 307.19 370.02 310.63 369.94 314.06 369.92 317.5 369.95 320.93 370.04 324.37 369.97 327.79 373.26 329.18 376.62 330.48 379.96 331.85 383.41 332.92 386.8 334.2 390.28 335.16 393.81 335.96 397.32 336.82 400.86 337.52 404.45 338 408.12 338.2 409.92 334.84 412.15 331.81 414.68 329 417.66 326.68 420.85 324.73"/><polygon class="cls-3" points="420.85 324.73 417.26 324.18 413.6 323.85 409.97 323.26 406.35 322.67 402.77 321.84 399.17 321.14 395.64 320.12 392.03 319.41 388.57 318.16 385.1 316.96 381.59 315.84 378.32 314.17 375.12 312.35 372.22 310.11 369.95 307.19 370.02 310.63 369.94 314.06 369.92 317.5 369.95 320.93 370.04 324.37 369.97 327.79 373.26 329.18 376.62 330.48 379.96 331.85 383.41 332.92 386.8 334.2 390.28 335.16 393.81 335.96 397.32 336.82 400.86 337.52 404.45 338 408.12 338.2 409.92 334.84 412.15 331.81 414.68 329 417.66 326.68 420.85 324.73"/><polygon points="184.61 317.63 188.02 316.5 191.42 315.52 194.87 314.72 198.38 314.24 201.9 313.93 205.43 313.66 208.97 313.85 212.51 313.98 216 314.56 219.49 314.93 222.99 315.18 226.5 315.21 230.01 315.23 233.52 315.09 237.03 314.95 240.51 314.46 244.03 314.3 247.53 314.04 251.03 313.73 254.53 313.49 258.05 313.3 261.56 313.35 265.07 313.45 268.57 313.72 272.02 314.36 275.41 315.19 278.81 315.94 282.22 316.67 285.69 317.02 289.15 317.42 292.64 317.43 296.11 317.19 299.57 316.86 303.01 316.37 306.37 315.43 309.74 314.55 313.02 313.37 316.34 312.14 319.81 311.45 323.31 310.93 326.8 310.33 330.34 310.19 333.88 309.89 337.42 309.84 340.96 309.9 344.49 310.17 348.03 310.22 351.55 310.52 355.02 310.89 354.71 306.97 354.12 303.06 353.86 299.11 353.49 295.17 352.93 291.26 349.35 291.15 345.75 291.35 342.14 291.34 338.54 291.4 334.94 291.27 331.33 291.34 327.72 291.18 324.11 291.43 320.51 291.22 316.9 291.2 313.3 291.44 309.69 291.32 306.08 291.37 302.48 291.4 298.87 291.32 295.26 291.42 291.65 291.35 288.05 291.35 284.44 291.4 280.83 291.52 277.22 291.47 273.61 291.46 270 291.48 266.39 291.38 262.79 291.51 259.18 291.35 255.57 291.43 251.96 291.56 248.35 291.51 244.74 291.47 241.13 291.45 237.52 291.4 233.92 291.48 230.31 291.49 226.7 291.59 223.09 291.53 219.48 291.54 215.87 291.52 212.25 291.51 208.64 291.56 205.03 291.62 201.42 291.59 197.81 291.62 194.19 291.65 190.57 291.53 187.01 291.68 186.64 295.33 186.41 299.05 185.87 302.74 185.55 306.46 185.35 310.18 184.95 313.89 184.61 317.63"/><polygon class="cls-3" points="184.61 317.63 188.02 316.5 191.42 315.52 194.87 314.72 198.38 314.24 201.9 313.93 205.43 313.66 208.97 313.85 212.51 313.98 216 314.56 219.49 314.93 222.99 315.18 226.5 315.21 230.01 315.23 233.52 315.09 237.03 314.95 240.51 314.46 244.03 314.3 247.53 314.04 251.03 313.73 254.53 313.49 258.05 313.3 261.56 313.35 265.07 313.45 268.57 313.72 272.02 314.36 275.41 315.19 278.81 315.94 282.22 316.67 285.69 317.02 289.15 317.42 292.64 317.43 296.11 317.19 299.57 316.86 303.01 316.37 306.37 315.43 309.74 314.55 313.02 313.37 316.34 312.14 319.81 311.45 323.31 310.93 326.8 310.33 330.34 310.19 333.88 309.89 337.42 309.84 340.96 309.9 344.49 310.17 348.03 310.22 351.55 310.52 355.02 310.89 354.71 306.97 354.12 303.06 353.86 299.11 353.49 295.17 352.93 291.26 349.35 291.15 345.75 291.35 342.14 291.34 338.54 291.4 334.94 291.27 331.33 291.34 327.72 291.18 324.11 291.43 320.51 291.22 316.9 291.2 313.3 291.44 309.69 291.32 306.08 291.37 302.48 291.4 298.87 291.32 295.26 291.42 291.65 291.35 288.05 291.35 284.44 291.4 280.83 291.52 277.22 291.47 273.61 291.46 270 291.48 266.39 291.38 262.79 291.51 259.18 291.35 255.57 291.43 251.96 291.56 248.35 291.51 244.74 291.47 241.13 291.45 237.52 291.4 233.92 291.48 230.31 291.49 226.7 291.59 223.09 291.53 219.48 291.54 215.87 291.52 212.25 291.51 208.64 291.56 205.03 291.62 201.42 291.59 197.81 291.62 194.19 291.65 190.57 291.53 187.01 291.68 186.64 295.33 186.41 299.05 185.87 302.74 185.55 306.46 185.35 310.18 184.95 313.89 184.61 317.63"/><polyline points="357.9 279.23 357.99 282.82 357.92 286.41 357.96 290 357.85 293.6 358.01 297.19 357.87 300.78 357.93 304.38 358.1 307.97 357.94 311.57 357.97 315.17 358.03 318.76 358.1 322.36 358.05 325.95 358.01 329.55 358.13 333.15 358 336.75"/><polyline class="cls-3" points="357.9 279.23 357.99 282.82 357.92 286.41 357.96 290 357.85 293.6 358.01 297.19 357.87 300.78 357.93 304.38 358.1 307.97 357.94 311.57 357.97 315.17 358.03 318.76 358.1 322.36 358.05 325.95 358.01 329.55 358.13 333.15 358 336.75"/></g></g></svg>