<svg xmlns="http://www.w3.org/2000/svg" viewBox="0 0 800 800"><defs><style>.cls-2{fill:red}.cls-3{fill:#00f}</style></defs><g style="isolation:isolate"><g id="Layer_1" data-name="Layer 1"><path class="cls-2" d="M623.55 491.87c-.76 7.34-1.72 14.63-2.75 21.9-.5 3.51-.46 6.88-1.12 10.38-.61 3.16-1.17 6.33-1.54 9.53-.86 7.32-1.42 14.87-1.66 22.24-.22 7-.49 13.93.39 20.89 3.43 27.28 15.59 52.56 19.45 79.5 2.3 16.06-.87 32.92-5.65 48.36-.58 1.85 2.32 2.64 2.89.8a168.78 168.78 0 0 0 4.87-20.89c1.3-7.31 1.16-14.37 1.49-21.74.58-13.38-5.6-26.71-8.57-39.66-1.58-6.91-4.12-13.56-6.24-20.34a143.66 143.66 0 0 1-4.25-20.33c-2.31-14.43-1.08-28.57-.27-43.2.45-8 2.18-15.93 3-24 .83-7.81 2.11-15.6 2.93-23.48.19-1.92-2.81-1.91-3 0z"/><path class="cls-3" d="M608.68 415.26c-6 11.52-11.95 23.94-13.47 37-.74 6.35-1.82 12.83-.51 19.23 1.34 6.59 5.25 11.33 10.72 15 9.58 6.38 24 8.88 34.75 4.14 12.57-5.55 13.86-21.2 11.73-33.15-1.3-7.31-2.25-14.89-4.54-22s-4.46-14.4-6.81-21.58c-.6-1.83-3.5-1.05-2.89.79 3.66 11.19 7.51 22.39 9.58 34 1.08 6.07 2.93 12.27 2.6 18.42-.32 5.85-1.37 13.8-6.21 17.64-5.57 4.41-9.41 5.26-16.39 5.15-5.16-.08-12.19-1.29-16.7-3.87-6.23-3.58-10.17-6.48-12.43-13.53-1.73-5.43-1-12-.22-17.63 1.81-13.59 7.06-26 13.38-38.09.89-1.71-1.69-3.23-2.59-1.52z"/><path class="cls-3" d="M608.94 416c7.77 7 15.31 15.41 18.63 25.48 3.43 10.42 3.95 20.13 3.85 31.05-.06 6.35-1.26 12-2.69 18.23-.43 1.88 2.46 2.68 2.89.79 4.88-21.34 5-46.06-8.51-64.38a87.33 87.33 0 0 0-12.05-13.29c-1.43-1.29-3.56.82-2.12 2.12z"/><path class="cls-3" d="M637.35 412.93c-2.7 2.91-5.85 5.84-8.13 9.11-2.43 3.5-3.53 7.16-4.71 11.2a1.5 1.5 0 0 0 2.89.79c1.13-3.86 2.2-7.31 4.26-10.26 2.17-3.13 5.23-5.93 7.81-8.72 1.32-1.42-.8-3.54-2.12-2.12z"/><path style="mix-blend-mode:difference" fill="#00f" d="M617.56 419.72l4.52-3.2 5.76-.03 4.94 3.05-4 5.16-3.75 5.61-3.72-5.5-3.75-5.09z"/><path class="cls-3" d="M618.32 421a37.8 37.8 0 0 0 3.8-2.7c1-.87-.13-.31.39-.3h2.73a22.44 22.44 0 0 1 2.32 0c.66.07-.76-.33-.33-.11a4.78 4.78 0 0 1 .72.44c1.25.95 2.74 1.69 4.08 2.52l-.31-2.36a198.38 198.38 0 0 0-8 11.08h2.59c-2.43-3.59-4.9-7.11-7.47-10.6-1.14-1.53-3.74 0-2.59 1.52 2.56 3.49 5 7 7.47 10.59a1.52 1.52 0 0 0 2.59 0c2.69-4 4.53-6.63 7.52-10.47a1.53 1.53 0 0 0-.31-2.35c-1.46-.9-2.9-2-4.43-2.74a7.63 7.63 0 0 0-3.87-.5c-1.4 0-2.91-.23-4.17.4a34.74 34.74 0 0 0-4.27 3c-1.54 1.11-.04 3.72 1.54 2.58z"/><path class="cls-3" d="M618.7 419.6l2.73 1.47 1.88 1c.32.17 1 .78.58.2s.05.4.14.6l.89 1.93 1.3 2.81c.8 1.76 3.39.23 2.59-1.51l-1.44-3.1a10.3 10.3 0 0 0-1.39-2.82 11.34 11.34 0 0 0-2.74-1.55l-3-1.63c-1.7-.92-3.21 1.67-1.51 2.59zM286.37 207l-6.02.33-6 .64-5.81 1.64-5.84 1.49-5.49 2.48-5.54 2.35-5.21 2.98-5.19 3.05-5.04 3.32-4.34 4.19-4.44 4.08-3.89 4.6-3.67 4.78-3.42 4.97-2.74 5.3-2.5 5.43-1.73 5.71-1.59 5.74-1.18 5.85-.09 5.99.29 5.95.72 5.91.77 5.94 1.67 5.76 2.28 5.54 2.93 5.21 2.69 5.35 3.3 5 4.03 4.45 4.03 4.42 4.44 4.04 4.93 3.42 4.9 3.45 5.23 2.94 5.47 2.45 5.64 2.02 5.59 2.19 5.95.89 5.79 1.51 5.92.92 5.97.44 5.87.17 5.83-.54 5.8-.75 5.76-.97 5.73-1.15 5.64-1.54 5.58-1.76 5.22-2.67 5.5-2.09 5-3.07 4.78-3.39 4.78-3.4 3.96-4.35 4.33-3.96 3.52-4.67 2.98-5.03 3.31-4.83 2-5.51 2.14-5.41 1.67-5.58 1.72-5.62.26-5.86.24-5.82.1-5.85-1-5.76-1.29-5.69-1.54-5.64-2.12-5.47-3.29-5.06-3.08-5.18-3.94-4.56-4.33-4.17-4.29-4.21-4.41-4.12-4.95-3.45-5.31-2.87-4.99-3.36-5.23-3-5.47-2.5-5.27-2.46-5.27-2.47-5.42-2.13-5.61-1.62-5.78-.78-5.78-.88-6.26.25-6.08 1.45-6.13 1.14-5.84 2.17-5.82 2.26-5.5 2.96-5.19 3.45-4.92 3.27-4.89 3.31-4.5 3.82-4.69 3.64-3.7 4.65-4.13 4.25-3.48 4.82-2.51 5.38-2.49 5.33-1.84 5.6-1.23 5.77-.62 5.89"/><path class="cls-2" d="M118 387.73l5.03-3.54 4.77-3.88 5.1-3.43 4.53-4.21 5.11-3.41 4.8-3.83 5.13-3.41 4.69-3.99 5.18-3.32 4.88-3.72 4.86-3.77 4.97-3.61 4.85-3.77 4.9-2.96 4.54-3.48 5.26-2.24 5.08-1.84 5.32-.96 5.35-.72 5.99-.11 5.93-.64 5.91-.82 5.92-.69 5.93-.62 5.9-.87 5.92-.78 5.94-.46 5.95-.47 5.95-.48 5.87-1.1 5.94-.56 5.95-.42 5.94-.54 5.93-.63 5.87-1.15 5.94-.55 5.97-.27 5.93-.65 5.86-1.24 5.94-.57 5.93-.56 5.91-.83 5.96-.36 5.91-.84 5.97-.21 5.87-1.19 5.98-.16 5.91-.76 5.9-.97 5.91-.76 5.95-.45 5.93-.66 5.9-.83 5.94-.54 5.93-.66 5.91-.78 5.96-.34 5.91-.87 5.93-.55 5.92-.73 5.96-.38 5.89-.98 5.79-.41-2.46 5.2-2.53 5.35-3 5.11-2.62 5.32-3.05 5.07-2.49 5.39-2.99 5.11-2.99 5.11-2.89 5.17-3.55 4.77-3.02 5.09-3.57 5.41-4.74 4.49-6.05 1.82-6.25.72-6.05-.15-5.99.77-6.01.5-6.02.17-6.02.44-6.01.32-6.01.57-6.02.29-6 .48-6.04.17-5.98.75-6.01.49-6.02.3-6 .6-6 .56-5.97.9-6.02.42-6.03.17-5.95 1.18-6.05.01-5.94 1.12-6.03.37-5.95.97-5.99.66-6.01.53-6.04.2-5.99.66-5.93 1.16-5.99.68-5.98.72-6.02.49-6 .6-5.94 1.03-6.02.5-5.9 1.31-5.96.89-6.03.38-5.97.87-5.93 1.09-6.01.56-5.89 1.34-5.99.7-6.01.56-5.91 1.22-5.98.81-5.89 1.31-5.99.7-6.01.6-5.84 1.63-5.98.77-5.95.98-5.97.83-5.94 1.04-5.86 1.1 4.27-3.52 4.04-3.87 4.04-3.9 4.39-3.48 4.26-3.64 4.02-3.9 4.12-3.79M383.86 224.71a228.6 228.6 0 0 1 33.3-3.65c10.87-.27 21.93-2.14 33-1.64s21.81 1.47 32.92 2.4c10.92.92 22 3.93 32.78 6.68a144 144 0 0 1 30.7 12.1c10.1 5.28 18.52 11.69 27.4 18.66C592.73 274 604.41 295 614.09 316.5c9.82 21.76 14.4 45.7 18.46 69.08.53 3.1.91 6.17 1.26 9.29.21 1.9 3.22 1.92 3 0-.67-6-1.67-11.89-2.84-17.82s-1.62-11.75-3.15-17.56-3.36-11.66-4.76-17.55-3.59-11.4-5.41-17.19a127.2 127.2 0 0 0-6.73-16.75 163.44 163.44 0 0 0-8.66-16.35c-3.3-5.19-6.8-10.43-10.51-15.34a166.84 166.84 0 0 0-11.67-13.1c-7.59-8.12-17.57-15-27.2-20.57-5.1-3-10-6-15.41-8.51-5.12-2.37-10.53-3.88-15.62-6-9.87-4.19-21.5-6-32-7.81a206.85 206.85 0 0 0-34-3.21c-5.55 0-10.89-.89-16.48-.42s-11.36.06-17 .56c-11.37 1-23 2.07-34.55 3.34-2.59.29-5.14.79-7.7 1.24-1.9.33-1.1 3.22.8 2.89z"/><path class="cls-3" d="M289.56 409c.66 3.57 1 7.06 1.52 10.64.39 2.73 1.41 5.31 1.91 8 1.21 6.62 3.46 12.92 5.78 19.27 1 2.78 1.58 5.8 2.75 8.5 1.34 3.07 3.35 6 4.88 9a145 145 0 0 0 9.42 16.78c3.55 5.18 6.57 10.36 10.77 15.07s8.37 9.6 12.89 14.18a191.17 191.17 0 0 0 30.65 25.07c10.43 6.93 21.38 13.25 33.08 17.72 3.32 1.27 6.5 2.93 9.82 4.17 2.79 1 5.74 1.53 8.54 2.63 6.23 2.46 13 3.62 19.43 5.41 6.18 1.71 12.63 2.17 18.94 3.08 6 .85 12.05 2.15 18.08 2.57a296.86 296.86 0 0 0 39.9-.25c12.34-.79 24.82-2.43 36.72-5.94 12.56-3.69 23.68-8.89 35.1-15.23a43.47 43.47 0 0 0 7.35-5.5c1.47-1.26-.66-3.37-2.12-2.12a106.68 106.68 0 0 1-33.29 17.5c-6.24 1.62-12.3 3.72-18.61 5.16-5.9 1.35-12 1.65-18 2.45-25.19 3.36-51.28 1.36-76.13-3.22-11.91-2.2-24.53-5.19-35.74-9.73-11.81-4.79-24-9.68-34.7-16.76-10.27-6.82-20.55-13.71-29.75-22a131.29 131.29 0 0 1-13.45-13.65c-4.22-5.09-9-9.79-12.55-15.37-3.44-5.41-7.28-10.46-10.12-16.19-2.68-5.43-6.15-10.78-8.5-16.33s-3.73-11.76-5.75-17.48a84.1 84.1 0 0 1-4.58-19.58c-.28-2.95-.83-5.81-1.37-8.73-.36-1.89-3.25-1.09-2.9.8z"/></g></g></svg>