<svg xmlns="http://www.w3.org/2000/svg" viewBox="0 0 800 800"><defs><style>.cls-1{isolation:isolate;}.cls-2{fill:red;}.cls-3,.cls-4{fill:blue;}.cls-4{mix-blend-mode:difference;}.cls-5{mix-blend-mode:darken;}</style></defs><title>flower cycle</title><g class="cls-1"><g id="Layer_1" data-name="Layer 1"><path class="cls-2" d="M623.55,491.87c-.76,7.34-1.72,14.63-2.75,21.9-.5,3.51-.46,6.88-1.12,10.38-.61,3.16-1.17,6.33-1.54,9.53-.86,7.32-1.42,14.87-1.66,22.24-.22,7-.49,13.93.39,20.89,3.43,27.28,15.59,52.56,19.45,79.5,2.3,16.06-.87,32.92-5.65,48.36-.58,1.85,2.32,2.64,2.89.8a168.78,168.78,0,0,0,4.87-20.89c1.3-7.31,1.16-14.37,1.49-21.74.58-13.38-5.6-26.71-8.57-39.66-1.58-6.91-4.12-13.56-6.24-20.34a143.66,143.66,0,0,1-4.25-20.33c-2.31-14.43-1.08-28.57-.27-43.2.45-8,2.18-15.93,3-24,.83-7.81,2.11-15.6,2.93-23.48.19-1.92-2.81-1.91-3,0Z"/><path class="cls-3" d="M608.68,415.26c-6,11.52-11.95,23.94-13.47,37-.74,6.35-1.82,12.83-.51,19.23,1.34,6.59,5.25,11.33,10.72,15,9.58,6.38,24,8.88,34.75,4.14,12.57-5.55,13.86-21.2,11.73-33.15-1.3-7.31-2.25-14.89-4.54-22s-4.46-14.4-6.81-21.58c-.6-1.83-3.5-1.05-2.89.79,3.66,11.19,7.51,22.39,9.58,34,1.08,6.07,2.93,12.27,2.6,18.42-.32,5.85-1.37,13.8-6.21,17.64-5.57,4.41-9.41,5.26-16.39,5.15-5.16-.08-12.19-1.29-16.7-3.87-6.23-3.58-10.17-6.48-12.43-13.53-1.73-5.43-1-12-.22-17.63,1.81-13.59,7.06-26,13.38-38.09.89-1.71-1.69-3.23-2.59-1.52Z"/><path class="cls-3" d="M608.94,416c7.77,7,15.31,15.41,18.63,25.48,3.43,10.42,3.95,20.13,3.85,31.05-.06,6.35-1.26,12-2.69,18.23-.43,1.88,2.46,2.68,2.89.79,4.88-21.34,5-46.06-8.51-64.38a87.33,87.33,0,0,0-12.05-13.29c-1.43-1.29-3.56.82-2.12,2.12Z"/><path class="cls-3" d="M637.35,412.93c-2.7,2.91-5.85,5.84-8.13,9.11-2.43,3.5-3.53,7.16-4.71,11.2a1.5,1.5,0,0,0,2.89.79c1.13-3.86,2.2-7.31,4.26-10.26,2.17-3.13,5.23-5.93,7.81-8.72,1.32-1.42-.8-3.54-2.12-2.12Z"/><polygon class="cls-4" points="617.56 419.72 622.08 416.52 627.84 416.49 632.78 419.54 628.78 424.7 625.03 430.31 621.31 424.81 617.56 419.72"/><path class="cls-3" d="M618.32,421a37.8,37.8,0,0,0,3.8-2.7c1-.87-.13-.31.39-.3.91,0,1.83,0,2.73,0a22.44,22.44,0,0,1,2.32,0c.66.07-.76-.33-.33-.11a4.78,4.78,0,0,1,.72.44c1.25.95,2.74,1.69,4.08,2.52l-.31-2.36c-2.81,3.63-5.44,7.26-8,11.08h2.59c-2.43-3.59-4.9-7.11-7.47-10.6-1.14-1.53-3.74,0-2.59,1.52,2.56,3.49,5,7,7.47,10.59a1.52,1.52,0,0,0,2.59,0c2.69-4,4.53-6.63,7.52-10.47a1.53,1.53,0,0,0-.31-2.35c-1.46-.9-2.9-2-4.43-2.74a7.63,7.63,0,0,0-3.87-.5c-1.4,0-2.91-.23-4.17.4a34.74,34.74,0,0,0-4.27,3C615.24,419.53,616.74,422.14,618.32,421Z"/><path class="cls-3" d="M618.7,419.6l2.73,1.47,1.88,1c.32.17,1,.78.58.2s.05.4.14.6l.89,1.93,1.3,2.81c.8,1.76,3.39.23,2.59-1.51L627.37,423a10.3,10.3,0,0,0-1.39-2.82,11.34,11.34,0,0,0-2.74-1.55l-3-1.63c-1.7-.92-3.21,1.67-1.51,2.59Z"/><polyline class="cls-3" points="286.37 207 280.35 207.33 274.35 207.97 268.54 209.61 262.7 211.1 257.21 213.58 251.67 215.93 246.46 218.91 241.27 221.96 236.23 225.28 231.89 229.47 227.45 233.55 223.56 238.15 219.89 242.93 216.47 247.9 213.73 253.2 211.23 258.63 209.5 264.34 207.91 270.08 206.73 275.93 206.64 281.92 206.93 287.87 207.65 293.78 208.42 299.72 210.09 305.48 212.37 311.02 215.3 316.23 217.99 321.58 221.29 326.58 225.32 331.03 229.35 335.45 233.79 339.49 238.72 342.91 243.62 346.36 248.85 349.3 254.32 351.75 259.96 353.77 265.55 355.96 271.5 356.85 277.29 358.36 283.21 359.28 289.18 359.72 295.05 359.89 300.88 359.35 306.68 358.6 312.44 357.63 318.17 356.48 323.81 354.94 329.39 353.18 334.61 350.51 340.11 348.42 345.11 345.35 349.89 341.96 354.67 338.56 358.63 334.21 362.96 330.25 366.48 325.58 369.46 320.55 372.77 315.72 374.77 310.21 376.91 304.8 378.58 299.22 380.3 293.6 380.56 287.74 380.8 281.92 380.9 276.07 379.9 270.31 378.61 264.62 377.07 258.98 374.95 253.51 371.66 248.45 368.58 243.27 364.64 238.71 360.31 234.54 356.02 230.33 351.61 226.21 346.66 222.76 341.35 219.89 336.36 216.53 331.13 213.53 325.66 211.03 320.39 208.57 315.12 206.1 309.7 203.97 304.09 202.35 298.31 201.57 292.53 200.69 286.27 200.94 280.19 202.39 274.06 203.53 268.22 205.7 262.4 207.96 256.9 210.92 251.71 214.37 246.79 217.64 241.9 220.95 237.4 224.77 232.71 228.41 229.01 233.06 224.88 237.31 221.4 242.13 218.89 247.51 216.4 252.84 214.56 258.44 213.33 264.21 212.71 270.1"/><g class="cls-5"><polyline class="cls-2" points="118 387.73 123.03 384.19 127.8 380.31 132.9 376.88 137.43 372.67 142.54 369.26 147.34 365.43 152.47 362.02 157.16 358.03 162.34 354.71 167.22 350.99 172.08 347.22 177.05 343.61 181.9 339.84 186.8 336.88 191.34 333.4 196.6 331.16 201.68 329.32 207 328.36 212.35 327.64 218.34 327.53 224.27 326.89 230.18 326.07 236.1 325.38 242.03 324.76 247.93 323.89 253.85 323.11 259.79 322.65 265.74 322.18 271.69 321.7 277.56 320.6 283.5 320.04 289.45 319.62 295.39 319.08 301.32 318.45 307.19 317.3 313.13 316.75 319.1 316.48 325.03 315.83 330.89 314.59 336.83 314.02 342.76 313.46 348.67 312.63 354.63 312.27 360.54 311.43 366.51 311.22 372.38 310.03 378.36 309.87 384.27 309.11 390.17 308.14 396.08 307.38 402.03 306.93 407.96 306.27 413.86 305.44 419.8 304.9 425.73 304.24 431.64 303.46 437.6 303.12 443.51 302.25 449.44 301.7 455.36 300.97 461.32 300.59 467.21 299.61 473 299.2 470.54 304.4 468.01 309.75 465.01 314.86 462.39 320.18 459.34 325.25 456.85 330.64 453.86 335.75 450.87 340.86 447.98 346.03 444.43 350.8 441.41 355.89 437.84 361.3 433.1 365.79 427.05 367.61 420.8 368.33 414.75 368.18 408.76 368.95 402.75 369.45 396.73 369.62 390.71 370.06 384.7 370.38 378.69 370.95 372.67 371.24 366.67 371.72 360.63 371.89 354.65 372.64 348.64 373.13 342.62 373.43 336.62 374.03 330.62 374.59 324.65 375.49 318.63 375.91 312.6 376.08 306.65 377.26 300.6 377.27 294.66 378.39 288.63 378.76 282.68 379.73 276.69 380.39 270.68 380.92 264.64 381.12 258.65 381.78 252.72 382.94 246.73 383.62 240.75 384.34 234.73 384.83 228.73 385.43 222.79 386.46 216.77 386.96 210.87 388.27 204.91 389.16 198.88 389.54 192.91 390.41 186.98 391.5 180.97 392.06 175.08 393.4 169.09 394.1 163.08 394.66 157.17 395.88 151.19 396.69 145.3 398 139.31 398.7 133.3 399.3 127.46 400.93 121.48 401.7 115.53 402.68 109.56 403.51 103.62 404.55 97.76 405.65 102.03 402.13 106.07 398.26 110.11 394.36 114.5 390.88 118.76 387.24 122.78 383.34 126.9 379.55"/></g><path class="cls-2" d="M383.86,224.71a228.6,228.6,0,0,1,33.3-3.65c10.87-.27,21.93-2.14,33-1.64s21.81,1.47,32.92,2.4c10.92.92,22,3.93,32.78,6.68a144,144,0,0,1,30.7,12.1c10.1,5.28,18.52,11.69,27.4,18.66C592.73,274,604.41,295,614.09,316.5c9.82,21.76,14.4,45.7,18.46,69.08.53,3.1.91,6.17,1.26,9.29.21,1.9,3.22,1.92,3,0-.67-6-1.67-11.89-2.84-17.82s-1.62-11.75-3.15-17.56-3.36-11.66-4.76-17.55-3.59-11.4-5.41-17.19A127.2,127.2,0,0,0,613.92,308a163.44,163.44,0,0,0-8.66-16.35c-3.3-5.19-6.8-10.43-10.51-15.34a166.84,166.84,0,0,0-11.67-13.1c-7.59-8.12-17.57-15-27.2-20.57-5.1-3-10-6-15.41-8.51-5.12-2.37-10.53-3.88-15.62-6-9.87-4.19-21.5-6-32-7.81a206.85,206.85,0,0,0-34-3.21c-5.55,0-10.89-.89-16.48-.42s-11.36.06-17,.56c-11.37,1-23,2.07-34.55,3.34-2.59.29-5.14.79-7.7,1.24-1.9.33-1.1,3.22.8,2.89Z"/><path class="cls-3" d="M289.56,409c.66,3.57,1,7.06,1.52,10.64.39,2.73,1.41,5.31,1.91,8,1.21,6.62,3.46,12.92,5.78,19.27,1,2.78,1.58,5.8,2.75,8.5,1.34,3.07,3.35,6,4.88,9a145,145,0,0,0,9.42,16.78c3.55,5.18,6.57,10.36,10.77,15.07s8.37,9.6,12.89,14.18a191.17,191.17,0,0,0,30.65,25.07c10.43,6.93,21.38,13.25,33.08,17.72,3.32,1.27,6.5,2.93,9.82,4.17,2.79,1,5.74,1.53,8.54,2.63,6.23,2.46,13,3.62,19.43,5.41,6.18,1.71,12.63,2.17,18.94,3.08,6,.85,12.05,2.15,18.08,2.57a296.86,296.86,0,0,0,39.9-.25c12.34-.79,24.82-2.43,36.72-5.94,12.56-3.69,23.68-8.89,35.1-15.23a43.47,43.47,0,0,0,7.35-5.5c1.47-1.26-.66-3.37-2.12-2.12a106.68,106.68,0,0,1-33.29,17.5c-6.24,1.62-12.3,3.72-18.61,5.16-5.9,1.35-12,1.65-18,2.45-25.19,3.36-51.28,1.36-76.13-3.22-11.91-2.2-24.53-5.19-35.74-9.73-11.81-4.79-24-9.68-34.7-16.76-10.27-6.82-20.55-13.71-29.75-22a131.29,131.29,0,0,1-13.45-13.65c-4.22-5.09-9-9.79-12.55-15.37-3.44-5.41-7.28-10.46-10.12-16.19-2.68-5.43-6.15-10.78-8.5-16.33s-3.73-11.76-5.75-17.48a84.1,84.1,0,0,1-4.58-19.58c-.28-2.95-.83-5.81-1.37-8.73-.36-1.89-3.25-1.09-2.9.8Z"/></g></g></svg>