<svg id="Layer_1" data-name="Layer 1" xmlns="http://www.w3.org/2000/svg" viewBox="0 0 800 800"><defs><style>.cls-1{fill:red}.cls-2,.cls-5{fill:#00f}.cls-4,.cls-5{stroke:#00f;stroke-linejoin:bevel;stroke-width:3px}.cls-4{fill:none}</style></defs><path class="cls-1" d="M377.1 647.18c6.66-24.86 33.84-37.2 51-56.42 18.89-21.21 21.88-52.24 19.21-80.51-3.56 17.17-7.84 35.6-21 47.15-7.72 6.76-18.28 10.94-22.92 20.1-5.06-18.86 10.25-36.28 18.36-54a77.48 77.48 0 0 0 2.56-57.26c-.77 12.48-1.73 25.59-8.58 36.06-6.57 10.06-18.2 17-21.39 28.63"/><path class="cls-1" d="M377.82 647.38c7.63-26.74 36.35-38.16 52.77-58.44 17.68-21.84 19.86-51.78 17.43-78.69-.07-.78-1.29-1.09-1.47-.2-2.92 14-6.06 28.77-14.88 40.38-8.09 10.64-22.47 14.81-29 26.69l1.37.18c-4.88-20.36 11.55-37.65 19-55.13A78.9 78.9 0 0 0 425 466a.75.75 0 0 0-1.47.2c-.87 14-2.14 28.33-11.38 39.59-6.64 8.09-15.36 14.53-18.56 24.9-.29.92 1.16 1.32 1.44.4 3.73-12.07 15.3-18.78 21.75-29.14 6.62-10.63 7.49-23.58 8.25-35.75l-1.47.19c7.19 21.23 4.76 43.5-5.72 63.16-7.9 14.82-19.46 30.43-15.2 48.15a.76.76 0 0 0 1.37.18c3.83-7 10.44-10.91 16.77-15.34a52.15 52.15 0 0 0 13.48-13.06c7.94-11.49 11-25.58 13.79-39l-1.48-.2c2.64 29.14-.41 61.06-21.82 83-16.75 17.09-41.39 29.2-48.38 53.72a.75.75 0 0 0 1.45.4z"/><path class="cls-1" d="M394.81 505.81a88.56 88.56 0 0 0 38.26-46.44c8.09-23 7.37-50.54 24.53-67.8-9.66 5.39-19.69 11.11-25.86 20.29-8.63 12.85-8.82 31.18-20.83 40.95 6.45-15.89-3.24-33.84-1.29-50.88 1.37-11.94 8.32-22.41 15.07-32.36a62.81 62.81 0 0 0-29 35.35"/><path class="cls-1" d="M395.19 506.46a90.24 90.24 0 0 0 39.55-49.72c6.93-21.69 6.74-47.32 23.39-64.64a.75.75 0 0 0-.91-1.18C445.52 397.46 434 404.48 428 417c-5.66 11.87-7.12 26.27-17.6 35.27l1.26.73c4.93-13.26.1-26.83-1.21-40.27-1.61-16.54 5.95-29.57 14.91-42.79.43-.64-.41-1.38-1-1a64.66 64.66 0 0 0-29.38 35.79c-.31.92 1.14 1.31 1.45.4a63 63 0 0 1 28.69-34.9l-1-1c-7.91 11.69-15.67 23.91-15.42 38.54.27 15 7.06 30.11 1.57 44.88-.28.76.74 1.17 1.25.73 9.12-7.84 11.57-19.75 15.69-30.5 2.67-7 6.26-13 11.86-18.07s12.37-8.86 19-12.56l-.91-1.17c-15 15.63-16.6 38-21.72 58-6 23.5-20 43.52-40.92 56.07-.82.5-.07 1.8.76 1.3zM385.07 603c7.13-2.73 12-9.35 15.36-16.23s5.44-14.3 9.22-20.93a47.79 47.79 0 0 1 16.51-17c-10-.1-18.44 7.41-23.82 15.78s-8.72 18-14.53 26"/><path class="cls-1" d="M385.45 603.64c9.51-4.07 14.43-13.18 18.17-22.32 5.31-13 10.7-24.1 22.92-31.86a.75.75 0 0 0-.38-1.39c-22.55.63-28.52 27.11-39 42.19-.55.8.75 1.55 1.3.76 10.13-14.58 15.93-40.84 37.7-41.45l-.37-1.4c-9.38 6-15.89 14.23-20.23 24.4-4.82 11.28-8.56 24.52-20.87 29.78-.88.37-.12 1.67.76 1.29zM396.16 537.68c-.25-2.76 1.24-5.36 2.71-7.72q7.59-12.16 16.27-23.63c2.38-3.15 4.87-6.33 6.14-10.08 1.65-4.87 1.08-10.18.48-15.29a3.71 3.71 0 0 0-.59-1.92 3 3 0 0 0-1.45-.89c-5.25-1.7-10.35 2.66-14.16 6.65-2.77 2.91-5.59 5.89-7.21 9.56a32.91 32.91 0 0 0-2.14 9.33q-1.17 9.42-1.74 18.91c-.14 2.34-.12 5 1.64 6.57l3.44-.88"/><path class="cls-1" d="M396.91 537.68c.12-4.57 3.29-8.48 5.69-12.18q3.12-4.82 6.42-9.51c3.91-5.57 8.94-10.89 11.92-17 2.51-5.14 2.39-10.73 1.77-16.29-.36-3.19-.87-5.15-4.42-5.58-4.51-.56-8.57 2.64-11.62 5.55-3.87 3.68-7.83 7.88-9.62 13-2.11 6-2.24 13.07-2.78 19.37-.4 4.7-1.94 10.7 1.31 14.68a.73.73 0 0 0 .72.19l3.45-.87a.75.75 0 0 0-.4-1.45c-3.77 1-4.18-1.85-4.13-5 0-2.52.33-5.07.55-7.58.47-5.51.78-11.28 2.08-16.67s4.9-9.64 8.78-13.57a26.52 26.52 0 0 1 5.85-4.77c2.86-1.57 3-1.42 6 .68 3.14 2.24 2.88 2.08 3.08 5.42a24.26 24.26 0 0 1-4 15.73c-2.72 4.06-5.85 7.85-8.68 11.83q-4.71 6.62-9.08 13.49c-2.14 3.37-4.23 6.43-4.34 10.52a.75.75 0 0 0 1.5 0zM420.49 471.54a59.81 59.81 0 0 0 29.35-39.83c-.7 11.33-2 23-7.82 32.78-2.8 4.68-6.54 8.72-9.56 13.25s-5.37 9.85-4.83 15.27"/><path class="cls-1" d="M420.87 472.18a61.37 61.37 0 0 0 29.7-40.27l-1.48-.2c-.78 12.09-2.24 24.41-9.2 34.69-5.66 8.36-13.54 15.74-13 26.61 0 1 1.54 1 1.5 0-.63-12.94 11.2-21.08 16.25-31.88 4.3-9.18 5.32-19.42 6-29.42a.75.75 0 0 0-1.47-.2 59.83 59.83 0 0 1-29 39.38c-.84.47-.08 1.77.76 1.29zM409.9 437.67c.63-8.65-2.33-17.37-1-25.93 1.77-11 10.57-19.86 20.51-25a34.78 34.78 0 0 0-13.22 28.5c.23 5.49 1.79 10.88 1.68 16.38-.16 8-3.82 15.47-7.4 22.63"/><path class="cls-1" d="M410.65 437.67c.47-10.42-3.43-21.08.54-31.18 3.38-8.59 10.66-14.83 18.64-19.08l-.91-1.18a36 36 0 0 0-13.45 26.7c-.19 6.58 2 13 1.65 19.56-.4 7.65-3.9 14.67-7.26 21.4-.42.86.87 1.63 1.3.76 5.19-10.42 8.45-19.64 6.76-31.4-2-13.95.67-26.69 12.06-36 .68-.55-.19-1.56-.91-1.18-8 4.28-15.33 10.53-19 19-4.5 10.53-.46 21.58-1 32.52 0 1 1.46 1 1.5 0zM413.58 538.68c3.57-6.89 10.85-16.11 15.2-22.53 3.28-4.83 4.71-10.63 6.76-16.1s5.06-11 10.2-13.74c-6.24.16-11.11 5.36-14.58 10.54s-6.67 11-12.23 13.89"/><path class="cls-1" d="M414.22 539.06c4.6-8.54 11.27-15.68 16.14-24 5.45-9.33 5.65-22 15.76-28.09.6-.36.39-1.47-.38-1.4-14 1.23-16.37 18.35-27.19 24.53a.75.75 0 0 0 .76 1.3c10.47-6 13.18-23.17 26.43-24.33l-.38-1.4c-9.31 5.58-10.55 16.44-14.71 25.54-4.47 9.77-12.62 17.62-17.72 27.1-.46.85.84 1.61 1.29.76z"/><path class="cls-2" d="M359 327.47c-7.39-16.76-7.19-35.17-5.8-53.1 1.37-17.75 2.76-35.22 2.88-53 .14-18.72.57-37.49 2.92-56.08.29-2.24.08-7.05 1.42-8.44s4.77-2.05 6.58-2.55a30.81 30.81 0 0 1 25.25 4c1.63 1 3.14-1.56 1.51-2.59a34.25 34.25 0 0 0-32.37-2.63c-3.66 1.56-3.94 2-4.57 6.22-1.18 7.93-2 15.91-2.53 23.91-1.15 16.79-1.13 33.6-1.26 50.42-.12 15.7-2.34 31.27-3.26 46.93-1 16.54-.13 33.11 6.64 48.46.78 1.76 3.37.24 2.59-1.52z"/><path class="cls-2" d="M391.53 157.37c4.73 29.49 2.87 59 4.71 88.61 1.67 27 7.93 55.77-3.42 81.49-.77 1.75 1.81 3.28 2.59 1.52 11.39-25.81 5.78-54.16 3.94-81.24-1-14.95-.48-30-.91-44.94a356.07 356.07 0 0 0-4-46.24c-.3-1.9-3.19-1.09-2.89.8z"/><path d="M397 356.08s2.86 168.35-9.14 230.35l-12 62-12-62c-12-62-9.15-230.35-9.15-230.35" stroke="#00f" stroke-linejoin="bevel" stroke-width="3" fill="#fff"/><path class="cls-2" d="M374.4 300.43c-1.09 10.39 8.77 19 15.09 25.89a92.08 92.08 0 0 1 11.38 15.76 61.8 61.8 0 0 1 5 10.14c.64 1.78 3.23 9.5 1.83 10.31l1.82.23c-6.61-5.13-14.32-11.06-23.24-9.47a14.54 14.54 0 0 0-11.8 14.91l1.5-1.5h-.08l1.5 1.5a14.54 14.54 0 0 0-11.81-14.91c-8.92-1.59-16.63 4.34-23.24 9.47l1.82-.23c-1.39-.8 1.28-8.77 1.83-10.31a60.67 60.67 0 0 1 5-10.14 91.48 91.48 0 0 1 11.37-15.76c6.33-6.9 16.18-15.51 15.1-25.89-.2-1.9-3.2-1.92-3 0 1.22 11.65-12.43 20.91-18.84 29.1-7.45 9.52-14.31 21.4-14.66 33.73a1.46 1.46 0 0 0 .74 1.29l1 .57a1.54 1.54 0 0 0 1.81-.24c5.06-3.92 10.95-8.72 17.68-8.83a11.64 11.64 0 0 1 12.25 12.15 1.52 1.52 0 0 0 1.5 1.5h.08a1.52 1.52 0 0 0 1.5-1.5 11.6 11.6 0 0 1 12.24-12.15c6.84.34 12.5 4.81 17.68 8.83a1.58 1.58 0 0 0 1.82.24l1-.57a1.49 1.49 0 0 0 .75-1.29c-.36-12.33-7.22-24.21-14.67-33.73-6.41-8.19-20.05-17.45-18.83-29.1.08-1.92-2.92-1.9-3.12 0z"/><path class="cls-4" d="M360.73 564.95l15.17-26.27 15.16 26.27"/><path class="cls-5" d="M363.33 580.18l12.57-23.5 12.57 23.5-12.57 61.58-12.57-61.58z"/><path class="cls-4" d="M375.9 538.68v-175"/><path class="cls-5" d="M375.77 339.29a15.23 15.23 0 0 0-15.23 15.23v.15a14.35 14.35 0 0 1 8.26 1.21 13 13 0 0 1 7.05 12.32h.08a13 13 0 0 1 7-12.32 14.3 14.3 0 0 1 8-1.24v-.12a15.23 15.23 0 0 0-15.16-15.23z"/><path class="cls-4" d="M375.9 348.22c-17.93-7-29.9 0-29.9 0M360.88 326.57s11.36 9.15 14 23.65M375.72 348.22c17.92-7 29.9 0 29.9 0M390.74 326.57s-11.36 9.15-14 23.65M375.9 302.93v36.36M355.68 184.42s20.57-17.68 40.39 0"/><path class="cls-4" d="M375.92 176.58l21.76 68.49-21.78 55.36-21.79-55.36 21.76-68.49"/><path class="cls-5" d="M375.92 176.58h-.05l-21.76 68.49 21.79 55.36 21.78-55.36zm-10.67 68.17l10.66-33.56 10.66 33.56-10.67 27.13z"/><path class="cls-4" d="M362.85 154.05l-1.84 26.83M368.36 152.37l-1.63 25.96M373.34 151.65l-.41 24.91M388.51 154.05l1.83 26.83M382.99 152.37l1.64 25.96M378.01 151.65l.42 24.91"/><path class="cls-5" d="M354.11 245.07c-5.78 37.64 11.14 75.36 11.14 75.36l-8.5 5.09-5.5-45.11M397.91 245.07c5.79 37.64-11.81 75.36-11.81 75.36l9.18 5.09 4.49-45.11M364.18 179.33s-9.65 28.6-9.65 45.6l2.69-39.75zM387.3 179.33s9.65 28.6 9.65 45.6l-2.7-39.75zM354.53 377.1l21.37 36.33v27.33l-21.45-35 .08-28.66zM354.81 444.1l20.37 36.33 1 28.33-20.45-36-.92-28.66zM375.9 389.1l21.44 34-.4-31-21.22-31.45"/><path class="cls-5" d="M376.72 456.33l19.19 30.43.61-31-22.23-31.44M376.22 520.93l16.44 27.89 1.86-31-22.23-31.45M356.73 508.76l17.52 28.7-7.02 14.3-7.58-14.33-2.92-28.67z"/></svg>