<svg xmlns="http://www.w3.org/2000/svg" viewBox="0 0 800 800"><defs><style>.b{fill:#fca14f}.c{fill:#fff}</style></defs><path d="M499.75 444.26v16.46c0 7.71.09 15.42.14 23.13s.19 15.73.17 23.59c0 4.42-.33 8.83-.34 13.24 0 5.32.25 10.63.25 15.94 0 5.72-.22 11.44-.23 17.16 0 6.34.15 12.67.2 19 0 2.89-.06 5.78-.05 8.67 0 3.67.09 7.35.1 11s0 7.47 0 11.21c.05 5.48.21 11 .23 16.45 0 3.94-.18 7.87-.18 11.81 0 8 .06 16 0 24 0 6-.21 12-.24 18.08 0 1.4.46 2.8.46 4.2 0 5.83-.06 11.66-.05 17.5 0 3.72.25 7.45.13 11.18-.13 4.47-.52 8.93-.84 13.4-.13 1.78-.32 3.56-.59 5.33-.07.44-.56.81-.85 1.21-1.3-1-1.54.37-2.17.93-1.19 1.06-2.4 2.11-3.65 3.11-2.73 2.18-5.53 4.28-8.24 6.5-3.48 2.85-6.87 5.83-10.35 8.68-2.28 1.86-4.72 3.6-7.76 3.75-4 .2-8 .12-11.95.13h-13.68c-4.66 0-9.31-.06-14-.17-5.7-.13-11.4-.4-17.11-.52-6.5-.14-13-.21-19.52-.25-4.17 0-8.35.13-12.53.1-3.68 0-7.37-.23-11.05-.28h-9.75c-3.69 0-7.38-.13-11.08-.13-4.06 0-8.12.13-12.18.13q-11.49 0-23-.07c-7.93-.06-15.86-.22-23.8-.29h-17.67c-7.15 0-14.3-.09-21.45-.1-5.26 0-10.52.07-15.78.07-4.35 0-8.7-.18-13.05-.05s-8.79.65-13.19.73a12.2 12.2 0 0 1-4.95-1.22c-.55-.25-.66-1.64-.84-2.53a13.16 13.16 0 0 1-.21-2.51v-8.56c0-.77-.09-1.54-.12-2.31-.09-2.56-.24-5.11-.23-7.67 0-4.67.13-9.34.14-14 0-2.51-.16-5-.18-7.52v-12c0-1.1-.15-2.2-.16-3.31 0-1.77.1-3.54.07-5.3 0-3.54-.15-7.07-.21-10.61 0-3.12 0-6.25-.06-9.38V646.5c0-5.88.14-11.77.12-17.65 0-6.47-.17-12.94-.27-19.41s-.27-12.77-.31-19.16c-.06-9.1 0-18.19-.06-27.29-.06-9.29-.26-18.57-.32-27.86 0-5.43.16-10.85.12-16.28 0-5.1-.27-10.2-.35-15.3-.11-6.89-.16-13.79-.24-20.69-.09-7.08-.21-14.17-.24-21.25v-23.48c0-6.53-.18-13.06-.26-19.59q-.15-10.89-.27-21.78t-.18-21.55c0-4.16-.07-8.31.05-12.45a6.2 6.2 0 0 1 1.18-2.37c1.16-2 2.26-4.13 3.55-6.09 1.13-1.71 2.48-3.27 3.74-4.9q4.08-5.26 8.16-10.54c1-1.27 1.4-2.95 3.44-3.28 2.77-.45 5.46-1.55 8.24-1.85s5.75.1 8.64.06c5.33-.06 10.66-.26 16-.33 3.44-.05 6.89.08 10.34 0 5.89-.13 11.77-.34 17.66-.54 1.47 0 2.26-.47 2.35-2.35a75 75 0 0 1 1.46-9 23 23 0 0 1 .78-3.61 39.59 39.59 0 0 1 1.83-3.91c.08-.16.22-.29.31-.45 1.38-2.59 2.68-5.22 4.16-7.74 1-1.74 2.32-3.34 3.5-5 1.3-1.83 2.52-3.73 3.94-5.46 2.76-3.34 5.81-6.47 8.44-9.91 3.65-4.77 7.4-9.51 9.46-15.29.68-1.9 1.84-3.65 2.39-5.57a104.88 104.88 0 0 0 2.62-11.12 123 123 0 0 1 4.33-15.83 28.77 28.77 0 0 1 4.44-8.81c2.27-3 4-6.46 6.08-9.65a25.34 25.34 0 0 1 2.9-3.56c3.34-3.51 6.58-7.12 10.13-10.4 3.05-2.82 6.53-5.17 9.71-7.84 4.68-3.94 9.26-8 13.91-12a54.7 54.7 0 0 0 12.72-15.38c1.93-3.52 4.54-6.67 6.67-10.09 1.42-2.28 2.33-4.91 3.87-7.09 2.61-3.68 3.78-8 5.52-12 2.3-5.3 4.61-10.6 7.06-15.84 3.06-6.56 6.15-13.12 9.44-19.57a89.55 89.55 0 0 1 5.27-8.32c2.13-3.21 4.23-6.45 6.51-9.56 1.15-1.57 2.7-2.84 4-4.31 2.56-2.91 4.94-6 7.64-8.74a45.29 45.29 0 0 1 12-9.3c2.29-1.14 4.4-2.66 6.65-3.91 3-1.65 6-3.39 9.11-4.77a71.29 71.29 0 0 1 14.93-5.16c2.06-.4 4.09-1 6.14-1.47 1-.24 1.21.43 1.79 1.19 1.63 2.18.17 2.61-1.36 3.22-.22.09-.56.24-.58.4-.34 2.32-2.42 2.26-4 3.06a53.92 53.92 0 0 0-7.53 4.6c-3.74 2.85-7.37 5.87-10.84 9-3 2.71-5.63 5.75-8.43 8.65-.72.75-1.5 1.45-2.14 2.26a57.77 57.77 0 0 0-8.69 16.09c-1.45 3.87-3.16 7.68-4.25 11.66-1.14 4.17-1.53 8.55-2.54 12.77-1.66 6.92-1.21 14-1.59 21-.21 3.82.34 7.68.48 11.52.12 3 .08 6 .23 9 .36 7-1 13.86-2.76 20.54-1.06 4-3.17 7.86-5.22 11.55-2.65 4.77-5.61 9.39-8.63 13.94-1.35 2-3.21 3.71-4.75 5.62-2.18 2.72-4.28 5.51-6.41 8.27-.23.28-.36.69-.63.89-3.06 2.22-4.36 5.69-6.11 8.8a89.33 89.33 0 0 0-5.85 11.65 49.72 49.72 0 0 0-2.47 10.69 26.76 26.76 0 0 0 .19 7.31 10.86 10.86 0 0 0 3.19 6.66 5.59 5.59 0 0 0 5.6 1.51 11.74 11.74 0 0 0 8.06-6.52c1.41-3.05 2.59-6.22 3.69-9.39a67.56 67.56 0 0 1 7.12-15.32c1.13-1.72 2.52-3.27 3.76-4.92.8-1.06 1.53-2.18 2.3-3.26a3.39 3.39 0 0 1 .72-.83c3.44-2.58 6.8-5.28 10.36-7.67 4.94-3.31 10.11-6.29 15.06-9.59 3.29-2.21 6.37-4.75 9.57-7.09a74.56 74.56 0 0 0 6.42-4.6 133.45 133.45 0 0 0 9.73-9.74 58.94 58.94 0 0 0 5.95-8.16 66.06 66.06 0 0 0 4.62-8.77c2.36-5.46 4.59-11 6.65-16.56a53.82 53.82 0 0 0 2.69-9.53c1.19-6.77 2.1-13.59 3.05-20.4.56-4 1-8 1.42-12 .36-3.58.58-7.17.87-10.75a2.22 2.22 0 0 1 .07-.74c.57-1.22 1.18-2.42 1.77-3.63a38.6 38.6 0 0 1 3.74 2.35 2.79 2.79 0 0 1 .77 1.83 11.91 11.91 0 0 0 1.61 5c.74 1.33.48 3.21.72 4.83.62 4 1.33 8 1.88 12 .29 2.06.26 4.16.49 6.23.33 3 .88 6 1.12 9.1s.16 6.11.31 9.17a69 69 0 0 1-1 15c-.68 3.93-1.89 7.76-2.85 11.64-.28 1.13-.42 2.3-.78 3.4a128 128 0 0 1-4.16 12.16c-1.9 4.35-3.31 8.93-6.06 12.92-2.31 3.36-4.25 7-6.46 10.4-1.54 2.39-3.22 4.7-4.92 7s-3.41 4.17-5 6.33c-2.42 3.25-4.95 6.45-7.05 9.9-2.61 4.3-5.2 8.68-6.34 13.67-1 4.36-1.87 8.76-2.63 13.17-.49 2.89 1.05 5.24 2.7 7.41a2.35 2.35 0 0 0 2.12.54 15 15 0 0 0 8.71-7.64c1.63-3.15 3.45-6.2 5.18-9.3a5.21 5.21 0 0 0 .47-.78c2.75-7.47 8.48-12.76 13.81-18.21 2.72-2.77 6.51-4.55 9.93-6.58 4.92-2.91 10.14-5.34 14.84-8.54 3.47-2.35 6.37-5.55 9.42-8.49a32.08 32.08 0 0 0 7.74-13c.87-2.49 1.33-5.11 2-7.67.69-2.73 1.31-5.48 2.06-8.19.87-3.13 1.89-6.22 2.79-9.34.72-2.48 1.3-5 2-7.45 2.5-8.29 6.79-15.68 11.86-22.59a59.42 59.42 0 0 1 7.66-7.89 38.84 38.84 0 0 1 7-5.69 67.73 67.73 0 0 1 10-4.18 74.45 74.45 0 0 1 7.77-2.29 9.3 9.3 0 0 1 3.45 0c1.09.17 1.26.87 1 2.07-.49 2.55-2.89 3-4.39 4.47-1.79 1.71-3.9 3-5.37 5.16-1.29 1.91-3.53 3.17-5.24 4.84a25.65 25.65 0 0 0-3.84 4.55c-3.19 5-6.4 9.88-8.37 15.66a100.94 100.94 0 0 0-3.45 12.36c-.86 4.23-1 8.61-1.48 12.93s-.94 8.57-1.34 12.86c-.14 1.52 0 3.08-.1 4.61-.36 4.33-.8 8.66-1.2 13-.16 1.76-.2 3.54-.46 5.29a36.37 36.37 0 0 1-5.53 15.31c-2 3-3.42 6.44-5.38 9.5a59.55 59.55 0 0 1-4.79 5.79c-.57.68-1.11 1.39-1.67 2.07-1.28 1.55-2.59 3.07-3.84 4.64-1 1.18-1.8 2.43-2.74 3.62-1.06 1.35-2.16 2.66-3.25 4a43.21 43.21 0 0 0-8 15c-.94 3-2.3 6-3 9-.92 4-1.47 8.09-2 12.16-.43 3.22-.7 6.47-.86 9.71a48.07 48.07 0 0 0 0 8 94 94 0 0 1 0 20.94 97.64 97.64 0 0 1-1.54 11.51c-.85 3.75-2.31 7.37-3.5 11-.94 2.9-1.74 5.85-2.87 8.68a50.24 50.24 0 0 1-3.11 5.83c-1.19 2.13-2.3 4.32-3.68 6.33-2.08 3-4.29 5.94-6.56 8.82-1.25 1.57-2.72 3-4.1 4.44-1.59 1.7-1.8 3.86-1.85 6-.07 2.44.18 4.9.21 7.35q.12 9.88.17 19.76c0 1.67-.07 3.33-.05 5a2.74 2.74 0 0 0 .37.92c.07-.07.21-.16.2-.19-.12-.26-.26-.5-.39-.75-.27.17-.75.33-.76.52-.08 1 0 2 0 2.95zm-92.38-147.39c-1.7-.28-3.41-.5-5.1-.83-5.29-1-10.23-2.73-13.71-7.22-.18-.23-.53-.31-.76-.51a22.78 22.78 0 0 1-2.41-2.19 30.54 30.54 0 0 1-6.57-13q-1.2-5-2-10.06a26.74 26.74 0 0 1-.09-4.74 28.38 28.38 0 0 1 .3-5.85c1.08-4.6 2.4-9.15 3.76-13.68a61.19 61.19 0 0 1 2.52-6.64c.53-1.24 1.52-2.29 2-3.54 1.74-4.84 4.83-8.89 7.53-13.17 2.88-4.54 5.94-9 8.77-13.53 2.57-4.16 5-8.42 7.38-12.7a43.11 43.11 0 0 0 3-6.46c1.08-3.05 1.89-6.21 2.73-9.34s2.35-6.24 1.35-9.67c-.07-.22-.11-.45-.16-.68-.14.16-.29.32-.42.49-.73 1-1.52 1.91-2.18 2.93-3.33 5.12-6.5 10.35-11 14.62-3.81 3.63-7.41 7.46-11.21 11.09-4 3.84-8.17 7.56-12.29 11.31-2.47 2.26-5 4.48-7.5 6.7a50.44 50.44 0 0 0-4 3.41 146.22 146.22 0 0 0-10.16 11.57 50.05 50.05 0 0 0-7.58 13.93c-1.75 5.2-3.5 10.36-4 15.87-.29 3.36-.3 6.81-1.11 10-1.75 7-3.71 14-6 20.86-1.5 4.42-3.82 8.57-5.67 12.88a120.33 120.33 0 0 0-4.49 11.31c-.9 2.84-1 5.9-1.63 8.84a31.78 31.78 0 0 0 .21 13.53c1 4 1.78 8.24 4.45 11.8 2.81 3.75 4.95 8 7.72 11.79a35.1 35.1 0 0 0 13 10.65 37.64 37.64 0 0 0 7.06 3.09 69.74 69.74 0 0 0 9.9 1.49 27.79 27.79 0 0 0 6.18.09c4.25-.5 8.45-1.41 12.7-1.88a53.06 53.06 0 0 1 9.67-.37 57.75 57.75 0 0 1 12.44 1.86c7.41 2.23 14.21 6 20.92 9.79 1.37.79 2.64 1.79 4.07 2.47 5.07 2.46 9.89 5.43 15.5 6.74 4.47 1 8.89 1.84 13.4.52a34.22 34.22 0 0 0 9.26-4.73c4.6-3 7.45-7.55 10.81-11.62a21.27 21.27 0 0 0 3.06-6.14c1.08-2.85 1.94-5.8 2.79-8.74a44.11 44.11 0 0 0 1-4.7c.83-4.71 1.83-9.41 2.37-14.16.72-6.35 1.09-12.73 1.59-19.11a42.39 42.39 0 0 1 .24-4.38c.41-2.3 1.2-4.52 1.58-6.82a77.87 77.87 0 0 1 6.06-19.69c1.25-2.74 2.29-5.58 3.59-8.29 1.08-2.27 2.41-4.43 3.63-6.64a25.14 25.14 0 0 1 1.28-2.41c2-2.82 4.19-5.49 6-8.41 3.37-5.47 7.75-10.12 11.85-15q4.43-5.29 8.82-10.63a4.51 4.51 0 0 0 .5-1.42c-.47.06-1.07 0-1.39.21-2.81 2.19-6.49 2.71-9.18 5.31-3.12 3-7 5.24-10.23 8.11a58.07 58.07 0 0 0-12.74 16.48c-2.35 4.35-4.86 8.61-7.3 12.91-1.12 2-2 4.14-3.4 5.84-2.14 2.56-4.74 4.74-7.06 7.17A16.83 16.83 0 0 1 473 299a33.57 33.57 0 0 1-8.45-1.59c-5.89-2.08-8.78-7.12-10.83-12.55a32.41 32.41 0 0 1-1.81-14.33c.29-3.42.74-6.83 1.3-10.22a57.28 57.28 0 0 1 1.87-8.64c1.47-4.48 3.29-8.85 5-13.28a2.54 2.54 0 0 0 0-.83 1.89 1.89 0 0 0-.69.11c-2.39 1.52-5.31 2.21-7.15 4.6a4.86 4.86 0 0 1-1.51 1.35c-4.38 2.3-6.8 6.5-9.64 10.2-1.59 2.06-2.26 4.86-3.16 7.39-2.25 6.36-3.29 13.13-6.37 19.21a19.19 19.19 0 0 1-3.28 5.2c-3.3 3.25-6 7.34-11 8.41-.11 0-.19.16-.3.22-3.05 1.55-6.11 2.8-9.61 2.62zM367.19 476a9.78 9.78 0 0 1-1.13.15c-4.27.16-4.27.15-4.34 4.22-.11 6.24-.32 12.48-.3 18.72 0 9.88.23 19.75.32 29.62 0 3.36-.06 6.73-.07 10.1v13.58c0 2.88.13 5.77.11 8.65s-.22 5.86-.26 8.79c0 3.19.09 6.39 0 9.58-.1 2.65-.06 2.73 2.65 2.68q12.66-.23 25.32-.33c3.55 0 7.11.12 10.66.1q10.14 0 20.28-.21c2.4 0 5.08.5 6.4-2.45.05-.1.18-.17.27-.25 1.78-1.67 3.55-3.36 5.37-5 2.48-2.24 5-4.4 7.51-6.64.94-.85 1.76-1.83 2.64-2.74a21.11 21.11 0 0 0-3.37-1.94c-2.37-.84-5-.87-7-2.72-1.72-1.53-2.31-3.7-1-5.65.95-1.4 1.88-2.82 2.87-4.2 1.32-1.85 2.72-3.64 4-5.49 1.8-2.56 3.53-5.17 5.31-7.73.74-1.06 1.63-2 2.28-3.12a1.6 1.6 0 0 0-.28-1.5c-1.28-1-2.67-1.94-4-2.89-2.45-1.73-4.87-3.48-7.34-5.17a81.29 81.29 0 0 0-6.89-4.49c-1.91-1.05-2.45-2.55-.89-4.13 2.92-2.94 5.85-5.89 8.94-8.64s6.52-5.37 9.78-8.05q7.23-6 14.46-11.91c1.29-1.05 2.54-2.65 4-2.88 2.57-.42 2.16-2.06 2.29-3.63a14.86 14.86 0 0 0 .08-2.4c0-.36-.4-.92-.7-1a29.41 29.41 0 0 0-4.47-.67c-2.38-.14-4.78-.05-7.16-.15-3.55-.14-7.09-.49-10.64-.52s-7.09.33-10.63.3c-7.32-.06-14.65-.34-22-.4-2.42 0-4.84.5-7.27.52-4.26 0-8.53-.19-12.79-.24-2.32 0-4.63.09-6.95.1-5.38.09-10.74.03-16.06.03zM253 567.59v12.95c0 1.25 0 2.14 1.62 1.23a2.34 2.34 0 0 1 1.27-.07 59.56 59.56 0 0 0 7.6.73c3.7-.12 7.49.86 11.12-.64.24-.1.59.06.89.09 3.09.29 6.19.78 9.29.81 4.84 0 9.69-.32 14.54-.36 7.67-.07 15.34 0 23 0 4.85 0 9.7-.19 14.55-.21 5.9 0 11.8-.05 17.69.14 2 .06 2.36-.81 2.34-2.46-.1-5.91-.18-11.81-.2-17.72 0-7.94.05-15.87 0-23.81 0-4.18-.15-8.36-.16-12.55 0-4 .09-8 .09-12v-19.37c0-2.09.07-4.18 0-6.27 0-2.43-.12-4.86-.2-7.3 0-.53-.07-1.06-.11-1.59a7.46 7.46 0 0 0-1.56.83c-2.6 2.42-5.08 5-7.75 7.29-2.05 1.78-4.12 4-7.28 2a1.19 1.19 0 0 0-1.09.19c-3 2.9-6 5.78-8.95 8.77-3.78 3.89-7.41 7.91-11.18 11.81a5.5 5.5 0 0 1-6.37 1q-6.35-3.16-12.67-6.37c-1.65-.83-2.95-.65-4 .89-3 4.43-6.15 8.81-8.88 13.42-2.49 4.21-4.55 8.67-6.74 13.05-.59 1.18-1.39 2.09-2.71 1.65a50.12 50.12 0 0 1-6.49-2.64c-1.06-.53-1.7-1.11-2.42.39a41.54 41.54 0 0 1-3.17 5.69q-3.46 5-7.21 9.79c-1.39 1.78-3 3.36-4.51 5.06a1.89 1.89 0 0 0-.35.99v14.59zm98.23-96.79h1.29c4.1 0 4 0 4-4 0-7.13.2-14.27.26-21.41a6.51 6.51 0 0 0-.44-3c-1-1.84-2.44-3.46-3.51-5.28-2-3.43-4-6.92-5.86-10.43-1.05-1.94-1.6-4.26-3-5.88-2.51-2.9-3.45-6.57-5.46-9.71s-3.37-6.76-5.2-10.07c-.91-1.65-2.29-3-3.36-4.6-1.57-2.29-2.18-2.38-4.62-1.12a73.46 73.46 0 0 1-6.75 2.92c-1.59.64-3.3 1-4.86 1.68a3.23 3.23 0 0 1-4.53-1.32c-1.62-2.6-3.3-5.17-5-7.73-2.61-3.94-5.26-7.86-7.88-11.79-.72-1.08-1.37-2.2-2.12-3.25-1.74-2.45-3.48-4.9-5.33-7.27a3.17 3.17 0 0 0-2-1.15c-2.38-.12-4.76 0-7.15 0-3.28 0-6.57 0-9.84.19-4.67.24-9.32.64-14 .95-2.61.17-2.65.2-2.53 2.77 0 .79-.17 1.6-.16 2.4.07 5.53.26 11 .24 16.58 0 5.35-.27 10.7-.35 16.06a7.26 7.26 0 0 0 .51 3.09 21.25 21.25 0 0 0 2.18 2.89c1.16 1.65 2.18 3.4 3.41 5 2.95 3.85 6 7.65 9 11.44.75.94 1.47 2.29 2.47 2.59 4.1 1.26 8.32 2.15 12.47 3.26a3 3 0 0 1 1.82 1.3 31 31 0 0 1 1.7 4.82c.66 2.41 1 4.92 1.83 7.27a78.11 78.11 0 0 0 3.73 8.62 11 11 0 0 0 2.91 4c3.95 2.88 8.09 5.51 12.23 8.12 1.72 1.08 3.32 2.46 5.66 2.25 2.49-.22 5-.18 7.53-.16 2.88 0 5.77.2 8.65.2 2.51 0 5-.19 7.53-.21 4.81-.04 9.66-.02 14.51-.02zM203.89 734.28h.4a8.14 8.14 0 0 0-.1 1.47c0 .14.65.4.71.34 1.95-2 3.87-3.93 5.76-6s4-4.27 5.89-6.49a8.09 8.09 0 0 0 2-3.2c.32-1.43-.05-3-.05-4.51q0-10.32.08-20.65c0-1.35.46-2.75.22-4-1.23-6.48-.06-13-.31-19.48-.2-5.15.28-10.32.26-15.48s-.36-10.46-.43-15.69c-.1-7.26-.08-14.52-.08-21.78v-21.37c0-6.22.11-12.44.07-18.66 0-6.94-.28-13.88-.29-20.82 0-8.24.13-16.48.22-24.72 0-3.25.24-6.5.23-9.75q0-9.27-.24-18.53c-.08-4.05-.35-8.09-.34-12.13 0-4.92.29-9.84.31-14.76 0-3.38-.24-6.77-.34-10.16-.13-5-.3-10.08-.32-15.12 0-4.49.15-9 .22-13.46 0-2.76.16-5.52.12-8.29-.09-5.86-.31-11.73-.4-17.6-.08-5 0-10.07-.06-15.11 0-3.94-.18-7.87-.23-11.81 0-4.85-.07-9.71-.1-14.56 0-6.69-.1-13.38-.12-20.07 0-2.53.06-5 .06-7.57a3.91 3.91 0 0 0-.29-1 2.3 2.3 0 0 0-.66.41c-1.62 2.16-3.21 4.34-4.83 6.51-3.16 4.21-6.34 8.4-9.47 12.63a3.69 3.69 0 0 0-.78 1.94c-.07 4.16-.1 8.32 0 12.47.12 7.69.37 15.38.43 23.06s-.09 15.4-.09 23.09c0 5.3.08 10.59.15 15.88.09 5.85.26 11.69.29 17.54.05 7.69-.05 15.39 0 23.08 0 6.51.16 13 .22 19.54.07 7.56.09 15.12.16 22.68 0 4.56.16 9.12.21 13.68 0 3.75.07 7.51.09 11.26 0 3.08-.06 6.15 0 9.22.11 6 .36 12.06.41 18.08.05 6.65-.11 13.29-.08 19.93 0 8.5.21 17 .29 25.5 0 4.78-.05 9.56 0 14.35.07 5.11.36 10.22.38 15.33 0 7.26-.23 14.52-.18 21.78.06 9.72.3 19.43.44 29.15q.12 8.37.17 16.74c.02 5.7 0 11.4 0 17.11zm158.71-44.89c0 1.4.49 2.15 2.08 1.86a21 21 0 0 1 2.38 0 2.17 2.17 0 0 0 1.28-.46c2-1.92 3.78-4.06 5.89-5.82 3.42-2.85 7.13-5.36 10.55-8.22 3.75-3.16 7.28-6.59 11-9.81 1.09-.94 2.44-2.21 3.68-2.22a23.5 23.5 0 0 1 6.6 1.31c1.81.53 3.53 1.39 5.3 2.08a6.64 6.64 0 0 0 1.18.22 9 9 0 0 0-.13-1.27 7.69 7.69 0 0 0-.5-1.39c-1-2.12-2-4.21-2.93-6.35-1.9-4.4-3.72-8.83-5.64-13.23a3.81 3.81 0 0 1 .74-4.3 15.7 15.7 0 0 1 3.49-3c3.93-2.38 7.95-4.62 11.93-6.92a2.71 2.71 0 0 0 1.66-2.79c-.18-2.36-.05-4.75-.18-7.12a83.06 83.06 0 0 0-.81-9.34c-.38-2.17 0-4 1.87-5.25s3.57-2.17 5.36-3.24q7-4.16 13.95-8.33c1.67-1 3.3-2.09 5-3.07 2.7-1.58 5.44-3.09 8.14-4.65a3.08 3.08 0 0 0 .68-.79 2.73 2.73 0 0 0-1-.39c-1.58 0-3.17.12-4.76.14q-6.06.06-12.12.07h-16.18c-9 .06-18 .19-27 .24h-19.56c-3.8 0-7.61.1-11.42 0-1.14 0-1.19.51-1.2 1.33 0 3.69-.14 7.39-.11 11.08 0 3.45.24 6.89.24 10.34 0 4.16-.25 8.33-.24 12.5 0 5.41.22 10.81.29 16.22.05 3.38 0 6.76 0 10.14 0 2.57.34 5.13.37 7.69 0 2.88-.76 5.64-.2 8.68.71 3.85.3 7.91.33 11.88s-.01 8.14-.01 12.18zm102 55.66v.06c.92 0 2 .29 2.72-.08s1-1.42 1.58-2.15a3.69 3.69 0 0 1 .66-.65c3.09-2.48 6.17-5 9.27-7.43 2.54-2 5.11-4 7.64-6 .61-.49 1.12-1.09 1.68-1.64a12.64 12.64 0 0 0-2.4-.44c-5.29 0-10.58.12-15.87.09s-10.47-.25-15.71-.26c-8.54 0-17.08.1-25.61.07-9.36 0-18.72-.21-28.08-.28q-17.62-.13-35.26-.18c-9.23 0-18.46 0-27.7.07-7.8 0-15.6.08-23.4.09-6.34 0-12.67-.07-19 0q-17.34.09-34.67.24c-3.12 0-6.24.09-9.36.14-1.76 0-3.52.1-5.28.12-4.14 0-8.29.11-12.44.08-2.92 0-5.82 1.05-8.76.07-2.64-.89-3.83-.36-5.55 1.83-1.41 1.8-3.05 3.42-4.56 5.15-2.09 2.39-4.17 4.8-6.21 7.25a1.21 1.21 0 0 0 .26 1 21.7 21.7 0 0 0 3.82.61c6 .28 12 .58 18.05.68 7 .11 14 0 20.95 0 8.26.09 16.51.39 24.77.47 11.13.12 22.27.07 33.41.18 10.53.09 21.06.34 31.6.43 7.38.07 14.76 0 22.14 0 6.09 0 12.19.14 18.29.2 7.63.09 15.26.19 22.88.23h20.49c5.29 0 10.57 0 15.86.06 3.7 0 7.4.06 11.1.07zm6.19-53.79l-.57.07a6.56 6.56 0 0 0 .73 2.12c1 1.17 2.18 2.15 3.25 3.25 1.57 1.6 3.09 3.24 4.65 4.84 1.07 1.08 2.19 2.1 3.26 3.19s2 2.16 3 3.18c1.49 1.44 3.05 2.81 4.56 4.23.58.55 1 1.22 1.64 1.74a3.24 3.24 0 0 0 1.17.4 9.47 9.47 0 0 0 .09-1.06c-.19-3.55-.37-7.1-.58-10.65-.42-7.36-.9-14.71-1.28-22.08-.32-5.93-.53-11.87-.78-17.81q-.32-7.38-.62-14.76c-.14-3.68-.21-7.36-.43-11-.25-4.16-.72-8.29-.95-12.45-.4-7.19-.64-14.39-1.05-21.58s-1-14.47-1.41-21.72c-.3-5.41-.41-10.84-.68-16.26-.31-6.19-.72-12.37-1-18.55-.18-3.45-.15-6.91-.35-10.35-.4-6.63-.93-13.25-1.33-19.88-.32-5.29-.51-10.58-.78-15.86q-.69-13.26-1.41-26.5c-.33-5.93-.71-11.87-1.1-17.8-.23-3.48-.57-6.94-.77-10.42-.13-2.24-.06-4.49-.15-6.74 0-.41-.4-.8-.61-1.2-.29.3-.71.54-.86.9a60.77 60.77 0 0 0-2.91 7.7c-1.32 5.29-2.42 10.65-3.39 16a25 25 0 0 0 0 5.67c.07 1.26.48 2.51.48 3.77 0 4-.19 8-.19 12s.2 8.08.19 12.13c0 3.31-.28 6.62-.28 9.92 0 5.23.24 10.45.25 15.68 0 5.66-.2 11.31-.22 17v36.61c0 7.46.05 14.92 0 22.37 0 8.7-.09 17.39-.08 26.08 0 4.92.15 9.84.16 14.77 0 3.38-.2 6.77-.16 10.15.05 4.66.28 9.32.38 14 .06 2.92.05 5.85.05 8.77q.12 10.03.11 20.13zm-109-226.61h-.1v4.8c0 .85.09 1.17 1.2 1.16 5.44 0 10.88.18 16.32.23q9.24.06 18.47 0c6.34-.06 12.68-.26 19-.31 9.14-.08 18.28-.08 27.42-.13q7.25 0 14.5-.1h3.65c1 0 1.22-.35.5-1.17a44.62 44.62 0 0 1-3.31-4c-3.58-5.14-7.07-10.34-10.67-15.46a2.14 2.14 0 0 0-1.93-.63 91.7 91.7 0 0 0-9.92 4.82c-1.74 1-2.78.64-3.74-.64a29.55 29.55 0 0 1-2.31-3.93c-1.81-3.44-3.66-6.88-5.35-10.39-1.51-3.14-2.82-6.37-4.24-9.56-1.14-2.58-2.28-5.15-3.46-7.71q-1.59-3.42-3.27-6.81c-.45-.92-1-1.43-2.08-.56a42.38 42.38 0 0 1-3.68 2.7c-2.38 1.58-4.77 3.16-7.22 4.63a269.49 269.49 0 0 1-8.92 5.07c-2 1.11-3.9 1.73-6.26.2-1.67-1.07-4.05-1-5.95-1.79a3.73 3.73 0 0 0-4.46.75c-4.58 4-9.25 7.9-13.85 11.87a1.89 1.89 0 0 0-.37 1.26v5.3q.03 10.2.01 20.4zM247.66 648.71h.22v-17.87c0-3.8.3-7.61.29-11.41 0-5.28-.26-10.56-.24-15.84 0-5.6.31-11.2.34-16.8 0-6.89-.12-13.77-.12-20.66 0-4 .22-8 .22-12 0-4.34-.19-8.68-.19-13 0-6.69.12-13.38.09-20.07s-.27-13.64-.23-20.46c0-5.39.5-10.78.54-16.17 0-4.3-.34-8.6-.41-12.9-.12-6.89-.16-13.79-.16-20.68 0-4.05.2-8.09.18-12.14 0-3.75-.33-7.5-.33-11.25 0-7.58.16-15.16.16-22.74 0-8.92-.07-17.84-.12-26.75 0-3.2 0-6.39-.08-9.58a2.65 2.65 0 0 0-.75-1.77c-2.08-1.88-4.31-3.59-6.39-5.47-4.73-4.27-9.4-8.6-14.1-12.89a6.4 6.4 0 0 0-1.05-.61 3.53 3.53 0 0 0-.31 1.14c.21 2.08.56 4.15.71 6.23.46 6.31.87 12.63 1.29 18.94.25 3.84.46 7.68.74 11.51.39 5.38.85 10.76 1.23 16.14.33 4.72.55 9.46.9 14.19.21 2.87.62 5.74.84 8.61.33 4.17.53 8.36.87 12.53.25 3.07.73 6.12.93 9.19.35 5.34.49 10.69.84 16 .33 5 .88 9.91 1.23 14.87.37 5.32.58 10.65.93 16 .32 4.84.77 9.68 1.13 14.53.42 5.58.78 11.16 1.21 16.74.48 6.13 1 12.26 1.5 18.39.4 5.44.64 10.89 1.07 16.33.48 6.18 1.17 12.35 1.61 18.53.5 6.86.78 13.74 1.23 20.6.48 7.28 1 14.55 1.6 21.82q.6 7.63 1.29 15.26c.41 4.51.86 9.01 1.29 13.51zm192.11 49.42c2.82-.32 6.06-.68 9.3-1.08a3.48 3.48 0 0 0 1-.51 5 5 0 0 0-1-.22h-42.71c-7.14 0-14.25.14-21.38.15-5.36 0-10.71-.13-16.07-.11-5.83 0-11.67.16-17.5.22h-35.19c-3.13 0-6.41-.5-9.55-.14a83.75 83.75 0 0 1-12.47.1c-3.88-.13-7.76-.24-11.64-.16-5.46.11-10.92.39-16.38.6-2.68.1-5.37.15-8 .3a50.38 50.38 0 0 1-6.22.42 2.33 2.33 0 0 0-2.31.83c-3.87 4.39-7.75 8.78-11.72 13.08-1.89 2-4 3.89-6 5.87a28.27 28.27 0 0 0-2 2.38c1 .11 1.92.24 2.88.34a4.53 4.53 0 0 0 1.1 0c3.74-.54 7.47-1.18 11.23-1.65 4-.5 8-.75 11.92-1.27 2.9-.38 5.75-1.12 8.65-1.49 1.68-.22 3.42.11 5.13 0 2.55-.16 5.1-.46 7.65-.75 3-.35 6.07-.74 9.1-1.13 2.12-.27 4.22-.68 6.35-.86 4.64-.38 9.29-.58 13.92-1 3.78-.33 7.54-.91 11.32-1.28 6.28-.61 12.58-1.11 18.87-1.74 3.21-.32 6.41-.86 9.62-1.24q6.56-.8 13.12-1.5 8.65-.95 17.33-1.81c1.51-.15 3-.1 4.54-.28 2.48-.31 4.93-.84 7.41-1.1 2.85-.3 5.73-.3 8.57-.64 3.84-.45 7.64-1.11 11.46-1.67h.74c2-.06 4 0 6-.22 3.17-.3 6.32-.81 9.49-1.16 4.36-.41 8.67-.81 13.44-1.28zM357 595.82h-.16c0-1.6-.05-3.21 0-4.81.14-3.88-.1-3.14-3.45-3.41a5.14 5.14 0 0 0-.55.06c-4.78.05-9.56.13-14.33.13-3.44 0-6.88-.14-10.32-.11-3.74 0-7.47.22-11.21.28-3.06 0-6.12-.05-9.18 0-2.75 0-5.51.3-8.26.3-4.06 0-8.11-.13-12.16-.19a3.05 3.05 0 0 0-.67.13 2.6 2.6 0 0 0 .31.57c.89.93 1.83 1.8 2.69 2.76 2.68 3 5.3 6 8 9a1.58 1.58 0 0 0 1.42.11c3.69-1.81 7.31-3.73 11-5.49a2.58 2.58 0 0 1 2.31.16 19.15 19.15 0 0 1 3.37 4c1.9 3.12 3.67 6.34 5.37 9.58 2.27 4.34 4.41 8.75 6.66 13.1a3.55 3.55 0 0 0 1.5 1.77 33 33 0 0 0 4.24 1 89.32 89.32 0 0 1 9.08 2.29c1.9.67 4.26 1.67 5.14 3.23a64.93 64.93 0 0 1 4.39 10.72c1.43 4.18 2.65 8.44 4 12.65a2.48 2.48 0 0 0 .45.64 4.16 4.16 0 0 0 .12-.69q.06-5.72.1-11.43c.07-6.78.16-13.55.19-20.33.01-8.67-.05-17.34-.05-26.02zm-74.31-233.77v-.46h1.85c1.21.05 1.78-.12 1.15-1.58a23.47 23.47 0 0 1-1.1-4.29c-.35-1.56-.76-1.67-2.11-1a53.32 53.32 0 0 1-6.33 2.93c-3 1.12-6 2-9 3a9.12 9.12 0 0 0-1.6.91 8.77 8.77 0 0 0 1.9.42c5.05.09 10.15.07 15.24.07zm169.4 334.52c-.14-.11-.21-.23-.28-.23a2.92 2.92 0 0 0-.5.09c.08.07.15.18.23.19a3 3 0 0 0 .55-.05z"/><path d="M407.37 296.87c3.5.18 6.56-1.07 9.55-2.6.11-.06.19-.2.3-.22 5-1.07 7.75-5.16 11-8.41a19.19 19.19 0 0 0 3.28-5.2c3.08-6.08 4.12-12.85 6.37-19.21.9-2.53 1.57-5.33 3.16-7.39 2.84-3.7 5.26-7.9 9.64-10.2a4.86 4.86 0 0 0 1.51-1.35c1.84-2.39 4.76-3.08 7.15-4.6a1.89 1.89 0 0 1 .69-.11 2.54 2.54 0 0 1 0 .83c-1.66 4.43-3.48 8.8-5 13.28a57.28 57.28 0 0 0-1.87 8.64c-.56 3.39-1 6.8-1.3 10.22a32.41 32.41 0 0 0 1.81 14.33c2 5.43 4.94 10.47 10.83 12.55A33.57 33.57 0 0 0 473 299a16.83 16.83 0 0 0 14-5.45c2.32-2.43 4.92-4.61 7.06-7.17 1.43-1.7 2.28-3.87 3.4-5.84 2.44-4.3 4.95-8.56 7.3-12.91a58.07 58.07 0 0 1 12.74-16.48c3.27-2.87 7.11-5.11 10.23-8.11 2.69-2.6 6.37-3.12 9.18-5.31.32-.25.92-.15 1.39-.21a4.51 4.51 0 0 1-.5 1.42q-4.38 5.34-8.82 10.63c-4.1 4.89-8.48 9.54-11.85 15-1.8 2.92-4 5.59-6 8.41a25.14 25.14 0 0 0-1.28 2.41c-1.22 2.21-2.55 4.37-3.63 6.64-1.3 2.71-2.34 5.55-3.59 8.29a77.87 77.87 0 0 0-6 19.68c-.38 2.3-1.17 4.52-1.58 6.82a42.39 42.39 0 0 0-.24 4.38c-.5 6.38-.87 12.76-1.59 19.11-.54 4.75-1.54 9.45-2.37 14.16a44.11 44.11 0 0 1-1 4.7c-.85 2.94-1.71 5.89-2.79 8.74a21.27 21.27 0 0 1-3.06 6.14c-3.36 4.07-6.21 8.59-10.81 11.62a34.22 34.22 0 0 1-9.26 4.73c-4.51 1.32-8.93.52-13.4-.52-5.61-1.31-10.43-4.28-15.5-6.74-1.43-.68-2.7-1.68-4.07-2.47-6.71-3.83-13.51-7.56-20.92-9.79a57.75 57.75 0 0 0-12.48-1.82 53.06 53.06 0 0 0-9.67.37c-4.25.47-8.45 1.38-12.7 1.88a27.79 27.79 0 0 1-6.18-.09 69.74 69.74 0 0 1-9.9-1.49 37.64 37.64 0 0 1-7.06-3.09 35.1 35.1 0 0 1-13-10.65c-2.77-3.79-4.91-8-7.72-11.79-2.67-3.56-3.5-7.77-4.45-11.8a31.78 31.78 0 0 1-.21-13.53c.59-2.94.73-6 1.63-8.84a120.33 120.33 0 0 1 4.49-11.31c1.85-4.31 4.17-8.46 5.67-12.88 2.31-6.85 4.27-13.84 6-20.86.81-3.24.82-6.69 1.11-10 .46-5.51 2.21-10.67 4-15.87a50.05 50.05 0 0 1 7.58-13.93 146.22 146.22 0 0 1 10.16-11.57 50.44 50.44 0 0 1 4-3.41c2.51-2.22 5-4.44 7.5-6.7 4.12-3.75 8.26-7.47 12.29-11.31 3.8-3.63 7.4-7.46 11.21-11.09 4.48-4.27 7.65-9.5 11-14.62.66-1 1.45-2 2.18-2.93.13-.17.28-.33.42-.49.05.23.09.46.16.68 1 3.43-.5 6.51-1.35 9.67s-1.65 6.29-2.73 9.34a43.11 43.11 0 0 1-3 6.46c-2.38 4.28-4.81 8.54-7.38 12.7-2.83 4.57-5.89 9-8.77 13.53-2.7 4.28-5.79 8.33-7.53 13.17-.46 1.25-1.45 2.3-2 3.54a61.19 61.19 0 0 0-2.52 6.64c-1.36 4.53-2.68 9.08-3.76 13.68a28.38 28.38 0 0 0-.3 5.85 26.74 26.74 0 0 0 .09 4.74q.84 5.07 2 10.06a30.54 30.54 0 0 0 6.57 13 22.78 22.78 0 0 0 2.41 2.19c.23.2.58.28.76.51C392 293.31 397 295 402.27 296c1.73.37 3.4.59 5.1.87z" fill="#e83131"/><path class="b" d="M367.19 476h16c2.32 0 4.63-.13 6.95-.1 4.26.05 8.53.26 12.79.24 2.43 0 4.85-.54 7.27-.52 7.33.06 14.66.34 22 .4 3.54 0 7.09-.34 10.63-.3s7.09.38 10.64.52c2.38.1 4.78 0 7.16.15a29.41 29.41 0 0 1 4.47.67c.3.06.66.62.7 1a14.86 14.86 0 0 1-.08 2.4c-.13 1.57.28 3.21-2.29 3.63-1.44.23-2.69 1.83-4 2.88q-7.24 5.94-14.46 11.91c-3.26 2.68-6.63 5.24-9.78 8.05s-6 5.7-8.94 8.64c-1.56 1.58-1 3.08.89 4.13a81.29 81.29 0 0 1 6.89 4.49c2.47 1.69 4.89 3.44 7.34 5.17 1.35 1 2.74 1.84 4 2.89a1.6 1.6 0 0 1 .28 1.5c-.65 1.1-1.54 2.06-2.28 3.12-1.78 2.56-3.51 5.17-5.31 7.73-1.3 1.85-2.7 3.64-4 5.49-1 1.38-1.92 2.8-2.87 4.2-1.33 2-.74 4.12 1 5.65 2.07 1.85 4.67 1.88 7 2.72a21.11 21.11 0 0 1 3.37 1.94c-.88.91-1.7 1.89-2.64 2.74-2.48 2.24-5 4.4-7.51 6.64-1.82 1.63-3.59 3.32-5.37 5-.09.08-.22.15-.27.25-1.32 3-4 2.41-6.4 2.45q-10.14.16-20.28.21c-3.55 0-7.11-.13-10.66-.1q-12.66.11-25.32.33c-2.71 0-2.75 0-2.65-2.68.11-3.19 0-6.39 0-9.58 0-2.93.23-5.86.26-8.79s-.1-5.77-.11-8.65v-13.58c0-3.37.1-6.74.07-10.1-.09-9.87-.29-19.74-.32-29.62 0-6.24.19-12.48.3-18.72.07-4.07.07-4.06 4.34-4.22a9.78 9.78 0 0 0 1.19-.18zM253 567.59v-14.58a1.89 1.89 0 0 1 .46-1.12c1.49-1.7 3.12-3.28 4.51-5.06q3.73-4.8 7.21-9.79a41.54 41.54 0 0 0 3.17-5.69c.72-1.5 1.36-.92 2.42-.39a50.12 50.12 0 0 0 6.49 2.64c1.32.44 2.12-.47 2.71-1.65 2.19-4.38 4.25-8.84 6.74-13.05 2.73-4.61 5.85-9 8.88-13.42 1.05-1.54 2.35-1.72 4-.89q6.33 3.2 12.67 6.37a5.5 5.5 0 0 0 6.37-1c3.77-3.9 7.4-7.92 11.18-11.81 2.91-3 5.94-5.87 8.95-8.77a1.19 1.19 0 0 1 1.09-.19c3.16 2 5.23-.18 7.28-2 2.67-2.33 5.15-4.87 7.75-7.29a7.46 7.46 0 0 1 1.56-.83c0 .53.09 1.06.11 1.59.08 2.44.17 4.87.2 7.3v25.64c0 4-.1 8-.09 12 0 4.19.16 8.37.16 12.55 0 7.94-.06 15.87 0 23.81 0 5.91.1 11.81.2 17.72 0 1.65-.3 2.52-2.34 2.46-5.89-.19-11.79-.16-17.69-.14-4.85 0-9.7.19-14.55.21h-23c-4.85 0-9.7.4-14.54.36-3.1 0-6.2-.52-9.29-.81-.3 0-.65-.19-.89-.09-3.63 1.5-7.42.52-11.12.64a59.56 59.56 0 0 1-7.6-.73 2.34 2.34 0 0 0-1.27.07c-1.6.91-1.63 0-1.62-1.23v-12.95zm98.21-96.79h-14.55c-2.51 0-5 .21-7.53.21-2.88 0-5.77-.18-8.65-.2-2.51 0-5-.06-7.53.16-2.34.21-3.94-1.17-5.66-2.25-4.14-2.61-8.28-5.24-12.23-8.12a11 11 0 0 1-2.91-4 78.11 78.11 0 0 1-3.73-8.62c-.83-2.35-1.17-4.86-1.83-7.27a31 31 0 0 0-1.7-4.82 3 3 0 0 0-1.82-1.3c-4.15-1.11-8.37-2-12.47-3.26-1-.3-1.72-1.65-2.47-2.59-3-3.79-6-7.59-9-11.44-1.23-1.6-2.25-3.35-3.41-5a21.25 21.25 0 0 1-2.18-2.89 7.26 7.26 0 0 1-.51-3.09c.08-5.36.33-10.71.35-16.06 0-5.53-.17-11.05-.24-16.58 0-.8.19-1.61.16-2.4-.12-2.57-.08-2.6 2.53-2.77 4.67-.31 9.32-.71 14-.95 3.27-.17 6.56-.14 9.84-.19 2.39 0 4.77-.13 7.15 0a3.17 3.17 0 0 1 2 1.15c1.85 2.37 3.59 4.82 5.33 7.27.75 1.05 1.4 2.17 2.12 3.25 2.62 3.93 5.27 7.85 7.88 11.79 1.7 2.56 3.38 5.13 5 7.73a3.23 3.23 0 0 0 4.53 1.32c1.56-.7 3.27-1 4.86-1.68a73.46 73.46 0 0 0 6.75-2.92c2.44-1.26 3.05-1.17 4.62 1.12 1.07 1.57 2.45 2.95 3.36 4.6 1.83 3.31 3.17 6.91 5.2 10.07s2.95 6.81 5.46 9.71c1.39 1.62 1.94 3.94 3 5.88 1.9 3.51 3.83 7 5.86 10.43 1.07 1.82 2.49 3.44 3.51 5.28a6.51 6.51 0 0 1 .44 3c-.06 7.14-.25 14.28-.26 21.41 0 4 .12 4-4 4h-1.29z"/><path class="c" d="M203.89 734.28v-17.12c0-5.71-.09-11.16-.17-16.74-.14-9.72-.38-19.43-.44-29.15-.05-7.26.2-14.52.18-21.78 0-5.11-.31-10.22-.38-15.33-.07-4.79 0-9.57 0-14.35-.08-8.5-.25-17-.29-25.5 0-6.64.13-13.28.08-19.93 0-6-.3-12-.41-18.08-.05-3.07 0-6.14 0-9.22 0-3.75 0-7.51-.09-11.26-.05-4.56-.16-9.12-.21-13.68-.07-7.56-.09-15.12-.16-22.68-.06-6.51-.19-13-.22-19.54 0-7.69.06-15.39 0-23.08 0-5.85-.2-11.69-.29-17.54-.07-5.29-.15-10.58-.15-15.88 0-7.69.14-15.39.09-23.09s-.31-15.37-.43-23.06c-.06-4.15 0-8.31 0-12.47a3.69 3.69 0 0 1 .78-1.94c3.13-4.23 6.31-8.42 9.47-12.63 1.62-2.17 3.21-4.35 4.83-6.51a2.3 2.3 0 0 1 .66-.41 3.91 3.91 0 0 1 .29 1c0 2.52-.07 5-.06 7.57 0 6.69.08 13.38.12 20.07 0 4.85.05 9.71.1 14.56.05 3.94.19 7.87.23 11.81 0 5 0 10.07.06 15.11.09 5.87.31 11.74.4 17.6 0 2.77-.07 5.53-.12 8.29-.07 4.49-.24 9-.22 13.46 0 5 .19 10.08.32 15.12.1 3.39.36 6.78.34 10.16 0 4.92-.3 9.84-.31 14.76 0 4 .26 8.08.34 12.13q.18 9.25.24 18.53c0 3.25-.19 6.5-.23 9.75-.09 8.24-.23 16.48-.22 24.72 0 6.94.25 13.88.29 20.82 0 6.22 0 12.44-.07 18.66v21.37c0 7.26 0 14.52.08 21.78.07 5.23.4 10.46.43 15.69s-.46 10.33-.26 15.48c.25 6.49-.92 13 .31 19.48.24 1.29-.21 2.69-.22 4q-.08 10.34-.08 20.65c0 1.51.37 3.08.05 4.51a8.09 8.09 0 0 1-2 3.2c-1.9 2.22-3.9 4.36-5.89 6.49s-3.81 4-5.76 6c-.06.06-.69-.2-.71-.34a8.14 8.14 0 0 1 .1-1.47z"/><path class="b" d="M362.6 689.39v-12.12c0-4.04.38-8-.33-11.88-.56-3 .23-5.8.2-8.68 0-2.56-.32-5.12-.37-7.69-.06-3.38 0-6.76 0-10.14-.07-5.41-.27-10.81-.29-16.22 0-4.17.23-8.34.24-12.5 0-3.45-.22-6.89-.24-10.34 0-3.69.07-7.39.11-11.08 0-.82.06-1.35 1.2-1.33 3.81.08 7.62 0 11.42 0 6.52 0 13 .06 19.56 0 9 0 18-.18 27-.24h16.18q6.06 0 12.12-.07c1.59 0 3.18-.13 4.76-.14a2.73 2.73 0 0 1 1 .39 3.08 3.08 0 0 1-.68.79c-2.7 1.56-5.44 3.07-8.14 4.65-1.69 1-3.32 2.07-5 3.07l-13.95 8.33c-1.79 1.07-3.6 2.12-5.36 3.24s-2.25 3.08-1.87 5.25A83.06 83.06 0 0 1 421 622c.13 2.37 0 4.76.18 7.12a2.71 2.71 0 0 1-1.66 2.79c-4 2.3-8 4.54-11.93 6.92a15.7 15.7 0 0 0-3.49 3 3.81 3.81 0 0 0-.74 4.3c1.92 4.4 3.74 8.83 5.64 13.23.92 2.14 2 4.23 2.93 6.35a7.69 7.69 0 0 1 .5 1.39 9 9 0 0 1 .13 1.27 6.64 6.64 0 0 1-1.18-.22c-1.77-.69-3.49-1.55-5.3-2.08a23.5 23.5 0 0 0-6.6-1.31c-1.24 0-2.59 1.28-3.68 2.22-3.7 3.22-7.23 6.65-11 9.81-3.42 2.86-7.13 5.37-10.55 8.22-2.11 1.76-3.9 3.9-5.89 5.82a2.17 2.17 0 0 1-1.28.46 21 21 0 0 0-2.38 0c-1.61.25-2.1-.5-2.1-1.9z"/><path class="c" d="M464.63 745.05h-12.7c-3.7 0-7.4 0-11.1-.07-5.29 0-10.57-.06-15.86-.06-6.83 0-13.66.07-20.49 0-7.62 0-15.25-.14-22.88-.23-6.1-.06-12.2-.17-18.29-.2-7.38 0-14.76.1-22.14 0-10.54-.09-21.07-.34-31.6-.43-11.14-.11-22.28-.06-33.41-.18-8.26-.08-16.51-.38-24.77-.47-7-.08-14 .07-20.95 0-6-.1-12-.4-18.05-.68a21.7 21.7 0 0 1-3.82-.61 1.21 1.21 0 0 1-.26-1c2-2.45 4.12-4.86 6.21-7.25 1.51-1.73 3.15-3.35 4.56-5.15 1.72-2.19 2.91-2.72 5.55-1.83 2.94 1 5.84-.1 8.76-.07 4.15 0 8.3 0 12.44-.08 1.76 0 3.52-.09 5.28-.12 3.12-.05 6.24-.11 9.36-.14q17.34-.13 34.67-.24c6.34 0 12.67.06 19 0 7.8 0 15.6-.07 23.4-.09 9.24 0 18.47-.09 27.7-.07q17.64 0 35.26.18c9.36.07 18.72.24 28.08.28 8.53 0 17.07-.1 25.61-.07 5.24 0 10.47.23 15.71.26s10.58-.09 15.87-.09a12.64 12.64 0 0 1 2.4.44c-.56.55-1.07 1.15-1.68 1.64-2.53 2-5.1 4-7.64 6-3.1 2.47-6.18 5-9.27 7.43a3.69 3.69 0 0 0-.66.65c-.53.73-.88 1.78-1.58 2.15s-1.8.08-2.72.08zm6.19-53.79v-20.2c0-2.92 0-5.85-.05-8.77-.1-4.66-.33-9.32-.38-14 0-3.38.16-6.77.16-10.15 0-4.93-.16-9.85-.16-14.77 0-8.69.07-17.38.08-26.08v-58.98c0-5.65.22-11.3.22-17 0-5.23-.23-10.45-.25-15.68 0-3.3.27-6.61.28-9.92 0-4-.2-8.09-.19-12.13s.18-8 .19-12c0-1.26-.41-2.51-.48-3.77a25 25 0 0 1 0-5.67c1-5.37 2.07-10.73 3.39-16a60.77 60.77 0 0 1 2.91-7.7c.15-.36.57-.6.86-.9.21.4.59.79.61 1.2.09 2.25 0 4.5.15 6.74.2 3.48.54 6.94.77 10.42.39 5.93.77 11.87 1.1 17.8q.74 13.25 1.41 26.5c.27 5.28.46 10.57.78 15.86.4 6.63.93 13.25 1.33 19.88.2 3.44.17 6.9.35 10.35.31 6.18.72 12.36 1 18.55.27 5.42.38 10.85.68 16.26.41 7.25 1 14.48 1.41 21.72s.65 14.39 1.05 21.58c.23 4.16.7 8.29.95 12.45.22 3.67.29 7.35.43 11q.3 7.38.62 14.76c.25 5.94.46 11.88.78 17.81.38 7.37.86 14.72 1.28 22.08.21 3.55.39 7.1.58 10.65a9.47 9.47 0 0 1-.09 1.06 3.24 3.24 0 0 1-1.17-.4c-.6-.52-1.06-1.19-1.64-1.74-1.51-1.42-3.07-2.79-4.56-4.23-1.05-1-2-2.14-3-3.18s-2.19-2.11-3.26-3.19c-1.56-1.6-3.08-3.24-4.65-4.84-1.07-1.1-2.27-2.08-3.25-3.25a6.56 6.56 0 0 1-.73-2.12z"/><path class="b" d="M361.77 464.65v-25.72a1.89 1.89 0 0 1 .37-1.26c4.6-4 9.27-7.87 13.85-11.87a3.73 3.73 0 0 1 4.46-.75c1.9.81 4.28.72 5.95 1.79 2.36 1.53 4.25.91 6.26-.2 3-1.64 6-3.32 8.92-5.07 2.45-1.47 4.84-3.05 7.22-4.63a42.38 42.38 0 0 0 3.68-2.7c1.05-.87 1.63-.36 2.08.56q1.68 3.39 3.27 6.81c1.18 2.56 2.32 5.13 3.46 7.71 1.42 3.19 2.73 6.42 4.24 9.56 1.69 3.51 3.54 6.95 5.35 10.39a29.55 29.55 0 0 0 2.31 3.93c1 1.28 2 1.67 3.74.64a91.7 91.7 0 0 1 9.92-4.82 2.14 2.14 0 0 1 1.93.63c3.6 5.12 7.09 10.32 10.67 15.46a44.62 44.62 0 0 0 3.31 4c.72.82.48 1.14-.5 1.17h-3.65q-7.24.06-14.5.1c-9.14.05-18.28.05-27.42.13-6.34.05-12.68.25-19 .31q-9.24.07-18.47 0c-5.44 0-10.88-.26-16.32-.23-1.11 0-1.21-.31-1.2-1.16v-4.8z"/><path class="c" d="M247.66 648.71c-.43-4.5-.88-9-1.28-13.5q-.69-7.62-1.29-15.26c-.56-7.27-1.12-14.54-1.6-21.82-.45-6.86-.73-13.74-1.23-20.6-.44-6.18-1.13-12.35-1.61-18.53-.43-5.44-.67-10.89-1.07-16.33-.45-6.13-1-12.26-1.5-18.39-.43-5.58-.79-11.16-1.21-16.74-.36-4.85-.81-9.69-1.13-14.53-.35-5.32-.56-10.65-.93-16-.35-5-.9-9.91-1.23-14.87-.35-5.34-.49-10.69-.84-16-.2-3.07-.68-6.12-.93-9.19-.34-4.17-.54-8.36-.87-12.53-.22-2.87-.63-5.74-.84-8.61-.35-4.73-.57-9.47-.9-14.19-.38-5.38-.84-10.76-1.23-16.14-.28-3.83-.49-7.67-.74-11.51-.42-6.31-.83-12.63-1.29-18.94-.15-2.08-.5-4.15-.71-6.23a3.53 3.53 0 0 1 .31-1.14 6.4 6.4 0 0 1 1.05.61c4.7 4.29 9.37 8.62 14.1 12.89 2.08 1.88 4.31 3.59 6.39 5.47a2.65 2.65 0 0 1 .75 1.77c.09 3.19.07 6.38.08 9.58.05 8.91.13 17.83.12 26.75 0 7.58-.16 15.16-.16 22.74 0 3.75.31 7.5.33 11.25 0 4-.18 8.09-.18 12.14 0 6.89 0 13.79.16 20.68.07 4.3.45 8.6.41 12.9 0 5.39-.5 10.78-.54 16.17 0 6.82.21 13.64.23 20.46s-.1 13.38-.09 20.07c0 4.34.19 8.68.19 13 0 4-.22 8-.22 12 0 6.89.16 13.77.12 20.66 0 5.6-.32 11.2-.34 16.8 0 5.28.23 10.56.24 15.84 0 3.8-.26 7.61-.29 11.41v17.87zm192.11 49.42c-4.75.47-9.08.86-13.4 1.32-3.17.35-6.32.86-9.49 1.16-2 .2-4 .16-6 .22h-.74c-3.82.56-7.62 1.22-11.46 1.67-2.84.34-5.72.34-8.57.64-2.48.26-4.93.79-7.41 1.1-1.5.18-3 .13-4.54.28q-8.67.87-17.33 1.81-6.57.7-13.12 1.5c-3.21.38-6.41.92-9.62 1.24-6.29.63-12.59 1.13-18.87 1.74-3.78.37-7.54.95-11.32 1.28-4.63.41-9.28.61-13.92 1-2.13.18-4.23.59-6.35.86-3 .39-6.06.78-9.1 1.13-2.55.29-5.1.59-7.65.75-1.71.11-3.45-.22-5.13 0-2.9.37-5.75 1.11-8.65 1.49-4 .52-8 .77-11.92 1.27-3.76.47-7.49 1.11-11.23 1.65a4.53 4.53 0 0 1-1.1 0c-1-.1-1.92-.23-2.88-.34a28.27 28.27 0 0 1 2-2.38c2-2 4.11-3.82 6-5.87 4-4.3 7.85-8.69 11.72-13.08a2.33 2.33 0 0 1 2.31-.83 50.38 50.38 0 0 0 6.22-.42c2.68-.15 5.37-.2 8-.3 5.46-.21 10.92-.49 16.38-.6 3.88-.08 7.76 0 11.64.16a83.75 83.75 0 0 0 12.47-.1c3.14-.36 6.36.1 9.55.14s6.27 0 9.4 0h25.79c5.83-.06 11.67-.2 17.5-.22 5.36 0 10.71.12 16.07.11 7.13 0 14.26-.11 21.38-.15s14.28 0 21.42 0h21.29a5 5 0 0 1 1 .22 3.48 3.48 0 0 1-1 .51c-3.28.36-6.52.72-9.34 1.04z"/><path class="b" d="M357 595.82v26c0 6.78-.12 13.55-.19 20.33q0 5.72-.1 11.43a4.16 4.16 0 0 1-.12.69 2.48 2.48 0 0 1-.45-.64c-1.33-4.21-2.55-8.47-4-12.65a64.93 64.93 0 0 0-4.31-10.79c-.88-1.56-3.24-2.56-5.14-3.23a89.32 89.32 0 0 0-9.08-2.29 33 33 0 0 1-4.24-1 3.55 3.55 0 0 1-1.5-1.77c-2.25-4.35-4.39-8.76-6.66-13.1-1.7-3.24-3.47-6.46-5.37-9.58a19.15 19.15 0 0 0-3.37-4 2.58 2.58 0 0 0-2.31-.16c-3.71 1.76-7.33 3.68-11 5.49a1.58 1.58 0 0 1-1.42-.11c-2.71-3-5.33-6-8-9-.86-1-1.8-1.83-2.69-2.76a2.6 2.6 0 0 1-.31-.57 3.05 3.05 0 0 1 .67-.13c4.05.06 8.1.2 12.16.19 2.75 0 5.51-.25 8.26-.3 3.06-.05 6.12 0 9.18 0 3.74-.06 7.47-.25 11.21-.28 3.44 0 6.88.12 10.32.11 4.77 0 9.55-.08 14.33-.13a5.14 5.14 0 0 1 .55-.06c3.35.27 3.59-.47 3.45 3.41-.06 1.6 0 3.21 0 4.81z"/><path class="c" d="M282.69 362.05h-15.28a8.77 8.77 0 0 1-1.9-.42 9.12 9.12 0 0 1 1.6-.91c3-1 6.07-1.89 9-3a53.32 53.32 0 0 0 6.33-2.93c1.35-.71 1.76-.6 2.11 1a23.47 23.47 0 0 0 1.1 4.29c.63 1.46.06 1.63-1.15 1.58h-1.85zm169.4 334.52a3 3 0 0 1-.55 0c-.08 0-.15-.12-.23-.19a2.92 2.92 0 0 1 .5-.09c.07.05.19.17.28.28z"/></svg>