<svg id="Layer_1" data-name="Layer 1" xmlns="http://www.w3.org/2000/svg" viewBox="0 0 800 800"><defs><style>.cls-1{fill:none;stroke:#000;stroke-linejoin:bevel;stroke-width:8px;}.cls-12,.cls-2{fill:#fff;}.cls-3{opacity:0.3;}.cls-4{fill:blue;}.cls-5{opacity:0.39;}.cls-6{opacity:0.48;}.cls-7{opacity:0.56;}.cls-8{opacity:0.65;}.cls-9{opacity:0.74;}.cls-10{opacity:0.83;}.cls-11{opacity:0.91;}.cls-12{font-size:21.78px;font-family:LibreBaskerville-Italic, Libre Baskerville;font-style:italic;}</style></defs><title>future9s</title><polygon points="315.72 595.01 322.62 595.79 329.69 595.29 336.76 595.09 343.83 594.82 350.89 594.92 357.96 595.65 365.03 595.63 372.1 595.07 379.17 595.15 386.24 595.11 393.31 595.59 400.38 595.11 407.45 595.41 414.52 595.74 421.59 594.85 428.66 594.87 435.73 594.9 442.8 595.54 449.87 594.84 456.94 595.22 464.01 594.94 471.09 595.5 478.17 595.14 485.68 595.53 481.79 588.98 478.04 582.84 474.5 576.57 470.87 570.35 466.9 564.34 463.21 558.15 460.01 551.69 456.35 545.5 452.68 539.3 448.65 533.32 445.68 526.72 441.25 520.97 437.63 514.75 434.03 508.52 430.45 502.27 427.2 495.83 423.54 489.63 420.08 483.32 416.21 477.24 412.63 471 408.62 465.01 405.6 458.43 401.28 452.62 397.86 446.29 394.56 439.88 390.49 433.93 387.13 427.55 383.65 421.25 379.85 415.14 376.14 408.97 372.21 402.93 369.12 396.4 365.37 390.26 361.92 383.93 357.81 378 354.32 371.7 350.71 365.47 347.02 359.29 343.37 353.08 339.59 346.95 336.1 340.65 332.32 334.51 329.32 327.93 325.16 322.01 322.06 315.49 317.69 309.7 314.15 303.43 310.92 296.98 307.06 290.89 303.85 284.43 299.61 278.56 296.37 272.11 292.6 265.97 289.25 259.58 285.72 253.29 281.63 247.38 274.62 247.62 267.55 247.12 260.49 247.18 253.42 246.81 246.35 247.6 239.28 247.22 232.22 247.31 225.15 247.03 218.08 247.21 211.01 246.81 203.94 247.03 196.87 246.87 189.8 247.56 182.73 246.97 175.65 247.02 168.59 246.94 161.52 247.16 154.44 247.68 147.38 247.15 140.3 247.06 133.23 246.99 126.16 247.55 119.08 247.69 111.59 247.07 115.56 253.55 119.45 259.61 122.91 265.92 126.38 272.23 130.28 278.29 134.06 284.42 137.42 290.79 141.5 296.74 144.84 303.13 148.2 309.5 151.59 315.85 155.69 321.79 159.41 327.96 163.16 334.11 166.35 340.57 169.96 346.8 173.96 352.81 177.69 358.96 180.99 365.37 185.03 371.35 187.99 377.96 192.38 383.73 195.91 390 198.97 396.54 202.84 402.61 206.75 408.66 209.87 415.18 213.71 421.27 217.23 427.55 221.39 433.45 224.39 440.03 227.95 446.29 232.06 452.22 235.85 458.35 239.46 464.57 243.22 470.72 246.59 477.08 250.25 483.28 254.05 489.4 257.37 495.81 261.16 501.93 265.02 508.01 268.58 514.28 272.12 520.55 275.36 527 279.5 532.92 282.98 539.22 286.3 545.62 290.07 551.76 293.54 558.08 296.99 564.4 300.68 570.59 304.78 576.54 308.55 582.68 312.3 588.84 315.72 595.01"/><polygon class="cls-1" points="315.72 595.01 322.62 595.79 329.69 595.29 336.76 595.09 343.83 594.82 350.89 594.92 357.96 595.65 365.03 595.63 372.1 595.07 379.17 595.15 386.24 595.11 393.31 595.59 400.38 595.11 407.45 595.41 414.52 595.74 421.59 594.85 428.66 594.87 435.73 594.9 442.8 595.54 449.87 594.84 456.94 595.22 464.01 594.94 471.09 595.5 478.17 595.14 485.68 595.53 481.79 588.98 478.04 582.84 474.5 576.57 470.87 570.35 466.9 564.34 463.21 558.15 460.01 551.69 456.35 545.5 452.68 539.3 448.65 533.32 445.68 526.72 441.25 520.97 437.63 514.75 434.03 508.52 430.45 502.27 427.2 495.83 423.54 489.63 420.08 483.32 416.21 477.24 412.63 471 408.62 465.01 405.6 458.43 401.28 452.62 397.86 446.29 394.56 439.88 390.49 433.93 387.13 427.55 383.65 421.25 379.85 415.14 376.14 408.97 372.21 402.93 369.12 396.4 365.37 390.26 361.92 383.93 357.81 378 354.32 371.7 350.71 365.47 347.02 359.29 343.37 353.08 339.59 346.95 336.1 340.65 332.32 334.51 329.32 327.93 325.16 322.01 322.06 315.49 317.69 309.7 314.15 303.43 310.92 296.98 307.06 290.89 303.85 284.43 299.61 278.56 296.37 272.11 292.6 265.97 289.25 259.58 285.72 253.29 281.63 247.38 274.62 247.62 267.55 247.12 260.49 247.18 253.42 246.81 246.35 247.6 239.28 247.22 232.22 247.31 225.15 247.03 218.08 247.21 211.01 246.81 203.94 247.03 196.87 246.87 189.8 247.56 182.73 246.97 175.65 247.02 168.59 246.94 161.52 247.16 154.44 247.68 147.38 247.15 140.3 247.06 133.23 246.99 126.16 247.55 119.08 247.69 111.59 247.07 115.56 253.55 119.45 259.61 122.91 265.92 126.38 272.23 130.28 278.29 134.06 284.42 137.42 290.79 141.5 296.74 144.84 303.13 148.2 309.5 151.59 315.85 155.69 321.79 159.41 327.96 163.16 334.11 166.35 340.57 169.96 346.8 173.96 352.81 177.69 358.96 180.99 365.37 185.03 371.35 187.99 377.96 192.38 383.73 195.91 390 198.97 396.54 202.84 402.61 206.75 408.66 209.87 415.18 213.71 421.27 217.23 427.55 221.39 433.45 224.39 440.03 227.95 446.29 232.06 452.22 235.85 458.35 239.46 464.57 243.22 470.72 246.59 477.08 250.25 483.28 254.05 489.4 257.37 495.81 261.16 501.93 265.02 508.01 268.58 514.28 272.12 520.55 275.36 527 279.5 532.92 282.98 539.22 286.3 545.62 290.07 551.76 293.54 558.08 296.99 564.4 300.68 570.59 304.78 576.54 308.55 582.68 312.3 588.84 315.72 595.01"/><polygon class="cls-1" points="315.69 555.05 322.87 555.33 330.18 555.31 337.48 555.44 344.79 555.71 352.1 554.95 359.41 555.62 366.72 555.57 374.03 555.12 381.34 554.88 388.65 555.13 395.97 554.86 403.28 555.41 410.59 555.53 417.9 555.33 425.22 555.05 432.53 555.6 439.84 555.22 447.16 554.97 454.47 555.75 461.78 554.96 469.1 555.54 476.41 555.41 483.73 555.33 491.04 554.88 498.36 555.67 505.68 555.13 513.1 555.35 509.25 549.15 505.58 542.96 501.7 536.89 498.26 530.56 494.78 524.26 491.02 518.13 487.82 511.66 484.3 505.38 480.29 499.39 476.33 493.37 473.32 486.79 469.32 480.79 466 474.39 461.72 468.55 458.26 462.24 455.01 455.8 451.22 449.68 447.85 443.31 443.65 437.43 440.62 430.86 436.4 424.99 432.81 418.75 428.99 412.65 425.64 406.27 421.73 400.23 418.25 393.92 414.51 387.77 411.04 381.47 407.47 375.22 403.93 368.95 400.71 362.49 396.45 356.65 392.86 350.41 389.4 344.09 385.69 337.93 382.15 331.65 378.96 325.18 375.1 319.1 371.66 312.77 367.97 306.58 364.25 300.42 360.72 294.14 356.4 288.32 352.83 282.06 349.06 275.93 345.41 269.72 342.41 263.14 338.35 257.17 334.69 250.97 330.99 244.79 327.44 238.51 323.64 232.39 320.55 225.85 316.3 219.99 312.8 213.69 309.53 207.13 302.13 207.07 294.82 207.26 287.52 206.87 280.21 207.66 272.9 207.3 265.59 207.61 258.28 207.37 250.97 207.21 243.66 207.47 236.35 206.87 229.03 207.2 221.72 207.22 214.41 206.85 207.09 207.32 199.78 207.35 192.47 207.23 185.16 207.44 177.84 207.73 170.53 207.42 163.22 207.78 155.9 207.35 148.59 207.68 141.28 206.99 133.96 207.06 126.64 207.31 119.32 207.69 111.65 207.09 116.01 213.28 119.01 219.87 122.48 226.17 126.35 232.25 130.18 238.35 133.54 244.72 137.35 250.82 141.29 256.86 144.92 263.08 148.19 269.5 152.21 275.49 155.31 282.01 159.13 288.12 162.7 294.37 166.2 300.66 170.05 306.75 173.91 312.83 177.06 319.33 181.22 325.24 184.31 331.77 187.98 337.96 191.83 344.05 195.42 350.29 199.64 356.15 203.21 362.4 206.19 368.99 210.15 375.01 213.79 381.22 217.1 387.62 220.73 393.84 224.65 399.88 228.06 406.22 232.16 412.17 235.78 418.39 239.23 424.71 242.45 431.17 246.82 436.95 249.89 443.5 253.5 449.73 257.11 455.96 260.58 462.27 264.71 468.19 268.06 474.58 272.03 480.6 275.14 487.13 279.2 493.1 282.47 499.52 286.04 505.77 289.74 511.95 293.34 518.2 297.74 523.96 301.16 530.31 304.55 536.67 308.59 542.66 311.94 549.06 315.69 555.05"/><polygon class="cls-1" points="331.79 532.03 338.91 532.54 346.18 532.73 353.45 532.25 360.73 532.18 368 532.52 375.27 532.25 382.55 532.66 389.82 532.34 397.09 532.07 404.37 532.74 411.64 532.27 418.91 532.32 426.19 532.04 433.46 532.62 440.74 532.72 448.01 532.51 455.29 532.64 462.57 531.95 470.27 532.54 466.64 525.85 462.52 519.94 458.83 513.77 455.29 507.53 451.85 501.22 447.92 495.2 444.64 488.79 441.28 482.44 437.16 476.53 433.66 470.25 430.44 463.82 426.13 458.01 423.05 451.49 419.29 445.37 415.17 439.46 412.07 432.95 408.04 427 404.7 420.63 401.4 414.25 397.07 408.46 393.63 402.15 389.82 396.06 386.82 389.5 383.24 383.27 379.72 377.01 375.36 371.24 371.91 364.94 368.88 358.38 364.56 352.59 361.06 346.31 357.97 339.8 354.22 333.67 350.23 327.68 346.56 321.5 343.13 315.19 339.5 308.98 335.74 302.86 332.06 296.68 328.5 290.44 324.93 284.2 321.26 278.03 317.83 271.71 314.52 265.32 310.89 259.12 307.26 252.91 303.38 246.85 299.62 240.72 295.82 234.61 292.19 228.58 285.09 228.6 277.82 228.02 270.55 228.28 263.27 228.2 256 227.94 248.73 227.87 241.45 228.74 234.18 228.05 226.91 228.11 219.63 228.33 212.36 228.7 205.09 228.08 197.81 228.24 190.54 228.77 183.26 228.38 175.99 228.03 168.71 228.5 161.43 228.36 154.29 228.37 157.7 234.54 161.45 240.67 165.13 246.84 168.74 253.04 171.88 259.52 176.06 265.4 179.65 271.63 183.47 277.71 186.9 284.02 190.49 290.25 194.36 296.3 197.27 302.92 201.21 308.94 204.59 315.28 208.64 321.24 212.35 327.39 215.57 333.82 219 340.13 222.61 346.34 226.3 352.5 230.17 358.55 234.14 364.55 237.76 370.75 240.85 377.26 244.44 383.48 248.54 389.4 252 395.71 255.64 401.9 258.79 408.38 262.98 414.25 266.71 420.39 269.98 426.8 273.44 433.1 277.27 439.18 280.61 445.56 284.18 451.8 288 457.88 291.35 464.25 295.61 470.08 299.21 476.3 302.96 482.43 306.27 488.82 309.54 495.23 313.17 501.44 317.12 507.45 321.12 513.44 324.39 519.86 327.98 526.1 331.79 532.03"/><polygon points="111.97 207.08 112.11 213.96 112.01 220.62 112.47 227.28 111.97 233.95 112.13 240.62 112.01 247.29 115.8 253.41 119.4 259.65 123.31 265.7 126.56 272.15 130.02 278.46 134.16 284.39 137.86 290.56 140.97 297.08 145.18 302.97 148.58 309.32 152.44 315.41 156.02 321.65 159.46 327.99 163.13 334.19 166.39 340.62 170.13 346.78 174.3 352.68 177.73 359.02 181.46 365.18 184.9 371.51 188.76 377.6 191.88 384.12 195.82 390.16 199.51 396.34 202.92 402.68 206.75 408.78 210.67 414.84 213.87 421.3 217.98 427.24 221.55 433.49 225.1 439.76 228.45 446.14 232.37 452.19 235.87 458.49 239.44 464.75 243.47 470.74 246.39 477.37 250.1 483.55 254.04 489.59 257.33 496.01 260.96 502.23 264.67 508.42 268.25 514.67 272.33 520.63 276.25 526.68 279.51 533.13 282.89 539.49 286.67 545.63 290.14 551.95 293.71 558.21 297.86 564.13 301.57 570.31 305.11 576.59 308.49 582.97 312.75 588.83 316.05 595.72 316.43 588.63 316.35 581.97 315.65 575.3 315.77 568.64 316.05 561.97 315.56 555.42 312.72 548.87 309.04 542.68 305.31 536.52 301.85 530.2 297.46 524.43 293.92 518.15 290.54 511.79 286.74 505.67 283.56 499.19 279.67 493.12 276.34 486.72 271.92 480.97 268.34 474.72 264.67 468.52 260.99 462.33 257.31 456.13 254.2 449.61 250.41 443.49 246.53 437.41 243.06 431.09 239.41 424.89 235.48 418.84 232.46 412.26 228.83 406.05 224.82 400.06 221.2 393.83 217.97 387.38 213.92 381.4 210.16 375.26 207.05 368.74 202.79 362.89 199.52 356.46 195.61 350.4 191.76 344.31 188.21 338.05 185.12 331.5 181.31 325.39 177.98 318.99 174.15 312.89 170.13 306.89 166.71 300.55 163.38 294.14 159.24 288.22 156.01 281.75 151.88 275.82 148.38 269.53 144.9 263.22 141.04 257.13 137.6 250.79 133.68 244.73 130.39 238.31 126.41 232.29 122.69 226.12 119.67 219.53 115.62 213.54 111.97 207.08"/><polygon class="cls-1" points="111.97 207.08 112.11 213.96 112.01 220.62 112.47 227.28 111.97 233.95 112.13 240.62 112.01 247.29 115.8 253.41 119.4 259.65 123.31 265.7 126.56 272.15 130.02 278.46 134.16 284.39 137.86 290.56 140.97 297.08 145.18 302.97 148.58 309.32 152.44 315.41 156.02 321.65 159.46 327.99 163.13 334.19 166.39 340.62 170.13 346.78 174.3 352.68 177.73 359.02 181.46 365.18 184.9 371.51 188.76 377.6 191.88 384.12 195.82 390.16 199.51 396.34 202.92 402.68 206.75 408.78 210.67 414.84 213.87 421.3 217.98 427.24 221.55 433.49 225.1 439.76 228.45 446.14 232.37 452.19 235.87 458.49 239.44 464.75 243.47 470.74 246.39 477.37 250.1 483.55 254.04 489.59 257.33 496.01 260.96 502.23 264.67 508.42 268.25 514.67 272.33 520.63 276.25 526.68 279.51 533.13 282.89 539.49 286.67 545.63 290.14 551.95 293.71 558.21 297.86 564.13 301.57 570.31 305.11 576.59 308.49 582.97 312.75 588.83 316.05 595.72 316.43 588.63 316.35 581.97 315.65 575.3 315.77 568.64 316.05 561.97 315.56 555.42 312.72 548.87 309.04 542.68 305.31 536.52 301.85 530.2 297.46 524.43 293.92 518.15 290.54 511.79 286.74 505.67 283.56 499.19 279.67 493.12 276.34 486.72 271.92 480.97 268.34 474.72 264.67 468.52 260.99 462.33 257.31 456.13 254.2 449.61 250.41 443.49 246.53 437.41 243.06 431.09 239.41 424.89 235.48 418.84 232.46 412.26 228.83 406.05 224.82 400.06 221.2 393.83 217.97 387.38 213.92 381.4 210.16 375.26 207.05 368.74 202.79 362.89 199.52 356.46 195.61 350.4 191.76 344.31 188.21 338.05 185.12 331.5 181.31 325.39 177.98 318.99 174.15 312.89 170.13 306.89 166.71 300.55 163.38 294.14 159.24 288.22 156.01 281.75 151.88 275.82 148.38 269.53 144.9 263.22 141.04 257.13 137.6 250.79 133.68 244.73 130.39 238.31 126.41 232.29 122.69 226.12 119.67 219.53 115.62 213.54 111.97 207.08"/><polygon class="cls-2" points="512.67 555.65 512.97 561.96 512.82 568.62 512.6 575.28 512.64 581.95 513.23 588.62 512.68 594.94 505.71 595.05 498.41 595.73 491.12 594.82 483.83 595.39 476.54 595.5 469.25 594.83 461.95 595.06 454.66 595.69 447.36 595.45 440.07 595.53 432.77 595.43 425.48 595.27 418.18 595.54 410.88 595.5 403.59 594.86 396.29 595.13 388.99 595.38 381.69 595.1 374.4 595.75 367.1 594.83 359.81 594.9 352.51 595.21 345.21 595.45 337.91 595.78 330.61 595.3 323.3 595.69 316.28 594.99 315.79 588.63 316.34 581.97 315.72 575.3 315.59 568.64 315.78 561.97 315.96 555.25 323.29 554.86 330.59 555.22 337.88 555.76 345.17 555.29 352.46 555.1 359.75 554.93 367.05 554.91 374.34 555.19 381.64 554.83 388.93 554.79 396.23 555.31 403.52 555.42 410.82 555.48 418.12 555.66 425.41 555.06 432.71 554.85 440.01 555.08 447.31 555.58 454.6 555.35 461.9 555.12 469.19 555.6 476.49 554.81 483.79 554.8 491.09 555.11 498.39 555.5 505.69 555.56 512.67 555.65"/><polygon class="cls-1" points="512.67 555.65 512.97 561.96 512.82 568.62 512.6 575.28 512.64 581.95 513.23 588.62 512.68 594.94 505.71 595.05 498.41 595.73 491.12 594.82 483.83 595.39 476.54 595.5 469.25 594.83 461.95 595.06 454.66 595.69 447.36 595.45 440.07 595.53 432.77 595.43 425.48 595.27 418.18 595.54 410.88 595.5 403.59 594.86 396.29 595.13 388.99 595.38 381.69 595.1 374.4 595.75 367.1 594.83 359.81 594.9 352.51 595.21 345.21 595.45 337.91 595.78 330.61 595.3 323.3 595.69 316.28 594.99 315.79 588.63 316.34 581.97 315.72 575.3 315.59 568.64 315.78 561.97 315.96 555.25 323.29 554.86 330.59 555.22 337.88 555.76 345.17 555.29 352.46 555.1 359.75 554.93 367.05 554.91 374.34 555.19 381.64 554.83 388.93 554.79 396.23 555.31 403.52 555.42 410.82 555.48 418.12 555.66 425.41 555.06 432.71 554.85 440.01 555.08 447.31 555.58 454.6 555.35 461.9 555.12 469.19 555.6 476.49 554.81 483.79 554.8 491.09 555.11 498.39 555.5 505.69 555.56 512.67 555.65"/><polygon class="cls-2" points="331.94 532.17 328.08 538.09 324.32 544 320.14 549.64 315.89 555.36 323.29 555.2 330.59 555.16 337.88 555.55 345.17 554.89 352.46 555.48 359.75 555.45 367.05 555.79 374.34 555.09 381.64 555.75 388.93 555.63 396.23 555.38 403.52 555.58 410.82 555.24 418.12 554.97 425.41 555.56 432.71 555.62 440.01 555.24 447.31 555.46 454.6 554.89 461.9 555.33 469.19 555.78 476.49 555.73 483.79 555.18 491.09 555.41 498.39 554.96 505.7 555.71 513.14 555.34 506.93 551.88 500.7 548.76 494.43 545.72 488.59 541.88 482.28 538.89 476.24 535.42 469.98 532.39 462.74 531.9 455.48 531.91 448.22 531.89 440.96 532.28 433.7 532.44 426.43 532.59 419.17 531.96 411.91 532.54 404.65 532.45 397.38 532.11 390.12 532.57 382.86 532.16 375.6 532.13 368.33 532.17 361.07 532.18 353.8 531.92 346.54 531.93 339.27 531.9 331.94 532.17"/><polygon class="cls-1" points="331.94 532.17 328.08 538.09 324.32 544 320.14 549.64 315.89 555.36 323.29 555.2 330.59 555.16 337.88 555.55 345.17 554.89 352.46 555.48 359.75 555.45 367.05 555.79 374.34 555.09 381.64 555.75 388.93 555.63 396.23 555.38 403.52 555.58 410.82 555.24 418.12 554.97 425.41 555.56 432.71 555.62 440.01 555.24 447.31 555.46 454.6 554.89 461.9 555.33 469.19 555.78 476.49 555.73 483.79 555.18 491.09 555.41 498.39 554.96 505.7 555.71 513.14 555.34 506.93 551.88 500.7 548.76 494.43 545.72 488.59 541.88 482.28 538.89 476.24 535.42 469.98 532.39 462.74 531.9 455.48 531.91 448.22 531.89 440.96 532.28 433.7 532.44 426.43 532.59 419.17 531.96 411.91 532.54 404.65 532.45 397.38 532.11 390.12 532.57 382.86 532.16 375.6 532.13 368.33 532.17 361.07 532.18 353.8 531.92 346.54 531.93 339.27 531.9 331.94 532.17"/><polygon class="cls-2" points="312.02 207.12 306.75 212.3 301.98 217.77 297.36 223.38 292.36 228.34 295.82 234.38 299.45 240.59 302.72 247 306.53 253.1 310.1 259.34 313.46 265.7 317.08 271.91 321.25 277.8 324.54 284.2 328.73 290.08 331.96 296.52 335.45 302.8 339.15 308.97 342.99 315.05 346.54 321.3 350.46 327.33 353.62 333.81 357.34 339.95 360.58 346.38 365.06 352.09 368.15 358.61 371.77 364.81 375.53 370.94 378.89 377.3 382.63 383.44 386.83 389.31 390.26 395.63 393.47 402.08 397.05 408.31 400.78 414.46 404.66 420.52 408.08 426.85 412.08 432.84 415.37 439.24 419.26 445.3 422.87 451.52 426.49 457.73 430.03 464 433.7 470.18 437.23 476.44 440.98 482.58 444.49 488.86 448.57 494.81 452.22 501 455.4 507.48 459.19 513.59 463.13 519.62 466.66 525.9 469.81 532.49 476.08 535.68 482.1 539.2 488.52 541.97 494.73 545.12 500.52 549.06 507.03 551.66 512.82 555.13 509.66 548.94 505.46 543.08 502.27 536.64 498.43 530.58 494.65 524.47 491.63 517.93 487.6 511.97 484.4 505.54 480.57 499.46 477.49 492.96 473.58 486.93 470.29 480.54 466.32 474.55 462.37 468.54 458.89 462.27 455.25 456.09 451.59 449.92 448.44 443.44 444.95 437.18 440.94 431.21 437.6 424.85 434.28 418.48 430.43 412.42 426.66 406.31 423.12 400.08 419.86 393.68 416.55 387.3 412.94 381.11 409.18 375 405.11 369.06 401.7 362.74 397.86 356.68 394.66 350.24 391.32 343.88 387.34 337.89 384.22 331.41 379.8 325.67 376.28 319.42 372.72 313.19 369.66 306.66 365.57 300.74 361.99 294.52 358.59 288.19 355.03 281.95 351.42 275.75 347.61 269.66 344.51 263.16 340.77 257.04 337.56 250.6 333.37 244.73 330.31 238.2 326.49 232.12 322.9 225.9 319.39 219.63 315.87 213.36 312.02 207.12"/><polygon class="cls-1" points="312.02 207.12 306.75 212.3 301.98 217.77 297.36 223.38 292.36 228.34 295.82 234.38 299.45 240.59 302.72 247 306.53 253.1 310.1 259.34 313.46 265.7 317.08 271.91 321.25 277.8 324.54 284.2 328.73 290.08 331.96 296.52 335.45 302.8 339.15 308.97 342.99 315.05 346.54 321.3 350.46 327.33 353.62 333.81 357.34 339.95 360.58 346.38 365.06 352.09 368.15 358.61 371.77 364.81 375.53 370.94 378.89 377.3 382.63 383.44 386.83 389.31 390.26 395.63 393.47 402.08 397.05 408.31 400.78 414.46 404.66 420.52 408.08 426.85 412.08 432.84 415.37 439.24 419.26 445.3 422.87 451.52 426.49 457.73 430.03 464 433.7 470.18 437.23 476.44 440.98 482.58 444.49 488.86 448.57 494.81 452.22 501 455.4 507.48 459.19 513.59 463.13 519.62 466.66 525.9 469.81 532.49 476.08 535.68 482.1 539.2 488.52 541.97 494.73 545.12 500.52 549.06 507.03 551.66 512.82 555.13 509.66 548.94 505.46 543.08 502.27 536.64 498.43 530.58 494.65 524.47 491.63 517.93 487.6 511.97 484.4 505.54 480.57 499.46 477.49 492.96 473.58 486.93 470.29 480.54 466.32 474.55 462.37 468.54 458.89 462.27 455.25 456.09 451.59 449.92 448.44 443.44 444.95 437.18 440.94 431.21 437.6 424.85 434.28 418.48 430.43 412.42 426.66 406.31 423.12 400.08 419.86 393.68 416.55 387.3 412.94 381.11 409.18 375 405.11 369.06 401.7 362.74 397.86 356.68 394.66 350.24 391.32 343.88 387.34 337.89 384.22 331.41 379.8 325.67 376.28 319.42 372.72 313.19 369.66 306.66 365.57 300.74 361.99 294.52 358.59 288.19 355.03 281.95 351.42 275.75 347.61 269.66 344.51 263.16 340.77 257.04 337.56 250.6 333.37 244.73 330.31 238.2 326.49 232.12 322.9 225.9 319.39 219.63 315.87 213.36 312.02 207.12"/><polygon class="cls-2" points="311.76 207.39 307.32 212.84 302.01 217.79 297.22 223.25 292.17 228.69 284.74 228.39 277.48 228.25 270.22 227.89 262.96 228.61 255.7 227.95 248.43 228 241.17 228.25 233.91 227.95 226.65 228.05 219.38 228.27 212.12 227.79 204.86 227.94 197.6 228.03 190.34 228.71 183.07 227.96 175.8 228.63 168.54 228.45 161.27 228.72 153.96 228.48 147.95 225.4 142.2 221.91 136.16 218.98 129.95 216.41 124.2 212.91 118.03 210.24 111.95 207.28 119.14 206.92 126.28 207.56 133.42 207.43 140.55 207.37 147.69 207 154.83 206.83 161.97 207.23 169.12 207.53 176.25 207.31 183.4 207.23 190.54 207.11 197.68 206.83 204.82 207.68 211.97 207.47 219.11 206.84 226.25 207.69 233.4 207.75 240.54 207.64 247.69 207.09 254.83 206.87 261.97 206.81 269.11 206.87 276.26 207.49 283.4 207.03 290.55 207.71 297.69 207.1 304.85 207.24 311.76 207.39"/><polygon class="cls-1" points="311.76 207.39 307.32 212.84 302.01 217.79 297.22 223.25 292.17 228.69 284.74 228.39 277.48 228.25 270.22 227.89 262.96 228.61 255.7 227.95 248.43 228 241.17 228.25 233.91 227.95 226.65 228.05 219.38 228.27 212.12 227.79 204.86 227.94 197.6 228.03 190.34 228.71 183.07 227.96 175.8 228.63 168.54 228.45 161.27 228.72 153.96 228.48 147.95 225.4 142.2 221.91 136.16 218.98 129.95 216.41 124.2 212.91 118.03 210.24 111.95 207.28 119.14 206.92 126.28 207.56 133.42 207.43 140.55 207.37 147.69 207 154.83 206.83 161.97 207.23 169.12 207.53 176.25 207.31 183.4 207.23 190.54 207.11 197.68 206.83 204.82 207.68 211.97 207.47 219.11 206.84 226.25 207.69 233.4 207.75 240.54 207.64 247.69 207.09 254.83 206.87 261.97 206.81 269.11 206.87 276.26 207.49 283.4 207.03 290.55 207.71 297.69 207.1 304.85 207.24 311.76 207.39"/><polygon class="cls-2" points="112.36 207.56 115.41 213.64 119.65 219.5 123 225.88 126.24 232.33 130.5 238.18 133.51 244.77 137.91 250.53 141.42 256.82 145.2 262.95 148.38 269.44 151.66 275.87 156.13 281.59 159.41 288.02 162.67 294.46 166.36 300.64 170.59 306.51 174.15 312.77 177.95 318.89 181.21 325.33 184.8 331.57 188.73 337.62 191.8 344.17 195.54 350.32 199.06 356.6 203.19 362.52 206.92 368.68 210.68 374.83 213.8 381.35 217.73 387.39 221.52 393.51 225.1 399.76 228.48 406.13 231.87 412.49 235.4 418.77 239.53 424.69 243.15 430.92 247.03 437 250.43 443.35 253.71 449.78 258.07 455.58 261.67 461.82 264.69 468.4 268.92 474.28 272.3 480.65 276.3 486.65 279.29 493.26 282.93 499.47 287.14 505.35 290.7 511.62 293.99 518.05 297.84 524.14 301.55 530.33 304.63 536.87 308.89 542.73 312.53 548.96 316.03 554.81 319.86 549.45 324.38 544.07 327.75 537.87 331.84 532.29 328.05 526.28 324.98 519.75 321.42 513.5 317.05 507.73 313.52 501.47 310.12 495.13 306.5 488.92 302.74 482.8 299.6 476.3 295.43 470.41 292 464.09 288.71 457.69 285.01 451.53 281.24 445.4 277.12 439.49 274.24 432.85 270.66 426.62 266.31 420.84 262.86 414.54 259.05 408.43 255.64 402.11 252.18 395.8 248.9 389.4 245.13 383.28 241.55 377.04 237.76 370.94 233.62 365.03 230.28 358.65 226.78 352.37 222.93 346.3 218.99 340.27 215.76 333.83 212.03 327.68 208.18 321.6 204.78 315.27 201.33 308.95 197.91 302.62 194.4 296.34 190.13 290.5 186.86 284.09 182.93 278.06 179.2 271.91 175.66 265.64 171.93 259.5 168.56 253.13 165.31 246.7 161.64 240.51 157.68 234.49 154.01 228.29 148.08 225.14 141.92 222.46 136.22 218.86 129.86 216.6 123.82 213.68 118.08 210.15 112.36 207.56"/><polygon class="cls-1" points="112.36 207.56 115.41 213.64 119.65 219.5 123 225.88 126.24 232.33 130.5 238.18 133.51 244.77 137.91 250.53 141.42 256.82 145.2 262.95 148.38 269.44 151.66 275.87 156.13 281.59 159.41 288.02 162.67 294.46 166.36 300.64 170.59 306.51 174.15 312.77 177.95 318.89 181.21 325.33 184.8 331.57 188.73 337.62 191.8 344.17 195.54 350.32 199.06 356.6 203.19 362.52 206.92 368.68 210.68 374.83 213.8 381.35 217.73 387.39 221.52 393.51 225.1 399.76 228.48 406.13 231.87 412.49 235.4 418.77 239.53 424.69 243.15 430.92 247.03 437 250.43 443.35 253.71 449.78 258.07 455.58 261.67 461.82 264.69 468.4 268.92 474.28 272.3 480.65 276.3 486.65 279.29 493.26 282.93 499.47 287.14 505.35 290.7 511.62 293.99 518.05 297.84 524.14 301.55 530.33 304.63 536.87 308.89 542.73 312.53 548.96 316.03 554.81 319.86 549.45 324.38 544.07 327.75 537.87 331.84 532.29 328.05 526.28 324.98 519.75 321.42 513.5 317.05 507.73 313.52 501.47 310.12 495.13 306.5 488.92 302.74 482.8 299.6 476.3 295.43 470.41 292 464.09 288.71 457.69 285.01 451.53 281.24 445.4 277.12 439.49 274.24 432.85 270.66 426.62 266.31 420.84 262.86 414.54 259.05 408.43 255.64 402.11 252.18 395.8 248.9 389.4 245.13 383.28 241.55 377.04 237.76 370.94 233.62 365.03 230.28 358.65 226.78 352.37 222.93 346.3 218.99 340.27 215.76 333.83 212.03 327.68 208.18 321.6 204.78 315.27 201.33 308.95 197.91 302.62 194.4 296.34 190.13 290.5 186.86 284.09 182.93 278.06 179.2 271.91 175.66 265.64 171.93 259.5 168.56 253.13 165.31 246.7 161.64 240.51 157.68 234.49 154.01 228.29 148.08 225.14 141.92 222.46 136.22 218.86 129.86 216.6 123.82 213.68 118.08 210.15 112.36 207.56"/><polyline points="292.18 228.39 288.87 234.73 285.5 241.05 281.97 247.28"/><polyline class="cls-1" points="292.18 228.39 288.87 234.73 285.5 241.05 281.97 247.28"/><polyline points="329.14 555.29 328.76 561.96 329.21 568.62 328.88 575.28 328.67 581.95 329.4 588.62 328.99 595.29"/><polyline class="cls-1" points="329.14 555.29 328.76 561.96 329.21 568.62 328.88 575.28 328.67 581.95 329.4 588.62 328.99 595.29"/><polyline points="343.38 555.29 343.32 561.96 342.93 568.62 343.2 575.28 342.89 581.95 342.56 588.62 342.98 595.29"/><polyline class="cls-1" points="343.38 555.29 343.32 561.96 342.93 568.62 343.2 575.28 342.89 581.95 342.56 588.62 342.98 595.29"/><polyline points="356.51 555.29 356.62 561.96 357.05 568.62 356.73 575.28 357.07 581.95 357.28 588.62 356.68 595.29"/><polyline class="cls-1" points="356.51 555.29 356.62 561.96 357.05 568.62 356.73 575.28 357.07 581.95 357.28 588.62 356.68 595.29"/><polyline points="370.91 555.29 371.44 561.96 371.45 568.62 370.74 575.28 371.44 581.95 370.9 588.62 371.41 595.29"/><polyline class="cls-1" points="370.91 555.29 371.44 561.96 371.45 568.62 370.74 575.28 371.44 581.95 370.9 588.62 371.41 595.29"/><polyline points="384.98 555.29 384.87 561.96 385 568.62 384.8 575.28 384.5 581.95 384.78 588.62 385.18 595.29"/><polyline class="cls-1" points="384.98 555.29 384.87 561.96 385 568.62 384.8 575.28 384.5 581.95 384.78 588.62 385.18 595.29"/><polyline points="399.2 555.29 398.74 561.96 399.32 568.62 399.28 575.28 398.78 581.95 399.14 588.62 399.48 595.29"/><polyline class="cls-1" points="399.2 555.29 398.74 561.96 399.32 568.62 399.28 575.28 398.78 581.95 399.14 588.62 399.48 595.29"/><polyline points="412.8 555.29 412.89 561.96 412.64 568.62 412.58 575.28 413.06 581.95 413.23 588.62 412.6 595.29"/><polyline class="cls-1" points="412.8 555.29 412.89 561.96 412.64 568.62 412.58 575.28 413.06 581.95 413.23 588.62 412.6 595.29"/><polyline points="427.17 555.29 427.25 561.96 427.34 568.62 426.87 575.28 427.3 581.95 426.65 588.62 426.91 595.29"/><polyline class="cls-1" points="427.17 555.29 427.25 561.96 427.34 568.62 426.87 575.28 427.3 581.95 426.65 588.62 426.91 595.29"/><polyline points="440.81 555.29 440.92 561.96 441.46 568.62 440.83 575.28 441.11 581.95 441.1 588.62 441.46 595.29"/><polyline class="cls-1" points="440.81 555.29 440.92 561.96 441.46 568.62 440.83 575.28 441.11 581.95 441.1 588.62 441.46 595.29"/><polyline points="455.24 555.29 455.36 561.96 455.22 568.62 454.96 575.28 454.53 581.95 455.17 588.62 455.14 595.29"/><polyline class="cls-1" points="455.24 555.29 455.36 561.96 455.22 568.62 454.96 575.28 454.53 581.95 455.17 588.62 455.14 595.29"/><polyline points="468.67 555.29 469.12 561.96 468.57 568.62 469.34 575.28 469.37 581.95 469.21 588.62 468.97 595.29"/><polyline class="cls-1" points="468.67 555.29 469.12 561.96 468.57 568.62 469.34 575.28 469.37 581.95 469.21 588.62 468.97 595.29"/><polyline points="483.02 555.29 483.4 561.96 483.31 568.62 483.36 575.28 482.97 581.95 483.34 588.62 483.28 595.29"/><polyline class="cls-1" points="483.02 555.29 483.4 561.96 483.31 568.62 483.36 575.28 482.97 581.95 483.34 588.62 483.28 595.29"/><polyline points="496.61 555.29 496.76 561.96 497.44 568.62 496.63 575.28 496.66 581.95 496.64 588.62 497.02 595.29"/><polyline class="cls-1" points="496.61 555.29 496.76 561.96 497.44 568.62 496.63 575.28 496.66 581.95 496.64 588.62 497.02 595.29"/><polyline points="511.14 555.29 511.04 561.96 510.97 568.62 511.07 575.28 510.85 581.95 510.7 588.62 511.39 595.29"/><polyline class="cls-1" points="511.14 555.29 511.04 561.96 510.97 568.62 511.07 575.28 510.85 581.95 510.7 588.62 511.39 595.29"/><g class="cls-3"><polygon class="cls-4" points="308.61 413.23 311.94 406.99 314.86 400.66 317.34 394.14 319.61 387.54 321.26 380.75 323.23 374.05 323.84 366.91 321.24 360.09 316.72 354.37 310.6 350.56 303.9 348.21 303.37 347.88 295.46 351.57 288.85 357.25 283.96 353.21 278.26 350.2 272.26 348.54 271.72 348.41 264.8 349.78 260.35 355.12 259.69 362.06 261.79 368.86 266.71 374 272.22 378.62 277.85 383.09 283.71 387.28 288.95 392.21 294.16 397.17 299 402.48 304.12 407.52 308.61 413.23"/></g><g class="cls-5"><polygon class="cls-4" points="320.8 417.05 324.44 411.03 327.73 404.89 330.34 398.44 332.36 391.78 334.81 385.28 336.93 378.66 338.59 371.91 340.42 365.2 341.31 358.43 339.7 351.74 336.65 345.55 332.18 340.34 327.15 335.73 321.19 332.4 314.54 331.29 313.83 331.06 306.71 333.45 300.21 337.57 294.47 342.73 289.58 339.08 284.06 335.87 278.81 332.24 272.59 331.25 271.89 331.32 265.39 332.44 259.8 335.74 256.1 341.22 255.26 347.96 257.52 354.34 260.36 360.44 265.33 364.97 270.68 369.37 276.2 373.56 281.37 378.19 286.91 382.36 292.1 386.97 297.08 391.8 302.48 396.17 306.99 401.47 311.94 406.3 316.84 411.24 320.8 417.05"/></g><g class="cls-6"><polygon class="cls-4" points="345.02 410.42 348.83 405.11 352.24 399.05 354.39 392.41 356.97 386.01 359.46 379.56 361.81 373.05 363.87 366.44 366.02 359.85 368.15 353.26 369.85 346.54 370.56 339.07 368.56 331.9 365.88 325.01 362.12 318.57 357.4 312.71 351.44 308.07 344.6 304.91 337.23 303.69 336.34 303.46 329.58 305.78 323.41 309.38 317.6 313.65 312.33 318.56 306.26 313.71 299.65 309.25 292.65 305.46 284.95 303.32 284.06 303.65 276.77 304.68 270.15 307.87 265.95 313.8 264.23 320.75 263.93 328.1 266.23 335.16 270.25 341.41 275.49 346.63 281.54 350.78 286.74 355.98 292.59 360.35 298.14 365.11 303.8 369.72 309.91 373.81 315.18 378.89 320.48 383.92 325.94 388.78 330.77 394.28 336.12 399.29 340.31 405.31 345.02 410.42"/></g><g class="cls-7"><polygon class="cls-4" points="379.29 400.63 382.67 394.39 385.81 388.25 389.55 382.39 391.67 375.77 394.56 369.49 396.51 362.85 399.31 356.51 400.76 349.73 402.72 343.1 404.99 336.57 407.15 330 408.71 323.26 409.76 316.2 408.67 309.16 406.73 302.31 403.8 295.78 400.06 289.62 395.03 284.48 389.73 279.64 383.43 276.25 377.11 272.82 369.97 271.57 368.9 271.53 362.09 273.19 356.14 276.74 350.56 280.78 345.38 285.35 340.17 289.85 334.18 285.47 327.93 281.12 321.61 276.88 314.71 273.7 307.36 272.11 306.28 271.54 299.23 272.56 292.85 275.54 287.43 279.81 283.6 285.59 282.29 292.44 282.43 299.42 283.63 306.41 286.99 312.66 290.8 318.66 296.25 323.2 301.54 327.97 307.48 331.91 312.89 336.53 318.39 341.04 323.64 345.85 329.6 349.79 335.07 354.33 340.32 359.14 345.76 363.73 350.82 368.72 355.98 373.62 361 378.65 365.45 384.22 370.82 388.97 374.98 394.76 379.29 400.63"/></g><g class="cls-8"><polygon class="cls-4" points="421.66 391.38 425.23 384.42 429.11 378.08 432.78 371.59 435.04 364.46 437.96 357.64 440.51 350.68 442.96 343.67 445.77 336.78 447.89 329.66 450.07 322.55 452.02 315.38 453.87 308.19 456.12 301.1 456.9 294.21 456.4 287.33 455.17 280.51 452.4 274.14 449.34 267.92 445.34 262.25 441.07 256.75 436.12 251.83 430.07 248.32 424.1 244.84 417.52 242.81 410.78 240.99 409.52 241.64 402.97 242.52 397 245.51 391.47 249.26 385.94 253.06 381.18 257.8 376.04 262.09 369.96 258.3 364.5 253.28 358.47 248.96 351.77 245.76 345.05 242.78 337.85 241.21 336.62 241.66 329.25 242.44 322.29 244.87 315.93 248.6 311.7 254.63 308.97 261.45 307.95 268.85 309.63 276.13 311.6 283.29 315.04 289.89 319.74 295.65 324.91 300.98 330.63 305.61 336.51 310.04 341.9 315.08 348.06 319.16 353.61 324.01 359.15 328.86 365.19 333.11 370.33 338.44 376.28 342.81 381.34 348.19 386.89 353.01 392.19 358.11 397.51 363.19 402.54 368.56 407.91 373.62 412.75 379.17 416.81 385.36 421.66 391.38"/></g><g class="cls-9"><polygon class="cls-4" points="470.12 388.13 474.13 381.7 477.75 375.29 481.02 368.69 483.82 361.89 486.72 355.14 489.38 348.3 492.37 341.58 494.45 334.52 497.49 327.78 499.51 320.7 501.39 313.59 503.1 306.44 505.34 299.43 507.43 292.38 509.86 285.43 510.24 278.06 510.64 270.72 508.8 263.6 506.37 256.7 502.97 250.24 499.13 244.05 495.27 237.78 489.74 232.92 484.71 227.54 478.18 224.11 471.96 220.24 464.92 218.21 457.7 217.23 456.3 216.59 448.65 218.04 441.63 221.27 435.67 226.16 429.16 230.24 423.33 235.25 418.41 241.2 412.59 236.53 406.56 232.51 400.88 228.02 394.85 223.98 388.23 221.01 381.71 217.78 374.46 216.78 373.03 216.65 365.8 217.38 358.92 219.71 352.38 222.75 346.95 227.56 343.14 233.72 341 240.63 340.1 247.85 341.47 254.98 343.31 261.93 346.02 268.61 349.5 274.97 354.39 280.31 359.75 285.1 364.9 290.18 370.65 294.53 376.47 298.78 381.94 303.46 387.48 308.07 393.02 312.67 399.02 316.71 404.48 321.4 409.98 326.06 415.26 330.96 420.99 335.36 426.58 339.91 431.63 345.07 436.8 350.08 441.66 355.4 446.79 360.46 451.7 365.72 456.83 370.79 460.97 376.72 465.87 382.02 470.12 388.13"/></g><g class="cls-10"><polygon class="cls-4" points="522.71 396.65 526.52 390.44 529.75 383.89 533.82 377.81 536.87 371.17 539.49 364.36 542.28 357.63 545.53 351.08 548 344.22 550.45 337.35 552.86 330.46 555.08 323.51 556.63 316.36 559.3 309.55 561.39 302.56 562.74 295.37 564.74 288.36 566.88 281.38 567.71 274.32 568.34 267.21 567.12 260.15 565.11 253.31 562.88 246.49 559.35 240.25 555.77 234.05 551.07 228.63 546.29 223.32 541.27 218.2 535.39 214.1 529.03 210.84 522.66 207.68 515.9 205.3 508.75 205.21 507.19 204.34 499.87 205.68 493 208.44 486.81 212.49 480.67 216.58 474.91 221.21 469.79 226.56 464.29 231.45 458.63 227.5 452.93 223.24 447.49 218.64 441.63 214.57 435.33 211.2 428.78 208.43 422.16 205.97 415.21 204.84 413.6 204.3 406.6 205.22 399.88 207.24 393.25 209.52 387.28 213.31 383.15 219.01 379.18 224.84 377.79 231.76 377.59 238.74 377.72 245.73 379.62 252.48 381.59 259.22 384.57 265.61 389 271.1 393.66 276.3 398.8 281 404.26 285.51 409.34 290.49 414.86 294.92 420.86 298.77 426.12 303.52 431.38 308.29 436.92 312.7 442.53 317.03 448.41 321.04 453.38 326.13 459.13 330.3 464.3 335.16 469.8 339.63 474.96 344.49 479.77 349.7 485.37 354.1 490.47 359.01 495.2 364.3 500.04 369.47 504.95 374.58 509.2 380.27 514.34 385.21 518.51 390.95 522.71 396.65"/></g><g class="cls-11"><polygon class="cls-4" points="577.49 422.99 581.07 416.46 584.88 410.3 588.55 404.05 591.42 397.38 594.88 391.01 597.95 384.44 600.01 377.45 603.41 371 605.7 364.13 608.35 357.37 610 350.29 612.16 343.38 614.84 336.63 617.05 329.73 619.11 322.78 621.11 315.82 622.2 308.6 624.36 301.68 626.8 294.84 627.86 287.9 627.56 280.93 627.35 273.94 625.26 267.27 623.62 260.46 620.28 254.31 616.97 248.19 613.82 241.9 609.38 236.47 604.31 231.63 599.63 226.42 594.36 221.78 588.32 218.19 582.05 215.11 575.67 212.3 569.03 210 561.99 210.07 560.25 209.15 553.27 210.98 546.31 212.8 539.91 216.13 534.24 220.57 528.79 225.23 523.09 229.56 518.11 234.72 512.78 239.51 506.84 235.72 501.23 231.5 495.53 227.41 490.32 222.63 484.33 218.94 477.9 216.06 471.85 212.44 465.17 210.11 458.12 209.27 456.36 209.95 449.06 210.23 441.99 212.03 435.21 214.63 429.17 218.59 423.96 223.57 419.61 229.42 417.6 236.42 416.13 243.53 415.55 250.86 416.56 258.16 419.42 264.95 421.64 271.92 425.62 278.05 429.12 284.51 434.07 289.93 439.41 294.95 445.34 299.17 450.85 303.89 456.74 308.16 462.52 312.54 467.6 317.81 473.29 322.32 479.36 326.36 484.96 330.97 490.36 335.84 496 340.41 501.91 344.67 507.37 349.46 512.56 354.55 518.01 359.35 523.39 364.21 528.54 369.33 534.44 373.66 539.14 379.24 544.24 384.4 549.59 389.33 554.16 394.98 559.12 400.28 564.28 405.42 568.69 411.2 573.31 416.8 577.49 422.99"/></g><polygon class="cls-4" points="632.46 471.86 636.27 465.48 639.98 459.3 643.37 452.94 646.8 446.6 650.1 440.19 652.36 433.3 655.95 427.01 658.25 420.16 661.08 413.53 663.12 406.61 666.26 400.07 668.49 393.22 670.54 386.31 672.93 379.5 674.97 372.59 676.91 365.65 678.23 358.54 680.56 351.71 682.87 344.88 684.24 337.78 685.97 330.78 687.23 323.7 688.35 316.5 687.07 309.32 685.98 302.15 683.78 295.23 681.4 288.35 677.9 281.95 673.87 275.9 669.96 269.77 665.02 264.43 659.89 259.32 654.44 254.57 648.74 250.14 642.93 245.77 636.25 242.94 629.73 239.73 622.66 238.02 615.44 237.15 613.49 237.72 606.55 238.08 600.12 240.81 593.71 243.59 587.73 247.23 581.92 251.17 576.44 255.55 570.98 259.97 566.03 264.95 561.47 270.32 555.56 266.24 549.73 262.43 544.36 258.03 538.99 253.62 533.38 249.5 527.45 245.84 521.26 242.63 514.87 239.84 508.02 238.55 501.23 237.8 499.29 237.28 492.15 237.72 485.24 239.59 478.2 241.04 471.93 244.57 466.6 249.3 461.82 254.55 458.36 260.77 455.77 267.44 454.97 274.56 455.35 281.66 455.66 288.79 457.5 295.69 459.91 302.4 462.42 309.14 466.58 314.99 470.98 320.6 475.37 326.26 480.87 330.84 486.46 335.31 492.14 339.65 497.55 344.35 503.19 348.75 508.99 352.95 514.24 357.84 520.05 362.04 525.39 366.8 531.16 371.06 536.46 375.88 542.3 380.04 547.64 384.81 553.18 389.33 558.73 393.87 563.97 398.74 569.3 403.52 574.85 408.05 579.74 413.31 584.69 418.48 590.25 423.03 595.52 427.88 600.37 433.15 605.04 438.58 610.12 443.64 614.87 448.99 619.08 454.81 623.37 460.53 628.33 465.74 632.46 471.86"/><text class="cls-12" transform="matrix(0.59, -0.02, 0.62, 0.78, 580.2, 327.49)">999</text></svg>