<svg xmlns="http://www.w3.org/2000/svg" viewBox="0 0 800 800"><defs><style>.a{fill:#fca14f}.b{fill:#e83131}.c{fill:#fff}</style></defs><path d="M229 362c.61-4 1.32-8.86 2.11-13.7.44-2.69 1.06-5.34 1.48-8a3.8 3.8 0 0 0-.34-2.36c-2.66-4.51-3.18-9.53-3.45-14.56-.29-5.51-.55-11.05-.42-16.56a71.64 71.64 0 0 1 4.19-21.49c.6-1.78 1.16-3.58 1.76-5.37 1.93-5.82 5.21-11 8.2-16.25a130.85 130.85 0 0 1 7.13-11.44 43.51 43.51 0 0 1 6-6.33 3.83 3.83 0 0 0 1.53-2.53 138 138 0 0 1 3.41-19.14 11.52 11.52 0 0 1 .6-1.8c2-4.37 3.92-8.79 6.08-13.09a14.08 14.08 0 0 1 3-3.53 2.46 2.46 0 0 1 3.19-.26c1.15.7.91 1.78.7 2.82a8.67 8.67 0 0 1-.52 1.48 36.1 36.1 0 0 0-2.61 15c0 1.15-.23 2.3-.21 3.45a9.79 9.79 0 0 0 .42 2.74c.31 1 1 1.19 1.92.58 2.74-1.74 5.43-3.57 8.29-5.08a95.56 95.56 0 0 1 16.28-6.44c8.28-2.55 16.9-2.87 25.38-4.05a10.78 10.78 0 0 1 2.2 0c6.25.38 12.52.47 18.6 2.38 4.18 1.31 8.53 2.07 12.75 3.26a59.88 59.88 0 0 1 6.1 2.41c2.12.88 4.21 1.85 6.36 2.66.7.27 1.12 0 .9-1a46.12 46.12 0 0 1-1-5.81 4.29 4.29 0 0 1 .64-2.36c1.19-2.09 2.42-2.11 3.63 0a29.69 29.69 0 0 1 1.77 4.36 37.29 37.29 0 0 1 1.78 5c1.11 5.14 5 7.86 8.76 10.91a82.18 82.18 0 0 1 7.72 7.78c1.83 2 3.45 4.14 5.21 6.18 1.31 1.52 1.38 1.38 2.78 0 2.75-2.71 5.59-5.32 8.46-7.91 2.33-2.1 4.88-4 7.1-6.18a30.92 30.92 0 0 1 7.86-5.57c2.42-1.24 4.67-2.79 7.08-4.05 2.67-1.4 5.41-2.66 8.15-3.92 1.8-.83 3.63-1.6 5.47-2.34 5.69-2.27 11.81-2.65 17.68-4.09 5.14-1.26 10.35-1.46 15.57-1.8a42.45 42.45 0 0 1 15.49 2.09 11.17 11.17 0 0 0 2.13.5c6.65.58 12.78 2.87 18.75 5.7 2.17 1 4.45 1.86 6.58 3 2.31 1.22 4.49 2.67 6.74 4q5 3 10 5.91c.76.44 1.24.06 1.31-.7a33.94 33.94 0 0 0 .38-5.94 57.1 57.1 0 0 0-3.61-16.74 86.48 86.48 0 0 1-2.94-9.25c-.58-2.1 1.54-4 3.32-2.84 3.08 2.05 6.82 3 9.21 6.33 1.89 2.66 4.72 4.65 7.11 6.95a9 9 0 0 1 1.46 1.63c2.69 4.24 5.5 8.44 8 12.82a40.44 40.44 0 0 1 3.4 8.11c1.69 5.59 3.34 11.2 3.71 17.1a33.57 33.57 0 0 1-3 15.9 5.17 5.17 0 0 0-.06 4.13c.77 2.39 1.59 4.77 2.46 7.12 1.66 4.47 2.09 9.15 2.35 13.85.55 9.88-.91 19.58-2.46 29.3-1.27 7.93-4.19 15.31-6.88 22.77s-5.61 14.87-8.66 22.21c-1.48 3.54-3.45 6.89-5.25 10.3q-7.12 13.46-14.28 26.88c-1 1.84-2.08 3.63-2.88 5.55a4.84 4.84 0 0 0-.14 3c2.41 8.24 2.8 16.68 3.24 25.18a49.51 49.51 0 0 1-.77 14 34.65 34.65 0 0 1-3.32 9.41 19.32 19.32 0 0 1-10.93 8.95c-1.5.49-3 1-4.47 1.5-6.38 2.07-10.89-.71-14.22-6.16-1.79-2.94-3.23-6.15-3.17-9.77 0-1-.46-1.11-1.09-.48-2.68 2.66-5.51 5.19-7.93 8.07a162.43 162.43 0 0 1-14.12 14.74c-4.15 3.83-7.93 8.06-11.87 12.12-2.91 3-5.79 6.06-8.75 9-.89.89-1 1.24.15 2.06a29.59 29.59 0 0 0 9.34 4.23c3.19.9 6.11 2.72 9.15 4.13a16.59 16.59 0 0 0 2.57 1.2c5.05 1.32 8.44 4.87 11.55 8.71 4.28 5.3 6.67 11.53 8.6 18 1.55 5.2 3.24 10.38 5.23 15.42a28 28 0 0 0 4.17 6.57c4.19 5.37 8.59 10.55 14.4 14.29 2 1.3 4 2.69 6 4 .43.3 1 .48 1.29.89a17.25 17.25 0 0 1 1.14 2.37 10.41 10.41 0 0 1-2.22.76c-3.14.31-6-1.07-8.83-2a78.86 78.86 0 0 1-11.36-4.38 126.29 126.29 0 0 1-13.24-7.77c-3.73-2.5-7.12-5.49-10.68-8.25a13.83 13.83 0 0 0-1.86-1.17 2.56 2.56 0 0 0-.84-.17 2.84 2.84 0 0 0 0 .87c.77 2.61 1.64 5.19 2.34 7.82 2.09 7.8 4.18 15.6 6.14 23.44.91 3.64 1.58 7.35 2.24 11.06a19.89 19.89 0 0 1 0 7.8c-.42 1.91-.11 4-.21 6s-1 3.1-2.32 3.32c-1.73.28-3.11-.62-3.68-2.62-.79-2.72-1.44-5.47-2.2-8.2a38.32 38.32 0 0 0-10.84-18.11c-4.34-4.08-8.82-8-13.14-12.1a19.57 19.57 0 0 1-3.53-4.38 76.51 76.51 0 0 1-5-9.8 29.54 29.54 0 0 1-1.57-7.68 96.2 96.2 0 0 1-.73-11.86c.07-4.6.9-9.19.93-13.79 0-6.46.49-13-2-19.24-.91-2.33-1.06-2.41-2.8-.86-4.07 3.61-8.1 7.26-12.26 10.77-3.37 2.83-6.86 5.53-10.37 8.18a2.19 2.19 0 0 0-1 2.61c1.47 6.86 2.77 13.76 5 20.44.74 2.16.92 4.51 1.45 6.75a202.4 202.4 0 0 1 4.78 27.22q.76 8.13 2.09 16.2c1.21 7.43 1.28 15 2 22.43.46 4.63-.31 9.39-.68 14.09a123.23 123.23 0 0 1-2.55 18.64 5.05 5.05 0 0 0 .05 1.22 6.86 6.86 0 0 0 1.13-.4 26 26 0 0 1 15.27-3.72c6.06.49 11.75 2.12 16.5 6 3.82 3.16 6.9 6.88 8 12 1 4.52 2 9 1.55 13.69-.38 3.52-1.17 7-1.73 10.51-.85 5.2-3.66 9.5-6.16 14-1.77 3.2-3.28 6.53-5.75 9.3s-14.51 16.27-24.33 18.41a59.74 59.74 0 0 1-18.71 4.59c-2.28.12-4.55.7-6.83.75A43.79 43.79 0 0 1 401 746a51.57 51.57 0 0 1-14.7-4.34c-2.82-1.41-4.83-3.66-7.16-5.56-1.85-1.5-1.67-1.48-3.43 0-7.55 6.18-15.82 11-25.51 13a58.88 58.88 0 0 1-14.55 1.22 18.62 18.62 0 0 1-6.38-1.26c-3.64-1.56-7.05-3.66-10.64-5.36a26.74 26.74 0 0 1-8.28-6.63c-14.68-16-15.18-39.56-15.26-42.6a32.41 32.41 0 0 1 3.58-16.36c2.06-3.87 3.66-8 6.93-11.15a13.07 13.07 0 0 1 1.55-1.52c4.78-3.28 9.83-5.84 15.75-6.4 5-.47 9.77.69 14.53 1.94 2.1.56 2.2.49 3-1.36 1.54-3.75 3.19-7.46 4.75-11.2 1.2-2.89 2.35-5.8 3.51-8.7 1.24-3.11 2.55-6.19 3.65-9.35 1.8-5.12 3.44-10.31 5.15-15.46.2-.6 10.31-34.24 11.29-44.16.91-9.26 1.6-18.56 3.12-27.72.65-3.91 0-6.55-2.71-9.15-3.77-3.58-6.73-8-10.93-11.14-1.66-1.26-3-2.9-4.57-4.32a3.26 3.26 0 0 0-1.06-.45 2.83 2.83 0 0 0-.32 1.08 6.65 6.65 0 0 0 .46 2.13 25.59 25.59 0 0 1 2.51 12.15c-.21 3.64-1 7.26-3.84 10-1.49 1.46-2.87 3-4.4 4.44a5.71 5.71 0 0 1-2.19 1.16c-5.58 2.25-11.62-.7-13.25-2.46-7.21-6.85-10.38-24.07-10.63-28.08a124 124 0 0 1 .25-20.4c.33-3.33.95-6.63 1.58-9.92a3.83 3.83 0 0 0-1.23-3.62c-2.93-3.26-5.77-6.61-8.56-10-2.52-3.07-4.81-6.33-7.42-9.33-7.16-8.21-14-16.67-20.75-25.23a208.24 208.24 0 0 1-16.48-24.47c-3.73-6.42-7.88-12.63-10.67-19.57a10.18 10.18 0 0 0-1.44-2.44c-1.42-1.83-1.09-2.28-4.37-1.59-5.06 1.07-9.79.49-13.88-3.57-4.82-4.77-7.12-10.44-7.84-17-.33-2.76-.71-5.56-1.16-9.25zm248.92 227.24l.2.46.17-.33-.43-.06a5.92 5.92 0 0 0 0-1.51c-.6-2.65-1.18-5.31-1.91-7.93-1.24-4.42-2.44-8.87-3.94-13.22-1.22-3.55-2.86-6.95-4.28-10.43a36.9 36.9 0 0 0-1.64-4.38c-2.27-4-4.71-7.91-7.09-11.85-.75-1.25-1.51-2.51-2.29-3.75a3.61 3.61 0 0 0-.68-.6 3.36 3.36 0 0 0-.47.73 7.21 7.21 0 0 0-.34 1.53c-.38 3.74-.76 7.49-1.09 11.24a26.45 26.45 0 0 0 5.21 18.58 81.71 81.71 0 0 0 10.21 11.47 52 52 0 0 1 4.7 5.43c1.29 1.51 2.46 3.08 3.67 4.62zm-22.69-75h-.21.25a25.28 25.28 0 0 0 1 4.47 69 69 0 0 0 7.78 13.94c2.9 4 5.81 7.93 8.9 11.74a68.56 68.56 0 0 0 6.85 7.3c2.93 2.69 6.11 5.1 9.21 7.61.27.22.75.19 1.13.27a4.67 4.67 0 0 0-.09-1.13c-1.08-3.17-2.25-6.31-3.29-9.49-1.45-4.46-2.71-9-4.23-13.42-2.28-6.6-6.31-11.76-12.82-14.71-4.8-2.27-9.64-4.43-14.48-6.6zM388.36 254.5l-.07-.09v.07c.25 1 .44 2.06.77 3a82.65 82.65 0 0 1 4.33 17.31c.63 5.4 1.82 10.77 1.95 16.18.19 8-2.54 15.21-7 21.78a20.28 20.28 0 0 1-12.43 8.25 11.08 11.08 0 0 1-4.65.54c-5.86-1.29-11.12-3.66-13.88-9.53-.54-1.13-.81-2.37-1.27-3.54-2.42-6.13-2-12.39-.37-18.52a41 41 0 0 1 4.09-8.76c3-5.41 5.94-10.86 7.73-16.81a65.27 65.27 0 0 0 2.49-10.33c.54-4.24.24-8.58.78-12.82.35-2.71-.61-3.94-2.85-5.11-8.63-4.49-17.8-7.23-27.29-9.23a70.08 70.08 0 0 0-25.73-1 14.38 14.38 0 0 0-1.86.28c-4.89 1.47-9.9 2.39-14.76 4.13a108.44 108.44 0 0 0-22.83 10.87 2.06 2.06 0 0 0-.81 3.16c1.52 2.75 2.73 5.72 4.59 8.22 3.48 4.7 7.33 9.13 11 13.69a9.28 9.28 0 0 1 1 1.58c2.78 5.22 4.24 10.68 3 16.64-1.27 6.31-4.16 11.41-10.4 14a19.36 19.36 0 0 1-11.71.7 3.27 3.27 0 0 1-1.42-.63c-3.06-2.63-6.74-4.68-8.3-8.77-.85-2.23-2.16-4.34-2.68-6.65-1.06-4.68-1.89-9.43-2.48-14.2a92.45 92.45 0 0 1-.2-9.43 2.93 2.93 0 0 0-.29-.81c-.26.11-.63.13-.75.32-1.64 2.56-3.38 5.05-4.81 7.72a94.2 94.2 0 0 0-6.45 13.53c-1.63 4.72-3.26 9.45-4.7 14.23a41.59 41.59 0 0 0-1.88 8.56c-.42 5.32-.41 10.67-.55 16 0 .19.34.42.56.57 0 0 .36-.2.42-.36.57-1.55 1.1-3.12 1.69-4.67 1.11-2.94 2.21-5.88 3.39-8.79a3.73 3.73 0 0 1 3.88-2.06c1.44.33 2.18 1.52 2 3.41a49.2 49.2 0 0 1-.55 5.28 63.29 63.29 0 0 0-.08 21.62c.69 4.29 1.47 8.67 4.12 12.42 3.21 4.53 6.27 9.16 9.3 13.81 3.49 5.33 3.63 11.23 2.53 17.24-.45 2.48-1.07 4.89-3.42 6.45-1.08.72-1.16 1.87-.39 3 1.27 1.92 2.49 3.86 3.71 5.82 2.76 4.44 5.53 8.88 8.23 13.36 2.37 3.95 4.56 8 7 11.91 1.42 2.3 3.15 4.42 4.74 6.62 1.28 1.78 2.49 3.62 3.84 5.35 3.73 4.78 7.51 9.52 11.28 14.27l11.28 14.28c1 1.22 1.87 2.51 2.92 3.67 3.41 3.79 6.87 7.53 10.33 11.29.92 1 1.4.89 1.83-.56.81-2.7 1.52-5.44 2.3-8.15a17.22 17.22 0 0 1 1.1-3.27 3.25 3.25 0 0 1 3.4-1.84c1.4.24 1.74 1.6 1.8 3 .13 2.92.41 5.83.51 8.76.19 6 1.85 11.78 3.32 17.57a3.43 3.43 0 0 0 1.23 1.77 49 49 0 0 1 8.89 8.38c1.47 1.76 3.15 3.35 4.77 5 2.94 3 5.92 5.89 8.84 8.88 3.22 3.29 6.39 6.63 9.6 9.92a3.55 3.55 0 0 0 1.05.52 3.41 3.41 0 0 0 .4-1.13c-.15-4.7.06-9.46-.59-14.1-1-7.18-3.77-13.94-6.17-20.76a5 5 0 0 0-1.12-1.87 10.12 10.12 0 0 1-3-7.87c0-.52-.09-1-.13-1.57-.4-5.45.84-10.6 4.43-14.65 4.7-5.28 10.61-8.58 18.05-7.81 3.85.4 7.67 1.05 11.51 1.56 6.95.93 13 4.29 18.58 8.05a78.15 78.15 0 0 1 14.57 12.33c3.07 3.42 6.07 6.89 9.11 10.33a10.57 10.57 0 0 1 1 1.23c1.69 2.64 3.38 5.27 5 7.93.73 1.2 1.4 1.69 2.62.49 2.6-2.57 5.32-5 7.92-7.57 6.49-6.39 13.07-12.7 19.37-19.28 6.45-6.74 12.65-13.71 18.88-20.66a88.14 88.14 0 0 0 10.76-14.59c1.67-2.89 2.85-6.06 4.23-9.11a24.42 24.42 0 0 0 1.82-4.3c1.1-4.46 2.08-9 3-13.48a26.17 26.17 0 0 0 .34-5c0-5.12 0-10.23-.09-15.35a1.74 1.74 0 0 1 1.41-2c2.45-.77 2.77-.76 3.74 1.68 1.67 4.19 3.21 8.44 4.92 12.62a38.07 38.07 0 0 0 2.36 4.22c1.17-1.31 2.34-2.61 3.49-3.93.13-.15.1-.42.2-.6a79.56 79.56 0 0 1 4.2-7.71c3.51-5.15 5.75-10.92 8.31-16.52 2.12-4.66 3.76-9.55 5.65-14.32 1.4-3.51 3.11-6.9 4.24-10.49 3.23-10.17 6.83-20.21 8.77-30.8 2.23-12.24 2.37-24.14-2.19-35.88-.49-1.25-.72-1.43-1.87-.82a22.42 22.42 0 0 1-8.85 3c-6.31.45-14-4.69-15.17-10.88-.78-4.16-2.06-8.36-.63-12.72 1.28-3.87 2.09-7.89 3.5-11.7.5-1.34.53-2.06-.38-3-4.94-5.06-10.27-9.46-17-12.08a157 157 0 0 0-29.54-8.57 58.51 58.51 0 0 0-17.17-.44c-5.17.63-10.31 1.6-15.4 2.73-4.17.93-8.44 1.7-12 4.32a14 14 0 0 1-3.36 1.71c-4.48 1.61-8.38 4.27-12.24 6.92-3.41 2.36-6.44 5.27-9.65 7.92-4.52 3.73-9 7.5-13.6 11.14a21.17 21.17 0 0 1-4.55 2.72 4 4 0 0 1-5.09-1.15c-1.56-1.83-3.24-3.58-4.94-5.29a20 20 0 0 0-2.38-1.9zm27.86 343.81h.23c-.09-.94-.13-1.88-.28-2.8-1.53-9.18-2.91-18.4-4.7-27.53-1-5.12-2.64-10.11-4.09-15.13-.66-2.31-1.56-4.55-2.35-6.82-.43-1.25-1-1.62-2.26-.75-3.21 2.15-6.54 4.11-9.76 6.24a3.57 3.57 0 0 0-1.36 2c-.91 3.87-1.59 7.8-2.51 11.67-2.07 8.75-4.18 17.5-6.39 26.22-1.26 5-2.81 9.86-4.14 14.81-2.43 9.07-4.8 18.17-7.21 27.25-.92 3.43-1.89 6.85-2.84 10.28-1.15 4.12-2.31 8.24-3.45 12.37-.22.78-.4 1.58-.59 2.37.91.05 1.83.1 2.75.13a3.56 3.56 0 0 0 .61-.14c4.45-.93 8.89-1.21 13.21.57 1.31.54 2.5.57 3.42-.56 3.37-4.16 8.5-4.4 13.06-5.36 3.45-.73 7.27.12 10.9.49 1.26.13 1.82 0 2.36-1.23a38.07 38.07 0 0 0 2.41-9.38c.69-4.55 2.08-9 2.41-13.59.62-8.56.73-17.15 1-25.73a50.11 50.11 0 0 0-.43-5.38zm-90.91 67.07c-2.06.32-4.34.17-6.13 1-5.21 2.54-9.58 5.81-12.25 11.51-3.38 7.21-4.29 14.57-3.88 22.3.06 1 4.69 1.91 4.73 2.94.1 2.94-4 6-2.54 8.64a63.12 63.12 0 0 0 4.09 7.05 33.13 33.13 0 0 0 9.33 9.13c5.39 3.29 11.29 4.1 17.33 4.16a62.25 62.25 0 0 0 10.76-1.11c8.13-1.36 14.3-6.43 20.23-11.56 4.29-3.71 7.15-8.75 9.46-13.92a23.59 23.59 0 0 0 2.26-9.42c0-2.82-1.16-5.24-1.79-7.85-1.31-5.35-5.11-8.07-9.71-9.82-5.69-2.17-11.57-1.51-17.38-.23a8.9 8.9 0 0 0-1.95.93c-5.21 2.65-10.32 5.48-16.56 4.73-1.76-.21-3.08-.62-3.83-2.17-2-1.57-3.14-10.69-2.24-13.24a2.73 2.73 0 0 1 3.28-1.78 2.9 2.9 0 0 1 2 2.92c.05.72-.18 1.47-.09 2.19a2 2 0 0 0 .81 1.16c.12.1.73-.24.95-.51.85-1.07 1.64-2.18 2.43-3.29.52-.72.55-1.22-.46-1.66a20.42 20.42 0 0 0-8.85-2.1zm126.82 28.19c.37-3.24-.7-7.21-2.05-11.07-1.57-4.5-5.11-7.24-9.4-8.6a23.56 23.56 0 0 0-16.32 1.1 35.56 35.56 0 0 1-15.18 3.06c-5.72-.2-9.39-3.18-10.14-8.87a6.07 6.07 0 0 0-.47-1.79 5.32 5.32 0 0 1 .32-4.83c.46-1 .89-2.22 2.09-2a5 5 0 0 1 2.68 1.81 11.64 11.64 0 0 1 1.25 3.11c.61-1.12 1.24-2.23 1.81-3.36.71-1.4.52-1.76-1-2.19-4.06-1.16-8.1-.73-12.11.18a5.78 5.78 0 0 0-2.21 1.15c-2.12 1.65-2.13 2.54-.3 4.41 1.23 1.27 2.73 2.43 3.52 3.95a32.58 32.58 0 0 1 3.87 17.24c-.15 2.7-.48 5.39-.68 8.09a46.27 46.27 0 0 1-5.5 18.54c-1.39 2.58-2.72 5.2-4.07 7.81-.47.92-1.18 2-.26 2.9 2.25 2.16 4.34 4.78 7.67 5.19 4.67.57 9.38.84 14.07 1.23a3.81 3.81 0 0 0 1.25-.13c4.53-1.18 9.33-1.22 13.63-3.46 3.33-1.73 7-2.93 10.19-4.78 4.69-2.68 8.09-6.72 11.37-11a26.81 26.81 0 0 0 5.97-17.69zm-31-54.09l.5.11c1-2.14 2.12-4.24 2.94-6.45 1.53-4.11 2.79-8.29 2.48-12.8-.43-6.27-.6-12.57-1.12-18.83-.4-4.69-1-9.38-1.83-14-1.24-7.21-2.85-14.37-4-21.59a112.61 112.61 0 0 0-5.4-20.94c-1.4-3.83-3.41-7.53-4.2-11.48-1.12-5.65-4.33-10.4-5.84-15.85a13.66 13.66 0 0 0-2.94-5.52c-5.21-5.58-11.09-10.27-18.81-12-2.31-.51-2.76-.06-2.42 2.34.71 5 2 9.86 1.6 15a107.09 107.09 0 0 0-.44 13.15c.31 6.09-1.56 11.8-2.43 17.69-.75 5.17-1.78 10.29-2.58 15.46-.89 5.77-1.65 11.56-2.49 17.35a38.87 38.87 0 0 0-.86 5.9c.07 4-1.33 7.6-2.26 11.3-1.24 5-3.24 9.69-4.55 14.62a116.5 116.5 0 0 1-6.74 19.22 21.63 21.63 0 0 0-1.12 4.18c-.06.24.13.54.21.8.25-.15.61-.24.74-.47 1.28-2.25 2.66-4.46 3.74-6.81 1.87-4.09 3.6-8.24 5.31-12.41a72.87 72.87 0 0 0 3.27-8.73c2-7.69 3.88-15.43 5.72-23.17.8-3.35 1.36-6.76 2.09-10.13s1.74-6.7 2.26-10.1c1.2-7.77 2.38-15.55 3.17-23.37 1.06-10.51 1.76-21.06 2.58-31.6a4.35 4.35 0 0 0-.37-1.5c-.32-1-.74-2.34.41-2.79.87-.34 2.13.1 3.13.43.53.17 1 .8 1.31 1.31a69.64 69.64 0 0 1 5 7.54c3.77 7.48 7.35 15.05 10.87 22.65a75.67 75.67 0 0 1 4.86 11.92c2.22 8.28 4 16.68 5.8 25.07a117.34 117.34 0 0 1 2.64 21.48c.13 5.22.64 10.43.78 15.66.16 5.65.21 11.31 0 17-.08 3.41-.64 6.88-1 10.36zm-43.6-395.67a36 36 0 0 1 0 5c-.51 3.72-1.18 7.43-1.89 11.12a95.39 95.39 0 0 1-6.37 20.62c-2.64 6-5.63 11.85-5.76 18.76A11.89 11.89 0 0 0 368 309.4c2.25 1.85 8.32 2 10.37 0a29.22 29.22 0 0 0 5.38-6.82c3.2-5.91 2.95-12.53 2.9-19 0-3.23-.68-6.45-1-9.68-.92-10.54-4.12-20.45-8.12-30.09zm169-11.9c-.53 3.62-.9 7.27-1.65 10.84-.84 4-2.14 7.86-3 11.83-1.1 4.82-1.93 9.68.51 14.41 1.42 2.75 5.12 5.74 8.44 4.48a39.49 39.49 0 0 0 6.35-3.38 6.35 6.35 0 0 0 2.84-4.32 47.21 47.21 0 0 0-.36-21.48c-2.35-9.86-7.12-18.65-13-26.82a16.54 16.54 0 0 0-2.17-2.09 12.84 12.84 0 0 0 .28 2.93 35.21 35.21 0 0 1 1.77 13.6zM413.35 486.64c-1.2.63-2.3 1.11-3.3 1.75-2.54 1.63-3.16 4.37-3.7 7-.68 3.38-1.14 6.84.37 10.15q3.58 7.81 7.3 15.56c1 2 1 2 2.69.71 4-3.18 8-6.34 12-9.62 3.37-2.81 6.63-5.75 9.89-8.7a1.75 1.75 0 0 0 .4-1.49 25.21 25.21 0 0 0-3.3-4.52 34.66 34.66 0 0 0-13.29-8c-2.95-1.06-5.96-1.88-9.06-2.84zM262.19 247.87c.42 5.24.77 10.77 1.35 16.27.36 3.41 1.14 6.78 1.6 10.19a28.72 28.72 0 0 0 3.72 10.94c1.63 2.73 3.62 5.11 6.87 6.1s8.86-.87 10.18-3.84a14.19 14.19 0 0 0 .16-11.62 47.21 47.21 0 0 0-7.14-11c-3.28-3.93-6.33-8-8.18-12.88-1.94-5.08-3.79-10.19-3.91-15.75A21 21 0 0 0 266 232c-.06-.22-.39-.37-.59-.56a2.47 2.47 0 0 0-.51.68 15.79 15.79 0 0 0-.67 2.42c-.71 4.31-1.34 8.64-2.04 13.33zm264.19 194.06c-.4-5.1-.74-10.2-1.24-15.29a94.13 94.13 0 0 0-3.81-17.46c-.26-.9-.48-1.81-.77-2.71 0-.13-.32-.25-.49-.25s-.29.21-.31.35c-.55 3.72-.87 7.49-1.66 11.16a121.63 121.63 0 0 1-3.84 14.49c-1.24 3.53-3.28 6.78-5.07 10.1a25.06 25.06 0 0 0-3 14.86 9.84 9.84 0 0 0 3.34 6.9c3.81 2.94 9.71 1.39 11.76-1.94a35.12 35.12 0 0 0 2.6-5.34c1.96-4.8 1.94-9.8 2.49-14.87zM256.83 370.5c.18-2.92-1.29-6.37-3.14-9.7-1.62-2.93-3.61-5.71-4.79-8.81-2.65-7-5.8-13.9-7-21.41a1.62 1.62 0 0 0-.23-.5c-.22.19-.52.34-.64.58a3.41 3.41 0 0 0-.16.92c-1.23 6.48-3 12.84-3.34 19.49-.37 6.34-1.5 12.65 0 19a1.08 1.08 0 0 1 0 .31 17.51 17.51 0 0 0 4.2 10.3 7.94 7.94 0 0 0 8.78 2.12c4.35-1.93 6.55-5.87 6.32-12.3zm70.46 133.56c.29 4.29.39 7.32.72 10.33s.81 6.22 1.42 9.29c1 4.85 3.56 8.9 6.64 12.66a5.85 5.85 0 0 0 8.58.61c2.92-2.56 3.42-5.81 2.53-9.2-1.47-5.55-3.2-11-5.07-16.47a51 51 0 0 0-3.5-7c-2-3.78-4.15-7.5-6.13-11.3-1-1.86-1.65-3.86-2.5-5.78a2.84 2.84 0 0 0-.58-.68 2.22 2.22 0 0 0-.35.66c-.64 6.02-1.26 12.06-1.76 16.88zm56.81-43c-6.23 0-9.71 4.1-13.11 8.22a5.61 5.61 0 0 0-1 3.22c-.1 2.83 1.48 5.18 2.59 7.65.19.41.76.69 1.21.93a2.13 2.13 0 0 0 .88 0 3 3 0 0 0 0-.85 18.51 18.51 0 0 1-.89-2.63c-.61-4.13 2.83-10 6.72-11.48a6 6 0 0 1 1.51-.36c4.06-.43 8.1-.94 12.16.2 3.69 1 7.42 1.93 11.15 2.85 1 .25 2.11.35 3.17.52a27.81 27.81 0 0 0-2.39-1.68c-2.93-1.67-5.73-3.63-9.15-4.24-.72-.13-1.41-.42-2.13-.54-3.56-.57-7.14-1.17-10.72-1.78zm10.36 70.3c-.21 2.38-.42 4.77-.61 7.15a5.47 5.47 0 0 0 .08.9 4.24 4.24 0 0 0 1.11-.35c1.58-1 3.09-2.13 4.7-3.07 1-.58 1.34-1.22.85-2.28-1.53-3.3-3-6.61-4.58-9.9-.11-.26-.42-.42-.64-.63a3.9 3.9 0 0 0-.41 1c-.2 2.43-.34 4.82-.5 7.21zm-11.4-420.92c-.46-5.48-1.38-10.09-3.76-14.27a14.22 14.22 0 0 0-6.84-5.82 4.68 4.68 0 0 1-2.16-1.64c-1.51-2.73-.12-5 3-5.27 4.74-.4 9.25-1.51 13.17-4.41 1.07-.79 2.34-1.32 3.46-2.06 4.67-3 6.54-8 8.45-12.85a20.78 20.78 0 0 0 1.78-7.9 16.82 16.82 0 0 1 .71-4.32 2.77 2.77 0 0 1 3-2.25A3.17 3.17 0 0 1 407 52c.56 2.13.93 4.31 1.55 6.42a23.63 23.63 0 0 0 6 10.15 25.41 25.41 0 0 0 3.39 3.26c6.31 4.32 13.12 7.33 20.94 7.39a2.54 2.54 0 0 1 2.61 1.78 2.65 2.65 0 0 1-.5 3.17l-6 6a8.53 8.53 0 0 0-1.55 2c-5.52 10.65-6.8 21.7-2.67 33.08.95 2.62 2.68 5 4.16 7.37 1.34 2.18 2.51 4.4 2 7-.73 3.37-3.94 4.65-7 3-3.95-2.08-7.8-4.49-12-6-6.81-2.4-13.85-4.13-21.23-2.65-2.66.53-5.49.51-8 1.38-4.07 1.41-8.55 2.16-11.38 6.09a3.36 3.36 0 0 1-4.76.77c-1.52-1.25-1.53-3.5-.28-5.36 3.52-5.3 7.53-10.38 9.18-16.66a93.27 93.27 0 0 0 1.6-9.75zm5.5-1.44a3.91 3.91 0 0 0 .7-.47 48.48 48.48 0 0 1 3.72-5c3.32-3.47 6.51-7.18 10.33-10 4.17-3.08 8.95-5.33 13.54-7.81A64.9 64.9 0 0 1 423.2 83c.83-.33.64-.59.06-1-2.64-1.68-5.42-3.18-7.89-5.08-3.91-3-7.54-6.35-9.83-10.87a1.59 1.59 0 0 0-.93-.58c-.07 0-.36.43-.47.7a48.22 48.22 0 0 1-2.47 5.83c-1.83 3.12-3.31 6.6-6.68 8.53-2.43 1.39-4.29 3.64-7.13 4.43a51.12 51.12 0 0 0-5.47 2.19c-1.86.75-1.81 1.19-.68 2.83a37.94 37.94 0 0 1 4.72 8.02c1.14 3.09 1.37 6.52 2 9.8.05.37.08.73.13 1.2zm104.36 33.86c7.38.48 12.85 1 18.29 2.45a92.31 92.31 0 0 1 14 5.35 120 120 0 0 1 16.63 8.79 40.8 40.8 0 0 1 11.67 10.8c2.55 3.67 5.63 6.95 8.27 10.56 1.65 2.25 3.39 4.6 3.45 7.6a9.56 9.56 0 0 1-.37 3.39c-1 2.65-3.49 3.09-5.42 1-1.12-1.23-2-2.7-3.07-4-4.77-5.71-9.74-11.24-15.69-15.75-6.51-4.92-12.75-10.28-20.21-13.73a59.52 59.52 0 0 0-11.55-3.91A83.64 83.64 0 0 0 483 153.2a132.38 132.38 0 0 0-18.53 3.17 170.93 170.93 0 0 0-19.85 5.82c-5.27 1.94-10.19 4.84-15.27 7.29a22.54 22.54 0 0 1-4.52 2c-1.58.36-2.16-.4-2.47-2.05-.35-1.85-.2-3.36 1.7-4.39 3.38-1.86 6.62-4 10-5.76 3.87-2.05 7.8-4 11.82-5.77 4.4-1.92 8.93-3.55 13.42-5.29 6.38-2.48 13.11-3.25 19.85-4 5.21-.54 10.4-1.03 13.77-1.36zm-168.21 8.54a49.45 49.45 0 0 0-18 3c-7.12 2.73-14.68 4.52-21.1 8.82-4.06 2.72-8.39 5.07-11.81 8.75-2.33 2.5-5.34 4.36-7.76 6.8-2.87 2.89-5.49 6-8.12 9.16-2.22 2.64-4.2 5.49-6.51 8a6.59 6.59 0 0 1-3.48 1.79 2.85 2.85 0 0 1-3.31-3.86c1.5-4.32 3-8.59 6.06-12.23a152.2 152.2 0 0 1 12.56-13.58c2.06-1.9 3.91-4.07 6.13-5.76 3.23-2.47 6.71-4.62 10.09-6.89 2.24-1.51 4.43-3.09 6.76-4.46 6.2-3.64 12.44-7.37 19.69-8.46 8.82-1.32 17.65-1.74 26.52.12a200.55 200.55 0 0 1 23.2 6.69c4 1.36 7.65 3.72 11.48 5.57 3.48 1.68 7.1 3.11 10.47 5a82.68 82.68 0 0 1 7.78 5.3 2.25 2.25 0 0 1 .8 3.07 2 2 0 0 1-2.91.91c-1.58-.79-3.23-1.42-4.84-2.14-6-2.66-12.06-5.25-18-8-7.11-3.29-14.68-4.94-22.28-6.35-4.4-.81-8.94-.86-13.42-1.25z"/><path d="M325.87 202.84a82.41 82.41 0 0 1-1.43 8.62 7.77 7.77 0 0 1-2.64 3.33 2.57 2.57 0 0 1-2.3.06c-.44-.21-.74-1.25-.67-1.87.19-1.66.75-3.29.91-4.95.26-2.8.35-5.63.47-8.45.07-1.52-.52-2-2.23-2.17-6.46-.47-12.91-1.2-19.34-1.95-1.19-.14-1.21.39-1.24 1.17-.11 2.51 0 5.05-.37 7.53a40.62 40.62 0 0 1-1.7 7 2.57 2.57 0 0 1-3.3 1.67 2.6 2.6 0 0 1-1.76-3 21.69 21.69 0 0 1 1-4.28c1.25-3.56 1.11-7.23 1.11-10.9a2.86 2.86 0 0 0-1.62-2.83c-2-1-4.1-2-6.12-3.1a7.12 7.12 0 0 1-2-1.43c-.91-1-1.68-2.12-2.49-3.21s-1.36-2.23-.31-3.41c.91-1 2.07-.82 3.19-.32a111 111 0 0 0 10.6 4.65 46.51 46.51 0 0 0 11.26 2.43c5.85.39 11.74.19 17.61 0a37.94 37.94 0 0 0 7.14-1.15c7.33-1.71 14.88-2.72 21.61-6.41 2.27-1.24 4.44-2.66 6.6-4.09 1-.66 2-.94 2.86-.13a4 4 0 0 1 .89 2.44c.11 2.22-1.53 3.29-3.18 4.27-2.16 1.29-4.35 2.51-6.5 3.81-1.36.83-1.83 1.75-1.35 3.61 1.09 4.23 2.29 8.53 1.72 13a12.5 12.5 0 0 1-1.31 4.15 2.9 2.9 0 0 1-2.17 1.34 2.41 2.41 0 0 1-2.3-2.22 10.8 10.8 0 0 1 .14-2.19 38.1 38.1 0 0 0-.88-11.56c-.25-1.16-.73-1.25-1.73-.75a49.58 49.58 0 0 1-17.36 5c-1.28.13-1.53.62-1.41 1.81a43 43 0 0 1 0 4.4zM467.06 195c.05 4.34-.66 8.62-3.23 12.43-1.05 1.57-2.11 2-3.36 1.4-1.42-.72-1.85-2-1.27-3.72s1.11-3.39 1.68-5.07c1.17-3.45.29-6.87-.18-10.28a1.89 1.89 0 0 0-.87-1.19c-2.25-1.32-4.59-2.5-6.82-3.85a9.21 9.21 0 0 1-3.08-2.56 4 4 0 0 1-.11-3.18c.49-1.17 1.61-.38 2.47-.07 2.66 1 5.26 2.09 8 2.78 4.26 1.09 8.56 2.07 12.89 2.75 10.09 1.57 20.09-.31 30.11-1.07a17.79 17.79 0 0 0 5.67-1.81c3.68-1.66 7.93-2.14 11-5.12a1.14 1.14 0 0 1 .57-.25c1.16-.24 2.35-1.29 3.47 0 .75.86.49 2.92-.66 4a29.65 29.65 0 0 1-3 2.24c-1.93 1.44-3.88 2.86-5.74 4.38a1.92 1.92 0 0 0-.46 1.55c.28 1.33.79 2.61 1.13 3.92 1.25 4.81 0 9.36-1.47 13.87a3.5 3.5 0 0 1-3.95 2.23c-1.18-.45-1.73-1.73-1.09-3.48a20.77 20.77 0 0 0 1.47-8 49.36 49.36 0 0 0-.71-5.91c-.18-1.1-.83-1.55-2-1.22-4.34 1.17-8.7 2.26-13.05 3.4-2.42.63-2.37.64-2 3.33a27 27 0 0 1-1.47 13.92 7.24 7.24 0 0 1-1.08 1.89 2.5 2.5 0 0 1-3.14.68 2.33 2.33 0 0 1-1.33-2.6 5.45 5.45 0 0 1 .37-1.52c1.59-4.37 1.37-8.84.87-13.35-.14-1.23-.72-1.46-1.85-1.55q-6.1-.47-12.18-1.19a32.71 32.71 0 0 1-3.92-1.1c-1.76-.44-2-.22-1.84 1.59.01.52.1 1.04.16 1.73z"/><path class="a" d="M388.36 254.5a20 20 0 0 1 2.42 1.84c1.7 1.71 3.38 3.46 4.94 5.29a4 4 0 0 0 5.09 1.15 21.17 21.17 0 0 0 4.55-2.72c4.59-3.64 9.08-7.41 13.6-11.14 3.21-2.65 6.24-5.56 9.65-7.92 3.86-2.65 7.76-5.31 12.24-6.92a14 14 0 0 0 3.36-1.71c3.6-2.62 7.87-3.39 12-4.32 5.09-1.13 10.23-2.1 15.4-2.73a58.51 58.51 0 0 1 17.17.44 157 157 0 0 1 29.54 8.57c6.74 2.62 12.07 7 17 12.08.91.93.88 1.65.38 3-1.41 3.81-2.22 7.83-3.5 11.7-1.43 4.36-.15 8.56.63 12.72 1.17 6.19 8.86 11.33 15.17 10.88a22.42 22.42 0 0 0 8.85-3c1.15-.61 1.38-.43 1.87.82 4.56 11.74 4.42 23.64 2.19 35.88-1.94 10.59-5.54 20.63-8.77 30.8-1.13 3.59-2.84 7-4.24 10.49-1.89 4.77-3.53 9.66-5.65 14.32-2.56 5.6-4.8 11.37-8.31 16.52a79.56 79.56 0 0 0-4.2 7.71c-.1.18-.07.45-.2.6-1.15 1.32-2.32 2.62-3.49 3.93a38.07 38.07 0 0 1-2.36-4.22c-1.71-4.18-3.25-8.43-4.92-12.62-1-2.44-1.29-2.45-3.74-1.68a1.74 1.74 0 0 0-1.41 2c.07 5.12.11 10.23.09 15.35a26.17 26.17 0 0 1-.34 5c-.89 4.52-1.87 9-3 13.48a24.42 24.42 0 0 1-1.82 4.3c-1.38 3.05-2.56 6.22-4.23 9.11a88.14 88.14 0 0 1-10.76 14.59c-6.23 6.95-12.43 13.92-18.88 20.66-6.3 6.58-12.88 12.89-19.37 19.28-2.6 2.56-5.32 5-7.92 7.57-1.22 1.2-1.89.71-2.62-.49-1.65-2.66-3.34-5.29-5-7.93a10.57 10.57 0 0 0-1-1.23c-3-3.44-6-6.91-9.11-10.33a78.15 78.15 0 0 0-14.57-12.33c-5.54-3.76-11.63-7.12-18.58-8.05-3.84-.51-7.66-1.16-11.51-1.56-7.44-.77-13.35 2.53-18.05 7.81-3.59 4.05-4.83 9.2-4.43 14.65 0 .52.14 1.05.13 1.57a10.12 10.12 0 0 0 3 7.87 5 5 0 0 1 1.12 1.87c2.4 6.82 5.16 13.58 6.17 20.76.65 4.64.44 9.4.59 14.1a3.41 3.41 0 0 1-.4 1.13 3.55 3.55 0 0 1-1.05-.52c-3.21-3.29-6.38-6.63-9.6-9.92-2.92-3-5.9-5.91-8.84-8.88-1.62-1.63-3.3-3.22-4.77-5a49 49 0 0 0-8.89-8.38 3.43 3.43 0 0 1-1.23-1.77c-1.47-5.79-3.13-11.54-3.32-17.57-.1-2.93-.38-5.84-.51-8.76-.06-1.37-.4-2.73-1.8-3a3.25 3.25 0 0 0-3.4 1.84 17.22 17.22 0 0 0-1.1 3.27c-.78 2.71-1.49 5.45-2.3 8.15-.43 1.45-.91 1.56-1.83.56-3.46-3.76-6.92-7.5-10.33-11.29-1-1.16-1.95-2.45-2.92-3.67L300 444.34c-3.77-4.75-7.55-9.49-11.28-14.27-1.35-1.73-2.56-3.57-3.84-5.35-1.59-2.2-3.32-4.32-4.74-6.62-2.43-3.91-4.62-8-7-11.91-2.7-4.48-5.47-8.92-8.23-13.36-1.22-2-2.44-3.9-3.71-5.82-.77-1.17-.69-2.32.39-3 2.35-1.56 3-4 3.42-6.45 1.1-6 1-11.91-2.53-17.24-3-4.65-6.09-9.28-9.3-13.81-2.65-3.75-3.43-8.13-4.12-12.42a63.29 63.29 0 0 1 .08-21.62 49.2 49.2 0 0 0 .55-5.28c.15-1.89-.59-3.08-2-3.41a3.73 3.73 0 0 0-3.88 2.06c-1.18 2.91-2.28 5.85-3.39 8.79-.59 1.55-1.12 3.12-1.69 4.67-.06.16-.38.39-.42.36-.22-.15-.56-.38-.56-.57.14-5.34.13-10.69.55-16a41.59 41.59 0 0 1 1.88-8.56c1.44-4.78 3.07-9.51 4.7-14.23a94.2 94.2 0 0 1 6.45-13.53c1.43-2.67 3.17-5.16 4.81-7.72.12-.19.49-.21.75-.32a2.93 2.93 0 0 1 .29.81 92.45 92.45 0 0 0 .2 9.43c.59 4.77 1.42 9.52 2.48 14.2.52 2.31 1.83 4.42 2.68 6.65 1.56 4.09 5.24 6.14 8.3 8.77a3.27 3.27 0 0 0 1.42.63 19.36 19.36 0 0 0 11.71-.7c6.24-2.6 9.13-7.7 10.4-14 1.2-6-.26-11.42-3-16.64a9.28 9.28 0 0 0-1-1.58c-3.68-4.56-7.53-9-11-13.69-1.86-2.5-3.07-5.47-4.59-8.22a2.06 2.06 0 0 1 .81-3.16 108.44 108.44 0 0 1 22.83-10.87c4.86-1.74 9.87-2.66 14.76-4.13a14.38 14.38 0 0 1 1.86-.28 70.08 70.08 0 0 1 25.73 1c9.49 2 18.66 4.74 27.29 9.23 2.24 1.17 3.2 2.4 2.85 5.11-.54 4.24-.24 8.58-.78 12.82a65.27 65.27 0 0 1-2.49 10.33c-1.79 5.95-4.73 11.4-7.73 16.81a41 41 0 0 0-4.09 8.76c-1.67 6.13-2.05 12.39.37 18.52.46 1.17.73 2.41 1.27 3.54 2.76 5.87 8 8.24 13.88 9.53a11.08 11.08 0 0 0 4.65-.54 20.28 20.28 0 0 0 12.45-8.24c4.49-6.57 7.22-13.83 7-21.78-.13-5.41-1.32-10.78-1.95-16.18a82.65 82.65 0 0 0-4.33-17.31c-.33-1-.52-2-.77-3zm136.24 62.18h-.11c0-1.36.08-2.73 0-4.09a72 72 0 0 0-.89-9.65c-.92-4.36-2.4-8.61-3.56-12.93a68.09 68.09 0 0 0-4.8-13.79c-2.29-4.46-4.37-9-6.6-13.52a2.8 2.8 0 0 0-3.71-1.42c-1.5.58-2.05 1.8-1.74 3.58.25 1.43.47 2.87.58 4.31.2 2.71.34 5.43.45 8.14a44.63 44.63 0 0 1-2.22 17.34 124.06 124.06 0 0 1-5.26 12.07c-3 6.2-6.35 12.28-9.43 18.47s-4 12.72-2 19.48c.4 1.29 1 2.51 1.52 3.78 3.52 8.94 11.11 11.3 19.4 8.78a28.45 28.45 0 0 0 8.91-5.13 21.08 21.08 0 0 0 5.94-6.8 41.93 41.93 0 0 0 3.94-17.64c.11-3.66-.26-7.32-.42-10.98zM313.09 351c0 .73.09 1.46.1 2.2a95.67 95.67 0 0 0 1 10.27c.57 4.33 1.43 8.41 3.9 12.07 2.34 3.45 4.43 7.07 8.84 8.43s8.93 2.28 13.37 0a28.39 28.39 0 0 0 4.82-3c3.34-2.6 5.64-5.94 6-10.27a44.81 44.81 0 0 0-1.88-16.7 89.71 89.71 0 0 0-5.49-13c-1.83-3.85-4.3-7.43-5.91-11.36-2.06-5-3.53-10.3-5.26-15.46a67.31 67.31 0 0 1-3.48-19.69 7.06 7.06 0 0 0-.48-2.77c-.37-.75-1.15-1.7-1.84-1.79a3.67 3.67 0 0 0-2.4 1.17 3.07 3.07 0 0 0-.85 2c-.19 3.4-1.58 6.47-2.39 9.7-1.89 7.5-3.75 15-5 22.65-1.45 8.48-3.42 16.9-3.05 25.55zm168.66 55.8c-.31-4.41-.54-8.69-.94-13-.13-1.43-.82-2.81-1-4.25-.51-4-.54-8.15-1.39-12.1-1.32-6.13-3-12.18-4.82-18.2-1-3.2-2.36-6.27-3.62-9.37-.49-1.21-2.47-2.08-3.94-1.83s-1.88 1.42-1.87 2.8c0 1.79-.05 3.57-.12 5.35-.37 9.52-.63 19.07-4.25 28.11-.58 1.45-1.23 2.87-1.83 4.32-2 4.71-3.81 9.51-6 14.11s-4.31 9.19-5.32 14.32a18.87 18.87 0 0 0 2.45 13.5c2.53 4.52 6.12 7.21 11.46 7.55 4.75.3 8.82-.74 12.12-4.36a31 31 0 0 0 6.2-11.09 60.87 60.87 0 0 0 2.87-15.83zm-167.7 42.8c4.4-.72 8.41-1.15 11.68-3.67 5.26-4 7.12-9.6 6.68-16-.29-4.29-2-8.17-4-11.82s-5.39-6.32-8.47-9.15c-6.24-5.75-12.53-11.45-18.46-17.51a33.13 33.13 0 0 1-8.83-17 40.51 40.51 0 0 0-1.45-5.14c-.5-1.46-1.38-1.72-2.64-.72a3.39 3.39 0 0 0-1.23 2c-.34 3.22-.35 6.48-.77 9.69-1 7.47.08 14.83 1 22.19a59.37 59.37 0 0 0 2 8.22c.66 2.39 1.46 4.74 2.17 7.12a43.08 43.08 0 0 0 1.69 5.7c2.73 6 5.37 12 8.91 17.62a17.39 17.39 0 0 0 8.29 7.31c1.25.45 2.52.86 3.43 1.19zm117.1-167.12c-.13 6.15 1.52 13 3.89 19.57 1.41 3.94 3.4 7.51 7.11 10.06 4.4 3 9.3 3.55 14.11 3 5.42-.66 8.95-4.55 11.53-9.29a28.91 28.91 0 0 0 3.21-15.17 14.82 14.82 0 0 0-1.2-4.49 18.51 18.51 0 0 0-1.72-3.34c-1.86-3-3.35-6.41-5.77-8.9a54.51 54.51 0 0 1-12.22-18.4c-1.86-4.83-4.41-9.5-3.71-15a7.54 7.54 0 0 0-.92-3.61c-.76-1.77-2.29-1.92-3.34-.36a18.3 18.3 0 0 0-2.29 4.11c-2 6-4 11.9-5.7 17.94a82.18 82.18 0 0 0-2.98 23.91zm-26.78 134.11c-.55-3.87-.73-6.93-1.46-9.86-1.41-5.67-2.49-11.56-4.9-16.82-2.24-4.87-4.36-9.94-8.16-14.12s-6.92-9.18-10.45-13.72a6 6 0 0 0-2.81-1.74 2.43 2.43 0 0 0-2.95 1.25 3.16 3.16 0 0 0 .28 2.58 7.22 7.22 0 0 1 1.16 4.15 3.15 3.15 0 0 0 .39 1.48c3 5.86 3.35 12.26 3.87 18.61.43 5.3-.91 10.42-2.72 15.27-2 5.29-3.75 10.63-5.45 16a25.16 25.16 0 0 0 0 14.51c1.76 6.5 10.45 11.22 16.44 10.27 6.79-1.08 10.65-5.3 14.37-10.17a4.29 4.29 0 0 0 .78-2c.62-5.52 1.15-11.01 1.61-15.69zm16.11-101.46h.1c0-1.88-.13-3.77.05-5.63a2.85 2.85 0 0 0-5.15-1.86 12.74 12.74 0 0 0-1.85 3.26c-1.73 5.17-3.62 10.3-4.92 15.58a258.78 258.78 0 0 0-5.33 27.67c-.83 6.19.07 12.11 1.44 18.05a6 6 0 0 0 1 2.26 21.51 21.51 0 0 0 6.53 6.21c2.92 1.6 5.88 2.77 9.28 1.72a12.86 12.86 0 0 1 3-.79c5.2-.29 11.37-8.6 12.17-13.6.61-3.8 0-7.48-.45-11.22a16.75 16.75 0 0 0-2.79-7.55q-4.62-6.92-8.7-14.16c-1.1-1.95-1.53-4.28-2.22-6.45a36.43 36.43 0 0 1-1.64-5.69c-.38-2.56-.37-5.19-.52-7.8z"/><path class="b" d="M325.31 665.38a20.42 20.42 0 0 1 8.83 2.08c1 .44 1 .94.46 1.66-.79 1.11-1.58 2.22-2.43 3.29-.22.27-.83.61-.95.51a2 2 0 0 1-.81-1.16c-.09-.72.14-1.47.09-2.19a2.9 2.9 0 0 0-2-2.92 2.73 2.73 0 0 0-3.28 1.78c-.9 2.55 1.37 11.48 2.24 13.24.75 1.55 2.07 2 3.83 2.17 6.24.75 11.35-2.08 16.56-4.73a8.9 8.9 0 0 1 1.95-.93c5.81-1.28 11.69-1.94 17.38.23 4.6 1.75 8.4 4.47 9.71 9.82.63 2.61 1.83 5 1.79 7.85a23.59 23.59 0 0 1-2.26 9.42c-2.31 5.17-5.17 10.21-9.46 13.92-5.93 5.13-12.1 10.2-20.23 11.56a62.25 62.25 0 0 1-10.73 1.17c-6-.06-11.94-.87-17.33-4.16a33.13 33.13 0 0 1-9.33-9.13 63.12 63.12 0 0 1-4.09-7.05c-1.46-2.64-2.13-10.55-2.19-11.58-.41-7.73.5-15.09 3.88-22.3 2.67-5.7 7-9 12.25-11.51 1.81-.87 4.06-.72 6.12-1.04zm126.82 28.19a26.81 26.81 0 0 1-6 17.66c-3.28 4.32-6.68 8.36-11.37 11-3.24 1.85-6.86 3.05-10.19 4.78-4.3 2.24-9.1 2.28-13.63 3.46a3.81 3.81 0 0 1-1.25.13c-4.69-.39-9.4-.66-14.07-1.23-3.33-.41-5.42-3-7.67-5.19-.92-.89-.21-2 .26-2.9 1.35-2.61 2.68-5.23 4.07-7.81A46.27 46.27 0 0 0 397.8 695c.2-2.7.53-5.39.68-8.09a32.58 32.58 0 0 0-3.87-17.24c-.79-1.52-2.29-2.68-3.52-3.95-1.83-1.87-1.82-2.76.3-4.41a5.78 5.78 0 0 1 2.21-1.15c4-.91 8-1.34 12.11-.18 1.53.43 1.72.79 1 2.19-.57 1.13-1.2 2.24-1.81 3.36a11.64 11.64 0 0 0-1.25-3.11 5 5 0 0 0-2.68-1.81c-1.2-.24-1.63 1-2.09 2a5.32 5.32 0 0 0-.32 4.83 6.07 6.07 0 0 1 .47 1.79c.75 5.69 4.42 8.67 10.14 8.87a35.56 35.56 0 0 0 15.19-3.1 23.56 23.56 0 0 1 16.32-1.09c4.29 1.36 7.83 4.1 9.4 8.6 1.35 3.85 2.42 7.82 2.05 11.06z"/><path class="c" d="M421.14 639.48c.36-3.48.92-7 1-10.43.16-5.65.11-11.31 0-17-.14-5.23-.65-10.44-.78-15.66a117.34 117.34 0 0 0-2.68-21.39c-1.79-8.39-3.58-16.79-5.8-25.07A75.67 75.67 0 0 0 408 538c-3.52-7.6-7.1-15.17-10.87-22.65a69.64 69.64 0 0 0-5-7.54c-.35-.51-.78-1.14-1.31-1.31-1-.33-2.26-.77-3.13-.43-1.15.45-.73 1.76-.41 2.79a4.35 4.35 0 0 1 .37 1.5c-.82 10.54-1.52 21.09-2.58 31.6-.79 7.82-2 15.6-3.17 23.37-.52 3.4-1.53 6.73-2.26 10.1s-1.29 6.78-2.09 10.13c-1.84 7.74-3.68 15.48-5.72 23.17a72.87 72.87 0 0 1-3.27 8.73c-1.71 4.17-3.44 8.32-5.31 12.41-1.08 2.35-2.46 4.56-3.74 6.81-.13.23-.49.32-.74.47-.08-.26-.27-.56-.21-.8a21.63 21.63 0 0 1 1.12-4.18s4-12.63 5.74-19.22c1.31-4.93 3.31-9.67 4.55-14.62.93-3.7 3.84-15.23 4.12-17.2.84-5.79 1.6-11.58 2.49-17.35.8-5.17 1.83-10.29 2.58-15.46.87-5.89 2.74-11.6 2.43-17.69a107.09 107.09 0 0 1 .44-13.15c.37-5.1-.89-10-1.6-15-.34-2.4.11-2.85 2.42-2.34 7.72 1.7 13.6 6.39 18.81 12a13.66 13.66 0 0 1 2.94 5.52c1.51 5.45 4.72 10.2 5.84 15.85.79 3.95 2.8 7.65 4.2 11.48a112.61 112.61 0 0 1 5.4 20.94c1.18 7.22 2.79 14.38 4 21.59.8 4.64 1.43 9.33 1.83 14 .52 6.26.69 12.56 1.12 18.83.31 4.51-.95 8.69-2.48 12.8-.82 2.21-1.95 4.31-2.94 6.45zm-43.61-395.67c4 9.64 7.2 19.55 8.18 30.05.3 3.23 1 6.45 1 9.68.05 6.47.3 13.09-2.9 19a29.22 29.22 0 0 1-5.38 6.82c-2.05 2-8.12 1.89-10.37 0a11.89 11.89 0 0 1-4.57-10.11c.13-6.91 3.12-12.76 5.76-18.76a95.39 95.39 0 0 0 6.37-20.62c.71-3.69 1.38-7.4 1.89-11.12a36 36 0 0 0 .02-4.94zm169.01-11.9a35.21 35.21 0 0 0-1.84-13.6 12.84 12.84 0 0 1-.28-2.93 16.54 16.54 0 0 1 2.17 2.09c5.92 8.17 10.69 17 13 26.82a47.21 47.21 0 0 1 .36 21.48 6.35 6.35 0 0 1-2.84 4.32 39.49 39.49 0 0 1-6.35 3.38c-3.32 1.26-7-1.73-8.44-4.48-2.44-4.73-1.61-9.59-.51-14.41.9-4 2.2-7.85 3-11.83.83-3.57 1.19-7.22 1.73-10.84z"/><path class="a" d="M413.35 486.64c3.1 1 6.11 1.78 9 2.83a34.66 34.66 0 0 1 13.29 8A25.21 25.21 0 0 1 439 502a1.75 1.75 0 0 1-.44 1.56c-3.26 2.95-6.52 5.89-9.89 8.7-3.93 3.28-8 6.44-12 9.62-1.65 1.31-1.74 1.3-2.69-.71q-3.7-7.75-7.3-15.56c-1.51-3.31-1.05-6.77-.37-10.15.54-2.65 1.16-5.39 3.7-7 1.04-.71 2.14-1.19 3.34-1.82z"/><path class="c" d="M262.19 247.87c.7-4.69 1.33-9 2-13.35a15.79 15.79 0 0 1 .67-2.42 2.47 2.47 0 0 1 .51-.68c.2.19.53.34.59.56a21 21 0 0 1 .87 4.31c.12 5.56 2 10.67 3.91 15.75 1.85 4.84 4.9 9 8.18 12.88a47.21 47.21 0 0 1 7.14 11 14.19 14.19 0 0 1-.16 11.62c-1.32 3-6.88 4.84-10.18 3.84s-5.24-3.37-6.87-6.1a28.72 28.72 0 0 1-3.72-10.94c-.46-3.41-1.24-6.78-1.6-10.19-.53-5.51-.92-11.04-1.34-16.28zm264.19 194.06c-.55 5-.53 10.11-2.46 14.87a35.12 35.12 0 0 1-2.6 5.34c-2.05 3.33-8 4.88-11.76 1.94a9.84 9.84 0 0 1-3.34-6.9 25.06 25.06 0 0 1 3-14.86c1.79-3.32 3.83-6.57 5.07-10.1a121.63 121.63 0 0 0 3.84-14.49c.79-3.67 1.11-7.44 1.66-11.16 0-.14.21-.35.31-.35s.45.12.49.25c.29.9.51 1.81.77 2.71a94.13 94.13 0 0 1 3.81 17.46c.47 5.09.83 10.19 1.21 15.29zM256.83 370.5c.23 6.43-2 10.37-6.27 12.29a7.94 7.94 0 0 1-8.78-2.12 17.51 17.51 0 0 1-4.2-10.3 1.08 1.08 0 0 0 0-.31c-1.5-6.34-.37-12.65 0-19 .39-6.65 2.11-13 3.34-19.49a3.41 3.41 0 0 1 .16-.92c.12-.24.42-.39.64-.58a1.62 1.62 0 0 1 .23.5c1.17 7.51 4.32 14.39 7 21.41 1.18 3.1 3.17 5.88 4.79 8.81 1.8 3.34 3.26 6.79 3.09 9.71zm70.46 133.56c.5-4.82 1.12-10.86 1.76-16.9a2.22 2.22 0 0 1 .35-.66 2.84 2.84 0 0 1 .58.68c.85 1.92 1.54 3.92 2.5 5.78 2 3.8 4.11 7.52 6.13 11.3a51 51 0 0 1 3.5 7c1.87 5.43 3.6 10.92 5.07 16.47.89 3.39.39 6.64-2.53 9.2a5.85 5.85 0 0 1-8.58-.61c-3.08-3.76-5.68-7.81-6.64-12.66-.61-3.07-1.07-6.18-1.42-9.29s-.43-6.02-.72-10.31z"/><path class="b" d="M455.23 514.22c4.84 2.17 9.68 4.33 14.51 6.52 6.51 3 10.54 8.11 12.82 14.71 1.52 4.43 2.78 9 4.23 13.42 1 3.18 2.21 6.32 3.29 9.49a4.67 4.67 0 0 1 .09 1.13c-.38-.08-.86 0-1.13-.27-3.1-2.51-6.28-4.92-9.21-7.61a68.56 68.56 0 0 1-6.85-7.3c-3.09-3.81-6-7.77-8.9-11.74a69 69 0 0 1-7.78-13.94 25.28 25.28 0 0 1-1-4.47z"/><path class="a" d="M477.92 589.24c-1.21-1.54-2.38-3.11-3.63-4.62a52 52 0 0 0-4.7-5.43 81.71 81.71 0 0 1-10.21-11.47 26.45 26.45 0 0 1-5.21-18.58c.33-3.75.71-7.5 1.09-11.24a7.21 7.21 0 0 1 .34-1.53 3.36 3.36 0 0 1 .47-.73 3.61 3.61 0 0 1 .68.6c.78 1.24 1.54 2.5 2.29 3.75 2.38 3.94 4.82 7.85 7.09 11.85a36.9 36.9 0 0 1 1.64 4.38c1.42 3.48 3.06 6.88 4.28 10.43 1.5 4.35 2.7 8.8 3.94 13.22.73 2.62 1.31 5.28 1.91 7.93a5.92 5.92 0 0 1 0 1.51z"/><path class="b" d="M384.1 461.09c3.58.61 7.16 1.21 10.73 1.84.72.12 1.41.41 2.13.54 3.42.61 6.22 2.57 9.15 4.24a27.81 27.81 0 0 1 2.39 1.68c-1.06-.17-2.14-.27-3.17-.52-3.73-.92-7.46-1.81-11.15-2.85-4.06-1.14-8.1-.63-12.16-.2a6 6 0 0 0-1.51.36c-3.89 1.53-7.33 7.35-6.72 11.48a18.51 18.51 0 0 0 .89 2.63 3 3 0 0 1 0 .85 2.13 2.13 0 0 1-.88 0c-.45-.24-1-.52-1.21-.93-1.11-2.47-2.69-4.82-2.59-7.65a5.61 5.61 0 0 1 1-3.22c3.39-4.15 6.87-8.34 13.1-8.25z"/><path class="a" d="M394.46 531.39c.16-2.39.3-4.78.48-7.17a3.9 3.9 0 0 1 .41-1c.22.21.53.37.64.63 1.54 3.29 3.05 6.6 4.58 9.9.49 1.06.14 1.7-.85 2.28-1.61.94-3.12 2.06-4.7 3.07a4.24 4.24 0 0 1-1.11.35 5.47 5.47 0 0 1-.08-.9c.19-2.38.4-4.77.61-7.15z"/><path class="c" d="M388.34 254.48l-.05-.07.08.09-.03-.02zm66.93 259.68h-.25.21zm22.59 75.15l.43.06-.17.33c-.07-.15-.14-.3-.2-.46z"/><path class="b" d="M388.56 109c-.05-.47-.08-.83-.14-1.18-.62-3.28-.85-6.71-2-9.8a37.94 37.94 0 0 0-4.71-8.02c-1.13-1.64-1.18-2.08.68-2.83a51.12 51.12 0 0 1 5.47-2.19c2.84-.79 4.7-3 7.13-4.43 3.37-1.93 4.85-5.41 6.68-8.53a48.22 48.22 0 0 0 2.47-5.76c.11-.27.4-.73.47-.7a1.59 1.59 0 0 1 .93.58c2.29 4.52 5.92 7.86 9.83 10.87 2.47 1.9 5.25 3.4 7.89 5.08.58.36.77.62-.06 1a64.9 64.9 0 0 0-6.35 2.73c-4.59 2.48-9.37 4.73-13.54 7.81-3.82 2.83-7 6.54-10.33 10a48.48 48.48 0 0 0-3.72 5 3.91 3.91 0 0 1-.7.37z"/><path d="M524.6 316.68c.16 3.66.53 7.32.45 11a41.93 41.93 0 0 1-3.94 17.64 21.08 21.08 0 0 1-5.94 6.8 28.45 28.45 0 0 1-8.91 5.13c-8.29 2.52-15.88.16-19.4-8.78-.5-1.27-1.12-2.49-1.52-3.78-2.08-6.76-1.13-13.26 2-19.48s6.39-12.27 9.43-18.47a124.06 124.06 0 0 0 5.23-12.09 44.63 44.63 0 0 0 2.21-17.34c-.11-2.71-.25-5.43-.45-8.14-.11-1.44-.33-2.88-.58-4.31-.31-1.78.24-3 1.74-3.58a2.8 2.8 0 0 1 3.71 1.42c2.23 4.49 4.31 9.06 6.6 13.52A68.09 68.09 0 0 1 520 290c1.16 4.32 2.64 8.57 3.56 12.93a72 72 0 0 1 .89 9.65c.1 1.36 0 2.73 0 4.09zm-6 2.15l-.51-.06a59.77 59.77 0 0 0-.05-7.21c-.59-4.88-1.46-9.72-2.23-14.57a63.37 63.37 0 0 0-4.56-16.26 3.07 3.07 0 0 0-.56-.65c-.16.22-.43.43-.46.67a48.7 48.7 0 0 0-.74 5.88 52.13 52.13 0 0 1-2.49 14.09 102.31 102.31 0 0 1-7.8 18.48c-2.74 5.13-4.36 10.61-5.87 16.15a8.55 8.55 0 0 0 .06 3.73c.66 3.64 3.1 6.17 6 8.12a6.72 6.72 0 0 0 5 1 18.67 18.67 0 0 0 6.76-3.68c3.3-2.87 4.35-7.16 5.31-11.19 1.09-4.72 1.46-9.65 2.16-14.5zM313.09 351c-.37-8.68 1.6-17.1 3-25.55 1.28-7.62 3.14-15.15 5-22.65.81-3.23 2.2-6.3 2.39-9.7a3.07 3.07 0 0 1 .85-2 3.67 3.67 0 0 1 2.4-1.17c.69.09 1.47 1 1.84 1.79a7.06 7.06 0 0 1 .48 2.77 67.31 67.31 0 0 0 3.48 19.69c1.73 5.16 3.2 10.43 5.26 15.46 1.61 3.93 4.08 7.51 5.91 11.36a89.71 89.71 0 0 1 5.49 13 44.81 44.81 0 0 1 1.89 16.78c-.38 4.33-2.68 7.67-6 10.27a28.39 28.39 0 0 1-4.82 3c-4.44 2.24-8.88 1.35-13.37 0s-6.5-5-8.84-8.43c-2.47-3.66-3.33-7.74-3.9-12.07a95.67 95.67 0 0 1-1-10.27c.03-.79-.02-1.52-.06-2.28zm6.2-.48a47.76 47.76 0 0 1 .31 5.87 19.41 19.41 0 0 0 2.29 10.61c3.06 5.83 5.75 7.9 13 7.76 2.85-.05 5.49-1.37 6.48-4.2a19.82 19.82 0 0 0 .46-12c-1.44-5.17-3.83-9.94-6.15-14.75a88.75 88.75 0 0 1-6.4-16c-1.32-5.06-2.59-10.13-3.91-15.2a4.13 4.13 0 0 0-.51-.94c-.23.33-.58.63-.66 1-1 4.49-2 9-2.82 13.51-.61 3.49-.57 7.11-1.32 10.56-1.06 4.74-.82 9.53-.77 13.81zm162.46 56.31a60.87 60.87 0 0 1-2.89 15.89 31 31 0 0 1-6.2 11.09c-3.3 3.62-7.37 4.66-12.12 4.36-5.34-.34-8.93-3-11.46-7.55a18.87 18.87 0 0 1-2.45-13.5c1-5.13 3.09-9.69 5.32-14.32s4-9.4 6-14.11c.6-1.45 1.25-2.87 1.83-4.32 3.62-9 3.88-18.59 4.25-28.11.07-1.78.12-3.56.12-5.35 0-1.38.27-2.53 1.87-2.8s3.45.62 3.94 1.83c1.26 3.1 2.67 6.17 3.62 9.37 1.78 6 3.5 12.07 4.82 18.2.85 3.95.88 8.07 1.39 12.1.18 1.44.87 2.82 1 4.25.42 4.28.65 8.56.96 12.97zM453.54 417a57.56 57.56 0 0 0 1.2 6.29 7.72 7.72 0 0 0 12.66 3.12c2.11-2.07 3.06-4.74 4-7.37 1.87-5 1.65-10.31 1.81-15.52.11-3.76-.54-7.55-.25-11.28.54-6.91-1.25-13.41-2.77-20a3.9 3.9 0 0 0-.21-.57 2.59 2.59 0 0 0-.34.63c-.13.61-.17 1.24-.32 1.84-.86 3.32-1.64 6.67-2.66 9.94a66.12 66.12 0 0 1-3.14 8.43c-2.57 5.5-5.55 10.81-8 16.36-1.1 2.58-1.38 5.59-1.98 8.13zm-139.49 32.63c-.91-.33-2.18-.74-3.41-1.24a17.39 17.39 0 0 1-8.29-7.31c-3.54-5.61-6.18-11.63-8.91-17.62a43.08 43.08 0 0 1-1.69-5.7c-.71-2.38-1.51-4.73-2.17-7.12a59.37 59.37 0 0 1-2-8.22c-.93-7.36-2-14.72-1-22.19.42-3.21.43-6.47.77-9.69a3.39 3.39 0 0 1 1.23-2c1.26-1 2.14-.74 2.64.72a40.51 40.51 0 0 1 1.45 5.14 33.13 33.13 0 0 0 8.83 17c5.93 6.06 12.22 11.76 18.46 17.51 3.08 2.83 6.44 5.46 8.47 9.15s3.72 7.53 4 11.82c.44 6.45-1.42 12-6.68 16-3.29 2.6-7.3 3.03-11.7 3.75zM324.69 431a12.6 12.6 0 0 0-2.1-7.77 58.88 58.88 0 0 0-6.83-8.11c-4-3.87-8.32-7.35-12.41-11.11a53.41 53.41 0 0 1-9.2-11.48 21.68 21.68 0 0 0-1.82-2.26c-.07 1-.15 2-.21 3a1.67 1.67 0 0 0 .08.3 205.06 205.06 0 0 0 8.19 29c1.64 4.35 3.52 8.48 7 11.74 4.52 4.22 7.77 4.79 13.35 2.12.1 0 .18-.11.28-.14a4.79 4.79 0 0 0 3.67-5.29zm106.46-148.49a82.18 82.18 0 0 1 3-23.93c1.69-6 3.7-12 5.7-17.94a18.3 18.3 0 0 1 2.29-4.11c1.05-1.56 2.58-1.41 3.34.36a7.54 7.54 0 0 1 .92 3.61c-.7 5.52 1.85 10.19 3.71 15a54.51 54.51 0 0 0 12.22 18.4c2.42 2.49 3.91 5.89 5.77 8.9a18.51 18.51 0 0 1 1.72 3.34 14.82 14.82 0 0 1 1.2 4.49 28.91 28.91 0 0 1-3.18 15.16c-2.58 4.74-6.11 8.63-11.53 9.29-4.81.59-9.71.07-14.11-3-3.71-2.55-5.7-6.12-7.11-10.06-2.42-6.55-4.09-13.36-3.94-19.51zm5.36 1.48c-.29 3.42 1.79 8.53 3.8 13.53 1.58 3.94 4.54 7.06 9.05 7.92 8.43 1.62 13.78-4.28 12.32-11.88-.18-.93-.24-1.87-.39-2.81a13.81 13.81 0 0 0-3.64-7.87c-4.67-4.57-7.73-10.23-10.68-15.83-2.3-4.39-3.4-9.4-5.05-14.13a10.23 10.23 0 0 0-.55-1.16 5.71 5.71 0 0 0-.71 1.3c-.89 3.86-1.7 7.73-2.61 11.59-1.34 5.65-1.5 11.35-1.54 19.35zm-32.14 132.6c-.46 4.68-1 10.17-1.58 15.66a4.29 4.29 0 0 1-.78 2c-3.72 4.87-7.58 9.09-14.37 10.17-6 1-14.68-3.77-16.44-10.27a25.16 25.16 0 0 1 0-14.51c1.7-5.38 3.47-10.72 5.45-16 1.81-4.85 3.15-10 2.72-15.27-.52-6.35-.91-12.75-3.87-18.61a3.15 3.15 0 0 1-.39-1.48 7.22 7.22 0 0 0-1.16-4.15 3.16 3.16 0 0 1-.28-2.58 2.43 2.43 0 0 1 2.95-1.25 6 6 0 0 1 2.81 1.74c3.53 4.54 6.6 9.48 10.45 13.72s5.92 9.25 8.16 14.12c2.41 5.26 3.49 11.15 4.9 16.82.7 2.96.88 6.02 1.43 9.89zm-6.88 2.24c-.16-3-.12-5.21-.43-7.38a93.71 93.71 0 0 0-6.17-22c-1.35-3.36-3.43-6.41-5.21-9.59-.12-.22-.49-.3-.74-.44-.11.25-.33.51-.33.76.07 2.4.05 4.81.28 7.2.91 9.28-1.65 18.09-4 26.84a37.11 37.11 0 0 0-1.39 13.5 8.1 8.1 0 0 0 3.16 5.85c4.12 3.18 12.43.38 13.73-6.19.61-3.06.82-6.21 1.1-8.55zm22.99-103.7c.15 2.61.14 5.24.52 7.81a36.43 36.43 0 0 0 1.64 5.69c.69 2.17 1.12 4.5 2.22 6.45q4.06 7.23 8.7 14.16a16.75 16.75 0 0 1 2.79 7.55c.44 3.74 1.06 7.42.45 11.22-.8 4.95-7 13.3-12.14 13.58a12.86 12.86 0 0 0-3 .79c-3.4 1.05-6.36-.12-9.28-1.72a21.51 21.51 0 0 1-6.53-6.21 6 6 0 0 1-1-2.26c-1.37-5.94-2.27-11.86-1.44-18.05a258.78 258.78 0 0 1 5.33-27.67c1.3-5.28 3.19-10.41 4.92-15.58a12.74 12.74 0 0 1 1.85-3.26 2.85 2.85 0 0 1 5.15 1.86c-.18 1.86-.05 3.75-.05 5.63zm-10.73 38.26c.13 9 .64 10.91 2.6 14.76 1.85 3.65 5 5.09 8.76 5.09 3.19 0 6-1.06 7.65-4.47a13.89 13.89 0 0 0-1.58-14.69c-3.26-4-6.27-8.15-8-13-1.35-3.84-2.39-7.79-3.6-11.68-.1-.3-.46-.52-.69-.77a2.39 2.39 0 0 0-.54.71c-1.08 3.59-2.5 7.13-3.12 10.81-.88 5.2-1.23 10.53-1.48 13.24z"/><path class="c" d="M518.62 318.83c-.7 4.85-1.07 9.78-2.19 14.53-1 4-2 8.32-5.31 11.19a18.67 18.67 0 0 1-6.76 3.68 6.72 6.72 0 0 1-5-1c-2.87-1.95-5.31-4.48-6-8.12a8.55 8.55 0 0 1-.06-3.73c1.51-5.54 3.13-11 5.87-16.15a102.31 102.31 0 0 0 7.8-18.48 52.13 52.13 0 0 0 2.53-14.09 48.7 48.7 0 0 1 .74-5.88c0-.24.3-.45.46-.67a3.07 3.07 0 0 1 .56.65 63.37 63.37 0 0 1 4.57 16.24c.77 4.85 1.64 9.69 2.23 14.57a59.77 59.77 0 0 1 .05 7.21zm-199.33 31.72c-.05-4.28-.25-9.07.8-13.87.75-3.45.71-7.07 1.32-10.56.78-4.53 1.84-9 2.82-13.51.08-.36.43-.66.66-1a4.13 4.13 0 0 1 .51.94c1.32 5.07 2.59 10.14 3.91 15.2a88.75 88.75 0 0 0 6.4 16c2.32 4.81 4.71 9.58 6.15 14.75a19.82 19.82 0 0 1-.46 12c-1 2.83-3.63 4.15-6.48 4.2-7.28.14-10-1.93-13-7.76a19.41 19.41 0 0 1-2.29-10.61 47.76 47.76 0 0 0-.34-5.78zM453.54 417c.6-2.49.88-5.5 2-8.12 2.43-5.55 5.41-10.86 8-16.36a66.12 66.12 0 0 0 3.14-8.43c1-3.27 1.8-6.62 2.66-9.94.15-.6.19-1.23.32-1.84a2.59 2.59 0 0 1 .34-.63 3.9 3.9 0 0 1 .21.57c1.52 6.58 3.31 13.08 2.77 20-.29 3.73.36 7.52.25 11.28-.16 5.21.06 10.52-1.81 15.52-1 2.63-1.92 5.3-4 7.37a7.72 7.72 0 0 1-12.66-3.12 57.56 57.56 0 0 1-1.22-6.3zm-128.85 14a4.79 4.79 0 0 1-3.67 5.23c-.1 0-.18.1-.28.14-5.58 2.67-8.83 2.1-13.35-2.12-3.48-3.26-5.36-7.39-7-11.74a205.06 205.06 0 0 1-8.19-29 1.67 1.67 0 0 1-.08-.3c.06-1 .14-2 .21-3a21.68 21.68 0 0 1 1.82 2.26 53.41 53.41 0 0 0 9.2 11.48c4.09 3.76 8.43 7.24 12.41 11.11a58.88 58.88 0 0 1 6.83 8.11 12.6 12.6 0 0 1 2.1 7.83zm111.82-147c0-7.95.2-13.69 1.54-19.34.91-3.86 1.72-7.73 2.61-11.59a5.71 5.71 0 0 1 .71-1.3 10.23 10.23 0 0 1 .55 1.16c1.65 4.73 2.75 9.74 5.05 14.13 2.95 5.6 6 11.26 10.68 15.83a13.81 13.81 0 0 1 3.64 7.87c.15.94.21 1.88.39 2.81 1.46 7.6-3.89 13.5-12.32 11.88-4.51-.86-7.47-4-9.05-7.92-2.01-5.01-4.09-10.12-3.8-13.53zm-39.02 134.83c-.28 2.34-.47 5.49-1.07 8.55-1.3 6.57-9.61 9.37-13.73 6.19a8.1 8.1 0 0 1-3.16-5.85 37.11 37.11 0 0 1 1.39-13.5c2.32-8.75 4.88-17.56 4-26.84-.23-2.39-.21-4.8-.28-7.2 0-.25.22-.51.33-.76.25.14.62.22.74.44 1.78 3.18 3.86 6.23 5.21 9.59a93.71 93.71 0 0 1 6.17 22c.28 2.17.24 4.39.4 7.38zm12.26-65.44c.29-2.71.6-8 1.49-13.28.62-3.68 2-7.22 3.12-10.81a2.39 2.39 0 0 1 .54-.71c.23.25.59.47.69.77 1.21 3.89 2.25 7.84 3.6 11.68 1.72 4.89 4.73 9 8 13a13.89 13.89 0 0 1 1.58 14.69c-1.63 3.41-4.46 4.47-7.65 4.47-3.71 0-6.91-1.44-8.76-5.09-1.97-3.81-2.48-5.74-2.61-14.72z"/></svg>