<svg xmlns="http://www.w3.org/2000/svg" viewBox="0 0 800 800"><defs><style>.a{fill:#a2786f}.b{fill:#fff}.c{fill:#fca14f}</style></defs><path d="M517.75 646a137.37 137.37 0 0 1-13.21 20c-.25.32-.66.55-.83.9-4 7.8-6.73 15.73-2.67 24.44a46.42 46.42 0 0 1 3.66 29.84 21.73 21.73 0 0 1-1.59 4.19c-2.11 4.83-4 9.79-6.48 14.43-3.36 6.27-9.12 9.19-16 9.75-3.93.31-10.4-3.82-11.91-7.4a25.84 25.84 0 0 1-1.85-13.15 57.12 57.12 0 0 0 .16-9.34c-.22-3.74-2.22-6.7-5-9.09-3.6-3.13-7.21-6.24-11-9.17a22 22 0 0 1-9-18.35c0-5 2.5-9.1 5-13.19 3-4.86 6.09-9.63 8.81-14.62a48.23 48.23 0 0 0 5.6-19c.05-.57-.42-1.19-.64-1.79a5.84 5.84 0 0 0-1.23.93c-1.85 2.5-4 4.76-6 7.08-4.59 5.23-10.27 8.87-16 12.63s-10.65 8.06-14.29 13.82a12.43 12.43 0 0 0-2 6.92 97.33 97.33 0 0 0 2.67 21.84c1.7 7.41-.84 13.91-5 20-2.38 3.47-4.66 7-8.13 9.51-9.25 6.73-19 2.46-21.74-6.92a37.4 37.4 0 0 1-.65-16.59 44.59 44.59 0 0 0-1.42-20.15 25.34 25.34 0 0 0-7.49-12 216.63 216.63 0 0 0-21.91-17 44.84 44.84 0 0 1-12.95-13.84c-4.15-6.88-5-14.25-4.72-22a6 6 0 0 0-.36-1.44c-.46.22-1.07.32-1.34.67-4.86 6.25-7.59 11.84-3.27 19.79 2.92 5.37 5.79 10.77 8.56 16.21 3.2 6.25 3.95 13 3.43 19.87-.26 3.42-1.93 6-4 8.68a27.27 27.27 0 0 1-10.39 8.32c-6 2.66-11.79 1.42-16.58-2.92a40.57 40.57 0 0 1-10.3-15.86 13.55 13.55 0 0 0-10.14-8.54c-5.59-1.16-11.21-2.23-16.8-3.4a9.91 9.91 0 0 1-3.06-1.1c-5.48-3.32-10.62-7-14.39-12.36-3.55-5-5.2-10.79-6.52-16.57-2-8.74-2.72-17.76-5.7-26.32a44.63 44.63 0 0 0-12.14-18.52 89.73 89.73 0 0 0-18-12.52c-8.46-4.66-16.66-9.72-23.34-17a67.51 67.51 0 0 1-8.72-12.76c-5.85-10.34-8.82-21.47-9.93-33.38-.88-9.35.05-18.5.74-27.72a103.49 103.49 0 0 1 2-13.69 75.32 75.32 0 0 1 3.27-9.89c.57-1.56 6.58-4.86 8.24-4.48a2.18 2.18 0 0 1 1.35 1.6 24.37 24.37 0 0 1-1.24 6.38 40.53 40.53 0 0 0-2.26 9.9c-.93 7 .11 13.81 1.44 20.63.38 2 .39 4.08.79 6.08.86 4.4 3.37 8.08 6.06 11.45 1.19 1.49 3.72 2.31 5.77 2.63 5.63.87 10.08 4 14.54 7.07 5.32 3.68 9.28 8.69 12.8 14.06 1.94 3 5.28 3.83 8.22 4.93 2.21.83 5.78-3 5.36-5.49-.38-2.2-1-4.76-2.48-6.29-2.29-2.44-5.09-4.88-8.15-6-3.29-1.19-5.21-3.59-6.95-5.91a56.68 56.68 0 0 1-8.68-16.53 26.34 26.34 0 0 1 .28-17.2 25.54 25.54 0 0 0 1.31-8c0-4.34-.44-8.69-.74-13a4.59 4.59 0 0 0-.45-2c-4.05-7.22-7.49-14.88-14.2-20.22-1.91-1.53-3.9-3-5.82-4.49-5.26-4.15-10.18-8.69-13.47-14.61a83 83 0 0 1-5.83-12.55c-3-8.37-5.05-16.94-4.11-26 .56-5.4 1-10.83 1.35-16.25.59-8.85 3.67-17.13 6-25.54a85.62 85.62 0 0 1 5.91-14.12 32.24 32.24 0 0 1 5.72-8.7c2.23-2.25 5.37-3.65 8.24-5.19 1.41-.75 2.38.18 2.17 1.78a3.45 3.45 0 0 1-.32 1.18c-3.36 6.41-3.61 13.59-4.91 20.48a82.34 82.34 0 0 0-1 21.16c.55 7.6 1.14 15.2 1.95 22.77a49.76 49.76 0 0 0 5.26 17.51 19.45 19.45 0 0 0 4.51 5.18c3.42 3.1 6.95 6.06 10.53 8.95a24.83 24.83 0 0 0 5.15 3.28 44.79 44.79 0 0 1 21.5 19.74c1 1.91 2.1 3.8 3.27 5.61a14.86 14.86 0 0 0 3 3.82c3.67 2.84 6.19 1.82 7.08-2.67a12.39 12.39 0 0 0-2.81-11.36c-7.35-8.57-14.64-17.22-21.45-26.22-4.24-5.6-8.12-11.74-9.74-18.67-2.64-11.25-4.63-22.62-2.78-34.34a92.1 92.1 0 0 1 4.29-17.77 3.56 3.56 0 0 1 .41-1.15c4.38-5 5.36-11.53 7.9-17.35 1.41-3.21 3.5-6.1 5.12-9.22 6.19-11.9 7.22-23.91 1.68-36.51a90.86 90.86 0 0 1-6.59-20.53 68.5 68.5 0 0 1 3.74-37.66c3.4-8.63 7-17.15 12.6-24.62a81.33 81.33 0 0 1 9.77-10.78 130.91 130.91 0 0 1 10.9-8.5 11.92 11.92 0 0 1 3.86-2.22 5.21 5.21 0 0 1 3.74.53c1.26.81 1 2.34.46 3.72-.47 1.09-.68 2.29-1.16 3.37a9.77 9.77 0 0 1-1.44 2.23c-2 2.4-4.3 4.58-5.95 7.19-3.18 5-6.46 10.12-7.74 16a110.13 110.13 0 0 0-2.1 14.11 74.42 74.42 0 0 0 .32 9.77c.2 4.45 2.46 8 5.06 11.4 2.21 2.86 4.47 2.86 6.56-.17a100.08 100.08 0 0 0 6-10.16c2.09-3.95 3.4-8.6 8.13-10.25a41.24 41.24 0 0 1 9.47-2 57.29 57.29 0 0 1 9.8.09 20 20 0 0 0 12.17-2.74 24.3 24.3 0 0 0 10.37-11.56c3-7.2 1.93-14.39 1.37-21.69-.39-5.15-1.11-10.38-.65-15.47a35 35 0 0 1 7.02-17.65c2.34-3.17 4.65-6.37 7-9.51a8.59 8.59 0 0 1 2.34-2.24 65.06 65.06 0 0 0 14.62-11.67c1.94-2.06 4.47-3.57 6.39-5.64a43.18 43.18 0 0 0 5.06-6.8c2.35-3.81 5-7.53 5.08-12.3q0-3 .05-6.1c0-2.77.72-3.79 3.19-4.52s4.25-.23 5.57 1.94a38.15 38.15 0 0 1 4.77 29.74A68.28 68.28 0 0 1 380 137.69a44.1 44.1 0 0 0-3.64 6.3c-1.19 2.26-2.19 4.63-3.37 6.9-4 7.66-4.66 15.23.45 22.69 2.69 3.92 5.22 8 8.15 11.69a14.72 14.72 0 0 0 5 3.49c4.84 2.46 8.61 6.18 12.36 10 4.41 4.44 5 10.06 5.12 15.9.05 3.11.25 6.23.51 9.34a6 6 0 0 0 5.27 5.28c7.74.84 13.73-5.85 12.61-14.1-.75-5.53-1.57-11.06-2.29-16.59-.89-6.84.34-13 5.67-17.93s10.16-9.83 15.27-14.71c8.37-8 12.83-17.68 12.92-29.31 0-2.45.16-4.9.08-7.34a4 4 0 0 1 2.5-3.88c1.59-.77 3 .23 3.78 1.6 2.56 4.64 5.11 9.29 7.39 14.07a43.66 43.66 0 0 1 2.14 7c1.78 6.35.43 12.4-1.89 18.31-1.39 3.53-3.16 6.92-4.37 10.51-2.34 6.91-3.9 13.94-.77 21.07 1.58 3.62 4.4 5.3 8.34 5.49a20.45 20.45 0 0 0 11-2.43 92.09 92.09 0 0 1 12.29-5.42 12.11 12.11 0 0 1 6-.23 84.58 84.58 0 0 1 9 2.48 4 4 0 0 1 1.79.91c3.22 3.3 7.46 5.61 9.54 10a11.77 11.77 0 0 0 1.81 2.71c2 2.2 4.18 3.77 7.42 2.74 4.16-1.32 8.68-2.1 10.71-6.66 1-2.35 2.27-4.86 2.37-7.34.25-6.13-.28-12.19-3.66-17.7-2.48-4.06-4.54-8.37-6.82-12.55-1.43-2.63-2.93-5.22-4.35-7.85a21.73 21.73 0 0 1-2.59-9.35 52.63 52.63 0 0 1 5.57-27.19c4-8 10-13.84 16-19.89s11.13-12.75 13.15-21.19c1-4.3 2.57-8.64 1.87-13.22-.22-1.47-.62-2.92-.85-4.38a58.07 58.07 0 0 1-1-7.26c-.08-3.16.42-3.49 3.77-3.73 4.33-.3 4.76-.2 6.14 3.53a177.2 177.2 0 0 1 6 17.65 53 53 0 0 1-1.43 31q-3.55 10.19-7.24 20.33c-1.68 4.58-4.1 8.92-4.33 14-.42 9.38 1.79 17.84 8.72 24.57 4.3 4.17 9.09 7.9 13 12.39 6.07 7 12 14.24 14.54 23.4a35.85 35.85 0 0 1 .2 18.2c-.58 2.37-.84 4.82-1.25 7.22a9.22 9.22 0 0 1-.47 2.38c-3.33 7.08-2 14.09.28 21.06a32.79 32.79 0 0 0 2.5 6c3.13 5.48 3.94 11.58 5 17.61a16.16 16.16 0 0 1-.38 4.45 58.33 58.33 0 0 1-.92 6.88c-.63 2.6-1 5.74-2.64 7.55-5.34 5.83-7.61 13.18-10.67 20.08a21.53 21.53 0 0 0-.43 15.26c1 3 2.19 3.51 5.24 2.4a11.59 11.59 0 0 0 7.5-9.49c.88-5.33.53-10.86.75-16.3.09-2.29-.32-4.81.51-6.81 2.33-5.61 4.62-11.18 9-15.86s9.3-8.83 13-14c5.64-7.86 8.26-16.71 6.77-26.54-.59-3.9-.84-7.85-1.14-11.79-.37-4.92 3-7.22 7.48-4.79a10.9 10.9 0 0 1 4.41 4.59 133 133 0 0 1 9.4 27.72 46 46 0 0 1 .68 10.9 39.41 39.41 0 0 1-4.78 18.84c-3.09 5.5-6 11.22-10.73 15.68-1.5 1.39-2.16 3.73-3.06 5.71-4.25 9.35-5.52 19-2.83 29.05a43.15 43.15 0 0 1-1 26.5c-1.48 4-4.12 7.68-6.69 11.17-10.21 13.73-22.44 25.54-35.47 36.54a66.49 66.49 0 0 0-15.5 18.3 36.51 36.51 0 0 0-4.41 15.22 77.09 77.09 0 0 0 1.85 22.73c1.8 7.87.56 15.13-2.93 22.19-2 4.1-4 8.09-7.24 11.64s-4.94 8.4-7.3 12.7c-3.45 6.29-4.82 13.21-6.24 20.14a10.77 10.77 0 0 0 1.15 7.12c1.27 2.54 2.93 2.83 5.34 1.3 5.46-3.46 6.52-9.07 7.35-14.82.59-4.16 1.23-8.31 1.88-12.46a3.69 3.69 0 0 1 .5-1.11c6.33-11.63 14.43-21.6 27.1-26.6A37.47 37.47 0 0 0 606 479.14a13.76 13.76 0 0 0 3.38-12.5c-.79-4-1.79-8-2.7-11.94a6.21 6.21 0 0 1-.23-.78c-.54-9.35 0-18.56 3.86-27.26a23.24 23.24 0 0 1 3.9-6.18 15.51 15.51 0 0 1 5.29-3.66c4.06-1.71 6.67.43 6 4.74-.38 2.54-.92 5.07-1.45 7.59-1.81 8.7 1.41 16 6.19 23s9.52 14.29 10.56 23.17c1.05 9.1.62 17.59-4.76 25.8a101.33 101.33 0 0 1-18.14 20.82 45.07 45.07 0 0 0-15 25.67 81.89 81.89 0 0 0-1.06 16.28c.06 5.54.78 11.07 1.29 16.6a26.86 26.86 0 0 1-3.13 15.32c-2.09 4-4.39 7.82-6.61 11.71a5.2 5.2 0 0 1-1.18 1.66c-3.7 2.74-7.39 5.5-11.2 8.08-10.41 7.06-20.71 14.21-26 26.33a42.41 42.41 0 0 0-3.44 16.29c-.07 4.34.37 8.69.25 13a27.06 27.06 0 0 1-1.34 6.66c-.5 1.68-1.45 3.22-2.09 4.86-2.56 6.56-7.66 10-14.18 11.79a3.88 3.88 0 0 1-1.59.24c-6-1.14-11.94-2.51-14.83-8.72a44.14 44.14 0 0 1-3.53-9.92c-1.4-7.05 1-13.68 3-20.32.63-2 .85-4.22 1.31-6.33s1-4.43 1.54-6.64c-.09-.69-.19-1.37-.28-2.06l-1.4 1.54c-.2.49-.39 1-.58 1.47a.3.3 0 0 0-.1.55zm101.64-355.67l-.25 1c-.45.26-1 .41-1.32.8A26.77 26.77 0 0 0 613 305a134.34 134.34 0 0 0-.81 16.29c.07 3.53-1.35 6.38-2.82 9.24a32.72 32.72 0 0 1-4.55 6.25c-4 4.56-9.09 6-14.81 4.45-4.84-1.28-7.42-5-8.25-9.74-1.5-8.44-1.4-16.76 2.84-24.64 2.08-3.85 1.89-3.94-1.65-6.51-1.09-.8-2.13-1.67-3.23-2.47-11-8-23.28-13.41-35.76-18.4a193.71 193.71 0 0 0-21.24-7.08 157.5 157.5 0 0 0-21.17-4.28c-6.45-.81-13-.63-19.56-.79a49.84 49.84 0 0 0-14.13 1.34c-3.29.87-6.61 1.64-10 2.18a160.49 160.49 0 0 0-34 9.43c-2.77 1.11-3.31 2.24-1.89 4.84a53.56 53.56 0 0 1 6.48 21.32 29.64 29.64 0 0 1-4.24 18.27c-2.5 4.18-5.67 8-8.54 11.92-4.35 6-7.14 12.47-6.94 20 .12 4.63.05 9.27.06 13.91a21 21 0 0 1-3 10.9 97.6 97.6 0 0 1-10.24 15.05c-2.94 3.37-5.69 6.91-8.4 10.48-3.12 4.1-6 8.36-9.16 12.46-1.9 2.49-3.94 4.87-6 7.19-3.1 3.42-6.44 6.63-9.44 10.12-2.44 2.83-1.9 5.6 1.22 7.53a14.75 14.75 0 0 0 4.11 1.79 33.49 33.49 0 0 0 18.49-.14c4.15-1.3 8.2-2.88 12.31-4.31 5.72-2 10.58-5.37 15.14-9.27 2.88-2.47 5.75-5 8.7-7.35a9.86 9.86 0 0 1 2.86-1.49 19.65 19.65 0 0 1 12.06-.31 16.65 16.65 0 0 0 10.8-.41c8.43-3.22 12.22-11.68 6.55-19.25-1.84-2.46-4.38-4.39-6.6-6.57-1.39-1.36-2.51-2.82-2.53-4.94s.54-3.29 2.68-3.09a10.36 10.36 0 0 1 5.58 1.92 101.74 101.74 0 0 1 9.85 9.74 25.17 25.17 0 0 1 6.9 15.75c.2 3.82-.05 7.42-2.6 10.41-3.34 3.91-6.62 8.09-11.93 9.38a29.54 29.54 0 0 1-8.07.72 52.8 52.8 0 0 1-16.19-3.74c-1.78-.65-3.07-.87-4.2.89-.51.79-1.25 1.46-1.71 2.28a46.93 46.93 0 0 1-7.19 9.27c-5 5.33-11.17 8.59-17.67 11.4-2.58 1.12-2.55.94-.89 3.07 4.51 5.79 5.78 12.2 3.16 19.17-.95 2.52-2.47 3.46-4.62 3.13-1.46-.22-2.92-.5-4.37-.83-3.43-.77-4.58-3.62-2.58-6.5a8.83 8.83 0 0 1 2.29-2.27c2.7-1.79 2.94-2.15 2.32-5.09-.53-2.51-1.09-5-1.64-7.52l.33-.08-.28.15c-5.45 1.11-10.87 2.38-16.36 3.26a63.88 63.88 0 0 1-10.53.69c-6.24-.06-11.88-2.8-17.71-4.58a28.65 28.65 0 0 1-8.65-4.45c-4.36-3.3-5.36-8.45-5.56-13.51s3.65-8.75 8.88-10.11a50.09 50.09 0 0 0 9.05-3.68c8.94-4.3 14.83-12.16 21.61-18.94a52.35 52.35 0 0 0 7.47-9.14c3.59-5.76 6.67-11.85 10-17.76a26.18 26.18 0 0 0 3.51-14.48c-.17-3.79-.54-7.66 0-11.39.71-5.36 1.28-10.93 4.28-15.64 2.52-3.95 4.21-8.41 8.32-11.42 2.83-2.06 5.6-4.79 5.42-9.09a44.29 44.29 0 0 1 .6-7.61c.54-4-.65-7.52-2.64-10.86-2.16-3.61-4.49-7.12-6.53-10.79a22.17 22.17 0 0 1-2.12-5.73 5.51 5.51 0 0 1 1.87-5.89c.59-.47 1.71-1.17 1.63-1.4a5.41 5.41 0 0 0-1.64-2.25 17.81 17.81 0 0 0-3.19-1.8 182.3 182.3 0 0 0-18.18-7.14c-11.76-4.19-23.91-5.19-36.15-5.92-8.59-.52-17.16.42-25.65 1.65-7.4 1.07-14.75 2.48-22.09 3.92a50.46 50.46 0 0 0-7.79 2.42c-5.06 1.91-10.08 4-15.12 5.94-5.55 2.21-11.09 4.46-16.67 6.62-1.44.55-1.56 1.39-1.51 2.82a81.68 81.68 0 0 1-.06 11.39c-.85 8.43-5.28 15.55-9.07 22.83-3.91 7.51-8.27 14.73-11.5 22.65-3 7.24-5.31 14.44-5.9 22.22s-.15 15.16 3.3 22.36c1.89 3.92 4.85 6.88 7.37 10.23a73.66 73.66 0 0 0 16.71 16.63 29.57 29.57 0 0 1 7.06 6.74 33 33 0 0 1 6.44 23.92 14.88 14.88 0 0 1-7.17 10.83c-5.63 3.58-13.51 2.1-18.26-2.94a36.4 36.4 0 0 1-6.56-10.72c-3.7-8.36-9.8-14.5-17.69-19-2.91-1.65-5.95-3.11-8.74-4.95a50 50 0 0 1-5.57-4.75c-3.13-2.79-6.22-5.6-9.32-8.42-.65-.59-1.27-1.23-1.91-1.84-.07.91-.21 1.83-.2 2.74a5.25 5.25 0 0 0 .43 1.57c1.87 5.47 5.12 10.13 8.54 14.7 2.27 3 4.78 5.88 7 9 3.06 4.32 6.13 8.66 8.81 13.21a54.2 54.2 0 0 1 5.17 11.05 58.59 58.59 0 0 1 2.14 26.68 91.72 91.72 0 0 0-.74 13.47c0 6.92 2.53 12.18 8.72 16.37 5.1 3.46 10.35 6.93 14.1 12.59 4.31 6.51 3.53 12.87 2.61 19.54a8.37 8.37 0 0 1-2.94 4.77c-6.16 5-15.56 5.71-22.26-1.06-2.86-2.89-5.25-6.25-7.88-9.36q-3.1-3.64-6.29-7.21a4.63 4.63 0 0 0-1.39-.75 7.44 7.44 0 0 0 .27 1.79c1.47 3.51 3 7 4.5 10.48a16 16 0 0 0 1.1 2.19 74.89 74.89 0 0 0 13.8 16.53c5.87 5 11.86 10 17.12 15.66 7.59 8.14 12 18.16 13.84 29.09 1.62 9.51 1.9 19.23 4.54 28.6 1.09 3.86 2.11 7.73 5.32 10.32 4.61 3.71 9 7.35 15.82 7.14a25.07 25.07 0 0 1 14.74 4.16c6.29 4.19 10.06 10.16 13.12 16.81a45.93 45.93 0 0 0 4.94 8.8c1.79 2.35 3 2.07 5-.12 3.53-3.9 4.5-8.8 5.2-13.74.54-3.74-.8-7.2-2.21-10.61-2.35-5.66-5-11.18-6-17.33-1.1-6.7-.54-13 3.2-18.81 4.41-6.85 8.85-13.67 13.26-20.51a34.77 34.77 0 0 0 5.55-15.58 33.15 33.15 0 0 1 1.55-7.16c.95-2.89 3.18-3.33 5.24-1.16a5.62 5.62 0 0 1 1.63 2.78c.89 6.74 1.94 13.49 2.24 20.27.17 3.87-1.32 7.79-1.44 11.71a97.39 97.39 0 0 0 .51 17c1.22 8.25 6.73 14.09 12.8 19.36a37.37 37.37 0 0 0 5.35 4.36c7.46 4.35 14.44 9.24 19.85 16.09 8.1 10.27 11.15 21.56 6.95 34.31-.68 2.07-1.48 4.12-2 6.24-.46 2 .5 4 2 4.45 1.78.53 3.29.41 4.64-1.4a24.19 24.19 0 0 0 4.92-16 120.35 120.35 0 0 1 .05-15.89c1-10.63 7.42-18.16 15.08-24.83 6.66-5.79 14.56-10 20.85-16.26a24.81 24.81 0 0 0 6-8.66c1.17-3 2.91-5.85 3.95-8.91a26.84 26.84 0 0 0 1.79-8.67c-.07-4.74-.9-9.47-1.4-14.21a25.32 25.32 0 0 1-.28-4.07 2.66 2.66 0 0 1 1.09-1.93c1.66-.93 5.92.76 6.69 2.5 2.91 6.59 5.7 13.23 8.73 19.75a55 55 0 0 1 4.77 32.63c-.32 2-.28 4.22-1.12 6-4 8.57-8.12 17.14-12.64 25.47-2.87 5.29-3.52 10.31-1.34 16 1.61 4.2 4.72 7 7.87 9.75a26.78 26.78 0 0 1 9.23 17.63c.54 4.73 1.05 9.46 1.82 14.15.53 3.21 2.63 4 4.85 1.7a25 25 0 0 0 4.78-6.51c2.56-5.43 2.25-11.08.3-16.68-2-5.78-4-11.55-5.92-17.37a17.43 17.43 0 0 1-1-5.61c.2-10 3.18-19 9.74-26.62 6.11-7.14 11.66-14.66 15.6-23.25a52.66 52.66 0 0 0 4.7-18 64.51 64.51 0 0 0-1.78-19 6 6 0 0 1-.06-2.79 4.58 4.58 0 0 1 7.59-1.84 32.63 32.63 0 0 1 5 6.35c3.6 5.7 4.88 12.35 7.27 18.55a16.08 16.08 0 0 1 1.29 4.26c.55 6 1.26 11.94 1.24 17.92 0 3.44-1.1 6.94-2.06 10.31-1.12 3.92-2.9 7.67-3.86 11.62a21 21 0 0 0 0 7.25c.22 1.93 1.49 2.56 3.25 1.85a7.39 7.39 0 0 0 3-2 27 27 0 0 0 6-14.48c.56-6.54 1.55-12.82 4.1-19a51.29 51.29 0 0 1 20.31-24.3c2.4-1.53 5-3 6.8-5.15a45.12 45.12 0 0 0 10.73-24.29 104.83 104.83 0 0 0 0-18.75 154.54 154.54 0 0 1-.39-22.87c.71-9 2.39-17.83 6.74-25.9a63.65 63.65 0 0 1 4.19-6.42c2.36-3.33 4.48-6.91 7.28-9.82a60.45 60.45 0 0 0 10.69-15.3 12.68 12.68 0 0 0 1-2.63c.1-.42-.19-.94-.31-1.41a3.69 3.69 0 0 0-1.09.46c-.81.72-1.47 1.63-2.34 2.27-3.39 2.49-6.61 5.38-10.33 7.25-5.58 2.8-11.47 5-16.27 9.18-5.74 5-10.11 11-12.09 18.4-.87 3.27-1.23 6.68-1.77 10-.74 4.56-1 9.25-4.72 12.75-1.56 1.47-2.82 3.25-4.27 4.84a12.84 12.84 0 0 1-13.69 3.91c-4-1.07-9.22-7.85-9.43-11.9-.11-2.3 0-4.62.08-6.92.47-9.84 4.1-18.85 7.8-27.75 3.18-7.64 7.25-14.9 10.61-22.48 2.66-6 3.52-12.56 4-19.06.61-8.13.79-16.29 1.2-24.44a13.86 13.86 0 0 1 .61-3.62 76.36 76.36 0 0 1 9-19 147.69 147.69 0 0 1 20.42-24.38c4.59-4.45 9-9.14 11.89-14.95 2.77-5.6 5.37-11.28 7.85-17a39.55 39.55 0 0 0 2.8-21.62c-1.49-10.51-.7-20.88 1.23-31.28 1.09-5.89 2.56-11.66 4.08-17.43.21-.49.43-1 .64-1.46l.21-.13 2-2.65c-.21-.1-.57-.33-.6-.29-.64.82-1.25 1.66-1.86 2.51zm-225.1-69.59c-.17-3.1.19-5.84-.55-8.24-2.2-7.16-5.85-13.46-12.39-17.66-7.51-4.81-13.45-11-17-19.3-2-4.79-3.27-9.71-2.6-15.07.53-4.34.87-8.65 2.64-12.72.16-.37-.16-1-.25-1.44-.36.17-.85.24-1 .52-2.45 3.56-5.51 6.88-7.12 10.8a55.68 55.68 0 0 0-3.66 19.06 11.6 11.6 0 0 1-.2 2.44c-2.28 8.72-4.86 17.28-10.45 24.64-3.75 4.95-8 9.34-13.58 12-8.56 4.16-17.76 5.7-27.23 6.12-5.2.24-9.67 2.2-12.79 6.83a96.07 96.07 0 0 1-7 8.53 6.62 6.62 0 0 1-1.91 1.48 16 16 0 0 1-10.72 1.67c-3.06-.61-5.92-2-7.39-5.23-.45-1-1.24-.87-1.83.08-.41.68-.87 1.33-1.28 2-2 3.37-2.34 7.06-2.6 10.93-.36 5.4 1.31 10.34 2.38 15.44.23 1.09.64 1.63 2 1.11 4.67-1.81 9.35-3.64 14.11-5.21 6.06-2 12.18-3.81 18.32-5.53a57.33 57.33 0 0 1 8.78-1.75q12.27-1.41 24.58-2.5 6.69-.6 13.42-.67c3.11 0 6.22.35 9.34.56 11.53.75 23 1.69 33.86 6.26.74.31 1.63.28 2.38.58 5.67 2.24 11.66 3.78 16.58 7.66a15.19 15.19 0 0 0 2.57 1.22c4.33 2.19 8.63 4.45 13 6.59 1.18.59 2.68 1.44 3.76 1.15a65 65 0 0 0 11.09-3.77 131.09 131.09 0 0 1 14.6-6.09c1.81-.59 3.53-1.66 5.37-1.94 11.22-1.69 22.32-4.47 33.83-3.56 2.55.2 5.15-.34 7.72-.23a237.36 237.36 0 0 1 37.08 5c9.16 1.86 18.19 4.26 26.68 8.39 11.52 5.6 23.07 11.12 32.37 20.28 1.89 1.87 3.26 1.4 3.86-1.42 2.06-9.76 1.48-19.14-4.08-27.86a54.12 54.12 0 0 1-4.87-9.41c-1.75-4.52-3.42-9-2.5-14.23a98.27 98.27 0 0 1 3.39-14.58c2.67-7.85 1.85-15.33-2.9-22.2a100.73 100.73 0 0 0-7.37-9.77c-3.6-4.07-7.46-7.92-11.39-11.67-3-2.81-6.53-5-9.26-8-6.48-7.08-12.07-14.83-14-24.5-.69-3.53-1.51-7.14-.32-10.88a67.12 67.12 0 0 0 1.81-9.18 5.5 5.5 0 0 0-.38-1.84 7.25 7.25 0 0 0-1.46 1.2c-6.33 8.83-6.44 18.83-5.4 29a4.45 4.45 0 0 0 .61 1.51q3.4 6.51 6.82 13c3.22 6.12 6.62 12.15 9.62 18.36 4.6 9.53 2.82 18.76-2.89 27s-16.73 11.24-25.81 8c-2.52-.89-4.21-2.75-6.28-4.12a44.43 44.43 0 0 1-8-7 9.12 9.12 0 0 0-10.74-2.36c-2.09.93-3.95 2.37-6 3.38-11.45 5.57-23.1 6.65-35.17 1.88-7.68-3-12.65-8.83-16.61-15.64a15.2 15.2 0 0 1-2.41-8.55c.18-2.95 0-5.91 0-8.87 0-.35-.16-.88-.41-1a1.18 1.18 0 0 0-1 .27c-4.66 4.28-8.52 9-7.66 15.88.56 4.44 1.32 8.87 2.3 13.23.58 2.55 1.36 5 .54 7.61a6.23 6.23 0 0 0-.07 2.4c.69 6.82-2.4 12.17-7 16.67-3.63 3.58-8.55 4.38-13.5 5-5.85.74-12.07-2.53-14.06-8-1.61-4.54-3.15-9.21-2.32-13.74z"/><path class="a" d="M518.47 644l1.4-1.54c.09.69.19 1.37.28 2.06zm-.72 2a.3.3 0 0 1 .14-.5l.16.3z"/><path class="b" d="M394.74 460.1c.55 2.51 1.11 5 1.64 7.52.62 2.94.38 3.3-2.32 5.09a8.83 8.83 0 0 0-2.29 2.27c-2 2.88-.85 5.73 2.58 6.5 1.45.33 2.91.61 4.37.83 2.15.33 3.67-.61 4.62-3.13 2.62-7 1.35-13.38-3.16-19.17-1.66-2.13-1.69-1.95.89-3.07 6.5-2.81 12.67-6.07 17.67-11.4a46.93 46.93 0 0 0 7.19-9.27c.46-.82 1.2-1.49 1.71-2.28 1.13-1.76 2.42-1.54 4.2-.89a52.8 52.8 0 0 0 16.16 3.74 29.54 29.54 0 0 0 8.07-.72c5.31-1.29 8.59-5.47 11.93-9.38 2.55-3 2.8-6.59 2.6-10.41a25.17 25.17 0 0 0-6.9-15.75 101.74 101.74 0 0 0-9.85-9.74 10.36 10.36 0 0 0-5.58-1.92c-2.14-.2-2.7.9-2.68 3.09s1.14 3.58 2.53 4.94c2.22 2.18 4.76 4.11 6.6 6.57 5.67 7.57 1.88 16-6.55 19.25a16.65 16.65 0 0 1-10.8.41 19.65 19.65 0 0 0-12.06.31 9.86 9.86 0 0 0-2.86 1.49c-3 2.39-5.82 4.88-8.7 7.35-4.56 3.9-9.42 7.28-15.14 9.27-4.11 1.43-8.16 3-12.31 4.31a33.49 33.49 0 0 1-18.49.14 14.75 14.75 0 0 1-4.11-1.79c-3.12-1.93-3.66-4.7-1.22-7.53 3-3.49 6.34-6.7 9.44-10.12 2.1-2.32 4.14-4.7 6-7.19 3.12-4.1 6-8.36 9.16-12.46 2.71-3.57 5.46-7.11 8.4-10.48a97.6 97.6 0 0 0 10.24-15.05 21 21 0 0 0 3-10.9c0-4.64.06-9.28-.06-13.91-.2-7.57 2.59-14.06 6.94-20 2.87-3.95 6-7.74 8.54-11.92a29.64 29.64 0 0 0 4.24-18.27 53.56 53.56 0 0 0-6.38-21.36c-1.42-2.6-.88-3.73 1.89-4.84a160.49 160.49 0 0 1 34-9.43c3.36-.54 6.68-1.31 10-2.18a49.84 49.84 0 0 1 14.11-1.34c6.53.16 13.11 0 19.56.79a157.5 157.5 0 0 1 21.17 4.28 193.71 193.71 0 0 1 21.27 7.08c12.48 5 24.78 10.44 35.76 18.4 1.1.8 2.14 1.67 3.23 2.47 3.54 2.57 3.73 2.66 1.65 6.51-4.24 7.88-4.34 16.2-2.84 24.64.83 4.7 3.41 8.46 8.25 9.74 5.72 1.52 10.85.11 14.81-4.45a32.72 32.72 0 0 0 4.55-6.25c1.47-2.86 2.89-5.71 2.82-9.24A134.34 134.34 0 0 1 613 305a26.77 26.77 0 0 1 4.83-12.87c.27-.39.87-.54 1.32-.8.15.12.28.24.41.36-1.52 5.77-3 11.54-4.08 17.43-1.93 10.4-2.72 20.77-1.23 31.28a39.55 39.55 0 0 1-2.8 21.62c-2.48 5.73-5.08 11.41-7.85 17-2.87 5.81-7.3 10.5-11.89 14.95a147.69 147.69 0 0 0-20.42 24.38 76.36 76.36 0 0 0-9 19 13.86 13.86 0 0 0-.61 3.62c-.41 8.15-.59 16.31-1.2 24.44-.49 6.5-1.35 13-4 19.06-3.36 7.58-7.43 14.84-10.61 22.48-3.7 8.9-7.33 17.91-7.8 27.75-.11 2.3-.19 4.62-.08 6.92.21 4.05 5.48 10.83 9.43 11.9a12.84 12.84 0 0 0 13.58-3.98c1.45-1.59 2.71-3.37 4.27-4.84 3.71-3.5 4-8.19 4.72-12.75.54-3.35.9-6.76 1.77-10 2-7.43 6.35-13.36 12.09-18.4 4.8-4.22 10.69-6.38 16.27-9.18 3.72-1.87 6.94-4.76 10.33-7.25.87-.64 1.53-1.55 2.34-2.27a3.69 3.69 0 0 1 1.09-.46c.12.47.41 1 .31 1.41a12.68 12.68 0 0 1-1 2.63 60.45 60.45 0 0 1-10.69 15.3c-2.8 2.91-4.92 6.49-7.28 9.82a63.65 63.65 0 0 0-4.19 6.42c-4.35 8.07-6 16.86-6.74 25.9a154.54 154.54 0 0 0 .39 22.87 104.83 104.83 0 0 1 0 18.75A45.12 45.12 0 0 1 574 611.75c-1.79 2.12-4.4 3.62-6.8 5.15a51.29 51.29 0 0 0-20.31 24.3c-2.55 6.17-3.54 12.45-4.1 19a27 27 0 0 1-6 14.48 7.39 7.39 0 0 1-3 2c-1.76.71-3 .08-3.25-1.85a21 21 0 0 1 0-7.25c1-3.95 2.74-7.7 3.86-11.62 1-3.37 2.05-6.87 2.06-10.31 0-6-.69-12-1.24-17.92a16.08 16.08 0 0 0-1.29-4.26c-2.39-6.2-3.67-12.85-7.27-18.55a32.63 32.63 0 0 0-5-6.35 4.58 4.58 0 0 0-7.59 1.84 6 6 0 0 0 .06 2.79 64.51 64.51 0 0 1 1.78 19 52.66 52.66 0 0 1-4.7 18c-3.94 8.59-9.49 16.11-15.6 23.25-6.56 7.67-9.54 16.66-9.74 26.62a17.43 17.43 0 0 0 1 5.61c1.88 5.82 3.91 11.59 5.92 17.37 1.95 5.6 2.26 11.25-.3 16.68a25 25 0 0 1-4.78 6.51c-2.22 2.26-4.32 1.51-4.85-1.7-.77-4.69-1.28-9.42-1.82-14.15a26.78 26.78 0 0 0-9.21-17.66c-3.15-2.79-6.26-5.55-7.87-9.75-2.18-5.66-1.53-10.68 1.34-16 4.52-8.33 8.59-16.9 12.64-25.47.84-1.78.8-4 1.12-6a55 55 0 0 0-4.83-32.64c-3-6.52-5.82-13.16-8.73-19.75-.77-1.74-5-3.43-6.69-2.5a2.66 2.66 0 0 0-1.09 1.93 25.32 25.32 0 0 0 .28 4.07c.5 4.74 1.33 9.47 1.4 14.21a26.84 26.84 0 0 1-1.79 8.67c-1 3.06-2.78 5.89-3.95 8.91a24.81 24.81 0 0 1-6 8.66c-6.29 6.29-14.19 10.47-20.85 16.26-7.66 6.67-14.11 14.2-15.08 24.83a120.35 120.35 0 0 0-.05 15.89 24.19 24.19 0 0 1-4.92 16c-1.35 1.81-2.86 1.93-4.64 1.4-1.53-.46-2.49-2.48-2-4.45.5-2.12 1.3-4.17 2-6.24 4.2-12.75 1.15-24-6.95-34.31-5.41-6.85-12.39-11.74-19.85-16.09a37.37 37.37 0 0 1-5.35-4.36c-6.07-5.27-11.58-11.11-12.8-19.36a97.39 97.39 0 0 1-.51-17c.12-3.92 1.61-7.84 1.44-11.71-.3-6.78-1.35-13.53-2.24-20.27a5.62 5.62 0 0 0-1.63-2.78c-2.06-2.17-4.29-1.73-5.24 1.16a33.15 33.15 0 0 0-1.55 7.16 34.77 34.77 0 0 1-5.55 15.58c-4.41 6.84-8.85 13.66-13.26 20.51-3.74 5.81-4.3 12.11-3.2 18.81 1 6.15 3.67 11.67 6 17.33 1.41 3.41 2.75 6.87 2.21 10.61-.7 4.94-1.67 9.84-5.2 13.74-2 2.19-3.17 2.47-5 .12a45.93 45.93 0 0 1-4.94-8.8c-3.06-6.65-6.83-12.62-13.12-16.81a25.07 25.07 0 0 0-14.74-4.16c-6.78.21-11.21-3.43-15.82-7.14-3.21-2.59-4.23-6.46-5.32-10.32-2.64-9.37-2.92-19.09-4.54-28.6-1.86-10.93-6.25-20.95-13.84-29.09-5.26-5.65-11.25-10.63-17.12-15.66a74.89 74.89 0 0 1-13.88-16.52 16 16 0 0 1-1.1-2.19c-1.51-3.49-3-7-4.5-10.48a7.44 7.44 0 0 1-.27-1.79 4.63 4.63 0 0 1 1.39.75q3.2 3.55 6.29 7.21c2.63 3.11 5 6.47 7.88 9.36 6.7 6.77 16.1 6.1 22.26 1.06A8.37 8.37 0 0 0 255 542c.92-6.67 1.7-13-2.61-19.54-3.75-5.66-9-9.13-14.1-12.59-6.19-4.19-8.71-9.45-8.72-16.37a91.72 91.72 0 0 1 .74-13.47 58.59 58.59 0 0 0-2.14-26.68 54.2 54.2 0 0 0-5.17-11.03c-2.68-4.55-5.75-8.89-8.81-13.21-2.19-3.09-4.7-5.94-7-9-3.42-4.57-6.67-9.23-8.54-14.7a5.25 5.25 0 0 1-.43-1.57c0-.91.13-1.83.2-2.74.64.61 1.26 1.25 1.91 1.84 3.1 2.82 6.19 5.63 9.32 8.42a50 50 0 0 0 5.57 4.75c2.79 1.84 5.83 3.3 8.74 4.95 7.89 4.46 14 10.6 17.69 19a36.4 36.4 0 0 0 6.56 10.72c4.75 5 12.63 6.52 18.26 2.94a14.88 14.88 0 0 0 7.17-10.83 33 33 0 0 0-6.4-23.89 29.57 29.57 0 0 0-7.06-6.74 73.66 73.66 0 0 1-16.71-16.63c-2.52-3.35-5.48-6.31-7.37-10.23-3.45-7.2-3.88-14.65-3.3-22.36s2.94-15 5.9-22.22c3.23-7.92 7.59-15.14 11.5-22.65 3.79-7.28 8.22-14.4 9.07-22.83a81.68 81.68 0 0 0 .06-11.39c-.05-1.43.07-2.27 1.51-2.82 5.58-2.16 11.12-4.41 16.67-6.62 5-2 10.06-4 15.12-5.94a50.46 50.46 0 0 1 7.79-2.42c7.34-1.44 14.69-2.85 22.09-3.92 8.49-1.23 17.06-2.17 25.65-1.65 12.24.73 24.39 1.73 36.15 5.92a182.3 182.3 0 0 1 18.18 7.14 17.81 17.81 0 0 1 3.19 1.8 5.41 5.41 0 0 1 1.64 2.25c.08.23-1 .93-1.63 1.4a5.51 5.51 0 0 0-1.87 5.89 22.17 22.17 0 0 0 2.12 5.73c2 3.67 4.37 7.18 6.53 10.79 2 3.34 3.18 6.87 2.64 10.86a44.29 44.29 0 0 0-.6 7.61c.18 4.3-2.59 7-5.42 9.09-4.11 3-5.8 7.47-8.32 11.42-3 4.71-3.57 10.28-4.28 15.64-.5 3.73-.13 7.6 0 11.39A26.18 26.18 0 0 1 393 382c-3.36 5.91-6.44 12-10 17.76a52.35 52.35 0 0 1-7.47 9.14c-6.78 6.78-12.67 14.64-21.61 18.94a50.09 50.09 0 0 1-9.05 3.68c-5.23 1.36-9.08 5-8.88 10.11s1.2 10.21 5.56 13.51a28.65 28.65 0 0 0 8.65 4.45c5.83 1.78 11.47 4.52 17.71 4.58a63.88 63.88 0 0 0 10.53-.69c5.49-.88 10.91-2.15 16.36-3.26zm7.46 96.66a45.72 45.72 0 0 0 26.8-5.64c1.74-1 3-2.71 4.65-3.9a37.56 37.56 0 0 0 9-9.9c3.19-4.74 6.05-9.63 12-12.13 6.88-2.87 12.91-7.43 18.62-12.41 3-2.59 4-4.74 2.45-8.37-1.19-2.85-1.72-3.56-4.68-3-7.41 1.36-14.82 2.13-22.36 1.21-6.18-.75-12.08-2.06-16.77-6.51-2.17-2-4.14-4.32-6.29-6.41-4.36-4.22-8.9-8.3-15.67-6.92-3.17.64-6.27 1.53-8.84 3.84s-3.49 2-6.06-.08a58 58 0 0 0-6.05-4.86 31.55 31.55 0 0 0-7.73-3.58c-5.52-1.56-14.13 1.31-17 5.68-3.72 5.71-9 8.83-15.38 10.68-10 2.91-20.22 2.13-30.4 1.44-3-.21-4.09.71-3.26 3.58a10.36 10.36 0 0 0 1.7 3.15c2.34 3.16 5.87 4.83 9.1 6.74 6.86 4.08 13.27 9.06 21.38 10.76 2.57.54 5.09 1.63 5 5.28A9.7 9.7 0 0 0 354 530a49.63 49.63 0 0 0 22.36 20.68c8.36 4.03 17.16 6.84 25.84 6.08zM367.67 301l-.16.66c-2.57-.18-5.15-.33-7.72-.54s-2.64-.3-2.15-3c1.08-6 4.18-10.84 8.35-15.15 2-2 1.92-3.69.19-5.26a3.65 3.65 0 0 0-5.71.49c-1.73 2.1-3.26 4.37-4.85 6.58-3 4.18-5 8.76-4.91 14 0 2.05-.84 2.41-2.69 2.53a49.94 49.94 0 0 0-7.64 1.28c-2.52.56-5 1.46-7.5 2s-3.15-.27-2.37-2.56c.89-2.57 2-5.07 3.09-7.56s2.47-4.85 3.54-7.35a3.6 3.6 0 0 0-1.57-4.9c-1.65-.76-3.12-.14-4.35 1.89-.77 1.28-1.35 2.7-2.21 3.91a32.46 32.46 0 0 0-6.33 18.22 3.1 3.1 0 0 1-1 2.3c-4.45 2.35-9 4.51-13.5 6.76-1.21.6-1.71.25-1.78-1.09-.31-5.85-.75-11.7 1.37-17.37a7.28 7.28 0 0 0 .69-3.56 4.53 4.53 0 0 0-2.08-2.61c-.43-.26-1.71.51-2.31 1.1a6.72 6.72 0 0 0-1.39 2.48c-2.73 8-5.45 16-2.46 24.68a3.43 3.43 0 0 1-.41 2.86 53.21 53.21 0 0 1-5.51 5.42c-2.37 2.05-3 4.69-1 7.13s3.61 5.09 7 6a16 16 0 0 1 4.95 2.73c7.26 5.27 15.9 6.88 24.27 9 9.91 2.55 20 .74 30-.18 8.34-.77 16.66-2.63 24.09-7 1.62-1 3.68-1.37 5-2.61 4.25-4 8.34-8.18 12.31-12.45 3.25-3.5 3.1-7.91-.39-11.24a72.71 72.71 0 0 0-8.48-7c-6-4.16-6.26-4.87-2.72-11.32a11.4 11.4 0 0 1 1.91-2.6c1.54-1.54 3.23-2.93 4.79-4.45s1.81-3.52.5-5.09c-1.52-1.81-3.49-2.18-5.36-.61-4.85 4.06-9.32 8.5-10.6 15-.42 2.16-1.14 1.76-2.71 1.23-3.4-1.01-6.86-1.75-10.19-2.75zm114.52 47.58c4.86-.45 9.72-.85 14.57-1.35 6.76-.7 13.44-1.81 19.4-5.38 3.6-2.16 7.12-4.47 10.69-6.71a102.55 102.55 0 0 0 8.91-5.67 9.2 9.2 0 0 0 3.18-7.16c.07-2.57-2.33-3.33-4.24-4.44-2.93-1.69-5.68-3.68-8.51-5.53-1.05-.69-1.6-1.71-1-2.79 2.72-4.46 4.64-9.74 10.79-10.83a3.12 3.12 0 0 0 2.65-3.2c.09-1.78-.62-3.36-2.52-3.68a7.08 7.08 0 0 0-4.25.28c-3.43 1.9-6.78 3.88-9.4 7.07-1.85 2.26-2.55 4.74-3.35 7.32-.38 1.26-1.1 2-2.38 1.11a32.49 32.49 0 0 0-15-4.9c-1.69-.17-2.18-.9-1.62-2.4 1.91-5.12 3.82-10.22 8.76-13.42a11.59 11.59 0 0 0 3.12-3.16c1.17-1.73.78-3-.81-4.23a4 4 0 0 0-5 0c-7.08 4.79-11.68 11.34-13 19.88-.31 2-1 2.37-2.86 2.39-5.17.05-10.34.27-15.5.57-2.83.16-3.05.09-2.42-2.87 1.28-6 4.82-10.56 9.18-14.61.39-.37.92-.6 1.33-.95 1.81-1.53 2.24-3.33 1.24-5s-3.37-2.52-5-1.39a32.47 32.47 0 0 0-6.67 5.85c-4.24 5.2-8.2 10.62-7.21 18 .39 2.91 0 3.25-2.63 4.08-4 1.26-8.08 2.43-12.08 3.76-1.61.54-2.26.2-2.34-1.52a22.12 22.12 0 0 1 3.81-14.32 10.82 10.82 0 0 0 1.74-4.42c.26-1.61-1.5-3.7-2.95-3.95a3.2 3.2 0 0 0-3.62 2c-.82 1.56-1.74 3.07-2.66 4.59a24 24 0 0 0-2.68 20c.55 1.82.42 3.14-1.44 4.05-3.19 1.55-4.89 4.62-7.08 7.18a4.84 4.84 0 0 0 .29 6.67 39.39 39.39 0 0 0 6.64 5.28 100.81 100.81 0 0 0 21.83 9.77c6.71 1.99 13.17 3.72 20.09 4.07zm39.63 39.07c0 4.92 2.51 6.61 6.07 5a25 25 0 0 0 3.77-2.32c3.58-2.43 6.9-5.38 10.76-7.24a23.35 23.35 0 0 1 15.6-1.4 16.36 16.36 0 0 0 9.17-.46c1.49-.49 2.95-.74 3.37-2.46a4 4 0 0 0-1.78-4.27c-.64-.5-1.37-.9-2-1.45-6.32-5.73-6.57-10.8-.87-17.13a7.84 7.84 0 0 0 .54-.61c1.15-1.63.83-5.1-.64-6.9-1.27-1.57-3.11-1.71-5.53-.56-1.83.86-3.74 1.56-5.6 2.37-4.07 1.77-7.59 1.06-10.9-2a18.29 18.29 0 0 0-5.49-3.28c-2.5-1-2.8-.6-3.27 2.2-1.52 9.06-4.64 12.56-13.36 12.94-4.38.19-5.68 2.89-3.34 6.66a7.35 7.35 0 0 0 3 2.51c6.77 3.34 8 9.95 2.74 15.21a19.42 19.42 0 0 0-2.24 3.23z"/><path class="c" d="M394.29 220.74c-.83 4.53.67 9.2 2.34 13.82 2 5.51 8.21 8.78 14.06 8 4.95-.62 9.87-1.42 13.5-5 4.56-4.5 7.65-9.85 7-16.67a6.23 6.23 0 0 1 .07-2.4c.82-2.64 0-5.06-.54-7.61-1-4.36-1.74-8.79-2.3-13.23-.86-6.86 3-11.6 7.66-15.88a1.18 1.18 0 0 1 1-.27c.25.13.4.66.41 1 0 3 .16 5.92 0 8.87a15.2 15.2 0 0 0 2.41 8.55c4 6.81 8.93 12.61 16.61 15.64 12.07 4.77 23.72 3.69 35.17-1.88 2.06-1 3.92-2.45 6-3.38a9.12 9.12 0 0 1 10.74 2.36 44.43 44.43 0 0 0 8 7c2.07 1.37 3.76 3.23 6.28 4.12 9.08 3.19 20.09.26 25.81-8s7.49-17.5 2.89-27c-3-6.21-6.4-12.24-9.62-18.36q-3.42-6.49-6.82-13a4.45 4.45 0 0 1-.61-1.51c-1-10.2-.93-20.2 5.4-29a7.25 7.25 0 0 1 1.46-1.2 5.5 5.5 0 0 1 .38 1.84 67.12 67.12 0 0 1-1.81 9.18c-1.19 3.74-.37 7.35.32 10.88 1.91 9.67 7.5 17.42 14 24.5 2.73 3 6.3 5.18 9.26 8 3.93 3.75 7.79 7.6 11.39 11.67a100.73 100.73 0 0 1 7.37 9.77c4.75 6.87 5.57 14.35 2.9 22.2a98.27 98.27 0 0 0-3.48 14.61c-.92 5.2.75 9.71 2.5 14.23a54.12 54.12 0 0 0 4.87 9.41c5.56 8.72 6.14 18.1 4.08 27.86-.6 2.82-2 3.29-3.86 1.42-9.3-9.16-20.85-14.68-32.37-20.28-8.49-4.13-17.52-6.53-26.68-8.39a237.36 237.36 0 0 0-37.08-5c-2.57-.11-5.17.43-7.72.23-11.51-.91-22.61 1.87-33.83 3.56-1.84.28-3.56 1.35-5.37 1.94a131.09 131.09 0 0 0-14.6 6.09 65 65 0 0 1-11.09 3.77c-1.08.29-2.58-.56-3.76-1.15-4.35-2.14-8.65-4.4-13-6.59a15.19 15.19 0 0 1-2.57-1.22c-4.92-3.88-10.91-5.42-16.58-7.66-.75-.3-1.64-.27-2.38-.58-10.83-4.57-22.33-5.51-33.86-6.26-3.12-.21-6.23-.6-9.34-.56q-6.72.08-13.42.67-12.3 1.09-24.58 2.5a57.33 57.33 0 0 0-8.78 1.75c-6.14 1.72-12.26 3.54-18.32 5.53-4.76 1.57-9.44 3.4-14.11 5.21-1.33.52-1.74 0-2-1.11-1.07-5.1-2.74-10-2.38-15.44.26-3.87.55-7.56 2.6-10.93.41-.68.87-1.33 1.28-2 .59-1 1.38-1.05 1.83-.08 1.47 3.21 4.33 4.62 7.39 5.23a16 16 0 0 0 10.72-1.67 6.62 6.62 0 0 0 1.91-1.48 96.07 96.07 0 0 0 7-8.53c3.12-4.63 7.59-6.59 12.79-6.83 9.47-.42 18.67-2 27.23-6.12 5.59-2.71 9.83-7.1 13.58-12 5.59-7.36 8.17-15.92 10.45-24.64a11.6 11.6 0 0 0 .2-2.44 55.68 55.68 0 0 1 3.71-19.17c1.61-3.92 4.67-7.24 7.12-10.8.19-.28.68-.35 1-.52.09.48.41 1.07.25 1.44-1.77 4.07-2.11 8.38-2.64 12.72-.67 5.36.57 10.28 2.6 15.07 3.53 8.28 9.47 14.49 17 19.3 6.54 4.2 10.19 10.5 12.39 17.66.76 2.4.4 5.14.57 8.24z"/><path class="a" d="M620 289.63c.61-.85 1.22-1.69 1.86-2.51 0 0 .39.19.6.29l-2 2.65zm.4.43l-.21.13-.8.14.59-.7z"/><path class="b" d="M619.39 290.33l.8-.14c-.21.49-.43 1-.64 1.46-.13-.12-.26-.24-.41-.36.08-.29.17-.64.25-.96zm-224.6 169.84l.28-.15-.33.08z"/><path d="M402.2 556.76c-8.68.76-17.48-2-25.88-6.1A49.63 49.63 0 0 1 354 530a9.7 9.7 0 0 1-1.59-4.59c.11-3.65-2.41-4.74-5-5.28-8.11-1.7-14.52-6.68-21.38-10.76-3.23-1.91-6.76-3.58-9.1-6.74a10.36 10.36 0 0 1-1.7-3.15c-.83-2.87.22-3.79 3.26-3.58 10.18.69 20.37 1.47 30.4-1.44 6.35-1.85 11.66-5 15.38-10.68 2.85-4.37 11.46-7.24 17-5.68a31.55 31.55 0 0 1 7.73 3.58 58 58 0 0 1 6.05 4.86c2.57 2.09 3.62 2.26 6.06.08s5.67-3.2 8.84-3.84c6.77-1.38 11.31 2.7 15.67 6.92 2.15 2.09 4.12 4.36 6.29 6.41 4.69 4.45 10.59 5.76 16.77 6.51 7.54.92 14.95.15 22.36-1.21 3-.54 3.49.17 4.68 3 1.51 3.63.52 5.78-2.45 8.37-5.71 5-11.74 9.54-18.62 12.41-6 2.5-8.83 7.39-12 12.13a37.56 37.56 0 0 1-9 9.9c-1.64 1.19-2.91 2.95-4.65 3.9a45.72 45.72 0 0 1-26.8 5.64zm33.8-41.94c2.48-.58 5-1.08 7.45-1.74 1.86-.5 3.67-1.21 5.5-1.82-2.07-.63-4.13-1.29-6.21-1.89a9.57 9.57 0 0 0-1.62-.15 26.49 26.49 0 0 1-19.87-12c-3.07-4.56-11.85-7.9-17.12-2.63-3.66 3.67-8.45 3.42-12.6.25-1.94-1.49-3.77-3.12-5.56-4.78-5.28-4.88-12.07-4.73-17 .41-1 1.09-2.06 2.19-3.14 3.22-4.8 4.57-9.92 8.51-16.94 8.95a34.16 34.16 0 0 0-5.19.9 4.85 4.85 0 0 0-1.4.94c.58.27 1.17.78 1.74.77 3.35-.09 6.8.14 10-.58 3.93-.88 7.68-2.58 11.5-4s7.35-2.85 11.09-4.08a6.75 6.75 0 0 1 6.48 1.27c3.92 2.86 7.75 5.95 12.8 6.92a8.92 8.92 0 0 0 5.47-.67c2.86-1.16 5.87-2.41 8.89-2.63 3.62-.27 6.94.6 9.46 4.22 3.79 5.44 8.88 9.3 16.27 9.12zm-29.65 24.32c2.56-.35 5.13-.61 7.65-1.07 5.07-.94 10.17-1.83 14.87-4.12.31-.15.52-.54.77-.81-.39-.25-.81-.75-1.17-.71-1.89.18-3.75.7-5.62.74-5.72.1-11.44-.12-17.15.06a69.07 69.07 0 0 1-16.54-1.72c-3.7-.77-7.36-1.73-11.05-2.52-2.64-.56-5.3-1-8-1.46-.87-.15-1.77-.17-2.65-.25a11.37 11.37 0 0 0 1.9 1.84c9.14 5.47 19.32 7.56 29.68 9.06 2.45.34 4.87.63 7.32.96zM367.67 301c3.37.92 6.79 1.7 10.09 2.83 1.57.53 2.29.93 2.71-1.23 1.28-6.53 5.75-11 10.6-15 1.87-1.57 3.84-1.2 5.36.61 1.31 1.57 1.17 3.47-.5 5.09s-3.25 2.91-4.79 4.45a11.4 11.4 0 0 0-1.91 2.6c-3.54 6.45-3.26 7.16 2.72 11.32a72.71 72.71 0 0 1 8.48 7c3.49 3.33 3.64 7.74.39 11.24-4 4.27-8.06 8.45-12.31 12.45-1.31 1.24-3.37 1.65-5 2.61-7.43 4.38-15.75 6.24-24.09 7-9.93.92-20.05 2.73-30 .18-8.37-2.16-17-3.77-24.27-9a16 16 0 0 0-4.95-2.73c-3.39-.92-5.05-3.64-7-6s-1.36-5.08 1-7.13a53.21 53.21 0 0 0 5.51-5.42 3.43 3.43 0 0 0 .41-2.86c-3-8.63-.27-16.65 2.46-24.68a6.72 6.72 0 0 1 1.39-2.48c.6-.59 1.88-1.36 2.31-1.1a4.53 4.53 0 0 1 2.08 2.61 7.28 7.28 0 0 1-.69 3.56c-2.12 5.67-1.68 11.52-1.37 17.37.07 1.34.57 1.69 1.78 1.09 4.51-2.25 9.05-4.41 13.5-6.76a3.1 3.1 0 0 0 1-2.3 32.46 32.46 0 0 1 6.42-18.26c.86-1.21 1.44-2.63 2.21-3.91 1.23-2 2.7-2.65 4.35-1.89a3.6 3.6 0 0 1 1.57 4.9c-1.07 2.5-2.42 4.87-3.54 7.35s-2.2 5-3.09 7.56c-.78 2.29-.07 3.06 2.37 2.56s5-1.43 7.5-2a49.94 49.94 0 0 1 7.64-1.28c1.85-.12 2.72-.48 2.69-2.53-.08-5.24 1.89-9.82 4.91-14 1.59-2.21 3.12-4.48 4.85-6.58a3.65 3.65 0 0 1 5.71-.49c1.73 1.57 1.79 3.21-.19 5.26-4.17 4.31-7.27 9.15-8.35 15.15-.49 2.69-.48 2.77 2.15 3s5.15.36 7.72.54zM357 314.19c-9 .09-17.79 1.94-26.43 4.43a11.13 11.13 0 0 0-2.2 1.06 4.58 4.58 0 0 0-.84.81 5.18 5.18 0 0 0 1.26.6c4.87.76 9.92 1.41 13.89 4.42 5.41 4.09 10.68 8.46 14.21 14.5 1.93 3.31 2.83 3.38 6.77 2.73a58.76 58.76 0 0 0 18-6.3c1.46-.77 2.16-1.47 1.38-3.15a15.61 15.61 0 0 1-.26-12.68c.64-1.68.33-2.64-1.36-3.08-4.34-1.14-8.63-2.59-13-3.23-3.8-.54-7.64-.11-11.42-.11zm125.19 34.43c-6.92-.35-13.38-2.08-20-4a100.81 100.81 0 0 1-21.83-9.77 39.39 39.39 0 0 1-6.64-5.28 4.84 4.84 0 0 1-.29-6.67c2.19-2.56 3.89-5.63 7.08-7.18 1.86-.91 2-2.23 1.44-4.05a24 24 0 0 1 2.68-20c.92-1.52 1.84-3 2.66-4.59a3.2 3.2 0 0 1 3.62-2c1.45.25 3.21 2.34 2.95 3.95a10.82 10.82 0 0 1-1.74 4.42 22.12 22.12 0 0 0-3.81 14.32c.08 1.72.73 2.06 2.34 1.52 4-1.33 8.05-2.5 12.08-3.76 2.65-.83 3-1.17 2.63-4.08-1-7.39 3-12.81 7.21-18a32.47 32.47 0 0 1 6.67-5.85c1.64-1.13 4.07-.18 5 1.39s.57 3.5-1.24 5c-.41.35-.94.58-1.33.95-4.36 4.05-7.9 8.64-9.18 14.61-.63 3-.41 3 2.42 2.87 5.16-.3 10.33-.52 15.5-.57 1.85 0 2.55-.41 2.86-2.39 1.32-8.54 5.92-15.09 13-19.88a4 4 0 0 1 5 0c1.59 1.27 2 2.5.81 4.23a11.59 11.59 0 0 1-3.12 3.16c-4.94 3.2-6.85 8.3-8.76 13.42-.56 1.5-.07 2.23 1.62 2.4a32.49 32.49 0 0 1 15 4.9c1.28.85 2 .15 2.38-1.11.8-2.58 1.5-5.06 3.35-7.32 2.62-3.19 6-5.17 9.4-7.07a7.08 7.08 0 0 1 4.25-.28c1.9.32 2.61 1.9 2.52 3.68a3.12 3.12 0 0 1-2.65 3.2c-6.15 1.09-8.07 6.37-10.79 10.83-.65 1.08-.1 2.1 1 2.79 2.83 1.85 5.58 3.84 8.51 5.53 1.91 1.11 4.31 1.87 4.24 4.44a9.2 9.2 0 0 1-3.18 7.16 102.55 102.55 0 0 1-8.91 5.67c-3.57 2.24-7.09 4.55-10.69 6.71-6 3.57-12.64 4.68-19.4 5.38-4.94.47-9.8.87-14.66 1.32zm7.64-35.54c-5.68.52-9.86.88-14 1.32-.42 0-.79.56-1.18.85a4.91 4.91 0 0 0 .72.89 3.74 3.74 0 0 0 1.1.53c6.68 2.17 11.85 6.49 16.33 11.69a82.4 82.4 0 0 1 5.82 7.84c1.07 1.61 2.17 2.22 4.06 1.53 3.81-1.38 7.73-2.48 11.49-4 2.67-1.07 2.53-1.27 1.52-4.36a10.76 10.76 0 0 1-.41-3.21q0-3.06.19-6.11a2.09 2.09 0 0 0-1.53-2.49 22.21 22.21 0 0 0-3.42-1.34c-7.37-1.22-14.73-2.22-20.69-3.14zm31.99 74.61a19.42 19.42 0 0 1 2.24-3.12c5.22-5.26 4-11.87-2.74-15.21a7.35 7.35 0 0 1-3-2.51c-2.34-3.77-1-6.47 3.34-6.66 8.72-.38 11.84-3.88 13.36-12.94.47-2.8.77-3.19 3.27-2.2a18.29 18.29 0 0 1 5.49 3.28c3.31 3 6.83 3.73 10.9 2 1.86-.81 3.77-1.51 5.6-2.37 2.42-1.15 4.26-1 5.53.56 1.47 1.8 1.79 5.27.64 6.9a7.84 7.84 0 0 1-.54.61c-5.7 6.33-5.45 11.4.87 17.13.6.55 1.33.95 2 1.45a4 4 0 0 1 1.78 4.27c-.42 1.72-1.88 2-3.37 2.46a16.36 16.36 0 0 1-9.17.46 23.35 23.35 0 0 0-15.6 1.4c-3.86 1.86-7.18 4.81-10.76 7.24a25 25 0 0 1-3.77 2.32c-3.56 1.54-6.03-.15-6.07-5.07zM547.46 360a37.13 37.13 0 0 0-3.44-2.1c-2.88-1.36-3.08-1.16-4.89 1.37-1.48 2.09-3 4.39-5 5.84-3.74 2.69-2.69 3.64-1.14 6.79.91 1.86 1.72 1.93 3.05.51q4.89-5.19 9.75-10.42c.49-.51.88-1.05 1.67-1.99z"/><path d="M436 514.82c-7.4.21-12.49-3.68-16.27-9.11-2.52-3.62-5.84-4.49-9.46-4.22-3 .22-6 1.47-8.89 2.63a8.92 8.92 0 0 1-5.47.67c-5.05-1-8.88-4.06-12.8-6.92a6.75 6.75 0 0 0-6.48-1.27c-3.74 1.23-7.39 2.73-11.09 4.08s-7.57 3.09-11.5 4c-3.22.72-6.67.49-10 .58-.57 0-1.16-.5-1.74-.77a4.85 4.85 0 0 1 1.4-.94 34.16 34.16 0 0 1 5.19-.9c7-.44 12.14-4.38 16.94-8.95 1.08-1 2.1-2.13 3.14-3.22 5-5.14 11.74-5.29 17-.41 1.79 1.66 3.62 3.29 5.56 4.78 4.15 3.17 8.94 3.42 12.6-.25 5.27-5.27 14.05-1.93 17.12 2.63a26.49 26.49 0 0 0 19.87 12 9.57 9.57 0 0 1 1.62.15c2.08.6 4.14 1.26 6.21 1.89-1.83.61-3.64 1.32-5.5 1.82-2.45.65-4.96 1.15-7.45 1.73zm-29.64 24.32c-2.45-.33-4.87-.62-7.27-1-10.36-1.5-20.54-3.59-29.68-9.06a11.37 11.37 0 0 1-1.9-1.84c.88.08 1.78.1 2.65.25 2.66.46 5.32.9 8 1.46 3.69.79 7.35 1.75 11.05 2.52a69.07 69.07 0 0 0 16.54 1.72c5.71-.18 11.43 0 17.15-.06 1.87 0 3.73-.56 5.62-.74.36 0 .78.46 1.17.71-.25.27-.46.66-.77.81-4.7 2.29-9.8 3.18-14.87 4.12-2.56.5-5.13.76-7.69 1.11zM357 314.19c3.79 0 7.63-.43 11.34.11 4.41.64 8.7 2.09 13 3.23 1.69.44 2 1.4 1.36 3.08a15.61 15.61 0 0 0 .26 12.68c.78 1.68.08 2.38-1.38 3.15a58.76 58.76 0 0 1-18 6.3c-3.94.65-4.84.58-6.77-2.73-3.53-6-8.8-10.41-14.21-14.5-4-3-9-3.66-13.89-4.42a5.18 5.18 0 0 1-1.26-.6 4.58 4.58 0 0 1 .84-.81 11.13 11.13 0 0 1 2.2-1.06c8.71-2.49 17.51-4.34 26.51-4.43zm132.83-1.11c6 .89 13.32 2 20.66 3.14a22.21 22.21 0 0 1 3.42 1.34 2.09 2.09 0 0 1 1.53 2.49q-.21 3-.19 6.11a10.76 10.76 0 0 0 .41 3.21c1 3.09 1.15 3.29-1.52 4.36-3.76 1.52-7.68 2.62-11.49 4-1.89.69-3 .08-4.06-1.53a82.4 82.4 0 0 0-5.82-7.84c-4.48-5.2-9.65-9.52-16.33-11.69a3.74 3.74 0 0 1-1.1-.53 4.91 4.91 0 0 1-.72-.89c.39-.29.76-.81 1.18-.85 4.2-.4 8.35-.8 14.03-1.32z" fill="#e83131"/><path class="c" d="M547.46 360c-.79 1-1.18 1.51-1.63 2q-4.86 5.22-9.75 10.42c-1.33 1.42-2.14 1.35-3.05-.51-1.55-3.15-2.6-4.1 1.14-6.79 2-1.45 3.48-3.75 5-5.84 1.81-2.53 2-2.73 4.89-1.37a37.13 37.13 0 0 1 3.4 2.09z"/></svg>