<svg xmlns="http://www.w3.org/2000/svg" viewBox="0 0 800 800"><defs><style>.cls-2,.cls-3{fill:none;stroke:#00f;stroke-linejoin:bevel;stroke-width:3px}.cls-3{fill:#00f}.cls-4{mix-blend-mode:multiply}.cls-5{fill:red}</style></defs><g style="isolation:isolate"><g id="Layer_1" data-name="Layer 1"><path class="cls-2" d="M413.66 247.52s-34 69-34 160.78c0 46.49 4.37 79.54 8.68 100.85a135.66 135.66 0 0 0 15.46 40.64 72.93 72.93 0 0 1 9.83 36.58c0 42.23-35.89 66.46-80.16 66.46h2.83c-44.27 0-80.16-24.23-80.16-66.46a72.93 72.93 0 0 1 9.86-36.58 135.66 135.66 0 0 0 15.46-40.64c4.31-21.31 8.69-54.36 8.69-100.85 0-91.75-34-160.78-34-160.78"/><ellipse class="cls-2" cx="334.92" cy="247.52" rx="78.75" ry="9.2"/><ellipse class="cls-3" cx="334.92" cy="252.52" rx="66.07" ry="4.2"/><path class="cls-2" d="M278.55 254.23s34 92.26 104.32 104.79M323.58 256.62s16.65 49.82 64.81 69.72M364.77 256s5.12 28.48 30.78 41.34M280.8 323.36s28.82 60.86 98.95 78.2"/><path class="cls-3" d="M284.36 492.76s54 36.54 101.11 0v8.12l5.28 18c-54.47 44.67-110.95 0-110.95 0l5-18z"/><path class="cls-2" d="M299.22 350.55s15.34 53 0 150.33M335.78 382.71v126.25M319.39 370.7s8.18 53.41-3.33 135.47M365.41 397.23s-2.52 53.31 4.14 104.65M350.78 391.09s-2.57 68.4 2.77 116.44"/><path class="cls-3" d="M336.33 652.83h-2.83zM335.28 637.58c-17.59 0-33.38 2-44.23 5.1 12.52 6.46 27.6 9.93 43.87 10.12 16.37-.19 31.55-3.71 44.12-10.25-10.84-3.06-26.43-4.97-43.76-4.97z"/><path class="cls-2" d="M336.93 648h-3.51zM280.84 635.4a208.82 208.82 0 0 1 109-.17M291.76 527.48L285.52 545a108 108 0 0 0 6.24 86.77M311.2 534.28l-2.47 9.38a149.65 149.65 0 0 0 2.47 84.42M335.78 538.72l-.16 89.36M379.79 527.48L386 545a108 108 0 0 1-6.24 86.77M360.36 534.28l2.46 9.38a149.65 149.65 0 0 1-2.46 84.42M266 549.79s70.12 46.06 137.83 0M261.25 611.92s74.86-23.8 147.33 0M413.66 247.52s-75.82 44.93-102.46 115.82"/><g class="cls-4"><path class="cls-5" d="M348.53 651c-4.62-22.71-8.24-45.6-12.64-68.35s-9.36-45.62-13.43-68.55c-8.42-47.5-12.08-95.3-13.1-143.49-.48-22.95-.78-45.94-.61-68.9.15-20.1 1.1-40.47 6.31-60 5.06-19 14.55-36.47 29.33-49.62 13.89-12.36 31.18-20.35 49.08-24.93 19.94-5.11 41.55-6.62 61.93-3.46 19.49 3 39.44 11.11 49.47 29.11.94 1.69 3.53.18 2.59-1.51-17.8-31.93-62.36-34.79-94.57-30.81C376.34 165 340.16 182 322 215.54c-20.07 37.14-16.48 82.79-16.12 123.53.44 49.73 2 99.5 9.23 148.77 4.09 27.73 9.65 55.22 15.27 82.67 5.52 27 9.73 54.24 15.22 81.24.38 1.89 3.27 1.09 2.89-.8z"/></g><g class="cls-4"><path class="cls-5" d="M498.38 274.4c-12.58-20.2-31.65-78.66 9.45-80 15.94-.51 28 11.26 33.73 25.27 6.71 16.5 4.9 34.77 3.2 52.06-.18 1.92 2.82 1.91 3 0 2.56-26.15 4.22-63.52-24.29-77.06-9.71-4.61-22.09-4.6-31.22 1.4-10.73 7-13.16 20.43-12.31 32.4a104.41 104.41 0 0 0 15.85 47.42c1 1.64 3.62.14 2.59-1.51z"/></g><g class="cls-4"><path class="cls-5" d="M499.46 277.39c22.32-19.18 33.86-54.13 23.44-82.27-.66-1.79-3.56-1-2.89.8 10.08 27.22-1.09 60.8-22.68 79.35-1.46 1.26.67 3.37 2.13 2.12z"/></g><g class="cls-4"><path class="cls-5" d="M546.82 269.7c-10.49-2-22.73-10.92-26.21-21.26-.61-1.82-3.51-1-2.89.8 3.82 11.35 16.74 21.17 28.3 23.35 1.89.36 2.7-2.53.8-2.89z"/></g><g class="cls-4"><path class="cls-5" d="M504.82 273.51a31.27 31.27 0 0 0 27.75-6.51c1.49-1.23-.65-3.35-2.12-2.12a28.09 28.09 0 0 1-24.83 5.71c-1.88-.45-2.68 2.44-.8 2.89z"/></g><g class="cls-4"><path class="cls-5" d="M532.5 265.53a23.6 23.6 0 0 1-17.7-6.71l4.37-6.3 8.77 8.72z"/><path class="cls-5" d="M532.5 264a22.65 22.65 0 0 1-16.63-6.27l.23 1.82 4.36-6.31-2.35.31c4.4 4.38 8.81 8.75 13.33 13 1.4 1.33 3.53-.79 2.12-2.12-4.52-4.26-8.92-8.63-13.33-13a1.53 1.53 0 0 0-2.36.31l-4.36 6.31a1.5 1.5 0 0 0 .23 1.81A25.82 25.82 0 0 0 532.5 267c1.92 0 1.93-3 0-3z"/></g><g class="cls-4"><path class="cls-5" d="M482.06 211.47a271 271 0 0 1 9.85 30.21 1.5 1.5 0 0 0 2.89-.8 271.67 271.67 0 0 0-9.8-30.21c-.7-1.78-3.6-1-2.9.8z"/></g><g class="cls-4"><path class="cls-5" d="M488.13 200.62c2.3 7.46 5.64 14.55 7.95 22 .57 1.84 3.47 1.06 2.89-.79-2.3-7.46-5.64-14.56-8-22-.57-1.84-3.46-1-2.89.8z"/></g><g class="cls-4"><path class="cls-5" d="M496.55 195.65c2.1 5.55 3.73 11.29 5.32 17a1.5 1.5 0 0 0 2.89-.8c-1.59-5.71-3.22-11.46-5.32-17-.68-1.79-3.58-1-2.89.8z"/></g><g class="cls-4"><path class="cls-5" d="M543.87 229.1c-2.55 2.76-5.15 5.48-7.86 8.09-1.4 1.34.73 3.46 2.12 2.12 2.71-2.61 5.32-5.33 7.86-8.09 1.31-1.42-.8-3.55-2.12-2.12z"/></g><g class="cls-4"><path class="cls-5" d="M545.46 237.14l-10 9.48c-1.4 1.34.72 3.45 2.12 2.13l10-9.49c1.41-1.33-.72-3.45-2.12-2.12z"/></g><g class="cls-4"><path class="cls-5" d="M545.83 246q-4.92 5.09-10.3 9.7c-1.47 1.26.67 3.38 2.12 2.13q5.39-4.62 10.3-9.71c1.35-1.38-.77-3.51-2.12-2.12z"/></g><g class="cls-4"><path class="cls-5" d="M421.7 162.81c18.15-3.71 36-9.36 53.9-14.19l-1.7-2.2a32.46 32.46 0 0 1-13.56 15 1.5 1.5 0 0 0 1.51 2.59 35.11 35.11 0 0 0 14.64-16 1.51 1.51 0 0 0-1.69-2.2c-17.88 4.82-35.75 10.48-53.9 14.19-1.89.38-1.09 3.28.8 2.89z"/></g><g class="cls-4"><path class="cls-5" d="M346.59 191.45a306 306 0 0 1 44-1.47 1.51 1.51 0 0 0 1.06-2.56A48.79 48.79 0 0 0 365.21 176c-1.91-.22-1.89 2.78 0 3a45.19 45.19 0 0 1 24.29 10.55l1.06-2.56a306 306 0 0 0-44 1.47c-1.9.21-1.92 3.21 0 3z"/></g><g class="cls-4"><path class="cls-5" d="M311.6 257.63a51 51 0 0 1-5-44.89l-2.95-.4a31.62 31.62 0 0 0 8.77 24.66c1.33 1.41 3.45-.72 2.12-2.12a28.65 28.65 0 0 1-7.84-22.57c.15-1.79-2.4-1.9-2.94-.4a53.92 53.92 0 0 0 5.24 47.24c1 1.62 3.63.12 2.59-1.52z"/></g><g class="cls-4"><path class="cls-5" d="M522.75 334.48c-9.42-2.23-16.54 8.28-12.07 16.71 1.91 3.6 6.91 4.58 10.65 4 4.42-.65 6.41-5.78 5.62-9.79a1.45 1.45 0 0 0-1.05-1.05c-2.42-.57-5.32 0-7.79.13-1.92.1-1.93 3.1 0 3 2.09-.11 4.94-.72 7-.24l-1.05-1c.21 1-.16 3.72-.9 4.53-1.13 1.25-3.75 1.6-5.34 1.4-3.27-.42-5-2.32-5.21-5.6-.44-5.57 3.39-10.57 9.39-9.2 1.88.45 2.68-2.44.8-2.89z"/></g><g class="cls-4"><path class="cls-5" d="M518.24 360.68c-6 2-8.65 7.69-8.75 13.73-.09 5.41 3.31 10.74 9.31 10.31 11.72-.84 11.12-21.73.28-23.68-1.89-.33-2.7 2.56-.8 2.9 7.25 1.3 8.64 15.76 1.29 17.62-5 1.28-7.27-3.82-7.06-7.88.23-4.34 2.16-8.65 6.53-10.11 1.82-.61 1-3.51-.8-2.89z"/></g><g class="cls-4"><path class="cls-5" d="M518.76 388.88c-5.64-.2-8 7.26-8.59 11.72-.77 5.55.5 10.91 6.77 11.88 12.86 2 12.75-20 3.07-23.7-1.81-.7-2.59 2.2-.8 2.89 6 2.32 7 18.37-1.12 17.94-4.47-.23-5.45-3.92-5.09-7.63.29-2.86 1.7-10.24 5.76-10.1 1.93.07 1.93-2.93 0-3z"/></g><g class="cls-4"><path class="cls-5" d="M510.73 419.66q-.09 6 .07 12c.06 2.06-.48 5.46 1 7.19 2.54 3 8.48.42 10.83-1.47 3.66-2.93 4.11-7.89 2.44-12.06a13 13 0 0 0-12.84-8c-1.92.06-1.93 3.06 0 3 4.09-.14 7.87 1.64 9.76 5.39 2.17 4.3.88 9-3.81 10.74-5.25 1.92-4.35-2.51-4.44-6.3-.08-3.49-.08-7 0-10.49a1.5 1.5 0 0 0-3 0z"/></g><g class="cls-4"><path class="cls-5" d="M511.71 446.59l.1 10.57c0 2.43-.74 6.67.26 8.89 1.33 2.95 5.93 2.74 8.43 1.65a7.32 7.32 0 0 0 4.41-7.87c-.74-4.2-4.95-5.56-8.67-5.81l.39 3a6.58 6.58 0 0 0 4.54-7.58c-.71-3.75-4.42-4.44-7.68-4.49a1.5 1.5 0 0 0 0 3 12.39 12.39 0 0 1 2.85.25q4 3.5-.5 5.92a1.51 1.51 0 0 0 .4 2.95c3.42.23 8.24 3.24 4.53 7-1 1-3.3 1.85-4.6 1.28-1.5-.66-1.24-1.86-1.32-3.59-.25-5-.09-10.09-.14-15.11a1.5 1.5 0 0 0-3 0z"/></g><g class="cls-4"><path class="cls-5" d="M512 475.52c1.17 2.81 2.93 5.36 4.06 8.16 1.26 3.11 1 7.14 1.19 10.49.13 1.92 3.14 1.93 3 0-.21-3.21-.09-6.67-.77-9.81-.74-3.4-3.26-6.43-4.59-9.64-.72-1.76-3.63-1-2.89.8z"/></g><g class="cls-4"><path class="cls-5" d="M519.68 484.87q2.51-4.28 4.88-8.61c.93-1.69-1.66-3.21-2.59-1.51q-2.38 4.33-4.88 8.61a1.5 1.5 0 0 0 2.59 1.51z"/></g><g class="cls-4"><path class="cls-5" d="M512.88 502.79v11c0 2.86-.49 6.19.17 9a1.49 1.49 0 0 0 1.05 1.05c2.75.68 6.35-.21 9.17-.4 1.91-.14 1.93-3.14 0-3-1.76.12-4.56.94-6.21.43-1.9-.58-1.19-2.89-1.19-4.86v-13.22a1.5 1.5 0 0 0-3 0z"/></g><g class="cls-4"><path class="cls-5" d="M514.38 504.54a50 50 0 0 0 7.93-.28c1.89-.22 1.91-3.22 0-3a50 50 0 0 1-7.93.28c-1.93-.08-1.93 2.92 0 3z"/></g><g class="cls-4"><path class="cls-5" d="M515.1 514h3.6a1.5 1.5 0 0 0 0-3h-3.6a1.5 1.5 0 0 0 0 3z"/></g></g></g></svg>