<svg xmlns="http://www.w3.org/2000/svg" viewBox="0 0 800 800"><defs><style>.a{fill:#f4e976;}</style></defs><title>halloween-garden</title><path d="M162.07,52c4.5-2.57,7.61-2,11.76-2,56.69.07,113.37.3,170.06.32q139.59.06,279.19-.07c3.42,0,6.83-.13,10.24,0,6.09.2,7.27,1.46,7.27,7.7,0,17.69-.1,35.37-.08,53.05q.15,138.06.33,276.12c.06,70.54,0,141.07.07,211.61.06,37.17.49,74.35.6,111.52,0,11.63-.48,23.26-.62,34.89,0,3.76-2.13,4-5.13,4-16.47,0-32.94.15-49.42.23-27.88.13-55.77.32-83.65.35q-80.19.11-160.37.06-84.07,0-168.15.18a37.28,37.28,0,0,1-9.51-1.19c-5.71-1.47-6.25-5.63-6.17-10.73,1.09-67.52.46-135.05.74-202.57Q159.7,424.26,160,313c.19-82.82,1.49-165.63,1.52-248.45C161.5,60,162.07,52,162.07,52ZM635.4,743.6c.72-229.86.26-458.46-.56-687.79H167c-1.36,229.51-2.79,458.4-1.65,688.12C322.67,745,478.67,744.86,635.4,743.6Z"/><path class="a" d="M635.4,743.6c-156.73,1.26-312.73,1.41-470.06.33-1.14-229.72.29-458.61,1.65-688.12H634.84C635.66,285.14,636.12,513.74,635.4,743.6ZM391.5,522.73A41.43,41.43,0,0,0,395,519c16.64-24.73,22.46-51.55,15.51-80.79-.53-2.25-.67-5.39-3.54-5.75s-5,2.31-6.79,4.36a66.21,66.21,0,0,0-13.34,24c-.58,1.91-.56,4.37-2.87,5.58-2-8.32-3.92-16.52-5.93-24.7a15.07,15.07,0,0,1,1-9.89c8.86-21,12.39-42.73,8.35-65.37-1.56-8.72-3.82-17.26-8.07-25.11-2.6-4.8-5.75-4.9-8.42-.26a50.29,50.29,0,0,0-5.06,12.22c-2,7.83-4,15.67-6.28,24.38-5.14-9.24-11.81-17-7.42-27.79a15.63,15.63,0,0,0,.71-4.76c1.16-15.77.08-31.2-5.88-46.13-3.22-8.06-7.73-15.41-11.38-23.2-1-2.18-1.51-4-4.39-3.87s-4.09,1.74-4.49,4.53c-1.2,8.31-2.36,16.61-2.43,25-.05,6.46,0,12.92,0,19.38l-1.31.28a90.43,90.43,0,0,1-7.31-15.47,19.62,19.62,0,0,1-.69-12.13c2.11-8.22,2.21-16.86-1.44-24.71-7.08-15.23-18-27.42-31.63-37.17-5.25-3.77-7.43-3-10.11,2.9-1.31,2.87-2.09,5.94-5.95,6.88-15,3.63-23.7,14.36-31.28,26.86-3.68,6.05-3.87,13.56-9.39,18.92-2.23,2.16-2.15,6.83,2.34,9.06,2.87,1.42,5.73,3.14,7.38,6,6.24,10.81,11.71,22,14.84,34.12,7.3,28.3,9.52,57.35,13,86.24,1.5,12.58,1,25.11,2.15,37.75-10.7,2.48-17.43,8.77-19.76,18.77a43.07,43.07,0,0,0,.88,21.42c1.35,4.88,4.16,9.36,4.52,14.83-8.91-3.77-16.58-8.12-19-18a71.34,71.34,0,0,1-2.12-16.08c-.14-9.43-.49-18.86-1-28.29-.17-3.47-.4-7.13-5.21-10.4-.73,11.11,1.9,21.13.75,31-1.18,10.32-2.08,20.81-10.13,30.3a132,132,0,0,1,39.3,20.11,209.37,209.37,0,0,0-35.6,9.77c-.21-4.39.27-8-.65-11.16a104.19,104.19,0,0,0-23.34-41c-1.44-1.59-3-2.66-5.16-.22,5.54,9.8,10.67,19.63,13.42,30.71a66.3,66.3,0,0,1-.28,33.59c16.52-5.76,31.21-16.08,50-15.51-.45,5.26-3.89,9.59-4.31,14.66,0,.37-.92.68-1.41,1a281.94,281.94,0,0,0-43,34.67c-5,5-5.25,4.74-.94,10.54a24.07,24.07,0,0,1,1.8,3.12c5.33,10.11,5.68,21.18,6,32.21.21,6.36,0,12.73,0,18.73,2.29,1,3.78.83,4.2-.86,5.24-21.42,7.87-42.71-3.75-62.76a4,4,0,0,1,.34-1c10-12.12,23.68-19.74,35.65-29.46,1.66-1.35,3.15-.28,4.93.34,9.63,3.33,19.25,9.3,29.42.67.52,3.1-1.24,4.17-2.86,5.27-8.93,6-17.07.62-26.53-3,2.57,5.48-.07,8-2.43,11-7.41,9.29-12.78,19.51-11.74,31.89.58,6.81,2.54,13.4,4.4,20,1.7,6,3.92,11.81,3.39,18.21-.95,11.54-3.46,22.53-11.11,31.76,2.75,4.28,4.81,8.71,10,10.13,3.65-2.68,5-6.43,5.79-10.4,3.33-16.5,1.79-32.78-2.62-48.85-1.7-6.19-3.85-12.26-4.95-18.6-1.88-10.83,2.92-23.3,10.56-27.61,1.46,1.39.44,2.78.26,4.34-1.29,10.7-.47,20.79,8.47,28.59,5.71,5,9.26,4.84,13.83-1.34,5.16-7,6.72-14.82,5.61-23.35-.55-4.17-2.6-8.56,1.35-12.7,7.47,7,10.85,15.8,12.18,25.56,1.38,10.05-1.17,19.47-4.39,28.87-5,14.67-7.59,29.56-2.38,44.82,1.26,3.7,1.89,7.74,5.68,10.5,5.27-3.7,8.06-8.81,10.69-14.76-10.61-5.49-12-15.23-12.37-25.31-.25-6.18,2.1-11.88,4.21-17.48C303.31,599,300,580.37,286,563.43c-1.19-1.44-2.95-2.72-1.71-5.22,2.19-4.41,3-9.23,3-14.88,12.44,8.84,21.94,19.39,32,29.49-1.93,7.5-4.56,14.64-5.35,22.27-1.38,13.21-2.22,26.35.86,39.44.63,2.67,1.51,4.88,4.69,5.2.49-.77,1-1.24,1.06-1.75a33.24,33.24,0,0,0-.17-3.58,115.52,115.52,0,0,1,7.31-46c1.3-3.58,5.37-6.1,4.67-10.12s-5.39-5.06-8.07-7.7c-12-11.82-23.14-24.57-37.32-34-2.15-1.44-2.53-3.74-2.94-6.13,1.48-.52,2.59-1,3.75-1.28a17.35,17.35,0,0,1,3.57-.56c15.38-.5,29.8,3.29,43.52,10,4.23,2.06,5.19,1.64,5.46-2.93a174.17,174.17,0,0,1,12.93-57.26c.74-1.76,2.53-3.68.08-5.3-2.23-1.47-4,.22-5.07,1.83-5.78,8.68-11,17.54-13.18,28.06-1.85,9.08-4.88,17.92-6.1,27.71-14.74-6-29.14-8.6-44.3-7.05a79.61,79.61,0,0,1,36.75-16.37,4.67,4.67,0,0,0-1.25-4.43c-5.37-6.5-8.22-14.14-10.21-22.21-2.72-11.08-3.45-22.19-.67-33.36.44-1.79.59-3.33-1.43-3.87-2.19-.57-2.68,1.16-3,2.82-1.91,9.42-4.39,18.66-3.72,28.54.72,10.44,2.95,20.58,4.69,31.11-4,2-7.83,4.28-11.88,5.89s-6.8,5.35-11.39,6.55c0-2-.64-4,.11-5.13,4.57-6.7,4-14.5,5.21-21.94,2.87-17.21-1.48-25.27-18.14-31.89,1.79-20-2-40.27,3.7-60.56,4.19-15.06,12.49-26.8,22.35-38a9.33,9.33,0,0,1,2.06.84c1.73,1.37,3.39,2.83,5.09,4.24,13,10.81,27.73,18.71,44,22.67,7.07,1.71,10.56,4.2,12.15,11.16,2,8.61,5.62,16.82,6.73,25.86a100.94,100.94,0,0,0-21.35-16.17c-1.85-1-3.71-2.83-6.06-1.24s-1.28,3.9-1.05,6.05c2.58,24.53,14.85,44,32.78,59.86,7.11,6.28,11.38,12.42,11,22.21-.26,7.76,1.27,15.58,2.09,23.37.31,3-.47,5.07-3.57,6-4.54,1.36-9,3.24-13.58,4.19-9.09,1.87-11.51,2.41-12,12.74-1.75,34.94-1.83,69.47,13.18,102.26,6.26,13.68,14.24,26.29,24.88,36.66,18.62,18.16,42.35,24.36,67.6,26.14,10.69.75,20.78-2.28,30.77-5,17.86-4.93,34.21-13.32,46.63-27.35,16.29-18.41,27.23-39.85,34.44-63.46,6.69-21.86,10.88-43.94,11.1-66.81.08-9-.66-10.61-9.33-13.63-6.78-2.36-13.64-4.48-20.46-6.7a62.31,62.31,0,0,1,.05-8.12c2.41-17.49,5-35,7.45-52.46a124.43,124.43,0,0,1,19.93-52.41c5.72-8.62,13.09-15.68,20.32-22.9,1.77-1.77,3.92-3.32,3.67-6.58-13,8.59-23.17,20.17-33.15,32.21,5.67-30.8,14.89-59.88,33.75-85.26-13.74,7.79-18.3,22.21-26.09,34.37a302.43,302.43,0,0,0,3.62-43.23c0-4,.28-8-.71-12-.54-2.18-1-4.57-4.82-3.05,1.42,14,.34,28.08-2.13,42.08-1.3-9.13-2.14-18.27-3-27.4-.81-8.39-1.09-16.87-3.65-25-.69-2.19-1-5.34-5.12-5,7,46.29,11.58,92.32-1.6,138.1-1.69-9.66-2.66-19.37-4.09-29-.9-6.14-2.34-12.21-3.84-18.24-.67-2.69-2.25-4.73-5.46-2.58,8.61,41,11.54,81.62.12,122.33-1.5-.68-1.67-1.84-1.71-3.09-.91-27.14-6.33-53.78-8.83-80.76-1.56-16.8-3.45-33.45-2.38-50.36,1.25-19.72,7.36-37.5,19.08-53.48,2-2.77,5.52-5.12,5.48-10.13-7,4-10.15,11.17-16.4,15.09,4.62-23.7,17-43.45,30.72-62.62-10.62,6.64-16,17.57-23.47,26.91-.52-3.79-.37-7.36-.57-10.91-.18-3.17,1.53-7.39-5-8.88,2.48,30.84-10.71,58.33-14,87.7-2.25-9.39-4.12-18.57-7.55-27.34-.91-2.35-1.79-5.19-6.18-2.89,7.47,19.87,9.51,40.71,10.82,61.66-7.92-17.88-7.92-17.88-12.15-16.8,8,20.65,12.66,42.16,17,63.76,4.29,21.16,8.11,58,6.45,65.24-3.44-11.26-8-21.9-12.36-32.63-1.41-3.47-3.44-5.41-7.06-2.28,9.86,19.63,16.36,40,20.72,61.51-6.08,0-11.29-.22-16.46.07-4,.23-5.67-1.7-6.79-5.18-3.67-11.35-5.25-23-6-34.87-.83-13.1,1.49-26.06,1.1-39.13-.08-2.61-.58-4.26-2.78-6a53.18,53.18,0,0,0-14-8.28c.74-7.06-2-14.21,1.65-20.42A21.35,21.35,0,0,0,500.2,392c-.79-5.76-2.06-11.47-2.75-17.24-.91-7.6-1.9-15.59,1.53-22.57,4.28-8.72,4.36-17.3,2.3-26.3a86,86,0,0,1-2.23-14.27c-.15-2.73.27-5,2.33-7.11,2.95-3,3.65-6.94,3.46-11.15-.33-7.48-2-14.7-3.51-22-1.27-6.22-3.15-12.71,3.61-17.39a3.48,3.48,0,0,0,1.42-2.54c-.69-8.55,2.93-16.64,2.62-25.08-.33-9-6.09-13.76-15.16-13-5.66.46-10.6,3.22-15.91,5.45-.4-3.52-.75-6.67-1.09-9.7,14.1-8,16.38-15.2,10.41-34.42a67.1,67.1,0,0,0-6.82-15.39c-8-12.93-8.05-26.54-4.42-40.58a4,4,0,0,0-1.48-4.68c-1.93-1.55-3.36-.14-4.63,1.19a19.7,19.7,0,0,0-2.69,3.24c-6.46,10.78-13.45,21.31-18,33.09-2.31,6-4.5,12-5.4,18.44-2.76,19.65,3.62,31.24,21.92,39.58A14.09,14.09,0,0,1,463.23,220a85.4,85.4,0,0,1-8.35-4.2c-11-7.12-28.81,7.24-27.81,18.94,1.46,17.27,2.24,34.45-1.36,51.58-.67,3.18-.43,6.7,2.55,8.8,2.68,1.91,3,4.44,3.3,7.29,1.59,13.44-1.71,26.36-3.93,39.41-1.09,6.46-3.5,13.35.08,19.4,2.35,4,2.57,7.81,2.78,12,.47,9.22-3,17.76-4.35,26.66-.8,5.22-1.53,11.11,2.26,15,4.13,4.21,4.24,8.68,4.24,13.56-3.12,1.83-6,3.58-9,5.28-3.29,1.89-4.4,4.53-4.08,8.43,2.06,25.56-2.31,50.42-8.71,75-.54,2.08-1.18,3.76-3.72,4C402.39,521.55,397.65,522.09,391.5,522.73Z"/><path d="M251.05,551.56c-1.78-.62-3.27-1.69-4.93-.34-12,9.72-25.67,17.34-35.65,29.46a4,4,0,0,0-.34,1c11.62,20.05,9,41.34,3.75,62.76-.42,1.69-1.91,1.86-4.2.86,0-6,.17-12.37,0-18.73-.36-11-.71-22.1-6-32.21a24.07,24.07,0,0,0-1.8-3.12c-4.31-5.8-4.1-5.56.94-10.54a281.94,281.94,0,0,1,43-34.67c.49-.33,1.37-.64,1.41-1,.42-5.07,3.86-9.4,4.31-14.66-18.78-.57-33.47,9.75-50,15.51a66.3,66.3,0,0,0,.28-33.59c-2.75-11.08-7.88-20.91-13.42-30.71,2.12-2.44,3.72-1.37,5.16.22a104.19,104.19,0,0,1,23.34,41c.92,3.18.44,6.77.65,11.16a209.37,209.37,0,0,1,35.6-9.77A132,132,0,0,0,213.76,504c8.05-9.49,9-20,10.13-30.3,1.15-9.91-1.48-19.93-.75-31,4.81,3.27,5,6.93,5.21,10.4.47,9.43.82,18.86,1,28.29a71.34,71.34,0,0,0,2.12,16.08c2.43,9.88,10.1,14.23,19,18-.36-5.47-3.17-10-4.52-14.83A43.07,43.07,0,0,1,245,479.2c2.33-10,9.06-16.29,19.76-18.77-1.14-12.64-.65-25.17-2.15-37.75-3.45-28.89-5.67-57.94-13-86.24-3.13-12.16-8.6-23.31-14.84-34.12-1.65-2.87-4.51-4.59-7.38-6-4.49-2.23-4.57-6.9-2.34-9.06,5.52-5.36,5.71-12.87,9.39-18.92,7.58-12.5,16.33-23.23,31.28-26.86,3.86-.94,4.64-4,5.95-6.88,2.68-5.88,4.86-6.67,10.11-2.9,13.6,9.75,24.55,21.94,31.63,37.17,3.65,7.85,3.55,16.49,1.44,24.71a19.62,19.62,0,0,0,.69,12.13,90.43,90.43,0,0,0,7.31,15.47l1.31-.28c0-6.46,0-12.92,0-19.38.07-8.41,1.23-16.71,2.43-25,.4-2.79,1.49-4.38,4.49-4.53s3.37,1.69,4.39,3.87c3.65,7.79,8.16,15.14,11.38,23.2,6,14.93,7,30.36,5.88,46.13a15.63,15.63,0,0,1-.71,4.76c-4.39,10.8,2.28,18.55,7.42,27.79,2.24-8.71,4.24-16.55,6.28-24.38a50.29,50.29,0,0,1,5.06-12.22c2.67-4.64,5.82-4.54,8.42.26,4.25,7.85,6.51,16.39,8.07,25.11,4,22.64.51,44.38-8.35,65.37a15.07,15.07,0,0,0-1,9.89c2,8.18,3.94,16.38,5.93,24.7,2.31-1.21,2.29-3.67,2.87-5.58a66.21,66.21,0,0,1,13.34-24c1.77-2.05,3.77-4.74,6.79-4.36s3,3.5,3.54,5.75c6.95,29.24,1.13,56.06-15.51,80.79a41.43,41.43,0,0,1-3.48,3.73c6.15-.64,10.89-1.18,15.65-1.6,2.54-.22,3.18-1.9,3.72-4,6.4-24.61,10.77-49.47,8.71-75-.32-3.9.79-6.54,4.08-8.43,2.95-1.7,5.86-3.45,9-5.28,0-4.88-.11-9.35-4.24-13.56-3.79-3.86-3.06-9.75-2.26-15,1.37-8.9,4.82-17.44,4.35-26.66-.21-4.18-.43-8-2.78-12-3.58-6.05-1.17-12.94-.08-19.4,2.22-13.05,5.52-26,3.93-39.41-.33-2.85-.62-5.38-3.3-7.29-3-2.1-3.22-5.62-2.55-8.8,3.6-17.13,2.82-34.31,1.36-51.58-1-11.7,16.85-26.06,27.81-18.94a85.4,85.4,0,0,0,8.35,4.2,14.09,14.09,0,0,0,2.47-10.45C447.4,201.22,441,189.63,443.78,170c.9-6.41,3.09-12.48,5.4-18.44,4.56-11.78,11.55-22.31,18-33.09a19.7,19.7,0,0,1,2.69-3.24c1.27-1.33,2.7-2.74,4.63-1.19A4,4,0,0,1,476,118.7c-3.63,14-3.61,27.65,4.42,40.58a67.1,67.1,0,0,1,6.82,15.39c6,19.22,3.69,26.41-10.41,34.42.34,3,.69,6.18,1.09,9.7,5.31-2.23,10.25-5,15.91-5.45,9.07-.73,14.83,4,15.16,13,.31,8.44-3.31,16.53-2.62,25.08a3.48,3.48,0,0,1-1.42,2.54c-6.76,4.68-4.88,11.17-3.61,17.39,1.49,7.28,3.18,14.5,3.51,22,.19,4.21-.51,8.11-3.46,11.15-2.06,2.11-2.48,4.38-2.33,7.11a86,86,0,0,0,2.23,14.27c2.06,9,2,17.58-2.3,26.3-3.43,7-2.44,15-1.53,22.57.69,5.77,2,11.48,2.75,17.24a21.35,21.35,0,0,1-2.69,14.42c-3.64,6.21-.91,13.36-1.65,20.42a53.18,53.18,0,0,1,14,8.28c2.2,1.78,2.7,3.43,2.78,6,.39,13.07-1.93,26-1.1,39.13.75,11.86,2.33,23.52,6,34.87,1.12,3.48,2.79,5.41,6.79,5.18,5.17-.29,10.38-.07,16.46-.07-4.36-21.48-10.86-41.88-20.72-61.51,3.62-3.13,5.65-1.19,7.06,2.28,4.35,10.73,8.92,21.37,12.36,32.63,1.66-7.21-2.16-44.08-6.45-65.24-4.38-21.6-9-43.11-17-63.76,4.23-1.08,4.23-1.08,12.15,16.8-1.31-21-3.35-41.79-10.82-61.66,4.39-2.3,5.27.54,6.18,2.89,3.43,8.77,5.3,17.95,7.55,27.34,3.32-29.37,16.51-56.86,14-87.7,6.52,1.49,4.81,5.71,5,8.88.2,3.55.05,7.12.57,10.91,7.46-9.34,12.85-20.27,23.47-26.91-13.67,19.17-26.1,38.92-30.72,62.62,6.25-3.92,9.35-11.11,16.4-15.09,0,5-3.45,7.36-5.48,10.13-11.72,16-17.83,33.76-19.08,53.48-1.07,16.91.82,33.56,2.38,50.36,2.5,27,7.92,53.62,8.83,80.76,0,1.25.21,2.41,1.71,3.09,11.42-40.71,8.49-81.35-.12-122.33,3.21-2.15,4.79-.11,5.46,2.58,1.5,6,2.94,12.1,3.84,18.24,1.43,9.64,2.4,19.35,4.09,29C574.58,382.29,570,336.26,563,290c4.17-.36,4.43,2.79,5.12,5,2.56,8.11,2.84,16.59,3.65,25,.89,9.13,1.73,18.27,3,27.4,2.47-14,3.55-28.06,2.13-42.08,3.82-1.52,4.28.87,4.82,3.05,1,3.95.75,8,.71,12a302.43,302.43,0,0,1-3.62,43.23c7.79-12.16,12.35-26.58,26.09-34.37-18.86,25.38-28.08,54.46-33.75,85.26,10-12,20.14-23.62,33.15-32.21.25,3.26-1.9,4.81-3.67,6.58-7.23,7.22-14.6,14.28-20.32,22.9a124.43,124.43,0,0,0-19.93,52.41c-2.44,17.49-5,35-7.45,52.46a62.31,62.31,0,0,0-.05,8.12c6.82,2.22,13.68,4.34,20.46,6.7,8.67,3,9.41,4.6,9.33,13.63-.22,22.87-4.41,45-11.1,66.81-7.21,23.61-18.15,45.05-34.44,63.46-12.42,14-28.77,22.42-46.63,27.35-10,2.76-20.08,5.79-30.77,5-25.25-1.78-49-8-67.6-26.14-10.64-10.37-18.62-23-24.88-36.66-15-32.79-14.93-67.32-13.18-102.26.51-10.33,2.93-10.87,12-12.74,4.62-1,9-2.83,13.58-4.19,3.1-.94,3.88-3,3.57-6-.82-7.79-2.35-15.61-2.09-23.37.34-9.79-3.93-15.93-11-22.21-17.93-15.88-30.2-35.33-32.78-59.86-.23-2.15-1.32-4.45,1.05-6.05s4.21.2,6.06,1.24a100.94,100.94,0,0,1,21.35,16.17c-1.11-9-4.75-17.25-6.73-25.86-1.59-7-5.08-9.45-12.15-11.16-16.28-4-31-11.86-44-22.67-1.7-1.41-3.36-2.87-5.09-4.24a9.33,9.33,0,0,0-2.06-.84c-9.86,11.2-18.16,22.94-22.35,38-5.65,20.29-1.91,40.6-3.7,60.56,16.66,6.62,21,14.68,18.14,31.89-1.24,7.44-.64,15.24-5.21,21.94-.75,1.09-.11,3.12-.11,5.13,4.59-1.2,7.36-5,11.39-6.55s7.85-3.86,11.88-5.89c-1.74-10.53-4-20.67-4.69-31.11-.67-9.88,1.81-19.12,3.72-28.54.34-1.66.83-3.39,3-2.82,2,.54,1.87,2.08,1.43,3.87-2.78,11.17-2.05,22.28.67,33.36,2,8.07,4.84,15.71,10.21,22.21a4.67,4.67,0,0,1,1.25,4.43,79.61,79.61,0,0,0-36.75,16.37c15.16-1.55,29.56,1.1,44.3,7.05,1.22-9.79,4.25-18.63,6.1-27.71,2.14-10.52,7.4-19.38,13.18-28.06,1.07-1.61,2.84-3.3,5.07-1.83,2.45,1.62.66,3.54-.08,5.3a174.17,174.17,0,0,0-12.93,57.26c-.27,4.57-1.23,5-5.46,2.93-13.72-6.69-28.14-10.48-43.52-10a17.35,17.35,0,0,0-3.57.56c-1.16.28-2.27.76-3.75,1.28.41,2.39.79,4.69,2.94,6.13,14.18,9.42,25.34,22.17,37.32,34,2.68,2.64,7.36,3.61,8.07,7.7s-3.37,6.54-4.67,10.12a115.52,115.52,0,0,0-7.31,46,33.24,33.24,0,0,1,.17,3.58c0,.51-.57,1-1.06,1.75-3.18-.32-4.06-2.53-4.69-5.2-3.08-13.09-2.24-26.23-.86-39.44.79-7.63,3.42-14.77,5.35-22.27-10.1-10.1-19.6-20.65-32-29.49,0,5.65-.77,10.47-3,14.88-1.24,2.5.52,3.78,1.71,5.22,14,16.94,17.32,35.58,9.54,56.27-2.11,5.6-4.46,11.3-4.21,17.48.41,10.08,1.76,19.82,12.37,25.31-2.63,6-5.42,11.06-10.69,14.76-3.79-2.76-4.42-6.8-5.68-10.5-5.21-15.26-2.65-30.15,2.38-44.82,3.22-9.4,5.77-18.82,4.39-28.87-1.33-9.76-4.71-18.54-12.18-25.56-4,4.14-1.9,8.53-1.35,12.7,1.11,8.53-.45,16.38-5.61,23.35-4.57,6.18-8.12,6.33-13.83,1.34-8.94-7.8-9.76-17.89-8.47-28.59.18-1.56,1.2-2.95-.26-4.34-7.64,4.31-12.44,16.78-10.56,27.61,1.1,6.34,3.25,12.41,4.95,18.6,4.41,16.07,5.95,32.35,2.62,48.85-.8,4-2.14,7.72-5.79,10.4-5.21-1.42-7.27-5.85-10-10.13,7.65-9.23,10.16-20.22,11.11-31.76.53-6.4-1.69-12.24-3.39-18.21-1.86-6.56-3.82-13.15-4.4-20-1-12.38,4.33-22.6,11.74-31.89,2.36-3,5-5.53,2.43-11m43.31-228.1c-7.32,1.55-11.08,7.18-15.34,13a13.41,13.41,0,0,0,2.91,0c6.71-1.83,8.71-8.17,12.3-13l.79-1.33c-.3,0-.73-.11-.85,0C293.82,325.46,293.69,326,294.39,326.36Zm-51-16.75.1-.08a409.2,409.2,0,0,1,20.2,50.81c-1.11-15.17-3.66-29.9-11-43.42C250.61,313.09,247.69,310.51,243.39,309.61Zm116.33,230c-.42,14.46-1.82,27.64-1.35,40.91,1.09,30.35,8.41,58.68,26,83.93,12.39,17.79,29.36,28.72,50,34.35,2.18.59,4.42,1.54,6.88-.2,15.93-11.29,26.73-26.5,33.44-44.56,6.09-16.37,10.43-33.2,11.8-50.78,1.13-14.42,1.56-28.75-.62-43.87C442.51,561.17,400.67,555.29,359.72,539.58Zm73.41-179.71c4-.75,4.46-3.05,4.55-5.57.11-3.42.06-6.84.31-10.24.63-8.47,3.82-10.6,11.89-7.74.85-5.35-2.08-11.55,3.6-16.6,2.29,4.77-.39,9.25,1,13.43,1,2.79,1.43,6.13-1.5,8.32s-5.66,0-8.35-1.17c-.26-.11-.7.2-1.27.39-1.28,3.79-.62,7.81-.7,11.77,0,3,.6,6.9-2.19,8.38-6.2,3.29-5.44,8.57-5.25,13.93a36.9,36.9,0,0,1-.63,7.17c-1.14,7.13-3,14.17-3,21.44,0,3.48-.57,7.25,2.87,10,7.72-3.15,1.37-11.35,5.44-15.91,5.86,6.92,4.81,14.36-2.54,21.16.27,6.74,2.1,13.38.83,20.44,18.48,5.32,36.51,5.77,55.21-.06-3.08-9.24-2.15-18.53-2.7-27.59-7.73-4.77-9.09-7.72-8.09-17.65.38-3.78,1.53-7.78-1.1-11.06-4.88-6.09-3.56-12.85-2.64-19.6.23-1.72,1.48-2.24,3.36-1.38a10.7,10.7,0,0,1,.36,2.16c-.16,5.63-.52,11.38,2.91,16.27,2.4,3.42,2.62,7,2.28,10.9-.24,2.79-.53,5.6-.58,8.4,0,2.22,0,4.78,3,5.08,2.7.27,3.74-1.88,4.57-4,1.45-3.72,1.17-7.56.36-11.28-2.39-11.05-4.06-22.13-2.59-33.46.16-1.27.26-2.33-.87-3.23-11.3-9-3.38-20-4.48-30.43,4.18.4,3.8,2.78,4.3,4.61,1.13,4.23-.51,8.33-.52,12.51,0,2.78.08,5.41,4,5.08a10.91,10.91,0,0,0,2.17-6.71c.33-9.52-2.69-18.67-3-28.12a2.69,2.69,0,0,0-1.38-2.51c-7.42-3.62-7.56-10.26-7-17.06a15,15,0,0,0-2.27-9.74c-1.27-2-2.63-4.24-3-6.53-.56-3.52-2.23-7.63,1.84-10.7,3.08,2.93,1.51,6.48,2.8,9,4.17,8.08,7.3,16.24,6,25.61a3.49,3.49,0,0,0,3.31,3.71c2.44.22,3.5-1.44,4.13-3.56,1.23-4.17.78-8.35.27-12.55-1.12-9.1-4.48-17.95-2.78-27-6.23-4.65-10-18.44-6.36-23.65a20,20,0,0,1,5,13.68c-.06,2.07.35,4.27,2.94,4.51a3.25,3.25,0,0,0,3.6-3.32c-.32-7.55,2.82-14.59,3-22,.15-6.52-4-10.25-10.4-9.3-7.39,1.09-14.43,3.32-19.8,9.11a32.49,32.49,0,0,1-15.12,9.35c-3.6,1-6.16-.09-7.18-4.5,5.74-.25,7.63-4.32,9.65-8.18-2.21-3-5.38-2.6-7.92-3.63-7.45-3-14.86.17-18.61,7.28-2.06,3.93-2.42,8-2.29,12.26.31,10,1.82,20,.33,30-.83,5.55-1.51,11.13-2.1,16.72-.3,2.76.14,5.62,3.62,5.79,3.16.16,4.74-2.22,4.81-5.09.11-4.81-.34-9.63-.26-14.44.07-3.68.3-7.45,3-10.35,1.77.56,2.36,1.79,2,2.94-1.54,5.41-.13,10.8.11,16.15.32,7.28-.07,13.86-8.37,16.3.28,2.77.56,4.94.73,7.12a105.38,105.38,0,0,1-3.11,34C431.6,345.77,430.77,352.66,433.13,359.87Zm23.95,340.41c2.39-.21,3.44-.1,4.34-.42,19.73-7,34.29-20.56,45.06-37.92a182.58,182.58,0,0,0,26.15-74.34A196,196,0,0,0,534,553.28a55.22,55.22,0,0,0-13.57,2.05A28,28,0,0,0,520,559c-.14,25.73-5,50.68-13,75C498.05,661.16,483.07,684.05,457.08,700.28ZM364.27,536.46c69.68,24.26,138.17,23.88,206.81.72a42.91,42.91,0,0,0-17.7-6.55c-1.14,2.92,1.21,5.41.13,7.88-6.41,3.18-7.29,2.67-8.83-3.9-.65-2.75,0-6.7-3.69-7.64-5.69-1.43-11.42-3.29-17.72-2.36,1,5.53,6.83,8.62,5.93,14.58-1.91,2.29-4.87,2.44-7.53,3.09C494,549,466,549.33,437.85,547c-10.15-.84-20.21-3.07-30.26-5-5-.95-5.8-3.1-3.71-7.78,1-2.3,2.7-4.43,2.18-7.44-5.1-.13-10,.19-14.49,2-2,3.58,1.17,9.67-4.43,10.34-4.75.56-4.74-4.71-5.65-8.32C375.65,531.77,370.1,532.43,364.27,536.46ZM281.62,310.8c2.71-5.17,2.66-5.26,7.1-8.12,3.13-2,4.22-3.63,1.06-6.95-5.5-5.77-4.16-11.57,3-15.39,2.43-1.3,4.5-2.45,2.72-6-4.7-9.24-4.18-11.28,4.3-19-7.25-6.86-13.66-14.5-21.8-20.64-10.72,19.47-11.48,31.84-8.42,48A74.75,74.75,0,0,0,281.62,310.8Zm143.28,139c4.37,2.3,8.85,2.59,13.07,3.73,20.88,5.67,41.7,4,62.36-1.1,8.13-2,8.22-2.74,6.26-12.24-27.19,11.22-54.57,10.66-81.86.43C423.52,444.14,424.53,446.85,424.9,449.84Zm-52.65-38.33c10.6-13.42,9-45.38,2-63.89C365.14,368.94,361,389.92,372.25,411.51ZM390.14,501c12-17.87,18.5-36.74,12.38-59.29C388.38,460.14,386.76,480.09,390.14,501Zm-139,.8c6-1.17,9,2,10.71,6.73a84.57,84.57,0,0,1,4.05,15.64c.44,2.89-.2,6.17,2,8.89,2.82-4.45,3.8-9.22,5.09-13.73,2.5-8.78,3.38-17.78-1.47-26.24-3.29-5.76-9.47-7.64-15.54-5C251,490.3,249.36,494.54,251.16,501.79Zm97.89-127.6c-14.52-18.4-34.2-26.35-56.64-28.81C308.86,359.76,326.63,371.57,349.05,374.19Zm-10.56-28.67c9.05-21.73.77-40.87-5.9-61.52C326.36,299.93,329.86,334.36,338.49,345.52Zm7.06,70.82c0,12.76,19.42,39.34,30.24,45.29C373.76,441.4,362.45,427.42,345.55,416.34Zm-69.28-104.5c-4.79-10-9.37-18.79-11.73-28.45a3.5,3.5,0,0,0-3-2.64c-5.84-.85-11.68-1.44-17,1.68C251.37,296,261.88,305,276.27,311.84Zm58.8,41.09c-1.34-7.2-11.76-18.91-18.84-21.84l-14.36,9.31C313.82,343.13,324.09,348,335.07,352.93Zm117-192.86c-9,19.13-1.12,43.25,13.3,43.27-.65-2.9-.63-3-1.29-3.15-8.08-1.29-10-7.57-11.79-14.18C450,177.49,452,169,452.07,160.07ZM277.19,375.48l15.55-18.57c-2.67-2.31-3.87-5.5-7.66-6.72C281.66,358.48,278.63,366.57,277.19,375.48Zm-7.9,6.26c3.06-11.51,7.13-22.69,11.87-35.06C269.67,355.93,267.28,367.19,269.29,381.74Zm-.61-36.51c4-7.17,2.11-15,5.69-23.1-3.4,1.67-5.09-1.49-7.82.87C267.35,325.71,264.32,340.85,268.68,345.23Zm-16.51-90.37c-6.46,6.63-12.51,13.06-14.1,22.85,4.62-.38,7.39-1.81,8.14-6.55.65-4.14,2.9-7.85,5.27-11.35C252.35,258.53,253.75,257.39,252.17,254.86Zm25.14,78.75c3.89-5.23,9.62-7.72,13.93-13.25C278.72,322.43,277.38,323.72,277.31,333.61Zm14.79,5.61c8.9-3.48,11.69-7.87,10.9-17C299.82,328.35,294.69,332.36,292.1,339.22Zm-18.79,252.4c3.32-4.94,3.76-13.19,1-14.42-1.56.55-3.36.72-4.62,2.32C272,583.08,272.34,587.24,273.31,591.62Zm19.39-272.1c-.11-.6-.33-.64-.6-.08,0,.08.14.27.22.41Z"/><path class="a" d="M359.72,539.58c40.95,15.71,82.79,21.59,126.14,19.78,2.18,15.12,1.75,29.45.62,43.87-1.37,17.58-5.71,34.41-11.8,50.78-6.71,18.06-17.51,33.27-33.44,44.56-2.46,1.74-4.7.79-6.88.2-20.64-5.63-37.61-16.56-50-34.35-17.58-25.25-24.9-53.58-26-83.93C357.9,567.22,359.3,554,359.72,539.58Zm22,41.3c-1.68,1.88-1.41,3.21-.07,5,3.6,4.72,5.18,10.22,5.84,16.1,1.21,10.72-.53,20.63-6.36,29.91-2.81,4.47-1.41,6.39,3.76,5.71a33.92,33.92,0,0,1,16.48,2.24c12,4.42,20.64,12.79,27.81,23,1.44,2.06,2.18,4.79,4.94,5.71,3.47-1,2.63-3.68,2.24-5.95A75.78,75.78,0,0,1,439,627c3-9.9,8.67-17.48,18.07-22,1.88-.9,3.07-1.9,2.05-4.21a9.58,9.58,0,0,0-1.57-.65,8.08,8.08,0,0,0-2.38-.28c-11.37,1-19.49-4-25.76-13.21-3.84-5.68-5.23-12.07-7-18.42-.46-1.63.48-4-1.87-4.6-2.77-.75-3.06,2.06-4.16,3.51a31,31,0,0,1-9.46,8.06A42.63,42.63,0,0,1,381.77,580.88Z"/><path class="a" d="M433.13,359.87c-2.36-7.21-1.53-14.1.19-20.92a105.38,105.38,0,0,0,3.11-34c-.17-2.18-.45-4.35-.73-7.12,8.3-2.44,8.69-9,8.37-16.3-.24-5.35-1.65-10.74-.11-16.15.33-1.15-.26-2.38-2-2.94-2.68,2.9-2.91,6.67-3,10.35-.08,4.81.37,9.63.26,14.44-.07,2.87-1.65,5.25-4.81,5.09-3.48-.17-3.92-3-3.62-5.79.59-5.59,1.27-11.17,2.1-16.72,1.49-10,0-20-.33-30-.13-4.24.23-8.33,2.29-12.26,3.75-7.11,11.16-10.29,18.61-7.28,2.54,1,5.71.66,7.92,3.63-2,3.86-3.91,7.93-9.65,8.18,1,4.41,3.58,5.52,7.18,4.5A32.49,32.49,0,0,0,474,227.2c5.37-5.79,12.41-8,19.8-9.11,6.44-1,10.55,2.78,10.4,9.3-.16,7.4-3.3,14.44-3,22a3.25,3.25,0,0,1-3.6,3.32c-2.59-.24-3-2.44-2.94-4.51a20,20,0,0,0-5-13.68c-3.66,5.21.13,19,6.36,23.65-1.7,9,1.66,17.88,2.78,27,.51,4.2,1,8.38-.27,12.55-.63,2.12-1.69,3.78-4.13,3.56a3.49,3.49,0,0,1-3.31-3.71c1.32-9.37-1.81-17.53-6-25.61-1.29-2.51.28-6.06-2.8-9-4.07,3.07-2.4,7.18-1.84,10.7.37,2.29,1.73,4.5,3,6.53a15,15,0,0,1,2.27,9.74c-.59,6.8-.45,13.44,7,17.06a2.69,2.69,0,0,1,1.38,2.51c.28,9.45,3.3,18.6,3,28.12a10.91,10.91,0,0,1-2.17,6.71c-3.92.33-4-2.3-4-5.08,0-4.18,1.65-8.28.52-12.51-.5-1.83-.12-4.21-4.3-4.61,1.1,10.39-6.82,21.42,4.48,30.43,1.13.9,1,2,.87,3.23-1.47,11.33.2,22.41,2.59,33.46.81,3.72,1.09,7.56-.36,11.28-.83,2.15-1.87,4.3-4.57,4-3-.3-3-2.86-3-5.08.05-2.8.34-5.61.58-8.4.34-3.87.12-7.48-2.28-10.9-3.43-4.89-3.07-10.64-2.91-16.27a10.7,10.7,0,0,0-.36-2.16c-1.88-.86-3.13-.34-3.36,1.38-.92,6.75-2.24,13.51,2.64,19.6,2.63,3.28,1.48,7.28,1.1,11.06-1,9.93.36,12.88,8.09,17.65.55,9.06-.38,18.35,2.7,27.59-18.7,5.83-36.73,5.38-55.21.06,1.27-7.06-.56-13.7-.82-20.44,7.34-6.8,8.39-14.24,2.53-21.16-4.07,4.56,2.28,12.76-5.44,15.91-3.44-2.75-2.89-6.52-2.87-10,0-7.27,1.9-14.31,3-21.44a36.9,36.9,0,0,0,.63-7.17c-.19-5.36-.95-10.64,5.25-13.93,2.79-1.48,2.14-5.4,2.19-8.38.08-4-.58-8,.7-11.77.57-.19,1-.5,1.27-.39,2.69,1.2,5.33,3.43,8.35,1.17s2.46-5.53,1.5-8.32c-1.44-4.18,1.24-8.66-1-13.43-5.68,5-2.75,11.25-3.6,16.6-8.07-2.86-11.26-.73-11.89,7.74-.25,3.4-.2,6.82-.31,10.24C437.59,356.82,437.14,359.12,433.13,359.87Zm37.61,26.95c-2.1,1.8-1.3,3.66-1.27,5.39,0,2.66-.08,5.63-2.08,7.33-5.07,4.32-5.28,9.81-5.17,15.76.07,3.39.61,8.58-4.1,8.67-5.18.1-4.6-5.16-4.62-8.81-.06-12.41.15-24.83.11-37.24,0-2.28,1.08-5.33-2.43-6.36a2.82,2.82,0,0,0-1.55,2.64q-1.49,18.57-1.27,37.2a53.66,53.66,0,0,0,1.07,11.33c1.51,6.51,7,8.83,12.31,5.55a9.88,9.88,0,0,0,5.05-9c-.12-6.58-.27-12.72,5.33-18.13C476.21,397.21,474.79,390.39,470.74,386.82Zm1.87-51.76-1.88.18c-.28-9-.57-18-6-25.64-.94-1.32-.43-4.15-3-3.56-2.8.64-1.88,3.08-1.43,5a8.62,8.62,0,0,0,1.23,3.36c3.42,4.21,3.55,9.17,3.8,14.21a107.32,107.32,0,0,0,1.44,13.76c.44,2.49,1.58,5.37,4.93,5.14,2.86-.2,3.77-2.66,4.33-5.11a27.19,27.19,0,0,0,.48-3c1.78-15.57,2.08-31.21,2.08-46.85,0-2.12.3-4.63-4.09-5.09-1.11,7.86,0,15.79-.49,23.61C473.5,319.07,473.07,327.07,472.61,335.06Zm-15.56-54c-5-9.17,2.32-19.59-4.3-28-1.38,9.88-3.39,19.71-.94,29.57,1.06,4.29,5.94,5.22,9,2a11.67,11.67,0,0,0,3.45-8.12c0-3.2.11-6.41.07-9.62-.05-5.37,1-10.2,5.09-14.22,3.35-3.26,4.17-7.66,3.5-12.27-.25-1.73-.89-3.11-3.35-2.64-1.54,3.27.22,7.66-2.84,10.56-6.94,6.59-7.79,14.94-7.25,23.84C459.68,275,460.7,278.28,457.05,281.06Zm6.39,84.07c-1.59-14.66-1.59-14.66-5.1-15.45,0,5.57-.16,11.08,0,16.57.24,6.38,3.38,10.93,6.81,10.4s5.75-5.9,4.94-11.71c-.28-2.06-.23-4.66-3.43-4.76S464.8,363.06,463.44,365.13Zm8.54,53c-3.08,3.36-1.14,7.12-.77,10.63.31,3,1.71,5.54,5,5.91a6.16,6.16,0,0,0,6.94-4.65,36,36,0,0,0-.91-20.63c-.27-.74-1.1-1.12-2.7-.86-2.54,6.22.59,13.38-1.37,20.29C473.16,426.56,477.55,420,472,418.15ZM449.72,288.73c-2.57,5.71-.81,11.73-2.57,17.26-2.08-.82-1.48-5.2-5.39-3.61a9.73,9.73,0,0,0-.55,2.6c.15,3.63.07,7.73,5.08,8,4.81.29,5.86-3.35,6.19-7.17s.52-7.57.64-11.36C453.19,292.29,453.2,290,449.72,288.73Zm-6.48-43.2c-.31-1.43-.49-2.38-.71-3.33-.78-3.37-3.38-4.8-4.34-2.51-1.14,2.7.05,5.47,1.18,8a6.27,6.27,0,0,0,1.94,2.2c1.81,1.38,3.67,1.09,5.55,0,2.61-1.5,3.14-3.92,3.06-6.62-.06-2.32-1-3.76-3.37-3.41C444.6,241.26,446,244,443.24,245.53ZM476,249.22c-.7,3,.16,5.44,1.14,7.77.79,1.85,2.67,2.35,4.53,2.21s3.12-1.5,3.77-3.34c.51-1.44.25-3.81-.63-3.65C481.29,252.87,480,248.16,476,249.22Z"/><path class="a" d="M457.08,700.28c26-16.23,41-39.12,49.9-66.28,8-24.32,12.84-49.27,13-75a28,28,0,0,1,.49-3.67A55.22,55.22,0,0,1,534,553.28a196,196,0,0,1-1.39,34.32,182.58,182.58,0,0,1-26.15,74.34c-10.77,17.36-25.33,30.89-45.06,37.92C460.52,700.18,459.47,700.07,457.08,700.28Z"/><path class="a" d="M364.27,536.46c5.83-4,11.38-4.69,17.22-5.66.91,3.61.9,8.88,5.65,8.32,5.6-.67,2.39-6.76,4.43-10.34,4.47-1.79,9.39-2.11,14.49-2,.52,3-1.14,5.14-2.18,7.44-2.09,4.68-1.28,6.83,3.71,7.78,10.05,1.91,20.11,4.14,30.26,5,28.12,2.33,56.18,2,83.82-4.72,2.66-.65,5.62-.8,7.53-3.09.9-6-4.93-9.05-5.93-14.58,6.3-.93,12,.93,17.72,2.36,3.73.94,3,4.89,3.69,7.64,1.54,6.57,2.42,7.08,8.83,3.9,1.08-2.47-1.27-5-.13-7.88a42.91,42.91,0,0,1,17.7,6.55C502.44,560.34,434,560.72,364.27,536.46Z"/><path class="a" d="M281.62,310.8a74.75,74.75,0,0,1-12-28c-3.06-16.19-2.3-28.56,8.42-48,8.14,6.14,14.55,13.78,21.8,20.64-8.48,7.67-9,9.71-4.3,19,1.78,3.52-.29,4.67-2.72,6-7.17,3.82-8.51,9.62-3,15.39,3.16,3.32,2.07,4.93-1.06,6.95C284.28,305.54,284.33,305.63,281.62,310.8Zm1.46-53.21c3.59-.35,4.94-2.89,5.12-6.15.21-3.58-3.21-7.23-6.66-7.17-3.81.06-5.15,2.76-5.3,6S280,257.65,283.08,257.59Zm-2.74,16.72c2.62-.37,4.12-1.94,3.85-4.47-.22-2-.37-4.81-3.39-4.86a4.4,4.4,0,0,0-4.77,4.4C275.86,272.24,277.74,273.68,280.34,274.31Z"/><path class="a" d="M424.9,449.84c-.37-3-1.38-5.7-.17-9.18,27.29,10.23,54.67,10.79,81.86-.43,2,9.5,1.87,10.23-6.26,12.24-20.66,5.11-41.48,6.77-62.36,1.1C433.75,452.43,429.27,452.14,424.9,449.84Z"/><path class="a" d="M372.25,411.51c-11.24-21.59-7.11-42.57,2-63.89C381.23,366.13,382.85,398.09,372.25,411.51Z"/><path class="a" d="M390.14,501c-3.38-20.9-1.76-40.85,12.38-59.29C408.64,464.25,402.15,483.12,390.14,501Z"/><path class="a" d="M251.16,501.79c-1.8-7.25-.19-11.49,4.81-13.68,6.07-2.67,12.25-.79,15.54,5,4.85,8.46,4,17.46,1.47,26.24-1.29,4.51-2.27,9.28-5.09,13.73-2.17-2.72-1.53-6-2-8.89a84.57,84.57,0,0,0-4.05-15.64C260.18,503.75,257.12,500.62,251.16,501.79Z"/><path class="a" d="M349.05,374.19c-22.42-2.62-40.19-14.43-56.64-28.81C314.85,347.84,334.53,355.79,349.05,374.19Z"/><path class="a" d="M338.49,345.52c-8.63-11.16-12.13-45.59-5.9-61.52C339.26,304.65,347.54,323.79,338.49,345.52Z"/><path class="a" d="M345.55,416.34c16.9,11.08,28.21,25.06,30.24,45.29C365,455.68,345.51,429.1,345.55,416.34Z"/><path class="a" d="M276.27,311.84c-14.39-6.82-24.9-15.81-31.75-29.41,5.34-3.12,11.18-2.53,17-1.68a3.5,3.5,0,0,1,3,2.64C266.9,293.05,271.48,301.83,276.27,311.84Z"/><path class="a" d="M335.07,352.93c-11-4.93-21.25-9.8-33.2-12.53l14.36-9.31C323.31,334,333.73,345.73,335.07,352.93Z"/><path class="a" d="M243.39,309.61c4.3.9,7.22,3.48,9.3,7.31,7.34,13.52,9.89,28.25,11,43.42a409.2,409.2,0,0,0-20.2-50.81Z"/><path class="a" d="M452.07,160.07C452,169,450,177.49,452.29,186c1.76,6.61,3.71,12.89,11.79,14.18.66.11.64.25,1.29,3.15C451,203.32,443.09,179.2,452.07,160.07Z"/><path class="a" d="M277.19,375.48c1.44-8.91,4.47-17,7.89-25.29,3.79,1.22,5,4.41,7.66,6.72Z"/><path class="a" d="M269.29,381.74c-2-14.55.38-25.81,11.87-35.06C276.42,359.05,272.35,370.23,269.29,381.74Z"/><path class="a" d="M266.55,323c2.73-2.36,4.42.8,7.82-.87-3.58,8.08-1.67,15.93-5.69,23.1C264.32,340.85,267.35,325.71,266.55,323Z"/><path class="a" d="M264,247.05c-3.59,3.88-14.08,19.88-14.74,24-.74,4.74-6.56,6.25-11.18,6.63C239.66,267.92,249.25,252.78,264,247.05Z"/><path class="a" d="M277.31,333.61c.07-9.89,1.41-11.18,13.93-13.25C286.93,325.89,281.2,328.38,277.31,333.61Z"/><path class="a" d="M292.1,339.22c2.59-6.86,7.72-10.87,10.9-17C303.79,331.35,301,335.74,292.1,339.22Z"/><path class="a" d="M294.26,326.29c-3.59,4.83-5.59,11.17-12.3,13a13.41,13.41,0,0,1-2.91,0c4.26-5.78,8-11.41,15.34-13Z"/><path class="a" d="M271.73,602c2-11.55.23-18.94-2-22.5,1.26-1.6,3.06-1.77,4.62-2.32C277.07,578.43,279.32,591.62,271.73,602Z"/><path class="a" d="M294.39,326.36c-.7-.36-.57-.9-.19-1.36.12-.15.55,0,.85,0l-.79,1.33Z"/><path class="a" d="M292.7,319.52l-.38.33c-.08-.14-.26-.33-.22-.41C292.37,318.88,292.59,318.92,292.7,319.52Z"/><path class="a" d="M243.49,309.53l-.1.08Z"/><path d="M381.77,580.88a42.63,42.63,0,0,0,25.1-5.76,31,31,0,0,0,9.46-8.06c1.1-1.45,1.39-4.26,4.16-3.51,2.35.64,1.41,3,1.87,4.6,1.77,6.35,3.16,12.74,7,18.42,6.27,9.23,14.39,14.21,25.76,13.21a8.08,8.08,0,0,1,2.38.28,9.58,9.58,0,0,1,1.57.65c1,2.31-.17,3.31-2.05,4.21-9.4,4.55-15,12.13-18.07,22a75.78,75.78,0,0,0-2.54,35.63c.39,2.27,1.23,4.91-2.24,5.95-2.76-.92-3.5-3.65-4.94-5.71-7.17-10.22-15.82-18.59-27.81-23a33.92,33.92,0,0,0-16.48-2.24c-5.17.68-6.57-1.24-3.76-5.71,5.83-9.28,7.57-19.19,6.36-29.91-.66-5.88-2.24-11.38-5.84-16.1C380.36,584.09,380.09,582.76,381.77,580.88Zm10.78,40.71c12.13-13,27.25-18.72,45.41-20.67-11.46-6.19-16.22-15.66-19.17-26.7-5.23,2.85-9.69,5.81-14.7,7.79A63,63,0,0,1,388,586.07C392.91,597.62,393.7,609.26,392.55,621.59Z"/><path d="M470.74,386.82c4.05,3.57,5.47,10.39,1.38,14.33-5.6,5.41-5.45,11.55-5.33,18.13a9.88,9.88,0,0,1-5.05,9c-5.29,3.28-10.8,1-12.31-5.55a53.66,53.66,0,0,1-1.07-11.33q-.21-18.63,1.27-37.2a2.82,2.82,0,0,1,1.55-2.64c3.51,1,2.43,4.08,2.43,6.36,0,12.41-.17,24.83-.11,37.24,0,3.65-.56,8.91,4.62,8.81,4.71-.09,4.17-5.28,4.1-8.67-.11-5.95.1-11.44,5.17-15.76,2-1.7,2.11-4.67,2.08-7.33C469.44,390.48,468.64,388.62,470.74,386.82Z"/><path d="M472.61,335.06c.46-8,.89-16,1.38-24,.48-7.82-.62-15.75.49-23.61,4.39.46,4.09,3,4.09,5.09,0,15.64-.3,31.28-2.08,46.85a27.19,27.19,0,0,1-.48,3c-.56,2.45-1.47,4.91-4.33,5.11-3.35.23-4.49-2.65-4.93-5.14a107.32,107.32,0,0,1-1.44-13.76c-.25-5-.38-10-3.8-14.21a8.62,8.62,0,0,1-1.23-3.36c-.45-1.91-1.37-4.35,1.43-5,2.59-.59,2.08,2.24,3,3.56,5.43,7.64,5.72,16.62,6,25.64Z"/><path d="M457.05,281.06c3.65-2.78,2.63-6,2.45-8.85-.54-8.9.31-17.25,7.25-23.84,3.06-2.9,1.3-7.29,2.84-10.56,2.46-.47,3.1.91,3.35,2.64.67,4.61-.15,9-3.5,12.27-4.13,4-5.14,8.85-5.09,14.22,0,3.21,0,6.42-.07,9.62a11.67,11.67,0,0,1-3.45,8.12c-3.08,3.19-8,2.26-9-2-2.45-9.86-.44-19.69.94-29.57C459.37,261.47,452.08,271.89,457.05,281.06Z"/><path d="M463.44,365.13c1.36-2.07,0-5.05,3.26-4.95s3.15,2.7,3.43,4.76c.81,5.81-1.55,11.18-4.94,11.71s-6.57-4-6.81-10.4c-.2-5.49,0-11,0-16.57C461.85,350.47,461.85,350.47,463.44,365.13Z"/><path d="M472,418.15c5.57,1.84,1.18,8.41,6.18,10.69,2-6.91-1.17-14.07,1.37-20.29,1.6-.26,2.43.12,2.7.86a36,36,0,0,1,.91,20.63,6.16,6.16,0,0,1-6.94,4.65c-3.28-.37-4.68-2.9-5-5.91C470.84,425.27,468.9,421.51,472,418.15Z"/><path d="M449.72,288.73c3.48,1.27,3.47,3.56,3.4,5.74-.12,3.79-.31,7.58-.64,11.36s-1.38,7.46-6.19,7.17c-5-.29-4.93-4.39-5.08-8a9.73,9.73,0,0,1,.55-2.6c3.91-1.59,3.31,2.79,5.39,3.61C448.91,300.46,447.15,294.44,449.72,288.73Z"/><path d="M443.24,245.53c2.78-1.55,1.36-4.27,3.31-5.65,2.4-.35,3.31,1.09,3.37,3.41.08,2.7-.45,5.12-3.06,6.62-1.88,1.08-3.74,1.37-5.55,0a6.27,6.27,0,0,1-1.94-2.2c-1.13-2.54-2.32-5.31-1.18-8,1-2.29,3.56-.86,4.34,2.51C442.75,243.15,442.93,244.1,443.24,245.53Z"/><path d="M476,249.22c3.93-1.06,5.26,3.65,8.81,3,.88-.16,1.14,2.21.63,3.65-.65,1.84-1.77,3.2-3.77,3.34s-3.74-.36-4.53-2.21C476.19,254.66,475.33,252.21,476,249.22Z"/><path d="M283.08,257.59c-3.11.06-7-4-6.84-7.32s1.49-5.94,5.3-6c3.45-.06,6.87,3.59,6.66,7.17C288,254.7,286.67,257.24,283.08,257.59Z"/><path d="M280.34,274.31c-2.6-.63-4.48-2.07-4.31-4.93a4.4,4.4,0,0,1,4.77-4.4c3,0,3.17,2.81,3.39,4.86C284.46,272.37,283,273.94,280.34,274.31Z"/><path class="a" d="M392.55,621.59c1.15-12.33.36-24-4.58-35.52A63,63,0,0,0,404.09,582c5-2,9.47-4.94,14.7-7.79,2.95,11,7.71,20.51,19.17,26.7C419.8,602.87,404.68,608.6,392.55,621.59Z"/><path class="a" d="M269.09,560.68c-8,0-15.15-5.63-15.24-5.71l-.21-2.54c.48.43,15.26,11,30.06-.36l-.94,3.27A20.58,20.58,0,0,1,269.09,560.68Z"/><path class="a" d="M262,601.19c-2-11.55-.23-18.93,2-22.49-1.26-1.6-3.06-1.78-4.62-2.32C256.69,577.6,254.44,590.79,262,601.19Z"/><path class="a" d="M267.24,618.66s-3.77-29.67-.15-34.25C267.09,584.41,272.21,587,267.24,618.66Z"/><path d="M295.08,326.3a1.5,1.5,0,0,0,0-3,1.5,1.5,0,0,0,0,3Z"/><path d="M293.26,320a1.5,1.5,0,0,0,0-3,1.5,1.5,0,0,0,0,3Z"/></svg>