<svg xmlns="http://www.w3.org/2000/svg" viewBox="0 0 800 800"><defs><style>.a{fill:#fff}.b{fill:#fca14f}.c{fill:#e83131}</style></defs><path d="M317.08 172.7h7.12a1.88 1.88 0 0 0 2.06-1.1c1.12-2.5 3.11-4.27 5.16-6 2.48-2 4.91-4.17 7.55-6a73 73 0 0 1 12.55-7.1c4-1.72 7.8-3.88 11.78-5.63a56 56 0 0 1 8.06-2.77c7.33-1.95 14.7-3.79 22.29-4.22a98.06 98.06 0 0 1 12.48.17 110.21 110.21 0 0 1 29.87 6.54c4.59 1.66 8.87 4.23 13.23 6.51a72.33 72.33 0 0 1 6.8 4.12c2.27 1.52 4.41 3.24 6.6 4.88.08.05.13.14.21.19a39.27 39.27 0 0 1 8.62 7.65 3.76 3.76 0 0 0 3.6 1.15c2.62-.35 5.27-.51 7.92-.63a14 14 0 0 1 3.66.23c5.72 1.28 11.39 2.77 17.12 4 7.14 1.5 13.1 5.17 18.62 9.71 2.84 2.35 5.82 4.57 8.42 7.17a42.84 42.84 0 0 1 6.45 7.91c3.93 6.47 8 12.9 10.45 20.13a3.85 3.85 0 0 0 2.73 2.62c6.23 1.9 11.81 5.15 17.15 8.75a41.52 41.52 0 0 1 11.75 11.43c1.55 2.35 3 4.78 4.65 7.07a5.22 5.22 0 0 0 2.26 1.48c3.07 1.23 6.4 2 9.21 3.63 4.88 2.86 9.86 5.66 14 9.64a6.21 6.21 0 0 0 1.09.9c4.39 2.43 7.78 6 11.06 9.69a61.46 61.46 0 0 1 5.2 6.72c2.46 3.7 5.37 7.12 7.12 11.25 1.14 2.69 2.09 5.45 3.06 8.2.34 1 .41 2 .73 3a42.84 42.84 0 0 1 1.3 22.7c-.84 3.88-1.52 7.8-2.44 11.66a26 26 0 0 1-1.86 4.41c-2.58 5.7-5.27 11.33-9.15 16.31a4 4 0 0 0-.62 2.11c-.49 8.63-4 16.14-8.9 23a95.69 95.69 0 0 1-7.67 8.72c-.71.77-.34 1.24 0 2 2.14 5.05 4.44 10.06 6.25 15.24a74.82 74.82 0 0 1 4.38 27.35 30.57 30.57 0 0 1-2.61 11.82 15.28 15.28 0 0 1-2.12 3.33c-1.74 2.11-3.32 4.5-5.49 6.07s-4.93 2.29-7.45 3.33c-.6.25-1.35.17-1.92.46-3.86 2-11-.69-12.94-5.73-2.42-6.18-1.69-11.95 1.05-17.77 3.92-8.3 8-16.55 9.71-25.66a93.23 93.23 0 0 0 .92-10.45c0-.5-.08-1.25-1-.68-6.56 4.14-14 5.2-21.47 5.69a5.75 5.75 0 0 0-4.19 1.84A46.14 46.14 0 0 1 559 419c-1.85.92-3 2.1-3 4.28 0 5-2 9.61-3.28 14.33a4.8 4.8 0 0 1-1.24 2.21c-3 2.8-5.69 6-9.53 8-3.63 1.89-7.1 1.62-10.71.59-5.56-1.59-7.56-5.94-8.09-11.13a48.87 48.87 0 0 1 .09-7.65c.07-1.36-.13-2.05-1.7-2.28a83.26 83.26 0 0 1-9.76-1.9 54.44 54.44 0 0 1-8.79-3.15c-1.62-.75-2.85-1-4.47-.12-4.06 2.23-8.12 4.51-12.35 6.37a53.32 53.32 0 0 1-10.5 3.44 76.21 76.21 0 0 1-14.3 1.92 47.25 47.25 0 0 1-12.05-1.76 73.22 73.22 0 0 1-17.52-7.3 99 99 0 0 1-10.2-6.7 6.54 6.54 0 0 0-6.3-1 45.63 45.63 0 0 1-28.23-.6 3.67 3.67 0 0 0-4.31.85 52.61 52.61 0 0 1-12.77 9.4c-2 1-4.09 1.92-6.15 2.85a18.2 18.2 0 0 1-2.14.77c-1.43.45-1.8 1.26-1.52 2.8.59 3.25 1 6.54 1.32 9.83.3 3.49.44 7 .49 10.5 0 3.31-.09 6.62-.19 9.93a40.45 40.45 0 0 1-3.94 15.52c-2.57 5.66-9.66 9.86-15.71 9.16a11.28 11.28 0 0 1-7.38-3.9c-4.68-5.47-5.65-11.77-4.38-18.64a29.47 29.47 0 0 1 3.53-8.9c2.46-4.46 4.43-9.19 6.56-13.83 1.11-2.41 2.14-4.85 3.14-7.3a15 15 0 0 0 .69-2.46c.21-1-.14-1.3-1.21-1.28-4 .08-7.94.18-11.9 0a21.87 21.87 0 0 1-6.31-1.42 118.11 118.11 0 0 1-18.89-8.5 2.66 2.66 0 0 0-3.44.16 33.57 33.57 0 0 1-8.37 4.11c-8.79 2.87-17.83 3.2-26.95 2-.38-.05-.75-.12-1.12-.19-1-.2-1.53 0-1.46 1.28a41.64 41.64 0 0 1 .06 8.2c-.67 4.58-1.51 9.25-5.21 12.58-2.62 2.36-5.67 3.75-9.34 2.89a15.1 15.1 0 0 1-8-4.6 34.09 34.09 0 0 1-6.87-10.3 44.81 44.81 0 0 1-3-16.66c0-1.6-.19-3.22 0-4.81.21-2-.05-3.54-2.11-4.64-1.25-.67-1.93-2.5-3.2-3.05s-3-.15-4.47-.17c-5.38-.06-10.06-2.37-14.82-4.49-9-4-15.66-10.92-21.27-18.72a42.67 42.67 0 0 1-7.73-18.74 12 12 0 0 0-2.47-5.51 46 46 0 0 1-7.48-14.51 99.67 99.67 0 0 1-3.8-24.58 54.09 54.09 0 0 1 2.21-16 61.49 61.49 0 0 1 5.84-14.73 65.19 65.19 0 0 1 6.53-9.63 179.29 179.29 0 0 1 13.86-15A81.86 81.86 0 0 1 215 251.86a5.72 5.72 0 0 0 3-2.83c1.82-3.85 5-6.64 7.86-9.66 6.26-6.59 14.21-10.24 22.61-13.11 1.26-.43 1.85-.95 1.91-2.36a15.5 15.5 0 0 1 .91-3.79c.21-.72.65-1.38.84-2.11 1.23-4.67 4.06-8.53 6.5-12.54a50.77 50.77 0 0 1 6.46-7.85 93.24 93.24 0 0 1 8.09-7.94 118.42 118.42 0 0 1 10.88-8.18 47.3 47.3 0 0 1 6.94-3.25c5.11-2.31 10.29-4.44 15.88-5.2 3.36-.45 6.78-.45 10.18-.66zm-105.62 89.21c-4.76 2.22-8.25 6-11.62 9.84a80.09 80.09 0 0 0-8.37 11.42c-3.6 5.89-7.42 11.72-9.17 18.54-.63 2.45-1 5-1.71 7.4a50.63 50.63 0 0 0-.59 27.19c.08.3.43.53.66.79a3.14 3.14 0 0 0 .69-.67 34.86 34.86 0 0 1 2.42-4.37c1-1.39 2.38-1.17 3.08.43a6.94 6.94 0 0 1 .68 3.26c-.29 3-.79 5.95-1.29 8.91a38.12 38.12 0 0 0 .38 16.33 42.15 42.15 0 0 0 5.73 12.59c4.74 7.06 10.65 12.43 18.7 15.43a41.88 41.88 0 0 0 4.29 1.49 11.3 11.3 0 0 0 2.73 0c-.06-.81-.1-1.63-.19-2.44a5.94 5.94 0 0 0-.3-1.39c-1.28-3.27-.73-6.75-1.07-10.12a2.38 2.38 0 0 1 1.78-2.85c1.45-.21 1.62 1 2 1.91a61.56 61.56 0 0 0 8.5 14.06 49 49 0 0 0 5.11 5.28c1.39 1.26 1.93 1.11 2.25-.58.92-4.81 3-9.15 4.88-13.62 1.93-4.69 4.81-8.8 7.66-12.93 1.07-1.56 2.28-1.84 3.66-1.14s1.37 1.87 1.11 3.17c-.45 2.23-.91 4.46-1.26 6.7A64 64 0 0 0 252 391a61 61 0 0 0 2.87 15 7.12 7.12 0 0 0 4.86 4.92 50.63 50.63 0 0 0 15.87 3 45.2 45.2 0 0 0 14.4-2.47c1.9-.59 1.94-.6.76-2.32-2.19-3.2-4.49-6.33-6.61-9.58a5.13 5.13 0 0 1-.83-3.11 2.79 2.79 0 0 1 1.78-1.84c.74-.19 2.3.25 2.44.72.55 1.9 2.27 2.4 3.53 3.41a76.91 76.91 0 0 0 19.22 10.8 60.27 60.27 0 0 0 15.95 3.92c5.91.68 11.9.69 17.85 1 1.4.08 1.84-.45 1.68-1.82-.3-2.64-.54-5.28-.69-7.92 0-.66.3-1.83.65-1.91a4.91 4.91 0 0 1 2.63.34c.44.16.74.84 1 1.35 1.25 2.75 2.5 5.5 3.64 8.29.39.95.68 1.23 1.83 1 4.9-.93 9.36-3 13.91-4.92 1.23-.52 1.22-.83.2-1.66-2.49-2-5-4-7.42-6.15a5.49 5.49 0 0 1-1.71-2.51 3.69 3.69 0 0 1 .44-2.65c.59-.95 1.61-.54 2.57-.2a129.14 129.14 0 0 0 17.73 5.08 99.63 99.63 0 0 0 24 2 104.78 104.78 0 0 0 10.77-.94 65.71 65.71 0 0 0 10.77-2.38c5.52-1.82 10.89-4.11 16.35-6.15 2.21-.84 3.95.62 3.3 2.88a10.3 10.3 0 0 1-2.1 4c-1.95 2.17-4.13 4.13-6.29 6.1-1.9 1.72-1.94 1.68.29 2.62a79 79 0 0 0 18.75 5.52c3.72.56 7.53.55 11.3.84a62 62 0 0 0 19.69-2 58.63 58.63 0 0 0 20.46-9.51c2.67-1.94 5.22-4 7.82-6.05.82-.64 1.6-1.52 2.74-.64s.85 1.83.35 2.82c-1.17 2.37-2.3 4.77-3.62 7.06-.61 1.07-.44 1.69.61 1.86 4.11.66 8.24 1.18 12.36 1.79 1.26.18 1.69-.68 2.06-1.55a56.19 56.19 0 0 0 2.48-6c2-6.41 4.19-12.74 5-19.5a69.58 69.58 0 0 0 .4-11.89 49.53 49.53 0 0 1 .05-6c.12-1.87 1.41-2.61 3.17-2a3.7 3.7 0 0 1 2.52 2.45c.86 2.51 1.91 4.95 2.92 7.4 2.35 5.67 5.14 11.17 6.08 17.35.66 4.3 1.57 8.56 2.29 12.85.17 1 .42 1.29 1.44.87 3.13-1.29 5.58-3.53 8.09-5.68a56.18 56.18 0 0 0 10-10.42c1.86-2.69 3.38-5.7 6.34-7.54 1.8-1.11 2.59-1 3.1 1a6.84 6.84 0 0 1 .09 2.26c-.16 1.79-.4 3.57-.6 5.36-.07.69.15 1.08.94 1a22.59 22.59 0 0 0 10.32-3.75 1.36 1.36 0 0 0 .56-1.93c-1-1.93-2-3.84-3-5.78-.82-1.6-.61-2.52.7-3.42a2.29 2.29 0 0 1 3.5.4c1.32 1.47 2.53 3.06 3.75 4.62s1.8 1.67 3.18.32c4.09-4 7.95-8.2 9.91-13.71 1-2.94 2-5.93 2.78-8.95a30.43 30.43 0 0 0 .9-6.16c.28-5.32-1.23-10.28-3.4-15.08a16.47 16.47 0 0 1-1.13-3.78 2.52 2.52 0 0 1 1.66-2.94 2.29 2.29 0 0 1 2.85 1.28c1 1.63 1.72 3.37 2.6 5.05.46.88 1 1.72 1.51 2.58.66-.77 1.34-1.52 2-2.31a4 4 0 0 0 .47-1c3.18-8.63 5.43-17.36 3-26.62-.56-2.1-.85-4.27-1.43-6.36a54.87 54.87 0 0 0-2.56-7.81 63 63 0 0 0-9.38-15.17c-2.51-2.93-4.59-6.25-7.89-8.5A24 24 0 0 1 600 267c-2.81-3.53-6.69-5.51-10.35-7.85a4.1 4.1 0 0 0-1.25-.31 10.13 10.13 0 0 0 .14 1.35c.43 1.94 1 3.85 1.33 5.8.71 4 1.39 8 1.9 12 .22 1.73.39 3.57-.88 5.15-1.39 1.74-2.3 1.72-3.29-.22a15.22 15.22 0 0 1-1.14-2.58 92 92 0 0 0-10.62-23.72c-4.41-6.78-10.42-11.77-17.15-15.85a131.72 131.72 0 0 0-23-11.13c-4-1.46-7.9-3.13-12.21-3.61a5.82 5.82 0 0 1-4.36-2.33c-.64-.95-.89-1.67.57-2.07 2.09-.58 4.12-1.33 6.21-1.88 2.81-.73 2.88-.79 1.42-3.19-.73-1.22-1.51-2.41-2.23-3.64A49.17 49.17 0 0 0 511.33 197a83.73 83.73 0 0 0-14-8.08 103.86 103.86 0 0 0-13.52-5.09 92 92 0 0 0-12.74-2.75c-4.89-.74-9.8-.25-14.7.4-3.12.41-6.18.7-8.66 3-.41.38-1.81.46-2 .22a2.82 2.82 0 0 1-.28-2.26 8.93 8.93 0 0 1 4.29-4.37c2.17-1 4.26-2.07 6.39-3.1a7.92 7.92 0 0 1 1.34-.48c2.09-.54 4.19-1 6.28-1.6a6.24 6.24 0 0 0 1.18-.6c-.3-.33-.53-.78-.9-1-5.36-2.8-10.54-6-16.57-7.3a36.32 36.32 0 0 1-6.15-2.18 56.27 56.27 0 0 0-17.54-4.45c-6.61-.48-13.23-.79-19.86-1.06-7.79-.33-15.51.75-23.16 1.93a114.94 114.94 0 0 0-22.3 5.48 78.15 78.15 0 0 0-8.52 3.77c-4.47 2.27-9 4.43-13.49 6.65a5.1 5.1 0 0 0-.83.64 5 5 0 0 0 .86.67c2.74 1.24 5.52 2.4 8.23 3.69 2.13 1 4.2 2.19 6.27 3.33a4.37 4.37 0 0 1 1.31 1.06 2.37 2.37 0 0 1 0 3.14 1.81 1.81 0 0 1-2.54.48c-2-1.1-4.31-1.27-6.53-1.75A65.65 65.65 0 0 0 325.5 184a67.86 67.86 0 0 0-20.28 4.12c-4 1.52-8.18 2.48-11.48 5.4-1.49 1.32-2.88 2.75-4.48 3.91-4.85 3.5-8.36 8.2-11.74 13-2.34 3.32-4.42 6.82-6.48 10.33-1 1.71-.85 1.82 1 2 2.17.18 4.35.29 6.52.51a11.92 11.92 0 0 1 3.31.71 2.45 2.45 0 0 1 1.26 1.63 1.89 1.89 0 0 1-1 1.46 32.88 32.88 0 0 1-5.38 1.6c-3.71.71-7.63.76-11.17 1.95-7.52 2.53-14.92 5.34-21.23 10.55a113.94 113.94 0 0 0-13.29 13.16 35.36 35.36 0 0 0-3.88 4.88c-2.86 4.8-5.64 9.65-8.2 14.61a65.51 65.51 0 0 0-2.86 7.69c-.49 1.33-.92 2.69-1.5 4-.44 1-1.28 1.95-2.4 1.56-.86-.29-2-1.19-2.12-1.95-.63-4.18-1.83-8.36-.79-12.64.82-3.39 1.73-6.75 2.6-10.13l.16-.7zm402.71 172.26c-.94 2.06-1.65 3.67-2.41 5.27a11.68 11.68 0 0 1-11.08 6.9 5.77 5.77 0 0 1-5.79-5.76c-.07-1.32 0-2.65-.1-4a4.48 4.48 0 0 0-.22-.93c-.18.2-.44.37-.54.61-.88 2-1.63 4-2.6 6-1.46 2.9-1.66 6-1.65 9.13a8.12 8.12 0 0 0 1.08 3.49 6.69 6.69 0 0 0 7.26 3.07 18.3 18.3 0 0 0 11.86-7.6c3.26-4.75 5.3-9.73 4.19-16.18zm-83.45-12c-2.24 4.66-3.6 10-2.31 15.68.6 2.67 1.59 4.89 4.73 5.69s5.59.68 8.25-1.25c3.05-2.2 5.74-4.67 7.3-8.05a30.86 30.86 0 0 0 2.69-10.4 27.69 27.69 0 0 1-2.86 3.44 33.34 33.34 0 0 1-3.75 2.48c-4.3 2.79-9.06 2-11.91-2.27-1.1-1.62-1.53-3.71-2.14-5.3zM356 469.79a10.58 10.58 0 0 1-1.46 1.66c-4.8 3.7-10.6 4.4-14.12-1.31a10.32 10.32 0 0 1-1.26-3.1c-.46-2.12-.73-4.28-1.1-6.41 0-.23-.23-.42-.35-.63-.23.14-.58.23-.66.42-.48 1.22-.9 2.47-1.35 3.71a18 18 0 0 0 .84 15c2.45 4.84 9.24 6 12.75 2.53a10.13 10.13 0 0 1 1.48-1.3c3.71-2.46 4.69-6.36 5.23-10.57zM260 435a10.59 10.59 0 0 0-.11-1.7 5.77 5.77 0 0 0-.51-1.14 4.69 4.69 0 0 0-.57.95c-1.28 4.2-4.35 6.42-8.31 7.82a7.31 7.31 0 0 1-5.77-.45c-.66-.3-1.12-1-1.73-1.42-.23-.16-.65 0-1 0 0 .27-.1.61 0 .8a35.43 35.43 0 0 0 2.49 3.44 25.23 25.23 0 0 0 3.59 3.57 5.79 5.79 0 0 0 7.7-.64C259 443 259.56 438.9 260 435zm267.73 186.53a59.85 59.85 0 0 1-1.81 17.18 32.13 32.13 0 0 1-8.6 15.12c-4.11 4-13.36 4.2-16.68.14a23 23 0 0 1-4.07-7.67 25.33 25.33 0 0 1-.07-14.3 93 93 0 0 1 5.73-15.13 83.06 83.06 0 0 0 5.58-15.75 81 81 0 0 0 2.19-16.6c.1-2.25-.17-4.53-.21-6.8 0-1.12-.12-2.38 1.48-2.62a3.33 3.33 0 0 1 3.5 1.32 11.64 11.64 0 0 1 1.07 2c2.09 5 5.67 9.18 7.15 14.46 2 7.19 4.61 14.24 4.73 21.83.04 2.29.01 4.55.01 6.82zm-25.41 9.4a27.41 27.41 0 0 0-1.8 9.31c-.21 3.74 1.58 6.77 3.53 9.7a3.6 3.6 0 0 0 1.85 1.22 8.15 8.15 0 0 0 8-1.41c5.12-4.36 7.4-10.14 8.12-17a16.24 16.24 0 0 0-1.91 2c-1.3 2.08-3.32 2.88-5.5 3.71-5.29 2-8.44-.27-11.05-4.17a16.33 16.33 0 0 1-1.24-3.36z"/><path d="M463.93 515.27c-.2-6.68 1.13-12.42 2.18-18.18a93.29 93.29 0 0 1 6.62-21.09c2.45-5.54 5.35-10.88 8.1-16.28.49-1 .92-2.17 2.47-1.88a3.74 3.74 0 0 1 3.07 2.92 12.21 12.21 0 0 1-.3 4.18c-2 7.19-1.52 14.38-.51 21.65a77.68 77.68 0 0 0 4.05 15c1.27 3.64 3 7.13 4.12 10.81s2 7.37 1.56 11.19c-.32 2.9-.52 6-1.75 8.56-3 6.18-9.16 10.29-16.87 6.64-3.5-1.65-6.64-3.65-8.46-7.21a42.41 42.41 0 0 1-2.21-4.86c-1.41-3.92-2.48-7.94-2.07-11.45zm5.16 2.83c.67 5.25 2.19 10.28 6.27 13.83 5.94 5.16 12.5 2.27 14.32-3.57a22.89 22.89 0 0 0-.11-12.84c-.06-.24-.39-.64-.46-.61-.3.11-.7.31-.77.56-.8 2.67-2.67 4.56-4.68 6.28-2.88 2.47-5.15 2.7-8.22.58a51.71 51.71 0 0 1-5.24-4.71c-.26-.24-.5-.52-.75-.78-.12.4-.23.8-.36 1.26zm108.16 9.11c-.09 7.23-1.6 14.15-3.37 21a26 26 0 0 1-10.1 15c-6.16 4.36-15.92 3.66-18.58-6.19a22 22 0 0 1 .12-12.27c2.35-7.92 5.91-15.29 9.38-22.74 1.91-4.08 3.37-8.38 4.94-12.61 2.29-6.16 2.24-12.6 2.28-19a35.62 35.62 0 0 1 .6-5.63c.21-1.24 2.46-2.38 3.59-2a1.08 1.08 0 0 1 .5.62c1.17 3.07 2.16 6.22 3.52 9.2a67.71 67.71 0 0 1 5.12 18.53c.75 5.4 1.34 10.75 2 16.09zm-27.59 23.16l.39.1v2c.12 3.32 1.52 5.85 4.71 7.07 2.67 1 5.06 0 7.11-1.62 3-2.46 5.64-5.33 6.71-9.26.24-.89.38-1.8.57-2.7-.79.39-1.62.73-2.37 1.18-4.9 3-10.36.9-11.88-4.59-.42-1.55-.62-3.15-.94-4.73a3.14 3.14 0 0 0-.22-.58 4.37 4.37 0 0 0-.25.48c-.73 1.95-1.57 3.86-2.17 5.85-.66 2.22-1.11 4.52-1.66 6.8zM385.31 521.4v7.66a15.3 15.3 0 0 0 .21 3.11c1.27 5.63 2.57 11.25 4 16.85 1.07 4.3 2.45 8.53 3.38 12.86a38 38 0 0 1 0 14.68 13.78 13.78 0 0 1-8.46 10.65 8.27 8.27 0 0 1-3.88.59c-3.21-.29-6.44-.88-9.1-2.76a13.82 13.82 0 0 1-5.23-6.54c-1.47-4-1.63-8.16-1.62-12.33 0-6.78 1.52-13.33 3.19-19.84 1.12-4.4 2-8.89 3.58-13.14 2.32-6.4 5.07-12.64 7.74-18.91a14.88 14.88 0 0 1 2.44-3.46 2.6 2.6 0 0 1 3.14-.56c1.13.43 1.11 1.33 1.09 2.34-.06 2.93 0 5.87 0 8.8zm-15.23 39.66a7.66 7.66 0 0 0-.43 1.9c.14 3.39.22 6.8.59 10.17.5 4.7 3.23 7.66 7.69 9.18 2.58.88 5.58.53 7.3-1.48a16.46 16.46 0 0 0 2.36-4.12c1.49-3.3 1-6.86 1.13-10.32a2.11 2.11 0 0 0-.24-.69c-.2.16-.52.29-.57.49-.58 2.21-2.28 3.42-4.08 4.49-3.69 2.22-7.37 1.58-10.12-1.73a7.75 7.75 0 0 1-1.24-1.88c-.84-1.96-1.58-3.96-2.39-6.01zm63.86-78.79a87.49 87.49 0 0 1-.92 9.56c-.89 4.61-3.87 8-7.09 11.37s-7.43 3.85-11.69 3.76c-3.46-.07-5.75-2.32-7.31-5.16a22.05 22.05 0 0 1-2.18-16.8c1.62-6 3.51-12 5.31-18a51.31 51.31 0 0 0 2.67-13.88c0-2.36.55-4.7.6-7.06.06-3.11-.08-6.23-.23-9.34-.06-1.32 0-2.5 1.38-3.12a2.56 2.56 0 0 1 3.23 1.07 37.39 37.39 0 0 1 2.78 4.25c2.35 4 5 7.86 6.86 12.06a64.16 64.16 0 0 1 5.14 16.81c.66 4.46.91 8.92 1.45 14.48zm-22.62-1.06a29.33 29.33 0 0 0-2 12.31 14 14 0 0 0 1.38 4.86 4.8 4.8 0 0 0 4.58 2.88 12 12 0 0 0 11.07-6.58c.54-1 1.06-2 1.5-3a5.59 5.59 0 0 0 .22-1.49c-.5.1-1.18 0-1.46.34-1.71 1.83-4.05 2-6.25 2.38a6.61 6.61 0 0 1-7.59-4.9c-.53-2.2-.94-4.42-1.45-6.8zm16.92 9c.19-.33.41-.54.42-.75s-.24-.37-.38-.56c-.14.2-.37.4-.4.63s.19.35.36.65zM211 506.69c-.53 5.25 1.56 11 3.43 16.72 2 6.1 4.41 12.06 6.58 18.1a21.9 21.9 0 0 1 1.59 5.72c.4 5.91 1.06 12-3.11 17a11.42 11.42 0 0 1-7.23 4c-3.8.68-7.46.77-10.49-1.8a28.41 28.41 0 0 1-4.86-5.81c-2.24-3.28-2.94-7.12-3.49-11a42.13 42.13 0 0 1 1.07-18c1.7-5.81 2.81-11.81 4.78-17.52 2-5.88 4.75-11.53 7.22-17.26a2.64 2.64 0 0 1 3-1.63 2.34 2.34 0 0 1 1.52 2.48c-.01 2.74-.01 5.39-.01 9zm7.66 45l-.3-.08c-.17-.93-.32-1.87-.52-2.79-.05-.22-.26-.39-.4-.59a3 3 0 0 0-.52.56 31.19 31.19 0 0 1-1.9 3.79c-1.37 1.94-3.06 3.59-5.71 3.49a10.87 10.87 0 0 1-10.16-6.73 4.63 4.63 0 0 0-.61-.79c-.14.31-.42.65-.39.94.32 2.82.63 5.7 2.18 8.14 1.36 2.13 2.68 4.42 5.18 5.46 3.5 1.45 6.66.14 9.7-1.48a3.12 3.12 0 0 0 1.32-1.77c.78-2.66 1.47-5.4 2.12-8.12zm53.01-40.89a120.72 120.72 0 0 1 4.41-26.9 132.27 132.27 0 0 1 6.69-18.68c.58-1.29 1.13-2.38 2.86-2.19s2.21.53 2.41 2.42c.37 3.49.64 7 1.1 10.46.33 2.43.85 4.85 1.4 7.24 1 4.43 1.93 8.9 3.23 13.24q2.4 8 5.39 15.84a27.61 27.61 0 0 1 1.13 17.21 8.11 8.11 0 0 1-1.44 2.76 13.69 13.69 0 0 1-13.76 5.48c-3-.45-5.14-2.75-7.2-4.83a17.91 17.91 0 0 1-5.43-12.44c-.09-3.21-.46-6.41-.79-9.61zM288 533a8.74 8.74 0 0 0 8.07-7.1 15.22 15.22 0 0 0-.48-8.09c-.33-1-.77-2-1.16-3-.36.85-.74 1.69-1.09 2.55-1.41 3.42-3.27 6.06-7.61 5.91-3.35-.1-5.91-1.44-7.37-4.55a3.54 3.54 0 0 0-.63-.77 3.35 3.35 0 0 0-.3 1c0 3.8.92 7.37 3.6 10.17 1.84 2 3.87 3.95 6.97 3.88zm2.35 94.86c-.09-8.88 1.73-17.48 4.16-26 1.24-4.35 2.91-8.59 4.47-12.85.58-1.6 1.42-3.09 2.09-4.65a3.18 3.18 0 0 1 2.35-1.84c1.71-.46 2.08-.34 2.22 1.39.32 3.86.49 7.73.8 11.6a81.57 81.57 0 0 0 6.06 25c1.48 3.57 2.24 7.46 3.87 11 3 6.4 2.8 13 2.24 19.75a7.26 7.26 0 0 1-1.12 2.87c-1.54 2.59-4.07 4.13-6.45 5.82a1.36 1.36 0 0 1-.8.23c-3.09-.22-6.3 0-9.16-1.34a14.26 14.26 0 0 1-5.89-6 36.62 36.62 0 0 1-4.81-16.75c-.17-2.74-.03-5.49-.03-8.23zm24.14 17.42q-.63-3.76-1.29-7.53a3.1 3.1 0 0 0-.39-.74c-.22.26-.54.49-.65.79s-.09 1-.25 1.39c-1.86 5.13-8.12 7.22-11.6 3.56-.78-.82-1.59-1.61-2.34-2.45-.61-.69-1.17-1.43-1.75-2.15a20.37 20.37 0 0 0-.06 2.92c.6 4.73 2.11 9.13 5.94 12.2 3 2.39 7.21 3.2 10.22-.58a10 10 0 0 0 2.17-7.41zM160.43 313.36l-.43-1.82c.17 0 .48-.06.5 0 .23.52.41 1.06.6 1.6zm235.71 265.73a5.16 5.16 0 0 1-.8.25c-.07 0-.17-.21-.26-.33a3.79 3.79 0 0 1 .73-.28c.06-.02.19.19.33.36z"/><path class="a" d="M211.91 262.34c-.87 3.38-1.78 6.74-2.6 10.13-1 4.28.16 8.46.79 12.64.12.76 1.26 1.66 2.12 1.95 1.12.39 2-.55 2.4-1.56.58-1.29 1-2.65 1.5-4a65.51 65.51 0 0 1 2.86-7.69c2.56-5 5.34-9.81 8.2-14.61a35.36 35.36 0 0 1 3.88-4.88 113.94 113.94 0 0 1 13.29-13.16c6.31-5.21 13.71-8 21.23-10.55 3.54-1.19 7.46-1.24 11.17-1.95a32.88 32.88 0 0 0 5.38-1.6 1.89 1.89 0 0 0 1-1.46 2.45 2.45 0 0 0-1.26-1.63 11.92 11.92 0 0 0-3.31-.71c-2.17-.22-4.35-.33-6.52-.51-1.89-.16-2-.27-1-2 2.06-3.51 4.14-7 6.48-10.33 3.38-4.8 6.89-9.5 11.74-13 1.6-1.16 3-2.59 4.48-3.91 3.3-2.92 7.52-3.88 11.48-5.4A67.86 67.86 0 0 1 325.5 184a65.65 65.65 0 0 1 17.78 1.37c2.22.48 4.49.65 6.53 1.75a1.81 1.81 0 0 0 2.54-.48 2.37 2.37 0 0 0 0-3.14 4.37 4.37 0 0 0-1.31-1.06c-2.07-1.14-4.14-2.3-6.27-3.33-2.71-1.29-5.49-2.45-8.23-3.69a5 5 0 0 1-.86-.67 5.1 5.1 0 0 1 .83-.64c4.49-2.22 9-4.38 13.49-6.65a78.15 78.15 0 0 1 8.52-3.77 114.94 114.94 0 0 1 22.3-5.48c7.65-1.18 15.37-2.26 23.16-1.93 6.63.27 13.25.58 19.86 1.06a56.27 56.27 0 0 1 17.54 4.45 36.32 36.32 0 0 0 6.15 2.18c6 1.33 11.21 4.5 16.57 7.3.37.19.6.64.9 1a6.24 6.24 0 0 1-1.18.6c-2.09.56-4.19 1.06-6.28 1.6a7.92 7.92 0 0 0-1.34.48c-2.13 1-4.22 2.15-6.39 3.1a8.93 8.93 0 0 0-4.29 4.37 2.82 2.82 0 0 0 .28 2.26c.14.24 1.54.16 2-.22 2.48-2.28 5.54-2.57 8.66-3 4.9-.65 9.81-1.14 14.7-.4a92 92 0 0 1 12.74 2.75 103.86 103.86 0 0 1 13.52 5.09 83.73 83.73 0 0 1 14 8.08 49.17 49.17 0 0 1 13.81 15.91c.72 1.23 1.5 2.42 2.23 3.64 1.46 2.4 1.39 2.46-1.42 3.19-2.09.55-4.12 1.3-6.21 1.88-1.46.4-1.21 1.12-.57 2.07a5.82 5.82 0 0 0 4.36 2.33c4.31.48 8.24 2.15 12.21 3.61a131.72 131.72 0 0 1 23 11.13c6.73 4.08 12.74 9.07 17.15 15.85a92 92 0 0 1 10.62 23.72 15.22 15.22 0 0 0 1.14 2.58c1 1.94 1.9 2 3.29.22 1.27-1.58 1.1-3.42.88-5.15-.51-4-1.19-8-1.9-12-.34-1.95-.9-3.86-1.33-5.8a10.13 10.13 0 0 1-.14-1.35 4.1 4.1 0 0 1 1.25.31c3.66 2.34 7.54 4.32 10.35 7.85a24 24 0 0 0 5.27 4.62c3.3 2.25 5.38 5.57 7.89 8.5a63 63 0 0 1 9.38 15.17 54.87 54.87 0 0 1 2.56 7.81c.58 2.09.87 4.26 1.43 6.36 2.47 9.26.22 18-3 26.62a4 4 0 0 1-.47 1c-.63.79-1.31 1.54-2 2.31-.51-.86-1-1.7-1.51-2.58-.88-1.68-1.65-3.42-2.6-5.05a2.29 2.29 0 0 0-2.85-1.28 2.52 2.52 0 0 0-1.66 2.94 16.47 16.47 0 0 0 1.13 3.78c2.17 4.8 3.68 9.76 3.4 15.08a30.43 30.43 0 0 1-.9 6.16c-.77 3-1.73 6-2.78 8.95-2 5.51-5.82 9.72-9.91 13.71-1.38 1.35-2 1.2-3.18-.32s-2.43-3.15-3.75-4.62a2.29 2.29 0 0 0-3.5-.4c-1.31.9-1.52 1.82-.7 3.42 1 1.94 2 3.85 3 5.78a1.36 1.36 0 0 1-.56 1.93 22.59 22.59 0 0 1-10.32 3.75c-.79.11-1-.28-.94-1 .2-1.79.44-3.57.6-5.36A6.84 6.84 0 0 0 584 382c-.51-2-1.3-2.15-3.1-1-3 1.84-4.48 4.85-6.34 7.54a56.18 56.18 0 0 1-10 10.42c-2.51 2.15-5 4.39-8.09 5.68-1 .42-1.27.14-1.44-.87-.72-4.29-1.63-8.55-2.29-12.85-.94-6.18-3.73-11.68-6.08-17.35-1-2.45-2.06-4.89-2.92-7.4a3.7 3.7 0 0 0-2.52-2.45c-1.76-.63-3 .11-3.17 2a49.53 49.53 0 0 0-.05 6 69.58 69.58 0 0 1-.4 11.89c-.8 6.76-3 13.09-5 19.5a56.19 56.19 0 0 1-2.48 6c-.37.87-.8 1.73-2.06 1.55-4.12-.61-8.25-1.13-12.36-1.79-1.05-.17-1.22-.79-.61-1.86 1.32-2.29 2.45-4.69 3.62-7.06.5-1 .69-2-.35-2.82s-1.92 0-2.74.64c-2.6 2-5.15 4.11-7.82 6.05a58.63 58.63 0 0 1-20.46 9.51 62 62 0 0 1-19.69 2c-3.77-.29-7.58-.28-11.3-.84a79 79 0 0 1-18.75-5.52c-2.23-.94-2.19-.9-.29-2.62 2.16-2 4.34-3.93 6.29-6.1a10.3 10.3 0 0 0 2.1-4c.65-2.26-1.09-3.72-3.3-2.88-5.46 2-10.83 4.33-16.35 6.15a65.71 65.71 0 0 1-10.77 2.38 104.78 104.78 0 0 1-10.77.94 99.63 99.63 0 0 1-24-2 129.14 129.14 0 0 1-17.73-5.08c-1-.34-2-.75-2.57.2a3.69 3.69 0 0 0-.44 2.65 5.49 5.49 0 0 0 1.71 2.51c2.41 2.12 4.93 4.12 7.42 6.15 1 .83 1 1.14-.2 1.66-4.55 1.89-9 4-13.91 4.92-1.15.22-1.44-.06-1.83-1-1.14-2.79-2.39-5.54-3.64-8.29-.23-.51-.53-1.19-1-1.35a4.91 4.91 0 0 0-2.63-.34c-.35.08-.68 1.25-.65 1.91.15 2.64.39 5.28.69 7.92.16 1.37-.28 1.9-1.68 1.82-5.95-.34-11.94-.35-17.85-1a60.27 60.27 0 0 1-15.95-3.92 76.91 76.91 0 0 1-19.22-10.8c-1.26-1-3-1.51-3.53-3.41-.14-.47-1.7-.91-2.44-.72a2.79 2.79 0 0 0-1.78 1.84 5.13 5.13 0 0 0 .83 3.11c2.12 3.25 4.42 6.38 6.61 9.58 1.18 1.72 1.14 1.73-.76 2.32a45.2 45.2 0 0 1-14.49 2.48 50.63 50.63 0 0 1-15.87-3 7.12 7.12 0 0 1-4.86-4.92A61 61 0 0 1 252 391a64 64 0 0 1 .28-14.44c.35-2.24.81-4.47 1.26-6.7.26-1.3.27-2.48-1.11-3.17s-2.59-.42-3.66 1.14c-2.85 4.13-5.73 8.24-7.66 12.93-1.84 4.47-4 8.81-4.88 13.62-.32 1.69-.86 1.84-2.25.58a49 49 0 0 1-5.11-5.28 61.56 61.56 0 0 1-8.5-14.06c-.41-.95-.58-2.12-2-1.91a2.38 2.38 0 0 0-1.78 2.85c.34 3.37-.21 6.85 1.07 10.12a5.94 5.94 0 0 1 .3 1.39c.09.81.13 1.63.19 2.44a11.3 11.3 0 0 1-2.73 0 41.88 41.88 0 0 1-4.29-1.49c-8-3-14-8.38-18.67-15.44a42.15 42.15 0 0 1-5.81-12.58 38.12 38.12 0 0 1-.38-16.33c.5-3 1-5.92 1.29-8.91a6.94 6.94 0 0 0-.68-3.26c-.7-1.6-2-1.82-3.08-.43a34.86 34.86 0 0 0-2.42 4.37 3.14 3.14 0 0 1-.69.67c-.23-.26-.58-.49-.66-.79a50.63 50.63 0 0 1 .56-27.19c.7-2.43 1.08-4.95 1.71-7.4 1.75-6.82 5.57-12.65 9.17-18.54a80.09 80.09 0 0 1 8.37-11.42c3.37-3.79 6.86-7.62 11.62-9.84zm31.38 50.72l.53.64q-2.1 1.2-4.18 2.42c-4.76 2.74-9.55 5.44-14.27 8.25-3.08 1.83-6.14 3.72-8.44 6.57l-1.17 1.48c.64.49 1.24 1.31 1.93 1.39a14.37 14.37 0 0 0 4.24-.18c6.07-1.16 12.11-.36 18.07.54 3.61.54 7.07 2.06 10.62 3s7.13 1.86 10.71 2.75c5.22 1.31 10.35 3 15.7 3.87a130.29 130.29 0 0 0 21.75 2.21 84.87 84.87 0 0 0 10.22-.26c8.55-1.06 17.09-2.42 24.84-6.51a86 86 0 0 0 10.6-6.48c4.66-3.4 9-7.24 14.19-9.83a16.16 16.16 0 0 1 5.91-1.77c2.79-.18 5.67-.05 8.25 1.47a1.79 1.79 0 0 0 2.7-.57c.63-1 1.09-2 0-3.05a47.76 47.76 0 0 1-3.85-3.67c-5.82-6.59-13.22-10.94-20.93-14.81-4.3-2.16-8.69-4.13-13.1-6.06-2.5-1.09-5.11-1.94-7.69-2.86a11.19 11.19 0 0 0-1.67-.28c-3.69-.79-7.43-1.41-11.06-2.44a49.77 49.77 0 0 0-15.08-2.09c-1.7.06-3.4.11-5.09.26-4.24.38-8.56.44-12.71 1.3-5.45 1.11-11 2-16.26 3.91-4.27 1.55-8.65 2.81-12.83 4.58-5.31 2.25-10.37 5.11-15.7 7.31-8.66 3.59-17.39 7-26.21 10.22-6.59 2.36-13.29 4.49-20.3 5.3a5.94 5.94 0 0 0-1.39.3c-1.22.47-1.34 1.19-.4 2.1a5 5 0 0 0 4.22 1.29c3.73-.53 7.44-1.25 11.11-2.07 3.33-.74 6.58-1.78 9.89-2.58 6.72-1.6 13.45-3.18 20.19-4.67 2.16-.53 4.43-.68 6.66-.98zm319.2-3.27a42.49 42.49 0 0 1 6.29 1.37c5.27 2 11.14 1.85 16.23 4.72 2.4 1.35 5.41 1.6 8.15 2.33 1.55.41 3.11.84 4.69 1.15 5.85 1.16 11.7 2.27 17.55 3.39a3.57 3.57 0 0 0 1.13 0c1.7-.21 2.54-1.06 2.5-2.51 0-1.25-.82-2-2.52-2.13-7.1-.36-13.62-3.14-20.39-4.81-4.18-1-8.17-2.86-12.25-4.3s-8.44-2.77-12.56-4.41c-5.34-2.13-10.6-4.46-15.85-6.8a145.54 145.54 0 0 0-20.6-7.9 81 81 0 0 0-18.11-3.31c-4.25-.18-8.51-.16-12.76-.06a73.83 73.83 0 0 0-17.15 2.21c-5.76 1.5-11.46 3.25-17.08 5.18-4.83 1.66-9.56 3.62-14.24 5.65s-9.1 4.22-13.62 6.4c-4.77 2.3-9.46 4.77-13.42 8.35a65.92 65.92 0 0 0-5.58 6 2.33 2.33 0 0 0 0 3.15 2.38 2.38 0 0 0 2.86.61c6.21-2.09 12.31-1 18 1.5 7.15 3.17 14 7.06 21 10.59 5.57 2.82 11.14 5.53 17.29 7.06 8.35 2.06 16.78 2 25.15 1.21 7.89-.78 15.6-3 23.19-5.33 4.34-1.34 8.63-2.83 12.91-4.31 3.48-1.21 6.88-2.68 10.41-3.72a60.73 60.73 0 0 1 11.57-2.65c3.82-.33 7.72.38 11.59.66a14.09 14.09 0 0 1 7.69 2.54c1.12.82 2.85.91 4.34 1.05 1.3.13 1.8-.91 1.16-2.09a4.61 4.61 0 0 0-.67-.92 59.12 59.12 0 0 0-9.65-8.55c-5.46-3.87-10.93-7.69-17.25-11.32zM436 231l-.08.43c-2.3-.48-4.64-.83-6.89-1.49-2-.58-3.85-1.61-5.82-2.25-6.66-2.15-11.84-6.48-15.89-11.85a23.46 23.46 0 0 1-4.6-16 11.93 11.93 0 0 0-.37-3.9 10.13 10.13 0 0 0-1.49-2.51 27.59 27.59 0 0 0-2.4 2.31 3.15 3.15 0 0 0-.4 1.63c-.24 2.44-.35 4.89-.67 7.32-.72 5.54-3.4 10.23-7 14.35a29.6 29.6 0 0 1-9.66 7.38 41.56 41.56 0 0 1-9.79 3.67c-4.05.77-8 2.14-12.3 1.94-2.48-.12-3.48 2.81-1.81 4.69.93 1.05 2.14 1.84 3.09 2.87a12 12 0 0 1 2.55 3.33 47.31 47.31 0 0 1 2.91 14.38 8.13 8.13 0 0 1-.07 2.26c-.71 3.42-1.33 6.87-2.29 10.23a30.16 30.16 0 0 1-4.15 9.59c-1.1 1.53-2 3.18-3.14 4.72-1 1.33-1 2.12.31 3.56s2.19 2.17 4 1.59c.37-.12.72-.24 1.08-.38 4-1.51 7.91-3.11 11.92-4.51a112.36 112.36 0 0 1 14.73-4.12c8.87-1.78 17.72-3.13 26.77-1.73 2.52.39 5.05.76 7.52 1.37a42.64 42.64 0 0 1 7.8 2.47c3.66 1.72 7.49 3.24 10.61 6a1.14 1.14 0 0 0 .23.15 2.83 2.83 0 0 0 3.45-.2 2.54 2.54 0 0 0 .52-3.14 24.3 24.3 0 0 0-1.24-2.23 58.77 58.77 0 0 1-7.79-21.78 47.76 47.76 0 0 1-.35-7.37c.14-6.87 1.54-13.32 6.73-18.36a2.17 2.17 0 0 0 .36-.44c1.08-1.68.41-3.22-1.58-3.49-1.62-.3-3.23-.38-4.8-.49zm-9.11 163.19c1.68-.26 4.85-.45 6.82-3.13a19.25 19.25 0 0 0 3.71-11.42c.08-5-1.77-9.61-3-14.32-1.61-6-2.15-11.94-.66-17.94 1-4.11 2.37-8.15 3.75-12.17.44-1.25.59-2.25-.56-3a2.12 2.12 0 0 0-3 .55c-1.75 2.22-3.57 4.39-5.26 6.67-5.18 7-8.67 14.8-11.47 23a44.8 44.8 0 0 0-1.53 23 10.76 10.76 0 0 0 11.17 8.73zM401.5 178.32a5.73 5.73 0 0 0-5.29 5.88 4.48 4.48 0 0 0 4.64 4.37c2.23 0 5.22-3 5.26-5.16.05-2.62-2.23-5.14-4.61-5.09zm-53.89 47.26a3.69 3.69 0 0 0-3.88 2.19c-.83 2.06-1.07 4.23.44 6.16a2.76 2.76 0 0 0 4.21.58 10.93 10.93 0 0 0 2.09-1.87c1.34-1.58 1-3.41.32-5.07a3.12 3.12 0 0 0-3.18-1.99zm57.13 68.29a10.13 10.13 0 0 0-1.19-2.23c-1.23-1.48-3.9-1.91-5.11-.82-2.42 2.18-3.06 4.27-1.85 6.48.63 1.15 1.41 2.32 3 2.31 2.41-.02 5.05-2.74 5.15-5.74zm52.59-65.58a4.57 4.57 0 0 0-4.09-4.3c-2.19 0-4.31 2.35-4.31 4.76 0 2.24 1.79 4.38 3.59 4.29 2.29-.11 4.86-2.65 4.81-4.75z"/><path class="b" d="M614.17 434.17c1.11 6.45-.93 11.43-4.19 16.18a18.3 18.3 0 0 1-11.86 7.6 6.69 6.69 0 0 1-7.26-3.07 8.12 8.12 0 0 1-1.08-3.49c0-3.11.19-6.23 1.65-9.13 1-1.94 1.72-4 2.6-6 .1-.24.36-.41.54-.61a4.48 4.48 0 0 1 .22.93c.05 1.33 0 2.66.1 4a5.77 5.77 0 0 0 5.79 5.76 11.68 11.68 0 0 0 11.08-6.9c.76-1.6 1.47-3.21 2.41-5.27z"/><path class="c" d="M530.72 422.19c.61 1.59 1 3.68 2.14 5.32 2.85 4.27 7.61 5.06 11.91 2.27a33.34 33.34 0 0 0 3.75-2.48 27.69 27.69 0 0 0 2.86-3.44 30.86 30.86 0 0 1-2.69 10.4c-1.56 3.38-4.25 5.85-7.3 8.05-2.66 1.93-5.21 2-8.25 1.25s-4.13-3-4.73-5.69c-1.29-5.7.07-11.02 2.31-15.68zM356 469.79c-.51 4.21-1.49 8.11-5.23 10.58a10.13 10.13 0 0 0-1.48 1.3c-3.51 3.5-10.3 2.31-12.75-2.53a18 18 0 0 1-.84-15c.45-1.24.87-2.49 1.35-3.71.08-.19.43-.28.66-.42.12.21.32.4.35.63.37 2.13.64 4.29 1.1 6.41a10.32 10.32 0 0 0 1.26 3.1c3.52 5.71 9.32 5 14.12 1.31a10.58 10.58 0 0 0 1.46-1.67z"/><path class="b" d="M260 435c-.43 3.89-1 8-4.18 11.19a5.79 5.79 0 0 1-7.7.64 25.23 25.23 0 0 1-3.59-3.57 35.43 35.43 0 0 1-2.49-3.44c-.12-.19 0-.53 0-.8.33 0 .75-.12 1 0 .61.42 1.07 1.12 1.73 1.42a7.31 7.31 0 0 0 5.77.45c4-1.4 7-3.62 8.31-7.82a4.69 4.69 0 0 1 .57-.95 5.77 5.77 0 0 1 .51 1.14A10.59 10.59 0 0 1 260 435z"/><path class="a" d="M211.46 261.91l.61-.27c0 .24-.11.47-.16.7z"/><path class="b" d="M502.32 630.93a16.33 16.33 0 0 0 1.24 3.41c2.61 3.9 5.76 6.19 11.05 4.17 2.18-.83 4.2-1.63 5.5-3.71a16.24 16.24 0 0 1 1.91-2c-.72 6.85-3 12.63-8.12 17a8.15 8.15 0 0 1-8 1.41 3.6 3.6 0 0 1-1.85-1.22c-1.95-2.93-3.74-6-3.53-9.7a27.41 27.41 0 0 1 1.8-9.36z"/><path class="c" d="M469.09 518.1c.13-.46.24-.86.36-1.26.25.26.49.54.75.78a51.71 51.71 0 0 0 5.24 4.71c3.07 2.12 5.34 1.89 8.22-.58 2-1.72 3.88-3.61 4.68-6.28.07-.25.47-.45.77-.56.07 0 .4.37.46.61a22.89 22.89 0 0 1 .11 12.84c-1.82 5.84-8.38 8.73-14.32 3.57-4.08-3.55-5.6-8.58-6.27-13.83zm80.57 32.27c.55-2.28 1-4.58 1.67-6.82.6-2 1.44-3.9 2.17-5.85a4.37 4.37 0 0 1 .25-.48 3.14 3.14 0 0 1 .22.58c.32 1.58.52 3.18.94 4.73 1.52 5.49 7 7.57 11.88 4.59.75-.45 1.58-.79 2.37-1.18-.19.9-.33 1.81-.57 2.7-1.07 3.93-3.66 6.8-6.71 9.26-2 1.65-4.44 2.65-7.11 1.62-3.19-1.22-4.59-3.75-4.71-7.07v-2zm-179.58 10.69c.81 2.05 1.55 4.05 2.39 6a7.75 7.75 0 0 0 1.24 1.88c2.75 3.31 6.43 3.95 10.12 1.73 1.8-1.07 3.5-2.28 4.08-4.49 0-.2.37-.33.57-.49a2.11 2.11 0 0 1 .24.69c-.15 3.46.36 7-1.13 10.32a16.46 16.46 0 0 1-2.36 4.12c-1.72 2-4.72 2.36-7.3 1.48-4.46-1.52-7.19-4.48-7.69-9.18-.37-3.37-.45-6.78-.59-10.17a7.66 7.66 0 0 1 .43-1.89z"/><path class="b" d="M411.32 481.21c.51 2.38.92 4.6 1.48 6.79a6.61 6.61 0 0 0 7.59 4.9c2.2-.38 4.54-.55 6.25-2.38.28-.31 1-.24 1.46-.34a5.59 5.59 0 0 1-.22 1.49c-.44 1-1 2-1.5 3a12 12 0 0 1-11.07 6.58 4.8 4.8 0 0 1-4.58-2.88 14 14 0 0 1-1.38-4.86 29.33 29.33 0 0 1 1.97-12.3z"/><path class="a" d="M428.24 490.18c-.17-.3-.39-.51-.36-.68s.26-.43.4-.63c.14.19.38.38.38.56s-.23.42-.42.75z"/><path class="c" d="M218.65 551.72c-.69 2.72-1.34 5.46-2.13 8.15a3.12 3.12 0 0 1-1.32 1.77c-3 1.62-6.2 2.93-9.7 1.48-2.5-1-3.82-3.33-5.18-5.46-1.55-2.44-1.86-5.32-2.18-8.14 0-.29.25-.63.39-.94a4.63 4.63 0 0 1 .61.79 10.87 10.87 0 0 0 10.16 6.73c2.65.1 4.34-1.55 5.71-3.49a31.19 31.19 0 0 0 1.9-3.79 3 3 0 0 1 .52-.56c.14.2.35.37.4.59.2.92.35 1.86.52 2.79zM288 533c-3.06.09-5.09-1.86-7-3.81-2.68-2.8-3.56-6.37-3.6-10.17a3.35 3.35 0 0 1 .3-1 3.54 3.54 0 0 1 .63.77c1.46 3.11 4 4.45 7.37 4.55 4.34.15 6.2-2.49 7.61-5.91.35-.86.73-1.7 1.09-2.55.39 1 .83 2 1.16 3a15.22 15.22 0 0 1 .48 8.09A8.74 8.74 0 0 1 288 533z"/><path class="b" d="M314.49 645.28a10 10 0 0 1-2.17 7.41c-3 3.78-7.23 3-10.22.58-3.83-3.07-5.34-7.47-5.94-12.2a20.37 20.37 0 0 1 .06-2.92c.58.72 1.14 1.46 1.75 2.15.75.84 1.56 1.63 2.34 2.45 3.48 3.66 9.74 1.57 11.6-3.56.16-.43.09-1 .25-1.39s.43-.53.65-.79a3.1 3.1 0 0 1 .39.74q.66 3.77 1.29 7.53z"/><path d="M243.29 313.06c-2.23.3-4.5.45-6.7.93-6.74 1.49-13.47 3.07-20.19 4.67-3.31.8-6.56 1.84-9.89 2.58-3.67.82-7.38 1.54-11.11 2.07a5 5 0 0 1-4.22-1.29c-.94-.91-.82-1.63.4-2.1a5.94 5.94 0 0 1 1.39-.3c7-.81 13.71-2.94 20.3-5.3 8.82-3.17 17.55-6.63 26.21-10.22 5.33-2.2 10.39-5.06 15.7-7.31 4.18-1.77 8.56-3 12.83-4.58 5.28-1.91 10.81-2.8 16.26-3.91 4.15-.86 8.47-.92 12.71-1.3 1.69-.15 3.39-.2 5.09-.26a49.77 49.77 0 0 1 15.08 2.09c3.63 1 7.37 1.65 11.06 2.44a11.19 11.19 0 0 1 1.67.28c2.58.92 5.19 1.77 7.69 2.86 4.41 1.93 8.8 3.9 13.1 6.06 7.71 3.87 15.11 8.22 20.93 14.81a47.76 47.76 0 0 0 3.85 3.67c1.13 1 .67 2 0 3.05a1.79 1.79 0 0 1-2.7.57c-2.58-1.52-5.46-1.65-8.25-1.47a16.16 16.16 0 0 0-5.91 1.77c-5.18 2.59-9.53 6.43-14.19 9.83a86 86 0 0 1-10.6 6.48c-7.75 4.09-16.29 5.45-24.84 6.51a84.87 84.87 0 0 1-10.22.26 130.29 130.29 0 0 1-21.74-2.12c-5.35-.9-10.48-2.56-15.7-3.87-3.58-.89-7.16-1.77-10.71-2.75s-7-2.5-10.62-3c-6-.9-12-1.7-18.07-.54a14.37 14.37 0 0 1-4.24.18c-.69-.08-1.29-.9-1.93-1.39l1.17-1.48c2.3-2.85 5.36-4.74 8.44-6.57 4.72-2.81 9.51-5.51 14.27-8.25l4.17-2.42 1.38-.79h-1.69c-.04-.05-.11.05-.18.11zm62.18-14c-2.11.23-4.46.38-6.78.75a102.47 102.47 0 0 0-27.13 8.09 69.34 69.34 0 0 0-7.74 4.15 288.86 288.86 0 0 0-12.51 8.33c-3.55 2.51-7 5.22-10.43 7.84-.71.54-1.23 1.13.09 1.51 5.9 1.71 11.82 3.37 17.72 5.08a1 1 0 0 0 1.51-.71 16.86 16.86 0 0 1 1.86-3.45c1.29-1.74 2.77-3.36 4.16-5a21.52 21.52 0 0 1 6.51-5.8 107 107 0 0 1 9.56-4.83c6.38-2.55 13-4 19.95-3.09a47.77 47.77 0 0 1 14.19 3.76c6.12 2.84 11.41 6.6 15.31 12.17.54.78 1.05 1.58 1.62 2.34 1.37 1.78 1.78 1.88 3.59.5 2.18-1.66 4.37-3.34 6.37-5.2 4.51-4.18 8.85-8.56 14.44-11.36 1-.48 1-1.09.06-1.62-3.39-1.85-6.65-4.14-10.26-5.39-6.41-2.24-13-4.06-19.59-5.67a94.11 94.11 0 0 0-22.5-2.46zm-8.32 17.46c-3.23.71-6.51 1.27-9.68 2.17-2.44.7-4.72 1.93-7.13 2.76-7 2.42-11.41 7.85-15.67 13.44-.71.93-.14 1.3.73 1.53 2.75.73 5.5 1.44 8.22 2.24.95.28 1.27-.09 1.76-.84a40 40 0 0 1 3.7-5 21.66 21.66 0 0 1 15.92-7.47c6.82-.2 13.21 1.14 18.63 5.6a61.25 61.25 0 0 1 5.42 5 3.81 3.81 0 0 0 4.57 1.08c1.59-.61 3.21-1.15 4.77-1.85 1.75-.79 1.74-1 .46-2.64-.35-.44-.6-1-1-1.38-2.26-2.4-4.22-5.25-6.88-7.07a44 44 0 0 0-23.82-7.59zm265.34-6.73c6.32 3.63 11.79 7.45 17.25 11.31a59.12 59.12 0 0 1 9.65 8.55 4.61 4.61 0 0 1 .67.92c.64 1.18.14 2.22-1.16 2.09-1.49-.14-3.22-.23-4.34-1.05a14.09 14.09 0 0 0-7.69-2.54c-3.87-.28-7.77-1-11.59-.66a60.73 60.73 0 0 0-11.57 2.65c-3.53 1-6.93 2.51-10.41 3.72-4.28 1.48-8.57 3-12.91 4.31-7.59 2.36-15.3 4.55-23.19 5.33-8.37.83-16.8.85-25.15-1.21-6.15-1.53-11.72-4.24-17.29-7.06-7-3.53-13.85-7.42-21-10.59-5.68-2.52-11.78-3.59-18-1.5a2.38 2.38 0 0 1-2.86-.61 2.33 2.33 0 0 1 0-3.15 65.92 65.92 0 0 1 5.58-6c4-3.58 8.65-6.05 13.42-8.35 4.52-2.18 9-4.4 13.62-6.4s9.41-4 14.24-5.65c5.62-1.93 11.32-3.68 17.08-5.18a73.83 73.83 0 0 1 17.16-2.2c4.25-.1 8.51-.12 12.76.06a81 81 0 0 1 18.11 3.31 145.54 145.54 0 0 1 20.6 7.9c5.25 2.34 10.51 4.67 15.85 6.8 4.12 1.64 8.37 2.93 12.56 4.41s8.07 3.26 12.25 4.3c6.77 1.67 13.29 4.45 20.39 4.81 1.7.09 2.49.88 2.52 2.13 0 1.45-.8 2.3-2.5 2.51a3.57 3.57 0 0 1-1.13 0c-5.85-1.12-11.7-2.23-17.55-3.39-1.58-.31-3.14-.74-4.69-1.15-2.74-.73-5.75-1-8.15-2.33-5.09-2.87-11-2.69-16.23-4.72a42.49 42.49 0 0 0-6.3-1.37zm.68 14.15c-3-2.17-5.68-4.15-8.43-6-4.25-2.83-8.51-5.67-12.91-8.25-3.08-1.8-6.54-3-9.61-4.77-5.52-3.27-11.65-4.39-17.76-5.7a32 32 0 0 0-5.81-1.17c-7.57-.14-15.14-.18-22.71 0a53.48 53.48 0 0 0-15.35 2.76 166 166 0 0 0-23.68 10.28c-2.19 1.11-4.4 2.19-6.58 3.32-.28.15-.44.53-.65.8a4.56 4.56 0 0 0 .67.4 6.45 6.45 0 0 0 1.33.49c5.06.95 9.34 3.59 13.53 6.34 2.85 1.87 5.53 4 8.29 6 1 .75 1.85.95 2.75-.43 1.29-2 2.87-3.74 4.35-5.58a17.25 17.25 0 0 1 2.88-3.38c6.06-4.37 12.65-7.64 20.16-8.5a48.6 48.6 0 0 1 9.57-.16 61.15 61.15 0 0 1 9.16 1.75c6.52 1.57 11.88 5.21 16.79 9.61a37 37 0 0 1 6.65 8.46 2.51 2.51 0 0 0 3.33 1.24c2.77-1 5.55-1.9 8.33-2.84s5.7-2 8.58-2.84c2.16-.65 4.38-1.13 7.12-1.83zm-64.82-8.68a21.36 21.36 0 0 0-3.1 0 39.8 39.8 0 0 0-13.1 4.17 33.42 33.42 0 0 0-10.51 9.25 14.3 14.3 0 0 0-1.23 2.55 1.24 1.24 0 0 0 .64 1.87c1.35.68 2.7 1.35 4.08 2a11.13 11.13 0 0 0 2.91 1c1.63.2 1.33-1.57 2-2.37a23.56 23.56 0 0 1 12.17-7.93c9.58-2.47 18.14-.82 25.29 6.42 1.51 1.53 3.07 3.62 4.92 4 2 .43 4.37-.81 6.57-1.34a9.29 9.29 0 0 0 1.35-.45c1.72-.68 1.76-.71.78-2.39-2.38-4.07-5.79-7-9.62-9.8-6.99-5.05-14.77-6.84-23.15-6.98zM436 231c1.6.14 3.21.22 4.81.43 2 .27 2.66 1.81 1.58 3.49a2.17 2.17 0 0 1-.36.44c-5.19 5-6.59 11.49-6.73 18.36a47.76 47.76 0 0 0 .35 7.37 58.77 58.77 0 0 0 7.79 21.78 24.3 24.3 0 0 1 1.24 2.23 2.54 2.54 0 0 1-.52 3.14 2.83 2.83 0 0 1-3.45.2 1.14 1.14 0 0 1-.23-.15c-3.12-2.73-6.95-4.25-10.61-6a42.64 42.64 0 0 0-7.8-2.47c-2.47-.61-5-1-7.52-1.37-9-1.4-17.9-.05-26.77 1.73A112.36 112.36 0 0 0 373 284.3c-4 1.4-7.95 3-11.92 4.51-.36.14-.71.26-1.08.38-1.79.58-2.71-.23-4-1.59s-1.26-2.23-.31-3.56c1.1-1.54 2-3.19 3.14-4.72a30.16 30.16 0 0 0 4.15-9.59c1-3.36 1.58-6.81 2.29-10.23a8.13 8.13 0 0 0 .07-2.26 47.31 47.31 0 0 0-2.91-14.38 12 12 0 0 0-2.55-3.33c-.95-1-2.16-1.82-3.09-2.87-1.67-1.88-.67-4.81 1.81-4.69 4.28.2 8.25-1.17 12.3-1.94a41.56 41.56 0 0 0 9.79-3.67 29.6 29.6 0 0 0 9.66-7.38c3.57-4.12 6.25-8.81 7-14.35.32-2.43.43-4.88.67-7.32a3.15 3.15 0 0 1 .4-1.63 27.59 27.59 0 0 1 2.4-2.31 10.13 10.13 0 0 1 1.49 2.51 11.93 11.93 0 0 1 .37 3.9 23.46 23.46 0 0 0 4.6 16c4 5.37 9.23 9.7 15.89 11.85 2 .64 3.83 1.67 5.82 2.25 2.25.66 4.59 1 6.89 1.49zm-67.79 38l.22 1.18a11.31 11.31 0 0 0 1.4-.68 7.55 7.55 0 0 0 .8-.8c3.84-3.48 7.6-7.05 11.54-10.41a84.21 84.21 0 0 1 12.4-8.41c2.27-1.33 4.46-2.83 6.81-4a111.06 111.06 0 0 1 20.56-8.05c1.73-.47 3.48-.89 5.22-1.38a3.52 3.52 0 0 0 .85-.57c-.23-.27-.41-.65-.7-.79-1.72-.8-3.43-1.61-5.2-2.29a38.57 38.57 0 0 1-18.34-14.15c-1.06-1.54-1.87-3.26-2.8-4.9-.54-1-1.05-.94-1.6 0-.85 1.47-1.66 3-2.62 4.36a29.4 29.4 0 0 1-4.07 5.37c-4.29 3.81-8.71 7.38-14.24 9.52-3.64 1.41-7.16 2.87-11.09 3a13.17 13.17 0 0 0-1.95.38c-.86.17-.82.71-.36 1.19 2.54 2.7 3.2 6.18 3.9 9.61.86 4.27 1.54 8.59.89 13-.45 2.82-1.08 5.7-1.65 8.75zm0 2l-.15-.2c-.06.06-.16.11-.17.18s.09.13.14.2zm58.65 123.16a10.76 10.76 0 0 1-11.26-8.78 44.8 44.8 0 0 1 1.53-23c2.8-8.19 6.29-16 11.47-23 1.69-2.28 3.51-4.45 5.26-6.67a2.12 2.12 0 0 1 3-.55c1.15.72 1 1.72.56 3-1.38 4-2.73 8.06-3.75 12.17-1.49 6-.95 12 .66 17.94 1.27 4.71 3.12 9.3 3 14.32a19.25 19.25 0 0 1-3.65 11.41c-1.97 2.71-5.14 2.9-6.82 3.16zm-7.35-14.88a13.2 13.2 0 0 0 2.12 7.48c2.44 3.54 6.1 3.67 8.55.13a13.47 13.47 0 0 0 2.26-9.68 8 8 0 0 0-.54-1.58 10.06 10.06 0 0 0-1.3.95c-3.22 3.21-6.37 3.06-9.74 1.09a9.2 9.2 0 0 1-1.05-.84c-.08.43-.16.86-.22 1.3-.04.28-.04.56-.08 1.15zM401.5 178.32c2.38 0 4.66 2.47 4.61 5.09 0 2.19-3 5.13-5.26 5.16a4.48 4.48 0 0 1-4.64-4.37 5.73 5.73 0 0 1 5.29-5.88zm-53.89 47.26a3.12 3.12 0 0 1 3.18 2c.69 1.66 1 3.49-.32 5.07a10.93 10.93 0 0 1-2.09 1.87 2.76 2.76 0 0 1-4.21-.58c-1.51-1.93-1.27-4.1-.44-6.16a3.69 3.69 0 0 1 3.88-2.2zm57.13 68.29c-.1 3-2.77 5.72-5.17 5.74-1.57 0-2.35-1.16-3-2.31-1.21-2.21-.57-4.3 1.85-6.48 1.21-1.09 3.88-.66 5.11.82a10.13 10.13 0 0 1 1.21 2.23zm52.59-65.58c.05 2.1-2.52 4.64-4.81 4.75-1.8.09-3.6-2-3.59-4.29 0-2.41 2.12-4.74 4.31-4.76a4.57 4.57 0 0 1 4.09 4.3z"/><path class="c" d="M305.47 299a94.11 94.11 0 0 1 22.53 2.4c6.6 1.61 13.18 3.43 19.59 5.67 3.61 1.25 6.87 3.54 10.26 5.39 1 .53.9 1.14-.06 1.62-5.59 2.8-9.93 7.18-14.44 11.36-2 1.86-4.19 3.54-6.37 5.2-1.81 1.38-2.22 1.28-3.59-.5-.57-.76-1.08-1.56-1.62-2.34-3.9-5.57-9.19-9.33-15.31-12.17a47.77 47.77 0 0 0-14.19-3.76c-6.92-.89-13.57.54-19.95 3.09a107 107 0 0 0-9.56 4.83 21.52 21.52 0 0 0-6.51 5.8c-1.39 1.68-2.87 3.3-4.16 5a16.86 16.86 0 0 0-1.86 3.45 1 1 0 0 1-1.51.71c-5.9-1.71-11.82-3.37-17.72-5.08-1.32-.38-.8-1-.09-1.51 3.47-2.62 6.88-5.33 10.43-7.84 4.1-2.88 8.27-5.67 12.51-8.33a69.34 69.34 0 0 1 7.74-4.15 102.47 102.47 0 0 1 27.13-8.09c2.28-.33 4.64-.48 6.75-.75z"/><path class="b" d="M297.15 316.5a44 44 0 0 1 23.85 7.61c2.66 1.82 4.62 4.67 6.88 7.07.38.41.63.94 1 1.38 1.28 1.63 1.29 1.85-.46 2.64-1.56.7-3.18 1.24-4.77 1.85a3.81 3.81 0 0 1-4.57-1.08 61.25 61.25 0 0 0-5.42-5c-5.42-4.46-11.81-5.8-18.63-5.6a21.66 21.66 0 0 0-15.93 7.49 40 40 0 0 0-3.7 5c-.49.75-.81 1.12-1.76.84-2.72-.8-5.47-1.51-8.22-2.24-.87-.23-1.44-.6-.73-1.53 4.26-5.59 8.66-11 15.67-13.44 2.41-.83 4.69-2.06 7.13-2.76 3.15-.96 6.43-1.52 9.66-2.23z"/><path class="a" d="M243.29 313.06c.07-.06.14-.16.21-.16h1.69l-1.38.79c-.17-.21-.35-.42-.52-.63z"/><path class="c" d="M563.17 323.94c-2.74.7-5 1.18-7.12 1.83-2.88.88-5.72 1.88-8.58 2.84s-5.56 1.88-8.33 2.84a2.51 2.51 0 0 1-3.33-1.24 37 37 0 0 0-6.65-8.46c-4.91-4.4-10.27-8-16.79-9.61a61.15 61.15 0 0 0-9.16-1.75 48.6 48.6 0 0 0-9.57.16c-7.51.86-14.1 4.13-20.16 8.5a17.25 17.25 0 0 0-2.88 3.38c-1.48 1.84-3.06 3.61-4.35 5.58-.9 1.38-1.71 1.18-2.75.43-2.76-2-5.44-4.11-8.29-6-4.19-2.75-8.47-5.39-13.53-6.34a6.45 6.45 0 0 1-1.33-.49 4.56 4.56 0 0 1-.67-.4c.21-.27.37-.65.65-.8 2.18-1.13 4.39-2.21 6.58-3.32a166 166 0 0 1 23.68-10.28 53.48 53.48 0 0 1 15.35-2.76c7.57-.16 15.14-.12 22.71 0a32 32 0 0 1 5.81 1.17c6.11 1.31 12.24 2.43 17.76 5.7 3.07 1.81 6.53 3 9.61 4.77 4.4 2.58 8.66 5.42 12.91 8.25 2.75 1.85 5.38 3.83 8.43 6z"/><path class="b" d="M498.35 315.26c8.38.14 16.16 1.93 23.16 7 3.83 2.78 7.24 5.73 9.62 9.8 1 1.68.94 1.71-.78 2.39a9.29 9.29 0 0 1-1.35.45c-2.2.53-4.57 1.77-6.57 1.34-1.85-.39-3.41-2.48-4.92-4-7.15-7.24-15.71-8.89-25.29-6.42a23.56 23.56 0 0 0-12.17 7.93c-.68.8-.38 2.57-2 2.37a11.13 11.13 0 0 1-2.91-1c-1.38-.62-2.73-1.29-4.08-2a1.24 1.24 0 0 1-.64-1.87 14.3 14.3 0 0 1 1.23-2.55 33.42 33.42 0 0 1 10.51-9.25 39.8 39.8 0 0 1 13.1-4.17 21.36 21.36 0 0 1 3.09-.02zm-130.17-46.33c.57-3.05 1.2-5.92 1.62-8.82.65-4.37 0-8.69-.89-13-.7-3.43-1.36-6.91-3.9-9.61-.46-.48-.5-1 .36-1.19a13.17 13.17 0 0 1 1.95-.38c3.93-.16 7.45-1.62 11.09-3 5.53-2.14 9.95-5.71 14.24-9.52a29.4 29.4 0 0 0 4.07-5.37c1-1.39 1.77-2.89 2.62-4.36.55-.95 1.06-1 1.6 0 .93 1.64 1.74 3.36 2.8 4.9a38.57 38.57 0 0 0 18.34 14.15c1.77.68 3.48 1.49 5.2 2.29.29.14.47.52.7.79a3.52 3.52 0 0 1-.85.57c-1.74.49-3.49.91-5.22 1.38a111.06 111.06 0 0 0-20.56 8.05c-2.35 1.17-4.54 2.67-6.81 4a84.21 84.21 0 0 0-12.4 8.41c-3.94 3.36-7.7 6.93-11.54 10.41a7.55 7.55 0 0 1-.8.8 11.31 11.31 0 0 1-1.4.68z"/><path class="a" d="M368.19 270.89l-.18.18c-.05-.07-.14-.14-.14-.2s.11-.12.17-.18z"/><path class="c" d="M419.51 379.28c0-.59 0-.87.08-1.15.06-.44.14-.87.22-1.3a9.2 9.2 0 0 0 1.05.84c3.37 2 6.52 2.12 9.74-1.09a10.06 10.06 0 0 1 1.3-.95 8 8 0 0 1 .54 1.58 13.47 13.47 0 0 1-2.26 9.68c-2.45 3.54-6.11 3.41-8.55-.13a13.2 13.2 0 0 1-2.12-7.48z"/></svg>