<svg xmlns="http://www.w3.org/2000/svg" xmlns:xlink="http://www.w3.org/1999/xlink" viewBox="0 0 800 800"><defs><style>.cls-1,.cls-3,.cls-6{fill:none;}.cls-2{isolation:isolate;}.cls-3,.cls-6{stroke:#000;stroke-linejoin:bevel;}.cls-3{stroke-width:8px;}.cls-4{fill:#fff;}.cls-5{clip-path:url(#clip-path);}.cls-6{stroke-width:5px;}.cls-7{mix-blend-mode:multiply;}.cls-8{fill:red;}</style><clipPath id="clip-path"><polygon class="cls-1" points="459.95 255.83 463.82 257.41 467.73 258.92 471.53 260.67 475.14 262.8 478.59 265.19 481.81 267.87 485.07 270.47 488.59 272.75 491.54 275.71 494.29 278.84 497.59 281.48 500.24 284.72 502.18 288.44 504.29 292.03 505.48 296.02 506.2 300.05 506.65 304.18 505.85 308.34 503.67 312.03 500.26 314.57 496.61 316.55 492.95 318.64 488.83 319.46 484.75 320.43 480.57 320.9 476.38 320.36 472.18 320.67 468.03 320.05 463.94 319.13 459.82 318.53 455.81 317.32 451.77 316.31 447.8 315.07 443.76 313.98 439.83 312.55 435.97 310.94 432.18 309.19 428.54 307.14 424.54 305.75 421.07 303.4 417.59 301.07 413.94 298.99 411.09 295.84 407.76 293.34 404.13 291.13 401.78 287.57 398.38 285.02 395.78 281.72 393.73 278.05 391.73 274.38 390 270.55 389.91 266.33 389.48 262.2 390.97 258.34 392.99 254.8 396.06 252.09 399.18 249.19 403.2 247.88 407.24 246.75 411.39 246.16 415.57 246.23 419.73 246.27 423.89 246.19 428.12 245.99 432.12 247.49 436.31 247.74 440.46 248.38 444.33 250.05 448.53 250.63 452.42 252.19 456.35 253.62 459.95 255.83"/></clipPath></defs><title>heirloom</title><g class="cls-2"><g id="Layer_1" data-name="Layer 1"><polygon class="cls-3" points="514.3 483.64 512.44 487.49 510.3 491.19 508.76 495.23 505.84 498.46 503.61 502.09 501.12 505.56 499.03 509.35 495.62 512.06 493.38 515.8 489.94 518.42 486.67 521.17 483.68 524.22 480.16 526.66 477.17 529.78 473.55 532.08 470.05 534.56 466.06 536.22 462.6 538.79 458.44 540.02 454.89 542.51 450.68 543.52 446.97 545.77 442.95 547.25 438.82 548.39 434.55 549 430.42 550.05 426.24 550.9 422.18 552.41 417.83 552.22 413.64 553.05 409.41 553.74 405.12 553.61 400.86 553.87 396.6 554.05 392.33 553.84 388.07 553.53 383.77 553.77 379.52 553.19 375.31 552.43 371.01 552.23 366.81 551.39 362.81 549.66 358.63 548.83 354.38 548.16 350.24 547.07 346.19 545.68 342.41 543.55 338.35 542.24 334.4 540.6 330.3 539.3 326.44 537.44 322.95 534.87 319 533.2 315.6 530.55 311.73 528.69 308.23 526.25 304.63 523.94 301.27 521.28 298.01 518.53 294.64 515.9 291.37 513.16 288.11 510.39 285.04 507.42 282.21 504.21 279.32 501.06 276.81 497.59 273.91 494.46 271.01 491.3 268.87 487.58 266.18 484.24 263.64 480.79 262.01 476.78 259.59 473.25 257.72 469.4 255.6 465.67 254.2 461.61 252.32 457.75 250.78 453.76 250.23 449.44 248.98 445.37 247.63 441.31 246.77 437.13 245.82 432.96 245.67 428.67 244.81 424.46 244.69 420.19 244.76 415.92 244.6 411.66 244.56 407.38 244.66 403.09 245.52 398.89 246.26 394.68 247.32 390.54 248.43 386.43 249.18 382.21 250.77 378.24 252.16 374.21 253.92 370.33 255.09 366.16 257.09 362.38 259.4 358.77 261.75 355.2 263.99 351.56 266.36 348 269.19 344.79 271.55 341.19 274.5 338.07 277.41 334.92 280.96 332.45 284.01 329.45 287.44 326.89 290.53 323.88 294.12 321.54 297.68 319.14 301.66 317.46 305.54 315.68 309.32 313.73 312.88 311.24 316.91 309.8 320.87 308.19 324.81 306.46 329.03 305.63 333.18 304.63 337.24 303.21 341.5 302.72 345.7 301.97 349.84 300.82 354.07 300.12 358.41 300.58 362.64 299.93 366.9 299.35 371.18 299.61 375.46 299.63 379.71 300.19 384.02 299.82 388.19 301.07 392.4 301.73 396.74 301.66 400.98 302.3 404.97 304.08 409.33 304.24 413.29 305.96 417.36 307.25 421.55 308.19 425.48 309.91 429.4 311.61 433.58 312.7 437.43 314.57 441.04 316.94 444.8 318.94 448.7 320.7 452.29 323.04 456.22 324.8 459.73 327.27 463.38 329.51 466.58 332.39 470.13 334.78 473.36 337.61 476.33 340.69 479.39 343.68 482.68 346.41 485.34 349.77 488.36 352.8 490.99 356.16 494.42 358.88 496.91 362.36 499.16 366.02 501.24 369.76 503.63 373.3 505.99 376.86 507.65 380.81 510.07 384.37 511.75 388.3 513.8 392.07 514.96 396.21 516.73 400.11 518.22 404.12 519.47 408.22 519.72 412.56 520.71 416.7 521.63 420.87 522.17 425.1 522.6 429.34 523.33 433.57 522.89 437.86 523.2 442.12 523.09 446.39 523.22 450.69 522.75 454.96 521.95 459.17 520.69 463.28 520.06 467.53 518.19 471.44 517.58 475.73 516.1 479.75 514.3 483.64"/><polygon class="cls-3" points="532.64 450.65 530.71 454.46 529.42 458.6 526.92 462.1 524.99 465.94 522.02 469.09 519.58 472.57 517.57 476.43 514.15 479.13 511.44 482.43 508.84 485.87 505.69 488.76 501.98 491.01 499.21 494.38 495.76 496.91 491.93 498.9 488.47 501.42 484.61 503.28 480.98 505.51 477.08 507.25 473.53 509.77 469.5 511.24 465.54 512.87 461.45 514.13 457.22 514.91 453.32 516.84 449.09 517.55 444.91 518.43 440.77 519.61 436.45 519.65 432.2 519.99 428.01 521.14 423.7 520.67 419.46 521.67 415.18 521.18 410.9 521.21 406.63 520.94 402.36 520.74 398.15 519.92 393.95 519.18 389.63 519.15 385.45 518.23 381.31 517.14 377.12 516.27 372.97 515.26 368.93 513.85 364.83 512.61 360.91 510.9 356.97 509.25 353 507.67 348.96 506.24 344.99 504.61 341.29 502.44 337.78 499.97 333.81 498.29 330.13 496.1 326.54 493.76 323.27 490.96 319.58 488.77 316.5 485.75 313 483.28 309.72 480.54 306.72 477.47 303.9 474.25 300.65 471.46 297.46 468.57 294.84 465.17 292.23 461.78 289.62 458.39 287.11 454.93 284.94 451.24 282.41 447.79 280.66 443.86 278.31 440.28 276.6 436.37 274.05 432.84 272.89 428.68 271.47 424.65 269.64 420.78 268.34 416.7 266.86 412.68 265.89 408.5 264.86 404.34 264.95 399.98 263.75 395.84 263.23 391.6 263.54 387.29 263.47 383.04 263.33 378.77 263.21 374.5 263.26 370.21 263.85 365.97 264.75 361.78 265.86 357.65 267.04 353.55 267.57 349.27 268.81 345.17 270.97 341.42 272.62 337.5 274.24 333.56 275.94 329.63 277.94 325.86 280.36 322.33 282.84 318.87 284.77 314.99 287.44 311.64 290.61 308.72 293.07 305.18 296.59 302.65 299.57 299.59 302.5 296.45 305.99 293.97 309.1 290.98 313.12 289.28 316.51 286.66 319.92 284.02 323.72 282.03 327.63 280.27 331.72 278.95 335.37 276.6 339.39 275.14 343.58 274.16 347.69 272.99 351.63 271.25 355.83 270.39 360.06 269.73 364.26 268.98 368.49 268.44 372.69 267.61 376.98 267.63 381.21 266.92 385.49 267.03 389.76 266.74 394.03 266.92 398.3 267.08 402.52 267.82 406.79 268.07 411.09 268.11 415.32 268.78 419.45 269.96 423.57 271.09 427.86 271.54 431.91 272.94 435.96 274.29 440.16 275.22 444.16 276.75 448.09 278.46 451.95 280.28 455.94 281.84 459.55 284.19 463.56 285.71 467.44 287.55 471.19 289.61 474.4 292.55 478.31 294.38 481.45 297.34 485.16 299.5 488.54 302.12 491.97 304.68 495.19 307.5 498.25 310.5 501.19 313.6 504.38 316.46 507.06 319.81 510.2 322.74 512.46 326.42 515.62 329.39 518.05 332.91 520.29 336.57 522.67 340.13 524.22 344.18 526.61 347.73 528.37 351.62 530.21 355.47 532.49 359.14 533.77 363.24 535.06 367.31 536.46 371.34 537.75 375.42 538.65 379.6 539.45 383.79 540.35 387.96 540.98 392.19 541.02 396.47 541.84 400.69 541.52 404.97 542.34 409.25 541.49 413.49 541.72 417.8 540.92 422.02 540.58 426.3 539.64 430.48 538.14 434.52 536.92 438.6 536.2 442.86 534.35 446.74 532.64 450.65"/><polygon points="285.47 315.12 281.7 317.58 278.83 320.78 276.4 324.36 273.76 327.72 271.18 331.11 268.24 334.26 266.01 337.92 263.6 341.47 261.3 345.1 259.17 348.83 257.97 353.02 256.05 356.84 254.04 360.65 252.98 364.83 251.79 368.94 249.83 372.84 249.48 377.18 248.18 381.27 247.31 385.48 246.97 389.77 246 394.01 246.69 398.28 247 402.57 247.31 406.86 247.56 411.16 248.49 415.39 248.76 419.69 248.64 424.02 248.68 428.33 249.16 432.61 249.83 436.88 250.7 441.12 251.06 445.42 250.84 449.76 251.33 454.03 253.98 457.21 256.08 460.81 258.89 463.88 261.21 467.31 264.15 470.26 266.07 474 268.75 477.16 271.56 480.22 273.5 483.94 275.92 487.31 279.08 490.1 280.9 493.92 284.04 496.73 286.2 500.29 288.61 503.67 291.05 507.01 294.13 509.87 295.98 513.67 298.84 516.7 301.63 519.8 303.81 523.37 307.87 524.7 311.8 526.36 315.83 527.75 319.61 529.76 323.79 530.78 327.78 532.25 331.7 533.92 335.59 535.67 339.36 537.72 343.6 538.6 347.56 540.16 351.35 542.16 355.45 543.39 359.27 545.31 363.15 547.11 367.27 548.27 371.22 549.88 375.11 551.66 379.16 553.11 383.5 552.66 387.74 551.72 391.96 550.66 396.26 550.16 400.62 550.07 404.86 549.13 409.21 548.96 413.41 547.71 417.66 546.86 421.97 546.42 426.3 546.1 430.59 545.48 434.82 544.44 439.13 543.97 443.47 543.68 447.71 542.75 452.05 542.42 456.26 541.43 459.75 539 463.12 536.35 466.33 533.49 469.89 531.09 473.21 528.37 476.58 525.72 480.02 523.16 483.63 520.83 487.21 518.45 490.38 515.52 494.24 513.52 497.55 510.78 500.7 507.83 503.74 505.04 506.44 501.87 508.8 498.45 510.98 494.9 513.56 491.65 515.64 488.06 517.71 484.48 520.28 481.18 522.18 477.49 524.1 473.81 525.81 470.03 527.94 466.46 529.28 462.52 531.14 458.8 532.94 455.05 534.56 451.2 535.85 447.25 536.96 443.23 537.89 439.17 538.41 435.03 539.58 431.02 540.47 427.1 538.87 430.84 537.08 434.55 535.38 438.3 534.17 442.24 532.64 446.06 531.5 450.02 529.63 453.71 528.03 457.5 527.26 461.61 525.06 465.18 524.1 469.22 522.69 473.08 520.7 476.73 519.74 480.77 517.98 484.47 514.88 487.51 511.49 490.3 508.7 493.75 505.51 496.85 501.52 498.18 498.04 500.39 494.22 501.91 490.33 503.28 486.94 505.68 483.34 507.65 479.25 508.59 475.71 510.71 472.2 513.01 467.74 513.33 463.42 514.01 459.25 515.43 455.01 516.45 450.72 517.31 446.43 518.17 442.31 519.78 437.83 519.79 433.76 521.6 429.44 522.32 425.23 523.56 420.89 524.24 416.59 524.91 412.55 523.93 408.36 523.63 404.32 522.48 400.19 521.87 395.92 522.03 391.83 521.13 387.73 520.33 383.61 519.58 379.55 518.54 375.38 518.12 371.35 516.85 367.2 516.27 363.04 515.8 358.97 514.81 354.79 514.4 350.63 513.91 346.39 513.38 342.74 510.94 339.17 508.51 335.63 506.03 332.24 503.31 328.57 501.02 324.47 499.42 321.05 496.76 317.63 494.09 314.03 491.69 310 489.96 306.51 487.4 303.49 484.17 300.56 480.85 298.22 477.03 294.93 474.02 292.35 470.41 289.63 466.91 286.29 463.94 283.63 460.39 280.7 457.07 278.01 453.53 274.94 450.3 273.7 446.21 272.47 442.14 271.41 438.03 270.42 433.9 269.28 429.81 268.76 425.56 267.1 421.6 266.51 417.37 265.54 413.23 264.7 409.05 263.2 405.05 262.4 400.87 261.5 396.71 259.91 392.73 258.7 388.65 257.47 384.52 257.47 379.9 258.23 375.33 258.27 370.75 257.57 366.17 257.53 361.5 259.76 357.89 262 354.39 264.06 350.79 265.99 347.11 268.58 343.81 270.85 340.33 272.64 336.57 274.51 332.85 276.8 329.38 278.46 325.54 280.78 322.08 282.83 318.45 285.47 315.12"/><polygon class="cls-3" points="285.47 315.12 281.7 317.58 278.83 320.78 276.4 324.36 273.76 327.72 271.18 331.11 268.24 334.26 266.01 337.92 263.6 341.47 261.3 345.1 259.17 348.83 257.97 353.02 256.05 356.84 254.04 360.65 252.98 364.83 251.79 368.94 249.83 372.84 249.48 377.18 248.18 381.27 247.31 385.48 246.97 389.77 246 394.01 246.69 398.28 247 402.57 247.31 406.86 247.56 411.16 248.49 415.39 248.76 419.69 248.64 424.02 248.68 428.33 249.16 432.61 249.83 436.88 250.7 441.12 251.06 445.42 250.84 449.76 251.33 454.03 253.98 457.21 256.08 460.81 258.89 463.88 261.21 467.31 264.15 470.26 266.07 474 268.75 477.16 271.56 480.22 273.5 483.94 275.92 487.31 279.08 490.1 280.9 493.92 284.04 496.73 286.2 500.29 288.61 503.67 291.05 507.01 294.13 509.87 295.98 513.67 298.84 516.7 301.63 519.8 303.81 523.37 307.87 524.7 311.8 526.36 315.83 527.75 319.61 529.76 323.79 530.78 327.78 532.25 331.7 533.92 335.59 535.67 339.36 537.72 343.6 538.6 347.56 540.16 351.35 542.16 355.45 543.39 359.27 545.31 363.15 547.11 367.27 548.27 371.22 549.88 375.11 551.66 379.16 553.11 383.5 552.66 387.74 551.72 391.96 550.66 396.26 550.16 400.62 550.07 404.86 549.13 409.21 548.96 413.41 547.71 417.66 546.86 421.97 546.42 426.3 546.1 430.59 545.48 434.82 544.44 439.13 543.97 443.47 543.68 447.71 542.75 452.05 542.42 456.26 541.43 459.75 539 463.12 536.35 466.33 533.49 469.89 531.09 473.21 528.37 476.58 525.72 480.02 523.16 483.63 520.83 487.21 518.45 490.38 515.52 494.24 513.52 497.55 510.78 500.7 507.83 503.74 505.04 506.44 501.87 508.8 498.45 510.98 494.9 513.56 491.65 515.64 488.06 517.71 484.48 520.28 481.18 522.18 477.49 524.1 473.81 525.81 470.03 527.94 466.46 529.28 462.52 531.14 458.8 532.94 455.05 534.56 451.2 535.85 447.25 536.96 443.23 537.89 439.17 538.41 435.03 539.58 431.02 540.47 427.1 538.87 430.84 537.08 434.55 535.38 438.3 534.17 442.24 532.64 446.06 531.5 450.02 529.63 453.71 528.03 457.5 527.26 461.61 525.06 465.18 524.1 469.22 522.69 473.08 520.7 476.73 519.74 480.77 517.98 484.47 514.88 487.51 511.49 490.3 508.7 493.75 505.51 496.85 501.52 498.18 498.04 500.39 494.22 501.91 490.33 503.28 486.94 505.68 483.34 507.65 479.25 508.59 475.71 510.71 472.2 513.01 467.74 513.33 463.42 514.01 459.25 515.43 455.01 516.45 450.72 517.31 446.43 518.17 442.31 519.78 437.83 519.79 433.76 521.6 429.44 522.32 425.23 523.56 420.89 524.24 416.59 524.91 412.55 523.93 408.36 523.63 404.32 522.48 400.19 521.87 395.92 522.03 391.83 521.13 387.73 520.33 383.61 519.58 379.55 518.54 375.38 518.12 371.35 516.85 367.2 516.27 363.04 515.8 358.97 514.81 354.79 514.4 350.63 513.91 346.39 513.38 342.74 510.94 339.17 508.51 335.63 506.03 332.24 503.31 328.57 501.02 324.47 499.42 321.05 496.76 317.63 494.09 314.03 491.69 310 489.96 306.51 487.4 303.49 484.17 300.56 480.85 298.22 477.03 294.93 474.02 292.35 470.41 289.63 466.91 286.29 463.94 283.63 460.39 280.7 457.07 278.01 453.53 274.94 450.3 273.7 446.21 272.47 442.14 271.41 438.03 270.42 433.9 269.28 429.81 268.76 425.56 267.1 421.6 266.51 417.37 265.54 413.23 264.7 409.05 263.2 405.05 262.4 400.87 261.5 396.71 259.91 392.73 258.7 388.65 257.47 384.52 257.47 379.9 258.23 375.33 258.27 370.75 257.57 366.17 257.53 361.5 259.76 357.89 262 354.39 264.06 350.79 265.99 347.11 268.58 343.81 270.85 340.33 272.64 336.57 274.51 332.85 276.8 329.38 278.46 325.54 280.78 322.08 282.83 318.45 285.47 315.12"/><polyline class="cls-3" points="305.82 315.1 302.19 317.43 298.44 319.64 295.26 322.61 292.07 325.53 288.84 328.41 286.31 331.95 282.77 334.64 280.66 338.5 278.15 342.03 275.51 345.5 273.91 349.57 271.7 353.32 270.57 357.54 268.23 361.3 266.97 365.46 266.48 369.82 265.69 374.07 264.55 378.27 263.94 382.56 263.35 386.88 263.28 391.23"/><polyline class="cls-3" points="520.21 411 520.33 415.27 520.69 419.47 521.76 423.62 521.4 427.87 521.36 432.09 521.43 436.31 520.76 440.49 520.87 444.74 519.86 448.86 519.6 453.1 518.61 457.21 517.4 461.25 516.54 465.42 515.07 469.39 513.16 473.19 510.74 476.69 508.73 480.38 506.37 483.85 504.59 487.78 501.67 490.87 498.25 493.43 495.35 496.47 492.13 499.18 488.65 501.56 485.23 504.02 481.32 505.67"/><polyline class="cls-4" points="505.34 294.4 506.73 298.48 508.63 302.28 509.62 306.4 510.37 310.56 510.95 314.74 511.66 318.97 511.34 323.24 510.22 327.37 509.59 331.57"/><polyline class="cls-3" points="505.34 294.4 506.73 298.48 508.63 302.28 509.62 306.4 510.37 310.56 510.95 314.74 511.66 318.97 511.34 323.24 510.22 327.37 509.59 331.57"/><polygon class="cls-4" points="454.93 264.77 458.55 266.95 462.74 267.94 466.34 270.16 469.73 272.71 473.64 274.35 477.4 276.28 480.5 279.23 484.17 281.33 487.5 283.9 490.89 286.42 493.55 289.75 497.1 292.14 499.49 295.67 502.17 298.9 504.82 302.15 507.27 305.57 509.17 309.33 510.47 313.32 512.22 317.21 512.04 321.46 512.15 325.67 510.44 329.5 508.99 333.52 506.03 336.6 502.45 338.87 498.68 340.7 494.77 342.23 490.68 343.14 486.57 343.89 482.39 344.08 478.22 344.29 474.03 344.47 469.79 344.95 465.68 343.75 461.51 343.35 457.26 343.26 453.18 342.17 449.18 340.86 445.08 339.9 441 338.89 436.88 337.94 433.02 336.22 429.29 334.21 425.14 333.22 421.41 331.26 417.7 329.28 414.05 327.19 410.35 325.2 406.77 323.01 402.87 321.32 399.63 318.6 396.3 316.04 392.98 313.48 389.2 311.44 386.11 308.56 383.12 305.58 380.79 302 377.85 299 375.21 295.72 373.27 291.98 371.25 288.33 369.85 284.4 368.04 280.55 367.85 276.32 368.45 272.19 369.25 268.06 371.77 264.69 374.34 261.4 377.93 259.24 381.36 256.77 385.4 255.56 389.49 254.66 393.58 253.75 397.73 253.06 401.94 253.25 406.14 253.07 410.35 253.18 414.48 254.05 418.73 253.91 422.87 254.71 426.92 255.88 431.16 256.24 435.05 257.99 439.18 258.83 443.28 259.85 447.06 261.79 451.22 262.72 454.93 264.77"/><polygon class="cls-3" points="454.93 264.77 458.55 266.95 462.74 267.94 466.34 270.16 469.73 272.71 473.64 274.35 477.4 276.28 480.5 279.23 484.17 281.33 487.5 283.9 490.89 286.42 493.55 289.75 497.1 292.14 499.49 295.67 502.17 298.9 504.82 302.15 507.27 305.57 509.17 309.33 510.47 313.32 512.22 317.21 512.04 321.46 512.15 325.67 510.44 329.5 508.99 333.52 506.03 336.6 502.45 338.87 498.68 340.7 494.77 342.23 490.68 343.14 486.57 343.89 482.39 344.08 478.22 344.29 474.03 344.47 469.79 344.95 465.68 343.75 461.51 343.35 457.26 343.26 453.18 342.17 449.18 340.86 445.08 339.9 441 338.89 436.88 337.94 433.02 336.22 429.29 334.21 425.14 333.22 421.41 331.26 417.7 329.28 414.05 327.19 410.35 325.2 406.77 323.01 402.87 321.32 399.63 318.6 396.3 316.04 392.98 313.48 389.2 311.44 386.11 308.56 383.12 305.58 380.79 302 377.85 299 375.21 295.72 373.27 291.98 371.25 288.33 369.85 284.4 368.04 280.55 367.85 276.32 368.45 272.19 369.25 268.06 371.77 264.69 374.34 261.4 377.93 259.24 381.36 256.77 385.4 255.56 389.49 254.66 393.58 253.75 397.73 253.06 401.94 253.25 406.14 253.07 410.35 253.18 414.48 254.05 418.73 253.91 422.87 254.71 426.92 255.88 431.16 256.24 435.05 257.99 439.18 258.83 443.28 259.85 447.06 261.79 451.22 262.72 454.93 264.77"/><polygon points="460.19 255.29 463.96 257.11 467.79 258.8 471.27 261.14 475.14 262.8 478.6 265.17 482.04 267.55 485.34 270.11 488.85 272.44 491.38 275.89 494.35 278.79 497.2 281.81 499.81 285.03 502.44 288.29 504.07 292.13 505.94 295.88 506.65 300 506.61 304.17 505.19 308.05 503.39 311.8 500.27 314.58 496.89 317.11 492.72 317.92 488.83 319.44 484.66 319.69 480.56 320.79 476.37 320.43 472.18 320.68 468.1 319.42 463.85 319.7 459.81 318.55 455.72 317.72 451.65 316.73 447.67 315.46 443.63 314.33 439.93 312.31 436 310.89 432.11 309.34 428.62 306.98 424.96 305 421.36 302.92 417.67 300.94 413.94 298.99 411 295.95 407.28 293.9 404.55 290.68 401.68 287.66 398.82 284.64 396.21 281.4 394.18 277.77 391.76 274.36 390.28 270.46 389.82 266.33 389.73 262.24 390.42 258.11 392.6 254.48 395.94 251.92 399.54 249.92 403.25 248.05 407.2 246.57 411.45 246.69 415.58 246.36 419.73 246 423.87 246.5 428.07 246.34 432.11 247.54 436.31 247.76 440.38 248.67 444.44 249.69 448.53 250.63 452.4 252.25 456.13 254.18 460.19 255.29"/><polygon class="cls-3" points="460.19 255.29 463.96 257.11 467.79 258.8 471.27 261.14 475.14 262.8 478.6 265.17 482.04 267.55 485.34 270.11 488.85 272.44 491.38 275.89 494.35 278.79 497.2 281.81 499.81 285.03 502.44 288.29 504.07 292.13 505.94 295.88 506.65 300 506.61 304.17 505.19 308.05 503.39 311.8 500.27 314.58 496.89 317.11 492.72 317.92 488.83 319.44 484.66 319.69 480.56 320.79 476.37 320.43 472.18 320.68 468.1 319.42 463.85 319.7 459.81 318.55 455.72 317.72 451.65 316.73 447.67 315.46 443.63 314.33 439.93 312.31 436 310.89 432.11 309.34 428.62 306.98 424.96 305 421.36 302.92 417.67 300.94 413.94 298.99 411 295.95 407.28 293.9 404.55 290.68 401.68 287.66 398.82 284.64 396.21 281.4 394.18 277.77 391.76 274.36 390.28 270.46 389.82 266.33 389.73 262.24 390.42 258.11 392.6 254.48 395.94 251.92 399.54 249.92 403.25 248.05 407.2 246.57 411.45 246.69 415.58 246.36 419.73 246 423.87 246.5 428.07 246.34 432.11 247.54 436.31 247.76 440.38 248.67 444.44 249.69 448.53 250.63 452.4 252.25 456.13 254.18 460.19 255.29"/><polyline class="cls-4" points="369.74 268.84 371.82 265.14 374.28 261.62 377.94 259.29 380.94 256.2 384.69 254.14 388.4 252.02 392.6 251.06 396.55 249.51 400.64 248.4 404.78 247.41"/><polyline class="cls-3" points="369.74 268.84 371.82 265.14 374.28 261.62 377.94 259.29 380.94 256.2 384.69 254.14 388.4 252.02 392.6 251.06 396.55 249.51 400.64 248.4 404.78 247.41"/><polyline class="cls-3" points="401.6 288.07 397.68 289.73 394.19 292.19 390.52 294.47 387.58 297.63 385.23 301.24 383.31 305.06"/><polyline class="cls-3" points="478.39 320.49 479.36 324.53 479.5 328.69 479.38 332.85 478.66 336.94 477.62 340.97 475.55 344.59"/><polyline class="cls-3" points="436.88 311.81 434 314.67 431.73 318.06 429.4 321.45 428.19 325.41 426.87 329.26 425.4 333.06"/><g class="cls-5"><polygon class="cls-4" points="387.94 271.8 387.72 265.8 392.02 265.55 396.24 264.5 400.61 264.83 404.85 263.97 409.2 264.1 413.49 263.69 417.77 263.23 422.03 262.56 426.28 261.72 430.54 261.04 434.86 260.89 439.19 260.84 443.42 259.87 447.79 260.21 452.01 259.03 456.33 258.88 460.61 258.35 464.88 257.7 469.23 257.78 473.21 257.49 473.86 262.77 469.75 262.92 465.55 264.16 461.18 263.85 456.96 264.9 452.69 265.52 448.35 265.52 444.1 266.25 439.77 266.26 435.52 267.07 431.21 267.29 426.92 267.64 422.6 267.83 418.35 268.64 414.02 268.69 409.74 269.25 405.46 269.77 401.17 270.16 396.84 270.31 392.58 271.04 387.94 271.8"/><polygon class="cls-4" points="423.83 315.27 423.54 310.84 427.79 310.07 432.08 309.72 436.35 309.13 440.69 309.21 444.99 308.82 449.26 308.24 453.54 307.76 457.79 306.99 462.13 307.07 466.43 306.72 470.67 305.84 474.96 305.43 479.24 304.91 483.61 305.23 487.85 304.25 492.14 303.81 496.45 303.62 500.75 303.2 505.06 302.98 509.17 302.46 510.09 306.8 505.46 306.83 501.14 306.95 496.91 308 492.63 308.46 488.35 308.97 484.03 309.14 479.75 309.52 475.42 309.59 471.14 310.11 466.92 311.18 462.63 311.64 458.35 312.16 454.04 312.39 449.77 312.98 445.43 312.95 441.17 313.71 436.86 313.94 432.58 314.47 428.27 314.78 423.83 315.27"/><polygon class="cls-4" points="395.18 309.54 395.17 308.18 399.38 307.77 403.67 307.33 407.93 306.63 412.22 306.22 416.5 305.66 420.85 305.83 425.13 305.35 429.34 304.2 433.62 303.64 437.94 303.56 442.24 303.2 446.54 302.96 450.8 302.14 455.09 301.72 459.44 301.91 463.67 300.88 467.98 300.61 472.24 299.82 476.54 299.42 480.87 299.41 481.03 300.83 476.72 301.18 472.44 301.63 468.11 301.64 463.82 302.12 459.6 303.17 455.32 303.72 450.96 303.44 446.74 304.47 442.44 304.79 438.12 304.93 433.82 305.25 429.51 305.47 425.23 305.95 420.96 306.6 416.65 306.89 412.43 308.04 408.1 308.01 403.82 308.59 399.48 308.63 395.18 309.54"/><polygon class="cls-4" points="386.81 287.03 386.74 284.76 390.72 284.04 394.99 283.44 399.33 283.54 403.58 282.66 407.84 281.98 412.13 281.54 416.45 281.49 420.71 280.8 425.03 280.69 429.3 280.11 433.61 279.85 437.91 279.53 442.15 278.58 446.42 277.91 450.76 278.04 455.07 277.83 459.29 276.63 463.61 276.44 467.9 275.94 472.37 275.52 472.46 278.58 468.27 279.55 463.98 279.94 459.67 280.21 455.37 280.55 451.11 281.21 446.75 280.98 442.51 281.77 438.21 282.13 433.91 282.42 429.66 283.23 425.35 283.42 421.08 284.11 416.72 283.85 412.42 284.18 408.16 284.93 403.94 285.99 399.63 286.21 395.26 285.92 391.03 287.08 386.81 287.03"/><polygon class="cls-4" points="426.73 291.55 426.25 288.41 430.77 288.41 435.04 287.8 439.28 286.93 443.59 286.69 447.92 286.69 452.16 285.75 456.46 285.54 460.74 285 465.1 285.27 469.3 283.95 473.64 284.09 477.95 283.85 482.2 282.96 486.46 282.29 490.83 282.6 495.08 281.83 499.39 281.58 503.68 281.02 507.97 280.55 512.2 280.2 512.57 282.95 508.26 283.34 503.94 283.46 499.68 284.18 495.44 285.1 491.14 285.38 486.86 285.9 482.56 286.2 478.21 286.06 473.95 286.7 469.71 287.61 465.43 288.14 461.08 287.95 456.76 288.09 452.49 288.76 448.2 289.21 443.89 289.37 439.66 290.48 435.36 290.81 431.06 291.24 426.73 291.55"/><polygon class="cls-4" points="416.23 256.89 416.07 255.35 420.44 255.47 424.63 254.15 428.92 253.66 433.21 253.23 437.54 253.26 441.88 253.31 446.12 252.48 450.35 251.49 454.72 251.91 458.93 250.68 463.26 250.67 467.58 250.57 471.88 250.18 476.14 249.45 480.45 249.17 484.75 248.82 489.05 248.57 493.33 247.97 497.6 247.24 501.96 246.57 502.02 248.21 497.72 248.35 493.43 248.79 489.22 250.01 484.87 249.78 480.59 250.26 476.34 251.11 472.04 251.35 467.77 251.98 463.5 252.56 459.13 252.25 454.88 253 450.57 253.26 446.25 253.4 442.01 254.34 437.68 254.39 433.41 254.98 429.13 255.56 424.8 255.6 420.54 256.4 416.23 256.89"/></g><polygon class="cls-3" points="460.18 255.33 463.72 257.61 467.63 259.11 471.11 261.43 474.78 263.39 478.56 265.22 481.94 267.69 485.33 270.13 488.58 272.75 491.58 275.67 494.34 278.79 497.78 281.31 500 284.89 502.31 288.37 504.31 292.02 505.81 295.92 506.41 300.02 506.08 304.1 505.59 308.23 503.01 311.49 500.5 314.89 496.52 316.37 492.96 318.67 488.77 319.16 484.65 319.62 480.56 320.81 476.38 320.35 472.21 320.18 467.99 320.34 463.84 319.77 459.9 318.13 455.72 317.72 451.62 316.83 447.81 315.03 443.77 313.96 439.74 312.79 435.95 311.01 432.05 309.46 428.25 307.7 424.72 305.43 421.12 303.32 417.42 301.33 413.95 298.98 410.81 296.2 407.35 293.82 404.76 290.45 401.82 287.53 398.72 284.73 396.34 281.31 393.89 277.95 391.79 274.35 389.85 270.59 389.43 266.38 389.59 262.22 390.34 258.07 392.76 254.61 395.74 251.67 399.45 249.73 403.28 248.14 407.18 246.49 411.38 246.14 415.57 246.14 419.74 245.66 423.88 246.39 428.05 246.52 432.25 246.67 436.24 248.08 440.32 248.91 444.34 250.03 448.34 251.2 452.27 252.6 456.24 253.92 460.18 255.33"/><polyline class="cls-6" points="369.37 284.75 365.14 284.69 360.91 284.93 356.61 284.76 352.45 285.8 348.14 285.98 343.96 286.89 339.92 288.35 335.92 289.84 331.91 291.31 327.87 292.7 324.18 294.9 320.15 296.39 316.4 298.45 312.55 300.35 309.37 303.31 305.81 305.67 302.19 307.93 299.02 310.8 295.35 313.07 292.39 316.18 288.75 318.54 286.14 322 283.1 325 280.22 328.16"/><polyline class="cls-6" points="502.25 339.7 505.53 342.44 508.11 345.8 510.2 349.5 512.17 353.25 514.59 356.72 516.89 360.29 518.35 364.29 520.47 367.98 521.42 372.16 523.19 376 525.13 379.8 525.61 384.08 527.35 387.99 528.23 392.13 528.57 396.37 529.3 400.53 530.66 404.6 530.45 408.87 531.12 413.06 530.97 417.3 531.05 421.51 531.67 425.74 531.31 429.97 531.21 434.2 530.92 438.43 530.54 442.65 529.97 446.86 529.06 451"/><g class="cls-7"><polyline class="cls-8" points="320.42 267.17 323.43 270.25 325.88 273.77 328.58 277.1 331.47 280.26 334.46 283.33 337.36 286.48 340.75 289.14 343.39 292.55 346.31 295.69 349.57 298.47 353.19 300.84 356.25 303.84 359.67 306.4 362.78 309.36 366.06 312.11 369.3 314.92 373.26 316.74 376.51 319.55 380.16 321.79 382.59 324.71 385.82 326.82 388.71 329.2 392.73 329.38 396.68 330.07 400.69 329.9 404.67 330.71 408.68 330.34 412.68 330.17 416.64 329.58 420.67 329.4 424.64 327.94 428.81 327.66 432.95 327.19 437 326.08 441.12 325.43 445.34 325.56 449.41 324.57 453.55 324.12 457.67 323.41 461.77 322.74 465.99 322.83 470.09 322.02 474.02 320.53 478.04 319.46 482.3 319.32 486.11 317.41 490.15 316.37 494.38 316.12 498.42 315.14 502.43 313.98 506.61 313.78 510.71 313 514.88 313.12 518.9 311.79 523.01 311.39 527.19 311.38 531.33 311 535.26 309.43 539.31 308.63 543.47 308.32 547.61 307.88 551.53 306.45 555.32 305.38 553.74 301.72 552.33 297.76 550.52 293.95 547.71 290.75 546.07 286.79 542.91 283.9 540.36 280.59 538.04 277.06 535.11 274.05 531.91 271.32 528.86 268.46 526.37 264.97 523.02 262.42 519.48 260.12 515.92 257.6 512.58 254.77 508.75 252.69 504.92 250.29 500.44 249.64 496.22 248.07 491.71 248.14 487.27 247.93 482.84 247.2 478.38 247.56 473.92 247.2 469.57 247.81 465.2 247.65 460.83 247.4 456.48 247.95 452.12 248.14 447.76 248.36 443.39 248.09 439.04 248.55 434.67 248.43 430.31 248.61 425.96 248.94 421.58 248.57 417.23 248.96 412.79 248.86 408.36 248.96 403.94 249.34 399.55 250.12 395.11 250.27 390.76 251.14 386.32 251.41 381.94 252.05 377.71 253.49 373.56 254 369.62 255.34 365.69 256.71 361.7 257.86 357.64 258.78 353.75 260.32 349.67 261.15 345.45 261.04 341.35 261.46 337.24 262.52 333.1 261.81 328.97 261.39 324.88 261.08 321.73 263.3 320.85 267"/></g></g></g></svg>