<svg xmlns="http://www.w3.org/2000/svg" viewBox="0 0 800 800"><defs><style>.a{fill:#98323e;}</style></defs><title>hellraiser</title><path d="M161.38,399.56q0-153.37,0-306.74c0-11.65,0-23.3.18-34.94.11-6.72,1.58-7.9,8.41-7.88,79.35.19,158.7,0,238,.69,50,.43,100-.38,150,.25,22.28.27,44.58-.26,66.86-.42,2,0,4-.07,6,.08,5.88.42,7.81,2.54,7.77,8.36-.24,29.52-.53,59.05-.68,88.58q-.3,57.84-.41,115.68-.11,89.47,0,178.94c.05,38.56.55,77.12.43,115.68-.12,43.18.54,86.36-.35,129.54-.32,15.45.34,30.91.54,46.37,0,2.41.23,4.83.06,7.23-.49,6.67-2.73,8.91-9.51,9-11.65.1-23.3,0-35-.09q-201.54-1.29-403.1-.83-9.94,0-19.89-.1c-8-.1-9.47-1.7-9.47-9.51q.09-100,.09-200.07,0-69.9,0-139.8Zm471.16.45h0V216.21q0-75.63-.06-151.26c0-7.43-.66-8.06-7.74-8.19-16.27-.31-32.53-.8-48.8-.82q-180.5-.21-361-.25c-12.46,0-24.91,0-37.37.23-9.54.14-10.32,1-10.44,10.3-.1,7.83-.18,15.66-.19,23.49q-.1,62.37-.16,124.74.09,239.85.28,479.71,0,20.77.85,41.55c.27,6.86,1.16,7.45,8,7.6,15.47.33,30.93.7,46.39.73,84.37.14,168.74.36,253.11.21,49.21-.1,98.42.71,147.63-.65,9.16-.25,9.41-.56,9.41-9.73Q632.54,567,632.54,400Z"/><path class="a" d="M632.54,400q0,166.94,0,333.86c0,9.17-.25,9.48-9.41,9.73-49.21,1.36-98.42.55-147.63.65-84.37.15-168.74-.07-253.11-.21-15.46,0-30.92-.4-46.39-.73-6.86-.15-7.75-.74-8-7.6q-.81-20.76-.85-41.55-.21-239.86-.28-479.71,0-62.37.16-124.74c0-7.83.09-15.66.19-23.49.12-9.3.9-10.16,10.44-10.3,12.46-.19,24.91-.23,37.37-.23q180.48.09,361,.25c16.27,0,32.53.51,48.8.82,7.08.13,7.74.76,7.74,8.19q.08,75.63.06,151.26V400Z"/><path d="M459.27,290.72c-8.75-18.53-17.55-37-21.76-57.3-.61-2.95-1.37-5.87-1.9-8.83-.32-1.73-.76-3.68,2.61-4.92C443,229.25,443,240.61,448.6,250c-2.34-25.62-4.74-51.14,5.89-75.6-.13,11.51-3.06,22.73-3.11,34.3s1.49,22.79,3.41,34.16c.3-9.66,1.62-19.19,2.83-28.73,2.61-20.72,4.56-41.52,9.49-61.89,3.14-13,8.29-25.16,13.59-37.31.85-1.94,1.69-4.33,5.57-2.84-2.43,11.49-9.09,21.57-11.77,32.93a333.19,333.19,0,0,0-6.42,35c4.85-6.52,8.18-13.84,13-20.19S490.62,147,498.29,142c.82,5.68-2.23,8.15-4.49,10.62-16.39,17.89-24.88,39.56-30.48,62.66a4.21,4.21,0,0,0,.36,2.71c10.11-15.34,21-29.81,38-39.52.71,4.82-2.05,6.26-4,8-10.86,9.94-20.89,20.49-27.74,33.79-3.27,6.36-5.84,12.78-6.34,19.9a153.67,153.67,0,0,0,1.3,31.86c.2,1.49,0,3.3,2.37,4.41.88-6.28,1.8-12.35,2.57-18.44,1-7.85,3.6-15.22,6.37-22.56.7-1.86,1.57-4.22,4.14-3.36s1.8,3.34,1.15,5.16a144.53,144.53,0,0,0-6.88,25.55,86.53,86.53,0,0,0,3.62,43.92c2,5.63,5.8,10.06,9.08,14.84,13.9,20.3,24.18,42.07,27.46,66.74,3,22.15-9.47,53.8-31.94,65.73-11.69,6.2-23.94,5.86-36.42,3.55-13.52-2.51-25.21-9.14-36.47-16.59-15.6-10.33-28.95-23.51-43.62-35-10.46-8.2-21.47-15.77-33.34-21.56-14.77-7.2-30.37-6.89-45.63-.76-36.57,14.7-45.5,59.36-29.33,87.67,5.09,8.92,10.12,17.74,17.54,25.05,9.9,9.74,21.87,14.62,35.44,16.19,3.11.36,6-.73,8.87-1.41,3.27-.76,6.57-1,9.27,1.11,9,7.05,20,10,30,15.1,41,20.88,82.24,41.2,123.42,61.68q33.44,16.63,67,33c5.29,2.58,10.44,6.07,17.05,4.17,2.48-.71,4.56,1.07,5.8,3.43a11.22,11.22,0,0,1,1.52,6.37c-1,9.21,1.07,11.91,10.66,20.09,8.4,7.17,17,14.09,25.46,21.19a31.18,31.18,0,0,1,4.39,4.11c2.75,3.43,1.64,5.93-2.76,6.68-2.45.41-4.77-.25-7.13-.77-13.52-3-27.07-5.9-40.59-8.91a8.68,8.68,0,0,0-7.37,1.55,23.09,23.09,0,0,1-8.71,4c-4.35.9-8.41,0-10-4.44-1.41-3.85-4.2-5.62-7.39-7.39-31.44-17.46-63.6-33.52-95.52-50.07-31.73-16.46-63.58-32.68-95.17-49.39l-30.87-16.3a18.79,18.79,0,0,1-10.17-14C297,533,291.59,525.74,284,519.79c-25.46-19.93-44.46-44.26-45.34-78-.58-22.14,7.58-42.59,25.17-56.45,22.74-17.9,48.55-18.69,74.35-6.11,20,9.73,37.44,23.19,53.92,38.07,10.89,9.83,22.73,18.82,35.92,25.15,14.54,7,30.22,10.54,45.86,2.84,18.31-9,30.81-28.18,30.15-49.1-.85-27-12.44-49.47-30.67-68.79-4.33-4.59-10.05-7.31-15.81-9.73a326.43,326.43,0,0,0-51.65-16.32c-4.81-1.14-4.81-1.16-7.88-4,1.75-3.93,5-2.35,7.68-1.86,11.89,2.15,23.41,5.71,34.87,9.46,2.61.85,9.44,3,8.72,1.65-2.53-3.38-5.81-5.09-9-6.77-19.7-10.42-39.54-20.56-59.14-31.16-11.33-6.12-22.06-13.24-29.76-23.95-1.31-1.82-3.44-3.65-1-7.11,11.81,14.86,27.52,23.7,44.8,30.51-11.31-13.62-23.83-25.95-32.28-41.74-16.1-30.1-20.52-41.4-16.7-49.8,4.92,7.56,5.9,16.24,10.51,23.61,1.07-18.76-1-37.7,5.89-56.27,3.22,2.36,2.28,4.91,2,7.05-2.46,19.87-1.35,39.68.69,59.49,1.53,14.8,9.7,26,19.56,36.38,1.21.72,1.31.18,1-.86-4-13.42-7.33-26.92-6.75-41.74,3.87,1.48,3.41,3.75,3.71,5.61,2.09,13.11,4.83,26,10.24,38.28A59.54,59.54,0,0,0,414,273.94c10.55,7.29,21.48,13.9,32.09,21l1.2-1.1c-4-5-8.06-10-11.94-15.05-27.57-36.16-46.87-76.16-55-121.06-2.58-14.17-4.21-28.65-1.73-43.14.49-2.82,0-6.07,3.11-8.41,2.69,2.52,2.16,5.69,1.89,8.45-1.66,16.79,1.45,33.24,3.38,49.77.36,3,.69,6.26,3.76,9.75,1.3-13.3.47-26,7.86-36.92-.69,16.65-2.81,33.2-.16,49.69l1.34.19c1.65-6.88,3.24-13.78,5-20.64a117.51,117.51,0,0,1,8.81-24.3c1.31-2.6,2.73-5.27,6-6,1.47,2.62-.11,4.29-.91,6-9.48,20.18-13.14,41.63-13.9,63.68a36.92,36.92,0,0,0,2.71,15.95A332.61,332.61,0,0,0,423,252.46c.72,1.28,1.24,3.06,4.22,3.23-1.67-10.82-4.92-21.1-6.31-31.71s-1.71-20.95,1.64-31.64c3.11,1.5,2.43,3.76,2.31,5.51-1.29,18.76,2.77,36.83,7.83,54.6a75.1,75.1,0,0,0,25.74,39l1,.26C459.34,291.38,459.3,291.05,459.27,290.72Zm87.67,387.17c10.84-3.06,22.55-22.58,20.92-36A70.84,70.84,0,0,1,547,677.94Zm-39.79-71,.07-.07c0,2.53,1.27,4.61,2.4,6.71A215.32,215.32,0,0,0,539.18,655c1.29,1.44,2.47,3.26,4.86,2.91,5.77-7,5.86-8.35.39-14.63s-10.93-12.35-14.88-19.57C524.56,614.53,516.45,610,507.15,606.84ZM390.22,549l.06-.06c2.05,6.82,6.08,12.58,9.91,18.44,11.76,18,26.45,33.52,41.35,48.93,10.76,11.14,24.48,17.14,37.8,24,.84.43,1.88.84,3.53-1.39-1.75-1.84-4-3.19-5.84-5-6.94-6.65-13.88-13.31-20.6-20.19C443,600,428.46,587,418.64,570.28,411.88,558.81,402.07,552.89,390.22,549ZM340,524.07c2.91,9.36,5.53,17.1,9.06,24.5a125.72,125.72,0,0,0,14,23.1c2.22,2.86,8.08,3.18,10.88.69,3.26-2.91.22-5.23-1.3-7.18a89.67,89.67,0,0,1-13.65-26C355.9,530,348.94,527.68,340,524.07Zm64.3,60.08c-3-9.14-6.42-11.49-15.07-9.85-6.27,1.19-12.48,2.69-18.7,4.14-1.47.35-3.25.44-3.82,2.36C376.86,590.44,391,591.69,404.33,584.15Zm67.22,5.13c-.36,1.18-.64,1.59-.57,1.92,2.72,12.14,8.74,22.78,15.47,33,2,3,5.05,2.52,7.79-.4-2.71-7.15-6.23-14.07-7.86-21.4C484.5,594,478.72,591.51,471.55,589.28Zm48.06,52c-2.1-4.54-3-8.81-7.19-9.6a46.36,46.36,0,0,0-26.78,2.59c2.77,4,5.53,7.75,9.64,8.37C503.16,643.78,511,641.47,519.61,641.25Zm-66.1-60.46c-7.17-7-21.8-12.06-26.1-9C433,584,440.76,586.71,453.51,580.79ZM320.87,548.85c5.93-1.71,11.29-3.22,16.63-4.8,2-.58,3-1.85,2.45-4.07s-1.14-4.31-3.7-5C328.7,533,320.55,539.78,320.87,548.85ZM564.21,672.13a56.81,56.81,0,0,0,18,3.7c-5.25-4.21-8.38-9.71-11.67-16.1C568.18,664.36,566.4,667.84,564.21,672.13ZM324.69,518.57c-8.25-1.91-15.89,3.77-16.07,12.2C312.9,524.54,318,520.53,324.69,518.57ZM552.27,641.13a5.39,5.39,0,0,0,3.19-5.52c-2.93-2.1-5.87-3.07-9.58-1.25C546.8,638,549.05,639.94,552.27,641.13Zm-50,8.33c2.57,3.8,5.2,6.33,9.63,6.73C510.4,648.42,508.79,647.22,502.24,649.46ZM358.21,205l.26-.42-.44-.06Z"/><path class="a" d="M390.22,549c11.85,3.92,21.66,9.84,28.42,21.31C428.46,587,443,600,456.43,613.71c6.72,6.88,13.66,13.54,20.6,20.19,1.85,1.77,4.09,3.12,5.84,5-1.65,2.23-2.69,1.82-3.53,1.39-13.32-6.83-27-12.83-37.8-24-14.9-15.41-29.59-30.91-41.35-48.93-3.83-5.86-7.86-11.62-9.91-18.44Z"/><path class="a" d="M507.15,606.84c9.3,3.16,17.41,7.69,22.4,16.82,4,7.22,9.48,13.37,14.88,19.57s5.38,7.62-.39,14.63c-2.39.35-3.57-1.47-4.86-2.91a215.32,215.32,0,0,1-29.56-41.47c-1.13-2.1-2.42-4.18-2.4-6.71Z"/><path class="a" d="M340,524.07c8.91,3.61,15.87,6,19,15.1a89.67,89.67,0,0,0,13.65,26c1.52,2,4.56,4.27,1.3,7.18-2.8,2.49-8.66,2.17-10.88-.69a125.72,125.72,0,0,1-14-23.1C345.56,541.17,342.94,533.43,340,524.07Z"/><path class="a" d="M404.33,584.15c-13.35,7.54-27.47,6.29-37.59-3.35.57-1.92,2.35-2,3.82-2.36,6.22-1.45,12.43-3,18.7-4.14C397.91,572.66,401.34,575,404.33,584.15Z"/><path class="a" d="M471.55,589.28c7.17,2.23,12.95,4.72,14.83,13.13,1.63,7.33,5.15,14.25,7.86,21.4-2.74,2.92-5.79,3.44-7.79.4-6.73-10.23-12.75-20.87-15.47-33C470.91,590.87,471.19,590.46,471.55,589.28Z"/><path class="a" d="M519.61,641.25c-8.66.22-16.45,2.53-24.33,1.36-4.11-.62-6.87-4.38-9.64-8.37a46.36,46.36,0,0,1,26.78-2.59C516.59,632.44,517.51,636.71,519.61,641.25Z"/><path class="a" d="M453.51,580.79c-12.75,5.92-20.49,3.25-26.1-9C431.71,568.73,446.34,573.78,453.51,580.79Z"/><path class="a" d="M320.87,548.85c-.32-9.07,7.83-15.89,15.38-13.87,2.56.69,3.13,2.84,3.7,5s-.47,3.49-2.45,4.07C332.16,545.63,326.8,547.14,320.87,548.85Z"/><path class="a" d="M564.21,672.13c2.19-4.29,4-7.77,6.32-12.4,3.29,6.39,6.42,11.89,11.67,16.1A56.81,56.81,0,0,1,564.21,672.13Z"/><path class="a" d="M547,677.94a70.84,70.84,0,0,0,20.87-36.09c1.63,13.46-10.08,33-20.92,36Z"/><path class="a" d="M324.69,518.57c-6.71,2-11.79,6-16.07,12.2C308.8,522.34,316.44,516.66,324.69,518.57Z"/><path class="a" d="M552.27,641.13c-3.22-1.19-5.47-3.09-6.39-6.77,3.71-1.82,6.65-.85,9.58,1.25A5.39,5.39,0,0,1,552.27,641.13Z"/><path class="a" d="M502.24,649.46c6.55-2.24,8.16-1,9.63,6.73C507.44,655.79,504.81,653.26,502.24,649.46Z"/><polygon class="a" points="358.21 205 358.03 204.52 358.47 204.58 358.21 205"/><path class="a" d="M385.85,246c.33,1,.23,1.58-1,.86Z"/><path class="a" d="M459.27,290.72c0,.33.07.66.11,1l-1-.26Z"/><path class="a" d="M390.28,548.91l-.06.06Z"/><path class="a" d="M507.22,606.77l-.07.07Z"/><path class="a" d="M546.94,677.89l0,.05Z"/></svg>