<svg xmlns="http://www.w3.org/2000/svg" viewBox="0 0 800 800"><defs><style>.a{fill:#f4e976;}</style></defs><title>homestead</title><path d="M219.59,50.05q83.89.54,167.78.87c37,.11,74.07-.38,111.1,0,27.84.31,55.68.35,83.51-.15,17.31-.32,59.84,0,59.84,0l-.25,10.43s-.31,12.1-.39,18.2c-1.06,82-.82,164-.56,246,.14,45,.61,90,.9,135q.38,56.13.64,112.25c.21,41.39.11,82.79.71,124.18.22,14.87-.55,29.82,1.67,44.65.59,4-3.71,7.5-9.16,7.52q-27.75.09-55.48,0-55.21-.12-110.42-.29c-8,0-15.94.29-23.89,0-5.6-.24-10.95,1.6-16.51,1.32-45.52-2.28-91.06-.6-136.59-.74-24.09-.07-48.18.79-72.26.44-17.1-.24-34.17.39-51.25.18-10.58-.12-15-6.39-13.14-17,1.93-10.76,1.46-21.7,1.44-32.58,0-12.2-.66-24.42-.27-36.6.75-22.86.29-45.73.52-68.59.4-39.4.16-78.8.85-118.21.59-33.43.53-66.88.76-100.32.25-37.61.66-75.22.72-112.84,0-31-.55-62-.42-93,.12-32.07-.43-64.12-1.13-96.16-.13-6.18,0-24.55,0-24.55S203.92,49.94,219.59,50.05Zm12,620c9.6-5.17,19.38-9.17,30.5-4.88.24.09.68-.31,1.4-.67-.17-9.06-.14-18.33,4.56-26.61-12.55-5.21-16.94-15.52-20.07-27-7.39,10.14-14.35,19.59-24.11,26.28,1.82,4.47,3.95,8,5.42,12,2.6,6.89,1.8,14,2.38,21h-.73l.06.46ZM430.25,350.26c19.37,7.8,38.58,13.64,57.49,20.34,6.54,2.32,13.16,4.46,20.21,4.93,18.35,1.21,36.57,1.77,54.08-5.47,26.46-10.94,41.67-32.51,51.79-57.55,9.15-22.64,14.17-46.6,16.89-71.08a547.84,547.84,0,0,0,3.66-57.63c.18-34.64.06-69.28-.08-103.93,0-6.9.75-13.91-1.71-21.73H430.25ZM553.41,741.19c1.25-1.78,1-3.44,1.06-5,.45-33.31-10.51-62.71-30.94-88.68a139.26,139.26,0,0,0-34.26-31.38,321.65,321.65,0,0,0-39.5-21.28c-13.43-6.21-26.41-13.54-40.18-18.83-21.45-8.24-41.78-18.89-63-27.59a36.56,36.56,0,0,1-4.79-2.87c-2.25,1.46-1.46,3.64-1.6,5.54-.76,10.2.21,20.4.17,30.6-.12,30,.46,60.11.79,90.16.24,22.08.59,44.16.67,66.24,0,2.79.54,4.25,3.33,4.26,11.07,0,22.18.74,33.2.34,11.72-.42,23.44-.5,35.13-.54C460.23,742,507,742.37,553.41,741.19Zm82.47-105.42a12.33,12.33,0,0,0,.26-8c-25.28-10.41-51.36-18.84-77.18-28Q470.08,568.41,381,537.47c-23.39-8.18-46.63-16.83-70.65-23.15-5.15-1.35-7.28.68-9.72,4.86C412.44,558.5,523.24,599.65,635.88,635.77ZM309.38,507.68c109.57,36.92,217.83,76,327,113.46V611.3c-7.58-3.77-15.35-6.17-23-8.85-27.2-9.54-54.35-19.21-81.58-28.66q-57.18-19.85-114.46-39.39c-16.15-5.46-32.06-11.53-48.65-15.82-15.52-4-30.45-10.33-45.64-15.6C316,500.5,314.5,501,309.38,507.68Zm15.3-20.47c-2.48,2.7-5.94,4.18-3.76,9.4C425.7,531.69,530.91,568.09,636,604.8c1.83-6.14.64-10.16-5.49-11.89-2.27-.64-4.33-2-6.57-2.77-52.89-18.51-105.88-36.74-158.66-55.57-27.49-9.81-55.59-17.7-83.1-27.4C363.13,500.44,344,493.9,324.68,487.21Zm4.75-4.13C431.58,519.27,534.52,552,636.1,589.18c1.25-9,1.3-9.17-4.38-11.57-23.63-10-48-17.94-72.26-26.23-32.88-11.24-65.21-24.09-98.72-33.54-12.6-3.55-24.77-8.6-37.18-12.84-29.67-10.12-59.07-21-89.81-30.39C333.62,477.67,330.79,479,329.43,483.08Zm306.92,80.59c-17.63-8.91-36-14.08-54-20.31-24.56-8.51-48.69-18.24-73.87-25-14.16-3.81-27.77-9.62-41.65-14.46q-58.28-20.29-116.55-40.53c-6.45-2.24-6.45-2.23-11.32,6.17,98.4,36.75,198.87,67.22,297.5,103.78C636.79,569.55,637,566.6,636.35,563.67ZM349.58,456.8c95,35.42,191.12,66.42,286.5,99.6,1.89-6.85-.49-10.67-6.42-12.54-1.51-.48-2.92-1.25-4.42-1.75-24.49-8.09-48.55-17.38-73.31-24.8-24.54-7.36-48.47-16.78-72.69-25.23q-42.8-14.91-85.65-29.71c-12.91-4.46-25.87-8.8-39-13.28C353.08,451.89,350.61,453.48,349.58,456.8Zm286.9,75.08A264.72,264.72,0,0,0,598.85,518c-19-5.65-37.54-13-56.31-19.54q-85.87-29.91-171.79-59.74c-2.23-.77-4.41-1.81-7.26-1.44-.6,2.75-3.92,4.14-4,7.56,91.95,32.57,183.82,65,276.6,94.88C637.05,537.25,636.54,534.87,636.48,531.88ZM369,432.26c89,30.83,177.26,63.39,267,92.61a15.9,15.9,0,0,0,.23-8.78C612,506,587.22,498,562.66,489.39c-33.76-11.87-67.68-23.33-101.51-35-26.87-9.29-53.71-18.71-80.59-28C373.43,423.93,373.25,424.14,369,432.26Zm267,61.26a24.23,24.23,0,0,0,.29-9.71c-3.82-1.72-7.49-3.7-11.38-5.05q-49.53-17.26-99.12-34.33-62-21.4-123.94-42.77c-8.57-3-8.69-2.82-13.54,6.22Zm.48,6.68a304.56,304.56,0,0,0-29.28-11.46q-56.94-19.64-113.9-39.26Q441.65,431.77,390,414.24c-6.72-2.28-7.73-1.63-11.46,5.94l257.94,89.71Zm-.67-33.8C559,439,481.84,413,404.94,386.35c-2.67,2.7-5.21,4.81-6.26,8.73l237.22,82C636.77,473.4,636.53,470.46,635.77,466.4Zm.22-15.93c-73.75-27-148.19-51-221.83-77a28.67,28.67,0,0,0-5.9,8.67l227.08,78.54C636.66,456.69,636,453.93,636,450.47Zm-.1-15.38c-4.26-1.87-8.13-3.88-12.21-5.32-15.93-5.65-31.92-11.14-47.9-16.63Q502.72,388,429.64,362.9c-6.49-2.24-8.54-1.07-11.14,6.64l216.76,74.85C636.47,441.15,635.86,438.38,635.89,435.09ZM196.94,142.41c9.31-5.66,18.33-8.2,28.6-6.56-2.28-9.7-2.49-18.58,1.89-27.25C215.69,106.11,208.27,99,204,87.14c-4.34,9.21-10.27,15.18-17.71,20.17C196.57,116.76,198.81,128.41,196.94,142.41ZM325.36,300.7c4.19-16.33,6.76-31.83,15.16-45.45-9.39-9-10-21.76-14.9-33.35-6.44,11.73-10.71,24-21.75,31.94C315.61,267,320.6,283.24,325.36,300.7ZM358,337.81a100.65,100.65,0,0,1-18.18,30.34,84.87,84.87,0,0,1,18.91,34.49c4.6-13.19,9.64-24.69,17.29-35C366.5,359.75,362.73,349.23,358,337.81ZM253.77,332.9c5.49,6.69,8,14.6,11.44,23.57A75.44,75.44,0,0,1,276.06,332c-5.05-4-7.3-9.54-10.36-14.83C262,322.84,258.85,328.32,253.77,332.9Z"/><path class="a" d="M430.25,350.26V58.14H632.58C635,66,634.27,73,634.29,79.87c.14,34.65.26,69.29.08,103.93a547.84,547.84,0,0,1-3.66,57.63c-2.72,24.48-7.74,48.44-16.89,71.08-10.12,25-25.33,46.61-51.79,57.55-17.51,7.24-35.73,6.68-54.08,5.47-7.05-.47-13.67-2.61-20.21-4.93C468.83,363.9,449.62,358.06,430.25,350.26Zm31-173.18c-.79,15.51.52,29.8,1.25,44.09.23,4.53.42,10.07,5.56,12.39,8,3.59,16,7,24.3,9.84q37.8,12.89,75.79,25.17c10.9,3.54,21.71,7.41,33.06,9.42,6.32,1.13,8.37-.53,8.14-6.94-.28-7.75-1.2-15.54-.76-23.25a629.56,629.56,0,0,0-.4-77.46c-1.41-21.47-6.77-41.45-18.93-59.41-7.52-11.1-17.44-19-30.43-22.57-14.2-4-28.31-4.39-42.79-.42-27.59,7.57-46.58,23.17-52.49,52.3A148.38,148.38,0,0,0,461.25,177.08Z"/><path class="a" d="M553.41,741.19c-46.46,1.18-93.18.84-139.91,1-11.69,0-23.41.12-35.13.54-11,.4-22.13-.3-33.2-.34-2.79,0-3.32-1.47-3.33-4.26-.08-22.08-.43-44.16-.67-66.24-.33-30-.91-60.11-.79-90.16,0-10.2-.93-20.4-.17-30.6.14-1.9-.65-4.08,1.6-5.54a36.56,36.56,0,0,0,4.79,2.87c21.21,8.7,41.54,19.35,63,27.59,13.77,5.29,26.75,12.62,40.18,18.83a321.65,321.65,0,0,1,39.5,21.28,139.26,139.26,0,0,1,34.26,31.38c20.43,26,31.39,55.37,30.94,88.68C554.44,737.75,554.66,739.41,553.41,741.19Z"/><path class="a" d="M635.88,635.77C523.24,599.65,412.44,558.5,300.67,519.18c2.44-4.18,4.57-6.21,9.72-4.86,24,6.32,47.26,15,70.65,23.15Q470,568.58,559,599.83c25.82,9.13,51.9,17.56,77.18,28A12.33,12.33,0,0,1,635.88,635.77Z"/><path class="a" d="M309.38,507.68C314.5,501,316,500.5,323.1,503c15.19,5.27,30.12,11.58,45.64,15.6,16.59,4.29,32.5,10.36,48.65,15.82q57.32,19.43,114.46,39.39c27.23,9.45,54.38,19.12,81.58,28.66,7.65,2.68,15.42,5.08,23,8.85v9.84C527.21,583.7,419,544.6,309.38,507.68Z"/><path class="a" d="M324.68,487.21c19.3,6.69,38.45,13.23,57.53,20,27.51,9.7,55.61,17.59,83.1,27.4C518.09,553.4,571.08,571.63,624,590.14c2.24.78,4.3,2.13,6.57,2.77,6.13,1.73,7.32,5.75,5.49,11.89C530.91,568.09,425.7,531.69,320.92,496.61,318.74,491.39,322.2,489.91,324.68,487.21Z"/><path class="a" d="M329.43,483.08c1.36-4.05,4.19-5.41,4.32-8.47,30.74,9.38,60.14,20.27,89.81,30.39,12.41,4.24,24.58,9.29,37.18,12.84,33.51,9.45,65.84,22.3,98.72,33.54,24.24,8.29,48.63,16.23,72.26,26.23,5.68,2.4,5.63,2.53,4.38,11.57C534.52,552,431.58,519.27,329.43,483.08Z"/><path class="a" d="M636.35,563.67c.62,2.93.44,5.88.09,9.64-98.63-36.56-199.1-67-297.5-103.78,4.87-8.4,4.87-8.41,11.32-6.17q58.28,20.25,116.55,40.53c13.88,4.84,27.49,10.65,41.65,14.46,25.18,6.77,49.31,16.5,73.87,25C600.31,549.59,618.72,554.76,636.35,563.67Z"/><path class="a" d="M349.58,456.8c1-3.32,3.5-4.91,5-7.71,13.15,4.48,26.11,8.82,39,13.28q42.84,14.81,85.65,29.71c24.22,8.45,48.15,17.87,72.69,25.23,24.76,7.42,48.82,16.71,73.31,24.8,1.5.5,2.91,1.27,4.42,1.75,5.93,1.87,8.31,5.69,6.42,12.54C540.7,523.22,444.55,492.22,349.58,456.8Z"/><path class="a" d="M636.48,531.88c.06,3,.57,5.37-.43,7.86-92.78-29.89-184.65-62.31-276.6-94.88.12-3.42,3.44-4.81,4-7.56,2.85-.37,5,.67,7.26,1.44q85.9,29.86,171.79,59.74c18.77,6.54,37.29,13.89,56.31,19.54A264.72,264.72,0,0,1,636.48,531.88Z"/><path class="a" d="M369,432.26c4.27-8.12,4.45-8.33,11.58-5.87,26.88,9.27,53.72,18.69,80.59,28,33.83,11.69,67.75,23.15,101.51,35C587.22,498,612,506,636.18,516.09a15.9,15.9,0,0,1-.23,8.78C546.24,495.65,458,463.09,369,432.26Z"/><path class="a" d="M636,493.52,388.27,407.88c4.85-9,5-9.17,13.54-6.22q62,21.33,123.94,42.77,49.57,17.13,99.12,34.33c3.89,1.35,7.56,3.33,11.38,5.05A24.23,24.23,0,0,1,636,493.52Z"/><path class="a" d="M636.44,500.2v9.69L378.5,420.18c3.73-7.57,4.74-8.22,11.46-5.94q51.69,17.52,103.3,35.24,57,19.56,113.9,39.26A304.56,304.56,0,0,1,636.44,500.2Z"/><path class="a" d="M635.77,466.4c.76,4.06,1,7,.13,10.69l-237.22-82c1.05-3.92,3.59-6,6.26-8.73C481.84,413,559,439,635.77,466.4Z"/><path class="a" d="M636,450.47c0,3.46.67,6.22-.65,10.18L408.26,382.11a28.67,28.67,0,0,1,5.9-8.67C487.8,399.47,562.24,423.49,636,450.47Z"/><path class="a" d="M635.89,435.09c0,3.29.58,6.06-.63,9.3L418.5,369.54c2.6-7.71,4.65-8.88,11.14-6.64q73.08,25.1,146.14,50.24c16,5.49,32,11,47.9,16.63C627.76,431.21,631.63,433.22,635.89,435.09Z"/><path class="a" d="M231.67,670.18c-.58-7,.22-14.16-2.38-21-1.47-3.92-3.6-7.48-5.42-12,9.76-6.69,16.72-16.14,24.11-26.28,3.13,11.46,7.52,21.77,20.07,27-4.7,8.28-4.73,17.55-4.56,26.61-.72.36-1.16.76-1.4.67-11.12-4.29-20.9-.29-30.5,4.88Z"/><path class="a" d="M196.94,142.41c1.87-14-.37-25.65-10.65-35.1,7.44-5,13.37-11,17.71-20.17,4.27,11.82,11.69,19,23.43,21.46-4.38,8.67-4.17,17.55-1.89,27.25C215.27,134.21,206.25,136.75,196.94,142.41Z"/><path class="a" d="M325.36,300.7c-4.76-17.46-9.75-33.75-21.49-46.86,11-8,15.31-20.21,21.75-31.94,4.92,11.59,5.51,24.32,14.9,33.35C332.12,268.87,329.55,284.37,325.36,300.7Z"/><path class="a" d="M358,337.81c4.77,11.42,8.54,21.94,18,29.85-7.65,10.29-12.69,21.79-17.29,35a84.87,84.87,0,0,0-18.91-34.49A100.65,100.65,0,0,0,358,337.81Z"/><path class="a" d="M253.77,332.9c5.08-4.58,8.27-10.06,11.93-15.75,3.06,5.29,5.31,10.8,10.36,14.83a75.44,75.44,0,0,0-10.85,24.49C261.72,347.5,259.26,339.59,253.77,332.9Z"/><path class="a" d="M231.59,670l-.59.6-.06-.46h.73Z"/><path d="M461.25,177.08a148.38,148.38,0,0,1,2.3-36.84c5.91-29.13,24.9-44.73,52.49-52.3,14.48-4,28.59-3.54,42.79.42,13,3.62,22.91,11.47,30.43,22.57,12.16,18,17.52,37.94,18.93,59.41a629.56,629.56,0,0,1,.4,77.46c-.44,7.71.48,15.5.76,23.25.23,6.41-1.82,8.07-8.14,6.94-11.35-2-22.16-5.88-33.06-9.42q-38-12.31-75.79-25.17c-8.26-2.81-16.34-6.25-24.3-9.84-5.14-2.32-5.33-7.86-5.56-12.39C461.77,206.88,460.46,192.59,461.25,177.08ZM599.46,268.2c0-4.74-.07-8.3,0-11.86.07-3-1.3-4.75-4.21-5.58-28.64-8.25-56.5-19-85.29-26.7-5.63-1.5-11.3-3.11-17.19-4.82v13.57C528.45,243.65,562.89,257.47,599.46,268.2Zm-117-62.71c0-2.87,0-5,0-7.19.06-15.69-1-31.47,1.4-47C487,131,495,113.17,513,101.44c.82-.53,1.73-1,1.29-2.53a11.26,11.26,0,0,0-2.84,0c-19.87,5.14-36.66,24.67-39.68,44.95a175.8,175.8,0,0,0-1.61,33.18c.34,8.44-.74,17,.94,25.29ZM471,222.94l11.3,4.81c1.69-13.41.9-14.49-11.3-15.86Z"/><path class="a" d="M599.46,268.2c-36.57-10.73-71-24.55-106.67-35.39V219.24c5.89,1.71,11.56,3.32,17.19,4.82,28.79,7.71,56.65,18.45,85.29,26.7,2.91.83,4.28,2.54,4.21,5.58C599.39,259.9,599.46,263.46,599.46,268.2Z"/><path class="a" d="M482.49,205.49l-11.4-3.13c-1.68-8.3-.6-16.85-.94-25.29a175.8,175.8,0,0,1,1.61-33.18c3-20.28,19.81-39.81,39.68-44.95a11.26,11.26,0,0,1,2.84,0c.44,1.49-.47,2-1.29,2.53-18,11.73-26,29.53-29.1,49.83-2.39,15.56-1.34,31.34-1.4,47C482.48,200.46,482.49,202.62,482.49,205.49Z"/><path class="a" d="M471,222.94V211.89c12.2,1.37,13,2.45,11.3,15.86Z"/></svg>