<svg xmlns="http://www.w3.org/2000/svg" viewBox="0 0 800 800"><defs><style>.a{fill:#bee0b9;}</style></defs><title>hotknive</title><path class="a" d="M163.63,52a7.31,7.31,0,0,0-.42,1.72c0,20.89.13,41.78.1,62.67q-.18,134.33-.44,268.66-.3,144.45-.75,288.91c-.08,21.43,1,42.88-1.19,64.29-.87,8.61,1.2,10.67,10.09,10.94,13.5.41,27-.18,40.53.07,23.65.44,47.3.08,70.95.16,48.73.17,97.46-.06,146.2,0q62.9,0,125.81.24c25,.07,50.1.12,75.15.4,8.51.1,8.76.17,8.75-8.28q-.13-75.8-.26-151.6-.24-140.82-.46-281.63c-.06-66.62-.38-133.24.54-199.85.21-15.5-.67-31.05.78-46.52.86-9.13-.17-10.68-9.19-10.68-67.26,0-134.52.18-201.79-.05-85.69-.3-171.39.85-257.07-1.36C168.35,49.94,165.81,50.19,163.63,52Z"/><path d="M163.63,52c2.18-1.77,4.72-2,7.33-2,85.68,2.21,171.38,1.06,257.07,1.36,67.27.23,134.53,0,201.79.05,9,0,10,1.55,9.19,10.68-1.45,15.47-.57,31-.78,46.52-.92,66.61-.6,133.23-.54,199.85q.15,140.8.46,281.63.12,75.79.26,151.6c0,8.45-.24,8.38-8.75,8.28-25-.28-50.1-.33-75.15-.4q-62.91-.17-125.81-.24c-48.74,0-97.47.21-146.2,0-23.65-.08-47.3.28-70.95-.16-13.5-.25-27,.34-40.53-.07-8.89-.27-11-2.33-10.09-10.94,2.15-21.41,1.11-42.86,1.19-64.29q.58-144.45.75-288.91.27-134.34.44-268.66c0-20.89-.07-41.78-.1-62.67A7.31,7.31,0,0,1,163.63,52Zm4.44,3.88c0,23.8.05,46.64,0,69.47-.25,93.73-.23,187.45-1.15,281.17-.13,13.18,3.48,21.22,14.27,28.86,28.87,20.45,56.84,42.18,85,63.56,20.4,15.47,42.17,29.06,62.17,45.06,12.41,9.92,24.75,19.95,38.3,28.25C373.94,576.65,376,585,377,590.89c.09.55,0,1.19.19,1.77,6.54,25.82,10.51,52.19,16.52,78.13.74,3.21,1.81,6.05,5.38,6s7.09-1.31,7.93-5.73c.22-1.16.65-2.29.89-3.46,3.1-15.39,6.15-30.79,9.28-46.17,2.5-12.26,5.35-24.45,7.48-36.77.6-3.46,1.56-5.68,4.5-7.64,31.87-21.29,61.56-45.62,93.67-66.58,6.32-4.12,12.18-8.93,18.36-13.28,12.47-8.78,24.5-18.16,37.21-26.66,8.3-5.54,16.38-11.65,24.23-17.92,9.2-7.36,19.59-13.16,28.06-21.5a9.32,9.32,0,0,0,3.06-7.28q-.42-114.82-.65-229.66c-.08-36.6,0-73.21-.2-109.81-.07-9.22,1-18.61-2.16-28.53Z"/><path class="a" d="M168.07,55.84H630.72c3.19,9.92,2.09,19.31,2.16,28.53.25,36.6.12,73.21.2,109.81q.25,114.82.65,229.66a9.32,9.32,0,0,1-3.06,7.28c-8.47,8.34-18.86,14.14-28.06,21.5-7.85,6.27-15.93,12.38-24.23,17.92-12.71,8.5-24.74,17.88-37.21,26.66-6.18,4.35-12,9.16-18.36,13.28-32.11,21-61.8,45.29-93.67,66.58-2.94,2-3.9,4.18-4.5,7.64-2.13,12.32-5,24.51-7.48,36.77-3.13,15.38-6.18,30.78-9.28,46.17-.24,1.17-.67,2.3-.89,3.46-.84,4.42-4.24,5.71-7.93,5.73s-4.64-2.83-5.38-6c-6-25.94-10-52.31-16.52-78.13a4,4,0,0,1-.19-1.77c2-9.27-3-14.24-10.28-18.68-13.55-8.3-25.89-18.33-38.3-28.25-20-16-41.77-29.59-62.17-45.06-28.2-21.38-56.17-43.11-85-63.56-10.79-7.64-14.4-15.68-14.27-28.86.92-93.72.9-187.44,1.15-281.17C168.12,102.48,168.07,79.64,168.07,55.84ZM420.43,355a25.88,25.88,0,0,1,8-.64c9.49.78,18.24,3.56,26,9.22,2.39,1.74,4.94,3.48,7.47.53a4.31,4.31,0,0,0-1.66-3.47c-10.14-9.79-18.94-20.93-30.1-29.67-3.05-2.4-3.54-5.12-2.8-8.86A396.84,396.84,0,0,0,433.23,276a510.06,510.06,0,0,0-.14-85.18c-1.66-18.41-3.56-36.78-7-55-.55-2.94-1.54-5.91-4.41-6.55-6.47-1.44-7.5-6.54-9.31-11.58-2.21-6.18-4.13-12.42-5.72-18.78-.6-2.38-1.49-4.78-4.44-4.88-3.37-.12-4.06,2.59-4.78,5.14a251.89,251.89,0,0,1-8.6,24.09c-.65,1.63-1.21,3.7-3.28,3.9-4.63.45-5.38,3.76-6.4,7.39-1.5,5.39-2.25,10.89-3.3,16.36a363.38,363.38,0,0,0-6.9,71c.12,18.68-.84,37.33.43,56,.92,13.53,1.71,27.07,4.27,40.35,1.36,7.05-.24,11.29-6.11,15.48-10.49,7.5-20.29,15.95-30.4,24-2.46,1.94-4.69,3.85-1.47,7.65,7.16-3.25,13.49-8.41,21.49-9.63,7.79-1.18,15.57-2.25,23.6-.4a12.9,12.9,0,0,1,0,2.6c-4.48,18.24-14.07,32.19-32.73,38.17-4.59,1.47-6.53,3.19-4.95,8.47,1.91,6.44,2.63,13.22,4,19.83q15.33,75.4,30.7,150.8,9.21,45.57,18.11,91.2c.55,2.83.64,5.9,4.35,6,4.37.16,4.39-3.57,4.58-6.37.73-10.35,3.11-20.43,5.15-30.52,8.31-41.1,17.05-82.11,25.69-123.15q10.49-49.87,21.13-99.72c2.49-11.62,2.68-11.57-8.42-16.35a22.36,22.36,0,0,1-2-1.28C431.11,386.27,423.9,372.22,420.43,355Zm47.5,97.76c6.18,4.26,8.85,10.61,10.14,17.58s1.2,14.14-1.49,21.09c-1.1,2.85-1.9,6.81,1.78,8.45,3.94,1.74,4.42-2.73,5.49-4.76,4.42-8.38,11.37-13.72,19.82-17.19,6.15-2.53,12.45-2.59,18,2,1.64,1.36,3.11,2.56,5.26,1.21,2.44-1.53,1.12-3.32.43-5.19-2.82-7.64-1.24-14.16,4.32-20.29,3.45-3.81,8.22-5.09,12.35-7.47-2.18-3.92-2.18-4-5.33-3.89a27.3,27.3,0,0,1-14.33-3.08c-11-5.91-16.79-15.48-19.57-27.13-.75-3.13-1.67-4.71-5.57-3.89-1.49,6.35-2.88,12.93-5.35,19.19C489.77,439.66,484,448,471.65,449,469.65,449.14,468.18,449.77,467.93,452.74ZM302.68,206.38c-3.57,3.13-4,3.17-3.36,8.87.85,8-2.44,13.64-8.3,18.62a47.48,47.48,0,0,1-13.27,7.77c-1.92.78-4.61.72-4.62,3.75s2.5,3.2,4.55,3.85c6.06,1.89,9.43,6.08,11.07,12.14,1.73,6.41,1.73,12.56-1.44,18.49-1,1.9-1.87,3.77.52,5.11s4.23.65,5.59-1.59c.93-1.53,1.76-3.12,2.7-4.64,6.41-10.33,24.59-21.09,38.07-15.8,2.06.81,4,.83,5.27-1.19,1.42-2.32.25-4.2-1.71-5.6-2.64-1.88-3.7-4.5-4.09-7.61-1.06-8.51-2.05-17,5.86-23.24,1.08-.85,1.71-2.19.91-4.46-6.74-1.75-13.49,3.78-20.93.65S308.72,211.3,302.68,206.38Zm-85.52,70.06c-2.15,12.23-9.13,19.79-20.25,24-2.78,1.06-5.57,2-8.4,2.92-1.72.55-3.6,1.12-3.62,3.36,0,1.88,1.58,2.59,3,3.33,6.87,3.54,9.9,9.16,9.91,16.9a42.12,42.12,0,0,1-3.5,17.95c-1,2.11-1.06,4.37,1.85,5.33,2.46.81,3.64-.63,4.58-2.61a27.21,27.21,0,0,1,8.86-11c10.28-7.21,21.21-11.64,34.09-8.41,1.78.45,3.61.18,4.68-1.71s-.13-2.89-1.07-4.24c-4.55-6.56-3.26-17.58,2.54-23.56,2-2.06,7.11-2.5,5.11-6.72-1.85-3.91-6.11-1.5-9.27-1.55-8.67-.15-16.15-2.19-20.25-10.8C223.87,276.39,220.94,276.31,217.16,276.44Zm75.94,40.64c-1,3.8-2.6,7.24-5.61,9.7-7,5.69-14.5,10.28-23.77,11.11-1.9.17-4.21-.24-4.83,2.41-.53,2.3,1.18,3.32,2.57,4.83,4.1,4.47,8.32,9.2,6.7,16-1.54,6.5-3.86,12.74-8.13,18-1.62,2-4,4.25-1.15,6.58,2.51,2.09,4.3-.69,6-2.12a30.68,30.68,0,0,1,40.28.95c4.61,4.16,5.59,4.05,8.1-2.14-5.1-2.75-6.07-7.74-5.66-12.77.61-7.47,3.12-14.26,9.69-18.86,1.51-1.06,3.63-2,2.74-4.56a3.57,3.57,0,0,0-2.81-2.6c-12.09-3-15.82-7.13-16.62-19.35C300.3,319.6,298.9,316.83,293.1,317.08ZM221.89,161.17c-2.84,1.33-2.89,3.37-2.68,5.35.69,6.44-2.43,11.11-7.05,14.94-3.94,3.27-7.51,7.09-12.44,9-1.76.7-3.14,1.89-2.63,4.08.45,1.92,1.94,2.22,3.67,2.28,5.94.2,9.67,4.07,13.22,8.17,6.72,7.79,6.66,17.09,5.72,26.51-.26,2.6-.48,5.1,2.58,5.69s3.92-2,4.5-4.4c3-12.83,20.53-26.84,34.82-24.2,2.34.43,4-.45,4.41-2.81s-1-3.75-3.32-4c-3.58-.38-5.55-2.79-7.29-5.55-4.72-7.44-4-15.12-.62-22.71.82-1.84,2.51-3.39.78-5.28s-3.49-.23-5.27.6A20,20,0,0,1,230,167.46C227.18,165.66,224.7,163.37,221.89,161.17ZM527.83,309.09a4.62,4.62,0,0,0-3.7,4.06C521.91,325,515,332.6,503.64,336.39c-1.49.49-3.2.95-3.11,3a3.81,3.81,0,0,0,3.2,3.79,14.79,14.79,0,0,1,9.06,6.41c5.38,8.17,8.48,17.05,6,27-.6,2.43-1.62,5,1.73,5.76,2.47.55,4.76-.34,5-3.6a6.63,6.63,0,0,1,2.19-4.11c9.39-9.77,20.57-13.79,34-10.6,2.18.51,4.6,1.43,5.84-1s-.62-3.86-2.59-5.22c-5.29-3.65-7.47-8.86-7.83-15.26a30.41,30.41,0,0,1,3.9-16.54c.68-1.27,1.22-2.6.25-3.91-1.18-1.59-3-1.38-4.33-.65a13.8,13.8,0,0,1-8.07,1.6C539.53,322.15,532.6,317.44,527.83,309.09ZM492,247.56c8-.16,15.54,3.34,22,9.54,1.65,1.6,3.23,4.19,5.94,2.29,2.93-2.05,1.17-4.2-.18-6.63-6-10.81-3.29-25,8.73-31.85,1.36-.78,2.49-1.48,2.34-3a3.06,3.06,0,0,0-3.36-2.76c-3.54,0-7-.77-9.43-3.12-4.35-4.27-8.9-8.67-8.45-15.7.14-2.08.52-4.69-2.58-5.19-2.82-.46-2.84,1.88-3.63,3.71a22.64,22.64,0,0,1-6.07,8c-7.62,6.64-17,8.23-26.47,9.42-1.92.23-4.35-.45-5.08,2s1.5,3.39,3.13,4.49c6.09,4.09,7.3,9.92,6.07,16.69a28.72,28.72,0,0,1-6.65,14.42c-1.37,1.55-2.52,3.31-.25,5.1,1.9,1.5,3.85,1.33,5.25-.52C477.83,248.51,484.38,248.06,492,247.56ZM337.25,485.69c2.3.19,5,1.22,6.06-2,1-2.83-1.5-3.68-3.23-5-3.33-2.45-5.76-5.55-6-9.85-.38-6.92-1.05-13.86.75-20.71.41-1.54.72-3.22-.83-4.39s-3,.05-4.31.83c-3.89,2.25-7.79,2-12,.74-6.15-1.88-10.76-5.84-15.32-10-1.7-1.54-3.63-3-5.78-1.4s-.51,3.63.24,5.4c4.46,10.41.63,22.24-10.94,26.18-2.7.92-4.89,2.47-3,5.67.61,1,2.27,1.49,3.49,2.12a26.84,26.84,0,0,1,14.49,28.51c-.4,2.53-.46,4.91,2.75,5.61,3,.66,4-1.05,5-3.65C313,492.39,325.45,484.65,337.25,485.69ZM246.74,112.74a5.31,5.31,0,0,0-.49-1.63c-9.45-13.32-9.46-13.32-.86-27.28a3.13,3.13,0,0,0-.07-3.85c-1-1.34-2.42-1.31-3.76-.68-9.92,4.67-18.05,1.22-25.37-5.62-1.55-1.45-2.91-2.64-5.19-1.77-2.62,1-2.68,3.08-2.54,5.37.52,7.93-2.64,14.25-8.6,19.31a49.14,49.14,0,0,1-10.14,7.21c-1.48.72-2.84,1.67-2.47,3.61.31,1.6,1.65,2.13,3.07,2.38,6.93,1.24,9.72,6.78,11.51,12.38a36.09,36.09,0,0,1,1.7,17c-.38,2.26-1,4.48,2.14,5.14s3.55-1.71,4.11-3.85c3.85-14.71,15.8-24.22,31.45-25C243.42,115.36,245.67,115.34,246.74,112.74Zm55,30.72c2-.1,2.83-1.24,3.63-2.78,6.92-13.34,20.68-20.17,34.92-17.3,2,.41,3.57.26,4.65-1.51,1.17-1.92.08-3.37-1.19-4.76-7.68-8.44-8.2-15.67-1.7-24.93,1.26-1.8,2.94-3.34,1.7-5.84-1.16-2.33-3.36-2-5.23-1.83-10.49,1.09-17.08-5-22.86-12.4-1-1.32-1-3.73-3.55-3.06s-2.15,2.92-2,4.89c.51,6.61-2.14,11.9-6.61,16.58-4.1,4.31-9.81,5.76-14.72,8.62-1.38.8-3.1,1.28-3.23,3.13s1.17,2.72,2.77,3.42c10.2,4.53,14.58,12,13.67,23.09a31.54,31.54,0,0,1-2.49,9.76C298.59,140.79,298.92,142.89,301.78,143.46ZM595.3,165.89a4.39,4.39,0,0,0-1.75-3.49c-3.58-2.68-4.09-6.2-4.11-10.5,0-7.54,3.54-12.81,8.85-17.4,1.41-1.21,2.85-2.48,1.9-4.53-.79-1.72-2.39-1.7-4.1-1.46-7.89,1.13-13.1-2.82-17.51-8.89-2-2.7-3.15-6.47-7.05-7.43-12.74,19-8.83,15-32.58,20-1.12,2.68-.1,4.24,2.22,5.9,7.43,5.32,10.7,12.39,8.71,21.72a54,54,0,0,1-5.46,15.68c-1.17,2.06-2.33,4.17.45,5.53,2.59,1.26,3.85-.83,5.06-2.81,7.66-12.43,25.27-17.48,38.66-11C591.31,168.52,593.4,168.88,595.3,165.89Zm-11.2,57c-1.43,10.88-7.24,18.35-17.79,22.17-4.27,1.55-4.41,4.51-.48,7.2a14.15,14.15,0,0,1,3.91,4.36c5.74,9,2.2,17.61-1.35,26.07-.94,2.24-3,4.34-.34,6.17s4.28-.22,6.27-2.29c7.07-7.33,15.44-12.31,26.12-12.07a27.06,27.06,0,0,1,10.29,2.65c1.82.79,3.62.6,4.69-1.23,1-1.68,0-3.1-1.32-4.13a7.62,7.62,0,0,1-3.23-5.42c-.77-7.53.92-14.19,6.73-19.38,1.44-1.29,3.67-2,2.7-4.6-.88-2.3-3-2.17-5-2.37-10.83-1.08-19.83-5.31-25.32-15.24C588.6,222.26,587,221.18,584.1,222.87Zm-72.23-127c-.69-4.63-3.67-4.53-6.08-4.85-10-1.32-14.88-8.26-18.21-16.72-.8-2-.67-4.41-3.45-4.91s-3.77,1.62-5,3.43c-5.7,8.59-13.84,12.67-24,12.9-1.89,0-3.64.33-4.08,2.6s.35,3.56,2.51,4.69c5.81,3,8.33,8.34,8.56,14.66.26,6.91-1.33,13.37-5.91,18.83-1.31,1.55-2.88,3.36-1.05,5.17s3.81.9,5.62-.89c9.59-9.5,22.94-11,34.68-3.76,2.38,1.47,4.27,1.81,7.1-1.17-4.87-4.57-6.63-10.53-3.95-16.86C501.14,103,504.17,97.06,511.87,95.88Z"/><path d="M420.43,355c3.47,17.24,10.68,31.29,25.91,40.14a22.36,22.36,0,0,0,2,1.28c11.1,4.78,10.91,4.73,8.42,16.35Q446,462.58,435.62,512.47c-8.64,41-17.38,82-25.69,123.15-2,10.09-4.42,20.17-5.15,30.52-.19,2.8-.21,6.53-4.58,6.37-3.71-.14-3.8-3.21-4.35-6q-9-45.62-18.11-91.2-15.27-75.4-30.7-150.8c-1.34-6.61-2.06-13.39-4-19.83-1.58-5.28.36-7,4.95-8.47,18.66-6,28.25-19.93,32.73-38.17a12.9,12.9,0,0,0,0-2.6c-8-1.85-15.81-.78-23.6.4-8,1.22-14.33,6.38-21.49,9.63-3.22-3.8-1-5.71,1.47-7.65,10.11-8,19.91-16.48,30.4-24,5.87-4.19,7.47-8.43,6.11-15.48C371.1,305,370.31,291.5,369.39,278c-1.27-18.71-.31-37.36-.43-56a363.38,363.38,0,0,1,6.9-71c1.05-5.47,1.8-11,3.3-16.36,1-3.63,1.77-6.94,6.4-7.39,2.07-.2,2.63-2.27,3.28-3.9a251.89,251.89,0,0,0,8.6-24.09c.72-2.55,1.41-5.26,4.78-5.14,2.95.1,3.84,2.5,4.44,4.88,1.59,6.36,3.51,12.6,5.72,18.78,1.81,5,2.84,10.14,9.31,11.58,2.87.64,3.86,3.61,4.41,6.55,3.43,18.18,5.33,36.55,7,55a510.06,510.06,0,0,1,.14,85.18,396.84,396.84,0,0,1-5.85,46.09c-.74,3.74-.25,6.46,2.8,8.86,11.16,8.74,20,19.88,30.1,29.67a4.31,4.31,0,0,1,1.66,3.47c-2.53,3-5.08,1.21-7.47-.53-7.76-5.66-16.51-8.44-26-9.22A25.88,25.88,0,0,0,420.43,355Zm-67.07,73.66c10.73,58.06,23.13,115.19,35,173.41,6.15-8.93,10.12-17.41,10.1-27.6-.09-41.56.05-83.12.05-124.68,0-5.06.58-10.16-.55-16.23-4.29,6.25-7.29,12.53-12,17-5.64,5.37-6.5,10.12-4.07,17.38,3,8.95,1.51,18.56.23,27.79-1.25,9-.84,17.39,4.37,25.15,1.3,1.94,2.29,4.08,3.41,6.1-1.65,2.08-3.71,2.68-5,.49-4.93-8.36-10.29-16.56-8.74-27.14,1-6.87,1.54-13.82,1.85-20.75.34-7.48-.72-14.7-6.32-20.45-.47-.49-.47-1.43-.66-2.07,15.45-13.57,25.3-28.45,25.87-39.42L369,414.18C365.13,420.41,360.72,425.63,353.36,428.64Zm80.1-15.39L407.17,418c3.21,14.38,8.14,27.1,19.56,36.26,2.94,2.36,3.09,4.43.73,6.89a23.84,23.84,0,0,0-4.62,6.8c-3.88,8.47-2.14,16.64.42,25,3.27,10.66,1.25,20.85-3.55,30.59-1.46,3-3.35,5.89-8,4.19a17.65,17.65,0,0,1,1.4-3.51c7.9-11.53,7.73-23.77,3.42-36.45-2.35-6.89-1.65-13.74.77-20.45,1.13-3.14,2.68-6.13,4.21-9.57-8.66-7.52-12.85-17.74-17.63-27.66-.5,10-.49,19.72-.5,29.46q0,57.59-.05,115.18c0,9.17,4.49,16.73,7.54,25,2-1.06,1.84-2.39,2.07-3.51,2.55-12.24,5.05-24.5,7.62-36.75q13.21-63,26.53-126c.54-2.56.72-4.81-1.78-6.25C439.75,424,436.21,419,433.46,413.25Zm-8-241c-.37,0-1-.24-1.07-.1-6.33,9.65-22,33-23.38,35.15-9.19,14.53-15.15,30.56-21,46.54-1.83,5-5.3,9.59-5.28,15,0,9.18.81,18.36,1.3,28.05a9.79,9.79,0,0,0,2.36-4.14c4-9.91,7.72-20,12.37-29.63,9.73-20.17,20.25-39.95,33.38-58.18,3.6-5,4.85-10,3.41-16.14C426.25,183.39,426.1,177.76,425.45,172.23Zm20.73,231.42c-5.23-4.91-5.14-4.52-10.62-3.27-8.48,1.95-16.3,6.5-25.18,6.67-15.39.29-30.38-2.67-45-7.14-5-1.53-8.77-2.29-12.69,2.53C383.66,415.84,414.5,414,446.18,403.65ZM390.51,155.1c-6.29,10.85-6.62,22.34-.8,28.33C396,180.3,396.13,175.78,390.51,155.1ZM369,348.76h59.11v-1.51C408.36,343.71,388.65,343.31,369,348.76Z"/><path d="M467.93,452.74c.25-3,1.72-3.6,3.72-3.76,12.31-1,18.12-9.32,22.2-19.65,2.47-6.26,3.86-12.84,5.35-19.19,3.9-.82,4.82.76,5.57,3.89,2.78,11.65,8.59,21.22,19.57,27.13a27.3,27.3,0,0,0,14.33,3.08c3.15-.11,3.15,0,5.33,3.89-4.13,2.38-8.9,3.66-12.35,7.47-5.56,6.13-7.14,12.65-4.32,20.29.69,1.87,2,3.66-.43,5.19-2.15,1.35-3.62.15-5.26-1.21-5.52-4.55-11.82-4.49-18-2-8.45,3.47-15.4,8.81-19.82,17.19-1.07,2-1.55,6.5-5.49,4.76-3.68-1.64-2.88-5.6-1.78-8.45,2.69-7,2.8-14,1.49-21.09S474.11,457,467.93,452.74Zm52.43-7.05c-8.72-5.46-14.27-12.92-18.76-22.57-4,14.54-10.85,25.38-24.34,31,4.44,5.24,5.56,11.24,7.05,17.48C491,455.31,505.38,450.4,520.36,445.69Z"/><path d="M302.68,206.38c6,4.92,9.27,12,16.82,15.12s14.19-2.4,20.93-.65c.8,2.27.17,3.61-.91,4.46-7.91,6.28-6.92,14.73-5.86,23.24.39,3.11,1.45,5.73,4.09,7.61,2,1.4,3.13,3.28,1.71,5.6-1.23,2-3.21,2-5.27,1.19-13.48-5.29-31.66,5.47-38.07,15.8-.94,1.52-1.77,3.11-2.7,4.64-1.36,2.24-3.35,2.85-5.59,1.59s-1.54-3.21-.52-5.11c3.17-5.93,3.17-12.08,1.44-18.49-1.64-6.06-5-10.25-11.07-12.14-2.05-.65-4.55-.89-4.55-3.85s2.7-3,4.62-3.75A47.48,47.48,0,0,0,291,233.87c5.86-5,9.15-10.62,8.3-18.62C298.71,209.55,299.11,209.51,302.68,206.38Zm23.22,38.43L330,228c-10.48,3.3-16.38-5.31-25-8.62,0,6.42-3.52,11-6.68,16.44C309.27,235.36,316.77,241.67,325.9,244.81Z"/><path d="M217.16,276.44c3.78-.13,6.71-.05,8.27,3.21,4.1,8.61,11.58,10.65,20.25,10.8,3.16.05,7.42-2.36,9.27,1.55,2,4.22-3.12,4.66-5.11,6.72-5.8,6-7.09,17-2.54,23.56.94,1.35,2.08,2.48,1.07,4.24s-2.9,2.16-4.68,1.71c-12.88-3.23-23.81,1.2-34.09,8.41a27.21,27.21,0,0,0-8.86,11c-.94,2-2.12,3.42-4.58,2.61-2.91-1-2.82-3.22-1.85-5.33a42.12,42.12,0,0,0,3.5-17.95c0-7.74-3-13.36-9.91-16.9-1.43-.74-3-1.45-3-3.33,0-2.24,1.9-2.81,3.62-3.36,2.83-.89,5.62-1.86,8.4-2.92C208,296.23,215,288.67,217.16,276.44Zm25.77,20.35c-8-2.49-16.27-3.53-21.77-11.09-2.55,6.7-7.7,10.5-13.22,16,12.69-1.36,21.29,4.7,30,11.22A86.11,86.11,0,0,1,242.93,296.79Z"/><path d="M293.1,317.08c5.8-.25,7.2,2.52,7.51,7.26.8,12.22,4.53,16.39,16.62,19.35a3.57,3.57,0,0,1,2.81,2.6c.89,2.54-1.23,3.5-2.74,4.56-6.57,4.6-9.08,11.39-9.69,18.86-.41,5,.56,10,5.66,12.77-2.51,6.19-3.49,6.3-8.1,2.14a30.68,30.68,0,0,0-40.28-.95c-1.71,1.43-3.5,4.21-6,2.12-2.81-2.33-.47-4.58,1.15-6.58,4.27-5.31,6.59-11.55,8.13-18,1.62-6.83-2.6-11.56-6.7-16-1.39-1.51-3.1-2.53-2.57-4.83.62-2.65,2.93-2.24,4.83-2.41,9.27-.83,16.8-5.42,23.77-11.11C290.5,324.32,292.06,320.88,293.1,317.08Zm.94,9.85c-5.09,5.89-10.37,10-18,12.76,13.43,3.34,19.57,13.22,27,23.39.85-6.17,4.27-10.05,6.9-15C299.87,344.72,296.66,336.46,294,326.93Z"/><path d="M221.89,161.17c2.81,2.2,5.29,4.49,8.09,6.29a20,20,0,0,0,20.31,1.43c1.78-.83,3.44-2.58,5.27-.6s0,3.44-.78,5.28c-3.39,7.59-4.1,15.27.62,22.71,1.74,2.76,3.71,5.17,7.29,5.55,2.36.25,3.71,1.63,3.32,4s-2.07,3.24-4.41,2.81c-14.29-2.64-31.8,11.37-34.82,24.2-.58,2.44-1.38,5-4.5,4.4s-2.84-3.09-2.58-5.69c.94-9.42,1-18.72-5.72-26.51-3.55-4.1-7.28-8-13.22-8.17-1.73-.06-3.22-.36-3.67-2.28-.51-2.19.87-3.38,2.63-4.08,4.93-2,8.5-5.78,12.44-9,4.62-3.83,7.74-8.5,7.05-14.94C219,164.54,219.05,162.5,221.89,161.17Zm-6.62,25c12.29.38,22.37,4.63,32.88,8.73-2.68-5.93-1.25-11.87-1.36-18-7.93-.76-15.58-1.47-22.56-6.83C223.76,176.91,220.08,181.25,215.27,186.19Z"/><path d="M527.83,309.09c4.77,8.35,11.7,13.06,21,14a13.8,13.8,0,0,0,8.07-1.6c1.37-.73,3.15-.94,4.33.65,1,1.31.43,2.64-.25,3.91a30.41,30.41,0,0,0-3.9,16.54c.36,6.4,2.54,11.61,7.83,15.26,2,1.36,3.81,2.82,2.59,5.22s-3.66,1.53-5.84,1c-13.4-3.19-24.58.83-34,10.6a6.63,6.63,0,0,0-2.19,4.11c-.23,3.26-2.52,4.15-5,3.6-3.35-.75-2.33-3.33-1.73-5.76,2.45-10-.65-18.84-6-27a14.79,14.79,0,0,0-9.06-6.41,3.81,3.81,0,0,1-3.2-3.79c-.09-2.09,1.62-2.55,3.11-3,11.33-3.79,18.27-11.4,20.49-23.24A4.62,4.62,0,0,1,527.83,309.09ZM511,340a41.18,41.18,0,0,1,13.38,20.66,76.2,76.2,0,0,1,23.78-32c-8.35-1-14.53-3.86-19.93-8.61C524.17,328.4,519.2,335.21,511,340Z"/><path d="M492,247.56c-7.66.5-14.21.95-18.73,6.91-1.4,1.85-3.35,2-5.25.52-2.27-1.79-1.12-3.55.25-5.1A28.72,28.72,0,0,0,475,235.47c1.23-6.77,0-12.6-6.07-16.69-1.63-1.1-3.86-2-3.13-4.49s3.16-1.8,5.08-2c9.51-1.19,18.85-2.78,26.47-9.42a22.64,22.64,0,0,0,6.07-8c.79-1.83.81-4.17,3.63-3.71,3.1.5,2.72,3.11,2.58,5.19-.45,7,4.1,11.43,8.45,15.7,2.39,2.35,5.89,3.15,9.43,3.12a3.06,3.06,0,0,1,3.36,2.76c.15,1.52-1,2.22-2.34,3-12,6.87-14.76,21-8.73,31.85,1.35,2.43,3.11,4.58.18,6.63-2.71,1.9-4.29-.69-5.94-2.29C507.58,250.9,500.06,247.4,492,247.56ZM516.47,218c-5.26-4.7-9.43-8.49-11.65-14.35-8,9-17.84,11.66-29.55,13.25,5.91,5,6.09,11,6.3,18C490.59,223.4,503,220.94,516.47,218Z"/><path d="M337.24,485.68c-11.79-1-24.23,6.71-28.67,18.17-1,2.6-2,4.31-5,3.65-3.21-.7-3.15-3.08-2.75-5.61a26.84,26.84,0,0,0-14.49-28.51c-1.22-.63-2.88-1.08-3.49-2.12-1.87-3.2.32-4.75,3-5.67,11.57-3.94,15.4-15.77,10.94-26.18-.75-1.77-2.33-3.81-.24-5.4s4.08-.14,5.78,1.4c4.56,4.14,9.17,8.1,15.32,10,4.25,1.3,8.15,1.51,12-.74,1.34-.78,2.64-2.08,4.31-.83s1.24,2.85.83,4.39c-1.8,6.85-1.13,13.79-.75,20.71.24,4.3,2.67,7.4,6,9.85,1.73,1.27,4.19,2.12,3.23,5C342.23,486.91,339.55,485.88,337.24,485.68Zm-40-20.37c11-1.82,21.59-1.52,31.81,4.72-2.4-6.3-.37-12.27-1-18.45-9.18,1.74-16.29-2.8-24.22-6.8C304.17,452.55,302.81,459.4,297.27,465.31Z"/><path d="M246.74,112.74c-1.07,2.6-3.32,2.62-5.51,2.73-15.65.81-27.6,10.32-31.45,25-.56,2.14-1,4.52-4.11,3.85s-2.52-2.88-2.14-5.14a36.09,36.09,0,0,0-1.7-17c-1.79-5.6-4.58-11.14-11.51-12.38-1.42-.25-2.76-.78-3.07-2.38-.37-1.94,1-2.89,2.47-3.61a49.14,49.14,0,0,0,10.14-7.21c6-5.06,9.12-11.38,8.6-19.31-.14-2.29-.08-4.37,2.54-5.37,2.28-.87,3.64.32,5.19,1.77,7.32,6.84,15.45,10.29,25.37,5.62,1.34-.63,2.76-.66,3.76.68a3.13,3.13,0,0,1,.07,3.85c-8.6,14-8.59,14,.86,27.28A5.31,5.31,0,0,1,246.74,112.74Zm-12.88-10.91c-.73-5.66.29-10.25.71-15.19-7.31-.29-14.06-1.25-20-6.09-2.09,5.72-3.35,11-6.77,17.17C217.81,94.56,225.2,98.26,233.86,101.83Z"/><path d="M301.78,143.46c-2.86-.57-3.19-2.67-2.24-4.92a31.54,31.54,0,0,0,2.49-9.76c.91-11-3.47-18.56-13.67-23.09-1.6-.7-2.9-1.59-2.77-3.42s1.85-2.33,3.23-3.13c4.91-2.86,10.62-4.31,14.72-8.62,4.47-4.68,7.12-10,6.61-16.58-.15-2-.7-4.18,2-4.89s2.52,1.74,3.55,3.06c5.78,7.44,12.37,13.49,22.86,12.4,1.87-.19,4.07-.5,5.23,1.83,1.24,2.5-.44,4-1.7,5.84-6.5,9.26-6,16.49,1.7,24.93,1.27,1.39,2.36,2.84,1.19,4.76-1.08,1.77-2.62,1.92-4.65,1.51-14.24-2.87-28,4-34.92,17.3C304.61,142.22,303.75,143.36,301.78,143.46Zm1.33-45.39c12.05-.71,19.5,7.21,29.13,9.73,2-5.72,1.09-11.62,3.33-17.62-7.5-1.63-14.67-3.15-20.64-8.45C312.11,87.77,309.28,93.12,303.11,98.07Z"/><path d="M595.3,165.89c-1.9,3-4,2.63-6.71,1.31-13.39-6.51-31-1.46-38.66,11-1.21,2-2.47,4.07-5.06,2.81-2.78-1.36-1.62-3.47-.45-5.53a54,54,0,0,0,5.46-15.68c2-9.33-1.28-16.4-8.71-21.72-2.32-1.66-3.34-3.22-2.22-5.9,23.75-4.91,19.84-.94,32.58-20,3.9,1,5.09,4.73,7.05,7.43,4.41,6.07,9.62,10,17.51,8.89,1.71-.24,3.31-.26,4.1,1.46.95,2.05-.49,3.32-1.9,4.53-5.31,4.59-8.89,9.86-8.85,17.4,0,4.3.53,7.82,4.11,10.5A4.39,4.39,0,0,1,595.3,165.89Zm-46-29.33c3.53,5.3,6.68,10,7.28,16.69,7.67-10.1,18-14.75,29.36-19.08-5.51-3.27-9-7.65-13.38-11.49C566.15,129.29,559.39,135,549.34,136.56Z"/><path d="M584.1,222.87c2.89-1.69,4.5-.61,5.88,1.89,5.49,9.93,14.49,14.16,25.32,15.24,2,.2,4.12.07,5,2.37,1,2.56-1.26,3.31-2.7,4.6-5.81,5.19-7.5,11.85-6.73,19.38a7.62,7.62,0,0,0,3.23,5.42c1.3,1,2.3,2.45,1.32,4.13-1.07,1.83-2.87,2-4.69,1.23a27.06,27.06,0,0,0-10.29-2.65c-10.68-.24-19.05,4.74-26.12,12.07-2,2.07-3.63,4.12-6.27,2.29s-.6-3.93.34-6.17c3.55-8.46,7.09-17.06,1.35-26.07a14.15,14.15,0,0,0-3.91-4.36c-3.93-2.69-3.79-5.65.48-7.2C576.86,241.22,582.67,233.75,584.1,222.87Zm-12.28,26.18c4,4.18,6.29,8.95,7.74,15.55,6.07-11.37,15.24-16.73,26.65-20.68-7.26-2.87-13.69-5.39-17.94-11.65A43.18,43.18,0,0,1,571.82,249.05Z"/><path d="M511.87,95.88c-7.7,1.18-10.73,7.12-13.27,13.12-2.68,6.33-.92,12.29,3.95,16.86-2.83,3-4.72,2.64-7.1,1.17-11.74-7.22-25.09-5.74-34.68,3.76-1.81,1.79-3.73,2.77-5.62.89s-.26-3.62,1.05-5.17c4.58-5.46,6.17-11.92,5.91-18.83-.23-6.32-2.75-11.62-8.56-14.66-2.16-1.13-2.94-2.46-2.51-4.69s2.19-2.55,4.08-2.6c10.19-.23,18.33-4.31,24-12.9,1.21-1.81,2.2-3.94,5-3.43s2.65,2.89,3.45,4.91c3.33,8.46,8.18,15.4,18.21,16.72C508.2,91.35,511.18,91.25,511.87,95.88Zm-50.13-5c3.7,5.12,6.31,10.27,6.85,17.29,7.58-7.85,16.17-11.22,25.8-14.59-5.73-3.7-8.36-9.23-12.86-13.1A67,67,0,0,1,461.74,90.87Z"/><path class="a" d="M353.36,428.64c7.36-3,11.77-8.23,15.59-14.46l27.92,3.45c-.57,11-10.42,25.85-25.87,39.42.19.64.19,1.58.66,2.07,5.6,5.75,6.66,13,6.32,20.45-.31,6.93-.85,13.88-1.85,20.75-1.55,10.58,3.81,18.78,8.74,27.14,1.3,2.19,3.36,1.59,5-.49-1.12-2-2.11-4.16-3.41-6.1-5.21-7.76-5.62-16.17-4.37-25.15,1.28-9.23,2.75-18.84-.23-27.79-2.43-7.26-1.57-12,4.07-17.38,4.71-4.48,7.71-10.76,12-17,1.13,6.07.55,11.17.55,16.23,0,41.56-.14,83.12-.05,124.68,0,10.19-3.95,18.67-10.1,27.6C376.49,543.83,364.09,486.7,353.36,428.64Z"/><path class="a" d="M433.46,413.25c2.75,5.78,6.29,10.71,11.84,13.92,2.5,1.44,2.32,3.69,1.78,6.25q-13.33,63-26.53,126c-2.57,12.25-5.07,24.51-7.62,36.75-.23,1.12,0,2.45-2.07,3.51-3.05-8.25-7.56-15.81-7.54-25q.09-57.59.05-115.18c0-9.74,0-19.48.5-29.46,4.78,9.92,9,20.14,17.63,27.66-1.53,3.44-3.08,6.43-4.21,9.57-2.42,6.71-3.12,13.56-.77,20.45,4.31,12.68,4.48,24.92-3.42,36.45a17.65,17.65,0,0,0-1.4,3.51c4.66,1.7,6.55-1.22,8-4.19,4.8-9.74,6.82-19.93,3.55-30.59-2.56-8.32-4.3-16.49-.42-25a23.84,23.84,0,0,1,4.62-6.8c2.36-2.46,2.21-4.53-.73-6.89-11.42-9.16-16.35-21.88-19.56-36.26Z"/><path class="a" d="M446.18,403.65c-31.68,10.38-62.52,12.19-93.46-1.21,3.92-4.82,7.72-4.06,12.69-2.53,14.59,4.47,29.58,7.43,45,7.14,8.88-.17,16.7-4.72,25.18-6.67C441,399.13,441,398.74,446.18,403.65Z"/><path class="a" d="M390.51,155.1c5.62,20.68,5.49,25.2-.8,28.33C383.89,177.44,384.22,166,390.51,155.1Z"/><path class="a" d="M369,348.76c19.7-5.45,39.41-5.05,59.11-1.51v1.51Z"/><path class="a" d="M520.36,445.69c-15,4.71-29.4,9.62-36.05,25.91-1.49-6.24-2.61-12.24-7.05-17.48,13.49-5.62,20.32-16.46,24.34-31C506.09,432.77,511.64,440.23,520.36,445.69Z"/><path class="a" d="M325.9,244.81c-9.13-3.14-16.63-9.45-27.59-9,3.16-5.47,6.69-10,6.68-16.44,8.64,3.31,14.54,11.92,25,8.62Z"/><path class="a" d="M242.93,296.79a86.11,86.11,0,0,0-5,16.11c-8.73-6.52-17.33-12.58-30-11.22,5.52-5.48,10.67-9.28,13.22-16C226.66,293.26,234.93,294.3,242.93,296.79Z"/><path class="a" d="M294,326.93c2.62,9.53,5.83,17.79,15.95,21.17-2.63,4.93-6.05,8.81-6.9,15-7.44-10.17-13.58-20.05-27-23.39C283.67,336.94,289,332.82,294,326.93Z"/><path class="a" d="M215.27,186.19c4.81-4.94,8.49-9.28,9-16.07,7,5.36,14.63,6.07,22.56,6.83.11,6.1-1.32,12,1.36,18C237.64,190.82,227.56,186.57,215.27,186.19Z"/><path class="a" d="M511,340c8.24-4.74,13.21-11.55,17.23-20,5.4,4.75,11.58,7.62,19.93,8.61a76.2,76.2,0,0,0-23.78,32A41.18,41.18,0,0,0,511,340Z"/><path class="a" d="M516.47,218c-13.52,2.94-25.88,5.4-34.9,16.93-.21-7-.39-13.06-6.3-18,11.71-1.59,21.51-4.23,29.55-13.25C507,209.51,511.21,213.3,516.47,218Z"/><path class="a" d="M297.27,465.31c5.54-5.91,6.9-12.76,6.59-20.53,7.93,4,15,8.54,24.22,6.8.63,6.18-1.4,12.15,1,18.45C318.86,463.79,308.26,463.49,297.27,465.31Z"/><path class="a" d="M233.86,101.83c-8.66-3.57-16.05-7.27-26-4.11,3.42-6.2,4.68-11.45,6.77-17.17,5.9,4.84,12.65,5.8,20,6.09C234.15,91.58,233.13,96.17,233.86,101.83Z"/><path class="a" d="M303.11,98.07c6.17-4.95,9-10.3,11.82-16.34,6,5.3,13.14,6.82,20.64,8.45-2.24,6-1.31,11.9-3.33,17.62C322.61,105.28,315.16,97.36,303.11,98.07Z"/><path class="a" d="M549.34,136.56c10-1.56,16.81-7.27,23.26-13.88,4.39,3.84,7.87,8.22,13.38,11.49-11.32,4.33-21.69,9-29.36,19.08C556,146.58,552.87,141.86,549.34,136.56Z"/><path class="a" d="M571.82,249.05a43.18,43.18,0,0,0,16.45-16.78c4.25,6.26,10.68,8.78,17.94,11.65-11.41,4-20.58,9.31-26.65,20.68C578.11,258,575.84,253.23,571.82,249.05Z"/><path class="a" d="M461.74,90.87a67,67,0,0,0,19.79-10.4c4.5,3.87,7.13,9.4,12.86,13.1-9.63,3.37-18.22,6.74-25.8,14.59C468.05,101.14,465.44,96,461.74,90.87Z"/></svg>