<svg xmlns="http://www.w3.org/2000/svg" viewBox="0 0 800 800"><defs><style>.cls-1{isolation:isolate;}.cls-2{mix-blend-mode:multiply;}.cls-3{fill:red;}</style></defs><title>i hate this</title><g class="cls-1"><g id="Layer_1" data-name="Layer 1"><path d="M292.78,335.77c-11.61,8.14-21.15,18.64-30.55,29.16-4.71,5.27-9.47,10.35-13,16.54-.25.44-1.61,2.63-.49,1-.46.66-1,1.26-1.53,1.88-1.21,1.48-2.52,2.94-3.61,4.52a81.35,81.35,0,0,0-5.26,9.5C232,411.05,224.58,422.65,222.54,437c-1.94,13.52,4.61,29.26,14,38.68,11.14,11.15,26.64,16.09,41.88,18.22,5.66.79,8.11-7.88,2.39-8.68-6.63-.93-12.88-1.9-19.11-4.39-.67-.27-1.37-.51-2-.81,1.84.82-.55-.34-1-.58-1.57-.79-3.15-1.56-4.71-2.36s-3.09-1.75-4.69-2.51c-.34-.16-2.55-1.53-.88-.29-.7-.52-1.31-1.19-2-1.77-2.62-2.37-4.91-4.85-7.34-7.4-.53-.55-1.21-1.6-.4-.35-.47-.73-.84-1.55-1.25-2.31s-1-1.81-1.46-2.69c-.17-.28-.32-.57-.47-.86-.64-1.24.41,1.07.05.21a59.37,59.37,0,0,1-3.18-10.5c-.19-.89-.41-1.78-.57-2.67,0-.08.09,1.22,0-.28-.15-2.15-.34-4.3-.48-6.44-.06-.86-.31,1.57,0-.4.15-1,.36-1.93.54-2.9.27-1.43.47-2.88.85-4.28.51-1.9,1.29-3.75,1.89-5.62.09-.27.74-2.22.37-1.18s.48-1.16.64-1.53c2.6-6.14,6.17-11.66,9.15-17.62,1.44-2.88,2.84-5.74,4.46-8.51.54-.92,1.09-1.82,1.61-2.74.85-1.51-.06-.14.33-.68,1.19-1.62,2.6-3.09,3.82-4.69a38.76,38.76,0,0,0,2.52-3.82c.52-.88,1.06-1.74,1.56-2.62.84-1.48-.78.87.59-.91,2.17-2.84,4.48-5.49,6.89-8.13,5-5.53,9.75-11.07,15.26-16.12,2.37-2.19,4.38-4.74,6.74-6.95.88-.83,1.8-1.62,2.68-2.46.31-.3.63-.6,1-.89.63-.55-1.11.84-.12.09,1.7-1.29,3.51-2.46,5.26-3.69,4.71-3.3.22-11.1-4.54-7.77Z"/><path d="M364.69,349c.33,2,.67,4.07,1,6.1.31,1.82-.1-1.11.11.72l.45,4c.39,3.59,1.45,6.92,2.2,10.45,1.54,7.15,2.8,14.34,4.19,21.51s3.4,14.39,5.29,21.51,3,14.61,5.39,21.65a174.58,174.58,0,0,1,6.08,21.49c.71,3.66,2,7,3,10.58.5,1.93.81,4,1.12,6,.28,1.75.09-1.1,0,.68-.08,1.32-.09,2.65-.14,4-.05,1.57-.16,3.1-.31,4.66-.11,1.14-.17,2.31-.33,3.46-.21,1.48.38-.92-.37.93-.5,1.23-.92,2.5-1.38,3.75-.52,1.43-.69,1.3-.35.81-1.19,1.71-2.48,3.46-3.83,5.05,1.33-1.56-.77.69-1.1,1a18.13,18.13,0,0,0-2.32,2.48c-.85,1.41,2.11-.45.48-.21a25.5,25.5,0,0,0-3.67,1.14c-1.45.45-2.89.92-4.33,1.39l-3.23,1.05c-1.37.44,1,.19-.92,0-4.12-.36-8.23-.41-12.36-.68-2.15-.15-4.34-.36-6.49-.63,2,.25-.68-.17-1.28-.28-1.38-.25-2.78-.47-4.15-.75-7.58-1.56-14.84-4.24-22.36-6-5.63-1.34-8,7.34-2.4,8.68,7.26,1.73,14.24,4.3,21.52,5.88s14.54,2,22,2.38c4.44.26,7.45.56,11.68-.82,3.44-1.12,7.87-1.71,10.83-3.74,5.91-4.07,11.14-12.47,12.82-19.32a50.34,50.34,0,0,0-.42-23.35c-1.89-7.21-3.89-14.4-5.89-21.6-4.26-15.25-8.25-30.52-12.08-45.9-2-8-3.64-16.29-5.07-24.4-.37-2.08-.72-4.15-1.2-6.2-.35-1.46-.67-3-1.13-4.41-.62-1.94-.07.49-.27-1-.66-4.83-1.22-9.62-2-14.42-.94-5.71-9.61-3.29-8.67,2.39Z"/><path d="M374.59,511.93c6.32-.71,11.52-1.71,16.81-5.51,2.77-2,5.45-4.1,8.13-6.22.69-.54,1.36-1.12,2.07-1.64-1.12.81-.13.15.44-.2,1.49-.91,3-1.9,4.42-2.91,5.23-3.64,10.62-7.06,15.79-10.78,4.61-3.31,9.29-6,14.07-9,1-.66,2.06-1.33,3.09-2,.36-.24,2.36-1.55,1.54-1.1s1-.38,1.33-.51l3.49-1.33c3.05-1.17,6.23-1.93,9.38-2.81,5.57-1.55,3.2-10.24-2.4-8.68a96.33,96.33,0,0,0-32.61,15.88c-4.67,3.53-9.74,6.42-14.46,9.84-2.7,2-5.42,3.8-8.19,5.66-1,.69-2,1.4-2.94,2.15s-1.7,1.34-2.54,2c-.37.28-2.59,2-1.06.84a50.71,50.71,0,0,1-8.13,5.39c-.81.41-2.4.81-3,1.5-.46.52,2.89-.3.45-.2-1.89.08-3.8.43-5.68.64-5.7.64-5.76,9.64,0,9Z"/><path d="M290.36,348l3.73-3c.65-.52,1.29-1.08,2-1.57s-.53.42-.51.4c.4-.26.81-.52,1.22-.76,2.86-1.68,5.56-3.45,8.5-5,5.54-2.9,10.7-6.39,16.32-9.17,0,0-1.22.44.36-.11l2.47-.89c1.31-.47,2.63-.92,3.93-1.41,2.94-1.11,5.84-2.27,8.77-3.39,6-2.31,12.24-2.93,18.54-4.21,1.51-.31,3-.66,4.49-1a20,20,0,0,1,2.39-.53c-1.86.16.42.22,1.1.28,3.41.35,6.91.54,10.33.55.45,0,2.72.1.65-.08.59,0,1.19.18,1.77.27,1.79.28,3.62.47,5.39.85,2.63.55,5.26,1.34,7.83,2.1,1.85.54,3.68,1.15,5.52,1.71.82.25,1.27.45.18,0,.81.35,1.59.82,2.37,1.23,2.92,1.5,5.84,2.91,8.82,4.28s5.05,3.48,7.72,5.27c2.18,1.47,4.62,2.57,6.84,4,1.63,1.05,3.32,2.15,4.86,3.33.9.69-.87-.87.28.33.83.86,1.67,1.7,2.51,2.55,2.45,2.48,5.33,4.23,8,6.48.84.71-.93-.94.25.36.69.76,1.43,1.48,2.14,2.23.86.88,1.71,1.77,2.57,2.66,2.35,2.44,4.63,4.83,6.77,7.46l1.86,2.28c.71.87-.82-1.07.27.33,1.23,1.57,2.51,3.13,3.67,4.76,1.53,2.13,2.95,4.38,4.33,6.62,3.5,5.7,6.68,11.66,9.73,17.61.51,1-.45-1.3.15.38.35,1,.68,1.93,1,2.9.49,1.39.93,2.79,1.55,4.12.78,1.71,1.77,3.35,2.65,5,.65,1.25.28.61.24.47.27,1,.45,2.07.67,3.1,1.27,5.83,2.86,11.6,4.65,17.29a47.72,47.72,0,0,0,1.78,5.38c.56,1.23.32.68.28.43.17,1,.15,2.13.22,3.17a90.16,90.16,0,0,0,1.41,10.47c.19,1,.39,2,.61,2.95s.48,2.13.74,3.18c.16.66.68,2.89.34,1.05a56.12,56.12,0,0,1,.86,9.5,51.26,51.26,0,0,0,1.19,10.61,18.54,18.54,0,0,1,.4,1.94c-.17-2-.15.25-.19.69a42.47,42.47,0,0,0-.19,5.41c.13,2.94.89,5.82.92,8.76,0,3.31-.19,6.65-.34,10,0,1-.09,1.92-.12,2.89,0,.17-.23,2.59,0,1.44s-.37,1.07-.47,1.38c-.37,1.22-.73,2.44-1.06,3.67-.09.36-.67,2.41-.35,1.43s-.42,1-.58,1.36c-.44,1-.89,2.05-1.33,3.08-.18.41-1.16,2.59-.68,1.85s-.94.87-1.11,1c-.66.64-1.31,1.3-2,1.95-.9.89-1.79,1.72-2.74,2.55-.78.69-1.59,1.36-2.37,2-.11.09-2,1.65-1.11,1s-1,.64-1.24.82c-1,.66-1.95,1.34-2.93,2-10,6.67-20.92,11.64-30.32,19.22-2.32,1.86-4,4.29-6.07,6.43-1.87,1.94-4,3.63-5.78,5.63a136.6,136.6,0,0,0-11.37,14.87c-.56.84-1.13,1.67-1.68,2.51-.73,1.14-.26.45-.16.33-1.22,1.54-2.54,3-3.81,4.53-1.82,2.14-3.66,4.29-5.59,6.33a112.16,112.16,0,0,1-12.76,11.2c-1.41,1.1-2.76,2.35-4.25,3.33,1-.68.49-.42-.23-.06-1,.53-2.05,1.12-3.07,1.68-2.76,1.51-5.44,3.15-8.18,4.69-1.48.84.8-.22-.2.15s-1.74.54-2.6.81c-1.39.43-2.8.81-4.16,1.3-2.66,1-5.18,2.28-7.9,3a83,83,0,0,1-9.33,2l-3,.49c-1.39.23-.53.09-.3.06-1.95.24-3.92.42-5.88.63a89,89,0,0,1-16.39.73c-1.84-.14-3.69-.41-5.53-.6-.49,0-2.49-.42-.49,0-.87-.16-1.73-.38-2.6-.57l-9.09-2a92.37,92.37,0,0,1-9-2.69c-1.53-.5.79.38-.25,0-.84-.34-1.66-.73-2.49-1.1-1.33-.58-2.66-1.15-4-1.76a92.36,92.36,0,0,1-15.55-9.16c-.81-.6-1.63-1.19-2.45-1.78-1.1-.79-.5-.36-.31-.2-1.55-1.23-3.11-2.48-4.61-3.78-2.13-1.85-3.95-4-5.91-6.09-.89-.93-1.8-1.85-2.7-2.77-.67-.69-1.33-1.38-2-2.06-1.14-1.16.62.87-.41-.39a89.28,89.28,0,0,1-5.49-7.63,177.49,177.49,0,0,1-9.45-16.16c-.74-1.44.25.75-.14-.21-.28-.7-.53-1.42-.79-2.12-.56-1.5-1.18-3-1.68-4.52a61.45,61.45,0,0,1-2.15-8.23c-.56-3.16-.94-6.31-1.62-9.45-.22-1-.44-2-.65-3s-.14-1.25-.09-.09c-.09-1.92.06-3.87.07-5.79.05-5.69.12-11.11.59-16.78.14-1.73.26-3.46.38-5.18,0-.23.35-2.46.08-1.34s.55-1.27.68-1.66a60.48,60.48,0,0,0,2.53-9.43c.15-.81.28-1.63.45-2.43,0,.09-.48,1,.1-.33.78-1.75,1.62-3.49,2.45-5.21,1.16-2.4,2.39-4.77,3.59-7.14,2.6-5.16-5.16-9.72-7.77-4.54-2.77,5.49-6.38,11.17-7.5,17.25a73.26,73.26,0,0,1-2.67,9.86c-1,3.14-1,6.34-1.28,9.64-.47,5.84-.58,11.43-.63,17.29,0,6.87,1.48,13.16,2.5,19.93,1.89,12.55,8.46,23.68,15.23,34.15a102.08,102.08,0,0,0,25.29,26.6c20.47,14.92,45.63,22.61,71,19.88a134,134,0,0,0,36.89-9,73.83,73.83,0,0,0,16.22-9.48c5.29-4.12,10.53-8.11,15.2-12.94a120.92,120.92,0,0,0,11.34-13.22c1.87-2.63,3.56-5.37,5.52-7.95l1.88-2.45c.48-.64,1.27-1.62.32-.44,1.27-1.59,2.54-3.21,3.87-4.75,1.87-2.18,4.12-4,6.11-6,1.07-1.11,2.06-2.32,3.08-3.48l1.62-1.83c.57-.64-1,.8-.4.23.38-.35.86-.65,1.26-1a147.58,147.58,0,0,1,16-10.64c5.43-3.15,10.79-6.07,16-9.61,4.63-3.16,10.86-7.76,13.67-12.67a46.78,46.78,0,0,0,5.9-20.59c.15-3.53.38-7.08.37-10.61,0-3-.77-6-.9-9s.46-6.22-.11-9.35c-.35-1.89-.89-3.77-1.16-5.67.05.34,0,.88.07-.49s0-2.76,0-4.11c-.14-6.23-1.72-12.1-2.86-18.18-.35-1.83-.74-3.69-1-5.54.27,2.17,0-.78,0-1.11-.07-1.23-.15-2.46-.26-3.69-.27-3.26-1.52-6.16-2.49-9.27-2-6.25-3.41-12.59-5-18.94a18.34,18.34,0,0,0-1.43-3.91c-.48-1-1-1.9-1.51-2.85-.21-.41-1.37-2.67-1-1.78s-.38-1.16-.49-1.48c-.4-1.16-.8-2.32-1.22-3.47a31.54,31.54,0,0,0-1.69-3.81c-3-5.8-6.07-11.63-9.53-17.17-6.6-10.6-15.28-22.25-25.32-29.81-1.49-1.13-3.13-2.17-4.54-3.4,1.2,1.06,0-.13-.44-.63-.83-.91-1.72-1.78-2.6-2.64a47.54,47.54,0,0,0-8-5.91c-5.33-3.36-10.48-7.29-16.2-9.91-5.88-2.69-11.22-5.49-17.48-7.31a77.46,77.46,0,0,0-18.85-3.34c-3.47-.11-7-.65-10.49-.61-3,0-5.94,1.09-8.86,1.68-6.75,1.37-13.19,2.15-19.64,4.63-5.52,2.12-11.45,3.84-16.77,6.39-6.12,2.94-11.75,6.76-17.76,9.92A97.14,97.14,0,0,0,284,341.63c-4.53,3.61,1.88,9.94,6.37,6.37Z"/><path d="M337.08,357.38c-2.59-1.9-5.49-5-8.78-5.39a25.87,25.87,0,0,0-10,.65c-7.27,2.43-12.61,6.71-17.22,12.76a152.38,152.38,0,0,0-10.67,15.14,84.67,84.67,0,0,0-4.6,9.43c-1.2,2.8-3.09,5.08-4.81,7.59-1,1.44-2,2.89-2.88,4.36-.35.55-1.24,1.89-.31.6-.55.76-1.17,1.48-1.74,2.21-2.31,2.91-4.55,5.88-6.84,8.8-.47.59-1.47,1.47-.39.45-.55.52-1.14,1-1.71,1.53a43,43,0,0,0-4.27,3.94,52.74,52.74,0,0,0-5.21,7.46,49.87,49.87,0,0,0-4.41,9.24A21.43,21.43,0,0,0,251.93,447c.45,4.29,1.78,6.4,4.43,9.83a27.66,27.66,0,0,0,7.09,6.38c12.09,7.35,27.15,5.26,40.55,4.07,1.74-.15,3.55-.09,5.27-.36,1.3-.21,1.1-.14.66-.18,1.11.1,2.23.44,3.32.65.85.16,1.74.28,2.59.5-1.72-.44.5.28,1.1.59l4.26,2.15c3.16,1.6,6.39,3.07,9.53,4.69,2.69,1.39,4.83,3.69,7.61,4.87,5.42,2.3,13.34,5.28,19.29,5.15,6.41-.14,14.36-5.49,17.09-11.1a43.4,43.4,0,0,0,4.49-21c-.14-6.51-3.57-12.41-6.51-18a151.7,151.7,0,0,0-10.48-17.44c-4.43-6.24-5.78-9.93-7-17.08-1.13-6.57-1.74-13.39-3.47-19.84a97.77,97.77,0,0,0-8.07-19.76c-1.53-2.91-4.28-4.81-6.71-7-4.31-3.85-10.7,2.49-6.37,6.36l3.81,3.4a17.85,17.85,0,0,1,1.52,1.35c-1.18-1.38.09.65.35,1.19,1.49,3.19,2.93,6.38,4.34,9.61.11.25.81,2,.46,1.05s.36,1.2.46,1.52c.53,1.62,1.18,3.25,1.6,4.9.73,2.85,1.15,5.84,1.64,8.75,1.09,6.51,1.76,13.15,4,19.4,2,5.67,5.56,10.18,8.8,15.15,3.55,5.45,6.43,11.24,9.47,17,.4.74.8,1.48,1.19,2.23.8,1.54-.2-.75.13.28.64,2,1.16,4,1.77,6.06.46,1.57.05-.78.08.24,0,.78,0,1.57,0,2.34,0,1.08-.07,2.16,0,3.23,0,.35,0,.7,0,1,0,1.44.21-1.1.09-.27-.28,1.88-.88,3.71-1.14,5.59,0,.24-.42,2-.11,1,.27-.87-.61,1.23-.82,1.65-.47,1-1,1.93-1.41,2.9-.17.38-1.19,2.09-.55,1.31s-1,.69-1.18.8c-1,.73-2,1.5-2.91,2.29-.27.22-1.36.8-1.45,1.14.36-1.33,2.68-1.14.13-.52a16.82,16.82,0,0,0-3,1c-2.16,1,.89.58.42.29-2.08-1.26-7-1.5-9.5-2.24-1.14-.34-2.27-.69-3.4-1.06l-2.6-.89c-.69-.24-2.57-1.27-1.18-.38-2.71-1.74-4.94-3.64-7.86-5-5.24-2.49-10.65-6.32-16.27-7.73-6.83-1.72-12.93-.48-19.82-.08a159.84,159.84,0,0,1-19.08.32c-1.16-.08,1.3.36-.5-.14l-3.09-.87c-.68-.19-1.37-.36-2.05-.58,1.77.57-.7-.34-1.18-.56-.95-.44-1.9-.92-2.88-1.34-1.55-.66.38.49-.54-.16a50.46,50.46,0,0,1-4.26-3.61c1.26,1.13-.19-.22-.54-.69a16.24,16.24,0,0,0-2-2.61c-1.8-1.47.79-.36-.27.79.25-.28-.28-2.73-.31-3-.11-1-.16-2.08-.32-3.1s0-1.34-.24-.14a48.65,48.65,0,0,1,1.91-5.56c.22-.69.79-2,.13-.55.26-.54.57-1.07.86-1.59.89-1.6,1.65-3.31,2.61-4.86.77-1.23,1.7-2.39,2.54-3.57.54-.75,1-1.56,1.62-2.27s-1,.88.53-.35a39.9,39.9,0,0,0,6.76-6.8c1.08-1.41,2.16-2.83,3.25-4.23-.2.27-.53.68.3-.36s1.47-1.86,2.2-2.79a107.79,107.79,0,0,0,9.83-14.1c3.11-5.65,5.22-11.27,9.05-16.57,1.65-2.29,3.18-4.67,4.84-7,.88-1.2,1.8-2.36,2.7-3.54a22.24,22.24,0,0,1,1.44-1.88c-1.13,1.18.15.06.64-.31.76-.6,4.27-3,4.46-3.92,0,.1-2.67,1.16-.57.43,1.16-.39,2.29-.95,3.41-1.42.74-.3,1.47-.62,2.21-.91,1-.39-1.4,0,.25-.09,1.5-.07,5.15.61,6.42-.11.32-.18-1.56-1.21-1-.15.26.53,1.79,1.32,2.23,1.64l3.63,2.67c4.68,3.43,9.17-4.38,4.55-7.78Z"/><polyline points="333.96 361.79 332.28 365.94 327.23 372.42 323.79 379.88 319.71 385.75 316.11 391.96 314.98 399.07 311.98 405.55 308.07 411.57 303.13 416.9 297.68 421.74 293 427.32 287.99 432.59 283.54 438.31 277.82 442.55 276.81 448.77 278.08 455.5 278.47 462 284.37 463.56 291.13 462.45 297.93 460.83 304.57 458.71 311.59 459.16 318.51 462.06 325.31 465.15 332.36 467.67 339.2 470.7 345.95 473.91 352.68 477.18 358.84 478.43 363.34 473.67 368.53 469.89 373.12 464.63 375.32 458.2 374.7 451.25 372.25 444.69 368.54 437.86 365.26 430.73 360.8 424.3 356.71 417.65 353.24 410.63 351.18 403.66 349.83 396.54 348.94 389.35 347.65 382.22 345.05 375.43 342.54 368.7 338.83 362.52 333.46 357.79"/><path d="M329.62,360.59c-.39,1-.88,1.94-1.18,2.93-.81,2.63,1.76-1.76,0,.12a45.56,45.56,0,0,0-4.33,5.54c-2.11,3.06-3.09,6.75-5.17,9.84-2.29,3.42-5.05,6.87-6.69,10.67a21.54,21.54,0,0,0-1.32,6.46,10,10,0,0,1-.25,1.55c0-.12.56-1.48.17-.34a42,42,0,0,1-1.84,4,34.15,34.15,0,0,1-2.59,4.55c-.62,1-1.21,2-1.88,2.89s.15-.13.25-.26c-.43.51-.91,1-1.37,1.48-2.84,3.07-6.07,5.64-9,8.64s-5.56,6.41-8.42,9.5c-1.12,1.21-2.12,2.44-3.13,3.75-.81,1-1.58,2.11-2.43,3.11,1.12-1.33-1.06.81-1.66,1.26-2,1.47-4.56,2.82-5.35,5.27a26.08,26.08,0,0,0-1.14,7.25c0,2.43.95,5,1.32,7.34.23,1.48-.12-1.23,0-.18.06.78.09,1.56.14,2.34L274,462a4.63,4.63,0,0,0,3.31,4.34c4.29,1.14,7.28,1.73,11.67,1a99,99,0,0,0,10.33-2.23c2-.57,4-1.54,6.12-1.95-1.09.22,0,.05,1.28.18s2.65.11,4,.25c1.66.17-1.08-.53.83.35,1.06.49,2.16.91,3.23,1.36.82.34,1.65.67,2.47,1-2-.89,1.21.58,1.62.77,3.8,1.73,7.61,3.2,11.55,4.61,1.62.58-1.07-.48.52.19,1.17.49,2.32,1,3.48,1.54q2.17,1,4.32,2c3.57,1.7,7.11,3.46,10.68,5.14,3.42,1.61,9.48,3.6,12.67,1.07a44,44,0,0,0,4-4.27c.51-.53-.73.47.68-.61,1.16-.89,2.38-1.69,3.53-2.57,2.92-2.25,6-5.51,7.39-8.91,3.29-7.82,2-15.35-1.55-22.9a164,164,0,0,0-11.37-20.26,95,95,0,0,1-5.44-9.36c-.54-1.1-1.08-2.19-1.63-3.28-1-1.92.08.45-.26-.63-.66-2.1-1.36-4.23-1.88-6.36-.55-2.29-.9-4.65-1.32-7,.4,2.18-.2-1.6-.26-2.08-.16-1.3-.31-2.61-.48-3.91a56.07,56.07,0,0,0-3.12-12.8c-1.46-3.82-2.62-7.84-4.59-11.42-2.51-4.53-5.25-7.29-9.11-10.7-4.33-3.81-10.72,2.53-6.37,6.37a62.73,62.73,0,0,1,5.26,4.62c-1.36-1.5.73,1.39,1,1.87.41.69,2.15,3.56,1.86,3a18.34,18.34,0,0,0,.87,2.36c.46,1.23.91,2.45,1.37,3.67.82,2.17,1.87,4.34,2.51,6.57.58,2,.77,4.15,1.2,6.2.49,2.34-.05-1,.24,1.42.21,1.75.42,3.5.65,5.25A84.75,84.75,0,0,0,348,408.82c2.63,8.94,8.31,15.87,13,23.7,2.1,3.48,3.52,7.44,5.47,11,.59,1.09,1.24,2.16,1.78,3.28-.9-1.86.51,1.46.68,1.89.44,1.19,1,2.37,1.34,3.58-.57-1.86.09,1.14.16,1.95s.1,5.07.46,2.9a42.92,42.92,0,0,1-1.49,4.35,7,7,0,0,0-.47,1.37c.07,1.33,1.75-1.58.57-1s-2.53,2.85-3.35,3.84c-.23.27-.48.58-.73.84,1.27-1.32-.23.17-.68.5-1.18.86-2.41,1.69-3.57,2.6a56.12,56.12,0,0,0-5.55,5.57l4.38-1.16c-1.47-.3-2.94-.65-4.42-.9-.26,0-2.19-.43-1.19-.14s-1.21-.6-1.62-.8c-2.51-1.22-5-2.44-7.55-3.63a179,179,0,0,0-16.52-7l-1.9-.68c-.06,0,1.2.55-.32-.15s-3.3-1.51-5-2.25A70.92,70.92,0,0,0,313.3,455c-6-1.79-10.95-.1-16.65,1.47a90.12,90.12,0,0,1-9.19,2,31.74,31.74,0,0,0-3.38.55c-1.7.48,1.52.56.87,0-1.05-.91-3.89-1-5.28-1.4L283,462a78.57,78.57,0,0,0-1-10.16,23.62,23.62,0,0,0-.57-3c-.8-2.45-.62,1.5-.13.52.74-1.45.64-3.95.91-5.58l-2.07,2.69c2.69-2,5.55-3.77,7.71-6.32,2.4-2.84,4.62-5.62,7.17-8.34,2.1-2.23,3.87-4.79,6-7,2.42-2.43,5.11-4.51,7.45-7,4.57-4.93,9-11.12,10.9-17.68a42.88,42.88,0,0,0,.9-5.65c.25-1.71-.19-.19.07-.76.48-1,1.16-2,1.73-3,1.69-2.91,3.88-5.51,5.54-8.42.93-1.62,1.62-3.43,2.4-5.13.36-.78.69-1.57,1.08-2.34-.84,1.68.32-.45.75-1A42.22,42.22,0,0,0,338.3,363c2.16-5.37-6.54-7.7-8.68-2.39Z"/><path d="M334.56,359.55c-2.17.65-4.47,1.15-6.58,2-2.29.89-3.83,2.48-5.66,4.1a32,32,0,0,0-8,10.32c-.94,2.05-1.54,4.3-2.35,6.41-.53,1.36.62-1.38,0-.05-.19.41-.39.83-.59,1.24-.72,1.48-1.46,3-2.13,4.48-.74,1.66-1.3,3.36-1.89,5.09-.38,1.1-.66,2.31-1.15,3.37.9-1.93-1.39,1.9-1.67,2.35-1,1.56-2,3.11-2.9,4.69-.7,1.19-1.42,2.38-2.1,3.59-.3.53-.6,1.11-.95,1.61.64-.91.45-.59-.21.1-3.29,3.44-6.3,7.09-9.54,10.55a121.75,121.75,0,0,1-9.38,8.8c-3.08,2.67-5.22,6.45-7.09,10.05-2.45,4.7-4.8,10.65-2.87,15.94.81,2.21,1.92,5.3,3.53,7.07s4.33,3.31,6.35,4.86c4.6,3.52,9.08-4.29,4.54-7.77-1.52-1.17-3.22-3-5-3.8-1.33-.59.79,1.32,1,.91a8.33,8.33,0,0,0-.71-1.55A13,13,0,0,0,277.5,450c-1.17-1.3.84,1.71.37,1.56a14.08,14.08,0,0,1,.15-1.52,20.38,20.38,0,0,0,.4-4c0-2.71-1.23,1.76-.06.18a37.34,37.34,0,0,0,2.2-4.21c.84-1.55,1.79-3,2.75-4.48a26.22,26.22,0,0,1,1.57-2.41c-1.23,1.48,1.59-1.14,2.05-1.53a110.54,110.54,0,0,0,8.31-7.89c3.06-3.27,5.88-6.73,9-10,2.71-2.82,4.33-6.29,6.36-9.6a55.88,55.88,0,0,0,6.08-12.36c.22-.67.9-2.51.23-.88.45-1.09,1-2.16,1.53-3.23.83-1.74,1.66-3.45,2.35-5.24.56-1.45,1.07-2.92,1.61-4.38a13.33,13.33,0,0,1,.47-1.3c.61-1.3-.75,1.29.06.1s1.59-2.23,2.38-3.34c.67-.93,2.18-2.51,1.2-1.62,1.06-1,2.15-1.9,3.23-2.86A12.89,12.89,0,0,0,331,370c1.82-2.13-1.21,1.72-1,.34.09-.56,6.12-1.83,7-2.08,5.54-1.66,3.18-10.35-2.39-8.68Z"/><path d="M316,467.91c2.54-.51,5.1-.94,7.61-1.52,1.85-.43-1.27.1,1.2-.22l4.8-.62a59.18,59.18,0,0,1,13.62-.44c3.53.33-1.34-1.42.76.38a31.19,31.19,0,0,0,3.77,2.39c2,1.25,4,2.54,6,3.7a35.85,35.85,0,0,0,13.11,4.56c5.67.94,8.1-7.73,2.39-8.68l-4-.67c-.59-.09-1.19-.15-1.77-.29-.38-.09,1.19.58-.24-.09a68.09,68.09,0,0,1-6.39-3.48c-4.6-2.81-8.65-6.18-14.08-6.88-9.55-1.23-19.81,1.31-29.18,3.18-5.67,1.13-3.27,9.81,2.39,8.68Z"/><path d="M303,480.6c-5.92,9.14-13.22,18.8-15.37,29.7-1.18,6-1.95,11.56-.54,17.58.6,2.58,2.94,5.65,4.9,7.46,2.25,2.06,5.37,1.9,8.29,2.3a4.81,4.81,0,0,0,5.08-2.07c2.67-3.72,6.55-7.23,6.24-12s-1.05-9.7-1.29-14.6c-.09-1.79-.27-3.53-.49-5.31-.18-1.46-.34-2.92-.54-4.38-.15-1.11-.18,1.16-.18.38a12.24,12.24,0,0,1,.2-1.48,67.41,67.41,0,0,1,3.43-13.65c1.88-5.49-6.81-7.84-8.68-2.39a67.69,67.69,0,0,0-3.37,13.24c-.56,4.08.23,7.77.54,11.86.36,4.6.56,9.13,1.08,13.72.07.61,0,3.39.44,3.79.25.21.84-1.63.38-1.43s-.75,1-1,1.36L297.55,531l5.08-2.07c-1.3-.18-2.62-.46-3.92-.54a8.49,8.49,0,0,0-2-.26c1-.4,2.15,2.29,1,.09-.21-.4-2.29-3.47-2.76-3.47.4,0,.59,2.57.74.71a9.15,9.15,0,0,0-.34-2,23.85,23.85,0,0,1-.41-2.39c-.12-1.58-.05,1.53.12-.06s.29-3.21.48-4.81c.16-1.37-.24,1.35,0,0,.1-.59.23-1.17.34-1.76.3-1.52.57-3.06.9-4.58.18-.8-.56,1.34-.15.24.25-.68.63-1.34.94-2l1.87-4c1-2.2,1.94-4.54,3.13-6.66,2.36-4.21,5.49-8.22,8.12-12.28,3.16-4.88-4.63-9.39-7.77-4.54Z"/><path d="M299.77,508.61c-.69,1.7-1.51,3.39-2.11,5.13a19.61,19.61,0,0,0-.61,5.36c-.1,2.08-.24,3.6.74,5.55.86,1.71,1.85,3.37,2.77,5,2.8,5.08,10.57.54,7.78-4.54-.81-1.47-1.55-3-2.44-4.43-1.3-2.05.09.68,0,.83a10.74,10.74,0,0,0,.14-2.79c0-.93.07-1.86.13-2.79s-.09.72-.11.77c.13-.28.21-.57.35-.84.79-1.56,1.35-3.28,2-4.89.94-2.27-1-4.93-3.14-5.54-2.57-.74-4.62.91-5.54,3.14Z"/><path d="M310.66,370.67l2.59.8,1.88.58c.45.14,1.48.72.57.12s0,0,.37.18l1.76.79,2.67,1.2c2.21,1,4.84.64,6.15-1.61,1.13-1.93.62-5.15-1.61-6.16a101,101,0,0,0-12-4.57c-5.55-1.72-7.92,7-2.39,8.67Z"/><path d="M295.9,389.28c2.37,1.3,4.92,3.27,7.55,4s5.74.77,8.49,1.14c2.41.32,4.5-2.3,4.5-4.5,0-2.7-2.08-4.18-4.5-4.5l-7.3-1,2.28.61-6.48-3.53c-5.09-2.77-9.64,5-4.54,7.77Z"/><path d="M283.42,408.34A57.1,57.1,0,0,0,301.5,415c5.65,1.1,8.08-7.57,2.39-8.68a57.77,57.77,0,0,1-8.54-2.07c-.87-.32-1.76-.72-2.65-.95-1.08-.28,1.37.82-.26-.2-1.45-.91-3-1.69-4.48-2.53-5-2.85-9.59,4.92-4.54,7.77Z"/><path d="M268.2,426.25c2.33,1.54,4.69,3.62,7.27,4.68s5.8,1.15,8.53,1.63c5.67,1,8.1-7.68,2.4-8.68l-3.72-.65-2.7-.47c-.31-.06-2.25-.45-1-.06s-.29-.31-.61-.52l-2.22-1.47-3.37-2.23c-4.84-3.21-9.35,4.59-4.54,7.77Z"/><path d="M256.18,450c2.92.87,6.36,2.59,9.43,2.62s6.49-.94,9.58-1.39c2.42-.36,3.71-3.4,3.14-5.54-.68-2.58-3.14-3.49-5.53-3.14l-4.19.61-2.63.39c-.56.08-2.86.32-.37.21,2.11-.09.68-.1-.09-.37s-1.89-.56-2.83-.84l-4.12-1.23c-5.56-1.65-7.94,7-2.39,8.68Z"/><path d="M338.38,475.6l2.79-2,1.77-1.27a5.51,5.51,0,0,0,.73-.54c.33-.38.38.18-.25,0-.07,0-.85.32-.22.1l.68-.26,2.2-.85,3.2-1.23a4.63,4.63,0,0,0,3.14-5.54c-.59-2.16-3.25-4-5.53-3.14s-4.72,1.63-6.94,2.69-4.14,2.83-6.11,4.25-2.92,3.92-1.61,6.16c1.13,1.94,4.17,3,6.15,1.62Z"/><path d="M352.16,481.05c1.7-1.19,3.49-2.31,5.12-3.6a32,32,0,0,0,4.14-4.69,4.63,4.63,0,0,0,0-6.37c-1.61-1.61-4.78-1.86-6.36,0l-1.84,2.18L352,470c-.24.28-1.17,1.1-.2.42s-.16.08-.38.23l-1.5,1.05-2.34,1.62a4.62,4.62,0,0,0-1.61,6.16c1.15,2,4.15,3,6.16,1.61Z"/><path d="M396.09,389.9c1.45,1.81,3,3.58,4.35,5.44.48.66-.61-1,.27.53s1.86,2.94,2.78,4.42c1.1,1.77.08-.77.33.79.21,1.27.47,2.53.7,3.8.08.42.73,4,.38,1.76.18,1.19.31,2.39.46,3.59.53,4,.09,7.75-.06,11.82-.08,2.29,0,4.58-.09,6.87.11-2.24-.25,1.31-.34,1.83-.25,1.46-.62,2.94-.77,4.41-.9,8.91,3.34,18.84,11.56,22.8,7.72,3.71,17.35-1.32,24.15-4.77,1.12-.57,2.22-1.16,3.35-1.71-1.6.77-.4.17,0,0,.91-.4,1.83-.76,2.74-1.14q3-1.25,6.07-2.24c2.21-.71,4.42-.76,6.69-1.26s-1.5.27-1.27-.07c0,0,1.85.78,1.8.76,1.13.61,2.44,1,3.62,1.5,5.33,2.23,7.66-6.47,2.39-8.67a35.55,35.55,0,0,0-5.5-2.3c-2.23-.51-5.66.25-7.88.71-3.68.77-7.27,2.45-10.74,3.9s-7,3.32-10.38,5.1c-.52.27-3.71,1.58-1.77,1-1.18.36-2.46.51-3.66.77-.71.16-2.83.39-1,.28-1.51.09-3.13-.25-4.62,0-2.27.36.71.81.41.27s-2.72-1.84-3.52-2.19a7.78,7.78,0,0,0-1-.61c2.28.63,1.39,2.21.92.48a20.6,20.6,0,0,0-2-3.92,12.13,12.13,0,0,1-.75-1.43c-.31-.86.47,1.59.2.2-.2-1.08-.34-2.17-.51-3.25-.07-.43-.91-3.28-.58-3.67,2-2.33-.82,3.31.08,1.68a10.66,10.66,0,0,0,.48-2.79,87,87,0,0,0,.94-25.26c-.58-4.45-.75-9.64-3-13.55a94.29,94.29,0,0,0-8.8-12.21c-3.62-4.53-9.95,1.88-6.37,6.36Z"/><path d="M247.38,573.68c3.71-2.28,7.35-4.34,11.24-6.28,2.05-1-.67.17,1-.46l3.74-1.4c1.93-.73,3.86-1.29,5.84-1.86a44.44,44.44,0,0,1,5-1.2l3.62-.61c1.93-.33-.71-.24,1.79,0,4.13.46,8.34.25,12.48.47,2.15.12,4.32.32,6.46.54,1.54.15-1.19-.19-.19,0,.58.08,1.15.19,1.72.3,1.43.26,2.86.54,4.3.75a74.93,74.93,0,0,0,11.8.31c4.63-.07,8.81-1.07,13.39-1.56-1.82.2.22.09.94.08,1.5,0,3,0,4.5-.11a49.86,49.86,0,0,0,5.71-.76c1.35-.24,2.74-.57,4.1-.71-2.15.21,1.28.09,1.84.08,2.12,0,4.25-.1,6.37-.11a37.84,37.84,0,0,0,4.88,0c2.5-.35-2.24-1.39-.07-.19,2.33,1.28,5,2.14,7.45,3.18l-2.06-2.69c.24,1.17.46,2.35.73,3.52.11.45.23.94.3,1.4-.25-1.72-.1-.37-.08,0,.09,2,.13,4,.23,6,.07,1.41.05,2.91.25,4.32.3,2.17.35-.41,0,1.17a29.19,29.19,0,0,0-1,3.88c0,.38-.29.78-.31,1.17.12-2.13,1.62-2-.26-.65-1.06.73-1.89,1.78-2.95,2.51s.12-.14.25-.21a10.94,10.94,0,0,1-1.44.65,13.5,13.5,0,0,0-3.44,1.55c-1.13,1,1.55,0,1.28-.38s-1.89-.11-2.25-.13c-1.14-.07-2.28-.1-3.42-.2,2.09.19-1.06-.24-1.58-.34-2-.37-4-.76-6-1.23-8.3-1.92-17.39-1.62-25.92-1.63-7.79,0-15.58,1.59-23.13,3.48-9.28,2.32-17.86,6.5-26.61,10.26-5.31,2.28-.73,10,4.54,7.77,4.1-1.76,8.14-3.69,12.25-5.43,1.39-.58-1.08.42-.15.08.53-.19,1.08-.38,1.62-.55,1.36-.44,2.7-.93,4.06-1.38,2-.65,4-1.32,6-1.88,3.95-1.09,8-1.43,12-2.54.58-.16,3.26-.86,2.34-.72s1.83,0,2.44,0c2.34-.06,4.67-.08,7,0,4,.06,7.93.31,11.9.38,1.32,0,2.65,0,4,0,.63,0,1.31,0,1.94,0-.14,0-1.61-.22-.43,0,2.15.39,4.26,1,6.41,1.48,4.17.86,9.11,2.05,13.4,1.64,4.66-.45,9.27-4,12.58-7.06,3.15-2.92,4.12-8.33,3.89-12.53-.25-4.42-.11-8.93-1-13.28-.49-2.46-.67-4.75-2.93-6.25s-5.2-2.32-7.59-3.25c-3.75-1.44-7.89-1-11.88-.89a128.81,128.81,0,0,0-14.67,1.5c-1.43.18,1.24-.1.28-.06-.54,0-1.09,0-1.63,0-1.49,0-3,0-4.5.12a49.65,49.65,0,0,0-6.18.86c-1.2.22-2.42.52-3.63.65,2-.22-.72-.11-1.39-.09-2.17,0-4.35.07-6.53.06-1.36,0-2.73-.08-4.09,0-.51,0-1,0-1.55,0,1.62.08.84.1.42,0-2.6-.32-5.16-1-7.76-1.3-9.48-1.11-20-1.92-29.31.2-9.69,2.21-18.48,6.61-26.88,11.76-4.94,3-.42,10.8,4.54,7.77Z"/><path d="M266.8,566.66l2.72.73-2.69-2.07c2.48,5.2,4.9,10.43,7.4,15.63.39.82.78,1.65,1.19,2.47.77,1.54.23.4.26.46.72,1.65,1.38,3.34,2,5,1,2.61,1.88,5.28,2.78,7.94,1.86,5.45,10.55,3.11,8.68-2.39a187.4,187.4,0,0,0-8.24-20.27c-1.3-2.71-2.55-5.45-3.84-8.16-2.09-4.41-3-6.73-7.91-8-5.6-1.49-8,7.19-2.39,8.68Z"/><path d="M297.27,561.06c.51,2.19,1.06,4.38,1.54,6.57.21,1,.4,1.91.59,2.86.16.76.82,3.86.69,3.17-.17-1,.3,2.3.36,2.76.14,1.11.36,2.24.43,3.36.14,2.24,0,4.54,0,6.78,0,5.8,9,5.8,9,0,0-9.61-1.72-18.55-3.91-27.89-1.33-5.63-10-3.25-8.68,2.39Z"/><path d="M327.35,559.25l.74,3.67c.16.84.34,1.68.5,2.52.11.57.05,1.92.06.09,0,1.35-.17,2.71-.26,4.05-.06,1-.26,4.11-.09,2.41-.52,5.2-1.4,10.4-2.08,15.59-.75,5.72,8.25,5.67,9,0l.48-3.69c.07-.53.64-4.86.34-2.64.38-2.82.86-5.64,1.15-8.48.58-5.73,0-10.31-1.17-15.91s-9.82-3.28-8.67,2.39Z"/><path d="M358,564c5.79,0,5.8-9,0-9s-5.8,9,0,9Z"/><path d="M353,557.44a59.6,59.6,0,0,0-6.23,14.9,142.25,142.25,0,0,0-2.88,14.89c-.86,5.66,7.81,8.11,8.67,2.39a138.91,138.91,0,0,1,2.85-14.74,69,69,0,0,1,2.07-7.21c-.79,2,1.19-1.94,1.44-2.38L360.8,562c2.84-5.05-4.93-9.6-7.77-4.54Z"/><path d="M258.85,590.33c3.37-1.4,6.79-2.71,10-4.39,1.06-.54,2.12-1.07,3.16-1.64.35-.18.71-.4,1.08-.55.85-.34-1.57.52-.23.17,2.12-.54,4.28-.93,6.41-1.43,7-1.63,13.95-3.22,21-4.58,3-.58,6-.95,9-1.41l6.46-1c-1.22.19-.13,0,1.06-.15s2.63-.36,3.94-.51a50.51,50.51,0,0,1,9.83-.34c1.2.09,2.39.26,3.59.39.59.06,3,.54,1,.1,2.19.48,4.37,1,6.54,1.59,8,2,15.4,3.86,23.63,4.44,5.78.41,5.75-8.59,0-9-2-.14-3.93-.31-5.9-.42-.39,0-.8,0-1.19-.08-.93-.11,1.68.3.31,0-1.18-.25-2.35-.54-3.52-.82-3.49-.81-6.93-1.79-10.4-2.68-7.46-1.91-14.68-3-22.39-2.39-14.59,1.17-29.37,4.3-43.57,7.74-3.66.89-7.51,1.33-10.9,3-1.31.64-2.61,1.32-3.9,2l-1.23.64c-1.3.67,1.39-.59.07,0-2.08.94-4.23,1.76-6.34,2.63-5.27,2.19-3,10.9,2.4,8.68Z"/><path d="M392.78,516.34l1.6,3.36c.24.5,1.91,4.43,1.19,2.43a67.6,67.6,0,0,1,2.23,7.31c.35,1.52.56,3.09.84,4.63.12.65.31,1.32.37,2s-.05-1.59-.16-.12c-.21,3-.45,5.9-.68,8.86l3.3-4.34-8,3,5.53,3.14-2.33-7.68-.45,3.46c2.16-4.67,4.59-9.29,5.76-14.35,1-4.32-.05-9.78-.09-14.26-.07-5.79-9.07-5.8-9,0,0,3.12.06,6.22.25,9.33,0,.81.16,1.66.15,2.47s.56-1.25-.19.74c-.32.83-.53,1.72-.79,2.57-.11.34-1.05,3.2-.25,1.14-1.15,2.94-3.39,5.81-4.06,8.9s1.45,7.2,2.32,10.08c.66,2.17,3.21,4,5.54,3.14l8-3a4.75,4.75,0,0,0,3.3-4.34c.48-6.28.77-11.56-.7-17.73-1.28-5.42-3.54-10.26-5.92-15.26-2.49-5.22-10.25-.66-7.77,4.55Z"/><path d="M393.17,535.25l-2.11,8.64,8.67,2.4,1.18-6.52a4.62,4.62,0,0,0-3.14-5.53c-2.18-.6-5.11.73-5.54,3.14l-1.17,6.51a4.63,4.63,0,0,0,3.14,5.54,4.54,4.54,0,0,0,5.53-3.14l2.12-8.64a4.61,4.61,0,0,0-3.15-5.54,4.55,4.55,0,0,0-5.53,3.14Z"/><path d="M402.65,547.53c.73-2.82,1.69-5.65,2.14-8.52s.57-5.89.84-8.82c.53-5.77-8.47-5.73-9,0l-.38,4.11-.24,2.58c0,.38-.38,2.1-.06.93s-.15.34-.24.64c-.25.9-.47,1.82-.71,2.72l-1,4c-1.46,5.61,7.22,8,8.68,2.4Z"/><path d="M364.84,522.2a39.39,39.39,0,0,0,1.66,4.4c.73,1.41.32.57.3.42a21,21,0,0,1,0,2.63c0,.79.08,1.61,0,2.4s.6-1.2-.25.68a45.61,45.61,0,0,0-1.53,4.49l2.06-2.69-5.81,4.17,6.61,2.69-2.46-7.62-.45,3.46c1.76-2.31,4.28-4.73,5.59-7.33s1.36-6.35,1.87-9.27c1-5.67-7.7-8.1-8.68-2.4-.41,2.39-1,4.82-1.25,7.24-.15,1.56.9-.61-.49.91-1,1.14-1.91,2.51-2.85,3.73-1.68,2.21-2.89,3.56-2.26,6.53.51,2.41,1.55,4.8,2.3,7.14.82,2.53,4.13,4.48,6.61,2.69,1.93-1.38,4-2.66,5.82-4.17,2.16-1.81,3.25-5.31,3.89-8,1.19-5.12-.27-9.73-2.05-14.45-2-5.37-10.73-3-8.68,2.39Z"/><path d="M366.72,531.81l-2-.4,2.69,6.62c.48-.78,1-1.54,1.46-2.35a26.36,26.36,0,0,0,1.27-3.38,4.53,4.53,0,0,0-3.14-5.54,4.63,4.63,0,0,0-5.54,3.15l-.44,1.24c-.08.24-.17.48-.26.73-.27.79,0-.35.32-.71a26.2,26.2,0,0,0-1.44,2.31c-1.45,2.34-.14,6,2.69,6.61l2,.4c2.3.46,5-.65,5.54-3.14.51-2.24-.68-5.05-3.15-5.54Z"/><path d="M438.39,469.45a181.3,181.3,0,0,1,.37,30.47c-.37,5.79,8.63,5.77,9,0a181.3,181.3,0,0,0-.37-30.47c-.59-5.71-9.6-5.77-9,0Z"/><path d="M427,474a144.78,144.78,0,0,0,1.45,21.2c.72,5.67,9.73,5.74,9,0A144.78,144.78,0,0,1,436,474c.11-5.8-8.89-5.8-9,0Z"/><path d="M412.72,485.11c.13,3.71.32,7.4.57,11.1a4.6,4.6,0,0,0,4.5,4.5,4.54,4.54,0,0,0,4.5-4.5c-.25-3.7-.44-7.39-.57-11.1-.21-5.78-9.21-5.8-9,0Z"/><path d="M399.24,492.55l.82,8.31c.24,2.41,1.9,4.5,4.5,4.5,2.25,0,4.74-2.07,4.5-4.5l-.82-8.31c-.24-2.42-1.9-4.5-4.5-4.5-2.25,0-4.74,2.06-4.5,4.5Z"/><path d="M422.73,452.87c.24-6.46.53-12.92.73-19.39.17-5.79-8.83-5.79-9,0-.2,6.47-.49,12.93-.73,19.39-.2,5.79,8.8,5.78,9,0Z"/><path d="M435.23,451c-.15-6.47-.37-12.93-.53-19.4-.13-5.78-9.13-5.8-9,0,.16,6.47.38,12.93.53,19.4.14,5.78,9.14,5.8,9,0Z"/><path d="M448.49,446.55l0-10.28c0-5.79-9-5.8-9,0l0,10.28c0,5.8,9,5.81,9,0Z"/><path d="M423.32,440.23c.67-3.6,1.43-6.83,1.08-10.47-.31-3.38-.38-6.69-.42-10.08-.07-5.79-9.07-5.81-9,0,0,3.13.06,6.21.35,9.33a18.23,18.23,0,0,0,.29,3c.32,1.25.39-1.32.06.32-.38,1.84-.69,3.69-1,5.53-1.05,5.66,7.62,8.09,8.68,2.4Z"/><path d="M411.1,430.46A112.3,112.3,0,0,0,409.31,449c-.08,5.79,8.9,5.79,9,0,.22-12.53,1.47-25.22,1-37.7-.23-5.77-9.23-5.8-9,0,.51,12.48-.74,25.17-1,37.7h9l.06-4.41c0-.9.05-4.55,0-3.8s.54-2.95.67-3.68l.75-4.28c1-5.67-7.67-8.1-8.68-2.4Z"/><path d="M430.23,451.18l1.54-9.12c.41-2.4-.63-4.85-3.14-5.54-2.16-.59-5.13.73-5.54,3.14l-1.54,9.13c-.41,2.39.63,4.85,3.14,5.54,2.16.59,5.13-.74,5.54-3.15Z"/><path d="M429.27,449.15l-2-9.49a4.5,4.5,0,0,0-8.67,2.39l2,9.5a4.55,4.55,0,0,0,5.53,3.14,4.6,4.6,0,0,0,3.15-5.54Z"/><path d="M442.57,449.43a103,103,0,0,0,2.2-12.23c.29-2.41-2.28-4.5-4.5-4.5-2.68,0-4.21,2.08-4.5,4.5l-.34,2.79-.22,1.75c0,.36,0,1.63,0,.44s0-.17-.13.25c-.16.63-.31,1.25-.46,1.88l-.68,2.73c-1.4,5.62,7.28,8,8.68,2.39Z"/><path d="M439.07,449.16c-.1-7.41.26-14.76.6-22.17.27-5.79-8.73-5.78-9,0-.34,7.41-.7,14.76-.6,22.17.08,5.79,9.08,5.8,9,0Z"/><path d="M429.72,447.31c.11-2.16.14-4.34.32-6.49.09-1.08.25-2.16.38-3.23.07-.62.57-4.16.25-2.21a76.7,76.7,0,0,0,1.2-13.95c-.07-5.79-9.07-5.8-9,0l0,3.26c0,.66,0,4.16.17,2.25-.22,2.48-.93,4.95-1.27,7.43-.59,4.32-.87,8.59-1.08,12.94-.28,5.79,8.72,5.77,9,0Z"/><path d="M454.72,439.07l-2.36-5.1c-1-2.14-4.25-2.84-6.15-1.61a4.63,4.63,0,0,0-1.62,6.16l2.36,5.09c1,2.15,4.25,2.85,6.15,1.62a4.63,4.63,0,0,0,1.62-6.16Z"/><path d="M418.48,413.15l-.16-10.21c-.1-5.79-9.1-5.81-9,0l.16,10.21c.1,5.79,9.1,5.81,9,0Z"/><path d="M424.14,427.3c.73-2.85,1.86-5.82,2.17-8.75s-.38-6.07-.62-9c-.48-5.73-9.49-5.78-9,0l.35,4.19.22,2.63c0,.26.24,2.26.2,1s-.12.23-.24.67c-.25.93-.48,1.87-.72,2.8l-1,4.07c-1.45,5.62,7.23,8,8.68,2.4Z"/><path d="M434.76,429.8l-.1-1.85a4.78,4.78,0,0,0-1.32-3.18,4.49,4.49,0,0,0-6.36,0,4.45,4.45,0,0,0-1.32,3.18l.1,1.85a4.72,4.72,0,0,0,1.31,3.18,4.51,4.51,0,0,0,7.69-3.18Z"/><path d="M412.79,496.28c12.12-7.21,24.12-14.43,36.24-21.66,5-3,.45-10.75-4.54-7.77-12.12,7.23-24.13,14.45-36.24,21.66-5,3-.45,10.74,4.54,7.77Z"/><path d="M413,485.86a49.36,49.36,0,0,0-11.4,3.63c-3.48,1.73-6.83,3.62-10.21,5.55-5,2.87-.5,10.65,4.54,7.77,3.15-1.79,6.26-3.59,9.5-5.19,1-.52,2.09-1,3.13-1.56s-1.44.24.67-.1,4.12-.95,6.16-1.42c5.64-1.31,3.25-10-2.39-8.68Z"/><path d="M452.23,473.28l5-5.09a4.5,4.5,0,1,0-6.36-6.37l-5.05,5.1a4.5,4.5,0,1,0,6.36,6.36Z"/><path d="M393.49,320.77c-2.79,6.68-4.91,13.55-7.55,20.29-1.52,3.9,3.46,6.76,6.61,5.08l2.5-1.32c.62-.34,3.33-1.73,2.82-1.54a17.41,17.41,0,0,0,2.6-.57l3.13-.77-4.38-7.52c-2.25,2.89-4.55,5.45-5.83,8.9a82.47,82.47,0,0,0-2.87,10c-.95,4.05,3.08,6.7,6.61,5.08l3.4-1.56c.68-.31,3.48-1.59,2.87-1.33s2.35-.88,3.08-1.16L410.1,353,405,346.37a96.13,96.13,0,0,0-7.37,21.28c-1.26,5.64,7.42,8.05,8.67,2.39a94.44,94.44,0,0,1,2.56-10c.37-1.09.72-2.19,1.11-3.27s-.63,1.3.3-.68c.82-1.75,1.67-3.48,2.5-5.21,1.5-3.15-1.07-8.15-5.09-6.61-5.13,2-10.12,4.05-15.11,6.34l6.61,5.08a74.48,74.48,0,0,1,2.41-8.72,8.58,8.58,0,0,0,.85-2.38c0-1-1.91,2.24-.06.24,1.17-1.25,2.14-2.74,3.19-4.08,2.64-3.4.33-8.68-4.38-7.53a53.51,53.51,0,0,0-13.2,5.11l6.61,5.08c2.64-6.74,4.76-13.61,7.55-20.29,2.23-5.34-6.47-7.67-8.68-2.39Z"/><path d="M429,342.76c-3.1,5.64-5.86,11.31-9.43,16.67-1.79,2.7.54,7.09,3.89,6.78a91.81,91.81,0,0,0,12.67-2L431,357.58c-2.6,5.85-5.11,11.74-7.65,17.63-1.39,3.24,1,8,5.09,6.61a101.8,101.8,0,0,0,12.77-5.33l-6.61-5.08c-2.88,7.23-5.42,14.52-7.82,21.92-1.8,5.52,6.89,7.89,8.68,2.39,2.4-7.4,4.94-14.69,7.82-21.92,1.58-4-3.48-6.64-6.61-5.08l-2.43,1.2c-.59.3-3.28,1.62-2.73,1.39s-1.88.61-2.46.81l-3,1,5.09,6.61c2.53-5.88,5-11.78,7.64-17.63,1.58-3.53-1-7.57-5.08-6.61l-2.3.54c-.66.16-3.24.78-2.63.67a21.2,21.2,0,0,0-2.37.21l-3,.28,3.88,6.77c3.57-5.37,6.33-11,9.43-16.68,2.79-5.08-5-9.63-7.77-4.54Z"/><path d="M457.88,377.43C454.22,383.9,450.21,390,447,396.7c-1.51,3.15,1.07,8.16,5.08,6.62A124.13,124.13,0,0,1,464,399.4l-5.08-6.61c-1.7,3.31-3.38,6.57-4.78,10-.44,1.07-.85,2.17-1.32,3.23-.67,1.5.6-.85-.51.78s-2.16,3.52-3.24,5.28c-2.52,4.11,2.33,8,6.16,6.16,4.31-2.05,8.49-4.18,12.66-6.48l-6.61-5.08c-.56,1.86-1.17,3.71-1.7,5.57s.11,0-.2.74c-.55,1.21-1.17,2.39-1.75,3.58a56,56,0,0,0-3.52,10.46c-1.52,5.6,7.16,8,8.68,2.4.51-1.91,1.09-3.81,1.55-5.73s-.13-.09.17-.77c.52-1.21,1.16-2.38,1.74-3.57A67.48,67.48,0,0,0,470,409.09c1.18-3.86-3.27-6.92-6.61-5.08-4.18,2.3-8.36,4.43-12.67,6.48l6.16,6.15a66.06,66.06,0,0,0,5.27-9.71c.44-1.07.86-2.16,1.32-3.23.65-1.54-.52.93.42-.83s1.89-3.69,2.84-5.54c1.74-3.41-1.14-7.7-5.08-6.61a124.13,124.13,0,0,0-11.93,3.92l5.08,6.61C458,394.54,462,388.44,465.65,382c2.86-5.05-4.91-9.59-7.77-4.54Z"/><g class="cls-2"><polyline class="cls-3" points="307.93 477.25 307.77 470.05 307.09 462.88 306.2 455.73 306.15 448.52 305.11 441.38 304.99 434.17 304.5 426.99 303.96 419.82 303.8 412.62 303.17 405.45 303.09 398.24 302.34 391.08 301.4 383.93 301.57 376.71 300.77 369.55 300.41 362.36 299.51 355.1 299.87 347.78 299.36 340.5 299.08 333.19 300.22 325.95 300.39 318.62 302.59 311.63 304.54 304.99 306.28 298.19 310.02 292.27 313.45 286.25 316.88 280.14 321.64 275.02 326.05 269.61 331.38 265.09 336.81 260.72 342.63 256.89 348.77 253.63 354.89 250.37 361.11 247.23 367.66 244.86 374.38 243.03 381.18 241.59 388.03 240.47 394.89 239.5 401.77 238.19 408.75 238.71 415.45 238.27 422.07 239.31 428.64 240.44 435.09 242.12 441.82 244.62 448.35 247.72 453.93 252.31 459.36 257.03 464.37 262.23 468.08 268.43 471.96 274.46 475.77 280.61 477.9 287.51 480.12 294.33 482.41 301.16 483.79 308.23 484.61 315.37 485.33 322.51 485.58 329.69 486.13 336.87 485.32 344.05 486.08 351.23 485.66 358.4 485.42 365.58 484.92 372.75 485.67 379.93 485.79 387.09 485.61 394.28 486.44 401.41 486.45 408.57 486.24 415.74 486.66 422.89 487.11 430.04 486.62 437.2 486.58 444.35 486.84 451.51 486.46 458.66 487.13 465.82 486.92 472.97 486.12 480.11 486.42 487.29 479.4 489.31 472.26 490.76 465.05 491.77 457.86 492.88 450.58 493.27 443.31 493.52 436.05 493.77 428.79 494.65 421.51 494.5 414.23 494.57 406.95 494.11 399.67 494.08 392.39 493.8 385.1 493.87 377.86 492.92 370.6 492.29 363.34 491.74 356.04 491.91 349.12 491.27 342.2 490.67 335.27 490.17 328.33 489.97 321.4 489.51 314.43 489.68 307.51 489.01 303.92 487.76 302.95 484.19 302.65 476.95 302.87 469.69 302.15 462.46 302.09 455.2 301.75 447.96 301.85 440.7 301.88 433.45 301.72 426.2 301.25 418.96 301.71 411.7 300.77 404.47 301.11 397.21 301.27 389.95 301.16 382.7 300.06 375.47 299.97 368.22"/><path class="cls-3" d="M312.42,477.25c-.1-4.89-.32-9.67-.85-14.54-.57-5.13-.51-10.28-1.08-15.39-.11-1-.3-2.06-.45-3.08s-.27-1.84-.4-2.75c-.06-.38-.11-2.3,0-.28-.09-2.4,0-4.8-.12-7.2-.2-4.87-.8-9.72-1-14.59-.44-9.65-.54-19.37-1.71-29s-.95-19.38-2-29.08c-.5-4.89-.32-9.35-.46-14.24-.07-2.35-.36-4.7-.48-7-.08-1.57-.12-3.14-.18-4.71,0-.6-.06-1.2-.07-1.79,0-.11-.25,1.27,0-.53.39-2.54.93-5.1,1.1-7.66.09-1.34.07-2.69.1-4,0-.73,0-1.49.05-2.21.12-1.34-.31,1.37,0,0,1.29-4.79,3-9.47,4.28-14.27.38-1.43.77-2.87,1.1-4.31.49-2.13-.63.62.55-1.25,1.39-2.2,2.8-4.38,4.09-6.65q1.72-3,3.43-6.05c.7-1.24,1.36-2.51,2.1-3.73s-1,1.14,0-.07c.5-.62,1.09-1.18,1.64-1.77,3.17-3.41,5.86-7.26,9.42-10.27,1.78-1.5,3.56-3,5.37-4.45.56-.45,3.18-2.52,2.63-2.13-1,.74.66-.39.6-.35,1-.65,2-1.32,3-2,3.85-2.55,8.1-4.53,12.17-6.7,2.05-1.09,4.14-2.1,6.2-3.17.43-.23.88-.46,1.32-.67,1.42-.67-1.42.55,0,0s3.19-1.18,4.78-1.73c9-3.08,18.46-4.22,27.83-5.71,2.19-.35,4.36-.88,6.55-1.21.53-.08,1.59,0-.11,0a15.82,15.82,0,0,1,1.94.14,46.41,46.41,0,0,0,4.71.35c2.24,0,4.48-.39,6.71-.42-2.14,0,1.2.18,1.82.28,1.26.19,2.52.38,3.77.59a89.05,89.05,0,0,1,13.6,3c1.39.46,2.75,1,4.12,1.53.62.22,1.25.44,1.87.69-.16-.07-1.44-.62-.35-.13,1.6.72,3.15,1.56,4.76,2.26.35.16.71.32,1,.5-1.69-.9.51.41.92.75a125.51,125.51,0,0,1,10.84,9.5c1,1.05,2.11,2.07,3.07,3.18s-.82-1.26.06.08c.45.69.85,1.43,1.28,2.14,1.23,2.06,2.48,4.11,3.78,6.13s2.58,4,3.85,6.08c.68,1.1,1.46,2.19,2.07,3.34-.87-1.63-.1-.1,0,.33.36,1.2.73,2.38,1.1,3.57,1.41,4.58,2.94,9.13,4.46,13.67a59.32,59.32,0,0,1,1.65,7c.11.5.21,1,.3,1.51.29,1.6-.2-1.56,0,0s.41,3.48.6,5.22c.54,4.78.85,9.51,1.07,14.31.11,2.4.41,4.78.5,7.18.1,2.65-.55,5.21-.64,7.86-.07,2.17.41,4.33.55,6.5a71.24,71.24,0,0,1-.24,7.86c-.24,4.74-.71,9.61-.74,14.34s.83,9.7.82,14.58c0,9.63.35,19.23.47,28.87.06,4.77.86,9.54.85,14.31s-.6,9.62-.52,14.47-.21,9.56-.12,14.31.81,9.41.46,14.31a122.16,122.16,0,0,0-.5,14.32l3.31-4.34A124.79,124.79,0,0,1,468,486.86c-3.33.46-6.65.95-10,1.48-.81.12-1.6.14-.28.05l-2.5.13c-1.56.09-3.12.18-4.69.25-12.11.53-24.15,1.63-36.27,1.3q-35.88-1-71.65-3.87c-6.36-.52-12.73-.63-19.1-1.05-3.05-.2-6.08.14-9.13,0-1.84-.08-3.75-.3-5.57-.54-1.62-.21-.29,0-.67-.17-1-.32-2-.69-3-1l3.14,3.15c-.27-1-.58-2-.8-3-.27-1.17.09,1.14,0,.2-.07-.57-.05-1.19-.08-1.77-.07-1.9-.2-3.8-.19-5.7,0-4.42-.1-8.49-.43-12.89-.56-7.48-.45-15.14-.39-22.64.14-15.33-1-30.51-.69-45.76.1-4.53.38-9.2-.18-13.69-.17-1.32-.4-2.63-.6-3.94-.1-.6-.19-1.2-.28-1.8,0-.22-.17-1.87-.11-.72.05.81,0-2.46,0-3l0-3.63c-.07-5.78-9.07-5.8-9,0,0,2.41-.09,4.86.09,7.25.11,1.44.42,2.9.64,4.32l.42,2.79c.07.42.1,2.21,0,.29.16,5,.11,10-.08,15a70.43,70.43,0,0,0-.23,7.26c.18,2.67.81,5.25.78,7.93-.07,5.16,0,10.18.14,15.35.22,10.31.27,20.64.35,30.94,0,5.19.75,10.25.6,15.45-.14,4.59-.71,11.17,1.82,15.26s10.87,4.05,15,4.13c4.76.1,9.46.16,14.22.34,9.6.37,19.4,2.07,29,1.86,10.41-.24,20.65,2.07,31,2s20.63.7,30.94.69c10.86,0,21.72-.78,32.59-1.37a157.33,157.33,0,0,0,34.85-6,4.57,4.57,0,0,0,3.3-4.34,122.65,122.65,0,0,1,.51-14.48c.36-5-.43-9.79-.43-14.77s.11-10,.08-15,.7-10.14.39-15.16c-.62-10,.21-20.15-.94-30.05-.58-4.93-.23-9.86-.31-14.82-.08-5.17-.81-10.11-.45-15.29s.65-10.15.73-15.19c0-2.42-.42-4.76-.54-7.18-.13-2.66.48-5.21.6-7.87.42-9.52-1-19.82-2.27-29.26a83.49,83.49,0,0,0-3.8-15c-1.49-4.51-2.6-9.4-4.38-13.8-1.89-4.66-5.5-9-8.14-13.25-2.87-4.62-5.44-8.52-9.43-12.31-3.56-3.37-7.75-7.44-11.92-10s-9.61-4.55-14.33-6.05a95.66,95.66,0,0,0-13.6-2.9c-5.05-.82-9.27-.63-14.33-.7-2.64,0-5.24-.63-7.87-.31-2.33.28-4.63.92-6.95,1.31-4.71.78-9.46,1.28-14.15,2.19a99.92,99.92,0,0,0-27.89,9.71c-9,4.71-17.14,9.62-24.9,16.19a82.34,82.34,0,0,0-18.06,22.52c-2.44,4.29-5.9,8.45-7.12,13.25s-2.62,9.64-4.12,14.41a25.87,25.87,0,0,0-1.45,7.07c-.06,1.53-.11,3.07-.11,4.59,0,.42-.07,1.67.11-.18-.09,1-.31,2-.46,2.95a68.65,68.65,0,0,0-.31,15.76c.34,4.89-.28,9.74.32,14.6s.67,9.6,1.21,14.4c.58,5.14.15,10.22.82,15.35a126.34,126.34,0,0,1,1.21,15.29c.11,10.08,1.31,20.19,1.81,30.27.26,5.28.78,10.3,1.27,15.54.12,1.22-.06-.25-.07-.4,0,.66,0,1.33,0,2,0,1.6-.08,3.27,0,4.87.17,2.45.63,4.88.9,7.32.53,4.82.73,9.53.83,14.37.13,5.78,9.13,5.8,9,0Z"/><path class="cls-3" d="M384.63,249.41c2.57-.59,5.13-1.19,7.7-1.76,1.76-.38,3.52-.82,5.29-1.14,1.26-.22-1.28.1,0,0,1-.06,1.92-.05,2.89-.08a53,53,0,0,0,9.46-1.21c.62-.13,1.26-.29,1.89-.38-2,.27.17.07.64.06,1.71,0,3.47-.06,5.18-.2,1.42-.12,2.84-.38,4.25-.57.88-.12,1.77-.26,2.65-.36,1.85-.22,0,0,.67,0,2.8,0,5.61-.1,8.42-.16,6.06-.14,12,.42,18.1.61.88,0,1.32.06.12-.07.59.06,1.18.17,1.77.26,1.78.26,3.59.44,5.35.78,1.12.21,2.23.53,3.34.81.85.21,1.71.47,2.58.63.39.08.78.19,1.17.29.83.22-1.21-.52-.42-.22a49.6,49.6,0,0,1,7.58,3.69c1.49.89,3,1.85,4.42,2.78,1,.62-1-.8.37.24.82.63,1.62,1.3,2.43,1.95s1.43,1.12,2.11,1.7c.25.21-.74-1,.18.13,1.22,1.5,2.28,3.15,3.42,4.71,1.52,2.07,3.27,4.08,4.58,6.28.83,1.39,1.46,2.93,2.18,4.37.07.14,1.12,2.42.73,1.41s.31,1.2.41,1.54c.91,3.07,1.77,6.14,2.59,9.24s1.21,6,1.77,9c.17.92.36,1.83.56,2.74.23,1.08.46,2.16.7,3.24.18.76.24,2.26.21.68.06,3.11-.38,6.13.08,9.23.27,1.85.62,3.7.83,5.55.15,1.3-.1-1.25,0,.06l.18,3.45c.3,5.65-.24,11.31-.06,17,.16,5.21,1.08,10.35,1.27,15.52.19,5.34-.24,10.47.24,15.85.5,5.6.72,11.14.75,16.76.06,11.09-.08,22.37.88,33.39.45,5.16.37,10,.32,15.19,0,1.76,0,3.52,0,5.28,0,1.27.18-1.27.07,0-.09,1.08-.31,2.16-.46,3.23-.44,3.09-.75,6.14-.91,9.26,0,.32-.28,2.07-.05,1s-.33.73-.42,1c-.39,1-.68,2-1,3-.11.33-.88,2.29-.45,1.39s-.63.95-.8,1.22c-.48.76-.93,1.54-1.39,2.31-.58,1-1.17,1.89-1.8,2.82-3.44,5.08-6.92,10.14-10,15.46-.35.62-1.28,1.93-.31.68-.41.52-.9,1-1.34,1.48-1.14,1.23-2.25,2.48-3.38,3.73-3.88,4.28,2.47,10.66,6.37,6.36A100.11,100.11,0,0,0,499.2,476c3.23-5.14,7.28-10,9.95-15.44a30.45,30.45,0,0,0,2.84-8.79c.22-1.55.22-3.19.31-4.76,0-.62.07-1.25.12-1.88-.14,1.81.05-.32.14-1a140.3,140.3,0,0,0,1.08-18.56c.05-5.33-1.1-10.62-1.22-15.93-.13-5.71.21-11.42,0-17.14-.24-5.92-.17-11.84-.36-17.76-.17-5.43-1.22-10.84-1.28-16.27,0-2.62.52-5.24.37-7.84-.17-2.91-.85-5.77-1-8.69-.25-6-.46-11.87-.13-17.82a64.72,64.72,0,0,0-.23-9.13c-.11-1.26-.32-2.5-.51-3.74-.16-1.09-.33-2.18-.49-3.28-.19-1.25-.07-1.76-.09-.92.06-3.17.4-6.22-.22-9.33-.65-3.28-1.37-6.5-1.93-9.8a84.83,84.83,0,0,0-4.63-17.46c-2.32-5.73-6-10.38-9.55-15.32-7.16-9.86-19-16.32-30.89-18.65-11.68-2.29-24.38-2.49-36.23-1.75-1.16.07-2.31.24-3.47.39l-3.15.43c-.51.07-3.07.24-1,.13a71.11,71.11,0,0,0-8.89.61c-1.77.32-3.53.77-5.3,1.06-1.07.17,1.35,0-.35,0l-3.49.11a49.22,49.22,0,0,0-9.32,1.44c-2.68.58-5.35,1.21-8,1.82-5.64,1.3-3.25,10,2.39,8.68Z"/></g><path d="M538.59,175c-1.76,7.48-4.13,14.49-4.44,22.19a50.29,50.29,0,0,0,3.18,20.67c2.58,6.55,5.22,12.87,8.14,19.27.49,1,.94,2.12,1.41,3.19.15.35,1.25,2.91.9,2s.5,1.36.62,1.68c.46,1.21.85,2.5,1.4,3.67.85,1.82.12-.46.32.45.25,1.16.3,2.44.44,3.62.19,1.53.35,3,.41,4.55.15,4.07.13,8.25-.07,12.32-.08,1.72-.3,3.43-.48,5.14,0,.41-.41,3-.21,2s-.51,1.58-.66,2.11c-1.85,6.64-3,13.43-4.82,20.08A76.93,76.93,0,0,0,542.49,320c.16,7.55,2,14.26,4.28,21.43,1.32,4.12,3.34,8.18,4.48,12.33.28,1,.38,2.13.56,3.17.09.48.72,4.38.44,2.26.29,2.14.56,4.33.68,6.48a122.4,122.4,0,0,1-.19,13,64.42,64.42,0,0,1-.35,6.52c.31-2.05-.63,1.65-.78,2.17l-.92,3.18c-1.63,5.57,7,7.95,8.67,2.39,4.06-13.91,4.35-32-1-45.64-1.26-3.21-2.34-6.49-3.36-9.79q-.83-2.67-1.61-5.37c-.31-1.07-.59-2.15-.89-3.22-.15-.54-.89-3.65-.6-1.65a85.33,85.33,0,0,1-.06-21.95c-.28,2.07.21-.26.38-.8.4-1.26.75-2.55,1.1-3.83s.7-2.79,1-4.22c.79-3.75,1.61-7.5,2.55-11.22A90.73,90.73,0,0,0,560,263.38c.09-7.37-.13-14.46-2.77-21.39-1.33-3.51-2.8-7-4.39-10.39-.75-1.57-1.56-3.12-2.34-4.67-.15-.31-1.22-2.51-.82-1.59a21.42,21.42,0,0,0-.73-2.09c-1.36-3.77-3.18-7.53-4.32-11.36a55.67,55.67,0,0,1-1.36-6.68c-.07-.42-.1-1.14.05.51,0-.47-.05-.95-.05-1.42,0-1.47-.11-2.94-.14-4.41,0-1.79.07-3.55.18-5.34.07-1.19,0-2.46.22-3.63-.32,2,.35-.67.53-1.27,1.22-4.08,2.23-8.16,3.21-12.3,1.33-5.64-7.35-8-8.68-2.4Z"/><path d="M544.5,176.61c.54,2.16,1.12,4.31,1.63,6.48.19.85,0-1.13.08.75.08,1.55.27,3.1.33,4.64.14,3.75-.47,7.54-.76,11.29-.13,1.75-.24,3.5-.43,5.24-.14,1.33-.32,2.65-.48,4-.13,1.08-.52,3.15-.25,1.85a120.15,120.15,0,0,0-2.24,13.45c0,.53-.08,1.07-.16,1.59,0-.12.26-1.56,0-.5s-.53,2-.79,3a35.15,35.15,0,0,0-1.15,5.74,83.76,83.76,0,0,0,.11,13.44,105.12,105.12,0,0,0,.87,11.37,48.55,48.55,0,0,0,4.09,12.33c1.44,3.2,3.09,6.3,4.51,9.5.51,1.16,1,2.32,1.53,3.47.22.51.49,1,.68,1.53.3.84-.45-1.24-.2-.34.61,2.22,1.18,4.46,1.74,6.7s1.13,4.33,1.58,6.51c.21,1,.09-1.43,0,.76,0,1.55.12,3.1.13,4.65,0,3.52-.24,7-.4,10.55-.06,1.31-.15,2.62-.18,3.94a9.05,9.05,0,0,1-.06,1.38c0-.13.31-1.57,0-.53-.69,2.11-1.48,4.21-2.27,6.29.75-2-.46,1-.64,1.43-.52,1.18-1,2.37-1.55,3.54-.76,1.7-1.56,3.37-2.35,5-3.45,7.39-6,15.63-6.52,23.74-.29,4.64-.38,8.27,1.32,12.6,1.47,3.76,2.3,7.89,4.3,11.39a78.69,78.69,0,0,0,7.57,11.27c.63.75,1.37,1.43,2,2.14.44.47,2.76,2.86,2.32,2.37s1.34,1.74,1.73,2.25l2.08,2.72c3.47,4.54,11.29.06,7.77-4.54a108.74,108.74,0,0,0-7.53-9.16c-.29-.31-2.23-2.36-1.68-1.7s-1.11-1.63-1.34-2c-1-1.41-2-2.81-2.88-4.25-.71-1.11-1.35-2.26-2.1-3.34a11.74,11.74,0,0,1-.79-1.27c.07.13.62,1.46.19.38-.77-1.93-1.23-4-1.92-5.94s-1.6-3.86-2.29-5.82c-.27-.78-.11,1.22,0-.6.07-1.45.06-2.9.12-4.34.07-1.76.2-3.5.33-5.25a21.22,21.22,0,0,1,.21-2.88c-.45,2.1.68-1.25.9-1.84.61-1.67,1.22-3.34,1.77-5,.38-1.17.76-2.34,1.1-3.51.14-.48.3-1,.46-1.45.47-1.39-.53,1.17,0-.08,3-7,8-14.44,8.73-22.09s1.58-16.53,0-24a99.68,99.68,0,0,0-7.8-23c-1.88-3.86-4.15-7.89-5.44-12-.22-.68.24,1.08,0-.6-.16-1.27-.42-2.54-.63-3.81-.1-.55-.35-3.38-.23-1.27-.08-1.32-.09-2.64-.14-4-.12-3.69-.73-7.41-.66-11.08,0-1.17.18-2.35.27-3.51,0-.47.34-3.43.17-2.54-.19,1.07.52-1.76.6-2.1.34-1.29.74-2.59,1-3.91a64.57,64.57,0,0,0,.82-6.81c0-.51.08-1,.15-1.55.23-1.62-.3,1.54,0-.06s.66-2.91,1-4.37a90,90,0,0,0,1.69-12.78c.34-4.4,1.08-8.95,1-13.36a65.16,65.16,0,0,0-2.38-14.61c-1.4-5.62-10.08-3.24-8.68,2.39Z"/><path d="M555.77,404.05c.27-2.15.53-4.3.82-6.45.25-1.88-.32.88.17-.53.42-1.22.71-2.5,1.07-3.74,1.08-3.8,1.24-7.58,1.54-11.52.45-5.77-8.55-5.75-9,0-.17,2.17-.39,4.34-.5,6.5-.1,1.88.34-.84-.13.55-.41,1.22-.71,2.49-1.06,3.73a76.13,76.13,0,0,0-1.91,11.46c-.73,5.73,8.28,5.67,9,0Z"/><path d="M529.89,240.21c9.7-6.28,18.91-13,29.12-18.45l-5.45-7.07c-5.1,5.24-9.89,10.65-14.58,16.26a4.52,4.52,0,0,0,5.45,7.07,56.69,56.69,0,0,0,9.3-5.6l-5.46-7.07L543.59,230c-3.05,3,0,9,4.38,7.52a111.92,111.92,0,0,0,16.58-7.25c5.11-2.74.57-10.51-4.54-7.78l-3.37,1.8c-.84.45-1.69.89-2.53,1.35-.13.08-2.3,1.18-1.18.69s-.63.19-.89.27c-.84.28-1.68.59-2.52.88l-3.95,1.37,4.38,7.52,4.69-4.67c3.5-3.49-1.22-10.16-5.45-7.07a56.69,56.69,0,0,1-9.3,5.6l5.45,7.07c4.69-5.61,9.48-11,14.58-16.27,3.6-3.7-.95-9.48-5.45-7.07-10.21,5.48-19.42,12.18-29.12,18.46-4.85,3.14-.34,10.93,4.54,7.77Z"/><path d="M533.53,289.41c12.9-8.43,25.9-16.19,39.4-23.62l-5.45-7.07c-8.38,9.41-18.27,17.53-27.68,25.9-3.87,3.44,1.1,9.6,5.45,7.06,2.71-1.58,5.43-3.15,8.12-4.76.89-.54,1.77-1.1,2.68-1.61,1.19-.66-1.28.4.46-.2s3.31-1.07,5-1.61L557.09,276,552,280.07c-4.27,3.45,1.17,9,5.45,7.07l4.63-2.12c.57-.26,1.93-.52.37-.16.77-.18,1.57-.28,2.35-.42s1.86-.38,2.79-.49c1.38-.15-1.55.07.17.06s3.48,0,5.21.05c5.8,0,5.8-9,0-9a55.65,55.65,0,0,0-10.56.71c-3.43.6-6.34,2.15-9.5,3.6l5.45,7.06,5.05-4.08c3.54-2.86-.28-8.85-4.38-7.53-6.74,2.19-12.26,5.54-18.36,9.09l5.45,7.07c9.42-8.37,19.31-16.49,27.68-25.9,3.36-3.76-.85-9.6-5.45-7.06-13.5,7.43-26.51,15.19-39.41,23.62-4.83,3.15-.32,10.95,4.55,7.77Z"/><path d="M535.54,345.24c5.37-4.13,11.12-7.28,16.78-11a83.37,83.37,0,0,1,7.8-5c1-.5,2-1,3-1.51,1.48-.77-1,.37.64-.32,1.9-.83,3.83-1.6,5.74-2.4l-4.38-7.52a103.44,103.44,0,0,1-10.72,11.62c-2.13,1.87-4.2,3.77-6.25,5.73-.51.49-1,1-1.54,1.47,1.39-1.16,0-.09-.36.13-1.39.85-2.76,1.72-4.14,2.58-5.06,3.15-.65,10,4.54,7.77,3.4-1.44,6.77-2.88,10.1-4.47,1-.46,1.92-1,2.91-1.4.6-.23-1.13.21.6,0,2.11-.3,4.21-.88,6.3-1.32,5.66-1.19,3.26-9.87-2.4-8.68-3.93.83-7.49,1.51-11.11,3.25s-7.25,3.31-10.94,4.88l4.54,7.77c9.63-6,17.58-14.27,24.84-22.94,2.51-3,.22-9.44-4.38-7.52A163.08,163.08,0,0,0,531,337.46c-4.53,3.48,0,11.3,4.55,7.78Z"/></g></g></svg>