<svg xmlns="http://www.w3.org/2000/svg" viewBox="0 0 800 800"><defs><style>.cls-1{isolation:isolate;}.cls-2,.cls-4{fill:none;stroke:#000;stroke-width:8px;}.cls-2{stroke-miterlimit:10;}.cls-3{fill:#fff;}.cls-4{stroke-linejoin:bevel;}.cls-5{mix-blend-mode:multiply;}.cls-6{fill:red;}.cls-7{fill:blue;}</style></defs><title>im yr dog</title><g class="cls-1"><g id="Layer_1" data-name="Layer 1"><polygon class="cls-2" points="496.71 424.74 490.23 421.38 483.31 419.31 476.44 417.12 469.6 414.86 462.76 412.61 455.79 410.77 449.03 408.18 441.97 406.68 434.94 405.06 428.07 402.82 420.9 401.78 413.95 399.82 406.65 398.53 399.42 396.92 392.16 395.44 384.83 394.35 377.47 393.46 370.22 391.86 362.95 390.41 355.53 389.93 348.23 388.65 340.81 388.28 333.46 387.4 326.1 386.66 318.7 386.06 311.6 383.83 304.38 382.2 297.07 380.97 289.76 379.79 282.66 377.59 275.42 376.07 268.16 374.62 260.79 373.7 253.72 371.4 246.49 369.78 239.25 368.22 231.97 366.87 224.67 365.57 217.53 363.92 215.36 371.41 214.2 379.2 212.43 386.85 210.97 394.57 209.35 402.26 209.44 409.2 211.89 415.78 216.03 421.5 220.77 426.75 226.18 431.33 232.06 435.27 237.88 439.31 243.94 442.97 250.03 446.62 256.54 449.45 263.03 452.27 269.6 454.89 275.95 458.07 282.62 460.48 289.11 463.37 296.1 464.81 302.72 467.35 309.47 469.47 316.27 471.46 322.98 473.77 329.86 475.45 336.79 476.98 343.54 479.18 350.57 480.24 357.47 481.88 364.55 483.66 371.68 485.25 379.01 485.75 386.08 487.72 393.36 488.4 400.44 490.36 407.75 490.83 415.02 491.5 422.18 493.04 429.45 493.79 436.67 494.91 443.95 495.49 451.21 496.3 458.51 496.62 465.82 496.69 473.11 497.13 480.4 497.5 487.7 497.64 495 497.18 502.3 497.45 509.57 496.63 516.9 496.87 524.1 495.48 531.32 494.48 538.49 493.2 545.5 491.22 552.56 489.2 558.29 484.64 562.54 478.78 563.46 470.95 565.78 463.41 567.05 455.65 569.29 448.1 570.92 440.1 563.26 438.32 555.83 437 548.49 435.28 541.11 433.72 533.73 432.14 526.37 430.48 518.94 429.14 511.59 427.43 504.26 425.57 496.71 424.74"/><polygon class="cls-3" points="570.28 440.26 566.82 446.45 560.83 450.67 553.93 453.12 546.75 454.39 539.61 455.65 532.45 456.87 525.21 457.52 517.94 457.82 510.7 458.74 503.41 458.75 496.14 458.25 488.88 457.83 481.61 457.73 474.34 457.39 467.07 457.2 459.84 456.3 452.59 455.75 445.37 454.88 438.1 454.52 430.9 453.42 423.66 452.67 416.43 451.78 409.27 450.46 402.16 448.89 394.96 447.81 387.83 446.32 380.61 445.36 373.4 444.25 366.33 442.5 359.16 440.96 352.11 438.87 344.86 437.6 337.85 435.39 330.63 433.98 323.69 431.58 316.46 430.13 309.45 427.94 302.53 425.48 295.74 422.66 288.69 420.55 281.88 417.81 275.1 415 268.3 412.22 261.93 408.52 255.45 405.09 249.11 401.42 242.94 397.49 236.61 393.76 230.85 389.2 225.44 384.19 221.15 378.16 218.1 371.39 218.29 364 222.4 358.19 228.45 354.36 235.11 351.53 242.13 349.65 249.23 347.98 256.45 347.02 263.74 346.73 271 346.49 278.27 346.3 285.53 345.38 292.81 346.33 300.09 346.04 307.37 346.08 314.61 346.88 321.87 347.35 329.11 347.97 336.38 348.39 343.64 348.88 350.86 349.7 358.1 350.53 365.28 351.72 372.54 352.36 379.62 354.25 386.92 354.66 394.08 356.01 401.28 357.11 408.26 359.37 415.52 360.2 422.53 362.25 429.8 363.33 437 364.81 444.06 366.86 451.11 368.87 458.15 370.94 465.23 372.84 472.33 374.7 479.22 377.25 486.2 379.51 493.21 381.67 500.07 384.27 507.06 386.55 513.81 389.43 520.5 392.45 527.22 395.42 533.8 398.68 539.8 402.98 546.24 406.49 552.35 410.56 558.04 415.2 563.16 420.46 567.73 426.21 569.97 433.15 570.28 440.26"/><polygon class="cls-2" points="570.28 440.26 566.82 446.45 560.83 450.67 553.93 453.12 546.75 454.39 539.61 455.65 532.45 456.87 525.21 457.52 517.94 457.82 510.7 458.74 503.41 458.75 496.14 458.25 488.88 457.83 481.61 457.73 474.34 457.39 467.07 457.2 459.84 456.3 452.59 455.75 445.37 454.88 438.1 454.52 430.9 453.42 423.66 452.67 416.43 451.78 409.27 450.46 402.16 448.89 394.96 447.81 387.83 446.32 380.61 445.36 373.4 444.25 366.33 442.5 359.16 440.96 352.11 438.87 344.86 437.6 337.85 435.39 330.63 433.98 323.69 431.58 316.46 430.13 309.45 427.94 302.53 425.48 295.74 422.66 288.69 420.55 281.88 417.81 275.1 415 268.3 412.22 261.93 408.52 255.45 405.09 249.11 401.42 242.94 397.49 236.61 393.76 230.85 389.2 225.44 384.19 221.15 378.16 218.1 371.39 218.29 364 222.4 358.19 228.45 354.36 235.11 351.53 242.13 349.65 249.23 347.98 256.45 347.02 263.74 346.73 271 346.49 278.27 346.3 285.53 345.38 292.81 346.33 300.09 346.04 307.37 346.08 314.61 346.88 321.87 347.35 329.11 347.97 336.38 348.39 343.64 348.88 350.86 349.7 358.1 350.53 365.28 351.72 372.54 352.36 379.62 354.25 386.92 354.66 394.08 356.01 401.28 357.11 408.26 359.37 415.52 360.2 422.53 362.25 429.8 363.33 437 364.81 444.06 366.86 451.11 368.87 458.15 370.94 465.23 372.84 472.33 374.7 479.22 377.25 486.2 379.51 493.21 381.67 500.07 384.27 507.06 386.55 513.81 389.43 520.5 392.45 527.22 395.42 533.8 398.68 539.8 402.98 546.24 406.49 552.35 410.56 558.04 415.2 563.16 420.46 567.73 426.21 569.97 433.15 570.28 440.26"/><polygon points="229.97 387.2 236.81 385.68 243.89 384.82 250.93 383.66 258.06 383.42 265.17 382.97 272.29 382.53 279.43 382.52 286.56 382.63 293.69 382.73 300.79 383.46 307.87 384.27 314.99 384.51 322.13 384.63 329.15 386.06 336.32 385.9 343.36 387.07 350.37 388.41 357.45 389.2 364.5 390.24 371.57 391.13 378.6 392.27 385.57 393.8 392.59 395.01 399.61 396.22 406.63 397.49 413.7 398.5 420.71 400.91 427.93 402.37 435.06 404.23 442.31 405.59 449.4 407.6 456.44 409.77 463.41 412.17 470.69 413.57 477.64 416.01 484.64 418.35 491.48 421.1 498.44 423.54 504.91 427.16 511.81 429.75 518.43 432.98 525.08 436.14 531.54 439.7 537.68 443.78 543.44 448.37 549.38 452.57 555.5 450.87 561.37 448.23 566.58 444.52 569.6 439.05 569.37 431.91 567.24 424.86 562.3 419.37 556.93 414.43 551.82 409.09 545.4 405.45 539.45 401.14 532.7 398.17 526.31 394.58 519.61 391.61 513.02 388.38 506.31 385.43 499.49 382.7 492.64 380.05 485.76 377.49 478.56 375.89 471.77 373.03 464.6 371.4 457.6 369.18 450.33 367.94 443.42 365.36 436.2 364 429.17 361.82 421.83 360.99 414.74 359.38 407.67 357.6 400.5 356.33 393.29 355.35 386.2 353.65 379 352.55 371.8 351.55 364.57 350.66 357.33 349.97 350.13 348.93 342.96 347.55 335.64 347.6 328.4 346.84 321.14 346.44 313.9 345.76 306.64 345.35 299.36 345.28 292.1 345.08 284.82 344.62 277.55 344.56 270.26 344.63 263.02 345.48 255.72 345.66 248.52 346.83 241.42 348.51 234.49 350.65 227.69 353.06 221.26 356.51 217.32 362.73 217.7 369.97 220.45 376.63 224.61 382.55 229.97 387.2"/><polygon class="cls-2" points="229.97 387.2 236.81 385.68 243.89 384.82 250.93 383.66 258.06 383.42 265.17 382.97 272.29 382.53 279.43 382.52 286.56 382.63 293.69 382.73 300.79 383.46 307.87 384.27 314.99 384.51 322.13 384.63 329.15 386.06 336.32 385.9 343.36 387.07 350.37 388.41 357.45 389.2 364.5 390.24 371.57 391.13 378.6 392.27 385.57 393.8 392.59 395.01 399.61 396.22 406.63 397.49 413.7 398.5 420.71 400.91 427.93 402.37 435.06 404.23 442.31 405.59 449.4 407.6 456.44 409.77 463.41 412.17 470.69 413.57 477.64 416.01 484.64 418.35 491.48 421.1 498.44 423.54 504.91 427.16 511.81 429.75 518.43 432.98 525.08 436.14 531.54 439.7 537.68 443.78 543.44 448.37 549.38 452.57 555.5 450.87 561.37 448.23 566.58 444.52 569.6 439.05 569.37 431.91 567.24 424.86 562.3 419.37 556.93 414.43 551.82 409.09 545.4 405.45 539.45 401.14 532.7 398.17 526.31 394.58 519.61 391.61 513.02 388.38 506.31 385.43 499.49 382.7 492.64 380.05 485.76 377.49 478.56 375.89 471.77 373.03 464.6 371.4 457.6 369.18 450.33 367.94 443.42 365.36 436.2 364 429.17 361.82 421.83 360.99 414.74 359.38 407.67 357.6 400.5 356.33 393.29 355.35 386.2 353.65 379 352.55 371.8 351.55 364.57 350.66 357.33 349.97 350.13 348.93 342.96 347.55 335.64 347.6 328.4 346.84 321.14 346.44 313.9 345.76 306.64 345.35 299.36 345.28 292.1 345.08 284.82 344.62 277.55 344.56 270.26 344.63 263.02 345.48 255.72 345.66 248.52 346.83 241.42 348.51 234.49 350.65 227.69 353.06 221.26 356.51 217.32 362.73 217.7 369.97 220.45 376.63 224.61 382.55 229.97 387.2"/><polygon class="cls-3" points="222.14 403.25 215 404.77 208.28 407.66 201.4 410.07 194.45 412.3 187.57 414.56 194.21 414.72 200.88 415.27 207.51 416.48 214.25 416.2 220.87 417.55 227.56 417.99 234.3 418.26 233.36 410.91 229.03 405.25 222.14 403.25"/><polygon class="cls-4" points="222.14 403.25 215 404.77 208.28 407.66 201.4 410.07 194.45 412.3 187.57 414.56 194.21 414.72 200.88 415.27 207.51 416.48 214.25 416.2 220.87 417.55 227.56 417.99 234.3 418.26 233.36 410.91 229.03 405.25 222.14 403.25"/><polygon class="cls-3" points="257.15 426.42 251.68 430.7 245.99 434.56 240.46 438.64 235.27 443.21 229.36 447.31 236.95 445.61 244.43 445.07 251.79 443.71 259.08 441.96 266.58 441.46 273.8 439.73 271.41 432.39 265.17 427.89 257.15 426.42"/><polygon class="cls-4" points="257.15 426.42 251.68 430.7 245.99 434.56 240.46 438.64 235.27 443.21 229.36 447.31 236.95 445.61 244.43 445.07 251.79 443.71 259.08 441.96 266.58 441.46 273.8 439.73 271.41 432.39 265.17 427.89 257.15 426.42"/><polygon class="cls-3" points="299.84 445.59 297.58 451.73 296.01 458.16 293.06 464.14 291.15 470.87 297.75 467.32 303.83 463.58 310.19 460.33 316.37 456.74 322.69 453.07 316.12 447.39 308.08 444.98 299.84 445.59"/><polygon class="cls-4" points="299.84 445.59 297.58 451.73 296.01 458.16 293.06 464.14 291.15 470.87 297.75 467.32 303.83 463.58 310.19 460.33 316.37 456.74 322.69 453.07 316.12 447.39 308.08 444.98 299.84 445.59"/><polygon class="cls-3" points="346.22 461.95 346.6 468.79 346.84 475.7 346.33 482.65 347.08 489.21 351.78 483.82 356.03 477.67 360.59 471.75 365.28 466.04 360.32 460.91 353 459.56 346.22 461.95"/><polygon class="cls-4" points="346.22 461.95 346.6 468.79 346.84 475.7 346.33 482.65 347.08 489.21 351.78 483.82 356.03 477.67 360.59 471.75 365.28 466.04 360.32 460.91 353 459.56 346.22 461.95"/><polygon class="cls-3" points="550.09 470.76 555.55 476.06 561.82 480.46 567.37 485.69 573.04 490.78 578.85 496.1 572.12 493.42 565.61 490.94 559.07 488.55 552.46 486.37 545.79 484.32 539.33 481.69 532.93 479.33 536.6 473.57 542.84 469.99 550.09 470.76"/><polygon class="cls-4" points="550.09 470.76 555.55 476.06 561.82 480.46 567.37 485.69 573.04 490.78 578.85 496.1 572.12 493.42 565.61 490.94 559.07 488.55 552.46 486.37 545.79 484.32 539.33 481.69 532.93 479.33 536.6 473.57 542.84 469.99 550.09 470.76"/><polygon class="cls-3" points="506.23 477.68 509.61 484.36 512.7 491.08 515.85 497.78 519.52 504.11 513.82 500.77 508.02 497.39 502.75 493.19 496.71 490.21 490.98 486.71 485.07 483.22 490.96 478.07 498.31 476.4 506.23 477.68"/><polygon class="cls-4" points="506.23 477.68 509.61 484.36 512.7 491.08 515.85 497.78 519.52 504.11 513.82 500.77 508.02 497.39 502.75 493.19 496.71 490.21 490.98 486.71 485.07 483.22 490.96 478.07 498.31 476.4 506.23 477.68"/><polygon class="cls-3" points="460.43 480.4 460.37 486.96 459.1 493.47 458.29 500.02 458 507.01 453.55 501 449.4 495.2 445.73 489.05 441.38 483.37 437.37 477.62 443.06 475.19 449.55 473.86 455.94 475.82 460.43 480.4"/><polygon class="cls-4" points="460.43 480.4 460.37 486.96 459.1 493.47 458.29 500.02 458 507.01 453.55 501 449.4 495.2 445.73 489.05 441.38 483.37 437.37 477.62 443.06 475.19 449.55 473.86 455.94 475.82 460.43 480.4"/><polygon class="cls-3" points="412.64 474.74 409.41 480.36 407.32 486.62 404.28 492.4 401.09 497.64 398.88 491.17 396.66 484.31 394.53 477.41 392.06 470.55 399.45 469.71 406.51 471.11 412.64 474.74"/><polygon class="cls-4" points="412.64 474.74 409.41 480.36 407.32 486.62 404.28 492.4 401.09 497.64 398.88 491.17 396.66 484.31 394.53 477.41 392.06 470.55 399.45 469.71 406.51 471.11 412.64 474.74"/><polyline class="cls-4" points="380.96 445.3 379.36 438.82 378.42 432.19 376.88 425.69 374.92 419.31 373.23 412.87 371.43 405.96 369.95 398.97 368.94 391.9 367.64 384.89 366.67 377.82 365.31 370.82 364.37 363.75 363.13 356.72 362.8 349.58 362.6 342.44 361.86 335.34 361.25 328.22 361.44 321.07 361.8 313.95 361.39 306.81 361.97 299.69 362.24 292.56 362.92 285.46 363.48 278.35 363.65 271.19 364.64 264.12 366.23 257.14 367.61 250.15 368.08 242.99 369.6 236.01 371.78 229.19 372.93 222.14 374.82 215.26 377.34 208.56 378.57 201.48 381.73 195.03 383.47 188.08 386.61 181.54 389.64 174.97 392.76 168.42 396.36 162.12 400.8 156.36 405.07 150.53 408.96 144.4 413.68 138.87 419.06 133.97 425.37 130.35 431.79 126.97 438.99 126.46 446.25 126.56 452.62 130.09 458.59 134.15 463.61 139.36 468.19 144.97 471.92 151.18 475.23 157.6 479.38 163.61 482.32 170.24 484.4 177.22 487.37 183.83"/><polyline class="cls-4" points="384 672.15 386.28 665.33 388.47 658.48 390.47 651.57 391.95 644.53 394.02 637.63 395.21 630.54 396.34 623.44 398.21 616.46 398.66 609.26 399.06 602.09 400.34 594.97 400.63 587.78 400.14 580.58 400.47 573.39 400.15 566.22 399.64 559.05 399.23 551.88 398.98 544.69 397.71 537.6 397.02 530.45 396.34 523.3 395.89 516.1 393.88 509.13 393.17 501.96 391.75 494.9 389.7 485.62"/><polyline class="cls-4" points="499.92 301.23 495.61 295.56 490.52 290.51 486.94 284.33 483.16 278.31 479.39 272.26 476.47 265.75 474.57 258.86 471.6 252.33 469.97 245.37 468.62 238.49 468.58 231.47 467.88 224.51 468.16 217.51 469.32 210.61 471.26 203.89 474.16 197.54 477.32 191.33 481.6 185.85 486.26 180.53 492.73 183.66 499.06 186.93 504.21 191.86 509.85 196.26 513.73 202.26 517.94 208 520.85 214.49 523.77 220.98 525.92 227.78 526.57 234.9 527.34 241.94 528.46 248.97 528.05 256.07 527.79 263.15 527.26 270.22 526.4 277.26 525.2 284.26 523.81 291.23"/><polyline class="cls-4" points="468.28 225.25 469.05 232.33 469.74 239.49 471.43 246.46 473.14 253.42 475.29 260.26 477.72 267.01 480.48 273.63 483.67 280.05 486.88 286.44 489.91 292.96 494.28 298.68"/><polyline class="cls-4" points="507.99 194.59 511.33 200.79 513.72 207.34 514.42 214.27 515.8 221.11 515.81 228.08 515.02 235 513.72 241.83 512.45 248.68 510.65 255.41"/><polyline class="cls-4" points="481.73 187.42 480.6 194.77 481.55 202.09 483.7 209.05 487.39 215.39 493.08 220.09"/><polygon class="cls-3" points="489.15 184.81 485.88 191.54 483.16 198.31 481.03 205.33 480.97 212.67 481.48 220.01 483.76 227.06 486.82 233.43 489.21 240.13 489.73 247.24 491.42 254.15 491.6 261.25 491.23 268.32 490.74 275.38 489.42 282.33 488.39 289.53 493.07 283.96 497.31 278.26 501.38 272.46 505.68 266.75 508.97 260.41 511.41 253.71 513.37 246.88 514.73 239.92 515.44 232.88 515.48 225.75 514.02 218.78 511.87 211.98 508.15 205.91 504.69 199.68 500.06 194.24 494.54 189.71 489.15 184.81"/><polygon class="cls-4" points="489.15 184.81 485.88 191.54 483.16 198.31 481.03 205.33 480.97 212.67 481.48 220.01 483.76 227.06 486.82 233.43 489.21 240.13 489.73 247.24 491.42 254.15 491.6 261.25 491.23 268.32 490.74 275.38 489.42 282.33 488.39 289.53 493.07 283.96 497.31 278.26 501.38 272.46 505.68 266.75 508.97 260.41 511.41 253.71 513.37 246.88 514.73 239.92 515.44 232.88 515.48 225.75 514.02 218.78 511.87 211.98 508.15 205.91 504.69 199.68 500.06 194.24 494.54 189.71 489.15 184.81"/><polyline class="cls-3" points="493.78 298.19 499.94 295.01 505.81 291.38 511.85 287.93 516.67 282.92 521.2 277.77 525.28 272.22 527.32 265.66 528.62 258.84"/><polyline class="cls-4" points="493.78 298.19 499.94 295.01 505.81 291.38 511.85 287.93 516.67 282.92 521.2 277.77 525.28 272.22 527.32 265.66 528.62 258.84"/><polygon class="cls-4" points="443.85 125.92 451.27 123.7 458.51 122.1 465.94 122.22 473.15 123.9 479.94 126.69 486.57 130.02 492.01 135.09 496.74 141.18 489.72 139.81 482.9 139.26 476.43 137.09 469.73 135.76 463.17 133.9 456.94 131.06 450.52 128.77 443.85 125.92"/><polygon class="cls-4" points="386.45 182.4 393.88 181.5 401.4 179.96 408.52 177.1 415.55 173.88 421.12 168.48 425.11 161.88 417.3 161.45 409.67 163.06 402.39 165.89 396.17 170.6 390.47 175.93 386.45 182.4"/><polygon class="cls-4" points="369.46 237.29 374.56 242.95 378.91 248.8 382.2 255.3 384.41 262.21 386.02 269.26 386.76 276.5 385.48 283.39 379.71 279.24 375.37 273.28 371.82 266.82 370.41 259.58 369.25 252.36 368.64 245.01 369.46 237.29"/><polygon class="cls-3" points="361.52 325.5 355.9 331.01 350.55 336.57 346.95 343.43 345.19 350.92 343.54 358.4 344.19 366.03 345.01 373.58 350.74 368.7 354.94 362.39 358.86 355.85 360.36 348.36 362.11 340.94 361.82 333.33 361.52 325.5"/><polygon class="cls-4" points="361.52 325.5 355.9 331.01 350.55 336.57 346.95 343.43 345.19 350.92 343.54 358.4 344.19 366.03 345.01 373.58 350.74 368.7 354.94 362.39 358.86 355.85 360.36 348.36 362.11 340.94 361.82 333.33 361.52 325.5"/><polyline class="cls-3" points="371.33 444.74 374.44 437.79 375.46 430.3 375.95 422.7 374.17 415.04 368.5 420.37 363.82 426.29 361.76 433.56 360.45 440.99"/><polyline class="cls-4" points="371.33 444.74 374.44 437.79 375.46 430.3 375.95 422.7 374.17 415.04 368.5 420.37 363.82 426.29 361.76 433.56 360.45 440.99"/><polyline class="cls-3" points="354.75 439.23 362.07 440.44 369.23 442.42 376.64 443.23 383.71 445.6"/><polyline class="cls-4" points="354.75 439.23 362.07 440.44 369.23 442.42 376.64 443.23 383.71 445.6"/><polygon class="cls-3" points="394.13 508.56 389.15 512.67 385.21 518.06 381.8 523.83 380.09 530.34 379.02 537.01 379.5 543.77 381.2 550.28 387.06 545.28 390.92 538.6 393.95 531.49 395.06 523.81 395.45 516.03 394.13 508.56"/><polygon class="cls-4" points="394.13 508.56 389.15 512.67 385.21 518.06 381.8 523.83 380.09 530.34 379.02 537.01 379.5 543.77 381.2 550.28 387.06 545.28 390.92 538.6 393.95 531.49 395.06 523.81 395.45 516.03 394.13 508.56"/><polygon class="cls-3" points="401.53 581.63 407.37 586.19 411.03 592.69 413.9 599.52 415.08 606.85 414.66 614.24 414.28 621.94 407.43 617.95 403.19 611.54 400.83 604.27 400.67 596.66 400.21 589.07 401.53 581.63"/><polygon class="cls-4" points="401.53 581.63 407.37 586.19 411.03 592.69 413.9 599.52 415.08 606.85 414.66 614.24 414.28 621.94 407.43 617.95 403.19 611.54 400.83 604.27 400.67 596.66 400.21 589.07 401.53 581.63"/><polygon class="cls-3" points="377.82 624.81 382.11 630.38 384.09 636.99 386.27 643.5 387.09 650.33 387.1 657.19 386.81 664.05 385.84 670.84 384.51 677.49 377.72 673.77 371.4 669.23 364.9 664.97 358.61 660.97 361.14 654.92 364.66 649.01 367.92 642.97 371.6 637.14 374.67 630.98 377.82 624.81"/><g class="cls-5"><polyline class="cls-6" points="482.57 175.84 477.91 181.45 473.38 187.13 468.8 192.79 464.87 198.92 461.36 205.31 458.81 212.15 456.88 219.18 455.91 226.4 455.94 233.68 457.05 240.86 458.74 247.92 461.85 254.49 464.79 261.14 468.32 267.5 471.34 274.12 475.3 280.24 477.64 286.27 481.45 291.5 484.69 297.11 489.51 301.42 496.1 306.09 503.27 309.96 511.37 311.09 519.37 309.34 525.59 303.94 531.05 297.83 536.02 292.35 539.66 285.92 541.56 278.83 542.6 271.52 542.01 264.49 541.26 257.48 540.15 250.52 538.64 243.64 536.58 236.91 534.22 230.28 532.11 223.54 529.21 217.09 525.34 211.17 522.19 204.83 518.1 199.07 513.75 193.5 508.86 188.42 504.11 183.22 498.9 178.46 493.25 174.25 487.61 170.83 483.48 175.03"/></g><g class="cls-5"><polyline class="cls-7" points="372.17 237.22 372.39 230.31 372.9 223.4 372.99 216.48 372.34 209.56 372.95 202.64 372.51 195.73 371.69 188.85 371.65 181.93 370.89 175.06 370.31 168.17 369.33 161.05 373.35 167.37 376.47 173.88 379.01 180.63 381.42 187.4"/><path class="cls-7" d="M373.67,237.22c.21-6.7,1-13.43.82-20.13-.07-2.72-.66-5.42-.6-8.13.08-3.52.54-6.72.31-10.24-.81-12.71-1.69-25.43-3.42-38.07L368,161.8c5.31,8.37,8.62,16.68,11.93,26,.65,1.81,3.55,1,2.9-.8-3.37-9.47-6.84-18.2-12.24-26.71a1.51,1.51,0,0,0-2.74,1.16c1.71,12.51,2.56,25.42,3.37,38.21.21,3.31-.42,6.44-.4,9.74,0,2.78.59,5.56.62,8.35.06,6.49-.61,13-.81,19.47-.06,1.93,2.94,1.93,3,0Z"/></g><g class="cls-5"><polyline class="cls-7" points="362.74 339.22 364.41 331.69 365.36 324.01 367.84 316.69 371.33 309.8 374.65 302.82 379.03 296.72 373.09 299.99 367.88 304.71 363.58 310.32 360.95 316.9 360.1 323.9"/><path class="cls-7" d="M364.18,339.62c1.7-7.62,2.12-15.4,5-22.35a102.64,102.64,0,0,1,11.11-19.79c.92-1.28-.83-2.72-2.05-2.05-5.59,3.07-9.93,6.23-13.84,11.33s-5.05,10.7-5.84,17.14c-.23,1.91,2.77,1.89,3,0,.74-6.06,1.71-10.79,5.43-15.63,3.57-4.65,7.6-7.41,12.76-10.25l-2.05-2a103,103,0,0,0-11.27,20.14c-3.11,7.4-3.48,15.09-5.18,22.71-.42,1.88,2.47,2.68,2.89.8Z"/></g><g class="cls-5"><polyline class="cls-7" points="398.52 596.4 399.7 588.73 400.67 581.08 403.33 573.82 404.51 566.15 406.64 559.37 407.72 552.35 409.26 545.44 410.64 538.51 412.47 531.63 412.49 524.57 408.69 532 403.7 538.76 398.05 544.93"/><path class="cls-7" d="M400,596.8c.92-6,1.18-12.66,3.15-18a46.06,46.06,0,0,0,2.39-9.32c.5-3.23,1.69-6.11,2.46-9.29,1.37-5.64,2.2-11.58,3.34-17.29.64-3.23,1.59-6.36,2.27-9.57.61-2.86.4-5.77.41-8.71a1.51,1.51,0,0,0-2.79-.75,86.61,86.61,0,0,1-14.22,20c-1.3,1.42.82,3.55,2.13,2.12a90.6,90.6,0,0,0,14.68-20.66l-2.8-.76c0,3,.22,6-.52,8.73-.86,3.22-1.59,6.39-2.24,9.66-1.11,5.57-1.85,11.47-3.32,16.93-1.67,6.18-2.64,12.48-4.84,18.49C398,584,398,590.14,397.08,596c-.29,1.89,2.6,2.7,2.89.8Z"/></g><g class="cls-5"><polyline class="cls-7" points="455.94 137.46 458.86 143.33 461.44 149.41 463.48 155.76 463.73 162.44 462.83 168.9 465.88 162.19 467.51 154.91 469.79 147.78 468.18 140.66"/><path class="cls-7" d="M454.64,138.21A106.24,106.24,0,0,1,461,153c1.66,5.18,1.14,10,.37,15.51-.2,1.5,2,2.87,2.75,1.16A90.33,90.33,0,0,0,469,155.31c.62-2.27,2.1-4.8,2.27-7.14.19-2.52-1.05-5.45-1.6-7.91-.42-1.89-3.32-1.09-2.89.8l.91,4c.14.63.57,3.38.65,2.42-.18,2.31-1.64,4.81-2.25,7.06a81.39,81.39,0,0,1-4.51,13.56l2.74,1.16c.75-5.46,1.61-10.91-.1-16.26a117.35,117.35,0,0,0-6.95-16.34c-.86-1.73-3.45-.21-2.59,1.51Z"/></g><g class="cls-5"><polyline class="cls-6" points="214.41 378.24 221.44 379 228.11 381.4 234.59 384.21 240.82 387.54 247.37 390.37 253.08 394.63 259.42 397.88 265.12 402.12 271.1 405.93 276.98 409.9 283.29 413.17 289.21 417.12 295.66 420.12 301.99 423.34 308.73 425.61 315.08 428.85 321.91 430.84 328.9 432.65 336 434.02 342.85 436.4 349.94 437.78 356.94 439.58 364.06 440.84 371.04 442.75 378.23 443.58 385.35 444.84 392.46 446.1 399.62 447.03 406.78 448 413.93 449.01 421.09 449.96 428.19 451.43 435.45 451.56 442.52 453.27 449.78 453.37 456.94 454.37 464.12 455.21 471.32 455.73 478.54 456.08 485.72 456.94 492.9 457.75 500.14 457.81 507.38 457.77 514.55 458.9 521.78 458.78 529 458.75 536.2 459.54 543.17 458.16 550.13 456.81 556.84 454.48 563.55 452.17 570.43 450.39 577.52 450.32 584.23 452.57 589.95 457.87 593.58 464.8 595.96 472.23 599.01 479.4 600.83 487.03 604.97 493.64 609.55 500.64 612.4 508.54 611.72 516.78 607.79 524.01 600.51 526.78 592.87 525.54 584.05 523.13 576.24 522.06 568.42 521.7 560.62 520.64 552.76 520.56 545.24 518.33 535.5 514.28 529.33 512.88 523.04 512.4 516.78 511.38 510.45 511.83 503.24 511.2 496.06 510.38 488.85 509.85 481.7 508.81 474.55 507.8 467.33 507.08 460.35 505.05 453.11 504.52 446 503.2 438.97 501.42 431.75 500.82 424.46 499.79 417.14 498.87 409.99 496.97 402.6 496.44 395.43 494.64 388.17 493.38 380.95 491.89 373.75 490.35 366.64 488.34 359.38 487.06 352.06 486.11 344.77 485.1 337.56 483.58 330.27 482.64 323.08 480.88 316.18 479.51 309.38 477.66 302.47 476.13 295.88 473.55 289.02 471.7 282.73 468.38 276.1 465.92 269.84 462.57 263.35 459.78 257.07 456.52 250.73 453.4 244.29 450.46 237.8 447.58 231.78 443.84 225.65 440.3 219.82 436.28 213.54 432.94 208.28 428.14 202.41 424.15 197.78 418.74"/></g></g></g></svg>