<svg xmlns="http://www.w3.org/2000/svg" viewBox="0 0 800 800"><defs><style>.a{fill:#f4e976;}</style></defs><title>inner-garden</title><path d="M162,51.1c5-1.23,9.44-.61,13.81-.6,34.59.08,69.19.35,103.79.3q174.42-.24,348.85-.65c1.4,0,2.81-.08,4.22-.14,3.87-.16,5.57,2,5.49,5.56-1.18,49.07-.67,98.15-.63,147.22.05,86.3.35,172.6.46,258.9,0,25.52-.35,51-.29,76.56,0,20.64,1.5,41.33.5,61.91-1.15,23.49.91,46.91-.35,70.37-.72,13.5.48,27.09.63,40.65.12,11.36,0,22.73,0,34.09,0,3.47-1.24,4.83-5.06,4.72-51.69-1.41-103.38-.48-155.08-.56q-118.87-.2-237.76,0-35.3,0-70.59-.08c-8.95,0-8.59-.13-8.52-9.11q.47-54.91.51-109.84.19-238.11.27-476.23c0-33-.13-66-.21-99Zm4.8,346c12.64.35,25.23.88,37.83,1,16.65.16,33.31-.57,49.93,1,5.53.53,6.15,2,3.14,6.52-4.53,6.81-10.92,11.7-16.87,17.1-14.92,13.52-30.4,26.23-48.49,35.39-1.85.94-3.69,2.21-3.56,4.44.15,2.75,2.37,4.34,4.76,4.81,6.11,1.18,12.26,2.23,18.44,2.86,21.29,2.18,40.61,8.93,57.3,22.83,11.72,9.76,23.71,19.3,38.48,24,1.19,4.06.1,7.9,1.32,11.68,3.44,10.7,9.83,19.17,18.14,26.51,8.59,7.6,18.14,13.89,27.28,20.75,11.15,8.36,21.27,17.77,28,30.35,5.2,9.78,8.47,20.36,12.94,30.44,1,2.33,1.7,5.05,5.09,5.25,3.64.21,5.52-1.94,6.85-4.84a47.13,47.13,0,0,0,1.84-5.07A137.5,137.5,0,0,1,420.56,607c8-14,20.65-23.18,32.85-32.89,12.44-9.9,24.32-20.25,32.66-34.18,5.27-8.81,10-17.74,12.19-27.82,1.47-.22,2.44-.44,3.43-.5,14.53-.87,26.54-7.05,36.86-17.11q12.94-12.6,26.31-24.75c6.81-6.19,13.73-12.19,21.73-17,7.83-4.75,16.62-5.75,25-8.46,2.8-.91,6.09-1.36,6.15-5.53-1.9-2.9-5.08-3.74-8.1-4.7-8-2.54-16.21-4.71-24.18-7.47-12.45-4.3-21.84-12.75-30.75-22.77,3.31-2.51,6-3.76,9.41-3.89,13.85-.53,27.64,1.11,41.47,1,9.34,0,18.69-.73,27.51-1.11V54.57c-155.67.34-310.44,0-466.25.69Z"/><path class="a" d="M166.82,397.08V55.26c155.81-.74,310.58-.35,466.25-.69v345.2c-8.82.38-18.17,1.07-27.51,1.11-13.83.07-27.62-1.57-41.47-1-3.37.13-6.1,1.38-9.41,3.89,8.91,10,18.3,18.47,30.75,22.77,8,2.76,16.14,4.93,24.18,7.47,3,1,6.2,1.8,8.1,4.7-.06,4.17-3.35,4.62-6.15,5.53-8.35,2.71-17.14,3.71-25,8.46-8,4.85-14.92,10.85-21.73,17q-13.36,12.14-26.31,24.75c-10.32,10.06-22.33,16.24-36.86,17.11-1,.06-2,.28-3.43.5-2.18,10.08-6.92,19-12.19,27.82-8.34,13.93-20.22,24.28-32.66,34.18-12.2,9.71-24.88,18.87-32.85,32.89a137.5,137.5,0,0,0-11.37,25.17,47.13,47.13,0,0,1-1.84,5.07c-1.33,2.9-3.21,5-6.85,4.84-3.39-.2-4.06-2.92-5.09-5.25-4.47-10.08-7.74-20.66-12.94-30.44-6.68-12.58-16.8-22-28-30.35-9.14-6.86-18.69-13.15-27.28-20.75-8.31-7.34-14.7-15.81-18.14-26.51-1.22-3.78-.13-7.62-1.32-11.68-14.77-4.68-26.76-14.22-38.48-24-16.69-13.9-36-20.65-57.3-22.83-6.18-.63-12.33-1.68-18.44-2.86-2.39-.47-4.61-2.06-4.76-4.81-.13-2.23,1.71-3.5,3.56-4.44,18.09-9.16,33.57-21.87,48.49-35.39,6-5.4,12.34-10.29,16.87-17.1,3-4.53,2.39-6-3.14-6.52-16.62-1.61-33.28-.88-49.93-1C192.05,398,179.46,397.43,166.82,397.08ZM493.41,506.66c1.92-.3,3.29-.62,4.67-.71A58.22,58.22,0,0,0,530,494.48c8.86-6.66,16.48-14.69,24-22.76,14.42-15.45,30.24-28.37,52.62-29.8,2.08-.13,4.65-.45,4.37-3.71-1.41-1.75-3.35-1.1-5.06-1.14-20.71-.53-36.78-9.75-49.79-25.53-6.35-7.69-12.09-16-19.74-22.54-4.43-3.78-4.47-7.16-1.36-11.83A60.6,60.6,0,0,0,545,346c.69-13.28-3-25.81-5.61-38.57-3.69-18.28-5-36.66-.56-55,1.56-6.53,5.56-12.44,5.16-19.58-3.63-2.13-4.46.84-5.89,2.92C527,251.7,512.58,262.28,492.7,264c-9,.8-18.05,1.16-27,2.08-12.17,1.25-24.16,2.88-35.56,8.23a73.88,73.88,0,0,0-24.05,18.4,13.74,13.74,0,0,1-1.77-1.27c-13.57-13.73-30-21.88-48.89-25.45-14.63-2.76-28.92-6.66-42.23-13.49-8.47-4.34-15-11.45-22.73-16.8-2-1.39-4-3.82-6.68-.55.52,1,1,1.83,1.44,2.68,8.39,15.41,11.47,31.64,6.91,48.8-3.25,12.23-7.19,24.27-10.54,36.48a82.14,82.14,0,0,0-2.32,35.22c1.05,6.55,2.56,12.93,5.6,18.9-13.88,13.86-22.18,31.35-35.45,45.13-14.19,14.73-28.78,28.6-48.2,36.21-2.34.91-4.44,2-3.73,5.08a4.38,4.38,0,0,0,4,1.18c25.93-3.17,48,5.41,68.23,21.24C282.32,496,293.27,508.78,310,512.6c.74,7.09,2.33,13.75,5.87,19.68,8.39,14,19.22,25.57,34.45,32.39a25.8,25.8,0,0,1,4.24,2.28c20.75,14.55,35.93,33.16,42.18,58.22.73,2.93,1.54,5.83,2.28,8.75.83,3.24,2.72,3.52,5.41,2,.68-17.56,8.9-31.78,19.78-44.79,8.87-10.6,20.26-18.37,30.79-27.1,11.49-9.54,22-19.94,30.13-32.63C490,523.82,493,515.69,493.41,506.66ZM358,141.71c0,1.62.39,2.72,1.31,3.12,6.27,2.79,7.59,8.34,8.28,14.34,1.65,14.51-2.17,28.25-5.74,42.05-.8,3.11-5.39,6.27-.95,9.6s6.94-1.42,9.88-3.17c12.66-7.51,25.93-11.54,40.81-9.1,9.61,1.58,16.9,7.1,23.94,13.17,1.22,1.06,2.14,2.61,4,1.85s1.5-2.54,1.35-4.15c-.2-2.2-.29-4.41-.43-6.61-1.19-19.3-3.55-38.79,11.21-54.91,2.07-2.27,1.25-5-2.07-6.1a84.37,84.37,0,0,1-8.5-2.94c-16-7.55-32.13-15.05-34-36-.22-2.43-1.67-4.39-5-4.89C396.72,122.08,376,130.79,358,141.71Zm95.42,104.76c13-28.32,32-51.06,59.24-66.17-2.39-4.57-4.46-3.61-7-2.13-17.37,10-31.21,23.54-42.27,40.26-2.95,4.47-5.53,9.18-8.48,13.65C452.18,236.13,451.65,241.16,453.39,246.47ZM292.24,180.52c.36,2,1.59,2.41,2.6,3a123.59,123.59,0,0,1,32.39,27.55c7.74,9.13,15.14,18.54,22.75,27.79,1.9,2.31,3.5,5.22,7.21,5.47.55-3-1.23-4.64-2.34-6.4a139.76,139.76,0,0,0-16.14-20.8c-6.36-6.81-11.21-15-18.45-21.17-6.88-5.87-13.68-11.81-21.56-16.34C296.13,178.14,293.63,177,292.24,180.52Zm177.15-.05c3.23-3.72,3.3-8.58,4.93-12.76,8.2-21,19.45-40,36.2-55.34,1.49-1.36,2.44-3,1-4.65s-3.31-1.12-4.76.32c-2.56,2.53-5.12,5.08-7.57,7.73-15.22,16.5-26.21,35.32-31.12,57.41C467.49,175.59,466.51,178.26,469.39,180.47Zm-126-.66c.8-4.24-.68-7.11-2.2-9.84-2.24-4-5-7.76-7.12-11.85-5.89-11.51-14.55-20.49-25.12-27.64-2.08-1.4-5.18-5.49-7.57-1.84-2.79,4.25,2.68,4.88,4.88,6.43,11.85,8.37,20.26,19.54,27.44,31.94C336.19,171.37,337.7,176.86,343.36,179.81Zm70.1,93.88c4.23-18.7,10-36.82,20.5-53.4-6.26-2.44-7.45,2.23-9.33,5C414,241.06,407.57,266.59,413.46,273.69Zm-47.65-51.75c2.43,2.88,4.41,5.1,6.26,7.43,7.66,9.71,12.62,20.94,18,31.94,1.18,2.4,2,5.42,5.79,5.48a9.5,9.5,0,0,0,.28-2.41,16.79,16.79,0,0,0-.93-3.47c-5-13.22-11.38-25.7-20.2-36.85C372.64,221.07,369.87,220.66,365.81,221.94Zm34.37,26c1.48-.36,1.83-1.5,2.08-2.7,2.4-11.56.78-23.24.9-34.86a2.79,2.79,0,0,0-3.07-3c-2.07.13-2.46,1.67-2.44,3.45.09,10.46.12,20.91.23,31.37C397.9,244.4,397.88,246.7,400.18,248Z"/><path d="M493.41,506.66c-.41,9-3.45,17.16-8.28,24.73C477,544.08,466.49,554.48,455,564c-10.53,8.73-21.92,16.5-30.79,27.1-10.88,13-19.1,27.23-19.78,44.79-2.69,1.53-4.58,1.25-5.41-2-.74-2.92-1.55-5.82-2.28-8.75-6.25-25.06-21.43-43.67-42.18-58.22a25.8,25.8,0,0,0-4.24-2.28c-15.23-6.82-26.06-18.35-34.45-32.39-3.54-5.93-5.13-12.59-5.87-19.68-16.73-3.82-27.68-16.56-40.35-26.49-20.19-15.83-42.3-24.41-68.23-21.24a4.38,4.38,0,0,1-4-1.18c-.71-3.05,1.39-4.17,3.73-5.08,19.42-7.61,34-21.48,48.2-36.21,13.27-13.78,21.57-31.27,35.45-45.13-3-6-4.55-12.35-5.6-18.9a82.14,82.14,0,0,1,2.32-35.22c3.35-12.21,7.29-24.25,10.54-36.48,4.56-17.16,1.48-33.39-6.91-48.8-.47-.85-.92-1.72-1.44-2.68,2.71-3.27,4.67-.84,6.68.55,7.76,5.35,14.26,12.46,22.73,16.8,13.31,6.83,27.6,10.73,42.23,13.49,18.86,3.57,35.32,11.72,48.89,25.45a13.74,13.74,0,0,0,1.77,1.27,73.88,73.88,0,0,1,24.05-18.4c11.4-5.35,23.39-7,35.56-8.23,9-.92,18-1.28,27-2.08,19.88-1.76,34.33-12.34,45.39-28.29,1.43-2.08,2.26-5.05,5.89-2.92.4,7.14-3.6,13-5.16,19.58-4.39,18.35-3.13,36.73.56,55,2.57,12.76,6.3,25.29,5.61,38.57a60.6,60.6,0,0,1-10,31.18c-3.11,4.67-3.07,8.05,1.36,11.83,7.65,6.52,13.39,14.85,19.74,22.54,13,15.78,29.08,25,49.79,25.53,1.71,0,3.65-.61,5.06,1.14.28,3.26-2.29,3.58-4.37,3.71-22.38,1.43-38.2,14.35-52.62,29.8-7.54,8.07-15.16,16.1-24,22.76A58.22,58.22,0,0,1,498.08,506C496.7,506,495.33,506.36,493.41,506.66ZM311.65,272.15a1.62,1.62,0,0,0-.29-.43s-.31.07-.31.09c.06.47.3.54.68.22a9.48,9.48,0,0,0-.46,2.3C312.1,293,306.68,310,297.68,326a201.23,201.23,0,0,0-9.55,18.08c-4.31,9.92-3.89,19.66,1.27,29.32,6.8-3.07,13.34-7.55,20.09-7,10.79.89,15-4.68,18-13.21.19-.56.64-1,.85-1.59,3-8,4.56-11.29,5.09-18.06.15-2-.37-4.31,1.27-5.71,6.61-5.65,11.32-13.3,18-18.64,13.28-10.68,35.75-4.73,45.12,5.69,2.48,2.76,5,5.5,6.58,9.13,6.14-6.69,6.58-9,3.47-16.42a39.21,39.21,0,0,0-2.19-4.28c-6.56-11.29-17.2-16.33-29.33-19.05-10-2.26-20.38-1.45-30.54-2.77C333.9,279.94,322.92,275.58,311.65,272.15Zm169,208.46a6.79,6.79,0,0,0-1.25,1c-1.31,2-2.51,4.12-3.87,6.1-9.75,14.23-19.45,27.85-36.92,34.6-25.88,10-50.7,5.91-75-3.47-10.86-4.19-20.2-12.22-27.8-21.57-2.46-3-3-7.41-6.66-9.63-3,4.16-6.07,8.11-8.75,12.33-5.47,8.59-7,17.32,2.11,26,5.55,5.32,12.16,9.08,18.77,12.87,7.48,4.28,15.58,7.38,22.87,12.07,15,9.65,28.73,20.54,38.54,36.17,11.36-15.14,25.1-26.82,40.91-36.39,7.72-4.67,15.92-8.45,23.41-13.49C487.81,523.27,493.11,502,480.66,480.61Zm38.51-208.12a10.11,10.11,0,0,0-2,.49c-16.37,8.41-33.6,13.21-52.17,12.4-8.22-.36-16.44-1-24.66-.93-12,.1-23,3.1-31.2,13.21,3.61,4.88,4.73,10.66,6.73,16.38,2.61-1.57,4.91-3.22,7.42-4.43,10.69-5.17,21.61-8.59,32.38-.55a54,54,0,0,0,10.66,6.36c8.12,3.59,9.42,6.14,8.82,14.93-.09,1.37-.35,2.63.63,4,7.68,10.69,12.45,22.8,17.06,35.69,8.68-.86,16.68,3.47,26.44,5.1,1.24,1.07,2.56,4.42,6.21,4.66,9.59-12.69,10.46-14.69,8.92-23.74a101.19,101.19,0,0,0-4-15.73c-4.44-13.11-9.1-26.21-10.73-40.08C518.66,291.09,519.72,281.88,519.17,272.49ZM564,439.63c-3.89-3.1-8.3-4-11.84-6.76-10.86-8.48-18.63-19.3-25.17-31.18a65.76,65.76,0,0,0-12.58-16.85c-5.49-5.09-11.52-9.35-20-8.45.65,9.08,1.38,17.84,1.87,26.61,1.13,19.87-.27,39.45-8.49,57.88-3,6.73-4.51,12.56-.42,19.71,3.39,5.93,4.55,13.09,5.79,19.75,5.22.46,9.61.41,13.38-2.58,5.82-4.62,11.75-9.14,16.32-15.12C534.88,466.86,546.57,450.74,564,439.63ZM318.53,371.48c-12.3-.75-20.43,3-26.29,12.5a204.92,204.92,0,0,0-10.69,19.53c-7.74,16.2-16.6,31.69-30.7,43.43-2.37,2-5.12,3.63-7.21,6.87a62,62,0,0,1,16.91,5.92c12.85,6.21,21.93,16.67,30.89,27.3,5.59,6.64,12,12.28,20.84,14.91,4-7.62,9.73-13.62,14.64-21.22C305.65,446.2,303.81,409.63,318.53,371.48Zm113.63,52.8c-2.82-6.9-7.86-11.76-13.08-15.95-15-12-30.73-23.14-45-36-11.4-10.3-21.94-21.29-25.71-37-.72-3-1.64-6.11-4-8.48-4.1.66-4,4.66-6,6.94-2.47,2.89-1.6,5.07,1.06,6.51,5.49,3,6,8.14,6.36,13.33.21,2.79-.34,5.62-.25,8.43.18,5.68,2.83,9.48,8.45,10.06,11.36,1.18,16.82,7.66,19.42,18.23,2.89,11.71,5.39,13.52,17.41,14.51,10.83.88,19.31,5.11,23.91,15.52a21.42,21.42,0,0,0,2.35,3.5C421.48,429.94,426.41,430.17,432.16,424.28Zm-29.34-88.57c-3.74-5.13-5.22-11.09-10-14.74s-10-5.16-15.53-6.11c-5.1-.87-13,1.27-16.39,4.69,5.56-1.81,9,.31,11.49,4.19s5.43,5.34,10.15,3.93c5.16-1.55,8.91,1,11.31,5.61.55,1.07.93,2.23,1.5,3.29,3.61,6.79,9.43,7.55,14.24,1.68a12,12,0,0,1,11.08-4.76c3.52.36,5.89-.76,6.79-4.33,1.67-6.54,6.29-8.92,12.57-9,1.89,0,3.78,0,6.52,0C432.55,311.57,416.07,317.47,402.82,335.71Zm16.83,68.4c4-5.68,8.46-8.37,14.06-9.34,5.26-.91,8.94-3.9,9.61-9.32,1.14-9.32,6.31-14.32,15.15-17.13,10.58-3.38,13.14-8.36,9.69-18.77a22.65,22.65,0,0,1,1.07-17.91c2.45-5.25.48-9-5.22-11.08,1,10.08-1.14,19.58-4.67,28.84-4.72,12.36-13.73,21.48-23,30.39a172.61,172.61,0,0,1-22.12,17.72ZM404.43,520.75c8,.08,16,2,23.27-2.9,20.77-14,26.31-34.37,24.09-58A67,67,0,0,1,438.29,498C429.79,509.43,417.34,515.4,404.43,520.75Z"/><path d="M358,141.71c18-10.92,38.75-19.63,44.12-43.77,3.32.5,4.77,2.46,5,4.89,1.88,21,18,28.48,34,36a84.37,84.37,0,0,0,8.5,2.94c3.32,1.14,4.14,3.83,2.07,6.1-14.76,16.12-12.4,35.61-11.21,54.91.14,2.2.23,4.41.43,6.61.15,1.61.62,3.35-1.35,4.15s-2.81-.79-4-1.85c-7-6.07-14.33-11.59-23.94-13.17-14.88-2.44-28.15,1.59-40.81,9.1-2.94,1.75-5.54,6.43-9.88,3.17s.15-6.49.95-9.6c3.57-13.8,7.39-27.54,5.74-42.05-.69-6-2-11.55-8.28-14.34C358.36,144.43,358,143.33,358,141.71Zm9.22,2c8.86,12.87,6,26.18,5,40.77,15.94-22.28,34.16-39,62-41.56-12.78-7.61-26-14-31-30.58C394.74,128,381.28,136.19,367.19,143.71Z"/><path d="M453.39,246.47c-1.74-5.31-1.21-10.34,1.46-14.39,2.95-4.47,5.53-9.18,8.48-13.65,11.06-16.72,24.9-30.27,42.27-40.26,2.57-1.48,4.64-2.44,7,2.13C485.43,195.41,466.42,218.15,453.39,246.47Z"/><path d="M292.24,180.52c1.39-3.49,3.89-2.38,6.46-.91,7.88,4.53,14.68,10.47,21.56,16.34,7.24,6.17,12.09,14.36,18.45,21.17a139.76,139.76,0,0,1,16.14,20.8c1.11,1.76,2.89,3.39,2.34,6.4-3.71-.25-5.31-3.16-7.21-5.47-7.61-9.25-15-18.66-22.75-27.79a123.59,123.59,0,0,0-32.39-27.55C293.83,182.93,292.6,182.5,292.24,180.52Z"/><path d="M469.39,180.47c-2.88-2.21-1.9-4.88-1.36-7.29,4.91-22.09,15.9-40.91,31.12-57.41,2.45-2.65,5-5.2,7.57-7.73,1.45-1.44,3.29-2,4.76-.32s.53,3.29-1,4.65c-16.75,15.38-28,34.34-36.2,55.34C472.69,171.89,472.62,176.75,469.39,180.47Z"/><path d="M343.36,179.81c-5.66-2.95-7.17-8.44-9.69-12.8-7.18-12.4-15.59-23.57-27.44-31.94-2.2-1.55-7.67-2.18-4.88-6.43,2.39-3.65,5.49.44,7.57,1.84,10.57,7.15,19.23,16.13,25.12,27.64,2.1,4.09,4.88,7.83,7.12,11.85C342.68,172.7,344.16,175.57,343.36,179.81Z"/><path d="M413.46,273.69c-5.89-7.1.5-32.63,11.17-48.4,1.88-2.77,3.07-7.44,9.33-5C423.45,236.87,417.69,255,413.46,273.69Z"/><path d="M365.81,221.94c4.06-1.28,6.83-.87,9.2,2.12,8.82,11.15,15.17,23.63,20.2,36.85a16.79,16.79,0,0,1,.93,3.47,9.5,9.5,0,0,1-.28,2.41c-3.78-.06-4.61-3.08-5.79-5.48-5.38-11-10.34-22.23-18-31.94C370.22,227,368.24,224.82,365.81,221.94Z"/><path d="M400.18,248c-2.3-1.27-2.28-3.57-2.3-5.75-.11-10.46-.14-20.91-.23-31.37,0-1.78.37-3.32,2.44-3.45a2.79,2.79,0,0,1,3.07,3c-.12,11.62,1.5,23.3-.9,34.86C402,246.47,401.66,247.61,400.18,248Z"/><path class="a" d="M480.66,480.61c12.45,21.36,7.15,42.66-13.65,56.63-7.49,5-15.69,8.82-23.41,13.49-15.81,9.57-29.55,21.25-40.91,36.39-9.81-15.63-23.57-26.52-38.54-36.17-7.29-4.69-15.39-7.79-22.87-12.07-6.61-3.79-13.22-7.55-18.77-12.87-9.08-8.7-7.58-17.43-2.11-26,2.68-4.22,5.78-8.17,8.75-12.33,3.67,2.22,4.2,6.6,6.66,9.63,7.6,9.35,16.94,17.38,27.8,21.57,24.31,9.38,49.13,13.47,75,3.47,17.47-6.75,27.17-20.37,36.92-34.6,1.36-2,2.56-4.08,3.87-6.1A6.79,6.79,0,0,1,480.66,480.61Z"/><path class="a" d="M519.17,272.49c.55,9.39-.51,18.6.57,27.75,1.63,13.87,6.29,27,10.73,40.08a101.19,101.19,0,0,1,4,15.73c1.54,9.05.67,11.05-8.92,23.74-3.65-.24-5-3.59-6.21-4.66-9.76-1.63-17.76-6-26.44-5.1-4.61-12.89-9.38-25-17.06-35.69-1-1.36-.72-2.62-.63-4,.6-8.79-.7-11.34-8.82-14.93a54,54,0,0,1-10.66-6.36c-10.77-8-21.69-4.62-32.38.55-2.51,1.21-4.81,2.86-7.42,4.43-2-5.72-3.12-11.5-6.73-16.38,8.21-10.11,19.19-13.11,31.2-13.21,8.22-.07,16.44.57,24.66.93,18.57.81,35.8-4,52.17-12.4A10.11,10.11,0,0,1,519.17,272.49Z"/><path class="a" d="M311.65,272.15c11.27,3.43,22.25,7.79,34.09,9.34,10.16,1.32,20.49.51,30.54,2.77,12.13,2.72,22.77,7.76,29.33,19.05a39.21,39.21,0,0,1,2.19,4.28c3.11,7.41,2.67,9.73-3.47,16.42-1.61-3.63-4.1-6.37-6.58-9.13-9.37-10.42-31.84-16.37-45.12-5.69-6.64,5.34-11.35,13-18,18.64-1.64,1.4-1.05,3.75-1.27,5.71-.85,7.71-2.31,10.47-5.09,18.06-.2.56-.66,1-.85,1.59-2.94,8.53-7.18,14.1-18,13.21-6.75-.56-13.29,3.92-20.09,7-5.16-9.66-5.58-19.4-1.27-29.32A201.23,201.23,0,0,1,297.68,326c9-16,14.42-33,13.59-51.66a9.48,9.48,0,0,1,.46-2.3Z"/><path class="a" d="M564,439.63c-17.39,11.11-29.08,27.23-41.13,43-4.57,6-10.5,10.5-16.32,15.12-3.77,3-8.16,3-13.38,2.58-1.24-6.66-2.4-13.82-5.79-19.75-4.09-7.15-2.58-13,.42-19.71,8.22-18.43,9.62-38,8.49-57.88-.49-8.77-1.22-17.53-1.87-26.61,8.47-.9,14.5,3.36,20,8.45A65.76,65.76,0,0,1,527,401.69c6.54,11.88,14.31,22.7,25.17,31.18C555.66,435.63,560.07,436.53,564,439.63Z"/><path class="a" d="M318.53,371.48c-14.72,38.15-12.88,74.72,8.39,109.24-4.91,7.6-10.61,13.6-14.64,21.22-8.88-2.63-15.25-8.27-20.84-14.91-9-10.63-18-21.09-30.89-27.3a62,62,0,0,0-16.91-5.92c2.09-3.24,4.84-4.9,7.21-6.87,14.1-11.74,23-27.23,30.7-43.43A204.92,204.92,0,0,1,292.24,384C298.1,374.49,306.23,370.73,318.53,371.48Z"/><path class="a" d="M432.16,424.28c-5.75,5.89-10.68,5.66-15.05-.44a21.42,21.42,0,0,1-2.35-3.5c-4.6-10.41-13.08-14.64-23.91-15.52-12-1-14.52-2.8-17.41-14.51-2.6-10.57-8.06-17.05-19.42-18.23-5.62-.58-8.27-4.38-8.45-10.06-.09-2.81.46-5.64.25-8.43-.39-5.19-.87-10.36-6.36-13.33-2.66-1.44-3.53-3.62-1.06-6.51,2-2.28,1.9-6.28,6-6.94,2.32,2.37,3.24,5.5,4,8.48,3.77,15.72,14.31,26.71,25.71,37,14.28,12.89,30,24,45,36C424.3,412.52,429.34,417.38,432.16,424.28Z"/><path class="a" d="M402.82,335.71c13.25-18.24,29.73-24.14,43.74-15.52-2.74,0-4.63,0-6.52,0-6.28.05-10.9,2.43-12.57,9-.9,3.57-3.27,4.69-6.79,4.33a12,12,0,0,0-11.08,4.76c-4.81,5.87-10.63,5.11-14.24-1.68-.57-1.06-.95-2.22-1.5-3.29-2.4-4.62-6.15-7.16-11.31-5.61-4.72,1.41-7.67,0-10.15-3.93s-5.93-6-11.49-4.19c3.36-3.42,11.29-5.56,16.39-4.69,5.57.95,10.9,2.58,15.53,6.11S399.08,330.58,402.82,335.71Z"/><path class="a" d="M419.65,404.11l-5.46-6.6a172.61,172.61,0,0,0,22.12-17.72c9.3-8.91,18.31-18,23-30.39,3.53-9.26,5.66-18.76,4.67-28.84,5.7,2.12,7.67,5.83,5.22,11.08a22.65,22.65,0,0,0-1.07,17.91c3.45,10.41.89,15.39-9.69,18.77-8.84,2.81-14,7.81-15.15,17.13-.67,5.42-4.35,8.41-9.61,9.32C428.11,395.74,423.66,398.43,419.65,404.11Z"/><path class="a" d="M404.43,520.75c12.91-5.35,25.36-11.32,33.86-22.72a67,67,0,0,0,13.5-38.21c2.22,23.66-3.32,44.06-24.09,58C420.45,522.72,412.41,520.83,404.43,520.75Z"/><path class="a" d="M311.73,272c-.38.32-.62.25-.68-.22,0,0,.27-.13.31-.09a1.62,1.62,0,0,1,.29.43Z"/><path class="a" d="M367.19,143.71c14.09-7.52,27.55-15.75,36-31.37,4.93,16.53,18.17,23,31,30.58-27.81,2.53-46,19.28-62,41.56C373.18,169.89,376.05,156.58,367.19,143.71Z"/><path class="a" d="M339.14,323.05a56.62,56.62,0,0,0-6.75,16.63l-5.47-5.3,3-13.26Z"/><path class="a" d="M508.93,372.57s8.84,2.32,13.93,6.35v-4.08l-8.34-6.07Z"/></svg>