<svg id="Layer_1" data-name="Layer 1" xmlns="http://www.w3.org/2000/svg" viewBox="0 0 800 800"><defs><style>.cls-2,.cls-3,.cls-5,.cls-8{stroke:red}.cls-2,.cls-3,.cls-8{stroke-miterlimit:10}.cls-2,.cls-5{stroke-width:5px}.cls-2,.cls-3,.cls-5{fill:#fff}.cls-3,.cls-8{stroke-width:3px}.cls-8{fill:none}.cls-5{stroke-linecap:round;stroke-linejoin:bevel}</style></defs><ellipse cx="400" cy="399.46" rx="122.59" ry="259.69" stroke-width="5" stroke-miterlimit="10" stroke="red" fill="red"/><ellipse class="cls-2" cx="400" cy="399.46" rx="107.53" ry="243.56"/><ellipse class="cls-3" cx="400" cy="399.46" rx="97.33" ry="233.35"/><path class="cls-2" d="M279 400c78.8 92 121 277.75 121 277.75S442.2 492 521 400c-78.8-91.95-121-277.75-121-277.75S357.8 308.05 279 400z"/><path d="M388.29 354.14v167.72s0 43.46 11.71 59.08c11.71-15.62 11.71-59.08 11.71-59.08V354.14" stroke-linecap="round" fill="none" stroke-width="5" stroke-miterlimit="10" stroke="red"/><path class="cls-5" d="M411.81 349.45a733.61 733.61 0 0 0-1.36-124.32 12 12 0 0 0-20.85 0 733.61 733.61 0 0 0-1.36 124.32"/><path d="M401.13 357.5s-8.67 26.75-3.23 54.81c5.4 27.89 4 41.77 0 73.34s-1.87 48.44 0 61.11 3.47 18.63 1.07 34.35c0 0-12.78-29-12.78-68.75s1.69-91 1.69-91v-60.43z" stroke-linejoin="bevel" stroke-linecap="round" stroke-width="3" stroke="red" fill="red"/><path d="M389.64 226.73s13.45-6 14 8.05a1006.65 1006.65 0 0 1 1.08 114.67l-15.11-3.25-1.22-61.1v-35.91z" stroke-width="2" stroke-linejoin="bevel" stroke-linecap="round" stroke="red" fill="red"/><path class="cls-5" d="M400 357.54c-20.88 0-30.05 12.9-30.05 12.9s5.77-23.09 30.05-23.09h.05c20.88 0 30.05-12.91 30.05-12.91s-5.77 23.09-30.05 23.09z"/><path class="cls-3" d="M343.03 346.77l-64 53.23 74.76-.54"/><path class="cls-8" d="M311.44 354.14s-4.06 12.94 10 10.57c0 0-12.31 25.07 7.58 34.75M301.18 370.44s-1.87 5.75 5.74 6.36c0 0-10.3 15.14 0 23.2M292.47 388.83s-4 7.41 2.17 10.9"/><path class="cls-3" d="M343.03 452.69l-64-53.23 74.76.54"/><path class="cls-8" d="M321.47 462.94s4.9-16.16 21.56-10.25c0 0-26.88-37.64 10.76-52.69v-.54c-37.64-15-10.76-52.69-10.76-52.69-16.66 5.92-21.56-10.25-21.56-10.25"/><path class="cls-8" d="M311.44 445.32s-4.06-12.94 10-10.57c0 0-12.31-25.07 7.58-34.75M301.18 429s-1.87-5.74 5.74-6.36c0 0-10.3-15.13 0-23.2M292.47 410.64s-4-7.41 2.17-10.91"/><path class="cls-3" d="M456.97 346.77l64 53.23-74.76-.54"/><path class="cls-8" d="M488.56 354.14s4.06 12.94-10 10.57c0 0 12.31 25.07-7.58 34.75M498.82 370.44s1.87 5.75-5.74 6.36c0 0 10.3 15.14 0 23.2M507.53 388.83s4 7.41-2.17 10.9"/><path class="cls-3" d="M456.97 452.69l64-53.23-74.76.54"/><path class="cls-8" d="M478.53 462.94s-4.9-16.16-21.56-10.25c0 0 26.88-37.64-10.76-52.69v-.54c37.64-15 10.76-52.69 10.76-52.69 16.66 5.92 21.56-10.25 21.56-10.25"/><path class="cls-8" d="M488.56 445.32s4.06-12.94-10-10.57c0 0 12.31-25.07-7.58-34.75M498.82 429s1.87-5.74-5.74-6.36c0 0 10.3-15.13 0-23.2M507.53 410.64s4-7.41-2.17-10.91M393.43 195.44a6.6 6.6 0 0 0 13.2 0c0-3.65-6.6-21.59-6.6-21.59s-6.6 17.94-6.6 21.59zM393.43 617a6.6 6.6 0 0 0 13.2 0c0-3.65-6.6-21.59-6.6-21.59s-6.6 17.91-6.6 21.59z"/></svg>