<svg id="Layer_1" data-name="Layer 1" xmlns="http://www.w3.org/2000/svg" viewBox="0 0 800 800"><defs><style>.cls-1,.cls-2{fill:#fff}.cls-1,.cls-2,.cls-5,.cls-6{stroke:#00f;stroke-linejoin:bevel}.cls-1,.cls-5,.cls-6{stroke-width:5px}.cls-2{stroke-width:3px}.cls-6{fill:#00f}.cls-5{fill:none}</style></defs><path class="cls-1" d="M400 677.16s52.38-64.62 101.41-74.16c0 0 8.37-120 46-203.3-37.66-83.34-46-203.31-46-203.31-49-9.53-101.44-74.15-101.44-74.15s-52.4 64.62-101.44 74.15c0 0-8.36 120-46 203.31 37.67 83.33 46 203.3 46 203.3C347.57 612.54 400 677.16 400 677.16z"/><path class="cls-2" d="M400 658.71s-47.69-60.33-92.31-69.22c0 0-7.61-112-41.89-189.78 34.28-77.8 41.89-189.79 41.89-189.79C352.28 201 400 140.71 400 140.71s47.69 60.32 92.31 69.21c0 0 7.62 112 41.89 189.79-34.27 77.79-41.89 189.78-41.89 189.78-44.65 8.89-92.31 69.22-92.31 69.22z"/><ellipse cx="399.75" cy="400.08" rx="100.38" ry="218.14" fill="#00f" stroke-width="3" stroke="#00f" stroke-linejoin="bevel"/><ellipse class="cls-2" cx="399.75" cy="400.08" rx="86.91" ry="202.69"/><ellipse class="cls-2" cx="399.75" cy="400.08" rx="76.6" ry="190"/><path class="cls-1" d="M471.39 546.43l8.85 18.08M319.26 564.51l8.26-16.87M299.37 195.02l27.99 57.18M472.15 252.2l27.98-57.18M304 400.08h-51.5M547.5 400.08H496M399.75 122.25v59.69M299.37 604.98l27.99-57.18M472.15 547.8l27.98 57.18M399.75 677.75v-59.69M399.75 618.22v14.4"/><path d="M387.09 311c-8.24 15.55-16.51 32.57-16.32 51.7.08 7.8 1.6 15.44 3.41 22.84a259.91 259.91 0 0 0 9.19 29.85c10.48 27.85 25.91 54.49 26 85.84 0 24.39-9.39 46.66-18.53 67.57" stroke-linecap="round" fill="none" stroke-width="5" stroke="#00f" stroke-linejoin="bevel"/><path class="cls-5" d="M381.58 306.75c5.61 7.67 16.25 10.63 25.53 8.62s17.22-8.31 22.93-15.9 9.26-17.5 12.71-26.35c-8.88-5.69-20.41-8.45-30.57-5.63"/><path class="cls-5" d="M382.86 308.45c-6.15-7.12-6.94-17.9-5.71-26 2.09-13.78 11.05-25.64 22-34.31 8.21 5.78 12.68 16.17 12.54 26.21s-4.55 19.73-11.08 27.35c-3.66 4.26-10.49 8.12-16.07 8.74"/><path class="cls-5" d="M405.91 254.74c5.93-1.61 12.42-1.78 18.09.59s10.33 7.55 11.1 13.65"/><path class="cls-6" d="M370.77 356.64s-.65-17.8-12.76-26c0 0-7.34 24.5 13.42 40.91M389 429.4s-3.22-16.16 3.19-30.4c0 0 11.77 15.16 2 42.64M408.71 512.26s-15.59-8.78-15.59-30.67c0 0 11.88 6.05 16.13 23.56"/><path d="M425.48 320.47a109.81 109.81 0 0 1 7.07 20.08c.85 3.47 2 7.33 1.77 10.91-.23 4.43-5.33 11.71-9.3 5.39-3.42-5.45 1.61-13.84 2.93-19.34a66.61 66.61 0 0 0 1.72-18.18c-.11-2.89-4.61-2.9-4.5 0a61.78 61.78 0 0 1-1.56 17c-1.17 4.87-3.52 9.55-4.06 14.56-.62 5.86 2.78 13.35 9.67 12.93 7.64-.48 10.14-9 9.44-15.3-1.15-10.45-4.89-20.82-9.3-30.3-1.22-2.65-5.1-.37-3.88 2.25z" fill="#00f"/></svg>