<svg xmlns="http://www.w3.org/2000/svg" viewBox="0 0 800 800"><defs><style>.cls-2{fill:#00f}.cls-3{mix-blend-mode:darken}.cls-4{fill:red}</style></defs><g style="isolation:isolate"><g id="Layer_1" data-name="Layer 1"><path class="cls-2" d="M189.37 393.39c17.64-20.29 46.5-29.83 72.71-23.14 14.8 3.77 27.78 12.29 42.17 17.19a86 86 0 0 0 42.3 3.3c28.37-4.93 55.58-26 85.32-17.61 13.52 3.81 25.26 12.08 38.69 16.16 14 4.25 28.49 2.4 42.21-2 30.27-9.69 65.82-35.54 97.84-17.11a1.5 1.5 0 0 0 1.51-2.59c-26.08-15-55.94-1.3-80.83 9.36-15.55 6.66-32.32 13.26-49.58 11.55-15-1.49-27.76-10.17-41.46-15.66-13.2-5.3-26.59-5.72-40.32-2.31-14.66 3.64-28.33 10.32-42.8 14.58-16.25 4.78-33.27 5.25-49.55.24-14.94-4.6-28.2-13.46-43.29-17.64-27.53-7.63-58.38 2.07-77 23.54-1.26 1.45.85 3.58 2.12 2.12z"/><g class="cls-3"><path class="cls-4" d="M487.52 410.68c9.6 1.52 19.39-2 27.65-7.08 23.44-14.55 37.1-43.44 33.47-70.78s-24.37-51.67-50.8-59.58c-8.95-2.68-18.34-3.6-27.68-3.95s-19-.12-27.87 3.08c-14.27 5.17-25 17.71-30.75 31.76s-7 29.53-6.76 44.7c.13 8.53.75 17.21 3.75 25.2 9.24 24.52 37.75 35.66 63.74 39 11.57 1.49 23.52 2 34.71-1.28s30.54-24.06 36.17-41.19"/></g><g class="cls-3"><path class="cls-4" d="M430.92 350.79c-.35-.06-.7-.13-1.06-.18-28.14-4.35-53.69 12.62-80.76 16.82a72.87 72.87 0 0 1-37.37-4.12c-12.91-4.82-24.92-11.84-38.11-15.94a64.41 64.41 0 0 0-17.42-2.87c-7.33 8.77-13.54 18.32-17 27.3a104.3 104.3 0 0 0-10.87 55.85c3.8 41 34 78.52 74.08 92.07 13.56 4.58 27.9 6.57 42.21 7.72s29.18 1.45 43-2.72c22.23-6.74 39.53-24.69 49.25-45.21s12.65-43.47 13.27-66.07c.35-12.71 0-25.67-4.13-37.76a69.28 69.28 0 0 0-15.09-24.89z"/></g><path class="cls-2" d="M187.77 369.9c25.84-15.87 54.72-32.19 85.85-22.53 13.19 4.1 25.2 11.12 38.11 15.94a72.87 72.87 0 0 0 37.37 4.12c27.07-4.2 52.62-21.17 80.76-16.82 15.36 2.37 29.39 9.81 44.54 13.08a122.51 122.51 0 0 0 43.28 1.44c17.17-2.48 32.57-10.13 49.2-14.51 15.27-4 33.43-4 45 8.26 1.34 1.4 3.45-.73 2.13-2.13-20.24-21.32-51-8.05-74.1-.21a123 123 0 0 1-49.54 6.5c-17.07-1.37-32.13-7.81-48.33-12.64a77.14 77.14 0 0 0-40-1.19c-13.86 3.12-27 8.65-40.68 12.43-14.26 3.93-28.48 5.19-42.81.85-13.67-4.16-26.12-11.56-39.55-16.49a73.2 73.2 0 0 0-46.2-1.61c-16.7 4.8-31.82 13.86-46.52 22.89-1.64 1-.14 3.61 1.51 2.59zM347.66 223.32a95.66 95.66 0 0 1-57.06 17.44c-18.87-.36-44.68-6.07-55.1-23.57a1.5 1.5 0 0 0-2.59 1.51c10.51 17.66 35.42 24 54.58 25a98.52 98.52 0 0 0 61.68-17.74c1.57-1.1.07-3.71-1.51-2.59z"/><path class="cls-2" d="M247.48 231.2c-4.69 7.72-8.17 17.3-8.83 26.34-.5 6.88 1.79 17.08 10 18.27 6.24.9 9.7-4.78 8.93-10.39-.54-3.92-3-7.14-5-10.47a21.68 21.68 0 0 1-1.2-19.95c.76-1.76-1.83-3.29-2.59-1.52a25.16 25.16 0 0 0-1.71 15.79c1.39 6 6.83 10.66 7.53 16.72.21 1.8 0 4.23-1.4 5.61-4.12 4-8.46-.78-10-3.82-2.19-4.34-1.91-9.71-1-14.34a64.35 64.35 0 0 1 7.86-20.77c1-1.65-1.58-3.16-2.59-1.51zM278.08 241.2a43.14 43.14 0 0 0-5.41 27.32c.9 6.36 3.89 14.27 11.37 14.78 6.24.44 9.83-5.09 8.14-10.85-1.32-4.51-5.08-7.91-7.19-12.05a36.14 36.14 0 0 1-3.81-18.14c.08-1.93-2.92-1.93-3 0a39.07 39.07 0 0 0 3 17.18c1.94 4.51 12.8 15.71 6.48 20.12-3.75 2.61-8.17-.87-9.91-4s-2.29-7.09-2.48-10.61a40.42 40.42 0 0 1 5.36-22.2 1.5 1.5 0 0 0-2.59-1.51zM306.33 243c-.95 9.41-5.86 40.72 12.46 38.22 6.2-.84 8.14-7.26 5.73-12.51-4.25-9.28-15.65-14.16-14-26.05.26-1.89-2.63-2.71-2.89-.8a20.87 20.87 0 0 0 3.37 14.36c3.4 5.47 11.57 10.78 11.1 17.47-.22 3.06-1.57 4.52-4.68 4.65a7.75 7.75 0 0 1-5.38-2.22c-2.78-2.67-3.49-7-3.77-10.65-.6-7.45.3-15 1.05-22.45.19-1.92-2.81-1.9-3 0zM333.84 233c1.26 9.35-2.09 19.36 1.63 28.37 2.34 5.68 8.41 11.15 15 9.29 6.06-1.72 6.35-8.7 3.23-13.23-2.36-3.41-6.05-5.58-8.82-8.62a24.08 24.08 0 0 1-6.72-16.23 1.5 1.5 0 0 0-3 0 26 26 0 0 0 5.3 15.56c3.26 4.42 12.48 9.31 12.11 15.24-.46 7.44-8.82 4.3-11.78 1s-3.9-8-4.08-12.39c-.26-6.65.93-13.16 0-19.8-.25-1.9-3.14-1.09-2.89.8z"/><path class="cls-4" d="M259.22 198.4c-.87 7.9-2.1 26.66 10.16 26.82 12.56.17 9.78-19.29 9.65-26.8a1.34 1.34 0 0 0-2.68 0c.11 6.29 2.92 24-7 23.92s-8.14-17.55-7.44-23.94c.19-1.71-2.5-1.7-2.68 0zM282.91 199.25a77.06 77.06 0 0 1 .48 25c-.24 1.69 2.35 2.42 2.59.71a81.28 81.28 0 0 0-.48-26.41c-.31-1.7-2.9-1-2.59.71z"/><path class="cls-4" d="M285.66 200c3.31-.51 9.22-1.55 11.46 1.85 3.82 5.77-3 9-7.52 9.93a1.35 1.35 0 0 0-.59 2.24 23.06 23.06 0 0 1 7 9c.7 1.57 3 .21 2.32-1.36a24.52 24.52 0 0 0-7.43-9.53l-.59 2.25c5.32-1.15 12.76-5.07 10.34-11.82-2.33-6.48-10.27-6-15.71-5.14-1.7.27-1 2.86.71 2.59zM323.93 203.57c-1.06-6.9-14.32-8.29-14.83-.61-.28 4.19 3.1 6.67 6.44 8.36 2.09 1.06 5.35 2 6.76 4 4.15 5.83-10.54 12.2-12.67 4.88a1.34 1.34 0 0 0-2.59.72c2.41 8.27 15.24 5.41 18.37-.89 1.72-3.46-.4-6.29-3.23-8.23-2-1.4-4.4-2.15-6.49-3.42-1.59-1-4.21-2.67-3.94-4.94.61-5.14 9-2.79 9.59.83.26 1.7 2.85 1 2.59-.71zM306.51 199.34a11.52 11.52 0 0 0-.39-3.79 1.34 1.34 0 0 0-2.59.71 9.12 9.12 0 0 1 .29 3.08 1.35 1.35 0 0 0 1.34 1.34 1.38 1.38 0 0 0 1.35-1.34z"/><path class="cls-2" d="M368.15 534.94a43.85 43.85 0 0 1-4.39 24.55c-.86 1.72 1.73 3.25 2.59 1.52a46.78 46.78 0 0 0 4.8-26.07c-.2-1.9-3.2-1.92-3 0zM386.28 534.67a76 76 0 0 1 4.45 34.9c-.21 1.92 2.79 1.91 3 0a77.81 77.81 0 0 0-4.56-35.7c-.67-1.79-3.57-1-2.89.8zM408.41 529.05a50.33 50.33 0 0 1 7.89 23.88c.13 1.91 3.13 1.93 3 0a53.66 53.66 0 0 0-8.3-25.4c-1-1.62-3.62-.12-2.59 1.52zM459.35 420a47.91 47.91 0 0 0 25.1 10.08c1.92.19 1.9-2.81 0-3a44.15 44.15 0 0 1-23-9.2c-1.51-1.17-3.65.93-2.13 2.12zM458.62 430.53a81.09 81.09 0 0 1 5 40.66c-.26 1.89 2.63 2.71 2.89.8a83.93 83.93 0 0 0-5-42.26c-.69-1.77-3.59-1-2.89.8zM475 441.56a36.12 36.12 0 0 0 16.76 6.25c1.91.22 1.89-2.79 0-3a32.92 32.92 0 0 1-15.25-5.81c-1.59-1.1-3.09 1.5-1.52 2.6z"/><path class="cls-4" d="M427.15 488.66c14.66 15.35 21 36.17 22.52 57a228.87 228.87 0 0 1-.44 32.81c-.52 7-1 15 5.28 19.77 12.21 9.29 29.85.66 30.55-14.25.41-8.59-3.18-17.12-6.18-25a259.15 259.15 0 0 0-11-25.16C458.3 515 446 497.68 429.92 483.89c-1.46-1.25-3.59.86-2.12 2.13 25.32 21.79 42.63 53.44 52.23 85.18 2.59 8.58 4.06 20-5 25.36-8.25 4.9-21.3 2-22.88-8.46-1.28-8.54.74-17.92.89-26.54a158.9 158.9 0 0 0-1.69-27.48c-2.77-17.59-9.68-34.55-22.09-47.54-1.33-1.4-3.45.72-2.12 2.12z"/><g class="cls-3"><path class="cls-2" d="M458 535.36c7.37 15.36 14.18 30.83 18.5 46.83 1.76 6.51 3.2 13.5-.14 19.54-1.56 2.81-5 5.53-8.93 4.88-4.15-.7-5.89-4.57-6.39-7.84-1.55-10.09 1.21-20.18 1.41-30.32.22-11-1.66-22.24-4.45-33.09z"/><path class="cls-2" d="M456.7 536.12a330.18 330.18 0 0 1 14.52 34.12 124.37 124.37 0 0 1 5 17.3c1.09 5.63.52 20-8.92 17.27-6.53-1.91-5.43-12-5.06-17.4.41-6 1.45-12 1.66-18 .4-11.62-1.64-23.21-4.48-34.44-.47-1.87-3.36-1.08-2.89.8a136.79 136.79 0 0 1 4.25 25.33c.49 8.25-.69 16.24-1.39 24.43-.63 7.36-1.07 26.27 11.9 22.23 12.33-3.83 8.23-20.68 5.63-29.51-4.43-15.08-10.88-29.48-17.65-43.64-.81-1.75-3.4-.23-2.57 1.51z"/></g></g></g></svg>