<svg xmlns="http://www.w3.org/2000/svg" viewBox="0 0 800 800"><defs><style>.a{fill:#fca14f}.b{fill:#e83131}.c{fill:#fff}</style></defs><path d="M528.7 368.24c-.28 7.09-.35 14.59-1 22.05-.4 4.8-1.6 9.53-2.44 14.3-.73 4.1-1.15 8.27-2.24 12.27-2.09 7.6-4.27 15.21-6.94 22.62-2.85 7.94-6.25 15.69-9.53 23.48-1 2.28-2.33 4.38-3.48 6.58-.9 1.75-.61 2.77 1.59 3.16 7 1.24 14 2.28 20.82 4.07a158.88 158.88 0 0 1 20.78 6.85c7.9 3.26 15.56 7.13 23.13 11.11a54 54 0 0 1 9.79 7c9.55 8.23 19.43 16.17 28.27 25.12a114.87 114.87 0 0 1 21.59 30.44c1.62 3.34 3 6.81 4.51 10.19 2.78 6.13 2.67 12.73 2.91 19.2.27 7.43-3.38 13.67-7.77 19.26-4.09 5.2-8.84 9.88-13.2 14.87-5.82 6.64-11.77 13-15.19 21.59-2.19 5.48-6.29 10.55-10.58 14.74-3.2 3.12-7.93 4.47-13 3.8-9.84-1.31-17-7.61-24.85-12.62q-4-2.56-8.14-5c-5.1-3-10.18-6.1-15.34-9a109.25 109.25 0 0 0-26.92-10.62c-8.74-2.24-17.72-3.82-26.74-2.58-6.53.9-12.95 2.78-19.33 4.55-4.65 1.29-9.16 3.08-13.7 4.73-4.95 1.8-9.95 3.5-14.76 5.61-9.63 4.23-19.07 8.89-28.74 13-4.57 1.95-9.5 3-14.26 4.56-2.1.67-4.12 1.71-6.27 2.18a59.84 59.84 0 0 1-11 1.78c-6.22.2-12.53.42-18.66-.44-9.29-1.3-18.46-3.52-27.68-5.35a13.16 13.16 0 0 0-2-.41c-3-.13-3.58.9-2.34 3.65 1.87 4.17 4 8.25 5.49 12.56 3 8.82 2.63 17.7-2.23 25.73-3.33 5.5-8.76 9.23-15.29 9.45-5.33.18-10.77-1.14-15-5.09-2.9-2.72-6-5.13-7.94-8.91a43.38 43.38 0 0 1-5-19.09 18.77 18.77 0 0 0-1.1-4.17 30.84 30.84 0 0 0-3.57 2.57 69.2 69.2 0 0 0-4.84 5.15c-4.27 5-7.11 10.82-10.28 16.48a85.35 85.35 0 0 1-6.7 9.43 4.17 4.17 0 0 1-2.14 1.2c-9.86 2.64-20.32-2-21.07-13.49-.23-3.59-.37-7.22-.95-10.76a24.08 24.08 0 0 0-8.87-15.1c-4.85-3.91-10-7.41-15-11.17a124.25 124.25 0 0 1-22.7-21.79c-2.57-3.24-5.64-6.08-7.14-10.08-1-2.58-2.07-5.12-3.16-7.65a60.58 60.58 0 0 1-5-27.68c.44-7.14 2.22-14.25 4-21.22a192.63 192.63 0 0 1 6.31-18.88c.7-1.86 9.17-14 12.27-18.2a121.13 121.13 0 0 1 10.21-12.56c3-3.15 6.79-5.61 10.22-8.38a27.16 27.16 0 0 0 2.86-2.36c1.78-1.85 8.65-6.43 10-7.32a203 203 0 0 1 23.75-13.53c5.48-2.67 10.81-5.64 16.3-8.29 5.69-2.74 11.46-5.31 17.25-7.81 1.73-.75 2.28-1.27 1.41-3.29-3.12-7.27-4.63-15-6.16-22.74-.48-2.44-1.19-4.83-1.68-7.27-2.42-12-2.64-24.13-1.82-36.31.32-4.68.31-9.39.64-14.08a58.28 58.28 0 0 1 1.24-9.41c2.4-10.24 4.67-20.52 7.64-30.6 2.78-9.41 6.11-18.69 9.7-27.83 3.19-8.11 7.06-15.95 10.63-23.91 2-4.52 3.88-9.12 6.09-13.55s4.57-8.47 7-12.59 5.26-8 7.78-12.1c8.84-14.24 17.59-28.54 26.44-42.77 4.5-7.23 9.6-14.12 13.61-21.6 2.52-4.72 5.51-9.12 8-13.79 7.23-13.32 14.12-26.82 19.46-41 3.28-8.7 6.33-17.5 6.1-27a27.43 27.43 0 0 1 .35-4.14 2.88 2.88 0 0 1 3.23-2.6c.86.07 2 1.35 2.35 2.33 3.95 10.6 7.47 21.37 11.69 31.86a210.38 210.38 0 0 0 20.2 38.08c7.37 11.07 14.53 22.29 22.25 33.11 5.63 7.88 12.07 15.18 18 22.84 4.67 6 9.22 12.14 13.71 18.3 3.68 5 7.43 10.06 10.72 15.35 5.84 9.41 11.49 19 15.7 29.26 1.63 4 3.74 7.79 5 11.87 2.79 8.85 5.21 17.81 7.74 26.74 4.03 13.23 4.43 26.95 5.01 41.06zM417.39 182.66c3.24 5.64 6.15 11.5 9.81 16.86 4.28 6.27 9.27 12.06 13.85 18.13 6.49 8.6 12.88 17.29 19.36 25.9.82 1.1 1.95 1.95 2.85 3 1.09 1.24 2.15 2.52 3.12 3.86 1.38 1.91 2.49 4 4 5.79 5.53 6.32 9.54 13.65 13.21 21.05 5.32 10.71 8.06 22.4 10.4 34 1.39 6.84 1.29 14 1.39 21.06a79.53 79.53 0 0 1-1.24 12.37c-1.1 7.67-2.06 15.38-3.67 22.95-1.34 6.33-3.49 12.49-5.33 18.7a92.27 92.27 0 0 1-3.4 10.67c-2.71 6.19-5.59 12.33-8.8 18.27-3.74 6.92-7.68 13.75-12 20.35-3.08 4.74-6.8 9.09-10.33 13.53-1.63 2-3.51 3.86-5.27 5.79l-9.74 10.68c6.13 1.08 11.67 2.15 17.24 3a5.37 5.37 0 0 0 5.49-1.94c4.76-5.92 10-11.5 14.64-17.49 8.21-10.53 14.72-22.15 20.4-34.19 3-6.38 6-12.88 7.92-19.65 3.29-11.85 7.08-23.66 7.77-36.08q.54-10 .79-19.93c.2-7.81-1.16-15.44-2.44-23.12a114.62 114.62 0 0 0-4.45-19.4c-1.56-4.45-3.33-8.83-5-13.25-3.44-9.24-7.18-18.4-12.68-26.6-5.86-8.75-12.28-17.12-18.54-25.59-3.78-5.12-7.73-10.13-11.61-15.18-4.9-6.35-10.13-12.47-14.64-19.09-7.23-10.63-13.8-21.72-21-32.36-5.77-8.51-8.3-18.68-14.42-27a2.67 2.67 0 0 1-.28-.78c-1.59-4.71-3.15-9.43-4.8-14.13a31.62 31.62 0 0 0-1.86-3.57c-.54 1.36-.88 2.1-1.12 2.86-.85 2.75-1.52 5.56-2.54 8.24-1.37 3.61-3 7.1-4.54 10.66-.32.75-.45 1.6-.81 2.33-5.32 10.64-10.54 21.37-16.12 31.88-3.58 6.7-7.67 13.14-11.69 19.6-2.63 4.22-5.68 8.18-8.29 12.42-3.86 6.25-7.42 12.68-11.24 19-1.87 3.07-4.19 5.87-6.06 8.94-2.75 4.48-5.06 9.24-7.94 13.63-11.32 17.29-19.08 36.28-26.59 55.38-1.55 3.95-2 8.32-3.07 12.47s-2.66 7.9-3.19 12c-1.11 8.51-2.36 17.1-2.29 25.65.11 15.23.9 30.44 6.24 45.05 2.61 7.15 3.91 14.84 7.89 21.4 3 5 4.7 10.81 9.33 14.81 6.4 5.51 12.84 11 19 16.74 9 8.41 19.69 14.41 30.23 20.41 13 7.4 27.29 12 41.78 15.89 8.14 2.21 16 5.46 24 8.13 5.25 1.74 10.52 3.43 15.85 4.89 8 2.2 16.09 4 24.07 6.28 7.19 2 14.21 4.67 21.42 6.62a217.09 217.09 0 0 1 44.45 17.2c2.69 1.42 5.56 2.65 7.92 4.5 7.53 5.89 15 11.89 22.22 18.13 8.27 7.14 15.07 15.48 18.94 25.89a129.06 129.06 0 0 1 4.59 13.35c2.36 9.28 3.3 18.6-1.18 27.65-1.66 3.34-3.18 6.74-4.73 10.13a36.77 36.77 0 0 0-2.8 12.82 16.6 16.6 0 0 0 8-9c1.68-4.95 2.61-10.14 4.08-15.16a77.73 77.73 0 0 1 4.17-12.12c3.49-7.21 5.36-14.36 2.76-22.35a85.88 85.88 0 0 0-9.18-19.59c-7.26-11.46-15.66-21.8-27.14-29.45-8.31-5.54-16.58-11.07-25.14-16.23a245.68 245.68 0 0 0-43.21-20.17c-7.26-2.65-14.46-5.35-21.92-7.55-12.28-3.6-24.48-7.89-36.94-11.11-16.23-4.21-32.46-8.4-47.64-15.83-3.21-1.58-6.68-2.64-10-4-3.6-1.44-7.32-2.65-10.75-4.42-9.85-5.09-19-11-27.13-18.84a108.82 108.82 0 0 1-26.77-37.4c-3.28-7-4.89-14.36-6-21.87a132.44 132.44 0 0 1-1.54-14.86c-.29-7.33-.74-14.74 0-22 .66-6.85 2.71-13.56 4.15-20.33a47.5 47.5 0 0 1 1.45-6.45c2.67-7.26 5.46-14.48 8.31-21.67 2.34-5.9 4.67-11.81 7.31-17.57 3.51-7.64 7.55-15 10.95-22.71 5.17-11.7 11.59-22.67 18.27-33.54 5.85-9.52 11.34-19.27 16.74-29.05 4.6-8.33 8.83-16.88 13.27-25.3 2.65-5 6.11-9.61 7.14-15.37a3.34 3.34 0 0 1 .81-1.89c1.21-1 2.57-2.46 3.92-2.51 1.76-.06 2.83 1.43 3.53 3.44 2.43 7 5.26 13.93 7.93 20.88zM403.92 172c-1.08 5.16-1.62 9.55-2.94 13.69-2.75 8.57-5.91 17-8.91 25.49-1.61 4.56-3.12 9.17-4.88 13.67q-5 12.76-10.24 25.44c-3 7.28-6.25 14.48-9.42 21.7-1.67 3.79-3.62 7.48-5.11 11.34-1.79 4.64-3.22 9.42-4.82 14.13-2.44 7.23-5 14.34-6.07 22a211.43 211.43 0 0 0-1.75 21.28c-.35 9.46.41 18.85 3.86 27.75a123.75 123.75 0 0 0 7.36 15.67 66.63 66.63 0 0 0 8.61 12.64 163.58 163.58 0 0 0 17.7 16.83 93.46 93.46 0 0 0 18.8 12.08c7.74 3.57 16.23 5.49 24.29 8.41 2.83 1 4.32.07 5.84-2.05 3.71-5.17 7.73-10.13 11.23-15.43 4.72-7.16 9.18-14.49 13.51-21.88 1.59-2.73 2.31-6 3.75-8.79 5.43-10.7 8.7-22.16 11.42-33.73a128.38 128.38 0 0 0 2.87-33.44c-.28-8.76-1-17.42-3.31-25.88-1.3-4.67-3-9.24-4.19-13.92a71.71 71.71 0 0 0-9.63-20.6c-3.59-5.57-7.59-10.87-11.49-16.24-4.05-5.59-8.18-11.13-12.3-16.67-7.59-10.19-16.39-19.5-22.39-30.83-3.3-6.24-6.49-12.53-9.73-18.79-.51-1.03-1.09-2.06-2.06-3.87zM235 675.21l.91-.11c0-2.73.35-5.52-.07-8.18-1.31-8.38-5.27-15.64-9.81-22.68-4.19-6.52-8.28-13.13-12-19.91a62.66 62.66 0 0 1-4.43-11.19c-3-9.37-5.63-19-5.14-28.84a102.27 102.27 0 0 1 10.7-41.56c1.62-3.19 3.65-6.18 5.1-9.44 2.24-5 6.09-8.81 9.61-12.83a75.71 75.71 0 0 1 8.36-8.05c5.71-4.75 11.24-9.87 17.5-13.8 9.6-6 19.85-11 29.62-16.75a154.84 154.84 0 0 0 15-10.4 99.59 99.59 0 0 0 11-9.54c3.27-3.34 6-7.18 9-10.84.38-.48.73-1.65.54-1.81a22.21 22.21 0 0 0-4.42-2.94c-.4-.19-1.57.78-2.1 1.44a79.9 79.9 0 0 1-21 18.1c-13 7.94-26.08 15.82-39.09 23.78-2.95 1.81-5.8 3.78-8.62 5.79-6.31 4.51-12.73 8.9-18.82 13.7-8.75 6.9-15.73 15.56-22.75 24.13a35.22 35.22 0 0 0-5 7.61c-2.1 4.63-3.37 9.64-5.55 14.22-3.21 6.75-3.62 14-3.76 21.12-.16 7.43.86 14.92 1.74 22.33 1.26 10.66 6 20.26 10.95 29.46 3.71 6.85 9.24 12.72 14 19s9.64 12.48 14.15 18.94c1.77 2.79 2.88 6.15 4.38 9.25zM297.27 614c-1.93 3.14-3.86 5.54-5 8.27a162.4 162.4 0 0 0-9.91 32.92c-.34 1.85.07 3.85.21 5.78a26.68 26.68 0 0 1 .4 3.28 41.11 41.11 0 0 0 2 15.47c2 6.12 5.77 10.31 10.82 13.65 4.34 2.88 15.41 2.06 18.51-4.79 3-6.66 2.83-13.28.4-19.81-2.17-5.82-5.15-11.33-7.56-17.06-2-4.86-4.22-9.72-5.5-14.8-1.79-7.16-2.82-14.56-4.37-22.91zm66.48-89.41a18.09 18.09 0 0 0-1.52 1.83c-4.46 7.62-9.31 15-12.31 23.41-2 5.6-4.37 11.12-5.76 16.87a69.05 69.05 0 0 0-1.93 21.41c.32 4.17 1.87 7.93 5.4 10.28a16.24 16.24 0 0 0 17 .52 15.15 15.15 0 0 0 7.81-11.55c1-7.4 1.3-14.47-2.51-21.37a44 44 0 0 1-4-11.3c-2.26-9.69-3.57-19.5-2.18-30.06zm186.11 65.66c.51-4.55-2.34-9.06-6-12.87-5-5.14-11.67-6.71-18.56-7.19-11.56-.81-23.29-.1-34.5-4a2.29 2.29 0 0 0-1.47.31 1.68 1.68 0 0 0 .2 1.11 44.36 44.36 0 0 0 4.4 6.05c7.47 7.6 14.86 15.32 22.74 22.49a39.8 39.8 0 0 0 16.09 9.15 13 13 0 0 0 9.24-.3c5.92-2.66 7.73-7.52 7.86-14.71zm-123.56-47.8l-1.06-.42c-.74 1-1.57 1.85-2.21 2.86-4.66 7.27-7.74 15.28-10.62 23.34-2.28 6.41-3 13.12-3.76 19.9-.66 6.16.55 11.8 2.08 17.48 1 3.87 3.39 7.08 7.52 8.2a21.86 21.86 0 0 0 6.16.5c5.84-.16 10.73-3.31 11.85-9.56s1.78-12.75-.73-19.14c-2.69-6.81-4.7-13.88-7.33-20.71a25.41 25.41 0 0 1-1.93-10.09c.13-4.12.03-8.24.03-12.36zm-117.64-40.62l-.54-.68a36.26 36.26 0 0 0-3.29 2.88c-2.95 3.27-5.76 6.65-8.7 9.93-8.2 9.14-15.18 19-18.25 31.15a24.6 24.6 0 0 0 2.29 18.58c2.84 5.15 12.72 6 16.56 2.59 6.11-5.36 7-12.32 6.52-19.26a128.17 128.17 0 0 1 1.22-29.64c.87-5.27 2.76-10.38 4.19-15.55zm-28.27-135.11l-1.15-.06a43.59 43.59 0 0 0-1.11 4.75c-.73 6-1.24 12.11-2.05 18.15-1.51 11.38-.61 22.72.78 34a152.24 152.24 0 0 0 3.93 18.67c1.21 4.81 2.79 9.55 4.46 14.23.87 2.46 1.85 2.72 4.07 1.29 2-1.27 3.64-3 5.58-4.31 1.35-.91 1.43-1.72.76-3.1a51.81 51.81 0 0 1-3.25-7.65q-4.19-14.15-8-28.37c-3.91-14.57-5.77-29.36-4-44.45a27.57 27.57 0 0 0-.02-3.15zm240.86-9c-.78 7.8-1.51 14.79-2.17 21.78a147.87 147.87 0 0 1-8.15 35.5c-3.28 9.25-6.84 18.41-10.55 27.5-1.88 4.6-4.38 9-6.57 13.42-2 4.06-3.94 8.15-5.92 12.21-.63 1.28-.27 2.1 1.05 2.59a6.18 6.18 0 0 0 8-2.82c7.4-12.35 11.83-25.9 16.34-39.45 3.75-11.3 5.51-23 7.12-34.67 1.51-10.86 1.28-22 1.76-32.95.04-.74-.43-1.52-.91-3.08zm31.94-161.08c2.59-1.59 5.14-3.23 7.78-4.72 1-.58 2.35-1.28 3.36-1.07a4.8 4.8 0 0 1 3 2.31 3.59 3.59 0 0 1-1 3.16 62.52 62.52 0 0 1-6.09 4.32c-9 6.2-18 12.36-27 18.62-9.32 6.49-18.54 13.12-27.87 19.58a11.77 11.77 0 0 1-4.92 2c-3.36.46-4.88-1.53-3.29-4.49a57.06 57.06 0 0 1 6.93-10.73c5.54-6.35 11.52-12.31 17.36-18.39 5.57-5.81 11.12-11.64 16.79-17.34 4.7-4.71 9.65-9.17 14.34-13.89 6.23-6.28 12.33-12.68 18.46-19.06 1.33-1.38 2.72-1.8 4.47-.87 2.13 1.13 1.75 2.89 1.28 4.7-10.22 10.71-20.41 21.44-30.68 32.09-2.68 2.78-5.66 5.27-8.43 8s-5.25 5.29-7.89 7.91c-1.55 1.53-3.12 3-3.32 6.21 2.33-1.5 4.16-2.63 5.95-3.81 2.51-1.66 5-3.3 7.5-5 4-2.85 8-5.76 12-8.65l1.35-.89zm26.53 45.16a12.13 12.13 0 0 1 2-.36c2.69 0 4.42 1.49 4.52 3.81s-1.66 3.69-4.46 3.88c-2.62.17-5.25.31-7.84.71q-19.89 3-39.76 6.13c-4.63.73-9.22 1.8-13.87 2.33-4.1.47-8.26.44-12.4.54a3.74 3.74 0 0 1-2.36-.65 5.45 5.45 0 0 1-1.94-2.89c-.09-.7 1.05-1.85 1.9-2.31 10.07-5.33 20.75-9.08 31.6-12.49 9.49-3 18.83-6.39 28.22-9.64 13.34-4.62 26.66-9.28 40-13.89 1.44-.5 2.94-.83 4.42-1.21a3.22 3.22 0 0 1 4.28 2.56c.45 1.92-.52 3.46-2.5 4.17s-3.79 1.46-5.68 2.19a38.7 38.7 0 0 0-4 1c-10.28 3.68-20.54 7.45-30.82 11.12-6.9 2.47-13.85 4.83-20.77 7.25-.83.3-1.62.74-2.42 1.12a8.75 8.75 0 0 0 4.48.61c6.31-.8 12.61-1.67 18.91-2.57 2.85-.4 5.67-.93 8.49-1.41zm-50.46-112.07c2.06-2.79 4.09-5.6 6.21-8.35a4.19 4.19 0 0 1 1.88-1.5 3.48 3.48 0 0 1 2.67.06 2.87 2.87 0 0 1 .6 2.58 27.71 27.71 0 0 1-2.64 5.62c-4.79 7.6-9.45 15.27-13.6 23.26-4.28 8.22-9.21 16.1-13.52 24.3s-8.35 16.89-12.56 25.3c-2.66 5.31-5.43 10.57-8.19 15.83a7.12 7.12 0 0 1-1.45 2c-2.51 2.25-5.7 1.19-6.23-2.1a7.62 7.62 0 0 1 .2-3.29c1.17-4 2.4-8 3.76-11.9 1.53-4.43 3.28-8.79 4.83-13.22q3.51-10 6.86-20c2.18-6.59 4.24-13.21 6.36-19.81a12.78 12.78 0 0 1 1-2.73c1.64-2.72 3.92-2.64 6 .12q-2.09 7.8-4.18 15.61c-.55 2-1.08 4.06-1.62 6.09l.92.44a34.79 34.79 0 0 0 2.83-3.87c1.46-2.66 2.55-5.54 4.11-8.15 3.41-5.69 7.08-11.24 10.54-16.91 1.83-3.11 3.48-6.26 5.22-9.38z"/><path class="a" d="M551.88 197.45c-4 2.89-8 5.8-12 8.65-2.46 1.73-5 3.37-7.5 5-1.79 1.18-3.62 2.31-5.95 3.81.2-3.19 1.77-4.68 3.32-6.21 2.64-2.62 5.22-5.32 7.89-7.91s5.75-5.18 8.43-8c10.27-10.65 20.46-21.38 30.68-32.09a8.17 8.17 0 0 1-1.07 8.12c-3.29 3.74-6.46 7.59-9.81 11.26s-7 7-10.22 10.78c-1.33 1.54-3.48 3-2.48 5.71v-.08zm27.84 44.35c-2.82.48-5.64 1-8.47 1.41-6.3.9-12.6 1.77-18.91 2.57a8.75 8.75 0 0 1-4.48-.61c.8-.38 1.59-.82 2.42-1.12 6.92-2.42 13.87-4.78 20.77-7.25 10.28-3.67 20.54-7.44 30.82-11.12a38.7 38.7 0 0 1 4-1c.24 3-.7 4.61-3.64 6-6 2.77-12.06 5.45-18 8.28a39.49 39.49 0 0 0-4.51 2.84zm-50.46-112.07c-1.74 3.12-3.39 6.31-5.25 9.36-3.46 5.67-7.13 11.22-10.54 16.91-1.56 2.61-2.65 5.49-4.11 8.15a34.79 34.79 0 0 1-2.83 3.87l-.92-.44c.54-2 1.07-4.06 1.62-6.09q2.08-7.81 4.18-15.61c2.61.38 3-1.88 4.05-3.37 2.74-3.91 5.53-7.79 8.23-11.72 1.55-2.26 3.37-2.51 5.57-1.06z"/><path class="b" d="M403.92 172c1 1.8 1.55 2.83 2.09 3.86 3.24 6.26 6.43 12.55 9.73 18.79 6 11.33 14.8 20.64 22.39 30.83 4.12 5.54 8.25 11.08 12.3 16.67 3.9 5.37 7.9 10.67 11.49 16.24a71.71 71.71 0 0 1 9.63 20.6c1.23 4.68 2.89 9.25 4.19 13.92 2.35 8.46 3 17.12 3.31 25.88a128.38 128.38 0 0 1-2.87 33.44c-2.72 11.57-6 23-11.42 33.73-1.44 2.83-2.16 6.06-3.75 8.79-4.33 7.39-8.79 14.72-13.51 21.88-3.5 5.3-7.52 10.26-11.23 15.43-1.52 2.12-3 3.08-5.84 2.05-8.06-2.92-16.55-4.84-24.29-8.41a93.46 93.46 0 0 1-18.8-12.08 163.58 163.58 0 0 1-17.7-16.83 66.63 66.63 0 0 1-8.64-12.63 123.75 123.75 0 0 1-7.39-15.62c-3.45-8.9-4.21-18.29-3.86-27.75a211.43 211.43 0 0 1 1.75-21.28c1.07-7.7 3.63-14.81 6.07-22 1.6-4.71 3-9.49 4.82-14.13 1.49-3.86 3.44-7.55 5.11-11.34 3.17-7.22 6.39-14.42 9.42-21.7q5.28-12.66 10.24-25.44c1.76-4.5 3.27-9.11 4.88-13.67 3-8.49 6.16-16.92 8.91-25.49 1.35-4.18 1.89-8.57 2.97-13.74zm55.15 142.51c3.4-.24 4.6-1.45 4-4.56a9.49 9.49 0 0 0-1.75-3.7c-4.89-6.51-6.33-14-6.52-21.91a6.34 6.34 0 0 1 .66-3.2 79.47 79.47 0 0 1 5-8c2.32-3.17 2.23-5.11-1.08-6.67a23.71 23.71 0 0 0-7.08-2.17 16.22 16.22 0 0 1-14.18-12.12 18.57 18.57 0 0 0-2.82-5.9 5.43 5.43 0 0 0-3.7-2c-1.72-.08-2.17 1.64-2.76 3.15-1.37 3.45-2.59 7.11-4.72 10.08-4.61 6.46-11.71 8.44-19.21 9-2.41.18-4.44.6-5.55 2.86-1 2.08.4 3.62 1.34 5.33 1.52 2.76 3.2 5.54 4 8.53 2.67 9.88 2.81 19.67-1.91 29.16-1.58 3.16 0 5.22 3.57 4.83a9.11 9.11 0 0 0 3.76-1.56c1.72-1.15 3.19-2.65 4.88-3.86 7.78-5.55 16.18-8.18 25.79-5.64a50.22 50.22 0 0 1 13.79 6.4 30.66 30.66 0 0 0 4.49 1.96z"/><path class="c" d="M411.23 170.23c-2.67-6.95-5.5-13.85-7.93-20.88-.7-2-1.77-3.5-3.53-3.44-1.35.05-2.71 1.51-3.92 2.51a2 2 0 0 0-.54.84 5.79 5.79 0 0 0-.27 1.05c-1 5.76-4.49 10.37-7.14 15.37-4.44 8.42-8.67 17-13.27 25.3-5.4 9.78-10.89 19.53-16.74 29.05-6.68 10.87-13.1 21.84-18.27 33.54-3.4 7.68-7.44 15.07-10.95 22.71-2.64 5.76-5 11.67-7.31 17.57-2.85 7.19-5.64 14.41-8.31 21.67a47.5 47.5 0 0 0-1.45 6.48c-1.44 6.77-3.49 13.48-4.15 20.33s-.31 13.65 0 20.48q.3 7.11 1.28 14.15c1.16 8.29 2.74 16.38 6.35 24.11a108.82 108.82 0 0 0 26.75 37.38c8.09 7.83 17.28 13.75 27.13 18.84 3.43 1.77 7.15 3 10.75 4.42 3.34 1.34 6.81 2.4 10 4 15.18 7.43 31.41 11.62 47.64 15.83 12.45 3.17 24.65 7.46 36.93 11.06 7.46 2.2 14.66 4.9 21.92 7.55a245.68 245.68 0 0 1 43.21 20.17c8.56 5.16 16.83 10.69 25.14 16.23 11.48 7.65 19.88 18 27.14 29.45a85.88 85.88 0 0 1 9.19 19.53c2.6 8 .73 15.14-2.76 22.35A77.73 77.73 0 0 0 594 620c-1.47 5-2.4 10.21-4.08 15.16a16.6 16.6 0 0 1-8 9c.33-4.49 2.7-7.06 4.54-11.08 1.54-3.39 1.33-8.53 3-11.87 4.48-9.05 3.54-18.37 1.18-27.65a129.06 129.06 0 0 0-4.64-13.37c-3.87-10.41-10.67-18.75-18.94-25.89-7.24-6.24-14.69-12.24-22.22-18.13-2.5-2-5.58-3.23-8.41-4.75-13.95-7.52-28.94-12.85-44.23-17-7.12-1.94-14.05-4.55-21.15-6.55-8-2.26-16.08-4.08-24.07-6.28-5.33-1.46-10.6-3.15-15.85-4.89-8-2.67-15.88-5.92-24-8.13-14.49-3.92-28.76-8.49-41.78-15.89-11.15-6.35-22.45-12.69-31.77-21.9-5.47-5.4-11.49-10.19-17.35-15.16-4.72-4-6.4-9.88-9.45-14.9-4-6.56-5.28-14.25-7.89-21.4-5.34-14.61-6.13-29.82-6.24-45.05-.07-8.55 1.18-17.14 2.29-25.65.53-4.06 2.16-8 3.19-12s1.52-8.52 3.07-12.47c7.51-19.1 15.27-38.09 26.59-55.38 2.88-4.39 5.19-9.15 7.94-13.63 1.87-3.07 4.19-5.87 6.06-8.94 3.82-6.28 7.38-12.71 11.24-19 2.61-4.24 5.66-8.2 8.29-12.42 4-6.46 8.11-12.9 11.69-19.6 5.61-10.51 10.83-21.23 16.2-31.87.36-.73.49-1.58.81-2.33 1.51-3.56 3.17-7 4.54-10.66 1-2.68 1.69-5.49 2.54-8.24.24-.76.58-1.5 1.12-2.86a31.62 31.62 0 0 1 1.86 3.57c1.73 4.94 3.37 9.9 5 14.86a.09.09 0 0 0 0 .06c6.12 8.27 8.65 18.44 14.42 26.95 7.22 10.64 13.79 21.73 21 32.36 4.51 6.62 9.74 12.74 14.64 19.09 3.88 5.05 7.83 10.06 11.61 15.18 6.43 8.69 13 17.28 19 26.27a102.56 102.56 0 0 1 11.05 22.7c2 5.59 4.25 11.06 6.2 16.65a85.46 85.46 0 0 1 3.75 15.2c1.39 9 3.32 18 3.08 27.14q-.25 10-.79 19.93c-.69 12.42-4.48 24.23-7.77 36.08-1.87 6.77-4.9 13.27-7.92 19.65-5.68 12-12.19 23.66-20.4 34.19-4.67 6-9.88 11.57-14.64 17.49a5.37 5.37 0 0 1-5.49 1.94c-5.57-.83-11.11-1.9-17.24-3l11.13-12.2c2-2.14 5.05-5.73 6.87-8a119.93 119.93 0 0 0 7.34-9.82c4.28-6.6 8.22-13.43 12-20.35 3.21-5.94 6.09-12.08 8.8-18.27a92.27 92.27 0 0 0 3.43-10.64c1.84-6.21 4-12.37 5.33-18.7 1.61-7.57 2.57-15.28 3.67-22.95a79.53 79.53 0 0 0 1.24-12.37c-.1-7 0-14.22-1.39-21.06-2.34-11.63-5.08-23.32-10.4-34-3.67-7.4-7.68-14.73-13.21-21.05-1.54-1.76-2.65-3.88-4-5.79-1-1.34-2-2.62-3.12-3.86-.9-1-2-1.89-2.85-3-6.48-8.61-12.87-17.3-19.36-25.9-4.58-6.07-9.57-11.86-13.85-18.13-3.66-5.36-6.57-11.22-9.81-16.86zM235 675.21c-1.5-3.1-2.61-6.46-4.55-9.24-4.51-6.46-9.42-12.64-14.15-18.94s-10.27-12.16-14-19c-5-9.2-9.69-18.8-10.95-29.46-.88-7.41-1.9-14.9-1.74-22.33.14-7.12.55-14.37 3.76-21.12 2.18-4.58 3.45-9.59 5.55-14.22a35.22 35.22 0 0 1 5-7.61c7-8.57 14-17.23 22.75-24.13 6.09-4.8 12.51-9.19 18.82-13.7 2.82-2 5.67-4 8.62-5.79 13-8 26.07-15.84 39.09-23.78a79.9 79.9 0 0 0 21-18.1c.53-.66 1.7-1.63 2.1-1.44a22.21 22.21 0 0 1 4.42 2.94c.19.16-.16 1.33-.54 1.81-2.93 3.66-5.69 7.5-9 10.84a99.59 99.59 0 0 1-11 9.54 154.84 154.84 0 0 1-15 10.4c-9.77 5.76-20 10.73-29.62 16.75-6.26 3.93-11.79 9.05-17.5 13.8a75.71 75.71 0 0 0-8.36 8.05c-3.52 4-7.37 7.79-9.61 12.83-1.45 3.26-3.48 6.25-5.1 9.44a102.27 102.27 0 0 0-10.7 41.56c-.49 9.84 2.12 19.47 5.14 28.84a62.66 62.66 0 0 0 4.57 11.18c3.74 6.78 7.83 13.39 12 19.91 4.54 7 8.5 14.3 9.81 22.68.42 2.66.07 5.45.07 8.18z"/><path class="b" d="M297.27 614c1.55 8.31 2.58 15.71 4.39 22.91 1.28 5.08 3.47 9.94 5.5 14.8 2.41 5.73 5.39 11.24 7.56 17.06 2.43 6.53 2.62 13.15-.4 19.81-3.1 6.85-14.17 7.67-18.51 4.79-5.05-3.34-8.83-7.53-10.82-13.65a41.11 41.11 0 0 1-2-15.47 26.68 26.68 0 0 0-.4-3.28c-.14-1.93-.55-3.93-.21-5.78a162.4 162.4 0 0 1 9.91-32.92c1.12-2.69 3.05-5.09 4.98-8.27zm66.48-89.37c-1.39 10.56-.08 20.39 2.16 30.1a44 44 0 0 0 4 11.3c3.81 6.9 3.52 14 2.51 21.37a15.15 15.15 0 0 1-7.83 11.6 16.24 16.24 0 0 1-17-.52c-3.53-2.35-5.08-6.11-5.4-10.28a69.05 69.05 0 0 1 1.93-21.41c1.39-5.75 3.75-11.27 5.76-16.87 3-8.37 7.85-15.79 12.31-23.41a18.09 18.09 0 0 1 1.56-1.88zm186.11 65.66c-.13 7.19-1.94 12.05-7.82 14.73a13 13 0 0 1-9.3.33 39.8 39.8 0 0 1-16.09-9.15c-7.88-7.17-15.27-14.89-22.74-22.49a44.36 44.36 0 0 1-4.4-6.05 1.68 1.68 0 0 1-.2-1.11 2.29 2.29 0 0 1 1.47-.31c11.21 3.89 22.94 3.18 34.5 4 6.89.48 13.59 2 18.56 7.19 3.68 3.8 6.53 8.31 6.02 12.86zM426.3 542.45c0 4.12.1 8.24 0 12.36a25.41 25.41 0 0 0 1.93 10.09c2.63 6.83 4.64 13.9 7.33 20.71 2.51 6.39 1.86 12.74.73 19.14s-6 9.4-11.85 9.56a21.86 21.86 0 0 1-6.16-.5c-4.13-1.12-6.48-4.33-7.52-8.2-1.53-5.68-2.74-11.32-2.08-17.48.74-6.78 1.48-13.49 3.76-19.9 2.88-8.06 6-16.07 10.62-23.34.64-1 1.47-1.91 2.21-2.86zm-117.64-40.62c-1.43 5.18-3.32 10.28-4.19 15.55a128.17 128.17 0 0 0-1.22 29.62c.48 6.94-.41 13.9-6.52 19.26-3.84 3.38-13.72 2.56-16.56-2.59a24.6 24.6 0 0 1-2.29-18.58C281 533 287.93 523.1 296.13 514c2.94-3.28 5.75-6.66 8.7-9.93a36.26 36.26 0 0 1 3.29-2.88z"/><path class="a" d="M280.39 366.72a27.57 27.57 0 0 1 0 3.15c-1.77 15.09.09 29.88 4 44.45q3.83 14.24 8 28.37a51.81 51.81 0 0 0 3.25 7.65c.67 1.38.59 2.19-.76 3.1-1.94 1.31-3.61 3-5.58 4.31-2.22 1.43-3.2 1.17-4.07-1.29-1.67-4.68-3.25-9.42-4.46-14.23a152.24 152.24 0 0 1-3.93-18.67c-1.39-11.28-2.29-22.62-.78-34 .81-6 1.32-12.11 2.05-18.15a43.59 43.59 0 0 1 1.11-4.75zm240.86-8.97c.48 1.56 1 2.34.92 3.1-.48 11-.25 22.09-1.76 32.95-1.61 11.65-3.37 23.37-7.12 34.67-4.51 13.55-8.94 27.1-16.34 39.45a6.18 6.18 0 0 1-8 2.82c-1.32-.49-1.68-1.31-1.05-2.59 2-4.06 3.93-8.15 5.92-12.21 2.19-4.47 4.69-8.82 6.57-13.42 3.71-9.09 7.27-18.25 10.55-27.5a147.87 147.87 0 0 0 8.15-35.49c.65-6.99 1.38-13.98 2.16-21.78z"/><path class="c" d="M551.88 197.45l1.35-.89z"/><path d="M459.07 314.52a30.66 30.66 0 0 1-4.47-1.91 50.22 50.22 0 0 0-13.79-6.4c-9.61-2.54-18 .09-25.79 5.64-1.69 1.21-3.16 2.71-4.88 3.86a9.11 9.11 0 0 1-3.76 1.56c-3.54.39-5.15-1.67-3.57-4.83 4.72-9.49 4.58-19.28 1.91-29.16-.81-3-2.49-5.77-4-8.53-.94-1.71-2.37-3.25-1.34-5.33 1.11-2.26 3.14-2.68 5.55-2.86 7.5-.55 14.6-2.53 19.21-9 2.13-3 3.35-6.63 4.72-10.08.59-1.51 1-3.23 2.76-3.15a5.43 5.43 0 0 1 3.7 2 18.57 18.57 0 0 1 2.82 5.9 16.22 16.22 0 0 0 14.18 12.12 23.71 23.71 0 0 1 7.08 2.17c3.31 1.56 3.4 3.5 1.08 6.67a79.47 79.47 0 0 0-5 8 6.34 6.34 0 0 0-.66 3.2c.19 7.88 1.63 15.4 6.52 21.91a9.49 9.49 0 0 1 1.75 3.7c.58 3.07-.62 4.28-4.02 4.52zm-44.75-18.85l-.52.08v2.92c.14 3.21.44 3.32 3.43 1.83 4.73-2.38 9.6-4.43 15.05-3.77 4 .48 7.91 1.21 11.83 2 4.14.83 4.5.55 3.78-3.41-1.2-6.62-1.49-13.2 1.23-19.55.77-1.78.59-2.77-1.45-3.39A22.27 22.27 0 0 1 434 261.65c-1.18-2.13-1.81-2.17-3.13-.14-4.24 6.52-10.5 10.18-17.69 12.32-2.5.74-2.4 1.71-1.95 3.86 1.24 5.95 2.09 11.98 3.09 17.98z"/><path class="a" d="M411.24 277.69c-.45-2.15-.55-3.12 1.95-3.86 7.19-2.14 13.45-5.8 17.69-12.32 1.32-2 1.95-2 3.13.14a22.27 22.27 0 0 0 13.67 10.73c2 .62 2.22 1.61 1.45 3.39-2.72 6.35-2.43 12.93-1.23 19.55.72 4 .36 4.24-3.78 3.41-3.92-.79-7.86-1.52-11.83-2-5.45-.66-10.32 1.39-15.05 3.77-3 1.49-3.29 1.38-3.43-1.83-.05-1 0-1.95 0-2.92.19-.02-1.34-12.11-2.57-18.06z"/></svg>