<svg xmlns="http://www.w3.org/2000/svg" viewBox="0 0 800 800"><defs><style>.a{fill:#bda5ca;}</style></defs><title>kitana</title><path d="M163,50c158.21,1.23,315.94.51,473.73.83,2.28,7.11.5,13.73.51,20.23.13,71.82,0,143.63,0,215.44q-.09,221.07-.12,442.13c0,4.81.19,9.62.28,14.43s-2,6.8-6.9,6.71c-53.35-1-106.71,0-160.06-.65-12-.15-24.06.7-36.19-.29-7.46-.6-15.48.44-23.23.43-9,0-18.17-1.75-27.07-.87-18.82,1.86-37.61.73-56.39.83-47.74.25-95.49.1-143.23.15-5,0-10,.18-15,.58-4.53.36-6.79-1.31-6.83-6-.08-10.4-.41-20.81-.4-31.22q0-68.28.19-136.57.09-79.12.1-158.24.07-122.44.13-244.89,0-55.65,0-111.31C162.54,58.34,162.82,55,163,50Zm5.63,6c-.25,2.3-.6,4.07-.62,5.84-.28,41.11-.67,82.22-.76,123.33q-.25,116.73-.21,233.45,0,33.68.2,67.37c0,2.7-.74,5.77,2.5,7.43A292.23,292.23,0,0,0,202.94,508c16.34,5.92,32.81,11.57,49.75,15.61,3.68.88,6.72,3,10.44,4.07,8.57,2.36,17.4,3.18,26,5.34,8.4,2.11,25.75,3.9,25.75,3.9,24.82-.07,49.65,1.28,74.45-2.09a338.94,338.94,0,0,0,89.89-24.61c13.35-5.78,24.94-14.63,35.78-24.07,31.45-27.4,59-58.27,80.72-94.11,17.17-28.3,29.07-58.23,32.46-91.51,2.78-27.35,3.65-54.81,4.28-82.18,1.11-48.92.14-97.89,0-146.83,0-5,.63-10-.57-15.51Z"/><path class="a" d="M168.67,56H631.86c1.2,5.55.55,10.56.57,15.51.16,48.94,1.13,97.91,0,146.83-.63,27.37-1.5,54.83-4.28,82.18-3.39,33.28-15.29,63.21-32.46,91.51C574,427.84,546.44,458.71,515,486.11c-10.84,9.44-22.43,18.29-35.78,24.07a338.94,338.94,0,0,1-89.89,24.61c-24.8,3.37-49.63,2-74.45,2.09,0,0-17.35-1.79-25.75-3.9-8.59-2.16-17.42-3-26-5.34-3.72-1-43.85-13.76-60.19-19.68a292.23,292.23,0,0,1-33.16-14.57c-3.24-1.66-2.49-4.73-2.5-7.43q-.17-33.69-.2-67.37,0-116.73.21-233.45c.09-41.11.48-82.22.76-123.33C168.07,60,168.42,58.27,168.67,56Zm96.9,125,1.21,1.32c-.46,1.73-.82,3.5-1.39,5.2-5.7,16.86-11.48,33.71-17.16,50.58-11.38,33.79-22.64,67.6-34.07,101.36-5.71,16.87-11.71,33.64-17.49,50.48-.94,2.74-2.29,5.53.88,8.18,5.53,4.64,7.8,10.93,8.29,18,.15,2.24-.46,4.91,2.74,6.9,4.16-4.9,3.87-11.75,7.17-17.54,14.14,14.14,30.9,23.34,49.65,27.27s37.53.95,55.7-9.29c-.66,2.54-.65,3.45-1.08,4-3.55,4.72-1.74,8.19,1.33,12.72,4.32,6.37,9,12.77,11.37,20.31.64,2,1.54,4,4,3.69s2.47-2.48,2.58-4.64c.48-9,.71-18,3.7-26.68a4.86,4.86,0,0,0-.88-5c-1.16-1.51-3.2-2.54-3-4.83,57.4,5.16,99.48-17.72,125.92-69.19a7,7,0,0,1,2,5.6c-.48,3.7,1.88,5.06,4.54,6.13,8.73,3.51,17.52,6.9,26.27,10.35,2.49,1,4.66,1,6.22-2.13a113,113,0,0,1-10.3-18.73c-2.73-6.26-4-13.56-13.69-13.36,21.48-9.65,35.18-26.16,46.18-45.46,11.36-19.93,12.83-41.2,8.63-64,14.1,11.75,26.59,1.94,39.8-.16-.67-3.07-2.09-3.51-3.2-4.34-5.12-3.85-11.1-6.29-16.34-9.89-3.57-2.45-6.91-3.76-11.13-2-2.33,1-4.81,1.71-7.57.62,19.19-36.64,15.43-70.84-10.53-102.32,3.72-3.14,9.89-1.32,11.45-7.58-3.54-1.74-7.2-1.21-10.72-1.46-5.26-.39-11.32-.5-14.1-5.31-3.37-5.82-7-4.53-11.52-2.69A51.25,51.25,0,0,1,495.27,99L354.13,138.81c-6.74,1.9-13.52,3.7-20.21,5.78-14.14,4.42-28.41,8.32-42.86,11.58l-.95-1c7.09-6.09,7.52-13.37,3.89-21.43-.49-1.08-.34-2.46-.89-3.48-2.63-4.86-1-9.17,1.25-13.62,5-9.64,20.58-21.71,33.29-17A117.52,117.52,0,0,1,348,109.73c9,5.47,18.53,9.6,29.18,10.26,2.35.14,5.73,1.56,7.17-3.25-13.32-1.73-26.2-4.11-37.47-14.17,6.68-.13,11.73,1.69,16.81,3.11,12.74,3.57,25.35,3.41,37.77-1.25,2.93-1.1,6.53-1.72,8-6.81-7.66,1.9-14,5.51-21,6.09-7.33.59-14.59.73-23.14-2.61,10-3.08,18.5-5.74,26-10.67,1.6-1.05,4.4-1.74,2.88-4.25s-3.56-.44-5.15.56a61.76,61.76,0,0,1-37.17,9.55c-6.3-.33-12.25-1.84-18.34-2.85a41.73,41.73,0,0,0-43.81,21.76c-2.6,4.94-4.76,10-8.22,14.49-6.66,8.71-13,17.81-4.09,29.4-4.67,1.54-4.48,5.44-6.05,8.24a24.63,24.63,0,0,1-12-.71c-3.89-1.19-6.88.66-9.79,3.56-4.73,4.71-10.59,6.47-16.51,9.54-19.64,10.14-29.82,21.29-28.2,46.8a90.57,90.57,0,0,1-.46,15,57.24,57.24,0,0,1-7,23.1c12.29-4.93,9.34-17.37,12.8-27.19,4.81,17.53,5.76,34.07-2.88,50,15.62-14.15,10.29-32.22,9.28-49.63,6.3,11.46,10.75,23.23,8.84,36.7,4.3-3.67,5.09-8.18,4.48-13.09a72.89,72.89,0,0,0-6.49-21.78c-3.36-7.24-7.28-14.31-9.76-21.85-6.41-19.47,16.73-38.4,32.79-33.89C253.34,185.85,259.9,186.82,265.57,181Z"/><path d="M291.06,156.17c14.45-3.26,28.72-7.16,42.86-11.58,6.69-2.08,13.47-3.88,20.21-5.78q71-20,142-40a45.43,45.43,0,0,0,4.93-1.68c3.89-1.59,7.15-2.73,10.14.87a17.84,17.84,0,0,0,4.37,3.9c4.13,2.49,6.72,3,11,3.27,3.52.25,7.18-.28,10.72,1.46-1.56,6.26-7.73,4.44-11.45,7.58,26,31.48,29.72,65.68,10.53,102.32,2.76,1.09,5.24.34,7.57-.62,4.22-1.73,7.56-.42,11.13,2,5.24,3.6,11.22,6,16.34,9.89,1.11.83,2.53,1.27,3.2,4.34-13.21,2.1-25.7,11.91-39.8.16,4.2,22.83,2.73,44.1-8.63,64-11,19.3-24.7,35.81-46.18,45.46,9.69-.2,11,7.1,13.69,13.36A113,113,0,0,0,504,373.87c-1.56,3.15-3.73,3.11-6.22,2.13-8.75-3.45-17.54-6.84-26.27-10.35-2.66-1.07-5-2.43-4.54-6.13a7,7,0,0,0-2-5.6c-26.44,51.47-68.52,74.35-125.92,69.19-.17,2.29,1.87,3.32,3,4.83a4.86,4.86,0,0,1,.88,5c-3,8.64-3.22,17.69-3.7,26.68-.11,2.16,0,4.29-2.58,4.64s-3.36-1.66-4-3.69c-2.39-7.54-7.05-13.94-11.37-20.31-3.07-4.53-4.88-8-1.33-12.72.43-.58.42-1.49,1.08-4-18.17,10.24-36.9,13.23-55.7,9.29s-35.51-13.13-49.65-27.27c-3.3,5.79-3,12.64-7.17,17.54-3.2-2-2.59-4.66-2.74-6.9-.49-7.11-2.76-13.4-8.29-18-3.17-2.65-1.82-5.44-.88-8.18,5.78-16.84,11.78-33.61,17.49-50.48,11.43-33.76,22.69-67.57,34.07-101.36,5.68-16.87,11.46-33.72,17.16-50.58.57-1.7.93-3.47,1.39-5.2.6-.57,1-1.39.4-2-.74-.77-1.25,0-1.61.65-5.67,5.81-12.23,4.84-19.18,2.89-16.06-4.51-39.2,14.42-32.79,33.89,2.48,7.54,6.4,14.61,9.76,21.85a72.89,72.89,0,0,1,6.49,21.78c.61,4.91-.18,9.42-4.48,13.09,1.91-13.47-2.54-25.24-8.84-36.7,1,17.41,6.34,35.48-9.28,49.63,8.64-16,7.69-32.5,2.88-50-3.46,9.82-.51,22.26-12.8,27.19a57.24,57.24,0,0,0,7-23.1,90.57,90.57,0,0,0,.46-15c-1.7-26.7,9.54-37.67,31-48.21a67.89,67.89,0,0,0,13.5-9c2.83-2.36,6.53-3.71,10-2.65a24.63,24.63,0,0,0,12,.71c1.57-2.8,1.38-6.7,6.05-8.24-8.94-11.59-2.57-20.69,4.09-29.4,3.46-4.52,5.62-9.55,8.22-14.49a41.73,41.73,0,0,1,43.81-21.76c6.09,1,12,2.52,18.34,2.85a61.76,61.76,0,0,0,37.17-9.55c1.59-1,3.66-3,5.15-.56s-1.28,3.2-2.88,4.25c-7.53,4.93-16.06,7.59-26,10.67,8.55,3.34,15.81,3.2,23.14,2.61,7.05-.58,13.35-4.19,21-6.09-1.43,5.09-5,5.71-8,6.81-12.42,4.66-25,4.82-37.77,1.25-5.08-1.42-10.13-3.24-16.81-3.11,11.27,10.06,24.15,12.44,37.47,14.17-1.44,4.81-4.82,3.39-7.17,3.25-10.65-.66-20.21-4.79-29.18-10.26a117.52,117.52,0,0,0-20.38-10.11c-12.71-4.71-28.3,7.36-33.29,17-2.29,4.45-.85,16-.36,17.1,3.63,8.06,3.2,15.34-3.89,21.43-.15.31-.51.73-.42.89C290,156.63,290.57,156.49,291.06,156.17Zm171.6,186.89c-9.44-8.86-18.59-17.51-27.82-26.07C422.5,305.55,410,294.3,397.76,282.76Q373.09,259.43,348,236.58c-4.7-4.29-8.83-5.49-15.27-4.36s-11.42,3.53-15,8.55c-4.62,6.41-9.82,11.58-18.24,11.43a22.17,22.17,0,0,0,0,3.13c6.88,37.56,11.74,75.57,24.46,111.86,4.31,12.28,10.65,22.81,22,30.24,10.66,7,22.2,9.77,34.57,10.3,17.5.74,33.88-2.82,47.65-14.26C444.2,380.13,455.19,363.15,462.66,343.06ZM362.12,153.76c1.65,6.23,2.78,11.42-.38,17-4.91,8.59-2.06,14.67,7.25,18.46,4.11,1.67,8.38,1.71,12.57,2.53q35.4,6.94,70.74,14.14c16.85,3.47,33.77,4.88,50.67,1.22,31.57-6.85,38.85-28.69,36.68-55.13-1-12-7.76-22.88-16.42-32.18-3.74-4-6.77-4.82-11.78-3.54-34,8.65-68,17-102.07,25.54C393.86,145.64,378.36,149.63,362.12,153.76Zm-98.23,92.91a17.25,17.25,0,0,0-1.16,2.28c-9.81,35.51-23.07,70-30.29,106.31-4.68,23.56,3.52,54.63,30.43,66.7,11,4.92,22.19,8.5,34.23,5.43a91.2,91.2,0,0,0,22.19-9.14c6.94-3.93,6.91-3.85,5.36-11.52-3.45-17.09-6.94-34.17-10.21-51.3q-9.26-48.42-19.73-96.58c-2.47-11.35-8.49-15-20-12A19.75,19.75,0,0,1,263.89,246.67ZM530,253.55c1.1-8.62-2-17.62-4-26.82-.6-2.84-2.5-3.7-5-4.37-6.06-1.63-12.37-1.19-18.44-2.3-18.53-3.4-37-7.12-55.45-10.88-26.12-5.31-52.25-10.52-78.53-15-1.9-.32-4.25-1.58-5.64.41-5.13,7.34-15.72,11.44-13.71,23.16.34,2-.69,4.36-1.61,6.31a4.7,4.7,0,0,0,.95,6c3.77,3.86,7.2,8.09,11.27,11.59,18.21,15.69,35.38,32.5,52.92,48.9a107.64,107.64,0,0,0,37.43,23.24c12.42,4.44,25.18,5.74,37.7,1C510.07,306.35,531.54,280.82,530,253.55ZM439.36,130.8c-.15-.82-.29-1.64-.44-2.47-11.56-.88-23.11-3-34.73.1-9.48,2.57-19.05,4.89-28.37,8-15.89,5.25-32.88,7.2-47.73,15.58-4.76,2.69-9.82,5-13.94,8.71l.57,1.56Zm-172,104.52c-.37,2.39-2.56,4.38-.71,6.8a4.84,4.84,0,0,0,6.11,1c7.85-4.33,14.32-1.49,21.29,2.5,7.27,4.16,14.09,1.81,18.39-5.48s10.21-11.62,18.71-12.34a26.73,26.73,0,0,0,4.1-.87c7.38-1.81,9.69-4.35,9.18-11.68-.48-6.87,1.56-11.79,7.56-15.62,6.39-4.08,8-9.2,4.61-14.63-3.95-6.27-3.11-11.6.91-17.16,2.27-3.12,1.72-6.46.16-9.68-.59-1.21-1.27-2.67-3-2.4-2,.3-2.42,1.86-2.47,3.56-.1,3.16.3,6.29-.94,9.43-2.46,6.23-3.61,12.67-1.41,19.28,1,2.87,1.05,6-1.48,7.72-7.15,4.94-10.1,12.1-11.79,20.13-.84,4-3.67,6.56-7.43,6.78-7.85.48-13.34,4.65-18.53,9.92-6.3,6.4-12.56,7.27-19.93,2.31a13,13,0,0,0-11.93-1.67A35.29,35.29,0,0,1,267.32,235.32Zm-32,90.78-1.47-.69c-18.49,18.89-26,43.47-34.45,68.1,5.89,2.05,7.18,8.53,11.42,13.43C219.16,379.51,227.25,352.8,235.35,326.1Zm5.71-55.72c10.13-7.63,16.43-17.51,20.13-28.95,5.66-17.49,11.06-35.08,16.36-52.68,2.51-8.34,4.53-16.81,6.83-25.43-4.58-.3-6.74,1.51-7.76,5.05-2.09,7.25-5.39,14-7.66,21.28-5.3,16.79-11.55,33.29-17.46,49.89C247.86,249.8,245.37,260.44,241.06,270.38Zm41.32-80.44c15.34-1.39,23.65-9.28,22.45-20.89C288.05,170.9,283.82,174.77,282.38,189.94Zm29.8-22.74c-.41,8.68-3.3,16.06-9.9,21.73s-15.38,5.43-23.56,7.14c3.13,4.6,12.26,4.87,19.69,1C309.48,191.39,316.43,177.06,312.18,167.2Zm-31.35-10.71c10.23-5.76,12.37-14.72,6.35-25.29C278.81,137.85,277.37,146.32,280.83,156.49ZM481.69,363c-1.22-3.92-2.56-7.57-3.45-11.33-.95-4-3.11-5-6.74-3.77C471.26,359.74,471.93,360.76,481.69,363ZM265.8,173c-12-1.86-15.46-.65-18.1,5.92C255,181.92,260.79,179.73,265.8,173Zm64.1,249.31c-7.15,6.91-7.26,12.13-.16,18.33C330.27,434.34,335.65,428.65,329.9,422.32Zm205-199.21c5.9,8.78,11,11,17.47,7.08C546.24,228,543.72,218.8,534.88,223.11ZM337,422l-.23.29.35.06Z"/><path class="a" d="M462.66,343.06c-7.47,20.09-18.46,37.07-34.52,50.41-13.77,11.44-30.15,15-47.65,14.26-12.37-.53-23.91-3.32-34.57-10.3-11.36-7.43-17.7-18-22-30.24-12.72-36.29-17.58-74.3-24.46-111.86a22.17,22.17,0,0,1,0-3.13c8.42.15,13.62-5,18.24-11.43,3.61-5,8.54-7.41,15-8.55s10.57.07,15.27,4.36q25.11,22.86,49.78,46.18C410,294.3,422.5,305.55,434.84,317,444.07,325.55,453.22,334.2,462.66,343.06Zm-137.15-99c-3.25.16-4,3.07-4.57,5.32-1.51,5.84-2.32,11.91-1,17.87,1.73,8,3.07,16,3,24.16,0,3,.25,6.23,1.87,8.74,5.58,8.67,10.32,18,19.34,24,1.65,1.09,3.11,1.72,5.22.55,2.55-8.71-1.7-16.86-3.64-26.1,3.69,1.93,6.25,3.52,9,4.66,15.84,6.63,24.86,23.44,22.7,40.52-.43,3.35-1.26,5.09-4.94,5.23-5.54.21-9.6,3.19-13.23,7.35-4.5,5.16-3.91,11.62-5.3,17.56a25.84,25.84,0,0,0,.4,11.91c.92,3.81,4.67,2.36,6.77,3.93.48.35.82.9,1.31,1.23a17.94,17.94,0,0,0,10.14,3.09c6.06.13,11.7-2.59,17.77-2.17,1.88.14,3-1.43,3.21-3.05.75-5.15,3-10.05,2.82-15.32-.28-11.09-4.91-19.56-15.18-23.94.58-5.43,1.1-10.3,1.61-15.05a4,4,0,0,1,3.14,1.2A36.68,36.68,0,0,0,405.3,343c5.77.35,7.55-2.67,5-7.79-8.21-16.78-21.93-26-40-29.39a15.6,15.6,0,0,1-4.58-1.31c-8.27-4.5-16.53-9-24.66-13.78a35.76,35.76,0,0,1-8.81-7c-9.28-10.32-9.17-22.09-6.7-34.51C325.91,247.66,327.49,246,325.51,244.06Z"/><path class="a" d="M362.12,153.76c16.24-4.13,31.74-8.12,47.26-12,34-8.51,68.08-16.89,102.07-25.54,5-1.28,8-.48,11.78,3.54,8.66,9.3,15.44,20.17,16.42,32.18,2.17,26.44-5.11,48.28-36.68,55.13-16.9,3.66-33.82,2.25-50.67-1.22q-35.32-7.26-70.74-14.14c-4.19-.82-8.46-.86-12.57-2.53-9.31-3.79-12.16-9.87-7.25-18.46C364.9,165.18,363.77,160,362.12,153.76Zm155.58,25.9c4.87-.11,9.66-.56,13.23-4.48,3.86-4.23,4.82-10.92,2.34-15.67-2.64-5.06-8.67-8.56-14.53-7.42-7.25,1.41-14.37,3.51-21.5,5.52-5.39,1.51-10.73,3.25-16,5.07-1.84.62-4.07,1.35-3.89,3.94.16,2.4,2.42,2.28,4.05,2.86,3.4,1.21,6.76,2.52,10.19,3.62C500.13,175.84,508.45,179.6,517.7,179.66Zm-97.1-10.94c6.75,2.49,13.42,5,20.14,7.38,3.57,1.26,7.17,2.76,10.88,3.23,5.08.65,10.45,1.55,15.25-1.23s6.43-7.85,5-13.58-5.09-8.58-11.26-8.87C447.28,155,435.17,160,422.86,164,421.18,164.54,420.5,166,420.6,168.72Zm-47.05,1c8.6,3.21,16.82,8.29,26.46,9.58a12.92,12.92,0,0,0,8.2-1.08,11.54,11.54,0,0,0,5.24-14.88c-2.41-6-8.27-8.53-15.57-6.21-7,2.24-13.9,5-20.81,7.65C375.17,165.49,373.32,166.39,373.55,169.72Z"/><path class="a" d="M263.89,246.67a19.75,19.75,0,0,0,10.85.19c11.48-3,17.5.64,20,12q10.5,48.16,19.73,96.58c3.27,17.13,6.76,34.21,10.21,51.3,1.55,7.67,1.58,7.59-5.36,11.52a91.2,91.2,0,0,1-22.19,9.14c-12,3.07-23.26-.51-34.23-5.43-26.91-12.07-35.11-43.14-30.43-66.7,7.22-36.32,20.48-70.8,30.29-106.31A17.25,17.25,0,0,1,263.89,246.67Zm4.85,73.93c-2.32.3-4.31-.71-6.29-1.67-1.36-.66-2.77-1.11-3.73.4a2.85,2.85,0,0,0,1,4.18c2.41,1.66,4.89,3.18,6.92,4.49a158.47,158.47,0,0,1-17.82,12.83c7-.51,13.46-4.09,20.76-1.52-1.89,9.39-.61,18.59,1.25,27.42-5.18,2.59-8.56-2.5-12.92-2.12-.85,2.55-.85,2.55,10.9,12-6-2.57-6.62,3.87-10.29,5s-8.35-.16-10.68,5.62c7.15-.3,13.31-2.14,20.23-.81-3,8.62-3.77,16.82,1.56,24.71,2.9-2,2.41-4.07,2.05-6.3a32.19,32.19,0,0,1,.82-15.44c.53-1.58,1.26-3,3.31-2.84s3.63.86,3.93,3c.86,6.33,2.77,12.55,1.9,19.06-.25,1.86-1.21,3.89.66,5.51,3.43-.09,3.77-2.73,4.22-5a38.51,38.51,0,0,0,0-13.16c-.36-2.44-1.49-4.79,2-6.51,2-1,.69-3-.87-4.33s-4.66-1.67-4.84-4.95a17.81,17.81,0,0,1,2.5-.29c2.24.06,5.54,1.65,5.85-1.93.34-4.11-3.55-2.58-5.82-3.12-1.37-.33-3.28.58-4-1.55,4.19-3.07,10.36-.58,14.61-5.38-4.74-3.95-9.72,1.36-14.05-1.28,1.65-7.59,3.29-15.22,1.55-22.63,1-2.37,3.82-.83,4.53-3a5,5,0,0,0-.09-1.17c-.94-2.76-4.59-2.41-5.73-5l-.1.08a14.4,14.4,0,0,1,2.88-.34c1.66.14,3.48.47,3.75-1.75.25-2.07-1.55-2.51-3.15-2.89-1.78-.43-3.73-.51-5.32-2.28,13.17-3.17,13.17-3.17,13.57-6.55-3.82-1.24-7.7,2.08-12-.05a97.43,97.43,0,0,0-1.12-30.58c4.11.17,5.35,4.8,10.12,3.58-2.85-5.77-8.35-7.91-12.85-11.17,1.67-1.45,4.68-.14,4.75-3.16.06-2.69-2.9-2.09-4.08-3.5,3.66-2.39,9.25-.86,12.74-5.94-4.6-1.05-7.75,2-11,.22-.15-3.44,3.82-5.11,3.66-8.66-6-2.21-6.21,5.06-9.63,6.18-3.14-1.73.57-8.79-6-7.2-1.67,3.52.91,6.71-.39,9.83-2.36,1.14-5.36-2.46-7.15.81-2.28,4.19,4.08,3.64,4.06,6.68-1.5,2.58-6.83,1.53-5.93,6.11,2.05,2.51,5.41-.35,7.39,2.4a34.56,34.56,0,0,0-1.17,14.69c.93,6.3,2.67,12.47,4.07,18.7Z"/><path class="a" d="M530,253.55c1.51,27.27-20,52.8-42.07,61.2-12.52,4.76-25.28,3.46-37.7-1a107.64,107.64,0,0,1-37.43-23.24c-17.54-16.4-34.71-33.21-52.92-48.9-4.07-3.5-7.5-7.73-11.27-11.59a4.7,4.7,0,0,1-.95-6c.92-2,1.95-4.34,1.61-6.31-2-11.72,8.58-15.82,13.71-23.16,1.39-2,3.74-.73,5.64-.41,26.28,4.46,52.41,9.67,78.53,15,18.45,3.76,36.92,7.48,55.45,10.88,6.07,1.11,12.38.67,18.44,2.3,2.5.67,4.4,1.53,5,4.37C528,235.93,531.13,244.93,530,253.55Zm-18.59,30.54c-8.37-12.32-11.39-25.29-6.77-39.56.73-2.26-.83-3.86-3.52-4.6-11.6-3.15-23.51-4.72-35.18-7.47-32.94-7.75-66.67-11.7-99.4-20.46-1.71-.46-3.24-.91-4.25.69-1.24,2,.25,3.23,1.54,4.61,2.82,3,6.93,3.89,10.08,6.41q50.46,40.42,101,80.7c5.12,4.08,6.34,3.81,9.38-2.06,4.3-8.32,10.76-13.82,20.2-15.41A13.41,13.41,0,0,0,511.44,284.09Z"/><path class="a" d="M439.36,130.8,314.72,162.24l-.57-1.56c4.12-3.69,9.18-6,13.94-8.71,14.85-8.38,31.84-10.33,47.73-15.58,9.32-3.07,18.89-5.39,28.37-8,11.62-3.13,23.17-1,34.73-.1C439.07,129.16,439.21,130,439.36,130.8Z"/><path class="a" d="M267.32,235.32a35.29,35.29,0,0,0,11.36-2.07,13,13,0,0,1,11.93,1.67c7.37,5,13.63,4.09,19.93-2.31,5.19-5.27,10.68-9.44,18.53-9.92,3.76-.22,6.59-2.77,7.43-6.78,1.69-8,4.64-15.19,11.79-20.13,2.53-1.74,2.43-4.85,1.48-7.72-2.2-6.61-1-13.05,1.41-19.28,1.24-3.14.84-6.27.94-9.43.05-1.7.46-3.26,2.47-3.56,1.77-.27,2.45,1.19,3,2.4,1.56,3.22,2.11,6.56-.16,9.68-4,5.56-4.86,10.89-.91,17.16,3.43,5.43,1.78,10.55-4.61,14.63-6,3.83-8,8.75-7.56,15.62.51,7.33-1.8,9.87-9.18,11.68a26.73,26.73,0,0,1-4.1.87c-8.5.72-14.44,5.11-18.71,12.34s-11.12,9.64-18.39,5.48c-7-4-13.44-6.83-21.29-2.5a4.84,4.84,0,0,1-6.11-1C264.76,239.7,267,237.71,267.32,235.32Z"/><path class="a" d="M235.35,326.1c-8.1,26.7-16.19,53.41-24.5,80.84-4.24-4.9-5.53-11.38-11.42-13.43,8.42-24.63,16-49.21,34.45-68.1Z"/><path class="a" d="M241.06,270.38c4.31-9.94,6.8-20.58,10.44-30.84,5.91-16.6,12.16-33.1,17.46-49.89,2.27-7.23,5.57-14,7.66-21.28,1-3.54,3.18-5.35,7.76-5.05-2.3,8.62-4.32,17.09-6.83,25.43-5.3,17.6-10.7,35.19-16.36,52.68C257.49,252.87,251.19,262.75,241.06,270.38Z"/><path class="a" d="M282.38,189.94c1.44-15.17,5.67-19,22.45-20.89C306,180.66,297.72,188.55,282.38,189.94Z"/><path class="a" d="M312.18,167.2c4.25,9.86-2.7,24.19-13.77,29.9-7.43,3.84-16.56,3.57-19.69-1,8.18-1.71,16.86-1.39,23.56-7.14S311.77,175.88,312.18,167.2Z"/><path class="a" d="M280.83,156.49c-3.46-10.17-2-18.64,6.36-25.29C293.2,141.77,291.06,150.73,280.83,156.49Z"/><path class="a" d="M481.69,363c-9.76-2.25-10.43-3.27-10.19-15.1,3.63-1.23,5.79-.26,6.74,3.77C479.13,355.44,480.47,359.09,481.69,363Z"/><path class="a" d="M265.8,173c-5,6.72-10.77,8.91-18.1,5.92C250.34,172.36,253.81,171.15,265.8,173Z"/><path class="a" d="M329.9,422.32c5.75,6.33.37,12-.16,18.33C322.64,434.45,322.75,429.23,329.9,422.32Z"/><path class="a" d="M534.88,223.11c8.84-4.31,11.36,4.85,17.47,7.08C545.89,234.11,540.78,231.89,534.88,223.11Z"/><path class="a" d="M265.57,181c.36-.68.87-1.42,1.61-.65.56.58.2,1.4-.4,2Z"/><polygon class="a" points="337.02 422.02 337.14 422.37 336.79 422.31 337.02 422.02"/><path class="a" d="M291.06,156.17c-.49.32-1,.46-1.37-.13-.09-.16.27-.58.42-.89Z"/><path d="M325.51,244.06c2,1.93.4,3.6.08,5.21-2.47,12.42-2.58,24.19,6.7,34.51a35.76,35.76,0,0,0,8.81,7c8.13,4.76,16.39,9.28,24.66,13.78a15.6,15.6,0,0,0,4.58,1.31c18.07,3.36,31.79,12.61,40,29.39,2.51,5.12.73,8.14-5,7.79a36.68,36.68,0,0,1-19.42-7.31,4,4,0,0,0-3.14-1.2c-.51,4.75-1,9.62-1.61,15.05,10.27,4.38,14.9,12.85,15.18,23.94.14,5.27-2.07,10.17-2.82,15.32-.23,1.62-1.33,3.19-3.21,3.05-6.07-.42-11.71,2.3-17.77,2.17A17.94,17.94,0,0,1,362.37,391c-.49-.33-.83-.88-1.31-1.23-2.1-1.57-5.85-.12-6.77-3.93a25.84,25.84,0,0,1-.4-11.91c1.39-5.94.8-12.4,5.3-17.56,3.63-4.16,7.69-7.14,13.23-7.35,3.68-.14,4.51-1.88,4.94-5.23,2.16-17.08-6.86-33.89-22.7-40.52-2.74-1.14-5.3-2.73-9-4.66,1.94,9.24,6.19,17.39,3.64,26.1-2.11,1.17-3.57.54-5.22-.55-9-5.93-14.24-13.65-19.34-24a19.3,19.3,0,0,1-1.87-8.74c.09-8.2-1.25-16.18-3-24.16-1.28-6-.47-12,1-17.87C321.52,247.13,322.26,244.22,325.51,244.06Zm18.1,71.5c-.15.43.07.35-.1.07a7.14,7.14,0,0,0-2.78-4.47c-5.61-5-8-11.61-10.32-18.43-.68-2.05.53-5-3.26-6.4-.66,8.81,3.77,15.44,7.93,21.91C337,311.29,338.9,315.34,343.61,315.56ZM404.89,338c-3-13.42-18.32-23.89-31.2-24.46C386.56,318.54,397.92,325.42,404.89,338Zm-20.83,19.41c-4.63,11.77-13.59,19.45-24.14,25.68C371.77,382,386.05,366.76,384.06,357.39Zm.21,26.23c3-5.8,4-10.78,2.93-15.75l-7.81,10.48C380.78,380.63,382,382.59,384.27,383.62Z"/><path d="M517.7,179.66c-9.25-.06-17.57-3.82-26.14-6.56-3.43-1.1-6.79-2.41-10.19-3.62-1.63-.58-3.89-.46-4.05-2.86-.18-2.59,2.05-3.32,3.89-3.94,5.3-1.82,10.64-3.56,16-5.07,7.13-2,14.25-4.11,21.5-5.52,5.86-1.14,11.89,2.36,14.53,7.42,2.48,4.75,1.52,11.44-2.34,15.67C527.36,179.1,522.57,179.55,517.7,179.66Zm5-21.75c1.88,8.59-3.44,12.59-11.39,15.43,9.29,2.58,16,.16,17.54-5.37C530.21,163.25,528.14,159.43,522.71,157.91Z"/><path d="M420.6,168.72c-.1-2.69.58-4.18,2.26-4.72,12.31-4,24.42-9,37.74-8.35,6.17.29,9.85,3.28,11.26,8.87s-.27,10.85-5,13.58-10.17,1.88-15.25,1.23c-3.71-.47-7.31-2-10.88-3.23C434,173.73,427.35,171.21,420.6,168.72Zm29,4.4a18.57,18.57,0,0,0,11.28,1.23c3.31-.65,6.33-2.29,6.36-6.08s-1.85-6.79-6.23-7.39C460.06,169.38,458.65,171,449.64,173.12Z"/><path d="M373.55,169.72c-.23-3.33,1.62-4.23,3.52-4.94,6.91-2.61,13.77-5.41,20.81-7.65,7.3-2.32,13.16.25,15.57,6.21a11.54,11.54,0,0,1-5.24,14.88,12.92,12.92,0,0,1-8.2,1.08C390.37,178,382.15,172.93,373.55,169.72ZM407,163.23c-.5,6.46-6.55,6.89-10.54,9.85,4.08,1.26,7.94,2.83,10.87-.81C409.46,169.68,409.34,166.48,407,163.23Z"/><path d="M282.12,334.9c1.14,2.55,4.79,2.2,5.73,5a5,5,0,0,1,.09,1.17c-.71,2.13-3.55.59-4.53,3,1.74,7.41.1,15-1.55,22.63,4.33,2.64,9.31-2.67,14.05,1.28-4.25,4.8-10.42,2.31-14.61,5.38.69,2.13,2.6,1.22,4,1.55,2.27.54,6.16-1,5.82,3.12-.31,3.58-3.61,2-5.85,1.93a17.81,17.81,0,0,0-2.5.29c.18,3.28,3.18,3.5,4.84,4.95s2.9,3.32.87,4.33c-3.45,1.72-2.32,4.07-2,6.51a38.51,38.51,0,0,1,0,13.16c-.45,2.28-.79,4.92-4.22,5-1.87-1.62-.91-3.65-.66-5.51.87-6.51-1-12.73-1.9-19.06-.3-2.16-2-2.85-3.93-3s-2.78,1.26-3.31,2.84a32.19,32.19,0,0,0-.82,15.44c.36,2.23.85,4.32-2.05,6.3-5.33-7.89-4.55-16.09-1.56-24.71-6.92-1.33-13.08.51-20.23.81,2.33-5.78,7.09-4.48,10.68-5.62s4.26-7.6,10.29-5c-11.75-9.41-11.75-9.41-10.9-12,4.36-.38,7.74,4.71,12.92,2.12-1.86-8.83-3.14-18-1.25-27.42-7.3-2.57-13.76,1-20.76,1.52A158.47,158.47,0,0,0,266.63,328c-2-1.31-4.51-2.83-6.92-4.49a2.85,2.85,0,0,1-1-4.18c1-1.51,2.37-1.06,3.73-.4,2,1,4,2,6.29,1.67l.73.36-.25-.85c-1.4-6.23-3.14-12.4-4.07-18.7a34.56,34.56,0,0,1,1.17-14.69c-2-2.75-5.34.11-7.39-2.4-.9-4.58,4.43-3.53,5.93-6.11,0-3-6.34-2.49-4.06-6.68,1.79-3.27,4.79.33,7.15-.81,1.3-3.12-1.28-6.31.39-9.83,6.55-1.59,2.84,5.47,6,7.2,3.42-1.12,3.6-8.39,9.63-6.18.16,3.55-3.81,5.22-3.66,8.66,3.28,1.81,6.43-1.27,11-.22-3.49,5.08-9.08,3.55-12.74,5.94,1.18,1.41,4.14.81,4.08,3.5-.07,3-3.08,1.71-4.75,3.16,4.5,3.26,10,5.4,12.85,11.17-4.77,1.22-6-3.41-10.12-3.58a97.43,97.43,0,0,1,1.12,30.58c4.29,2.13,8.17-1.19,12,.05-.4,3.38-.4,3.38-13.57,6.55,1.59,1.77,3.54,1.85,5.32,2.28,1.6.38,3.4.82,3.15,2.89-.27,2.22-2.09,1.89-3.75,1.75A14.4,14.4,0,0,0,282,335l-.28-.61c0,.12-.1.31-.05.35A1.69,1.69,0,0,0,282.12,334.9ZM276,319.33c2.65-11.07,1.9-21.81-3.39-32.09C267.47,298.56,271,309,276,319.33Zm.46,43.89c2.79-7.83,3.6-15.57-.62-23.06C272.6,348,273.21,355.63,276.46,363.22Z"/><path d="M511.44,284.09a13.41,13.41,0,0,1-6.9,2.85c-9.44,1.59-15.9,7.09-20.2,15.41-3,5.87-4.26,6.14-9.38,2.06q-50.52-40.34-101-80.7c-3.15-2.52-7.26-3.39-10.08-6.41-1.29-1.38-2.78-2.65-1.54-4.61,1-1.6,2.54-1.15,4.25-.69,32.73,8.76,66.46,12.71,99.4,20.46,11.67,2.75,23.58,4.32,35.18,7.47,2.69.74,4.25,2.34,3.52,4.6C500.05,258.8,503.07,271.77,511.44,284.09Zm-123.2-56.55c-.87-1.08-1.92-1.1-3.45-.41l2.45,1.46a55,55,0,0,0,11,8.75,5.84,5.84,0,0,0,2.29-4.52C396.6,230.93,392.74,228.53,388.24,227.54Zm91.26,74.6a30.68,30.68,0,0,1,8.34-12.48c3.63-3.4,8.43-4.65,12.85-7.18-17.21-10.63-28.92-6-31.35,12.18C472.53,297.05,475.25,300.28,479.5,302.14ZM486,241.92c-12.48-4-15.84-3-17.76,6.36-2.75,13.43-1.8,13.89,13.33,18.54C481.86,258.24,480.92,249.51,486,241.92ZM465,291c2.15-9,6.44-15.21,14.5-19.28-3.58-2-6.61-3.5-9.44-5.3-4.29-2.73-7.92-.86-10.86,1.92-3.47,3.27-6.61,7.1-6.06,12.45a3.37,3.37,0,0,0,1.29,1.92C457.65,285.37,461,287.9,465,291Zm-3.4-32.64c.13-8.21,1.67-14.68,6-20.21-9-4.06-15-4.61-17.92-1.61-3.69,3.73-5.34,8.91-3.22,13.2C449.08,255.07,455.58,255.66,461.58,258.4Zm39.68,17.89c-5.08-10.47-4.27-21.3-2.34-31.91-6.45-1.82-8.73-.89-10.5,4.09a29.8,29.8,0,0,0-1.58,7C485.39,269.79,486.63,271.63,501.26,276.29Zm-42-14.45c-4.08-2.13-7.55-4-11.1-5.75a10.67,10.67,0,0,0-13.53,3.54c-1.63,2.48-2.36,5.23.39,7.55,4.07,3.43,7.82,7.32,13.09,9.85C450.29,270.93,453.25,265.61,459.24,261.84Zm-13.56-29.19c-3.86-.84-6.93-1.52-10-2.16-2.81-.59-5.81-1.19-7,2.43s-2.06,7.69,1.93,10.19c2.95,1.85,6.05,3.78,10.09,4.31C440.12,242,442.4,237.69,445.68,232.65Zm-7.89,18.63c-3.52-1.95-6-3.67-8.73-4.77-4.07-1.64-7.46,0-9.77,3.41-2.41,3.57.42,5.46,2.95,7.15,1.94,1.3,3.28,3.53,6.16,4C429.5,256.47,432.5,253.49,437.79,251.28ZM423.9,228.72c-11.08-4.32-14.73-4.08-15.23,3.55a75.52,75.52,0,0,0,13.88,6.78A37.6,37.6,0,0,1,423.9,228.72Zm-5,13.65c-3.18-2.67-6.6-3.87-9.9-5.18a4.44,4.44,0,0,0-5.76,1.72c-1.33,2.15.61,3.29,2,4.38,2.87,2.32,5.36,5.19,8.85,6.69Zm-32.18-20.71,15.68,7.82c1.35-1.91,2.53-3.24,1.84-5.41C398.65,222.36,393,221,386.75,221.66Z"/><path class="a" d="M404.89,338c-7-12.56-18.33-19.44-31.2-24.46C386.57,314.09,401.92,324.56,404.89,338Z"/><path class="a" d="M384.06,357.39c2,9.37-12.29,24.59-24.14,25.68C370.47,376.84,379.43,369.16,384.06,357.39Z"/><path class="a" d="M343.61,315.56c-4.71-.22-6.57-4.27-8.53-7.32-4.16-6.47-8.59-13.1-7.93-21.91,3.79,1.41,2.58,4.35,3.26,6.4,2.28,6.82,4.71,13.47,10.32,18.43a7.14,7.14,0,0,1,2.78,4.47Z"/><path class="a" d="M384.27,383.62c-2.28-1-3.49-3-4.88-5.27l7.81-10.48C388.22,372.84,387.3,377.82,384.27,383.62Z"/><path class="a" d="M343.51,315.63c.17.28-.05.36.1-.07Z"/><path class="a" d="M522.71,157.91c5.43,1.52,7.5,5.34,6.15,10.06-1.58,5.53-8.25,7.95-17.54,5.37C519.27,170.5,524.59,166.5,522.71,157.91Z"/><path class="a" d="M449.64,173.12c9-2.15,10.42-3.74,11.41-12.24,4.38.6,6.27,3.51,6.23,7.39s-3,5.43-6.36,6.08A18.57,18.57,0,0,1,449.64,173.12Z"/><path class="a" d="M407,163.23c2.3,3.25,2.42,6.45.33,9-2.93,3.64-6.79,2.07-10.87.81C400.49,170.12,406.54,169.69,407,163.23Z"/><path class="a" d="M276,319.33c-5.05-10.31-8.53-20.77-3.39-32.09C277.9,297.52,278.65,308.26,276,319.33Z"/><path class="a" d="M276.46,363.22c-3.25-7.59-3.86-15.26-.62-23.06C280.06,347.65,279.25,355.39,276.46,363.22Z"/><path class="a" d="M269.22,320.11l.25.85-.73-.36Z"/><path class="a" d="M282.12,334.9a1.69,1.69,0,0,1-.43-.18c-.05,0,0-.23.05-.35l.28.61Z"/><path class="a" d="M479.5,302.14c-4.25-1.86-7-5.09-10.16-7.48,2.43-18.14,14.14-22.81,31.35-12.18-4.42,2.53-9.22,3.78-12.85,7.18A30.68,30.68,0,0,0,479.5,302.14Z"/><path class="a" d="M486,241.92c-5.11,7.59-4.17,16.32-4.43,24.9-15.13-4.65-16.08-5.11-13.33-18.54C470.19,239,473.55,237.92,486,241.92Z"/><path class="a" d="M465,291c-4-3.14-7.33-5.67-10.57-8.29a3.37,3.37,0,0,1-1.29-1.92c-.55-5.35,2.59-9.18,6.06-12.45,2.94-2.78,6.57-4.65,10.86-1.92,2.83,1.8,5.86,3.3,9.44,5.3C471.42,275.83,467.13,282.05,465,291Z"/><path class="a" d="M461.58,258.4c-6-2.74-12.5-3.33-15.1-8.62-2.12-4.29-.47-9.47,3.22-13.2,3-3,9-2.45,17.92,1.61C463.25,243.72,461.71,250.19,461.58,258.4Z"/><path class="a" d="M501.26,276.29c-14.63-4.66-15.87-6.5-14.42-20.84a29.8,29.8,0,0,1,1.58-7c1.77-5,4.05-5.91,10.5-4.09C497,255,496.18,265.82,501.26,276.29Z"/><path class="a" d="M459.24,261.84c-6,3.77-8.95,9.09-11.15,15.19-5.27-2.53-9-6.42-13.09-9.85-2.75-2.32-2-5.07-.39-7.55a10.67,10.67,0,0,1,13.53-3.54C451.69,257.82,455.16,259.71,459.24,261.84Z"/><path class="a" d="M445.68,232.65c-3.28,5-5.56,9.39-4.95,14.77-4-.53-7.14-2.46-10.09-4.31-4-2.5-3.08-6.54-1.93-10.19s4.15-3,7-2.43C438.75,231.13,441.82,231.81,445.68,232.65Z"/><path class="a" d="M437.79,251.28c-5.29,2.21-8.29,5.19-9.39,9.78-2.88-.46-4.22-2.69-6.16-4-2.53-1.69-5.36-3.58-2.95-7.15,2.31-3.4,5.7-5,9.77-3.41C431.79,247.61,434.27,249.33,437.79,251.28Z"/><path class="a" d="M423.9,228.72a37.6,37.6,0,0,0-1.35,10.33,75.52,75.52,0,0,1-13.88-6.78C409.17,224.64,412.82,224.4,423.9,228.72Z"/><path class="a" d="M418.93,242.37,414.07,250c-3.49-1.5-6-4.37-8.85-6.69-1.34-1.09-3.28-2.23-2-4.38a4.44,4.44,0,0,1,5.76-1.72C412.33,238.5,415.75,239.7,418.93,242.37Z"/><path class="a" d="M386.75,221.66c6.22-.7,11.9.7,17.52,2.41.69,2.17-.49,3.5-1.84,5.41Z"/><path class="a" d="M388.24,227.54c4.5,1,8.36,3.39,12.32,5.28a5.84,5.84,0,0,1-2.29,4.52,55,55,0,0,1-11-8.75Z"/><path class="a" d="M387.24,228.59l-2.45-1.46c1.53-.69,2.58-.67,3.45.41Z"/><path class="a" d="M366.36,387.77s7.76-2.86,9.57-6.3c0,0,2.82,5.88,5.83,7.24C381.76,388.71,372.42,391.88,366.36,387.77Z"/></svg>