<svg xmlns="http://www.w3.org/2000/svg" viewBox="0 0 800 800"><defs><style>.cls-1{isolation:isolate;}.cls-2,.cls-4,.cls-5{fill:none;stroke-linejoin:bevel;}.cls-2,.cls-4{stroke:#000;}.cls-2,.cls-5{stroke-width:8px;}.cls-3{fill:#fff;}.cls-5{stroke:#fff;}.cls-6{mix-blend-mode:darken;}.cls-7{fill:red;}</style></defs><title>koolaid</title><g class="cls-1"><g id="Layer_1" data-name="Layer 1"><polyline points="492.84 194.29 490.16 197.6 488.44 201.48 486.76 205.36 485.81 209.5 484.16 213.43 483.52 217.62 483.31 221.85 482.83 226.04 482.38 230.27 482.69 234.51 483.31 238.7 484.61 242.75 485.83 246.78 486.95 250.85 488.22 254.91 490.4 258.55 492.88 261.99 494.85 265.76 497.28 269.23 499.14 273.07 502.19 276.14 504.18 279.9 506.42 283.5 509.18 286.76 511.21 290.5 513.39 294.13 515.37 297.88 517.19 301.71 519.54 305.27 520.86 309.33 523.12 312.96 524.99 316.78 525.71 321.04 527.19 325 528.82 328.94 530.04 333.02 530.31 337.3 531.13 341.45 531.75 345.64 531.89 349.88 532.88 354.07 532.09 358.33 532.94 362.58 532.21 366.8 531.61 371 531.29 375.22 531.08 379.47 530.21 383.63 529.67 387.86 528.38 391.92 526.95 395.93 525.97 400.05 524.52 404.04 523.66 408.21 522.29 412.24 520.69 416.17 519.1 420.08 517.43 423.96 515.94 427.91 514.31 431.81 512.49 435.62 511.41 439.76 508.93 443.27 507.66 447.33 505.48 450.97 503.87 454.88 502.18 458.76 500.11 462.44 497.94 466.07 495.7 469.65 494.22 473.66 491.89 477.19 490.07 481.02 487.32 484.29 485.69 488.24 482.83 491.44 480.8 495.15 478.41 498.65 476.72 502.54 474.71 506.26 473.44 510.31 471.66 514.17 470.76 518.32 470.1 522.5 470.14 526.75 469.7 530.93 469.52 535.14 466.02 536.81 461.78 536.93 457.62 538.09 453.37 538.18 449.11 537.61 444.87 538.12 440.63 537.7 440.5 537.92 436.24 538.53 431.97 538.45 427.71 538.21 423.46 537.93 419.24 537.22 415.02 536.73 411.74 535.24 411.4 530.93 410.91 526.73 410.77 522.51 409.64 518.43 409.09 514.22 407.78 510.2 406.18 506.29 404.57 502.37 402.17 498.87 400.01 495.25 398.34 491.34 395.87 487.91 393.35 484.51 391.53 480.69 389.45 477.02 387.38 473.36 384.89 469.91 382.64 466.33 381.37 462.23 379.18 458.62 377.03 454.97 375.03 451.25 373.78 447.18 371.74 443.47 370.34 439.48 368.02 435.88 366.67 431.87 365.29 427.88 363.61 424 362.03 420.09 360.96 415.97 359.04 412.17 357.82 408.1 356.62 404.04 354.86 400.15 354.25 395.92 352.75 391.93 352.38 387.67 350.76 383.67 350.7 379.38 349.45 375.27 348.93 371.05 349.31 366.77 348.59 362.57 348.66 358.33 348.35 354.07 348.9 349.85 349.65 345.67 349.58 341.39 350.54 337.24 351.12 333.02 352.15 328.89 354.03 325.02 354.99 320.88 356.86 317.06 358.01 312.95 359.5 308.96 362.05 305.49 364.17 301.82 365.36 297.64 368.16 294.37 370.33 290.73 372.36 287 374.64 283.44 376.93 279.87 379.42 276.44 381.8 272.94 384.2 269.45 386.11 265.64 388.76 262.31 390.99 258.7 392.31 254.64 394.25 250.88 395.28 246.77 396.89 242.84 397.82 238.71 398.41 234.5 398.01 230.25 398.56 226.03 398.28 221.8 397.57 217.62 396.96 213.42 395.67 209.38 394.14 205.44 392.82 201.41 390.76 197.7 388.76 193.97"/><polyline class="cls-2" points="492.84 194.29 490.16 197.6 488.44 201.48 486.76 205.36 485.81 209.5 484.16 213.43 483.52 217.62 483.31 221.85 482.83 226.04 482.38 230.27 482.69 234.51 483.31 238.7 484.61 242.75 485.83 246.78 486.95 250.85 488.22 254.91 490.4 258.55 492.88 261.99 494.85 265.76 497.28 269.23 499.14 273.07 502.19 276.14 504.18 279.9 506.42 283.5 509.18 286.76 511.21 290.5 513.39 294.13 515.37 297.88 517.19 301.71 519.54 305.27 520.86 309.33 523.12 312.96 524.99 316.78 525.71 321.04 527.19 325 528.82 328.94 530.04 333.02 530.31 337.3 531.13 341.45 531.75 345.64 531.89 349.88 532.88 354.07 532.09 358.33 532.94 362.58 532.21 366.8 531.61 371 531.29 375.22 531.08 379.47 530.21 383.63 529.67 387.86 528.38 391.92 526.95 395.93 525.97 400.05 524.52 404.04 523.66 408.21 522.29 412.24 520.69 416.17 519.1 420.08 517.43 423.96 515.94 427.91 514.31 431.81 512.49 435.62 511.41 439.76 508.93 443.27 507.66 447.33 505.48 450.97 503.87 454.88 502.18 458.76 500.11 462.44 497.94 466.07 495.7 469.65 494.22 473.66 491.89 477.19 490.07 481.02 487.32 484.29 485.69 488.24 482.83 491.44 480.8 495.15 478.41 498.65 476.72 502.54 474.71 506.26 473.44 510.31 471.66 514.17 470.76 518.32 470.1 522.5 470.14 526.75 469.7 530.93 469.52 535.14 466.02 536.81 461.78 536.93 457.62 538.09 453.37 538.18 449.11 537.61 444.87 538.12 440.63 537.7 440.5 537.92 436.24 538.53 431.97 538.45 427.71 538.21 423.46 537.93 419.24 537.22 415.02 536.73 411.74 535.24 411.4 530.93 410.91 526.73 410.77 522.51 409.64 518.43 409.09 514.22 407.78 510.2 406.18 506.29 404.57 502.37 402.17 498.87 400.01 495.25 398.34 491.34 395.87 487.91 393.35 484.51 391.53 480.69 389.45 477.02 387.38 473.36 384.89 469.91 382.64 466.33 381.37 462.23 379.18 458.62 377.03 454.97 375.03 451.25 373.78 447.18 371.74 443.47 370.34 439.48 368.02 435.88 366.67 431.87 365.29 427.88 363.61 424 362.03 420.09 360.96 415.97 359.04 412.17 357.82 408.1 356.62 404.04 354.86 400.15 354.25 395.92 352.75 391.93 352.38 387.67 350.76 383.67 350.7 379.38 349.45 375.27 348.93 371.05 349.31 366.77 348.59 362.57 348.66 358.33 348.35 354.07 348.9 349.85 349.65 345.67 349.58 341.39 350.54 337.24 351.12 333.02 352.15 328.89 354.03 325.02 354.99 320.88 356.86 317.06 358.01 312.95 359.5 308.96 362.05 305.49 364.17 301.82 365.36 297.64 368.16 294.37 370.33 290.73 372.36 287 374.64 283.44 376.93 279.87 379.42 276.44 381.8 272.94 384.2 269.45 386.11 265.64 388.76 262.31 390.99 258.7 392.31 254.64 394.25 250.88 395.28 246.77 396.89 242.84 397.82 238.71 398.41 234.5 398.01 230.25 398.56 226.03 398.28 221.8 397.57 217.62 396.96 213.42 395.67 209.38 394.14 205.44 392.82 201.41 390.76 197.7 388.76 193.97"/><polyline class="cls-3" points="426.8 539.53 426.29 544.18 426.43 548.83 426.41 553.49 426.69 558.15"/><polyline class="cls-2" points="426.8 539.53 426.29 544.18 426.43 548.83 426.41 553.49 426.69 558.15"/><polyline class="cls-3" points="425.38 539.53 425.75 544.18 425.56 548.83 425.82 553.49 425.97 558.15"/><polyline class="cls-2" points="425.38 539.53 425.75 544.18 425.56 548.83 425.82 553.49 425.97 558.15"/><polyline class="cls-3" points="455.77 540.3 455.84 544.92 455.79 549.53 455.56 554.15"/><polyline class="cls-2" points="455.77 540.3 455.84 544.92 455.79 549.53 455.56 554.15"/><polyline class="cls-3" points="441.2 539.53 441.39 544.18 441.18 548.83 441.81 553.49 441.58 558.15"/><polyline class="cls-2" points="441.2 539.53 441.39 544.18 441.18 548.83 441.81 553.49 441.58 558.15"/><polygon class="cls-3" points="382.73 273.54 385.76 275.81 388.99 278.48 392.01 281.44 395.49 283.81 398.92 286.24 402.37 288.64 405.45 291.52 408.86 293.99 411.64 297.22 415.28 299.42 418.35 302.3 421.23 305.38 424.62 307.9 427.6 310.87 430.15 314.25 433 317.33 435.81 320.44 439.16 323.09 441.68 326.46 444.27 329.78 446.73 333.19 449.2 336.58 451.18 340.31 453.67 343.7 456.27 347.02 458.31 350.69 460.56 354.25 461.98 358.26 464.61 361.63 465.83 365.71 467.58 369.51 469.65 373.19 471.43 377 472.37 381.14 474.14 384.96 475.86 388.81 477.2 392.8 477.7 397.04 479.24 400.96 480.21 405.05 481.57 409.05 482.7 413.11 483.05 417.33 484.23 421.38 484.88 425.54 485.5 429.69 485.87 433.88 486.41 438.05 487.17 442.19 487.27 446.4 487.52 450.6 488.29 454.75 489.1 458.9 489.41 463.1 489.11 467.32 489.04 471.54 489.76 475.72 489.92 479.93 489.54 484.18 491.67 480.73 493.55 477.16 495.23 473.49 497.12 469.93 498.69 466.19 500.15 462.4 501.99 458.87 502.7 454.78 502.13 450.54 502.31 446.27 501.55 442.06 501.17 437.84 501.56 433.53 500.99 429.31 500.1 425.14 499.27 420.96 499.1 416.68 497.95 412.57 496.96 408.44 496.23 404.25 495.44 400.06 494.22 395.98 493.2 391.85 491.82 387.82 489.74 384.04 488.58 379.95 487.15 375.95 485.62 372 484.18 367.99 482.04 364.29 480.85 360.16 478.22 356.71 476.8 352.67 474.63 349.01 472.7 345.22 470.79 341.4 468.07 338.08 465.62 334.61 463.29 331.06 461.33 327.25 458.81 323.82 455.91 320.69 453.67 317.04 450.83 313.87 448.23 310.51 444.92 307.76 442.31 304.4 439.56 301.15 436.25 298.45 433.54 295.16 430.54 292.15 427.34 289.35 424.45 286.2 420.88 283.83 417.48 281.3 414.31 278.46 411.11 275.66 407.45 273.47 404.13 270.83 400.95 267.95 397.38 265.65 393.46 263.92 389.9 261.61 387.24 265.45 384.95 269.53 382.73 273.54"/><polygon class="cls-2" points="382.73 273.54 385.76 275.81 388.99 278.48 392.01 281.44 395.49 283.81 398.92 286.24 402.37 288.64 405.45 291.52 408.86 293.99 411.64 297.22 415.28 299.42 418.35 302.3 421.23 305.38 424.62 307.9 427.6 310.87 430.15 314.25 433 317.33 435.81 320.44 439.16 323.09 441.68 326.46 444.27 329.78 446.73 333.19 449.2 336.58 451.18 340.31 453.67 343.7 456.27 347.02 458.31 350.69 460.56 354.25 461.98 358.26 464.61 361.63 465.83 365.71 467.58 369.51 469.65 373.19 471.43 377 472.37 381.14 474.14 384.96 475.86 388.81 477.2 392.8 477.7 397.04 479.24 400.96 480.21 405.05 481.57 409.05 482.7 413.11 483.05 417.33 484.23 421.38 484.88 425.54 485.5 429.69 485.87 433.88 486.41 438.05 487.17 442.19 487.27 446.4 487.52 450.6 488.29 454.75 489.1 458.9 489.41 463.1 489.11 467.32 489.04 471.54 489.76 475.72 489.92 479.93 489.54 484.18 491.67 480.73 493.55 477.16 495.23 473.49 497.12 469.93 498.69 466.19 500.15 462.4 501.99 458.87 502.7 454.78 502.13 450.54 502.31 446.27 501.55 442.06 501.17 437.84 501.56 433.53 500.99 429.31 500.1 425.14 499.27 420.96 499.1 416.68 497.95 412.57 496.96 408.44 496.23 404.25 495.44 400.06 494.22 395.98 493.2 391.85 491.82 387.82 489.74 384.04 488.58 379.95 487.15 375.95 485.62 372 484.18 367.99 482.04 364.29 480.85 360.16 478.22 356.71 476.8 352.67 474.63 349.01 472.7 345.22 470.79 341.4 468.07 338.08 465.62 334.61 463.29 331.06 461.33 327.25 458.81 323.82 455.91 320.69 453.67 317.04 450.83 313.87 448.23 310.51 444.92 307.76 442.31 304.4 439.56 301.15 436.25 298.45 433.54 295.16 430.54 292.15 427.34 289.35 424.45 286.2 420.88 283.83 417.48 281.3 414.31 278.46 411.11 275.66 407.45 273.47 404.13 270.83 400.95 267.95 397.38 265.65 393.46 263.92 389.9 261.61 387.24 265.45 384.95 269.53 382.73 273.54"/><polygon class="cls-3" points="391.54 483.97 389.46 480.26 387.54 476.44 386.19 472.39 384.93 468.32 384.28 464.08 382.61 460.12 382.08 455.88 380.86 451.78 380.24 447.57 380.23 443.28 379.47 439.09 378.75 434.88 378.85 430.61 378.72 426.36 378.52 422.1 379.23 417.86 378.75 413.57 379.52 409.36 379.98 405.13 380.68 400.93 380.95 396.67 382.07 392.55 382.84 388.37 383.5 384.16 384.5 380.03 385.53 375.9 386.93 371.88 387.47 367.6 388.82 363.56 389.96 359.44 391.75 355.55 393.56 351.69 395.28 347.8 396.47 343.69 398.54 339.95 399.77 335.84 401.66 332.03 403.45 328.17 405.41 324.39 407.62 320.75 409.3 316.82 411.5 313.19 413.56 309.47 415.9 305.92 418.16 301.79 421.32 304.72 424.16 307.76 426.76 311.06 430.17 313.57 427.77 317.21 425.18 320.6 423.35 324.43 421.49 328.24 419.64 332.04 417.91 335.9 415.71 339.54 413.86 343.35 412.23 347.26 410.86 351.27 409.89 355.43 407.58 359.1 407.02 363.38 405.61 367.36 403.83 371.25 402.97 375.41 401.45 379.39 400.95 383.63 399.57 387.65 399.47 391.96 398.45 396.06 397.82 400.24 397.01 404.4 395.77 408.5 395.23 412.7 395.18 416.96 395.12 421.2 394.84 425.43 394.49 429.64 393.89 433.86 394.46 438.11 393.97 442.34 394.14 446.57 394.6 450.79 394.06 455.05 394.53 459.26 394.68 463.5 395.43 467.69 395.7 471.92 395.84 476.18 396.59 480.36 397.12 484.57 397.86 488.75 398.96 492.86 400.43 496.88 400.55 501.2 401.67 505.44 399.76 501.93 397.99 498.41 396.68 494.65 394.42 491.38 393.33 487.51 391.54 483.97"/><polygon class="cls-2" points="391.54 483.97 389.46 480.26 387.54 476.44 386.19 472.39 384.93 468.32 384.28 464.08 382.61 460.12 382.08 455.88 380.86 451.78 380.24 447.57 380.23 443.28 379.47 439.09 378.75 434.88 378.85 430.61 378.72 426.36 378.52 422.1 379.23 417.86 378.75 413.57 379.52 409.36 379.98 405.13 380.68 400.93 380.95 396.67 382.07 392.55 382.84 388.37 383.5 384.16 384.5 380.03 385.53 375.9 386.93 371.88 387.47 367.6 388.82 363.56 389.96 359.44 391.75 355.55 393.56 351.69 395.28 347.8 396.47 343.69 398.54 339.95 399.77 335.84 401.66 332.03 403.45 328.17 405.41 324.39 407.62 320.75 409.3 316.82 411.5 313.19 413.56 309.47 415.9 305.92 418.16 301.79 421.32 304.72 424.16 307.76 426.76 311.06 430.17 313.57 427.77 317.21 425.18 320.6 423.35 324.43 421.49 328.24 419.64 332.04 417.91 335.9 415.71 339.54 413.86 343.35 412.23 347.26 410.86 351.27 409.89 355.43 407.58 359.1 407.02 363.38 405.61 367.36 403.83 371.25 402.97 375.41 401.45 379.39 400.95 383.63 399.57 387.65 399.47 391.96 398.45 396.06 397.82 400.24 397.01 404.4 395.77 408.5 395.23 412.7 395.18 416.96 395.12 421.2 394.84 425.43 394.49 429.64 393.89 433.86 394.46 438.11 393.97 442.34 394.14 446.57 394.6 450.79 394.06 455.05 394.53 459.26 394.68 463.5 395.43 467.69 395.7 471.92 395.84 476.18 396.59 480.36 397.12 484.57 397.86 488.75 398.96 492.86 400.43 496.88 400.55 501.2 401.67 505.44 399.76 501.93 397.99 498.41 396.68 494.65 394.42 491.38 393.33 487.51 391.54 483.97"/><polygon class="cls-3" points="425.62 202.41 424.8 206.16 424.92 210.25 425.05 214.3 425.01 218.39 425.69 222.42 426.47 226.45 428.19 230.19 429.82 233.94 432.47 237.08 434.63 240.52 437.19 243.72 440.41 246.26 444.08 248.66 447.31 251.63 451.15 253.83 454.49 256.66 457.68 259.67 460.6 262.94 463.3 266.36 466.25 269.58 468.56 273.29 470.42 277.24 471.76 281.38 472.62 285.64 473.66 289.86 474.22 294.18 474.7 298.51 476 302.68 477.77 306.65 479.09 310.77 481.46 314.39 483.65 318.12 485.99 321.82 489.5 324.46 492.77 327.28 495.87 330.4 499.91 332.14 503.76 334.09 507.52 336.22 511.54 337.81 515.54 339.46 519.39 341.49 523.54 342.75 527.41 344.75 531.68 346.31 530.79 341.86 529.27 337.77 527.91 333.66 527.07 329.4 526.06 325.17 524.25 321.2 523.03 317.03 521.11 313.12 519.5 309.1 518.14 304.98 516.86 300.79 514.6 297.06 512.63 293.19 510.38 289.47 507.87 286.14 506.31 282.21 503.77 278.9 501.36 275.51 499.74 271.63 497.33 268.23 495.36 264.57 492.96 261.15 491.15 257.41 488.73 253.98 487.57 249.93 486.05 246.09 484.73 242.2 483.68 238.22 483.31 233.93 483.81 229.66 484.16 225.38 484.79 221.13 485.67 216.92 486.7 212.74 487.25 208.47 488.47 204.35 489.41 199.92 485.06 200.03 480.83 200.66 476.58 200.83 472.33 200.69 468.06 200.39 463.83 201.19 459.56 200.84 455.32 201.24 451.06 201.34 446.81 201.42 442.55 201.24 438.32 202.12 434.04 201.6 429.78 201.91 425.62 202.41"/><polygon class="cls-4" points="425.62 202.41 424.8 206.16 424.92 210.25 425.05 214.3 425.01 218.39 425.69 222.42 426.47 226.45 428.19 230.19 429.82 233.94 432.47 237.08 434.63 240.52 437.19 243.72 440.41 246.26 444.08 248.66 447.31 251.63 451.15 253.83 454.49 256.66 457.68 259.67 460.6 262.94 463.3 266.36 466.25 269.58 468.56 273.29 470.42 277.24 471.76 281.38 472.62 285.64 473.66 289.86 474.22 294.18 474.7 298.51 476 302.68 477.77 306.65 479.09 310.77 481.46 314.39 483.65 318.12 485.99 321.82 489.5 324.46 492.77 327.28 495.87 330.4 499.91 332.14 503.76 334.09 507.52 336.22 511.54 337.81 515.54 339.46 519.39 341.49 523.54 342.75 527.41 344.75 531.68 346.31 530.79 341.86 529.27 337.77 527.91 333.66 527.07 329.4 526.06 325.17 524.25 321.2 523.03 317.03 521.11 313.12 519.5 309.1 518.14 304.98 516.86 300.79 514.6 297.06 512.63 293.19 510.38 289.47 507.87 286.14 506.31 282.21 503.77 278.9 501.36 275.51 499.74 271.63 497.33 268.23 495.36 264.57 492.96 261.15 491.15 257.41 488.73 253.98 487.57 249.93 486.05 246.09 484.73 242.2 483.68 238.22 483.31 233.93 483.81 229.66 484.16 225.38 484.79 221.13 485.67 216.92 486.7 212.74 487.25 208.47 488.47 204.35 489.41 199.92 485.06 200.03 480.83 200.66 476.58 200.83 472.33 200.69 468.06 200.39 463.83 201.19 459.56 200.84 455.32 201.24 451.06 201.34 446.81 201.42 442.55 201.24 438.32 202.12 434.04 201.6 429.78 201.91 425.62 202.41"/><polygon class="cls-3" points="472.75 521.76 468.23 521.4 463.94 521.82 459.76 520.87 455.62 519.89 451.78 518.06 447.86 516.31 444.9 513.18 443.47 509.19 442.62 505.24 441.51 509.13 439.86 512.9 436.99 516.01 433.07 517.6 429.27 519.29 425.15 520.01 421.16 521.35 416.95 521.34 412.8 521.6 408.24 521.71 409.11 526.33 410.41 530.72 411.63 535 415.64 535.52 419.78 535.01 423.92 534.81 428.06 535.13 432.2 535.37 436.34 535.39 440.48 535.38 444.63 534.92 448.77 535.26 452.91 535.49 457.05 535.1 461.2 534.79 465.35 534.71 469.35 534.97 470.39 530.67 471 526.12 472.75 521.76"/><polygon class="cls-5" points="472.75 521.76 468.23 521.4 463.94 521.82 459.76 520.87 455.62 519.89 451.78 518.06 447.86 516.31 444.9 513.18 443.47 509.19 442.62 505.24 441.51 509.13 439.86 512.9 436.99 516.01 433.07 517.6 429.27 519.29 425.15 520.01 421.16 521.35 416.95 521.34 412.8 521.6 408.24 521.71 409.11 526.33 410.41 530.72 411.63 535 415.64 535.52 419.78 535.01 423.92 534.81 428.06 535.13 432.2 535.37 436.34 535.39 440.48 535.38 444.63 534.92 448.77 535.26 452.91 535.49 457.05 535.1 461.2 534.79 465.35 534.71 469.35 534.97 470.39 530.67 471 526.12 472.75 521.76"/><polyline class="cls-2" points="492.88 194.32 490.28 197.66 488.62 201.55 486.9 205.41 485.41 209.37 485.02 213.63 483.97 217.7 483.13 221.83 482.48 226.03 483.18 230.25 482.83 234.49 483.48 238.68 484.14 242.87 485.18 246.98 487.08 250.8 488.89 254.6 490.74 258.37 492.4 262.29 495.11 265.59 497.54 269.06 499.26 273 501.72 276.45 504.3 279.82 506.34 283.55 508.7 287.07 511.19 290.5 513.03 294.34 515.39 297.87 517.71 301.44 518.9 305.59 521.29 309.13 522.66 313.16 524.94 316.8 526.36 320.81 527.23 324.99 528.52 329.02 529.92 333.05 530.51 337.26 531.13 341.45 532.06 345.61 532.21 349.86 532.46 354.09 532.82 358.33 532.45 362.57 532.27 366.8 531.89 371.03 531.4 375.23 530.75 379.42 529.58 383.51 529.62 387.85 528.72 392 527.37 396.04 526.4 400.18 525.3 404.28 523.14 408.04 521.72 412.03 521.08 416.32 518.81 419.95 517.33 423.89 516.09 427.93 514.18 431.69 513.25 435.86 511.17 439.54 509.83 443.55 507.62 447.17 505.66 450.9 504.64 455.06 502.67 458.79 501.2 462.75 498.73 466.23 497.26 470.19 494.82 473.68 493.46 477.7 491.62 481.48 489.6 485.17 487.54 488.84 485.69 492.62 483.4 496.17 482.12 500.23 479.66 503.7 477.86 507.5 476.6 511.54 474.45 515.2 473.56 519.35 471.86 523.22 471.25 527.4 470.16 531.45 469.15 535.54 469.08 539.76 469.19 543.96 468.68 548.13 467.78 551.98 464.65 554.57 460.85 556.08 456.94 557.3 452.82 557.36 448.76 557.73 444.71 558.25 440.63 558.46 440.5 557.69 436.41 558.53 432.37 557.5 428.33 557.18 424.2 557.24 420.32 555.92 416.72 554.1 413.53 551.83 412.78 548.21 412.08 543.95 412.62 539.7 411.51 535.59 411.12 531.4 410.38 527.25 409.14 523.22 407.5 519.34 405.93 515.46 404.72 511.42 402.74 507.7 401.32 503.73 398.97 500.2 397.83 496.07 395.98 492.3 393.39 488.91 392.08 484.86 389.76 481.33 388.05 477.48 385.68 473.97 383.61 470.31 382.54 466.15 380.7 462.37 378.87 458.58 376.51 455.05 375.38 450.94 373.77 447.06 371.43 443.5 369.68 439.67 368.37 435.66 366.61 431.84 365.51 427.74 363.87 423.87 361.8 420.16 360.24 416.25 359.48 412.01 357.68 408.15 356.33 404.13 355.44 399.98 354.18 395.94 352.68 391.94 351.88 387.77 351.5 383.53 350.57 379.4 349.55 375.26 348.87 371.06 348.75 366.81 348.99 362.55 348.42 358.33 348.69 354.09 349.2 349.88 349.28 345.63 349.96 341.44 350.76 337.29 351.69 333.16 352.48 328.98 353.54 324.87 355.45 321.04 356.13 316.77 357.92 312.91 360.27 309.32 361.38 305.15 364.16 301.82 365.85 297.92 367.67 294.07 370.46 290.81 372.48 287.09 374.69 283.47 377.36 280.15 379.03 276.18 381.73 272.89 383.94 269.27 386.56 265.93 388.57 262.19 390.6 258.49 392.71 254.82 394.45 250.95 395.93 246.98 396.26 242.69 397.72 238.69 397.71 234.44 398.15 230.26 398.66 226.03 398.3 221.8 397.17 217.69 396.5 213.53 395.18 209.53 393.8 205.56 392.54 201.53 390.45 197.86 388.84 193.91"/><polygon class="cls-3" points="492.2 194.15 489.63 196.88 485.57 197.71 481.61 198.81 477.59 199.79 473.52 200.51 469.41 200.9 465.25 200.75 461.13 201 457.02 201.39 452.92 202.3 448.79 202.33 444.64 202.26 440.5 202.56 436.37 201.73 432.24 201.68 428.09 202.18 423.95 202.02 419.86 201.29 415.73 201 411.64 200.48 407.45 200.74 403.48 199.34 399.31 199.21 395.22 198.48 391.41 196.79 388.64 194.15 391.32 191.29 395.2 189.71 399.36 189.31 403.47 188.88 407.46 187.63 411.65 187.96 415.68 186.64 419.82 186.54 423.97 186.81 428.1 186.48 432.22 186.07 436.36 186.47 440.5 185.86 444.64 185.87 448.76 186.67 452.9 186.45 457.01 186.96 461.18 186.51 465.26 187.39 469.36 187.86 473.5 188.01 477.53 188.93 481.63 189.38 485.71 190.08 489.51 191.7 492.2 194.15"/><polygon class="cls-2" points="492.2 194.15 489.63 196.88 485.57 197.71 481.61 198.81 477.59 199.79 473.52 200.51 469.41 200.9 465.25 200.75 461.13 201 457.02 201.39 452.92 202.3 448.79 202.33 444.64 202.26 440.5 202.56 436.37 201.73 432.24 201.68 428.09 202.18 423.95 202.02 419.86 201.29 415.73 201 411.64 200.48 407.45 200.74 403.48 199.34 399.31 199.21 395.22 198.48 391.41 196.79 388.64 194.15 391.32 191.29 395.2 189.71 399.36 189.31 403.47 188.88 407.46 187.63 411.65 187.96 415.68 186.64 419.82 186.54 423.97 186.81 428.1 186.48 432.22 186.07 436.36 186.47 440.5 185.86 444.64 185.87 448.76 186.67 452.9 186.45 457.01 186.96 461.18 186.51 465.26 187.39 469.36 187.86 473.5 188.01 477.53 188.93 481.63 189.38 485.71 190.08 489.51 191.7 492.2 194.15"/><polygon class="cls-3" points="406.26 200.15 410.36 201.03 414.72 200.66 418.97 201.5 423.26 201.82 427.56 202.19 431.88 202.21 436.19 202.15 440.5 202.2 444.81 201.87 449.1 201.55 453.44 202.34 457.75 202.07 462.03 201.43 466.33 201.18 470.64 200.99 474.62 200.15 470.55 200.11 466.29 199.6 462.01 199.15 457.7 199.04 453.44 197.95 449.13 197.9 444.81 198.52 440.5 197.67 436.19 198.08 431.89 198.41 427.59 198.66 423.28 198.72 419 199.29 414.72 199.69 410.43 199.97 406.26 200.15"/><polygon class="cls-2" points="406.26 200.15 410.36 201.03 414.72 200.66 418.97 201.5 423.26 201.82 427.56 202.19 431.88 202.21 436.19 202.15 440.5 202.2 444.81 201.87 449.1 201.55 453.44 202.34 457.75 202.07 462.03 201.43 466.33 201.18 470.64 200.99 474.62 200.15 470.55 200.11 466.29 199.6 462.01 199.15 457.7 199.04 453.44 197.95 449.13 197.9 444.81 198.52 440.5 197.67 436.19 198.08 431.89 198.41 427.59 198.66 423.28 198.72 419 199.29 414.72 199.69 410.43 199.97 406.26 200.15"/><polyline class="cls-2" points="411.99 535.93 415.79 537.78 419.94 538.32 424.06 538.9 428.14 539.76 432.27 540.23 436.45 540.04 440.59 540.33 444.73 540.29 448.92 540.64 453 539.63 457.07 538.86 461.29 538.78 465.15 537.11 469.1 535.86"/><g class="cls-6"><polyline class="cls-7" points="271.98 355.18 276.23 355.09 280.47 354.89 284.73 355.32 288.95 354.75 293.18 354.45 297.42 354.41 301.65 353.8 305.9 354.5 310.14 354.12 314.38 353.73 318.62 354.01 322.86 354.04 327.1 354 331.33 354.29 335.58 354.03 339.82 353.95 344.05 354.41 348.28 354.94 352.52 354.92 356.77 354.89 361.02 354.59 365.25 355.07 369.48 355.45 373.71 355.77 377.96 355.58 382.19 356.12 386.44 355.74 390.68 355.7 394.91 356.35 399.16 355.8 403.38 356.43 407.63 356.25 411.86 356.82 416.1 356.33 420.34 356.76 424.58 356.71 428.81 356.49 433.05 356.23 437.28 356.17 441.53 356.69 445.66 356.38 449.76 355.64 453.89 355.53 458 355.05 462.14 355.18 466.28 355.26 470.39 354.68 474.53 355.14 478.66 354.77 482.79 354.72 486.92 354.77 491.04 355.15 495.19 354.8 499.26 355.67 503.39 355.86 507.43 356.75 511.49 357.43 515.56 358.19 519.01 359.96 519.7 363.97 519.32 368.25 519.6 372.52 518.96 376.78 519.32 381.06 519.75 385.34 518.89 389.59 518.7 393.85 519.3 398.15 518.27 402.38 518.7 406.68 518.38 410.94 518.28 415.21 518.06 419.47 517.63 423.73 517.09 427.98 517.54 432.28 516.89 436.52 516.69 440.79 516.21 445.04 516.43 449.32 516.31 453.59 516.43 457.87 516.38 462.14 515.66 466.4 516.38 470.67 516.42 474.94 516.33 479.21 516.09 483.49 516.52 487.76 516.77 492.03 516.8 496.31 516.49 500.59 516.1 504.87 516.24 509.15 516.24 513.42 517.13 517.69 516.3 521.98 517.13 526.25 517.24 530.53 516.83 534.81 516.35 539.09 516.69 543.37 517.09 547.65 517.03 551.94 516.3 556.22 516.84 560.5 516.47 564.78 516.29 569.07 516.2 573.35 516.26 577.63 516.09 581.91 516.68 586.21 516.09 590.48 516.52 594.77 516.24 599.05 515.26 603.29 515.89 607.61 514.99 611.57 511.04 612.05 506.85 611.36 502.64 612.13 498.45 611.43 494.26 611.14 490.05 611.96 485.85 611.86 481.66 611.12 477.45 611.84 473.26 611.09 469.06 611.49 464.86 611.58 460.62 611.05 456.37 610.95 452.12 611.54 447.87 611.43 443.63 611.15 439.38 610.9 435.13 611.32 430.88 611.09 426.64 611.49 422.39 611.46 418.14 611.49 413.9 611.61 409.65 611.36 405.4 611.72 401.15 611.18 396.91 612.01 392.67 612.06 388.42 612.15 384.16 611.97 379.93 612.45 375.67 612.26 371.42 612.19 367.18 612.65 362.92 612.11 358.68 612.42 354.42 612.13 350.18 612.55 345.94 613.18 341.68 612.65 337.43 612.66 333.19 613.22 328.94 613.01 324.7 613.71 320.45 613.46 316.19 613.24 311.95 613.59 307.71 613.49 303.46 613.3 299.22 613.88 294.97 613.51 290.73 613.71 286.49 613.99 282.24 613.58 278 613.66 273.56 614.08 273.65 609.61 273.37 605.39 273.26 601.15 272.36 596.97 272.39 592.72 272.09 588.5 271.78 584.27 271.5 580.04 271.74 575.79 270.91 571.59 271.53 567.31 270.67 563.11 271 558.85 270.74 554.63 269.82 550.43 270.43 546.15 270 541.94 269.76 537.71 269.36 533.49 269.51 529.24 269.37 525 269.33 520.76 268.42 516.56 268.67 512.31 268.95 508.06 268.05 503.85 268.26 499.6 267.89 495.37 268.16 491.12 267.55 486.89 267.68 482.65 267.95 478.4 267.72 474.16 267.9 469.91 267.52 465.67 267.35 461.43 267.56 457.18 267.21 452.94 267.91 448.69 267.46 444.45 267.25 440.2 267.18 435.95 267.2 431.71 268.06 427.48 267.74 423.23 267.43 418.98 268.31 414.77 267.93 410.51 267.92 406.27 268.12 402.03 268.46 397.8 268.82 393.57 268.63 389.31 269.77 385.14 270 380.91 269.51 376.62 270.63 372.46 270.91 368.23 271.34 364.02 272 359.83 272.29 355.61"/></g></g></g></svg>