<svg xmlns="http://www.w3.org/2000/svg" viewBox="0 0 800 800"><defs><style>.a{fill:#faf6f4}.b{fill:#fca14f}.c{fill:#e83131}</style></defs><path class="a" d="M498.23 370.33h.49c.75 1.36 1.52 2.72 2.26 4.09 1.59 2.89 3.32 5.72 4.7 8.71 2.31 5 4.56 10 6.54 15.14 2.07 5.39 3.8 10.92 5.65 16.4a4.65 4.65 0 0 1 .06 1.35c-.36-.14-.73-.26-1.08-.42-1-.45-2-1.17-3.08-.35a3.09 3.09 0 0 0-1.09 3.23 18.17 18.17 0 0 0 1.25 3.91 22.29 22.29 0 0 1 2 9.61 13 13 0 0 1-.33 1.81 10.48 10.48 0 0 1-1.51-1c-1.51-1.39-3.07-2.63-5.26-2.71-1.54-.06-2.12.24-2.23 1.74a15.51 15.51 0 0 0 .31 4.07c.65 3.23 1.71 6.39 2.1 9.65.55 4.53 1 9.12-.37 13.64a6.27 6.27 0 0 1-2.73 3.64c-5.77 3.81-12.32 4.9-19 4.61a126.51 126.51 0 0 0-16.75.05 26.66 26.66 0 0 0-9.66 3 16.3 16.3 0 0 0-8.68 11.12 4.18 4.18 0 0 1-3 3.4 27.27 27.27 0 0 0-7.25 3.24c-6.23 4.5-7.79 11.24-7.84 18.44 0 2.45.7 4.9.88 7.37.24 3.33-.06 6.58-2.07 9.46a37.06 37.06 0 0 1-12.66 11.18c-4.14 2.32-6.72 6.14-9.33 9.91a3.23 3.23 0 0 0-.36 1A28.21 28.21 0 0 0 413 567a49.74 49.74 0 0 0 10.74 14.17 20.73 20.73 0 0 1 2.09 2.2 10.6 10.6 0 0 1 2.77 8.64 69.4 69.4 0 0 1-1.6 8.09 14 14 0 0 0-.32 5.71c.25 1.82.64 3.62.77 5.45a7.92 7.92 0 0 1-.49 2.87c-.46 1.39-1.54 2.71-1.54 4.06 0 3.29.15 6.7 1.81 9.64 1 1.7 2.32 3.58 4 4.39 4.36 2.11 8.94 3.76 14 3.12a28.78 28.78 0 0 1 5.49-.15c2.66.19 5 1 6.3 3.72.43.91 1 1.75 1.49 2.63a8.34 8.34 0 0 0 4.62 4.1c3.13 1 6.33 2 9.67.9 1.46-.49 2 .18 2.64 1.43.92 1.91 2.1 3.85 4.28 4.43 3 .79 6.07 1.74 9.16.68 2.93-1 5.79-2.26 8.62-3.51 2.27-1 2.92-.94 4.6.8a51.65 51.65 0 0 0 3.75 3.65 4.45 4.45 0 0 0 2.63 1.29c3.63-.25 7.4-.24 10.37-2.93 1.09-1 2.28-1.86 3.28-2.92a2.83 2.83 0 0 1 3.18-.83c4.13 1.07 8.06-.08 11.67-1.93a30.93 30.93 0 0 0 5.85-4.54c2.69-2.34 5.59-4.2 9.2-4.64 2-.25 4-.28 6-.54 3.89-.5 7.56-1.17 10.7-4.13a21.16 21.16 0 0 0 6.88-14.19c.17-1.91-.59-4.22.26-5.64s3.25-1.84 4.83-2.9c4.29-2.88 7.37-6.37 7.09-12.11-.22-4.38.19-8.78.4-13.17a8.75 8.75 0 0 1 .66-2.64c1.63-4.36 5.29-6.67 9-8.88a43.18 43.18 0 0 0 12.58-10.91 14.66 14.66 0 0 0 1.82-3.65 25.25 25.25 0 0 0 1.55-11.33 18.05 18.05 0 0 0-2.43-7.8c-1.63-2.76-4.28-4.49-6.68-6.47a28.79 28.79 0 0 1-3.71-3.61c-1.41-1.69-2.56-3.59-3.94-5.31-2.09-2.6-3-5.67-3.58-8.84a4.05 4.05 0 0 1 .24-1.87c.37-1.22.94-2.39 1.26-3.62 1-3.84 1.88-7.75.29-11.61-1.13-2.74-2.13-5.59-5-7.28a28.48 28.48 0 0 0-9-3.79 21 21 0 0 1-9.33-4.5c-.67-.56-.85-1-.2-1.81a33.6 33.6 0 0 0 3.49-4.87 75.72 75.72 0 0 0 3.79-7.95 3.41 3.41 0 0 0-2-4.07c-1.44-.55-2.59 0-3.67 1.5a32.57 32.57 0 0 1-3 3.49c-1.42 1.44-3 2.73-4.39 4.18-2 2-2.19 2-4.58.43-3-2-4.88-4.93-7.13-7.56a3 3 0 0 1-.28-2.28c1.55-6.71 3.38-13.32 7.12-19.22a13.84 13.84 0 0 0 1.11-2.21 2.47 2.47 0 0 0-.49-2.81 2.71 2.71 0 0 0-3-.87 6.51 6.51 0 0 0-2 1c-1.72 1.35-3.36 2.8-5.06 4.18a3.22 3.22 0 0 1-1 .38 2.64 2.64 0 0 1-.18-.75 69.38 69.38 0 0 1 2.29-15.16c.81-2.72.14-3.44-2.77-3.23a6.34 6.34 0 0 0-1.64.05 14.31 14.31 0 0 0-3.65 1.69 19.59 19.59 0 0 0-2.75 3.05c-.24.27-.45.56-.67.84 0-.39-.09-.78-.16-1.16-.42-2.33-.87-4.64-1.26-7-.25-1.55 0-1.68 1.54-1.18 4.23 1.38 8.25 3.33 12.7 4.17 5.58 1.06 11.07 2.56 16.61 3.86 2.26.53 4.79.61 5.57 3.51 0 .15.29.23.4.38 2.54 3.51 6.18 5.63 9.74 7.9a25.57 25.57 0 0 0 16.17 4.23c3.2-.25 6.4-.3 9.59-.55 7.14-.57 13.32 2 19 5.85 1.58 1.07 2.8 2.65 4.31 3.84.89.7 1.94 1.54 3.22.6 1.44-1.05 1.62-2 .76-3.82-1-2-1.86-4-2.85-6a16.13 16.13 0 0 0-1.85-3c-1.86-2.24-4.1-4.21-5.71-6.61-2.68-4-6.68-6.44-10.37-9.2-2.54-1.89-5.61-3.06-8.38-4.66-6.22-3.59-13.25-4.23-20.09-5.28a23 23 0 0 0-12.81 2.2 4.35 4.35 0 0 1-3.72.27 61.33 61.33 0 0 1-6.44-3.07c-5-3-10-6.19-14.92-9.34-3.09-2-6.24-3.88-9.17-6.07-3.37-2.52-6.52-5.34-9.79-8a53.62 53.62 0 0 1-12.73-15c-3.7-6.42-6.7-13.24-10.25-19.76-2.8-5.15-6-10.1-9-15.15-.36-.6-.69-1.22-1-1.84a23.76 23.76 0 0 1 2.31-.6 4 4 0 0 1 1.37.13c2.6.5 5.22 1 7.81 1.57a28.13 28.13 0 0 1 10.27 4.51 13.93 13.93 0 0 0 2.46 1.18c1.14.52 2-.26 2.67-.88.31-.29.14-1.41-.15-2a18 18 0 0 0-2.35-3.7c-1.62-1.86-3.41-3.57-5.14-5.33a53.33 53.33 0 0 0-13.31-10 59.66 59.66 0 0 0-20.44-6 3.15 3.15 0 0 1-1.76-1c-3.92-4.49-7.76-9.05-11.69-13.53-2.83-3.24-5.75-6.42-8.66-9.59-1.43-1.55-3-3-4.41-4.55a7 7 0 0 1-.71-1.11 6.42 6.42 0 0 1 1.53-.32c2.81.12 5.63.5 8.44.42 5.49-.15 11-.56 16.47-.82 4.93-.22 9.93.05 14.78-.69a19.37 19.37 0 0 1 12.14 2.14 22.07 22.07 0 0 0 7.89 2.22c3.91.31 7.77.9 11.74.94 7.64.06 14.72-1.95 21.66-4.62 4.76-1.83 9.29-4.29 13.89-6.55 2.06-1 4.06-2.15 6-3.31 2.44-1.43 3.24-3.91 2-6.07-.54-1-1.33-1.72-2.45-1.1-2.26 1.24-4.68 1.37-7.16 1.68a37.71 37.71 0 0 1-15.45-1.63 61.21 61.21 0 0 1-6.92-2.58c-5.84-2.51-12-2.2-18.13-2.2a17 17 0 0 0-3.57.24c-5.73 1.33-11.44 2.8-15.83 7.11a23.12 23.12 0 0 0-3.92 4.5c-.62 1-1.12 1.53-2.24 1.47-4.2-.25-8.43-.29-12.6-.8-5.36-.65-10.69-1.6-16-2.57-6.84-1.25-13.78-2.06-20.38-4.45-3.59-1.3-7.41-2-10.53-4.49-2.42-1.91-4.53-4.18-7.42-5.53-2.05-1-3.81-2.54-5.77-3.71-.91-.55-1.23-.87-.33-1.71q6.74-6.3 13.41-12.65c2.84-2.69 5.69-5.37 8.43-8.17a38.7 38.7 0 0 0 3.17-4.11c1.89-2.57 3.81-5.13 5.63-7.76a49 49 0 0 0 2.54-4.24c3.14-5.64 3.25-12 3.83-18.12a5.8 5.8 0 0 1 1.62-3.91c1.95-1.93 3.92-3.85 5.79-5.86 2.12-2.28 4.08-4.71 6.22-7 7.05-7.48 14.15-14.91 21.21-22.38 1.45-1.53 2.94-3 4.25-4.69 1.81-2.26 1.86-4 .3-6.45-2.18-3.46-4.18-7-7.18-10a29.89 29.89 0 0 0-12.06-7.32 4.06 4.06 0 0 0-3.15.27c-2.76 1.18-5.73 2-7.63 4.58a1 1 0 0 1-.47.27c-2.75 1-5.43 2.45-8.27 2.94a32.3 32.3 0 0 1-17.62-1.52 5.17 5.17 0 0 0-6.21 1.24 31.77 31.77 0 0 0-2.49 2.57c-1.58 2-1.41 4 .44 5.81 4.2 4.11 8.37 8.24 12.67 12.24 1.06 1 .92 1.52.06 2.39-4.32 4.38-8.58 8.81-12.94 13.15-3.81 3.8-7.88 7.35-11.55 11.27s-7 8-10.76 11.75c-6.1 6.1-12.08 12.33-18.12 18.49-2.44 2.5-4.92 5-7.36 7.45-.72.73-1.36 1.15-2.33.29-2.79-2.51-5.59-5-8.46-7.42q-3.9-3.27-8-6.32c-2.27-1.71-4.66-3.25-7-4.92a5 5 0 0 1-.92-1.26 3.74 3.74 0 0 1 1.12-.67 35.85 35.85 0 0 1 6-.87 41.12 41.12 0 0 1 6.79.74c2.34.39 3.68-.54 4.06-2.82a3.44 3.44 0 0 0-1.68-3.75 44.16 44.16 0 0 0-4.77-2.73c-2.88-1.37-5.76-2.77-8.76-3.85a33.59 33.59 0 0 0-14.29-1.67 45.29 45.29 0 0 0-10.17 1.88 6 6 0 0 1-5.2-.17c-7.36-3.46-13.84-8.29-20.64-12.62-4.71-3-9.25-6.29-13.74-9.61a130 130 0 0 1-10.91-8.77c-3.48-3.24-6.44-7-9.86-10.34s-6.7-6.25-10.91-8.26a19.13 19.13 0 0 1-2-1.37 27.16 27.16 0 0 0-3.24-2 42.75 42.75 0 0 0-10.75-3.25 3.36 3.36 0 0 0-3.64 1.16c-.79 1-.64 2.41.5 3.78s2.67 2.79 3.84 4.31a13.59 13.59 0 0 1 2.09 3.78c1.56 4.73.26 9.07-2.36 13a8.39 8.39 0 0 1-5.71 4 12.35 12.35 0 0 1-10.72-3.93c-2.52-2.71-3.09-7.34-1.18-9.9.4-.54 1.19-1.25 1.68-1.17 1.88.31 3.86.71 4.91 2.57a2.23 2.23 0 0 1 0 2c-.67.84-1.24 0-1.76-.5-.2-.19-.39-.39-.58-.59-.65-.64-1.47-1.09-2.17-.36a3 3 0 0 0-.78 2.09 12 12 0 0 0 .9 2.88c.83 2.42 2.85 3.31 5.11 3.57s3.29-1.38 4.27-2.95c2.6-4.18.94-10.2-3.59-12.93-1.24-.75-2.65-1.22-4-1.88a5 5 0 0 0-4.26 0A9.6 9.6 0 0 0 231 158c.12.72.1 1.47.25 2.19.62 3 1.36 6.06 3.64 8.16a20.93 20.93 0 0 0 9 5.1 12.8 12.8 0 0 0 11.82-2.8c3.35-2.77 4.88-6.78 6.73-10.55a5.28 5.28 0 0 0 .37-1.87c.33-4.58-.21-9-2.74-12.95a2.89 2.89 0 0 1-.2-.9 2.08 2.08 0 0 1 .79 0 4.68 4.68 0 0 1 1.91.93c4.14 5.1 8.22 10.18 10.44 16.57 2 5.85 4.16 11.58 3.26 17.92a2.1 2.1 0 0 0 .08.82c1.5 5.95 4.34 10.9 10.33 13.34 1.33.54 2.86.6 4.24 1.06 7.38 2.45 14.75 5 22.13 7.45a100 100 0 0 1 24.65 12.59q8.83 6 17.65 12.12c1.88 1.3 3.72 2.66 5.58 4l10.96 7.82c1 .69 1.86 1.47 2.88 2.06 1.66 1 1.72 1 .46 2.29q-7.25 7.55-14.54 15.05c-5.64 5.78-11.35 11.5-17 17.3-6 6.19-11.9 12.47-17.86 18.67a25.38 25.38 0 0 1-2.53 2.1 1.38 1.38 0 0 1-2.07 0 13 13 0 0 0-11.59-2.7c-5.91 1.3-10.83 4.37-15.27 8.28-3.08 2.72-6 5.61-9 8.5-2.42 2.38-4.75 4.85-7.07 7.33-3.19 3.4-6.24 6.92-9.5 10.25-2.82 2.87-5.88 5.51-8.76 8.33-1.17 1.14-2.09 2.55-3.25 3.71-2.78 2.78-5.68 5.45-8.44 8.25s-5.17 5.45-7.73 8.19c-2.38 2.54-4.82 5-7.1 7.65-3.5 4-6.89 8.07-10.31 12.13a4 4 0 0 0-.55.94c-.88 1.9-1.72 3.82-2.62 5.72a3.6 3.6 0 0 1-3.33 2.31 14.47 14.47 0 0 0-12.4 8.72c-1.23 2.56-2.35 5.19-3.67 7.7a23.73 23.73 0 0 1-3.26 5.05 22.7 22.7 0 0 1-14.94 7.35c-3.18.31-6.38 1-9.44-.57a3 3 0 0 0-.8-.21 4.1 4.1 0 0 0-4.14 1.62 16.52 16.52 0 0 0-3.38 11.33c.24 3.33 2.5 6.9 5.88 7.44 1.9.3 3.76.79 5.65 1.1q3.66.6 7.32 1.06c4.92.63 9.91 1.24 14.81.49 5.24-.8 10.46-2 15.25-4.5 1.61-.85 1.84-.8 2.08 1 .43 3.24 1.92 6.08 3 9.09a25.64 25.64 0 0 0 1.89 4.83c2.31 3.93 4.34 8 7.2 11.63 1.46 1.85 2.61 4 4.09 5.79 2.93 3.66 3.08 3.72-.22 7.29a17.48 17.48 0 0 0-3.89 7.45 10.69 10.69 0 0 0-.74 4.28 26.41 26.41 0 0 0 3.22 9.84 1.59 1.59 0 0 1 .05 1.41 55.53 55.53 0 0 1-4 5.58 58.26 58.26 0 0 0-8.45 14.1c-4.09 9.18-7.05 18.77-7.82 28.77-.29 3.75-.47 7.51-.42 11.27 0 3.38.49 6.75.7 10.13a51.49 51.49 0 0 0 1.89 11.35c.8 2.72 1.34 5.52 2.05 8.27 1.33 5.13 2.42 10.34 4.13 15.35a132.81 132.81 0 0 0 5.72 13.08c1.75 3.73 3.57 7.43 5.58 11 1.46 2.61 3.3 5 4.95 7.53.66 1 1.27 2 1.92 3 3 4.6 5.73 9.45 9.17 13.71 4.71 5.82 9.68 11.49 15.95 15.79 2 1.35 3.86 2.46 6.31 1.16a8.64 8.64 0 0 1 2.16-.35 7.6 7.6 0 0 0 2.09-.57c5-2.65 10.09-5.23 15-8.06a118.17 118.17 0 0 0 11.08-7.15c4.7-3.5 9.32-7.14 13.67-11.06a118.16 118.16 0 0 0 8.56-9.31 114.57 114.57 0 0 0 7.75-8.92 96.83 96.83 0 0 0 10.3-17.85c1.14-2.59 2.52-5.09 3.77-7.63.73-1.48.39-4.07-.93-4.79a28.24 28.24 0 0 0-7-3 59.9 59.9 0 0 1-11.57-4.21c-4.19-1.88-7.84-4.71-11.69-7.17a32 32 0 0 1-9.05-8.31 90 90 0 0 1-8.43-14.15 44.91 44.91 0 0 1-4.37-17.79c-.08-3.36-.35-6.79 1.06-10.05s2.59-6.85 4.19-10.13 3.25-6.37 6-8.8a11.72 11.72 0 0 0 1.59-2.22c.69-1 1.38-1.93 2.09-2.89 1.4-1.92 2.78-3.84 4.21-5.73a4.22 4.22 0 0 0 .1-5.11c-1.05-1.81-1.92-3.74-3.11-5.45-.85-1.23-.18-2.28-.11-3.42l2.2.47 1.07.26a50.23 50.23 0 0 0 15.81 1.19 34.54 34.54 0 0 0 13.44-4.32 46 46 0 0 0 13-10.88c5.24-6 7.74-13.21 9.35-20.82.87-4.09-.53-8-1.11-12a31.5 31.5 0 0 0-4.58-12.54c-1.49-2.32-2.94-4.67-4.6-6.86-2.38-3.13-4.85-6.21-7.47-9.14-.75-.83-1.14-1.25-.4-2.17.46-.57.82-1.22 1.24-1.82 2.47-3.53 5.1-7 7.38-10.61 2.76-4.43 4.57-9.23 4-14.6-.32-3-.62-6-1.22-9-.74-3.64-.8-7.17 1.12-10.42a35.45 35.45 0 0 1 3.74-4.69c2.21-2.64 3.9-5.49 4.2-9a5.87 5.87 0 0 0-1.88-5.19 53.66 53.66 0 0 1-4-4.55c-.54-.63-.61-1.07.11-1.82 2.33-2.45 4.45-5.1 6.75-7.58 3.56-3.82 7.18-7.58 10.82-11.31 1.4-1.44 3-2.68 4.41-4.13 2.53-2.65 4.93-5.42 7.44-8.1q12.1-13 24.24-25.93c2.82-3 2.82-3 5.92-.1a2.81 2.81 0 0 1 1.17 2.86c-1 4.71.12 9.39 1.1 13.84A48.61 48.61 0 0 0 428.84 313a16.92 16.92 0 0 0 4.11 3.11 2.48 2.48 0 0 0 2.05 0 3.67 3.67 0 0 0 1.63-4.69c-1.56-2.7-1.94-5.7-2.67-8.62a24.92 24.92 0 0 1-.06-11.71c.42-1.9.64-2 2-.73 3.16 2.93 6.45 5.77 9.31 9 4.94 5.53 9.61 11.3 14.38 17a16 16 0 0 1 2 2.62c3.72 7 7.53 13.87 11 20.95a115.6 115.6 0 0 1 5.87 14.2c2.69 8 5.05 16.11 7.42 24.21 2.33 7.94 3.42 16.13 4.61 24.3a2.73 2.73 0 0 1-1.29 2.78 15.39 15.39 0 0 0-2.68 2.67c-1.13 1.43-2.1 3-3.12 4.48-2 2.86-4.07 5.64-5 9.05-.6 2.12-1.05 4.27-1.69 6.37-1.63 5.43-1.24 10.92-.3 16.35 1.08 6.19 4.35 11.4 8.15 16.29a8.81 8.81 0 0 0 1.58 1.53c.92.69 1.9 1.09 3 .3s1.87-1.73 1.45-3.24c-1.51-5.38.23-10.15 3-14.63 1.81-3 4.09-5.64 5.92-8.59 3.79-6.13 6.56-12.59 4.54-20-.87-3.22-.93-6.81-3.74-9.29a1.77 1.77 0 0 1-.37-1.23c-.07-5.22 0-10.44-.17-15.66-.12-4.31-.42-8.61-.71-12.91-.26-2.27-.59-4.42-.83-6.58zm-336-111.41l-1.73-1.75c-.17.19-.48.38-.47.57 0 .85.18 1.7 1.3 1.74.17 0 .38-.25.87-.56zm229.4 259.39l.31-.5a2.83 2.83 0 0 0-.74-.17 1 1 0 0 0-.64.27.76.76 0 0 0 .19.55 3.86 3.86 0 0 0 .88-.15z"/><path d="M498.23 370.33c.24 2.16.57 4.31.72 6.48.29 4.3.59 8.6.71 12.91.14 5.22.1 10.44.17 15.66a1.77 1.77 0 0 0 .37 1.23c2.81 2.48 2.87 6.07 3.74 9.29 2 7.44-.75 13.9-4.54 20-1.83 2.95-4.11 5.63-5.92 8.59-2.73 4.48-4.47 9.25-3 14.63.42 1.51-.3 2.43-1.45 3.24s-2.1.39-3-.3a8.81 8.81 0 0 1-1.58-1.53c-3.8-4.89-7.07-10.1-8.15-16.29-.94-5.43-1.33-10.92.3-16.35.64-2.1 1.09-4.25 1.69-6.37.95-3.41 3.06-6.19 5-9.05 1-1.5 2-3.05 3.12-4.48a15.39 15.39 0 0 1 2.68-2.67 2.73 2.73 0 0 0 1.29-2.78c-1.19-8.17-2.28-16.36-4.61-24.3-2.37-8.1-4.73-16.21-7.42-24.21a115.6 115.6 0 0 0-5.87-14.2c-3.47-7.08-7.28-14-11-20.95a16 16 0 0 0-2-2.62c-4.77-5.69-9.44-11.46-14.38-17-2.86-3.2-6.15-6-9.31-9-1.33-1.24-1.55-1.17-2 .73a24.92 24.92 0 0 0 .06 11.71c.73 2.92 1.11 5.92 2.67 8.62a3.67 3.67 0 0 1-1.63 4.69 2.48 2.48 0 0 1-2.05 0 16.92 16.92 0 0 1-4.11-3.11 48.61 48.61 0 0 1-10.23-21.38c-1-4.45-2.14-9.13-1.1-13.84a2.81 2.81 0 0 0-1.17-2.86c-3.1-2.89-3.1-2.92-5.92.1q-12.14 13-24.24 25.93c-2.51 2.68-4.91 5.45-7.44 8.1-1.39 1.45-3 2.69-4.41 4.13a680.42 680.42 0 0 0-10.82 11.31c-2.3 2.48-4.42 5.13-6.75 7.58-.72.75-.65 1.19-.11 1.82a53.66 53.66 0 0 0 4 4.55 5.87 5.87 0 0 1 1.88 5.19c-.3 3.54-2 6.39-4.2 9a35.45 35.45 0 0 0-3.74 4.69c-1.92 3.25-1.86 6.78-1.12 10.42.6 3 .9 6 1.22 9 .59 5.37-1.22 10.17-4 14.6-2.28 3.65-4.91 7.08-7.38 10.61-.42.6-.78 1.25-1.24 1.82-.74.92-.35 1.34.4 2.17 2.62 2.93 5.09 6 7.47 9.14 1.66 2.19 3.11 4.54 4.6 6.86a31.5 31.5 0 0 1 4.58 12.54c.58 4 2 7.88 1.11 12-1.61 7.61-4.11 14.8-9.35 20.82a46 46 0 0 1-13 10.88 34.54 34.54 0 0 1-13.44 4.32 50.23 50.23 0 0 1-15.81-1.19l-1.07-.26-2.2-.47c-.07 1.14-.74 2.19.11 3.42 1.19 1.71 2.06 3.64 3.11 5.45a4.22 4.22 0 0 1-.1 5.11c-1.43 1.89-2.81 3.81-4.21 5.73-.71 1-1.4 1.92-2.09 2.89a11.72 11.72 0 0 1-1.59 2.22c-2.76 2.43-4.45 5.61-6 8.8s-2.73 6.78-4.19 10.13-1.14 6.69-1.06 10.05a44.91 44.91 0 0 0 4.37 17.79 90 90 0 0 0 8.43 14.15 32 32 0 0 0 9.05 8.31c3.85 2.46 7.5 5.29 11.69 7.17a59.9 59.9 0 0 0 11.65 4.3 28.24 28.24 0 0 1 7 3c1.32.72 1.66 3.31.93 4.79-1.25 2.54-2.63 5-3.77 7.63a96.83 96.83 0 0 1-10.3 17.85 114.57 114.57 0 0 1-7.75 8.92 118.16 118.16 0 0 1-8.56 9.31c-4.35 3.92-9 7.56-13.67 11.06a118.17 118.17 0 0 1-11.08 7.15c-4.92 2.83-10 5.41-15 8.06a7.6 7.6 0 0 1-2.09.57 8.64 8.64 0 0 0-2.16.35c-2.45 1.3-4.34.19-6.31-1.16-6.27-4.3-11.24-10-15.95-15.79-3.44-4.26-6.14-9.11-9.17-13.71-.65-1-1.26-2-1.92-3-1.65-2.51-3.49-4.92-4.95-7.53-2-3.59-3.83-7.29-5.58-11a132.81 132.81 0 0 1-5.72-13.08c-1.71-5-2.8-10.22-4.13-15.35-.71-2.75-1.25-5.55-2.05-8.27a51.49 51.49 0 0 1-1.89-11.35c-.21-3.38-.66-6.75-.7-10.13-.05-3.76.13-7.52.42-11.27.77-10.08 3.73-19.62 7.85-28.77a58.26 58.26 0 0 1 8.45-14.1 55.53 55.53 0 0 0 4-5.58 1.59 1.59 0 0 0-.05-1.41 26.41 26.41 0 0 1-3.22-9.84 10.69 10.69 0 0 1 .74-4.28 17.48 17.48 0 0 1 3.89-7.45c3.3-3.57 3.15-3.63.22-7.29-1.48-1.84-2.63-3.94-4.09-5.79-2.86-3.6-4.89-7.7-7.2-11.63a25.64 25.64 0 0 1-1.89-4.83c-1-3-2.52-5.85-3-9.09-.24-1.8-.47-1.85-2.08-1-4.79 2.53-10 3.7-15.25 4.5-4.9.75-9.89.14-14.81-.49q-3.66-.47-7.32-1.06c-1.89-.31-3.75-.8-5.65-1.1-3.38-.54-5.64-4.11-5.88-7.44a16.52 16.52 0 0 1 3.38-11.33 4.1 4.1 0 0 1 4.14-1.62 3 3 0 0 1 .8.21c3.06 1.58 6.26.88 9.44.57a22.7 22.7 0 0 0 14.94-7.35 23.73 23.73 0 0 0 3.26-5.05c1.32-2.51 2.44-5.14 3.67-7.7a14.47 14.47 0 0 1 12.4-8.72 3.6 3.6 0 0 0 3.33-2.31c.9-1.9 1.74-3.82 2.62-5.72a4 4 0 0 1 .55-.94c3.42-4.06 6.81-8.14 10.31-12.13 2.28-2.62 4.72-5.11 7.1-7.65 2.56-2.74 5.09-5.52 7.73-8.19s5.66-5.47 8.44-8.25c1.16-1.16 2.08-2.57 3.25-3.71 2.88-2.82 5.94-5.46 8.76-8.33 3.26-3.33 6.31-6.85 9.5-10.25 2.32-2.48 4.65-5 7.07-7.33 2.93-2.89 5.87-5.78 9-8.5 4.44-3.91 9.36-7 15.27-8.28a13 13 0 0 1 11.59 2.7 1.38 1.38 0 0 0 2.07 0 25.38 25.38 0 0 0 2.53-2.1c6-6.2 11.87-12.48 17.86-18.67 5.61-5.8 11.32-11.52 17-17.3q7.31-7.5 14.54-15.05c1.26-1.31 1.2-1.32-.46-2.29-1-.59-1.92-1.37-2.88-2.06L361 231.16c-1.86-1.33-3.7-2.69-5.58-4q-8.81-6.07-17.65-12.12a100 100 0 0 0-24.65-12.59c-7.38-2.47-14.75-5-22.13-7.45-1.38-.46-2.91-.52-4.24-1.06-6-2.44-8.83-7.39-10.33-13.34a2.1 2.1 0 0 1-.08-.82c.9-6.34-1.22-12.07-3.26-17.92-2.22-6.39-6.3-11.47-10.44-16.57a4.68 4.68 0 0 0-1.91-.93 2.08 2.08 0 0 0-.79 0 2.89 2.89 0 0 0 .2.9c2.53 4 3.07 8.37 2.74 12.95a5.28 5.28 0 0 1-.37 1.87c-1.85 3.77-3.38 7.78-6.73 10.55a12.8 12.8 0 0 1-11.82 2.8 20.93 20.93 0 0 1-9-5.1c-2.28-2.1-3-5.17-3.64-8.16-.15-.72-.13-1.47-.25-2.19a9.6 9.6 0 0 1 6.16-11 5 5 0 0 1 4.26 0c1.31.66 2.72 1.13 4 1.88 4.53 2.73 6.19 8.75 3.59 12.93-1 1.57-2.14 3.19-4.27 2.95s-4.28-1.15-5.11-3.57a12 12 0 0 1-.9-2.88 3 3 0 0 1 .78-2.09c.7-.73 1.52-.28 2.17.36.19.2.38.4.58.59.52.47 1.09 1.34 1.76.5a2.23 2.23 0 0 0 0-2c-1.05-1.86-3-2.26-4.91-2.57-.49-.08-1.28.63-1.68 1.17-1.91 2.56-1.34 7.19 1.18 9.9A12.35 12.35 0 0 0 249.3 168a8.39 8.39 0 0 0 5.71-4c2.62-4 3.92-8.32 2.36-13a13.59 13.59 0 0 0-2.09-3.78c-1.17-1.52-2.62-2.82-3.84-4.31s-1.29-2.78-.5-3.78a3.36 3.36 0 0 1 3.64-1.16 42.75 42.75 0 0 1 10.71 3.29 27.16 27.16 0 0 1 3.24 2 19.13 19.13 0 0 0 2 1.37c4.21 2 7.63 5.09 10.91 8.26s6.38 7.1 9.86 10.34a130 130 0 0 0 10.95 8.77c4.49 3.32 9 6.6 13.74 9.61 6.8 4.33 13.28 9.16 20.64 12.62a6 6 0 0 0 5.2.17 45.29 45.29 0 0 1 10.17-1.89 33.59 33.59 0 0 1 14.37 1.73c3 1.08 5.88 2.48 8.76 3.85a44.16 44.16 0 0 1 4.77 2.73 3.44 3.44 0 0 1 1.68 3.75c-.38 2.28-1.72 3.21-4.06 2.82a41.12 41.12 0 0 0-6.79-.74 35.85 35.85 0 0 0-6 .87 3.74 3.74 0 0 0-1.12.67 5 5 0 0 0 .92 1.26c2.3 1.67 4.69 3.21 7 4.92q4.07 3.06 8 6.32c2.87 2.41 5.67 4.91 8.46 7.42 1 .86 1.61.44 2.33-.29 2.44-2.49 4.92-4.95 7.36-7.45 6-6.16 12-12.39 18.12-18.49 3.76-3.76 7.13-7.88 10.76-11.75s7.74-7.47 11.55-11.27c4.36-4.34 8.62-8.77 12.94-13.15.86-.87 1-1.4-.06-2.39-4.3-4-8.47-8.13-12.67-12.24-1.85-1.81-2-3.82-.44-5.81a31.77 31.77 0 0 1 2.49-2.57 5.17 5.17 0 0 1 6.21-1.24 32.3 32.3 0 0 0 17.59 1.54c2.84-.49 5.52-1.92 8.27-2.94a1 1 0 0 0 .47-.27c1.9-2.62 4.87-3.4 7.63-4.58a4.06 4.06 0 0 1 3.15-.27 29.89 29.89 0 0 1 12.06 7.32c3 3 5 6.5 7.18 10 1.56 2.48 1.51 4.19-.3 6.45-1.31 1.65-2.8 3.16-4.25 4.69-7.06 7.47-14.16 14.9-21.21 22.38-2.14 2.27-4.1 4.7-6.22 7-1.87 2-3.84 3.93-5.79 5.86a5.8 5.8 0 0 0-1.62 3.91c-.58 6.17-.69 12.48-3.83 18.12a49 49 0 0 1-2.54 4.24c-1.82 2.63-3.74 5.19-5.63 7.76a38.7 38.7 0 0 1-3.17 4.11c-2.74 2.8-5.59 5.48-8.43 8.17q-6.68 6.36-13.41 12.65c-.9.84-.58 1.16.33 1.71 2 1.17 3.72 2.75 5.77 3.71 2.89 1.35 5 3.62 7.42 5.53 3.12 2.46 6.94 3.19 10.53 4.49 6.6 2.39 13.54 3.2 20.38 4.45 5.32 1 10.65 1.92 16 2.57 4.17.51 8.4.55 12.6.8 1.12.06 1.62-.43 2.24-1.47a23.12 23.12 0 0 1 3.92-4.5c4.39-4.31 10.1-5.78 15.83-7.11a17 17 0 0 1 3.57-.24c6.13 0 12.29-.31 18.13 2.2a61.21 61.21 0 0 0 6.92 2.58 37.71 37.71 0 0 0 15.45 1.63c2.48-.31 4.9-.44 7.16-1.68 1.12-.62 1.91.14 2.45 1.1 1.2 2.16.4 4.64-2 6.07-2 1.16-4 2.3-6 3.31-4.6 2.26-9.13 4.72-13.89 6.55-6.94 2.67-14 4.68-21.66 4.62-4 0-7.83-.63-11.74-.94a22.07 22.07 0 0 1-7.89-2.22 19.37 19.37 0 0 0-12.12-2.17c-4.85.74-9.85.47-14.78.69-5.49.26-11 .67-16.47.82-2.81.08-5.63-.3-8.44-.42a6.42 6.42 0 0 0-1.53.32 7 7 0 0 0 .71 1.11c1.45 1.53 3 3 4.41 4.55 2.91 3.17 5.83 6.35 8.66 9.59 3.93 4.48 7.77 9 11.69 13.53a3.15 3.15 0 0 0 1.76 1 59.66 59.66 0 0 1 20.44 6 53.33 53.33 0 0 1 13.31 10c1.73 1.76 3.52 3.47 5.14 5.33a18 18 0 0 1 2.35 3.7c.29.57.46 1.69.15 2-.67.62-1.53 1.4-2.67.88a13.93 13.93 0 0 1-2.46-1.18 28.13 28.13 0 0 0-10.27-4.51c-2.59-.61-5.21-1.07-7.81-1.57a4 4 0 0 0-1.37-.13 23.76 23.76 0 0 0-2.31.6c.35.62.68 1.24 1 1.84 3 5 6.19 10 9 15.15 3.55 6.52 6.55 13.34 10.25 19.76a53.62 53.62 0 0 0 12.73 15c3.27 2.65 6.42 5.47 9.79 8 2.93 2.19 6.08 4.1 9.17 6.07 4.95 3.15 9.89 6.32 14.92 9.34a61.33 61.33 0 0 0 6.44 3.07 4.35 4.35 0 0 0 3.72-.27 23 23 0 0 1 12.81-2.2c6.84 1 13.87 1.69 20.09 5.28 2.77 1.6 5.84 2.77 8.38 4.66 3.69 2.76 7.69 5.18 10.37 9.2 1.61 2.4 3.85 4.37 5.71 6.61a16.13 16.13 0 0 1 1.85 3c1 2 1.9 4 2.85 6 .86 1.81.68 2.77-.76 3.82-1.28.94-2.33.1-3.22-.6-1.51-1.19-2.73-2.77-4.31-3.84-5.72-3.88-11.9-6.42-19-5.85-3.19.25-6.39.3-9.59.55a25.57 25.57 0 0 1-16.17-4.23c-3.56-2.27-7.2-4.39-9.74-7.9-.11-.15-.36-.23-.4-.38-.78-2.9-3.31-3-5.57-3.51-5.54-1.3-11-2.8-16.61-3.86-4.45-.84-8.47-2.79-12.7-4.17-1.55-.5-1.79-.37-1.54 1.18.39 2.33.84 4.64 1.26 7 .07.38.11.77.16 1.16.22-.28.43-.57.67-.84a19.59 19.59 0 0 1 2.75-3.05 14.31 14.31 0 0 1 3.65-1.69 6.34 6.34 0 0 1 1.64-.05c2.91-.21 3.58.51 2.77 3.23a69.38 69.38 0 0 0-2.29 15.16 2.64 2.64 0 0 0 .18.75 3.22 3.22 0 0 0 1-.38c1.7-1.38 3.34-2.83 5.06-4.18a6.51 6.51 0 0 1 2-1 2.71 2.71 0 0 1 3 .87 2.47 2.47 0 0 1 .49 2.81 13.84 13.84 0 0 1-1.11 2.21c-3.74 5.9-5.57 12.51-7.12 19.22a3 3 0 0 0 .28 2.28c2.25 2.63 4.14 5.6 7.13 7.56 2.39 1.56 2.63 1.58 4.58-.43 1.4-1.45 3-2.74 4.39-4.18a32.57 32.57 0 0 0 3-3.49c1.08-1.48 2.23-2 3.67-1.5a3.41 3.41 0 0 1 2 4.07 75.72 75.72 0 0 1-3.74 7.95 33.6 33.6 0 0 1-3.49 4.87c-.65.8-.47 1.25.2 1.81a21 21 0 0 0 9.33 4.5 28.48 28.48 0 0 1 9 3.79c2.86 1.69 3.86 4.54 5 7.28 1.59 3.86.71 7.77-.29 11.61-.32 1.23-.89 2.4-1.26 3.62a4.05 4.05 0 0 0-.24 1.87c.62 3.17 1.49 6.24 3.58 8.84 1.38 1.72 2.53 3.62 3.94 5.31a28.79 28.79 0 0 0 3.71 3.61c2.4 2 5 3.71 6.68 6.47a18.05 18.05 0 0 1 2.43 7.8 25.25 25.25 0 0 1-1.55 11.33 14.66 14.66 0 0 1-1.82 3.65 43.18 43.18 0 0 1-12.58 10.91c-3.74 2.21-7.4 4.52-9 8.88a8.75 8.75 0 0 0-.66 2.64c-.21 4.39-.62 8.79-.4 13.17.28 5.74-2.8 9.23-7.09 12.11-1.58 1.06-4 1.48-4.83 2.9s-.09 3.73-.26 5.64a21.16 21.16 0 0 1-6.88 14.19c-3.14 3-6.81 3.63-10.7 4.13-2 .26-4 .29-6 .54-3.61.44-6.51 2.3-9.2 4.64a30.93 30.93 0 0 1-5.95 4.49c-3.61 1.85-7.54 3-11.67 1.93a2.83 2.83 0 0 0-3.18.83c-1 1.06-2.19 1.94-3.28 2.92-3 2.69-6.74 2.68-10.37 2.93a4.45 4.45 0 0 1-2.63-1.29 51.65 51.65 0 0 1-3.75-3.65c-1.68-1.74-2.33-1.8-4.6-.8-2.83 1.25-5.69 2.51-8.62 3.51-3.09 1.06-6.18.11-9.16-.68-2.18-.58-3.36-2.52-4.28-4.43-.6-1.25-1.18-1.92-2.64-1.43-3.34 1.12-6.54.11-9.67-.9a8.34 8.34 0 0 1-4.62-4.1c-.5-.88-1.06-1.72-1.49-2.63-1.27-2.67-3.64-3.53-6.3-3.72a28.78 28.78 0 0 0-5.49.15c-5.06.64-9.64-1-14-3.12-1.67-.81-3-2.69-4-4.39-1.66-2.94-1.82-6.35-1.81-9.64 0-1.35 1.08-2.67 1.54-4.06a7.92 7.92 0 0 0 .49-2.87c-.13-1.83-.52-3.63-.77-5.45a14 14 0 0 1 .32-5.71 69.4 69.4 0 0 0 1.53-8.11 10.6 10.6 0 0 0-2.77-8.64 20.73 20.73 0 0 0-2.09-2.2A49.74 49.74 0 0 1 413 567a28.21 28.21 0 0 1-2.75-21.27 3.23 3.23 0 0 1 .36-1c2.61-3.77 5.19-7.59 9.33-9.91a37.06 37.06 0 0 0 12.66-11.18c2-2.88 2.31-6.13 2.07-9.46-.18-2.47-.89-4.92-.88-7.37.05-7.2 1.61-13.94 7.84-18.44a27.27 27.27 0 0 1 7.25-3.24 4.18 4.18 0 0 0 3-3.4 16.3 16.3 0 0 1 8.68-11.12 26.66 26.66 0 0 1 9.66-3 126.51 126.51 0 0 1 16.75-.05c6.63.29 13.18-.8 19-4.61a6.27 6.27 0 0 0 2.73-3.64c1.33-4.52.92-9.11.37-13.64-.39-3.26-1.45-6.42-2.1-9.65a15.51 15.51 0 0 1-.31-4.07c.11-1.5.69-1.8 2.23-1.74 2.19.08 3.75 1.32 5.26 2.71a10.48 10.48 0 0 0 1.51 1 13 13 0 0 0 .33-1.81 22.29 22.29 0 0 0-2-9.61 18.17 18.17 0 0 1-1.25-3.91 3.09 3.09 0 0 1 1.09-3.23c1.1-.82 2.08-.1 3.08.35.35.16.72.28 1.08.42a4.65 4.65 0 0 0-.06-1.35c-1.85-5.48-3.58-11-5.65-16.4-2-5.13-4.23-10.15-6.54-15.14-1.38-3-3.11-5.82-4.7-8.71-.74-1.37-1.51-2.73-2.26-4.09zm-277 181.44a45.53 45.53 0 0 0 4.62 20.23 87.86 87.86 0 0 0 10.52 17.05 22.17 22.17 0 0 0 3.59 3.78 72.38 72.38 0 0 0 14.54 9.38 81.35 81.35 0 0 0 24.76 7 49.76 49.76 0 0 0 13.12-.55 58.64 58.64 0 0 0 16.62-5.35c2.54-1.21 4.79-3 7.25-4.41a20.15 20.15 0 0 0 8-8.8c.35-.7.3-1.14-.44-1.56-4.7-2.66-9.43-5.28-14-8.09a35.32 35.32 0 0 1-6.6-4.9 63.57 63.57 0 0 1-13.69-19.39c-1.82-4.1-3.85-8.16-4.53-12.65-.5-3.25-.73-6.54-1-9.83a26.07 26.07 0 0 1 2-13.11c.73-1.58 1.36-3.21 2.21-4.71 2.52-4.46 5-8.93 7.72-13.28 1.83-2.95 4-5.67 5.91-8.58 1.66-2.54 1.5-3.52-.51-5.8a35.19 35.19 0 0 0-3.34-3.65c-1.94-1.64-3.87-3.56-6.63-3.59-2 0-4 .4-6 .53-3.32.23-6 2.06-9 3.33a25.1 25.1 0 0 1-18.22.74 16.58 16.58 0 0 1-5-2.24c-4.71-3.64-9.28-7.45-13.8-11.32-.92-.79-1.28-.59-2 .08a18.81 18.81 0 0 0-4.6 7.37 10.19 10.19 0 0 0-.3 4.85c.45 2.69 1.18 5.28 3.52 7.22 2 1.66 1.83 3 .13 4.93a17.89 17.89 0 0 0-1.95 2.65 111.72 111.72 0 0 0-5.48 10.46c-3.72 8.23-5.5 16.93-6.63 25.76-.63 5.43-.54 10.96-.81 16.45zm60-162.19c1.28-.07 2.56-.11 3.84-.23 3.82-.37 7.77-.29 11.43-1.28a133.27 133.27 0 0 0 17.67-6 62.23 62.23 0 0 0 16-10.51 8.26 8.26 0 0 1 1.3-1 30.08 30.08 0 0 0 7.64-6.08c3.62-4.13 7.81-7.73 11-12.24 2-2.83 4.29-5.46 6.52-8.13a1.3 1.3 0 0 0-.16-2.1c-1.2-1.13-2.43-2.24-3.54-3.46-3.57-3.92-7.08-7.9-10.64-11.83-4.61-5.09-9.26-10.14-13.88-15.22-2.84-3.12-5.55-6.36-8.49-9.37-4.26-4.37-7.87-4.46-12.78-2.42a37.58 37.58 0 0 0-11 7.17c-3.62 3.35-6.9 7.08-10.31 10.66-3.73 3.91-7.4 7.87-11.14 11.76-3.06 3.16-6.21 6.24-9.28 9.38-2.76 2.81-5.46 5.69-8.23 8.5q-6.36 6.45-12.78 12.82a2.69 2.69 0 0 0-.69 3.24 23.65 23.65 0 0 0 5 8.16c1.44 1.41 2.75 2.95 4.06 4.49 7.48 8.77 16.66 13.97 28.48 13.69zm52.6-92.32a75.23 75.23 0 0 0 7.77-1.1 89.24 89.24 0 0 0 24.84-10.09c7.34-4.43 14.62-9 20.74-15.28 5.3-5.43 11.33-10.12 16.46-15.76 4.49-4.94 9.32-9.56 14-14.35 1.6-1.63 3.1-3.36 4.68-5 2.6-2.7 5.25-5.34 7.84-8 5.31-5.57 10.6-11.18 15.9-16.76 2-2.13 4.07-4.21 6.06-6.36 3.68-3.95 7.22-8 11-11.89 4.86-5 10-9.7 14.86-14.63 4.7-4.73 9.3-9.55 13.89-14.39a17.37 17.37 0 0 0 1.86-2.91 13.94 13.94 0 0 0-3.38-.62c-7.23.44-14.38 1.15-21.11 4.32a94.94 94.94 0 0 0-16.91 9.67c-1.81 1.36-3.6 2.77-5.36 4.21-3.54 2.88-7.32 5.53-10.54 8.74-8.65 8.62-17 17.49-25.54 26.25q-13.72 14.15-27.46 28.26c-5.7 5.86-11.43 11.68-17.08 17.58Q354.43 271.5 342.6 284q-5.49 5.76-10.94 11.56c-.92 1-.81 1.33.44 1.56.54.08 1.09.08 1.75.14zm132.71 237.25a31.87 31.87 0 0 0-4.38.45c-2.49.59-5 1.34-6.74 3.41-1.94 2.32-3.83 4.67-5.71 7a5.62 5.62 0 0 0-.57 1.42 5.47 5.47 0 0 0 1.3.2c4.29-.41 8.61-.64 12.85-1.3 10.25-1.59 20.19-4.51 30.1-7.43a81.61 81.61 0 0 0 17.3-7.71 165.19 165.19 0 0 0 20.88-13.73c3.51-2.78 7-5.6 10.23-8.7 4-3.8 7.62-7.9 11.38-11.91a49.25 49.25 0 0 0 7.89-10.17 3.32 3.32 0 0 0 .17-1.16 3.29 3.29 0 0 0-1 .29c-1.43 1-2.76 2.09-4.27 2.9-2.58 1.38-5.36 2.39-7.88 3.86-3.19 1.87-6.76 2.39-10.24 2.94a126 126 0 0 1-15 1.36 25.49 25.49 0 0 0-15.85 6.26 28.73 28.73 0 0 0-8 11.92 35.31 35.31 0 0 1-6.18 10.3 26.58 26.58 0 0 1-11.63 7.53 47.3 47.3 0 0 1-14.65 2.27zm-.48-250.06a14.35 14.35 0 0 0-1.81-.55 91.21 91.21 0 0 1-16.14-4.52c-2-.71-3.95-1.46-5.88-2.28a37.74 37.74 0 0 1-6.44-3c-3.94-2.64-7.66-5.62-11.49-8.41-3.52-2.57-3.51-2.52-6.32.85-.64.78-.53 1.13.25 1.69 3.12 2.25 6.19 4.52 9.12 7.05 6.61 5.7 12.71 11.9 18.87 18.05 1.69 1.68 3.26 3.47 4.85 5.24 2.5 2.8 4.7 6 7.53 8.37a57.25 57.25 0 0 1 9.85 11.34 124.76 124.76 0 0 1 12.29 22.38c1.32 3.2 2.44 6.49 3.63 9.75 1.58 4.29 3.21 8.57 4.67 12.9 1.08 3.2 1.91 6.48 2.93 9.71.12.38.69.63 1 .94a3.94 3.94 0 0 0 .24-1.23c-.38-3.07-.26-6.18-1.14-9.22-.8-2.8-.86-5.79-2.34-8.43a3.86 3.86 0 0 1-.14-2.39c.37-2 1.65-2.61 3.36-1.49a12.4 12.4 0 0 1 4.19 4.66q2.37 4.47 5 8.81a113 113 0 0 1 7.23 12.94c1.28 2.94 2.66 5.84 4.08 8.71 2.89 5.84 5.73 11.68 7.26 18.07a10.31 10.31 0 0 0 1.51 3.8 44.4 44.4 0 0 0 9.24 8.6c.18.14.48.11.73.16a3.53 3.53 0 0 0 0-.79c-.07-.36-.28-.69-.33-1.05-.21-1.58.59-2.25 2.1-1.77 1.12.36 2.28.65 3.36 1.12a172 172 0 0 0 22.06 7.6 24.91 24.91 0 0 0 2.61.43 37.54 37.54 0 0 0-5.83-4.11c-5-3-10.09-6-15-9.19-4.61-3-8.44-7-12.55-10.66-5-4.47-8.3-10-11.08-15.86a146.44 146.44 0 0 0-7.53-14.59q-7.65-12.25-14.8-24.8c-5.26-9.21-12.36-17-18.8-25.35-2.4-3.11-5-6.06-7.7-8.95-4.24-4.57-8.51-9.11-12.94-13.48-2.86-2.82-6-5.32-9.05-8-.67-.59-1.52-1.14-1-2.29a2.42 2.42 0 0 1 2.44-1.83 19.35 19.35 0 0 1 2.16.3 32.18 32.18 0 0 0 4.32.72c3.78.12 7.58.05 11.43.05zM321.13 476.71a17.3 17.3 0 0 0 3.83-.25 50.5 50.5 0 0 0 12.78-5.46 31.19 31.19 0 0 0 10.55-10.63 60.32 60.32 0 0 0 4.69-9.63 22.28 22.28 0 0 0 1.42-8.06 38.29 38.29 0 0 0-5.71-19.58c-2.35-3.7-4.9-7.28-7.43-10.87a28 28 0 0 0-2.27-2.36c-.85-.95-1.45-.79-2.13.23-1 1.51-2.08 3-3.23 4.41-3 3.67-6.19 7.23-9.13 11-2.09 2.66-3.93 5.52-5.85 8.32-.45.65-1 1.31-.35 2.22 3 4 6.18 7.76 11 9.61 2.13.82 4.33 1.45 6.45 2.28a5.45 5.45 0 0 1 2.47 1.6 50 50 0 0 0 4.93 6.52 3.6 3.6 0 0 1-2.09 6 21.6 21.6 0 0 1-4.09.44 39.51 39.51 0 0 1-16.34-3c-2.89-1.25-3.16-1.07-4.84 1.47-.45.69-1 1.34-1.43 2-2.24 3.33-4.42 6.7-6.74 10-.74 1-.22 1.32.55 1.5 4.28.95 8.43 2.7 12.96 2.24zm215.46 57.17c-.61 1.23-1.07 2.1-1.48 3a46.55 46.55 0 0 1-9.58 13.29c-5.17 5.1-11.1 9.3-18.15 11.56a38.45 38.45 0 0 1-15.13 2c-2.65-.23-5.32-.32-8-.37a7.62 7.62 0 0 0-5.66 2.35c-2 2-2.84 4.42-3.45 7-.74 3.16-1.66 6.29-4.49 8.25s-5.85 4.13-9.54 4.68a31 31 0 0 0-3.71 1 11.38 11.38 0 0 0-7.22 5.95c-1.86 3.49-1.5 6.3 1.21 9.14a25.34 25.34 0 0 0 3.32 2.78c3 2.25 5.35 5 6.11 8.81.27 1.33.15 2.74.33 4.1.37 2.8 1.12 3.52 3.95 4.06a13.82 13.82 0 0 0 1.9.36 16.12 16.12 0 0 0 9.51-2c1-.58 1.19-1.12.15-1.79-1.31-.84-2.7-1.57-4-2.48-4.38-3.17-6.94-7.44-6.55-12.87.33-4.54 2.86-8.27 5.95-11.5a14.67 14.67 0 0 1 4.09-3.17c3.79-1.79 7.77-3.17 11.56-4.94q9.69-4.55 19.24-9.41c1.69-.86 3.05-2.35 4.7-3.31a55.34 55.34 0 0 0 10.22-7.81c5.51-5.2 10.34-10.85 13-18.1a21.43 21.43 0 0 0 1.72-10.58zM336 381.9a16.3 16.3 0 0 0-.54-2.64c-.47-1.32-1-1.41-1.93-.42s-1.91 2.23-2.91 3.3c-4.58 4.86-9.21 9.67-13.77 14.56-2 2.14-3.8 4.46-5.8 6.61-3.67 3.95-7.44 7.8-11.12 11.75-1.93 2.06-3.71 4.27-5.63 6.35s-3.76 4-5.73 5.87a1.51 1.51 0 0 0-.18 2.34c2 2.76 3.64 5.73 5.83 8.28a42.3 42.3 0 0 0 6.06 5.14 1.42 1.42 0 0 0 1.36.11 24.82 24.82 0 0 0 2.93-2.87c1.92-2.21 3.76-4.47 5.64-6.71 2.63-3.15 5.34-6.25 7.89-9.47a44.33 44.33 0 0 0 4.34-6.3c3.15-5.78 6.27-11.58 9.08-17.53 2.66-5.68 3.86-11.8 4.48-18.37zm108 232.39c2.14-.44 4.31-.75 6.4-1.36 2.68-.77 2.81-1.51.82-3.31a24 24 0 0 0-2.81-2.21 2.22 2.22 0 0 0-1.67-.3c-2.46.83-4.19-.09-5.8-1.92-2.78-3.16-2.85-6.83-2.29-10.65a30.37 30.37 0 0 0-.74-13.59c-1.35-4.49-4.05-8-7-11.25-2.48-2.73-5-5.28-6.55-8.75a15.09 15.09 0 0 1 2.86-15.88c2-2.14 4.31-4 6.49-5.92s4.44-3.82 6.48-5.91a14.92 14.92 0 0 0 3.19-4.45c2.35-5.67 3.36-11.55 2-17.68a13.87 13.87 0 0 1 1.19-9.38 9.33 9.33 0 0 1 3.24-3.56c1.92-1.21 2.13-1.12 1.85-3.21-.12-.91-.4-1.8-.51-2.71s-.69-1.23-1.53-1.07a10.57 10.57 0 0 0-6.71 3.95c-3.47 4.55-3.28 9.83-2.66 15a21.36 21.36 0 0 1 .2 6.23 10.22 10.22 0 0 0-.19 1.91 10.18 10.18 0 0 1-1.56 6 47.9 47.9 0 0 1-4.5 5.83 40.51 40.51 0 0 1-10.46 8.9c-4.26 2.32-7.49 5.74-8 10.85a20 20 0 0 0 1.75 11.3 91.1 91.1 0 0 0 5.39 9.28 29.16 29.16 0 0 0 5.36 6.19 20.39 20.39 0 0 1 5.81 7.55 13.79 13.79 0 0 1 1.2 5.31 46 46 0 0 1-.82 7.07c-.29 2-.79 4-1 6a10.66 10.66 0 0 0 1.12 6.94c2.12 3.51 5.45 4.63 9.45 4.8zm83.54 9c1.31.31 2.7.61 4.09 1 3.1.79 6 .53 8.51-1.67a15.61 15.61 0 0 0 3.45-3.87c2.78-5.07 7.21-7.33 12.67-8.14A5.67 5.67 0 0 0 558 610c3.21-1.69 5-4.54 6-7.89 1.51-5.05-.12-8.56-4.9-10.78-.75-.34-1.54-.61-2.29-.94-2-.88-4.22-1.48-6-2.72-2.51-1.78-5-3.75-5.39-7.26-.27-2.64-.71-5.26-.93-7.9-.24-3-2.06-5.14-5.21-5.26a13.35 13.35 0 0 1-8.22-2.71 1.07 1.07 0 0 0-1.66.08c-2.71 2.6-5.42 5.21-8.15 7.78-.58.54-.75 1-.16 1.62a44.3 44.3 0 0 0 4.8 4.51c3.74 2.65 7.66 5 11.49 7.54.53.35 1 .83 1.48 1.22 2.15 1.66 2.89 4.21 4.06 6.47 4.76 9.17 1.7 17.41-6.24 24.07-2.63 2.22-6.01 3.63-9.14 5.46zm-32.08-144.35c5.12.36 9.76-1.38 14.23-3.49a65.83 65.83 0 0 0 7.45-4.57c5.45-3.5 11.08-5.11 17.67-3.27s11.72 5.91 15.92 11.11c2.59 3.21 2.4 3.32 5.92 1.17.84-.52.68-.71.1-1.32-1.82-1.94-3.55-4-5.3-6-3.2-3.64-6-7.67-10.36-10.12a25 25 0 0 0-15.53-3.45 20.16 20.16 0 0 0-9 3.81c-2.27 1.54-4.29 3.49-6.68 4.79-7.54 4.07-15.47 6.65-24.23 5.56-2.7-.33-5.47.44-8.14-.45-.08 0-.18 0-.27.05-3 .44-6 1-9 1.3-5.49.59-10.36 6.78-10 12 .16 2.55.88 5.07 1 7.62.13 3.86 1.92 7.21 3 10.75.45 1.47 1.73 2.69 2.63 4 1.12-1.19 2.29-2.33 3.36-3.57a2.12 2.12 0 0 0 .11-2.7 26 26 0 0 1-2.84-12.2c0-4.71 5.21-9.94 10.07-10.78a58.3 58.3 0 0 1 15.82-.49c1.32.16 2.7.18 4.07.25zm-213.35-55.7c.59-.06.94 0 1.12-.13 1.61-1.34 3.21-2.69 4.74-4.13.15-.14-.09-1.05-.38-1.25-3.63-2.45-7.4-4.72-10.94-7.29a88.37 88.37 0 0 1-9.4-7.62c-5.49-5.25-10.81-10.67-16-16.19a43.75 43.75 0 0 1-4.58-6.46 97.91 97.91 0 0 1-5.62-9.09c-2.46-4.85-2.05-4.66-5.75-.78-2.39 2.5-2.16 4.22-.72 7 3.73 7.28 7.64 14.36 13 20.6 4.45 5.14 8.87 10.25 14.45 14.23 5.74 4.11 11.56 8.09 18.26 10.54.71.33 1.4.45 1.82.57zm9.59-250.61c-.1.41-.3.73-.24 1 .6 2.28.9 4.72 2 6.78 2.43 4.73 6.69 7.77 11.2 10.21 6.34 3.44 13.05 6.22 19.34 9.73 3.32 1.85 6.84 3.31 10 5.56 4.24 3 8.86 5.49 13.25 8.28 3.09 2 6.2 3.93 9.09 6.16 6.87 5.33 13.62 10.82 20.42 16.23.65.51 1.38.92 2 1.46s1.18.69 1.85 0c1-1.15 2.24-2.17 3.28-3.34 1.24-1.4 1.27-1.63-.2-2.89-1.79-1.54-3.73-2.93-5.64-4.34-3.53-2.6-7-5.28-10.65-7.73-3.8-2.54-7.81-4.76-11.63-7.27a124.83 124.83 0 0 0-14-8.16c-6.35-3.07-12.75-6.07-18.53-10.2-3.14-2.23-6.43-4.25-9.6-6.43-7-4.8-14.59-8.79-21-14.45a8.44 8.44 0 0 0-.94-.6zm284.23 371.24c-.28-2.76-.54-7.07-1.2-11.31-.63-4-1-8-2.85-11.69-1.53-3-2.89-6.12-4.49-9.1-2.19-4.09-5.48-7.32-8.8-10.5a1.14 1.14 0 0 0-1.87 0 41.13 41.13 0 0 1-3 3.18c-.88.81-.88 1.37 0 2.21 4.3 4.16 6.62 9.58 9.31 14.76a19.48 19.48 0 0 1 1.34 2.71c3.12 9.77 4.86 19.66 3.67 30-1 8.8-2.85 17.29-7 25.18-.69 1.3-1.32 2.62-2 3.93-.32.64-.44 1.11.49 1.46 1.53.57 3 1.31 4.49 2 .68.32 1.13.29 1.51-.52.79-1.65 1.78-3.21 2.57-4.86 2.77-5.82 5-11.78 5.21-18.35a14.33 14.33 0 0 1 .52-3 71.4 71.4 0 0 0 2.1-16.1zm32.21 5.9a41.93 41.93 0 0 0-1.28-5c-1.24-3.16-3.72-5.31-6.28-7.43a29.83 29.83 0 0 1-5.72-5.84c-1.84-2.69-4.24-5.05-5.31-8.26-.38-1.11-1.07-1.31-2-.36-2.59 2.57-2.62 2.55-.92 5.84a7.59 7.59 0 0 0 .54 1c1.75 2.45 3.48 4.93 5.29 7.34 1.14 1.53 2.16 3.35 3.67 4.4 4.52 3.1 4.9 11.07 2.22 15.28a32 32 0 0 1-8.11 8.49 42 42 0 0 0-9.67 9.28c-3.25 4.61-3.9 9.77-3.4 15.17.54 5.81.26 9.25-5 12.24a5.29 5.29 0 0 0-2.72 3.71c-.38 1.42 0 1.83 1.45 1.42a40.16 40.16 0 0 0 6-2 7.28 7.28 0 0 0 4.17-4.5 22.55 22.55 0 0 0 .75-10.61c-.68-3.83.28-7.33 1.36-10.75 1.36-4.26 4.73-7.2 8.45-9.37a91.83 91.83 0 0 0 10.3-7.27c4.23-3.33 5.73-7.65 6.21-12.78zm-143.72-21.29c1.13-.21 3-.35 3.81-2.44.28-.67.8-1.23 1.14-1.88a68.78 68.78 0 0 1 11.37-16.1 7 7 0 0 1 1.39-1.33c6.47-4 12.67-8.43 19.71-11.41 5.25-2.22 10.58-4.09 16.34-4.51 3.74-.28 7.48-.72 11.21-1.09a3.53 3.53 0 0 0 .69-.24c-.17-.17-.32-.44-.52-.49a17.81 17.81 0 0 0-2.94-.66c-5.2-.45-10.35-1.08-15.63-.63a43.41 43.41 0 0 0-13.34 3c-2.7 1.14-5.4 2.3-8 3.56a28.5 28.5 0 0 0-9.23 6.34c-2.71 3-5.72 5.69-8.47 8.64a27.16 27.16 0 0 0-4.57 5.8c-1.92 3.73-3.39 7.7-5 11.61-.69 1.7-.57 1.77 2.04 1.83zm55.45-103.42c.22 1.37.37 2.25.49 3.15a50.31 50.31 0 0 1 .71 5.71 69.72 69.72 0 0 1-.34 7.36 4.41 4.41 0 0 1-.88 2c-.82 1.2-1.67 1.34-2.74.38-.67-.6-1.05-1.49-1.67-2.16s-1.58-1.47-2.39-2.2a15.06 15.06 0 0 0 .43 3.25 10.93 10.93 0 0 1 .57 4.85 35.63 35.63 0 0 0 .17 4.94c0 .92.44 1.1 1.22.59a9.94 9.94 0 0 1 2.84-1.63 66.94 66.94 0 0 1 9.71-1.72c3.93-.29 8-.18 11.54 1.79 2.86 1.57 6.07 2.57 8.43 5a18 18 0 0 0 1.86 1.62c.12.08.65-.09.69-.23.68-2.43 1.31-4.88 2-7.31a10.84 10.84 0 0 0-2 2.21 4.88 4.88 0 0 1-1.31 1.34c-2 1.15-4-.4-3.93-3.19 0-6.11-.17-12.25 1.54-18.83-.85.77-1.26 1.1-1.63 1.48a59.94 59.94 0 0 0-8.25 11c-.36.57-1.12 1.37-1.55 1.29a2.55 2.55 0 0 1-1.76-1.42 35.6 35.6 0 0 0-4.44-9.08 39.39 39.39 0 0 0-9.31-10.19zm-301.79-12.64v1.92a76.78 76.78 0 0 0 8.63 32.15c1.22 2.43 2.64 4.76 4 7.1.12.21.6.2.92.29a2.38 2.38 0 0 0 0-.75c-1.3-4.06-2.64-8.12-3.91-12.19-.4-1.31-.54-2.7-1-4a49.86 49.86 0 0 1-2.72-18.07 57.48 57.48 0 0 1 1.21-10.9 79.85 79.85 0 0 1 7.26-18.9 3.6 3.6 0 0 0 .09-3.59c-.94-2-1.95-4-2.75-6-.58-1.48-.92-.82-1.49-.05a58.51 58.51 0 0 0-7.91 16.5 49.73 49.73 0 0 0-2.33 16.49zM500.58 624a23.18 23.18 0 0 0 12.54-3.27 20.37 20.37 0 0 0 9.19-9.86c2.58-5.89 2.61-11.52-2.13-16.5a10.07 10.07 0 0 0-1-.81 4.47 4.47 0 0 0-.59 1.12c-.88 4.48-1.73 9-2.61 13.44a8.35 8.35 0 0 1-.78 2.6c-3.06 5-7.69 7.67-13.39 8.54a3.28 3.28 0 0 1-3.73-3.11 10.86 10.86 0 0 1 .15-2.2c.4-2.89.83-5.77 1.26-8.66.11-.72-.22-1.1-.9-.95-3.18.68-6.29 1.58-8.12 4.58a30.34 30.34 0 0 0-2.36 5 4.87 4.87 0 0 0 1.78 6.08 25.49 25.49 0 0 0 10.69 4zm-321-196.88a40.94 40.94 0 0 0 11.1-2.12 36.42 36.42 0 0 0 8-3.63 46.62 46.62 0 0 0 10.65-8.62c1.92-2.25 4.57-4.35 3.6-8a3.57 3.57 0 0 1 .18-1.63c.87-3.45 1.77-6.9 2.64-10.36a5.83 5.83 0 0 0 .05-1.26 5.52 5.52 0 0 0-1.31.24 10 10 0 0 0-5.1 5.15c-1.77 3.83-3.48 7.69-5.52 11.37-2.63 4.74-6.86 7.79-11.74 10a35.11 35.11 0 0 1-11.93 2.83 38.5 38.5 0 0 1-6-.07c-1.72-.15-2.52.84-3.22 2.07-.94 1.66-.77 2.3 1.08 2.74 2.47.56 4.99.87 7.49 1.3zM451.6 628.75c4.16.15 7.68 1.38 10.11 4.84.74 1 1.43 2.14 2.1 3.24 1.78 3 4.13 3.91 7.58 3.33 3.77-.63 6-3.33 7.67-6.19s2.77-6.35 4.08-9.57c0-.11-.33-.54-.41-.52-.53.16-1 .42-1.53.61-1.51.55-2.65 1.16-3 3.12-.23 1.41-1.43 2.75-2.43 3.92a7 7 0 0 1-9.65 1.34 28.66 28.66 0 0 1-5.73-5.08 9.21 9.21 0 0 0-7.56-3.69c-2.66 0-5.32.26-8 .24-3.09 0-6.22-.5-8-3.32-1-1.63-2.57-2.22-4-3.11-.65-.4-1-.12-1.17.56-1 4.26 2.48 9.53 6.86 10.16a61.93 61.93 0 0 0 7.95.48c1.76.03 3.53-.23 5.13-.36zM555 631.2a32.91 32.91 0 0 0 5.93-1c2.62-.9 5.12-2.38 6.21-5.07a55.37 55.37 0 0 0 2.35-8.14 4.68 4.68 0 0 0-.36-2.64c-.5-1.24-1.78-1.2-2.84-1.12-1.23.1-.84 1.11-.84 1.92a8.87 8.87 0 0 1-.31 2.68 11.73 11.73 0 0 1-8.48 7.89c-2.71.78-5.57 1-8.31 1.74a8.2 8.2 0 0 0-3.93 1.76c-3.21 3.46-7.2 5.64-11.4 7.5-1.8.8-3.56 2-5.7 1.75a8.78 8.78 0 0 1-6.6-4 24 24 0 0 1-3.72-7.57c-.28-1.11-.82-1-1.55-.56s-1.62.12-1.29 1.56A18.86 18.86 0 0 0 525 641.29a8.2 8.2 0 0 0 8.37-.29c3-1.86 6.25-3.49 8.59-6.33a5.49 5.49 0 0 1 1.61-1c3.49-2.08 7.43-2.45 11.43-2.47zm-8.73-344.86a15 15 0 0 0-1.54-.73c-3.9-1.29-7.73-2.69-10.64-5.8a1.94 1.94 0 0 0-.67-.47c-3.94-1.69-7.56-4.09-11.76-5.18-2.29-.59-4.5-.73-6.57.7s-3.95 2.6-5.88 4a17.72 17.72 0 0 0-1.9 1.78c.89 0 1.78.14 2.67.14a10.05 10.05 0 0 0 1.64-.19c1.53-.24 3.06-.52 4.59-.76a2.59 2.59 0 0 1 3 1.38c.67 1.39-.23 2.31-1.21 3a16.34 16.34 0 0 1-2.47 1.13 8 8 0 0 0-1.07.79 11.9 11.9 0 0 0 1.25.48 66.79 66.79 0 0 0 22.88 1.57c2.41-.26 4.72-1.13 7.64-1.84zm59.14 153.54h4.95c1 0 2-.13 3-.19-.45-.84-.87-1.7-1.35-2.52a12.43 12.43 0 0 0-1.47-2.31 84.32 84.32 0 0 0-10-8.92c-4.83-3.69-10.24-4.07-15.92-3.58a2.54 2.54 0 0 0-.7.31c.24.21.45.53.73.63a76.33 76.33 0 0 0 8.1 2.61c2.11.47 4.11.72 5.19 2.93.33.67 1.41 1.55 1.27 1.78a5.18 5.18 0 0 1-2.25 2.13 8.64 8.64 0 0 1-3.79.34c-3.35-.37-6.69-.93-10-1.42h-.54c.09.19.13.45.27.54 3.05 2 6 4.08 9.2 5.87 4.03 2.31 8.69 2.06 13.27 1.8zM585 505.94c-.12 5-.93 8.58-4.4 11a18.65 18.65 0 0 0-2.56 2 2 2 0 0 0-.62 1.56 14.06 14.06 0 0 0 1.39 2.87 2.29 2.29 0 0 0 .91-.42c1.21-1.11 2.4-2.25 3.55-3.42a25.88 25.88 0 0 0 6.69-13c1.59-7.35-2.47-12.23-9.21-13.13a34 34 0 0 1-9-3.05 18.81 18.81 0 0 1-3.08-2.16c-.28-.2-.8-.55-.86-.49a9 9 0 0 0-1.91 2.3c-.16.35.45 1.27.93 1.66a15.19 15.19 0 0 0 6.66 3.14 19.34 19.34 0 0 1 7.79 3.89c2.81 2.07 3.39 5.17 3.72 7.25zM453.52 563c.36 5.13.75 10.6 1.14 16.08.09 1.2.3 2.15 1.94 1.65 1.38-.41 2.86-.52 4.23-1 1.85-.57 1.88-.68 1.45-2.49s-1.25-3.85-1.53-5.83a55.36 55.36 0 0 1-.27-15.05c.2-1.53.21-3.08.3-4.62-1.6.16-3.2.42-4.8.47-1.36 0-1.67.71-1.75 1.89-.18 2.9-.45 5.7-.71 8.9zm33 84.3a28.44 28.44 0 0 0 5-2 24.28 24.28 0 0 1 6.74-3 7.5 7.5 0 0 1 7.16 1.7c1 .82 1.9 1.72 2.84 2.59 2.49 2.34 2.79 2.39 5.72.86 3.84-2 3.88-2.42.88-5.38a1.28 1.28 0 0 0-1.83-.29 7.34 7.34 0 0 1-7.09-.39c-1.28-.7-2.5-1.52-3.71-2.34a6.61 6.61 0 0 0-7.67-.17c-3.49 2-7.16 3.4-11.23 1.46-1.16-.56-1.55.56-2.17 1.17a1.63 1.63 0 0 0-.36 2.19c1.2 2.3 3.06 3.3 5.68 3.6zm11.58-232.84c-.44 1.89-.66 3.26-1.09 4.55a36.19 36.19 0 0 1-2 5.09c-.82 1.59-2.08 1.74-3.42.7-1-.77-.72-1.79-.47-2.77a23.44 23.44 0 0 0 .42-9.47c-.11-.67-.17-1-1-.48a5.3 5.3 0 0 0-2.5 3.77 83.76 83.76 0 0 0-.68 9.86c.08 4.13.71 8.22 3.22 11.75.65.92 1 .9 1.51-.06 1.35-2.6 2.75-5.18 4.09-7.79a38.48 38.48 0 0 0 2.21-4.69 13 13 0 0 0-.29-10.46zm4.32 173.44c-3.18.65-6.87 1.29-10.47 2.23-.55.15-1.09 1.7-1 2.56.09 1.21 1.09.34 1.71.3 6.45-.35 12.67.26 17.94 4.52.82.65.87.08 1-.44.47-2 .82-4 1.38-5.87.45-1.52-.3-2-1.54-2.15-2.84-.37-5.65-.72-9.02-1.15zm34.45 14.87c-.15-3.41-2-5.68-4.51-7.62a5.62 5.62 0 0 0-.91-.48 4.68 4.68 0 0 0-.35 1c-.45 3.8-.84 7.6-1.35 11.39a11.71 11.71 0 0 1-1 3.14c-.84 1.93-1.8 3.8-2.68 5.72a3.44 3.44 0 0 0-.09 1 4.11 4.11 0 0 0 1-.18c4.25-2 6.93-5.56 8.75-9.77a29.43 29.43 0 0 0 1.14-4.2zM484 598c.15-1.08-.28-1.41-1.26-1a13.17 13.17 0 0 0-1.95 1c-3.76 2.34-5.34 6.13-6.61 10.12a1.82 1.82 0 0 0 .75 2.15c1.76 1.43 3.49 2.91 5.28 4.31 1 .77 1.25 0 1.36-.81.39-3 .72-6 1.17-9 .32-2.24.81-4.49 1.26-6.77zm-15.5-450.45c-7.55 1.44-14.79 1.58-21.94-.83a5.16 5.16 0 0 0-1.33-.32 3 3 0 0 0-1 .24c.14.31.19.74.42.93a77.38 77.38 0 0 0 7.58 5.89 9.9 9.9 0 0 0 8.25.7c3.61-1.03 5.46-4.01 7.99-6.58zm-189.42 15.18c.28 1 .52 2.06.85 3.07a32.18 32.18 0 0 1 1.29 11.58c-.13 2.89.11 5.66 2.34 7.89.88.88 1.44 2.48 3 2s1.48-2.14 1.67-3.49a2.27 2.27 0 0 0 0-.82c-.65-3-1.13-6.13-2-9.09-1.32-4.32-4.23-7.69-7.15-11.14zm227.71 419.6c6 1.11 11.59 2.58 16.08 6.75.77.72 1.64 1.33 2.47 2 .26-1.12.53-2.24.79-3.37a1.64 1.64 0 0 0 .11-.8c-.15-.49-.29-1.14-.66-1.37a40.4 40.4 0 0 1-9.53-7.74 1.09 1.09 0 0 0-1.65-.19c-2.4 1.56-4.93 3.06-7.61 4.72zm-79.72-283l.41-.14v-2.47a19.11 19.11 0 0 1 1.28-7.81c.43-1.19 1.5-2.57 1.18-3.51-.37-1.11-1.91-1.83-2.94-2.72a5.27 5.27 0 0 0-.46-.31c-1.22-.82-1.23-.76-1.48.58-.78 4.16.23 8.19.91 12.23.23 1.37.72 2.73 1.1 4.11zm70.41-146.13a25.23 25.23 0 0 0-11.34-11.93 9.6 9.6 0 0 0-1.2-.46 6.07 6.07 0 0 0 .32 1.22c2.53 5.14 6.91 8.32 12.22 11.13zm9.93 181.22c-1-.47-2-1.06-3.09-1.47-3.42-1.29-6.86-2.52-10.31-3.75a3.51 3.51 0 0 0-1.08-.05 3.86 3.86 0 0 0 .33.92c1.18 1.72 2.37 3.43 3.61 5.11a1.24 1.24 0 0 0 .94.25c3.19-.36 6.4-.71 9.6-1.05zm-144.8-132.95a40.94 40.94 0 0 1-4.73-.69c-2.59-.7-5.08-.09-7.6.28a3.07 3.07 0 0 0-.95.52 5 5 0 0 0 .75.64c1.59.89 3.23 1.7 4.77 2.67a1.46 1.46 0 0 0 1.91 0c1.82-1.18 3.74-2.2 5.85-3.42zM504.75 609l.37 1.06a3.25 3.25 0 0 0 .87-.59 15.59 15.59 0 0 0 1.82-2.7c.54-1.19-.55-1.59-1.36-1.93-1-.42-1 .49-1.15 1-.24.98-.3 1.98-.55 3.16zM162.2 258.92c-.49.31-.7.56-.9.56-1.12 0-1.27-.89-1.3-1.74 0-.19.3-.38.47-.57z"/><path d="M391.63 518.31a3.86 3.86 0 0 1-.88.15.76.76 0 0 1-.19-.55 1 1 0 0 1 .64-.27 2.83 2.83 0 0 1 .74.17z"/><path class="b" d="M221.21 551.77c.27-5.49.18-11 .87-16.45 1.13-8.83 2.91-17.53 6.63-25.76a111.72 111.72 0 0 1 5.48-10.46 17.89 17.89 0 0 1 1.95-2.65c1.7-1.95 1.87-3.27-.13-4.93-2.34-1.94-3.07-4.53-3.52-7.22a10.19 10.19 0 0 1 .3-4.85 18.81 18.81 0 0 1 4.6-7.37c.7-.67 1.06-.87 2-.08 4.52 3.87 9.09 7.68 13.8 11.32a16.58 16.58 0 0 0 5 2.24 25.1 25.1 0 0 0 18.22-.74c2.93-1.27 5.65-3.1 9-3.33 2-.13 4-.56 6-.53 2.76 0 4.69 2 6.63 3.59a35.19 35.19 0 0 1 3.34 3.65c2 2.28 2.17 3.26.51 5.8-1.9 2.91-4.08 5.63-5.91 8.58-2.69 4.35-5.2 8.82-7.72 13.28-.85 1.5-1.48 3.13-2.21 4.71a26.07 26.07 0 0 0-2 13.11c.25 3.29.48 6.58 1 9.83.68 4.49 2.71 8.55 4.53 12.65a63.57 63.57 0 0 0 13.69 19.39 35.32 35.32 0 0 0 6.6 4.9c4.61 2.81 9.34 5.43 14 8.09.74.42.79.86.44 1.56a20.15 20.15 0 0 1-8 8.8c-2.46 1.4-4.71 3.2-7.25 4.41a58.64 58.64 0 0 1-16.66 5.37 49.76 49.76 0 0 1-13.12.55 81.35 81.35 0 0 1-24.76-7 72.38 72.38 0 0 1-14.52-9.37 22.17 22.17 0 0 1-3.59-3.78A87.86 87.86 0 0 1 225.85 572a45.53 45.53 0 0 1-4.64-20.23zM243.54 483a3.85 3.85 0 0 0-3.54-3.8 4.12 4.12 0 0 0-3.76 3.68 4 4 0 0 0 3.72 3.7 3.52 3.52 0 0 0 3.58-3.58zm52.57 12.51c2.15 0 3.64-1.3 3.65-3.21a3.41 3.41 0 0 0-3.52-3.65 3.45 3.45 0 0 0-3.72 3.49 3.53 3.53 0 0 0 3.59 3.32z"/><path class="c" d="M281.25 389.58c-11.82.28-21-4.92-28.45-13.71-1.31-1.54-2.62-3.08-4.06-4.49a23.65 23.65 0 0 1-5-8.16 2.69 2.69 0 0 1 .69-3.24q6.42-6.37 12.78-12.82c2.77-2.81 5.47-5.69 8.23-8.5 3.07-3.14 6.22-6.22 9.28-9.38 3.74-3.89 7.41-7.85 11.14-11.76 3.41-3.58 6.69-7.31 10.31-10.66a37.58 37.58 0 0 1 11-7.17c4.91-2 8.52-1.95 12.78 2.42 2.94 3 5.65 6.25 8.49 9.37 4.62 5.08 9.27 10.13 13.88 15.22 3.56 3.93 7.07 7.91 10.64 11.83 1.11 1.22 2.34 2.33 3.54 3.46a1.3 1.3 0 0 1 .16 2.1c-2.23 2.67-4.51 5.3-6.52 8.13-3.23 4.51-7.42 8.11-11 12.24a30.08 30.08 0 0 1-7.64 6.08 8.26 8.26 0 0 0-1.3 1 62.23 62.23 0 0 1-16 10.51 133.27 133.27 0 0 1-17.67 6c-3.66 1-7.61.91-11.43 1.28-1.29.14-2.57.18-3.85.25zm53.67-58.45a19.3 19.3 0 0 0-11.83 3.9 108.13 108.13 0 0 0-10.28 9c-2.46 2.31-4.66 4.89-7.06 7.27-3.11 3.1-6.31 6.11-9.43 9.2-1.1 1.1-2 2.38-3.07 3.51-2.88 3.08-5.87 6.05-8.65 9.21a26.41 26.41 0 0 0-2.73 4.38c-.55.92-.9 2 .16 2.71.88.59 2 1.12 3.06.3a48.92 48.92 0 0 0 4.55-3.82c1.29-1.28 2.26-2.87 3.5-4.22 3.9-4.26 7.79-8.53 11.82-12.66 5.19-5.33 10.53-10.5 15.76-15.77a35.88 35.88 0 0 1 9.42-6.62c3.24-1.64 5.8-1.19 8.45 1.27 2.22 2.06 4.45 4.11 6.64 6.2a2.39 2.39 0 0 0 3.24.39 2.63 2.63 0 0 0 1-3.37 4.78 4.78 0 0 0-.78-1.44q-3.51-4-7.11-8a2.26 2.26 0 0 0-1.23-.56c-1.8-.29-3.62-.58-5.43-.88zm-8-12.54c-.15-.62-.17-.81-.24-1-2-4.62-4.92-8.36-10.07-9.65a15.1 15.1 0 0 0-3.79.07 19.93 19.93 0 0 0-12.87 5.25c-3 2.61-5.86 5.43-8.76 8.17-1.2 1.13-2.39 2.25-3.5 3.45-1.79 1.93-3.42 4-5.27 5.88-3.92 4-8 7.77-11.92 11.72-3.29 3.3-6.71 6.49-9.31 10.43-.7 1.05-1 2-.09 3a2.62 2.62 0 0 0 3.44.47 33 33 0 0 0 4-3.31c4.49-4.57 8.9-9.22 13.34-13.84 2.73-2.83 5.43-5.69 8.17-8.51 4.59-4.72 9.17-9.45 13.83-14.1a11.6 11.6 0 0 1 7.57-3.35 8 8 0 0 1 6.29 1.88c1.83 1.52 3.54 3.18 5.36 4.7.57.48 1.68 1.15 2 .94a9.07 9.07 0 0 0 1.79-2.2zm6.93-21.33c-.66-.06-1.21-.06-1.75-.15-1.25-.23-1.36-.58-.44-1.56q5.46-5.81 10.94-11.56 11.86-12.47 23.74-24.9c5.65-5.9 11.38-11.72 17.08-17.58q13.72-14.13 27.46-28.26c8.5-8.76 16.89-17.63 25.54-26.25 3.22-3.21 7-5.86 10.54-8.74 1.76-1.44 3.55-2.85 5.36-4.21a94.94 94.94 0 0 1 16.91-9.67c6.73-3.17 13.88-3.88 21.11-4.32a13.94 13.94 0 0 1 3.38.62 17.37 17.37 0 0 1-1.86 2.91c-4.59 4.84-9.19 9.66-13.89 14.39-4.9 4.93-10 9.67-14.86 14.63-3.78 3.85-7.32 7.94-11 11.89-2 2.15-4 4.23-6.06 6.36-5.3 5.58-10.59 11.19-15.9 16.76-2.59 2.71-5.24 5.35-7.84 8-1.58 1.65-3.08 3.38-4.68 5-4.65 4.79-9.48 9.41-14 14.35-5.13 5.64-11.16 10.33-16.46 15.76-6.12 6.26-13.4 10.85-20.74 15.28a89.24 89.24 0 0 1-24.84 10.09 75.23 75.23 0 0 1-7.74 1.16zm132.69 237.25a47.3 47.3 0 0 0 14.6-2.27 26.58 26.58 0 0 0 11.63-7.53 35.31 35.31 0 0 0 6.18-10.3 28.73 28.73 0 0 1 8.05-11.92 25.49 25.49 0 0 1 15.77-6.22 126 126 0 0 0 15-1.36c3.48-.55 7-1.07 10.24-2.94 2.52-1.47 5.3-2.48 7.88-3.86 1.51-.81 2.84-1.95 4.27-2.9a3.29 3.29 0 0 1 1-.29 3.32 3.32 0 0 1-.17 1.16 49.25 49.25 0 0 1-7.89 10.17c-3.76 4-7.42 8.11-11.38 11.91-3.22 3.1-6.72 5.92-10.23 8.7a165.19 165.19 0 0 1-20.88 13.73 81.61 81.61 0 0 1-17.3 7.71c-9.91 2.92-19.85 5.84-30.1 7.43-4.24.66-8.56.89-12.85 1.3a5.47 5.47 0 0 1-1.3-.2 5.62 5.62 0 0 1 .57-1.42c1.88-2.37 3.77-4.72 5.71-7 1.75-2.07 4.25-2.82 6.74-3.41a31.87 31.87 0 0 1 4.46-.49z"/><path class="a" d="M466.06 284.45c-3.85 0-7.65.07-11.44 0a32.18 32.18 0 0 1-4.32-.72 19.35 19.35 0 0 0-2.16-.3 2.42 2.42 0 0 0-2.44 1.83c-.48 1.15.37 1.7 1 2.29 3 2.66 6.19 5.16 9.05 8 4.43 4.37 8.7 8.91 12.94 13.48 2.67 2.89 5.3 5.84 7.7 8.95 6.44 8.32 13.54 16.14 18.8 25.35q7.15 12.54 14.8 24.8a146.44 146.44 0 0 1 7.58 14.61c2.78 5.83 6 11.39 11.08 15.86 4.11 3.64 7.94 7.64 12.55 10.66 4.9 3.21 10 6.14 15 9.19a37.54 37.54 0 0 1 5.83 4.11 24.91 24.91 0 0 1-2.61-.43 172 172 0 0 1-22.06-7.6c-1.08-.47-2.24-.76-3.36-1.12-1.51-.48-2.31.19-2.1 1.77.05.36.26.69.33 1.05a3.53 3.53 0 0 1 0 .79c-.25-.05-.55 0-.73-.16a44.4 44.4 0 0 1-9.24-8.6 10.31 10.31 0 0 1-1.51-3.8c-1.53-6.39-4.37-12.23-7.26-18.07-1.42-2.87-2.8-5.77-4.08-8.71a113 113 0 0 0-7.23-12.94q-2.62-4.33-5-8.81a12.4 12.4 0 0 0-4.19-4.66c-1.71-1.12-3-.55-3.36 1.49a3.86 3.86 0 0 0 .14 2.39c1.48 2.64 1.54 5.63 2.34 8.43.88 3 .76 6.15 1.14 9.22a3.94 3.94 0 0 1-.25 1.2c-.36-.31-.93-.56-1-.94-1-3.23-1.85-6.51-2.93-9.71-1.46-4.33-3.09-8.61-4.67-12.9-1.19-3.26-2.31-6.55-3.63-9.75a124.76 124.76 0 0 0-12.29-22.38A57.25 57.25 0 0 0 458.6 307c-2.83-2.42-5-5.57-7.53-8.37-1.59-1.77-3.16-3.56-4.85-5.24-6.16-6.19-12.22-12.39-18.87-18.09-2.93-2.53-6-4.8-9.12-7.05-.78-.56-.89-.91-.25-1.69 2.81-3.37 2.8-3.42 6.32-.85 3.83 2.79 7.55 5.77 11.49 8.41a37.74 37.74 0 0 0 6.44 3c1.93.82 3.9 1.57 5.88 2.28a91.21 91.21 0 0 0 16.14 4.52 14.35 14.35 0 0 1 1.81.53zM321.13 476.71c-4.53.46-8.68-1.29-12.94-2.28-.77-.18-1.29-.47-.55-1.5 2.32-3.27 4.5-6.64 6.74-10 .46-.68 1-1.33 1.43-2 1.68-2.54 1.95-2.72 4.84-1.47a39.51 39.51 0 0 0 16.34 3 21.6 21.6 0 0 0 4.09-.44 3.6 3.6 0 0 0 2.09-6c-5.57-.91-3.39-4.26-4.93-6.52a5.45 5.45 0 0 0-2.47-1.6c-2.12-.83-4.32-1.46-6.45-2.28-4.84-1.85-8-5.63-11-9.61-.69-.91-.1-1.57.35-2.22 1.92-2.8 3.76-5.66 5.85-8.32 2.94-3.73 6.11-7.29 9.13-11 1.15-1.41 2.21-2.9 3.23-4.41.68-1 1.28-1.18 2.13-.23a28 28 0 0 1 2.27 2.36c2.53 3.59 5.08 7.17 7.43 10.87a38.29 38.29 0 0 1 5.71 19.58 22.28 22.28 0 0 1-1.42 8.06 60.32 60.32 0 0 1-4.69 9.63A31.19 31.19 0 0 1 337.74 471a50.5 50.5 0 0 1-12.74 5.46 17.3 17.3 0 0 1-3.87.25z"/><path class="c" d="M536.59 533.88a21.43 21.43 0 0 1-1.59 10.69c-2.69 7.25-7.52 12.9-13 18.1a55.34 55.34 0 0 1-10.22 7.81c-1.65 1-3 2.45-4.7 3.31q-9.56 4.85-19.24 9.41c-3.79 1.77-7.77 3.15-11.56 4.94a14.67 14.67 0 0 0-4.09 3.17c-3.09 3.23-5.62 7-5.95 11.5-.39 5.43 2.17 9.7 6.55 12.87 1.26.91 2.65 1.64 4 2.48 1 .67.8 1.21-.15 1.79a16.12 16.12 0 0 1-9.51 2 13.82 13.82 0 0 1-1.9-.36c-2.83-.54-3.58-1.26-3.95-4.06-.18-1.36-.06-2.77-.33-4.1-.76-3.79-3.07-6.56-6.11-8.81a25.34 25.34 0 0 1-3.32-2.78c-2.71-2.84-3.07-5.65-1.21-9.14a11.38 11.38 0 0 1 7.22-5.95 31 31 0 0 1 3.71-1c3.69-.55 6.61-2.65 9.54-4.68s3.75-5.09 4.49-8.25c.61-2.62 1.42-5.07 3.45-7a7.62 7.62 0 0 1 5.66-2.35c2.66 0 5.33.14 8 .37a38.45 38.45 0 0 0 15.13-2c7-2.26 13-6.46 18.15-11.56a46.55 46.55 0 0 0 9.58-13.29c.28-.99.76-1.88 1.35-3.11z"/><path class="a" d="M336 381.9c-.61 6.57-1.81 12.69-4.48 18.37-2.81 6-5.93 11.75-9.08 17.53a44.33 44.33 0 0 1-4.34 6.3c-2.55 3.22-5.26 6.32-7.89 9.47-1.88 2.24-3.72 4.5-5.64 6.71a24.82 24.82 0 0 1-2.93 2.87 1.42 1.42 0 0 1-1.36-.11 42.3 42.3 0 0 1-6.06-5.14c-2.19-2.55-3.87-5.52-5.83-8.28a1.51 1.51 0 0 1 .18-2.34q3-2.85 5.73-5.87c1.92-2.08 3.7-4.29 5.63-6.35 3.68-3.95 7.45-7.8 11.12-11.75 2-2.15 3.8-4.47 5.8-6.61 4.56-4.89 9.19-9.7 13.77-14.56 1-1.07 1.89-2.25 2.91-3.3s1.46-.9 1.93.42a16.3 16.3 0 0 1 .54 2.64z"/><path class="c" d="M444 614.29c-4-.17-7.33-1.31-9.47-4.84a10.66 10.66 0 0 1-1.12-6.94c.23-2 .73-4 1-6a46 46 0 0 0 .82-7.07 13.79 13.79 0 0 0-1.2-5.31 20.39 20.39 0 0 0-5.81-7.55 29.16 29.16 0 0 1-5.36-6.19 91.1 91.1 0 0 1-5.39-9.28 20 20 0 0 1-1.75-11.3c.51-5.11 3.74-8.53 8-10.85a40.51 40.51 0 0 0 10.45-8.81 47.9 47.9 0 0 0 4.5-5.83 10.18 10.18 0 0 0 1.56-6 10.22 10.22 0 0 1 .19-1.91 21.36 21.36 0 0 0-.2-6.23c-.62-5.21-.81-10.49 2.66-15a10.57 10.57 0 0 1 6.71-3.95c.84-.16 1.41.08 1.53 1.07s.39 1.8.51 2.71c.28 2.09.07 2-1.85 3.21a9.33 9.33 0 0 0-3.24 3.56 13.87 13.87 0 0 0-1.19 9.38c1.33 6.13.32 12-2 17.68a14.92 14.92 0 0 1-3.19 4.45c-2 2.09-4.31 4-6.48 5.91s-4.51 3.78-6.49 5.92a15.09 15.09 0 0 0-2.87 15.88c1.54 3.47 4.07 6 6.55 8.75 3 3.28 5.69 6.76 7 11.25a30.37 30.37 0 0 1 .74 13.59c-.56 3.82-.49 7.49 2.29 10.65 1.61 1.83 3.34 2.75 5.8 1.92a2.22 2.22 0 0 1 1.67.3 24 24 0 0 1 2.81 2.21c2 1.8 1.86 2.54-.82 3.31-2.05.56-4.22.87-6.36 1.31zm83.54 9c3.13-1.83 6.51-3.24 9.19-5.49 7.94-6.66 11-14.9 6.24-24.07-1.17-2.26-1.91-4.81-4.06-6.47-.5-.39-.95-.87-1.48-1.22-3.83-2.51-7.75-4.89-11.49-7.54a44.3 44.3 0 0 1-4.8-4.51c-.59-.57-.42-1.08.16-1.62 2.73-2.57 5.44-5.18 8.15-7.78a1.07 1.07 0 0 1 1.66-.08 13.35 13.35 0 0 0 8.22 2.71c3.15.12 5 2.22 5.21 5.26.22 2.64.66 5.26.93 7.9.35 3.51 2.88 5.48 5.39 7.26 1.74 1.24 3.95 1.84 6 2.72.75.33 1.54.6 2.29.94 4.78 2.22 6.41 5.73 4.9 10.78-1 3.35-2.76 6.2-6 7.89a5.67 5.67 0 0 1-1.78.6c-5.46.81-9.89 3.07-12.67 8.14a15.61 15.61 0 0 1-3.45 3.87c-2.47 2.2-5.41 2.46-8.51 1.67-1.4-.35-2.79-.65-4.1-.96zm-32.08-144.35c-1.37-.07-2.75-.09-4.12-.23a58.3 58.3 0 0 0-15.82.49c-4.86.84-10 6.07-10.07 10.78a26 26 0 0 0 2.84 12.2 2.12 2.12 0 0 1-.11 2.7c-1.07 1.24-2.24 2.38-3.36 3.57-.9-1.33-2.18-2.55-2.63-4-1.09-3.54-2.88-6.89-3-10.75-.08-2.55-.8-5.07-1-7.62-.33-5.25 4.54-11.44 10-12 3-.33 6-.86 9-1.3.09 0 .19-.08.27-.05 2.67.89 5.44.12 8.14.45 8.76 1.09 16.69-1.49 24.23-5.56 2.39-1.3 4.41-3.25 6.68-4.79a20.16 20.16 0 0 1 9-3.81 25 25 0 0 1 15.53 3.52c4.32 2.45 7.16 6.48 10.36 10.12 1.75 2 3.48 4 5.3 6 .58.61.74.8-.1 1.32-3.52 2.15-3.33 2-5.92-1.17-4.2-5.2-9.2-9.23-15.92-11.11s-12.22-.23-17.67 3.27a65.83 65.83 0 0 1-7.45 4.57c-4.42 2.02-9.06 3.76-14.18 3.4z"/><path class="b" d="M282.11 423.24c-.42-.12-1.13-.29-1.81-.54-6.7-2.45-12.52-6.43-18.26-10.54-5.58-4-10-9.09-14.45-14.23-5.4-6.24-9.31-13.32-13-20.6-1.44-2.81-1.67-4.53.72-7 3.7-3.88 3.29-4.07 5.75.78a97.91 97.91 0 0 0 5.62 9.09 43.75 43.75 0 0 0 4.58 6.46c5.22 5.52 10.54 10.94 16 16.19a88.37 88.37 0 0 0 9.4 7.62c3.54 2.57 7.31 4.84 10.94 7.29.29.2.53 1.11.38 1.25-1.53 1.44-3.13 2.79-4.74 4.13-.19.11-.54.04-1.13.1z"/><path class="a" d="M291.7 172.63a8.44 8.44 0 0 1 .88.56c6.43 5.66 14 9.65 21 14.45 3.17 2.18 6.46 4.2 9.6 6.43 5.78 4.13 12.18 7.13 18.53 10.2a124.83 124.83 0 0 1 14 8.16c3.82 2.51 7.83 4.73 11.63 7.27 3.64 2.45 7.12 5.13 10.65 7.73 1.91 1.41 3.85 2.8 5.64 4.34 1.47 1.26 1.44 1.49.2 2.89-1 1.17-2.23 2.19-3.28 3.34-.67.72-1.18.61-1.85 0s-1.35-.95-2-1.46c-6.8-5.41-13.55-10.9-20.42-16.23-2.89-2.23-6-4.19-9.09-6.16-4.39-2.79-9-5.26-13.25-8.28-3.14-2.25-6.66-3.71-10-5.56-6.29-3.51-13-6.29-19.34-9.73-4.51-2.44-8.77-5.48-11.2-10.21-1.05-2.06-1.35-4.5-2-6.78 0-.23.2-.59.3-.96z"/><path class="c" d="M575.93 543.87a71.4 71.4 0 0 1-2.1 16.17 14.33 14.33 0 0 0-.52 3c-.16 6.57-2.44 12.53-5.21 18.35-.79 1.65-1.78 3.21-2.57 4.86-.38.81-.83.84-1.51.52-1.49-.68-3-1.42-4.49-2-.93-.35-.81-.82-.49-1.46.66-1.31 1.29-2.63 2-3.93 4.15-7.89 6-16.38 7-25.18 1.19-10.35-.55-20.24-3.67-30a19.48 19.48 0 0 0-1.34-2.71c-2.69-5.18-5-10.6-9.31-14.76-.87-.84-.87-1.4 0-2.21a41.13 41.13 0 0 0 3-3.18 1.14 1.14 0 0 1 1.87 0c3.32 3.18 6.61 6.41 8.8 10.5 1.6 3 3 6.08 4.49 9.1 1.86 3.68 2.22 7.73 2.85 11.69.66 4.17.92 8.48 1.2 11.24zm32.21 5.9c-.48 5.13-2 9.45-6.24 12.77a91.83 91.83 0 0 1-10.3 7.27c-3.72 2.17-7.09 5.11-8.45 9.37-1.08 3.42-2 6.92-1.36 10.75a22.55 22.55 0 0 1-.75 10.61 7.28 7.28 0 0 1-4.17 4.5 40.16 40.16 0 0 1-6 2c-1.5.41-1.83 0-1.45-1.42a5.29 5.29 0 0 1 2.72-3.71c5.27-3 5.55-6.43 5-12.24-.5-5.4.15-10.56 3.4-15.17a42 42 0 0 1 9.67-9.28 32 32 0 0 0 8.11-8.49c2.68-4.21 2.3-12.18-2.22-15.28-1.51-1-2.53-2.87-3.67-4.4-1.81-2.41-3.54-4.89-5.29-7.34a7.59 7.59 0 0 1-.54-1c-1.7-3.29-1.67-3.27.92-5.84 1-1 1.65-.75 2 .36 1.07 3.21 3.47 5.57 5.31 8.26a29.83 29.83 0 0 0 5.72 5.84c2.56 2.12 5 4.27 6.28 7.43a41.93 41.93 0 0 1 1.31 5.01zm-143.72-21.29c-2.61-.06-2.73-.13-2.05-1.82 1.58-3.91 3.05-7.88 5-11.61a27.16 27.16 0 0 1 4.57-5.8c2.75-2.95 5.76-5.66 8.47-8.64a28.5 28.5 0 0 1 9.23-6.34c2.64-1.26 5.34-2.42 8-3.56a43.41 43.41 0 0 1 13.34-3c5.28-.45 10.43.18 15.63.63a17.81 17.81 0 0 1 2.94.66c.2.05.35.32.52.49a3.53 3.53 0 0 1-.69.24c-3.73.37-7.47.81-11.21 1.09-5.76.42-11.09 2.29-16.34 4.51-7 3-13.24 7.43-19.71 11.41a7 7 0 0 0-1.39 1.33 68.78 68.78 0 0 0-11.37 16.1c-.34.65-.86 1.21-1.14 1.88-.84 2.08-2.67 2.22-3.8 2.43z"/><path class="b" d="M519.87 425.06a39.39 39.39 0 0 1 9.31 10.17 35.6 35.6 0 0 1 4.44 9.08 2.55 2.55 0 0 0 1.76 1.42c.43.08 1.19-.72 1.55-1.29a59.94 59.94 0 0 1 8.25-11c.37-.38.78-.71 1.63-1.48-1.71 6.58-1.5 12.72-1.54 18.83 0 2.79 1.89 4.34 3.93 3.19a4.88 4.88 0 0 0 1.24-1.38 10.84 10.84 0 0 1 2-2.21c-.65 2.43-1.28 4.88-2 7.31 0 .14-.57.31-.69.23a18 18 0 0 1-1.86-1.62c-2.36-2.43-5.57-3.43-8.43-5-3.58-2-7.61-2.08-11.54-1.79a66.94 66.94 0 0 0-9.71 1.72 9.94 9.94 0 0 0-2.84 1.63c-.78.51-1.17.33-1.22-.59a35.63 35.63 0 0 1-.17-4.94 10.93 10.93 0 0 0-.57-4.85 15.06 15.06 0 0 1-.43-3.25c.81.73 1.66 1.41 2.39 2.2s1 1.56 1.67 2.16c1.07 1 1.92.82 2.74-.38a4.41 4.41 0 0 0 .88-2 69.72 69.72 0 0 0 .34-7.36 50.31 50.31 0 0 0-.71-5.71c-.05-.84-.2-1.72-.42-3.09z"/><path class="a" d="M218.08 412.42a49.73 49.73 0 0 1 2.41-16.48 58.51 58.51 0 0 1 7.91-16.5c.57-.77.91-1.43 1.49.05.8 2 1.81 4 2.75 6a3.6 3.6 0 0 1-.09 3.59 79.85 79.85 0 0 0-7.26 18.9 57.48 57.48 0 0 0-1.21 10.9 49.86 49.86 0 0 0 2.72 18.07c.43 1.3.57 2.69 1 4 1.27 4.07 2.61 8.13 3.91 12.19a2.38 2.38 0 0 1 0 .75c-.32-.09-.8-.08-.92-.29-1.38-2.34-2.8-4.67-4-7.1a76.78 76.78 0 0 1-8.63-32.15c-.09-.65-.08-1.29-.08-1.93z"/><path class="c" d="M500.58 624a25.49 25.49 0 0 1-10.71-4 4.87 4.87 0 0 1-1.78-6.08 30.34 30.34 0 0 1 2.36-5c1.83-3 4.94-3.9 8.12-4.58.68-.15 1 .23.9.95-.43 2.89-.86 5.77-1.26 8.66a10.86 10.86 0 0 0-.15 2.2 3.28 3.28 0 0 0 3.73 3.11c5.7-.87 10.33-3.53 13.39-8.54a8.35 8.35 0 0 0 .78-2.6c.88-4.48 1.73-9 2.61-13.44a4.47 4.47 0 0 1 .59-1.12 10.07 10.07 0 0 1 1 .81c4.74 5 4.71 10.61 2.13 16.5a20.37 20.37 0 0 1-9.19 9.86 23.18 23.18 0 0 1-12.52 3.27z"/><path class="b" d="M179.55 427.13c-2.5-.43-5-.74-7.49-1.34-1.85-.44-2-1.08-1.08-2.74.7-1.23 1.5-2.22 3.22-2.07a38.5 38.5 0 0 0 6 .07 35.11 35.11 0 0 0 11.93-2.83c4.88-2.16 9.11-5.21 11.74-10 2-3.68 3.75-7.54 5.52-11.37a10 10 0 0 1 5.1-5.15 5.52 5.52 0 0 1 1.31-.24 5.83 5.83 0 0 1-.05 1.26c-.87 3.46-1.77 6.91-2.64 10.36a3.57 3.57 0 0 0-.18 1.63c1 3.65-1.68 5.75-3.6 8a46.62 46.62 0 0 1-10.65 8.62 36.42 36.42 0 0 1-8 3.63 40.94 40.94 0 0 1-11.13 2.17z"/><path class="c" d="M451.6 628.75c-1.63.13-3.37.39-5.1.36a61.93 61.93 0 0 1-7.95-.48c-4.38-.63-7.82-5.9-6.86-10.16.16-.68.52-1 1.17-.56 1.43.89 3 1.48 4 3.11 1.8 2.82 4.93 3.29 8 3.32 2.66 0 5.32-.22 8-.24a9.21 9.21 0 0 1 7.56 3.69 28.66 28.66 0 0 0 5.73 5.08 7 7 0 0 0 9.65-1.34c1-1.17 2.2-2.51 2.43-3.92.32-2 1.46-2.57 3-3.12.51-.19 1-.45 1.53-.61.08 0 .45.41.41.52-1.31 3.22-2.31 6.63-4.08 9.57s-3.9 5.56-7.67 6.19c-3.45.58-5.8-.36-7.58-3.33a57.84 57.84 0 0 0-2.1-3.24c-2.46-3.46-5.98-4.69-10.14-4.84zM555 631.2c-4 0-7.9.39-11.42 2.44a5.49 5.49 0 0 0-1.61 1c-2.34 2.84-5.55 4.47-8.59 6.33a8.2 8.2 0 0 1-8.37.29 18.86 18.86 0 0 1-10.79-13.39c-.33-1.44.71-1.19 1.29-1.56s1.27-.55 1.55.56a24 24 0 0 0 3.66 7.63 8.78 8.78 0 0 0 6.6 4c2.14.22 3.9-1 5.7-1.75 4.2-1.86 8.19-4 11.4-7.5a8.2 8.2 0 0 1 3.93-1.76c2.74-.69 5.6-1 8.31-1.74a11.73 11.73 0 0 0 8.48-7.89 8.87 8.87 0 0 0 .31-2.68c0-.81-.39-1.82.84-1.92 1.06-.08 2.34-.12 2.84 1.12a4.68 4.68 0 0 1 .36 2.64 55.37 55.37 0 0 1-2.35 8.14c-1.09 2.69-3.59 4.17-6.21 5.07a32.91 32.91 0 0 1-5.93.97z"/><path class="b" d="M546.23 286.34c-2.92.71-5.26 1.58-7.67 1.81a66.79 66.79 0 0 1-22.88-1.57 11.9 11.9 0 0 1-1.25-.48 8 8 0 0 1 1.07-.79 16.34 16.34 0 0 0 2.47-1.13c1-.7 1.88-1.62 1.21-3a2.59 2.59 0 0 0-3-1.38c-1.53.24-3.06.52-4.59.76a10.05 10.05 0 0 1-1.64.19c-.89 0-1.78-.09-2.67-.14a17.72 17.72 0 0 1 1.9-1.78c1.93-1.36 3.93-2.63 5.88-4s4.28-1.29 6.57-.7c4.2 1.09 7.82 3.49 11.76 5.18a1.94 1.94 0 0 1 .67.47c2.91 3.11 6.74 4.51 10.64 5.8a15 15 0 0 1 1.53.76zm59.14 153.54c-4.58.26-9.24.51-13.4-1.85-3.16-1.79-6.15-3.89-9.2-5.87-.14-.09-.18-.35-.27-.54h.54c3.34.49 6.68 1.05 10 1.42a8.64 8.64 0 0 0 3.79-.34 5.18 5.18 0 0 0 2.25-2.13c.14-.23-.94-1.11-1.27-1.78-1.08-2.21-3.08-2.46-5.19-2.93a76.33 76.33 0 0 1-8.1-2.61c-.28-.1-.49-.42-.73-.63a2.54 2.54 0 0 1 .7-.31c5.68-.49 11.09-.11 15.92 3.58a84.32 84.32 0 0 1 10 8.92 12.43 12.43 0 0 1 1.47 2.31c.48.82.9 1.68 1.35 2.52-1 .06-2 .15-3 .19h-2.48z"/><path class="c" d="M585 505.94c-.35-2.08-.93-5.18-3.74-7.29a19.34 19.34 0 0 0-7.79-3.89 15.19 15.19 0 0 1-6.66-3.14c-.48-.39-1.09-1.31-.93-1.66a9 9 0 0 1 1.88-2.28c.06-.06.58.29.86.49a18.81 18.81 0 0 0 3.08 2.16 34 34 0 0 0 9 3.05c6.74.9 10.8 5.78 9.21 13.13a25.88 25.88 0 0 1-6.69 13 95.488 95.488 0 0 1-3.55 3.42 2.29 2.29 0 0 1-.91.42 14.06 14.06 0 0 1-1.39-2.87 2 2 0 0 1 .62-1.56 18.65 18.65 0 0 1 2.56-2c3.54-2.4 4.35-5.92 4.45-10.98zM453.52 563c.26-3.2.53-6 .71-8.85.08-1.18.39-1.86 1.75-1.89 1.6 0 3.2-.31 4.8-.47-.09 1.54-.1 3.09-.3 4.62a55.36 55.36 0 0 0 .27 15.05c.28 2 1.06 3.87 1.53 5.83s.4 1.92-1.45 2.49c-1.37.43-2.85.54-4.23 1-1.64.5-1.85-.45-1.94-1.65-.39-5.53-.78-11-1.14-16.13zm32.96 84.3c-2.62-.32-4.53-1.29-5.73-3.57a1.63 1.63 0 0 1 .36-2.19c.62-.61 1-1.73 2.17-1.17 4.07 1.94 7.74.55 11.23-1.46a6.61 6.61 0 0 1 7.67.17c1.21.82 2.43 1.64 3.71 2.34a7.34 7.34 0 0 0 7.09.39 1.28 1.28 0 0 1 1.83.29c3 3 3 3.38-.88 5.38-2.93 1.53-3.23 1.48-5.72-.86-.94-.87-1.86-1.77-2.84-2.59a7.5 7.5 0 0 0-7.16-1.7 24.28 24.28 0 0 0-6.74 3 28.44 28.44 0 0 1-4.99 1.97z"/><path class="b" d="M498.1 414.46a13 13 0 0 1 .31 10.46 38.48 38.48 0 0 1-2.21 4.69c-1.34 2.61-2.74 5.19-4.09 7.79-.5 1-.86 1-1.51.06-2.51-3.53-3.14-7.62-3.22-11.75a83.76 83.76 0 0 1 .68-9.86 5.3 5.3 0 0 1 2.5-3.77c.79-.55.85-.19 1 .48a23.44 23.44 0 0 1-.42 9.47c-.25 1-.52 2 .47 2.77 1.34 1 2.6.89 3.42-.7a36.19 36.19 0 0 0 2-5.09c.41-1.29.63-2.66 1.07-4.55z"/><path class="c" d="M502.42 587.9c3.37.43 6.18.78 9 1.15 1.24.17 2 .63 1.54 2.15-.56 1.92-.91 3.91-1.38 5.87-.12.52-.17 1.09-1 .44-5.27-4.26-11.49-4.87-17.94-4.52-.62 0-1.62.91-1.71-.3-.07-.86.47-2.41 1-2.56 3.62-.94 7.31-1.58 10.49-2.23zm34.45 14.87a29.43 29.43 0 0 1-1.13 4.22c-1.82 4.21-4.5 7.72-8.75 9.77a4.11 4.11 0 0 1-1 .18 3.44 3.44 0 0 1 .09-1c.88-1.92 1.84-3.79 2.68-5.72a11.71 11.71 0 0 0 1-3.14c.51-3.79.9-7.59 1.35-11.39a4.68 4.68 0 0 1 .35-1 5.62 5.62 0 0 1 .91.48c2.45 1.92 4.35 4.19 4.5 7.6zM484 598c-.42 2.25-.91 4.5-1.26 6.76-.45 3-.78 6-1.17 9-.11.85-.36 1.58-1.36.81-1.79-1.4-3.52-2.88-5.28-4.31a1.82 1.82 0 0 1-.75-2.15c1.27-4 2.85-7.78 6.61-10.12a13.17 13.17 0 0 1 1.95-1c.95-.37 1.38.01 1.26 1.01z"/><path class="b" d="M468.47 147.58c-2.53 2.57-4.38 5.55-8 6.61a9.9 9.9 0 0 1-8.25-.7 77.38 77.38 0 0 1-7.58-5.89c-.23-.19-.28-.62-.42-.93a3 3 0 0 1 1-.24 5.16 5.16 0 0 1 1.33.32c7.13 2.41 14.37 2.25 21.92.83zm-189.39 15.15c2.9 3.45 5.83 6.82 7.12 11.12.89 3 1.37 6.05 2 9.09a2.27 2.27 0 0 1 0 .82c-.19 1.35-.17 3-1.67 3.49s-2.08-1.1-3-2c-2.23-2.23-2.47-5-2.34-7.89a32.18 32.18 0 0 0-1.29-11.58c-.3-.99-.54-2.03-.82-3.05z"/><path class="c" d="M506.79 582.33c2.68-1.66 5.16-3.16 7.61-4.74a1.09 1.09 0 0 1 1.65.19 40.4 40.4 0 0 0 9.53 7.74c.37.23.51.88.66 1.37a1.64 1.64 0 0 1-.11.8c-.26 1.13-.53 2.25-.79 3.37-.83-.65-1.7-1.26-2.47-2-4.49-4.15-10.11-5.62-16.08-6.73z"/><path class="b" d="M427.07 299.29c-.38-1.38-.87-2.74-1.11-4.15-.68-4-1.69-8.07-.91-12.23.25-1.34.26-1.4 1.48-.58a5.27 5.27 0 0 1 .46.31c1 .89 2.57 1.61 2.94 2.72.32.94-.75 2.32-1.18 3.51a19.11 19.11 0 0 0-1.28 7.81c.06.82 0 1.65 0 2.47z"/><path class="a" d="M497.48 153.16c-5.31-2.81-9.69-6-12.22-11.17a6.07 6.07 0 0 1-.32-1.22 9.6 9.6 0 0 1 1.2.46 25.23 25.23 0 0 1 11.34 11.93z"/><path class="b" d="M507.41 334.38c-3.2.34-6.4.69-9.6 1a1.24 1.24 0 0 1-.94-.25c-1.24-1.68-2.43-3.39-3.61-5.11a3.86 3.86 0 0 1-.33-.92 3.51 3.51 0 0 1 1.08.05c3.45 1.23 6.89 2.46 10.31 3.75 1.08.42 2.1 1.01 3.09 1.48zm-144.8-132.91c-2.11 1.22-4 2.24-5.85 3.43a1.46 1.46 0 0 1-1.91 0c-1.54-1-3.18-1.78-4.77-2.67a5 5 0 0 1-.75-.64 3.07 3.07 0 0 1 .95-.52c2.52-.37 5-1 7.6-.28a40.94 40.94 0 0 0 4.73.68z"/><path class="c" d="M504.75 609c.2-1.15.31-2.15.55-3.12.13-.55.17-1.46 1.15-1 .81.34 1.9.74 1.36 1.93a15.59 15.59 0 0 1-1.82 2.7 3.25 3.25 0 0 1-.87.59z"/><path d="M243.54 483a3.52 3.52 0 0 1-3.63 3.63 4 4 0 0 1-3.72-3.7 4.12 4.12 0 0 1 3.81-3.73 3.85 3.85 0 0 1 3.54 3.8zm52.57 12.46a3.53 3.53 0 0 1-3.59-3.37 3.45 3.45 0 0 1 3.72-3.49 3.41 3.41 0 0 1 3.52 3.65c-.01 1.91-1.5 3.21-3.65 3.21zm38.81-164.33c1.81.3 3.63.59 5.43.93a2.26 2.26 0 0 1 1.23.56q3.6 3.93 7.11 8a4.78 4.78 0 0 1 .78 1.44 2.63 2.63 0 0 1-1 3.37 2.39 2.39 0 0 1-3.24-.39c-2.19-2.09-4.42-4.14-6.64-6.2-2.65-2.46-5.21-2.91-8.45-1.27a35.88 35.88 0 0 0-9.42 6.62c-5.23 5.27-10.57 10.44-15.76 15.77-4 4.13-7.92 8.4-11.82 12.66-1.24 1.35-2.21 2.94-3.5 4.22a48.92 48.92 0 0 1-4.55 3.82c-1.06.82-2.18.29-3.06-.3-1.06-.71-.71-1.79-.16-2.71a26.41 26.41 0 0 1 2.73-4.38c2.78-3.16 5.77-6.13 8.65-9.21 1.07-1.13 2-2.41 3.07-3.51 3.12-3.09 6.32-6.1 9.43-9.2 2.4-2.38 4.6-5 7.06-7.27a108.13 108.13 0 0 1 10.28-9 19.3 19.3 0 0 1 11.83-3.95zm-8.03-12.54a9.07 9.07 0 0 1-1.81 2.18c-.3.21-1.41-.46-2-.94-1.82-1.52-3.53-3.18-5.36-4.7a8 8 0 0 0-6.29-1.88 11.6 11.6 0 0 0-7.57 3.35c-4.66 4.65-9.24 9.38-13.83 14.1-2.74 2.82-5.44 5.68-8.17 8.51-4.44 4.62-8.85 9.27-13.34 13.84a33 33 0 0 1-4 3.31 2.62 2.62 0 0 1-3.44-.47c-.87-1-.61-1.91.09-3 2.6-3.94 6-7.13 9.31-10.43 3.94-3.95 8-7.77 11.92-11.72 1.85-1.86 3.48-3.95 5.27-5.88 1.11-1.2 2.3-2.32 3.5-3.45 2.9-2.74 5.75-5.56 8.76-8.17a19.93 19.93 0 0 1 12.86-5.24 15.1 15.1 0 0 1 3.79-.07c5.15 1.29 8.06 5 10.07 9.65.07.2.09.42.24 1.01z"/></svg>