<svg id="Layer_1" data-name="Layer 1" xmlns="http://www.w3.org/2000/svg" viewBox="0 0 800 800"><defs><style>.cls-1{fill:blue;}.cls-2{fill:#08090d;}.cls-3{fill:#3b3d40;}.cls-4{fill:#2b303c;}.cls-5{fill:#fefefe;}.cls-6{fill:#fdfefe;}.cls-7{fill:#fdfdfe;}.cls-8{fill:#000101;}.cls-9{fill:#020304;}.cls-10{fill:#fbfbfc;}.cls-11{fill:#fcfcfc;}.cls-12{fill:#f9fafb;}.cls-13{fill:#fbfbfb;}.cls-14{fill:#fafafa;}.cls-15{fill:#f9fafa;}</style></defs><title>left my heart alone</title><path class="cls-1" d="M571.2,271.23l-.35.77c-2.86,4.94-5.8,9.83-8.3,15-.41,1-1.18,1.81-1.18,3-4.34,7.71-4.78,15.79-2,24.08A91.19,91.19,0,0,0,568.56,333c4.9,8,10.25,15.69,14.49,24.06a62.78,62.78,0,0,1,5.45,14.6c2.23,9.94-1.38,18.68-5.65,27.23-5.72,11.44-13.68,21.56-19.47,33-4.84,9.56-7.74,19.39-4.08,30.1a101.21,101.21,0,0,0,9.81,19.88c5.76,9.43,11.94,18.57,16.54,28.72,5.72,12.64,3.44,24.32-2.57,36-5.65,10.93-13.16,20.74-18.8,31.67-3.23,6.26-6.29,12.6-6.51,19.85,0,1.65-.81,2.47-2.5,2.4-.85,0-1.7,0-2.55,0H192.22c-4.77,0-4.9,0-4.47-4.71.54-6,3.07-11.44,5.73-16.76,5.55-11.11,12.94-21.14,19-32,7.94-14.14,8.17-27.9.19-42.14-6.06-10.83-13.14-21-19.11-31.91-7.79-14.19-7.8-28.07,0-42.28,6-11,13.21-21.26,19.28-32.23,7.74-14,7.88-27.69-.2-41.45-6.27-10.69-12.86-21.2-18.92-32-4.18-7.47-6.91-15.47-6-24.35.64-6.56,3.21-12.41,6.12-18.13,5.63-11.07,13-21.1,19-32,7.65-13.84,7.71-27.29.07-41.17-6.16-11.19-13.86-21.46-19.51-32.93-2.9-5.87-5.57-11.84-5.79-18.6-.07-2.14.59-2.93,2.65-2.72.73.07,1.47,0,2.2,0q180.06,0,360.12-.07c3.7,0,5,.64,5.45,4.83,1,9.33,5.82,17.39,10.63,25.29s10.08,15.5,14.3,23.74a65,65,0,0,1,5.59,14.95c2.15,9.27-1,17.58-4.91,25.59-3.17,6.5-7,12.66-10.61,19C572.5,269.4,571.72,270.23,571.2,271.23Z"/><path class="cls-2" d="M561.72,287.38c2.69-5.34,4.9-11,9.13-15.38-.47,3.95-3.31,6.74-5,10.11-.89,1.81-2,3.5-3.07,5.24A.83.83,0,0,1,561.72,287.38Z"/><path class="cls-3" d="M571.2,271.23c-.19-1.45.71-2.21,1.8-2.85C572.91,269.65,572.84,270.94,571.2,271.23Z"/><path class="cls-4" d="M561.72,287.38l1.1,0-1.45,2.58C560.57,289,561.43,288.2,561.72,287.38Z"/><path d="M443,329c-3-6.19-6.26-12.26-7.76-19.07-1.14-5.2-.92-5.53,4.41-5.53,17.17,0,34.34,0,51.51-.05,2.54,0,3.51.33,3.92,3.39,1.28,9.52,5.92,17.84,10.85,25.94s10.2,15.65,14.46,24a61.38,61.38,0,0,1,5.72,16c.46,2.32.42,3.73-2.83,3.7-18-.16-36-.12-54.07,0-2.36,0-3.17-.79-3.4-3-.86-8-4.27-15.05-8.33-21.85-2.55-2.12-3.61-5.31-5.66-7.8-2.81-3.82-4.81-8.15-7.54-12A9.83,9.83,0,0,1,443,329Z"/><path d="M274.63,252.23c3.37-5.93,6.15-12.08,6.69-19,.17-2.08.75-2.95,3-2.94q27.43.15,54.85,0c2.28,0,2.88.48,2.51,2.87-1.46,9.33-5.82,17.4-10.55,25.33-6.64,11.13-14.58,21.54-18.74,34-.76,2.29-1.73,4.67-1.72,7,0,3.1-1,3.79-4,3.77q-26.52-.21-53,0c-2.8,0-3.6-.69-3.2-3.48,1.24-8.75,5.53-16.2,9.7-23.71.58-1.06,1.45-2,1.39-3.29A158.7,158.7,0,0,1,274.63,252.23Z"/><path d="M377.25,284.47c-2.45,5.4-5,10.77-5.2,16.84-.05,1.75-.89,2-2.29,1.95q-27.78,0-55.56,0c-2.08,0-2.37-.84-2.23-2.65.48-6.18,3-11.67,5.69-17.08,5.33-10.65,12.64-20.14,18.23-30.65,3.36-6.32,6.48-12.75,7-20.07.12-1.75.74-2.52,2.68-2.51q27.78.09,55.55,0c2.52,0,2.41,1.14,2.12,2.92-1.5,9.29-5.82,17.39-10.58,25.31q-3.37,5.61-6.76,11.21C383.51,275,381.13,280.15,377.25,284.47Z"/><path d="M505.94,274.22c-5.27,8.48-10,17.19-11,27.37-.16,1.6-1,1.67-2.17,1.67-18.53,0-37.06,0-55.59,0-2.12,0-2.39-.9-2.27-2.64.42-5.95,3-11.16,5.36-16.47.81-1.88,1.83-3.67,2.75-5.51.43-3.68,3.19-6.16,4.84-9.2,1.21-2.23,2.66-4.34,4-6.51,2.06-2.48,3.11-5.68,5.65-7.81,4.07-6.79,7.46-13.85,8.34-21.85.23-2.15,1-3,3.37-3,18,.12,36,.15,54.06,0,3.19,0,3.35,1.27,2.89,3.66-1.76,8.94-5.87,16.87-10.51,24.57l-5.42,9A11.34,11.34,0,0,1,505.94,274.22Z"/><path d="M533.68,604c-3.9-7-8.23-13.72-10.79-21.37a43.45,43.45,0,0,1-1.78-7.74c-.4-2.87,1.06-2.88,3.12-2.88,14.63,0,29.25,0,43.88,0h10.6c1.21,0,2.39-.2,2.51,1.71.57,9.38,5,17.36,9.56,25.23s9.4,15.31,14,23a60.26,60.26,0,0,1,7.56,19.55c.56,2.89-.24,3.46-3,3.44-17.92-.12-35.83-.07-53.75,0-1.79,0-3.32.15-3.53-2.39-.81-9.73-5.52-17.94-10.42-26-2.08-1.32-2.92-3.61-4.29-5.48C536.25,608.6,534.08,606.75,533.68,604Z"/><path d="M386.55,270.52c6.89-10.56,14-21,17.27-33.43.57-2.12-.38-5.06,1.33-6.24,2-1.4,5-.46,7.48-.46,16.2,0,32.41.1,48.62-.12,3.72-.06,3.83,1.21,3.27,4.2-1.36,7.12-4.63,13.45-7.72,19.87-.59,3.34-3.13,5.63-4.6,8.48-3.39,4.95-6,10.43-9.86,15.06-4.39,7.31-8.14,14.89-8.84,23.56-.21,2.53-1.87,1.78-3.13,1.78-11.46,0-22.91,0-34.36,0-6.46,0-12.92-.17-19.37.08-3,.11-3.5-1-3.19-3.57.55-4.64,2.51-8.8,4.14-13.09a10.58,10.58,0,0,0,.33-1.4C380.17,280,382.61,274.81,386.55,270.52Z"/><path d="M456.81,353.28c3.17,6.52,6.45,13,7.8,20.23.5,2.7.27,3.84-3,3.81-17.9-.16-35.81-.08-53.72-.07-1.57,0-3.22.34-3.43-2.05-1-10.75-6.4-19.69-11.79-28.62-6.18-10.26-13.38-20-17.33-31.46,0-.11-.12-.21-.16-.33-3.67-9.68-3.16-10.44,7-10.44,15.72,0,31.43,0,47.15-.05,2.78,0,3.93.21,4.37,3.7,1,7.87,4.43,15,8.66,21.75,3.94,4.59,6.29,10.22,9.84,15.05C453.67,347.66,456.19,350,456.81,353.28Z"/><path d="M255.78,323.84c-1.95-5.55-4.92-10.75-5.32-16.82-.14-2.16.46-2.72,2.54-2.71,18.36.06,36.72,0,55.09,0,1.24,0,2.4-.11,2.51,1.73.55,9.64,5.34,17.69,9.85,25.82,1,1.79,2.24,3.45,3.36,5.18,2.1,1.76,3.25,4.21,4.65,6.48,1.07,2,2.84,3.67,3.3,6,2.82,5.76,6.05,11.29,8.19,17.39,3.51,10,3.41,10.27-6.95,10.27-16,0-31.92-.08-47.88.07-2.91,0-3.61-.91-3.87-3.66-.63-6.6-3.3-12.57-6.61-18.26-3.87-3.94-5.81-9.16-8.95-13.59-1.47-2.06-2.74-4.29-4.09-6.45C259.68,331.51,256.69,328.2,255.78,323.84Z"/><path class="cls-5" d="M218.79,598.92c-9.13,0-18.26,0-27.39,0-1.93,0-2.74-.19-2.43-2.57,1.25-9.81,6.05-18.08,11-26.3,6.49-10.8,14.06-21,18.23-33.08.87-2.53,1.79-5.07,1.68-7.77-.1-2.34,1-2.8,3.08-2.79q27.39.09,54.78,0c2.39,0,2.73.63,2.39,2.95-1.45,9.61-6.11,17.82-11,25.92-6.51,10.79-14,21-18.23,33.09a22.37,22.37,0,0,0-1.67,7.76c.06,2.37-.91,2.83-3,2.8C237.05,598.87,227.92,598.92,218.79,598.92Z"/><path class="cls-5" d="M280,598.93c-9,0-18,0-27.06,0-1.95,0-2.73-.25-2.51-2.54.59-6.2,3.05-11.72,5.77-17.13,5.75-11.42,13.74-21.53,19.44-33,2.75-5.53,5.41-11.15,5.68-17.5.07-1.65.67-2.35,2.42-2.35q28,.07,55.94,0c2.24,0,2.18.93,1.92,2.7-1.37,9.63-6,17.86-10.93,26-6.56,10.92-14.26,21.21-18.38,33.46-.73,2.17-1.76,4.49-1.6,6.66.28,3.77-1.67,3.73-4.37,3.7C297.59,598.86,288.81,598.93,280,598.93Z"/><path class="cls-5" d="M557.74,525.06c-9,0-18,0-27,0-1.7,0-3,0-3.25-2.25-1.14-10.05-6-18.63-11.05-27.08-4.76-7.92-10.09-15.49-14.29-23.74a63.61,63.61,0,0,1-5.46-14.6c-1-4.38-.62-4.88,3.74-4.88,17.18,0,34.36.06,51.54,0,2.91,0,4.25.25,4.77,3.83,1.28,8.89,5.62,16.72,10.2,24.34,4.82,8,10.2,15.7,14.54,24a69,69,0,0,1,6.09,16.3c.74,3.2,0,4.26-3.46,4.16C575.29,524.9,566.51,525.06,557.74,525.06Z"/><path class="cls-5" d="M526.27,598.92c-8.76,0-17.54-.22-26.3.11-3.75.14-4.09-1.56-3.52-4.28a63.44,63.44,0,0,1,5.61-15.3c5.49-10.87,13-20.55,18.6-31.33,3.1-5.94,5.89-12,6.62-18.74.24-2.2,1.14-3,3.46-3,17.91.1,35.81.14,53.72,0,3.23,0,3.69,1.12,3.1,3.85-1.9,8.78-5.92,16.64-10.52,24.25-4.72,7.79-10,15.27-14.15,23.39-3.13,6.06-5.88,12.27-6.5,19.15-.22,2.47-1.77,1.85-3.08,1.86C544.3,598.94,535.29,598.92,526.27,598.92Z"/><path class="cls-5" d="M219,452.53c9,0,18,.07,27,0,2.32,0,2.95.64,3.22,3,1.07,9.38,5.68,17.43,10.38,25.37,4.52,7.62,9.67,14.87,13.81,22.73,3.12,5.93,5.81,12,6.73,18.7.29,2.08.06,2.78-2.2,2.78-18.38-.07-36.77,0-55.16-.05-1.32,0-2.73.27-2.86-1.8-.61-9.8-5.41-18-10.17-26.17-4.64-8-10.08-15.48-14.33-23.7-2.95-5.71-5.61-11.52-6.42-18-.29-2.33.29-2.89,2.57-2.86C200.72,452.6,209.86,452.53,219,452.53Z"/><path d="M334.62,402.89c4-6.81,7.51-13.84,8.21-21.89.18-2.08,1.17-2.56,3.08-2.56q27.43.07,54.85,0c2.47,0,2.78.86,2.41,3-1.62,9.54-6.16,17.8-11.06,25.92-6.51,10.78-14.1,21-18.21,33.07-.94,2.77-1.91,5.54-1.83,8.46.06,2.13-.91,2.32-2.62,2.32q-27.61-.08-55.22,0c-2,0-2.42-.55-2.29-2.49.39-6.09,3.06-11.39,5.44-16.81.82-1.88,1.84-3.67,2.76-5.5.5-3.92,3.61-6.43,5.22-9.75,1.17-2,2.62-3.88,3.72-6C331,408.13,332.12,405,334.62,402.89Z"/><path d="M446,419.76c-5.9,9.23-11.47,18.61-12.47,29.85-.18,2.07-1.46,1.56-2.55,1.56-7.07,0-14.14,0-21.21,0-11.09,0-22.19-.09-33.28.07-2.66,0-3.31-.76-3-3.26.71-5.88,3-11.19,5.64-16.38,5.77-11.53,13.84-21.72,19.58-33.26,2.69-5.41,5.26-10.93,5.65-17.11.13-2.17,1.08-2.83,3.23-2.82q27.24.12,54.49,0c2.59,0,3.09.84,2.65,3.17-1.47,8-4.94,15.16-8.9,22.14-.66,1.16-1.26,2.35-1.88,3.52-.33,2.4-2.1,4.08-3.12,6.14C449.24,415.57,448.28,418.18,446,419.76Z"/><path class="cls-5" d="M464.9,598.92H439c-4.39,0-4.8-.46-3.83-4.81a54.73,54.73,0,0,1,6-15.56c5.87-10.08,12.06-20,17.87-30.09,3.45-6,6.25-12.34,6.86-19.39.17-1.9,1-2.64,3-2.63,18.28.08,36.55.11,54.83,0,2.91,0,2.84,1.29,2.45,3.36-1.87,9.86-6.69,18.41-11.84,26.82-6,9.82-12.83,19.2-16.84,30.17a32.32,32.32,0,0,0-2.42,9.46c-.11,2.4-1,2.74-3.06,2.72C482.93,598.87,473.92,598.92,464.9,598.92Z"/><path d="M581.3,249.3c-1.52,6.13-5.29,11.09-8.62,16.24-7.2,11.14-13.93,22.49-16.86,35.6-.46,2-1.36,2.13-3,2.13-17.92,0-35.84-.11-53.75.05-4,0-3-2.55-2.63-4.36a55.7,55.7,0,0,1,5.36-15c1.52-3,3.18-6,4.77-9a14.68,14.68,0,0,1,4.28-6.67c6.34-9.59,12.52-19.25,15.69-30.48.68-2.42-.26-5.93,1.8-7.07s5.19-.4,7.86-.41q21.13,0,42.28,0c1.35,0,3-.63,3.87,1.11C585,237.61,584.33,243.53,581.3,249.3Z"/><path d="M261.54,271.9c-5.89,9-11.39,18.26-12.37,29.34-.2,2.3-1.62,2-3.06,2L195,303.17c-2.4-2.38-1.76-5.37-1.52-8.19a46.1,46.1,0,0,1,6.59-20.07c6.84-11.69,14.08-23.16,19.59-35.57.63-3,.75-6.25,3.39-8.47,1.1-.73,2.34-.5,3.54-.5,16.87,0,33.75.06,50.62-.07,2.9,0,3.3.69,2.9,3.46-.91,6.33-3.76,11.9-6.15,17.67C270.84,258.86,266.36,265.48,261.54,271.9Z"/><path d="M266.9,157a136.85,136.85,0,0,1,25.28-.06c6.77.18,13.23,1.46,18.91,5.44,2,8.49,5.88,16.08,10.54,23.34a11.44,11.44,0,0,1,4.28,6.67c3.34,5.75,6.88,11.41,10,17.29a50.83,50.83,0,0,1,5.84,17.08c.23,1.74-.08,2.41-2,2.41q-27.93-.06-55.86,0c-1.34,0-2.37-.17-2.5-1.86-.79-10.39-6-19-11.15-27.65-6.24-10.5-13.7-20.32-17.74-32-.67-1.93-1.18-3.92-1.76-5.88,1.92-2.76,5.1-3.05,7.93-3.84A21,21,0,0,1,266.9,157Z"/><path d="M494.23,161.19c.44.37,1.17.68,1.27,1.13,2.95,12.59,10.14,23,17,33.6a11.15,11.15,0,0,1,4.27,6.69c2.54,5.47,5.59,10.68,7.59,16.44,3.51,10.1,3.65,10.06-6.82,10.06-15.95,0-31.9-.09-47.86.07-2.9,0-3.77-1-4-3.63-.48-5.64-2.86-10.68-5.3-15.68a3.63,3.63,0,0,1-1.54-1.49c-3.51-6.09-7.06-12.15-11.09-17.91-.58-.82-.59-1.84-1.1-2.67-.68-3.29-3-5.75-4.47-8.61a62.13,62.13,0,0,1-5.85-13.93,23.18,23.18,0,0,1,17-8.33,118,118,0,0,1,23.77,0c5.43-.36,10.54,1.07,15.6,2.8A2,2,0,0,1,494.23,161.19Z"/><path class="cls-5" d="M272.88,398.91c.2,2.9-1.66,5-3,7.22-4.48,7.52-9.53,14.69-13.64,22.43-3.47,6.56-6.75,13.19-7.1,20.81-.11,2.41-1.86,1.79-3.19,1.8-9.38,0-18.76,0-28.14,0-8.78,0-17.55-.07-26.32,0-2.26,0-2.81-.44-2.51-2.83,1.16-9.32,5.65-17.22,10.26-25.06,4.26-7.23,8.9-14.23,13.08-21.5,3.82-6.63,7.14-13.53,7.61-21.38.1-1.69,1.1-1.93,2.47-1.92l43.48.19c3.76,2.71,4.33,7.16,5.8,11C272.77,392.65,274.22,395.64,272.88,398.91Z"/><path d="M384.48,481.84c-3.35-6.28-7.11-12.37-9.36-19.19a32.33,32.33,0,0,1-1.71-7.75c-.16-2,.6-2.43,2.44-2.42,18.37,0,36.74,0,55.11,0,1.13,0,2.36-.4,2.53,1.62.83,9.95,5.69,18.36,10.56,26.73,4,6.81,8.73,13.12,12.24,20.21.88,8.46,0,16.5-5.53,23.45-1,.73-2.09.52-3.16.52-13.23,0-26.46,0-39.69.06-2.39,0-3.43-.53-3.65-3.08-.59-6.85-3.38-13-6.75-18.89-3.82-4.26-6.28-9.42-9.39-14.15C387.14,486.49,384.87,484.64,384.48,481.84Z"/><path d="M396.83,504c2.61,5.95,5.45,11.8,6.39,18.35.27,1.88.23,2.83-2.16,2.81C386.51,525,372,525,357.39,525a4.14,4.14,0,0,1-1.85-1.69c-5.48-8.63-13.21-15.22-20.35-22.34-7.52-12.66-16.63-24.43-21.64-38.5,0-.12,0-.25-.08-.36-3.19-8.79-2.69-9.56,6.27-9.56,16.2,0,32.4.05,48.6-.05,2.59,0,3.41.41,3.86,3.4,1.45,9.87,6.19,18.5,11.6,26.75,2.11,1.83,3.3,4.29,4.68,6.63,2.16,3.62,4.61,7.07,6.7,10.74A14.83,14.83,0,0,1,396.83,504Z"/><path class="cls-5" d="M463.76,453.2c1.16-.95,2.54-.66,3.86-.66q12.24,0,24.47,0c1.24,0,2.6-.43,2.84,1.75,1.14,10.42,6.24,19.26,11.51,28,6.38,10.58,13.91,20.54,17.81,32.48.79,2.41,1.35,4.9,2,7.36.53,2.16-.21,3-2.59,3-11.81-.12-23.62-.05-35.43-.05-6.45,0-12.9,0-19.36,0-1.43,0-2.63,0-2.8-1.9-.88-9.59-5.74-17.65-9.95-26a14.7,14.7,0,0,1-1-6.4c.32-11.42.53-22.86,5.41-33.54C461.19,455.63,461.69,453.77,463.76,453.2Z"/><path d="M454.59,408c5.24-8.33,10.05-16.85,11.23-26.85.25-2.15,1.19-2.75,3.3-2.74q27.19.12,54.39,0c2.19,0,3.24.46,2.71,2.84-1.87,8.3-4.36,16.32-10.15,22.88-1,2.54-3.33,3.83-5.26,5.41-8.74,7.15-17.71,14-26.34,21.3a93.28,93.28,0,0,0-16,16.82c-.82,1.15-1.46,2.58-3.06,3-3.3,1.16-6.71.4-10.07.49-5.7.14-11.41-.18-17.1.12-3.16.17-3.67-1.15-3.28-3.71.82-5.55,3-10.65,5.45-15.62,1.92-3.89,4.17-7.61,6.28-11.41.58-2.69,2.68-4.54,3.84-6.91C451.74,411.67,452.71,409.51,454.59,408Z"/><path d="M273.25,403.5c2.83-6.12,6.14-12,7.61-18.71,1.4-6.33,1.47-6.32,8.05-6.32,16.55,0,33.1,0,49.65-.05,2.69,0,3.55.4,3.05,3.42-1.21,7.31-4.59,13.7-7.68,20.25-.59,3.29-3.08,5.55-4.53,8.37-1.1,2.08-2.62,3.89-3.72,6-2.07,3.07-3.65,6.47-6.21,9.2-4.37,7.44-8.32,15-8.89,23.89-.06,1-.23,1.7-1.4,1.67-9.22-.26-18.46.59-27.67-.46-1.54-.56-2.1-1.92-2.67-3.27A55.74,55.74,0,0,1,275,433.11c-1.1-8.05-1.2-16.17-2.06-24.23A11.68,11.68,0,0,1,273.25,403.5Z"/><path class="cls-5" d="M371.58,597.51c.22,2.67-1.83,1.34-2.74,1.35-10.1.1-20.21.07-30.32.07-7.67,0-15.34-.18-23,.08-3.3.11-3.95-1.14-3.47-4a54.42,54.42,0,0,1,5.45-15.34c5.74-11.42,13.68-21.54,19.44-33,2.83-5.63,5.5-11.35,5.9-17.79.11-1.82.84-2.57,2.72-2.51,4.38.13,8.76.1,13.15.13,2.12,1.35,2.76,3.63,3.57,5.78,2.89,7.58,4.13,15.49,4.74,23.52,1,13.33,2.11,26.64,4.57,39.8A6.53,6.53,0,0,1,371.58,597.51Z"/><path d="M398.25,212.94c3.37,4.24,4.21,9.37,5.07,14.5.18,1-.15,1.65-1.3,1.65l-1.82,0q-26.85,0-53.7,0c-1.48,0-3.37.57-3.57-1.91-.75-9.35-5.18-17.28-9.73-25.15-2.07-3.56-4.4-7-6.6-10.45a14.76,14.76,0,0,1-4.28-6.68c-3.09-6-6.65-11.77-8.71-18.25-.36-1.1-1.26-2.16-.51-3.44,4-.24,7.22,2,10.55,3.61,25.2,11.84,48.62,26.69,71.28,42.78A10.48,10.48,0,0,1,398.25,212.94Z"/><path d="M195.39,305.21c.83-1.34,2.17-.84,3.31-.84,15.65,0,31.31,0,47-.08,2.66,0,3.38.69,3.6,3.42.51,6.06,3,11.6,5.84,16.93,2.87,3.25,4.36,7.37,6.85,10.87,3.55,5.5,6.92,11.12,10.4,16.67a12.86,12.86,0,0,1,1.62,4c2.48,6,5.51,11.74,6.23,18.35.22,2.06,0,2.9-2.23,2.73-4.45-.32-8.94.48-13.37-.43a4.18,4.18,0,0,1-2.19-1.84c-7.52-11.46-17.94-20-28.45-28.47-9.91-8-20.67-15-29.65-24.13a40.75,40.75,0,0,1-8.56-13C195.21,308.08,194.53,306.68,195.39,305.21Z"/><path d="M540.12,376.82c-3.6.89-7.26.21-10.89.42-1.08.07-1.47-.51-1.6-1.5-1.9-15.29-11-27.21-18.69-39.76-5.08-8.27-10-16.58-12.2-26.2-1.15-5.15-1-5.44,4.1-5.43q26.67,0,53.33.09c.83,1.52-.07,2.86-.56,4.17a60.47,60.47,0,0,0-3.64,24c.53,12.24-.46,24.36-4.91,35.93C543.91,371.56,543.17,374.91,540.12,376.82Z"/><path class="cls-5" d="M449.42,526.6c4.14,0,8.29.07,12.42-.16,2.75-.16,3.29.78,2.8,3.35-1.72,9-5.87,16.92-10.53,24.63-4.34,7.18-8.89,14.24-13.08,21.5-3.82,6.65-7,13.61-7.56,21.43-.1,1.36-.77,1.58-1.88,1.58l-57-.14c-.21,0-.42-.23-.62-.36-.09-2,1.43-3,2.59-4.17,11.32-11.59,24.26-21.28,36.81-31.44s25.15-20.68,34.2-34.52A5.51,5.51,0,0,1,449.42,526.6Z"/><path d="M513.2,195.15c-3.61-6.13-7.38-12.17-10.78-18.41-2.46-4.52-4.7-9.21-5.32-14.45,1.19-.95,2.36-.27,3.44.15,22.47,8.61,43.28,20,61.12,36.38,7.4,6.8,14.16,14.06,18.54,23.22,1,2.1,2.49,4.23,1.58,6.84q-21.35.12-42.69.22c-3.4,0-7.25,1-10.1-.3-3.22-1.42-1.7-6-2.88-9.06a98,98,0,0,0-8.65-17.92A15.2,15.2,0,0,1,513.2,195.15Z"/><path d="M434.87,166.59c3.34,7.68,6.68,15.36,11.71,22.14a103.62,103.62,0,0,1,13.15,21.94c1.63,5.05,4,9.83,4.94,15.15.43,2.56-.09,3.36-2.83,3.34-18-.11-36.06,0-54.09-.06-1.42,0-3.22.39-3.26-1.82-.08-4.58-2.1-8.65-3.22-13,1.33-5.36,4.23-10,6.86-14.75,5.07-9.1,10.4-18.07,17.57-25.75C428.39,171,430.64,167.51,434.87,166.59Z"/><path d="M249.35,162.33c3.29,12,9.89,22.25,16.45,32.57,5.46,8.58,10.9,17.2,13.51,27.2,1.83,7,1.81,7-5.44,7q-23,0-46,0c-1.3,0-2.69.4-3.87-.55a2.78,2.78,0,0,1-.21-2.46c2.62-9.78,2.43-19.77,2.44-29.76a36.23,36.23,0,0,1,19.65-33.11A5.61,5.61,0,0,1,249.35,162.33Z"/><path class="cls-5" d="M434.87,166.59c-9.67,7.51-16.66,17.24-22.67,27.73-3.78,6.59-7.29,13.33-10.93,20-6.2-13.37-15.37-25-22.07-38.11-2.76-5.38-5.26-10.91-5.77-17.11-.17-2.12.51-2.7,2.58-2.69q27.42.1,54.84,0c1.71,0,2.59.23,2.69,2.32A60.42,60.42,0,0,0,434.87,166.59Z"/><path class="cls-5" d="M581.78,228.88c-2.42-9.22-7.94-16.61-14.41-23.25-19.78-20.31-43.68-34-70.27-43.34-1.84-5.2-1.4-5.84,3.95-5.84,17,0,34.08.05,51.12,0,2.79,0,4,.29,4.45,3.68,1.27,9.14,5.76,17.14,10.43,25,6.34,10.62,13.89,20.54,18.16,32.32a47.37,47.37,0,0,1,2.11,7.31c.82,4.39.85,4.44-3.72,4.36C583,229,582.39,228.94,581.78,228.88Z"/><path d="M449.42,526.6c-7.34,12.62-17.91,22.27-28.94,31.52-12.85,10.78-26.43,20.67-38.66,32.18-2.74,2.58-5.25,5.41-7.86,8.13-1.39-3.47.17-6.64,1.22-9.76,2.92-8.68,7.74-16.39,12.62-24,.91-1.42,1.69-2.93,2.53-4.39a11.56,11.56,0,0,1,4.26-6.68c4.58-7.71,8.87-15.54,9.77-24.69.17-1.77.86-2.44,2.76-2.42C421.22,526.56,435.32,526.56,449.42,526.6Z"/><path class="cls-5" d="M540.12,376.82c7.1-12.56,9.44-26.29,8.74-40.4a71.44,71.44,0,0,1,5.31-32c1-.06,2-.36,2.14,1.16,1.3,12.78,8.13,23.15,14.65,33.66,5.5,8.86,11.4,17.48,14.8,27.48a53,53,0,0,1,2,8.09c.27,1.58-.19,2.46-2.09,2.45-14.84-.07-29.68,0-44.52-.08A3.07,3.07,0,0,1,540.12,376.82Z"/><path class="cls-5" d="M195.39,305.21c2.72,10.44,9.69,17.74,17.87,24.13,10.62,8.3,21.48,16.31,31.69,25.12,7.57,6.54,14.44,13.74,19.64,22.38-2.23.88-4.56.37-6.84.38-10.94.07-21.89-.08-32.84.1-3.5.06-4.71-.6-5.25-4.58-1.23-9.12-5.88-17.09-10.64-24.86S199,332.4,194.74,324.19a52.79,52.79,0,0,1-5.45-14.94c-.26-1.47-1.5-3.82.3-4.63A5.34,5.34,0,0,1,195.39,305.21Z"/><path class="cls-5" d="M398.25,212.94c-17.14-12.05-34.54-23.69-52.82-34a297.71,297.71,0,0,0-32.32-15.76c-1.33-1.24-.94-2.91-1.14-4.44-.23-1.74.35-2.35,2.15-2.35q27.9.08,55.79,0c1.22,0,2,.16,2.13,1.72.78,10.25,5.82,18.84,10.89,27.38,4.7,7.93,10,15.48,14.27,23.68C397.8,210.38,398.74,211.46,398.25,212.94Z"/><path d="M371.58,597.51c-4-12.65-4.29-25.82-5.38-38.87-.92-11.08-2.52-21.94-7.5-32,14.11,0,28.23,0,42.35-.15,2.42,0,2.44,1,2.14,2.84a60,60,0,0,1-5.8,16.72c-1.12,2.27-2.32,4.51-3.48,6.76a14.62,14.62,0,0,1-4.26,6.69c-5.79,8.81-11.57,17.62-15.31,27.57A89.47,89.47,0,0,0,371.58,597.51Z"/><path class="cls-5" d="M273.25,403.5c1.57,7.63,1.43,15.42,2.14,23.13.77,8.39,2.22,16.53,6.12,24.09-5.05,1.07-10.15.28-15.22.44-4.38.14-8.76-.05-13.14.07-2.05,0-2.93-.17-2.71-2.71.5-5.58,2.54-10.65,4.94-15.48C260.51,422.72,267,413.17,273.25,403.5Z"/><path class="cls-5" d="M465.37,450.66c5.67-9.09,13.32-16.32,21.54-23,9.69-7.87,19.44-15.67,29.16-23.5.41,1.8-.87,3-1.67,4.27-6.09,10-13,19.57-17.1,30.74-1,2.85-2.27,5.77-2.24,8.73,0,3.28-1.5,3.37-3.95,3.33-7.41-.09-14.82,0-22.23-.05C467.7,451.17,466.44,451.52,465.37,450.66Z"/><path d="M463.76,453.2c-5.46,9.31-7.06,19.55-7.32,30.13-.11,4.62-.24,9.25-.36,13.87-7.17-11-14.77-21.79-19.37-34.28-3.6-9.79-3.27-10.41,6.86-10.41,5.59,0,11.18,0,16.77,0C461.49,452.54,462.8,452.08,463.76,453.2Z"/><path d="M329.54,495c-4.92-2.21-8.68-6.05-12.93-9.2-10.65-7.87-21.18-15.91-29.4-26.48a33.85,33.85,0,0,1-4.4-6.66l25.48-.15c1.08,0,2.18-.17,2.3,1.51.73,10.23,5.85,18.73,10.8,27.31C324,485.94,327.4,490.1,329.54,495Z"/><path class="cls-6" d="M335.19,500.93c1.82-.07,2.63,1.48,3.73,2.45,7.16,6.33,13.92,13,18.47,21.58-4,0-8,0-11.95.11-1.36,0-2.43-.22-2.5-1.85C342.56,515,338.51,508.1,335.19,500.93Z"/><path class="cls-7" d="M450.76,524.53c3.79-7.36,5-15.33,5.53-23.45a58.39,58.39,0,0,1,8.43,21c.41,2.08,0,3.25-2.46,3C458.44,524.68,454.55,525.7,450.76,524.53Z"/><path class="cls-8" d="M272.88,398.91c-1-7.2-3.69-13.79-7-20.18,4.23-.09,8.46-.18,12.68-.24,1,0,1.9.1,1.74,1.58-.71,6.83-3.3,13-6.5,19C273.75,399.14,273.2,399,272.88,398.91Z"/><path class="cls-9" d="M538.81,378.73c-3.84,6.65-9,12.2-14.44,17.54a5.44,5.44,0,0,1-1.55.75c1.49-5.77,4.51-11.11,4.83-17.22.08-1.35,1.13-1.36,2.13-1.33Z"/><path class="cls-10" d="M200.07,274.91c-1.65,5.81-4.52,11.23-5.23,17.36a34.35,34.35,0,0,0,.16,10.9c-7,.4-7.23.27-5.35-6.53C191.81,288.79,194.91,281.34,200.07,274.91Z"/><path class="cls-11" d="M453.36,156.93a48.41,48.41,0,0,0-17,8.32c-.16-.17-.42-.32-.47-.52-2.19-8.23-2.14-8.36,6.33-8.25C445.92,156.53,449.68,155.89,453.36,156.93Z"/><path class="cls-12" d="M581.3,249.3a44.36,44.36,0,0,0,1.1-17.8c1.26-2.14,3.33-1.31,4.81-.8,1.18.4.57,2.19.39,3.33-.74,4.84-2.77,9.27-4.54,13.78C582.76,248.56,582.45,249.47,581.3,249.3Z"/><path class="cls-13" d="M311.09,162.34c-6.26-2-12.42-4.29-18.91-5.44,5.5-1,11.05-.2,16.57-.46,1.46-.07,1.82.69,1.86,2S310.92,161,311.09,162.34Z"/><path class="cls-14" d="M494.23,161.19A132,132,0,0,0,477.14,157c5.45-1.12,11-.7,16.45-.32C496.06,156.83,495,159.49,494.23,161.19Z"/><path class="cls-15" d="M266.9,157a72.49,72.49,0,0,0-16.13,4.73c-.52-5.25-.52-5.36,4.53-5.22C259.16,156.58,263.07,155.82,266.9,157Z"/><path class="cls-1" d="M459.73,210.67q-6.57-11-13.15-21.94l.08-.93a119.71,119.71,0,0,1,13.73,22.07Z"/><path class="cls-1" d="M261.54,271.9,274,251.43l.67.8a114.63,114.63,0,0,1-13,20.6Z"/><path class="cls-1" d="M274,356.19l-12.43-20.48c-.37-.8.06-.9.71-.8,4.34,6.71,8.91,13.27,12.39,20.49Z"/><path class="cls-1" d="M442.34,277.88a156,156,0,0,1,9.46-15.37c.64-.1,1.08,0,.7.8q-4.74,7.68-9.5,15.36Z"/><path class="cls-1" d="M386.55,270.52q-4.31,7.38-8.63,14.75l-.67-.8c2.53-5.11,5.1-10.2,8.63-14.72Z"/><path class="cls-1" d="M451.81,345.13a140,140,0,0,1-9.46-15.38l.66-.8,9.5,15.37C452.9,345.13,452.45,345.22,451.81,345.13Z"/><path class="cls-1" d="M396.83,504q-4.38-7.32-8.77-14.64c-.37-.81.07-.9.72-.81,3,4.85,6.49,9.36,8.73,14.64Z"/><path class="cls-1" d="M262.25,334.91l-.71.8c-2.74-3.35-4.57-7.22-6.44-11.07l.68-.8Z"/><path class="cls-1" d="M319.47,425.62a61.28,61.28,0,0,1,5.8-9.52c.65-.1,1.1,0,.71.81l-5.84,9.52Z"/><path class="cls-1" d="M452.5,263.31l-.7-.8,5-8.17.68.81A35.33,35.33,0,0,1,452.5,263.31Z"/><path class="cls-1" d="M451.81,345.13l.7-.81a34.79,34.79,0,0,1,5,8.16c-.23.27-.46.53-.68.8Z"/><path class="cls-1" d="M328.94,410.24l5-8.15.69.8a35.77,35.77,0,0,1-5,8.18C329.19,411,329.13,410.56,328.94,410.24Z"/><path class="cls-1" d="M388.78,488.5l-.72.81a32.35,32.35,0,0,1-4.26-6.7c.23-.25.46-.51.68-.77A33,33,0,0,1,388.78,488.5Z"/><path class="cls-1" d="M328.09,343.79a33.21,33.21,0,0,1-4.28-6.71l.7-.77A33.72,33.72,0,0,1,328.8,343C328.6,343.27,328.54,343.7,328.09,343.79Z"/><path class="cls-1" d="M510.9,268.33a30.43,30.43,0,0,1-4.28,6.67l-.68-.78a31.79,31.79,0,0,1,4.27-6.67Z"/><path class="cls-1" d="M451,413.88a34.22,34.22,0,0,1-4.3,6.65l-.69-.77a32.4,32.4,0,0,1,4.27-6.7C450.68,413.14,450.75,413.57,451,413.88Z"/><path class="cls-1" d="M513.2,195.15a31.1,31.1,0,0,1,4.26,6.67l-.68.79a32.07,32.07,0,0,1-4.27-6.69Z"/><path class="cls-1" d="M322.32,184.9a31,31,0,0,1,4.28,6.68l-.69.77a31.83,31.83,0,0,1-4.28-6.67Z"/><path class="cls-1" d="M389.65,559.45a33,33,0,0,1,4.26-6.69l.68.79a29.82,29.82,0,0,1-4.26,6.68Z"/><path class="cls-1" d="M328.09,343.79l.71-.83c1.22,2,2.43,3.91,3.64,5.86l-.68.77A20.72,20.72,0,0,1,328.09,343.79Z"/><path class="cls-1" d="M451,413.88l-.72-.82a21.23,21.23,0,0,1,3.67-5.81l.69.77Z"/><path class="cls-1" d="M328.94,410.24c.23.28.47.56.71.83a22.46,22.46,0,0,1-3.67,5.84l-.71-.81C326.49,414.14,327.72,412.19,328.94,410.24Z"/></svg>