<svg id="Layer_1" data-name="Layer 1" xmlns="http://www.w3.org/2000/svg" xmlns:xlink="http://www.w3.org/1999/xlink" viewBox="0 0 800 800"><defs><style>.cls-1,.cls-2{fill:none;}.cls-2{stroke:#000;stroke-linejoin:bevel;stroke-width:8px;}.cls-3{clip-path:url(#clip-path);}.cls-4{fill:red;}.cls-5{fill:url(#New_Pattern_5);}</style><clipPath id="clip-path"><polygon class="cls-1" points="469.01 397.48 465.87 400.22 462.3 402.48 459.03 405.18 455.35 407.29 451.65 409.36 448.52 412.26 444.89 414.43 441.56 417.04 438.07 419.43 434.17 421.2 430.9 423.9 427.17 425.93 423.95 428.71 420.61 431.31 416.67 433.04 413.07 435.25 410.12 438.43 406.19 440.16 402.7 442.55 399.35 445.13 395.85 447.51 392.37 449.91 388.77 452.13 385.24 454.44 381.69 456.73 378.44 459.47 374.67 461.44 371.09 463.69 367.94 466.58 364.26 468.68 360.96 471.36 357.17 473.3 353.62 475.6 350.1 477.94 346.97 480.85 343.14 482.75 339.61 485.1 336.24 487.55 332.1 487.28 327.9 487.45 323.69 487.62 319.49 487.3 315.28 487.52 311.07 487.35 306.87 487.41 302.66 487.24 298.46 487.34 294.26 487.8 290.06 487.86 285.85 487.45 281.65 487.35 277.44 487.68 273.23 487.92 269.03 487.57 264.83 487.08 260.62 487.69 256.42 487.32 252.21 487.55 248.01 487.24 243.8 487.7 239.6 487 235.39 487.16 231.18 487.3 226.98 486.84 222.77 487.51 218.56 487.43 214.35 487.26 210.15 486.84 205.94 487.25 201.73 486.78 197.52 486.67 193.31 486.73 189.1 487.02 184.89 487.29 180.68 487.52 176.47 487.36 172.27 486.73 168.06 486.63 163.85 487.26 159.65 486.8 155.44 486.72 151.22 487.14 147.02 486.5 142.8 487.17 138.59 486.56 134.38 486.79 130.17 486.64 125.96 486.85 121.74 486.72 117.52 487.24 113.13 486.89 115.1 482.92 116.49 478.88 118.55 475.14 120.48 471.35 122.39 467.55 123.77 463.5 125.64 459.68 127.55 455.88 129.73 452.21 130.69 447.97 133.01 444.36 134.57 440.4 136.31 436.52 137.81 432.52 139.9 428.8 141.31 424.78 143.83 421.25 145.5 417.34 147.3 413.49 148.69 409.44 150.57 405.63 152.53 401.85 154.5 398.07 155.84 394 157.57 390.12 159.35 386.25 160.93 382.29 162.65 378.4 165.09 374.84 166.67 370.88 168.6 367.08 170.51 363.28 171.62 359.11 174.02 355.52 175.25 351.4 176.82 347.44 178.96 343.74 180.67 339.84 182.56 336.03 184.43 332.21 185.76 328.13 187.9 324.44 189.63 320.54 191.25 316.6 193.02 312.73 195.27 309.08 196.83 305.1 198.58 301.22 200.13 297.25 202.47 293.64 203.96 289.63 205.3 285.55 207.73 282.27 211.69 282.18 215.94 281.7 220.16 282.19 224.39 282.22 228.61 282.39 232.84 282.65 237.06 283.08 241.29 283.07 245.54 282.57 249.76 283.13 254 282.79 258.2 283.68 262.46 283.03 266.66 283.95 270.91 283.55 275.14 283.77 279.36 283.97 283.58 284.36 287.83 283.88 292.05 284.48 296.28 284.46 300.51 284.84 304.75 284.45 308.98 284.75 313.19 285.42 317.43 285.12 321.66 285.38 325.9 285.13 330.12 285.67 334.35 285.6 338.59 285.53 342.81 285.93 347.05 285.63 351.27 286.05 355.48 286.51 359.72 286.29 363.93 286.82 368.18 286.57 372.4 286.92 376.63 286.96 380.87 286.63 385.1 286.75 389.31 287.34 393.55 287.43 397.77 287.61 401.99 288.11 406.23 287.91 410.45 288.28 414.71 287.73 418.92 288.61 423.14 288.73 427.39 288.25 431.61 288.85 435.86 288.38 440.07 289.09 444.31 289.01 448.56 288.84 452.77 289.53 457 289.68 461.26 289.05 465.48 289.58 469.7 290.04 473.94 289.84 478.19 289.73 482.4 290.29 486.63 290.62 490.88 290 495.09 290.9 499.34 290.46 503.57 290.78 507.8 291.26 512.04 291.11 516.29 290.83 520.5 291.62 524.75 291.42 528.98 291.79 533.23 291.57 537.51 291.83 534.87 295.17 532.61 298.7 530.68 302.45 528.44 306 526.53 309.76 523.91 313.07 521.74 316.66 519.12 319.97 517.22 323.73 514.7 327.1 512.76 330.85 509.95 334.03 507.55 337.48 505.65 341.25 503.06 344.57 501.38 348.48 499.11 352.01 496.77 355.49 494.06 358.74 492.14 362.5 489.4 365.73 487.13 369.26 484.81 372.76 482.61 376.34 480.37 379.89 478.69 383.81 476.07 387.12 473.46 390.44 471.59 394.24 469.01 397.48"/></clipPath><pattern id="New_Pattern_5" data-name="New Pattern 5" width="218" height="208" patternTransform="translate(0.31 -254.22)" patternUnits="userSpaceOnUse" viewBox="0 0 218 208"><rect class="cls-1" width="218" height="208"/><path class="cls-2" d="M215,199.77s30,34,60,0"/><path class="cls-2" d="M106,199.77s30,34,60,0"/><path class="cls-2" d="M221,199.77s-30,34-60,0"/><path class="cls-2" d="M-3,199.77s30,34,60,0"/><path class="cls-2" d="M112,199.77s-30,34-60,0"/><path class="cls-2" d="M3,199.77s-30,34-60,0"/><path class="cls-2" d="M133.25,147.77s30,34,60,0"/><path class="cls-2" d="M248.25,147.77s-30,34-60,0"/><path class="cls-2" d="M24.25,147.77s30,34,60,0"/><path class="cls-2" d="M139.25,147.77s-30,34-60,0"/><path class="cls-2" d="M30.25,147.77s-30,34-60,0"/><path class="cls-2" d="M160.5,95.77s30,34,60,0"/><path class="cls-2" d="M275.5,95.77s-30,34-60,0"/><path class="cls-2" d="M51.5,95.77s30,34,60,0"/><path class="cls-2" d="M166.5,95.77s-30,34-60,0"/><path class="cls-2" d="M-57.5,95.77s30,34,60,0"/><path class="cls-2" d="M57.5,95.77s-30,34-60,0"/><path class="cls-2" d="M187.75,43.77s30,34,60,0"/><path class="cls-2" d="M78.75,43.77s30,34,60,0"/><path class="cls-2" d="M193.75,43.77s-30,34-60,0"/><path class="cls-2" d="M-30.25,43.77s30,34,60,0"/><path class="cls-2" d="M84.75,43.77s-30,34-60,0"/><path class="cls-2" d="M215-8.23s30,34,60,0"/><path class="cls-2" d="M106-8.23s30,34,60,0"/><path class="cls-2" d="M221-8.23s-30,34-60,0"/><path class="cls-2" d="M-3-8.23s30,34,60,0"/><path class="cls-2" d="M112-8.23s-30,34-60,0"/><path class="cls-2" d="M3-8.23s-30,34-60,0"/></pattern></defs><title>letter from the sea</title><polygon class="cls-4" points="520.16 365.76 519.81 360.97 518.48 356.36 515.99 352.23 510.55 352.5 506.31 353.04 502.06 353.14 497.79 352.47 493.56 353.03 489.31 352.78 485.07 353.39 480.83 353.54 476.56 352.84 472.32 353.03 468.08 353.47 463.83 353.76 459.57 353.3 455.33 353.76 451.08 353.99 446.83 353.86 442.57 353.71 438.33 353.92 434.07 353.84 429.82 354.05 425.59 354.93 421.33 354.74 417.09 354.76 412.84 354.81 408.58 354.67 404.34 355.22 400.08 354.63 395.85 355.56 391.58 355.07 387.34 355.32 383.08 355.23 378.82 355.02 374.58 355.69 370.34 355.96 366.08 356.02 361.82 355.53 357.56 355.65 353.32 356.19 349.06 355.8 344.8 356.1 340.54 356.02 336.3 356.81 332.04 356.59 327.78 356.46 323.53 357.05 319.26 356.74 315 356.75 310.75 356.97 306.48 356.65 302.24 357.3 297.99 357.63 293.72 357.5 289.46 357.37 285.21 357.89 280.95 357.79 276.68 357.32 272.43 357.45 268.18 358.15 263.92 358.03 259.67 357.97 255.42 358.35 251.15 358 246.9 358.29 242.65 358.18 238.41 358.91 234.15 358.78 229.9 358.77 225.65 358.94 221.39 358.99 217.13 358.86 212.89 359.1 208.65 359.57 204.39 359.49 200.15 359.86 195.91 360.11 191.67 359.5 195.29 360.05 198.91 359.94 194.85 360.3 190.74 360.54 186.63 360.25 182.62 359.11 178.5 358.87 174.35 358.74 170.38 359.7 170.14 363.91 170.65 368.13 171.3 372.33 171.4 376.57 171.23 380.83 171.53 385.06 171.83 389.28 172.52 393.49 172.85 397.72 172.76 401.97 172.54 406.22 173.05 410.44 173.65 414.66 173.48 418.91 173.79 423.14 173.36 427.4 174.33 431.61 174.01 435.86 174 440.1 174.64 444.33 174.43 448.57 174.47 452.81 174.33 457.06 174.1 461.3 174.57 465.54 173.98 469.77 174.53 474.01 174.79 478.26 173.94 482.49 174.05 486.73 174.37 490.79 178.43 490.54 182.67 491.18 186.91 491.09 191.16 491.05 195.41 491.33 199.65 490.6 203.9 491.49 208.14 490.59 212.39 491.13 216.63 491.4 220.88 491.25 225.13 490.87 229.37 491.02 233.62 490.73 237.86 491.08 242.1 491.49 246.35 491.34 250.59 491.57 254.84 491.11 259.09 491.08 263.33 491.22 267.58 491.31 271.82 491.45 276.07 491.36 280.31 491.39 284.56 491.58 288.81 490.94 293.05 491.77 297.3 491.25 301.54 491.68 305.79 491.42 310.03 491.21 314.28 491.38 318.52 491.61 322.77 491.86 327.01 491.2 331.26 491.46 335.51 491.08 339.75 491.76 344 491.1 348.24 491.89 352.49 491.74 356.73 492.08 360.98 491.75 365.22 491.97 369.47 491.63 373.71 492.13 377.96 492.01 382.2 491.94 386.45 491.43 390.69 491.62 394.94 491.74 399.19 491.82 403.43 492.28 407.68 491.46 411.92 491.58 416.17 492.29 420.41 491.86 424.66 492.31 428.9 492.11 433.15 491.49 437.39 491.53 441.64 491.65 445.89 491.75 450.13 492.15 454.38 492.1 458.62 492.24 462.87 491.98 467.11 491.76 471.36 492.13 475.6 491.74 479.85 492.24 484.09 492.27 488.34 492.27 492.58 492.52 496.83 492.07 501.08 492 505.32 492.6 509.57 492.29 514.41 491.57 518.91 489.8 521.52 485.35 522.55 480.3 522.59 476.02 522.76 471.78 523.88 467.6 523.82 463.33 523.67 459.08 523.55 454.83 524.13 450.58 523.72 446.34 523.92 442.08 523.01 437.87 523.08 433.61 523.03 429.36 522.6 425.13 522.23 420.9 522.36 416.63 521.54 412.43 521.4 408.19 521.2 403.94 520.36 399.74 520.66 395.47 519.97 391.25 520.38 386.99 519.46 382.77 520.06 378.5 519.39 374.26 519.38 370 520.16 365.76"/><polygon class="cls-2" points="520.23 404.02 518.2 400.47 516.98 396.53 514.6 393.15 513.65 389.25 513.57 385.26 514.82 381.5 516.84 378.13 520.07 375.98 523.17 373.01 526.72 370.75 530.33 368.58 534.18 366.82 538.04 365.1 541.47 362.63 544.85 360.05 548.93 358.72 552.2 355.96 556.09 354.29 559.94 352.57 563.67 350.62 567.24 348.38 571.04 346.58 574.82 344.73 578.65 342.98 582.33 340.94 585.97 338.81 589.65 336.76 593.58 335.22 597.5 333.69 601.31 331.9 604.81 329.43 608.92 328.31 612.74 326.55 616.42 324.48 620.36 322.99 624.16 321.17 627.99 319.41 632.16 318.5 635.94 316.63 639.91 315.23 643.93 313.97 647.68 311.99 651.75 310.87 655.63 309.25 659.54 307.67 663.63 306.62 667.36 305.6 671.25 306.08 675 307.39 677.75 310.24 680.1 313.34 682.28 316.82 683.87 320.57 685.26 324.44 686.89 328.05 686.69 332.03 685.76 335.88 683.17 338.85 680.84 342.11 676.97 343.85 673.28 345.88 669.92 348.45 666.43 350.82 662.43 352.31 658.97 354.73 655.23 356.66 651.63 358.85 647.98 360.94 644.25 362.88 640.63 365.03 636.9 366.98 633.04 368.67 629.45 370.88 625.93 373.24 622.11 375.01 618.39 376.98 614.55 378.72 610.52 380.05 606.82 382.05 603.22 384.28 599.45 386.15 595.36 387.33 591.41 388.8 587.66 390.73 583.82 392.43 579.85 393.84 576.24 396.11 572.32 397.64 568.42 399.23 564.38 400.46 560.37 401.75 556.61 403.66 552.74 405.32 548.61 406.3 544.83 408.19 540.96 409.87 537 411.3 533.06 411.59 529.14 411.34 525.68 409.5 522.56 407.18 520.23 404.02"/><polyline class="cls-2" points="662.78 305.81 661.93 309.96 661.01 314.08 661.26 318.38 660.54 322.53 660.39 326.74 660.3 330.95 660.15 335.19 660.59 339.41 661.71 343.51 663.52 347.35 664.33 351.59"/><polyline class="cls-2" points="643.87 311.9 643.29 315.96 641.77 319.86 641.39 323.96 641.79 328.1 640.74 332.16 641.58 336.26 641.82 340.33 641.97 344.44 642.75 348.46 644.02 352.36 644.63 356.49 646.74 360.06"/><polyline class="cls-2" points="625.95 320.62 624.73 324.54 624.19 328.61 623.38 332.64 623.1 336.75 622.9 340.85 623.22 344.96 623.51 349.05 624 353.12 624.71 357.16 625.52 361.19 627.46 364.85 628.84 368.69"/><polyline class="cls-2" points="607.46 329.17 606.46 333.18 606.26 337.31 606.08 341.41 605.81 345.48 605.13 349.54 604.95 353.65 605.76 357.71 605.97 361.81 607 365.78 608.14 369.69 608.9 373.75 611.01 377.29"/><polyline class="cls-2" points="589.93 337.99 589.27 342.03 588.54 346.04 587.84 350.07 587.09 354.12 586.77 358.23 587.25 362.33 587.23 366.44 587.42 370.57 588.82 374.5 589.91 378.44 590.8 382.47 592.63 386.16"/><polyline class="cls-2" points="571.58 346.59 571.08 350.68 569.85 354.62 569.59 358.73 569.7 362.85 568.88 366.92 569 371.02 569.2 375.13 569.74 379.21 570.42 383.27 571.61 387.21 572.63 391.22 574.46 394.93"/><polyline class="cls-2" points="553.42 355.23 552.68 359.29 552.14 363.36 552.09 367.48 551.33 371.51 551.04 375.61 551.47 379.7 551.46 383.8 552.01 387.86 552.48 391.94 553.53 395.92 555.41 399.59 556.77 403.45"/><polyline class="cls-2" points="536.03 364.1 534.96 368.04 534.46 372.1 534.04 376.16 533.37 380.2 533.18 384.3 533.5 388.38 533.75 392.46 533.87 396.56 534.92 400.53 535.17 404.71 536.49 408.64 538.54 412.24"/><polygon points="669.61 306.27 666.93 309.09 663.25 311.3 660.04 314.03 657.36 317.43 653.69 319.6 650.33 322.16 647.14 324.95 643.4 327 640.39 330.06 636.93 332.5 633.22 334.56 629.5 336.58 626.11 339.14 622.69 341.64 618.82 343.41 615.37 345.89 611.33 347.32 607.76 349.6 604.31 352.11 600.17 353.32 596.67 355.77 592.8 357.5 588.74 358.78 584.88 360.5 581.29 362.86 577.11 363.84 573.3 365.69 569.21 366.83 565.24 368.25 561.45 370.25 557.37 371.36 553.38 372.78 549.34 374.07 545.29 375.32 541.21 376.44 537.05 377.27 532.94 378.32 528.82 379.3 524.67 380.2 520.4 380.39 516.57 381.18 517.31 385.34 518.59 389.43 520.23 393.4 521.77 397.41 523.11 401.49 524.23 405.64 525.88 409.37 529.85 409.34 534.02 408.88 538.22 408.76 542.32 407.54 546.43 407.16 550.36 405.77 554.08 403.78 558.17 402.63 561.88 400.57 566.03 399.56 569.62 397.26 573.51 395.65 577.35 393.93 581.25 392.32 585.36 391.21 589.07 389.18 593.1 387.88 596.91 386.07 600.59 383.97 604.52 382.43 608.36 380.7 612.23 379.02 616.18 377.52 620.2 376.1 623.45 373.09 627.37 371.23 631.06 368.98 634.71 366.68 638.38 364.4 642.18 362.34 646.01 360.31 649.35 357.5 653.3 355.67 656.59 352.77 660.7 351.21 663.96 348.27 667.97 346.52 671.82 344.4 673.95 340.79 677.06 338.16 679.78 335.18 681.97 332.08 679.83 327.82 678.46 322.93 676.25 319.56 674.33 316.04 673.14 312.17 671.36 309.14 669.61 306.27"/><polygon class="cls-2" points="669.61 306.27 666.93 309.09 663.25 311.3 660.04 314.03 657.36 317.43 653.69 319.6 650.33 322.16 647.14 324.95 643.4 327 640.39 330.06 636.93 332.5 633.22 334.56 629.5 336.58 626.11 339.14 622.69 341.64 618.82 343.41 615.37 345.89 611.33 347.32 607.76 349.6 604.31 352.11 600.17 353.32 596.67 355.77 592.8 357.5 588.74 358.78 584.88 360.5 581.29 362.86 577.11 363.84 573.3 365.69 569.21 366.83 565.24 368.25 561.45 370.25 557.37 371.36 553.38 372.78 549.34 374.07 545.29 375.32 541.21 376.44 537.05 377.27 532.94 378.32 528.82 379.3 524.67 380.2 520.4 380.39 516.57 381.18 517.31 385.34 518.59 389.43 520.23 393.4 521.77 397.41 523.11 401.49 524.23 405.64 525.88 409.37 529.85 409.34 534.02 408.88 538.22 408.76 542.32 407.54 546.43 407.16 550.36 405.77 554.08 403.78 558.17 402.63 561.88 400.57 566.03 399.56 569.62 397.26 573.51 395.65 577.35 393.93 581.25 392.32 585.36 391.21 589.07 389.18 593.1 387.88 596.91 386.07 600.59 383.97 604.52 382.43 608.36 380.7 612.23 379.02 616.18 377.52 620.2 376.1 623.45 373.09 627.37 371.23 631.06 368.98 634.71 366.68 638.38 364.4 642.18 362.34 646.01 360.31 649.35 357.5 653.3 355.67 656.59 352.77 660.7 351.21 663.96 348.27 667.97 346.52 671.82 344.4 673.95 340.79 677.06 338.16 679.78 335.18 681.97 332.08 679.83 327.82 678.46 322.93 676.25 319.56 674.33 316.04 673.14 312.17 671.36 309.14 669.61 306.27"/><polyline class="cls-2" points="533.28 451.56 532.8 447.43 532.27 443.28 530.87 439.33 529.73 435.33 528.46 431.37 527.58 427.28 525.93 423.45 524.75 419.45 523.21 415.58 521.47 411.8 520.31 407.76 518.39 404.05 516.85 400.17 515.1 396.38 513.07 392.73 510.68 389.29 508.85 385.54 506.42 382.14 504.54 378.41 502.38 374.84 499.62 371.68 497.63 367.99 494.98 364.77 492.28 361.6 489.69 358.35 487.15 355.05"/><polyline class="cls-2" points="524.38 418.86 520.1 419.59 516.15 421.18 512.48 423.47 508.24 424.3 504.53 426.48 500.35 427.46 496.54 429.41 492.55 430.87 488.65 432.58 484.76 434.31 480.74 435.72 476.49 436.52 472.57 438.15 468.62 439.7 464.79 441.58 460.8 443.05 457.05 445.12 452.98 446.38 448.98 447.85 445.15 449.72 441.07 450.98 436.97 452.14 433.07 453.86 429.22 455.68 425.18 457.02 421.19 458.5 417.19 459.94 413.29 461.65 409.17 462.79 405.38 464.77 401.29 466.01 397.3 467.48 393.37 469.11 389.46 470.8 385.49 472.31 381.73 474.4 377.57 475.43 373.51 476.75 369.62 478.47 365.89 480.63 361.83 481.92 357.95 483.68 353.86 484.91 349.84 486.31 345.77 487.58 342.12 489.92 337.99 491.05 334.09 492.77 329.94 493.85 326.28 496.17 322.1 497.15 318.26 499.05 314.17 500.28 310.36 502.21 306.14 503.12 302.3 505 298.33 506.55 294.33 508.31 293.33 505.57 296.54 502.95 300.41 501.16 304.17 499.16 307.59 496.58 311.23 494.38 315.25 492.85 318.7 490.34 322.42 488.28 326 485.99 329.6 483.72 333.64 482.2 337.29 480.04 340.66 477.37 344.29 475.16 348.42 473.81 351.65 470.91 355.32 468.77 359.38 467.29 363.03 465.1 366.52 462.64 370.42 460.89 373.92 458.47 377.85 456.76 381.07 453.84 384.8 451.78 388.75 450.13 392.55 448.2 395.77 445.28 399.43 443.1 403.36 441.4 407.25 439.64 410.67 437.06 414.24 434.72 417.92 432.6 421.82 430.83 425.61 428.88 428.92 426.1 433.01 424.68 436.26 421.8 439.96 419.7 443.9 418 447.5 415.73 450.97 413.24 454.62 411.04 458.74 409.66 462.28 407.3 465.73 404.77 469.33 402.48 473.2 400.68 476.82 398.42 480.83 396.86 484.15 394.09 488.17 392.52 491.51 389.8 495.13 387.55 499.12 385.94 502.63 383.48 506.54 381.72"/><polygon points="397.89 444.63 401.87 443.86 405.9 443.25 409.99 442.95 413.88 441.53 417.98 441.35 422.03 440.85 425.92 439.39 429.93 438.67 434.07 438.65 438.16 437.7 434.98 440.38 431.91 443.02 428.71 445.5 425.79 448.32 422.72 450.95 419.58 453.51 416.39 456.02 413.24 458.56 410.14 461.18 407.36 464.23 403.32 465.58 399.12 466.4 395.17 467.91 391.28 469.64 387.34 471.2 383.16 472.07 379.2 473.58 375.18 474.91 371.16 476.2 367.08 477.36 363.27 479.31 359.15 480.33 355.25 482.03 351.26 483.43 347.1 484.36 343.26 486.23 339.21 487.5 335.09 488.53 331.11 489.98 327.06 491.25 322.98 492.43 319.31 494.11 322.69 491.97 326.27 489.72 329.66 487.16 333.36 485.09 336.81 482.64 340.74 480.94 344.16 478.44 347.96 476.52 351.08 473.55 355.04 471.91 358.41 469.32 361.83 466.81 365.87 465.28 369.2 462.62 372.78 460.37 376.12 457.72 379.9 455.79 383.68 453.83 386.92 451.05 390.92 449.45 394.51 447.2 397.89 444.63"/><polygon class="cls-2" points="397.89 444.63 401.87 443.86 405.9 443.25 409.99 442.95 413.88 441.53 417.98 441.35 422.03 440.85 425.92 439.39 429.93 438.67 434.07 438.65 438.16 437.7 434.98 440.38 431.91 443.02 428.71 445.5 425.79 448.32 422.72 450.95 419.58 453.51 416.39 456.02 413.24 458.56 410.14 461.18 407.36 464.23 403.32 465.58 399.12 466.4 395.17 467.91 391.28 469.64 387.34 471.2 383.16 472.07 379.2 473.58 375.18 474.91 371.16 476.2 367.08 477.36 363.27 479.31 359.15 480.33 355.25 482.03 351.26 483.43 347.1 484.36 343.26 486.23 339.21 487.5 335.09 488.53 331.11 489.98 327.06 491.25 322.98 492.43 319.31 494.11 322.69 491.97 326.27 489.72 329.66 487.16 333.36 485.09 336.81 482.64 340.74 480.94 344.16 478.44 347.96 476.52 351.08 473.55 355.04 471.91 358.41 469.32 361.83 466.81 365.87 465.28 369.2 462.62 372.78 460.37 376.12 457.72 379.9 455.79 383.68 453.83 386.92 451.05 390.92 449.45 394.51 447.2 397.89 444.63"/><polyline class="cls-2" points="437.88 437.4 441.9 436.19 445.65 434.43 449.32 432.5 452.88 430.36 456.67 428.69 460.44 426.97 464.29 425.42 468.11 423.81 471.63 421.58 475.25 419.55 478.96 417.72 482.82 416.19 486.74 414.78 490.32 412.66 493.91 410.57 497.88 409.25 501.47 407.17 505.26 405.49 509.02 403.74 512.48 401.34 516.62 400.38"/><polygon class="cls-5" points="468.97 397.44 466.05 400.49 462.32 402.51 458.88 404.96 455.17 407.01 451.81 409.58 448.25 411.86 445.09 414.72 441.3 416.65 438.02 419.36 434.4 421.55 430.6 423.46 427.44 426.33 423.91 428.66 420.18 430.67 416.72 433.11 413.23 435.49 410.04 438.32 406.13 440.08 403.12 443.16 399.56 445.45 395.88 447.56 392.06 449.45 388.77 452.12 385.17 454.34 381.58 456.56 378.42 459.44 374.8 461.63 371.21 463.87 367.87 466.47 364.56 469.12 361.07 471.51 357.18 473.32 353.73 475.75 350.44 478.44 346.82 480.64 343.44 483.2 339.61 485.09 336.32 487.81 332.1 487.89 327.89 487.77 323.69 487.58 319.48 488.11 315.28 487.69 311.07 487.8 306.87 487.44 302.66 487.56 298.46 487.52 294.26 487.87 290.06 487.92 285.86 487.14 281.64 488.01 277.44 487.1 273.24 487.07 269.04 487 264.83 487.84 260.62 487.8 256.42 487.29 252.21 487.5 248 487.85 243.8 487.76 239.59 487.58 235.39 486.94 231.18 487.56 226.97 487.39 222.77 486.82 218.56 487.52 214.35 486.98 210.15 486.8 205.93 487.44 201.73 487.06 197.52 487.42 193.31 487.39 189.1 487.4 184.89 487.08 180.69 486.64 176.47 486.9 172.26 486.85 168.06 486.56 163.85 486.69 159.65 486.49 155.44 486.47 151.22 487.29 147.02 486.89 142.8 486.95 138.59 486.81 134.38 486.88 130.17 486.38 125.96 486.43 121.75 486.53 117.53 486.34 113.47 486.67 115.02 482.88 116.63 478.94 118.76 475.24 120.09 471.17 122.49 467.59 123.51 463.38 125.97 459.83 127.16 455.7 129.63 452.16 130.65 447.95 133 444.36 134.93 440.56 136.71 436.7 137.92 432.57 139.79 428.75 142.05 425.12 143.35 421.03 145.06 417.14 147.17 413.43 148.87 409.52 150.82 405.74 152.73 401.94 153.88 397.79 155.94 394.05 157.68 390.16 159.55 386.34 160.82 382.24 162.63 378.39 164.62 374.62 166.42 370.77 168.2 366.9 170.21 363.14 172.19 359.37 173.81 355.43 175.4 351.47 176.95 347.5 179.04 343.77 180.48 339.75 182.69 336.08 184.32 332.16 186.07 328.27 187.7 324.34 189.26 320.37 191.73 316.82 193.47 312.94 194.65 308.79 196.76 305.07 198.8 301.32 200.36 297.35 202.58 293.69 203.48 289.41 205.56 285.67 207.56 281.99 211.71 281.67 215.91 282.54 220.15 282.48 224.38 282.55 228.6 282.75 232.83 282.9 237.06 282.9 241.31 282.38 245.54 282.73 249.77 282.67 253.98 283.34 258.22 283.23 262.45 283.29 266.69 283.15 270.92 283.31 275.14 283.79 279.36 284.29 283.58 284.42 287.82 284.33 292.04 284.69 296.28 284.6 300.5 284.9 304.73 285.28 308.96 285.3 313.2 284.91 317.42 285.68 321.65 285.68 325.9 285.17 330.11 286.03 334.36 285.42 338.59 285.41 342.81 285.85 347.04 285.87 351.27 286.05 355.48 286.7 359.7 286.73 363.94 286.59 368.17 286.89 372.41 286.66 376.64 286.64 380.86 287.15 385.07 287.54 389.31 287.27 393.56 287.05 397.77 287.68 401.99 288.08 406.23 288.12 410.45 288.32 414.7 287.91 418.93 288.09 423.14 288.77 427.4 288.08 431.63 288.21 435.85 288.82 440.08 289.06 444.31 289.08 448.54 289.25 452.79 289.08 457.01 289.28 461.24 289.56 465.46 290.06 469.72 289.37 473.93 290.38 478.19 289.62 482.4 290.38 486.63 290.54 490.87 290.27 495.11 290.43 499.33 290.98 503.57 290.67 507.79 291.42 512.04 290.98 516.28 291.15 520.51 291.42 524.74 291.6 528.97 292.08 533.23 291.75 537.79 291.68 535.01 295.26 532.78 298.81 530.84 302.55 528.2 305.85 525.79 309.29 523.89 313.06 521.5 316.5 518.89 319.82 517.09 323.65 514.62 327.05 512.46 330.66 509.88 333.98 508.17 337.88 505.76 341.32 503.73 345 501.45 348.53 498.85 351.84 496.8 355.51 494.72 359.17 491.99 362.4 489.79 365.98 487.84 369.72 485.48 373.19 483.24 376.75 480.36 379.88 478.17 383.47 476.41 387.33 473.84 390.68 471.46 394.14 468.97 397.44"/></svg>