<svg xmlns="http://www.w3.org/2000/svg" viewBox="0 0 800 800"><defs><style>.a{fill:#fca14f}.b{fill:#fff}.c{fill:#e83131}</style></defs><path d="M373.85 502.85c1.89.3 3.77.66 5.67.9q4.58.57 9.16 1 5.77.54 11.56.95c3.41.23 6.83.58 10.23.49 4.18-.11 8.36-.56 12.52-1s8.6-1.08 12.9-1.64a9.33 9.33 0 0 0 1.17-.24c4.61-1.3 9.23-2.55 13.83-3.91a95.58 95.58 0 0 0 11.84-3.82c3.39-1.51 7-2.71 9.95-5.22 1.84-1.56 4.21-2.47 6.29-3.76 2.29-1.41 4.61-2.8 6.75-4.41 3.51-2.66 6.9-5.5 10.34-8.26 3.24-2.59 6.53-5.11 9.69-7.78 2.57-2.17 5-4.47 7.45-6.8 3.82-3.68 7.75-7.25 11.27-11.2 4.13-4.65 8-9.54 11.72-14.54 2.12-2.87 3.6-6.2 5.43-9.28 2.3-3.85 4.72-7.63 7-11.49a47.49 47.49 0 0 0 2.09-4.45c2-4.41 4.06-8.81 6-13.23s4.2-9 6-13.63c1.22-3.16 1.87-6.53 2.81-9.8.28-1 .84-1.89 1-2.87 1-5 2-10 3-14.93.46-2.35 1-4.69 1.36-7.06.36-2.7.51-5.43.73-8.15.32-4.24.9-8.48.88-12.71a152.23 152.23 0 0 0-1.76-25.58c-1-5.57-1.68-11.19-2.6-16.78-.67-4.11-1.41-8.21-2.26-12.28-1-4.62-1.94-9.25-3.16-13.82-1.67-6.29-3.53-12.53-5.37-18.77a52.53 52.53 0 0 0-2.75-8.25c-3-6.19-4.39-13-7.1-19.25-1.52-3.5-2.52-7.22-3.9-10.79-1.59-4.15-3.22-8.29-5.06-12.34-2.09-4.61-4.41-9.13-6.68-13.66-.81-1.62-1.73-3.18-2.69-4.71a3.14 3.14 0 0 1 .72-4.15 42.7 42.7 0 0 1 10.14-7.46c3.86-2 7.68-4 11.58-5.9a15.07 15.07 0 0 1 4.73-1.49 19.52 19.52 0 0 1 10.36 1.81c4.7 2.13 7.93 5.77 10.77 9.9 2.35 3.42 4.34 7.22 7.25 10.08 3.74 3.69 5.5 8.49 8.36 12.64 1.56 2.27 2.44 5 3.65 7.53.78 1.64 1.6 3.27 2.41 4.9 2 4 3.91 7.91 5.9 11.85 1.31 2.58 2.78 5.09 4 7.7 2.65 5.5 5.31 11 7.8 16.59 2 4.48 4 9 5.59 13.62 2.39 6.73 4.47 13.57 6.71 20.35 1 3 2.32 6 3.12 9.08 2.64 10.25 4.83 20.59 5.31 31.23.14 3 .85 6 1 9 .47 7.7.83 15.42 1.13 23.13q.25 6.42.15 12.85c-.07 4.05-.31 8.09-.59 12.13-.4 5.86-.71 11.74-1.42 17.56-.76 6.35-1.93 12.65-2.93 19-.48 3.05-.93 6.09-1.48 9.12-.52 2.87-1 5.75-1.79 8.55-1 3.5-2.33 6.9-3.41 10.38-.71 2.28-1.19 4.63-1.82 6.94q-1.62 6.28-3.4 12.65c-1 3.27-1.9 6.56-3 9.78a22.32 22.32 0 0 1-1.82 3c-2.18 4.08-4.25 8.21-6.47 12.25-3.85 7-7.64 14-11.72 20.86-1.8 3-4.24 5.67-6.39 8.49a29.18 29.18 0 0 0-1.88 2.43c-3.76 6.12-9.33 10.74-13.61 16.46-2.34 3.12-5.42 5.71-8.25 8.45-3 2.89-6 5.81-9.14 8.48-2.69 2.28-5.65 4.25-8.52 6.3-3.47 2.49-6.94 5-10.47 7.36s-6.92 4.41-10.3 6.73c-2.85 2-5.43 4.34-8.39 6.11-7.13 4.28-14.42 8.32-21.64 12.45-4.45 2.54-8.92 5.07-13.36 7.63-3.26 1.88-6.57 3.69-9.71 5.77-2.73 1.81-5.25 4-7.88 5.93-1.56 1.16-3.18 2.22-4.74 3.38-2.93 2.18-5.81 4.42-8.76 6.57s-6.26 4.37-9.33 6.63c-1.41 1-2.6 2.38-4 3.47-2.86 2.26-5.88 4.34-8.64 6.71-3.51 3-6.88 6.15-10.21 9.33q-5.92 5.64-11.66 11.47c-1.41 1.44-2.54 3.16-3.81 4.75a11.17 11.17 0 0 1-1.6 1.93 2 2 0 0 1-3.34-.52 40.93 40.93 0 0 0-7.31-9.15c-2.53-2.27-5.08-4.52-7.67-6.7q-3.54-3-7.21-5.8c-4.17-3.19-8.32-6.4-12.58-9.46-5.71-4.09-11.4-8.22-17.29-12s-12.3-7.46-18.45-11.2c-3.59-2.2-7.05-4.61-10.67-6.75-4.76-2.81-9.61-5.46-14.43-8.16-5.62-3.15-11.27-6.26-16.89-9.42-4.51-2.55-9.15-4.93-13.47-7.78a158.84 158.84 0 0 1-14-10.35c-5.56-4.63-10.89-9.55-16.16-14.52a109.72 109.72 0 0 1-7.66-8.31c-4-4.57-7.93-9.16-11.7-13.88-2.75-3.44-5.3-7-7.73-10.69-3.33-5-6.69-10-9.62-15.21-3.67-6.52-6.95-13.27-10.35-19.95-2.35-4.63-4.79-9.23-6.87-14a130.06 130.06 0 0 1-7.12-20.73c-2.37-9.53-4.85-19-6.91-28.64-1-4.45-1.05-9.09-1.56-13.64s-1.21-8.84-1.54-13.27-.45-9-.45-13.5c0-5.67 0-11.35.33-17 .46-7.81.24-15.65 1.51-23.44.91-5.63 1-11.39 1.68-17s1.81-11.53 2.75-17.3c.66-4.1 1.25-8.22 2.05-12.3.52-2.66 1.41-5.26 2-7.91.53-2.27.79-4.62 1.4-6.88 1.42-5.29 3-10.54 4.48-15.82 1.44-5.11 2.7-10.29 4.36-15.34 1.3-4 3.15-7.72 4.67-11.6 1.62-4.14 3-8.35 4.74-12.45 1.33-3.21 3-6.27 4.44-9.43 1.35-3 2.93-5.85 3.66-9.17.56-2.47 2.29-4.69 3.57-7s2.58-4.29 3.78-6.48q3.19-5.85 6.26-11.76c1.44-2.77 2.79-5.59 4.2-8.38a4.13 4.13 0 0 1 .76-1.08c1.79-1.77 3.52-3.61 5.42-5.25 3.37-2.89 7.11-5.32 11.66-5.58a15.51 15.51 0 0 1 6.31 1.21 95.91 95.91 0 0 1 10.25 4.75c3.05 1.63 5.94 3.55 8.87 5.39 1.78 1.12 3.39 2.5 5.25 3.45 2.14 1.09 3.2 3 4.39 4.89a3.18 3.18 0 0 1 0 2.53c-1.92 4.51-3.95 9-6 13.43-.48 1-1.2 1.95-1.69 3-1.67 3.48-3.27 7-5 10.47-.82 1.68-1.83 3.28-2.64 5q-1.71 3.54-3.24 7.17c-.58 1.35-1 2.78-1.46 4.17-1.4 4-2.76 8.1-4.2 12.12a235.13 235.13 0 0 0-8.69 33.32c-1 4.87-2.18 9.7-2.9 14.6-.86 5.82-1.31 11.7-1.9 17.56-.12 1.13 0 2.28-.12 3.41-.19 2.26-.51 4.52-.65 6.79-.34 5.64-.79 11.28-.89 16.92-.12 6.56-.09 13.13.21 19.69.18 4.07 1 8.12 1.51 12.18a27.12 27.12 0 0 1 .26 3.6c-.09 7.33 1.48 14.46 2.83 21.59a155.32 155.32 0 0 0 4.82 18.72c2 6.4 4.57 12.67 7.16 18.89a166.4 166.4 0 0 0 7.64 16.48 125.91 125.91 0 0 0 9.58 14.55c3.55 4.74 7.47 9.22 11.44 13.62 2.55 2.84 5.47 5.34 8.24 8 2.48 2.35 4.93 4.74 7.49 7a50.06 50.06 0 0 0 5.55 4.29c4.48 2.93 9 5.83 13.6 8.54 3.66 2.14 7.46 4.07 11.27 5.93 4.72 2.29 9.46 4.54 14.29 6.57 2.5 1.06 5.23 1.56 7.84 2.37 1.42.43 2.77 1.1 4.21 1.46 3.2.81 6.43 1.49 9.65 2.23zM249 246.14c-.17-1.47-.29-2.95-.54-4.4-1.07-6.19-1.89-12.44-3.35-18.54-1.09-4.56-4.22-8.1-7.55-11.34-.69-.67-1.39-1.33-2.12-1.94-1.79-1.5-3.62-2.95-5.38-4.48-.7-.62-1.13-1.67-1.91-2.07a8.73 8.73 0 0 1-3.52-3.83c-1.09-1.92-2.27-3.79-3.36-5.71-.52-.92-.81-.52-1.09.1-.63 1.41-1.12 2.88-1.86 4.23a230.18 230.18 0 0 0-10.34 22.39 2.94 2.94 0 0 0 .08 2.86 34 34 0 0 1 2.4 5.46c.71 2.15 1.14 4.4 1.71 6.59.89 3.43 1.89 6.82 2.68 10.26a86.68 86.68 0 0 1 2.25 21 134.64 134.64 0 0 1-1.16 17.4 187.56 187.56 0 0 1-4.32 19.53 93.21 93.21 0 0 1-4.47 12.76c-1.12 2.59-2.34 4.85.13 7.22a.46.46 0 0 1 .07.16c1.77 4.13 3.64 8.22 5.27 12.41 2 5.1 4 10.23 5.59 15.44S221 362 222.3 367.26c.7 2.82 1.25 5.69 1.72 8.56.93 5.69 2 11.37 2.57 17.1.63 6.54.92 13.14 1 19.71.08 4.91-.39 9.81-.55 14.72a3.17 3.17 0 0 0 .54 2c2.26 2.55 4.52 5 6 8.18 1.71 3.57 3.88 6.91 5.85 10.35 1 1.67 2 3.31 2.9 5 .57 1.11.9 2.35 1.4 3.5 1.16 2.65 2.34 5.3 3.55 7.93.57 1.23 1.3 2.4 1.81 3.66 1 2.48 1.91 5 2.82 7.5 1.34 3.71 2.89 7.37 3.91 11.18 1.37 5.12 2.47 10.34 3.42 15.56a143.05 143.05 0 0 1 2.24 25.63 44.55 44.55 0 0 1-2.15 14.87c-.15.42.3 1.26.71 1.64 1.81 1.65 3.68 3.24 5.59 4.78 2.76 2.23 5.54 4.42 8.37 6.55a2.39 2.39 0 0 0 1.92.49c4-1.67 8-3.6 12-5.21 4.77-1.89 9.6-3.68 14.48-5.28 7.77-2.54 15.5-5.35 23.44-7.2 9.79-2.28 19.77-3.8 29.7-5.44q9.23-1.53 18.54-2.4c5.45-.51 10.93-.78 16.41-.81 6 0 12.08.29 18.11.55q11.07.46 22.12 1.12c3.36.2 6.74.42 10.05 1 4.05.65 8 1.69 12.05 2.49 4.36.86 8.75 1.56 13.09 2.48 4.57 1 9.16 1.9 13.63 3.2 5.7 1.65 11.27 3.67 16.92 5.47 4.13 1.31 8.36 2.31 12.42 3.79 5.68 2.07 11.24 4.46 16.86 6.69a1.36 1.36 0 0 0 1.07 0c2.09-1.38 4.17-2.8 6.22-4.24 2.51-1.77 5-3.63 7.51-5.35 3-2 6-3.89 9-5.87.38-.25.87-.77.86-1.15-.11-2.32-.54-4.63-.52-7 0-4.76.05-9.55.51-14.29a125.35 125.35 0 0 1 2.19-13.46c.91-4.35 2.16-8.62 3.24-12.94a88.91 88.91 0 0 1 6.75-17.72c2.36-4.82 4.65-9.68 7.25-14.36a80 80 0 0 1 6.89-10.61c2.68-3.39 5.92-6.33 8.84-9.53a6 6 0 0 0 1.77-2.9 34.53 34.53 0 0 0-.22-6c-.55-7.81-1.3-15.62-.53-23.47.63-6.41 1.16-12.84 1.79-19.25a107.25 107.25 0 0 1 4.76-21.7c1.44-4.57 3.07-9.1 4.92-13.52 2.78-6.61 5.83-13.1 8.72-19.67a2.35 2.35 0 0 0 .09-1.93c-3-3.83-4.44-8.35-5.75-12.91-1-3.51-1.67-7.13-2.77-10.61a44.6 44.6 0 0 1-2.56-14.43c.1-5.94-.34-11.91.07-17.83a149.31 149.31 0 0 1 2.5-18.71 84.55 84.55 0 0 1 4.23-14.12c1.77-4.57 4.21-8.88 6.25-13.35a3.31 3.31 0 0 0-.12-2.33c-.81-2-1.79-4-2.71-5.93-1.24-2.68-2.4-5.41-3.73-8.05-1.72-3.4-3.57-6.74-5.38-10.1-.77-1.46-1.57-2.9-2.35-4.35-.28-.54-.52-1.1-.77-1.65-.35.5-.92 1-1 1.51-.65 3.82-3.45 6.28-5.89 8.8a44.11 44.11 0 0 1-7.91 6.19 30.19 30.19 0 0 0-10.56 11.57 43.38 43.38 0 0 0-2.18 5.77c-1.09 3-1.79 6-1 9.36.49 2 .21 4.16.34 6.24a55.3 55.3 0 0 0 .63 7.3c.95 4.65 2.32 9.21 3.29 13.85 1.5 7.13 2.84 14.3 4.18 21.47.54 2.84 1 5.72 1.33 8.59.58 4.45 1.11 8.92 1.59 13.38.41 3.8 1.14 7.63 1 11.42-.17 4.18.15 8.37-.71 12.58-1.23 6-1.75 12.06-2.68 18.09-.53 3.38-1.14 6.76-1.95 10.09-1.2 4.9-2.49 9.8-4 14.62-1.13 3.65-2.54 7.22-4 10.76-1.22 3-2.69 5.92-4 8.91-2 4.66-3.74 9.46-6 14-2.12 4.2-4.79 8.12-7.24 12.16-.65 1.07-1.41 2.08-2 3.16-1.83 3.09-3.4 6.36-5.48 9.27-3.53 4.93-7.37 9.63-11.08 14.43a7.63 7.63 0 0 1-.66 1c-2.45 2.35-5 4.64-7.37 7-.92.91-1.49 2.18-2.45 3-2.68 2.38-5.49 4.62-8.22 6.95-1.69 1.44-3.39 2.89-5 4.44-4 3.88-9.35 6-13 10.26a2.24 2.24 0 0 1-.54.42q-8.42 5.35-16.83 10.72a20.7 20.7 0 0 1-2.82 2c-6.81 2.81-13.57 5.74-20.52 8.18a85.47 85.47 0 0 1-12.83 3c-4.51.84-9.07 1.43-13.62 2a104.57 104.57 0 0 1-10.58.89c-4.67.08-9.35-.09-14-.3-4.94-.23-9.87-.63-14.8-1-1.07-.08-2.14-.3-3.2-.47-7.6-1.22-15.33-1.7-22.66-4.38-2.21-.81-4.62-1.09-6.87-1.83-2-.68-4-1.68-5.95-2.53s-3.92-1.53-5.8-2.46c-3.4-1.69-6.75-3.47-10.1-5.26-3.17-1.7-6.41-3.29-9.41-5.26-4.8-3.14-9.47-6.49-14.11-9.86-2.84-2.06-5.62-4.23-8.27-6.53-2.19-1.9-4.11-4.1-6.22-6.09-6.39-6-11.64-13-17.13-19.76a73.84 73.84 0 0 1-5.29-8.4c-2.42-4-5.14-7.88-7.09-12.11-3.37-7.31-6.26-14.84-9.33-22.28a34.64 34.64 0 0 1-1.53-4c-1.23-4.39-2.35-8.81-3.55-13.21-1.29-4.72-2.82-9.36-3.28-14.3-.3-3.11-1.61-6.16-1.7-9.25-.16-6-1.33-11.78-1.86-17.68q-.57-6.31-.72-12.65c-.11-5.13-.08-10.26 0-15.38.06-3.15.39-6.29.58-9.43.38-6 .47-12.12 1.19-18.13 1.09-9 2.62-18 4-27 .89-4.91 2.94-9.75 2.1-14.98zm106.5 307.59v-.13c-.51.07-1 .1-1.52.2-5.72 1.08-11.46 2.07-17.15 3.28-6 1.27-11.9 2.65-17.8 4.18-3.53.92-7 2.16-10.41 3.36-3.8 1.33-7.56 2.78-11.34 4.17l-.4.16.44.26c1.26.77 2.51 1.56 3.79 2.31 4.41 2.61 8.8 5.25 13.25 7.78 1.09.62 2.41 1.28 3.45-.32.17-.26.7-.32 1.08-.43 4.09-1.12 8.17-2.26 12.26-3.34 5.19-1.38 10.33-3 15.59-4 7.34-1.38 14.74-2.45 22.16-3.34 5.32-.65 10.7-.89 16.07-1.15 6-.3 12.07-.57 18.11-.57 5.4 0 10.81.39 16.21.62 2.83.11 5.67.14 8.49.4 3.71.33 7.41.78 11.09 1.31a142 142 0 0 1 24.26 5.32c3.79 1.25 7.62 2.37 11.39 3.68 2.25.79 4.42 1.83 6.62 2.77s4.13 1.29 6.32 0c2.87-1.75 5.91-3.22 8.86-4.83 2.45-1.34 4.89-2.68 7.3-4.08a7.36 7.36 0 0 0 1.29-1.27c-.44-.22-.86-.48-1.31-.66-3.12-1.24-6.36-2.27-9.36-3.75-4.54-2.24-9.4-3.42-14.21-4.78-2.52-.72-5.1-1.18-7.65-1.78-1.33-.31-2.64-.7-4-1-3.26-.81-6.52-1.64-9.8-2.37-1.44-.32-2.93-.39-4.39-.63-2.63-.45-5.24-1-7.88-1.4-5.25-.81-10.5-1.6-15.77-2.28-3.67-.48-7.36-.8-11-1.1-1.86-.15-3.74-.09-5.61-.17-3.48-.15-7-.44-10.44-.47-3.65 0-7.3.11-10.95.24-2.68.11-5.35.26-8 .5-3.81.35-7.61.81-11.42 1.21s-7.71.79-11.56 1.24c-2.09.19-4.09.55-6.1.86zm261.43-226.35a10.46 10.46 0 0 0-1.06 1.34c-2.18 3.93-4.41 7.84-6.47 11.84-1.06 2.05-1.77 4.29-2.72 6.4-1.22 2.7-2.68 5.31-3.76 8.07-1.46 3.72-2.76 7.51-3.93 11.33-2 6.44-4.09 12.83-4.66 19.64-.5 6-1.62 12-2.08 18.07a148 148 0 0 0-.22 15.19c.15 5.77.46 11.54 1 17.28.53 5.4 1.38 10.77 2.28 16.12.6 3.59 1.52 7.13 2.3 10.68.43 2 .8 3.92 1.36 5.83.45 1.51 1.21 2.93 1.73 4.43.62 1.78 1.11 3.61 1.71 5.4.11.33.47.58.71.87a3.86 3.86 0 0 0 .65-.76c1.61-3.19 3.21-6.4 4.8-9.6.41-.82.66-1.52-.46-2.13a3.59 3.59 0 0 1-1.3-1.73 69.17 69.17 0 0 1-4.81-19.37c-.74-6.57-1.66-13.12-2.37-19.69a93.75 93.75 0 0 1-.59-9.9c0-3.64.33-7.28.44-10.92.1-3.42-.21-6.87.21-10.25.9-7.42 2-14.83 3.33-22.18.93-5 2.54-9.81 3.77-14.72a187.17 187.17 0 0 1 7.39-23c1-2.49 1.84-5 2.75-7.53a3.82 3.82 0 0 0 0-.71zM219.86 432.27h-.19v3.43c0 .19.2.38.31.57.14-.2.36-.39.39-.61.34-2.72.75-5.44 1-8.17.25-3.42.42-6.85.47-10.27.05-3.14-.08-6.27-.18-9.41-.07-2.27-.18-4.55-.31-6.83-.17-2.72-.28-5.46-.59-8.17-.35-3.05-.91-6.08-1.36-9.13-.48-3.21-.7-6.47-1.45-9.62-1.62-6.82-3.32-13.63-5.35-20.34-1.67-5.5-3.69-10.91-5.88-16.23s-4.67-10.27-7.08-15.37c-3.33-7.09-7.74-13.52-12.25-19.89a5.22 5.22 0 0 0-.66-.67 4.53 4.53 0 0 0-.35.9c-.38 2.38-.75 4.75-1.08 7.13-.27 1.95-1.18 4.12 1.61 5.14.21.07.29.48.44.72 2.56 4.18 5.24 8.29 7.64 12.56 2.1 3.72 4 7.57 5.76 11.47 1.51 3.37 2.74 6.88 4 10.36 1 2.73 2 5.47 2.78 8.25 1.13 3.94 2.13 7.93 3.13 11.9.84 3.31 1.67 6.62 2.36 10 .54 2.56.79 5.18 1.26 7.76 1.12 6.12 2.32 12.23 3.42 18.35.24 1.29.17 2.63.28 3.94q.92 11.12 1.88 22.23zm335.67 101.52h.24a16.81 16.81 0 0 0 0 1.88c0 .18.42.5.49.46a11.37 11.37 0 0 0 2.13-1.33c2.46-2.2 4.89-4.43 7.26-6.72a2.07 2.07 0 0 0 .36-1.53c-.36-3-1.21-6-1.1-8.94a130.9 130.9 0 0 1 1.51-14.07 112.2 112.2 0 0 1 2.36-12.54c1.73-6.57 3.79-13.06 5.82-19.54.9-2.87 2.12-5.64 3.12-8.49.73-2.06 1.34-4.17 2-6.27a2.57 2.57 0 0 0 0-.78c-.23.11-.56.17-.68.35-1.31 2.06-2.73 4.06-3.85 6.22-2.55 4.91-5.07 9.83-7.37 14.85-2 4.39-3.8 8.88-5.5 13.39a63.1 63.1 0 0 0-3.65 14.38c-.6 4.86-1.84 9.63-2.38 14.49-.55 4.72-.53 9.47-.76 14.19zm-301.42-22.37h-.13c.4 1 .8 2 1.18 3 .05.12-.06.3-.09.46a1.75 1.75 0 0 0 .07-.44c-.52-4.34-.8-8.73-1.66-13-1.06-5.23-2.57-10.38-4-15.53a54.94 54.94 0 0 0-2.06-5.81c-2.26-5.66-4.4-11.37-6.91-16.91-2.15-4.76-4.6-9.4-7.17-14-2.2-3.89-4.74-7.59-7.13-11.37a4.31 4.31 0 0 0-.39-.46 2.46 2.46 0 0 0-.27.6q-.51 3-1 5.92c-.15 1-.66 2.21-.3 3a23.69 23.69 0 0 0 2.88 4.17 62.09 62.09 0 0 1 4.66 6.05c2.32 4 4.41 8.12 6.42 12.27 2.3 4.76 4.45 9.6 6.57 14.45a42 42 0 0 1 1.6 4.87c.85 2.83 1.54 5.72 2.51 8.51 1.68 4.8 3.49 9.51 5.22 14.22zm-2.79-358.87c-2.91.33-6.57 1.36-8.21 4.48-.54 1-.55 1.25.62 1.55a26.86 26.86 0 0 1 5.1 1.8c3.24 1.59 6.44 3.26 9.55 5.09 2.69 1.58 5.28 3.33 7.82 5.15 2.95 2.12 5.82 4.36 8.67 6.61.72.57 1.12.88 1.61-.19 1.06-2.27 2.25-4.49 3.27-6.78a1.73 1.73 0 0 0-.37-1.57c-2.51-2.14-5-4.35-7.69-6.22a69.76 69.76 0 0 0-8.14-4.68c-2.72-1.38-5.57-2.51-8.37-3.72-1.27-.54-2.57-1.01-3.86-1.52zm309 3.67c-4.26.46-7.72.69-10.65 2.89-1 .78-2.22 1.39-3.33 2.09l-10 6.38a1.43 1.43 0 0 0-.49 2.18c1.19 2.18 2.26 4.43 3.43 6.62.5.93 1 1 2 .24 3.65-2.8 7.31-5.6 11.15-8.11a76.37 76.37 0 0 1 8.32-4.35c2.36-1.16 4.77-2.18 7.15-3.3.7-.34 1.53-.89.24-1.46-2.86-1.22-5.71-2.31-7.87-3.18zm41.09 140.18c.35 1.83.54 3.36.94 4.83 1.24 4.59 2.43 9.2 3.87 13.74 1.15 3.62 2.64 7.15 4 10.7a1 1 0 0 0 .79.13c1.26-1.76 2.52-3.54 3.67-5.38a1.78 1.78 0 0 0 0-1.48c-.6-1.13-1.41-2.15-2-3.26a55.14 55.14 0 0 1-6.76-23.45c-.13-1.65-.55-3.28-.64-4.93-.23-4.27-.34-8.56-.54-12.83-.14-3.12-.5-6.24-.48-9.36s.38-6.3.58-9.45a1.47 1.47 0 0 0-.13-.44c-.13.1-.31.18-.36.3a4.75 4.75 0 0 0-.23 1c-.65 4.69-1.32 9.38-1.91 14.08-.45 3.68-1 7.37-1.12 11.06-.09 5.01.19 10.03.32 14.74zM211.5 268.8c-.31-4.1-.42-8.05-1-11.94-.75-5.46-1.73-10.89-2.82-16.29-.6-2.95-1.62-5.83-2.48-8.73a7 7 0 0 0-.65-1.24 4.47 4.47 0 0 0-.83 1.15c-1.06 3.19-2 6.44-3.12 9.6-.91 2.49-1.41 4.8.89 6.83.16.14.19.41.3.61a44.49 44.49 0 0 1 4.27 10.4c.62 2.54 1.32 5.08 1.75 7.65.36 2.18.39 4.41.56 6.62.22 2.83.4 5.67.66 8.51a6.4 6.4 0 0 0 .57 1.56 4.56 4.56 0 0 0 .69-1.4c.47-4.48.83-8.97 1.21-13.33zm-50.18-44.02L160 223.7c.23-.15.51-.45.7-.41.76.18 1.5.46 2.25.71z"/><path class="a" d="M249 246.14c.88 5.23-1.17 10.07-1.92 15.06-1.34 9-2.87 18-4 27-.72 6-.81 12.09-1.19 18.13-.19 3.14-.52 6.28-.58 9.43-.1 5.12-.13 10.25 0 15.38q.15 6.33.72 12.65c.53 5.9 1.7 11.71 1.86 17.68.09 3.09 1.4 6.14 1.7 9.25.46 4.94 2 9.58 3.28 14.3 1.2 4.4 2.32 8.82 3.55 13.21a34.64 34.64 0 0 0 1.53 4c3.07 7.44 6 15 9.33 22.28 1.95 4.23 4.67 8.11 7.09 12.11a73.84 73.84 0 0 0 5.29 8.4c5.49 6.77 10.74 13.76 17.13 19.76 2.11 2 4 4.19 6.22 6.09 2.65 2.3 5.43 4.47 8.27 6.53 4.64 3.37 9.31 6.72 14.11 9.86 3 2 6.24 3.56 9.41 5.26 3.35 1.79 6.7 3.57 10.1 5.26 1.88.93 3.87 1.64 5.8 2.46s3.92 1.85 5.95 2.53c2.25.74 4.66 1 6.87 1.83 7.33 2.68 15.06 3.16 22.66 4.38 1.06.17 2.13.39 3.2.47 4.93.36 9.86.76 14.8 1 4.67.21 9.35.38 14 .3a104.57 104.57 0 0 0 10.58-.89c4.55-.56 9.11-1.15 13.62-2a85.47 85.47 0 0 0 12.83-3c7-2.44 13.71-5.37 20.52-8.18a20.7 20.7 0 0 0 2.82-2q8.4-5.39 16.83-10.72a2.24 2.24 0 0 0 .54-.42c3.63-4.3 9-6.38 13-10.26 1.58-1.55 3.28-3 5-4.44 2.73-2.33 5.54-4.57 8.22-6.95 1-.86 1.53-2.13 2.45-3 2.41-2.39 4.92-4.68 7.37-7a7.63 7.63 0 0 0 .66-1c3.71-4.8 7.55-9.5 11.08-14.43 2.08-2.91 3.65-6.18 5.48-9.27.63-1.08 1.39-2.09 2-3.16 2.45-4 5.12-8 7.24-12.16 2.27-4.53 4-9.33 6-14 1.29-3 2.76-5.9 4-8.91 1.44-3.54 2.85-7.11 4-10.76 1.48-4.82 2.77-9.72 4-14.62.81-3.33 1.42-6.71 1.95-10.09.93-6 1.45-12.13 2.68-18.09.86-4.21.54-8.4.71-12.58.16-3.79-.57-7.62-1-11.42-.48-4.46-1-8.93-1.59-13.38-.37-2.87-.79-5.75-1.33-8.59-1.34-7.17-2.68-14.34-4.18-21.47-1-4.64-2.34-9.2-3.29-13.85a55.3 55.3 0 0 1-.63-7.3c-.13-2.08.15-4.25-.34-6.24-.8-3.32-.1-6.33 1-9.36a43.38 43.38 0 0 1 2.18-5.77 30.19 30.19 0 0 1 10.56-11.57 44.11 44.11 0 0 0 7.91-6.19c2.44-2.52 5.24-5 5.89-8.8.1-.54.67-1 1-1.51.25.55.49 1.11.77 1.65.78 1.45 1.58 2.89 2.35 4.35 1.81 3.36 3.66 6.7 5.38 10.1 1.33 2.64 2.49 5.37 3.73 8.05.92 2 1.9 3.92 2.71 5.93a3.31 3.31 0 0 1 .12 2.33c-2 4.47-4.48 8.78-6.25 13.35a84.55 84.55 0 0 0-4.23 14.12 149.31 149.31 0 0 0-2.5 18.71c-.41 5.92 0 11.89-.07 17.83a44.6 44.6 0 0 0 2.56 14.43c1.1 3.48 1.76 7.1 2.77 10.61 1.31 4.56 2.73 9.08 5.75 12.91a2.35 2.35 0 0 1-.09 1.93c-2.89 6.57-5.94 13.06-8.72 19.67-1.85 4.42-3.48 8.95-4.92 13.52a107.25 107.25 0 0 0-4.76 21.7c-.63 6.41-1.16 12.84-1.79 19.25-.77 7.85 0 15.66.53 23.47a34.53 34.53 0 0 1 .22 6 6 6 0 0 1-1.77 2.9c-2.92 3.2-6.16 6.14-8.84 9.53a80 80 0 0 0-6.89 10.56c-2.6 4.68-4.89 9.54-7.25 14.36a88.91 88.91 0 0 0-6.75 17.72c-1.08 4.32-2.33 8.59-3.24 12.94a125.35 125.35 0 0 0-2.19 13.46c-.46 4.74-.48 9.53-.51 14.29 0 2.32.41 4.63.52 7 0 .38-.48.9-.86 1.15-3 2-6.06 3.86-9 5.87-2.55 1.72-5 3.58-7.51 5.35-2 1.44-4.13 2.86-6.22 4.24a1.36 1.36 0 0 1-1.07 0c-5.62-2.23-11.18-4.62-16.86-6.69-4.06-1.48-8.29-2.48-12.42-3.79-5.65-1.8-11.22-3.82-16.92-5.47-4.47-1.3-9.06-2.24-13.63-3.2-4.34-.92-8.73-1.62-13.09-2.48-4-.8-8-1.84-12.05-2.49-3.31-.53-6.69-.75-10.05-1q-11.06-.64-22.12-1.12c-6-.26-12.08-.58-18.11-.55-5.48 0-11 .3-16.41.81q-9.3.87-18.54 2.4c-9.93 1.64-19.91 3.16-29.7 5.44-7.94 1.85-15.67 4.66-23.44 7.2-4.88 1.6-9.71 3.39-14.48 5.28-4.07 1.61-8 3.54-12 5.21a2.39 2.39 0 0 1-1.92-.49c-2.83-2.13-5.61-4.32-8.37-6.55-1.91-1.54-3.78-3.13-5.59-4.78-.41-.38-.86-1.22-.71-1.64a44.55 44.55 0 0 0 2.15-14.87 143.05 143.05 0 0 0-2.24-25.63c-.95-5.22-2.05-10.44-3.42-15.56-1-3.81-2.57-7.47-3.91-11.18-.91-2.51-1.83-5-2.82-7.5-.51-1.26-1.24-2.43-1.81-3.66-1.21-2.63-2.39-5.28-3.55-7.93-.5-1.15-.83-2.39-1.4-3.5-.89-1.71-1.93-3.35-2.9-5-2-3.44-4.14-6.78-5.85-10.35-1.51-3.16-3.77-5.63-6-8.18a3.17 3.17 0 0 1-.54-2c.16-4.91.63-9.81.55-14.72-.11-6.57-.4-13.17-1-19.71-.56-5.73-1.64-11.41-2.57-17.1-.47-2.87-1-5.74-1.72-8.56-1.29-5.22-2.52-10.46-4.13-15.58s-3.6-10.34-5.59-15.44c-1.63-4.19-3.5-8.28-5.27-12.41a.46.46 0 0 0-.07-.16c-2.47-2.37-1.25-4.63-.13-7.22a93.21 93.21 0 0 0 4.47-12.76 187.56 187.56 0 0 0 4.32-19.53 134.64 134.64 0 0 0 1.16-17.4 86.68 86.68 0 0 0-2.25-21c-.79-3.44-1.79-6.83-2.68-10.26-.57-2.19-1-4.44-1.71-6.59a34 34 0 0 0-2.4-5.46 2.94 2.94 0 0 1-.08-2.86 230.18 230.18 0 0 1 10.34-22.39c.74-1.35 1.23-2.82 1.86-4.23.28-.62.57-1 1.09-.1 1.09 1.92 2.27 3.79 3.36 5.71a8.73 8.73 0 0 0 3.52 3.83c.78.4 1.21 1.45 1.91 2.07 1.76 1.53 3.59 3 5.38 4.48.73.61 1.43 1.27 2.12 1.94 3.33 3.24 6.46 6.78 7.55 11.34 1.46 6.1 2.28 12.35 3.35 18.54.07 1.38.19 2.86.4 4.33z"/><path class="b" d="M355.46 553.73c2-.31 4-.67 6-.9 3.85-.45 7.71-.83 11.56-1.24s7.61-.86 11.42-1.21c2.67-.24 5.34-.39 8-.5 3.65-.13 7.3-.28 10.95-.24 3.48 0 7 .32 10.44.47 1.87.08 3.75 0 5.61.17 3.69.3 7.38.62 11 1.1 5.27.68 10.52 1.47 15.77 2.28 2.64.4 5.25 1 7.88 1.4 1.46.24 2.95.31 4.39.63 3.28.73 6.54 1.56 9.8 2.37 1.32.32 2.63.71 4 1 2.55.6 5.13 1.06 7.65 1.78 4.81 1.36 9.67 2.54 14.21 4.78 3 1.48 6.24 2.51 9.36 3.75.45.18.87.44 1.31.66a7.36 7.36 0 0 1-1.29 1.27c-2.41 1.4-4.85 2.74-7.3 4.08-2.95 1.61-6 3.08-8.86 4.83-2.19 1.33-4.2.95-6.32 0s-4.37-2-6.62-2.77c-3.77-1.31-7.6-2.43-11.39-3.68a142 142 0 0 0-24.26-5.32c-3.68-.53-7.38-1-11.09-1.31-2.82-.26-5.66-.29-8.49-.4-5.4-.23-10.81-.62-16.21-.62-6 0-12.08.27-18.11.57-5.37.26-10.75.5-16.07 1.15-7.42.89-14.82 2-22.16 3.34-5.26 1-10.4 2.6-15.59 4-4.09 1.08-8.17 2.22-12.26 3.34-.38.11-.91.17-1.08.43-1 1.6-2.36.94-3.45.32-4.45-2.53-8.84-5.17-13.25-7.78-1.28-.75-2.53-1.54-3.79-2.31l-.44-.26.4-.16c3.78-1.39 7.54-2.84 11.34-4.17 3.44-1.2 6.88-2.44 10.41-3.36 5.9-1.53 11.84-2.91 17.8-4.18 5.69-1.21 11.43-2.2 17.15-3.28.5-.1 1-.13 1.52-.2zm96.69 10c0 3 1 4.23 3.48 4.26a4 4 0 0 0 3.95-3.72c-.05-2.92-1.71-5.06-3.89-5-1.64.05-3.56 2.47-3.54 4.47zm-52-6.17c0-2.26-1.75-4.33-3.71-4.35-2.18 0-3.75 1.83-3.75 4.43s1.55 4.22 3.74 4.18 3.65-1.82 3.67-4.25zM372.19 559a9.66 9.66 0 0 0-2-2.79 3.09 3.09 0 0 0-2.95.08c-1.42 1.17-2.7 2.66-2.62 4.79.1 2.75 2.23 4.12 4.74 3 1.87-.87 2.76-2.35 2.83-5.08zm-25.07 5.3c.1-3-1.63-4.3-3.54-4.26-2.35 0-3.9 2.07-3.83 4.91a3.46 3.46 0 0 0 3.3 3.27 4 4 0 0 0 4.07-3.96zm-25.18.9a4.26 4.26 0 0 0-4.27 4.69c.08 2.09 1.47 3.5 3.31 3.37 2.4-.18 4.47-2 4.38-3.75-.14-2.61-1.59-4.44-3.42-4.35zm104.39-2.35a4 4 0 0 0 3.73-4.06c0-1.6-2-3.87-3.48-3.93-1.92-.08-4 2-4 4.14a3.92 3.92 0 0 0 3.75 3.81zm54.45 3.81c-1.9 0-3.95 2.43-3.94 4.64a3.32 3.32 0 0 0 3.18 3.33 4.53 4.53 0 0 0 4.37-4.33 3.85 3.85 0 0 0-3.61-3.68z"/><path class="c" d="M616.93 327.38a3.82 3.82 0 0 1 0 .71c-.91 2.51-1.78 5-2.75 7.53a187.17 187.17 0 0 0-7.39 23c-1.23 4.91-2.84 9.75-3.77 14.72-1.37 7.35-2.43 14.76-3.33 22.18-.42 3.38-.11 6.83-.21 10.25-.11 3.64-.46 7.28-.44 10.92a93.75 93.75 0 0 0 .59 9.9c.71 6.57 1.63 13.12 2.37 19.69a69.17 69.17 0 0 0 4.83 19.37 3.59 3.59 0 0 0 1.3 1.73c1.12.61.87 1.31.46 2.13-1.59 3.2-3.19 6.41-4.8 9.6a3.86 3.86 0 0 1-.65.76c-.24-.29-.6-.54-.71-.87-.6-1.79-1.09-3.62-1.71-5.4-.52-1.5-1.28-2.92-1.73-4.43-.56-1.91-.93-3.88-1.36-5.83-.78-3.55-1.7-7.09-2.3-10.68-.9-5.35-1.75-10.72-2.28-16.12-.56-5.74-.87-11.51-1-17.28a148 148 0 0 1 .22-15.19c.46-6 1.58-12 2.08-18.07.57-6.81 2.68-13.2 4.66-19.64 1.17-3.82 2.47-7.61 3.93-11.33 1.08-2.76 2.54-5.37 3.76-8.07 1-2.11 1.66-4.35 2.72-6.4 2.06-4 4.29-7.91 6.47-11.84a10.46 10.46 0 0 1 1.04-1.34zM219.86 432.27q-.95-11.11-1.86-22.27c-.11-1.31 0-2.65-.28-3.94-1.1-6.12-2.3-12.23-3.42-18.35-.47-2.58-.72-5.2-1.26-7.76-.69-3.35-1.52-6.66-2.36-10-1-4-2-8-3.13-11.9-.81-2.78-1.78-5.52-2.78-8.25-1.28-3.48-2.51-7-4-10.36-1.76-3.9-3.66-7.75-5.76-11.47-2.4-4.27-5.08-8.38-7.64-12.56-.15-.24-.23-.65-.44-.72-2.79-1-1.88-3.19-1.61-5.14.33-2.38.7-4.75 1.08-7.13a4.53 4.53 0 0 1 .35-.9 5.22 5.22 0 0 1 .66.67c4.51 6.37 8.92 12.8 12.25 19.89 2.41 5.1 4.94 10.16 7.08 15.37s4.21 10.73 5.88 16.23c2 6.71 3.73 13.52 5.35 20.34.75 3.15 1 6.41 1.45 9.62.45 3.05 1 6.08 1.36 9.13.31 2.71.42 5.45.59 8.17.13 2.28.24 4.56.31 6.83.1 3.14.23 6.27.18 9.41-.05 3.42-.22 6.85-.47 10.27-.21 2.73-.62 5.45-1 8.17 0 .22-.25.41-.39.61-.11-.19-.3-.38-.31-.57v-3.43zm335.67 101.52c.23-4.72.21-9.47.73-14.16.54-4.86 1.78-9.63 2.38-14.49a63.1 63.1 0 0 1 3.65-14.38c1.7-4.51 3.49-9 5.5-13.39 2.3-5 4.82-9.94 7.37-14.85 1.12-2.16 2.54-4.16 3.85-6.22.12-.18.45-.24.68-.35a2.57 2.57 0 0 1 0 .78c-.65 2.1-1.26 4.21-2 6.27-1 2.85-2.22 5.62-3.12 8.49-2 6.48-4.09 13-5.82 19.54a112.2 112.2 0 0 0-2.33 12.52 130.9 130.9 0 0 0-1.51 14.07c-.11 3 .74 6 1.1 8.94a2.07 2.07 0 0 1-.36 1.53c-2.37 2.29-4.8 4.52-7.26 6.72a11.37 11.37 0 0 1-2.13 1.33c-.07 0-.48-.28-.49-.46a16.81 16.81 0 0 1 0-1.88zm-301.42-22.37c-1.73-4.71-3.54-9.39-5.18-14.13-1-2.79-1.66-5.68-2.51-8.51a42 42 0 0 0-1.6-4.87c-2.12-4.85-4.27-9.69-6.57-14.45-2-4.15-4.1-8.28-6.42-12.27a62.09 62.09 0 0 0-4.66-6.05 23.69 23.69 0 0 1-2.88-4.17c-.36-.79.15-2 .3-3q.47-3 1-5.92a2.46 2.46 0 0 1 .27-.6 4.31 4.31 0 0 1 .39.46c2.39 3.78 4.93 7.48 7.13 11.37 2.57 4.55 5 9.19 7.17 14 2.51 5.54 4.65 11.25 6.91 16.91a54.94 54.94 0 0 1 2.04 5.81c1.41 5.15 2.92 10.3 4 15.53.86 4.27 1.14 8.66 1.66 13a1.75 1.75 0 0 1-.07.44c0-.16.14-.34.09-.46-.38-1-.78-2-1.18-3z"/><path class="b" d="M251.32 152.55c1.29.51 2.59 1 3.86 1.52 2.8 1.21 5.65 2.34 8.37 3.72a69.76 69.76 0 0 1 8.14 4.68c2.7 1.87 5.18 4.08 7.69 6.22a1.73 1.73 0 0 1 .37 1.57c-1 2.29-2.21 4.51-3.27 6.78-.49 1.07-.89.76-1.61.19-2.85-2.25-5.72-4.49-8.67-6.61-2.54-1.82-5.13-3.57-7.82-5.15-3.11-1.83-6.31-3.5-9.55-5.09a26.86 26.86 0 0 0-5.1-1.8c-1.17-.3-1.16-.53-.62-1.55 1.64-3.12 5.3-4.15 8.21-4.48zm308.95 3.67c2.16.87 5 2 7.8 3.18 1.29.57.46 1.12-.24 1.46-2.38 1.12-4.79 2.14-7.15 3.3a76.37 76.37 0 0 0-8.32 4.35c-3.84 2.51-7.5 5.31-11.15 8.11-.94.72-1.47.69-2-.24-1.17-2.19-2.24-4.44-3.43-6.62a1.43 1.43 0 0 1 .49-2.18l10-6.38c1.11-.7 2.29-1.31 3.33-2.09 2.95-2.2 6.4-2.43 10.67-2.89z"/><path class="c" d="M601.41 296.4c-.13-4.71-.45-9.73-.33-14.75.08-3.69.67-7.38 1.12-11.06.59-4.7 1.26-9.39 1.91-14.08a4.75 4.75 0 0 1 .23-1c0-.12.23-.2.36-.3a1.47 1.47 0 0 1 .13.44c-.2 3.15-.56 6.3-.58 9.45s.34 6.24.48 9.36c.2 4.27.31 8.56.54 12.83.09 1.65.51 3.28.64 4.93a55.14 55.14 0 0 0 6.76 23.45c.63 1.11 1.44 2.13 2 3.26a1.78 1.78 0 0 1 0 1.48c-1.15 1.84-2.41 3.62-3.67 5.38a1 1 0 0 1-.79-.13c-1.37-3.55-2.86-7.08-4-10.7-1.44-4.54-2.63-9.15-3.87-13.74-.34-1.46-.58-2.99-.93-4.82zM211.5 268.8c-.38 4.36-.74 8.85-1.17 13.33a4.56 4.56 0 0 1-.69 1.4 6.4 6.4 0 0 1-.57-1.56c-.26-2.84-.44-5.68-.66-8.51-.17-2.21-.2-4.44-.56-6.62-.43-2.57-1.13-5.11-1.75-7.65a44.49 44.49 0 0 0-4.27-10.4c-.11-.2-.14-.47-.3-.61-2.3-2-1.8-4.34-.89-6.83 1.14-3.16 2.06-6.41 3.12-9.6a4.47 4.47 0 0 1 .83-1.15 7 7 0 0 1 .65 1.24c.86 2.9 1.88 5.78 2.48 8.73 1.09 5.4 2.07 10.83 2.82 16.29.54 3.89.65 7.84.96 11.94z"/><path d="M328.39 221.63a42.5 42.5 0 0 1 6.34.59c3.25.76 5.7-.88 8.39-2.09 5.33-2.42 8.91-7 13.42-10.49 2.25-1.72 4-4 6.17-5.89a20.06 20.06 0 0 1 4.42-3.16c2.26-1.09 4.65-2.37 7.06-2.55 2.69-.2 5.47.73 8.2 1.2a4.79 4.79 0 0 1 .94.39c2.58 1.05 2.57 1 4.26-1.12 1.09-1.38 2-3 3.37-4 3.63-2.64 7.49-5.2 12.2-5a18.91 18.91 0 0 1 7.76 1.85 17 17 0 0 1 5.95 5.23c3.07 4.45 5.53 5.15 10.28 2.51s9.74-5.16 14.72-7.53c3.21-1.52 6.57-1.12 9.85.07a16.36 16.36 0 0 1 2.13.62 15.94 15.94 0 0 1 6 4.92 14.1 14.1 0 0 0 2.77 3.45 4.53 4.53 0 0 0 3.29.61c3.6-.77 6.89.35 10.24 1.23a20.43 20.43 0 0 1 11.65 8.25 38.43 38.43 0 0 1 5.58 11.47A27.47 27.47 0 0 0 500.1 234a11.15 11.15 0 0 0 7.63 3.13 29.43 29.43 0 0 1 11.71 3c5.36 2.77 10.54 6 13.43 11.77.41.82 1.07 1.5 1.5 2.3a19.87 19.87 0 0 1 1.18 2.77 15.85 15.85 0 0 0 .71 2.65 19.85 19.85 0 0 1 2.37 10.85c-.3 5-.42 10-2.27 14.93-1.92 5.13-5 9.42-8 13.83a10.51 10.51 0 0 1-2.5 2.23c-1.08.82-1.82 1.36-1.23 3.17a46.47 46.47 0 0 1 2 9.86c.22 2.16-.42 4.4-.59 6.62-.41 5.06-.43 10.07 2.49 14.55 1.49 2.28 3.15 4.44 4.61 6.73 3.8 6 7.05 12.19 8.21 19.27 1.45 8.79-1.85 15.82-7.88 22-2.91 3-6.74 3.69-10.29 5.12-1.84.74-3.87 1-5.75 1.62a21.68 21.68 0 0 0-14 14c-.89 2.6-1 5.5-1.25 8.27-.59 6-1.05 11.92-3 17.66-1.38 4-3.24 7.64-6.46 10.49a17.67 17.67 0 0 1-9.52 4c-4 .59-8.11.64-11.86-1.41-.81-.44-1-.16-1.37.56-1.84 4.13-3.87 8.1-7.17 11.39a43.06 43.06 0 0 1-11.46 8.05c-3.05 1.5-6.65 1.94-10 2.66a21.13 21.13 0 0 1-5.91.55c-5.06-.41-10.09-1.21-15.15-1.64-3.8-.31-7.63-.34-11.45-.38a46.94 46.94 0 0 0-6.82.34 15.86 15.86 0 0 0-3.79 1.46c-3.87 1.66-7 4.36-10.27 7a50 50 0 0 1-8.33 5.31c-1.55.79-3.54.82-5.34 1a20.59 20.59 0 0 1-16.28-4.82 6.92 6.92 0 0 0-1.76-1 9 9 0 0 1-4.13-3.18c-1.46-2.1-3.23-4-4.83-6a43.57 43.57 0 0 1-8-14.77c-.93-3.13-2.45-6.09-3.62-9.17-.76-2-2.19-1.89-3.67-1.22-5.18 2.32-10.51 4.41-15.1 7.87-.77.58-1.36 1.39-2.12 2a7.83 7.83 0 0 1-2.43 1.53 2.53 2.53 0 0 1-2-.56c-.23-.19-.05-1.25.26-1.67 1.34-1.78 2.8-3.46 4.21-5.18 2.81-3.43 5.6-6.88 8.44-10.29 1.09-1.31 2.32-2.5 3.4-3.82a1.45 1.45 0 0 0 .16-1.34 22.74 22.74 0 0 0-3.51-4.1 58.55 58.55 0 0 0-6.39-4.13c-3.08-1.84-6.46-3.31-8.31-6.64a61.54 61.54 0 0 1-2.66-5.7c-.49-1.14-.72-1.81-2.47-1.66a11.61 11.61 0 0 1-8.47-2.76 26.64 26.64 0 0 1-5.82-5.94c-2.22-3.39-4.25-6.93-5-11a90.93 90.93 0 0 1-1.29-9.14 23.18 23.18 0 0 1 .38-4.75c.54-4.64.78-9.31-.85-13.74a26 26 0 0 0-3.92-6.92c-1.14-1.46-3-2.4-4.6-3.47-3.56-2.38-6.91-5.08-8-9.38-.63-2.5-.44-5.22-.49-7.84-.05-3.42 1.36-6.44 2.76-9.46.24-.51.34-1.08.55-1.6a14.51 14.51 0 0 1 1.44-3.23c2.08-2.78 4.21-5.53 6.51-8.12a62.72 62.72 0 0 1 5-4.62c1.59-1.47 3.16-3 4.78-4.41.59-.52 1.35-.85 1.95-1.37 3.46-3 6.93-6.18 6.73-11.26-.08-2-1-4.05-1.71-6a27.88 27.88 0 0 1 .49-19.86c2.11-5.59 5.94-9.42 10.54-12.8a3 3 0 0 0 1.22-1.36c.51-2 .78-4.12 1.27-6.15s1.08-4.18 1.79-6.21c1.73-5 5.44-8 10-10.33a22.15 22.15 0 0 1 9.66-2.51zm83.22 186.14c2.88-.67 6.37-1.22 9.49-3.31a54 54 0 0 0 9.32-7.83c3.86-4.08 6.51-8.91 9.67-13.44 1.48-2.12 2.84-4.49 4.79-6.1 4.5-3.7 9-7.46 14.61-9.58 4.16-1.56 8.12-3.63 12.53-4.52 1.06-.21 2.07-.64 3.12-.88 2.55-.58 5.1-1.11 7.65-1.66 3.46-.75 7.07-1.09 10.33-2.33 4.1-1.57 7.1-4.85 9.76-8.31a6.94 6.94 0 0 0 .59-1.07 4.54 4.54 0 0 0-1.17-.25c-5.74.32-11.5.53-17.23 1.05-4.48.41-8.92 1.18-13.37 1.88a90.47 90.47 0 0 0-9.26 1.75c-4.94 1.33-9.86 2.77-14.69 4.46a113 113 0 0 0-10.69 4.58c-4 1.86-7.83 4-11.77 5.88-3.13 1.54-6.31 3-9.45 4.47-1.7.82-3.65 1.4-5 2.63-3.08 2.84-7 4.23-10.42 6.37-2.57 1.58-5.3 2.89-8 4.33s-5.33 2.83-8 4.32c-4.25 2.4-8.53 4.76-12.68 7.33-2.8 1.75-5.42 3.79-8.08 5.76-3.56 2.64-7.18 5.2-10.57 8-3.61 3-7 6.37-10.45 9.59q-6.83 6.33-13.64 12.7a4.23 4.23 0 0 0-.58 1 3.43 3.43 0 0 0 1.24.14c1.79-.58 3.54-1.29 5.32-1.87 4.71-1.54 9.39-3.17 14.15-4.5 4.55-1.27 8.38-3.41 10.52-7.77a20.22 20.22 0 0 1 4.45-5.92 21.19 21.19 0 0 1 10.18-5.24 75.6 75.6 0 0 1 12.12-1.38 72.9 72.9 0 0 1 8.46.52 9.63 9.63 0 0 0 1.2 0zm-20.86-53c.4 4.37.78 8.74 1.21 13.11a3.75 3.75 0 0 0 .56 1.16 10.74 10.74 0 0 0 .38-1.22c.59-3.18.7-6.55 1.86-9.52 1.83-4.69 3.56-9.44 6.52-13.71a59 59 0 0 1 9.54-10.45c3.76-3.35 8.47-5.29 13.05-7.36 2.71-1.22 4.6-3.18 4.82-6.33a33.85 33.85 0 0 0 .13-4.27c-.31-5.71 2.89-9.63 7.14-12.45 3.08-2 6.86-3.07 10.39-4.35 3.11-1.13 6.32-2 9.48-2.94 4.07-1.27 6.46-4.37 7.68-8.11.77-2.36.37-5.09.55-7.65.2-2.83 0-5.82.81-8.46 1.78-5.61 5.66-9.74 10.5-13.07a56.71 56.71 0 0 0 6.2-5.3 4.65 4.65 0 0 0 1.46-2.41c.46-2.93.5-5.75-1.12-8.57-2.3-4-5.06-7-10.05-7.06a30.11 30.11 0 0 1-4.56-.12c-2.29-.38-4.58-.89-6.31-2.68a410.83 410.83 0 0 0-6.21-6.32c-.47-.46-1.14-1.06-1.68-1-3 .15-6.16-1.13-9.09.61-2.59 1.54-5.24 3-7.84 4.49a1.54 1.54 0 0 0-.6.95c0 .12.45.49.72.53q3.82.51 7.66.92a16.69 16.69 0 0 1 8.89 3.22 28.6 28.6 0 0 1 2.65 3.1c4.82 5.07 5.79 10.89 2.83 17.2a28.17 28.17 0 0 1-2.08 4.48c-2.72 3.79-5.46 7.59-8.51 11.11-3.25 3.77-6.87 7.22-10.32 10.81q-2.82 3-5.63 5.93c-2.3 2.43-4.58 4.87-6.9 7.29-1.26 1.32-2.63 2.54-3.85 3.89-2.77 3.1-5.5 6.24-8.2 9.39-3.72 4.32-7.63 8.47-10.44 13.5-2.13 3.82-4.44 7.54-6.55 11.37a33.32 33.32 0 0 0-1.69 4.44c-1.91 5.08-3.51 10.26-3.4 15.85zm-51-72.06h.18v1.21c.21 6 3.36 10.74 10 11a39.37 39.37 0 0 0 5.32-.19c3.54-.34 6.94-.13 10.14 1.65a9.18 9.18 0 0 1 4.43 4.56c1.19 2.9 2.27 5.84 3.57 8.69.73 1.59 1.62 3.24 3.57 3.66 2.67.58 5.37 1 8 1.61s5.58 1.24 7.34 3.87c.86 1.26 1.89 2.41 2.8 3.64.55.76.92.8 1.44-.05 1.37-2.23 2.71-4.49 4.26-6.59a3.59 3.59 0 0 0 .79-3.41c-1.22-5.68-4.74-10.08-7.63-14.84a16 16 0 0 0-2.75-3.64c-3.4-3.08-6.15-6.93-10.6-8.77s-9.07-3.93-13.6-5.91a1.36 1.36 0 0 1-.17 0 50 50 0 0 1-6.59-3.06 22.48 22.48 0 0 1-9.48-13.33 6.59 6.59 0 0 1-.3-2.52 24.39 24.39 0 0 1 4.71-12.07 31.88 31.88 0 0 1 5.73-5.76c4.09-3.13 8.4-5.94 13.71-6.66a48.32 48.32 0 0 0 5.16-1.22c.7-.17 1.11-.49.33-1.12a25.7 25.7 0 0 0-3.47-2.73c-1.81-1-3.73-2.33-5.69-2.49a11.76 11.76 0 0 0-9.33 3.49c-1.51 1.47-2.73 3.25-4.29 4.65A17.85 17.85 0 0 1 346 240.8a13.49 13.49 0 0 0-10.33 5.27c-2.1 2.65-3.17 5.27-1.64 8.45a36.57 36.57 0 0 0 2.77 4.87c2.74 4 5.21 8.1 4.38 13.32-.51 3.29-.92 6.67-1.39 10zm140.4 156.68l.11-.42c5.4.6 9.25-2.33 11.71-6.4 2-3.26 2.9-7.31 3.65-11.13a105.28 105.28 0 0 0 1.25-12.58c.49-6.65 2.91-12.3 8.08-16.72 3.09-2.64 6-5.44 9.9-7a17.24 17.24 0 0 1 2.16-1c2.21-.58 4.48-.93 6.64-1.62a14.74 14.74 0 0 0 6.73-4.13c5.14-5.7 6.71-12.23 4.67-19.52a47.64 47.64 0 0 0-7.18-14.87c-2.82-3.92-6.08-7.62-6.87-12.63-.42-2.68-1.21-5.44-.9-8a58.37 58.37 0 0 0-.08-15 7.59 7.59 0 0 0-1.43-3.8 40.27 40.27 0 0 0-5.94-5.81 29.1 29.1 0 0 0-7.39-3.65c-3.88-1.52-7.84-1.71-11.84-2.13-.88-.1-1.27.27-1.13 1.2.4 2.66.84 5.32 1.13 8 .12 1.11.73 1.35 1.47 1 2.84-1.36 5.51.12 8.17.55 4.31.7 6.57 4.08 8.26 7.71a28.34 28.34 0 0 1 3 12.36 15.66 15.66 0 0 0 0 3.06 86.69 86.69 0 0 0 2.11 10c.69 2.26 2.12 4.3 3.25 6.42.62 1.15 1.32 2.25 1.94 3.4a10.08 10.08 0 0 0 .69 1.56 14.39 14.39 0 0 1 2.92 11.93 20.46 20.46 0 0 1-1.3 5.54c-2.06 4.39-5.77 7.43-9.61 10.16-2.66 1.89-5.72 3.21-8.56 4.86-4.95 2.88-9.4 6.3-11.61 11.85a75.32 75.32 0 0 0-3.6 10.09c-1.25 5.15-2.08 10.41-2.94 15.64-.56 3.37-.78 6.66-3.67 9.24-2.44 2.17-4.91 3.24-8.07 2.44-1.26-.32-2.48-.85-3.74-1.19-.19-.05-.75.42-.75.65a33.44 33.44 0 0 0 .26 5.3 3.32 3.32 0 0 0 1.45 2.29c2.29.96 4.7 1.57 7.06 2.35zm-43 21.58c3.23-.47 6.2-.71 9.06-1.4 1.45-.35 2.69-1.52 4-2.33.33-.2.63-.45 1-.67 2-1.36 4.52-2.33 5.95-4.14 2.94-3.71 5.92-7.39 6.95-12.39 1.09-5.32 1.59-10.62.17-15.74-1.18-4.21-3.52-8.11-5.4-12.12-.52-1.13-1.28-.39-1.8 0a39.63 39.63 0 0 0-3.07 2.71 1.33 1.33 0 0 0-.38 1 66.73 66.73 0 0 1 1.45 7.67 35.25 35.25 0 0 1-.33 9.8 24.7 24.7 0 0 1-11.36 16.12 23.43 23.43 0 0 1-9.39 3.12 63.43 63.43 0 0 1-9.05.33c-1.42 0-2.83-.46-4.26-.49-3.69-.07-7.38 0-11.07 0-1.24 0-2.5-.3-3.72-.19-3.12.3-6.26.6-9.34 1.19s-6.48 1.1-9.33 2.48c-3.92 1.91-7.37 4.77-11.2 6.9a10.17 10.17 0 0 1-5.68 1.35 9.88 9.88 0 0 1-6.51-3.13 18.77 18.77 0 0 0-3-2.48c-4.61-3.45-6.6-8.77-9.49-13.42-1.65-2.65-2.93-5.53-4.41-8.28-.7-1.3-1.51-2.33-3-.73a2 2 0 0 1-1.27.4c-1.5.11-1.66.8-1.14 2.07 1.06 2.57 1.92 5.21 3 7.76 1.61 3.75 2.91 7.73 5.15 11.08 2.74 4.1 5.47 8.4 9.81 11.17 4 2.58 7.79 5.5 13.22 5.21a19.05 19.05 0 0 0 10.85-3.68c2.78-2.08 5.44-4.3 8.26-6.32 3.87-2.77 8.09-4.62 13-4.59 2.2 0 4.4-.23 6.61-.24 3.12 0 6.26-.17 9.36.11 5.52.46 11.06 1.24 16.4 1.9zM325 247.84v-.27c-1.4.22-2.84.32-4.2.67a53.85 53.85 0 0 0-12.92 5.66c-5.68 3.22-8.44 8.44-10 14.41a16.29 16.29 0 0 0 1.54 11.69c2.94 5.83 1.92 11.29-.84 16.69-1.73 3.37-4.67 5.69-7.49 8.08s-5.6 4.54-8.4 6.82a5.53 5.53 0 0 0-.71.74c-1.25 1.54-2.43 3.13-3.75 4.6-4.21 4.72-6.94 10.14-7.11 16.5a8.16 8.16 0 0 0 2.61 6.66c2.65 2.25 5.34 4.45 7.94 6.76A20.48 20.48 0 0 1 287.9 358c.77 3.48 1.58 7.13 1.32 10.63s-.9 7-.4 10.69a41.75 41.75 0 0 0 3.53 13c.93 1.88 2.67 3.36 4 5 1.76 2.11 4.51 1.69 6.75 2.6 1 .4.86-.44.9-1.09.16-2.61.32-5.23.6-7.83.09-.88-.19-1.11-.95-1.45-2.86-1.25-5.37-2.88-6.55-6.06-2-5.48-2.18-11.08-1.58-16.8.28-2.73.82-5.41.06-8.29a38.84 38.84 0 0 0-10.28-17.6 15.11 15.11 0 0 1-3-3.81c-1.58-3.3-3.25-6.77-1.2-10.42a50.73 50.73 0 0 1 4.95-7.34c2.29-2.8 4.88-5.33 7.37-8 4.32-4.59 8.66-9.15 13-13.74 1.51-1.61 2.76-3.35 2.78-5.72 0-2.2.43-4.43.16-6.58a18.31 18.31 0 0 0-1.86-6.5c-2.65-4.75-1.79-9.53-.2-14.09 1.14-3.25 4-5.6 7.23-7a65.41 65.41 0 0 1 9.73-3.53c2.1-.56 3.18-1.24 2.93-3.56a8.31 8.31 0 0 1 .64-2.67zm139.8-33.94l8.42 2.84a1.31 1.31 0 0 1 .27.21 40 40 0 0 1 3.31 3.19 36.38 36.38 0 0 1 3.59 5c2.57 4.43 4.76 9.09 8.27 12.94 1.53 1.68 2.79 3.59 4.3 5.29 1.65 1.86 3.16 4.13 5.26 5.24a42.4 42.4 0 0 0 10.23 3.58 21.23 21.23 0 0 1 10.08 5.45c4.57 4.42 5.3 10.33 4.4 16.24-1 6.66-3.24 13-7.69 18.27-.58.7-.39 1.12.34 1.64a43.69 43.69 0 0 1 3.69 3c1.38 1.23 2 1.23 3.17-.2s2.62-2.83 3.73-4.39A36 36 0 0 0 530 286a30.19 30.19 0 0 0 2.2-7.54 47.26 47.26 0 0 0 .55-10c-.17-2.6-1.2-5.16-1.89-7.73a21.1 21.1 0 0 0-4-7.63c-2.25-2.86-4.84-5.55-8.06-7a56.57 56.57 0 0 0-11.81-3.41c-4.6-.95-9.2-1.56-12.19-5.84-1.68-2.42-3.81-4.47-4.79-7.41-1.28-3.87-2.79-7.69-4.44-11.42-2.23-5-6-8.63-11.27-10-5-1.31-10.09-1.6-15.06 1.14-4.19 2.3-7.94 4.85-10.4 9a5.39 5.39 0 0 0-.34.9 8.51 8.51 0 0 0 1.09.24c1.76.11 3.52.26 5.27.24a2.07 2.07 0 0 0 1.6-.86c1.54-3.49 4.87-3.68 8.32-4.78zm-141.57 131l-.46.07c.66 3.65 1.22 7.31 2 10.93 1 4.63 2.05 9.26 3.33 13.82.82 2.9 2.32 5.6 3.13 8.5 1.53 5.51 4.67 10.25 7 15.37a2.86 2.86 0 0 0 .29.42c3.21 4.65 6.69 9.06 11.26 12.46a1.73 1.73 0 0 0 1.61 0 45.47 45.47 0 0 0 3.94-3.29 1.13 1.13 0 0 0-.05-1.05c-1.77-2.36-3.57-4.71-5.43-7-.89-1.1-2.08-2-2.87-3.14a96.69 96.69 0 0 1-5.48-8.59 88 88 0 0 1-3.56-8.27 40.34 40.34 0 0 1-1.91-4.92c-1.52-5.54-3.17-11.06-4.3-16.68a119.11 119.11 0 0 1-1.46-13.24 106.29 106.29 0 0 1 .25-24.25c.9-6.24 2.49-12.39 3.78-18.57.31-1.51.7-3 .91-4.54a12.55 12.55 0 0 0 0-3.24c-.31-2.41-1.08-4.81-1-7.21.07-3.51.76-7 1.06-10.53a22.48 22.48 0 0 0-.21-4.09c0-.3-.44-.57-.67-.85a4 4 0 0 0-.52.81c-.44 1.24-.89 2.47-1.23 3.73-2.36 8.59-5.26 17-6.44 25.94-.8 6-2.57 11.85-3.27 17.84a103.6 103.6 0 0 0-.31 24.26zm92.19 81.54v-.24a13.12 13.12 0 0 0 2.36-.26c3.88-1.11 7.77-2.19 11.6-3.46a41.67 41.67 0 0 0 8-3.22c4-2.36 7.69-5.25 11.61-7.79a83.35 83.35 0 0 0 15.8-14 53.91 53.91 0 0 0 9.95-15.11c1.21-2.81 2.37-5.64 3.55-8.46.66-1.58 1.35-3.15 2-4.73.36-.92.65-1.88 1-2.82-.88 0-1.77.1-2.65.11-1.45 0-2.66.35-3.19 2-.38 1.11-1 2.13-1.4 3.25-1.71 4.95-5.11 8.85-8 13a42.11 42.11 0 0 1-2.93 4.33c-3.1 3.39-6.25 6.76-9.62 9.87-2 1.83-4.71 2.89-6.6 4.8a28.87 28.87 0 0 1-7.58 5.06c-5 2.58-10.08 5-15.3 7.12a49 49 0 0 1-10.35 2.72 44.84 44.84 0 0 1-8.2.13c-4.15-.1-8.36.06-12.44-.55A75.27 75.27 0 0 1 380 415a6.63 6.63 0 0 0-4.56.15c-1.88.62-3.77 1.25-5.62 1.95a5.61 5.61 0 0 0-1.31 1 5.81 5.81 0 0 0 1.39 1.17 69.63 69.63 0 0 0 8.94 3.19c4.41 1 8.68 2.68 13.27 3s9.09.76 13.65 1c3.24.12 6.43-.01 9.64-.01zm72.85-123.89h.08c-.61-3.71-1.15-7.43-1.83-11.13-1.09-5.89-2.2-11.78-3.44-17.64-.69-3.28-1.63-6.5-2.52-9.73-.09-.32-.85-.79-.93-.72q-3.19 2.51-6.27 5.15a1.32 1.32 0 0 0-.25 1.08c.34 1.73.75 3.44 1.14 5.17.94 4.17 2 8.32 2.79 12.53 1 5.66 1.82 11.37 2.6 17.07.6 4.4 1.06 8.82 1.48 13.24.17 1.76 0 3.54.08 5.3a55.43 55.43 0 0 1 .15 6.3c-.41 4.43-1 8.85-1.65 13.25-.17 1.16.25 1.1 1.06 1 1.67-.17 3.36-.4 5-.41.92 0 1.21-.3 1.29-1.14.3-3 .8-6 .92-9 .32-8.29.53-16.59.69-24.88a49.82 49.82 0 0 0-.41-5.43zm-158.13-74.86c-2.51.26-4.56.46-6.6.7a2.2 2.2 0 0 0-.93.4c-1.83 1.33-3.73 2.58-5.44 4.05-3.11 2.67-4.45 6.25-4.78 10.24a3 3 0 0 0 .34 1.06l.9-.36c1.05-.42 2.1-.81 3.12-1.28.32-.15.76-.53.76-.81a5.53 5.53 0 0 1 3.85-5.38 34.41 34.41 0 0 1 9.82-1.63 39.62 39.62 0 0 0 11-1.84 32.78 32.78 0 0 0 11.27-6Q360.66 221 368 215.3a20.23 20.23 0 0 1 5.45-3.39c4.46-1.55 7.49-.66 9.8 3 2.95 4.71 5.63 9.59 8.44 14.39a.89.89 0 0 0 .45.41 2.5 2.5 0 0 0 2.8-2.73 36.26 36.26 0 0 0-1-3.82c-1.13-3.72-2.33-7.45-4.91-10.44-1.8-2.08-4.13-3.71-5.9-5.82a7.59 7.59 0 0 0-5.38-2.58c-4.48-.46-8.43 1.35-11.75 4.11-3.79 3.15-7.19 6.77-10.87 10a60.13 60.13 0 0 1-7.22 5.73c-3.91 2.52-8.05 4.62-13 4-1.72-.16-3.48-.32-4.77-.47zm72.53-31.95c-.2 0-.48.11-.75.19a17.2 17.2 0 0 0-10.7 8.91 2.11 2.11 0 0 0 .27 1.68 12.12 12.12 0 0 0 1.62 2c.49.55.89.63 1.26-.17a8.18 8.18 0 0 1 1.18-1.83c2.68-3.09 6.32-2.15 9.71-2.24a1.67 1.67 0 0 1 .94.4c1.85 1.4 3.66 2.85 5.51 4.25a34.18 34.18 0 0 0 4.31 3c4.82 2.51 9.4 1.2 13.83-1.19 3.49-1.88 6.93-3.85 10.46-5.64A6.91 6.91 0 0 1 449 207a1.31 1.31 0 0 0 2 .36c1.79-1.08 3.54-2.24 5.28-3.41.13-.09.12-.59 0-.81-.21-.39-.59-.7-.83-1.08-2.75-4.37-7.55-6.27-12.32-4.38-3.57 1.42-6.85 3.53-10.35 5.16a56.12 56.12 0 0 1-8.63 3.46 9.63 9.63 0 0 1-11.54-4.94c-2.12-4.1-5.79-5.1-9.94-5.62zm11.25 57.59a18.41 18.41 0 0 1 .28 2.55c0 1.24.56 1.29 1.31.73 1.09-.81 2.05-1.79 3.11-2.65a16.39 16.39 0 0 0 5.61-9.91 23.48 23.48 0 0 0 0-3.56c.08-1.78-1.6-1.69-2.48-2.1-2.83-1.3-5.38-3.92-9-2.5-.14.06-.34-.06-.51 0a60.78 60.78 0 0 0-6.9.62 30.16 30.16 0 0 0-5.43 2c-4.4 1.81-8.75 3.74-11.76 7.67-.72.93-1.17 2.07-1.81 3.08-3.45 5.44-3.74 11.48.35 16.68a3.7 3.7 0 0 0 1.79.85c.1 0 .52-.67.61-1.08 1-4.28 2-8.55 2.81-12.86.54-2.85 2.27-4.94 4-7 2.89-3.39 7.07-4.47 11.09-5.7a3.51 3.51 0 0 1 3.01 1.05c2.86 3.48 3.21 7.88 3.92 12.13zM310 398.55l-.47.06c.87 2.77 1.61 5.57 2.64 8.27a8.82 8.82 0 0 0 2.49 3.92c3 2.21 6.27 4.08 9.48 6 2.9 1.77 5.72 3.58 6.88 7.05a1 1 0 0 0 .9.11 47.11 47.11 0 0 0 3.71-3.77 1.81 1.81 0 0 0 0-1.75c-2.82-3.2-5.6-6.45-8.68-9.39-2.4-2.3-5.2-4-7.06-7a16.17 16.17 0 0 1-2.13-9.95 21.33 21.33 0 0 1 1.74-6.7c1.15-2.75 2.75-5.32 4.11-8a2.87 2.87 0 0 0 .42-1.8c-.44-1.71-1.14-3.35-1.63-5-.25-.87-.53-1-1.06-.29A39.65 39.65 0 0 0 318 375c-1.89 3.56-3.72 7.18-5.27 10.9-1.68 4.01-3.02 8.16-2.73 12.65zm96.62-105.69c1.18-.17 2.37-.31 3.56-.5 4.88-.8 9-3.4 12.9-6.12a90.57 90.57 0 0 0 7.44-6.31 2.65 2.65 0 0 0 .37-.55 2.22 2.22 0 0 0-.45 0c-2.05.49-4.14.83-6.12 1.51a47 47 0 0 1-15.32 2.17 77.78 77.78 0 0 1-9.54-.11 29.66 29.66 0 0 1-12.46-4.42 36.26 36.26 0 0 1-8.86-7.91c-.1-.13-.21-.25-.32-.38a2.71 2.71 0 0 0-.29.56c-.4 1.77-.82 3.54-1.12 5.33-.05.27.45.77.81.92 2.18 1 4.43 1.76 6.59 2.78 4.55 2.15 7.41 6.59 11.86 8.9 3.51 1.79 6.69 4.39 10.98 4.13zM432 248.34l-.52.07c.5 4.2 1 8.39 1.53 12.57 0 .23.74.63.91.53a25.88 25.88 0 0 0 3.49-2.14c1.81-1.36 3.5-2.87 5.27-4.27a15.85 15.85 0 0 0 6.31-10c.44-2.6-1.49-5.6-3.85-6-4.2-.67-8.42-1.14-12.64-1.68-.28 0-.57.1-.85.08-1.06-.07-1.3.22-1.08 1.37.59 3.13.96 6.31 1.43 9.47zm-17.6 28c4.65.05 9-1.38 13.21-3.05a1 1 0 0 0 .46-.79c-.1-2.15-.25-4.3-.41-6.45a3.82 3.82 0 0 0-.28-.89c-.25.21-.52.4-.75.63a15.75 15.75 0 0 1-7.84 4.27c-1.38.36-2.76.7-4.15 1-1.86.39-3.76 1.12-5.6 1a83.38 83.38 0 0 1-9.9-1.52 29 29 0 0 1-3.55-1.26 1.82 1.82 0 0 0-.9 0c-.29 1.9-.56 3.81-.73 5.72 0 .16.63.42 1 .57 4.14 1.63 8.48 1.49 12.8 1.37 2.24-.03 4.42-.36 6.63-.57zm-38-34.39l-1.37.91c-.66.44-1.3.93-2 1.32-2.61 1.47-5.35 2.72-6.86 5.61-1.59 3.05-3.8 6.12-2.45 9.62 1 2.57 3 4.76 4.71 7a8.24 8.24 0 0 0 2.2 1.56c.82.53 1.29.32 1.35-.68.17-2.89.25-5.8.54-8.68a56 56 0 0 1 1.21-7.75c.65-2.58 1.72-5.06 2.58-7.59a6.39 6.39 0 0 0 .06-1.27zm30.92 12.91h.24a34.17 34.17 0 0 0-.85-3.63 1.59 1.59 0 0 0-1.33-.67c-2.92.22-4.36 2.5-5.77 4.59-1.09 1.61-.71 3.05.6 3.62a11.41 11.41 0 0 0 6.46 1.19c1-.16 1.47-.57 1.32-1.55-.22-1.19-.47-2.36-.7-3.52z"/><path class="c" d="M411.61 407.77l-15.44.85a9.63 9.63 0 0 1-1.2 0 72.9 72.9 0 0 0-8.46-.52 75.6 75.6 0 0 0-12.12 1.38 21.19 21.19 0 0 0-10.18 5.24 20.22 20.22 0 0 0-4.45 5.92c-2.14 4.36-6 6.5-10.52 7.77-4.76 1.33-9.44 3-14.15 4.5-1.78.58-3.53 1.29-5.32 1.87a3.43 3.43 0 0 1-1.24-.14 4.23 4.23 0 0 1 .58-1q6.81-6.37 13.64-12.7c3.47-3.22 6.84-6.55 10.45-9.59 3.39-2.84 7-5.4 10.57-8 2.66-2 5.28-4 8.08-5.76 4.15-2.57 8.43-4.93 12.68-7.33 2.62-1.49 5.29-2.89 8-4.32s5.39-2.75 8-4.33c3.46-2.14 7.34-3.53 10.42-6.37 1.33-1.23 3.28-1.81 5-2.63 3.14-1.5 6.32-2.93 9.45-4.47 3.94-1.93 7.8-4 11.77-5.88a113 113 0 0 1 10.69-4.58c4.83-1.69 9.75-3.13 14.69-4.46a90.47 90.47 0 0 1 9.26-1.75c4.45-.7 8.89-1.47 13.37-1.88 5.73-.52 11.49-.73 17.23-1.05a4.54 4.54 0 0 1 1.17.25 6.94 6.94 0 0 1-.59 1.07c-2.66 3.46-5.66 6.74-9.76 8.31-3.26 1.24-6.87 1.58-10.33 2.33-2.55.55-5.1 1.08-7.65 1.66-1.05.24-2.06.67-3.12.88-4.41.89-8.37 3-12.53 4.52-5.63 2.12-10.11 5.88-14.61 9.58-1.95 1.61-3.31 4-4.79 6.1-3.16 4.53-5.81 9.36-9.67 13.44a54 54 0 0 1-9.32 7.83c-3.21 2.04-6.72 2.59-9.6 3.26zm-20.86-53c-.11-5.59 1.49-10.77 3.4-15.89a33.32 33.32 0 0 1 1.69-4.44c2.11-3.83 4.42-7.55 6.55-11.37 2.81-5 6.72-9.18 10.44-13.5 2.7-3.15 5.43-6.29 8.2-9.39 1.22-1.35 2.59-2.57 3.85-3.89 2.32-2.42 4.6-4.86 6.9-7.29q2.81-3 5.63-5.93c3.45-3.59 7.07-7 10.32-10.81 3-3.52 5.79-7.32 8.51-11.11a28.17 28.17 0 0 0 2.08-4.48c3-6.31 2-12.13-2.83-17.2a28.6 28.6 0 0 0-2.65-3.1 16.69 16.69 0 0 0-8.89-3.22q-3.84-.41-7.66-.92c-.27 0-.75-.41-.72-.53a1.54 1.54 0 0 1 .6-.95c2.6-1.52 5.25-2.95 7.84-4.49 2.93-1.74 6.06-.46 9.09-.61.54 0 1.21.58 1.68 1 2.1 2.08 4.16 4.2 6.21 6.32 1.73 1.79 4 2.3 6.31 2.68a30.11 30.11 0 0 0 4.56.12c5 0 7.75 3 10.05 7.06 1.62 2.82 1.58 5.64 1.12 8.57a4.65 4.65 0 0 1-1.46 2.41 56.71 56.71 0 0 1-6.2 5.3c-4.84 3.33-8.72 7.46-10.5 13.07-.83 2.64-.61 5.63-.81 8.46-.18 2.56.22 5.29-.55 7.65-1.22 3.74-3.61 6.84-7.68 8.11-3.16 1-6.37 1.81-9.48 2.94-3.53 1.28-7.31 2.32-10.39 4.35-4.25 2.82-7.45 6.74-7.14 12.45a33.85 33.85 0 0 1-.13 4.27c-.22 3.15-2.11 5.11-4.82 6.33-4.58 2.07-9.29 4-13.05 7.36a59 59 0 0 0-9.54 10.45c-3 4.27-4.69 9-6.52 13.71-1.16 3-1.27 6.34-1.86 9.52a10.74 10.74 0 0 1-.38 1.22 3.75 3.75 0 0 1-.56-1.16c-.43-4.33-.81-8.7-1.21-13.07zm-50.96-72.06c.47-3.33.88-6.68 1.41-10 .83-5.22-1.64-9.29-4.38-13.32a36.57 36.57 0 0 1-2.77-4.87c-1.53-3.18-.46-5.8 1.64-8.45A13.49 13.49 0 0 1 346 240.8a17.85 17.85 0 0 0 11.38-4.43c1.56-1.4 2.78-3.18 4.29-4.65a11.76 11.76 0 0 1 9.33-3.49c2 .16 3.88 1.47 5.69 2.49a25.7 25.7 0 0 1 3.47 2.73c.78.63.37 1-.33 1.12a48.32 48.32 0 0 1-5.16 1.22c-5.31.72-9.62 3.53-13.71 6.66a31.88 31.88 0 0 0-5.73 5.76 24.39 24.39 0 0 0-4.71 12.07 6.59 6.59 0 0 0 .3 2.52 22.48 22.48 0 0 0 9.48 13.33 50 50 0 0 0 6.59 3.06 1.36 1.36 0 0 0 .17 0c4.53 2 9 4 13.6 5.91s7.2 5.69 10.6 8.77a16 16 0 0 1 2.75 3.64c2.89 4.76 6.41 9.16 7.63 14.84a3.59 3.59 0 0 1-.79 3.41c-1.55 2.1-2.89 4.36-4.26 6.59-.52.85-.89.81-1.44.05-.91-1.23-1.94-2.38-2.8-3.64-1.76-2.63-4.54-3.28-7.34-3.87s-5.38-1-8-1.61c-2-.42-2.84-2.07-3.57-3.66-1.3-2.85-2.38-5.79-3.57-8.69a9.18 9.18 0 0 0-4.43-4.56c-3.2-1.78-6.6-2-10.14-1.65a39.37 39.37 0 0 1-5.3.28c-6.62-.27-9.77-5-10-11v-1.21z"/><path class="a" d="M480.15 439.39c-2.36-.78-4.77-1.43-7-2.41a3.32 3.32 0 0 1-1.45-2.29 33.44 33.44 0 0 1-.26-5.3c0-.23.56-.7.75-.65 1.26.34 2.48.87 3.74 1.19 3.16.8 5.63-.27 8.07-2.44 2.89-2.58 3.11-5.87 3.67-9.24.86-5.23 1.69-10.49 2.94-15.64a75.32 75.32 0 0 1 3.6-10.09c2.21-5.55 6.66-9 11.61-11.85 2.84-1.65 5.9-3 8.56-4.86 3.84-2.73 7.55-5.77 9.61-10.16a20.46 20.46 0 0 0 1.3-5.54 14.39 14.39 0 0 0-2.92-11.93 10.08 10.08 0 0 1-.69-1.56c-.62-1.15-1.32-2.25-1.94-3.4-1.13-2.12-2.56-4.16-3.25-6.42a86.69 86.69 0 0 1-2.11-10 15.66 15.66 0 0 1 0-3.06 28.34 28.34 0 0 0-3-12.36c-1.69-3.63-3.95-7-8.26-7.71-2.66-.43-5.33-1.91-8.17-.55-.74.35-1.35.11-1.47-1-.29-2.67-.73-5.33-1.13-8-.14-.93.25-1.3 1.13-1.2 4 .42 8 .61 11.84 2.13a29.1 29.1 0 0 1 7.39 3.65 40.27 40.27 0 0 1 5.94 5.81 7.59 7.59 0 0 1 1.43 3.8 58.37 58.37 0 0 1 .08 15c-.31 2.61.48 5.37.9 8 .79 5 4 8.71 6.87 12.63a47.64 47.64 0 0 1 7.18 14.94c2 7.29.47 13.82-4.67 19.52a14.74 14.74 0 0 1-6.73 4.13c-2.16.69-4.43 1-6.64 1.62a17.24 17.24 0 0 0-2.16 1c-3.86 1.55-6.81 4.35-9.9 7-5.17 4.42-7.59 10.07-8.08 16.72a105.28 105.28 0 0 1-1.25 12.58c-.75 3.82-1.67 7.87-3.65 11.13-2.46 4.07-6.31 7-11.71 6.4zM437.19 461c-5.34-.63-10.88-1.41-16.43-1.91-3.1-.28-6.24-.14-9.36-.11-2.21 0-4.41.25-6.61.24-4.89 0-9.11 1.82-13 4.59-2.82 2-5.48 4.24-8.26 6.32a19.05 19.05 0 0 1-10.85 3.68c-5.43.29-9.17-2.63-13.22-5.21-4.34-2.77-7.07-7.07-9.81-11.17-2.24-3.35-3.54-7.33-5.15-11.08-1.1-2.55-2-5.19-3-7.76-.52-1.27-.36-2 1.14-2.07a2 2 0 0 0 1.27-.4c1.49-1.6 2.3-.57 3 .73 1.48 2.75 2.76 5.63 4.41 8.28 2.89 4.65 4.88 10 9.49 13.42a18.77 18.77 0 0 1 3 2.48 9.88 9.88 0 0 0 6.51 3.13 10.17 10.17 0 0 0 5.68-1.35c3.83-2.13 7.28-5 11.2-6.9 2.85-1.38 6.17-1.87 9.33-2.48s6.22-.89 9.34-1.19c1.22-.11 2.48.18 3.72.19h11.07c1.43 0 2.84.49 4.26.49a63.43 63.43 0 0 0 9.05-.33 23.43 23.43 0 0 0 9.46-3.08 24.7 24.7 0 0 0 11.36-16.12 35.25 35.25 0 0 0 .33-9.8 66.73 66.73 0 0 0-1.45-7.67 1.33 1.33 0 0 1 .38-1 39.63 39.63 0 0 1 3.07-2.71c.52-.42 1.28-1.16 1.8 0 1.88 4 4.22 7.91 5.4 12.12 1.42 5.12.92 10.42-.17 15.74-1 5-4 8.68-6.95 12.39-1.43 1.81-3.93 2.78-5.95 4.14-.33.22-.63.47-1 .67-1.33.81-2.57 2-4 2.33-2.86.66-5.83.9-9.06 1.4zM325 247.84h2.89a8.31 8.31 0 0 0-.64 2.67c.25 2.32-.83 3-2.93 3.56a65.41 65.41 0 0 0-9.73 3.53c-3.22 1.42-6.09 3.77-7.23 7-1.59 4.56-2.45 9.34.2 14.09a18.31 18.31 0 0 1 1.86 6.5c.27 2.15-.13 4.38-.16 6.58 0 2.37-1.27 4.11-2.78 5.72-4.32 4.59-8.66 9.15-13 13.74-2.49 2.63-5.08 5.16-7.37 8a50.73 50.73 0 0 0-4.95 7.34c-2.05 3.65-.38 7.12 1.2 10.42a15.11 15.11 0 0 0 3 3.81 38.84 38.84 0 0 1 10.28 17.6c.76 2.88.22 5.56-.06 8.29-.6 5.72-.45 11.32 1.58 16.8 1.18 3.18 3.69 4.81 6.55 6.06.76.34 1 .57.95 1.45-.28 2.6-.44 5.22-.6 7.83 0 .65.09 1.49-.9 1.09-2.24-.91-5-.49-6.75-2.6-1.38-1.65-3.12-3.13-4-5a41.75 41.75 0 0 1-3.53-13c-.5-3.66.14-7.12.4-10.69s-.55-7.15-1.32-10.63a20.48 20.48 0 0 0-6.23-11.19c-2.6-2.31-5.29-4.51-7.94-6.76a8.16 8.16 0 0 1-2.61-6.66c.17-6.36 2.9-11.78 7.11-16.5 1.32-1.47 2.5-3.06 3.75-4.6a5.53 5.53 0 0 1 .71-.74c2.8-2.28 5.66-4.49 8.4-6.82s5.76-4.71 7.49-8.08c2.76-5.4 3.78-10.86.84-16.69a16.29 16.29 0 0 1-1.63-11.66c1.6-6 4.36-11.19 10-14.41a53.85 53.85 0 0 1 12.92-5.66c1.36-.35 2.8-.45 4.2-.67zm139.78-33.94c-3.45 1-6.77 1.29-8.37 4.75a2.07 2.07 0 0 1-1.6.86c-1.75 0-3.51-.13-5.27-.24a8.51 8.51 0 0 1-1.09-.24 5.39 5.39 0 0 1 .34-.9c2.46-4.18 6.21-6.73 10.4-9 5-2.74 10-2.45 15.06-1.14 5.29 1.38 9 5 11.27 10 1.65 3.73 3.16 7.55 4.44 11.42 1 2.94 3.11 5 4.79 7.41 3 4.28 7.59 4.89 12.19 5.84a56.57 56.57 0 0 1 11.81 3.41c3.22 1.45 5.81 4.14 8.06 7a21.1 21.1 0 0 1 4 7.63c.69 2.57 1.72 5.13 1.89 7.73a47.26 47.26 0 0 1-.55 10A30.19 30.19 0 0 1 530 286a36 36 0 0 1-3.8 6.19c-1.11 1.56-2.47 2.94-3.73 4.39s-1.79 1.43-3.17.2a43.69 43.69 0 0 0-3.69-3c-.73-.52-.92-.94-.34-1.64 4.45-5.3 6.67-11.61 7.69-18.27.9-5.91.17-11.82-4.4-16.24a21.23 21.23 0 0 0-10.08-5.45 42.4 42.4 0 0 1-10.23-3.58c-2.1-1.11-3.61-3.38-5.26-5.24-1.51-1.7-2.77-3.61-4.3-5.29-3.51-3.85-5.7-8.51-8.27-12.94a36.38 36.38 0 0 0-3.59-5 40 40 0 0 0-3.31-3.19 1.31 1.31 0 0 0-.27-.21z"/><path class="c" d="M323.21 344.91l-.63-5.28a103.6 103.6 0 0 1 .31-24.26c.7-6 2.47-11.85 3.27-17.84 1.18-8.91 4.08-17.35 6.44-25.94.34-1.26.79-2.49 1.23-3.73a4 4 0 0 1 .52-.81c.23.28.64.55.67.85a22.48 22.48 0 0 1 .21 4.09c-.3 3.52-1 7-1.06 10.53-.05 2.4.72 4.8 1 7.21a12.55 12.55 0 0 1 0 3.24c-.21 1.53-.6 3-.91 4.54-1.29 6.18-2.88 12.33-3.78 18.57a106.29 106.29 0 0 0-.25 24.25 119.11 119.11 0 0 0 1.46 13.24c1.13 5.62 2.78 11.14 4.3 16.68a40.34 40.34 0 0 0 1.91 4.92 88 88 0 0 0 3.56 8.27A96.69 96.69 0 0 0 347 392c.79 1.16 2 2 2.87 3.14 1.86 2.3 3.66 4.65 5.43 7a1.13 1.13 0 0 1 .05 1.05 45.47 45.47 0 0 1-3.94 3.29 1.73 1.73 0 0 1-1.61 0c-4.57-3.4-8-7.81-11.26-12.46a2.86 2.86 0 0 1-.29-.42c-2.34-5.12-5.48-9.86-7-15.37-.81-2.9-2.31-5.6-3.13-8.5-1.28-4.56-2.33-9.19-3.33-13.82-.79-3.62-1.35-7.28-2-10.93zm92.19 81.54c-3.21 0-6.43.13-9.63 0-4.56-.22-9.1-.68-13.65-1s-8.86-1.95-13.27-3a69.63 69.63 0 0 1-8.94-3.19 5.81 5.81 0 0 1-1.39-1.17 5.61 5.61 0 0 1 1.31-1c1.85-.7 3.74-1.33 5.62-1.95A6.63 6.63 0 0 1 380 415a75.27 75.27 0 0 0 13 3.23c4.08.61 8.29.45 12.44.55a44.84 44.84 0 0 0 8.2-.13 49 49 0 0 0 10.36-2.72c5.22-2.09 10.31-4.54 15.3-7.12a28.87 28.87 0 0 0 7.58-5.06c1.89-1.91 4.62-3 6.6-4.8 3.37-3.11 6.52-6.48 9.62-9.87a42.11 42.11 0 0 0 2.93-4.33c2.94-4.18 6.34-8.08 8-13 .38-1.12 1-2.14 1.4-3.25.53-1.6 1.74-1.92 3.19-2 .88 0 1.77-.07 2.65-.11-.32.94-.61 1.9-1 2.82-.63 1.58-1.32 3.15-2 4.73-1.18 2.82-2.34 5.65-3.55 8.46a53.91 53.91 0 0 1-9.95 15.11 83.35 83.35 0 0 1-15.8 14c-3.92 2.54-7.6 5.43-11.61 7.79a41.67 41.67 0 0 1-8 3.22c-3.83 1.27-7.72 2.35-11.6 3.46a13.12 13.12 0 0 1-2.36.26zm72.85-123.89a49.82 49.82 0 0 1 .43 5.44c-.16 8.29-.37 16.59-.69 24.88-.12 3-.62 6-.92 9-.08.84-.37 1.14-1.29 1.14-1.68 0-3.37.24-5 .41-.81.08-1.23.14-1.06-1 .65-4.4 1.24-8.82 1.65-13.25a55.43 55.43 0 0 0-.15-6.3c0-1.76.09-3.54-.08-5.3-.42-4.42-.88-8.84-1.48-13.24-.78-5.7-1.59-11.41-2.6-17.07-.75-4.21-1.85-8.36-2.79-12.53-.39-1.73-.8-3.44-1.14-5.17a1.32 1.32 0 0 1 .25-1.08q3.07-2.64 6.27-5.15c.08-.07.84.4.93.72.89 3.23 1.83 6.45 2.52 9.73 1.24 5.86 2.35 11.75 3.44 17.64.68 3.7 1.22 7.42 1.83 11.13z"/><path class="a" d="M330.14 227.69c1.29.15 3.05.34 4.81.56 4.93.61 9.07-1.49 13-4a60.13 60.13 0 0 0 7.22-5.73c3.68-3.28 7.08-6.9 10.87-10 3.32-2.76 7.27-4.57 11.75-4.11a7.59 7.59 0 0 1 5.38 2.58c1.77 2.11 4.1 3.74 5.9 5.82 2.58 3 3.78 6.72 4.91 10.44a36.26 36.26 0 0 1 1 3.82 2.5 2.5 0 0 1-2.8 2.73.89.89 0 0 1-.45-.41c-2.81-4.8-5.49-9.68-8.44-14.39-2.31-3.69-5.34-4.58-9.8-3a20.23 20.23 0 0 0-5.49 3.3q-7.35 5.69-14.53 11.59a32.78 32.78 0 0 1-11.27 6 39.62 39.62 0 0 1-11 1.84 34.41 34.41 0 0 0-9.82 1.63 5.53 5.53 0 0 0-3.85 5.38c0 .28-.44.66-.76.81-1 .47-2.07.86-3.12 1.28l-.9.36a3 3 0 0 1-.34-1.06c.33-4 1.67-7.57 4.78-10.24 1.71-1.47 3.61-2.72 5.44-4.05a2.2 2.2 0 0 1 .93-.4c2.02-.29 4.07-.44 6.58-.75zm72.53-31.95c4.15.52 7.82 1.52 10 5.6a9.63 9.63 0 0 0 11.54 4.94 56.12 56.12 0 0 0 8.63-3.46c3.5-1.63 6.78-3.74 10.35-5.16 4.77-1.89 9.57 0 12.32 4.38.24.38.62.69.83 1.08.12.22.13.72 0 .81-1.74 1.17-3.49 2.33-5.28 3.41a1.31 1.31 0 0 1-2-.36 6.91 6.91 0 0 0-8.72-1.88c-3.53 1.79-7 3.76-10.46 5.64-4.43 2.39-9 3.7-13.83 1.19a34.18 34.18 0 0 1-4.31-3c-1.85-1.4-3.66-2.85-5.51-4.25a1.67 1.67 0 0 0-.94-.4c-3.39.09-7-.85-9.71 2.24a8.18 8.18 0 0 0-1.18 1.83c-.37.8-.77.72-1.26.17a12.12 12.12 0 0 1-1.62-2 2.11 2.11 0 0 1-.27-1.68 17.2 17.2 0 0 1 10.7-8.91c.24-.08.52-.14.72-.19zm11.25 57.59c-.71-4.25-1.06-8.65-3.95-12.13a3.51 3.51 0 0 0-2.93-1.14c-4 1.23-8.2 2.31-11.09 5.7-1.76 2.06-3.49 4.15-4 7-.82 4.31-1.84 8.58-2.81 12.86-.09.41-.51 1.1-.61 1.08a3.7 3.7 0 0 1-1.79-.85c-4.09-5.2-3.8-11.24-.35-16.68.64-1 1.09-2.15 1.81-3.08 3-3.93 7.36-5.86 11.76-7.67a30.16 30.16 0 0 1 5.43-2 60.78 60.78 0 0 1 6.9-.62c.17 0 .37.11.51 0 3.61-1.42 6.16 1.2 9 2.5.88.41 2.56.32 2.48 2.1a23.48 23.48 0 0 1 0 3.56 16.39 16.39 0 0 1-5.61 9.91c-1.06.86-2 1.84-3.11 2.65-.75.56-1.35.51-1.31-.73a18.41 18.41 0 0 0-.33-2.46zM310 398.55c-.32-4.49 1-8.64 2.7-12.65 1.55-3.72 3.38-7.34 5.27-10.9a39.65 39.65 0 0 1 3.36-4.75c.53-.71.81-.58 1.06.29.49 1.7 1.19 3.34 1.63 5a2.87 2.87 0 0 1-.42 1.8c-1.36 2.67-3 5.24-4.11 8a21.33 21.33 0 0 0-1.74 6.7 16.17 16.17 0 0 0 2.13 9.95c1.86 3 4.66 4.74 7.06 7 3.08 2.94 5.86 6.19 8.68 9.39a1.81 1.81 0 0 1 0 1.75A47.11 47.11 0 0 1 332 424a1 1 0 0 1-.9-.11c-1.16-3.47-4-5.28-6.88-7.05-3.21-1.94-6.48-3.81-9.48-6a8.82 8.82 0 0 1-2.49-3.92c-1-2.7-1.77-5.5-2.64-8.27zm96.65-105.69c-4.29.26-7.47-2.34-10.94-4.13-4.45-2.31-7.31-6.75-11.86-8.9-2.16-1-4.41-1.82-6.59-2.78-.36-.15-.86-.65-.81-.92.3-1.79.72-3.56 1.12-5.33a2.71 2.71 0 0 1 .29-.56c.11.13.22.25.32.38a36.26 36.26 0 0 0 8.86 7.91 29.66 29.66 0 0 0 12.44 4.47 77.78 77.78 0 0 0 9.54.11 47 47 0 0 0 15.33-2.14c2-.68 4.07-1 6.12-1.51a2.22 2.22 0 0 1 .45 0 2.65 2.65 0 0 1-.37.55 90.57 90.57 0 0 1-7.44 6.31c-3.94 2.72-8 5.32-12.9 6.12-1.21.11-2.38.25-3.56.42zM432 248.34c-.46-3.16-.83-6.34-1.43-9.48-.22-1.15 0-1.44 1.08-1.37.28 0 .57-.11.85-.08 4.22.54 8.44 1 12.64 1.68 2.36.37 4.29 3.37 3.85 6a15.85 15.85 0 0 1-6.31 10c-1.77 1.4-3.46 2.91-5.27 4.27a25.88 25.88 0 0 1-3.49 2.14c-.17.1-.88-.3-.91-.53-.55-4.18-1-8.37-1.53-12.57z"/><path class="a" d="M414.39 276.37c-2.21.21-4.42.54-6.64.6-4.32.12-8.66.26-12.8-1.37-.37-.15-1-.41-1-.57.17-1.91.44-3.82.73-5.72a1.82 1.82 0 0 1 .9 0 29 29 0 0 0 3.55 1.26 83.38 83.38 0 0 0 9.9 1.52c1.84.12 3.74-.61 5.6-1 1.39-.29 2.77-.63 4.15-1a15.75 15.75 0 0 0 7.84-4.27c.23-.23.5-.42.75-.63a3.82 3.82 0 0 1 .28.89c.16 2.15.31 4.3.41 6.45a1 1 0 0 1-.46.79c-4.25 1.68-8.6 3.1-13.21 3.05zM376.37 242a6.39 6.39 0 0 1-.08 1.34c-.86 2.53-1.93 5-2.58 7.59a56 56 0 0 0-1.21 7.75c-.29 2.88-.37 5.79-.54 8.68-.06 1-.53 1.21-1.35.68a8.24 8.24 0 0 1-2.2-1.56c-1.69-2.26-3.72-4.45-4.71-7-1.35-3.5.86-6.57 2.45-9.62 1.51-2.89 4.25-4.14 6.86-5.61.69-.39 1.33-.88 2-1.32zm30.92 12.89c.23 1.16.48 2.33.67 3.5.15 1-.31 1.39-1.32 1.55a11.41 11.41 0 0 1-6.46-1.19c-1.31-.57-1.69-2-.6-3.62 1.41-2.09 2.85-4.37 5.77-4.59a1.59 1.59 0 0 1 1.33.67 34.17 34.17 0 0 1 .85 3.63z"/><path d="M452.15 563.74c0-2 1.9-4.42 3.54-4.46 2.18-.06 3.84 2.08 3.89 5a4 4 0 0 1-3.95 3.72c-2.47 0-3.45-1.23-3.48-4.26zm-52.05-6.17c0 2.4-1.61 4.23-3.72 4.26s-3.74-1.7-3.74-4.18 1.57-4.45 3.75-4.43c1.96.02 3.72 2.09 3.71 4.35zM372.19 559c-.07 2.77-1 4.25-2.83 5.08-2.51 1.12-4.64-.25-4.74-3-.08-2.13 1.2-3.62 2.62-4.79a3.09 3.09 0 0 1 2.95-.08 9.66 9.66 0 0 1 2 2.79zm-25.07 5.26a4 4 0 0 1-4.07 3.92 3.46 3.46 0 0 1-3.3-3.27c-.07-2.84 1.48-4.87 3.83-4.91 1.91 0 3.64 1.22 3.54 4.26zm-25.18.9c1.83-.09 3.28 1.74 3.42 4.31.09 1.8-2 3.57-4.38 3.75-1.84.13-3.23-1.28-3.31-3.37a4.26 4.26 0 0 1 4.27-4.69zm104.39-2.35a3.92 3.92 0 0 1-3.75-3.85c0-2.09 2.08-4.22 4-4.14 1.49.06 3.5 2.33 3.48 3.93a4 4 0 0 1-3.73 4.06zm54.45 3.81a3.85 3.85 0 0 1 3.61 3.64 4.53 4.53 0 0 1-4.37 4.33 3.32 3.32 0 0 1-3.18-3.33c-.01-2.21 2.04-4.63 3.94-4.64z"/></svg>