<svg xmlns="http://www.w3.org/2000/svg" viewBox="0 0 800 800"><defs><style>.a{fill:#e2a1b4;}</style></defs><title>main-stage</title><path d="M466.49,748.69q-80.88,0-161.76,0c-44.1-.07-88.2-.33-132.3-.47a44.87,44.87,0,0,0-7.14.5c-4.64.14-4.64-5.32-4.64-5.32,2.41-44.45.92-88.84,1.13-133.33.44-95.87.27-191.75.28-287.62q0-124-.12-248c0-6-.14-12-.14-18,0-4.39,2.51-6.9,6.6-6.33,17.08,2.35,34.27,1.6,51.4,1.66q108.15.4,216.29.28c52.12,0,104.24-.47,156.36-.46,13.75,0,27.49.39,41.2-.88,5.06-.47,6.18,2.54,5.54,6.19-2.16,12.5-.89,25.06-1,37.57-.36,30-.44,59.9-.52,89.86q-.27,108.43-.41,216.87-.13,124-.15,248c0,18-.05,35.95.06,53.92,0,6-.43,32.44.22,39.75.5,5.72-.65,7.35-6.13,7.11-24.55-1.1-49.11-.77-73.67-.93-30.35-.21-60.7,0-91.06,0Zm165.17-17.76V58.18c-155.31-.54-309.83-.3-464.94-.13,0,7.11,0,12.68,0,18.25l.18,178.59q.06,60.23.1,120.45c0,2.41.07,4.28,2.53,6.06,10.33,7.49,20.36,15.41,30.52,23.13q38.38,29.12,76.8,58.17c6.29,4.74,12.81,9.18,19.16,13.72,2-1.53,1.72-4.12,4.64-4.68,7.65-1.46,14.91-4.42,22.08-7.4,3-1.25,5.22-1.25,7.53,1.06,7.24,7.23,15.79,12.82,23.9,19,5,3.77,9.85,7.8,15.55,10.72,1.34-2.24.79-4.27.79-6.18,0-39.15-.33-78.3-.13-117.45.31-60.68.41-121.36-.47-182A14.06,14.06,0,0,1,378,176c13-6.15,25.59-13.07,38.44-19.48,3-1.49,4.95-1.08,7.52.71,11.31,7.87,21.45,17.19,32.27,25.67,19,14.86,37.2,30.6,57,44.49,15,10.53,28.48,23.08,43.36,33.83,4.2,3,6.64,6.87,6.19,12.66a194.66,194.66,0,0,0,0,22.14,7.84,7.84,0,0,1-5,8.06c-7.13,3.28-14,7.08-20.73,11-8.9,5.2-18.75,8.69-27.29,15,0,1,0,2,0,2.94.76,23.17-1.05,46.29-1.3,69.44-.05,5.11-.47,9.38,4.82,12,1.84.91,2,3.4,1.81,4.83-1.31,11.24,2.52,23.18-4.48,33.7-.68,1-.49,2.73-.41,4.1.81,15,2.4,30.07,8.22,43.88,5.54,13.16,3.94,24.8-2.86,36.45-8,13.78-29.57,13.6-38.36.46-9-13.5-7.76-27.52-4.43-42,2.83-12.28,8.38-23.66,12.35-35.57,1.43-4.27,3.29-8.17-1-12-1.3-1.13-1.1-3.34-1.08-5.15.07-7.38.08-14.77.24-22.15.07-3.39.11-7.11,2.82-9.47,2.15-1.88,2.4-3.91,2.37-6.34-.31-28.73,1.3-57.41,2.5-86.1.17-4.15-.95-6.64-4-9-8.8-6.88-17.29-14.15-26.19-20.88-6.59-5-12.49-10.92-19.73-15-1.16,1.63-.79,3.06-.8,4.4-.33,33.72-.71,67.45-.89,101.17-.23,42.74-.16,85.48-.51,128.22-.09,10.13,1.24,20.32-.6,30.4-1.27,7,1.21,11.83,7.6,15,2.11,1,3.85,2.82,5.75,4.29,10.73,8.27,21.36,16.67,32.22,24.78,9.09,6.79,18.59,13.06,27.61,19.94,3.29,2.51,7.09,5.31,6.86,10.34-.4,8.78,1.42,17.51.62,26.3-.4,4.33,1.31,7.51,4.84,10.18,15.75,11.92,31.29,24.11,47,36C590.72,700.42,610.89,715.39,631.66,730.93ZM376.59,525c7-3.64,9.64-10.29,12-17,9.23-25.67,10.56-52.7,13-79.45,2.35-25.78,2.88-51.7,3.65-77.59.65-21.72,1.67-43.44,1.52-65.19-.08-11.51,0-23,0-34.47a10.7,10.7,0,0,0-8.48,2.07c-7.95,5.4-10.55,13.72-11.7,22.55-2.71,20.95-3.32,42.12-6.48,63-1.65,10.91-.26,22-1.49,32.86-2.19,19.25-2.48,38.58-2.9,57.87-.64,29.53-.13,59.09,0,88.64C375.69,520.47,375.14,522.71,376.59,525ZM477.2,658.14c1.65-15.29-4.64-37.17-12.58-48.15-4.66-6.44-10.77-11.29-16.73-16q-33-26.22-66.85-51.25c-12.1-9-23.92-18.36-36.47-26.79-10.85-7.29-20.5-16.37-30.76-24.55-1.75-1.4-3.67-2.89-6.49-2.78.11,4.32,1.4,8,2.8,11.77,5.39,14.47,16.9,24.45,26.69,35.52,7.87,8.9,17.18,16.59,26.24,24.36,29.64,25.37,58.53,51.57,87.38,77.83C458.46,645.38,467.39,651.67,477.2,658.14ZM423.86,164c-4.05,9.77-2.71,21.68,3.15,32.33,10.29,18.72,24.69,34.1,40.45,48.14,13.19,11.75,27,22.78,38.53,36.3,2.88,3.38,6,4.79,10.29,1.81,2.57-1.77,5.85-2.47,8.73-3.83,15.43-7.24,17.47-15,5.67-27.11-10.47-10.75-21.45-21-33.75-29.94-13.88-10-26.93-21.19-40.36-31.84C445.83,181.3,435.06,172.82,423.86,164ZM409.05,545.74c6-2.49,7.66-3.91,9.67-8,7.84-16.16,10.42-33.34,10-51.13-.35-16.14-.79-32.29-.75-48.44,0-10.76.9-21.52,1.29-32.29.76-21.19-1.15-42.22-3.83-63.21-1.3-10.19-3.27-20.08-8-29.29-1.15-2.26-2.27-4.5-5.48-5.78C409.73,387.1,410.53,466.1,409.05,545.74ZM379.42,190.22c-.29,5.83,1.36,9.85,2.95,13.95,4.21,10.87,12.18,18.8,19.89,27.13,9.94,10.73,21.53,19.43,32.63,28.78,13.63,11.48,27.77,22.1,44.55,28.47,7.85,3,16,4.11,24.86-.26C463.92,253.7,421.17,223.35,379.42,190.22Zm116.4,478.49c-8.47,4.16-10.83,3.83-18-2.54C475,663.66,472,661.32,469,659q-29.16-22.47-58.36-44.89c-17.72-13.61-35.6-27-53.14-40.85-8.28-6.53-16.79-12.74-24.73-19.76A217.47,217.47,0,0,0,304,532c-4.6-2.87-6.14-5.8-5.67-10.35.8-7.79,0-15.57.3-23.34.18-3.93-1.42-6.35-5.81-7.69,0,12.1,0,23.83,0,35.56,0,2.28,1.41,3.38,3.11,4.67,15,11.35,30.28,22.31,44.2,35,11.65,10.62,24.45,19.85,36.91,29.4,16.69,12.8,33.58,25.37,50.22,38.25,18.61,14.39,37.27,28.71,55.69,42.9M497.77,455c-.74,2.24-1.6,4.45-2.19,6.73-3.92,15-11.95,28.69-14,44.29-1,8-2.09,16,2.37,23.23,3.08,5,7.21,9.27,13.72,9.06,5.7-.18,11.38-5.24,12.79-11,1.14-4.68,1.64-9.55.12-14.19C504.39,494.14,499.72,474.91,497.77,455Zm10.52,153.88c-21.12-18-42.05-33.44-63.68-49-2.11,7,1.22,11.35,4,15.84,9.57,15.6,24.12,26.27,37.76,37.83,1.4,1.19,2.88,2.18,4.86,1.47ZM516,319.13c12.55-6,24.84-11.77,36.78-18.54-3.59-8.17-9.16-12.15-17.77-12.09-5.52,0-10.58,1.57-15.65,3.32-2.2.76-3.78,2.2-4,4.72C514.89,303.85,514.44,311.17,516,319.13ZM361.78,497.05a28.83,28.83,0,0,0-2.69-2.84c-9.38-7-19.38-13.29-27.81-21.6-1.73-1.71-4-3.56-6.94-2.25-4.85,2.13-10,3.52-14.78,6.8,6,5.48,13.42,8.3,19.6,12.91,4.49,3.34,9.22,6.24,14.63,7.75C349.51,499.43,355.3,500.73,361.78,497.05ZM489.21,652.27c14.27-4.8,23.1-21.69,19.55-36.92-7,1.26-13.9,2.83-20.17,6.26C489.38,631.93,487.89,641.84,489.21,652.27Z"/><path class="a" d="M631.66,730.93c-20.77-15.54-40.94-30.51-61-45.65-15.75-11.91-31.29-24.1-47-36-3.53-2.67-5.24-5.85-4.84-10.18.8-8.79-1-17.52-.62-26.3.23-5-3.57-7.83-6.86-10.34-9-6.88-18.52-13.15-27.61-19.94-10.86-8.11-21.49-16.51-32.22-24.78-1.9-1.47-3.64-3.26-5.75-4.29-6.39-3.14-8.87-8-7.6-15,1.84-10.08.51-20.27.6-30.4.35-42.74.28-85.48.51-128.22.18-33.72.56-67.45.89-101.17,0-1.34-.36-2.77.8-4.4,7.24,4.12,13.14,10.06,19.73,15,8.9,6.73,17.39,14,26.19,20.88,3.08,2.4,4.2,4.89,4,9-1.2,28.69-2.81,57.37-2.5,86.1,0,2.43-.22,4.46-2.37,6.34-2.71,2.36-2.75,6.08-2.82,9.47-.16,7.38-.17,14.77-.24,22.15,0,1.81-.22,4,1.08,5.15,4.34,3.79,2.48,7.69,1,12-4,11.91-9.52,23.29-12.35,35.57-3.33,14.44-4.6,28.46,4.43,42,8.79,13.14,30.32,13.32,38.36-.46,6.8-11.65,8.4-23.29,2.86-36.45-5.82-13.81-7.41-28.89-8.22-43.88-.08-1.37-.27-3.09.41-4.1,7-10.52,3.17-22.46,4.48-33.7.17-1.43,0-3.92-1.81-4.83-5.29-2.65-4.87-6.92-4.82-12,.25-23.15,2.06-46.27,1.3-69.44,0-1,0-2,0-2.94,8.54-6.28,18.39-9.77,27.29-15,6.76-4,13.6-7.76,20.73-11a7.84,7.84,0,0,0,5-8.06,194.66,194.66,0,0,1,0-22.14c.45-5.79-2-9.63-6.19-12.66-14.88-10.75-28.38-23.3-43.36-33.83-19.77-13.89-38-29.63-57-44.49-10.82-8.48-21-17.8-32.27-25.67-2.57-1.79-4.55-2.2-7.52-.71C403.6,162.94,391,169.86,378,176a14.06,14.06,0,0,0-8.11,13.41c.88,60.67.78,121.35.47,182-.2,39.15.1,78.3.13,117.45,0,1.91.55,3.94-.79,6.18-5.7-2.92-10.56-6.95-15.55-10.72-8.11-6.14-16.66-11.73-23.9-19-2.31-2.31-4.53-2.31-7.53-1.06-7.17,3-14.43,5.94-22.08,7.4-2.92.56-2.66,3.15-4.64,4.68-6.35-4.54-12.87-9-19.16-13.72q-38.46-29-76.8-58.17c-10.16-7.72-20.19-15.64-30.52-23.13-2.46-1.78-2.53-3.65-2.53-6.06q0-60.22-.1-120.45L166.72,76.3c0-5.57,0-11.14,0-18.25,155.11-.17,309.63-.41,464.94.13ZM271.71,414.64c2.93-4.88,5.08-9.76,8-14.15,6.62-9.82,20.52-14,31.6-9.9,5.28,2,9.1,6.3,14.29,8,3.94-3.36,4.38-6.51.83-9.86-2.23-2.12-3.39-4.93-4.84-7.52-6.34-11.4-5.46-29.29,1.8-38.05,1.33-1.6,3.9-2.68,2.32-5.41-1.46-2.53-3.78-3.11-6.65-2.94-13.23.79-18.08-2.36-24-14.3-2.25-4.55-1.91-9.71-4.07-14.31-1.91-.39-3.62-.71-5.59,1.15a70.06,70.06,0,0,1,1.34,18.55c-1,12.28-15.76,27.95-28.25,25.9-2-.33-4.75-.72-5.36,2.32-.69,3.42,1.82,4.08,4.44,5.11,6.08,2.41,11.36,6,12.87,13,2.58,11.89,3.12,23.74-1.72,35.24C267.54,410.45,268,412.4,271.71,414.64ZM252,292.74c5.15-3.79,9-8.8,14.86-11.27,11.4-4.82,23-6,34.89-2.25,2.19.69,4.11,3,6.45.72,2.16-2.12,1.05-4.5-.09-6.63-3.18-5.95-4.28-12.45-4.68-19-.5-8.07.26-15.91,6.33-22.28,2.15-2.25,1.41-4.71-.56-6.62-3.51.22-6.71.79-9.83.52-8.23-.69-15.45-2.87-19.28-11.59-2.19-5-4.33-9.82-4.74-15.27-.18-2.36-.66-4.8-3.54-4.5s-2.88,2.86-2.78,5.14c0,.6.22,1.19.22,1.78-.08,19-9.23,32.91-27.52,38.66-2.1.66-3.92,1.19-3.85,3.7s1.95,2.89,4.14,3.23c8,1.26,12.33,5.64,13.63,13.59,1.48,9.05-.08,17.52-5.54,25C247.92,288.59,248.14,290.71,252,292.74Zm54.95-87.21c4.52-.83,5.71-4,7.14-7.1,6.7-14.43,16.52-18.7,31-13.12a42.88,42.88,0,0,1,13.37,8.7c1.51,1.38,3.1,2.87,5.19,1.17s1.44-3.93.28-5.92a32.83,32.83,0,0,0-2.23-2.82c-11.82-15.84-8.79-32.25,2.84-45.16,1.55-1.72,4.35-3,2.71-5.8s-4.28-2-6.86-1c-6.57,2.74-13,.88-19.28-1.14-3-1-6.3-2.87-7.14-6-1.5-5.56-5.12-10.46-5.07-16.48,0-2.89-1.64-3.73-4-3.48a4.12,4.12,0,0,0-1.32,4.1c1,6.12-1,11.53-4.29,16.39-6.06,8.85-12.79,16.93-24.55,18.32-2.31.27-5.13,1.12-4.95,4.2s2.62,3.65,5.27,3.58a9.47,9.47,0,0,1,7.51,3.11c4.58,5,7.55,10.77,7.86,17.67s0,13.9-2.45,20.63C306.84,198.43,305,201.6,306.9,205.53Z"/><path class="a" d="M376.59,525c-1.45-2.32-.9-4.56-.9-6.65-.09-29.55-.6-59.11,0-88.64.42-19.29.71-38.62,2.9-57.87,1.23-10.87-.16-21.95,1.49-32.86,3.16-20.9,3.77-42.07,6.48-63,1.15-8.83,3.75-17.15,11.7-22.55a10.7,10.7,0,0,1,8.48-2.07c0,11.45-.06,23,0,34.47.15,21.75-.87,43.47-1.52,65.19-.77,25.89-1.3,51.81-3.65,77.59-2.44,26.75-3.77,53.78-13,79.45C386.23,514.74,383.62,521.39,376.59,525Z"/><path class="a" d="M477.2,658.14c-9.81-6.47-18.74-12.76-26.77-20.07-28.85-26.26-57.74-52.46-87.38-77.83-9.06-7.77-18.37-15.46-26.24-24.36-9.79-11.07-21.3-21-26.69-35.52-1.4-3.74-2.69-7.45-2.8-11.77,2.82-.11,4.74,1.38,6.49,2.78,10.26,8.18,19.91,17.26,30.76,24.55,12.55,8.43,24.37,17.8,36.47,26.79q33.81,25.13,66.85,51.25c6,4.74,12.07,9.59,16.73,16C472.56,621,478.85,642.85,477.2,658.14Z"/><path class="a" d="M423.86,164c11.2,8.86,22,17.34,32.71,25.86,13.43,10.65,26.48,21.81,40.36,31.84,12.3,8.89,23.28,19.19,33.75,29.94,11.8,12.11,9.76,19.87-5.67,27.11-2.88,1.36-6.16,2.06-8.73,3.83-4.31,3-7.41,1.57-10.29-1.81-11.51-13.52-25.34-24.55-38.53-36.3C451.7,230.39,437.3,215,427,196.29,421.15,185.64,419.81,173.73,423.86,164Z"/><path class="a" d="M409.05,545.74c1.48-79.64.68-158.64,3-238.18,3.21,1.28,4.33,3.52,5.48,5.78,4.71,9.21,6.68,19.1,8,29.29,2.68,21,4.59,42,3.83,63.21-.39,10.77-1.26,21.53-1.29,32.29,0,16.15.4,32.3.75,48.44.38,17.79-2.2,35-10,51.13C416.71,541.83,415,543.25,409.05,545.74Z"/><path class="a" d="M379.42,190.22c41.75,33.13,84.5,63.48,124.88,98.07-8.83,4.37-17,3.24-24.86.26-16.78-6.37-30.92-17-44.55-28.47-11.1-9.35-22.69-18-32.63-28.78-7.71-8.33-15.68-16.26-19.89-27.13C380.78,200.07,379.13,196.05,379.42,190.22Z"/><path class="a" d="M539.18,643.25c-11.9,5.1-41.39,29.71-56.22,33.18-18.42-14.19-37.08-28.51-55.69-42.9-16.64-12.88-33.53-25.45-50.22-38.25-12.46-9.55-25.26-18.78-36.91-29.4-13.92-12.69-29.22-23.65-44.2-35-1.7-1.29-3.11-2.39-3.11-4.67,0-11.73,0-45.8,0-57.9,4.39,1.34,6-3.93,5.81,0-.34,7.77.5,45.58-.3,53.37-.47,4.55,1.07,7.48,5.67,10.35a217.47,217.47,0,0,1,28.71,21.48c7.94,7,16.45,13.23,24.73,19.76,17.54,13.84,35.42,27.24,53.14,40.85Q439.8,636.55,469,659c3,2.31,6,4.65,8.82,7.16,7.21,6.37,7.12,3.77,15.6-.39,5-2.46,31.67-22.83,36.79-25.07C534.12,639,535.32,638.91,539.18,643.25Z"/><path class="a" d="M497.77,455c2,19.94,6.62,39.17,12.82,58.11,1.52,4.64,1,9.51-.12,14.19-1.41,5.77-7.09,10.83-12.79,11-6.51.21-10.64-4.07-13.72-9.06C479.5,522,480.54,514,481.59,506c2-15.6,10.07-29.29,14-44.29C496.17,459.42,497,457.21,497.77,455Z"/><path class="a" d="M508.29,608.85,491.21,615c-2,.71-3.46-.28-4.86-1.47-13.64-11.56-28.19-22.23-37.76-37.83-2.76-4.49-6.09-8.88-4-15.84C466.24,575.41,487.17,590.86,508.29,608.85Z"/><path class="a" d="M516,319.13c-1.58-8-1.13-15.28-.61-22.59.19-2.52,1.77-4,4-4.72,5.07-1.75,10.13-3.28,15.65-3.32,8.61-.06,14.18,3.92,17.77,12.09C540.86,307.36,528.57,313.1,516,319.13Z"/><path class="a" d="M361.78,497.05c-6.48,3.68-12.27,2.38-18,.77-5.41-1.51-10.14-4.41-14.63-7.75-6.18-4.61-13.56-7.43-19.6-12.91,4.73-3.28,9.93-4.67,14.78-6.8,3-1.31,5.21.54,6.94,2.25,8.43,8.31,18.43,14.55,27.81,21.6A28.83,28.83,0,0,1,361.78,497.05Z"/><path class="a" d="M489.21,652.27c-1.32-10.43.17-20.34-.62-30.66,6.27-3.43,13.15-5,20.17-6.26C512.31,630.58,503.48,647.47,489.21,652.27Z"/><path d="M271.71,414.64c-3.67-2.24-4.17-4.19-2.92-7.17,4.84-11.5,4.3-23.35,1.72-35.24-1.51-7-6.79-10.55-12.87-13-2.62-1-5.13-1.69-4.44-5.11.61-3,3.35-2.65,5.36-2.32,12.49,2.05,27.27-13.62,28.25-25.9a70.06,70.06,0,0,0-1.34-18.55c2-1.86,3.68-1.54,5.59-1.15,2.16,4.6,1.82,9.76,4.07,14.31,5.89,11.94,10.74,15.09,24,14.3,2.87-.17,5.19.41,6.65,2.94,1.58,2.73-1,3.81-2.32,5.41-7.26,8.76-8.14,26.65-1.8,38.05,1.45,2.59,2.61,5.4,4.84,7.52,3.55,3.35,3.11,6.5-.83,9.86-5.19-1.74-9-6.09-14.29-8-11.08-4.11-25,.08-31.6,9.9C276.79,404.88,274.64,409.76,271.71,414.64Zm13.84-70.74,18.39-4.6c-5.56-2.41-8.28-6.11-12-9.85C291.34,335,288.37,338.8,285.55,343.9Z"/><path d="M252,292.74c-3.81-2-4-4.15-1.89-7.08,5.46-7.49,7-16,5.54-25-1.3-7.95-5.65-12.33-13.63-13.59-2.19-.34-4.07-.63-4.14-3.23s1.75-3,3.85-3.7c18.29-5.75,27.44-19.66,27.52-38.66,0-.59-.2-1.18-.22-1.78-.1-2.28,0-4.86,2.78-5.14s3.36,2.14,3.54,4.5c.41,5.45,2.55,10.28,4.74,15.27,3.83,8.72,11,10.9,19.28,11.59,3.12.27,6.32-.3,9.83-.52,2,1.91,2.71,4.37.56,6.62-6.07,6.37-6.83,14.21-6.33,22.28.4,6.57,1.5,13.07,4.68,19,1.14,2.13,2.25,4.51.09,6.63-2.34,2.31-4.26,0-6.45-.72-11.88-3.75-23.49-2.57-34.89,2.25C261,283.94,257.1,289,252,292.74Zm9.71-33c5.23-13.65,14.61-22.83,29.16-28.55C283.11,228,278.29,223,273.59,216,270,229,262.28,237.16,251.88,244A22.5,22.5,0,0,1,261.66,259.72Z"/><path d="M306.9,205.53c-1.87-3.93-.06-7.1,1-10.09,2.49-6.73,2.77-13.63,2.45-20.63s-3.28-12.67-7.86-17.67A9.47,9.47,0,0,0,295,154c-2.65.07-5.1-.61-5.27-3.58s2.64-3.93,4.95-4.2c11.76-1.39,18.49-9.47,24.55-18.32,3.32-4.86,5.29-10.27,4.29-16.39a4.12,4.12,0,0,1,1.32-4.1c2.37-.25,4,.59,4,3.48-.05,6,3.57,10.92,5.07,16.48.84,3.1,4.16,5,7.14,6,6.25,2,12.71,3.88,19.28,1.14,2.58-1.08,5.2-1.9,6.86,1s-1.16,4.08-2.71,5.8c-11.63,12.91-14.66,29.32-2.84,45.16a32.83,32.83,0,0,1,2.23,2.82c1.16,2,1.91,4.15-.28,5.92s-3.68.21-5.19-1.17a42.88,42.88,0,0,0-13.37-8.7c-14.5-5.58-24.32-1.31-31,13.12C312.61,201.51,311.42,204.7,306.9,205.53ZM316,176.3c15.28-2,33.5-19.31,36.39-33.92-4.93-1.37-10.12-1.78-14.88-4-4.94-2.26-5.81-8.37-11.13-11.18a72.75,72.75,0,0,1-21.72,23.62C312.5,157.68,315.49,166.34,316,176.3Z"/><path class="a" d="M278.66,349.11c5.65-5.21,12.68-14.12,13.32-19.66,3.68,3.74,10.2,8,19.54,9.83C295.09,355.07,278.66,349.11,278.66,349.11Z"/><path class="a" d="M261.66,259.72A22.5,22.5,0,0,0,251.88,244c10.4-6.79,18.13-15,21.71-27.94,4.7,6.94,9.52,12,17.23,15.16C276.27,236.89,266.89,246.07,261.66,259.72Z"/><path class="a" d="M316,176.3c-.47-10-3.46-18.62-11.34-25.44a72.75,72.75,0,0,0,21.72-23.62c5.32,2.81,6.19,8.92,11.13,11.18,4.76,2.18,9.95,2.59,14.88,4C349.46,157,331.24,174.32,316,176.3Z"/></svg>