<svg xmlns="http://www.w3.org/2000/svg" viewBox="0 0 800 800"><defs><style>.a{fill:#e2a1b4;}</style></defs><title>mans-ruin</title><path d="M160.27,740.72c1.39-57.78.77-115.56,1-173.34.36-96.92-.71-193.84-.58-290.75.11-73.25,1.29-146.49,1.24-219.73,0-4.29.13-7.13,6-6.89,35.67,1.51,71.36.76,107.05.9,49.14.18,98.29.54,147.43.6,38.1,0,76.2-.33,114.29-.37,32.09,0,64.17.11,96.25.21,5.9,0,6.85,1.2,6.83,7.15q-.36,108-.67,216.05-.19,78.85-.24,157.7,0,108.94.14,217.88,0,46,.1,92.06c0,7.58-.66,7.86-8.43,7.81q-44.48-.33-89-.31-98.7,0-197.41.14-87.58.07-175.16.11C160.27,750,160.27,750,160.27,740.72Zm474.36,4.34V55.73c-27.73-2.27-460.4-.87-467.8,1.46-2.69,21.24-2.5,682.82-.16,687.87Z"/><path class="a" d="M634.63,745.06h-468c-2.34-5-2.53-666.63.16-687.87,7.4-2.33,440.07-3.73,467.8-1.46Zm-106-268.94c3.4.91,4.17-1,4.36-3.85.28-4.22,1.72-8.18,2.9-12.22,2.17-7.38,7-13.6,9.07-20.9,6.47-23,4.22-45.21-7.39-66.33-8.8-16-14.11-32.7-9-51-2.27-1.95-4.62-3.21-6,0-2.6,6-6.1,11.6-7,18.41-1.7,12.49,2.32,24.27,3.55,36.38.47,4.62,1,9.18-.66,13.68-.82,2.24-2,4-4.68,3.82s-3.62-2.18-3.87-4.54a60.83,60.83,0,0,1-.19-10.8c.76-10.49,1.41-21.41-5.19-30.19-4.81-6.39-4.3-11.75-1.09-18,.37-.71.76-1.42,1.11-2.14,10.33-21.65,18.12-44.13,20.5-68.1,2.16-21.71.46-42.64-12.87-61.46-9.62-13.58-24.59-19.95-40.66-16.2-9.2,2.15-16.15,8-24.4,13.07.62-6.44,1.12-12.39,1.77-18.33.39-3.6,1.71-7,2.95-10.37,3.48-9.49,1.46-12.72-8.42-14.43A80.65,80.65,0,0,1,406,135.5a56.61,56.61,0,0,0-17.75-9.76c-7.88-2.66-14.91-1.54-20.37,4.12-4.69,4.87-4.75,11.61-2.74,18,3.87,12.27,6.1,24.91,8.26,37.54.84,4.89,1.88,10,1,15.22-16.11-7.74-32-11.94-48.82-4.35a149.86,149.86,0,0,0-13.69,7.44,62.56,62.56,0,0,0-26.61,30.65c-5.35,13.06-5.6,27.5-4.56,41.49,1.81,24.3,13.68,44.93,26,65.1,5.1,8.29,8.85,15.94,5,26-3.31,8.6-6.73,17.15-10.6,25.49-6.25,13.5-8,27-3.26,41.43,2.27,7,4.87,14,4.94,21.57,0,1.6.21,3.5-1.69,4.09-2.15.67-3.33-.95-4.18-2.62a48.22,48.22,0,0,1-4.89-15.39c-1.3-9.77-5.41-18.4-10.86-26.46-1.69-2.5-3.6-5.12-7.29-2a21.72,21.72,0,0,0,.55,2.28c6.71,19.86,6.49,39.56-.33,59.45-3.54,10.31-4.85,21.05-1.61,31.94a59.55,59.55,0,0,0,13.22,22.94c4.28-3.33,1-5.65-.37-7.44-9.9-13.35-12.82-27.72-7.12-43.56A102.76,102.76,0,0,0,284.07,447a68.36,68.36,0,0,0-1-16.54c2,1.74,2.1,3.2,2.49,4.52,2.47,8.24,3.75,16.79,6.82,24.9,1.31,3.49,3.09,7,6.62,6.67,4-.4,6.91-3.75,8.14-7.89a14.14,14.14,0,0,0,.25-3.58c.13-5.12-1.45-9.91-3.2-14.59-5.6-15-6.89-29.78.12-44.94,3.09-6.68,6.82-13.1,9.2-20.13,4.19-12.39,6-25,4.28-38.21a27.47,27.47,0,0,1,5.56,9.8c3.39,9.61,3.91,19.59,4.4,29.64.3,6.15.94,12.34,3.92,18,2.1,4,6.24,6.22,9.77,5.58a12,12,0,0,0,9.15-8.54,39.12,39.12,0,0,0,.24-21.3c-2.08-7.94-3.58-16-5.52-24-3.88-16-5.16-32-.58-48,.71-2.51.93-5.31,3.68-7.71-.12,2.16-.1,3.57-.3,4.94-3,20,2.78,37.9,14,53.94a55.92,55.92,0,0,1,10.45,27.65c.66,7,2.21,13.9,7.28,19.34s11.5,4.88,15.57-1.07c3.56-5.23,5.86-10.82,4.92-17.42a109.83,109.83,0,0,0-3.78-16.35c-2.8-9.25-5.85-18.5-3.94-28.5a77.51,77.51,0,0,0,16.26,29.1c3.59,4,5.29,9.26,6.06,14.83,1.4,10.14,1.39,20.51,4.7,30.39,1.68,5,3.79,8.92,9.73,9.87,5.5.88,9.45-.86,12.28-5.38,4.19-6.68-6.58-14.15-8-21.49-2.64-14,5.09-27.89-.51-41.06-4.61-10.82-6.53-21.65-3.27-33.35a128.83,128.83,0,0,1,5.57-17.1,76.84,76.84,0,0,0,6.35-22.47,160.46,160.46,0,0,0,.71-22c6.25,10.51,8.6,20.68,9.42,31.36,1.12,14.61.86,29.26,1.41,43.88A48.07,48.07,0,0,0,460.54,353c1.36,2.26,3,4.06,5.81,4.82,6.65,1.81,11.67-1.67,14.18-10.19,1.94-6.56,1-13.17-.1-19.67-1.69-10.11,1-19.19,5.45-28.43,1.38,1.77.56,3.12.51,4.39-.58,14.14.25,28.05,9.56,39.65,7.06,8.8,9.83,18.57,9.19,29.63-.36,6.21-.6,12.47.42,18.63,1.3,7.82,7.49,10,13.62,5a12.43,12.43,0,0,0,5-9.79c.31-8.11-1.25-15.93-2.89-23.79-1.7-8.17-2.87-16.38-.22-24.65,1.51,14.14,7,26.58,13.43,39.12,12.21,23.79,13.41,48.33.51,72.67A104.31,104.31,0,0,0,528.8,466c-.71,2.11-.29,4.7-2.17,6.57-.77-.53-1.54-.77-1.68-1.2-4.37-14.13-8.84-28.24-12.9-42.46-1-3.52-2.38-4.76-5.86-3.85s-7.05,1.56-10.54,2.49c-14.1,3.74-28.26,7.2-42.29,11.3-8.92,2.6-18.21,4.44-27.28,6.81-2,.54-4,1.22-5.42,3.34-9.17,13.61-20.68,25.48-28.84,39.35-18.18-7.69-31.6-22.38-49.42-30.16-1.58,2.3-2.83,3.87-3.81,5.58-5.72,10-11.19,20.16-17.63,29.8-10.14,15.19-22.55,28.61-33,43.58-2.18,3.14-2.83,6.16-1.5,9.55a161.27,161.27,0,0,1,7.78,27.76c1.84,9.33,7.68,17.47,7.61,27.31,0,1.93,2,2.79,3.45,3.87,7,5,14,10.11,20.8,15.35,16.37,12.51,32.09,25.86,49.52,37,4.51,2.88,6.89,1.65,9.06-2.44,7.91-14.88,17.33-28.83,26.73-42.78,7.2-10.69,9-26.93,28.85-23.53a21,21,0,0,0,3.56-.54,419.69,419.69,0,0,0,55.23-11.57,17.19,17.19,0,0,0,8.44-5.35c4.72-5.27,7.48-11.9,12-17.23,8.15-9.68,14.71-20.45,22.29-30.6-5.72-12.05-8.21-24.9-11.76-37.4-.87-3-4.67-5.39-2.58-9.23ZM472.49,158.54a10.44,10.44,0,0,0,2.2.49c14.94-.11,26.87,7,37.77,16.16a104.7,104.7,0,0,0,14.72,10.28c6.2,3.62,15.21,2.42,20.63-2.66,4.92-4.62,5.66-11.09,1.94-18.16-4.51-8.58-11.26-14.34-21.06-15.72-18-2.53-35.54.17-53,4C472.92,153.57,471.66,155.4,472.49,158.54Zm-63.69-30c3.91,1.16,5.42-.75,6.83-2.75,9.09-12.91,22.06-19.29,37.12-22.32A49.7,49.7,0,0,0,468.82,97a9.93,9.93,0,0,0,4.88-8.45c.88-13.41-9.77-20.31-21.38-17.46-16.46,4-27.81,15.18-36.14,29.38A51.44,51.44,0,0,0,408.8,128.5Zm23.33,14.05a3.32,3.32,0,0,0,3.52.25c11.7-4.27,23.83-4.93,36.11-4.37,5.58.25,11,2,16.72,1.15,5.94-.89,13.41-7.57,14.12-13,1.5-11.28-7.85-22-19.11-21.41a36,36,0,0,0-11.7,2.36c-15.74,6.49-27.47,18.34-39.13,30.19A3.44,3.44,0,0,0,432.13,142.55ZM220.4,675.47c4.89,1.13,6.38-.68,7.9-2.19,16.34-16.23,34-31,51-46.59,4.26-3.91,3.93-5.68-2.27-10.81C258.62,635.6,238.29,653.56,220.4,675.47Zm47.09,20.88c2.16-.41,2.8-2.52,3.46-4.19,8.55-21.62,20.27-41.8,28.87-63.39,1-2.48,1.89-4.52-1.4-5.85-3-1.23-5.34-1.27-6.64,2.46-1.71,4.91-3.8,9.68-5.59,14.55-6.36,17.29-13.65,34.23-19,51.89C266.77,693.23,265.33,694.66,267.49,696.35ZM272,597c-11.58,4.29-22.85,8.26-34.37,11.51-7.28,2-14.29,5.08-21.43,7.65-1.75.63-3.72,1.26-3,3.63s2.84,1.75,4.61,1.59a10.78,10.78,0,0,0,1.74-.43c7.93-2,15.88-3.92,23.78-6,10-2.63,20-5.38,29.84-8C274.32,603.47,273.55,600.65,272,597Zm-46.5-32.6c14.81,7.47,30.59,12.24,45.18,19.24,5.21-5.87,5.53-8.35,1.25-9.5-13.93-3.74-27.32-9.26-41.41-12.4C228.76,561.3,226.92,560.81,225.52,564.36ZM312,682.46c3.77-2.33,3.69-4.38,4-6.35,2.27-14.18,2.24-28.66,5.42-42.73.59-2.63-1-3.58-3.36-3.76-2.85-.22-5.6-.2-7.68,2.61C313,648.42,309.53,665.07,312,682.46Z"/><path d="M527.44,477.32c2.58,9.23,1.71,6.19,2.58,9.23,3.55,12.5,6,25.35,11.76,37.4-7.58,10.15-14.14,20.92-22.29,30.6-4.48,5.33-7.24,12-12,17.23a17.19,17.19,0,0,1-8.44,5.35,419.69,419.69,0,0,1-55.23,11.57,21,21,0,0,1-3.56.54l-12.49,1.53s-11.18,14.32-16.36,22c-9.4,14-18.82,27.9-26.73,42.78-2.17,4.09-4.55,5.32-9.06,2.44-17.43-11.11-33.15-24.46-49.52-37-6.84-5.24-13.81-10.31-20.8-15.35-1.49-1.08-3.46-1.94-3.45-3.87.07-9.84-5.77-18-7.61-27.31a161.27,161.27,0,0,0-7.78-27.76c-1.33-3.39-.68-6.41,1.5-9.55,10.41-15,22.82-28.39,33-43.58,6.44-9.64,11.91-19.77,17.63-29.8,1-1.71,2.23-3.28,3.81-5.58,17.82,7.78,31.24,22.47,49.42,30.16,8.16-13.87,19.67-25.74,28.84-39.35,1.43-2.12,3.38-2.8,5.42-3.34,9.07-2.37,18.36-4.21,27.28-6.81,14-4.1,28.19-7.56,42.29-11.3,3.49-.93,7.05-1.58,10.54-2.49s4.86.33,5.86,3.85c3.46,12.1,7.21,24.12,10.94,36.15.66,2.1,1.31,4.21,2,6.31.14.43.91.67,1.68,1.2,1.88-1.87,1.46-4.46,2.17-6.57A104.31,104.31,0,0,1,535,450.4c12.9-24.34,11.7-48.88-.51-72.67-6.43-12.54-11.92-25-13.43-39.12-2.65,8.27-1.48,16.48.22,24.65,1.64,7.86,3.2,15.68,2.89,23.79a12.43,12.43,0,0,1-5,9.79c-6.13,5-12.32,2.83-13.62-5-1-6.16-.78-12.42-.42-18.63.64-11.06-2.13-20.83-9.19-29.63-9.31-11.6-10.14-25.51-9.56-39.65.05-1.27.87-2.62-.51-4.39-4.49,9.24-7.14,18.32-5.45,28.43,1.09,6.5,2,13.11.1,19.67-2.51,8.52-7.53,12-14.18,10.19-2.82-.76-4.45-2.56-5.81-4.82a48.07,48.07,0,0,1-7.18-23.32c-.55-14.62-.29-29.27-1.41-43.88-.82-10.68-3.17-20.85-9.42-31.36a160.46,160.46,0,0,1-.71,22,76.84,76.84,0,0,1-6.35,22.47A128.83,128.83,0,0,0,429.9,316c-3.26,11.7-1.34,22.53,3.27,33.35,5.6,13.17,1.87,27.06,4.51,41.06,1.39,7.34,8.16,14.81,4,21.49-2.83,4.52-6.78,6.26-12.28,5.38-5.94-1-8.05-4.89-9.73-9.87-3.31-9.88-3.3-20.25-4.7-30.39-.77-5.57-2.47-10.82-6.06-14.83a77.51,77.51,0,0,1-16.26-29.1c-1.91,10,1.14,19.25,3.94,28.5A109.83,109.83,0,0,1,400.34,378c.94,6.6-1.36,12.19-4.92,17.42-4.07,5.95-10.63,6.36-15.57,1.07s-6.62-12.36-7.28-19.34a55.92,55.92,0,0,0-10.45-27.65c-11.2-16-16.95-34-14-53.94.2-1.37.18-2.78.3-4.94-2.75,2.4-3,5.2-3.68,7.71-4.58,16.06-3.3,32.06.58,48,1.94,8,3.44,16.08,5.52,24a39.12,39.12,0,0,1-.24,21.3,12,12,0,0,1-9.15,8.54c-3.53.64-7.67-1.62-9.77-5.58-3-5.63-3.62-11.82-3.92-18-.49-10.05-1-20-4.4-29.64a27.47,27.47,0,0,0-5.56-9.8c1.74,13.2-.09,25.82-4.28,38.21-2.38,7-6.11,13.45-9.2,20.13-7,15.16-5.72,29.92-.12,44.94,1.75,4.68,3.33,9.47,3.2,14.59a14.14,14.14,0,0,1-.25,3.58c-1.23,4.14-4.17,7.49-8.14,7.89-3.53.35-5.31-3.18-6.62-6.67-3.07-8.11-4.35-16.66-6.82-24.9-.39-1.32-.47-2.78-2.49-4.52a68.36,68.36,0,0,1,1,16.54,102.76,102.76,0,0,1-5.82,31.65c-5.7,15.84-2.78,30.21,7.12,43.56,1.33,1.79,4.65,4.11.37,7.44a59.55,59.55,0,0,1-13.22-22.94c-3.24-10.89-1.93-21.63,1.61-31.94,6.82-19.89,7-39.59.33-59.45a21.72,21.72,0,0,1-.55-2.28c3.69-3.08,5.6-.46,7.29,2,5.45,8.06,9.56,16.69,10.86,26.46A48.22,48.22,0,0,0,297,456.91c.85,1.67,2,3.29,4.18,2.62,1.9-.59,1.71-2.49,1.69-4.09-.07-7.54-2.67-14.61-4.94-21.57-4.71-14.44-3-27.93,3.26-41.43,3.87-8.34,7.29-16.89,10.6-25.49,3.89-10.08.14-17.73-5-26-12.37-20.17-24.24-40.8-26-65.1-1-14-.79-28.43,4.56-41.49a62.56,62.56,0,0,1,26.61-30.65,149.86,149.86,0,0,1,13.69-7.44c16.81-7.59,32.71-3.39,48.82,4.35.88-5.24-.16-10.33-1-15.22-2.16-12.63-4.39-25.27-8.26-37.54-2-6.37-1.95-13.11,2.74-18,5.46-5.66,12.49-6.78,20.37-4.12A56.61,56.61,0,0,1,406,135.5a80.65,80.65,0,0,0,37.28,17.13c9.88,1.71,11.9,4.94,8.42,14.43-1.24,3.39-2.56,6.77-2.95,10.37-.65,5.94-1.15,11.89-1.77,18.33,8.25-5.06,15.2-10.92,24.4-13.07,16.07-3.75,31,2.62,40.66,16.2,13.33,18.82,15,39.75,12.87,61.46-2.38,24-10.17,46.45-20.5,68.1-.35.72-.74,1.43-1.11,2.14-3.21,6.2-3.72,11.56,1.09,18,6.6,8.78,6,19.7,5.19,30.19a60.83,60.83,0,0,0,.19,10.8c.25,2.36,1.05,4.36,3.87,4.54s3.86-1.58,4.68-3.82c1.66-4.5,1.13-9.06.66-13.68-1.23-12.11-5.25-23.89-3.55-36.38.93-6.81,4.43-12.39,7-18.41,1.38-3.19,3.73-1.93,6,0-5.06,18.32.25,35,9,51,11.61,21.12,13.86,43.3,7.39,66.33-2,7.3-6.9,13.52-9.07,20.9-1.18,4-2.62,8-2.9,12.22-.19,2.88-1,4.76-4.36,3.85C528,475.43,526.26,477.26,527.44,477.32Zm-91.05,81.33a1.37,1.37,0,0,0,.16.43c0,.06.21,0,.32,0l-.57-.34c-.24-4.9-3-9-4.14-13.67-1.38-5.53-5.4-10.37-4.32-16.54,1.71-.64,2.23.37,3.12,1.69,3,4.38,4.28,9.59,7.19,14.72,4.54-11.05,8.61-21.64,19.22-29-7.33-1.43-12.19-4.86-17.43-8.63-2.24,6.76-4.88,12.63-12,15a6.32,6.32,0,0,1,0,6.34c-3.38-3-5.33-6.91-6.7-11a15.58,15.58,0,0,0-7.3-9c-7-4.2-14.07-8.45-21-12.92-7.07-4.58-14.88-7.9-23.77-7-3.45.36-6.4,1.48-7.28,5.15-1.32,5.46,1.67,10.56,1.69,15.94,0,.53,1,1.31,1.68,1.55,7.61,2.69,13,8.86,20.2,12.47,8.13,4.07,14.93,10.72,22.48,16C417.29,546.34,426.28,553.35,436.39,558.65Zm-6.13,27.67a8.67,8.67,0,0,0,2.31.15q30-6,60-12.19a24.64,24.64,0,0,0,7.69-3.13c-9-32-17.87-63.68-26.89-95.86-24.64,7.55-49.26,12.1-74.72,17.56a129.15,129.15,0,0,0,16.68,10.69c5.55,3.11,10.1,7.19,11.35,13.87,6.1-2.82,6.1-2.82,9-22.24,2.89-1.67,4-.18,5.34,2.41,5.42,10.85,13.13,14.13,25.06,11,1.73-.45,3.58-1.25,5,.55,1.24,1.61.81,3.26-.06,5-6.11,12.65-3.29,28.13,6.93,38.53,1.64,1.67,4.35,3.31,2.81,5.92-1.7,2.86-4.51,1.54-6.92.4a32.83,32.83,0,0,0-20.53-2.41c-3.53.67-7.05,2.21-8.66,5-4.78,8.25-10.67,15.88-14.25,24.82a1.64,1.64,0,0,0-.41.24s0,.21.09.32ZM380,654.88c16.9-31.14,38.82-58.67,57.37-88.8-8.18-5.38-16.27-10.17-23.77-15.75-15.87-11.82-31.56-23.85-48.73-33.79-2.31-1.33-4.16-1.83-5.61.56-2.19,3.6-5.27,6.44-7.64,9.94-9.07,13.4-16.17,28-25.32,41.32-5.54,8.08-10.65,16.46-15.84,24.78-3.68,5.92-3.46,7.81,2.54,11.78,12.33,8.16,22.71,18.78,34.78,27.26C358.24,639.52,367.47,648.59,380,654.88Zm123-93.12c9.29-21.46,19.39-42.6,18.78-66.3-.55-21-6-41.17-14.46-61.23-9.34,12.8-18,24.82-26.85,36.63-1.92,2.55-2.12,4.56-1.41,7.62,4.57,19.68,11.49,38.69,16.26,58.31C497.4,545.24,500.43,553.44,503,561.76ZM341.75,468.65c-5.67,5.83-8,13.66-11.84,20.55-6.82,12.2-14,24.27-18.56,37.58-5.31,15.62-5.07,31.85-4.41,48.07.16,4-.44,8.13,1.22,12.7,1.1-1.45,1.76-2.18,2.28-3,11.29-17.88,22.91-35.58,33.67-53.78,3.87-6.54,9.3-12,12.39-19,.86-1.95,1.29-3.33.42-5.52-4.36-10.94-8.92-21.82-12.3-33.14C344.14,471.48,343.89,469.51,341.75,468.65ZM399,487c.86.27,1.28.57,1.6.49,22-5.94,44.72-8.7,66.61-15.4,7.34-2.25,11-6.17,13.87-12.27,3.56-7.64.55-13.06-7.71-15-9.83-2.35-19.2-.88-29,1-12.38,2.39-22.13,6.85-29.18,18.2C410.4,471.84,404.51,479.22,399,487ZM378.91,218.13c.37-1.5-.83-1.34-1.27-1.84s-1.15-1.12-1.67-1.73c-9.33-11.11-21.45-15.08-35.37-12.53-24.49,4.5-40.41,19.84-48.27,42.67-7.28,21.12-4.62,42.37,4.08,63.95,1.56-15.12,1.2-29.34,4.89-43.09,5.17-19.27,13-36.15,33.17-44.74,12-5.12,23.82-5.95,36.29-3.58C373.44,217.75,376.11,219.74,378.91,218.13Zm40-57.35c-10.3-3.74-18.37-10.39-25.59-18.26-2.28-2.48-5.48-3.47-8.63-3.84-4.73-.55-8.11,2.47-10.32,6-2,3.13,1.62,5,3.4,6.84C389.33,163.65,403.59,164.38,419,160.78Zm30.43,59.42c11.89-16.09,23.14-31.89,46.59-26.55a6.17,6.17,0,0,0-2.14-2c-10.25-5.05-28.31-2.91-39,8.7C449.66,206,446.68,211.6,449.38,220.2Zm-68.18-21,1.39.16c2.93-7.07,3.89-14.51,4.47-22.26.72-9.67-2.24-16.59-11.57-20.26Q378.34,178,381.2,199.17ZM371,140.73c10.61-7.3,19.18-7,26,.75,8,9.1,18.11,14.23,29.8,16.66,1.34.28,2.71.94,3.7-1-11.84-4.21-22.67-9.87-31.75-18.77a20.87,20.87,0,0,0-18.75-6C375.8,133.1,372,134.57,371,140.73ZM332.63,376.18c.2,2.18.34,4.36.61,6.53a37.88,37.88,0,0,0,.9,5.32c1.65,6.19,6.8,7.45,11.55,2.66C342,385.43,335.86,382.1,332.63,376.18Z"/><path d="M472.49,158.54c-.83-3.14.43-5,3.18-5.58,17.48-3.86,35.07-6.56,53-4,9.8,1.38,16.55,7.14,21.06,15.72,3.72,7.07,3,13.54-1.94,18.16-5.42,5.08-14.43,6.28-20.63,2.66a104.7,104.7,0,0,1-14.72-10.28c-10.9-9.16-22.83-16.27-37.77-16.16A10.44,10.44,0,0,1,472.49,158.54Zm53.76,20c4.42,4.37,13.44,4.55,18.24.37,4.35-3.8,3.89-8.63-1.43-15C541.34,175.18,539.07,177.17,526.25,178.54Z"/><path d="M408.8,128.5a51.44,51.44,0,0,1,7.38-28c8.33-14.2,19.68-25.34,36.14-29.38,11.61-2.85,22.26,4,21.38,17.46A9.93,9.93,0,0,1,468.82,97a49.7,49.7,0,0,1-16.07,6.4c-15.06,3-28,9.41-37.12,22.32C414.22,127.75,412.71,129.66,408.8,128.5ZM455,95.71c7.19-.27,13.48-3.68,14.1-7.63.71-4.57-2-7.63-6.61-10.78C464.8,85.7,461.5,91.08,455,95.71Z"/><path d="M432.13,142.55a3.44,3.44,0,0,1,.53-4.78c11.66-11.85,23.39-23.7,39.13-30.19a36,36,0,0,1,11.7-2.36c11.26-.56,20.61,10.13,19.11,21.41-.71,5.38-8.18,12.06-14.12,13-5.69.85-11.14-.9-16.72-1.15-12.28-.56-24.41.1-36.11,4.37A3.32,3.32,0,0,1,432.13,142.55Zm47.78-9.14c8.81,2,16.63-1.81,17.84-8.19,1-5.26-3.17-11.8-8.2-12.86C493.88,123.52,491.65,128.73,479.91,133.41Zm7-22.23c.05.14.06.34.15.39s.44.19.55.11c.46-.3.38-.59-.19-.69C487.23,111,487.05,111.11,486.88,111.18Z"/><path d="M220.4,675.47c17.89-21.91,38.22-39.87,56.6-59.59,6.2,5.13,6.53,6.9,2.27,10.81-17,15.57-34.63,30.36-51,46.59C226.78,674.79,225.29,676.6,220.4,675.47Z"/><path d="M267.49,696.35c-2.16-1.69-.72-3.12-.29-4.53,5.34-17.66,12.63-34.6,19-51.89,1.79-4.87,3.88-9.64,5.59-14.55,1.3-3.73,3.63-3.69,6.64-2.46,3.29,1.33,2.39,3.37,1.4,5.85-8.6,21.59-20.32,41.77-28.87,63.39C270.29,693.83,269.65,695.94,267.49,696.35Z"/><path d="M272,597c1.53,3.69,2.3,6.51,1.21,9.91-9.86,2.66-19.83,5.41-29.84,8-7.9,2.08-15.85,4-23.78,6a10.78,10.78,0,0,1-1.74.43c-1.77.16-3.89.66-4.61-1.59s1.21-3,3-3.63c7.14-2.57,14.15-5.6,21.43-7.65C249.17,605.22,260.44,601.25,272,597Z"/><path d="M225.52,564.36c1.4-3.55,3.24-3.06,5-2.66,14.09,3.14,27.48,8.66,41.41,12.4,4.28,1.15,4,3.63-1.25,9.5C256.11,576.6,240.33,571.83,225.52,564.36Z"/><path d="M312,682.46c-2.51-17.39,1-34-1.61-50.23,2.08-2.81,4.83-2.83,7.68-2.61,2.34.18,3.95,1.13,3.36,3.76-3.18,14.07-3.15,28.55-5.42,42.73C315.73,678.08,315.81,680.13,312,682.46Z"/><path class="a" d="M380,654.88c-12.54-6.29-21.77-15.36-32.22-22.7-12.07-8.48-22.45-19.1-34.78-27.26-6-4-6.22-5.86-2.54-11.78,5.19-8.32,10.3-16.7,15.84-24.78,9.15-13.34,16.25-27.92,25.32-41.32,2.37-3.5,5.45-6.34,7.64-9.94,1.45-2.39,3.3-1.89,5.61-.56,17.17,9.94,32.86,22,48.73,33.79,7.5,5.58,15.59,10.37,23.77,15.75C418.83,596.21,396.91,623.74,380,654.88Zm-24.61-110c-2.95,2.45-1.63,4.4-1.45,6.3A32.74,32.74,0,0,1,347.52,575,72.85,72.85,0,0,1,335,587.81c-1.85,1.5-4.75,2.54-3.73,6.1.94,3.23,3.65,2.4,5.8,3.1,13.19,4.31,25.78,9.41,29.63,24.88.41,1.62,1.15,3,3.16,3.06s3.24-1,3.89-3c2.68-8.15,7.86-14.79,13.14-21.36a23.05,23.05,0,0,1,14.25-8.18c2.15-.4,4.72-.1,5.25-2.94.42-2.31-1.74-3.2-3.05-4.67-7.49-8.42-13.45-19.4-7.63-30.94,1.12-2.22,1.47-4.1-1.4-5.9-6.09,4.2-11.12,11.72-20,9.88C366.5,556.19,361.34,549.8,355.4,544.92Z"/><path class="a" d="M430.38,586.41c3.58-8.94,9.47-16.57,14.25-24.82,1.61-2.77,5.13-4.31,8.66-5A32.83,32.83,0,0,1,473.82,559c2.41,1.14,5.22,2.46,6.92-.4,1.54-2.61-1.17-4.25-2.81-5.92-10.22-10.4-13-25.88-6.93-38.53.87-1.79,1.3-3.44.06-5-1.38-1.8-3.23-1-5-.55-11.93,3.14-19.64-.14-25.06-11-1.3-2.59-2.45-4.08-5.34-2.41-2.9,19.42-2.9,19.42-9,22.24-1.25-6.68-5.8-10.76-11.35-13.87a129.15,129.15,0,0,1-16.68-10.69c25.46-5.46,50.08-10,74.72-17.56,9,32.18,17.92,63.89,26.89,95.86a24.64,24.64,0,0,1-7.69,3.13q-30,6.13-60,12.19a8.67,8.67,0,0,1-2.31-.15Z"/><path class="a" d="M503,561.76c-2.59-8.32-5.62-16.52-7.68-25-4.77-19.62-11.69-38.63-16.26-58.31-.71-3.06-.51-5.07,1.41-7.62,8.89-11.81,17.51-23.83,26.85-36.63,8.45,20.06,13.91,40.21,14.46,61.23C522.41,519.16,512.31,540.3,503,561.76Z"/><path class="a" d="M341.75,468.65c2.14.86,2.39,2.83,2.87,4.46,3.38,11.32,7.94,22.2,12.3,33.14.87,2.19.44,3.57-.42,5.52-3.09,7-8.52,12.45-12.39,19-10.76,18.2-22.38,35.9-33.67,53.78-.52.83-1.18,1.56-2.28,3-1.66-4.57-1.06-8.7-1.22-12.7-.66-16.22-.9-32.45,4.41-48.07,4.52-13.31,11.74-25.38,18.56-37.58C333.76,482.31,336.08,474.48,341.75,468.65Z"/><path class="a" d="M427.84,528.54c-1.08,6.17,2.94,11,4.32,16.54,1.15,4.63,3.9,8.77,4.14,13.67l.09-.1c-10.11-5.3-19.1-12.31-28.41-18.81-7.55-5.28-14.35-11.93-22.48-16-7.19-3.61-12.59-9.78-20.2-12.47-.69-.24-1.68-1-1.68-1.55,0-5.38-3-10.48-1.69-15.94.88-3.67,3.83-4.79,7.28-5.15,8.89-.93,16.7,2.39,23.77,7,6.89,4.47,13.92,8.72,21,12.92a15.58,15.58,0,0,1,7.3,9c1.37,4.13,3.32,8.06,6.7,11Z"/><path class="a" d="M399,487c5.47-7.77,11.36-15.15,16.24-23,7.05-11.35,16.8-15.81,29.18-18.2,9.75-1.88,19.12-3.35,29-1,8.26,2,11.27,7.39,7.71,15-2.84,6.1-6.53,10-13.87,12.27-21.89,6.7-44.6,9.46-66.61,15.4C400.32,487.56,399.9,487.26,399,487Z"/><path class="a" d="M378.91,218.13c-2.8,1.61-5.47-.38-8.15-.89-12.47-2.37-24.25-1.54-36.29,3.58-20.17,8.59-28,25.47-33.17,44.74-3.69,13.75-3.33,28-4.89,43.09-8.7-21.58-11.36-42.83-4.08-63.95,7.86-22.83,23.78-38.17,48.27-42.67,13.92-2.55,26,1.42,35.37,12.53.52.61,1.15,1.12,1.67,1.73S379.28,216.63,378.91,218.13Z"/><path class="a" d="M419,160.78c-15.36,3.6-29.62,2.87-41.14-9.25-1.78-1.87-5.37-3.71-3.4-6.84,2.21-3.54,5.59-6.56,10.32-6,3.15.37,6.35,1.36,8.63,3.84C400.58,150.39,408.65,157,419,160.78Z"/><path class="a" d="M427.94,528.65a6.32,6.32,0,0,0,0-6.34c7.08-2.33,9.72-8.2,12-15,5.24,3.77,10.1,7.2,17.43,8.63-10.61,7.33-14.68,17.92-19.22,29-2.91-5.13-4.22-10.34-7.19-14.72-.89-1.32-1.41-2.33-3.12-1.69Z"/><path class="a" d="M449.38,220.2c-2.7-8.6.28-14.24,5.43-19.82,10.71-11.61,28.77-13.75,39-8.7a6.17,6.17,0,0,1,2.14,2C472.52,188.31,461.27,204.11,449.38,220.2Z"/><path class="a" d="M381.2,199.17q-2.85-21.19-5.71-42.36c9.33,3.67,12.29,10.59,11.57,20.26-.58,7.75-1.54,15.19-4.47,22.26Z"/><path class="a" d="M371,140.73c1-6.16,4.83-7.63,9-8.38a20.87,20.87,0,0,1,18.75,6c9.08,8.9,19.91,14.56,31.75,18.77-1,1.92-2.36,1.26-3.7,1-11.69-2.43-21.77-7.56-29.8-16.66C390.15,133.7,381.58,133.43,371,140.73Z"/><path class="a" d="M332.63,376.18c3.23,5.92,9.35,9.25,13.06,14.51-4.75,4.79-9.9,3.53-11.55-2.66a37.88,37.88,0,0,1-.9-5.32C333,380.54,332.83,378.36,332.63,376.18Z"/><path class="a" d="M527.44,477.32c-1.18-.06-1.89-.64-1.68-1.86.09-.47.57-1.2.93-1.24,1.27-.14,1.29,1.21,1.89,1.9Z"/><path class="a" d="M436.3,558.75l.57.34c-.11,0-.28,0-.32,0a1.37,1.37,0,0,1-.16-.43Z"/><path class="a" d="M430.26,586.32l-.2.65c0-.11-.13-.28-.09-.32a1.64,1.64,0,0,1,.41-.24Z"/><path class="a" d="M526.25,178.54c12.82-1.37,15.09-3.36,16.81-14.66,5.32,6.4,5.78,11.23,1.43,15C539.69,183.09,530.67,182.91,526.25,178.54Z"/><path class="a" d="M455,95.71c6.54-4.63,9.84-10,7.49-18.41,4.65,3.15,7.32,6.21,6.61,10.78C468.44,92,462.15,95.44,455,95.71Z"/><path class="a" d="M479.91,133.41c11.74-4.68,14-9.89,9.64-21,5,1.06,9.2,7.6,8.2,12.86C496.54,131.6,488.72,135.43,479.91,133.41Z"/><path class="a" d="M486.88,111.18c.17-.07.35-.22.51-.19.57.1.65.39.19.69-.11.08-.39,0-.55-.11S486.93,111.32,486.88,111.18Z"/><path d="M355.4,544.92c5.94,4.88,11.1,11.27,18.92,12.9,8.87,1.84,13.9-5.68,20-9.88,2.87,1.8,2.52,3.68,1.4,5.9-5.82,11.54.14,22.52,7.63,30.94,1.31,1.47,3.47,2.36,3.05,4.67-.53,2.84-3.1,2.54-5.25,2.94a23.05,23.05,0,0,0-14.25,8.18c-5.28,6.57-10.46,13.21-13.14,21.36-.65,2-1.78,3.06-3.89,3s-2.75-1.44-3.16-3.06c-3.85-15.47-16.44-20.57-29.63-24.88-2.15-.7-4.86.13-5.8-3.1-1-3.56,1.88-4.6,3.73-6.1A72.85,72.85,0,0,0,347.52,575,32.74,32.74,0,0,0,354,551.22C353.77,549.32,352.45,547.37,355.4,544.92Zm38.87,37.81.39.58c0-.13,0-.32,0-.37a2.24,2.24,0,0,0-.46-.14c-3.4-7.13-7.15-14.15-5.89-23.88-11,7.69-19.87,4.32-28.34-2.95-3.66,11.39-6.16,22.5-16.48,29.68a6.92,6.92,0,0,0,5,.08c8.74-2.76,17.45-5.45,26.87-5.16C381.75,580.77,387.86,582.92,394.27,582.73Z"/><path class="a" d="M394.27,582.73c-6.41.19-12.52-2-18.93-2.16-9.42-.29-18.13,2.4-26.87,5.16a6.92,6.92,0,0,1-5-.08C353.8,578.47,356.3,567.36,360,556c8.47,7.27,17.37,10.64,28.34,2.95-1.26,9.73,2.49,16.75,5.89,23.88Z"/><path class="a" d="M394.19,582.8a2.24,2.24,0,0,1,.46.14c.06,0,0,.24,0,.37l-.39-.58Z"/><polygon class="a" points="530.55 488.45 523.16 465.43 525.82 465.14 532.66 489.5 530.55 488.45"/><polygon points="524.29 469.46 528.58 482.32 525.2 480.54 521.82 470.93 524.29 469.46"/><polygon points="422.26 520.34 432.16 545.08 436.3 541.29 426.7 517.41 422.26 520.34"/><path d="M487.11,112.36a1.5,1.5,0,0,0,0-3,1.5,1.5,0,0,0,0,3Z"/><path d="M528.77,470.05a5.19,5.19,0,0,0,.52,6l2.12-2.12a2.77,2.77,0,0,1-.74-2.35,1.5,1.5,0,0,0-3,0,5.63,5.63,0,0,0,1.62,4.47,1.5,1.5,0,0,0,2.12-2.12,2.13,2.13,0,0,1,0-2.4c1-1.65-1.59-3.16-2.59-1.51Z"/></svg>