<svg id="Layer_1" data-name="Layer 1" xmlns="http://www.w3.org/2000/svg" xmlns:xlink="http://www.w3.org/1999/xlink" viewBox="0 0 800 800"><defs><style>.cls-1,.cls-3,.cls-6{fill:none;}.cls-2,.cls-4{fill:#fff;}.cls-2,.cls-3,.cls-6{stroke:#000;stroke-linejoin:bevel;}.cls-2,.cls-3{stroke-width:8px;}.cls-5{fill:url(#New_Pattern);}.cls-6{stroke-width:3px;}</style><pattern id="New_Pattern" data-name="New Pattern" width="40" height="48" patternTransform="translate(-769.66 -66.4) scale(1.1)" patternUnits="userSpaceOnUse" viewBox="0 0 40 48"><rect class="cls-1" width="40" height="48"/><line class="cls-2" x1="42.97" y1="31.4" x2="57.03" y2="64.6"/><line class="cls-2" x1="22.97" y1="31.4" x2="37.03" y2="64.6"/><line class="cls-2" x1="2.97" y1="31.4" x2="17.03" y2="64.6"/><line class="cls-2" x1="-17.03" y1="31.4" x2="-2.97" y2="64.6"/><line class="cls-2" x1="32.97" y1="7.4" x2="47.03" y2="40.6"/><line class="cls-2" x1="12.97" y1="7.4" x2="27.03" y2="40.6"/><line class="cls-2" x1="-7.03" y1="7.4" x2="7.03" y2="40.6"/><line class="cls-2" x1="42.97" y1="-16.6" x2="57.03" y2="16.6"/><line class="cls-2" x1="22.97" y1="-16.6" x2="37.03" y2="16.6"/><line class="cls-2" x1="2.97" y1="-16.6" x2="17.03" y2="16.6"/><line class="cls-2" x1="-17.03" y1="-16.6" x2="-2.97" y2="16.6"/></pattern></defs><title>matchbox tears</title><polygon points="253.56 534.39 259.9 537.7 266.62 540.49 273.08 543.83 279.65 546.95 286.13 550.24 292.88 552.97 299.34 556.32 305.86 559.53 312.62 562.25 318.79 566.21 325.66 568.69 332.08 572.12 338.85 574.79 345.24 578.28 351.85 581.31 358.35 584.55 364.74 588.04 371.37 591.01 378.12 593.74 384.47 597.31 391 600.51 397.55 603.67 404.1 606.82 410.83 609.59 417.63 612.23 424.19 615.35 430.53 618.96 437.15 621.97 443.64 625.24 450.45 627.87 456.75 631.56 463.37 634.56 470.12 637.32 476.65 640.49 483.15 643.74 489.73 646.86 496.1 650.4 502.54 653.78 509.13 656.87 515.98 659.4 522.58 662.48 529.1 665.72 535.58 668.96 537.59 662.5 538.6 655.77 539.79 649.08 541.39 642.49 542.81 635.86 544.9 629.37 546.29 622.72 547.43 616.24 541 613.33 534.54 609.98 527.7 607.49 521.4 603.79 514.72 600.93 507.92 598.33 501.31 595.32 494.82 592.05 488.26 588.92 481.74 585.71 475.07 582.81 468.44 579.86 461.88 576.71 455.05 574.21 448.53 570.99 442.07 567.65 435.43 564.72 428.78 561.8 422.19 558.74 415.45 556.01 409.04 552.58 402.21 550.03 395.56 547.12 389.13 543.7 382.26 541.25 375.81 537.9 369 535.3 362.66 531.69 355.84 529.15 349.27 526.04 342.6 523.16 336.16 519.75 329.51 516.82 322.71 514.22 316.38 510.58 309.79 507.54 303.08 504.72 296.48 501.68 289.92 498.54 283.17 495.83 276.73 492.44 269.94 489.78 263.47 486.43 256.48 483.45 256.51 491.05 256.19 498.3 254.89 505.49 254.78 512.76 254.28 520 253.98 527.26 253.56 534.39"/><polygon class="cls-3" points="253.56 534.39 259.9 537.7 266.62 540.49 273.08 543.83 279.65 546.95 286.13 550.24 292.88 552.97 299.34 556.32 305.86 559.53 312.62 562.25 318.79 566.21 325.66 568.69 332.08 572.12 338.85 574.79 345.24 578.28 351.85 581.31 358.35 584.55 364.74 588.04 371.37 591.01 378.12 593.74 384.47 597.31 391 600.51 397.55 603.67 404.1 606.82 410.83 609.59 417.63 612.23 424.19 615.35 430.53 618.96 437.15 621.97 443.64 625.24 450.45 627.87 456.75 631.56 463.37 634.56 470.12 637.32 476.65 640.49 483.15 643.74 489.73 646.86 496.1 650.4 502.54 653.78 509.13 656.87 515.98 659.4 522.58 662.48 529.1 665.72 535.58 668.96 537.59 662.5 538.6 655.77 539.79 649.08 541.39 642.49 542.81 635.86 544.9 629.37 546.29 622.72 547.43 616.24 541 613.33 534.54 609.98 527.7 607.49 521.4 603.79 514.72 600.93 507.92 598.33 501.31 595.32 494.82 592.05 488.26 588.92 481.74 585.71 475.07 582.81 468.44 579.86 461.88 576.71 455.05 574.21 448.53 570.99 442.07 567.65 435.43 564.72 428.78 561.8 422.19 558.74 415.45 556.01 409.04 552.58 402.21 550.03 395.56 547.12 389.13 543.7 382.26 541.25 375.81 537.9 369 535.3 362.66 531.69 355.84 529.15 349.27 526.04 342.6 523.16 336.16 519.75 329.51 516.82 322.71 514.22 316.38 510.58 309.79 507.54 303.08 504.72 296.48 501.68 289.92 498.54 283.17 495.83 276.73 492.44 269.94 489.78 263.47 486.43 256.48 483.45 256.51 491.05 256.19 498.3 254.89 505.49 254.78 512.76 254.28 520 253.98 527.26 253.56 534.39"/><polygon class="cls-4" points="533.3 620.87 526.56 618.17 519.95 615.34 513.59 611.94 507 609.08 500.26 606.51 493.83 603.28 487.33 600.21 480.92 596.93 474.11 594.52 467.83 590.97 461.25 588.06 454.49 585.58 448.08 582.29 441.36 579.71 435.02 576.28 428.33 573.62 421.92 570.34 415.16 567.84 408.65 564.78 402.11 561.79 395.54 558.86 389.12 555.6 382.58 552.61 376.02 549.65 369.46 546.69 362.88 543.8 356.26 540.96 349.98 537.41 343.1 535.14 336.78 531.65 330.05 529.09 323.54 526.04 317.12 522.76 310.7 519.5 303.93 517.01 297.31 514.18 290.85 511 284.17 508.3 277.84 504.8 271.16 502.22 267.67 503.77 267.75 511.77 267.34 519.62 266.83 527.45 267.8 529.86 274.26 532.97 280.83 535.75 287.36 538.59 293.52 542.21 300.24 544.64 306.64 547.78 313.14 550.67 319.52 553.85 325.87 557.05 332.38 559.94 338.81 562.99 345.06 566.42 351.62 569.19 358.22 571.89 364.56 575.14 370.78 578.62 377.41 581.25 383.91 584.16 390.17 587.58 396.76 590.29 403.19 593.36 409.51 596.64 415.92 599.75 422.35 602.81 428.92 605.58 435.06 609.25 441.77 611.73 448.13 614.95 454.61 617.89 461 621.05 467.25 624.47 473.83 627.22 480.28 630.26 486.69 633.35 493.06 636.56 499.64 639.31 506.09 642.33 512.32 645.83 518.89 648.62 525.27 651.95 528.43 650.23 530.38 643.67 531.38 636.91 532.83 630.24 534.82 623.61 533.3 620.87"/><polygon class="cls-5" points="532.85 619.48 526.73 615.84 520.04 613.25 513.44 610.43 507.14 606.95 500.44 604.37 493.69 601.9 487.29 598.64 480.56 596.13 474.28 592.6 467.61 589.95 461.06 587.04 454.51 584.12 447.94 581.27 441.53 578.03 435.05 574.96 428.19 572.73 421.82 569.41 415.25 566.54 408.65 563.72 402.32 560.32 395.47 558.06 389.29 554.31 382.74 551.41 376.16 548.55 369.43 546.02 362.86 543.13 356.17 540.53 349.93 536.89 343.15 534.48 336.82 531.08 330.22 528.26 323.67 525.35 317.24 522.15 310.37 519.94 303.92 516.78 297.51 513.52 291.02 510.48 284.32 507.87 277.74 504.97 271.17 502.15 267.71 503.79 267.64 511.76 266.76 519.59 267.04 527.43 268.31 531.24 274.32 534.88 280.99 537.45 287.08 541.24 293.64 544.05 300.2 546.86 306.63 549.95 312.81 553.55 319.5 556.09 325.7 559.64 332.48 561.97 338.69 565.51 345.13 568.58 351.44 571.9 358 574.7 364.55 577.54 371.02 580.52 377.39 583.74 383.9 586.64 390.3 589.78 396.7 592.92 402.91 596.48 409.59 599.03 415.89 602.39 422.28 605.56 428.57 608.93 435.3 611.4 441.44 615.09 447.87 618.19 454.43 621 460.78 624.26 467.5 626.73 473.74 630.21 480.04 633.57 486.88 635.82 493.19 639.16 499.4 642.7 506.18 645.06 512.42 648.55 518.91 651.55 525.36 655.11 530.18 650.08 532.07 643.61 533.18 636.87 535.12 630.31 535.89 623.68 532.85 619.48"/><polygon points="635.94 456.14 634.94 463.06 633.29 469.75 631.55 476.43 630.84 483.31 628.69 489.9 627.68 496.73 626.5 503.53 625.31 510.4 621.35 516.6 617.75 522.93 614.08 529.22 610.63 535.64 607.34 542.14 603.33 548.24 599.52 554.46 596.63 561.19 593 567.5 588.84 573.52 585.4 579.95 581.87 586.32 578.63 592.86 575.14 599.26 571.3 605.46 567.68 611.78 564.52 618.36 561.01 624.74 557.01 630.85 553.8 637.41 550.13 643.71 546.28 649.9 542.83 656.32 539.28 662.7 535.65 668.62 537.07 662.38 538.73 655.8 539.69 649.06 542.14 642.66 542.93 635.88 544.57 629.29 546.66 622.8 547.33 615.93 551.16 609.64 554.59 603.2 558.59 597.07 562.21 590.73 565.2 584.04 569.22 577.92 572.22 571.24 575.7 564.82 579.67 558.67 583.1 552.22 586.16 545.57 589.62 539.14 593.48 532.92 597.26 526.67 600.91 520.34 604.11 513.77 607.63 507.38 611.31 501.07 614.71 494.6 618.32 488.25 621.97 481.92 625.52 475.54 628.8 469 632.28 462.57 635.94 456.14"/><polygon class="cls-3" points="635.94 456.14 634.94 463.06 633.29 469.75 631.55 476.43 630.84 483.31 628.69 489.9 627.68 496.73 626.5 503.53 625.31 510.4 621.35 516.6 617.75 522.93 614.08 529.22 610.63 535.64 607.34 542.14 603.33 548.24 599.52 554.46 596.63 561.19 593 567.5 588.84 573.52 585.4 579.95 581.87 586.32 578.63 592.86 575.14 599.26 571.3 605.46 567.68 611.78 564.52 618.36 561.01 624.74 557.01 630.85 553.8 637.41 550.13 643.71 546.28 649.9 542.83 656.32 539.28 662.7 535.65 668.62 537.07 662.38 538.73 655.8 539.69 649.06 542.14 642.66 542.93 635.88 544.57 629.29 546.66 622.8 547.33 615.93 551.16 609.64 554.59 603.2 558.59 597.07 562.21 590.73 565.2 584.04 569.22 577.92 572.22 571.24 575.7 564.82 579.67 558.67 583.1 552.22 586.16 545.57 589.62 539.14 593.48 532.92 597.26 526.67 600.91 520.34 604.11 513.77 607.63 507.38 611.31 501.07 614.71 494.6 618.32 488.25 621.97 481.92 625.52 475.54 628.8 469 632.28 462.57 635.94 456.14"/><polyline class="cls-3" points="264.52 304.18 259.81 309.51 255.43 315.1 251.34 320.92 246.59 326.22 242.91 332.36 238.48 337.91 234.1 343.5 229.76 349.12 225.02 354.44 221.15 360.43 216.39 365.73 212.26 371.52 207.8 377.04 203.04 382.34 199.17 388.33 194.9 394.01 189.96 399.17 185.57 404.76 181.22 410.38 177.06 416.14 173.19 422.14 168.31 427.35 163.72 433.15 170.25 436.33 176.72 438.94 183.08 441.78 189.14 445.28 195.54 448.05 201.81 451.09 208.16 453.94 214.56 456.72 220.78 459.87 227.24 462.52 233.52 465.55 240.1 467.92 246.33 471.07 252.44 474.48 258.75 476.7 262.78 471.14 267.14 465.44 271.43 459.68 275.08 453.48 279.27 447.65 283.51 441.87 288.16 436.36 292.23 430.45 295.95 424.29 300.27 418.56 304.02 412.43 308.31 406.67 312.63 400.93 317.17 395.36 321.19 389.42 325.14 383.42 329.46 377.68 333.65 371.85 337.77 365.98 341.76 360.01 345.53 353.87 350.25 348.41 354.58 342.22 347.76 339.36 341.27 336.66 334.57 334.48 328.46 330.87 321.89 328.35"/><polygon class="cls-4" points="164.01 432.98 164.86 440.29 165.01 447.56 165.12 454.82 166.31 462.02 166.38 469.29 167.32 476.51 167.75 483.54 174.04 486.92 180.56 490.37 187.17 493.63 194.17 496.05 200.74 499.37 207.29 502.76 214.16 505.44 220.78 508.67 227.48 511.74 234.17 514.82 240.81 518 247.39 521.35 253.87 524.27 254.72 517.8 255.64 511.06 256.1 504.26 256.52 497.47 257.82 490.76 257.93 483.92 259.14 477.03 252.77 473.79 246.12 471.56 239.82 468.59 233.75 465.11 227.1 462.88 221.17 459.12 214.75 456.4 208.43 453.46 202.22 450.27 195.68 447.81 189.41 444.76 182.87 442.3 176.72 438.98 170.49 435.82 164.01 432.98"/><polygon class="cls-3" points="164.01 432.98 164.86 440.29 165.01 447.56 165.12 454.82 166.31 462.02 166.38 469.29 167.32 476.51 167.75 483.54 174.04 486.92 180.56 490.37 187.17 493.63 194.17 496.05 200.74 499.37 207.29 502.76 214.16 505.44 220.78 508.67 227.48 511.74 234.17 514.82 240.81 518 247.39 521.35 253.87 524.27 254.72 517.8 255.64 511.06 256.1 504.26 256.52 497.47 257.82 490.76 257.93 483.92 259.14 477.03 252.77 473.79 246.12 471.56 239.82 468.59 233.75 465.11 227.1 462.88 221.17 459.12 214.75 456.4 208.43 453.46 202.22 450.27 195.68 447.81 189.41 444.76 182.87 442.3 176.72 438.98 170.49 435.82 164.01 432.98"/><polygon points="195 447.61 199.5 441.56 203.68 435.42 208.74 429.96 213.35 424.16 217.98 418.37 222.18 412.24 226.65 406.33 231.02 400.34 236.04 394.85 240.41 388.86 245.31 383.27 249.16 376.87 253.88 371.15 258.7 365.5 263.38 359.74 267.45 353.62 267.51 346.59 266.48 339.55 266.17 332.45 266.16 325.34 265.01 318.29 264.62 311.2 264.3 304.4 259.66 309.4 255.64 315.27 251.7 321.2 246.74 326.34 242.84 332.3 238.53 337.95 234.11 343.51 229.8 349.15 225.32 354.67 221.07 360.37 216.32 365.68 212.46 371.67 207.97 377.18 203.39 382.61 198.81 388.04 194.32 393.55 190 399.19 186.1 405.17 181.86 410.88 177.5 416.48 172.81 421.84 168.29 427.34 164.35 433.02 170.07 436.33 176.35 438.93 182.46 441.94 188.61 444.87 195 447.61"/><polygon class="cls-3" points="195 447.61 199.5 441.56 203.68 435.42 208.74 429.96 213.35 424.16 217.98 418.37 222.18 412.24 226.65 406.33 231.02 400.34 236.04 394.85 240.41 388.86 245.31 383.27 249.16 376.87 253.88 371.15 258.7 365.5 263.38 359.74 267.45 353.62 267.51 346.59 266.48 339.55 266.17 332.45 266.16 325.34 265.01 318.29 264.62 311.2 264.3 304.4 259.66 309.4 255.64 315.27 251.7 321.2 246.74 326.34 242.84 332.3 238.53 337.95 234.11 343.51 229.8 349.15 225.32 354.67 221.07 360.37 216.32 365.68 212.46 371.67 207.97 377.18 203.39 382.61 198.81 388.04 194.32 393.55 190 399.19 186.1 405.17 181.86 410.88 177.5 416.48 172.81 421.84 168.29 427.34 164.35 433.02 170.07 436.33 176.35 438.93 182.46 441.94 188.61 444.87 195 447.61"/><polyline class="cls-3" points="328.38 379.82 332.59 373.63 336.61 367.3 340.72 361.04 344.83 354.77 349.29 348.74 353.67 342.65"/><polyline class="cls-3" points="263.92 304.12 264.89 311.17 265.35 318.25 265.8 325.34 266.29 332.42 267.08 339.49 266.79 346.63 268.05 353.67"/><polyline class="cls-4" points="264.58 469.06 258.55 465.51 253.04 461.18 247.21 457.25 242.09 452.43 236.98 447.63 232.12 442.57 227.38 437.39 223.61 431.43 219.01 426.12 215.49 420.06 211.97 414.01 209.14 407.61 206.52 401.14 203.78 394.68 202.46 387.79 200.8 380.96 200.47 373.94 200.67 366.93 200.66 359.56 201.15 352.21 202.22 344.91 204.09 337.77 205.14 330.47 207.02 323.36 209.7 316.49 211.43 309.3 214.12 302.45 216.68 295.54 219.79 288.86 222.02 281.82 223.06 274.52 223.05 267.16 221.8 259.87 219.17 253.27 218.24 246.25 216.6 239.38 216.1 232.33 215.1 225.34 215.08 218.29 215.38 211.26 215.24 204.16 216.12 197.13 218.39 190.4 220.72 183.74 223.82 177.41 227.84 171.63 232.62 166 231.48 173.29 232.14 180.35 231.36 187.4 231.57 194.46 232.81 201.43 233.84 208.39 234.38 215.44 236.48 222.19 238.34 228.96 240.6 235.64 243.78 241.97 248.37 247.34 253.64 251.92 258.83 257.24 262.21 263.78 264.96 270.58 265.92 277.87 266.51 285.24 265.74 292.58 264.62 299.88 262.53 306.96 260.73 314.11 258.26 321.06 255.91 328.05 252.98 334.81 249.93 341.51"/><polyline class="cls-3" points="264.58 469.06 258.55 465.51 253.04 461.18 247.21 457.25 242.09 452.43 236.98 447.63 232.12 442.57 227.38 437.39 223.61 431.43 219.01 426.12 215.49 420.06 211.97 414.01 209.14 407.61 206.52 401.14 203.78 394.68 202.46 387.79 200.8 380.96 200.47 373.94 200.67 366.93 200.66 359.56 201.15 352.21 202.22 344.91 204.09 337.77 205.14 330.47 207.02 323.36 209.7 316.49 211.43 309.3 214.12 302.45 216.68 295.54 219.79 288.86 222.02 281.82 223.06 274.52 223.05 267.16 221.8 259.87 219.17 253.27 218.24 246.25 216.6 239.38 216.1 232.33 215.1 225.34 215.08 218.29 215.38 211.26 215.24 204.16 216.12 197.13 218.39 190.4 220.72 183.74 223.82 177.41 227.84 171.63 232.62 166 231.48 173.29 232.14 180.35 231.36 187.4 231.57 194.46 232.81 201.43 233.84 208.39 234.38 215.44 236.48 222.19 238.34 228.96 240.6 235.64 243.78 241.97 248.37 247.34 253.64 251.92 258.83 257.24 262.21 263.78 264.96 270.58 265.92 277.87 266.51 285.24 265.74 292.58 264.62 299.88 262.53 306.96 260.73 314.11 258.26 321.06 255.91 328.05 252.98 334.81 249.93 341.51"/><polyline class="cls-3" points="200.33 367.04 196.19 361.49 192.17 355.87 188.24 350.17 185.12 343.99 181.56 338.02 179.34 331.44 177.04 324.91 175.69 318.11 174.8 311.26 174.91 304.37 174.82 297.43 176.18 290.44 178.42 283.69 181.89 277.49 185.34 271.34 189.08 265.35 192.49 259.11 196.52 253.29 199.41 246.84 200.85 239.91 201.65 232.83 200.48 226.08 203.75 232.28 207.01 238.77 209.17 245.71 211.81 252.49 213.1 259.65 213.44 266.9 212.65 274.07 210.11 280.79 207.55 287.33 205.88 294.12 205.59 301.09 207.37 307.79 210.47 313.92"/><polyline class="cls-4" points="342.92 357.39 335.61 359.34 328.03 359.93 320.46 359.2 313.12 357.31 305.89 354.83 299.74 350.31 294.59 345.14 291.44 338.53 289.79 331.39 289.15 324.07 289.38 316.73 289.99 309.42 291.24 302.19 291.85 294.88 292.97 287.65 294.42 280.46 294.96 273.14 295.9 265.88 297.11 258.66 298.34 251.43 299.39 244.17 299.21 236.79 300.51 229.49 299.99 222.11 299.23 214.78 298.84 207.38 296.95 200.23 295.33 193.01 292.93 186.02 290.09 179.2 287.07 172.46 283.18 166.18 279.52 159.78 275.39 153.68 271.55 147.35 266.79 141.71 261.74 136.34 256.52 131.29 260.83 137.04 263.42 143.89 265.39 150.91 267.82 157.82 269.32 164.97 270.59 172.17 271.33 179.44 272.49 186.66 272.65 193.98 273.24 201.26 273.41 208.58 273.7 215.9 272.81 223.24 271.81 230.53 271.23 237.87 269.56 245.05 268.32 252.31 266.37 259.41 264.93 266.65 262.27 273.54 260.48 280.7 257.61 287.5 254.98 294.37 252.74 301.39 249.72 308.1 246.65 314.6 244.7 321.52 243.09 328.5 241.94 335.54 241 342.65 242.08 349.73 244 356.59 247.11 363.4 250.73 370.01 255.83 375.56 260.48 381.46 265.01 387.48 267.19 394.71 267.33 402.2"/><polyline class="cls-3" points="342.92 357.39 335.61 359.34 328.03 359.93 320.46 359.2 313.12 357.31 305.89 354.83 299.74 350.31 294.59 345.14 291.44 338.53 289.79 331.39 289.15 324.07 289.38 316.73 289.99 309.42 291.24 302.19 291.85 294.88 292.97 287.65 294.42 280.46 294.96 273.14 295.9 265.88 297.11 258.66 298.34 251.43 299.39 244.17 299.21 236.79 300.51 229.49 299.99 222.11 299.23 214.78 298.84 207.38 296.95 200.23 295.33 193.01 292.93 186.02 290.09 179.2 287.07 172.46 283.18 166.18 279.52 159.78 275.39 153.68 271.55 147.35 266.79 141.71 261.74 136.34 256.52 131.29 260.83 137.04 263.42 143.89 265.39 150.91 267.82 157.82 269.32 164.97 270.59 172.17 271.33 179.44 272.49 186.66 272.65 193.98 273.24 201.26 273.41 208.58 273.7 215.9 272.81 223.24 271.81 230.53 271.23 237.87 269.56 245.05 268.32 252.31 266.37 259.41 264.93 266.65 262.27 273.54 260.48 280.7 257.61 287.5 254.98 294.37 252.74 301.39 249.72 308.1 246.65 314.6 244.7 321.52 243.09 328.5 241.94 335.54 241 342.65 242.08 349.73 244 356.59 247.11 363.4 250.73 370.01 255.83 375.56 260.48 381.46 265.01 387.48 267.19 394.71 267.33 402.2"/><polyline class="cls-4" points="290.15 313.04 295.35 307.99 300.16 302.57 304.88 297.08 309.19 291.26 313.28 285.27 316.51 278.79 319.89 272.38 322.26 265.52 323.96 258.44 323.95 251.13 325.3 257.98 325.58 264.95 327.18 271.76 327.04 278.73 327.94 285.64 327.63 292.59 327.52 299.55 326.27 306.39 324.15 313.02 321.13 319.9 321.25 327.47 324.63 334.14 329.59 339.64 335.91 343.5 342.83 346.22 350.13 347.92"/><polyline class="cls-3" points="290.15 313.04 295.35 307.99 300.16 302.57 304.88 297.08 309.19 291.26 313.28 285.27 316.51 278.79 319.89 272.38 322.26 265.52 323.96 258.44 323.95 251.13 325.3 257.98 325.58 264.95 327.18 271.76 327.04 278.73 327.94 285.64 327.63 292.59 327.52 299.55 326.27 306.39 324.15 313.02 321.13 319.9 321.25 327.47 324.63 334.14 329.59 339.64 335.91 343.5 342.83 346.22 350.13 347.92"/><polygon class="cls-4" points="547.85 616.43 540.91 613.52 534.64 609.76 527.88 607.08 521.08 604.5 514.59 601.22 507.94 598.29 501.46 595 494.84 592 488.35 588.72 481.53 586.16 474.96 583.07 468.33 580.09 461.65 577.24 455.11 574.07 448.35 571.38 442.01 567.78 435.27 565.07 428.82 561.72 422.21 558.69 415.42 556.08 408.98 552.71 402.08 550.32 395.66 546.9 388.89 544.23 382.35 541.05 375.75 538.03 369.34 534.56 362.45 532.17 356 528.78 349.31 525.96 342.58 523.2 335.98 520.16 329.56 516.72 323.05 513.46 316.36 510.63 309.63 507.88 302.83 505.26 296.21 502.28 289.85 498.71 283.2 495.75 276.59 492.74 269.85 490 263.18 487.07 257.05 483.68 260.78 477.84 264.72 471.78 269.01 465.96 272.76 459.77 276.93 453.86 281.38 448.16 285.17 441.99 289.45 436.16 293.97 430.5 298.02 424.51 302.09 418.54 305.5 412.11 309.8 406.29 314.36 400.65 318.59 394.79 322.09 388.43 326.32 382.57 330.75 376.84 334.3 370.51 338.46 364.59 342.82 358.81 346.95 352.88 351.2 347.02 354.81 340.72 359.27 335.18 365.83 337.76 372.28 340.96 378.99 343.56 385.69 346.2 392.24 349.16 398.66 352.44 405.39 355 411.71 358.5 418.53 360.85 425.02 363.95 431.74 366.54 438.1 369.95 444.67 372.87 451.34 375.55 457.86 378.58 464.72 380.84 471.1 384.2 477.74 386.98 484.46 389.55 491.04 392.45 497.71 395.15 503.98 398.76 510.51 401.78 517.42 403.94 523.68 407.57 530.44 410.07 537.2 412.55 543.69 415.68 550.42 418.25 556.68 421.89 563.49 424.28 570.11 427.08 576.62 430.15 583.05 433.39 589.9 435.68 596.5 438.57 602.8 442.13 609.54 444.67 615.94 448 622.65 450.62 629.16 453.72 635.55 456.35 632.66 462.76 628.83 468.98 625.44 475.45 621.62 481.67 618.26 488.16 614.99 494.69 611.18 500.93 607.72 507.36 604.38 513.86 600.56 520.09 597.12 526.53 593.43 532.84 589.78 539.16 586.63 545.76 582.78 551.98 579.64 558.59 575.71 564.76 572.34 571.24 568.98 577.72 565.06 583.91 561.67 590.38 558.37 596.9 554.95 603.36 551.18 609.64 547.85 616.43"/><polygon class="cls-3" points="547.85 616.43 540.91 613.52 534.64 609.76 527.88 607.08 521.08 604.5 514.59 601.22 507.94 598.29 501.46 595 494.84 592 488.35 588.72 481.53 586.16 474.96 583.07 468.33 580.09 461.65 577.24 455.11 574.07 448.35 571.38 442.01 567.78 435.27 565.07 428.82 561.72 422.21 558.69 415.42 556.08 408.98 552.71 402.08 550.32 395.66 546.9 388.89 544.23 382.35 541.05 375.75 538.03 369.34 534.56 362.45 532.17 356 528.78 349.31 525.96 342.58 523.2 335.98 520.16 329.56 516.72 323.05 513.46 316.36 510.63 309.63 507.88 302.83 505.26 296.21 502.28 289.85 498.71 283.2 495.75 276.59 492.74 269.85 490 263.18 487.07 257.05 483.68 260.78 477.84 264.72 471.78 269.01 465.96 272.76 459.77 276.93 453.86 281.38 448.16 285.17 441.99 289.45 436.16 293.97 430.5 298.02 424.51 302.09 418.54 305.5 412.11 309.8 406.29 314.36 400.65 318.59 394.79 322.09 388.43 326.32 382.57 330.75 376.84 334.3 370.51 338.46 364.59 342.82 358.81 346.95 352.88 351.2 347.02 354.81 340.72 359.27 335.18 365.83 337.76 372.28 340.96 378.99 343.56 385.69 346.2 392.24 349.16 398.66 352.44 405.39 355 411.71 358.5 418.53 360.85 425.02 363.95 431.74 366.54 438.1 369.95 444.67 372.87 451.34 375.55 457.86 378.58 464.72 380.84 471.1 384.2 477.74 386.98 484.46 389.55 491.04 392.45 497.71 395.15 503.98 398.76 510.51 401.78 517.42 403.94 523.68 407.57 530.44 410.07 537.2 412.55 543.69 415.68 550.42 418.25 556.68 421.89 563.49 424.28 570.11 427.08 576.62 430.15 583.05 433.39 589.9 435.68 596.5 438.57 602.8 442.13 609.54 444.67 615.94 448 622.65 450.62 629.16 453.72 635.55 456.35 632.66 462.76 628.83 468.98 625.44 475.45 621.62 481.67 618.26 488.16 614.99 494.69 611.18 500.93 607.72 507.36 604.38 513.86 600.56 520.09 597.12 526.53 593.43 532.84 589.78 539.16 586.63 545.76 582.78 551.98 579.64 558.59 575.71 564.76 572.34 571.24 568.98 577.72 565.06 583.91 561.67 590.38 558.37 596.9 554.95 603.36 551.18 609.64 547.85 616.43"/><polyline class="cls-4" points="498.26 395.88 499.24 403.03 498.91 410.25 498.55 417.41 498.52 424.67 496.66 431.67 493.94 438.35 490.15 444.42 485.25 449.56 479.43 453.59 473.05 456.27 478.34 460.57 483.57 465.35 487.76 471.08 492.48 476.34 496.74 482.01 500.25 488.19 503.08 494.69 505.14 501.47 507.19 508.22 508.89 515.1 509.8 522.15 509.53 529.25 509.4 536.35 508.25 542.91 514.91 540.59 521.76 537.73 528.99 536.08 536.18 534.19 543.62 533.98 551.01 533.94 558.4 534.08 565.66 535.48 572.92 537 579.88 539.61 586.32 543.32"/><polyline class="cls-3" points="498.26 395.88 499.24 403.03 498.91 410.25 498.55 417.41 498.52 424.67 496.66 431.67 493.94 438.35 490.15 444.42 485.25 449.56 479.43 453.59 473.05 456.27 478.34 460.57 483.57 465.35 487.76 471.08 492.48 476.34 496.74 482.01 500.25 488.19 503.08 494.69 505.14 501.47 507.19 508.22 508.89 515.1 509.8 522.15 509.53 529.25 509.4 536.35 508.25 542.91 514.91 540.59 521.76 537.73 528.99 536.08 536.18 534.19 543.62 533.98 551.01 533.94 558.4 534.08 565.66 535.48 572.92 537 579.88 539.61 586.32 543.32"/><polyline class="cls-4" points="543.62 416.04 545.84 422.55 546.44 429.41 547.21 436.23 546.66 443.08 544.82 449.69 541.26 455.6 535.43 459.55 541.23 463.47 547 467.2 552.33 471.58 556.66 476.95 560.69 482.58 562.69 489.25 562.54 496.18 559.89 502.45 566.6 498.97 574.01 497.15 581.44 495.81 589.03 494.98 596.61 496.07 603.81 498.64 610.41 502.48"/><polyline class="cls-3" points="543.62 416.04 545.84 422.55 546.44 429.41 547.21 436.23 546.66 443.08 544.82 449.69 541.26 455.6 535.43 459.55 541.23 463.47 547 467.2 552.33 471.58 556.66 476.95 560.69 482.58 562.69 489.25 562.54 496.18 559.89 502.45 566.6 498.97 574.01 497.15 581.44 495.81 589.03 494.98 596.61 496.07 603.81 498.64 610.41 502.48"/><polyline class="cls-4" points="593.16 437.32 592.84 444.15 591.45 450.84 588.12 456.86 582.26 459.28 589.09 462.69 593.77 468.9 596.46 475.63 603.06 473.2 610.47 472.65 617.76 474.09 623.79 478.53"/><polyline class="cls-3" points="593.16 437.32 592.84 444.15 591.45 450.84 588.12 456.86 582.26 459.28 589.09 462.69 593.77 468.9 596.46 475.63 603.06 473.2 610.47 472.65 617.76 474.09 623.79 478.53"/><polyline class="cls-3" points="636.01 456.58 628.89 457.03 621.81 457.47 614.75 458.29 607.64 457.99 600.55 458.71 593.45 458.4 586.35 458.78 579.25 458.32 572.15 458.27 565.05 458.75 557.95 458.75 550.85 458.56 543.74 458.65 536.64 458.61 529.55 457.71 522.44 457.94 515.34 457.41 508.24 457.21 501.15 456.78 494.05 456.8 486.93 457.01 479.87 455.99 472.78 455.81"/><polyline class="cls-3" points="508.13 543.43 513.64 539.01 518.56 533.9 524.3 529.78 530.12 525.78 535.23 520.87 541.13 516.95 546.72 512.66 551.9 507.81 558.08 504.3 563.33 499.53 569.16 495.56 574.97 491.54 580.62 487.3 586.68 483.67 592.59 479.8 598.63 476.14 604.32 471.91 610.86 469.11 616.69 465.07 623.15 462.18 629.62 459.39 635.8 455.9"/><polyline class="cls-3" points="376.95 342.76 372.6 348.54 368.99 354.83 364.3 360.38 360.23 366.35 356.75 372.73 352.69 378.71 348.29 384.46 344.05 390.31 340.37 396.55 336.39 402.59 331.91 408.29 328.49 414.71 324.03 420.42 319.65 426.19 315.69 432.25 311.69 438.26 307.52 444.17 304.01 450.53 299.7 456.34 295.95 462.54 291.5 468.26 287.47 474.27 283.06 480.02 279.54 486.38 275.24 492.21"/><polyline class="cls-3" points="286.55 496.72 290.77 490.86 294.34 484.56 298.95 478.97 302.58 472.71 306.75 466.81 310.81 460.84 314.97 454.94 319.47 449.28 322.87 442.86 327.56 437.32 331.51 431.27 335.37 425.16 339.81 419.45 343.37 413.13 347.94 407.51 351.72 401.35 355.76 395.37 360.36 389.77 364.47 383.83 368.12 377.57 372.17 371.59 376.37 365.72 380.41 359.73 384.46 353.73 389.02 348.09"/><polygon class="cls-3" points="419.16 444.67 424.7 447.96 428.78 452.94 431.12 458.94 430.29 465.38 426.16 470.52 419.95 472.71 413.44 472.66 407.23 470.77 401.17 467.3 395.93 462.64 390.13 458.75 384.69 454.38 378.95 450.38 374.07 445.32 368.7 440.86 363.39 436.33 357.8 432.22 364.58 433.67 371.46 434.84 378.47 435.19 385.32 436.51 392.24 437.53 399.07 438.98 405.88 440.55 412.72 442.03 419.16 444.67"/><polygon points="419.48 443.98 412.76 441.86 405.78 441.09 399.04 439.33 392.11 438.46 385.32 436.83 378.52 435.21 371.54 434.39 376.9 438.57 381.91 443.11 387.67 446.69 392.91 450.93 398.12 455.22 403.94 458.6 410.21 460.01 416.62 460.43 422.89 458.44 426.62 453.08 427.24 451.01 419.48 443.98"/><polygon class="cls-3" points="419.48 443.98 412.76 441.86 405.78 441.09 399.04 439.33 392.11 438.46 385.32 436.83 378.52 435.21 371.54 434.39 376.9 438.57 381.91 443.11 387.67 446.69 392.91 450.93 398.12 455.22 403.94 458.6 410.21 460.01 416.62 460.43 422.89 458.44 426.62 453.08 427.24 451.01 419.48 443.98"/><polygon class="cls-3" points="453.31 516.45 458.64 520.64 461.69 526.49 461.42 532.9 457.07 537.98 450.34 538.55 443.75 537.34 437.59 533.93 432.22 529.41 426.81 524.95 421.58 520.27 415.65 516.46 410.33 511.9 405.3 507.23 412.09 508.14 419.01 509.22 425.9 510.47 432.8 511.69 439.7 512.95 446.52 514.62 453.31 516.45"/><polygon points="453.07 516.96 445.84 514.8 438.4 513.23 431.01 511.32 423.56 509.7 416.4 509.01 422.2 513.73 428.17 518.92 434.79 523.25 441.04 528.15 447.72 529.82 454.13 527.77 459.07 523.54 459.86 521.61 453.07 516.96"/><polygon class="cls-6" points="453.07 516.96 445.84 514.8 438.4 513.23 431.01 511.32 423.56 509.7 416.4 509.01 422.2 513.73 428.17 518.92 434.79 523.25 441.04 528.15 447.72 529.82 454.13 527.77 459.07 523.54 459.86 521.61 453.07 516.96"/><polyline points="164.16 450.54 170.32 453.88 176.72 456.73 182.92 460 189.53 462.4 195.65 465.85 202.04 468.71 208.26 471.94 214.67 474.75 220.9 477.96 227.28 480.86 233.89 483.27 239.93 486.89 246.25 489.9 252.76 492.54 259.15 495.43"/><polyline class="cls-3" points="164.16 450.54 170.32 453.88 176.72 456.73 182.92 460 189.53 462.4 195.65 465.85 202.04 468.71 208.26 471.94 214.67 474.75 220.9 477.96 227.28 480.86 233.89 483.27 239.93 486.89 246.25 489.9 252.76 492.54 259.15 495.43"/><polyline points="164.17 464.84 170.34 468.17 176.75 471 182.93 474.32 189.5 476.79 195.9 479.65 202.13 482.85 208.41 485.94 214.72 488.99 221.22 491.62 227.35 495.05 233.92 497.54 240.11 500.83 246.45 503.81 252.87 506.66 258.91 510.27"/><polyline class="cls-3" points="164.17 464.84 170.34 468.17 176.75 471 182.93 474.32 189.5 476.79 195.9 479.65 202.13 482.85 208.41 485.94 214.72 488.99 221.22 491.62 227.35 495.05 233.92 497.54 240.11 500.83 246.45 503.81 252.87 506.66 258.91 510.27"/></svg>