<svg xmlns="http://www.w3.org/2000/svg" viewBox="0 0 800 800"><defs><style>.a{fill:#bda5ca;}.b{fill:#bda7cc;}</style></defs><title>night-watch</title><path d="M162.8,50.84c1.64-.36,2.82-1,3.92-.82,29.79,3.44,59.69,1.67,89.53,1.76,118.14.34,236.28.22,354.41.26,6.78,0,13.55,0,20.32-.13,6.54-.11,7.54.81,7.44,7.54-.27,16.52-.85,33.05-.83,49.57q.07,100.1.46,200.17.13,57.36.22,114.72.22,151.72.43,303.45c0,5.77-.14,11.55,0,17.31.11,3.94-1.89,5.42-5.44,5.33-45-1.16-90-.59-135-.49q-103.68.22-207.36.26L169,749.88c-6.32,0-8.36-2.9-7.62-9.19,1.64-14.05,1-28.2,1.06-42.29q.39-211.23.53-422.45.11-99.19,0-198.4C163,68.82,162.48,60.09,162.8,50.84Zm469.85,6.7H168.82c-.95,3.09-.18,6.29-.24,9.43-1,49.79-1,99.58-1.19,149.38a9.09,9.09,0,0,0,4.2,8.36c6.29,4.54,12.25,9.53,18.46,14.19,4,3,8.21,5.73,13.12,9.14,0-7.48.05-13.64,0-19.8,0-2.44-.41-5-3.33-5.67-4.18-.91-5.77-3.61-6.05-7.53,1.88-3.09,5.69-3.59,7.94-6.11,5.21-5.85,10.37-11.73,15.7-17.46q27.3-29.28,54.73-58.43c3.25-3.46,4.81-7.44,4.14-12-1.62-10.94-4.29-21.48-13.52-28.89-1.3-1-2.37-2.16-1.39-4.34,9.12-2.16,9.55,8.36,15.34,11.28,2.25-6.58-1.27-13.65,3.25-19.59,4,7.53,1.73,16.12,3.93,24.31,12.24-15.12,13.79-16,18.2-10.48-.34,1.55-1.67,2.09-2.83,2.86-8.95,6-12.56,15-14.59,25-.67,3.32.45,5.28,3.53,7.19,16,10,32.22,19.77,47.64,30.72,3.85,2.73,8,5.05,12.2,7.69a31.07,31.07,0,0,0,1.86-2.79c9.83-19.26,26.58-30.64,45.3-39.79,2.43-1.19,4.63-2.08,6.91.71-2.79,3.4-6.16,5.79-9.41,8.34-8.93,7-16.23,15.19-19.14,26.58a41.8,41.8,0,0,0-.29,21.27c1.29,4.86,6.66,5.1,10.13,7.51,2.54,1.76,4.52,3.77,4.46,7-1.33,1.34-2.85.9-4.16,1.21-6.46,1.52-7.41,2.87-6.64,9.56.53,4.55,1.27,9.09,1.45,13.66.29,7.84-.23,15.59-5.72,22-3.22,3.73-2.27,7.79-1.53,13.2,6.25-9.92,12.87-17.74,21.92-23.27,8.82-5.39,17.45-11.18,28.61-9.46.06,2.22-1.07,2.87-1.89,3.69a12.11,12.11,0,0,1-2.26,1.91c-13.81,8.21-20.54,20.58-21.23,36.38-.46,10.74-.47,21.56-3,32.06-3.25,13.73-6.2,27.84-19,36.62-3.26,2.24-3.74,5.07-3.71,8.64.39,46.62.35,93.23.79,139.84.78,81.68.9,163.35,1.38,245,0,5.85-.41,11.83,1.36,17H632.65ZM167.44,647.79c2.41,1.07,4.32.42,6.21-.1a218.46,218.46,0,0,0,84.64-45.14c29-24.84,50.76-55.86,69.58-88.83,8.48-14.85,14.29-31,19.6-47.25,6.94-21.23,12.71-42.74,15.06-65,1.57-14.8,2.58-29.66,3.6-44.51.37-5.44.06-10.93.06-16.39l-1.63-.44c-5,5.35-10.55,10.34-11.64,18.39-.39,2.92-1.5,5.08-4.43,6.5-18.1,8.72-36.1,17.65-54.15,26.45-11.14,5.44-12,4.8-11.21-7.84,0-.2,0-.4,0-.6q.6-57.64,1.18-115.31c0-1.53.65-3.36-.88-4.48-5-3.66-6.06-9-6.42-14.72-8,2.06-8.81,2.75-8.88,11q-.61,73.2-1,146.41c-.06,8.32,1.05,16.63-.14,25-2.37,16.55-8,31.75-16.1,46.46-9.93,18.09-21.46,33.9-40,44.41-14.31,8.11-28,17.22-43.44,23.34Zm93.95-392.46c-6.9,6.26-11.93,3-17.51-1.54-9-7.26-18.5-13.8-27.86-20.55-2.32-1.67-4.47-3.85-7.61-4V375.65c10-1.42,18.51-4.39,24.58-12A71,71,0,0,0,247.2,335C253,309.09,261.42,283.63,261.39,255.33ZM260.12,425c-5.94-4.76-11.52-8.26-16.42-12.45-10.45-8.93-21.34-17.19-32.46-25.24-3.56-2.58-6.14-2.66-9.65-.91-10.14,5.06-20.64,9.38-30.51,15-3.13,1.79-4.13,3.7-4.09,7,.13,10.35.08,20.71.09,31.06,0,9.72,0,19.44,0,30.74C199.1,455.72,229.33,440.62,260.12,425ZM167.4,229.19c0,4.67,0,7.84,0,11-.07,31.26.06,62.51-.34,93.76-.1,7.63,1.44,13.25,7.81,18.31,8.84,7,17.77,13.88,26.55,21,2.34-2.66,1.71-5.36,1.72-7.86.05-30.86.12-61.71,0-92.56,0-6.14,2.22-13.22-.74-18.18s-9.23-7.93-14.32-11.41C181.6,238.81,175.67,233.51,167.4,229.19ZM303.9,229c1.33-2,.84-4.31.6-6.51-.75-6.83.69-13.31,4.86-18.52,3.66-4.58,6.14-9.75,9.28-14.56a25,25,0,0,0-1.49-30c-2.14-2.64-4-4.86-.92-8.48L283.9,130.44c-10,40.47-19.54,80.22-27.67,121.13,8.94-2.29,15-7.08,22-9.71,1.66-.63,2.28-2.08,2.82-3.63a35.55,35.55,0,0,1,2.36-6.12c6.39-11.17,6.73-22.16-.56-33.09-1.22-1.84-2.37-3.86.93-5.86C295.59,202.18,300.2,215.13,303.9,229Zm43-57.58c-6.6-4.38-16-10.92-22.19-15.05-.39.39,2.36,3.19,2,3.57,6.57,9.28,7.6,19.67,7.1,30.5-.12,2.64-1.81,7,2,7.73,4,.82,5.13-3.54,6.53-6.51a13.93,13.93,0,0,0,1.5-5.1C344.05,181.59,345.33,176.84,346.91,171.43Zm18.86,82c-4.6,4.8-5.3,10.13-6.64,15.14-.42,1.58-1.06,3.75,1.28,4.56s3.16-1.29,3.95-2.74C367.13,265.29,365.58,259.82,365.77,253.45Zm-59.31-19.92c-5.6,3.53-6,8-1.74,13C308.09,242.73,307.07,238.5,306.46,233.53Z"/><path class="a" d="M632.65,57.54v686.1H374.26c-1.77-5.13-1.33-11.11-1.36-17-.48-81.68-.6-163.35-1.38-245-.44-46.61-.4-93.22-.79-139.84,0-3.57.45-6.4,3.71-8.64,12.8-8.78,15.75-22.89,19-36.62,2.49-10.5,2.5-21.32,3-32.06.69-15.8,7.42-28.17,21.23-36.38a12.11,12.11,0,0,0,2.26-1.91c.82-.82,1.95-1.47,1.89-3.69-11.16-1.72-19.79,4.07-28.61,9.46-9.05,5.53-15.67,13.35-21.92,23.27-.74-5.41-1.69-9.47,1.53-13.2,5.49-6.37,6-14.12,5.72-22-.18-4.57-.87-9.12-1.45-13.66-1.16-9.19-2.73-8.14,6.64-9.56,1.33-.2,2.83.13,4.16-1.21.06-3.2-1.92-5.21-4.46-7a95,95,0,0,0-9.63-4.25c-2.92-8.41-2-17.44-.21-24.53,2.91-11.39,10.21-19.58,19.14-26.58,3.25-2.55,6.62-4.94,9.41-8.34-2.28-2.79-4.48-1.9-6.91-.71-18.72,9.15-35.47,20.53-45.3,39.79a31.07,31.07,0,0,1-1.86,2.79c-4.21-2.64-8.35-5-12.2-7.69-15.42-10.95-31.61-20.72-47.64-30.72-3.08-1.91-4.2-3.87-3.53-7.19,2-10,5.64-19.08,14.59-25,1.16-.77,2.49-1.31,2.83-2.86-4.41-5.51-6-4.64-18.2,10.48-2.2-8.19.05-16.78-3.93-24.31-4.52,5.94-1,13-3.25,19.59-5.79-2.92-6.22-13.44-15.34-11.28-1,2.18.09,3.3,1.39,4.34,9.23,7.41,11.9,17.95,13.52,28.89.67,4.53-.89,8.51-4.14,12q-27.45,29.13-54.73,58.43c-5.33,5.73-10.49,11.61-15.7,17.46-2.25,2.52-6.06,3-7.94,6.11.28,3.92,1.87,6.62,6.05,7.53,2.92.63,3.29,3.23,3.33,5.67.08,6.16,0,12.32,0,19.8-4.91-3.41-9.12-6.14-13.12-9.14-6.21-4.66-12.17-9.65-18.46-14.19a9.09,9.09,0,0,1-4.2-8.36c.23-49.8.21-99.59,1.19-149.38.06-3.14-.71-6.34.24-9.43ZM460.88,568.88c2.56,3.07,5.36,2.48,8.46,0,8.11-6.38,16.54-12,26.71-15,8.92-2.6,17.34-2.35,25.47,1.87,6.15,3.2,12.38,6.41,17,11.92,1.33,1.59,2.56,3.65,5.08,3.74,2.74-3.5,2.26-4.32,1.1-11.5-3.07-19-5.22-38,10.64-53.47-.88-3-3.72-3.11-6.12-3.76A45,45,0,0,1,532.46,494c-12.64-10.24-21.88-22.49-23.44-39.32-.18-1.9-1.08-3-2.94-3.08-2.15-.09-2.48,1.49-2.62,3.21A48.82,48.82,0,0,1,501.74,466c-6,18.87-21.31,26.11-38.57,30.91-2.53.7-5.72-.28-7.58,3.27C483.57,520.83,473,544.59,460.88,568.88Zm98.35-222.22c-3.55-.67-7.06-1.22-10.52-2-10.58-2.44-20.23-6-27.41-15.25a60.22,60.22,0,0,1-12.11-29.3c-.43-3-1.23-5-5.44-3.91-.32,14.7-6.12,27.24-17.61,36.63-11.22,9.18-24.82,13.61-38.45,17.1-.39,3.1,1,4,3.17,4.72,5,1.63,8.09,5.24,10.35,10,7.42,15.65,6.28,31.21.18,46.87-.82,2.12-2.61,4.06-1.79,6.62,4.59,1.1,5.56,1,8.39-2.15a70.73,70.73,0,0,1,12.73-10.73c5.64-3.85,11.87-6.53,18.87-6.66,10.67-.2,18.9,4.75,26.28,12.06,3.24,3.22,4.88,7.94,9,10.48,4-3.89,2.4-7.88,1.48-11.6-1.53-6.25-2.48-12.46-1.09-18.85,3.24-14.83,10.28-27.47,21.75-37.48C558.93,351.57,559.81,350,559.23,346.66Zm-26.88,323c.3-8.68-1.57-14.92-3.71-21.17-4.26-12.43-10.14-24.19-15-36.38-1.1-2.77-2-5.63-3.22-8.35-.73-1.65-1.93-3.14-4-3.07s-2.4,1.84-3.08,3.24c-1.64,3.4-3.25,6.82-4.87,10.23-5.26,11.15-11.09,22.1-14.81,33.87-4.22,13.36-4.72,26.36,7.55,36.56,8.44,7,17.89,7.36,27.53,3.63C527.86,684.65,533.29,678.11,532.35,669.61Zm-1.27-430c-18.94-9.5-37-11.54-55.76-1.13-1.67-14.91-5.65-28.2-17.21-38.41,7.27-8.68,20.68-8.93,26.16-19.31-2.39-2.24-3.85-1-5.3.06a92.64,92.64,0,0,1-29.35,14.2c-1.38.39-2.83.74-3,2.4-.22,1.87,1.06,2.87,2.61,3.56,11.58,5.16,16,15.52,18.82,26.7,3,12.21,3,24.36-4.12,35.34a3.55,3.55,0,0,0,5.9,1.75c.66-.73,1.25-1.54,1.9-2.27a44.93,44.93,0,0,1,28.55-14.71c12-1.56,21.67,3.72,28.92,13.3,1.27,1.66,2.42,3.52,4.71,2.68s2.92-3.08,2.6-5.46a23.5,23.5,0,0,1-.44-2.34c-.43-20.49,3.28-39.52,19.37-54.09.93-.85,1.84-1.58,1.51-3a2.59,2.59,0,0,0-3.1-2.16c-2.89.59-5-1-7.2-2.21-6.8-3.76-13.6-7.4-17.57-14.69-1.88-3.46-4.45-3.7-6.36,0,4.74,11,14.23,16.42,24.12,21.74C538.83,213.43,532.69,225.38,531.08,239.65Zm-27.67-69.18c3.42-3.8,3.5-3.81,3.36-6-1.29-20.24-9.18-38.55-16.9-56.88-1.37-3.26-3.71-3.78-6.65-1C493.53,126.47,498.77,147.8,503.41,170.47Zm-10.51,6.14c3.7-2.12,2.68-4.67,2.05-7.11-2.25-8.8-7.22-16.19-11.86-23.84-4.81-7.93-12-13.07-19.18-18.32-2.44-1.79-5.15-1.76-7.06,2.11C476.25,139.41,484.6,157.92,492.9,176.61Zm57.79-59.55c-2.81-4.14-5.08-3.59-7.64-1.62-15.15,11.61-23.95,27.19-28.54,45.42-.4,1.63-.34,3.18,2.8,4.63C525.54,147.64,531.61,128,550.69,117.06Zm22.86,21.15c-3.71-1.67-3.8-1.9-7.72-.8-16.27,4.56-30.28,12.75-41,26.12-1.28,1.6-3.8,3.23-1.09,5.38,2.33,1.85,3.87,0,5.36-1.82,10.63-13,24.4-21.25,40.28-26.25C571,140.35,573.2,140.67,573.55,138.21Zm-61.45,1.46a3,3,0,0,0,2-2.42c2-16.43.8-32.93,1-49.4a2.74,2.74,0,0,0-3-3c-2.54,0-2.48,2-2.49,3.89-.05,15.29-.14,30.59-.14,45.88C509.53,136.54,509.33,138.75,512.1,139.67Z"/><path class="a" d="M167.44,647.79V545.15c15.4-6.12,29.13-15.23,43.44-23.34,18.55-10.51,30.08-26.32,40-44.41,8.06-14.71,13.73-29.91,16.1-46.46,1.19-8.34.08-16.65.14-25q.48-73.2,1-146.41c.07-8.29.9-9,8.88-11,.36,5.68,1.42,11.06,6.42,14.72,1.53,1.12.89,2.95.88,4.48q-.56,57.66-1.18,115.31c0,.2,0,.4,0,.6-.79,12.64.07,13.28,11.21,7.84,18.05-8.8,36.05-17.73,54.15-26.45,2.93-1.42,4-3.58,4.43-6.5,1.09-8,8.39-14.88,13.39-20.23l-.12,2.28c0,5.46.31,10.95-.06,16.39-1,14.85-2,29.71-3.6,44.51-2.35,22.26-8.12,43.77-15.06,65-5.31,16.26-11.12,32.4-19.6,47.25-18.82,33-40.54,64-69.58,88.83a218.46,218.46,0,0,1-84.64,45.14C171.76,648.21,169.85,648.86,167.44,647.79Z"/><path class="a" d="M261.39,255.33c0,28.3-8.38,53.76-14.19,79.66A71,71,0,0,1,233,363.66c-6.07,7.6-14.54,10.57-24.58,12V229.28c3.14.11,5.29,2.29,7.61,4,9.36,6.75,18.9,13.29,27.86,20.55C249.46,258.31,254.49,261.59,261.39,255.33Z"/><path class="a" d="M260.12,425c-30.79,15.61-61,30.71-93,45.25,0-11.3,0-21,0-30.74,0-10.35,0-20.71-.09-31.06,0-3.3,1-5.21,4.09-7,9.87-5.67,20.37-10,30.51-15,3.51-1.75,6.09-1.67,9.65.91,11.12,8.05,22,16.31,32.46,25.24C248.6,416.75,254.18,420.25,260.12,425Z"/><path class="a" d="M167.4,229.19c8.27,4.32,14.2,9.62,20.67,14.05,5.09,3.48,11.4,6.5,14.32,11.41s.72,12,.74,18.18c.13,30.85.06,61.7,0,92.56,0,2.5.62,5.2-1.72,7.86-8.78-7.1-17.71-14-26.55-21-6.37-5.06-7.91-10.68-7.81-18.31.4-31.25.27-62.5.34-93.76C167.41,237,167.4,233.86,167.4,229.19Z"/><path class="a" d="M303.9,229c-3.7-13.88-8.31-26.83-20.14-35.85-3.3,2-2.15,4-.93,5.86,7.29,10.93,6.95,21.92.56,33.09a35.55,35.55,0,0,0-2.36,6.12c-.54,1.55-1.16,3-2.82,3.63-7,2.63-13,7.42-22,9.71,8.13-40.91,17.66-80.66,27.67-121.13L316.23,151c-3.07,3.62-1.22,5.84.92,8.48a25,25,0,0,1,1.49,30c-3.14,4.81-5.62,10-9.28,14.56-4.17,5.21-5.61,11.69-4.86,18.52C304.74,224.7,305.23,227,303.9,229Z"/><path class="a" d="M346.91,171.43c-1.58,5.41-2.86,10.16-3.11,15.14a13.93,13.93,0,0,1-1.5,5.1c-1.4,3-2.56,7.33-6.53,6.51-3.79-.77-2.1-5.09-2-7.73.5-10.83-.53-21.22-7.1-30.5.39-.38-2.36-3.18-2-3.57C330.94,160.51,340.31,167.05,346.91,171.43Z"/><path class="a" d="M365.77,253.45c-.19,6.37,1.36,11.84-1.41,17-.79,1.45-1.65,3.53-3.95,2.74s-1.7-3-1.28-4.56C360.47,263.58,361.17,258.25,365.77,253.45Z"/><path class="a" d="M306.46,233.53c.61,5,1.63,9.2-1.74,13C300.44,241.56,300.86,237.06,306.46,233.53Z"/><path d="M460.88,568.88c12.15-24.29,22.69-48-5.29-68.73,1.86-3.55,5.05-2.57,7.58-3.27,17.26-4.8,32.54-12,38.57-30.91a48.82,48.82,0,0,0,1.72-11.18c.14-1.72.47-3.3,2.62-3.21,1.86.07,2.76,1.18,2.94,3.08,1.56,16.83,10.8,29.08,23.44,39.32a45,45,0,0,0,16.77,8.76c2.4.65,5.24.79,6.12,3.76C539.49,522,541.64,541,544.71,560c1.16,7.18,1.64,8-1.1,11.5-2.52-.09-3.75-2.15-5.08-3.74-4.63-5.51-10.86-8.72-17-11.92-8.13-4.22-16.55-4.47-25.47-1.87-10.17,3-18.6,8.59-26.71,15C466.24,571.36,463.44,572,460.88,568.88Zm80.8-62.18c-15.28-9.09-28.33-19.45-35-37.45-6.45,18.15-21.88,24.26-36.32,31.73C489.43,514.33,515.17,517,541.68,506.7Z"/><path d="M559.23,346.66c.58,3.32-.3,4.91-2.18,6.54-11.47,10-18.51,22.65-21.75,37.48-1.39,6.39-.44,12.6,1.09,18.85.92,3.72,2.53,7.71-1.48,11.6-4.16-2.54-5.8-7.26-9-10.48-7.38-7.31-15.61-12.26-26.28-12.06-7,.13-13.23,2.81-18.87,6.66A70.73,70.73,0,0,0,468,416c-2.83,3.14-3.8,3.25-8.39,2.15-.82-2.56,1-4.5,1.79-6.62,6.1-15.66,7.24-31.22-.18-46.87-2.26-4.77-5.33-8.38-10.35-10-2.17-.7-3.56-1.62-3.17-4.72,13.63-3.49,27.23-7.92,38.45-17.1,11.49-9.39,17.29-21.93,17.61-36.63,4.21-1.12,5,.88,5.44,3.91a60.22,60.22,0,0,0,12.11,29.3c7.18,9.26,16.83,12.81,27.41,15.25C552.17,345.44,555.68,346,559.23,346.66Zm-52.59-31.47c-11.17,17.72-12,21.51-42.14,35.72,27.47,5,49.94,16.19,64,40.91,3.57-16,11.12-29,23.49-41.51C528.48,348.26,514.64,335.67,506.64,315.19Z"/><path d="M532.35,669.61c.94,8.5-4.49,15-13.61,18.56-9.64,3.73-19.09,3.38-27.53-3.63-12.27-10.2-11.77-23.2-7.55-36.56,3.72-11.77,9.55-22.72,14.81-33.87,1.62-3.41,3.23-6.83,4.87-10.23.68-1.4,1.1-3.17,3.08-3.24s3.3,1.42,4,3.07c1.21,2.72,2.12,5.58,3.22,8.35,4.83,12.19,10.71,24,15,36.38C530.78,654.69,532.65,660.93,532.35,669.61Zm-44.18-12c-3,10.75.67,19.16,9.84,25,6.11,3.88,13.79,3.81,18.74-.56C500.18,682.76,492.88,672.27,488.17,657.65Z"/><path d="M531.08,239.65c1.61-14.27,7.75-26.22,15.74-38-9.89-5.32-19.38-10.76-24.12-21.74,1.91-3.73,4.48-3.49,6.36,0,4,7.29,10.77,10.93,17.57,14.69,2.24,1.23,4.31,2.8,7.2,2.21a2.59,2.59,0,0,1,3.1,2.16c.33,1.38-.58,2.11-1.51,3-16.09,14.57-19.8,33.6-19.37,54.09a23.5,23.5,0,0,0,.44,2.34c.32,2.38-.24,4.59-2.6,5.46s-3.44-1-4.71-2.68c-7.25-9.58-16.91-14.86-28.92-13.3a44.93,44.93,0,0,0-28.55,14.71c-.65.73-1.24,1.54-1.9,2.27a3.55,3.55,0,0,1-5.9-1.75c7.11-11,7.14-23.13,4.12-35.34-2.78-11.18-7.24-21.54-18.82-26.7-1.55-.69-2.83-1.69-2.61-3.56.19-1.66,1.64-2,3-2.4A92.64,92.64,0,0,0,479,180.86c1.45-1.05,2.91-2.3,5.3-.06-5.48,10.38-18.89,10.63-26.16,19.31,11.56,10.21,15.54,23.5,17.21,38.41C494.13,228.11,512.14,230.15,531.08,239.65Z"/><path d="M503.41,170.47c-4.64-22.67-9.88-44-20.19-63.8,2.94-2.83,5.28-2.31,6.65,1,7.72,18.33,15.61,36.64,16.9,56.88C506.91,166.66,506.83,166.67,503.41,170.47Z"/><path d="M492.9,176.61c-8.3-18.69-16.65-37.2-36-47.16,1.91-3.87,4.62-3.9,7.06-2.11,7.17,5.25,14.37,10.39,19.18,18.32,4.64,7.65,9.61,15,11.86,23.84C495.58,171.94,496.6,174.49,492.9,176.61Z"/><path d="M550.69,117.06c-19.08,10.91-25.15,30.58-33.38,48.43-3.14-1.45-3.2-3-2.8-4.63,4.59-18.23,13.39-33.81,28.54-45.42C545.61,113.47,547.88,112.92,550.69,117.06Z"/><path d="M573.55,138.21c-.35,2.46-2.59,2.14-4.13,2.63-15.88,5-29.65,13.22-40.28,26.25-1.49,1.82-3,3.67-5.36,1.82-2.71-2.15-.19-3.78,1.09-5.38,10.68-13.37,24.69-21.56,41-26.12C569.75,136.31,569.84,136.54,573.55,138.21Z"/><path d="M512.1,139.67c-2.77-.92-2.57-3.13-2.57-5,0-15.29.09-30.59.14-45.88,0-1.85-.05-3.84,2.49-3.89a2.74,2.74,0,0,1,3,3c-.23,16.47,1,33-1,49.4A3,3,0,0,1,512.1,139.67Z"/><path class="a" d="M541.68,506.7c-26.51,10.27-52.25,7.63-71.32-5.72,14.44-7.47,29.87-13.58,36.32-31.73C513.35,487.25,526.4,497.61,541.68,506.7Z"/><path class="a" d="M506.64,315.19c8,20.48,21.84,33.07,45.38,35.12-12.37,12.47-19.92,25.51-23.49,41.51-14.09-24.72-36.56-35.92-64-40.91C494.62,336.7,495.47,332.91,506.64,315.19Z"/><path class="a" d="M488.17,657.65c4.71,14.62,12,25.11,28.58,24.4-4.95,4.37-12.63,4.44-18.74.56C488.84,676.81,485.18,668.4,488.17,657.65Z"/><polygon class="b" points="282.8 221.59 290.67 225.1 284.34 226.64 282.8 221.59"/></svg>