<svg xmlns="http://www.w3.org/2000/svg" viewBox="0 0 800 800"><defs><style>.a{fill:#98323e;}</style></defs><title>no-mans-land</title><path class="a" d="M637.83,399q0-88.53,0-177.07c0-55.19.15-110.39,1.42-165.58.1-3.95-1.47-5.59-5.11-5.72q-4.21-.15-8.43-.1c-23.47.22-47,.7-70.42.67Q406.85,51,258.4,50.56q-44.26-.12-88.53-.55c-8.58-.09-9.14,0-9.14,8.84q0,55.71.17,111.42.28,139.43.62,278.84c.14,42.91-.07,85.82-.34,128.73-.22,32.72.29,65.44.36,98.16,0,21.84-.14,43.68-.23,65.53,0,5.68,2.11,8,7.2,7.93,16.25-.19,32.51-.48,48.77-.42q99.06.38,198.13.38c61,.09,122,.62,183.05.45,10.64,0,21.28.23,31.92.09,6.08-.08,7.27-1.55,7.46-7.64,0-1.2,0-2.4,0-3.61Q637.84,568.87,637.83,399Z"/><path d="M637.84,399V738.71c0,1.21,0,2.41,0,3.61-.19,6.09-1.38,7.56-7.46,7.64-10.64.14-21.28-.12-31.92-.09-61,.17-122-.36-183-.45q-99.06-.15-198.13-.38c-16.26-.06-32.52.23-48.77.42-5.09.06-7.23-2.25-7.2-7.93.09-21.85.27-43.69.23-65.53-.07-32.72-.58-65.44-.36-98.16.27-42.91.48-85.82.34-128.73q-.45-139.42-.62-278.84-.12-55.71-.17-111.42c0-8.8.56-8.93,9.14-8.84q44.26.5,88.53.55,148.44.39,296.9.66c23.47,0,47-.45,70.42-.67q4.21,0,8.43.1c3.64.13,5.21,1.77,5.11,5.72C638,111.56,637.88,166.76,637.84,222Q637.78,310.5,637.84,399ZM429.3,403.14c-8.61.27-17.16.81-25.82-.27-9-1.11-15.28-8.12-23.83-10.57-.82,4,.35,6.83,1.66,9.48,2.74,5.57,5.7,11,8.65,16.5,1.1,2,2.44,4.05-.08,5.79-2.21,1.53-4.21.44-5.89-1.25a24.24,24.24,0,0,1-4-6c-3-5.74-6.38-11.33-8.6-18-2.74,2.93-2,7.85-6.81,7.69s-3-5.3-5-7.35c-4.39,1.63-3.65,9.58-9.91,7.45-4.94-1.67-1.41-6.32-2.14-9.34-.5-.39-.77-.73-1.13-.84a3.82,3.82,0,0,0-1.75-.24c-13.59,2.77-25.7-1-37.42-7.71-4.76-2.72-10.18-4.61-16-2.78-1,2.88-.16,5.18.81,7.34a48.68,48.68,0,0,0,10.67,14.45c2.05,2,5.4,4.23,2.22,7.41-2.81,2.81-5.67.27-8-1.54a45.74,45.74,0,0,1-5.45-5.59c-1.55-1.75-2.25-4.31-4.82-5.05-6.29,4.49-6.75,4.28-12.29-5.86-3.33,4.95-2.26,12.25-9.11,14.91,6.45,8.72,13.91,15.63,21.49,22.51,13.37,12.12,28.1,22.72,40.25,36.19,9.67,10.73,19.09,21.67,27.69,33.26,6.79,9.16,14.71,17.59,19.67,28,6.56,13.77,13,27.62,18,42,.46,1.31.37,3.37,3.26,3.39,3.43-9.22,8.5-17.83,13-26.72,9.38-18.37,21.42-34.81,35.25-50,20.52-22.54,43-43.2,63-66.31,9.65-11.17,18.15-22.73,25-35.88,4.75-9.13,3.8-16.93-.49-26-2,3.37-1.72,8.12-5.91,8.89-4.54.83-6.18,4-7.68,7.57-1.15,2.78-2.27,5.58-3.67,8.24a3.74,3.74,0,0,1-4.59,2,3.82,3.82,0,0,1-2.87-4.11,42.43,42.43,0,0,1,1.07-5.27c.71-3.64,2.62-7.13,1.68-10.94-2.72-.87-4.07,1-5.6,2.1-11.41,8.11-23.19,15.21-37.82,15.41-3.42,0-4.28,2.42-4.37,5.33a45.61,45.61,0,0,0,6.71,25.81c1.77,2.89,4.88,7.16.71,9.51s-5.7-2.87-7-5.55c-5-10.48-13.49-19.27-15.09-31.37-.12-.93-.61-2-2.9-1.62a90.85,90.85,0,0,1-10.84,21.38c-1.43,2.18-3.13,4-5.88,2.58s-2.38-3.92-1.36-6.32c1.72-4.09,3.16-8.25,3.29-12.75Zm35-206c7-1.68,14-3.64,21.09-4.95,9-1.66,15.32-7.11,19.78-14.48,6.25-10.31,15.46-16,26.63-19.23,3-.87,6.17-1.76,7.92,1.77,1.62,3.28,0,6-2.91,7.6-7.23,4.09-10.44,10.43-12.1,18.39C522.58,196.29,516.8,204,507.49,209c-7.52,4.09-15.94,5.4-23.72,8.62-5.91,2.44-10.68,5.54-14,11.46a73.79,73.79,0,0,1-13.35,17.69c-5.52,5.2-12.21,8.39-18.3,12.59-5,3.46-6.69,7.9-4.9,14.14a3.45,3.45,0,0,0,1.09-.39,18.07,18.07,0,0,0,1.74-1.65c17.25-18.32,37.38-30.9,63.38-31.65,12.05-.34,23.86,1.2,33.87,8.43,21,15.15,33,35.56,35.18,61.65.94,11-1.44,21.6-2.25,32.38-.28,3.7.53,6.1,3.67,8a34.16,34.16,0,0,1,9.39,9.25c8,10.91.56,29.25-12.69,31.38a78.14,78.14,0,0,1-11.94,1.44c-4.21,0-6.62,1.83-8.47,5.41a173,173,0,0,1-16.57,26.49c-8.68,11.26-16.55,23.19-26.32,33.62-1.67,1.79-4,3.61-3,6.66,1.8,1.89,4.13,1.73,6.27,1.76,6.81.11,13.63.07,20.45,0,31.52-.3,63-.75,94.55-.84,10,0,10.53-.16,10.54-10.31.05-92.57-.29-185.13.34-277.69.24-35.94-.55-71.87-.34-107.8.07-12.24-.16-12.29-12.49-12.32q-93.36-.28-186.72-.52c-45.37-.09-90.73.22-136.09-.15-39.95-.34-79.89-.45-119.82.6-9.66.25-10.26.76-10.26,10.3q0,46.68,0,93.36,0,147.9,0,295.79c0,3.15-.53,6.41,1.33,10.19,21.81,4.94,44.32,2,66.63,2.27,22.51.31,45-.61,67.61-1-.23-3.34-1.76-4.47-3.05-5.67-17-15.85-34.86-30.84-49.49-49.09-2.11-2.64-4.8-3.22-8.09-2.38a47,47,0,0,1-14.9,1.66c-16.56-1.17-25.66-13.64-21.63-29.68a28.61,28.61,0,0,0,1.22-6.47,18.08,18.08,0,0,1,7.49-15.07c3.53-2.6,4.25-5.71,4-9.91-.84-12.57-2.13-25,0-37.77,2.33-13.71,8.6-24.94,17.37-35,13.18-15.17,30.65-23,50.17-24.52,22.56-1.75,44.16,1.93,60.92,19.51,1,1,1.88,2.8,4.22,1.61a94,94,0,0,0-3.53-23,11,11,0,0,0-3.18-5c-10.59-9.95-18.42-21.6-22.34-35.75-2.64-9.56-9.33-15.16-18.51-18.16-2.86-.94-5.68-2-8.52-3-6.81-2.38-11.54-7.05-14.77-13.39s-5.25-13-7.34-19.73c-3.75-12.05-7.93-23.77-21.81-28.19-3.29-1-3.25-4.28-.51-6.62,2.1-1.8,4.48-1.38,6.87-.91a137.94,137.94,0,0,1,21.36,6.26,29.56,29.56,0,0,1,15.24,13,145.73,145.73,0,0,1,7.43,14.44c3.66,7.93,11,10.6,19.42,14-1.32-12.49-.76-23.92-10.61-31.72-6.27-5-9.92-11.52-12.41-18.84-3.37-9.89-3.19-20.15-2.59-30.4.13-2.3,1-4.59,3.62-4.88,2.93-.32,4.17,2,5.07,4.28a19.19,19.19,0,0,1,.62,2.94,26.6,26.6,0,0,0,12.29,17.79,58.49,58.49,0,0,0,13.06,6.06c10.2,3.5,15.9,10.41,16,21.51,0,2.4.48,4.79.66,7.19.6,7.88,6.52,11.13,12.72,15.44.95-7.92-.31-15,2.18-21.77a32.18,32.18,0,0,0-3.55-30c-8.22-12.06-7.82-24-2.72-36.59,1.14-2.8,2-6.09,6-5.48,3.53.54,5,3.27,5.15,6.52a20.15,20.15,0,0,0,8.56,15.92c15.1,11,19.8,25.06,14.93,43.28-2.63,9.84,3.09,18.25,8.57,27.33,5.92-12.66,12.66-23.69,9.8-37.5-1.91-9.23,1.77-17.19,8.07-23.57,8.44-8.57,16.61-17,16.2-30.24a3.63,3.63,0,0,1,2.72-3.63c2-.56,3.47.71,4.68,2.08a6.73,6.73,0,0,1,1.32,6.25,42.57,42.57,0,0,0,2.37,27.12c.76,1.78.73,3.92.91,5.91.94,9.82-2.2,18.73-6.86,27-6.64,11.85-5.24,24.08-3.07,37.77,9-7.28,17.11-13.8,17.47-25.44.27-8.95,4.25-15.7,10.77-21.28,2.89-2.47,6-4.75,8.92-7.14,8.67-7,15.48-14.74,12.64-27.15-.61-2.64-1.17-6.17,2.54-7s5.9,1.72,7.11,5c6.3,17.27,6.28,34.29-5.34,49.15-8.36,10.69-11.93,21.84-10.48,35.16,1.06,9.7-3,17.59-10.39,23.81a41.64,41.64,0,0,0-2.95,3Zm52.85,153.93c3.57-3.32,1.51-6,1.76-8.41.21-1.93.83-3.58,2.86-4.15s3.47.3,4.68,1.91,1.35,4.23,3.67,5.74c3.25-2.63,4.48-6.43,6-10.07.93-2.24,2.39-3.95,5-3.13s3.41,3.1,3,5.79c-.38,2.5-2.38,4.73-1.27,7.7,4.68,1.08,6.92-1,8-5.5,4.68-19.75,2.67-38.71-6.79-56.68-4.43-8.41-9.84-16.2-18.81-20.48-19.07-9.11-37.91-6.08-55.4,3.5-14.41,7.89-25.41,20.05-33.07,34.92-1.69,3.28-3.07,6.95-6.21,8.95a4.6,4.6,0,0,1-4.26-3.44,86.51,86.51,0,0,1-2.87-11c-.62-3.61-1.91-5.42-5.95-4.6-17.48,3.55-34.3.46-50.85-5.27-2.32-.8-5-2.61-7.18.13-2,2.59-.82,5.29.47,7.9,2.23,4.49,4.46,9,6.44,13.57a4.08,4.08,0,0,1-1.48,5.35c-2.21,1.41-3.75.06-5.17-1.52s-2.64-3-4-4.46c-11.61-11.94-24-21.9-41.51-24.63-28.27-4.4-58.16,7.39-72.77,31-10.87,17.6-11.61,37.22-8.44,57.08.77,4.83,4.58,8.34,7.94,11.81a3.38,3.38,0,0,0,3.81,1.13c4-1.62,8.53-2.16,12.2-4.74.36-3.05-1.21-5.26-2.69-7.33-3.72-5.22-7.42-10.47-12.68-14.39-1.95-1.45-3.9-3.53-1.85-6.08s4.42-1.08,6.49.21a20.36,20.36,0,0,1,3.62,3.14c2.93,3,5.79,6,8.63,9,7-5.17,7.49-5.09,13,1.15,1.68,1.91,3.1,4.26,6,4.5,2.47-1.11,2.52-3.53,3.31-5.52,1-2.61,1.92-5.29,3.11-7.82.88-1.89,2.37-3.49,4.73-2.82s3.28,2.7,3.21,5.17c-.06,1.89-1.5,3.87.71,6.17,17.21-6.63,35.26-6.21,53.12-3.3,1.47-2.56.11-4-.72-5.53a63.73,63.73,0,0,0-8.52-11.61c-1.51-1.75-2.54-4-.44-5.9,2.25-2.08,4.45-1,6.39.79a9.57,9.57,0,0,1,1.2,1.34c5.18,6.44,9.81,13.2,12.73,21,.64,1.71.54,4.1,3.13,4.69,1.88-2,.58-4.17.47-6.26-.28-5.1,1.91-6.76,6.35-4.54,1.77.88,3.13,1.37,5,.2,4.25-2.72,6.22-.31,7.41,3.55.52,1.68,0,3.68,2.29,5.54,15.09-5.26,30.69-5.35,46.35,1.87.35-5.28-2.31-8.75-2.49-12.72-.09-2.23-.5-4.79,2.22-5.58,3-.89,4.27,1.41,5.08,3.84,2,6.1,4,12.21,6.08,18.28.6,1.73.55,4.16,3.32,4.34,2-1.42,1.28-3.7,1.86-5.53.73-2.27,1.84-4.23,4.48-4.09,2.91.15,4,2.25,4.28,4.93.22,1.83-.82,4,1.46,5.56,2.86-2.88,2.45-7.28,4.87-10.17,4-4.79,6.45.33,9.18,1.87,12.4-4.89,23.56-12,36.43-14.85,3.08-.69,3.72-2.77,2.56-5.49C504.78,343,503,339,501.19,335c-1.09-2.48-2.22-5.33.79-6.9,3.3-1.73,5.16.82,6.49,3.5.72,1.43,1.22,3,1.87,4.43C512.49,340.84,514.67,345.65,517.11,351.06ZM173.34,704.52a56.91,56.91,0,0,0,16.41,13c9.54,5,19.85,7.56,30.14,10.17,12.62,3.2,25.26,6.51,38.07,8.76A320.48,320.48,0,0,0,292,740.14c14.2,1,28.23,3.93,42.59,3.17,5-.26,7.42-2.09,7.44-7.13,0-8.42.35-16.85.2-25.27-.14-7.8-1.19-8.74-8.79-8.74q-76.2-.06-152.4,0C178.77,702.18,176.21,701.58,173.34,704.52Zm277.22-135.6c-.41,2.05.77,3,1.84,3.84,8.06,6.38,16.55,11.91,26.69,14.65a276.67,276.67,0,0,0,43.07,8c27.92,3,56,4.34,83.84,7.81a160.33,160.33,0,0,0,17.41.87c7.15.11,8.48-1.23,8.59-8.28.1-6.62,0-13.24,0-19.86,0-9.36-.49-9.88-9.83-9.91q-35.21-.1-70.41.68c-30.29.68-60.6.64-90.9,1C457.38,567.7,453.75,567.35,450.56,568.92Zm-4.38,90A71.67,71.67,0,0,0,476,676.17c20.87,6.06,42.34,9,63.9,11.16,28.34,2.79,56.71,5.21,85.05,7.92,4.71.45,6.88-1.51,6.95-6,.12-8.22.18-16.45.06-24.68-.08-5.94-1.1-6.78-7.24-6.86-6.62-.08-13.23-.16-19.85-.17q-75.25,0-150.5,0C452,657.57,449.59,657.09,446.18,658.9Zm-87.73,44.91c-.2,1.56.89,2.28,1.74,3.08,8.22,7.81,18.41,12.2,28.91,15.54a274.8,274.8,0,0,0,55.18,11.68c23.73,2.45,47.46,4.84,71.26,6.38,6.92.44,7.89-.61,8-7.25.09-8-.19-16.06,0-24.08.12-5-2.16-6.88-6.87-6.81-6,.09-12,0-18,0q-67.12-.1-134.24-.17C362.31,702.22,359.86,701.49,358.45,703.81Zm-93.91-44.44c1.89,3.63,5.18,5.94,8.52,8,12.5,7.54,26.2,12.08,40.36,15.21,19.61,4.33,39.52,6.72,59.52,8.31,17.19,1.37,34.39,2.75,51.6,3.89,7.47.49,8.17-.45,8.28-8.1.1-6.62.29-13.24.27-19.86,0-8.71-.53-9.23-9.27-9.23q-76.45,0-152.9.15C268.84,657.71,266.46,657,264.54,659.37Zm-92.84-42c1.39,3.67,4.14,5.48,7,6.78,17.23,7.88,35.22,13.67,54,16.16,25.21,3.36,50.54,5.82,75.86,8.37,8.74.87,17.26,3.51,26.23,2.69,6.9-.63,7.79-1,7.92-7.62.15-7.62-.12-15.25.06-22.86.12-5.29-2.38-7-7.36-7-51.74.38-103.49-.54-155.21,1.37C177.4,615.4,174.53,615.34,171.7,617.37ZM174,529.29a39.88,39.88,0,0,0,17.27,11.9c21.61,8.19,44.43,10.58,67.09,13.55,18.5,2.42,37.26,2.07,55.73,5,6.54,1,13.13,1.78,19.71,2.42,3.23.32,6.28-.41,6.34-4.56.13-8.83.12-17.66.1-26.49,0-3.5-2.05-5-5.38-5.08-1.6,0-3.21-.08-4.81-.08-50.2-.08-100.38.51-150.56,1.4C177.76,527.41,175.82,526.85,174,529.29ZM477.26,492.4c1.91,2.41,4.4,3.38,6.82,4.21,7.77,2.65,15.51,5.53,23.62,7,38.77,7.15,78,9.61,117.3,10.49,5,.11,6.86-2,6.75-6.8-.16-6.82,0-13.65,0-20.47-.07-6.48-.88-7.42-7.29-7.39-7.22,0-14.44.62-21.66.62-32.49,0-65-.72-97.46,1.43a27,27,0,0,1-6.56-.63C486.8,478.74,483.06,480.66,477.26,492.4ZM467.19,612.66c-16.85.24-33.69.21-50.51,1.3-3.08.2-6.08.32-7.22,4-1.42,4.61-2.84,9.19-3.25,14-.27,3.15.78,4.92,4.13,5.29,5,.54,9.92,1.64,14.9,1.94,28.23,1.66,56.38,4,84.35,8.34,2.76.43,5.61.24,8.4.49,4,.36,5.35-1.57,5.33-5.32,0-7.21.2-14.43.17-21.65,0-7.72-.78-8.44-8.77-8.46C498.88,612.62,483,612.66,467.19,612.66Zm-201-41.38c5.61,6.74,12.55,11.51,20.41,15.24,12.14,5.76,25.15,8,38.2,10.4,18,3.31,36.3,3.65,54.5,4.86,6.12.4,7.24-1.4,5.55-7.12-1.6-5.38-3.28-10.74-5-16.1-2.54-8.1-3.51-9-11.86-9q-47.89,0-95.79.16C270.28,569.74,268.14,569.17,266.14,571.28Zm170.31-22.6c2,2.85,4.59,2.73,6.89,3.09,6.91,1.09,14,1.54,20.77,3.06,17.13,3.83,34.66,3,51.94,5,3.72.43,5.72-1.41,5.75-5.16.08-8.61.08-17.23.15-25.84,0-4.35-2.1-6.11-6.37-5.9-5.6.28-11.21.36-16.82.48-14,.3-28.06-.25-42.05,1.14-2,.2-4.38-.18-5.71,1.42C445.15,533,439.89,540.45,436.45,548.68ZM252.7,502.34h-.21c0-4.61,0-9.22,0-13.82,0-3.94-1.82-5.88-5.83-5.94-25.43-.4-50.84.1-76.26.78-3.27.09-4,1.62-4.09,5-.27,9,5.93,12.61,12.33,15.87,10.22,5.21,21.28,8.22,32.35,11a156.33,156.33,0,0,0,36.24,4.8c4.16.07,5.78-1.59,5.51-5.74C252.5,510.36,252.7,506.34,252.7,502.34ZM209.28,657.61v.94c-11.83,0-23.66,0-35.48,0-2.59,0-5.65-.1-6.5,3.08s-1.19,6.42,1.29,9.11c3.25,3.54,6.48,7.15,11.18,8.9,13.67,5.09,27.18,10.62,42,11.91,8.17.71,16.29,2,24.39,3.24,3,.47,4.76-.15,4.9-3.37.36-8.6,1-17.21.88-25.81-.09-6.91-1.53-8-8.35-8C232.13,657.57,220.7,657.61,209.28,657.61ZM533.6,523.76a4.85,4.85,0,0,0,1.11,3.69c6.24,9.69,15.95,14.4,26.3,17.93,21.42,7.3,43.84,6.58,66,7.8,3.6.2,5-2,5-5.32,0-5,0-10,0-15-.06-10.65-.48-11.05-11.22-11.07-.4,0-.8,0-1.2,0-26.45,1.22-52.91.5-79.36.93C538.08,522.71,535.81,522.15,533.6,523.76Zm-322.3,46.7v.36c-9.42,0-18.85-.08-28.28,0a92.63,92.63,0,0,0-10.78.84c-2.39.31-4.86.94-5.26,4-.33,2.53,0,5,2.38,6.38,8.56,5.13,16.21,11.82,26,14.93,17.51,5.58,35.81,6.83,53.73,10.12,3,.55,3.82-1.29,3.76-3.95-.2-8.42-.28-16.84-.49-25.26-.17-6.64-1-7.43-7.93-7.46C233.37,570.42,222.34,570.46,211.3,570.46Zm326.15,43.46a53.13,53.13,0,0,0,14.89,11.18c23,12.29,48.13,15.91,73.5,18.69,4.51.5,6.22-1.68,6.18-5.91,0-5.81.05-11.63,0-17.44-.09-7.74-.84-8.54-8.74-8.56q-39.4-.07-78.8,0C542.32,611.91,540,611.44,537.45,613.92Zm1.42,90.88c3.3,3.7,6.42,6.91,10.59,9.12A132.56,132.56,0,0,0,579.22,725c15,3.82,30.36,5.4,45.56,8,6.05,1,7-.3,7.16-6.45.12-4.81,0-9.62,0-14.43-.1-8.19-.63-8.84-9-8.89q-38.5-.23-77-.23C543.78,703,541.46,702.49,538.87,704.8ZM344.28,512.31c-3.68-7-9-12.3-13.23-18.22-5.76-8-12.13-16.7-24.57-11.55-1.38.57-3.17.19-4.78.16-9.42-.14-18.84-.35-28.26-.45-2.7,0-5.6-.6-7.76,1.59-.29,3,1.52,4.73,3.12,6.47a47.2,47.2,0,0,0,19.31,12.89c15.45,5.3,31.56,7.46,47.63,9.69C338.22,513.23,340.85,514.08,344.28,512.31Zm71.28-117.46c2.8-.21,5.62-.23,8.38-.68,7.45-1.24,9.79-5.32,7.42-12.45-.89-2.67-2.88-4.33-5.15-5.66-6.32-3.67-13-6.28-20.44-6.52-8.46-.27-16.93-.07-24.36,4.87-3.9,2.59-4.29,5.35-.87,7.45C391.32,388.48,402,395.6,415.56,394.85ZM292.79,376.07c11.86,1.65,21.92,7.83,32.85,11.61,6.53,2.25,13,1.84,19.55.08,3.74-1,6.78-2.44,6.83-7.07s-1.51-7.67-6-9.34a45.67,45.67,0,0,0-12.32-2.67C319.65,367.57,305.66,367.4,292.79,376.07Zm176.94,11.55a36.43,36.43,0,0,0,4.08-.42c13.73-3,24-12.48,35.63-19.28,1.71-1,1.84-3,1-4.86a3.4,3.4,0,0,0-4.05-1.83,47.15,47.15,0,0,0-8.7,2.18c-10.75,4.37-21.36,9-30.94,15.74-2.14,1.49-4.84,3-3.85,6C463.94,388.45,467.17,387.31,469.73,387.62Zm-56.19,217c5.27,2.05,10,1.87,14.77,1.67A4,4,0,0,0,432.4,602c.23-9.57.81-19.15-.23-28.7-.2-1.86-.89-3.52-3.05-4s-3.35,1-4.08,2.7C420.61,582.49,416.19,592.93,413.54,604.67ZM394.33,634.8A39.65,39.65,0,0,0,390,616.14c-.88-1.8-3-1.82-4.81-1.84q-13.53-.15-27.05-.24c-1.16,0-2.46,0-3.13,2.27C365.61,626.82,379.37,630.82,394.33,634.8Zm28.76-367.42c-11.41-1.33-14.17,1-14.07,11.72,0,.2,0,.4,0,.6-.07,2.71-.16,5.79,3.66,5.47,3.67-.3,8.84,1.48,9.93-4.21A40.48,40.48,0,0,0,423.09,267.38ZM211.57,392.19c.77,4.84,3.12,8.63,7.78,10.28,6.19,2.18,12.52,3,18.65-.2-.73-4.73-3-6.33-6.79-6.18-5.69.23-11.12-.66-15.87-4.15C214.54,391.35,213.51,391.17,211.57,392.19Zm176.9-116.61c.19,7.95,1.52,9.64,7.19,9.58,5-.05,6.11-1.65,5.95-8.75-.14-6.34-1.77-7.81-7.86-7.76C388.4,268.69,388.16,272.08,388.47,275.58Zm-18.54-11.74c-.24,4.67.73,8.93,1.69,13.15.73,3.2,3.54,4.1,6.32,4.77,1.53.36,3-.06,3.39-1.65,1-4.36,1.25-9.06-1.06-12.83C378.23,264,374.17,263.32,369.93,263.84ZM571.65,378.57c4.56-4.7,4.09-8.93,2-13.29a11.89,11.89,0,0,0-10.87-7.17,47.28,47.28,0,0,0,5.34,9.29C570.19,370.41,570.06,374.16,571.65,378.57Zm-343.42,8.48c.14-3.12-1.4-5.27-2.57-7.53-.85-1.61-1.73-3.37-4-2.68a6.66,6.66,0,0,0-4.75,4.22c-.7,2.12.88,3.46,2.44,4.31C221.85,386.77,224.42,388.6,228.23,387.05Zm331.11-16.88c-2.9,4.2-4.72,8.07-4.34,12.81,4.12,1,6.78-.35,8.14-3.74C564.59,375.61,563.44,372.68,559.34,370.17ZM355.52,257.76c3.17,5.59,5.33,10.52,3.47,16-.35,1,1.24,2,2.51,2.07a2.39,2.39,0,0,0,2.51-2.75c-.14-3.18-.62-6.35-.82-9.54C363,260,361.29,258.07,355.52,257.76Zm-5.78,269.65c2.16,6.43,6.69,10.35,11.84,10.54C359.34,528.85,356.18,525.9,349.74,527.41ZM248.64,392.6c.56,2.57,1.77,4.48,3.7,3.5,3-1.51,6.07-3.4,7.17-7.66A16,16,0,0,0,248.64,392.6Z"/><path class="a" d="M464.32,197.18a41.64,41.64,0,0,1,2.95-3c7.44-6.22,11.45-14.11,10.39-23.81-1.45-13.32,2.12-24.47,10.48-35.16,11.62-14.86,11.64-31.88,5.34-49.15-1.21-3.31-3.36-5.92-7.11-5s-3.15,4.41-2.54,7c2.84,12.41-4,20.18-12.64,27.15-3,2.39-6,4.67-8.92,7.14-6.52,5.58-10.5,12.33-10.77,21.28C451.14,155.3,443,161.82,434,169.1c-2.17-13.69-3.57-25.92,3.07-37.77,4.66-8.3,7.8-17.21,6.86-27-.18-2-.15-4.13-.91-5.91a42.57,42.57,0,0,1-2.37-27.12A6.73,6.73,0,0,0,439.36,65c-1.21-1.37-2.64-2.64-4.68-2.08A3.63,3.63,0,0,0,432,66.57c.41,13.24-7.76,21.67-16.2,30.24-6.3,6.38-10,14.34-8.07,23.57,2.86,13.81-3.88,24.84-9.8,37.5-5.48-9.08-11.2-17.49-8.57-27.33,4.87-18.22.17-32.23-14.93-43.28a20.15,20.15,0,0,1-8.56-15.92c-.15-3.25-1.62-6-5.15-6.52-4-.61-4.88,2.68-6,5.48-5.1,12.64-5.5,24.53,2.72,36.59a32.18,32.18,0,0,1,3.55,30c-2.49,6.77-1.23,13.85-2.18,21.77-6.2-4.31-12.12-7.56-12.72-15.44-.18-2.4-.64-4.79-.66-7.19-.08-11.1-5.78-18-16-21.51a58.49,58.49,0,0,1-13.06-6.06A26.6,26.6,0,0,1,304,90.72a19.19,19.19,0,0,0-.62-2.94c-.9-2.33-2.14-4.6-5.07-4.28-2.66.29-3.49,2.58-3.62,4.88-.6,10.25-.78,20.51,2.59,30.4,2.49,7.32,6.14,13.87,12.41,18.84,9.85,7.8,9.29,19.23,10.61,31.72-8.44-3.37-15.76-6-19.42-14a145.73,145.73,0,0,0-7.43-14.44,29.56,29.56,0,0,0-15.24-13,137.94,137.94,0,0,0-21.36-6.26c-2.39-.47-4.77-.89-6.87.91-2.74,2.34-2.78,5.58.51,6.62,13.88,4.42,18.06,16.14,21.81,28.19,2.09,6.72,4.13,13.43,7.34,19.73s8,11,14.77,13.39c2.84,1,5.66,2.07,8.52,3,9.18,3,15.87,8.6,18.51,18.16,3.92,14.15,11.75,25.8,22.34,35.75a11,11,0,0,1,3.18,5,94,94,0,0,1,3.53,23c-2.34,1.19-3.24-.6-4.22-1.61-16.76-17.58-38.36-21.26-60.92-19.51-19.52,1.51-37,9.35-50.17,24.52-8.77,10.09-15,21.32-17.37,35-2.16,12.76-.87,25.2,0,37.77.28,4.2-.44,7.31-4,9.91a18.08,18.08,0,0,0-7.49,15.07,28.61,28.61,0,0,1-1.22,6.47c-4,16,5.07,28.51,21.63,29.68a47,47,0,0,0,14.9-1.66c3.29-.84,6-.26,8.09,2.38,14.63,18.25,32.48,33.24,49.49,49.09,1.29,1.2,2.82,2.33,3.05,5.67-22.58.38-45.1,1.3-67.61,1-22.31-.31-44.82,2.67-66.63-2.27-1.86-3.78-1.33-7-1.33-10.19q-.06-147.9,0-295.79,0-46.68,0-93.36c0-9.54.6-10.05,10.26-10.3,39.93-1,79.87-.94,119.82-.6,45.36.37,90.72.06,136.09.15q93.36.18,186.72.52c12.33,0,12.56.08,12.49,12.32-.21,35.93.58,71.86.34,107.8-.63,92.56-.29,185.12-.34,277.69,0,10.15-.57,10.27-10.54,10.31-31.52.09-63,.54-94.55.84-6.82.06-13.64.1-20.45,0-2.14,0-4.47.13-6.27-1.76-.93-3.05,1.36-4.87,3-6.66,9.77-10.43,17.64-22.36,26.32-33.62a173,173,0,0,0,16.57-26.49c1.85-3.58,4.26-5.39,8.47-5.41a78.14,78.14,0,0,0,11.94-1.44c13.25-2.13,20.7-20.47,12.69-31.38a34.16,34.16,0,0,0-9.39-9.25c-3.14-1.92-4-4.32-3.67-8,.81-10.78,3.19-21.4,2.25-32.38-2.23-26.09-14.21-46.5-35.18-61.65-10-7.23-21.82-8.77-33.87-8.43-26,.75-46.13,13.33-63.38,31.65a18.07,18.07,0,0,1-1.74,1.65,3.21,3.21,0,0,1-1.09.38c-1.79-6.23-.09-10.67,4.9-14.13,6.09-4.2,12.78-7.39,18.3-12.59a73.79,73.79,0,0,0,13.35-17.69c3.36-5.92,8.13-9,14-11.46,7.78-3.22,16.2-4.53,23.72-8.62,9.31-5.06,15.09-12.72,17.18-22.78,1.66-8,4.87-14.3,12.1-18.39,2.89-1.64,4.53-4.32,2.91-7.6-1.75-3.53-4.93-2.64-7.92-1.77-11.17,3.24-20.38,8.92-26.63,19.23-4.46,7.37-10.74,12.82-19.78,14.48-7.09,1.31-14.06,3.27-21.09,4.95Z"/><path class="a" d="M517.11,351.06c-2.44-5.41-4.62-10.22-6.77-15-.65-1.46-1.15-3-1.87-4.43-1.33-2.68-3.19-5.23-6.49-3.5-3,1.57-1.88,4.42-.79,6.9,1.78,4,3.59,8.05,5.32,12.11,1.16,2.72.52,4.8-2.56,5.49-12.87,2.88-24,10-36.43,14.85-2.73-1.54-5.17-6.66-9.18-1.87-2.42,2.89-2,7.29-4.87,10.17-2.28-1.54-1.24-3.73-1.46-5.56-.32-2.68-1.37-4.78-4.28-4.93-2.64-.14-3.75,1.82-4.48,4.09-.58,1.83.12,4.11-1.86,5.53-2.77-.18-2.72-2.61-3.32-4.34-2.1-6.07-4.05-12.18-6.08-18.28-.81-2.43-2-4.73-5.08-3.84-2.72.79-2.31,3.35-2.22,5.58.18,4,2.84,7.44,2.49,12.72-15.66-7.22-31.26-7.13-46.35-1.87-2.25-1.86-1.77-3.86-2.29-5.54-1.19-3.86-3.16-6.27-7.41-3.55-1.83,1.17-3.19.68-5-.2-4.44-2.22-6.63-.56-6.35,4.54.11,2.09,1.41,4.26-.47,6.26-2.59-.59-2.49-3-3.13-4.69-2.92-7.82-7.55-14.58-12.73-21a9.57,9.57,0,0,0-1.2-1.34c-1.94-1.75-4.14-2.87-6.39-.79-2.1,1.95-1.07,4.15.44,5.9A63.73,63.73,0,0,1,344.86,356c.83,1.55,2.19,3,.72,5.53-17.86-2.91-35.91-3.33-53.12,3.3-2.21-2.3-.77-4.28-.71-6.17.07-2.47-.76-4.46-3.21-5.17s-3.85.93-4.73,2.82c-1.19,2.53-2.08,5.21-3.11,7.82-.79,2-.84,4.41-3.31,5.52-2.91-.24-4.33-2.59-6-4.5-5.5-6.24-6-6.32-13-1.15-2.84-3-5.7-6-8.63-9a20.36,20.36,0,0,0-3.62-3.14c-2.07-1.29-4.53-2.64-6.49-.21s-.1,4.63,1.85,6.08c5.26,3.92,9,9.17,12.68,14.39,1.48,2.07,3.05,4.28,2.69,7.33-3.67,2.58-8.16,3.12-12.2,4.74a3.38,3.38,0,0,1-3.81-1.13c-3.36-3.47-7.17-7-7.94-11.81-3.17-19.86-2.43-39.48,8.44-57.08,14.61-23.63,44.5-35.42,72.77-31,17.47,2.73,29.9,12.69,41.51,24.63,1.39,1.43,2.69,3,4,4.46s3,2.93,5.17,1.52a4.08,4.08,0,0,0,1.48-5.35c-2-4.59-4.21-9.08-6.44-13.57-1.29-2.61-2.49-5.31-.47-7.9,2.14-2.74,4.86-.93,7.18-.13,16.55,5.73,33.37,8.82,50.85,5.27,4-.82,5.33,1,5.95,4.6a86.51,86.51,0,0,0,2.87,11,4.6,4.6,0,0,0,4.26,3.44c3.14-2,4.52-5.67,6.21-8.95,7.66-14.87,18.66-27,33.07-34.92,17.49-9.58,36.33-12.61,55.4-3.5,9,4.28,14.38,12.07,18.81,20.48,9.46,18,11.47,36.93,6.79,56.68-1.07,4.51-3.31,6.58-8,5.5-1.11-3,.89-5.2,1.27-7.7.42-2.69-.23-4.93-3-5.79s-4.1.89-5,3.13c-1.5,3.64-2.73,7.44-6,10.07-2.32-1.51-2.37-4-3.67-5.74s-2.7-2.45-4.68-1.91-2.65,2.22-2.86,4.15C518.62,345.08,520.68,347.74,517.11,351.06Z"/><path class="a" d="M429.39,403.23c-.13,4.5-1.57,8.66-3.29,12.75-1,2.4-1.34,4.9,1.36,6.32s4.45-.4,5.88-2.58a90.85,90.85,0,0,0,10.84-21.38c2.29-.36,2.78.69,2.9,1.62,1.6,12.1,10.1,20.89,15.09,31.37,1.27,2.68,2.94,7.82,7,5.55s1.06-6.62-.71-9.51a45.61,45.61,0,0,1-6.71-25.81c.09-2.91.95-5.28,4.37-5.33,14.63-.2,26.41-7.3,37.82-15.41,1.53-1.08,2.88-3,5.6-2.1.94,3.81-1,7.3-1.68,10.94a42.43,42.43,0,0,0-1.07,5.27,3.82,3.82,0,0,0,2.87,4.11,3.74,3.74,0,0,0,4.59-2c1.4-2.66,2.52-5.46,3.67-8.24,1.5-3.61,3.14-6.74,7.68-7.57,4.19-.77,3.92-5.52,5.91-8.89,4.29,9.05,5.24,16.85.49,26-6.83,13.15-15.33,24.71-25,35.88-20,23.11-42.45,43.77-63,66.31-13.83,15.19-25.87,31.63-35.25,50-4.54,8.89-9.61,17.5-13,26.72-2.89,0-2.8-2.08-3.26-3.39-5.07-14.42-11.47-28.27-18-42-5-10.4-12.88-18.83-19.67-28-8.6-11.59-18-22.53-27.69-33.26-12.15-13.47-26.88-24.07-40.25-36.19-7.58-6.88-15-13.79-21.49-22.51,6.85-2.66,5.78-10,9.11-14.91,5.54,10.14,6,10.35,12.29,5.86,2.57.74,3.27,3.3,4.82,5.05a45.74,45.74,0,0,0,5.45,5.59c2.3,1.81,5.16,4.35,8,1.54,3.18-3.18-.17-5.39-2.22-7.41a48.68,48.68,0,0,1-10.67-14.45c-1-2.16-1.83-4.46-.81-7.34,5.77-1.83,11.19.06,16,2.78,11.72,6.71,23.83,10.48,37.42,7.71a3.82,3.82,0,0,1,1.75.24c.36.11.63.45,1.13.84.73,3-2.8,7.67,2.14,9.34,6.26,2.13,5.52-5.82,9.91-7.45,2,2.05.21,7.2,5,7.35s4.07-4.76,6.81-7.69c2.22,6.63,5.56,12.22,8.6,18a24.24,24.24,0,0,0,4,6c1.68,1.69,3.68,2.78,5.89,1.25,2.52-1.74,1.18-3.77.08-5.79-2.95-5.46-5.91-10.93-8.65-16.5-1.31-2.65-2.48-5.47-1.66-9.48,8.55,2.45,14.85,9.46,23.83,10.57,8.66,1.08,17.21.54,25.82.27Zm-52,101.66c.31,14.73,9.16,20,22.56,19.75,9.31-.18,15.81-10.43,13.83-20.91-2.78-14.78-5.86-29.51-8.88-44.24a55.15,55.15,0,0,0-2.19-8.11c-.76-2.07-2-4.06-4.71-3.94-2.56.1-4,1.75-4.87,3.89a43.55,43.55,0,0,0-1.82,5.1c-2.64,9.47-5.6,18.84-8.63,28.19C380.53,491.25,377.16,497.62,377.38,504.89Z"/><path class="a" d="M173.34,704.52c2.87-2.94,5.43-2.34,7.73-2.34q76.2-.07,152.4,0c7.6,0,8.65.94,8.79,8.74.15,8.42-.18,16.85-.2,25.27,0,5-2.42,6.87-7.44,7.13-14.36.76-28.39-2.2-42.59-3.17A320.48,320.48,0,0,1,258,736.45c-12.81-2.25-25.45-5.56-38.07-8.76-10.29-2.61-20.6-5.16-30.14-10.17A56.91,56.91,0,0,1,173.34,704.52Z"/><path class="a" d="M450.56,568.92c3.19-1.57,6.82-1.22,10.32-1.26,30.3-.33,60.61-.29,90.9-1q35.21-.8,70.41-.68c9.34,0,9.82.55,9.83,9.91,0,6.62.08,13.24,0,19.86-.11,7.05-1.44,8.39-8.59,8.28a160.33,160.33,0,0,1-17.41-.87c-27.87-3.47-55.92-4.86-83.84-7.81a276.67,276.67,0,0,1-43.07-8c-10.14-2.74-18.63-8.27-26.69-14.65C451.33,571.92,450.15,571,450.56,568.92Z"/><path class="a" d="M446.18,658.9c3.41-1.81,5.86-1.33,8.21-1.33q75.26,0,150.5,0c6.62,0,13.23.09,19.85.17,6.14.08,7.16.92,7.24,6.86.12,8.23.06,16.46-.06,24.68-.07,4.45-2.24,6.41-6.95,6-28.34-2.71-56.71-5.13-85.05-7.92-21.56-2.13-43-5.1-63.9-11.16A71.67,71.67,0,0,1,446.18,658.9Z"/><path class="a" d="M358.45,703.81c1.41-2.32,3.86-1.59,5.91-1.59q67.13,0,134.24.17c6,0,12,.05,18,0,4.71-.07,7,1.82,6.87,6.81-.21,8,.07,16.05,0,24.08-.07,6.64-1,7.69-8,7.25-23.8-1.54-47.53-3.93-71.26-6.38a274.8,274.8,0,0,1-55.18-11.68c-10.5-3.34-20.69-7.73-28.91-15.54C359.34,706.09,358.25,705.37,358.45,703.81Z"/><path class="a" d="M264.54,659.37c1.92-2.39,4.3-1.66,6.38-1.67q76.45-.13,152.9-.15c8.74,0,9.24.52,9.27,9.23,0,6.62-.17,13.24-.27,19.86-.11,7.65-.81,8.59-8.28,8.1-17.21-1.14-34.41-2.52-51.6-3.89-20-1.59-39.91-4-59.52-8.31-14.16-3.13-27.86-7.67-40.36-15.21C269.72,665.31,266.43,663,264.54,659.37Z"/><path class="a" d="M171.7,617.37c2.83-2,5.7-2,8.46-2.07,51.72-1.91,103.47-1,155.21-1.37,5,0,7.48,1.67,7.36,7-.18,7.61.09,15.24-.06,22.86-.13,6.65-1,7-7.92,7.62-9,.82-17.49-1.82-26.23-2.69-25.32-2.55-50.65-5-75.86-8.37-18.75-2.49-36.74-8.28-54-16.16C175.84,622.85,173.09,621,171.7,617.37Z"/><path class="a" d="M174,529.29c1.83-2.44,3.77-1.88,5.49-1.91,50.18-.89,100.36-1.48,150.56-1.4,1.6,0,3.21,0,4.81.08,3.33.07,5.38,1.58,5.38,5.08,0,8.83,0,17.66-.1,26.49-.06,4.15-3.11,4.88-6.34,4.56-6.58-.64-13.17-1.38-19.71-2.42-18.47-3-37.23-2.61-55.73-5-22.66-3-45.48-5.36-67.09-13.55A39.88,39.88,0,0,1,174,529.29Z"/><path class="a" d="M477.26,492.4c5.8-11.74,9.54-13.66,21.47-11.52a27,27,0,0,0,6.56.63c32.46-2.15,65-1.43,97.46-1.43,7.22,0,14.44-.59,21.66-.62,6.41,0,7.22.91,7.29,7.39.08,6.82-.11,13.65,0,20.47.11,4.8-1.74,6.91-6.75,6.8-39.34-.88-78.53-3.34-117.3-10.49-8.11-1.49-15.85-4.37-23.62-7C481.66,495.78,479.17,494.81,477.26,492.4Z"/><path class="a" d="M467.19,612.66c15.84,0,31.69,0,47.53,0,8,0,8.74.74,8.77,8.46,0,7.22-.21,14.44-.17,21.65,0,3.75-1.35,5.68-5.33,5.32-2.79-.25-5.64-.06-8.4-.49-28-4.3-56.12-6.68-84.35-8.34-5-.3-9.92-1.4-14.9-1.94-3.35-.37-4.4-2.14-4.13-5.29.41-4.85,1.83-9.43,3.25-14,1.14-3.72,4.14-3.84,7.22-4C433.5,612.87,450.34,612.9,467.19,612.66Z"/><path class="a" d="M266.14,571.28c2-2.11,4.14-1.54,6-1.55q47.9-.15,95.79-.16c8.35,0,9.32.89,11.86,9,1.69,5.36,3.37,10.72,5,16.1,1.69,5.72.57,7.52-5.55,7.12-18.2-1.21-36.47-1.55-54.5-4.86-13.05-2.39-26.06-4.64-38.2-10.4C278.69,582.79,271.75,578,266.14,571.28Z"/><path class="a" d="M436.45,548.68c3.44-8.23,8.7-15.67,14.55-22.71,1.33-1.6,3.73-1.22,5.71-1.42,14-1.39,28-.84,42.05-1.14,5.61-.12,11.22-.2,16.82-.48,4.27-.21,6.41,1.55,6.37,5.9-.07,8.61-.07,17.23-.15,25.84,0,3.75-2,5.59-5.75,5.16-17.28-2-34.81-1.17-51.94-5-6.81-1.52-13.86-2-20.77-3.06C441,551.41,438.45,551.53,436.45,548.68Z"/><path class="a" d="M252.7,502.34c0,4-.2,8,.05,12,.27,4.15-1.35,5.81-5.51,5.74a156.33,156.33,0,0,1-36.24-4.8c-11.07-2.82-22.13-5.83-32.35-11-6.4-3.26-12.6-6.88-12.33-15.87.11-3.4.82-4.93,4.09-5,25.42-.68,50.83-1.18,76.26-.78,4,.06,5.85,2,5.83,5.94,0,4.6,0,9.21,0,13.82Z"/><path class="a" d="M209.28,657.61c11.42,0,22.85,0,34.27,0,6.82,0,8.26,1.09,8.35,8,.12,8.6-.52,17.21-.88,25.81-.14,3.22-1.88,3.84-4.9,3.37-8.1-1.27-16.22-2.53-24.39-3.24-14.78-1.29-28.29-6.82-42-11.91-4.7-1.75-7.93-5.36-11.18-8.9-2.48-2.69-2.12-6-1.29-9.11s3.91-3.06,6.5-3.08c11.82-.05,23.65,0,35.48,0Z"/><path class="a" d="M533.6,523.76c2.21-1.61,4.48-1,6.63-1.08,26.45-.43,52.91.29,79.36-.93.4,0,.8,0,1.2,0,10.74,0,11.16.42,11.22,11.07,0,5,0,10,0,15,0,3.31-1.38,5.52-5,5.32-22.16-1.22-44.58-.5-66-7.8-10.35-3.53-20.06-8.24-26.3-17.93A4.85,4.85,0,0,1,533.6,523.76Z"/><path class="a" d="M211.3,570.46c11,0,22.07,0,33.1,0,6.93,0,7.76.82,7.93,7.46.21,8.42.29,16.84.49,25.26.06,2.66-.73,4.5-3.76,3.95-17.92-3.29-36.22-4.54-53.73-10.12-9.76-3.11-17.41-9.8-26-14.93-2.34-1.4-2.71-3.85-2.38-6.38.4-3.08,2.87-3.71,5.26-4a92.63,92.63,0,0,1,10.78-.84c9.43-.11,18.86,0,28.28,0Z"/><path class="a" d="M537.45,613.92c2.55-2.48,4.87-2,7-2q39.4-.06,78.8,0c7.9,0,8.65.82,8.74,8.56.08,5.81,0,11.63,0,17.44,0,4.23-1.67,6.41-6.18,5.91-25.37-2.78-50.53-6.4-73.5-18.69A53.13,53.13,0,0,1,537.45,613.92Z"/><path class="a" d="M538.87,704.8c2.59-2.31,4.91-1.84,7-1.84q38.5,0,77,.23c8.39,0,8.92.7,9,8.89.07,4.81.15,9.62,0,14.43-.14,6.15-1.11,7.47-7.16,6.45-15.2-2.55-30.56-4.13-45.56-8a132.56,132.56,0,0,1-29.76-11.09C545.29,711.71,542.17,708.5,538.87,704.8Z"/><path class="a" d="M344.28,512.31c-3.43,1.77-6.06.92-8.54.58-16.07-2.23-32.18-4.39-47.63-9.69a47.2,47.2,0,0,1-19.31-12.89c-1.6-1.74-3.41-3.45-3.12-6.47,2.16-2.19,5.06-1.62,7.76-1.59,9.42.1,18.84.31,28.26.45,1.61,0,3.4.41,4.78-.16,12.44-5.15,18.81,3.56,24.57,11.55C335.32,500,340.6,505.33,344.28,512.31Z"/><path class="a" d="M415.56,394.85c-13.58.75-24.24-6.37-35-13-3.42-2.1-3-4.86.87-7.45,7.43-4.94,15.9-5.14,24.36-4.87,7.39.24,14.12,2.85,20.44,6.52,2.27,1.33,4.26,3,5.15,5.66,2.37,7.13,0,11.21-7.42,12.45C421.18,394.62,418.36,394.64,415.56,394.85Z"/><path class="a" d="M292.79,376.07c12.87-8.67,26.86-8.5,40.93-7.39A45.67,45.67,0,0,1,346,371.35c4.47,1.67,6,4.84,6,9.34s-3.09,6.06-6.83,7.07c-6.54,1.76-13,2.17-19.55-.08C314.71,383.9,304.65,377.72,292.79,376.07Z"/><path class="a" d="M469.73,387.62c-2.56-.31-5.79.83-6.85-2.43-1-3.09,1.71-4.55,3.85-6,9.58-6.7,20.19-11.37,30.94-15.74a47.15,47.15,0,0,1,8.7-2.18,3.4,3.4,0,0,1,4.05,1.83c.86,1.83.73,3.86-1,4.86-11.67,6.8-21.9,16.3-35.63,19.28A36.43,36.43,0,0,1,469.73,387.62Z"/><path class="a" d="M413.54,604.67c2.65-11.74,7.07-22.18,11.5-32.6.73-1.73,1.84-3.15,4.08-2.7s2.85,2.09,3.05,4c1,9.55.46,19.13.23,28.7a4,4,0,0,1-4.09,4.32C423.57,606.54,418.81,606.72,413.54,604.67Z"/><path class="a" d="M394.33,634.8c-15-4-28.72-8-39.28-18.47.67-2.28,2-2.28,3.13-2.27q13.53.08,27.05.24c1.82,0,3.93,0,4.81,1.84A39.65,39.65,0,0,1,394.33,634.8Z"/><path class="a" d="M423.09,267.38A40.48,40.48,0,0,1,422.6,281c-1.09,5.69-6.26,3.91-9.93,4.21-3.82.32-3.73-2.76-3.66-5.47,0-.2,0-.4,0-.6C408.92,268.4,411.68,266.05,423.09,267.38Z"/><path class="a" d="M211.57,392.19c1.94-1,3-.84,3.77-.25,4.75,3.49,10.18,4.38,15.87,4.15,3.79-.15,6.06,1.45,6.79,6.18-6.13,3.21-12.46,2.38-18.65.2C214.69,400.82,212.34,397,211.57,392.19Z"/><path class="a" d="M388.47,275.58c-.31-3.5-.07-6.89,5.28-6.93,6.09,0,7.72,1.42,7.86,7.76.16,7.1-.94,8.7-5.95,8.75C390,285.22,388.66,283.53,388.47,275.58Z"/><path class="a" d="M369.93,263.84c4.24-.52,8.3.12,10.34,3.44,2.31,3.77,2,8.47,1.06,12.83-.35,1.59-1.86,2-3.39,1.65-2.78-.67-5.59-1.57-6.32-4.77C370.66,272.77,369.69,268.51,369.93,263.84Z"/><path class="a" d="M571.65,378.57c-1.59-4.41-1.46-8.16-3.57-11.17a47.28,47.28,0,0,1-5.34-9.29,11.89,11.89,0,0,1,10.87,7.17C575.74,369.64,576.21,373.87,571.65,378.57Z"/><path class="a" d="M228.23,387.05c-3.81,1.55-6.38-.28-8.93-1.68-1.56-.85-3.14-2.19-2.44-4.31a6.66,6.66,0,0,1,4.75-4.22c2.32-.69,3.2,1.07,4,2.68C226.83,381.78,228.37,383.93,228.23,387.05Z"/><path class="a" d="M559.34,370.17c4.1,2.51,5.25,5.44,3.8,9.07-1.36,3.39-4,4.73-8.14,3.74C554.62,378.24,556.44,374.37,559.34,370.17Z"/><path class="a" d="M355.52,257.76c5.77.31,7.46,2.27,7.67,5.82.2,3.19.68,6.36.82,9.54a2.39,2.39,0,0,1-2.51,2.75c-1.27,0-2.86-1.05-2.51-2.07C360.85,268.28,358.69,263.35,355.52,257.76Z"/><path class="a" d="M349.74,527.41c6.44-1.51,9.6,1.44,11.84,10.54C356.43,537.76,351.9,533.84,349.74,527.41Z"/><path class="a" d="M248.64,392.6a16,16,0,0,1,10.87-4.16c-1.1,4.26-4.19,6.15-7.17,7.66C250.41,397.08,249.2,395.17,248.64,392.6Z"/><path class="a" d="M429.3,403.14l.09.09Z"/><path class="a" d="M464.26,197.13l.06.05Z"/><path d="M377.38,504.89c-.22-7.27,3.15-13.64,5.29-20.27,3-9.35,6-18.72,8.63-28.19a43.55,43.55,0,0,1,1.82-5.1c.9-2.14,2.31-3.79,4.87-3.89,2.74-.12,3.95,1.87,4.71,3.94a55.15,55.15,0,0,1,2.19,8.11c3,14.73,6.1,29.46,8.88,44.24,2,10.48-4.52,20.73-13.83,20.91C386.54,524.89,377.69,519.62,377.38,504.89Zm7.91-1c.35,7,3.15,10.51,8.07,12.33,3.46,1.28,7.08,2,10-1.22s3.76-6.7,1.7-11.6C398.87,508.69,392.52,507.26,385.29,503.86Z"/><path class="a" d="M385.29,503.86c7.23,3.4,13.58,4.83,19.8-.49,2.06,4.9,1.2,8.45-1.7,11.6s-6.57,2.5-10,1.22C388.44,514.37,385.64,510.85,385.29,503.86Z"/></svg>