<svg xmlns="http://www.w3.org/2000/svg" viewBox="0 0 800 800"><defs><style>.a{fill:#abcad3;}</style></defs><title>old-school</title><path d="M161,50.27c19,0,37.25,0,55.49,0q95.19.09,190.37.18Q520.75,50.4,634.61,50c5.84,0,5.35,3.34,5.32,7-.2,28.51-.56,57-.57,85.54q-.06,116.23.13,232.47.25,177.12.64,354.26c0,4.82-.4,9.68.15,14.43s-1.47,6.3-5.66,6.26c-8.63-.09-17.26-.33-25.89-.35q-74.67-.2-149.35-.31l-248.2-.62q-22.29,0-44.58,0c-5.11,0-7.08-1.68-7-6.65,1.28-51,.46-102,.85-153q1.08-140.67.68-281.34c-.12-44.38-.69-88.76-.8-133.14-.09-39.35.16-78.7.28-118C160.66,54.63,160.89,52.65,161,50.27Zm473.6,326.61h-1q0-100,0-200a130.39,130.39,0,0,0-5.06-36.78C621,114.54,603,97.64,579.72,85.8a335,335,0,0,0-43.85-18.17C516.33,61,496.51,55.46,475.54,55.54c-36.15.14-72.31-.21-108.46.08-36.48.29-73.05-2-109.28,4.92-31.87,6.05-56.54,22.13-72.38,50.6-6.24,11.21-10.2,23.52-12.89,36.13-3.09,14.49-7.47,28.85-7.4,43.76q.68,146.7.59,293.4c-.08,40.47-3.12,81.06,4,121.32,4.69,26.46,9.35,52.69,22.31,77,11.31,21.17,28.83,33.2,50.55,40.62,19.25,6.57,39.19,10,59.29,12.68,20.25,2.67,40.47,7.41,60.74,7.65,46.12.54,92.3,2.34,138.4-1,11.78-.84,23.47-1.79,35.15-4.25a117.4,117.4,0,0,0,51.06-24.26c18.44-15.09,27.41-36,34.67-58a208.83,208.83,0,0,0,9.72-51.82c.59-8.82,3.09-17.36,3.07-26.28Q634.54,477.49,634.64,376.88Z"/><path class="a" d="M634.64,376.88q0,100.62.06,201.22c0,8.92-2.48,17.46-3.07,26.28a208.83,208.83,0,0,1-9.72,51.82c-7.26,22-16.23,42.9-34.67,58a117.4,117.4,0,0,1-51.06,24.26c-11.68,2.46-23.37,3.41-35.15,4.25-46.1,3.3-92.28,1.5-138.4,1-20.27-.24-40.49-5-60.74-7.65-20.1-2.65-40-6.11-59.29-12.68-21.72-7.42-39.24-19.45-50.55-40.62-13-24.27-17.62-50.5-22.31-77-7.14-40.26-4.1-80.85-4-121.32q.3-146.7-.59-293.4c-.07-14.91,4.31-29.27,7.4-43.76,2.69-12.61,6.65-24.92,12.89-36.13,15.84-28.47,40.51-44.55,72.38-50.6,36.23-6.89,72.8-4.63,109.28-4.92,36.15-.29,72.31.06,108.46-.08,21-.08,40.79,5.44,60.33,12.09A335,335,0,0,1,579.72,85.8c23.3,11.84,41.3,28.74,48.87,54.27a130.39,130.39,0,0,1,5.06,36.78q.11,100,0,200ZM238.87,400.63c-2.77,4.3-.57,6.6.6,9,5.67,11.6,9.36,23.56,6,36.57-2.87,11.28-6.3,22.39-11.48,32.88-2.22,4.49-4.71,8.93-6.14,13.68-4.76,15.78-2.19,31.12,4.78,45.57a148.66,148.66,0,0,0,40.32,51,91.82,91.82,0,0,1,11.61,11.21c-1,3.56-3.22,6.2-5,9.1-5.83,9.72-12.78,18.69-12.44,31.24.43,15.66,14.38,25.88,27,24.3,13.66-1.72,26.06-7,36-16.61,5-4.82,10.56-9.21,13.95-15.53a81,81,0,0,0,41.42-.9c17.2-4.79,33.86-11,50.58-17.18,8-3,16.45-4.88,24.69-7.27.26.53.53,1.05.8,1.58-15.37,11.06-27.18,26.61-45.05,34.53C406.47,648.23,396,650.42,385,649c-1.78-.23-3.51,0-4,1.79-.66,2.42,1,3.49,3.17,4.18,21.51,6.8,42.78,6.56,62.83-4.2,13.66-7.33,25.78-17.12,37.23-27.69a66.94,66.94,0,0,1,27.44-15.7c8.55-2.39,16.3-1.6,23.49,4.76,10.82,9.57,16.18,21.69,18.89,35.4a9.86,9.86,0,0,1-1.2,7,73.82,73.82,0,0,1-8.8,12.9c-5.91,6.6-11.34,7.36-18.53,2.34-4.84-3.39-8.79-7.73-10.43-13.61-1.74-6.24-1.58-12.41,2.39-17.85s10.09-6.93,15.33-3.83c6.76,4,9.27,10.39,6.45,16.74-1.16,2.61-2.61,5.4-6.17,4.33s-3.59-4.11-2.64-6.94c.76-2.24,1-4-1.58-4.78-2.36-.67-3.71.84-4.55,2.9-2.1,5.16.64,11.39,6.14,13.9,4.66,2.13,11.77-.3,14-4.76,4.17-8.51,2.9-16.49-4-23.1-9.94-9.51-22.53-6.55-28.31,2.47-7.55,11.76-3.76,29.71,9.34,38.39,7.62,5.06,16.2,8.79,25.46,5.06,12.13-4.89,22.61-12.76,29.77-23.59,7.27-11,6.94-19.78-4.39-29.59-5.9-5.12-12.34-9.47-18.56-14-19.37-14.14-41.07-20.63-65.41-18.73-15.14,1.19-28.67,7.33-42.7,11.79-24.25,7.72-46.1,1.92-67.55-8.83.26-1.09.23-1.58.46-1.85a43.34,43.34,0,0,1,3.2-3.57c14.37-13.9,31.64-22.45,50.92-26.94,10.14-2.36,20.47-3.7,30.22-7.72,24.2-10,41.25-26.18,46-52.83,2.31-13,8.37-22.54,19.68-29.9,17.34-11.28,28.39-27.36,31.42-48.31,1.5-10.41.61-21-4.13-30-5.54-10.57-11-21.17-15.93-32-1.63-3.58-3.39-7.27-2.32-11.57,5.55-1.45,11.32-2.08,16.28-4.43a103.62,103.62,0,0,0,29.65-21.74c17.24-17.81,25-39.61,24.58-64.55-.23-13.64-1.3-27.25-.78-40.92.48-12.42,3.31-23.8,11.94-33.2,1.78-1.95,2.5-4.05.74-6.32-2.27-.88-4.08-.14-5.76,1.12-9,6.74-16.37,14.8-20,25.71-2.34,7.06-3.71,14.34-5.21,21.62-1.12,5.42-.3,11.35-3.93,16.49-4.2-18.76-13.41-34.63-26.54-48.25,2-3,3.56-5.54,5.34-7.94,8.22-11.13,9.65-23.41,4.8-36-6.2-16-17.38-24-31.8-22.53a83.12,83.12,0,0,0-33.52,11c-17.13,10-34,20.49-54.07,23.92-3.43.59-6.4,2.53-9.06,4.54a8.06,8.06,0,0,1-6.68,1.68c-10.11-1.73-20.15-3.63-28.36-10.59-1.68-1.43-3.78-3.81-6.21-1.37-2.63,2.63-.19,4.81,1.34,6.8,5.17,6.71,11,12.79,18.29,17.22,1.34.8,2.87,1.51,3.16,3.62-2.42,4.51-6.74,7-11.18,9.38-6.24,3.29-13,5.29-19.7,7.35s-13.23,5-17.25,10.4c-4.32,5.79-9.38,6.07-15.2,5.34-6.37-.8-12.76-1.8-18.79-4.08a48.49,48.49,0,0,1-17.84-11.64c4-5,7.16-9.68,9.22-14.86,6.39-16.08,4.95-32.8-.54-48.29a87.19,87.19,0,0,0-25.4-37.5c-5.7-4.85-7.16-4.83-11.47,1.1-2.28,3.13-4.64,3.76-8.14,3.16-16-2.75-28.17,3.74-37.28,16.49a17.61,17.61,0,0,1-6.79,6.22c-4.24,2.07-8.74,4.34-7.65,10.7,2.42,14.13,4.46,28.29,12.43,40.78,8.47,13.27,19.73,23.07,34.49,28.6,12.24,4.6,24.29,4,35.53-2.52,7.33,5.06,13.45,11.71,21.91,13s16.67,3.68,25.81,3.63c-1.31,3.84-1.3,7-1.45,10.22-.22,4.9-2.38,7.29-7.76,7.86a68.89,68.89,0,0,1-40.19-7.53c-1.66-.87-3.32-2.44-5.54-1.37-2.33,3.54.39,5.59,2.28,7.82,7.16,8.46,16.68,14.05,25.67,20.41a51.51,51.51,0,0,0-12.87,23.71,93.9,93.9,0,0,1-23,42.89c-8.86,9.53-18.27,18.55-26.77,28.39-11.13,12.9-17.58,27.73-16.71,45.09.83,16.63,10.34,28.45,29.54,24.72,6.42-1.24,12.6-3.88,19.67-3.82.57,3.51.88,6.92,1.7,10.19,2.21,8.91-1.78,14.63-8.87,19.42-13.56,9.16-25.28,20.26-34.32,34.06-1.76,2.7-2.94,6-6.76,8.71,1.92-17.38,3.88-33.59,1.74-50.06C258,427.86,248.86,414.67,238.87,400.63Zm13.6-160.56c-2,3.36-2.19,3.42-2.15,6.55.16,11.78-2.89,22.87-6.27,34.05-2.58,8.55-6.59,16.81-6.53,26.09,0,7.92,3.52,13.62,9.45,14.82,7.76,1.57,16.8-3,19.09-10.06a68.76,68.76,0,0,0,3.67-23.59c-.51-15.78-5.2-30.29-12.5-44.1C256.21,241.91,255.27,239.76,252.47,240.07ZM227,170.77a3.39,3.39,0,0,0-3.2,2.07c-6.27,9.9-10.54,20.7-14,31.8-2.46,7.84-4.29,15.81-2.83,24.21s6.61,14.67,12.38,16.22c12.22,3.28,23.56-12.61,18.85-23.26q-2.55-5.76-5.05-11.54c-4.56-10.48-7.12-21.21-4.6-32.72C229.06,175.29,229.42,172.72,227,170.77Z"/><path d="M238.87,400.63c10,14,19.16,27.23,21.39,44.28,2.14,16.47.18,32.68-1.74,50.06,3.82-2.72,5-6,6.76-8.71,9-13.8,20.76-24.9,34.32-34.06,7.09-4.79,11.08-10.51,8.87-19.42-.82-3.27-1.13-6.68-1.7-10.19-7.07-.06-13.25,2.58-19.67,3.82-19.2,3.73-28.71-8.09-29.54-24.72-.87-17.36,5.58-32.19,16.71-45.09,8.5-9.84,17.91-18.86,26.77-28.39a93.9,93.9,0,0,0,23-42.89A51.51,51.51,0,0,1,337,261.61c-9-6.36-18.51-12-25.67-20.41-1.89-2.23-4.61-4.28-2.28-7.82,2.22-1.07,3.88.5,5.54,1.37a68.89,68.89,0,0,0,40.19,7.53c5.38-.57,7.54-3,7.76-7.86.15-3.19.14-6.38,1.45-10.22-9.14.05-17.37-2.37-25.81-3.63s-14.58-7.92-21.91-13c-11.24,6.53-23.29,7.12-35.53,2.52-14.76-5.53-26-15.33-34.49-28.6-8-12.49-10-26.65-12.43-40.78-1.09-6.36,3.41-8.63,7.65-10.7a17.61,17.61,0,0,0,6.79-6.22c9.11-12.75,21.25-19.24,37.28-16.49,3.5.6,5.86,0,8.14-3.16,4.31-5.93,5.77-6,11.47-1.1a87.19,87.19,0,0,1,25.4,37.5c5.49,15.49,6.93,32.21.54,48.29-2.06,5.18-5.24,9.91-9.22,14.86a48.49,48.49,0,0,0,17.84,11.64c6,2.28,12.42,3.28,18.79,4.08,5.82.73,10.88.45,15.2-5.34,4-5.38,10.62-8.36,17.25-10.4s13.46-4.06,19.7-7.35c4.44-2.35,8.76-4.87,11.18-9.38-.29-2.11-1.82-2.82-3.16-3.62-7.34-4.43-13.12-10.51-18.29-17.22-1.53-2-4-4.17-1.34-6.8,2.43-2.44,4.53-.06,6.21,1.37,8.21,7,18.25,8.86,28.36,10.59a8.06,8.06,0,0,0,6.68-1.68c2.66-2,5.63-3.95,9.06-4.54,20-3.43,36.94-13.91,54.07-23.92a83.12,83.12,0,0,1,33.52-11c14.42-1.45,25.6,6.49,31.8,22.53,4.85,12.57,3.42,24.85-4.8,36-1.78,2.4-3.34,5-5.34,7.94,13.13,13.62,22.34,29.49,26.54,48.25,3.63-5.14,2.81-11.07,3.93-16.49,1.5-7.28,2.87-14.56,5.21-21.62,3.63-10.91,11-19,20-25.71,1.68-1.26,3.49-2,5.76-1.12,1.76,2.27,1,4.37-.74,6.32-8.63,9.4-11.46,20.78-11.94,33.2-.52,13.67.55,27.28.78,40.92.42,24.94-7.34,46.74-24.58,64.55a103.62,103.62,0,0,1-29.65,21.74c-5,2.35-10.73,3-16.28,4.43-1.07,4.3.69,8,2.32,11.57,5,10.85,10.39,21.45,15.93,32,4.74,9,5.63,19.59,4.13,30-3,20.95-14.08,37-31.42,48.31-11.31,7.36-17.37,16.9-19.68,29.9-4.75,26.65-21.8,42.85-46,52.83-9.75,4-20.08,5.36-30.22,7.72-19.28,4.49-36.55,13-50.92,26.94a43.34,43.34,0,0,0-3.2,3.57c-.23.27-.2.76-.46,1.85,21.45,10.75,43.3,16.55,67.55,8.83,14-4.46,27.56-10.6,42.7-11.79,24.34-1.9,46,4.59,65.41,18.73,6.22,4.54,12.66,8.89,18.56,14,11.33,9.81,11.66,18.58,4.39,29.59-7.16,10.83-17.64,18.7-29.77,23.59-9.26,3.73-17.84,0-25.46-5.06-13.1-8.68-16.89-26.63-9.34-38.39,5.78-9,18.37-12,28.31-2.47,6.9,6.61,8.17,14.59,4,23.1-2.19,4.46-9.3,6.89-14,4.76-5.5-2.51-8.24-8.74-6.14-13.9.84-2.06,2.19-3.57,4.55-2.9,2.6.74,2.34,2.54,1.58,4.78-1,2.83-.89,5.87,2.64,6.94s5-1.72,6.17-4.33c2.82-6.35.31-12.74-6.45-16.74-5.24-3.1-11.29-1.72-15.33,3.83s-4.13,11.61-2.39,17.85c1.64,5.88,5.59,10.22,10.43,13.61,7.19,5,12.62,4.26,18.53-2.34a73.82,73.82,0,0,0,8.8-12.9,9.86,9.86,0,0,0,1.2-7c-2.71-13.71-8.07-25.83-18.89-35.4-7.19-6.36-14.94-7.15-23.49-4.76a66.94,66.94,0,0,0-27.44,15.7c-11.45,10.57-23.57,20.36-37.23,27.69-20.05,10.76-41.32,11-62.83,4.2-2.19-.69-3.83-1.76-3.17-4.18.48-1.76,2.21-2,4-1.79,11,1.39,21.48-.8,31.56-5.26,17.87-7.92,29.68-23.47,45.05-34.53-.27-.53-.54-1-.8-1.58-8.24,2.39-16.66,4.31-24.69,7.27-16.72,6.15-33.38,12.39-50.58,17.18a81,81,0,0,1-41.42.9c-3.39,6.32-9,10.71-13.95,15.53-9.92,9.64-22.32,14.89-36,16.61-12.6,1.58-26.55-8.64-27-24.3-.34-12.55,6.61-21.52,12.44-31.24,1.74-2.9,3.94-5.54,5-9.1A91.82,91.82,0,0,0,273,589.3a148.66,148.66,0,0,1-40.32-51c-7-14.45-9.54-29.79-4.78-45.57,1.43-4.75,3.92-9.19,6.14-13.68,5.18-10.49,8.61-21.6,11.48-32.88,3.32-13-.37-25-6-36.57C238.3,407.23,236.1,404.93,238.87,400.63Zm83.92,178.26-.07-.46-.29.31.46,0c1.56,3.72,6.09,3.45,8.37,6.32,4.5,5.69,10.09,10.29,15.71,14.79,20.54,16.48,43.4,22.08,69.86,14.38-6-1.64-11.34-2.38-16.56-3.7-15-3.79-28-11.73-41.2-19.32C347.77,584.75,336.67,577.77,322.79,578.89Zm-65.57-14.13c.29.54.29,1.38,1.26,1.23a1.15,1.15,0,0,0-.6-1.75c0-3.16-1.87-5.68-3-8.41-6.26-14.81-8.25-30-4.8-45.81a215.4,215.4,0,0,0,4.78-30.84c.87-12.55,1.47-25.08-1.41-38.58-4.44,13.86-7.27,27-13.29,39.06-3,6.08-6.77,12.08-7.68,18.8C228.9,524.86,240.48,545.82,257.22,564.76Zm48.45-109.19c-20.11,11.93-34.6,28.83-44.35,49.95-5.67,12.29-7.28,25-3.47,38.07A122.42,122.42,0,0,0,269,570.72a79.45,79.45,0,0,0,18.19,22.07c2.27-2.49,2.37-5.29,2.5-8.12-1.23-1.44-4.25-.52-4.33-3.39-.07-2.61,1.76-3.29,3.73-4,2.78-1,2.29-3.48,2.32-5.61.17-10.47-1.54-20.78-2.68-31.13-2.44-22.1-1.15-43.52,9.15-63.88,3.3-6.53,7.38-12.91,8.4-20.46.48-.36.67-.78.08-1.16C306.3,455,305.92,455.39,305.67,455.57Zm3,34.63,1.72.56c.36.13.76.44,1.08.37,17.12-3.55,33.33.5,49.64,5.26a70.56,70.56,0,0,0,29.24,2.45c10.92-1.49,21.77-3.52,32.68-5.13,22.05-3.23,40.2,3.4,54.05,21.29a123.6,123.6,0,0,1,10.22,15.68c8.44-11.12,12-22.8,12.87-35.64-3.62-.09-4.21,3.37-6.61,4.26l-3.23-5.55c-2.43,4.73-3.47,9.6-7.27,12.91-1.76-2.12-3.06-4.17-2.18-6.33,1.63-4,2.88-8.18,5.89-11.65,5-5.77,11.53-9.36,17.85-13.13A27.82,27.82,0,0,0,515,464.29c4.13-7.59,4.69-15.63,3.93-24-1.47-16-10.46-29.2-15.76-44.32-2.12,2.8-3.91,5.19-5.73,7.56-8.35,10.92-19.47,14.84-32.85,12.84-4.94-.74-9.89-1.54-14.76-2.61-12.8-2.81-24.22-.25-34.38,8.11-1.73,1.42-3.55,3.21-6.79,2.5,1.43-11.85,9.29-17.46,20.82-21.23-8-1.3-13.52,1.73-19.42,4-.6-4.23,1.93-5.71,4.14-7.29,6.69-4.77,14.24-4,21.45-2.29a345.15,345.15,0,0,1,33.43,9.45,13,13,0,0,0,9.43-.34,39.45,39.45,0,0,0,16.25-12c9.06-11.46,13-24.89,14.3-39,1.06-11.2,3.82-21.19,12.5-28.88,3.75-3.32,7.55-6.59,11.24-10,7.49-6.92,8.89-16.53,3.69-25.72a31.36,31.36,0,0,1-10.36,7c-8.6,4-17.71,4.39-27,4.93-11.24.66-23.74,0-28.3,14.61-4.19-3.12-4.74-6.24-1.88-10,4.35-5.78,10.34-8.64,17.29-9.75,3.39-.55,6.8-.92,11.3-1.52-7.4-4-14.39-4.17-22.06-3.87,2.56-6.1,6.7-7.43,11.19-6.31a95.85,95.85,0,0,1,16,5.75c7.79,3.5,15.69,1.39,20.15-5.92,5.63-9.23,5.27-25-1-34.87-.88,5.16-1.9,9.78-6,13.54-8,7.3-17.06,8.28-26.91,5.47-3.45-1-6.46-2-9.1,1.66-1.18,1.6-3.1,1.65-4.58-.1,1.72-5.46,5.09-8.47,10.07-8.55a66.16,66.16,0,0,1,9,.73c8.71,1.08,14.85-3.36,16.35-12,.86-5,.4-10-.34-15-.89-6-1.61-11.86,1.38-17.65,1.58-3.08,2.24-6.64,3.33-10-22.91-2.1-44.14,2.8-64.63,11.73a81.94,81.94,0,0,0-8.74,4c-12.12,7.12-23.37,15.55-35.1,23.26-12.81,8.43-26.22,15.51-42.13,16a26.22,26.22,0,0,0-9.28,2c-13.59,5.67-22.31,15.47-27.55,29.12-7.52,19.62-18,37.64-32.59,52.88C282,361.86,275,378.46,271.4,396.62c-1.8,9.06,5.21,21.77,19.89,18.6a60.85,60.85,0,0,0,19.28-8c8.13-5,17.17-7.37,26.86-5.54,1.95.37,4.25.75,4.59,3.18.42,3-2.65,2.69-4.52,3.66,2.91,3.36,6.77,5.67,8.05,9.88.61,2,1.9,4.32.21,6.31-1.87,2.21-4.09.62-6.1,0a56.24,56.24,0,0,0-24.61-2.17C323.35,446.13,318.77,468.41,308.69,490.2Zm-.08,82.64c2.09,1,3.43.23,4.79.13,14-1.05,27.63.4,39.51,8.41,3.75,2.54,6.28,2.47,9.58.41,2.89-1.81,5.65-3.89,8.72-5.3,23.76-10.87,48-20.3,74.19-23.44,9.51-1.14,18.29-4.52,26.75-8.66,3.6-1.76,7.77-3.21,9.93-7.1-10.11-13.54-22-18.11-35.33-15.77-10.48,1.84-19.69,6.59-28.81,11.72-8.71,4.9-17.35,10-27.41,11.87-10.74,2-21.21,0-31.53-2.4-8.45-2-16.84-3.74-25.54-2.74-8.89,1-17.83,2-26.12,6.2C309.28,555.22,310.06,563.93,308.61,572.84ZM538,340.36a94.29,94.29,0,0,0,28-31.1C573.9,295,579.31,279.78,579.17,263c-.13-15.76-4.48-29.79-16.36-40.39-4.36-3.89-9.6-7.76-16-8.14a39.35,39.35,0,0,0-6.45,21.94c0,10.61.42,21.22.89,31.82.12,2.73-1,5.52.64,8.24,11.47,19.68,9.07,38.65-3.22,57C537.32,335.45,537,337.36,538,340.36ZM330.28,171.94c1.9-24.07-10.52-41.42-23.57-59-16.29,17.48-21.65,51.65-13.19,71.67,2.29-5.53,5.36-9.72,12.2-7.9,1.32.35,2.23-.31,3.16-1.22C317.71,166.72,319.12,166.46,330.28,171.94Zm-89-24.42c2.05,27.17,20.68,51.1,41.4,54.94.41-4,2.27-7.55,4-11-7.62-15.58-9.72-32-9.42-49.14C264.36,138.94,252.75,142.88,241.25,147.52ZM419,175.08a32.19,32.19,0,0,0,14,8.43c13.06,4.25,26.65,5.42,40.25,6,19.73.88,39.24,3.23,57.48,11.07,11.25,4.83,23.22,7.69,34.26,13.29a77.67,77.67,0,0,0-25.66-24.48c-16.69-10-35.48-10.56-54.06-11.67-16.18-1-32.41,2.25-48.62-.16C430.74,176.72,424.87,175.92,419,175.08ZM549.3,340c5.57.07,5.68-.2,15.18-6.51,23.34-15.51,35.63-37.08,37.33-65.11,1-17.08-1.11-34.07-.43-51.11.18-4.46.63-8.89,1-14.27-1.06,1.22-1.58,1.58-1.77,2.07-.65,1.68-1.22,3.39-1.75,5.11-5.09,16.58-6.64,33.75-8.35,50.89-2.29,22.85-9.19,43.92-24.34,61.61C561,328.67,555.09,334.07,549.3,340Zm-222.9-93.3c2.84,2.58,5.2,5,8.38,6.84,12.13,6.95,24.84,6.56,38,3.92,17.53-3.52,30.88-14.81,45.42-23.92,7.9-5,14.73-11.73,24.24-14,1.63-.39,4-.7,5.08-3.75-11.84,1.59-23,4.56-34.12,7.3-10,2.47-18.8,7.93-27.65,13.06-15,8.68-30.43,15.07-48.38,12.63C333.77,248.21,330.74,245.52,326.4,246.65Zm6.54,376.82c3.58-6.56,7.91-12.52,9.43-20.15A41.16,41.16,0,0,1,331.84,594c-5.8-7-13.4-10.53-21.89-12.62-2.74-.68-4.95,0-6.28,3.05-2.43,5.66-5.23,11.17-8,17C306.28,611.6,318.61,618.65,332.94,623.47Zm201.9-443.13a20.6,20.6,0,0,0,5.66-10c3.84-13.71,1.07-20.65-15.74-19.26-15.16,1.25-26.38,11.58-39.68,20.25C502.84,173,519.32,173.58,534.84,180.34ZM410.1,653c13.69.06,26.6-2.69,38.24-9.75,11.85-7.18,22.22-16.36,32.65-25.45a86.64,86.64,0,0,1,29.34-17.24c-17.63,1.17-34.46,4.25-48.55,16.18C445.69,630.39,431.33,646.53,410.1,653ZM515,201.44c-5.85-1.24-11.65-2.94-17.57-3.62-15.91-1.81-31.91-2.9-47.79-4.9a11.1,11.1,0,0,0-10.87,4.44c-8.26,10.57-19.71,13.65-32.17,15.2a46.56,46.56,0,0,0-17.4,5.33C431.44,214.63,472.32,200.79,515,201.44ZM292,605.88c-2.23,3.86-4.23,6.86-5.77,10.07-4.22,8.78-1,18.21,7.5,22.76,10.75,5.74,27.27,1.28,35.2-9.78C315.87,622.9,303.44,615.91,292,605.88Zm230.5-251.94c-6.53,9.72-7.76,19.39-4,29.74,6,16.34,15.84,31.56,14.45,50.17a179.62,179.62,0,0,0,5.37-21.56c1.87-10.68,1.34-21.1-4.27-30.9C529.21,372.89,525.74,363.72,522.49,353.94ZM338.35,497.3c-17.16-4.49-22.49-2.54-24.15,16.25,18.76.7,18.77.7,24-14.71A8.32,8.32,0,0,0,338.35,497.3ZM367.73,504a83.75,83.75,0,0,0-19-5c-1.88-.27-3.62-.26-4.63,1.76-1.94,3.87-3.88,7.73-4,12.33l21.77,4.12C363.75,513,365.59,508.84,367.73,504ZM348.45,627.12c12.58,3.64,35.25,1.93,44.59-3.46-12.71.15-23.54-4.49-34.27-8.75C353.25,617.23,351.79,622.59,348.45,627.12Zm41.64-88.39c-.67-5-1.25-9.32-1.9-14.23a76.19,76.19,0,0,1-21.8,0c-.39,5.24-1,9.75,1.29,14.2C375.09,539.15,382.37,541.24,390.09,538.73Zm-49.94-5c6.66-.42,13.06,1.77,19.87,2.72v-13.7c-7-2.3-13.94-3.49-21.32-2.64A25.08,25.08,0,0,0,340.15,533.71Zm35.24-29.16c-5.41,7.23-6.73,10.3-6.46,15h19.68c2.31-4.83,3.24-9.82,4.82-15A90.67,90.67,0,0,1,375.39,504.55ZM316,536.78l17.36-3.52c-.54-4.6-1-8.89-1.53-13H313.27A44.32,44.32,0,0,0,316,536.78ZM555.92,662.67c9.88-4.74,16.53-12.14,19.39-22.65.8-2.94-.42-5.06-3.52-4.59-4.31.66-8.48,1.66-9.54,7.29C561,649.51,559.86,656.47,555.92,662.67Zm-273-506.35c2.91-17.3,8.12-33.6,19.26-47.31-1.14-1.76-1.72-3.34-4-3.22C288.49,121.22,281,137.36,282.87,156.32Zm23.64,365.09a20.11,20.11,0,0,0-8.45,1.63c.82,6.36-.06,12.75,2.51,19.37,2.93-1.92,6.72-1.34,9-4.3-.57-2.9-.95-5.67-1.68-8.35S308,524.17,306.51,521.41Zm-7.33-5.16c3.23-.26,6.72.49,8-3.12,1.71-5,2.88-10.12,4.33-15.36C299.13,498.74,298.05,500.38,299.18,516.25Zm-58.6-375a80.61,80.61,0,0,1,19.31-5.76c6.3-.92,12.67,1,19-.19-2.26-3.25-5.55-2.89-8.3-3.39-9.7-1.76-19.13-1-27.92,4.18C240.63,137.28,239.27,138.16,240.58,141.28Zm155.88,81.9-.37-1c-3.5.34-7,.75-10.48,1-8.16.54-9.81,2.24-10.4,11.68Zm-126-107.66c-7.95,1.16-12.6,4.47-14.71,9.85C263.28,125.75,265.6,118.67,270.5,115.52Zm54.2,130.24.19-.27-.33,0Z"/><path d="M252.47,240.07c2.8-.31,3.74,1.84,4.76,3.76,7.3,13.81,12,28.32,12.5,44.1a68.76,68.76,0,0,1-3.67,23.59c-2.29,7.05-11.33,11.63-19.09,10.06-5.93-1.2-9.4-6.9-9.45-14.82-.06-9.28,3.95-17.54,6.53-26.09,3.38-11.18,6.43-22.27,6.27-34.05C250.28,243.49,250.47,243.43,252.47,240.07Zm-9.86,66.65c.63,7.43,2.78,9.92,7.77,9.69,7.09-.34,11.24-4.83,11.12-12.55C255.88,308.55,249.76,309.44,242.61,306.72Z"/><path d="M227,170.77c2.38,1.95,2,4.52,1.52,6.78-2.52,11.51,0,22.24,4.6,32.72q2.51,5.78,5.05,11.54c4.71,10.65-6.63,26.54-18.85,23.26-5.77-1.55-10.92-7.89-12.38-16.22s.37-16.37,2.83-24.21c3.49-11.1,7.76-21.9,14-31.8A3.39,3.39,0,0,1,227,170.77ZM213.1,229.59c3.33,9.31,6.59,12,12.1,10.71,5-1.2,8.92-7.65,8.29-13.46C227.1,232.8,220.18,233.52,213.1,229.59Z"/><path class="a" d="M308.69,490.2c10.08-21.79,14.66-44.07,6.36-67.69a56.24,56.24,0,0,1,24.61,2.17c2,.65,4.23,2.24,6.1,0,1.69-2,.4-4.3-.21-6.31-1.28-4.21-5.14-6.52-8.05-9.88,1.87-1,4.94-.64,4.52-3.66-.34-2.43-2.64-2.81-4.59-3.18-9.69-1.83-18.73.55-26.86,5.54a60.85,60.85,0,0,1-19.28,8c-14.68,3.17-21.69-9.54-19.89-18.6C275,378.46,282,361.86,295.07,348.2c14.64-15.24,25.07-33.26,32.59-52.88,5.24-13.65,14-23.45,27.55-29.12a26.22,26.22,0,0,1,9.28-2c15.91-.53,29.32-7.61,42.13-16,11.73-7.71,23-16.14,35.1-23.26a81.94,81.94,0,0,1,8.74-4C471,212,492.18,207.1,515.09,209.2c-1.09,3.38-1.75,6.94-3.33,10-3,5.79-2.27,11.69-1.38,17.65.74,5,1.2,10,.34,15-1.5,8.65-7.64,13.09-16.35,12a66.16,66.16,0,0,0-9-.73c-5,.08-8.35,3.09-10.07,8.55,1.48,1.75,3.4,1.7,4.58.1,2.64-3.62,5.65-2.65,9.1-1.66,9.85,2.81,18.86,1.83,26.91-5.47,4.13-3.76,5.15-8.38,6-13.54,6.23,9.91,6.59,25.64,1,34.87-4.46,7.31-12.36,9.42-20.15,5.92a95.85,95.85,0,0,0-16-5.75c-4.49-1.12-8.63.21-11.19,6.31,7.67-.3,14.66-.12,22.06,3.87-4.5.6-7.91,1-11.3,1.52-6.95,1.11-12.94,4-17.29,9.75-2.86,3.79-2.31,6.91,1.88,10,4.56-14.61,17.06-13.95,28.3-14.61,9.29-.54,18.4-1,27-4.93a31.36,31.36,0,0,0,10.36-7c5.2,9.19,3.8,18.8-3.69,25.72-3.69,3.4-7.49,6.67-11.24,10-8.68,7.69-11.44,17.68-12.5,28.88-1.34,14.1-5.24,27.53-14.3,39a39.45,39.45,0,0,1-16.25,12,13,13,0,0,1-9.43.34,345.15,345.15,0,0,0-33.43-9.45c-7.21-1.71-14.76-2.48-21.45,2.29-2.21,1.58-4.74,3.06-4.14,7.29,5.9-2.3,11.41-5.33,19.42-4-11.53,3.77-19.39,9.38-20.82,21.23,3.24.71,5.06-1.08,6.79-2.5,10.16-8.36,21.58-10.92,34.38-8.11,4.87,1.07,9.82,1.87,14.76,2.61,13.38,2,24.5-1.92,32.85-12.84,1.82-2.37,3.61-4.76,5.73-7.56,5.3,15.12,14.29,28.35,15.76,44.32.76,8.34.2,16.38-3.93,24a27.82,27.82,0,0,1-10.4,11.26c-6.32,3.77-12.86,7.36-17.85,13.13-3,3.47-4.26,7.63-5.89,11.65-.88,2.16.42,4.21,2.18,6.33,3.8-3.31,4.84-8.18,7.27-12.91l3.23,5.55c2.4-.89,3-4.35,6.61-4.26-.84,12.84-4.43,24.52-12.87,35.64A123.6,123.6,0,0,0,477.1,515c-13.85-17.89-32-24.52-54.05-21.29-10.91,1.61-21.76,3.64-32.68,5.13a70.56,70.56,0,0,1-29.24-2.45c-16.31-4.76-32.52-8.81-49.64-5.26-.32.07-.72-.24-1.08-.37ZM459.83,301.06c-.22-3.7-.2-8.53-.85-13.27-1.48-10.72-10.65-20-19.55-19.76-13.51.39-29,16.22-24.31,30.18,3.33,9.93,1.65,19.1-3.1,28.33-6,11.74-2.86,22.14,7.82,29.82,3,2.16,6.78,3.53,8.3,7.51,5,13.15,14.16,22.29,26.9,28.35,11.93,5.67,24.82,4.07,31.62-5.25,7.64-10.47,9.08-40-9.18-50.46-11.93-6.87-20-16.78-17.66-31.95A31.26,31.26,0,0,0,459.83,301.06Zm-81.4-.86c.44-4.67-.63-9.21-1.46-13.71-1.12-6-7.7-11.24-13.24-11-13.68.49-29.94,14.79-32.39,28.28-3.47,19.19-10.48,36.21-26.87,48.57-9.11,6.88-16.81,15.76-20,27.14-1.78,6.31-1.64,12.9,3.51,18.45,5.39,5.79,11.43,5.7,18.12,3.12a42.1,42.1,0,0,0,16.49-11.67c5.67-6.4,11.88-11.91,20.06-14.78a51.37,51.37,0,0,0,15.43-9.06c8.25-6.74,12.83-15.1,11.1-26.27a28.32,28.32,0,0,1,3.91-19.61A34.41,34.41,0,0,0,378.43,300.2Zm-10.82,161c1.65.87,1.7,2.44,2.45,3.55,2.83,4.14,6.83,6.88,11.71,5.1,5.07-1.85,12.42-2.92,13.2-9,1.12-8.72,2-18-3.28-26.25a22.9,22.9,0,0,1-3.29-18.46,29,29,0,0,0-1.16-18.24c-2.39-6.23-2.15-12.56-1.34-19,.27-2.17.46-4.36.58-6.55.09-1.69-1-2.53-2.47-3-1.68-.51-3.3-.26-4.24,1.32a16,16,0,0,0-1.48,3.91c-2.34,8.6-5.67,16.34-12.66,22.64-6.8,6.13-11.28,14-10.52,23.92.37,4.75-2.46,8.71-4.76,12.73-4.67,8.15-9.8,16.13-8.37,26.33,1.26,8.93,9.08,12.65,16.93,7.77A36.71,36.71,0,0,0,367.61,461.21Zm89.79-38.07c-20-.27-41.26,9.54-51.73,22.42-1.29,1.59-1.74,3.27-.29,4.85s2.95.49,4.26-.44a22.65,22.65,0,0,1,5.36-2.64,82.47,82.47,0,0,1,41.41-4c19.34,2.91,33.59-6.17,46-19.47a4.92,4.92,0,0,0,.13-7.09c-2.14-2.39-4-.06-5.77,1a38.62,38.62,0,0,1-15.68,5.65C472.21,424.55,463.34,423.1,457.4,423.14ZM440.64,469c-1.45-6.59-2.25-13.81-5.34-20.42-1-2.23-3.59-3.34-4.46-.81-2.3,6.66-7.18,12.17-8.34,19.24-.88,5.43,2.72,10.49,7.66,11A9.67,9.67,0,0,0,440.64,469Zm23.9-19c-2.36,6.25-4.68,12.22-5.13,18.67-.44,6.25,2.58,10.19,7.49,10.16a9.24,9.24,0,0,0,9.29-10.24c-.52-5.8-2.54-11.28-5-16.55C469.79,449.18,467.52,449.37,464.54,450Zm44.23,1.3a22.27,22.27,0,0,0-5.12-14.15c-2.36-2.71-5.15-2.11-5.46,1.35-.63,6.88-2.79,13.28-4.79,19.8-.95,3.12-.63,6.56,3,8.24a7.44,7.44,0,0,0,9.3-1.94C508.62,461.25,509.38,457.14,508.77,451.29Z"/><path class="a" d="M308.61,572.84c1.45-8.91.67-17.62-1.27-26.67,8.29-4.2,17.23-5.18,26.12-6.2,8.7-1,17.09.74,25.54,2.74,10.32,2.44,20.79,4.4,31.53,2.4,10.06-1.87,18.7-7,27.41-11.87,9.12-5.13,18.33-9.88,28.81-11.72,13.35-2.34,25.22,2.23,35.33,15.77-2.16,3.89-6.33,5.34-9.93,7.1-8.46,4.14-17.24,7.52-26.75,8.66-26.19,3.14-50.43,12.57-74.19,23.44-3.07,1.41-5.83,3.49-8.72,5.3-3.3,2.06-5.83,2.13-9.58-.41-11.88-8-25.51-9.46-39.51-8.41C312,573.07,310.7,573.82,308.61,572.84Z"/><path class="a" d="M538,340.36c-1.09-3-.72-4.91.63-6.93,12.29-18.34,14.69-37.31,3.22-57-1.59-2.72-.52-5.51-.64-8.24-.47-10.6-.92-21.21-.89-31.82a39.35,39.35,0,0,1,6.45-21.94c6.4.38,11.64,4.25,16,8.14,11.88,10.6,16.23,24.63,16.36,40.39.14,16.81-5.27,32-13.18,46.29A94.29,94.29,0,0,1,538,340.36Z"/><path class="a" d="M306.31,456.21c-1,7.55-5.1,13.93-8.4,20.46-10.3,20.36-11.59,41.78-9.15,63.88,1.14,10.35,2.85,20.66,2.68,31.13,0,2.13.46,4.63-2.32,5.61-2,.7-3.8,1.38-3.73,4,.08,2.87,3.1,2,4.33,3.39-.13,2.83-.23,5.63-2.5,8.12A79.45,79.45,0,0,1,269,570.72a122.42,122.42,0,0,1-11.18-27.13c-3.81-13.09-2.2-25.78,3.47-38.07,9.75-21.12,24.24-38,44.35-49.95C305.88,455.79,306.1,456,306.31,456.21Z"/><path class="a" d="M330.28,171.94c-11.16-5.48-12.57-5.22-21.4,3.55-.93.91-1.84,1.57-3.16,1.22-6.84-1.82-9.91,2.37-12.2,7.9-8.46-20-3.1-54.19,13.19-71.67C319.76,130.52,332.18,147.87,330.28,171.94Z"/><path class="a" d="M241.25,147.52c11.5-4.64,23.11-8.58,35.94-5.21-.3,17.1,1.8,33.56,9.42,49.14-1.69,3.46-3.55,7-4,11C261.93,198.62,243.3,174.69,241.25,147.52Z"/><path class="a" d="M419,175.08c5.88.84,11.75,1.64,17.62,2.51,16.21,2.41,32.44-.8,48.62.16,18.58,1.11,37.37,1.66,54.06,11.67A77.67,77.67,0,0,1,565,213.9c-11-5.6-23-8.46-34.26-13.29-18.24-7.84-37.75-10.19-57.48-11.07-13.6-.61-27.19-1.78-40.25-6A32.19,32.19,0,0,1,419,175.08Z"/><path class="a" d="M257.22,564.76c-16.74-18.94-28.32-39.9-24.76-66.3.91-6.72,4.64-12.72,7.68-18.8,6-12.06,8.85-25.2,13.29-39.06,2.88,13.5,2.28,26,1.41,38.58A215.4,215.4,0,0,1,250.06,510c-3.45,15.84-1.46,31,4.8,45.81,1.15,2.73,3,5.25,3,8.41Z"/><path class="a" d="M549.3,340c5.79-5.88,11.72-11.28,16.9-17.32,15.15-17.69,22-38.76,24.34-61.61,1.71-17.14,3.26-34.31,8.35-50.89.53-1.72,1.1-3.43,1.75-5.11.19-.49.71-.85,1.77-2.07-.4,5.38-.85,9.81-1,14.27-.68,17,1.46,34,.43,51.11-1.7,28-14,49.6-37.33,65.11C555,339.75,554.87,340,549.3,340Z"/><path class="a" d="M326.4,246.65c4.34-1.13,7.37,1.56,10.92,2,17.95,2.44,33.41-3.95,48.38-12.63,8.85-5.13,17.62-10.59,27.65-13.06,11.14-2.74,22.28-5.71,34.12-7.3-1,3.05-3.45,3.36-5.08,3.75-9.51,2.31-16.34,9.08-24.24,14-14.54,9.11-27.89,20.4-45.42,23.92-13.11,2.64-25.82,3-38-3.92C331.6,251.67,329.24,249.23,326.4,246.65Z"/><path class="a" d="M332.94,623.47c-14.33-4.82-26.66-11.87-37.28-22,2.78-5.85,5.58-11.36,8-17,1.33-3.07,3.54-3.73,6.28-3.05,8.49,2.09,16.09,5.6,21.89,12.62a41.16,41.16,0,0,0,10.53,9.31C340.85,611,336.52,616.91,332.94,623.47Z"/><path class="a" d="M322.79,578.89c13.88-1.12,25,5.86,36.28,12.36,13.18,7.59,26.18,15.53,41.2,19.32,5.22,1.32,10.58,2.06,16.56,3.7-26.46,7.7-49.32,2.1-69.86-14.38-5.62-4.5-11.21-9.1-15.71-14.79-2.28-2.87-6.81-2.6-8.37-6.32Z"/><path class="a" d="M534.84,180.34c-15.52-6.76-32-7.34-49.76-9,13.3-8.67,24.52-19,39.68-20.25,16.81-1.39,19.58,5.55,15.74,19.26A20.6,20.6,0,0,1,534.84,180.34Z"/><path class="a" d="M410.1,653c21.23-6.51,35.59-22.65,51.68-36.26,14.09-11.93,30.92-15,48.55-16.18A86.64,86.64,0,0,0,481,617.84c-10.43,9.09-20.8,18.27-32.65,25.45C436.7,650.35,423.79,653.1,410.1,653Z"/><path class="a" d="M515,201.44c-42.68-.65-83.56,13.19-125.8,16.45a46.56,46.56,0,0,1,17.4-5.33c12.46-1.55,23.91-4.63,32.17-15.2a11.1,11.1,0,0,1,10.87-4.44c15.88,2,31.88,3.09,47.79,4.9C503.35,198.5,509.15,200.2,515,201.44Z"/><path class="a" d="M292,605.88c11.45,10,23.88,17,36.93,23-7.93,11.06-24.45,15.52-35.2,9.78-8.54-4.55-11.72-14-7.5-22.76C287.76,612.74,289.76,609.74,292,605.88Z"/><path class="a" d="M522.49,353.94c3.25,9.78,6.72,18.95,11.58,27.45,5.61,9.8,6.14,20.22,4.27,30.9A179.62,179.62,0,0,1,533,433.85c1.39-18.61-8.46-33.83-14.45-50.17C514.73,373.33,516,363.66,522.49,353.94Z"/><path class="a" d="M338.35,497.3a8.32,8.32,0,0,1-.13,1.54c-5.25,15.41-5.26,15.41-24,14.71C315.86,494.76,321.19,492.81,338.35,497.3Z"/><path class="a" d="M367.73,504c-2.14,4.81-4,9-5.87,13.25l-21.77-4.12c.1-4.6,2-8.46,4-12.33,1-2,2.75-2,4.63-1.76A83.75,83.75,0,0,1,367.73,504Z"/><path class="a" d="M348.45,627.12c3.34-4.53,4.8-9.89,10.32-12.21,10.73,4.26,21.56,8.9,34.27,8.75C383.7,629.05,361,630.76,348.45,627.12Z"/><path class="a" d="M390.09,538.73c-7.72,2.51-15,.42-22.41-.07-2.29-4.45-1.68-9-1.29-14.2a76.19,76.19,0,0,0,21.8,0C388.84,529.41,389.42,533.73,390.09,538.73Z"/><path class="a" d="M340.15,533.71a25.08,25.08,0,0,1-1.45-13.62c7.38-.85,14.3.34,21.32,2.64v13.7C353.21,535.48,346.81,533.29,340.15,533.71Z"/><path class="a" d="M375.39,504.55a90.67,90.67,0,0,0,18,0c-1.58,5.2-2.51,10.19-4.82,15H368.93C368.66,514.85,370,511.78,375.39,504.55Z"/><path class="a" d="M316,536.78a44.32,44.32,0,0,1-2.76-16.56h18.59c.49,4.15,1,8.44,1.53,13Z"/><path class="a" d="M555.92,662.67c3.94-6.2,5.05-13.16,6.33-19.95,1.06-5.63,5.23-6.63,9.54-7.29,3.1-.47,4.32,1.65,3.52,4.59C572.45,650.53,565.8,657.93,555.92,662.67Z"/><path class="a" d="M282.87,156.32c-1.88-19,5.62-35.1,15.3-50.53,2.24-.12,2.82,1.46,4,3.22C291,122.72,285.78,139,282.87,156.32Z"/><path class="a" d="M306.51,521.41c1.44,2.76.64,5.67,1.37,8.35s1.11,5.45,1.68,8.35c-2.27,3-6.06,2.38-9,4.3-2.57-6.62-1.69-13-2.51-19.37A20.11,20.11,0,0,1,306.51,521.41Z"/><path class="a" d="M299.18,516.25c-1.13-15.87-.05-17.51,12.29-18.48-1.45,5.24-2.62,10.4-4.33,15.36C305.9,516.74,302.41,516,299.18,516.25Z"/><path class="a" d="M240.58,141.28c-1.31-3.12,0-4,2-5.16,8.79-5.14,18.22-5.94,27.92-4.18,2.75.5,6,.14,8.3,3.39-6.29,1.23-12.66-.73-19,.19A80.61,80.61,0,0,0,240.58,141.28Z"/><path class="a" d="M396.46,223.18,375.21,234.9c.59-9.44,2.24-11.14,10.4-11.68,3.5-.24,7-.65,10.48-1Z"/><path class="a" d="M270.5,115.52c-4.9,3.15-7.22,10.23-14.71,9.85C257.9,120,262.55,116.68,270.5,115.52Z"/><path class="a" d="M257.88,564.24a1.15,1.15,0,0,1,.6,1.75c-1,.15-1-.69-1.26-1.23Z"/><path class="a" d="M322.89,578.78l-.46,0,.29-.31.07.46Z"/><polygon class="a" points="324.7 245.76 324.56 245.46 324.89 245.49 324.7 245.76"/><path class="a" d="M305.67,455.57c.25-.18.63-.58.72-.52.59.38.4.8-.08,1.16C306.1,456,305.88,455.79,305.67,455.57Z"/><path class="a" d="M242.61,306.72c7.15,2.72,13.27,1.83,18.89-2.86.12,7.72-4,12.21-11.12,12.55C245.39,316.64,243.24,314.15,242.61,306.72Z"/><path class="a" d="M213.1,229.59c7.08,3.93,14,3.21,20.39-2.75.63,5.81-3.34,12.26-8.29,13.46C219.69,241.64,216.43,238.9,213.1,229.59Z"/><path d="M459.83,301.06a31.26,31.26,0,0,1,0,3.5c-2.3,15.17,5.73,25.08,17.66,31.95,18.26,10.5,16.82,40,9.18,50.46-6.8,9.32-19.69,10.92-31.62,5.25-12.74-6.06-21.86-15.2-26.9-28.35-1.52-4-5.3-5.35-8.3-7.51-10.68-7.68-13.87-18.08-7.82-29.82,4.75-9.23,6.43-18.4,3.1-28.33-4.69-14,10.8-29.79,24.31-30.18,8.9-.25,18.07,9,19.55,19.76C459.63,292.53,459.61,297.36,459.83,301.06ZM465,389.65c-.68-4.29-4-4.62-6.06-6-6.83-4.49-12.7-9.89-15.61-17.66a34.43,34.43,0,0,0-12.2-15.91c-10.53-7.87-11.77-14.08-6.1-25.92,2.63-5.5,4.72-11.12,3.66-17.38-1.32-7.77-2.73-15.52-4.12-23.39-4.4,4.9-4.84,5.35-3.42,11.88,2.46,11.29,2.94,22.2-3.43,32.53a12.61,12.61,0,0,0-1.66,5.12c-.77,7.23-.42,13.84,7,18.28,6.44,3.86,10.94,9.55,14.08,16.69C442.31,379.67,453,384.94,465,389.65Z"/><path d="M378.43,300.2a34.41,34.41,0,0,1-5.37,19.42,28.32,28.32,0,0,0-3.91,19.61c1.73,11.17-2.85,19.53-11.1,26.27a51.37,51.37,0,0,1-15.43,9.06c-8.18,2.87-14.39,8.38-20.06,14.78A42.1,42.1,0,0,1,306.07,401c-6.69,2.58-12.73,2.67-18.12-3.12-5.15-5.55-5.29-12.14-3.51-18.45,3.22-11.38,10.92-20.26,20-27.14,16.39-12.36,23.4-29.38,26.87-48.57,2.45-13.49,18.71-27.79,32.39-28.28,5.54-.2,12.12,5,13.24,11C377.8,291,378.87,295.53,378.43,300.2Zm-80.74,96.85c-1.17-2-2.07-3.12-2.45-4.37-2.44-7.92.76-14.51,5.18-20.74,5.66-8,13.91-13.19,21-19.6,4.14-3.73,8.32-7.16,10.22-12.91C336.54,324.6,339,309,345.53,294.7c.29-.63,0-1.53-.09-2.48-2.35.22-3.18,1.89-4,3.41a96.23,96.23,0,0,0-10,27.59,42.93,42.93,0,0,1-7.18,16.92c-4.91,6.71-11.38,11.79-17.33,17.42S295,369,291.44,376.59C287.48,385,289.56,392.22,297.69,397.05Z"/><path d="M367.61,461.21a36.71,36.71,0,0,1-8.7,6.82c-7.85,4.88-15.67,1.16-16.93-7.77-1.43-10.2,3.7-18.18,8.37-26.33,2.3-4,5.13-8,4.76-12.73-.76-10,3.72-17.79,10.52-23.92,7-6.3,10.32-14,12.66-22.64a16,16,0,0,1,1.48-3.91c.94-1.58,2.56-1.83,4.24-1.32,1.43.44,2.56,1.28,2.47,3-.12,2.19-.31,4.38-.58,6.55-.81,6.42-1,12.75,1.34,19a29,29,0,0,1,1.16,18.24,22.9,22.9,0,0,0,3.29,18.46c5.29,8.24,4.4,17.53,3.28,26.25-.78,6.08-8.13,7.15-13.2,9-4.88,1.78-8.88-1-11.71-5.1C369.31,463.65,369.26,462.08,367.61,461.21Zm-13,2.84c-3.3-4.13-3.17-8.1-2-12.4,1.87-6.92,5.83-12.67,9.81-18.41,2-2.91,3.62-6.06,3.19-9.46a53,53,0,0,1,1.13-18.18,14.93,14.93,0,0,0-5.2,12c.2,7.55-2.26,13.94-6.35,20.13s-7.7,12.69-7,20.57C348.4,461.8,349.45,464.54,354.58,464.05Zm21.72-18.64c-3.66,4-3.69,13.2-.32,16.85,2.1,2.27,4.57,2.61,7.88.13C376.24,458.85,379.68,451.08,376.3,445.41Z"/><path d="M457.4,423.14c5.94,0,14.81,1.41,23.74.32a38.62,38.62,0,0,0,15.68-5.65c1.73-1.07,3.63-3.4,5.77-1a4.92,4.92,0,0,1-.13,7.09c-12.46,13.3-26.71,22.38-46,19.47a82.47,82.47,0,0,0-41.41,4,22.65,22.65,0,0,0-5.36,2.64c-1.31.93-2.8,2-4.26.44s-1-3.26.29-4.85C416.14,432.68,437.43,422.87,457.4,423.14ZM479.22,431c-13.5.94-27.28-5-40.55,1.63C452.2,432.3,465.92,436.86,479.22,431Z"/><path d="M440.64,469a9.67,9.67,0,0,1-10.48,9c-4.94-.51-8.54-5.57-7.66-11,1.16-7.07,6-12.58,8.34-19.24.87-2.53,3.42-1.42,4.46.81C438.39,455.14,439.19,462.36,440.64,469Z"/><path d="M464.54,450c3-.62,5.25-.81,6.61,2,2.5,5.27,4.52,10.75,5,16.55a9.24,9.24,0,0,1-9.29,10.24c-4.91,0-7.93-3.91-7.49-10.16C459.86,462.21,462.18,456.24,464.54,450Z"/><path d="M508.77,451.29c.61,5.85-.15,10-3.09,13.3a7.44,7.44,0,0,1-9.3,1.94c-3.61-1.68-3.93-5.12-3-8.24,2-6.52,4.16-12.92,4.79-19.8.31-3.46,3.1-4.06,5.46-1.35A22.27,22.27,0,0,1,508.77,451.29Z"/><path class="a" d="M465,389.65c-12-4.71-22.67-10-27.85-21.77-3.14-7.14-7.64-12.83-14.08-16.69-7.43-4.44-7.78-11.05-7-18.28a12.61,12.61,0,0,1,1.66-5.12c6.37-10.33,5.89-21.24,3.43-32.53-1.42-6.53-1-7,3.42-11.88,1.39,7.87,2.8,15.62,4.12,23.39,1.06,6.26-1,11.88-3.66,17.38-5.67,11.84-4.43,18.05,6.1,25.92A34.43,34.43,0,0,1,443.31,366c2.91,7.77,8.78,13.17,15.61,17.66C461,385,464.3,385.36,465,389.65Z"/><path class="a" d="M297.69,397.05c-8.13-4.83-10.21-12.1-6.25-20.46,3.58-7.56,9.46-13.36,15.45-19s12.42-10.71,17.33-17.42a42.93,42.93,0,0,0,7.18-16.92,96.23,96.23,0,0,1,10-27.59c.85-1.52,1.68-3.19,4-3.41.05.95.38,1.85.09,2.48-6.51,14.32-9,29.9-13.86,44.73-1.9,5.75-6.08,9.18-10.22,12.91-7.12,6.41-15.37,11.62-21,19.6-4.42,6.23-7.62,12.82-5.18,20.74C295.62,393.93,296.52,395,297.69,397.05Z"/><path class="a" d="M354.58,464.05c-5.13.49-6.18-2.25-6.47-5.79-.66-7.88,3-14.4,7-20.57s6.55-12.58,6.35-20.13a14.93,14.93,0,0,1,5.2-12,53,53,0,0,0-1.13,18.18c.43,3.4-1.17,6.55-3.19,9.46-4,5.74-7.94,11.49-9.81,18.41C351.41,456,351.28,459.92,354.58,464.05Z"/><path class="a" d="M376.3,445.41c3.38,5.67-.06,13.44,7.56,17-3.31,2.48-5.78,2.14-7.88-.13C372.61,458.61,372.64,449.42,376.3,445.41Z"/><path class="a" d="M479.22,431c-13.3,5.87-27,1.31-40.55,1.63C451.94,426,465.72,431.93,479.22,431Z"/></svg>