<svg xmlns="http://www.w3.org/2000/svg" viewBox="0 0 800 800"><defs><style>.cls-2{fill:red}.cls-3{mix-blend-mode:multiply}.cls-4{fill:#00f}</style></defs><g style="isolation:isolate"><g id="Layer_1" data-name="Layer 1"><path class="cls-2" d="M457.7 555.11q-34.31-93.69-74.53-185.06c-.78-1.77-3.36-.24-2.59 1.51q40 91 74.23 184.34c.66 1.8 3.56 1 2.89-.79z"/><path class="cls-2" d="M379.75 368.87A1553.48 1553.48 0 0 0 212.1 499.75c-1.44 1.29.69 3.4 2.12 2.12a1548.09 1548.09 0 0 1 167-130.41c1.59-1.07.09-3.67-1.52-2.59z"/><path class="cls-2" d="M391.57 590.6c1-37 2.68-74.13 1.28-111.16-.67-17.75-2.3-35.39-4.68-53-2.55-18.85-5.44-37.66-6.09-56.69-.07-1.93-3.07-1.94-3 0 .6 17.67 3.13 35.16 5.54 52.66 2.61 18.95 4.5 37.91 5.23 57 1.4 37-.26 74.14-1.28 111.16-.05 1.93 2.95 1.93 3 0z"/><path class="cls-2" d="M248.19 553.69c15.66-32.7 40.73-60.45 63-88.74l71.42-90.79c1.18-1.5-.93-3.64-2.13-2.12l-72.67 92.36c-22 28-46.73 55.45-62.21 87.77-.83 1.74 1.75 3.26 2.59 1.52zM457.27 554.45c-28.63-12.72-52.16 13.71-67.66 34.1-1.17 1.54 1.44 3 2.59 1.51 14.34-18.86 36.71-44.94 63.56-33 1.75.78 3.28-1.81 1.51-2.59z"/><path class="cls-2" d="M326 600.29c8.32-60 17.1-120.52 37-178a426.5 426.5 0 0 1 20.3-48.83c.85-1.72-1.73-3.25-2.59-1.51-27.07 55-40.47 115.14-50 175.34-2.75 17.37-5.2 34.78-7.61 52.2-.26 1.88 2.63 2.7 2.89.79z"/><path class="cls-2" d="M390.6 588.81c-13.49-5-27.68-10.07-42.27-7.56-10.52 1.8-21.36 7.91-25.22 18.25-.68 1.81 2.22 2.59 2.89.79 4-10.77 17-16 27.72-16.65 12.54-.69 24.52 3.78 36.08 8.06 1.81.67 2.6-2.23.8-2.89z"/><path class="cls-2" d="M326 599.5c-10.6-30-46.14-62.37-79.86-47.87-1.77.76-.25 3.35 1.51 2.59 31.77-13.66 65.59 18.18 75.46 46.07.64 1.81 3.54 1 2.89-.79z"/><path class="cls-2" d="M249.08 552c4.36-24.57-12.56-44.79-34.89-52.65-1.83-.64-2.61 2.25-.8 2.89 20.67 7.28 36.85 26.09 32.79 49-.33 1.89 2.56 2.7 2.9.8zM444.72 521.58c-21.68-5.33-45.45 6.29-54.32 26.84h2.6c-6.33-11.37-18.91-18.81-32.06-17.9-12.67.89-25 8.64-30.19 20.4l2.74.35c-6.55-27-33.59-45.46-61.11-41.12-1.9.3-1.1 3.19.8 2.9 25.94-4.1 51.28 13.76 57.42 39 .29 1.17 2.21 1.57 2.74.36 4.75-10.79 15.91-18.06 27.6-18.91 12.14-.87 23.63 5.92 29.47 16.42a1.51 1.51 0 0 0 2.59 0c8.33-19.32 30.45-30.5 50.94-25.47 1.87.46 2.67-2.43.79-2.89z"/><path class="cls-2" d="M272.77 510.68c-3.09-16-9.25-37.12-29-37.76-1.93-.06-1.93 2.94 0 3 18.26.59 23.36 21.07 26.16 35.56.37 1.89 3.26 1.09 2.89-.8zM431.93 491.72c-14.23-5.41-31.72-.6-40.5 12H394c-10.49-18.15-36.88-22.68-52.94-9.33l2.51.67c-3-10.09-10.21-18.59-20.88-20.67a35.54 35.54 0 0 0-29.25 8.09L296 484c4.59-15.67-4.8-35-22.41-35.67-1.93-.07-1.93 2.93 0 3 15.7.59 23.54 18.16 19.52 31.87a1.51 1.51 0 0 0 2.5 1.46 32.58 32.58 0 0 1 25.88-7.38c9.87 1.64 16.52 9.37 19.24 18.63a1.52 1.52 0 0 0 2.5.67c14.6-12.14 38.77-7.65 48.23 8.72a1.52 1.52 0 0 0 2.59 0c8.05-11.57 24.2-15.54 37.11-10.63 1.81.68 2.59-2.22.8-2.9zM413.92 446.32c-10.82-1.45-20.28 4.92-24.72 14.61l2.35-.3a33.48 33.48 0 0 0-40.49-9l2.25 1.3c1.09-13.42-12.56-22-24.31-15.77l2.05 2.06c5.37-11.21-2-25.19-15.18-24-1.9.18-1.92 3.18 0 3 10.71-1 17.09 10.05 12.59 19.45a1.51 1.51 0 0 0 2.05 2.05c9.92-5.24 20.69 2.18 19.8 13.18-.1 1.22 1.33 1.75 2.26 1.29a30.51 30.51 0 0 1 36.86 8.52 1.51 1.51 0 0 0 2.36-.31c4-8.83 12.26-14.44 22.13-13.12 1.91.25 1.89-2.75 0-3zM404.06 422a17 17 0 0 0-17.52 8.38l2.74.36c-4.53-12-18-12.5-28.75-9.83l1.9 1.45c-.86-7.84-8.68-11.82-15.44-7.48l2.05 2.06c5.6-8.85-3.14-16.78-11.54-17.9-1.91-.26-1.89 2.74 0 3 6.27.84 13.17 6.71 8.95 13.38a1.52 1.52 0 0 0 2.06 2.06c4.63-3 10.3-.72 10.92 4.88a1.51 1.51 0 0 0 1.89 1.44c8.91-2.21 21.15-2.68 25.07 7.74a1.52 1.52 0 0 0 2.74.36 13.93 13.93 0 0 1 14.13-7c1.89.26 2.71-2.63.8-2.9zM395 400.53a13.11 13.11 0 0 0-12.39 4.1l2.51.66c-2.14-5.44-6.16-5.79-11.09-7.63-2-.74-2.13-2.32-3.83-3.49s-4-1.23-5.9-1.26l1.5 1.5c-.15-4.58-1.1-9.76-6.41-10.64-1.89-.32-2.7 2.57-.8 2.89 3.95.65 4.11 4.56 4.21 7.75a1.53 1.53 0 0 0 1.5 1.5c3.33.06 4.62 2.89 7.09 4.24 4 2.17 8.66.4 10.84 5.94a1.51 1.51 0 0 0 2.5.66 10.09 10.09 0 0 1 9.47-3.33c1.89.32 2.7-2.57.8-2.89z"/><path class="cls-2" d="M393.21 398.65l-9-18.71c-1.41-2.91-5.48-.75-4.94 2.08.85 4.43 3 8.24 3.24 12.8.15 3 0 6.16 2.06 8.53a2.73 2.73 0 0 0 4.24-.54c2.16-3.42 1.17-7.86-2.74-9.51-4.41-1.87-8.36.82-10.8 4.36-1.06 1.55.11 3.41 1.62 4a8 8 0 0 0 7-.55c2-1 1.52-3.57 0-4.67a11.37 11.37 0 0 0-6.49-2.28c-3.82-.21-4.7-2.56-6.73-5.58a28.5 28.5 0 0 1-2.67-3.88c-.51-1.06-.67-1-.5.08l1.63-1c3.33-1.21 6.71-3.92 9.77-5.71l-3.27-4.24c-3.78 3.28-7.39 6.72-10.87 10.32a2.73 2.73 0 0 0 0 3.82 9.45 9.45 0 0 0 4.05 2.2 15.82 15.82 0 0 1 2.32.38 3.84 3.84 0 0 1 2.17 4.83c-.63 2.08 2 4.53 4 3.05 3.48-2.67 8.89-8.28 4.57-12.55-4.94-4.89-11.49.15-14.76 4.18a2.74 2.74 0 0 0 1.19 4.51c2.42.76 4.12.13 6.15-1.23s2.84-2.22 5.32-2.66a6.94 6.94 0 0 0 3-.75c1.62-1.14 1.82-2.92 1.46-4.72-.25-1.25-1.17-2.51-1.49-3.71a11.93 11.93 0 0 1 .84-8.2l-4.93-2.08c-1.1 4.28-4.85 11.76-2.6 16a2.66 2.66 0 0 0 2.33 1.34c4.46-.09 4-5.23 7.13-7.43 2.82-2 .13-6.66-2.73-4.66a13.53 13.53 0 0 0-3.49 3.26 7.43 7.43 0 0 0-1.19 2.08c-.39 1.28-1.13 1.38.28 1.35l2.33 1.34c-.37-.69 1.33-4.76 1.57-5.69l1.57-6.12c.74-2.84-3.61-4.95-4.93-2.08-2 4.28-2.94 9.67-.79 14.12 1.31 2.71.28.79 1 .66a19.93 19.93 0 0 0-3.25.49c-1.35.45-5 3.88-6.13 3.53l1.19 4.51c.85-1.05 3.41-4.55 4.79-4.35 3.39.5 0 3.38-1.15 4.24l4 3.05c.9-3 1.5-6.49-.78-9.05-2.49-2.8-6.61-1.39-9.15-3.62V388q5.2-5.4 10.87-10.32c2.34-2.05-.67-5.77-3.27-4.25-3.9 2.28-9.13 4.32-12.41 7.42-2.23 2.11-1.91 4.07-.43 6.56 1.94 3.27 4.29 7.69 7.11 10.26 3.07 2.79 7.38 1 10.64 3.4v-4.67h-2.84l1.62 4c1.1-2.42 2.51-2.52 4.21-.31l4.24-.55c-1.3-1.47-.41-6.09-.7-8.07-.56-3.78-2.49-7.13-3.21-10.88l-4.94 2.08 9.06 18.71c1.51 3.13 6.17.4 4.66-2.72z"/><g class="cls-3"><path class="cls-4" d="M342.07 245.45q34.71 93.55 75.31 184.74c.78 1.76 3.37.24 2.59-1.51q-40.43-90.8-75-184c-.66-1.79-3.56-1-2.89.8z"/><path class="cls-4" d="M420.8 431.36a1553 1553 0 0 0 167.1-131.58c1.43-1.29-.69-3.41-2.12-2.12a1547.52 1547.52 0 0 1-166.49 131.11c-1.59 1.08-.09 3.68 1.51 2.59z"/><path class="cls-4" d="M408.05 209.68c-.86 37-2.36 74.14-.8 111.16.74 17.75 2.44 35.39 4.89 53 2.63 18.84 5.61 37.63 6.34 56.67.07 1.92 3.07 1.93 3 0-.68-17.67-3.28-35.16-5.77-52.64-2.69-18.94-4.66-37.89-5.46-57-1.56-37-.06-74.14.8-111.16 0-1.93-3-1.93-3 0z"/><path class="cls-4" d="M551.59 246c-15.52 32.75-40.47 60.61-62.6 89q-35.5 45.56-71 91.1c-1.17 1.51.94 3.64 2.13 2.12l72.25-92.67c21.88-28.06 46.5-55.64 61.84-88 .83-1.74-1.76-3.26-2.59-1.51zM342.5 246.11c28.68 12.59 52.1-13.92 67.52-34.38 1.16-1.54-1.45-3-2.59-1.51-14.26 18.92-36.52 45.11-63.42 33.3-1.75-.77-3.28 1.81-1.51 2.59z"/><path class="cls-4" d="M473.53 200.11c-10.37 77.23-21.83 155.89-56.3 226.66-.84 1.73 1.74 3.25 2.59 1.51C446.87 372.73 460 312 469.3 251.32c2.61-17 4.93-34.13 7.23-51.21.25-1.91-2.75-1.89-3 0z"/><path class="cls-4" d="M409 211.47c13.51 4.94 27.72 9.94 42.3 7.38 10.5-1.84 21.32-8 25.14-18.35.67-1.81-2.23-2.59-2.89-.79-4 10.79-16.88 16.13-27.64 16.77-12.54.74-24.54-3.67-36.12-7.9-1.81-.67-2.59 2.23-.79 2.89z"/><path class="cls-4" d="M473.58 200.5c10.72 29.9 46.42 62.19 80.06 47.5 1.77-.77.25-3.36-1.51-2.59-31.71 13.8-65.66-17.89-75.66-45.74-.65-1.81-3.55-1-2.89.79z"/><path class="cls-4" d="M550.71 247.66c-4.26 24.58 12.73 44.73 35.1 52.5 1.83.64 2.62-2.26.8-2.89-20.69-7.19-37-25.92-33-48.81.33-1.89-2.56-2.7-2.89-.8zM355.18 278.93c21.71 5.23 45.43-6.48 54.22-27.07h-2.59c6.38 11.35 19 18.74 32.13 17.77 12.66-.94 25-8.73 30.1-20.51l-2.74-.36c6.67 27 33.78 45.33 61.29 40.87 1.9-.31 1.09-3.2-.8-2.89-25.92 4.2-51.35-13.54-57.6-38.78-.28-1.16-2.21-1.57-2.74-.36-4.7 10.81-15.82 18.13-27.51 19-12.13.93-23.66-5.81-29.54-16.28a1.5 1.5 0 0 0-2.59 0C398.56 269.69 376.5 281 356 276c-1.87-.46-2.68 2.44-.8 2.89z"/><path class="cls-4" d="M527.19 289.09c3.15 16 9.4 37.09 29.2 37.65 1.93.05 1.93-2.95 0-3-18.27-.52-23.45-21-26.31-35.44-.38-1.9-3.27-1.09-2.89.79zM368.1 308.73c14.26 5.34 31.73.47 40.45-12.18H406c10.57 18.11 37 22.54 53 9.12l-2.51-.66c3 10.07 10.29 18.54 21 20.58a35.5 35.5 0 0 0 29.21-8.21l-2.51-1.45c-4.52 15.67 4.94 35 22.55 35.57 1.93.07 1.93-2.93 0-3C511 348 503 330.46 507 316.72a1.51 1.51 0 0 0-2.51-1.46 32.57 32.57 0 0 1-25.84 7.5c-9.88-1.6-16.56-9.3-19.32-18.55a1.52 1.52 0 0 0-2.51-.66c-14.54 12.19-38.74 7.82-48.27-8.51a1.52 1.52 0 0 0-2.59 0c-8 11.6-24.13 15.65-37.06 10.79-1.81-.68-2.59 2.22-.8 2.9zM386.3 354.06c10.83 1.4 20.27-5 24.67-14.71l-2.36.3a33.49 33.49 0 0 0 40.54 8.82l-2.26-1.29c-1 13.41 12.64 21.93 24.38 15.67l-2-2.06c-5.33 11.23 2.1 25.19 15.26 23.91 1.91-.18 1.93-3.18 0-3-10.69 1-17.14-10-12.67-19.39a1.51 1.51 0 0 0-2.06-2.05c-9.89 5.28-20.71-2.06-19.86-13.08a1.52 1.52 0 0 0-2.26-1.3 30.49 30.49 0 0 1-36.89-8.35 1.51 1.51 0 0 0-2.36.3c-4 8.85-12.2 14.51-22.08 13.23-1.91-.25-1.89 2.75 0 3zM396.27 378.36a17 17 0 0 0 17.49-8.45l-2.74-.35c4.58 12 18.05 12.43 28.79 9.71l-1.9-1.45c.88 7.84 8.71 11.8 15.46 7.42l-2.06-2.05c-5.55 8.87 3.2 16.76 11.62 17.85 1.91.25 1.89-2.75 0-3-6.27-.81-13.21-6.65-9-13.34a1.51 1.51 0 0 0-2-2.05c-4.61 3-10.31.77-10.94-4.83a1.53 1.53 0 0 0-1.9-1.44c-8.89 2.25-21.14 2.78-25.1-7.62a1.52 1.52 0 0 0-2.74-.36 14 14 0 0 1-14.1 7.07c-1.89-.26-2.71 2.63-.8 2.89zM405.46 399.76a13.08 13.08 0 0 0 12.37-4.14l-2.51-.67c2.16 5.43 6.18 5.78 11.12 7.59 2 .73 2.14 2.31 3.85 3.47s3.95 1.22 5.9 1.25l-1.5-1.5c.16 4.57 1.13 9.76 6.45 10.62 1.89.3 2.7-2.59.8-2.9-4-.63-4.14-4.53-4.25-7.72a1.52 1.52 0 0 0-1.5-1.5c-3.33-.05-4.63-2.86-7.11-4.21-4-2.16-8.66-.36-10.86-5.89a1.52 1.52 0 0 0-2.51-.67 10.11 10.11 0 0 1-9.46 3.38c-1.88-.31-2.7 2.58-.79 2.89z"/><path class="cls-4" d="M407.21 401.63l9.14 18.67c1.42 2.9 5.49.76 4.93-2.08-.86-4.43-3-8.23-3.29-12.79-.17-3 0-6.16-2.09-8.52a2.72 2.72 0 0 0-4.24.54c-2.14 3.43-1.15 7.86 2.76 9.51 4.41 1.86 8.37-.85 10.79-4.4 1.05-1.55-.1-3.41-1.62-4a8 8 0 0 0-7 .58c-2 1-1.53 3.57 0 4.66a11.41 11.41 0 0 0 6.5 2.26c3.83.19 4.72 2.53 6.76 5.54a28.88 28.88 0 0 1 2.6 3.85c.51 1 .68 1 .52-.08l-1.62 1c-3.33 1.23-6.7 3.95-9.75 5.75l3.27 4.24q5.64-5 10.83-10.37a2.74 2.74 0 0 0 0-3.82 9.49 9.49 0 0 0-4.07-2.18 15.89 15.89 0 0 1-2.31-.37 3.84 3.84 0 0 1-2.21-4.82c.85-2.84-2.55-4.14-4.51-2.62-3.48 2.69-8.21 8.41-3.72 12.36 5.1 4.48 11.22-.41 14.47-4.45a2.74 2.74 0 0 0-1.19-4.51c-2.38-.73-4.17-.17-6.15 1.25s-2.65 2.13-5.3 2.69a7.34 7.34 0 0 0-3 .76c-1.6 1.14-1.81 2.92-1.44 4.72.25 1.25 1.18 2.5 1.5 3.71a11.87 11.87 0 0 1-.8 8.2l4.94 2.08c.88-3.5 1.83-7 2.65-10.5.5-2.1.94-3.53-.11-5.48a2.69 2.69 0 0 0-2.33-1.34c-4.48.12-4 5.24-7.1 7.45-2.82 2-.12 6.68 2.72 4.67a13.54 13.54 0 0 0 3.48-3.27 7.49 7.49 0 0 0 1.19-2.09c.38-1.27 1.14-1.39-.29-1.36l-2.33-1.33c.38.7-1.3 4.75-1.54 5.69l-1.55 6.12c-.72 2.84 3.63 5 4.94 2.08 1.93-4.27 2.91-9.68.73-14.11-1.31-2.68-.27-.81-1-.67a22.18 22.18 0 0 0 3.25-.5c1.21-.4 5.06-3.89 6.12-3.56l-1.19-4.51c-1 1.28-3.88 5.76-5.62 3.75q-2-.79.42-2.24a13.32 13.32 0 0 1 2.09-1.8l-4.51-2.62c-.89 3-1.49 6.49.8 9.05 2.5 2.79 6.62 1.35 9.17 3.57v-3.82q-5.19 5.43-10.83 10.38c-2.33 2 .67 5.77 3.27 4.24 3.89-2.3 9.1-4.36 12.38-7.47 2.22-2.11 1.91-4.07.42-6.56-2-3.26-4.32-7.67-7.16-10.23-3.08-2.79-7.38-1-10.65-3.35v4.66h2.84l-1.62-4c-1.09 2.41-2.49 2.53-4.22.34l-4.24.55c1.31 1.47.45 6.08.74 8.06.57 3.78 2.52 7.12 3.26 10.87l4.93-2.08-9.13-18.68c-1.53-3.12-6.19-.38-4.67 2.73z"/></g><g class="cls-3"><path class="cls-2" d="M517.7 320.27c-23.71-38-66.28-53.46-110-63.19a108.84 108.84 0 0 0-40.48 6.67 77.5 77.5 0 0 0-14.1 12c-15.17 16.57-23.81 41.06-15.67 62 7.74 19.89 28 31.65 47.18 41 36.88 17.91 79.69 37.41 91 76.82 6.21 21.67.75 45.77-12.06 64.33a86.5 86.5 0 0 1-20.82 20.95c30.28-5 58.31-18.86 74.74-44.19 7-10.76 11.46-23 14.47-35.46 10.48-43.6 9.44-102.92-14.26-140.93z"/><path class="cls-4" d="M463.54 519.85c12.81-18.56 18.27-42.66 12.06-64.33-11.29-39.41-54.1-58.91-91-76.82-19.21-9.33-39.44-21.09-47.18-41-8.14-20.94.5-45.43 15.67-62a77.5 77.5 0 0 1 14.1-12 113.08 113.08 0 0 1 13.4-3.94c-22.55 5.17-43 17.3-61 33.45-24.93 22.41-42 52.75-51.44 84.92-4.42 15.08-7.26 30.79-6.34 46.47 1.85 31.55 19.23 61.09 43.63 81.17s55.28 31.26 86.6 35.53a171.53 171.53 0 0 0 50.62-.55 86.5 86.5 0 0 0 20.88-20.9zM399.83 257.18c.7 0 1.38-.08 2.08-.09-.7.01-1.38.06-2.08.09zM387.86 258.39l2.88-.42zM393.68 257.63zM382.23 259.43c1.06-.23 2.14-.42 3.21-.62-1.07.19-2.15.39-3.21.62z"/></g></g></g></svg>