<svg id="Layer_1" data-name="Layer 1" xmlns="http://www.w3.org/2000/svg" viewBox="0 0 800 800"><defs><style>.cls-1{fill:#fff;}.cls-1,.cls-2,.cls-3,.cls-4,.cls-5{stroke:#000;stroke-linejoin:bevel;}.cls-1,.cls-2,.cls-3{stroke-width:8px;}.cls-3,.cls-5{fill:none;}.cls-4{stroke-width:4px;}.cls-5{stroke-width:5px;}</style></defs><title>people cry</title><polygon class="cls-1" points="580.03 541.12 448.18 606.87 122.47 549.94 254.32 484.19 580.03 541.12"/><polygon class="cls-1" points="580.01 564.1 448.15 629.85 122.44 572.91 254.3 507.17 580.01 564.1"/><path class="cls-1" d="M152.2,492.87s0,46-29.93,57.41l326.17,56.65s-12.62-6.91-12.56-65.5Z"/><path class="cls-2" d="M579.47,541.59c-34.46,0-28.65-57.46-28.65-57.46l-57.76,28.65-57.18,28.65s-2.34,40.21,12.56,65.5Z"/><polygon class="cls-1" points="550.26 484.26 435.6 541.43 152.37 491.93 267.03 434.76 550.26 484.26"/><path class="cls-1" d="M473.3,285.45c.06-55.38-45.19-108.74-100.57-118.57h0a99,99,0,0,0-21.34-1.49l-.1-.09c-43.65,0-87.43,35.55-87.43,35.55L257,254.06l14.91,23L271.71,458l132.6,23.53,22.41,34.6L472,493.57l1.06.19Z"/><path class="cls-1" d="M427.1,516.68l.23-208.3c.06-55.39-45.2-108.75-100.57-118.57h0C271.38,180,226,217.25,226,272.64l-.23,208.3Z"/><polygon class="cls-1" points="122.27 550.28 122.24 573.25 448.42 629.9 579.45 564.57 579.47 541.59 448.44 606.93 122.27 550.28"/><polygon class="cls-2" points="448.44 606.93 448.42 629.9 525.42 591.5 525.45 572.55 448.44 606.93"/><polygon class="cls-1" points="527.68 627.49 527.89 437.95 569.24 445.29 569.03 634.83 527.68 627.49"/><polygon class="cls-2" points="592.02 622.97 592.23 433.43 569.24 445.29 569.03 634.83 592.02 622.97"/><polygon class="cls-1" points="592.24 434.11 550.89 427.17 527.89 438.15 569.24 445.09 592.24 434.11"/><path class="cls-1" d="M560.06,443.55s4.65-58.2-17.11-113.36"/><path class="cls-1" d="M557.19,442.3s7.54-74.18,61.54-79.86"/><path class="cls-3" d="M560.06,438s14.49-54.76,67.82-41.08c54,13.84,37.79,100,37.79,100"/><path class="cls-3" d="M641.46,541.66s12.67,2.31,15-11.47"/><path class="cls-3" d="M656.46,518.7C653,537.08,665.61,552,665.61,552c5.75-4.59,6.91-12.63,10.37-21.82s1.17-26.42-11.46-29.88-20.69,11.47-20.69,11.47a54.22,54.22,0,0,0-1.18,34.46"/><path class="cls-2" d="M401.76,231.24l42.87-21.17s28.06,45.83,28.17,65.13-.19,168.25-.19,168.25l.08,49.78-46,22.92L427,308.23l-2.25-41.35Z"/><polygon class="cls-2" points="426.72 516.15 500.65 509 525.54 488.29 525.55 476.82 476.17 469.11 472.69 493.23 426.72 516.15"/><path class="cls-1" d="M567.77,465.77s-36.5,35.57-25,64.3,14.86,70.08,10.25,79.27-9.2,9.45-10.36,20.8"/><path class="cls-1" d="M316.15,301.14c-32.7,11.94-71-12.6-71-12.6s29.91-22.71,71,7.93"/><ellipse class="cls-2" cx="270.86" cy="294.5" rx="3.85" ry="4.59" transform="translate(-127.75 259.79) rotate(-42.42)"/><path class="cls-1" d="M407.66,317.37c-32.7,11.95-71-12.59-71-12.59s29.91-22.71,71,7.92"/><ellipse class="cls-2" cx="362.37" cy="310.74" rx="3.85" ry="4.59" transform="translate(-114.75 325.76) rotate(-42.42)"/><path class="cls-3" d="M325.47,316.8s-3.77,36.69-11.27,55.91,10.25,25.18,10.25,25.18"/><path class="cls-4" d="M258.22,330.36a3.43,3.43,0,0,1-4.21,3.45,5.23,5.23,0,0,1-4.2-4.95c0-2.32,4-24.77,4.23-24.74S258.22,328,258.22,330.36Z"/><path class="cls-5" d="M349.73,341.66s24.26,12.71,48.55,9.55"/><line class="cls-5" x1="360.94" y1="339.91" x2="358.12" y2="352.49"/><line class="cls-5" x1="374.01" y1="343.16" x2="373.99" y2="357.17"/><line class="cls-5" x1="387.08" y1="345.48" x2="388.93" y2="359.82"/></svg>