<svg id="Layer_1" data-name="Layer 1" xmlns="http://www.w3.org/2000/svg" viewBox="0 0 800 800"><defs><style>.cls-1,.cls-5{fill:none}.cls-2,.cls-3,.cls-4{fill:#00f}.cls-3,.cls-4,.cls-5,.cls-6{stroke:#00f;stroke-linejoin:bevel}.cls-3{stroke-width:2px}.cls-4,.cls-5,.cls-6{stroke-width:3px}.cls-6{fill:#fff}</style><clipPath id="clip-path"><path class="cls-1" d="M312 537.24c0 63.66 46.27 115.26 88.14 115.26s88.14-51.6 88.14-115.26S442 372.67 400.11 372.67 312 473.58 312 537.24z"/></clipPath><clipPath id="clip-path-2"><path class="cls-1" d="M400.11 418.28l72.94 139.3s-14.84 74.58-72.94 74.58-72.94-74.58-72.94-74.58z"/></clipPath><clipPath id="clip-path-3"><path class="cls-1" d="M339.71 360c0 26.55 33.85 48.08 60.4 48.08s60.41-21.53 60.41-48.08-33.86-85-60.41-85-60.4 58.47-60.4 85z"/></clipPath></defs><path class="cls-2" d="M253.49 387a19.55 19.55 0 0 0-7.16 10 1.13 1.13 0 0 0 2.17.6 17.06 17.06 0 0 1 6.13-8.69c1.15-.86 0-2.81-1.14-1.95zm99.17-69.22c-25.23-4.39-47-21.45-58.43-44.24a78 78 0 0 1-6.42-18c-1.54-7-3.14-15.85.43-22.43s8.64-12.38 12.28-19a134.31 134.31 0 0 0 16.56-66.57 1.5 1.5 0 0 0-3 0 132.76 132.76 0 0 1-8.21 47.72A129.75 129.75 0 0 1 295 217.68c-3.67 6-9.56 11.75-11.23 18.74-2.73 11.41 2 25.82 6.7 36.11a86.91 86.91 0 0 0 23.13 30.15 81.57 81.57 0 0 0 38.3 18c1.89.33 2.7-2.56.8-2.89z"/><path class="cls-2" d="M286.68 230.6c-4.2 19.19 9.9 37.76 23.07 50.13 14.05 13.2 31.74 22.77 51.12 24.57 1.92.18 1.91-2.82 0-3-18-1.67-34.59-10.54-47.82-22.6-12.78-11.64-27.53-29.78-23.48-48.3.41-1.88-2.48-2.68-2.89-.8z"/><path class="cls-2" d="M298.85 268.67a19.6 19.6 0 0 0 12.29 3.38c1.44-.09 1.45-2.34 0-2.25a17.6 17.6 0 0 1-11.14-3.07c-1.2-.81-2.32 1.14-1.13 1.94zm11.58 11.38a17.59 17.59 0 0 0 11.06 1.76c1.43-.23.83-2.4-.59-2.17a15 15 0 0 1-9.33-1.53c-1.29-.67-2.43 1.27-1.14 1.94zm11.95 9.58a26.9 26.9 0 0 0 10.33.88c1.43-.15 1.44-2.41 0-2.25a25.16 25.16 0 0 1-9.73-.8 1.13 1.13 0 0 0-.6 2.17zm14.55 8.37c4 .7 8 1.22 11.59-1 1.23-.76.1-2.71-1.13-1.94-3 1.9-6.51 1.37-9.86.78-1.42-.25-2 1.92-.6 2.17zm-45.99-42.27a17.35 17.35 0 0 0 12.2 6.12c1.44.11 1.44-2.14 0-2.25a15.11 15.11 0 0 1-10.61-5.46c-.94-1.11-2.52.49-1.59 1.59zm7.27 27.62C312 298.13 336.79 310.3 354 313.43l-2.65 5.65-18.66-6.74L312 298.13"/><path class="cls-2" d="M297.42 284.15c14.49 15.23 35.68 26.41 56.3 30.37l-.67-1.65-1.32 2.82c-.3.63-1.85 3-.69 2.47s-.12-.35-.75-.67a31.65 31.65 0 0 0-3.46-1.25c-4.47-1.61-9.52-2.8-13.76-5-6.52-3.33-14-9.61-20.53-14.11-1.2-.82-2.33 1.13-1.14 1.94 6.67 4.57 13.2 9.92 20.24 13.86 5.85 3.28 13.11 4.92 19.44 7.2a1.14 1.14 0 0 0 1.27-.52L355 314a1.14 1.14 0 0 0-.67-1.65c-20.26-3.89-41.07-14.83-55.31-29.79-1-1.05-2.59.54-1.59 1.59z"/><path class="cls-2" d="M341.44 341.39c-44 12-90-13.55-103-57.25l-.69 1.69c13.49-10.26 16.4-29.53 18.45-45.26a177.55 177.55 0 0 0-3.13-62.57c-.43-1.89-3.32-1.09-2.89.79a175.42 175.42 0 0 1 3.68 56.21c-1.55 15.78-4 37.85-17.61 48.24a1.56 1.56 0 0 0-.69 1.69A88.26 88.26 0 0 0 274 335.11c20.33 12.34 45.39 15.39 68.23 9.17a1.5 1.5 0 0 0-.8-2.89z"/><path class="cls-2" d="M237.55 285.22c10.73 16.93 24.66 32.2 42.93 41 20.57 10 43.63 10.39 65.72 6.08 1.9-.37 1.09-3.26-.79-2.9-21.66 4.23-44.46 3.77-64.51-6.31-17.32-8.71-30.51-23.26-40.76-39.44-1-1.63-3.63-.12-2.59 1.52z"/><path class="cls-2" d="M247.13 298a17.41 17.41 0 0 0 12.1 2.08c1.42-.26.82-2.43-.6-2.17a15 15 0 0 1-10.36-1.91 1.13 1.13 0 0 0-1.14 1.94zm15.44 15.31a18.79 18.79 0 0 0 12.93 1.5c1.41-.33.81-2.5-.6-2.17a16.18 16.18 0 0 1-11.19-1.28c-1.3-.64-2.44 1.3-1.14 1.95zm17.63 12.02c4.89.67 9.71 1.15 14.32-.95 1.32-.6.18-2.54-1.13-1.95-4 1.82-8.38 1.31-12.59.73-1.42-.2-2 2-.6 2.17zm21.29 6.95a11 11 0 0 0 8.79-3.62c1-1.07-.61-2.67-1.59-1.59a8.86 8.86 0 0 1-7.2 3c-1.45-.08-1.44 2.17 0 2.25zm20.35 2.41a13.09 13.09 0 0 0 9.55-5.86c.79-1.22-1.15-2.35-1.95-1.14a10.61 10.61 0 0 1-7.6 4.75c-1.42.17-1.43 2.42 0 2.25zM273 332.72c19.33 9.09 47.35 12 70.17 4.7l-3.46 6-31.44.9"/><path class="cls-2" d="M272.44 333.69c21.82 10 48.07 11.91 71 4.81l-1.27-1.65a36.27 36.27 0 0 0-2.63 4.55c-.37.93-1.52 1.49.1.89a3.15 3.15 0 0 1-.92 0c-3.31.08-6.61.19-9.92.29l-20.56.59c-1.44 0-1.45 2.29 0 2.25l22.84-.66c2.32-.06 6.37.63 8.56-.24s3.36-4.52 4.5-6.52a1.14 1.14 0 0 0-1.27-1.65 99.38 99.38 0 0 1-69.3-4.58c-1.3-.6-2.45 1.33-1.13 1.94zm66.22 27.75a215.24 215.24 0 0 0-145.55 50.06 1.51 1.51 0 0 0 .66 2.5c9.92 2.65 11.18 15.17 11 23.77a182.1 182.1 0 0 1-4 34.83 189.71 189.71 0 0 1-26.1 63.4c-1 1.63 1.55 3.13 2.59 1.51a192.09 192.09 0 0 0 28.06-72.57c1.89-11.48 3.69-24.06 2-35.66-1.12-7.84-4.48-15.91-12.77-18.12l.66 2.51a212.08 212.08 0 0 1 143.43-49.18c1.93.07 1.92-2.93 0-3z"/><path class="cls-2" d="M197 412.43a333.51 333.51 0 0 1 144.17-37.52c1.93-.05 1.94-3.05 0-3a337 337 0 0 0-145.68 37.93c-1.72.89-.2 3.48 1.51 2.59z"/><path class="cls-2" d="M234.48 393.31a14.22 14.22 0 0 0-7.17 9.9c-.26 1.42 1.91 2 2.17.6a12.06 12.06 0 0 1 6.14-8.55c1.27-.7.13-2.65-1.14-1.95zm40.25-11.92a20.13 20.13 0 0 0-9.19 11.67 1.13 1.13 0 0 0 2.17.6 17.79 17.79 0 0 1 8.16-10.33 1.13 1.13 0 0 0-1.14-1.94zm21.91-4.28a17.37 17.37 0 0 0-7.8 9.75c-.44 1.39 1.73 2 2.17.6a15 15 0 0 1 6.76-8.4 1.13 1.13 0 0 0-1.13-1.95zm23.14-3.03a17.71 17.71 0 0 0-7.83 9.7c-.46 1.38 1.71 2 2.17.6a15.31 15.31 0 0 1 6.8-8.35 1.13 1.13 0 0 0-1.14-1.95z"/><path class="cls-3" d="M238.08 384.08s49.44-19.63 100.58-16.65l2 .37-.77-2.53-18.07-.82-29.39 2.46-24.43 6.5z"/><path class="cls-2" d="M352.26 387c-45.61-1.42-82.63 28.92-110.31 62.07-.89 1.06-.09 3 1.46 2.51 16.08-5.18 27.49 10.24 30.88 24 3.64 14.75 3.26 30.92 1.13 45.87-4.26 29.85-16.77 57.88-32.25 83.52-1 1.65 1.59 3.16 2.59 1.51 17.46-28.91 31.24-61.06 33.74-95.08 1.11-15.08.88-32.47-5.73-46.4-5.5-11.59-18.06-20.49-31.16-16.28l1.46 2.51c27.18-32.55 63.34-62.59 108.19-61.19 1.93.06 1.93-2.94 0-3z"/><path class="cls-2" d="M359.56 398.6c-20.75-3-41.66 4.1-60.23 12.81-19.17 9-37.12 20.63-53.83 33.61-1.53 1.18.61 3.29 2.12 2.12a289 289 0 0 1 50.49-31.83c18.44-9 39.82-16.8 60.65-13.82 1.89.27 2.71-2.62.8-2.89z"/><path class="cls-2" d="M342.85 398.82a15.34 15.34 0 0 0-11 11.43c-.32 1.41 1.85 2 2.17.6a13.09 13.09 0 0 1 9.44-9.86 1.13 1.13 0 0 0-.6-2.17zm-21.13 4.31c-3.81 3.3-7.69 6.93-8.65 12.1-.27 1.41 1.9 2 2.17.59.89-4.78 4.55-8.05 8.07-11.1 1.1-.94-.5-2.53-1.59-1.59zm-20.34 7.81a34.27 34.27 0 0 0-5.85 11.65c-.44 1.38 1.73 2 2.17.59a31.28 31.28 0 0 1 5.3-10.64c.91-1.12-.68-2.72-1.59-1.6zm-18.66 10.45a20.34 20.34 0 0 0-3.57 11.06 1.13 1.13 0 0 0 2.25 0 18.23 18.23 0 0 1 3.26-9.93c.82-1.2-1.13-2.32-1.94-1.13zM267 431a26.41 26.41 0 0 0-2.54 8.91c-.15 1.43 2.1 1.42 2.25 0a22.91 22.91 0 0 1 2.24-7.77c.63-1.3-1.31-2.44-1.95-1.14z"/><path class="cls-3" d="M272.22 420s39.75-28.65 83.92-27.35h2.65l-3.63-2.53h-12L313 396.5l-13.64 5.64"/><path class="cls-2" d="M545.37 389a17 17 0 0 1 6.13 8.69c.42 1.38 2.6.79 2.17-.6a19.55 19.55 0 0 0-7.16-10c-1.17-.86-2.29 1.09-1.14 1.95zm-97.23-68.33c25-4.34 46.83-21 58.92-43.13 5.89-10.81 9.92-23.55 9.76-36-.1-7.47-4.05-12.3-8.1-18.21a130.71 130.71 0 0 1-11.55-20.67 132.06 132.06 0 0 1-11.25-55.2 1.5 1.5 0 0 0-3 0 135.13 135.13 0 0 0 25.16 80.15c2.45 3.42 4.87 6.67 5.49 10.94a39.38 39.38 0 0 1-.25 10.4 75.32 75.32 0 0 1-4.84 18.53 83.62 83.62 0 0 1-22.57 31.66 78.86 78.86 0 0 1-38.57 18.6c-1.89.33-1.09 3.22.8 2.89z"/><path class="cls-2" d="M510.43 231.4c4.05 18.52-10.7 36.66-23.48 48.3-13.23 12.06-29.81 20.93-47.82 22.6-1.9.18-1.92 3.18 0 3 19.38-1.8 37.07-11.37 51.12-24.57 13.17-12.37 27.27-30.94 23.07-50.13-.41-1.88-3.31-1.08-2.89.8z"/><path class="cls-2" d="M500 266.73a17.58 17.58 0 0 1-11.16 3.07c-1.45-.09-1.44 2.16 0 2.25a19.6 19.6 0 0 0 12.29-3.38c1.19-.8.07-2.75-1.13-1.94zm-11.57 11.38a15 15 0 0 1-9.33 1.53c-1.41-.23-2 1.94-.59 2.17a17.59 17.59 0 0 0 11.06-1.76c1.29-.67.15-2.61-1.14-1.94zM477 287.46a25.16 25.16 0 0 1-9.73.8c-1.44-.16-1.43 2.1 0 2.25a26.9 26.9 0 0 0 10.33-.88 1.13 1.13 0 0 0-.6-2.17zm-14.53 8.39c-3.36.59-6.81 1.12-9.86-.78-1.23-.77-2.36 1.18-1.13 1.94 3.58 2.23 7.63 1.71 11.59 1 1.42-.25.82-2.42-.6-2.17zm45-41.71a15.11 15.11 0 0 1-10.61 5.46c-1.43.1-1.44 2.36 0 2.25a17.35 17.35 0 0 0 12.2-6.12c.93-1.1-.65-2.7-1.59-1.59zm-5.68 29.21C488 298.13 463.21 310.3 446 313.43l2.65 5.65 18.66-6.74L488 298.13"/><path class="cls-2" d="M501 282.56c-14.24 15-35.05 25.9-55.31 29.79A1.14 1.14 0 0 0 445 314l2.64 5.64a1.12 1.12 0 0 0 1.27.52c6.32-2.28 13.59-3.92 19.44-7.2 7-3.94 13.57-9.29 20.24-13.86 1.19-.81.06-2.76-1.14-1.94-6.57 4.5-14 10.74-20.53 14.11-4.08 2.12-9 3.26-13.34 4.82a43.1 43.1 0 0 1-5.2 1.88c1.25-.27.8 1 .78-.37a7.79 7.79 0 0 0-.9-1.91l-1.26-2.82-.67 1.65c20.62-4 41.81-15.14 56.3-30.37 1-1-.59-2.64-1.59-1.59z"/><path class="cls-2" d="M457.76 344.28c22.87 6.23 47.87 3.14 68.23-9.17a88.14 88.14 0 0 0 38.45-50.18 1.56 1.56 0 0 0-.69-1.69c-13.66-10.39-16.06-32.47-17.61-48.24a175.42 175.42 0 0 1 3.68-56.18c.43-1.88-2.46-2.68-2.89-.79a177.55 177.55 0 0 0-3.15 62.54c2.05 15.73 5 35 18.45 45.26l-.69-1.69c-13 43.7-59 69.23-103 57.25a1.5 1.5 0 0 0-.8 2.89z"/><path class="cls-2" d="M559.86 283.7c-10.25 16.18-23.44 30.73-40.76 39.44-20.05 10.08-42.85 10.54-64.51 6.31-1.88-.36-2.69 2.53-.79 2.9 22.09 4.31 45.15 3.89 65.72-6.08 18.27-8.85 32.2-24.12 42.93-41 1-1.64-1.56-3.15-2.59-1.52z"/><path class="cls-2" d="M551.73 296a15 15 0 0 1-10.36 1.85c-1.41-.26-2 1.91-.6 2.17a17.4 17.4 0 0 0 12.1-2.08 1.13 1.13 0 0 0-1.14-1.94zm-15.44 15.36a16.18 16.18 0 0 1-11.19 1.28c-1.41-.33-2 1.83-.6 2.17a18.79 18.79 0 0 0 12.93-1.5c1.3-.65.16-2.59-1.14-1.95zm-17.09 11.8c-4.21.58-8.6 1.09-12.59-.73-1.3-.59-2.45 1.35-1.13 1.95 4.61 2.1 9.43 1.62 14.32.95 1.43-.2.82-2.37-.6-2.17zM498.51 330a8.86 8.86 0 0 1-7.2-3c-1-1.08-2.57.52-1.59 1.59a11 11 0 0 0 8.79 3.62c1.44-.08 1.45-2.33 0-2.25zm-20.35 2.44a10.61 10.61 0 0 1-7.6-4.75c-.8-1.2-2.74-.08-1.95 1.14a13.09 13.09 0 0 0 9.55 5.86c1.43.17 1.42-2.08 0-2.25zm48.84.28c-19.33 9.09-47.35 12-70.17 4.7l3.46 6 31.44.9"/><path class="cls-2" d="M526.43 331.75a99.38 99.38 0 0 1-69.3 4.58 1.14 1.14 0 0 0-1.27 1.65c1.14 2 2.31 5.69 4.47 6.56s6.24.18 8.56.24l22.84.66a1.13 1.13 0 0 0 0-2.25l-20.56-.59c-3.31-.1-6.61-.21-9.92-.29a3.54 3.54 0 0 1-.92 0c1.67.56.5.29.3-.54-.39-1.61-2-3.44-2.83-4.9l-1.27 1.65c23 7.1 49.21 5.2 71-4.81 1.32-.61.18-2.55-1.13-1.94zm-65.09 32.69a212.13 212.13 0 0 1 143.43 49.18l.66-2.51c-8.28 2.21-11.65 10.28-12.77 18.12-1.67 11.61.14 24.17 2 35.66a191.76 191.76 0 0 0 28.06 72.57c1 1.62 3.64.12 2.59-1.51a189.71 189.71 0 0 1-26.15-63.35 183.82 183.82 0 0 1-4-34c-.19-8.78.78-21.89 11-24.63a1.51 1.51 0 0 0 .66-2.5 215.24 215.24 0 0 0-145.55-50.06c-1.92.07-1.93 3.07 0 3z"/><path class="cls-2" d="M604.55 409.84a337 337 0 0 0-145.68-37.93c-1.93-.05-1.93 2.95 0 3A333.51 333.51 0 0 1 603 412.43c1.71.89 3.23-1.7 1.51-2.59z"/><path class="cls-2" d="M564.38 395.26a12.06 12.06 0 0 1 6.14 8.55c.26 1.42 2.43.82 2.17-.6a14.22 14.22 0 0 0-7.17-9.9c-1.27-.7-2.41 1.25-1.14 1.95zm-40.25-11.93a17.79 17.79 0 0 1 8.16 10.33 1.13 1.13 0 0 0 2.17-.6 20.13 20.13 0 0 0-9.19-11.67 1.13 1.13 0 0 0-1.14 1.94zm-21.9-4.27a15 15 0 0 1 6.76 8.4c.44 1.38 2.61.79 2.17-.6a17.37 17.37 0 0 0-7.8-9.75 1.13 1.13 0 0 0-1.13 1.95zM479.08 376a15.27 15.27 0 0 1 6.8 8.35c.46 1.36 2.64.78 2.17-.6a17.71 17.71 0 0 0-7.83-9.7 1.13 1.13 0 0 0-1.14 1.95z"/><path class="cls-3" d="M561.92 384.08s-49.44-19.63-100.58-16.65l-2 .37.77-2.53 18.07-.82 29.39 2.46 24.46 6.5z"/><path class="cls-2" d="M447.74 390c44.85-1.4 81 28.64 108.19 61.19l1.46-2.51c-13.1-4.21-25.66 4.69-31.16 16.28-6.61 13.93-6.84 31.32-5.73 46.4 2.5 34 16.28 66.17 33.74 95.08a1.5 1.5 0 0 0 2.59-1.51c-15.48-25.63-28-53.67-32.25-83.52-2.12-15-2.5-31.1 1.13-45.87 3.38-13.72 14.81-29.14 30.88-24 1.55.49 2.35-1.45 1.46-2.51-27.68-33.15-64.7-63.49-110.31-62.07-1.92.06-1.93 3.06 0 3z"/><path class="cls-2" d="M441.24 401.49c20.83-3 42.21 4.85 60.65 13.82a289 289 0 0 1 50.49 31.83c1.51 1.17 3.65-.94 2.12-2.12-16.71-13-34.66-24.61-53.83-33.61-18.57-8.71-39.48-15.78-60.23-12.81-1.9.27-1.09 3.16.8 2.89z"/><path class="cls-2" d="M456.55 401a13.09 13.09 0 0 1 9.44 9.86c.32 1.41 2.49.82 2.17-.6a15.34 15.34 0 0 0-11-11.43 1.13 1.13 0 0 0-.6 2.17zm20.14 3.72c3.52 3 7.18 6.32 8.07 11.1.27 1.43 2.44.82 2.17-.59-1-5.17-4.84-8.8-8.65-12.1-1.09-.94-2.69.65-1.59 1.59zm20.31 7.82a31.28 31.28 0 0 1 5.27 10.64c.43 1.38 2.61.79 2.17-.59a34.27 34.27 0 0 0-5.85-11.65c-.91-1.12-2.5.48-1.59 1.6zm18.34 9.98a18.21 18.21 0 0 1 3.26 9.93 1.13 1.13 0 0 0 2.25 0 20.42 20.42 0 0 0-3.57-11.06c-.81-1.19-2.76-.07-1.94 1.13zm15.66 9.57a22.91 22.91 0 0 1 2.24 7.77c.15 1.42 2.4 1.44 2.25 0A26.64 26.64 0 0 0 533 431c-.64-1.3-2.58-.16-2 1.14z"/><path class="cls-3" d="M527.78 420s-39.78-28.64-83.92-27.34h-2.65l3.63-2.53h12L487 396.5l13.64 5.64"/><circle class="cls-4" cx="400.11" cy="284.56" r="31.81"/><path class="cls-2" d="M370.81 295.21c-13.87-19-13-45.71.21-64.79l-2.74-1.15c-2 12.53-2.19 25.5 9.74 33 1.64 1 3.14-1.56 1.51-2.59-10.68-6.72-10.11-18.53-8.35-29.62a1.51 1.51 0 0 0-2.75-1.15c-13.72 19.87-14.65 48.06-.21 67.81 1.13 1.54 3.74 0 2.59-1.51z"/><path class="cls-5" d="M369.73 229.67s-10.83 25.49.43 44.18"/><path class="cls-2" d="M432.1 296.72c14.44-19.75 13.51-47.94-.21-67.81a1.51 1.51 0 0 0-2.75 1.15c1.76 11.09 2.33 22.9-8.35 29.62-1.63 1-.13 3.62 1.51 2.59 11.93-7.5 11.72-20.47 9.74-33l-2.75 1.15c13.18 19.08 14.09 45.82.22 64.79-1.14 1.56 1.46 3.06 2.59 1.51z"/><path class="cls-5" d="M430.59 229.67s10.83 25.49-.43 44.18"/><path class="cls-6" d="M488.25 537.24c0 63.66-46.27 115.26-88.14 115.26S312 600.9 312 537.24s46.27-164.57 88.14-164.57 88.11 100.91 88.11 164.57z"/><g clip-path="url(#clip-path)"><path class="cls-6" d="M342.64 591.57s35.26-36.64 57.07 12.9V370.2l-57.07 221.37c-6.84-51.11-40.29-37.2-40.29-37.2l97.36-184.17"/><path class="cls-6" d="M399.71 370.2L277.5 522.51s30.64-10.86 24.85 31.86z"/><path class="cls-5" d="M291.65 505.74s26.1-9.51 25.11 21.3c0 0 33.17-11.79 35.15 27.4 0 0 32.61-29.5 47.8 6m-86.98-81.31s19.49-8 20.39 17c0 0 24.61-11.83 29.31 18.67 0 0 22.09-23.85 37.28 3.32M271.9 477.9l127.81-107.7-124.72 68.45m37.74 4.85s15.14-5 17.49 13.3c0 0 17.28-7 17.53 11.68 0 0 18.81-9.85 24.6 11.23 0 0 17.31-16.55 27.36 0m-66.28-53.65s11.39-1.2 12.25 11.48c0 0 13.46-8 15.61 5.33 0 0 14.5-7.13 17.52 8.41 0 0 11.59-14.79 20.9 0"/><path class="cls-5" d="M351 411.22s12-5.35 10.75 6.25c0 0 9.19-6.42 10.57 4.48 0 0 9.1-8 13 4.11 0 0 7.29-9.12 14.4 0M359 394.21s7.71-2.88 7.53 3.92c0 0 6.64-2.54 6.9 4.77 0 0 6.79-6.74 7.21 3.3 0 0 6.35-3.59 8.77 3.79 0 0 6.21-5.87 10.26 0"/><path class="cls-6" d="M457.58 591.57s-35.26-36.64-57.07 12.9V370.2l57.07 221.37c6.84-51.11 40.29-37.2 40.29-37.2L400.51 370.2"/><path class="cls-6" d="M400.51 370.2l122.21 152.31s-30.64-10.86-24.85 31.86z"/><path class="cls-5" d="M508.57 505.74s-26.1-9.51-25.11 21.3c0 0-33.17-11.79-35.15 27.4 0 0-32.61-29.5-47.8 6m86.98-81.31s-19.49-8-20.39 17c0 0-24.61-11.83-29.31 18.67 0 0-22.09-23.85-37.28 3.32m127.81-40.22L400.51 370.2l124.72 68.45m-37.74 4.85s-15.14-5-17.49 13.3c0 0-17.28-7-17.53 11.68 0 0-18.8-9.85-24.6 11.23 0 0-17.31-16.55-27.36 0m66.29-53.65s-11.4-1.2-12.26 11.48c0 0-13.45-8-15.61 5.33 0 0-14.5-7.13-17.52 8.41 0 0-11.59-14.79-20.9 0"/><path class="cls-5" d="M449.19 411.22s-12-5.35-10.75 6.25c0 0-9.18-6.42-10.57 4.48 0 0-9.09-8-13 4.11 0 0-7.29-9.12-14.4 0m40.71-31.85s-7.71-2.88-7.53 3.92c0 0-6.64-2.54-6.9 4.77 0 0-6.79-6.74-7.2 3.3 0 0-6.36-3.59-8.78 3.79 0 0-6.21-5.87-10.26 0"/></g><path class="cls-5" d="M312 537.24c0 63.66 46.27 115.26 88.14 115.26s88.14-51.6 88.14-115.26S442 372.67 400.11 372.67 312 473.58 312 537.24z"/><path class="cls-4" d="M400.11 418.28l72.94 139.3s-14.84 74.58-72.94 74.58-72.94-74.58-72.94-74.58z"/><g clip-path="url(#clip-path-2)"><path class="cls-6" d="M444.04 613.63h-87.86v30.86h87.86v-30.86m9.86-14.79h-87.86v14.79h87.86v-14.79m9.86-14.8h-87.85v14.8h87.85v-14.8m9.87-14.79h-87.86v14.79h87.86v-14.79m9.86-14.79h-87.86v14.79h87.86v-14.79m9.86-14.8h-87.86v14.8h87.86v-14.8m9.86-14.79h-87.86v14.79h87.86v-14.79m-77.99-14.79h87.86v14.79h-87.86zm9.86-14.8h87.86v14.79h-87.86z"/></g><path class="cls-5" d="M400.11 418.28l72.94 139.3s-14.84 74.58-72.94 74.58-72.94-74.58-72.94-74.58z"/><path class="cls-6" d="M408.43 473.57a8.32 8.32 0 1 1-16.64 0c0-4.6 8.32-20.65 8.32-20.65s8.32 16.08 8.32 20.65zm-22.94 48.28a8.32 8.32 0 0 1-16.64 0c0-4.6 8.32-20.65 8.32-20.65s8.32 16.05 8.32 20.65zm-22.94 48.28a8.32 8.32 0 0 1-16.64 0c0-4.59 8.32-20.65 8.32-20.65s8.32 16.06 8.32 20.65z"/><path class="cls-4" d="M410.9 632.11l-12.35 20.39 27.86-8.32 22.8-15.34 19.15-24.42 12.63-28.04 4.59-21.88-10.94 4.47-8.63 26.5-9.09 16.33-11.56 14.18-14.64 10.44-14.94 5.74-4.88-.05z"/><path class="cls-6" d="M460.52 360c0 26.55-33.86 48.08-60.41 48.08s-60.4-21.53-60.4-48.08 33.85-85 60.4-85 60.41 58.47 60.41 85z"/><g clip-path="url(#clip-path-3)"><path class="cls-2" d="M340.77 363.13a17.88 17.88 0 0 0 13-9.06c3.48-6.45 2.64-14.27 4-21.47a34.84 34.84 0 0 1 14-21.6c-4.14 6.55-7.94 14-6.94 21.68.64 4.89 3.18 9.4 3.69 14.3.7 6.67-2.39 13.05-4.25 19.49s-2.13 14.35 2.88 18.81"/><path class="cls-2" d="M341 363.85c9.95-1.85 15-9.61 16.27-19.19.7-5.48.67-11.06 2.51-16.34a35 35 0 0 1 12.4-16.65l-1-1c-3.52 5.67-7 11.94-7.19 18.78-.25 7.82 4.7 14.51 3.7 22.43-1.39 10.91-10.69 24.25-1 34 .68.69 1.74-.37 1.06-1.06-9.86-9.91 1.42-24.07 1.67-35.28.13-5.94-3-11.12-3.71-16.9-1-7.75 2.81-14.81 6.77-21.19.38-.6-.4-1.48-1-1a36.26 36.26 0 0 0-14.28 22c-1.05 5.28-.8 10.74-2 16a17.83 17.83 0 0 1-14.51 14c-.95.18-.55 1.62.4 1.45zm36.26 23.72a22.55 22.55 0 0 0 14-20.87c-.12-6.8-3.36-13.14-4.45-19.84a32 32 0 0 1 1.71-16.49c1.65-4.29 4.24-8.24 5.21-12.74 1.58-7.38-1.44-14.89-4.4-21.83 6.78 8.23 13.95 17.66 13.05 28.29-.62 7.19-4.93 14.39-2.54 21.2 1.15 3.27 3.7 5.82 5.88 8.53a45.52 45.52 0 0 1 9.28 35.64"/><path class="cls-2" d="M377.64 388.22a23.64 23.64 0 0 0 13.27-14.42c2.65-8.25-.74-15.85-2.69-23.82a32.75 32.75 0 0 1 0-16.22c1.23-4.74 4-8.85 5.53-13.46 2.87-8.55-.42-17-3.76-24.88l-1.18.91c5.77 7.05 12.28 15.1 12.86 24.61.47 7.76-4.68 15.21-3 23 1.52 7 8.37 12 11.48 18.26a45.55 45.55 0 0 1 4.11 27.09c-.14.95 1.31 1.35 1.45.4a47.28 47.28 0 0 0-2.3-23.72 46 46 0 0 0-5.63-10.61c-2.72-3.8-6.61-7.08-7.66-11.82-1.18-5.3 1.44-10.79 2.46-15.9a25.44 25.44 0 0 0 0-10.71c-1.88-8.29-7.44-15.2-12.71-21.63-.59-.72-1.47.2-1.18.91 1.79 4.23 3.61 8.56 4.37 13.12 1 6-.63 10.65-3.06 16-2.94 6.43-4.92 12.76-4.15 19.94.83 7.74 5.07 15 4.65 22.9A22.14 22.14 0 0 1 376.92 387c-.89.38-.12 1.67.75 1.29z"/><path class="cls-2" d="M411.08 359.43c-3.61-3.41-7.47-7.28-7.88-12.23-.45-5.47 3.42-10.21 5.69-15.21a27.7 27.7 0 0 0-.93-24.36c5.9 5.23 11.81 11.48 12.69 19.31.69 6.21-1.92 12.65-.16 18.65 1.82 6.17 7.72 10.14 11.21 15.55 5.48 8.5 4.47 19.47 3.26 29.51"/><path class="cls-2" d="M411.61 358.9c-4.45-4.24-9.07-9.12-7.21-15.84 1.22-4.4 4.21-8.08 5.82-12.33a29 29 0 0 0-1.61-23.48l-1.18.91c6.64 6 12.76 12.72 12.57 22.19-.14 6.59-2.16 12.85 1.31 18.95 3.63 6.38 10 10.48 12.33 17.7 2.47 7.59 1.49 15.88.57 23.65-.11 1 1.39 1 1.5 0 .88-7.43 1.75-15.21-.19-22.55-2-7.76-7.89-11.93-12.14-18.32-5.34-8-.35-16.71-2.43-25.33-1.73-7.14-7.18-12.6-12.46-17.35a.75.75 0 0 0-1.18.91 27.57 27.57 0 0 1 2.58 18.55c-1.07 4.89-3.95 8.82-5.9 13.34-3.61 8.33.54 14.32 6.56 20.06.7.66 1.77-.4 1.06-1.06zm-46.87 20.75c.32-8.84 6.47-16.24 9.81-24.43a40 40 0 0 0 1.45-25.65 34.31 34.31 0 0 1 9.68 31.29c-1 4.49-2.82 8.8-3.14 13.38a20.35 20.35 0 0 0 5.46 15.18"/><path class="cls-2" d="M365.49 379.65c.69-9.32 6.88-16.57 10.1-25a41.82 41.82 0 0 0 1.18-25.23l-1.26.73c9.06 9.08 12 21.65 8.64 33.9-2.61 9.57-3.66 17.95 3.34 25.95.63.73 1.69-.34 1.06-1.06-5.16-5.9-6.11-12.91-4.14-20.34 1.33-5 2.84-9.8 2.74-15.07A35.67 35.67 0 0 0 376.58 329a.76.76 0 0 0-1.26.73c2.65 10.45 1.15 20.53-3.76 30.05-3.32 6.42-7 12.46-7.57 19.83-.07 1 1.43 1 1.5 0zm56.67-.37c.56-6.25 4.64-11.63 6.07-17.73 1.63-7-.31-14.23-1-21.37a23.1 23.1 0 0 1 8.52-19.66c-2.12 5.06-1.11 10.91.88 16s4.9 9.84 6.7 15c3.75 10.75 2.42 22.52 1.06 33.82"/><path class="cls-2" d="M422.88 379.48c.68-5 3.11-9.33 4.88-14a31.15 31.15 0 0 0 1.59-14.56c-.52-5.3-2.09-10.69-1.19-16a22.78 22.78 0 0 1 8.1-13.85l-1.26-.73c-3.58 10.15 2.37 19.11 6.26 28.14 5.1 11.83 3.85 24.47 2.36 36.92-.12 1 1.38.95 1.5 0 1.25-10.4 2.51-21.19-.3-31.46-3-11-12.61-21.2-8.37-33.2.28-.78-.73-1.16-1.25-.73-7.35 6-9.52 14.69-8.3 23.76.85 6.36 2.08 12.8.19 19.11-1.66 5.58-4.86 10.36-5.65 16.22-.13.94 1.31 1.35 1.44.4z"/><path class="cls-2" d="M443.3 377.47q2.58-11.61 4.14-23.41c.86-6.52 1.28-13.8-2.78-19 7.29 5.66 11.85 14.44 13.21 23.57s-.32 18.56-3.87 27.08"/><path class="cls-2" d="M444 377.67c1.76-8.05 3.26-16.18 4.25-24.37.79-6.5.92-13-3-18.58l-1.18.91c15.14 12.36 16 32.85 9.15 49.93-.36.89 1.09 1.28 1.44.39 7-17.52 6-38.71-9.53-51.39-.6-.49-1.71.16-1.18.91 4.39 6.28 3.34 14 2.33 21.11-1 6.94-2.26 13.84-3.76 20.69-.2.94 1.24 1.35 1.45.4zm-83.95-2.13c-4.41-5.16-8.05-11.83-8.85-18.57s-1.84-11 1.17-20.26c-7.5 13.89-14.72 14-12.42 45.92"/><path class="cls-2" d="M360.58 375a40.53 40.53 0 0 1-7.48-38.1.75.75 0 0 0-1.37-.57c-3.08 5.58-7.48 10.46-10 16.36-3.92 9.28-3.22 20.14-2.56 29.93.06 1 1.56 1 1.5 0-.66-9.81-1.45-20.82 2.73-30 2.52-5.53 6.66-10.19 9.59-15.51l-1.37-.57a42 42 0 0 0 7.87 39.55c.62.75 1.67-.32 1.06-1.06z"/><path stroke-width=".5" stroke="#00f" stroke-linejoin="bevel" fill="#00f" d="M345.8 365.68l17.53 9.45 8.44-1.71 14.53-20.47 33.24 6.73 48.17 12.99-7.2 30.46-91.21 4.97-33.09-25.47 9.59-16.95z"/><path class="cls-2" d="M364 334.48c.63 2.43 2.1 4.53 3.4 6.68a55.07 55.07 0 0 1 7.84 28.84c0 4.37-1.17 9.53-5.21 11.21a12.43 12.43 0 0 1-4.9.64c-2.22 0-4.66-.09-6.29-1.6a7.45 7.45 0 0 1-1.68-2.64c-3.28-7.78-1.79-17 2.38-24.33"/><path class="cls-2" d="M363.24 334.68c1.84 5.56 5.71 10.22 7.78 15.75a52.79 52.79 0 0 1 3.47 19.57c-.08 3.08-.49 7-2.9 9.29-1.94 1.81-5.27 2-7.81 1.79-3.77-.26-5.73-3.1-6.91-6.65-2.25-6.77.09-14.76 3.31-20.78.46-.85-.83-1.61-1.29-.75-3.93 7.32-5.81 16.17-2.73 24.17 2.23 5.78 10.14 7.63 15.38 4.18 5.88-3.86 4.71-13.83 3.88-19.63a55.74 55.74 0 0 0-3.61-13.24c-2-4.87-5.48-9.13-7.12-14.1-.31-.91-1.75-.52-1.45.4z"/></g><path class="cls-5" d="M339.71 360c0 26.55 33.85 48.08 60.4 48.08s60.41-21.53 60.41-48.08-33.86-85-60.41-85-60.4 58.47-60.4 85z"/><path class="cls-2" d="M361.16 397.67a3.64 3.64 0 0 1-1.11 1.16 1.54 1.54 0 0 0-.54 2.05 1.5 1.5 0 0 0 2.05.54 7.17 7.17 0 0 0 2.19-2.23 1.5 1.5 0 1 0-2.59-1.52zm74.08 1.58l2.35 2.91a1.51 1.51 0 0 0 2.12 0 1.53 1.53 0 0 0 0-2.12l-2.35-2.91a1.51 1.51 0 0 0-2.12 0 1.53 1.53 0 0 0 0 2.12zm31.59-7.16l5.71 2.05c1.82.65 2.6-2.25.8-2.9l-5.71-2c-1.82-.65-2.6 2.24-.8 2.89zm-141.64 1.74a17 17 0 0 0 8-.65c1.82-.61 1-3.51-.8-2.89a13.7 13.7 0 0 1-6.38.65c-1.89-.27-2.71 2.62-.8 2.89zm59.47-42.07l1.23 2.14a1.5 1.5 0 1 0 2.59-1.52l-1.23-2.13a1.5 1.5 0 0 0-2.59 1.51zm-5.23 97.96v4.07a1.5 1.5 0 0 0 3 0v-4.07a1.5 1.5 0 0 0-3 0zm42.46 4.57a19.27 19.27 0 0 1-3-4.59c-.84-1.74-3.42-.22-2.59 1.51a21.33 21.33 0 0 0 3.51 5.2c1.3 1.43 3.42-.69 2.12-2.12zM305.11 342l-10.76-2.51c-1.88-.44-2.68 2.45-.8 2.89l10.76 2.51c1.88.44 2.68-2.45.8-2.89zm189.02 2.47c2 .42 3.55-.1 5.44-.79a23.37 23.37 0 0 1 6.44-1.53c1.91-.15 1.93-3.15 0-3a24.43 24.43 0 0 0-5 .87c-1.9.56-4 2-6.06 1.55s-2.69 2.49-.8 2.9zM315.52 528.75l.63-9.49c.13-1.93-2.87-1.92-3 0l-.63 9.49c-.13 1.93 2.87 1.92 3 0zm168.64-9.88a19.66 19.66 0 0 0 1.53 11.39c.79 1.76 3.38.24 2.59-1.51a16.09 16.09 0 0 1-1.23-9.08c.29-1.89-2.6-2.71-2.89-.8z" id="Touchups"/></svg>