<svg xmlns="http://www.w3.org/2000/svg" viewBox="0 0 800 800"><defs><style>.a{fill:#f4e976;}</style></defs><title>punishment</title><path d="M160.75,399.42q0-96.29,0-192.59c.06-50.56.3-101.13.38-151.7,0-4.25,2.87-5.3,5.86-5.11,34.89,2.28,69.8.88,104.69,1q181.58.41,363.13,0c4.95,0,6.15,1.67,6.09,6.28-1.5,111.8-1.29,223.61-1.4,335.42-.1,101.57.33,203.14.52,304.71,0,14.45.08,28.9.07,43.35,0,9.07-.52,9.29-9.47,9.23q-56.61-.35-113.21-.41-148.15,0-296.31.16c-18.86,0-37.72.14-56.57.28-5.35,0-5.67-3.64-5.37-7.38.9-11.42.48-22.85.52-34.27q.42-133.1.58-266.18,0-21.37,0-42.75Zm473.7,344.22c.22-2.32.47-3.7.47-5.07q-.39-128-.79-255.92-.21-100.95-.07-201.91c0-34.09.2-68.19.25-102.28q.09-51.45,0-102.9c0-6.24,1.13-12.72-3.2-19.18-154.51-.79-309.52-.07-465.1-.17.24,230-1.62,458.57-1,687.71C322.18,744.24,478.25,744.38,634.45,743.64Z"/><path class="a" d="M633.21,743.65c-155.33.73-310.53.59-466.76.28a1.4,1.4,0,0,1-1.39-1.39c-.63-228.22,1.21-455.89,1-684.94a1.37,1.37,0,0,1,1.38-1.39c154.86.09,309.15-.61,463,.17a1.38,1.38,0,0,1,1.18.65c3.84,6.24,2.77,12.5,2.78,18.53q.09,51.45,0,102.9c0,34.09-.24,68.19-.25,102.28q0,101,.07,201.91.27,128,.79,255.92a36.3,36.3,0,0,1-.34,3.84A1.39,1.39,0,0,1,633.21,743.65Zm-88.8-157.77a1.37,1.37,0,0,1,.65-1.33,19.54,19.54,0,0,1,6.67-2.11,99.7,99.7,0,0,0,36.43-14.79c16.5-10.9,25-25.56,22.25-45.76-.72-5.15-1.69-10.27-2.41-15.43-1.17-8.36-.38-16.42,4.24-23.75a35.43,35.43,0,0,1,7.3-8.74c1.93-1.58,3-3.38,1.55-5.71s-3.44-1.41-5.26-.49c-6.1,3.08-11.77,6.8-15.77,12.46-5.87,8.3-9.17,17.78-11,27.63-2.67,14.51-6.84,28.42-14.14,41.3l-.12.21a1.38,1.38,0,0,1-2.48-1.2c3.13-7.35,5.44-14.59,4.68-22.59a9.27,9.27,0,0,1,.71-3.5c2.89-9.16,6.21-18.2,8.67-27.46,4-15.09,6.08-30.29-.79-45.28a104.79,104.79,0,0,0-10.17-17c-9.6-13.48-9.41-27.57-3.88-42.31.63-1.68,1.91-3.26,1.5-5.42a1.36,1.36,0,0,0-1.31-1c-1.62-.09-3.23-.68-4.5,1.85-4.19,8.39-9.57,16.22-11.29,25.73-.61,3.34-1.25,6.83-2.75,9.81a19.64,19.64,0,0,0-.9,15.15c3.05,8.93,4.38,18.26,7.25,27.21.49,1.53,1.4,3.05,1.9,4.73a1.39,1.39,0,0,1-2.47,1.19c-4.2-5.79-10-10.2-13.7-16.21-5.18-8.29-9.58-17.07-15.9-24.62-13.08-15.62-28.6-27.18-49.21-31a98.25,98.25,0,0,0-27.27-1.2,1.39,1.39,0,0,1-1.4-1.94c3.69-8.39,7.18-16.24,10.58-24.14,6.32-14.7,13.74-28.92,18.86-44.14.75-2.22,1.78-4.46,4.56-5,5.71-1.18,11.41-2.41,17.2-3.64a1.4,1.4,0,0,1,1.49.67c1,1.67,1.84,3.13,2.67,4.61q19.7,35.5,39.33,71c1.33,2.42,2.57,4.34,5.51,3.88a1.39,1.39,0,0,0,1.16-1.13c.86-5.4-.46-10.59-1-15.83-2.77-28.14-5-56.33-6.82-84.55-.1-1.53-.49-2.9,1.39-4.08a44.09,44.09,0,0,0,15.21-16.39c2.26-4.09,5.22-4.54,9.46-3.61,17.91,4,36.42,5,53.9,11.05a4.22,4.22,0,0,0,5.55-2.25c1.17-2.25.14-4.24-1.81-5.68-16.71-12.33-33.4-24.7-50.23-36.86-1.76-1.28-3.17-2.16-2.92-4.47,1.26-11.85-1.23-23.37-3.18-35.39A1.36,1.36,0,0,1,573,197c.36-.26.75-.53,1.12-.81,11.41-8.83,22.74-17.76,34.28-26.42,2.16-1.62,2.8-3.32,2.33-5.58s-2.7-2.71-4.32-2.13c-6.81,2.43-13.7,4.7-20.38,7.35s-13.57,5.29-20.18,8.12a1.37,1.37,0,0,1-1.74-.59l-11.37-20.13a1.41,1.41,0,0,1,0-1.35Q570,124.16,588.53,93.68c1.6-2.62,4.18-5.41,3.38-9a1.31,1.31,0,0,0-.64-.85,4.41,4.41,0,0,0-5.7,1.07c-5.58,6.12-12.61,10.42-19,15.49-13.23,10.48-26.69,20.65-40.15,31a1.37,1.37,0,0,1-1.6.05,75.78,75.78,0,0,0-26.88-11.44c-3.12-.64-4.13-2.48-4.77-5.28-2.73-11.92-5.64-23.79-8.47-35.68-.67-2.79-1.49-5.46-4.4-6.8a1.39,1.39,0,0,0-1.24.08c-2.08,1.13-2.56,3.27-3.11,5.4-3,11.63-6,23.26-9.13,34.88-.71,2.66-1.29,5.07-5.06,5.72-12.41,2.13-24.69,4.95-36.14,11a1.37,1.37,0,0,1-1.73-.35c-.33-.42-.63-.79-.94-1.16q-20.7-24.66-41.39-49.32c-2.05-2.45-3.84-5.29-7.35-3.77a1.48,1.48,0,0,0-.85,1c-.37,1.69.41,2.93.89,4.25,6.59,18.29,13.13,36.6,19.76,54.87,1.22,3.36,1.07,7.27,3.5,10.1,2.61,3,2.17,5.32-.75,7.84-10.35,9-16.19,20.87-20.42,33.46-1.45,4.32-3,6.63-7.38,7.79-7,1.86-13.81,4.24-20.73,6.45a1.37,1.37,0,0,1-1.75-.93c-.66-2.62.21-4.75.91-6.83,1.79-5.31,3.88-10.52,5.68-15.83,5.86-17.29,5.75-33.58-8.4-47.32-5.59-5.43-11.33-10.71-16.85-16.2-2.35-2.33-4.67-3-7.45-1.7a1.39,1.39,0,0,0-.71,1.77c1.49,3.59,5.5,4.65,7.5,7.59,6.09,8.94,3.61,18.09,1,27.21-1.75,6.19-3.73,12.28-4,18.77-.52,13.69,6.25,24.43,14,34.73,1.39,1.85,3.93,3.09,1.46,5.94-5.78,6.66-4.06,13.67-.79,20.75,1.31,2.84,3.85,5.19,3.85,9.13a1.33,1.33,0,0,1-.65,1.13c-14.72,9.28-31.08,5.16-47,5.51a1.38,1.38,0,0,1-1-2.37c6.1-5.93,11.83-11.75,16.24-18.9A42.35,42.35,0,0,1,329,206.58c1.6-.74,3.77-1.68,3.47-4.38a1.38,1.38,0,0,0-.91-1.16c-5-1.68-9.92.61-14.8,1.53-15.61,2.94-28.26,11.36-37.93,23.44-6.84,8.53-12.38,18.08-20.28,25.86-3.69,3.62-7.33,7.34-10.86,11.13-1.07,1.15-2.14,2.39-3.37,3.62a1.38,1.38,0,0,1-2-1.87c3.67-4.21,7.44-7.77,11.19-11.36,16.41-15.73,28.41-33.49,26.18-57.68-.43-4.73-1.62-9.36-1.41-14.21.11-2.47-1.48-3-3.55-2.83a1.38,1.38,0,0,0-1.21,1.39c0,14.73-7.68,24.89-18.53,33.68-9.2,7.46-19.43,13.31-25.87,24.56-9.59,16.76-18,33.54-19.74,53-2.18,24.17-1.18,48.45-2.08,72.68-.17,4.58.61,9.18.84,13.79.21,4.4.76,8.83-.26,13.77a11,11,0,0,1-1.26-1.94c-6.34-19.22-8.24-38.68-3.75-58.65,2.16-9.62,3.31-19.42,1.71-29.3a82.91,82.91,0,0,0-21.63-44c-2.06-2.22-3.49-5.6-7.26-3.91a1.43,1.43,0,0,0-.84,1.28c0,2.65,1.88,4.44,3.37,6.47,8,10.86,12.79,22.73,10.68,36.5a254.35,254.35,0,0,1-6.22,28.18c-3.42,12.56-6.86,25.08-7.24,38.29-.77,27.07,7.51,50.19,27.36,69.24,6.7,6.43,14.46,11,21.84,16.23,13.41,9.57,28.46,15.93,43.26,22.8,13.76,6.4,27.82,11.92,42.78,15a24.37,24.37,0,0,1-8.48-.12c-11.44-1.69-21.8-6.52-32.42-10.69-20.25-8-40.29-8.88-59.61,2.93-3.06,1.87-6,3.89-6,7.86a1.33,1.33,0,0,0,.7,1.13c1.86,1.07,3.46.37,5.2-.27,13.95-5.19,27.17-2.36,40.05,3.87,11,5.32,21,12.49,32.37,17.11,17.24,7,33.76,3.77,49.07-4.84,16-9,31-19.94,48.54-25.83,5.9-2,11.25-5.63,18.17-7a1.39,1.39,0,0,1,1.53,1.93c-4.3,9.79-9.49,18.07-16.87,25-16.75,15.68-37.32,17.3-58.58,16.11a1.4,1.4,0,0,0-1.34.79,4,4,0,0,0,.18,3.67,1.42,1.42,0,0,0,1.05.76c5.67.83,10.87,3.17,16.2,5.08,18.86,6.79,37.63,6.63,56.29-.65,4.06-1.59,8.39-3.14,11.76-5.78a96.45,96.45,0,0,0,23-25.12c1.15-1.85,2-4.27,4.2-5.29a1.39,1.39,0,0,1,1.46.22c4.62,3.79,12.67,6.46,19.53,6.93,13.76.94,25.83-4.32,37.66-10.17,8.65-4.28,17.24-8.78,26.58-11.11,17.27-4.3,31.36-.14,40.06,12,8.37,11.68,10.94,25.6,10.07,41.06a1.38,1.38,0,0,1-2.53.68c-5.38-8-12.8-12.71-19.66-17.94-6.52-5-10.8-10.72-9-19.39.45-2.14,1.13-4.24,1.73-6.35.46-1.6.88-3.27-1-4.18-1.7-.81-3,0-4.18,1.35-8.57,9.39-8.85,29.81,0,39.08,6.81,7.09,10.65,15.59,12.65,24.82,2.29,10.63,1.42,20.76-8.18,28.6a1.38,1.38,0,0,1-2-.25c-7.15-9-16.88-10.33-27.15-7.14-8.16,2.53-22.24,6.55-29.62,8.64q-4.9,1.38-9.64,3.24c-25.09,9.84-50.3,19.42-75.44,29.14-22.42,8.68-44.81,17.44-67.24,26.09-11.93,4.59-23.92,9-36,13.58a1.4,1.4,0,0,1-1.71-.64c-2.53-4.45-6.16-7.32-9-10.76a1.28,1.28,0,0,0-1-.51,4.81,4.81,0,0,0-4.48,2.83c-2.81,5.29-6.6,10.15-7.59,16.26a8.35,8.35,0,0,1-3.22,5.55c-4.59,3.57-9.11,7.24-13.84,10.62-12.56,9-25.77,17-37.65,26.91-1.53,1.27-4.06,2.31-3,5.32a1.38,1.38,0,0,0,1.14.92,26.92,26.92,0,0,0,5.44.5c18.21-1.2,36.42-2.32,54.6-3.9,7.06-.61,13.81-1.55,20,3.17,2,1.52,4.83,1.89,7.19,3,4.18,1.94,6.44.18,7.63-3.75.83-2.76,1.57-5.54,2.21-7.86a1.37,1.37,0,0,1,.81-.91c67.71-27.86,135.93-52.82,203.33-79.51a1.38,1.38,0,0,1,1.83.87c4,13.17.94,24-10.37,32.41-1,.71-2,1.35-3,2-5.84,3.87-12.05,7.3-17.46,11.69-11.82,9.6-20.91,20.94-25.05,36.32-2.2,8.16-1.42,15.6.13,23.26.43,2.17,1.11,6.15,5,5.66s2.42-3.92,2.52-6.29c.37-8.46,2.92-15.75,10.61-20.37a63.24,63.24,0,0,1,11.7-5.76c6.69-2.32,13.8-4,19.58-8.09,15.45-11,20-27.1,19.19-45.06-.43-10-2.66-19.69-5.74-29.66a1.38,1.38,0,0,1,.87-1.71C536.12,605.79,545.82,600.33,544.41,585.88Z"/><path d="M544.32,585c1.95,15.65-8.68,21.1-21.1,25.21,3.28,10.41,5.69,20.55,6.14,30.94.78,18-3.74,34.05-19.19,45.06-5.78,4.11-12.89,5.77-19.58,8.09a63.24,63.24,0,0,0-11.7,5.76c-7.69,4.62-10.24,11.91-10.61,20.37-.1,2.37,1.45,5.79-2.52,6.29s-4.53-3.49-5-5.66c-1.55-7.66-2.33-15.1-.13-23.26,4.14-15.38,13.23-26.72,25.05-36.32,5.41-4.39,11.62-7.82,17.46-11.69,1-.66,2-1.3,3-2,11.71-8.66,14.55-20,9.92-33.83-68.06,27-137,52.17-205.34,80.32-.68,2.44-1.48,5.49-2.39,8.51-1.19,3.93-3.45,5.69-7.63,3.75-2.36-1.1-5.2-1.47-7.19-3-6.21-4.72-13-3.78-20-3.17-18.18,1.58-36.39,2.7-54.6,3.9a37.54,37.54,0,0,1-6.24-.59c-1.8-3.66,1-4.77,2.7-6.15,11.88-9.9,25.09-17.95,37.65-26.91,4.73-3.38,9.25-7,13.84-10.62a8.35,8.35,0,0,0,3.22-5.55c1-6.11,4.78-11,7.59-16.26a4.82,4.82,0,0,1,5.09-2.79c3.06,3.92,7.28,7,9.91,12.3,12.5-4.71,24.87-9.27,37.17-14,22.43-8.65,44.82-17.41,67.24-26.09,25.45-9.84,51-19.53,76.37-29.5a81.7,81.7,0,0,1,7.78-2.62c7.07-2,22-6.26,30.55-8.9,10.68-3.31,20.78-1.7,28,8.25,10.63-8,11.66-18.44,9.28-29.46-2-9.23-5.84-17.73-12.65-24.82-8.88-9.27-8.6-29.69,0-39.08,1.2-1.32,2.48-2.16,4.18-1.35,1.9.91,1.48,2.58,1,4.18-.6,2.11-1.28,4.21-1.73,6.35-1.81,8.67,2.47,14.42,9,19.39,7.85,6,16.45,11.26,21.85,21.66,1.64-17.23-.57-32.68-9.73-45.46-8.7-12.14-22.79-16.3-40.06-12-9.34,2.33-17.93,6.83-26.58,11.11-11.83,5.85-23.9,11.11-37.66,10.17-7.16-.49-15.64-3.39-20.13-7.45-2.9.73-3.78,3.52-5.06,5.59a96.45,96.45,0,0,1-23,25.12c-3.37,2.64-7.7,4.19-11.76,5.78-18.66,7.28-37.43,7.44-56.29.65-5.54-2-10.94-4.44-16.87-5.17-1.07-1.7-1.35-3.34-.07-5.18,21.56,1.28,42.46-.17,59.43-16.06,8-7.45,13.37-16.49,17.86-27.3-8.19.89-14.09,5.2-20.69,7.41-17.55,5.89-32.54,16.83-48.54,25.83-15.31,8.61-31.83,11.86-49.07,4.84-11.37-4.62-21.38-11.79-32.37-17.11-12.88-6.23-26.1-9.06-40.05-3.87-1.94.72-3.72,1.5-5.86-.17-.44-4.44,2.71-6.58,5.94-8.55,19.32-11.81,39.36-10.9,59.61-2.93,10.62,4.17,21,9,32.42,10.69a24.37,24.37,0,0,0,8.48.12c-15-3.09-29-8.61-42.78-15-14.8-6.87-29.85-13.23-43.26-22.8-7.38-5.27-15.14-9.8-21.84-16.23-19.85-19.05-28.13-42.17-27.36-69.24.38-13.21,3.82-25.73,7.24-38.29A254.35,254.35,0,0,0,188.87,298c2.11-13.77-2.7-25.64-10.68-36.5-1.66-2.25-3.8-4.2-3.29-7.36,4.35-2.52,5.83,1.16,8,3.52a82.91,82.91,0,0,1,21.63,44c1.6,9.88.45,19.68-1.71,29.3-4.49,20-2.59,39.43,3.75,58.65a11,11,0,0,0,1.26,1.94c1-4.94.47-9.37.26-13.77-.23-4.61-1-9.21-.84-13.79.9-24.23-.1-48.51,2.08-72.68,1.75-19.45,10.15-36.23,19.74-53,6.44-11.25,16.67-17.1,25.87-24.56,11.14-9,18.94-19.5,18.52-34.88,2.63-.54,4.9-.3,4.77,2.64-.21,4.85,1,9.48,1.41,14.21,2.23,24.19-9.77,41.95-26.18,57.68-5.62,5.39-11.31,10.7-16.59,18.26,5.34-2.13,8.08-5.73,10.81-8.65,3.53-3.79,7.17-7.51,10.86-11.13,7.9-7.78,13.44-17.33,20.28-25.86,9.67-12.08,22.32-20.5,37.93-23.44,5.11-1,10.24-3.43,15.54-1.25.92,3.38-1.54,4.45-3.3,5.26A42.35,42.35,0,0,0,310.37,223c-5,8.16-11.79,14.6-18.85,21.43,17.23-1.23,35.22,4.46,51.22-6.07.34-4.39-2.44-6.85-3.83-9.86-3.27-7.08-5-14.09.79-20.75,2.47-2.85-.07-4.09-1.46-5.94-7.78-10.3-14.55-21-14-34.73.25-6.49,2.23-12.58,4-18.77,2.58-9.12,5.06-18.27-1-27.21-2.21-3.24-6.86-4.19-7.88-8.79,3.27-2,5.89-1.5,8.54,1.13,5.52,5.49,11.26,10.77,16.85,16.2,14.15,13.74,14.26,30,8.4,47.32-1.8,5.31-3.89,10.52-5.68,15.83-.82,2.42-1.86,4.92-.45,8.17,7.37-2.33,14.61-4.89,22-6.86,4.36-1.16,5.93-3.47,7.38-7.79,4.23-12.59,10.07-24.5,20.42-33.46,2.92-2.52,3.36-4.8.75-7.84-2.43-2.83-2.28-6.74-3.5-10.1-6.63-18.27-13.17-36.58-19.76-54.87-.54-1.49-1.47-2.88-.68-5,3.94-2.18,5.82.85,8,3.45Q402.22,103.26,423,127.9c.51.61,1,1.24,1.67,2.06,11.73-6.48,24.36-9.4,37.14-11.59,3.77-.65,4.35-3.06,5.06-5.72,3.1-11.62,6.11-23.25,9.13-34.88.61-2.34,1.12-4.7,3.79-5.71,3.37,1.24,4.25,4.07,5,7,2.83,11.89,5.74,23.76,8.47,35.68.64,2.8,1.65,4.64,4.77,5.28a76.09,76.09,0,0,1,27.7,12c13.72-10.56,27.45-20.93,40.93-31.61,6.39-5.07,13.42-9.37,19-15.49a4.45,4.45,0,0,1,6.19-.77c1.21,3.81-1.55,6.76-3.23,9.51q-18.78,30.79-36.17,62.43L564.72,178c7-3,14.14-5.77,21.31-8.61,6.68-2.65,13.57-4.92,20.38-7.35,1.62-.58,3.84-.17,4.32,2.13s-.17,4-2.33,5.58c-11.54,8.66-22.87,17.59-34.28,26.42-.63.49-1.3.93-1.83,1.3,2,12.34,4.61,24.13,3.32,36.26-.25,2.31,1.16,3.19,2.92,4.47,16.83,12.16,33.52,24.53,50.23,36.86,2,1.44,3,3.43,1.81,5.68A4.22,4.22,0,0,1,625,283c-17.48-6.06-36-7.09-53.9-11.05-4.24-.93-7.2-.48-9.46,3.61a44.09,44.09,0,0,1-15.21,16.39c-1.88,1.18-1.49,2.55-1.39,4.08,1.84,28.22,4.05,56.41,6.82,84.55.54,5.54,2,11,.81,16.74-3.66,1.08-5-1-6.5-3.66q-19.56-35.56-39.33-71c-1-1.73-2-3.44-3.17-5.49-6.14,1.3-12.16,2.61-18.19,3.85-2.78.57-3.81,2.81-4.56,5-5.12,15.22-12.54,29.44-18.86,44.14-3.7,8.57-7.49,17.1-11.53,26.31a99.12,99.12,0,0,1,29.62,1c20.61,3.86,36.13,15.42,49.21,31,6.32,7.55,10.72,16.33,15.9,24.62,4.49,7.2,11.87,12.12,16,19.84,1.57-3.88-.81-6.7-1.72-9.55-2.87-8.95-4.2-18.28-7.25-27.21a19.64,19.64,0,0,1,.9-15.15c1.5-3,2.14-6.47,2.75-9.81,1.72-9.51,7.1-17.34,11.29-25.73,1.52-3,3.54-1.58,5.47-1.89,1.18,2.73-.43,4.55-1.16,6.5-5.53,14.74-5.72,28.83,3.88,42.31a104.79,104.79,0,0,1,10.17,17c6.87,15,4.8,30.19.79,45.28-2.46,9.26-5.78,18.3-8.67,27.46a9.27,9.27,0,0,0-.71,3.5c.93,9.79-2.74,18.43-6.88,27.54,3.08,0,3.8-2.21,4.8-4,7.3-12.88,11.47-26.79,14.14-41.3,1.82-9.85,5.12-19.33,11-27.63,4-5.66,9.67-9.38,15.77-12.46,1.82-.92,3.81-1.92,5.26.49s.38,4.13-1.55,5.71a35.43,35.43,0,0,0-7.3,8.74c-4.62,7.33-5.41,15.39-4.24,23.75.72,5.16,1.69,10.28,2.41,15.43,2.78,20.2-5.75,34.86-22.25,45.76a99.7,99.7,0,0,1-36.43,14.79A18.25,18.25,0,0,0,544.32,585Zm-5.78-416.21c-2.34,1.7-5.15,1.87-7.85,2.45-4.11.88-7.94,6-8.05,10.81,2.86-1.57,5.83-2.77,8.27-4.64,3-2.31,7.26-3.73,7.56-8.51l.24-.1ZM307.35,212.53c-2.16-.83-4,.15-5.58,1.33-8.92,6.78-18.89,12.61-23.47,25.26,12-7.51,22.19-15.2,28.94-26.68ZM545.66,467.88c.29,0,.5,1,.87.07l-.94,0c0-3.76-3.18-4.17-5.62-5.05-10.39-3.76-20.88-2.35-31.45-.66-19.7,3.16-33.13,18.66-51.13,25.21,6.19,1.67,12,.84,17.72-1.05a190.73,190.73,0,0,0,27.53-11.9C516.33,467.49,530.51,464.85,545.66,467.88Zm-104-151.09c-7.54-3.86-15.33-7.51-22.75-11.81-2.68-1.55-4.69-1.68-6.94-.13-5.43,3.72-10.41,8.22-15.9,11.66-11.25,7-22.29,14.35-33.41,21.55-5.36,3.48-10.53,7.24-15.84,10.79-2,1.34-4.2,1.59-6.06-.24-2-2-.42-3.58.81-5.2,1-1.28,1.75-2.67,2.64-4q20.16-29.94,40.29-59.89c1.15-1.71,3.17-3.38,1.49-5.9A72,72,0,0,1,374.73,245c-10.09,3.71-19.88,9.29-28.2-1.44-13.93,7.47-15.17,7.73-32.56,7.5-12.92-.17-25.9-.77-39.3,4.51,11.69.6,22.19,2,32.4,5.07,6.14,1.88,12.23,3.72,18.8,3.63,9.83-.15,18.84-3.1,27.41-7.46,3.42,2.05,3.79,4.44,1,6.87-7.47,6.63-15.08,13.55-24,17.77-15.2,7.23-31.48,9-48,3.63-7.83-2.56-15.68-5.18-24.05-4.94-12.87.37-23.72,4.17-30.64,16.34A107.78,107.78,0,0,0,214.32,336c-2.81,21.45-1.49,42.77,2.11,64.07,2.58,15.22,8.35,28.7,18.88,40,.8.87,1.56,2.41,3,1.83a1.82,1.82,0,0,0,.49-2.82c-3.59-5.92-4.27-12.67-5.39-19.26-2.55-15,1.62-29.47,4-44,2-12.55-.25-23.7-8.63-33.59-2.08-2.45-4.58-6.06.42-8.91,18.91,13,30.48,30.17,31.14,53.53.27,9.81-.39,19.65-.09,29.46.39,12.75,2.65,25.2,9.48,36.26,5.74,9.29,12.53,18.47,23.09,21.93,19.13,6.26,38.9,9.65,59.23,6.47,7.1-1.11,14.1-2.48,20.57-6.26-11.46-.41-20.48-6.28-29.59-12.12-7-4.49-14.54-7.78-23.07-7.47-5.8.21-11.58,1.11-17.38,1.4a41.68,41.68,0,0,0-17.44,4.42c-2.11-3.58-1.61-5.68,1.32-7.21,7.64-4,15.08-8.41,22.93-11.91A87.65,87.65,0,0,1,340.06,434c16.2-.94,30.55,4.92,44.95,11.33,12.38,5.51,25.21,8.19,39.19,5.76,15.09-2.61,29.1-8.7,44.46-11.8-17.37-1.92-34.9-1.95-49.6-11.81-14-9.4-26.32-20.76-32.52-37.25,4.17-2.36,5.85-.31,7.84,1.48C411.3,407,421,408.79,438.29,399.88,439.38,372.57,440.48,345.11,441.61,316.79Zm112.14-41.42c25.74-30.15,19-80.84-5.53-111.8-3.84,6.54-6.32,13.89-13,18.61C552.42,211.41,560.12,242,553.75,275.37ZM522.48,432.46c2.47-1.82.85-2.84-.2-4-19-21.85-43.1-29.27-71.25-25.65-2.57.34-3.63,1.81-4.84,3.83-1.3,2.18-1.62,5.68-5.28,5.53-1.91-1-.69-3.8-3.26-4.48-6.25,2-12.76,4.43-19.93,3.92.2.82.17,1.38.39,1.51,15.26,8.84,31.64,12.21,49.06,9.23,9.34-1.6,18.53-2.73,28-.77C505,423.58,514,427.69,522.48,432.46Zm-72.57,25.72c-4.49.47-7,2.42-9.69,4.06A119.78,119.78,0,0,0,408.85,490c-12.27,15.64-28.17,24.47-47.08,28.82-2.16.49-4.42.87-6.08,3.16,6.37,1.54,12.4,1.19,18.37,1.17,14.95,0,28.26-4.21,38.74-15.58,7.08-7.67,13.83-15.42,18.21-25.13C435.13,473.3,442.7,466.48,449.91,458.18Zm50.7-305.56c6-6.44,12.8-10.87,18.87-16.47-12-10.37-25.92-13-40.63-13-20.1,0-38,3.26-41.8,7.75C460.21,132.32,483.3,133.64,500.61,152.62Zm42.32,182.09c-1-19.64-2.7-38.47-4.57-57.1-8.93-3-18.77-2-26,2.62,5,15.3,10.63,30.47,18.64,44.58C533.36,329.05,536.51,333.51,542.93,334.71ZM503.33,155.5c2.46,9.68,5.65,17.93,11.5,25.12,10.91-11.56,18.8-24.51,26.21-37.74,2.92-5.2,4.64-10.95,2.74-18.55ZM510.45,447c-15.86-12.42-64.67,12.27-72.69,36.47,13.84-.11,25.73-5.08,35.79-14.49C484.21,459,496.22,451.29,510.45,447ZM193.68,310.27c-5.93,18.7-12,37.26-12.33,57.23-.49,26.34,8.76,48,28.62,65.2.83.73,1.59,2,3.51.34-4.53-6.43-6.87-14.15-11-20.83-8.41-13.64-10.78-28.75-11.92-44.18-1-14,1.56-27.93,2.8-41.88C193.83,320.92,195.77,315.7,193.68,310.27ZM214.3,295l1.48.27c.39-.4.92-.74,1.13-1.23a36.23,36.23,0,0,0,1.66-4.5c4.58-16.26,12-30.86,24.25-42.83,7.73-7.54,15.32-15.21,21.41-24.27a45,45,0,0,0,6.75-16.1c-7.41,7-14.82,12.43-21.72,18.28-16.37,13.91-26.74,32.19-32.14,53.05C215.66,283.32,215.21,289.23,214.3,295Zm44.62,150.9a2.06,2.06,0,0,0,.4-2.45c-5-17-5.15-34.32-4.07-51.81.82-13.51-3.52-25.57-11.52-36.43a49.76,49.76,0,0,1,3.16,26c-.81,5.75-1.86,11.47-2.53,17.23C242.28,416.34,246.87,432.23,258.92,445.91ZM504.53,607.3c-.51-5.76-2.22-10-3.33-14.47-1.28-5.06-4.57-7.4-9.35-7.89a52.06,52.06,0,0,0-9.59-.07c-18.83,1.51-35.82,9.17-53.26,15.79,1.12,1.5,1.86,1.65,3.62,1.36,8.16-1.35,15.9-4.46,24.25-5C473.37,595.89,489.82,594.43,504.53,607.3ZM320,444.72c14.37.51,26.34,4.43,38.13,9.57,13.85,6,29.66,6.64,40.85,2.46-4.7-1.7-9.14-3.41-13.65-4.91-9.48-3.14-18.14-8.42-28.19-10.17C344.93,439.54,333,439.22,320,444.72ZM467.81,695.88a90,90,0,0,1,20.19-13c7.66-3.51,13.72-9,19.44-14.92,5.19-5.4,8.61-11.53,7.93-19.27C496.67,661.71,475.22,671.78,467.81,695.88ZM423.53,268c-8.41,8.31-16.68,16.6-23.95,25.87-3.68,4.69-4.08,9.5-2.62,15.22,9.75-6.26,19.13-12.23,28.43-18.29,1.6-1,3.75-1.81,3.8-4.28C429.35,279.89,429.53,273.23,423.53,268Zm-166,5.65c8.59,1.08,17,2.49,25,5.48,16.34,6.09,31.84,2.83,47.09-3.84.91-.4,2.49-.66,1.59-2.84-14.38,2.65-28.45-.62-42.66-2.93C278,267.83,267.56,268.82,257.54,273.67Zm61.78,229.74c-8.52,1.44-16.34-1.81-24.35-3.18a43.37,43.37,0,0,1-20.66-9c-6.71-5.51-13.84-10.4-22.65-11.87-6.08-1-12.21-1.44-18.25.53,11.08,3,21.09,8.09,30.91,13.48,7.55,4.15,14.9,8.63,23,11.68C298.31,509.16,308.9,507.54,319.32,503.41Zm264-21.7a48.06,48.06,0,0,0-6.82-37.53c-5.24-8.19-10.58-16.28-14.35-25.32C561.42,442,570.83,461.66,583.29,481.71Zm18.36,15.93c-7.67,19.82-4.8,41.93-14.6,61.24,10.45-4.42,15.93-12.43,17.65-23.06C606.78,522.93,601.73,510.51,601.65,497.64ZM478.34,322.14c-5.48,0-10.13-1.64-15.39-.44-1.6,14.94-8.54,29.08-6,44.42l1.71.5ZM336.34,137c-3,16.29-10.45,32.37-2.07,49.5C341.91,170,347.49,153.82,336.34,137Zm49.78,98.1c-1.36-3.68-3.58-3-5.73-2.36-3.47,1-6.9,2.1-10.41,2.88-12.13,2.72-16.48.16-20.28-11.44-1.05-3.22-.15-6.29.27-9.43-1.71-1.45-2.82-3.44-5-4.06-3.66,2.68-3.26,6.37-2.54,9.93,1.36,6.77,5.64,12.29,8.42,18.45,1.41,3.13,5,4.78,8.68,4.33C368.9,242.27,377.18,237.83,386.12,235.12Zm122.07,80.45c5.55-11.12,7.22-22.16-1.17-32.79-4.84,2.72-7.72,7.16-10.28,11.75ZM285.47,649.94c2.43,16.55,7.48,32,17.55,45.38C302.3,678.15,297,662.8,285.47,649.94ZM500.79,578.5c1.53,2.08,2.83.93,4.1.63,4.27-1,8.3-2.86,12.77-3.27,6.67-.6,13.53,3.1,15.54,8.74,1.67,4.69-.93,9.79-6.75,14-1.75,1.29-4.69,1.47-5.15,4.8,3.1.86,5-1.5,7.22-2.35,10-3.84,12.56-12.81,6.34-21.67C528,569.59,511.23,569.09,500.79,578.5ZM391,279.2c4.79-1,8.82-4.07,13.59-4.4,7.37-.5,10.93-5.52,15-11.05a57.24,57.24,0,0,0-6.3-3c-6.9-2.29-8.9-1.63-13,4.38C397,269.76,394,274.51,391,279.2ZM575.31,241c-.72,2.76-.84,4.91-1.8,6.57-2,3.42-1.23,4.75,2.6,5.77,3.62,1,7,3,10.4,4.62,4.45,2.13,9,3.87,15.77,3.55C592.61,254.13,584.16,247.69,575.31,241ZM421,156.62c9-11.7,8.93-16.24-4.83-29.2.15,1.88-.79,3.36.43,5.09,2.62,3.7,2.57,8.15,1.51,12.12C416.9,149.22,418,152.73,421,156.62Zm83.42,428.53c1.88,4.59,2.5,9,5.14,12.75,2.14-.13,4.84.65,5.58-2.13,1.38-5.21,4.56-9.08,9.28-12.82C517,580.27,511.31,583.33,504.43,585.15Zm-103-448.63c.13,7.69,4.89,14.17,5.12,21.8a2.28,2.28,0,0,0,2.73,1.8c2.58-.74,5.61.92,8.08-1.58C412.84,150.72,409.53,142.09,401.47,136.52Zm57.38,183.74-11.94-2.38c-.86,8.45-1.46,16.33-.49,24.39C449.48,334.46,455.59,328.41,458.85,320.26ZM372.4,228.92c-1.2-5.63-1.34-11.52-1.36-17.68-4.16.27-7.7.73-11,3.22,3.72,5.13,6.23,10.2,2.3,17C366.24,230.54,369.18,230.69,372.4,228.92ZM556.21,558.84c6.61-15,1.6-32.49-8.88-32.41C553.76,536.31,556.34,547.18,556.21,558.84ZM269.45,674.27c-3.79,5.09-8.74,8-11.64,13.67,6,.31,11.29,1.79,17.08,1.18ZM385.16,243.38c5.35.34,8.13-1.79,9.42-5.84s-1-11.51-4.14-13.76c-2.87-2-5.45-1.33-8.81,1.55,6.25.17,9.11,3.44,10.46,8.11C393.64,238.76,389,240.51,385.16,243.38Zm-33.32-37.82c.28,2.13,1.78,3.08,3.67,4.17,5.12-3.63,12.72-3.08,16.76-9A58.23,58.23,0,0,0,351.84,205.56Zm118.69-88.79c2.51.35,4.33,1.15,6.36-.35A71.28,71.28,0,0,0,476,97Z"/><path class="a" d="M441.61,316.79c-1.13,28.32-2.23,55.78-3.32,83.09-17.26,8.91-27,7.1-43.91-8.14-2-1.79-3.67-3.84-7.84-1.48,6.2,16.49,18.51,27.85,32.52,37.25,14.7,9.86,32.23,9.89,49.6,11.81-15.36,3.1-29.37,9.19-44.46,11.8-14,2.43-26.81-.25-39.19-5.76-14.4-6.41-28.75-12.27-44.95-11.33a87.65,87.65,0,0,0-30.68,7.79c-7.85,3.5-15.29,7.93-22.93,11.91-2.93,1.53-3.43,3.63-1.32,7.21a41.68,41.68,0,0,1,17.44-4.42c5.8-.29,11.58-1.19,17.38-1.4,8.53-.31,16.09,3,23.07,7.47,9.11,5.84,18.13,11.71,29.59,12.12-6.47,3.78-13.47,5.15-20.57,6.26-20.33,3.18-40.1-.21-59.23-6.47-10.56-3.46-17.35-12.64-23.09-21.93-6.83-11.06-9.09-23.51-9.48-36.26-.3-9.81.36-19.65.09-29.46-.66-23.36-12.23-40.51-31.14-53.53-5,2.85-2.5,6.46-.42,8.91,8.38,9.89,10.65,21,8.63,33.59-2.34,14.57-6.51,29-4,44,1.12,6.59,1.8,13.34,5.39,19.26a1.82,1.82,0,0,1-.49,2.82c-1.47.58-2.23-1-3-1.83-10.53-11.33-16.3-24.81-18.88-40-3.6-21.3-4.92-42.62-2.11-64.07a107.78,107.78,0,0,1,13.37-39.51c6.92-12.17,17.77-16,30.64-16.34,8.37-.24,16.22,2.38,24.05,4.94,16.5,5.39,32.78,3.6,48-3.63,8.88-4.22,16.49-11.14,24-17.77,2.75-2.43,2.38-4.82-1-6.87-8.57,4.36-17.58,7.31-27.41,7.46-6.57.09-12.66-1.75-18.8-3.63-10.21-3.12-20.71-4.47-32.4-5.07,13.4-5.28,26.38-4.68,39.3-4.51,17.39.23,18.63,0,32.56-7.5,8.32,10.73,18.11,5.15,28.2,1.44a72,72,0,0,0,11.21,28.6c1.68,2.52-.34,4.19-1.49,5.9q-20.08,30-40.29,59.89c-.89,1.33-1.68,2.72-2.64,4-1.23,1.62-2.85,3.19-.81,5.2,1.86,1.83,4.06,1.58,6.06.24,5.31-3.55,10.48-7.31,15.84-10.79,11.12-7.2,22.16-14.53,33.41-21.55,5.49-3.44,10.47-7.94,15.9-11.66,2.25-1.55,4.26-1.42,6.94.13C426.28,309.28,434.07,312.93,441.61,316.79Z"/><path class="a" d="M553.75,275.37c6.37-33.35-1.33-64-18.52-93.19,6.67-4.72,9.15-12.07,13-18.61C572.77,194.53,579.49,245.22,553.75,275.37Z"/><path class="a" d="M522.48,432.46c-8.52-4.77-17.46-8.88-27.31-10.92-9.47-2-18.66-.83-28,.77-17.42,3-33.8-.39-49.06-9.23-.22-.13-.19-.69-.39-1.51,7.17.51,13.68-1.88,19.93-3.92,2.57.68,1.35,3.47,3.26,4.48,3.66.15,4-3.35,5.28-5.53,1.21-2,2.27-3.49,4.84-3.83,28.15-3.62,52.28,3.8,71.25,25.65C523.33,429.62,525,430.64,522.48,432.46Z"/><path class="a" d="M449.91,458.18c-7.21,8.3-14.78,15.12-18.9,24.26-4.38,9.71-11.13,17.46-18.21,25.13-10.48,11.37-23.79,15.55-38.74,15.58-6,0-12,.37-18.37-1.17,1.66-2.29,3.92-2.67,6.08-3.16,18.91-4.35,34.81-13.18,47.08-28.82a119.78,119.78,0,0,1,31.37-27.76C442.87,460.6,445.42,458.65,449.91,458.18Z"/><path class="a" d="M500.61,152.62c-17.31-19-40.4-20.3-63.56-21.7,3.83-4.49,21.7-7.78,41.8-7.75,14.71,0,28.65,2.61,40.63,13C513.41,141.75,506.6,146.18,500.61,152.62Z"/><path class="a" d="M542.93,334.71c-6.42-1.2-9.57-5.66-12-9.9-8-14.11-13.64-29.28-18.64-44.58,7.27-4.64,17.11-5.63,26-2.62C540.23,296.24,542,315.07,542.93,334.71Z"/><path class="a" d="M503.33,155.5l40.45-31.17c1.9,7.6.18,13.35-2.74,18.55-7.41,13.23-15.3,26.18-26.21,37.74C509,173.43,505.79,165.18,503.33,155.5Z"/><path class="a" d="M510.45,447c-14.23,4.27-26.24,12-36.9,22-10.06,9.41-21.95,14.38-35.79,14.49C445.78,459.29,494.59,434.6,510.45,447Z"/><path class="a" d="M193.68,310.27c2.09,5.43.15,10.65-.31,15.88-1.24,14-3.84,27.83-2.8,41.88,1.14,15.43,3.51,30.54,11.92,44.18,4.12,6.68,6.46,14.4,11,20.83-1.92,1.65-2.68.39-3.51-.34-19.86-17.2-29.11-38.86-28.62-65.2C181.72,347.53,187.75,329,193.68,310.27Z"/><path class="a" d="M214.3,295c.91-5.78,1.36-11.69,2.82-17.33,5.4-20.86,15.77-39.14,32.14-53.05,6.9-5.85,14.31-11.25,21.72-18.28a45,45,0,0,1-6.75,16.1c-6.09,9.06-13.68,16.73-21.41,24.27-12.26,12-19.67,26.57-24.25,42.83a36.23,36.23,0,0,1-1.66,4.5c-.21.49-.74.83-1.13,1.23Z"/><path class="a" d="M258.92,445.91c-12.05-13.68-16.64-29.57-14.56-47.49.67-5.76,1.72-11.48,2.53-17.23a49.76,49.76,0,0,0-3.16-26c8,10.86,12.34,22.92,11.52,36.43-1.08,17.49-.94,34.83,4.07,51.81A2.06,2.06,0,0,1,258.92,445.91Z"/><path class="a" d="M545.66,467.88c-15.15-3-29.33-.39-43,6.66a190.73,190.73,0,0,1-27.53,11.9c-5.73,1.89-11.53,2.72-17.72,1.05,18-6.55,31.43-22.05,51.13-25.21,10.57-1.69,21.06-3.1,31.45.66,2.44.88,5.62,1.29,5.62,5.05Z"/><path class="a" d="M504.53,607.3c-14.71-12.87-31.16-11.41-47.66-10.3-8.35.56-16.09,3.67-24.25,5-1.76.29-2.5.14-3.62-1.36,17.44-6.62,34.43-14.28,53.26-15.79a52.06,52.06,0,0,1,9.59.07c4.78.49,8.07,2.83,9.35,7.89C502.31,597.26,504,601.54,504.53,607.3Z"/><path class="a" d="M320,444.72c13-5.5,24.95-5.18,37.14-3.05,10.05,1.75,18.71,7,28.19,10.17,4.51,1.5,8.95,3.21,13.65,4.91-11.19,4.18-27,3.58-40.85-2.46C346.32,449.15,334.35,445.23,320,444.72Z"/><path class="a" d="M467.81,695.88c7.41-24.1,28.86-34.17,47.56-47.15.68,7.74-2.74,13.87-7.93,19.27-5.72,5.94-11.78,11.41-19.44,14.92A90,90,0,0,0,467.81,695.88Z"/><path class="a" d="M423.53,268c6,5.21,5.82,11.87,5.66,18.52-.05,2.47-2.2,3.24-3.8,4.28-9.3,6.06-18.68,12-28.43,18.29-1.46-5.72-1.06-10.53,2.62-15.22C406.85,284.62,415.12,276.33,423.53,268Z"/><path class="a" d="M257.54,273.67c10-4.85,20.5-5.84,31-4.13,14.21,2.31,28.28,5.58,42.66,2.93.9,2.18-.68,2.44-1.59,2.84-15.25,6.67-30.75,9.93-47.09,3.84C274.54,276.16,266.13,274.75,257.54,273.67Z"/><path class="a" d="M319.32,503.41c-10.42,4.13-21,5.75-32,1.63-8.12-3.05-15.47-7.53-23-11.68-9.82-5.39-19.83-10.45-30.91-13.48,6-2,12.17-1.54,18.25-.53,8.81,1.47,15.94,6.36,22.65,11.87a43.37,43.37,0,0,0,20.66,9C303,501.6,310.8,504.85,319.32,503.41Z"/><path class="a" d="M583.29,481.71c-12.46-20-21.87-39.76-21.17-62.85,3.77,9,9.11,17.13,14.35,25.32A48.06,48.06,0,0,1,583.29,481.71Z"/><path class="a" d="M601.65,497.64c.08,12.87,5.13,25.29,3.05,38.18-1.72,10.63-7.2,18.64-17.65,23.06C596.85,539.57,594,517.46,601.65,497.64Z"/><path class="a" d="M478.34,322.14l-19.67,44.48-1.71-.5c-2.55-15.34,4.39-29.48,6-44.42C468.21,320.5,472.86,322.1,478.34,322.14Z"/><path class="a" d="M336.34,137c11.15,16.8,5.57,32.94-2.07,49.5C325.89,169.39,333.33,153.31,336.34,137Z"/><path class="a" d="M386.12,235.12c-8.94,2.71-17.22,7.15-26.59,8.3-3.7.45-7.27-1.2-8.68-4.33-2.78-6.16-7.06-11.68-8.42-18.45-.72-3.56-1.12-7.25,2.54-9.93,2.18.62,3.29,2.61,5,4.06-.42,3.14-1.32,6.21-.27,9.43,3.8,11.6,8.15,14.16,20.28,11.44,3.51-.78,6.94-1.93,10.41-2.88C382.54,232.16,384.76,231.44,386.12,235.12Z"/><path class="a" d="M508.19,315.57l-11.45-21c2.56-4.59,5.44-9,10.28-11.75C515.41,293.41,513.74,304.45,508.19,315.57Z"/><path class="a" d="M285.47,649.94C297,662.8,302.3,678.15,303,695.32,293,681.92,287.9,666.49,285.47,649.94Z"/><path class="a" d="M500.79,578.5c10.44-9.41,27.16-8.91,34.07.92,6.22,8.86,3.69,17.83-6.34,21.67-2.22.85-4.12,3.21-7.22,2.35.46-3.33,3.4-3.51,5.15-4.8,5.82-4.25,8.42-9.35,6.75-14-2-5.64-8.87-9.34-15.54-8.74-4.47.41-8.5,2.25-12.77,3.27C503.62,579.43,502.32,580.58,500.79,578.5Z"/><path class="a" d="M391,279.2c3.07-4.69,6.06-9.44,9.23-14.07,4.12-6,6.12-6.67,13-4.38a57.24,57.24,0,0,1,6.3,3c-4,5.53-7.59,10.55-15,11.05C399.79,275.13,395.76,278.24,391,279.2Z"/><path class="a" d="M575.31,241c8.85,6.72,17.3,13.16,27,20.51-6.79.32-11.32-1.42-15.77-3.55-3.43-1.65-6.78-3.65-10.4-4.62-3.83-1-4.57-2.35-2.6-5.77C574.47,245.88,574.59,243.73,575.31,241Z"/><path class="a" d="M307.24,212.44c-6.75,11.48-16.93,19.17-28.94,26.68,4.58-12.65,14.55-18.48,23.47-25.26,1.55-1.18,3.42-2.16,5.58-1.33Z"/><path class="a" d="M421,156.62c-3-3.89-4.11-7.4-2.89-12,1.06-4,1.11-8.42-1.51-12.12-1.22-1.73-.28-3.21-.43-5.09C429.94,140.38,430,144.92,421,156.62Z"/><path class="a" d="M504.43,585.15c6.88-1.82,12.6-4.88,20-2.2-4.72,3.74-7.9,7.61-9.28,12.82-.74,2.78-3.44,2-5.58,2.13C506.93,594.1,506.31,589.74,504.43,585.15Z"/><path class="a" d="M401.47,136.52c8.06,5.57,11.37,14.2,15.93,22-2.47,2.5-5.5.84-8.08,1.58a2.28,2.28,0,0,1-2.73-1.8C406.36,150.69,401.6,144.21,401.47,136.52Z"/><path class="a" d="M458.85,320.26c-3.26,8.15-9.37,14.2-12.43,22-1-8.06-.37-15.94.49-24.39Z"/><path class="a" d="M372.4,228.92c-3.22,1.77-6.16,1.62-10.07,2.53,3.93-6.79,1.42-11.86-2.3-17,3.31-2.49,6.85-3,11-3.22C371.06,217.4,371.2,223.29,372.4,228.92Z"/><path class="a" d="M556.21,558.84c.13-11.66-2.45-22.53-8.88-32.41C557.81,526.35,562.82,543.84,556.21,558.84Z"/><path class="a" d="M269.45,674.27l5.44,14.85c-5.79.61-11.06-.87-17.08-1.18C260.71,682.29,265.66,679.36,269.45,674.27Z"/><path class="a" d="M385.16,243.38c3.85-2.87,8.48-4.62,6.93-9.94-1.35-4.67-4.21-7.94-10.46-8.11,3.36-2.88,5.94-3.59,8.81-1.55,3.16,2.25,5.45,9.66,4.14,13.76S390.51,243.72,385.16,243.38Z"/><path class="a" d="M351.84,205.56a58.23,58.23,0,0,1,20.43-4.85c-4,5.94-11.64,5.39-16.76,9C353.62,208.64,352.12,207.69,351.84,205.56Z"/><path class="a" d="M538.47,168.9c-.3,4.78-4.54,6.2-7.56,8.51-2.44,1.87-5.41,3.07-8.27,4.64.11-4.79,3.94-9.93,8.05-10.81,2.7-.58,5.51-.75,7.85-2.45Z"/><path class="a" d="M470.53,116.77,476,97a71.28,71.28,0,0,1,.91,19.42C474.86,117.92,473,117.12,470.53,116.77Z"/><path class="a" d="M545.59,468l.94,0c-.37.94-.58-.08-.87-.07Z"/><polygon class="a" points="538.54 168.79 538.71 168.81 538.47 168.9 538.54 168.79"/><path class="a" d="M307.35,212.53l-.11-.09Z"/></svg>