<svg xmlns="http://www.w3.org/2000/svg" viewBox="0 0 800 800"><defs><style>.a{fill:#f4e976;}</style></defs><title>pursuit-special</title><path d="M639.44,53.28c-1.63,79.86-.72,159.43-1.19,239-.37,62.74-1,125.47-1.3,188.21q-.3,57.09-.1,114.18c.09,49.07.34,98.14.5,147.2,0,7.25-.59,7.9-7.82,7.94-53.52.27-107,.38-160.55-.27-16.41-.2-32.83.1-49.25.14-24,.07-47.92.5-71.87,0-24.19-.46-48.39-.41-72.56-.37-35.05,0-70.08-.74-105.13-.19-9.17.15-9.26,0-9.2-9.29.27-43.49.83-87,.82-130.45,0-31.67.31-63.34-.14-95-.5-34.65-.12-69.3-.24-104-.19-53.52-.53-107-.68-160.57-.13-44.1-.06-88.19-.08-132.29,0-19.84-.14-39.68-.05-59.53,0-6.39,1-7.19,6.84-7.07,36.26.79,72.53.33,108.79.29q104.61-.13,209.22-.26c45.29-.12,90.58-.62,135.87-.68C627.5,50.32,634.3,48.57,639.44,53.28ZM166.6,736.64c3.06-1.25,3.84-3.16,4.92-4.75,12.63-18.52,25.08-37.16,37.9-55.55,8.58-12.31,18.45-23.69,26.42-36.48,5.5-8.83,11.42-17.41,17.35-26,1.39-2,2.68-4.89,5.75-4.68s3.54,3,4,5.22c1.26,6.37,5.38,11.33,8,17a46.86,46.86,0,0,0,12.93,16.36c11.12,9.37,28.13,7.51,36.36-3.73,7.42-10.13,7.5-25.18.2-35.55-1.39-2-3.26-3.75-4.06-5.93-1.67-4.53-6.87-7.49-6.24-12.81,2.2-2,4.15-1.35,6.05-.68,8.06,2.86,15.58,1.68,23.19-2,8.55-4.2,15.1-11.09,23.19-15.93,15.56-9.31,29.75-20.83,46.78-27.74,11.49-4.66,22.54-10.36,34.9-12.61,8.06-1.46,14.67-6.28,21.34-10.51a11.66,11.66,0,0,0,5.26-10.53c-.48-9.8-.88-19.6-1.44-29.4-.43-7.64-.4-15.77,3.38-22.76,4.36-8.06,12.76-13.1,17.11-21.35.52-1,2.35-1.34,3.62-1.88,11.79-5,23.7-10.38,31.33-21,18.51-25.64,30.15-54.11,32-86.05.62-10.7.53-21.45,1.35-32.13.76-9.92,2.17-19.79,3.5-29.66,2.16-16,2-32.34,5.83-48.21,3.35-13.88,7.29-27.51,14.11-40.09,8.18-15.1,21.47-25.09,35.63-34.05,1.49-.95,3.32-1.31,3.62-3.53,1-7.67-4.21-11.7-11.77-9.28a52.71,52.71,0,0,1-20.17,2.09c-3.47-.26-5.26-2-4.54-6.08.78-4.36,3.2-7.75,5.4-11.27,8.9-14.28,18.48-28.11,28.38-41.72C622,68,625.39,62.25,629.65,55.67c-155.47.19-309.6.67-463.85,1.42C164.13,284.36,168,510.12,166.6,736.64Z"/><path class="a" d="M166.6,736.64c1.38-226.52-2.47-452.28-.8-679.55,154.25-.75,308.38-1.23,463.85-1.42C625.39,62.25,622,68,618.11,73.43c-9.9,13.61-19.48,27.44-28.38,41.72-2.2,3.52-4.62,6.91-5.4,11.27-.72,4.09,1.07,5.82,4.54,6.08A52.71,52.71,0,0,0,609,130.41c7.56-2.42,12.79,1.61,11.77,9.28-.3,2.22-2.13,2.58-3.62,3.53-14.16,9-27.45,18.95-35.63,34.05-6.82,12.58-10.76,26.21-14.11,40.09-3.83,15.87-3.67,32.17-5.83,48.21-1.33,9.87-2.74,19.74-3.5,29.66-.82,10.68-.73,21.43-1.35,32.13-1.84,31.94-13.48,60.41-32,86.05-7.63,10.58-19.54,16-31.33,21-1.27.54-3.1.89-3.62,1.88-4.35,8.25-12.75,13.29-17.11,21.35-3.78,7-3.81,15.12-3.38,22.76.56,9.8,1,19.6,1.44,29.4a11.66,11.66,0,0,1-5.26,10.53c-6.67,4.23-13.28,9.05-21.34,10.51-12.36,2.25-23.41,8-34.9,12.61-17,6.91-31.22,18.43-46.78,27.74-8.09,4.84-14.64,11.73-23.19,15.93-7.61,3.73-15.13,4.91-23.19,2-1.9-.67-3.85-1.31-6.05.68-.63,5.32,4.57,8.28,6.24,12.81.8,2.18,2.67,4,4.06,5.93,7.3,10.37,7.22,25.42-.2,35.55-8.23,11.24-25.24,13.1-36.36,3.73a46.86,46.86,0,0,1-12.93-16.36c-2.58-5.7-6.7-10.66-8-17-.44-2.18-1-5-4-5.22s-4.36,2.66-5.75,4.68c-5.93,8.55-11.85,17.13-17.35,26-8,12.79-17.84,24.17-26.42,36.48-12.82,18.39-25.27,37-37.9,55.55C170.44,733.48,169.66,735.39,166.6,736.64Zm296.2-492a11.46,11.46,0,0,1-1.95-1.31c-10.84-11.15-22.56-19.78-38.67-23.28-19.86-4.32-38.47-.74-56.38,5.7-18.1,6.51-33.54,18.55-47.8,31.46-12.34,11.17-22.83,24.09-30.38,39.08-6.13,12.18-10.71,25-15,37.94-3.2,9.67-5,19.41-2.52,29.51,2.12,8.63,1.4,17-1.34,25.42-3.43,10.61-7.18,21.05-6.15,32.74,1.29,14.51,11.8,24.93,26.34,24.6,2.73-.06,5.54-.71,8.74.46,3.09,11.31,4.65,22.94,3.3,34.79-1.82,15.89-6.61,31.2-9.55,46.9-2.21,11.81-2.56,22.54,3.36,33.46,9.83,18.16,29.72,26.77,49.1,16,6.86-3.81,13.09-8.51,19.59-12.83,9.82-6.53,18.78-14.32,29.35-19.78,19.12-9.86,40.24-14.63,59.69-23.7,5.69-2.65,9-6.36,10.78-11.91a30.12,30.12,0,0,0,.49-15.48,101.07,101.07,0,0,1-1.8-16.12c-.52-10.63,2.73-20.43,10.06-28A112.33,112.33,0,0,0,486,432.39a11.94,11.94,0,0,1,4.65-4.08c5.88-3.36,12.74-4.21,18.36-8.25,11.47-8.22,18.85-19.57,25.18-31.7,14-26.92,17.14-56.57,19.76-86,1.54-17.3,1.7-34.81,3.09-52.15,2.13-26.5,7.35-52.37,21.17-75.72,9.19-15.55,20.33-28.86,38.71-33.95.92-.25,1.88-.76,1.93-2-2.12-4.61-5.29-5.71-10.17-4.1a36.74,36.74,0,0,1-10.7,1.32c-10.48.19-20.3-1.91-28.59-8.93-3.17-2.68-5-6.2-4.28-10,.51-2.7.67-4.7-1.43-6.37-2.57-2-4.41.36-6.45,1.38-7,3.51-13.64,7.72-21.66,8.51-8.8.87-20.74-2.43-21.58-13.15-.21-2.66,0-5.38-3.23-6.31s-4.63,1.71-6.48,3.43-3.36,3.46-5.23,5c-7.61,6.12-16.21,8.65-25.86,6.5-4.87-1.09-9.22-3.38-10.09-8.84-.33-2.07.29-4-2.52-4.42-2.25-.3-3.55.73-4.8,2.69-3.83,6-5.49,12.74-7.57,19.46a142.8,142.8,0,0,0-3.13,74.72c1.83,8.18,3.44,16.57,7.94,23.8,4.14,6.66,7.29,13.76,10.45,20.88C463.25,244.24,463,244.45,462.8,244.66Zm-195.64,211c-2.6-1.19-4.25-.74-6.16,1.11A119.74,119.74,0,0,0,243,478c-8.66,13.45-15.62,27.35-18,43.35-1.89,12.53.65,23.9,8,34.14,6.52,9.12,17.74,10.85,27,4.6,8.75-5.87,10.81-14.38,9.94-24.13-.56-6.27-3.37-11.85-5.39-17.7-6.06-17.5-5.09-35,.61-52.44C266.17,462.66,267.71,459.53,267.16,455.62Zm14.95,87.64c-4.83-1.59-7.19-.09-8.43,3.9-.94,3.05-2.55,5.91-3.34,9-4.91,19-4.07,38.13-1,57.2,1.8,11.1,7.23,20.74,15.1,28.83a22.47,22.47,0,0,0,25,4.47c6.93-3.3,12.1-13.2,11.41-21.6-.74-8.91-5.64-15.69-11.31-22-8.3-9.21-16.81-18.1-21.78-29.89C283.71,563.55,282.24,553.65,282.11,543.26Z"/><path d="M463.49,244.05c-3.16-7.12-6.31-14.22-10.45-20.88-4.5-7.23-6.11-15.62-7.94-23.8a142.8,142.8,0,0,1,3.13-74.72c2.08-6.72,3.74-13.44,7.57-19.46,1.25-2,2.55-3,4.8-2.69,2.81.38,2.19,2.35,2.52,4.42.87,5.46,5.22,7.75,10.09,8.84,9.65,2.15,18.25-.38,25.86-6.5,1.87-1.5,3.46-3.33,5.23-5s3.3-4.33,6.48-3.43,3,3.65,3.23,6.31c.84,10.72,12.78,14,21.58,13.15,8-.79,14.7-5,21.66-8.51,2-1,3.88-3.43,6.45-1.38,2.1,1.67,1.94,3.67,1.43,6.37-.72,3.81,1.11,7.33,4.28,10,8.29,7,18.11,9.12,28.59,8.93a36.74,36.74,0,0,0,10.7-1.32c4.88-1.61,8-.51,10.17,4.1,0,1.21-1,1.72-1.93,2-18.38,5.09-29.52,18.4-38.71,33.95-13.82,23.35-19,49.22-21.17,75.72-1.39,17.34-1.55,34.85-3.09,52.15-2.62,29.47-5.72,59.12-19.76,86-6.33,12.13-13.71,23.48-25.18,31.7-5.62,4-12.48,4.89-18.36,8.25a11.94,11.94,0,0,0-4.65,4.08,112.33,112.33,0,0,1-13.94,17.95c-7.33,7.55-10.58,17.35-10.06,28a101.07,101.07,0,0,0,1.8,16.12,30.12,30.12,0,0,1-.49,15.48c-1.78,5.55-5.09,9.26-10.78,11.91-19.45,9.07-40.57,13.84-59.69,23.7-10.57,5.46-19.53,13.25-29.35,19.78-6.5,4.32-12.73,9-19.59,12.83-19.38,10.76-39.27,2.15-49.1-16-5.92-10.92-5.57-21.65-3.36-33.46,2.94-15.7,7.73-31,9.55-46.9,1.35-11.85-.21-23.48-3.3-34.79-3.2-1.17-6-.52-8.74-.46-14.54.33-25.05-10.09-26.34-24.6-1-11.69,2.72-22.13,6.15-32.74,2.74-8.43,3.46-16.79,1.34-25.42-2.47-10.1-.68-19.84,2.52-29.51,4.27-12.93,8.85-25.76,15-37.94,7.55-15,18-27.91,30.38-39.08,14.26-12.91,29.7-25,47.8-31.46,17.91-6.44,36.52-10,56.38-5.7,16.11,3.5,27.83,12.13,38.67,23.28a11.46,11.46,0,0,0,1.95,1.31l.71,2.81C464.06,245.67,464.15,244.85,463.49,244.05ZM538.62,351.6c-3.9,2-7.74-.18-11.88-.32-1.26,5.23-2.49,10.4-3.74,15.56-.67,2.77.92,4.14,3.19,4.88,2.43.8,3.64-.88,4.69-2.67.89-1.53.51-4,2.24-4.73,6.07-2.58,5.7-7.67,5.41-12.81l.38.05ZM468.91,236.15l-.64-.63c0,.17-.15.36-.1.5.18.47.47.49.78.07.63,6.82,5.6,11.56,8.32,17.38,2.3,4.91,6.75,5.76,11.58,5.37,3.45-.27,5-2.3,4.43-5.68a102.94,102.94,0,0,0-6.54-21.5C481.5,236.92,475.32,237,468.91,236.15Zm-14.34-31.41c-.4-1-1-1-1.88-.23l1.72.41c.17,7.08,3.64,13,7,18.81,2.56,4.39,11,7.27,15.94,6,3.8-1,7.08-3.46,6.86-7.24-.34-5.85-2.07-11.62-3.31-17.92C471.71,210.26,463.13,208.27,454.57,204.74Zm28.64-56.63c-11,6.52-22,6.37-33.28-1.3-.27,6.09-.59,11.43-.7,16.76a7.65,7.65,0,0,0,3.53,6.58c7.28,5.22,19,4.5,25.5-1.61a7.89,7.89,0,0,0,2.8-4.46c.87-5.1,1.88-10.18,2.83-15.27.46-.46.7-.95,0-1.41C483.88,147.37,483.46,147.86,483.21,148.11ZM404.13,280.7c3.72-2.08,7.21-1.38,10.62-.07,3.93,1.5,7.67,3.54,11.67,4.74,7.1,2.12,13-1.21,14.73-8.29,1.76-7.25,2.59-14.76.92-22.06-1.39-6.13-2.76-12.8-9-16.31-12.05-6.81-25.12-9.76-38.78-7.64a122.4,122.4,0,0,0-65.24,31.08,195.37,195.37,0,0,0-42.23,54.12c-6.5,12.39-9.21,25.1-7.19,38.83,2.58,17.49,2.65,34.71-4,51.49-2.1,5.32-2.3,11-1.66,16.62s2.34,11.64,8.2,13.72c8.76,3.1,20.71,2.62,27.89-6.73,3.41-4.45,6.86-8.88,10.54-13.1,2.89-3.3,6.15-6.28,11-6.34,2.13,2.25,1.49,4.69-.38,5.83-8,4.88-11.82,13.5-18.29,19.7-2,1.93-2.27,3.76-1.68,6.39,4,17.61,3.79,35-3.49,51.86-.56,1.29-1.92,2.74-.57,4.62a117.1,117.1,0,0,1,33.11-7.85c20.38-1.66,39.7,2.27,58.34,10.73a231.76,231.76,0,0,0,38.36,13.9c9.84,2.51,21-4.16,21.89-13.42.6-6.32-.67-12.57-2.46-18.9-4.36,2.05-7,5.3-9.59,8.59-1.67,2.09-3.21,5.5-6.55,3.9-3-1.43-1.33-4.54-1-7,2.41-16.52,11.54-29.39,23.41-40.16,14.85-13.47,23.7-29.92,27.87-49.26,5-23.27,4.09-46.62.75-69.92-1.09-7.6-2.15-15.45-6.12-22.25-4.63.39-9.44,1.66-12.75,3.8-23.29,15.05-34.74,36.62-31.91,64.09,1.69,16.39,9.24,23.07,27,19.79,4.12-.76,7.86-2.53,11.95-3.87,2.57,3.65,2.11,6.28-1.26,8.87-6.59,5.07-14.12,7.29-22.24,8-9.16.77-16.71-2.93-23.35-9.31-8.72,6.6-18,8.75-28.13,5.76a22.37,22.37,0,0,1-5.08-1.8c-11.74-7-22.22-4.54-31.78,4.21-3.17,2.9-5.34,2.8-7.42-1.45,5.73-6.75,12.1-11.26,21.34-11.94,8.8-.63,17,1.7,25.36,3.18,4.76.84,9.44,1.73,13.89-1.37,7.45-5.18,9.39-10.54,5.8-20.44-4.52-12.43-4.53-24.26,1.4-36.35,8.41-17.16,17.06-34,31.4-47.22,4.74-4.36,10.31-7.43,15.4-11.08-4.61-10.24-11.67-20.29-17.48-25,.34,19.94-1.22,19.73-5.29,27.65a20.45,20.45,0,0,1-27,9.49c-6-2.71-11.41-6.73-18.28-7.34C404.91,285,404,283.29,404.13,280.7ZM301.91,553.46c2.76,7,8.28,11.13,15.47,13.35,13.27,4.11,24.5-1.17,34.89-8.37,12.79-8.85,24.19-19.77,39.63-25.62C357.75,523.15,328.51,531.61,301.91,553.46ZM540.35,151.14c-3.12,5.38-4.65,10.75-6.7,15.92a12.67,12.67,0,0,0,1.71,13,23.87,23.87,0,0,0,14,9.72c6.26,1.46,11.94-.37,15.27-5.68,4.2-6.7,7.9-13.74,12.75-21.15C563.12,163.73,550,163.74,540.35,151.14Zm-33.1-36.92c-5.08,6.68-9.18,13.16-11.59,20.46-1.27,3.85.22,7.08,4.17,9.49,15.9,9.66,39.26.83,45.42-17.92C530.91,128.41,517.28,128.34,507.25,114.22Zm50.84,9.57A76.41,76.41,0,0,0,548.48,136c-5.11,8.38-3.7,14.17,5.53,17.8,14.33,5.63,30.79,3.69,41.3-11C580.36,141.93,566.84,138.27,558.09,123.79Zm-99.86-9c-2.54,7-4.92,13.28-7.07,19.66a4.18,4.18,0,0,0,.72,4.44c7,7.81,15.29,9.53,24.29,5,6.27-3.14,17.1-13.38,18.44-24.22C481.82,123.79,469.54,123.53,458.23,114.77Zm34.25,33.59a39.49,39.49,0,0,0-3.55,11.69c-1.33,8.3,3.73,15.39,12,17.19,15.74,3.42,27.87-9.23,30.3-26.52C517.71,158.85,505,155.51,492.48,148.36Zm-5.16,29.77a62,62,0,0,0,.73,14.29c1.69,10.47,7.32,16.39,17.64,17.45,5.46.57,11.51-1.79,12.09-5.66,1.23-8.16,3.14-16.2,4.82-25.33C510.44,184.88,499.07,187.77,487.32,178.13Zm42,5c-3.46,7.66-3.1,15.34-3.51,22.74-.3,5.27,6,11.68,11,13,6.4,1.66,15.32-.52,18-5.26,3.1-5.48,3.56-11.9,5.68-18.63C546.8,198.53,536.94,194.08,529.33,183.1Zm-4.23,34.71c-.84,6-.47,17.06.64,21.17a15.75,15.75,0,0,0,14.07,11.25c4,.19,7.69-.93,9-4.64a62.65,62.65,0,0,0,4-22.52C542.79,224.45,533,226,525.1,217.81Zm-75.84-41.57c-.92,4.73-.92,4.73,1.08,12.56,2.64,10.29,14.9,16.28,24.55,11.78,2.83-1.31,6-2.94,5.95-6.82-.14-6.1-.56-12.19-.91-19.08C469.64,182.17,459.46,181,449.26,176.24Zm39.82,33.57c2,8.4,2.8,16.51,6,24,1.5,3.52,4.51,5.59,8.05,6.73,7.53,2.42,12.64-.71,13.66-8.54a66.79,66.79,0,0,0,.05-17.54C506.65,219.08,498.36,214.28,489.08,209.81ZM527,252.19c-.53,6.35.95,12.22,1.21,18.16.21,4.81,3.44,7.39,8.82,7.81,5,.4,10.24-2.24,11.16-6.13a38.27,38.27,0,0,0,.61-16.77C540.82,258,533.93,255.48,527,252.19Zm2.57,31.54c.27,4.51.52,8.3.72,12.1.42,8.09,5.91,12.67,14.44,11.83,3.89-8,2.19-16.48,3.46-26C541.47,286,535.71,284.41,529.52,283.73Zm-31-38.16c1.87,6.29,3.19,11.28,4.86,16.16,1.36,4,8.29,8.25,12.38,8,2.7-.16,4.88-1.35,4.72-4.26-.37-6.86-1.1-13.7-1.75-21.2C512.06,248.13,505.94,248.44,498.55,245.57Zm8.23,28.7c1.89,7.44,3.41,13.62,5,19.76.93,3.52,3.82,3.58,6.73,3.56,3.06,0,3.27-2.21,3.71-4.46,1.15-5.8-.28-11.36-.91-17.33A26.72,26.72,0,0,1,506.78,274.27Zm-22.5-8.47c3.33,6.92,6.42,13.36,9.52,19.79.75,1.56,1.07,3.74,3.52,3.39,2.67-.38,3.33-2.25,3.5-4.75.51-7.58-2.28-14.29-4.7-21.75C492.53,265.63,488.57,265.12,484.28,265.8ZM531,377.29c-4,.56-7.2-1.23-10.94-1.64-2.2,4.44-4.3,8.71-6.43,13-1.33,2.68-.36,4.75,2,6.07,2.16,1.23,4.31,1.62,6.38-.81C526.09,389.12,528.79,383.69,531,377.29ZM300.69,545l13.52-9.6c-1.28-3.54-2.42-6.69-3.63-10.06l-10.82,3.85C299.29,534.46,299.13,539.42,300.69,545ZM529.48,330.66c-.57,3.36-1,6.09-1.5,8.8-.62,3.27-.2,6,3.48,7.12,3.53,1.12,5.84-.61,7.43-3.37,2.16-3.74,4.05-7.63,4.24-12.39C538.57,331.37,534.27,332,529.48,330.66Zm15.68-16.39a53.53,53.53,0,0,1-14.52-3.73c-.82,13.25-.26,14.69,5.64,15.13C541,326,544.47,321.72,545.16,314.27ZM352.45,507.58c.88-3.13,1.62-5.78,2.46-8.79-6.25-.27-12.16-.84-18,1.11-.3,3.32-1.28,6.22.15,9.23a13.73,13.73,0,0,0,2.49.12C343.69,508.75,347.84,508.19,352.45,507.58Zm-22,3.76V501.16c-13.54,1.31-15.26,1.66-13.27,14ZM522.82,302.59l-9.08.77c-.53,4.56,1,8.81,1.18,13.16.11,2.66,1.76,4,4.39,3.75a3.58,3.58,0,0,0,3.71-3.82A79.49,79.49,0,0,0,522.82,302.59Zm-6.15,99.08c-3.45-.71-5.7-3-8.07-5.47-4.55,4.93-8.53,9.51-5,16.83C508.63,410.19,514.14,408.27,516.67,401.67ZM331.09,519.85l-13.77,2.34c1.59,3.31,1.37,6.69,4,9.17,5-.88,9.13-3.28,13.48-5.8ZM497.67,295.08c1.42,5.81,2.82,11.36,4.14,16.93.37,1.56,1.13,2.62,2.78,2.48,2.09-.17,2.52-1.87,2.35-3.49-.48-4.34-1-8.7-1.85-13C504.32,294.21,502.12,292.51,497.67,295.08ZM377.22,502.3a22.54,22.54,0,0,0-3.31-1.28,64.61,64.61,0,0,0-6.49-1.09c-6.15-.69-6.44-.4-6.9,6.38l14,1.71A11.48,11.48,0,0,0,377.22,502.3Zm-75.65,18.47c6.48.16,8.5-.81,7.87-13.28C302,509.58,301.64,510.22,301.57,520.77Zm71.74-5.08c-4.62-.31-8.78-2.34-13.31-.79a10.53,10.53,0,0,0,1.51,6.29c4.32,0,8.44.73,12.88,0C374,519.15,373.67,517.49,373.31,515.69Zm-34.44,1.74c2.54,6.17,5.8,6.87,14.37,3.49-.31-1.61.15-3.41-1.29-5.17C347.78,515.55,343.62,516.58,338.87,517.43ZM516.18,326.88c-1.2,13.21-1,14.26,3.66,17.08,1-5.76,2.53-11.15,2-16.8C519.93,326.14,518.22,326.48,516.18,326.88Zm-1.76,39.51c2.85-5.39,4.62-10.37,3.83-15.83-.16-1.15-2.14-1.55-4.16-.37C514.79,355.14,507.94,360.27,514.42,366.39ZM506.79,383a23.31,23.31,0,0,0,6.3-10.53c-2-1.5-3.3-3.53-6.3-3.63Zm1.15-46.46c1.27-13.53.74-15.47-3.95-15.24C504.48,326.13,503.11,331.35,507.94,336.52Z"/><path d="M267.16,455.62c.55,3.91-1,7-2,10.23-5.7,17.43-6.67,34.94-.61,52.44,2,5.85,4.83,11.43,5.39,17.7.87,9.75-1.19,18.26-9.94,24.13-9.31,6.25-20.53,4.52-27-4.6-7.33-10.24-9.87-21.61-8-34.14,2.41-16,9.37-29.9,18-43.35a119.74,119.74,0,0,1,18-21.3C262.91,454.88,264.56,454.43,267.16,455.62Zm-7.67,93.32c-10.82,3.19-20.6-3.48-22.64-15.64a62.49,62.49,0,0,1-.55-13.75c.27-5.07.5-10.15.86-15.28-3,6.58-4.36,13.45-5.59,20.4-1.62,9.17.4,17.49,5.3,25.18,6.41,10,15.07,8.66,22.55-.82l.23-.1Z"/><path d="M282.11,543.26c.13,10.39,1.6,20.29,5.66,29.91,5,11.79,13.48,20.68,21.78,29.89,5.67,6.29,10.57,13.07,11.31,22,.69,8.4-4.48,18.3-11.41,21.6a22.47,22.47,0,0,1-25-4.47c-7.87-8.09-13.3-17.73-15.1-28.83-3.09-19.07-3.93-38.23,1-57.2.79-3.07,2.4-5.93,3.34-9C274.92,543.17,277.28,541.67,282.11,543.26Zm30.19,86.91c-12,5.58-19,3.28-26.89-7.27-4.72-6.31-6.48-13.83-10-20.6.58,12.51,4.08,23.89,12.14,33.72C293.2,643,309.86,643.76,312.3,630.17Z"/><path class="a" d="M404.13,280.7c-.17,2.59.78,4.3,2.78,4.48,6.87.61,12.3,4.63,18.28,7.34a20.45,20.45,0,0,0,27-9.49c4.07-7.92,5.63-7.71,5.29-27.65,5.81,4.69,12.87,14.74,17.48,25-5.09,3.65-10.66,6.72-15.4,11.08-14.34,13.23-23,30.06-31.4,47.22-5.93,12.09-5.92,23.92-1.4,36.35,3.59,9.9,1.65,15.26-5.8,20.44-4.45,3.1-9.13,2.21-13.89,1.37-8.39-1.48-16.56-3.81-25.36-3.18-9.24.68-15.61,5.19-21.34,11.94,2.08,4.25,4.25,4.35,7.42,1.45,9.56-8.75,20-11.2,31.78-4.21a22.37,22.37,0,0,0,5.08,1.8c10.16,3,19.41.84,28.13-5.76,6.64,6.38,14.19,10.08,23.35,9.31,8.12-.69,15.65-2.91,22.24-8,3.37-2.59,3.83-5.22,1.26-8.87-4.09,1.34-7.83,3.11-11.95,3.87-17.74,3.28-25.29-3.4-27-19.79-2.83-27.47,8.62-49,31.91-64.09,3.31-2.14,8.12-3.41,12.75-3.8,4,6.8,5,14.65,6.12,22.25,3.34,23.3,4.26,46.65-.75,69.92-4.17,19.34-13,35.79-27.87,49.26-11.87,10.77-21,23.64-23.41,40.16-.36,2.47-2,5.58,1,7,3.34,1.6,4.88-1.81,6.55-3.9,2.63-3.29,5.23-6.54,9.59-8.59,1.79,6.33,3.06,12.58,2.46,18.9-.88,9.26-12.05,15.93-21.89,13.42A231.76,231.76,0,0,1,398.73,502c-18.64-8.46-38-12.39-58.34-10.73a117.1,117.1,0,0,0-33.11,7.85c-1.35-1.88,0-3.33.57-4.62,7.28-16.89,7.45-34.25,3.49-51.86-.59-2.63-.33-4.46,1.68-6.39,6.47-6.2,10.28-14.82,18.29-19.7,1.87-1.14,2.51-3.58.38-5.83-4.88.06-8.14,3-11,6.34-3.68,4.22-7.13,8.65-10.54,13.1-7.18,9.35-19.13,9.83-27.89,6.73-5.86-2.08-7.55-8-8.2-13.72s-.44-11.3,1.66-16.62c6.62-16.78,6.55-34,4-51.49-2-13.73.69-26.44,7.19-38.83a195.37,195.37,0,0,1,42.23-54.12,122.4,122.4,0,0,1,65.24-31.08c13.66-2.12,26.73.83,38.78,7.64,6.21,3.51,7.58,10.18,9,16.31,1.67,7.3.84,14.81-.92,22.06-1.71,7.08-7.63,10.41-14.73,8.29-4-1.2-7.74-3.24-11.67-4.74C411.34,279.32,407.85,278.62,404.13,280.7Zm-8.18,109c11.74.82,23.92-7.47,23.7-16-.24-9.49-.62-19.25-6.15-27.77-3.26-5-8.17-8.24-12.72-11.69-7.06-5.34-9.77-12-9.76-20.69,0-7.78-.75-15.58-5.52-22.4-3.63-5.19-10.25-8.07-16.16-6-7.7,2.69-13.58,7.64-16.64,15.37a124,124,0,0,0-6.23,20.67c-3.7,18.11,4.41,35.55,20.67,44.19a16,16,0,0,1,7.92,8.6C379.08,384.25,386.17,390.2,396,389.66Zm-82.16-83.83a12.4,12.4,0,0,0-7.43,1.74c-9.57,6.32-14.74,15.43-16.77,26.52-1.43,7.81-.64,15.56.59,23.28,2.09,13.15,1.28,25.93-4.56,38.12a37,37,0,0,0-3.05,12.78c-.77,8.34,6.67,16.6,13.84,15.32,11.17-2,19.1-8.8,22.81-19.13,1.91-5.29,4.18-9.69,8-13.66s8-8.19,8.22-13.25c.52-12.87.73-25.85-1.28-38.67-1.61-10.21-2.77-20.49-10.62-28.64C320.56,307.18,317.74,305.78,313.79,305.83Zm26.82,78.85a8.88,8.88,0,0,0-.1,2.47c3.39,12.14.78,23.41-5.07,34.13-3,5.48-4.7,11.44-6.65,17.28a68,68,0,0,0-2.89,14.08c-.59,5.46,3.45,12.73,7.28,14.26,4.42,1.76,9.86.33,13.69-4.7,2-2.6,4.08-1.89,6.24-1.93,5.62-.11,10.75-1.87,14.61-5.74,4.41-4.41,4-11.09-1-17.59-7-9-12.17-18.7-13.94-30.15A80.71,80.71,0,0,0,347.49,389C346.27,386,344.6,383.86,340.61,384.68Zm55.52,84.22c4.64,4.23,6.74.26,9.05-3,7.81-10.86,14.7-11.59,24.34-2.57a5.61,5.61,0,0,0,.87.82c1.67,1,3.31,1.33,4.9-.23,1.36-1.35,1.22-2.63.42-4.3-5-10.42-4.23-13.49,4.89-21.54,2.94-2.6,2.72-5-.66-7.05a9.77,9.77,0,0,0-5.2-1.06c-5.47,0-9.52-2.73-12.48-7.13a33.19,33.19,0,0,1-4.4-7.82c-.68-2-2.45-2.4-4.43-2.12s-2.54,1.69-2.6,3.43c-.3,9.56-4.74,15.41-14.6,16.58-1.37.17-2.79.77-3.1,2.43s.79,2.48,1.92,3.42c8.38,6.94,9.6,14,4.22,23.45C398.11,464.29,396.14,466,396.13,468.9ZM340,309.27c4.79-24.76,21.19-40.17,41.69-52.3-1.25-3.39-3.22-4.43-6.21-3.61-3.28.89-6.7,1.48-9.81,2.79-10.16,4.27-20.08,8.72-26.11,19-5.59,9.56-5.54,19.86-5.64,30.27C333.84,309,336.24,309.6,340,309.27Zm107,61.9c-.13,14.28,9.32,22.12,23.16,19.36,2.31-.46,5.89.52,6.16-3.29s-3.14-3.57-5.55-4.1c-5.81-1.28-10.06-4.62-13.42-9.42-1.54-2.2-2.07-4.76-3.26-7.06-.85-1.65-1.71-3.34-4-2.85s-2.72,2.12-2.84,4.07C447.14,369.07,447,370.27,447,371.17Z"/><path class="a" d="M301.91,553.46c26.6-21.85,55.84-30.31,90-20.64-15.44,5.85-26.84,16.77-39.63,25.62-10.39,7.2-21.62,12.48-34.89,8.37C310.19,564.59,304.67,560.51,301.91,553.46Z"/><path class="a" d="M540.35,151.14c9.62,12.6,22.77,12.59,37,11.78-4.85,7.41-8.55,14.45-12.75,21.15-3.33,5.31-9,7.14-15.27,5.68a23.87,23.87,0,0,1-14-9.72,12.67,12.67,0,0,1-1.71-13C535.7,161.89,537.23,156.52,540.35,151.14Z"/><path class="a" d="M507.25,114.22c10,14.12,23.66,14.19,38,12-6.16,18.75-29.52,27.58-45.42,17.92-3.95-2.41-5.44-5.64-4.17-9.49C498.07,127.38,502.17,120.9,507.25,114.22Z"/><path class="a" d="M558.09,123.79c8.75,14.48,22.27,18.14,37.22,19-10.51,14.7-27,16.64-41.3,11-9.23-3.63-10.64-9.42-5.53-17.8A76.41,76.41,0,0,1,558.09,123.79Z"/><path class="a" d="M458.23,114.77c11.31,8.76,23.59,9,36.38,4.91-1.34,10.84-12.17,21.08-18.44,24.22-9,4.5-17.3,2.78-24.29-5a4.18,4.18,0,0,1-.72-4.44C453.31,128.05,455.69,121.75,458.23,114.77Z"/><path class="a" d="M492.48,148.36c12.49,7.15,25.23,10.49,38.75,2.36-2.43,17.29-14.56,29.94-30.3,26.52-8.27-1.8-13.33-8.89-12-17.19A39.49,39.49,0,0,1,492.48,148.36Z"/><path class="a" d="M487.32,178.13c11.75,9.64,23.12,6.75,35.28.75-1.68,9.13-3.59,17.17-4.82,25.33-.58,3.87-6.63,6.23-12.09,5.66-10.32-1.06-15.95-7-17.64-17.45A62,62,0,0,1,487.32,178.13Z"/><path class="a" d="M529.33,183.1c7.61,11,17.47,15.43,31.17,11.84-2.12,6.73-2.58,13.15-5.68,18.63-2.68,4.74-11.6,6.92-18,5.26-5-1.31-11.3-7.72-11-13C526.23,198.44,525.87,190.76,529.33,183.1Z"/><path class="a" d="M525.1,217.81c7.93,8.2,17.69,6.64,27.72,5.26a62.65,62.65,0,0,1-4,22.52c-1.31,3.71-5,4.83-9,4.64A15.75,15.75,0,0,1,525.74,239C524.63,234.87,524.26,223.77,525.1,217.81Z"/><path class="a" d="M483.89,148.81c-.95,5.09-2,10.17-2.83,15.27a7.89,7.89,0,0,1-2.8,4.46c-6.46,6.11-18.22,6.83-25.5,1.61a7.65,7.65,0,0,1-3.53-6.58c.11-5.33.43-10.67.7-16.76,11.32,7.67,22.25,7.82,33.28,1.3C483.43,148.35,483.66,148.58,483.89,148.81Z"/><path class="a" d="M449.26,176.24c10.2,4.77,20.38,5.93,30.67-1.56.35,6.89.77,13,.91,19.08.08,3.88-3.12,5.51-5.95,6.82-9.65,4.5-21.91-1.49-24.55-11.78C448.34,181,448.34,181,449.26,176.24Z"/><path class="a" d="M489.08,209.81c9.28,4.47,17.57,9.27,27.77,4.69A66.79,66.79,0,0,1,516.8,232c-1,7.83-6.13,11-13.66,8.54-3.54-1.14-6.55-3.21-8.05-6.73C491.88,226.32,491.11,218.21,489.08,209.81Z"/><path class="a" d="M454.57,204.74c8.56,3.53,17.14,5.52,26.36-.14,1.24,6.3,3,12.07,3.31,17.92.22,3.78-3.06,6.28-6.86,7.24-5,1.24-13.38-1.64-15.94-6-3.39-5.82-6.86-11.73-7-18.81Z"/><path class="a" d="M527,252.19c7,3.29,13.87,5.85,21.8,3.07a38.27,38.27,0,0,1-.61,16.77c-.92,3.89-6.16,6.53-11.16,6.13-5.38-.42-8.61-3-8.82-7.81C527.9,264.41,526.42,258.54,527,252.19Z"/><path class="a" d="M468.91,236.15c6.41.89,12.59.77,17.83-4.49a102.94,102.94,0,0,1,6.54,21.5c.59,3.38-1,5.41-4.43,5.68-4.83.39-9.28-.46-11.58-5.37-2.72-5.82-7.69-10.56-8.32-17.38Z"/><path class="a" d="M529.52,283.73c6.19.68,12,2.22,18.62-2.09-1.27,9.54.43,18.07-3.46,26-8.53.84-14-3.74-14.44-11.83C530,292,529.79,288.24,529.52,283.73Z"/><path class="a" d="M498.55,245.57c7.39,2.87,13.51,2.56,20.21-1.28.65,7.5,1.38,14.34,1.75,21.2.16,2.91-2,4.1-4.72,4.26-4.09.23-11-4.06-12.38-8C501.74,256.85,500.42,251.86,498.55,245.57Z"/><path class="a" d="M506.78,274.27a26.72,26.72,0,0,0,14.57,1.53c.63,6,2.06,11.53.91,17.33-.44,2.25-.65,4.43-3.71,4.46-2.91,0-5.8,0-6.73-3.56C510.19,287.89,508.67,281.71,506.78,274.27Z"/><path class="a" d="M484.28,265.8c4.29-.68,8.25-.17,11.84-3.32,2.42,7.46,5.21,14.17,4.7,21.75-.17,2.5-.83,4.37-3.5,4.75-2.45.35-2.77-1.83-3.52-3.39C490.7,279.16,487.61,272.72,484.28,265.8Z"/><path class="a" d="M538.53,351.51c1.58,8.31-4.66,17.86-5.56,19.38-1.05,1.8-4.35,1.63-6.78.83-2.27-.74-3.86-2.11-3.19-4.88,1.25-5.16,2.48-10.33,3.74-15.56,4.14.14,8,2.28,11.88.32Z"/><path class="a" d="M531,377.29c-2.23,6.4-4.93,11.83-9,16.6-2.07,2.43-4.22,2-6.38.81-2.33-1.32-3.3-3.39-2-6.07,2.13-4.27,4.23-8.54,6.43-13C523.82,376.06,527,377.85,531,377.29Z"/><path class="a" d="M300.69,545c-1.56-5.56-1.4-10.52-.93-15.81l10.82-3.85c1.21,3.37,2.35,6.52,3.63,10.06Z"/><path class="a" d="M529.48,330.66c4.79,1.35,9.09.71,13.65.16-.19,4.76-2.08,8.65-4.24,12.39-1.59,2.76-3.9,4.49-7.43,3.37-3.68-1.17-4.1-3.85-3.48-7.12C528.5,336.75,528.91,334,529.48,330.66Z"/><path class="a" d="M545.16,314.27c-.69,7.45-4.2,11.75-8.88,11.4-5.9-.44-6.46-1.88-5.64-15.13A53.53,53.53,0,0,0,545.16,314.27Z"/><path class="a" d="M352.45,507.58c-4.61.61-8.76,1.17-12.93,1.67a13.73,13.73,0,0,1-2.49-.12c-1.43-3-.45-5.91-.15-9.23,5.87-1.95,11.78-1.38,18-1.11C354.07,501.8,353.33,504.45,352.45,507.58Z"/><path class="a" d="M330.43,511.34l-13.27,3.79c-2-12.31-.27-12.66,13.27-14Z"/><path class="a" d="M522.82,302.59a79.49,79.49,0,0,1,.2,13.86,3.58,3.58,0,0,1-3.71,3.82c-2.63.2-4.28-1.09-4.39-3.75-.19-4.35-1.71-8.6-1.18-13.16Z"/><path class="a" d="M516.67,401.67c-2.53,6.6-8,8.52-13.08,11.36-3.52-7.32.46-11.9,5-16.83C511,398.68,513.22,401,516.67,401.67Z"/><path class="a" d="M331.09,519.85l3.73,5.71c-4.35,2.52-8.53,4.92-13.48,5.8-2.65-2.48-2.43-5.86-4-9.17Z"/><path class="a" d="M497.67,295.08c4.45-2.57,6.65-.87,7.42,2.94.86,4.28,1.37,8.64,1.85,13,.17,1.62-.26,3.32-2.35,3.49-1.65.14-2.41-.92-2.78-2.48C500.49,306.44,499.09,300.89,497.67,295.08Z"/><path class="a" d="M377.22,502.3a11.48,11.48,0,0,1-2.73,5.72l-14-1.71c.46-6.78.75-7.07,6.9-6.38a64.61,64.61,0,0,1,6.49,1.09A22.54,22.54,0,0,1,377.22,502.3Z"/><path class="a" d="M301.57,520.77c.07-10.55.45-11.19,7.87-13.28C310.07,520,308.05,520.93,301.57,520.77Z"/><path class="a" d="M373.31,515.69c.36,1.8.69,3.46,1.08,5.47-4.44.76-8.56.08-12.88,0A10.53,10.53,0,0,1,360,514.9C364.53,513.35,368.69,515.38,373.31,515.69Z"/><path class="a" d="M338.87,517.43c4.75-.85,8.91-1.88,13.08-1.68,1.44,1.76,1,3.56,1.29,5.17C344.67,524.3,341.41,523.6,338.87,517.43Z"/><path class="a" d="M516.18,326.88c2-.4,3.75-.74,5.69.28.5,5.65-1.06,11-2,16.8C515.17,341.14,515,340.09,516.18,326.88Z"/><path class="a" d="M514.42,366.39c-6.48-6.12.37-11.25-.33-16.2,2-1.18,4-.78,4.16.37C519,356,517.27,361,514.42,366.39Z"/><path class="a" d="M506.79,383V368.82c3,.1,4.34,2.13,6.3,3.63A23.31,23.31,0,0,1,506.79,383Z"/><path class="a" d="M507.94,336.52c-4.83-5.17-3.46-10.39-3.95-15.24C508.68,321.05,509.21,323,507.94,336.52Z"/><path class="a" d="M463.49,244.05c.66.8.57,1.62,0,3.42-.39-1.54-.24-1.81-1.53-3.3C462.2,244,463.25,244.24,463.49,244.05Z"/><path class="a" d="M454.41,204.92l-1.72-.41c.87-.72,1.48-.81,1.88.23Z"/><path class="a" d="M483.21,148.11c.25-.25.67-.74.72-.71.66.46.42.95,0,1.41C483.66,148.58,483.43,148.35,483.21,148.11Z"/><path class="a" d="M469,236.09c-.31.42-.6.4-.78-.07-.05-.14.06-.33.1-.5l.64.63Z"/><path class="a" d="M259.42,549c-7.48,9.48-16.14,10.87-22.55.82-4.9-7.69-6.92-16-5.3-25.18,1.23-6.95,2.63-13.82,5.59-20.4-.36,5.13-.59,10.21-.86,15.28a62.49,62.49,0,0,0,.55,13.75c2,12.16,11.82,18.83,22.64,15.64Z"/><polygon class="a" points="259.49 548.94 259.65 548.93 259.42 549.02 259.49 548.94"/><path class="a" d="M312.3,630.17c-2.44,13.59-19.1,12.78-24.79,5.85-8.06-9.83-11.56-21.21-12.14-33.72,3.56,6.77,5.32,14.29,10,20.6C293.31,633.45,300.33,635.75,312.3,630.17Z"/><path d="M396,389.66c-9.78.54-16.87-5.41-20.89-15.73a16,16,0,0,0-7.92-8.6c-16.26-8.64-24.37-26.08-20.67-44.19a124,124,0,0,1,6.23-20.67c3.06-7.73,8.94-12.68,16.64-15.37,5.91-2.06,12.53.82,16.16,6,4.77,6.82,5.52,14.62,5.52,22.4,0,8.67,2.7,15.35,9.76,20.69,4.55,3.45,9.46,6.67,12.72,11.69,5.53,8.52,5.91,18.28,6.15,27.77C419.87,382.19,407.69,390.48,396,389.66Zm5.54-7.15c-8.38-2-13.67-6.44-16.21-13.45-2.65-7.3-7.68-11.75-14.34-15.33-9.6-5.15-15.41-13.14-15.69-24.52-.07-2.77-.55-5.54-.85-8.31-1.19,3.64-2.06,7.27-1.72,10.78,1.07,11,3.6,21.94,14.14,27.59,6.57,3.52,11.77,7.66,14.65,14.27C385.27,382.3,391.81,384.54,401.49,382.51Z"/><path d="M313.79,305.83c3.95-.05,6.77,1.35,9.73,4.41,7.85,8.15,9,18.43,10.62,28.64,2,12.82,1.8,25.8,1.28,38.67-.2,5.06-4.56,9.43-8.22,13.25s-6.07,8.37-8,13.66c-3.71,10.33-11.64,17.14-22.81,19.13-7.17,1.28-14.61-7-13.84-15.32a37,37,0,0,1,3.05-12.78c5.84-12.19,6.65-25,4.56-38.12-1.23-7.72-2-15.47-.59-23.28,2-11.09,7.2-20.2,16.77-26.52A12.4,12.4,0,0,1,313.79,305.83Zm-15.07,22.8c-4.33,10-3.42,19.57-1.44,28.88a62.34,62.34,0,0,1-4.21,39.78c-2.23,4.93-3.64,10.19-2.64,15.72.93,5.21,1.93,5.61,7.57,3.14-3.9-2.32-4.28-5.8-3.75-9.78.66-5,2.69-9.59,4.22-14.32,3.43-10.62,8-21.13,5.16-32.67A210.34,210.34,0,0,1,298.72,328.63Z"/><path d="M340.61,384.68c4-.82,5.66,1.32,6.88,4.34a80.71,80.71,0,0,1,5.25,17.77c1.77,11.45,7,21.12,13.94,30.15,5,6.5,5.45,13.18,1,17.59-3.86,3.87-9,5.63-14.61,5.74-2.16,0-4.26-.67-6.24,1.93-3.83,5-9.27,6.46-13.69,4.7-3.83-1.53-7.87-8.8-7.28-14.26a68,68,0,0,1,2.89-14.08c1.95-5.84,3.66-11.8,6.65-17.28,5.85-10.72,8.46-22,5.07-34.13A8.88,8.88,0,0,1,340.61,384.68Zm-3.21,76.11c-2.6-5.65-2.57-11.61-2.19-18.85C330.48,452.66,331.59,461,337.4,460.79Z"/><path d="M396.13,468.9c0-2.94,2-4.61,3.14-6.65,5.38-9.46,4.16-16.51-4.22-23.45-1.13-.94-2.22-1.8-1.92-3.42s1.73-2.26,3.1-2.43c9.86-1.17,14.3-7,14.6-16.58.06-1.74.58-3.14,2.6-3.43s3.75.09,4.43,2.12a33.19,33.19,0,0,0,4.4,7.82c3,4.4,7,7.11,12.48,7.13a9.77,9.77,0,0,1,5.2,1.06c3.38,2,3.6,4.45.66,7.05-9.12,8.05-9.85,11.12-4.89,21.54.8,1.67.94,2.95-.42,4.3-1.59,1.56-3.23,1.2-4.9.23a5.61,5.61,0,0,1-.87-.82c-9.64-9-16.53-8.29-24.34,2.57C402.87,469.16,400.77,473.13,396.13,468.9ZM426.45,435c-4.9-2.76-8.06-5.35-10.66-9.24A27.63,27.63,0,0,1,405.23,437l4.3,10C414.75,442.33,419.35,438,426.45,435Z"/><path d="M340,309.27c-3.72.33-6.12-.25-6.08-3.83.1-10.41.05-20.71,5.64-30.27,6-10.3,16-14.75,26.11-19,3.11-1.31,6.53-1.9,9.81-2.79,3-.82,5,.22,6.21,3.61C361.15,269.1,344.75,284.51,340,309.27Z"/><path d="M447,371.17c.07-.9.19-2.1.26-3.29.12-1.95.7-3.62,2.84-4.07s3.14,1.2,4,2.85c1.19,2.3,1.72,4.86,3.26,7.06,3.36,4.8,7.61,8.14,13.42,9.42,2.41.53,5.8.38,5.55,4.1s-3.85,2.83-6.16,3.29C456.27,393.29,446.82,385.45,447,371.17Z"/><path class="a" d="M401.49,382.51c-9.68,2-16.22-.21-20-9-2.88-6.61-8.08-10.75-14.65-14.27-10.54-5.65-13.07-16.58-14.14-27.59-.34-3.51.53-7.14,1.72-10.78.3,2.77.78,5.54.85,8.31.28,11.38,6.09,19.37,15.69,24.52,6.66,3.58,11.69,8,14.34,15.33C387.82,376.07,393.11,380.48,401.49,382.51Z"/><path class="a" d="M298.72,328.63a210.34,210.34,0,0,0,4.91,30.75c2.89,11.54-1.73,22.05-5.16,32.67-1.53,4.73-3.56,9.3-4.22,14.32-.53,4-.15,7.46,3.75,9.78-5.64,2.47-6.64,2.07-7.57-3.14-1-5.53.41-10.79,2.64-15.72a62.34,62.34,0,0,0,4.21-39.78C295.3,348.2,294.39,338.62,298.72,328.63Z"/><path class="a" d="M337.4,460.79c-5.81.17-6.92-8.13-2.19-18.85C334.83,449.18,334.8,455.14,337.4,460.79Z"/><path class="a" d="M426.45,435c-7.1,3-11.7,7.33-16.92,11.91l-4.3-10a27.63,27.63,0,0,0,10.56-11.19C418.39,429.65,421.55,432.24,426.45,435Z"/><path d="M459.46,241.94a88.86,88.86,0,0,1,7.53,8.31c2.26,3.14-3,0-3,0l-5.4-5Z"/></svg>