<svg id="Layer_1" data-name="Layer 1" xmlns="http://www.w3.org/2000/svg" viewBox="0 0 800 800"><defs><style>.cls-1{fill:#fff;}.cls-2,.cls-4{fill:none;stroke-linejoin:bevel;stroke-width:8px;}.cls-2{stroke:#000;}.cls-3{fill:blue;}.cls-4{stroke:#fff;}</style></defs><title>rear window</title><polygon class="cls-1" points="350.01 318.68 343.32 316.09 336.63 313.31 330.27 309.79 323.54 307.09 316.79 304.44 310.24 301.35 303.56 298.55 296.98 295.5 290.16 293.02 283.67 289.77 277.18 286.53 270.36 284.05 263.61 281.42 257.09 278.25 250.65 274.89 243.78 272.5 237.21 269.43 230.74 266.15 224.02 263.42 217.09 261.17 210.47 258.2 203.78 254.94 210.82 253.05 217.72 251.3 224.73 250.01 231.42 247.49 238.34 245.84 245.16 243.79 252.21 242.65 258.97 240.41 265.86 238.66 272.78 237.04 279.62 235.09 286.5 233.32 293.48 231.9 300.34 230.03 307.2 228.15 314.06 226.28 321 224.72 327.79 222.57 334.56 220.35 341.65 219.34 348.37 216.9 355.24 215.08 362.29 213.91 368.97 211.34 375.91 209.77 382.81 208.02 389.61 205.91 396.62 204.6 403.5 202.79 410.3 200.66 417.15 198.74 424.19 197.53 431.06 195.72 437.82 193.41 444.83 192.06 451.63 190.33 458.34 192.83 464.92 195.87 471.63 198.59 478.16 201.73 484.76 204.71 491.57 207.23 498.23 210.07 504.76 213.23 511.42 216.09 517.87 219.42 524.75 221.76 531.34 224.8 537.81 228.07 544.35 231.17 551.18 233.65 557.82 236.55 564.64 239.05 571.13 242.31 577.59 245.61 584.35 248.25 590.87 251.45 597.6 253.99 590.89 256.14 584.02 257.99 576.92 258.93 570.09 260.92 563.16 262.53 556.33 264.53 549.59 266.88 542.67 268.51 535.8 270.31 528.92 272.11 521.92 273.44 515.14 275.62 508.15 276.99 501.48 279.57 494.4 280.61 487.73 283.23 480.66 284.28 473.81 286.2 467.12 288.71 460.19 290.36 453.32 292.17 446.27 293.35 439.51 295.63 432.69 297.63 425.64 298.82 418.89 301.14 411.85 302.33 404.97 304.11 398.12 306.05 391.4 308.46 384.5 310.21 377.56 311.8 370.56 313.14 363.78 315.35 356.94 317.36 350.01 318.68"/><polygon class="cls-2" points="350.01 318.68 343.32 316.09 336.63 313.31 330.27 309.79 323.54 307.09 316.79 304.44 310.24 301.35 303.56 298.55 296.98 295.5 290.16 293.02 283.67 289.77 277.18 286.53 270.36 284.05 263.61 281.42 257.09 278.25 250.65 274.89 243.78 272.5 237.21 269.43 230.74 266.15 224.02 263.42 217.09 261.17 210.47 258.2 203.78 254.94 210.82 253.05 217.72 251.3 224.73 250.01 231.42 247.49 238.34 245.84 245.16 243.79 252.21 242.65 258.97 240.41 265.86 238.66 272.78 237.04 279.62 235.09 286.5 233.32 293.48 231.9 300.34 230.03 307.2 228.15 314.06 226.28 321 224.72 327.79 222.57 334.56 220.35 341.65 219.34 348.37 216.9 355.24 215.08 362.29 213.91 368.97 211.34 375.91 209.77 382.81 208.02 389.61 205.91 396.62 204.6 403.5 202.79 410.3 200.66 417.15 198.74 424.19 197.53 431.06 195.72 437.82 193.41 444.83 192.06 451.63 190.33 458.34 192.83 464.92 195.87 471.63 198.59 478.16 201.73 484.76 204.71 491.57 207.23 498.23 210.07 504.76 213.23 511.42 216.09 517.87 219.42 524.75 221.76 531.34 224.8 537.81 228.07 544.35 231.17 551.18 233.65 557.82 236.55 564.64 239.05 571.13 242.31 577.59 245.61 584.35 248.25 590.87 251.45 597.6 253.99 590.89 256.14 584.02 257.99 576.92 258.93 570.09 260.92 563.16 262.53 556.33 264.53 549.59 266.88 542.67 268.51 535.8 270.31 528.92 272.11 521.92 273.44 515.14 275.62 508.15 276.99 501.48 279.57 494.4 280.61 487.73 283.23 480.66 284.28 473.81 286.2 467.12 288.71 460.19 290.36 453.32 292.17 446.27 293.35 439.51 295.63 432.69 297.63 425.64 298.82 418.89 301.14 411.85 302.33 404.97 304.11 398.12 306.05 391.4 308.46 384.5 310.21 377.56 311.8 370.56 313.14 363.78 315.35 356.94 317.36 350.01 318.68"/><polygon class="cls-3" points="537.14 472.99 530.29 474.72 523.35 476.31 516.5 478.24 509.57 479.89 502.78 482.06 495.74 483.26 489 485.61 482 486.98 475.19 489.1 468.34 491.01 461.37 492.52 454.41 494.04 447.52 495.83 440.79 498.23 433.75 499.45 426.85 501.24 419.91 502.83 413.08 504.87 406.13 506.44 399.24 508.26 392.5 510.62 385.41 511.63 378.65 513.96 371.76 515.75 364.91 517.72 357.94 519.22 351.1 521.23 343.99 522.22 337.33 524.28 337.05 517.34 337.11 510.23 336.88 503.13 336.73 496.02 337.35 488.92 337.58 481.82 337.5 474.71 337.38 467.61 336.82 460.5 336.93 453.4 337.57 446.3 337.55 439.19 337.47 432.08 336.88 424.98 336.78 417.87 337.68 410.77 336.95 403.66 337.12 396.55 337.31 389.45 337.06 382.34 337.5 375.23 336.74 368.12 337.28 361.01 337.31 353.9 337.33 346.8 337.12 339.69 337.35 332.58 336.95 325.47 337.08 318.36 337.06 311.25 337.06 304.14 336.95 297.02 337.12 289.84 344.04 287.94 350.97 286.33 358 285.06 364.78 282.85 371.67 281.06 378.66 279.68 385.39 277.29 392.27 275.46 399.13 273.51 406.23 272.57 412.91 269.94 419.91 268.58 426.77 266.66 433.66 264.87 440.52 262.97 447.5 261.52 454.3 259.37 461.22 257.67 468.16 256.05 475.22 254.9 481.9 252.29 488.98 251.24 495.7 248.79 502.62 247.09 509.55 245.43 516.53 244 523.35 241.89 530.21 239.95 537.06 238.69 537.37 245.6 537.15 252.71 537.56 259.82 537.16 266.92 536.79 274.03 537.33 281.13 537.06 288.23 537.29 295.34 537.33 302.44 537.54 309.54 537.35 316.65 537.7 323.75 536.86 330.86 537.48 337.96 537 345.07 537.61 352.18 537.65 359.28 537.6 366.39 536.73 373.5 537.04 380.61 537.09 387.71 537.44 394.82 537.21 401.93 537.33 409.04 537.28 416.15 537.54 423.26 536.98 430.36 537.09 437.47 536.89 444.58 536.8 451.69 536.76 458.8 537.08 465.92 537.14 472.99"/><polygon class="cls-2" points="537.14 472.99 530.29 474.72 523.35 476.31 516.5 478.24 509.57 479.89 502.78 482.06 495.74 483.26 489 485.61 482 486.98 475.19 489.1 468.34 491.01 461.37 492.52 454.41 494.04 447.52 495.83 440.79 498.23 433.75 499.45 426.85 501.24 419.91 502.83 413.08 504.87 406.13 506.44 399.24 508.26 392.5 510.62 385.41 511.63 378.65 513.96 371.76 515.75 364.91 517.72 357.94 519.22 351.1 521.23 343.99 522.22 337.33 524.28 337.05 517.34 337.11 510.23 336.88 503.13 336.73 496.02 337.35 488.92 337.58 481.82 337.5 474.71 337.38 467.61 336.82 460.5 336.93 453.4 337.57 446.3 337.55 439.19 337.47 432.08 336.88 424.98 336.78 417.87 337.68 410.77 336.95 403.66 337.12 396.55 337.31 389.45 337.06 382.34 337.5 375.23 336.74 368.12 337.28 361.01 337.31 353.9 337.33 346.8 337.12 339.69 337.35 332.58 336.95 325.47 337.08 318.36 337.06 311.25 337.06 304.14 336.95 297.02 337.12 289.84 344.04 287.94 350.97 286.33 358 285.06 364.78 282.85 371.67 281.06 378.66 279.68 385.39 277.29 392.27 275.46 399.13 273.51 406.23 272.57 412.91 269.94 419.91 268.58 426.77 266.66 433.66 264.87 440.52 262.97 447.5 261.52 454.3 259.37 461.22 257.67 468.16 256.05 475.22 254.9 481.9 252.29 488.98 251.24 495.7 248.79 502.62 247.09 509.55 245.43 516.53 244 523.35 241.89 530.21 239.95 537.06 238.69 537.37 245.6 537.15 252.71 537.56 259.82 537.16 266.92 536.79 274.03 537.33 281.13 537.06 288.23 537.29 295.34 537.33 302.44 537.54 309.54 537.35 316.65 537.7 323.75 536.86 330.86 537.48 337.96 537 345.07 537.61 352.18 537.65 359.28 537.6 366.39 536.73 373.5 537.04 380.61 537.09 387.71 537.44 394.82 537.21 401.93 537.33 409.04 537.28 416.15 537.54 423.26 536.98 430.36 537.09 437.47 536.89 444.58 536.8 451.69 536.76 458.8 537.08 465.92 537.14 472.99"/><polygon class="cls-3" points="202.24 546.02 209.14 548.45 215.48 552.04 222.26 554.62 228.67 558.02 235.66 560.12 242.13 563.4 248.81 566.21 255.22 569.64 261.89 572.48 268.63 575.14 275.35 577.85 281.92 580.92 288.53 583.88 295.03 587.09 301.69 589.95 308.48 592.51 315.09 595.49 321.9 598 328.58 600.82 335.05 604.11 341.65 607.12 348.11 609.64 348.41 602.85 348.11 595.73 348.79 588.61 348.18 581.49 348.73 574.37 348.46 567.25 347.9 560.13 348.62 553.01 348.55 545.89 347.97 538.77 348.53 531.64 348.02 524.52 348.01 517.41 348.06 510.29 348.57 503.17 347.89 496.05 348.57 488.93 347.86 481.81 348.53 474.69 348.04 467.57 348.49 460.45 348.15 453.33 348.67 446.21 348.45 439.09 348.26 431.97 347.89 424.85 348.82 417.72 348.78 410.6 347.85 403.48 348.21 396.35 348.55 389.23 348.09 382.1 348.13 374.98 348.33 367.86 348.63 360.74 348.14 353.61 348.24 346.49 348.52 339.37 348.54 332.24 347.9 325.1 348.31 317.98 341.72 315.01 334.93 312.46 328.5 309.08 321.8 306.33 315.23 303.27 308.46 300.67 301.92 297.55 295.38 294.41 288.48 292.12 282.11 288.6 275.15 286.42 268.85 282.75 262.26 279.75 255.61 276.88 248.89 274.15 242.21 271.35 235.52 268.55 228.87 265.66 222.37 262.46 215.69 259.64 208.95 256.93 202.31 253.94 202.1 261.09 202.51 268.21 202.35 275.33 202.36 282.45 202.09 289.57 201.85 296.69 202.54 303.81 202.39 310.94 201.93 318.06 202.67 325.18 202.66 332.3 201.88 339.42 202.17 346.54 202.76 353.65 202.32 360.77 202.11 367.89 202.65 375.01 202.22 382.13 201.95 389.25 202.74 396.37 201.98 403.49 202.38 410.61 202.05 417.73 202.38 424.85 202.17 431.98 202.27 439.1 202.52 446.22 202.82 453.34 202.21 460.47 202.76 467.59 201.93 474.71 202.67 481.84 201.83 488.96 202.08 496.08 202.31 503.21 201.92 510.33 202.27 517.46 201.84 524.58 202.59 531.71 202.17 538.84 202.24 546.02"/><polygon class="cls-2" points="202.24 546.02 209.14 548.45 215.48 552.04 222.26 554.62 228.67 558.02 235.66 560.12 242.13 563.4 248.81 566.21 255.22 569.64 261.89 572.48 268.63 575.14 275.35 577.85 281.92 580.92 288.53 583.88 295.03 587.09 301.69 589.95 308.48 592.51 315.09 595.49 321.9 598 328.58 600.82 335.05 604.11 341.65 607.12 348.11 609.64 348.41 602.85 348.11 595.73 348.79 588.61 348.18 581.49 348.73 574.37 348.46 567.25 347.9 560.13 348.62 553.01 348.55 545.89 347.97 538.77 348.53 531.64 348.02 524.52 348.01 517.41 348.06 510.29 348.57 503.17 347.89 496.05 348.57 488.93 347.86 481.81 348.53 474.69 348.04 467.57 348.49 460.45 348.15 453.33 348.67 446.21 348.45 439.09 348.26 431.97 347.89 424.85 348.82 417.72 348.78 410.6 347.85 403.48 348.21 396.35 348.55 389.23 348.09 382.1 348.13 374.98 348.33 367.86 348.63 360.74 348.14 353.61 348.24 346.49 348.52 339.37 348.54 332.24 347.9 325.1 348.31 317.98 341.72 315.01 334.93 312.46 328.5 309.08 321.8 306.33 315.23 303.27 308.46 300.67 301.92 297.55 295.38 294.41 288.48 292.12 282.11 288.6 275.15 286.42 268.85 282.75 262.26 279.75 255.61 276.88 248.89 274.15 242.21 271.35 235.52 268.55 228.87 265.66 222.37 262.46 215.69 259.64 208.95 256.93 202.31 253.94 202.1 261.09 202.51 268.21 202.35 275.33 202.36 282.45 202.09 289.57 201.85 296.69 202.54 303.81 202.39 310.94 201.93 318.06 202.67 325.18 202.66 332.3 201.88 339.42 202.17 346.54 202.76 353.65 202.32 360.77 202.11 367.89 202.65 375.01 202.22 382.13 201.95 389.25 202.74 396.37 201.98 403.49 202.38 410.61 202.05 417.73 202.38 424.85 202.17 431.98 202.27 439.1 202.52 446.22 202.82 453.34 202.21 460.47 202.76 467.59 201.93 474.71 202.67 481.84 201.83 488.96 202.08 496.08 202.31 503.21 201.92 510.33 202.27 517.46 201.84 524.58 202.59 531.71 202.17 538.84 202.24 546.02"/><polygon class="cls-4" points="347.97 299.97 355.03 298.54 361.72 296.78 368.34 294.72 375 292.83 381.7 291.11 388.35 289.2 395.23 288.12 401.8 285.84 408.62 284.26 408.5 291.37 409 298.4 408.69 305.43 409 312.47 408.29 319.5 408.59 326.54 408.54 333.57 408.72 340.61 408.84 347.65 408.83 354.9 401.77 356.07 395.29 358.62 388.44 359.81 381.87 362.01 375.11 363.52 368.42 365.31 361.74 367.12 355.02 368.82 348.28 370.66 348.16 363.56 348.81 356.53 347.93 349.5 347.93 342.46 348.69 335.43 348.05 328.39 348.5 321.36 348.28 314.32 348.18 307.28 347.97 299.97"/><polygon class="cls-4" points="408.91 284.61 415.71 282.3 423.01 280.86 430.14 278.77 437.15 276.24 444.39 274.55 451.7 273.15 458.68 270.49 466.02 269.15 473.31 266.76 472.93 274.02 473.22 281.05 473.55 288.08 473.08 295.12 473.08 302.15 473.46 309.19 472.88 316.22 473.59 323.26 473.63 330.3 473.12 337.32 465.87 338.9 458.71 340.88 451.6 343.03 444.39 344.81 437.16 346.55 430.22 349.31 422.94 350.86 415.73 352.71 408.85 354.3 408.2 347.66 408.55 340.63 409.03 333.59 408.11 326.56 408.64 319.53 408.21 312.49 408.16 305.46 408.29 298.42 408.52 291.38 408.91 284.61"/><polygon class="cls-4" points="473.34 267.14 480.06 265.46 487.04 264.17 493.87 262.3 500.8 260.78 507.55 258.55 514.41 256.77 521.41 255.57 528.52 253.72 528.62 261.01 528.27 268.04 528.31 275.07 528.05 282.11 528.35 289.14 528.13 296.18 528.28 303.21 528.01 310.25 528.61 317.29 528.7 324.63 521.4 325.85 514.6 327.85 507.54 328.77 500.76 330.93 493.77 332.14 487.04 334.47 480.09 335.91 473.22 337.25 473.29 330.31 472.9 323.28 473.14 316.24 473 309.21 472.75 302.18 472.89 295.14 473.13 288.11 473.32 281.07 473.58 274.03 473.34 267.14"/><polygon class="cls-4" points="348.61 370.82 354.95 368.6 361.76 367.29 368.37 365.2 375.05 363.41 381.8 361.84 388.42 359.81 395.28 358.65 401.83 356.34 408.64 354.6 408.82 361.73 408.3 368.76 408.44 375.8 408.18 382.83 408.57 389.86 408.51 396.9 408.91 403.93 408.54 410.97 408.4 418.01 408.51 425.02 401.91 426.95 395.21 428.67 388.43 430.12 381.78 432.02 375.22 434.31 368.44 435.73 361.7 437.34 355.08 439.4 348.17 441.16 348.17 433.92 348.56 426.89 348.19 419.86 348.46 412.82 348.73 405.79 348.51 398.75 347.98 391.72 348.77 384.68 348.77 377.65 348.61 370.82"/><polygon class="cls-4" points="408.48 354.63 415.67 352.54 422.97 351.07 430.04 348.76 437.33 347.25 444.47 345.21 451.68 343.41 458.72 340.99 466.05 339.6 473.35 337.06 473.17 344.38 472.75 351.41 473.51 358.45 472.67 365.48 473.43 372.51 472.67 379.55 472.78 386.58 473.11 393.62 473.18 400.66 472.85 407.47 465.96 409.59 458.93 412.02 451.74 413.91 444.38 415.12 437.31 417.44 430.07 419.14 422.88 421.01 415.82 423.39 408.8 424.72 408.75 418.02 408.44 410.99 408.23 403.95 408.51 396.92 408.21 389.89 409.04 382.85 408.89 375.82 408.61 368.78 408.67 361.74 408.48 354.63"/><polygon class="cls-4" points="472.98 337.21 479.98 335.49 486.94 334.14 493.93 332.89 500.83 331.29 507.71 329.62 514.49 327.49 521.38 325.78 528.56 324.03 528.53 331.37 528.75 338.4 528.46 345.43 528.39 352.47 527.88 359.5 528 366.54 528.73 373.57 527.87 380.61 528.5 387.65 527.93 394.38 521.47 396.51 514.6 398.23 507.64 399.57 500.85 401.64 493.8 402.63 487 404.64 480.09 406.28 473.36 407.43 473.49 400.67 473.56 393.64 473.04 386.61 473.04 379.57 473.17 372.54 473.42 365.5 473.16 358.47 473.47 351.43 472.9 344.39 472.98 337.21"/><polygon class="cls-4" points="348.3 440.94 354.99 439.11 361.81 437.85 368.5 436.06 375.04 433.72 381.77 432.11 388.56 430.72 395.08 428.26 401.96 427.18 408.69 424.89 408.39 432.09 409.06 439.12 408.52 446.16 408.54 453.19 408.31 460.23 408.71 467.26 408.42 474.29 408.27 481.33 408.14 488.37 408.25 495.18 401.83 497 395.13 498.72 388.38 500.28 381.75 502.29 375.13 504.31 368.54 506.46 361.64 507.47 355.09 509.79 348.4 511.23 348.78 504.29 348.04 497.25 348.01 490.22 348.14 483.19 348.82 476.15 347.96 469.12 348.01 462.08 348.72 455.05 348.02 448 348.3 440.94"/><polygon class="cls-4" points="408.81 425.25 415.73 423.12 422.83 420.9 430.18 419.63 437.28 417.43 444.43 415.42 451.61 413.52 458.68 411.21 465.87 409.3 473.38 407.37 473.1 414.74 472.71 421.77 473.24 428.81 473.09 435.84 473.3 442.88 473.37 449.91 473.63 456.94 473.62 463.98 473.16 471.02 473.47 478.33 466.02 480.16 458.73 481.65 451.6 483.73 444.42 485.63 437.23 487.54 430.05 489.42 423.04 491.97 415.69 493.27 408.73 495.19 408.96 488.38 408.53 481.35 408.77 474.32 408.27 467.28 409.06 460.25 408.17 453.21 408.65 446.18 408.25 439.14 408.66 432.1 408.81 425.25"/><polygon class="cls-4" points="473.42 407.93 480.01 405.94 486.86 404.15 493.73 402.41 500.63 400.79 507.53 399.21 514.46 397.7 521.41 396.26 528.47 394.51 527.83 401.73 527.86 408.76 528.81 415.8 528.2 422.83 528.01 429.86 528.69 436.9 528.34 443.93 528.58 450.97 527.95 458.01 528.14 464.91 521.39 466.52 514.55 468.37 507.75 470.39 500.8 471.81 493.87 473.25 486.85 474.37 480.02 476.32 473.04 478.2 473.53 471.03 472.65 464 473.36 456.97 473.35 449.93 472.95 442.9 473.19 435.86 473.43 428.83 472.9 421.79 473.29 414.75 473.42 407.93"/><polygon class="cls-1" points="451.64 190.17 458.73 192.95 465.87 195.73 472.6 199.45 479.72 202.25 486.78 205.21 493.77 208.35 501.43 211.03 494.01 212.76 486.95 213.95 480.11 216.07 473.18 217.81 466.15 219.17 459.26 221.09 452.26 222.55 445.23 223.84 438.41 226.11 431.29 227.1 424.38 229.12 417.31 226.12 410.2 223.28 403.33 219.87 396.05 217.44 389.03 214.4 382.08 211.15 375.32 208 382.07 206.42 388.99 204.63 395.9 202.82 402.81 200.98 409.85 199.67 416.8 198 423.75 196.32 430.83 195.21 437.62 192.84 444.6 191.25 451.64 190.17"/><polygon class="cls-2" points="451.64 190.17 458.73 192.95 465.87 195.73 472.6 199.45 479.72 202.25 486.78 205.21 493.77 208.35 501.43 211.03 494.01 212.76 486.95 213.95 480.11 216.07 473.18 217.81 466.15 219.17 459.26 221.09 452.26 222.55 445.23 223.84 438.41 226.11 431.29 227.1 424.38 229.12 417.31 226.12 410.2 223.28 403.33 219.87 396.05 217.44 389.03 214.4 382.08 211.15 375.32 208 382.07 206.42 388.99 204.63 395.9 202.82 402.81 200.98 409.85 199.67 416.8 198 423.75 196.32 430.83 195.21 437.62 192.84 444.6 191.25 451.64 190.17"/><polygon class="cls-1" points="500.96 210.96 507.78 213.39 514.33 216.38 520.93 219.24 527.5 222.22 533.98 225.37 540.83 227.67 547.37 230.69 554.57 233.32 547.21 235.18 540.13 236.31 533.13 237.74 526.37 240.25 519.34 241.55 512.42 243.38 505.44 244.94 498.46 246.46 491.44 247.84 484.58 249.92 477.55 251.23 471.02 248.2 464.44 245.26 457.59 243 450.9 240.33 444.27 237.51 437.59 234.81 431.08 231.71 424.41 229.02 431.34 227.33 438.42 226.22 445.18 223.77 452.19 222.33 459.27 221.22 466.05 218.82 473.02 217.23 479.97 215.59 487 214.23 493.98 212.67 500.96 210.96"/><polygon class="cls-2" points="500.96 210.96 507.78 213.39 514.33 216.38 520.93 219.24 527.5 222.22 533.98 225.37 540.83 227.67 547.37 230.69 554.57 233.32 547.21 235.18 540.13 236.31 533.13 237.74 526.37 240.25 519.34 241.55 512.42 243.38 505.44 244.94 498.46 246.46 491.44 247.84 484.58 249.92 477.55 251.23 471.02 248.2 464.44 245.26 457.59 243 450.9 240.33 444.27 237.51 437.59 234.81 431.08 231.71 424.41 229.02 431.34 227.33 438.42 226.22 445.18 223.77 452.19 222.33 459.27 221.22 466.05 218.82 473.02 217.23 479.97 215.59 487 214.23 493.98 212.67 500.96 210.96"/><polygon class="cls-1" points="554.1 233.34 560.38 236.13 566.42 239.46 572.79 242.11 579.18 244.7 585.42 247.65 591.41 251.1 598.11 254.08 590.65 256.11 583.5 257.71 576.17 258.54 569.15 260.69 562.04 262.45 554.83 263.78 547.61 265.06 540.58 267.15 533.33 268.34 526.17 269.91 519.14 271.7 512.9 268.99 506.82 265.74 500.35 263.3 494.22 260.16 487.88 257.44 481.65 254.47 476.03 251.36 482.62 249.35 489.76 247.72 497.01 246.56 503.99 244.26 511.17 242.76 518.31 241.15 525.5 239.73 532.71 238.39 539.74 236.25 547.01 235.19 554.1 233.34"/><polygon class="cls-2" points="554.1 233.34 560.38 236.13 566.42 239.46 572.79 242.11 579.18 244.7 585.42 247.65 591.41 251.1 598.11 254.08 590.65 256.11 583.5 257.71 576.17 258.54 569.15 260.69 562.04 262.45 554.83 263.78 547.61 265.06 540.58 267.15 533.33 268.34 526.17 269.91 519.14 271.7 512.9 268.99 506.82 265.74 500.35 263.3 494.22 260.16 487.88 257.44 481.65 254.47 476.03 251.36 482.62 249.35 489.76 247.72 497.01 246.56 503.99 244.26 511.17 242.76 518.31 241.15 525.5 239.73 532.71 238.39 539.74 236.25 547.01 235.19 554.1 233.34"/><polygon class="cls-1" points="375.09 208.14 382.2 210.85 389.32 213.66 396.08 217.33 403.36 219.75 410.18 223.29 417.45 225.76 424.66 229.01 417.44 230.62 410.74 233.17 403.79 234.77 396.86 236.45 389.98 238.34 383.13 240.3 376.17 241.9 369.22 243.51 362.49 245.94 355.42 247.11 348.73 249.71 341.71 251.08 334.87 252.5 327.9 249.74 320.78 246.93 313.67 244.08 306.68 240.99 299.51 238.27 292.55 235.05 285.38 231.98 292.55 230.61 299.22 227.94 306.1 226.07 313.15 224.85 320.1 223.22 326.75 220.52 333.68 218.82 340.52 216.8 347.64 215.81 354.54 214.02 361.21 211.35 368.19 209.8 375.09 208.14"/><polygon class="cls-2" points="375.09 208.14 382.2 210.85 389.32 213.66 396.08 217.33 403.36 219.75 410.18 223.29 417.45 225.76 424.66 229.01 417.44 230.62 410.74 233.17 403.79 234.77 396.86 236.45 389.98 238.34 383.13 240.3 376.17 241.9 369.22 243.51 362.49 245.94 355.42 247.11 348.73 249.71 341.71 251.08 334.87 252.5 327.9 249.74 320.78 246.93 313.67 244.08 306.68 240.99 299.51 238.27 292.55 235.05 285.38 231.98 292.55 230.61 299.22 227.94 306.1 226.07 313.15 224.85 320.1 223.22 326.75 220.52 333.68 218.82 340.52 216.8 347.64 215.81 354.54 214.02 361.21 211.35 368.19 209.8 375.09 208.14"/><polygon class="cls-1" points="424.37 229.39 430.86 232.2 437.71 234.5 444.34 237.29 451.1 239.79 457.52 243.09 464.05 246.15 470.98 248.28 477.38 251.25 470.6 252.9 463.65 254.52 456.83 256.63 449.99 258.62 443.16 260.68 436.23 262.38 429.35 264.23 422.42 265.94 415.55 267.83 408.78 270.11 401.78 271.58 394.78 273.04 387.97 275.37 381.45 272.19 374.61 269.89 367.88 267.33 361.24 264.52 354.85 261.16 348.11 258.6 341.38 256.02 334.62 252.98 341.7 251.08 348.56 249.13 355.56 247.72 362.36 245.52 369.26 243.73 376.18 242.03 383.03 240.05 389.82 237.84 396.9 236.69 403.73 234.62 410.54 232.5 417.54 231.06 424.37 229.39"/><polygon class="cls-2" points="424.37 229.39 430.86 232.2 437.71 234.5 444.34 237.29 451.1 239.79 457.52 243.09 464.05 246.15 470.98 248.28 477.38 251.25 470.6 252.9 463.65 254.52 456.83 256.63 449.99 258.62 443.16 260.68 436.23 262.38 429.35 264.23 422.42 265.94 415.55 267.83 408.78 270.11 401.78 271.58 394.78 273.04 387.97 275.37 381.45 272.19 374.61 269.89 367.88 267.33 361.24 264.52 354.85 261.16 348.11 258.6 341.38 256.02 334.62 252.98 341.7 251.08 348.56 249.13 355.56 247.72 362.36 245.52 369.26 243.73 376.18 242.03 383.03 240.05 389.82 237.84 396.9 236.69 403.73 234.62 410.54 232.5 417.54 231.06 424.37 229.39"/><polygon class="cls-1" points="477.52 251.53 483.85 254.03 489.95 257.24 496.35 259.83 502.3 263.35 508.61 266.13 514.68 269.43 521.41 272 514.16 273.57 507.3 275.5 500.5 277.69 493.49 279.06 486.64 281.06 479.74 282.83 472.79 284.44 466.06 286.91 459.16 288.69 452.24 290.4 445.24 291.87 438.36 293.75 431.59 295.44 425.38 292.88 418.98 290.3 412.76 287.34 406.81 283.81 400.4 281.24 394.35 277.89 387.87 275.22 394.95 273.71 401.75 271.52 408.59 269.5 415.63 268.23 422.42 266.01 429.34 264.31 436.18 262.29 443.12 260.63 449.95 258.58 456.97 257.23 463.69 254.72 470.72 253.39 477.52 251.53"/><polygon class="cls-2" points="477.52 251.53 483.85 254.03 489.95 257.24 496.35 259.83 502.3 263.35 508.61 266.13 514.68 269.43 521.41 272 514.16 273.57 507.3 275.5 500.5 277.69 493.49 279.06 486.64 281.06 479.74 282.83 472.79 284.44 466.06 286.91 459.16 288.69 452.24 290.4 445.24 291.87 438.36 293.75 431.59 295.44 425.38 292.88 418.98 290.3 412.76 287.34 406.81 283.81 400.4 281.24 394.35 277.89 387.87 275.22 394.95 273.71 401.75 271.52 408.59 269.5 415.63 268.23 422.42 266.01 429.34 264.31 436.18 262.29 443.12 260.63 449.95 258.58 456.97 257.23 463.69 254.72 470.72 253.39 477.52 251.53"/><polygon class="cls-1" points="285.51 232.43 291.64 234.87 297.86 237.51 304.22 239.8 310.29 242.78 316.59 245.24 322.76 248 328.43 250.94 322.08 253.08 315.23 254.79 308.49 256.9 301.54 258.26 294.79 260.34 287.96 262.11 281.2 264.15 274.52 266.5 267.75 268.49 260.84 270.01 254.17 272.38 247.25 274.23 241.21 270.96 235.1 268.08 228.92 265.37 222.71 262.71 216.42 260.23 210.17 257.65 203.63 254.91 210.82 253.23 217.66 251.45 224.43 249.47 231.05 246.92 237.83 244.98 244.75 243.51 251.5 241.4 258.3 239.5 265.15 237.82 271.98 235.98 278.69 233.73 285.51 232.43"/><polygon class="cls-2" points="285.51 232.43 291.64 234.87 297.86 237.51 304.22 239.8 310.29 242.78 316.59 245.24 322.76 248 328.43 250.94 322.08 253.08 315.23 254.79 308.49 256.9 301.54 258.26 294.79 260.34 287.96 262.11 281.2 264.15 274.52 266.5 267.75 268.49 260.84 270.01 254.17 272.38 247.25 274.23 241.21 270.96 235.1 268.08 228.92 265.37 222.71 262.71 216.42 260.23 210.17 257.65 203.63 254.91 210.82 253.23 217.66 251.45 224.43 249.47 231.05 246.92 237.83 244.98 244.75 243.51 251.5 241.4 258.3 239.5 265.15 237.82 271.98 235.98 278.69 233.73 285.51 232.43"/><polygon class="cls-1" points="328.82 251.13 335.3 254.19 342.07 256.65 348.76 259.31 355.35 262.23 361.95 265.1 368.7 267.62 375.14 270.9 382.48 273.25 375.14 275 368.33 276.84 361.69 279.31 354.73 280.63 348.07 283.05 341.19 284.65 334.43 286.69 327.69 288.8 320.93 290.82 314.14 292.77 307.33 294.69 300.42 296.25 293.78 293.42 287.2 290.5 280.56 287.72 273.86 285.06 267.3 282.1 260.71 279.2 253.72 277.21 247.22 273.96 253.96 271.67 260.89 270.24 267.76 268.61 274.5 266.51 281.14 264.03 288.05 262.51 294.96 261.02 301.6 258.55 308.33 256.42 315.35 255.27 322.11 253.21 328.82 251.13"/><polygon class="cls-2" points="328.82 251.13 335.3 254.19 342.07 256.65 348.76 259.31 355.35 262.23 361.95 265.1 368.7 267.62 375.14 270.9 382.48 273.25 375.14 275 368.33 276.84 361.69 279.31 354.73 280.63 348.07 283.05 341.19 284.65 334.43 286.69 327.69 288.8 320.93 290.82 314.14 292.77 307.33 294.69 300.42 296.25 293.78 293.42 287.2 290.5 280.56 287.72 273.86 285.06 267.3 282.1 260.71 279.2 253.72 277.21 247.22 273.96 253.96 271.67 260.89 270.24 267.76 268.61 274.5 266.51 281.14 264.03 288.05 262.51 294.96 261.02 301.6 258.55 308.33 256.42 315.35 255.27 322.11 253.21 328.82 251.13"/><polygon class="cls-1" points="381.96 273.56 388.31 275.77 394.46 278.71 400.72 281.4 406.96 284.14 413.1 287.09 419.19 290.16 425.27 293.27 431.74 295.96 424.85 298.17 417.86 299.41 411.07 301.35 404.5 304.03 397.67 305.83 390.9 307.85 384.11 309.77 377.09 310.88 370.45 313.36 363.5 314.75 356.87 317.27 350 318.79 343.94 315.76 337.46 313.55 331.6 309.98 325.04 307.95 318.88 305.03 312.63 302.3 306.41 299.5 300.69 296.24 307.11 293.93 314.08 292.64 320.86 290.65 327.68 288.85 334.46 286.88 341.29 285.08 347.94 282.64 354.76 280.82 361.62 279.15 368.44 277.3 375.16 275.1 381.96 273.56"/><polygon class="cls-2" points="381.96 273.56 388.31 275.77 394.46 278.71 400.72 281.4 406.96 284.14 413.1 287.09 419.19 290.16 425.27 293.27 431.74 295.96 424.85 298.17 417.86 299.41 411.07 301.35 404.5 304.03 397.67 305.83 390.9 307.85 384.11 309.77 377.09 310.88 370.45 313.36 363.5 314.75 356.87 317.27 350 318.79 343.94 315.76 337.46 313.55 331.6 309.98 325.04 307.95 318.88 305.03 312.63 302.3 306.41 299.5 300.69 296.24 307.11 293.93 314.08 292.64 320.86 290.65 327.68 288.85 334.46 286.88 341.29 285.08 347.94 282.64 354.76 280.82 361.62 279.15 368.44 277.3 375.16 275.1 381.96 273.56"/><polygon points="537.23 270.02 531.4 274.09 525.6 278.38 520.1 283.06 514.49 287.62 508.84 292.09 503.14 296.51 497.52 301.05 491.66 305.26 485.91 309.62 480.17 314 474.36 318.28 468.52 322.52 462.72 326.82 457.45 331.81 451.38 335.75 445.94 340.52 440.05 344.7 434.23 348.98 428.41 353.25 422.69 357.66 416.83 361.89 411.56 366.88 405.89 371.34 400.07 375.61 393.93 379.46 388.71 384.53 382.86 388.77 376.73 392.63 371.45 397.62 365.69 401.98 359.87 406.26 353.91 410.38 348.36 414.9 348.58 407.59 348.21 400.21 348.17 392.82 348.09 385.44 347.93 378.06 347.85 370.68 348.68 363.29 348.42 355.91 348.14 348.52 347.97 341.14 348.69 333.75 348.05 326.36 348.11 318.81 355.21 316.72 362.4 315.66 369.39 313.83 376.38 311.97 383.38 310.17 390.26 307.91 397.39 306.6 404.3 304.48 411.37 302.93 418.32 300.92 425.42 299.48 432.3 297.22 439.17 294.91 446.31 293.62 453.33 291.9 460.31 289.98 467.34 288.31 474.34 286.46 481.37 284.79 488.36 282.92 495.22 280.55 502.19 278.65 509.18 276.78 516.2 275.02 523.39 273.92 530.28 271.67 537.23 270.02"/><polygon class="cls-2" points="537.23 270.02 531.4 274.09 525.6 278.38 520.1 283.06 514.49 287.62 508.84 292.09 503.14 296.51 497.52 301.05 491.66 305.26 485.91 309.62 480.17 314 474.36 318.28 468.52 322.52 462.72 326.82 457.45 331.81 451.38 335.75 445.94 340.52 440.05 344.7 434.23 348.98 428.41 353.25 422.69 357.66 416.83 361.89 411.56 366.88 405.89 371.34 400.07 375.61 393.93 379.46 388.71 384.53 382.86 388.77 376.73 392.63 371.45 397.62 365.69 401.98 359.87 406.26 353.91 410.38 348.36 414.9 348.58 407.59 348.21 400.21 348.17 392.82 348.09 385.44 347.93 378.06 347.85 370.68 348.68 363.29 348.42 355.91 348.14 348.52 347.97 341.14 348.69 333.75 348.05 326.36 348.11 318.81 355.21 316.72 362.4 315.66 369.39 313.83 376.38 311.97 383.38 310.17 390.26 307.91 397.39 306.6 404.3 304.48 411.37 302.93 418.32 300.92 425.42 299.48 432.3 297.22 439.17 294.91 446.31 293.62 453.33 291.9 460.31 289.98 467.34 288.31 474.34 286.46 481.37 284.79 488.36 282.92 495.22 280.55 502.19 278.65 509.18 276.78 516.2 275.02 523.39 273.92 530.28 271.67 537.23 270.02"/><polygon class="cls-2" points="550.51 549.07 549.74 556.19 547.42 562.98 543.04 568.69 536.32 571.42 529.84 568.41 525.08 563.05 523.23 556.12 522.1 549.07 522.87 541.48 524.9 534.15 527.39 526.97 529.47 519.67 531.77 512.45 534.07 505.21 536.32 497.98 538.78 505.15 541.07 512.38 543.23 519.65 545.82 526.8 547.94 534.1 548.99 541.63 550.51 549.07"/><polygon points="487.33 569.07 486.81 576.21 484.09 582.8 479.86 588.48 473.32 590.52 467.01 588.2 462.33 582.92 459.7 576.24 458.89 569.07 460.69 561.64 461.59 554.07 463.86 546.82 466.3 539.62 468.14 532.24 471.29 525.29 473.32 518.13 475.84 525.13 478.12 532.36 480.1 539.69 483.07 546.73 485.15 554.04 486.39 561.55 487.33 569.07"/><polygon class="cls-2" points="487.33 569.07 486.81 576.21 484.09 582.8 479.86 588.48 473.32 590.52 467.01 588.2 462.33 582.92 459.7 576.24 458.89 569.07 460.69 561.64 461.59 554.07 463.86 546.82 466.3 539.62 468.14 532.24 471.29 525.29 473.32 518.13 475.84 525.13 478.12 532.36 480.1 539.69 483.07 546.73 485.15 554.04 486.39 561.55 487.33 569.07"/><polygon class="cls-3" points="427.97 583.07 427.61 590.16 425.24 596.88 420.88 602.49 414.32 605.25 407.74 602.53 403.33 596.92 400.96 590.18 400.68 583.07 401.49 575.6 402.86 568.14 405.18 560.91 406.7 553.43 409.56 546.38 412.16 539.25 414.32 532.01 416.34 539.3 419.01 546.4 421.89 553.45 423.91 560.77 425.8 568.13 427.64 575.51 427.97 583.07"/><polygon class="cls-2" points="427.97 583.07 427.61 590.16 425.24 596.88 420.88 602.49 414.32 605.25 407.74 602.53 403.33 596.92 400.96 590.18 400.68 583.07 401.49 575.6 402.86 568.14 405.18 560.91 406.7 553.43 409.56 546.38 412.16 539.25 414.32 532.01 416.34 539.3 419.01 546.4 421.89 553.45 423.91 560.77 425.8 568.13 427.64 575.51 427.97 583.07"/><polygon class="cls-3" points="348.45 317.89 341.48 314.54 334.37 311.68 327.27 308.81 320.34 305.57 313.6 301.9 306.28 299.5 299.64 296.3 299.09 302.92 299.79 309.87 299.22 316.82 299.76 323.78 299.33 330.73 299.25 337.68 298.96 344.63 299.31 351.58 299.49 358.53 299.35 365.48 299.81 372.43 299.91 379.38 299.05 386.35 299.13 393.53 306.55 396.2 313.5 399.4 320.46 402.58 327.27 406.09 334.54 408.59 341.37 412.08 348.46 415.55 347.98 408.35 348.1 401.4 348.3 394.45 348.32 387.5 348.77 380.55 348.75 373.6 348.65 366.65 348.63 359.7 347.95 352.75 348.67 345.8 348.46 338.85 348.2 331.89 348.29 324.93 348.45 317.89"/><polygon class="cls-2" points="348.45 317.89 341.48 314.54 334.37 311.68 327.27 308.81 320.34 305.57 313.6 301.9 306.28 299.5 299.64 296.3 299.09 302.92 299.79 309.87 299.22 316.82 299.76 323.78 299.33 330.73 299.25 337.68 298.96 344.63 299.31 351.58 299.49 358.53 299.35 365.48 299.81 372.43 299.91 379.38 299.05 386.35 299.13 393.53 306.55 396.2 313.5 399.4 320.46 402.58 327.27 406.09 334.54 408.59 341.37 412.08 348.46 415.55 347.98 408.35 348.1 401.4 348.3 394.45 348.32 387.5 348.77 380.55 348.75 373.6 348.65 366.65 348.63 359.7 347.95 352.75 348.67 345.8 348.46 338.85 348.2 331.89 348.29 324.93 348.45 317.89"/><polygon class="cls-3" points="299.68 295.83 293.01 292.76 286.19 290.38 279.78 287.07 273.29 283.95 266.87 280.68 260.23 277.9 253.53 275.19 246.86 271.6 246.81 278.92 247.5 285.87 247.22 292.82 246.85 299.78 247.21 306.73 247.1 313.68 247.16 320.63 246.96 327.58 246.72 334.53 247.53 341.48 247.1 348.43 247.25 355.38 247.54 362.35 247.15 369.26 253.77 371.99 260.01 375.65 266.82 378.06 273.29 381.24 279.95 383.98 286.23 387.57 292.73 390.69 299.33 393.08 299.6 386.35 299.1 379.4 299.1 372.45 299.4 365.5 299.23 358.55 299.18 351.6 299.36 344.65 299.59 337.7 299.47 330.75 299.76 323.8 299.5 316.85 299.12 309.89 299.06 302.93 299.68 295.83"/><polygon class="cls-2" points="299.68 295.83 293.01 292.76 286.19 290.38 279.78 287.07 273.29 283.95 266.87 280.68 260.23 277.9 253.53 275.19 246.86 271.6 246.81 278.92 247.5 285.87 247.22 292.82 246.85 299.78 247.21 306.73 247.1 313.68 247.16 320.63 246.96 327.58 246.72 334.53 247.53 341.48 247.1 348.43 247.25 355.38 247.54 362.35 247.15 369.26 253.77 371.99 260.01 375.65 266.82 378.06 273.29 381.24 279.95 383.98 286.23 387.57 292.73 390.69 299.33 393.08 299.6 386.35 299.1 379.4 299.1 372.45 299.4 365.5 299.23 358.55 299.18 351.6 299.36 344.65 299.59 337.7 299.47 330.75 299.76 323.8 299.5 316.85 299.12 309.89 299.06 302.93 299.68 295.83"/><polygon class="cls-3" points="247.06 271.98 240.59 269.65 234.13 267.25 227.83 264.45 221.35 262.11 215.26 258.76 208.54 256.99 202.57 254.34 202.59 260.92 202.71 267.87 202.3 274.82 202.59 281.78 202.5 288.73 202.29 295.68 201.88 302.63 202.76 309.58 202.74 316.53 202.4 323.48 202.77 330.43 202.34 337.38 201.88 344.35 202.34 351.3 208.85 353.53 214.98 356.77 221.58 358.81 227.81 361.79 234.12 364.56 240.52 367.13 247.12 369.36 247.13 362.35 246.69 355.4 247.31 348.45 247.48 341.5 246.92 334.55 246.64 327.6 247.11 320.65 247.09 313.7 247.24 306.75 247.5 299.8 247.3 292.85 247.47 285.89 247.07 278.93 247.06 271.98"/><polygon class="cls-2" points="247.06 271.98 240.59 269.65 234.13 267.25 227.83 264.45 221.35 262.11 215.26 258.76 208.54 256.99 202.57 254.34 202.59 260.92 202.71 267.87 202.3 274.82 202.59 281.78 202.5 288.73 202.29 295.68 201.88 302.63 202.76 309.58 202.74 316.53 202.4 323.48 202.77 330.43 202.34 337.38 201.88 344.35 202.34 351.3 208.85 353.53 214.98 356.77 221.58 358.81 227.81 361.79 234.12 364.56 240.52 367.13 247.12 369.36 247.13 362.35 246.69 355.4 247.31 348.45 247.48 341.5 246.92 334.55 246.64 327.6 247.11 320.65 247.09 313.7 247.24 306.75 247.5 299.8 247.3 292.85 247.47 285.89 247.07 278.93 247.06 271.98"/><polygon class="cls-3" points="348.22 415.38 341.18 412.53 334.54 408.65 327.59 405.44 320.58 402.38 313.3 399.89 306.53 396.27 299.66 393.66 299.93 400.26 299.05 407.21 299.11 414.16 299.15 421.11 299.09 428.06 299.49 435.01 299.26 441.96 299.47 448.91 299.08 455.86 299.19 462.81 299.24 469.76 299.49 476.72 299.67 483.68 299.54 490.58 306.52 493.6 313.42 496.92 320.31 500.26 327.21 503.55 334.31 506.45 341.45 509.25 348.14 512.3 348.3 505.69 348.32 498.74 348.48 491.79 348.64 484.83 348.02 477.88 348.54 470.93 348.67 463.98 348.38 457.03 348.07 450.08 348.11 443.13 347.98 436.18 347.99 429.23 348.47 422.26 348.22 415.38"/><polygon class="cls-2" points="348.22 415.38 341.18 412.53 334.54 408.65 327.59 405.44 320.58 402.38 313.3 399.89 306.53 396.27 299.66 393.66 299.93 400.26 299.05 407.21 299.11 414.16 299.15 421.11 299.09 428.06 299.49 435.01 299.26 441.96 299.47 448.91 299.08 455.86 299.19 462.81 299.24 469.76 299.49 476.72 299.67 483.68 299.54 490.58 306.52 493.6 313.42 496.92 320.31 500.26 327.21 503.55 334.31 506.45 341.45 509.25 348.14 512.3 348.3 505.69 348.32 498.74 348.48 491.79 348.64 484.83 348.02 477.88 348.54 470.93 348.67 463.98 348.38 457.03 348.07 450.08 348.11 443.13 347.98 436.18 347.99 429.23 348.47 422.26 348.22 415.38"/><polygon class="cls-3" points="299.66 393.17 293.05 390.03 286.56 386.9 280.02 383.9 273.18 381.52 266.88 378 260.19 375.31 253.84 371.87 247.16 369.44 246.84 376.26 246.75 383.21 246.78 390.16 246.63 397.11 246.64 404.06 247.25 411.01 246.78 417.96 247.13 424.91 247.27 431.86 247.42 438.81 247.44 445.76 246.71 452.72 247.23 459.68 247.47 466.38 253.64 469.62 260.12 472.74 266.83 475.38 273.06 479.07 279.96 481.31 286.21 484.96 292.95 487.54 299.29 490.36 299.95 483.69 298.98 476.74 299.15 469.79 299.89 462.83 299.01 455.88 299.63 448.93 299.7 441.98 298.99 435.03 299.33 428.08 299.12 421.13 299.77 414.18 299.28 407.23 299.02 400.26 299.66 393.17"/><polygon class="cls-2" points="299.66 393.17 293.05 390.03 286.56 386.9 280.02 383.9 273.18 381.52 266.88 378 260.19 375.31 253.84 371.87 247.16 369.44 246.84 376.26 246.75 383.21 246.78 390.16 246.63 397.11 246.64 404.06 247.25 411.01 246.78 417.96 247.13 424.91 247.27 431.86 247.42 438.81 247.44 445.76 246.71 452.72 247.23 459.68 247.47 466.38 253.64 469.62 260.12 472.74 266.83 475.38 273.06 479.07 279.96 481.31 286.21 484.96 292.95 487.54 299.29 490.36 299.95 483.69 298.98 476.74 299.15 469.79 299.89 462.83 299.01 455.88 299.63 448.93 299.7 441.98 298.99 435.03 299.33 428.08 299.12 421.13 299.77 414.18 299.28 407.23 299.02 400.26 299.66 393.17"/><polygon class="cls-3" points="247.18 369.24 240.56 367.06 234.39 363.93 227.76 361.97 221.58 358.87 215.3 356 208.77 353.75 202.57 351.66 201.92 358.26 202.22 365.21 202.22 372.16 202.17 379.11 201.83 386.06 201.91 393.01 202.3 399.96 202.72 406.91 202.23 413.86 202.11 420.81 201.93 427.76 202.07 434.72 202.5 441.68 201.91 448.91 208.78 451.05 214.98 454.09 221.37 456.66 227.91 458.87 234.17 461.78 240.7 464.02 247.28 466.92 246.6 459.69 247 452.74 247.11 445.79 246.97 438.83 246.72 431.88 247.06 424.93 247.48 417.98 246.82 411.03 247.03 404.08 247.51 397.13 246.76 390.18 247.31 383.23 247.16 376.26 247.18 369.24"/><polygon class="cls-2" points="247.18 369.24 240.56 367.06 234.39 363.93 227.76 361.97 221.58 358.87 215.3 356 208.77 353.75 202.57 351.66 201.92 358.26 202.22 365.21 202.22 372.16 202.17 379.11 201.83 386.06 201.91 393.01 202.3 399.96 202.72 406.91 202.23 413.86 202.11 420.81 201.93 427.76 202.07 434.72 202.5 441.68 201.91 448.91 208.78 451.05 214.98 454.09 221.37 456.66 227.91 458.87 234.17 461.78 240.7 464.02 247.28 466.92 246.6 459.69 247 452.74 247.11 445.79 246.97 438.83 246.72 431.88 247.06 424.93 247.48 417.98 246.82 411.03 247.03 404.08 247.51 397.13 246.76 390.18 247.31 383.23 247.16 376.26 247.18 369.24"/><polygon class="cls-3" points="348.28 512.67 341.47 509.23 334.18 506.77 327.21 503.62 320.54 499.81 313.23 497.37 306.6 493.44 299.68 491.04 299.45 497.59 299.06 504.54 299.18 511.49 299.62 518.44 299.16 525.39 299.33 532.34 299.65 539.29 299.64 546.24 299.83 553.2 299.18 560.15 299.45 567.1 299.06 574.05 299.13 581.01 299.58 587.89 306.44 591.11 313.36 594.37 320.57 597.01 327.51 600.22 334.49 603.38 341.28 606.96 348.16 609.67 348.36 603.02 348.72 596.07 348.53 589.12 348.67 582.17 348.42 575.22 348.39 568.27 348.33 561.32 348.49 554.37 348.43 547.41 348.62 540.46 348.25 533.51 348.81 526.56 348.54 519.6 348.28 512.67"/><polygon class="cls-2" points="348.28 512.67 341.47 509.23 334.18 506.77 327.21 503.62 320.54 499.81 313.23 497.37 306.6 493.44 299.68 491.04 299.45 497.59 299.06 504.54 299.18 511.49 299.62 518.44 299.16 525.39 299.33 532.34 299.65 539.29 299.64 546.24 299.83 553.2 299.18 560.15 299.45 567.1 299.06 574.05 299.13 581.01 299.58 587.89 306.44 591.11 313.36 594.37 320.57 597.01 327.51 600.22 334.49 603.38 341.28 606.96 348.16 609.67 348.36 603.02 348.72 596.07 348.53 589.12 348.67 582.17 348.42 575.22 348.39 568.27 348.33 561.32 348.49 554.37 348.43 547.41 348.62 540.46 348.25 533.51 348.81 526.56 348.54 519.6 348.28 512.67"/><polygon class="cls-3" points="299.71 490.48 293.11 487.21 286.56 484.24 279.99 481.29 273.29 478.63 266.84 475.42 259.98 473.09 253.79 469.3 247.02 466.54 247.25 473.59 246.59 480.54 246.78 487.49 246.9 494.44 246.91 501.39 247.46 508.34 246.94 515.29 247.52 522.24 247.44 529.2 246.78 536.15 247.08 543.1 247.08 550.05 246.78 557.01 247.28 563.84 253.83 566.53 260.33 569.62 266.7 573 273.45 575.56 279.62 579.38 286.5 581.66 292.82 585.16 299.59 588.19 299.75 581.02 299.72 574.07 299.74 567.12 299.73 560.17 299.71 553.22 299.1 546.27 299.3 539.32 299.41 532.37 299.32 525.41 299.52 518.46 298.98 511.51 299.48 504.56 299.94 497.61 299.71 490.48"/><polygon class="cls-2" points="299.71 490.48 293.11 487.21 286.56 484.24 279.99 481.29 273.29 478.63 266.84 475.42 259.98 473.09 253.79 469.3 247.02 466.54 247.25 473.59 246.59 480.54 246.78 487.49 246.9 494.44 246.91 501.39 247.46 508.34 246.94 515.29 247.52 522.24 247.44 529.2 246.78 536.15 247.08 543.1 247.08 550.05 246.78 557.01 247.28 563.84 253.83 566.53 260.33 569.62 266.7 573 273.45 575.56 279.62 579.38 286.5 581.66 292.82 585.16 299.59 588.19 299.75 581.02 299.72 574.07 299.74 567.12 299.73 560.17 299.71 553.22 299.1 546.27 299.3 539.32 299.41 532.37 299.32 525.41 299.52 518.46 298.98 511.51 299.48 504.56 299.94 497.61 299.71 490.48"/><polygon class="cls-3" points="247.07 466.65 240.63 464.22 234.44 461.14 227.95 458.81 221.54 456.31 214.98 454.14 208.83 450.95 202.36 448.69 202.25 455.59 201.97 462.54 202.37 469.49 202.6 476.44 202.82 483.39 202.17 490.34 202.19 497.29 202.67 504.24 202.09 511.19 202.13 518.15 201.88 525.1 201.98 532.05 201.86 539.01 202.6 545.79 208.65 548.71 215.21 550.86 221.31 554.14 227.97 556.04 234.31 558.76 240.62 561.54 246.88 563.68 247 557.02 246.65 550.07 247.43 543.12 247.38 536.17 247.51 529.22 246.84 522.27 246.62 515.32 247.19 508.37 246.99 501.42 246.65 494.46 247.56 487.51 246.73 480.56 246.6 473.6 247.07 466.65"/><polygon class="cls-2" points="247.07 466.65 240.63 464.22 234.44 461.14 227.95 458.81 221.54 456.31 214.98 454.14 208.83 450.95 202.36 448.69 202.25 455.59 201.97 462.54 202.37 469.49 202.6 476.44 202.82 483.39 202.17 490.34 202.19 497.29 202.67 504.24 202.09 511.19 202.13 518.15 201.88 525.1 201.98 532.05 201.86 539.01 202.6 545.79 208.65 548.71 215.21 550.86 221.31 554.14 227.97 556.04 234.31 558.76 240.62 561.54 246.88 563.68 247 557.02 246.65 550.07 247.43 543.12 247.38 536.17 247.51 529.22 246.84 522.27 246.62 515.32 247.19 508.37 246.99 501.42 246.65 494.46 247.56 487.51 246.73 480.56 246.6 473.6 247.07 466.65"/></svg>