<svg xmlns="http://www.w3.org/2000/svg" viewBox="0 0 800 800"><defs><style>.a{fill:#e83131}.b{fill:#fff}.c{fill:#fca14f}</style></defs><path d="M527.76 301.79a77.28 77.28 0 0 1-2.14 19.27c-2 7.72-4.91 15-10.07 21.41a54.69 54.69 0 0 1-10.73 10.29 42.22 42.22 0 0 1-12.8 6.39c-5.4 1.54-10.93 2.79-15.94 5.47a3.52 3.52 0 0 0-1.73 1.57c-1.85 5.62-3.58 11.27-5.31 16.93a9.06 9.06 0 0 0-.17 1.82 15.82 15.82 0 0 0 1.77-.69c7.33-3.88 11.68-10 13.45-18 .47-2.15 1-2.71 2.2-2.54 1.51.19 3.65 2.12 3.46 3.44-.68 4.8 0 9.82-2.72 14.29-1.27 2.12-1.93 4.59-3 6.84-2.16 4.61-6.3 7.42-9.9 10.71a23 23 0 0 1-13 5.58c-1.07.13-1.36.66-1.77 1.4a46.59 46.59 0 0 1-2.91 5c-.72 1-.65 1.63.36 2.23a4.33 4.33 0 0 0 .73.4c4.05 1.39 8.12 2.59 12.38.85 2.56-1.05 5.09-2.16 7.67-3.15a19.91 19.91 0 0 0 6.67-4.88c1.64-1.62 3.24-3.29 4.77-5a53.25 53.25 0 0 0 13.16-27.94c.19-1.25.15-2.71 1.86-3 2.18-.39 3.8.39 4.46 2.37a22.55 22.55 0 0 1 1.21 5.4 72.4 72.4 0 0 1-3.21 27.65 24 24 0 0 1-4.66 8.44c-3.22 3.68-6.34 7.49-9.88 10.85s-7.71 5.35-12 7.33c-6 2.78-12.32 5-17.94 8.58-2.56 1.63-4.94 3.55-7.39 5.37a25.61 25.61 0 0 1-2.84 2.19 31.68 31.68 0 0 0-10.7 9.91c-3.6 5.1-7.12 10.3-9.16 16.33-1.18 3.5-2.74 6.87-4.12 10.3a133.93 133.93 0 0 0-6.33 21.77c-1.06 5-2 10-2.59 15a145.78 145.78 0 0 0-1.48 19.59c.05 3.41-.27 6.82-.27 10.23a62 62 0 0 0 .43 7.46c.72 5.95 1.64 11.88 2.36 17.83.93 7.55 3 14.81 5.09 22.09 1.41 5 2.56 10 3.67 15.08a26.77 26.77 0 0 1 .36 5.46 4 4 0 0 1-.72 2 213.78 213.78 0 0 0-14.26 26c-2 4.33-4 8.68-6 13-.08.17-.16.34-.25.5-2.35 3.77-5 3.89-7.3.15-2.75-4.46-5.27-9.06-7.94-13.57-1.25-2.12-2.67-4.14-3.89-6.27s-2.33-4.6-3.66-6.81c-1.94-3.23-4-6.42-6.09-9.54a9 9 0 0 1-1.51-7.55c2.53-9.93 4.26-20 5.83-30.14.66-4.28 1.63-8.5 1.79-12.86.23-6.64.51-13.29 1.12-19.91.71-7.71-.32-15.3-1.2-22.9a264.18 264.18 0 0 0-5.54-32.5c-1.39-5.7-3.48-11.22-5.25-16.83a70.91 70.91 0 0 0-6.48-14.07 61.36 61.36 0 0 0-12.87-16.14c-2.93-2.52-5.47-5.5-8.37-8.07-5.8-5.15-11.74-10.14-17.59-15.25-4.24-3.7-8.64-7.26-12.55-11.28a30.81 30.81 0 0 1-6.8-9.37 5.53 5.53 0 0 0-.66-1.22c-3.56-4.53-4.55-10-5.67-15.44a35.1 35.1 0 0 1 .12-13.24c.23-1.3.14-2.66 1.21-3.8 1.74-1.85 2.88-1.85 3.73.48a41.26 41.26 0 0 1 1.72 6.39c1 5.16 4.05 9 7.5 12.7 1.14 1.21 2.11 2.59 3.35 3.67 3.77 3.25 7.53 6.54 11.52 9.5a9.5 9.5 0 0 0 8.14 1.73c1-.23 1.52-.57.89-1.71-1.53-2.79-3.21-5.37-6.13-6.95-5.19-2.83-8.81-7.29-12-12.06a77 77 0 0 1-6.89-12.89c-.94-2.21-1.81-4.45-2.71-6.67a4.72 4.72 0 0 1-.18-.53c-.48-1.87 0-3.59 1.15-4.25s3.12 0 4.37 1.47c2 2.33 3.8 4.79 5.94 6.95a23 23 0 0 0 4.52 3.07c.77.48 1.21.2 1.12-.76-.21-2.2-.33-4.41-.64-6.6a3.25 3.25 0 0 0-1.12-1.77c-4.41-3.8-8.83-7.6-13.31-11.31-2.84-2.36-5.86-4.5-8.68-6.88-3.39-2.85-6.7-5.81-9.95-8.81a43.84 43.84 0 0 1-9.66-13.75c-1-2.17-1.84-4.45-2.84-6.63-2.26-5-2.61-10.38-3.83-15.59-2-8.54-1.5-17.09.5-25.53.65-2.73 2.14-5.28 3.3-7.88.45-1 1.37-1.8 2.42-1.22a3.2 3.2 0 0 1 1.17 2.23c.41 3.48.34 7 1 10.45 1.37 7 3.16 13.77 6.78 20.1 2.83 4.95 5.8 9.68 9.91 13.59 3.72 3.54 7.82 6.54 13.37 6.3a10.55 10.55 0 0 0 1.38-.11c1-.18 1.4-.61 1.07-1.74a63.06 63.06 0 0 1-2-8.05 12.08 12.08 0 0 0-4.78-8.56c-1.92-1.44-3.29-3.71-4.63-5.79a101.45 101.45 0 0 1-5.89-10c-1.88-3.8-3.33-7.81-5-11.73-3.32-7.94-4-16.29-3.69-24.77a20.47 20.47 0 0 1 .44-3.29 2.25 2.25 0 0 1 2.34-1.95 2.58 2.58 0 0 1 2.73 1.93c.3 1 .32 2 .57 3a43.07 43.07 0 0 0 7.37 15.7 60.61 60.61 0 0 0 7 7c1 .89 1.57.53 1.72-.89.4-3.67.74-7.35 1.15-11 .17-1.46.43-2.92.68-4.37a4.75 4.75 0 0 0-1-3.86c-2.62-3.47-5.22-7-7.57-10.6-4.12-6.35-8-12.86-10.07-20.24-.7-2.47-1.79-4.84-2.47-7.32-.5-1.85-.54-3.82-.9-5.72-1.56-8.16-.69-16.25 1.05-24.21.94-4.3 2.72-8.43 4.24-12.59a8.14 8.14 0 0 1 1.82-2.76c1.48-1.49 3.19-1 3.81 1a4.2 4.2 0 0 1 .07 2.17c-1.84 7-.9 14 1 20.8a74.39 74.39 0 0 0 4.91 12.51 24.74 24.74 0 0 0 7.24 8.64c.73.56 1.14.6 1.13-.49v-1.94c-.4-4.67.47-9.21 1.23-13.77a3.78 3.78 0 0 0-.28-2.29c-3-5.32-4.44-11.06-5.57-17a85 85 0 0 1-1.53-18.74c.12-3.68.7-7.35 1.19-11a2.94 2.94 0 0 1 2.77-2.65 3.63 3.63 0 0 1 3 2.82c.4 2 .72 4 1.11 6a42.48 42.48 0 0 0 6.66 15.69c1 1.46 1.32 1.36 2.25-.21a24.17 24.17 0 0 1 2.52-3.57c1.53-1.76 1.7-2.66.78-4.91-2.69-6.6-5.18-13.31-5.64-20.47a42.24 42.24 0 0 1 2.45-17.44A93.19 93.19 0 0 1 345 102.49c1.6-2.25 3.47-4.32 5.23-6.45a3.65 3.65 0 0 1 .85-.71 2.08 2.08 0 0 1 2.57-.17 2.19 2.19 0 0 1 .88 2.68c-.54 1.67-1.23 3.29-1.72 5-1.33 4.61-3.13 9.17-3.77 13.89-1.05 7.75-.51 15.49 2.88 22.78a3.2 3.2 0 0 0 .37.74c2.63 3.48 1.67 3.31 5 .84 2.89-2.13 6-4 9-6 1.79-1.19 1.68-1.15 1-3.24-1.08-3.25-1.92-6.52-1.24-10 .56-2.89.72-5.86 1.2-8.77a22.16 22.16 0 0 1 1.25-3.93c.39-1 1-2 1.33-3 1.53-5.23 4.58-9.66 7.43-14.19 4.53-7.2 7.25-15 7.17-23.52a62.54 62.54 0 0 0-1.19-10.18 13.32 13.32 0 0 0-1.89-4c-.58-1-1.08-2-.36-3.09s1.59-.89 2.66-1c2.28-.2 3.34 1 4.18 2.81 2.81 6 5.65 12.05 7.13 18.58a38.14 38.14 0 0 1 .58 16.23c-.71 3.44-1.78 6.82-2.22 10.29-.65 5.1-1.64 10.27-.12 15.38a28.84 28.84 0 0 0 2.1 4.52c.54 1.07 1.29 2 1.75 3.14.63 1.55 1.83 1.94 3.29 2 3 .17 6.05.3 9.07.52 1.75.13 2 .06 1.92-1.71-.13-3.51-.37-7-.57-10.53-.47-8.39.13-16.66 3.55-24.46a30.49 30.49 0 0 1 3.87-6.34 47.33 47.33 0 0 1 15.44-13.28c.16-.09.3-.22.47-.3 1.1-.52 2.53-1.25 3.2 0a4.24 4.24 0 0 1-.18 3.58c-2 3.3-4.45 6.34-6.51 9.62a28.24 28.24 0 0 0-4.21 17.5 36.42 36.42 0 0 0 3.15 12c1.33 3 2.65 6.1 4.16 9.06a51.65 51.65 0 0 1 3.68 10.72 4.61 4.61 0 0 0 3 3.37 62.4 62.4 0 0 1 10.08 6.26 42.78 42.78 0 0 1 5.26 4.83c.71.7 1.31.7 1.87 0a40.1 40.1 0 0 0 4.09-5.16 51.87 51.87 0 0 0 6.11-14.15c.43-1.79.72-3.62 1.2-5.39 1.47-5.38 1.06-10.79.68-16.25a43.55 43.55 0 0 0-2-11.42c-.64-1.81-1.64-3.48-2.36-5.26a4.47 4.47 0 0 1-.44-2.57c.28-1 1.39-.88 2.36-.92 2.43-.12 4.1 1.23 5.35 3C474.8 89 477 92.32 479 95.7c2.75 4.45 4.23 9.46 5.53 14.45a39.66 39.66 0 0 1 .78 8.8 45.54 45.54 0 0 1-5.82 23.39c-2.6 4.78-5.47 9.42-8.16 14.16-1.23 2.16-2.36 4.38-3.45 6.62a2.42 2.42 0 0 0-.1 1.77c1.39 3.42 2.91 6.79 4.32 10.21.44 1.06.82 1.22 1.74.44 5.57-4.7 10.67-9.71 12.76-17 1.09-3.81 2.57-7.52 3.53-11.36a14.73 14.73 0 0 0-.1-5.45c-.28-2-.09-3.05 1.15-3.56a3.88 3.88 0 0 1 4.39 1.52 7.76 7.76 0 0 1 .72 2.37c.92 5.57 1.84 11.14 1.24 16.82-.59 5.5-1.16 11-3.31 16.2-1.65 4-2.5 8.33-4.71 12.13-2.5 4.32-5 8.64-9.22 11.58a2.27 2.27 0 0 0-1 2.58q1.62 9.39 3.18 18.81a16.26 16.26 0 0 1 0 2.21c.06 1.74.49 2.18 2.24 1.81a11.42 11.42 0 0 0 3.9-1.34c8-5.28 13.94-12 15.93-21.74.38-1.88 1.18-3.68 1.57-5.57a38.24 38.24 0 0 0 .82-6.31c.2-5.52 1-11.06-.21-16.58-.09-.45-.1-.91-.15-1.37-.27-2.44.06-3.32 1.4-3.73 2.22-.67 3.72-.21 4.69 1.79 1.65 3.41 3.3 6.84 4.63 10.38 1.66 4.4 3.06 8.9 4.43 13.4a44 44 0 0 1 2.08 18.31 54.47 54.47 0 0 1-6.19 18.82 59 59 0 0 1-11.47 15.14c-2.19 2.11-4.63 4-6.95 5.94-4.15 3.53-8.32 7-12.42 10.62a2.08 2.08 0 0 0-.49 1.62c.41 2.93 1 5.83 1.37 8.76.29 2.28.34 4.6.5 6.9.13 1.8.38 1.95 2 1a78.78 78.78 0 0 0 7.44-4.81 27.16 27.16 0 0 0 9.58-15.18 14.53 14.53 0 0 0 .12-4.12c-.05-1.1 0-2.08 1.1-2.63a2.28 2.28 0 0 1 2.74.74 5.9 5.9 0 0 1 2.13 3.76c.66 7.42.71 14.81-1.81 21.92-1.92 5.42-5.45 9.77-9.72 13.61s-8.7 8-12.75 12.27a13.63 13.63 0 0 0-2.76 5.66c-1 3.34-1.46 6.81-2.23 10.22-.49 2.15-1.14 4.27-1.69 6.41-.46 1.81-.14 2.51 1.57 2.75 3.5.49 6.82.39 10.16-1.48a37.49 37.49 0 0 0 11.68-9.62c2.8-3.63 5.57-7.32 7.13-11.76 1.34-3.83 3.14-7.51 4.4-11.36a49.24 49.24 0 0 0 1.66-8.13c.62-4.09 1-8.22 1.62-12.32.28-2 1.11-2.32 2.81-1.22a4.56 4.56 0 0 1 2 3.51q.86 7.15 1.61 14.31c.29 2.95.54 5.98.82 9.02zm-14.28 15.34c-.79.89-1.61 1.75-2.35 2.68a44.8 44.8 0 0 1-3.91 5c-2.92 2.8-5.85 5.67-9.43 7.64-2.83 1.56-5.75 3-9.09 3.15a16.13 16.13 0 0 0-3 .22 6.87 6.87 0 0 1-5.76-1.29 26.18 26.18 0 0 1-4.11-3.28c-3.79-4-5.12-8.94-5.08-14.25 0-4.66 2.3-8.68 4.42-12.69.42-.79.94-1.5 1.92-1.17a1.64 1.64 0 0 1 .93 2.31c-.85 2.15-1.1 4.46-1.75 6.62a14 14 0 0 0-.33 8.13 8.7 8.7 0 0 1 .15.89 9.58 9.58 0 0 0 .29-1c1-6 2.22-12 3-18a99.28 99.28 0 0 0 .77-19.35c-.24-4 0-8 0-12.66a10.19 10.19 0 0 0-2.72 6.76c0 2.31-.08 4.62-.23 6.92a4.81 4.81 0 0 1-.72 2 1.43 1.43 0 0 1-1.07.7c-.31 0-.72-.57-.82-.95-.26-1-.38-2-.56-3-.73-4.05-1-8.08.49-12a51.71 51.71 0 0 1 7.48-12.87 12.88 12.88 0 0 1 1.58-1.55c2.68-2.48 5.51-4.83 8-7.49 3.61-3.83 7-7.87 10.43-11.88a12.7 12.7 0 0 0 2.16-3.53c1.21-3.19 2.28-6.44 3.31-9.69.5-1.58.63-3.3 1.23-4.83 1.74-4.5 1.86-9.22 2-13.92.06-1.84-.13-3.69-.24-5.54 0-.18-.3-.35-.46-.53a1.92 1.92 0 0 0-.27.45c-.17.63-.28 1.27-.45 1.89-2.64 9.5-7.17 17.76-15.45 23.57a6.87 6.87 0 0 0-1.09.84c-2.27 2.44-5.47 3.18-8.41 3.91-5.55 1.37-12.08-2.47-14.2-7.78a8.37 8.37 0 0 1-.66-2.67c-.06-1.15-.43-2.76 1-3.13s1.87 1.15 2.39 2.21c.37.74.75 1.47 1.15 2.19a3.69 3.69 0 0 0 .55.57 3 3 0 0 0 .14-.92c-.67-4.56-1.4-9.12-2.06-13.69a111.76 111.76 0 0 0-7.14-27.27c-.55-1.32-1.19-2.6-1.79-3.89-.84 3.44-1.73 6.69-.38 10.14a30.86 30.86 0 0 1 1.27 6.48 1.28 1.28 0 0 1-.58 1.06 1.58 1.58 0 0 1-1.17-.47c-.66-.6-1.24-1.86-1.84-1.85-1.86 0-2.2-1.25-2.44-2.46-.48-2.34-.55-4.77-1.11-7.09-1.05-4.37.09-8.48 1.37-12.5a99.91 99.91 0 0 1 4.47-11c1.32-2.93 2.79-5.81 4.37-8.61 3.64-6.44 6.27-13.22 6.74-20.63.19-3-.39-6-.62-9.06a3.56 3.56 0 0 0-.89 1.66c-1.08 3.91-1.7 8-3.32 11.7a63.24 63.24 0 0 1-9.78 16.34 19 19 0 0 1-10.52 6.3 4.11 4.11 0 0 1-4.5-2c-.58-.94-1-2-1.53-2.95-.39-.73-1.07-1.51-.22-2.22s1.52 0 2.14.59c.21.19.4.39.59.59a3.35 3.35 0 0 0 3.8.88c1-.27 1.37-.52.4-1.31-3.3-2.68-6.57-5.4-9.9-8-1-.82-1.48-.62-1.62.59-.84 7-4.08 12.92-8.39 18.39-2.69 3.42-5.24 7.12-5.53 11.61-.32 5-.12 9.93-.14 14.9a5.66 5.66 0 0 1 .06 1.63 5.89 5.89 0 0 1-1 1.45c-.41-.33-1-.58-1.18-1a25.92 25.92 0 0 1-1.23-4.23c-.42-2.26-.71-4.54-1-6.83a13.54 13.54 0 0 1-.35-4.12 96.59 96.59 0 0 1 2.75-11.28c1-3 2.73-5.85 3.93-8.85a35.12 35.12 0 0 0 2-6.63c1.48-7.9-.14-15.44-3.11-22.74-1.63-4-3.69-7.86-5.25-11.89a63 63 0 0 1-2.76-9.53 81.42 81.42 0 0 1-.94-8.35c-2.48 7.42-1.75 14.65-1.33 21.81.33 5.54.74 11.05-.26 16.56-.68 3.71-2.19 6.71-5.52 8.84s-7 2.36-9.2-2c-.5-1-1.76-2.12-.51-3.22s2.28.09 3.08.91c1.36 1.4 2.69 1.23 4.26.43a6.28 6.28 0 0 0 3-3.49c.81-2 .24-3-2-2.88a56.73 56.73 0 0 0-8.24.76c-9.67 1.84-19 4.69-27.46 9.92-1.79 1.11-2.54 2.12-2.46 4 .14 2.88-3.42 5.75-5.35 6.06-7.59 1.2-11.75-1.75-15.54-7.12a23.49 23.49 0 0 1-3.37-8.75c-.38-1.78-.76-3.57-1.15-5.35a34 34 0 0 0-1.9 5.87c-1.19 4.73-.85 9.52-.48 14.29a56.63 56.63 0 0 0 1.45 8.44c.88 3.78 2 7.49 2.94 11.25a28.67 28.67 0 0 1 .51 3.83c.12 1.2.19 2.4.28 3.59.3 4.15.73 8.28.85 12.43a11.82 11.82 0 0 1-1.14 4.2c-.34.9-1 .89-1.73.19-2.25-2.16-2.28-4.89-2-7.68.36-4.23-.63-8.25-1.84-12.23-.32-1-.74-.95-1.2-.12a85.52 85.52 0 0 0-4.4 8.29 157.43 157.43 0 0 0-5 15.85c-1.09 3.81-.9 7.67-1.56 11.48a30.71 30.71 0 0 0-.08 5c0 1 .55 1.28 1.45 1a9.4 9.4 0 0 0 6.82-7.93c.07-.83 0-1.67.1-2.49s.21-2.16 1.33-2.08c.66 0 1.27 1.11 1.87 1.73a.9.9 0 0 1 .18.52c.25 2.5.53 5.09-.62 7.37-2.34 4.62-5.85 7.88-11.32 8.19-1.94.12-3.78.58-5.88-.42-5.91-2.82-9.67-7.53-12.76-13-.4-.7-.81-1.39-1.48-2.55a27.2 27.2 0 0 0 0 3.18 63 63 0 0 0 5.35 18c2.91 6.19 6.12 12.23 9.1 18.38 3.58 7.37 5.45 15.29 7.42 23.17a11 11 0 0 1-1.25 7.52c-.27.54-1.1.79-1.67 1.17-.35-.58-.94-1.14-1-1.76-.12-1.09.19-2.22.12-3.32-.09-1.55-.34-3.1-.58-4.64-.05-.3-.4-.55-.61-.82a2.73 2.73 0 0 0-.38.86c-.51 5.88-1 11.77-1.49 17.65a85.23 85.23 0 0 0 .6 17.42c.6 5 1.62 10 2.43 15.05.14.83.43 1.3 1.21.66 1.73-1.41 3.33-2.93 3.74-5.3.27-1.54.69-3.06.94-4.61.16-1 .28-1.95 1.45-2s1.23.93 1.51 1.69c1.42 3.91-.18 10.12-3.63 12.87-3 2.37-6 4.59-9.93 5.49a16.68 16.68 0 0 1-12.1-1.65 37.58 37.58 0 0 1-13.71-13.36c-1.08-1.8-2.31-3.49-3.74-5.64.28 1.42.41 2.34.65 3.22.83 3 1.36 6.19 2.62 9a91.43 91.43 0 0 0 6.3 11.68c4.69 7.41 11.11 13.32 17.43 19.29 4.43 4.19 8.93 8.31 13.28 12.58a34 34 0 0 1 4.15 5.18 58.15 58.15 0 0 1 7.1 14.64 5.6 5.6 0 0 1 .43 2.14 3.56 3.56 0 0 1-.8 2.18c-.74.69-1.51.08-2.17-.53a3.33 3.33 0 0 0-1.09-.44 4.11 4.11 0 0 0 0 1.35c.74 2.27 1.65 4.5 2.32 6.79 1.26 4.34 3.57 8.36 3.85 13a2.75 2.75 0 0 0 .13.47c.22-.14.51-.23.64-.43 1.2-1.9 2.21-3.86 1.88-6.23a7.44 7.44 0 0 1-.17-2.47 2.45 2.45 0 0 1 1.23-1.63 2 2 0 0 1 1.77.73 8.33 8.33 0 0 1 1.48 3.77c0 4.79-1.29 9.07-5.42 12.15-4.4 3.26-9.19 3.94-14.05 1.83-3.09-1.34-5.8-3.57-8.62-5.49-1.59-1.09-3.05-2.36-4.58-3.54a1.37 1.37 0 0 0-.43-.16c0 .18-.14.39-.08.52a7.43 7.43 0 0 0 .87 1.71c2.64 3.19 5.28 6.39 8 9.5 1.95 2.22 4.06 4.3 6.08 6.47 4 4.26 7.9 8.56 11.9 12.79 4.63 4.9 9.38 9.69 13.95 14.65 2.13 2.3 4 4.86 5.91 7.33.51.65.85 1.06 1.76.45a43.81 43.81 0 0 1 11.25-5.17 65.22 65.22 0 0 1 19-3.35h6.66c.85 0 1.87.07 2-1 .2-3.14 2.29-5.6 3-8.57a14.57 14.57 0 0 1 1.33-3.64c2.32-4.37 4.73-8.68 7.1-13a44.21 44.21 0 0 0 2-3.94c2.44-5.87 4-11.89 2.85-18.33-.46-2.51-.81-5-2.55-7.67a26.37 26.37 0 0 1-3.83 15.44 22.07 22.07 0 0 1-7.84 7.62c-3.43 2-10.07.08-11.72-3.51a19.38 19.38 0 0 1-1.91-10.23c.12-1.07.24-2.57 1.57-2.58s1.1 1.52 1.34 2.44c.43 1.7.58 3.48 1.11 5.14 1.26 3.93 4.74 5.39 8.29 3.42 5.25-2.9 7.59-7.85 8.19-13.45 1-9.51-1.68-18.3-6.27-26.56-.49-.89-1.24-1.64-1.69-2.54-1.22-2.39-.75-3.47 1.63-4.6 1.56-.73 2.66-.05 3.77.88.84.71 1.57 1.78 2.54 2.08 2.54.79 4.33 2.65 5.94 4.41a40.85 40.85 0 0 1 9.38 16.13 48.58 48.58 0 0 1 2 16.12c-.31 6.82-3 12.92-5.87 18.94a44.74 44.74 0 0 1-3.2 5.17c-2.24 3.38-4.66 6.65-6.73 10.13a30.85 30.85 0 0 0-4.07 9.63c-.47 2.37-.57 2.32 1.72 2.75 3.88.72 7.79 1.34 11.61 2.3a56 56 0 0 1 7.79 2.78c1.42.59 2.11.12 3-1 2.14-2.64 4.37-5.21 6.73-7.66 1.72-1.79 3.77-3.26 5.53-5 3.3-3.26 6.67-6.38 10.82-8.55a36 36 0 0 0 3.37-1.91c4.78-3.14 9.48-6.4 14.3-9.47a54.51 54.51 0 0 0 14.62-13.82 22.63 22.63 0 0 0 4.11-9.79c-3.72 4.17-7.44 8.64-11.5 12.77a41.85 41.85 0 0 1-7.08 5.24c-3.8 2.48-8.23 3.34-12.56 4.17a15.49 15.49 0 0 1-11-1.83 51.36 51.36 0 0 1-6.35-4.77 7 7 0 0 1-2.45-5.68c0-2.21.27-4.42.43-6.63a5.64 5.64 0 0 1 .26-1.9 1.92 1.92 0 0 1 1.18-1c.29-.07.91.35 1.05.69a24.92 24.92 0 0 1 1.12 3.39 24.23 24.23 0 0 1 .43 2.55 13.49 13.49 0 0 0 1.53-2.27c2.17-5.08 4.27-10.19 6.35-15.31a1.33 1.33 0 0 0-.16-1c-2.11-.24-1.59-1.93-1.41-3a36.31 36.31 0 0 1 1.83-7.53c3-7.56 8.56-13.1 15.31-17.31 5.78-3.6 11.32-7.66 17.63-10.38 2.53-1.1 4.3-3.13 6.15-5.05 2.43-2.53 5.07-4.87 7.31-7.55 4.4-5.26 7.31-11.24 7.73-18.24l.13-.47zM406.61 511.72a48.77 48.77 0 0 0-1.61-13.47 24.59 24.59 0 0 0-7.87-12.19 21.21 21.21 0 0 0-15.28-4.71c-3.68.23-3.69.33-2.23 3.63.55 1.25 1.16 1.46 2.53 1.23 1.77-.29 3.85-.5 5.39.17a19.85 19.85 0 0 1 6.05 4.27 22.5 22.5 0 0 1 6 11.91c1 5.48.15 10.85.05 16.28 0 .17-.13.34-.16.52a58.92 58.92 0 0 0-1.3 8.16 256 256 0 0 0 1.06 32.65 76 76 0 0 0 2.11 12.57c2.12 7.64 3.74 15.43 6.67 22.85 1.7 4.28 2.87 8.77 4.51 13.08 1 2.63 2.19 5.32 5.57 5.84a8.37 8.37 0 0 1 1.51.68 6.12 6.12 0 0 0 1.05.22 3.78 3.78 0 0 0 0-1c-.74-2.57-1.4-5.17-2.27-7.69-3-8.72-6.19-17.39-9.16-26.13a59.2 59.2 0 0 1-3.08-11.19c-1.15-8.7-2.15-17.4-1.81-26.24.19-5.44.28-10.88.66-16.31.36-5.05 1.06-10.09 1.61-15.13zm-19.39-408.78h.4c.08-1.29.18-2.58.24-3.87V97.5a6.66 6.66 0 0 0-1.26.86 54.14 54.14 0 0 0-11.66 19.84 20.84 20.84 0 0 0-.91 10.63c.22 1.06.37 1.44 1.54.92a67 67 0 0 1 15.75-5.11c2.29-.39 2.46-.88.94-2.85-1.65-2.15-3.22-4.38-3.65-7.06-.61-3.94-.95-7.87-1.39-11.79zm11 543.47c.39-4 .74-7.31 1.05-10.65.39-4.21.78-8.43 1.12-12.65.13-1.63-.16-2-1.94-1.71-3.19.46-6.38 1.05-9.53 1.72-2.15.46-2.21.79-1 2.79.33.56.72 1.09 1 1.66 2.99 6.09 6 12.19 9.29 18.84zM485.51 175a17.65 17.65 0 0 0 .2-2.16 5.19 5.19 0 0 0-.36-1.29 7 7 0 0 0-1.05.82 29.7 29.7 0 0 1-9.2 7.4 1.47 1.47 0 0 0-.83 2c.77 2.85 1.53 5.7 2.31 8.55a11.76 11.76 0 0 0 .51 1.28 4.89 4.89 0 0 0 1.2-1c1.51-2.43 2.93-4.92 4.45-7.34 1.64-2.61 3.1-5.26 2.77-8.26zm-177.15 98.29c1.91 9.49 7 23.17 9.36 25.6-.18-5.89-.41-11.79-.51-17.7 0-1.39-.38-2.28-1.73-2.76a17.52 17.52 0 0 1-7.12-5.14zm179.8 20.31h-.06v1.11c0 1 .43 1.13 1.17.63a11.71 11.71 0 0 0 1.28-1c2.92-2.66 4.66-6.16 6.67-9.45.67-1.1 1.21-2.28 1.79-3.44a3.23 3.23 0 0 0 .2-.77 6.6 6.6 0 0 0-.63.2c-2.89 1.4-5.75 2.87-8.68 4.17-.87.39-1.37.7-1.39 1.72-.06 2.23-.22 4.54-.35 6.83zM326.47 185.82h.42c.95-2.26 1.91-4.51 2.83-6.79a2.53 2.53 0 0 0-.62-3c-1.24-1.19-2.37-2.48-3.61-3.8.33 4.56.65 9.08.98 13.59zm146.1 203.57c-.21-.11-.44-.33-.62-.29a23.25 23.25 0 0 1-2.65.65 4.37 4.37 0 0 0-4.15 3.43c-.18.61-.55 1.17-.78 1.77a6.14 6.14 0 0 0-.23 1.05c.42 0 .84-.06 1.25-.11a.9.9 0 0 0 .52-.17l6.47-6a1.66 1.66 0 0 0 .19-.33zm-57.52 69.28h-2.29c-.55 0-1.39-.35-1.5.68s.61 1 1.25 1.11l7.07 1.06a1 1 0 0 0 1.2-1.1 1.47 1.47 0 0 0-.95-1c-1.78-.35-3.59-.57-4.78-.75zm-13.84 1.54a30.86 30.86 0 0 0 3.85-.06c.41-.06.72-.83 1.08-1.28-.39-.27-.77-.78-1.17-.79-2.2 0-4.4 0-6.61.06a2.67 2.67 0 0 0-1.32.34 1.37 1.37 0 0 0-.63 1 1.22 1.22 0 0 0 .94.73c1.28.06 2.57 0 3.86 0zm-16.95 2.17c2.51-.4 4.8-.71 7.06-1.19.38-.08.61-.89.91-1.37-.42-.2-.88-.63-1.27-.57-2.28.35-4.55.78-6.79 1.29-.33.08-.65.77-.72 1.21-.03.19.6.48.81.63zm47.58 1.55c-.22-.56-.26-1-.42-1-2-.7-3.92-1.4-5.92-1.93-.24-.06-.8.86-1.07 1.39-.08.14.27.7.52.79a48.65 48.65 0 0 0 5.22 1.66c.46.09 1.1-.59 1.67-.91zm-103.46-82.79c.3.5.59.95.85 1.43 1.27 2.32 2.52 4.66 3.8 7 .1.19.36.3.54.44a2.11 2.11 0 0 0 .1-.73 33.27 33.27 0 0 1-.91-4c-.24-2.72-1.67-4.01-4.38-4.14zm51.46 81.61c-.62-.3-1-.68-1.31-.61-2.12.54-4.22 1.15-6.31 1.8-.22.07-.32.53-.47.8.29.13.62.42.88.37 2.05-.42 4.09-.87 6.11-1.38.34-.08.59-.51 1.1-.98zm27.29 221.17c.3 1.43.6 2.86.91 4.28a26.61 26.61 0 0 0 1 4.59c1.81 4.32 3 9 6.13 12.61a38.74 38.74 0 0 0 6.9 5.91 4.57 4.57 0 0 0 5.46 0 3.15 3.15 0 0 1 4.05.27c1.11 1.18 1.18 2.68-.11 4.26-4.05 5-5.25 10.86-5.34 17.07a12 12 0 0 0 2.68 8.25 3.05 3.05 0 0 1 .49.66 3.36 3.36 0 0 1-.37 3.66c-.82 1.08-2 .81-3.06.56a6 6 0 0 1-1.73-.87c-5.27-3.44-11.27-4.71-17.36-5s-11.61 1.8-15.23 7.28a9.21 9.21 0 0 1-1 1.31 2.84 2.84 0 0 1-4.17.5 2.89 2.89 0 0 1-1-3.89c.7-1.69 1.49-3.36 2-5.1a30.19 30.19 0 0 0 .4-14.78 6.84 6.84 0 0 0-4-5.35 3.22 3.22 0 0 1 .16-6c10.87-4.26 16-12.74 17.63-23.86.33-2.28.82-4.53 1.3-6.79a11.52 11.52 0 0 1 .8-2.36 1.9 1.9 0 0 1 2.5-1.14c.56.24.91 1.22 1.13 1.93a7 7 0 0 1 0 1.94zM393.34 732c-.11 2.3-.17 3.87-.26 5.43-.05 1 .31 1.18 1.13.75 1.39-.73 2.7-1.84 4.17-2.1 5.22-.95 10.49-2.06 15.78-.22 1.56.54 3.2.88 4.79 1.34 2.71.79 2.59.8 2.55-1.87 0-3 .09-6.07.29-9.09a24.82 24.82 0 0 1 .8-3.77c-1.22.71-2.44 1.4-3.64 2.14-.39.24-.66.7-1.06.89a39.72 39.72 0 0 1-3.77 1.54c-1 .31-2 .34-3 .66-3.1 1.08-6.19.68-9.25-.07a21 21 0 0 1-7.75-3.55 4.08 4.08 0 0 0-1.24-.38 9.29 9.29 0 0 0-.06 1.29c.18 2.56.39 5.13.52 7.01zm131.92-221.17a2.73 2.73 0 0 1-1.92 2.95c-2.8.92-4.32 3-5.47 5.54-.88 1.92-2.21 3.75-2.58 5.76-.91 4.87-.8 9.72 2.21 14.06.82 1.18.34 3.28-.78 4.3s-2.37 1-4-.2a20.84 20.84 0 0 0-11.15-4.45c-1-.07-1.92-.81-2.89-.83a22.94 22.94 0 0 0-6 .38c-5 1.26-9.95 2.86-13.59 6.93a5.9 5.9 0 0 1-1.55 1.15c-1.56.89-2.75.73-3.7-.42a3.18 3.18 0 0 1 .23-4.29 8.29 8.29 0 0 1 1.09-.84 15.59 15.59 0 0 0 5.76-16.53c-1.13-3.86-3.29-7.48-8.05-8.32a4.24 4.24 0 0 1-2.46-1.95 2.64 2.64 0 0 1 2.09-4.1 4.68 4.68 0 0 1 2.44.25c8.16 3.54 19.12-3.24 18.89-13 0-1.11.28-2.23.16-3.32-.28-2.38 1.11-3.54 2.94-4.46a1.61 1.61 0 0 1 2.49.82 8.39 8.39 0 0 1 .63 3 13.08 13.08 0 0 0 2.06 6.81c1 1.65 2.08 3.28 3.16 4.88 2.73 4 6.72 5.39 11.34 4.92 1.37-.14 2.66-1.17 4-1.8 2.44-1.18 4.65.1 4.65 2.76zM486.67 529c.32-.24.55-.37.74-.55 1.42-1.32 2.74-2.76 4.25-4a58.48 58.48 0 0 1 6.7-4.81c3.09-1.81 6.36-3.29 9.55-4.93a9.26 9.26 0 0 0 .92-.62 5.73 5.73 0 0 0-.77-.63c-3.95-2.17-7.4-4.84-9.29-9.12a5.8 5.8 0 0 0-1-1.2c-.17.4-.38.8-.51 1.21a15.72 15.72 0 0 1-10.68 10.67c-.79.25-1.55.61-2.34.86-1 .31-1.35.84-.75 1.82a18.53 18.53 0 0 1 2.88 10.52 2.31 2.31 0 0 0 .3.78zM313.9 515.15c1.35-.44 3.08-.95 4.77-1.58s2.89-.38 3.7.79a2.88 2.88 0 0 1-.48 4 6 6 0 0 1-1.08.87c-5.94 3.78-8.56 9.35-9.17 16.21-.34 3.9 1.17 7.18 2.59 10.57a5.46 5.46 0 0 1 .71 2.32 2.82 2.82 0 0 1-4.3 2.14 7.89 7.89 0 0 1-1.77-1.33 15.8 15.8 0 0 0-9.93-4.33c-1.09-.13-2.13-.7-3.21-.81-5.91-.6-11.21.58-15.16 5.46-.82 1-1.67 2-2.5 3-1.18 1.41-2.26 1.64-3.59.74a2.83 2.83 0 0 1-1-4.09 42.65 42.65 0 0 1 3.13-4.19c3.84-4.4 4-9.59 3.12-14.9-.62-3.76-2.3-6.94-5.93-8.86a2.93 2.93 0 0 1-1.38-3.82c.6-1.61 1.53-2.1 3.24-1.86s3.64.51 5.47.61c5.22.3 11.54-4.11 13.4-9.85a46.45 46.45 0 0 0 1-4.85c.18-.91.24-1.84.49-2.73.37-1.3 2.29-2.54 3.36-2.26s1.64 1.38 1.6 3.15-.27 3.61.26 5.2c1.45 4.4 3.78 8.25 8.54 9.83a27.89 27.89 0 0 0 4.12.57zm-15.57-4.07c-.32.19-.67.27-.74.45-1.6 3.92-4.94 6-8.35 8.08-.05 0 .12.75.33.85a53.1 53.1 0 0 1 15.59 11.27 17.51 17.51 0 0 0 1.5 1.2l.57-2a15.49 15.49 0 0 1 .67-2.38c1.07-2.24 2.17-4.47 3.36-6.65.93-1.7.86-1.86-1.1-2.23a16.43 16.43 0 0 1-3.66-1 13.12 13.12 0 0 1-6.14-5.37 13.87 13.87 0 0 0-2.03-2.22z"/><path class="a" d="M513.45 317.1c-.42 7-3.33 13-7.73 18.24-2.24 2.68-4.88 5-7.31 7.55-1.85 1.92-3.62 3.95-6.15 5.05-6.31 2.72-11.85 6.78-17.63 10.38-6.75 4.21-12.29 9.75-15.31 17.31a36.31 36.31 0 0 0-1.83 7.53c-.18 1.07-.7 2.76 1.41 3a1.33 1.33 0 0 1 .16 1c-2.08 5.12-4.18 10.23-6.35 15.31a13.49 13.49 0 0 1-1.53 2.27 24.23 24.23 0 0 0-.43-2.55 24.92 24.92 0 0 0-1.12-3.39c-.14-.34-.76-.76-1.05-.69a1.92 1.92 0 0 0-1.18 1 5.64 5.64 0 0 0-.26 1.9c-.16 2.21-.4 4.42-.43 6.63a7 7 0 0 0 2.45 5.68 51.36 51.36 0 0 0 6.35 4.77 15.49 15.49 0 0 0 11 1.83c4.33-.83 8.76-1.69 12.56-4.17a41.85 41.85 0 0 0 7.08-5.24c4.06-4.13 7.78-8.6 11.5-12.77a22.63 22.63 0 0 1-4.11 9.79 54.51 54.51 0 0 1-14.62 13.82c-4.82 3.07-9.52 6.33-14.3 9.47a36 36 0 0 1-3.37 1.91c-4.15 2.17-7.52 5.29-10.82 8.55-1.76 1.74-3.81 3.21-5.53 5-2.36 2.45-4.59 5-6.73 7.66-.89 1.1-1.58 1.57-3 1a56 56 0 0 0-7.79-2.78c-3.82-1-7.73-1.58-11.61-2.3-2.29-.43-2.19-.38-1.72-2.75a30.85 30.85 0 0 1 4.07-9.63c2.07-3.48 4.49-6.75 6.73-10.13a44.74 44.74 0 0 0 3.2-5.17c2.86-6 5.56-12.12 5.87-18.94a48.58 48.58 0 0 0-2-16.12 40.85 40.85 0 0 0-9.38-16.13c-1.61-1.76-3.4-3.62-5.94-4.41-1-.3-1.7-1.37-2.54-2.08-1.11-.93-2.21-1.61-3.77-.88-2.38 1.13-2.85 2.21-1.63 4.6.45.9 1.2 1.65 1.69 2.54 4.59 8.26 7.28 17.05 6.27 26.56-.6 5.6-2.94 10.55-8.19 13.45-3.55 2-7 .51-8.29-3.42-.53-1.66-.68-3.44-1.11-5.14-.24-.92-.1-2.46-1.34-2.44s-1.45 1.51-1.57 2.58a19.38 19.38 0 0 0 1.88 10.17c1.65 3.59 8.29 5.53 11.72 3.51a22.07 22.07 0 0 0 7.84-7.62 26.37 26.37 0 0 0 3.8-15.41c1.74 2.63 2.09 5.16 2.55 7.67 1.17 6.44-.41 12.46-2.85 18.33a44.21 44.21 0 0 1-2 3.94c-2.37 4.34-4.78 8.65-7.1 13a14.57 14.57 0 0 0-1.33 3.64c-.67 3-2.76 5.43-3 8.57-.08 1.11-1.1 1.05-2 1h-6.66a65.22 65.22 0 0 0-19 3.35 43.81 43.81 0 0 0-11.31 5.15c-.91.61-1.25.2-1.76-.45-1.94-2.47-3.78-5-5.91-7.33-4.57-5-9.32-9.75-13.95-14.65-4-4.23-7.93-8.53-11.9-12.79-2-2.17-4.13-4.25-6.08-6.47-2.73-3.11-5.37-6.31-8-9.5a7.43 7.43 0 0 1-.87-1.71c-.06-.13.05-.34.08-.52a1.37 1.37 0 0 1 .43.16c1.53 1.18 3 2.45 4.58 3.54 2.82 1.92 5.53 4.15 8.62 5.49 4.86 2.11 9.65 1.43 14.05-1.83 4.13-3.08 5.41-7.36 5.42-12.15a8.33 8.33 0 0 0-1.48-3.77 2 2 0 0 0-1.77-.73 2.45 2.45 0 0 0-1.23 1.63 7.44 7.44 0 0 0 .17 2.47c.33 2.37-.68 4.33-1.88 6.23-.13.2-.42.29-.64.43a2.75 2.75 0 0 1-.13-.47c-.28-4.62-2.59-8.64-3.85-13-.67-2.29-1.58-4.52-2.32-6.79a4.11 4.11 0 0 1 0-1.35 3.33 3.33 0 0 1 1.09.44c.66.61 1.43 1.22 2.17.53a3.56 3.56 0 0 0 .8-2.18 5.6 5.6 0 0 0-.43-2.14 58.15 58.15 0 0 0-7.1-14.64 34 34 0 0 0-4.15-5.18c-4.35-4.27-8.85-8.39-13.28-12.58-6.32-6-12.74-11.88-17.43-19.29a91.43 91.43 0 0 1-6.27-11.71c-1.26-2.85-1.79-6-2.62-9-.24-.88-.37-1.8-.65-3.22 1.43 2.15 2.66 3.84 3.74 5.64a37.58 37.58 0 0 0 13.71 13.36 16.68 16.68 0 0 0 12.1 1.65c3.95-.9 7-3.12 9.93-5.49 3.45-2.75 5.05-9 3.63-12.87-.28-.76-.41-1.78-1.51-1.69s-1.29 1.08-1.45 2c-.25 1.55-.67 3.07-.94 4.61-.41 2.37-2 3.89-3.74 5.3-.78.64-1.07.17-1.21-.66-.81-5-1.83-10-2.43-15.05a85.23 85.23 0 0 1-.6-17.42c.5-5.88 1-11.77 1.49-17.65a2.73 2.73 0 0 1 .38-.86c.21.27.56.52.61.82.24 1.54.49 3.09.58 4.64.07 1.1-.24 2.23-.12 3.32.07.62.66 1.18 1 1.76.57-.38 1.4-.63 1.67-1.17a11 11 0 0 0 1.25-7.52c-2-7.88-3.84-15.8-7.42-23.17-3-6.15-6.19-12.19-9.1-18.38a63 63 0 0 1-5.35-18 27.2 27.2 0 0 1 0-3.18c.67 1.16 1.08 1.85 1.48 2.55 3.09 5.47 6.85 10.18 12.76 13 2.1 1 3.94.54 5.88.42 5.47-.31 9-3.57 11.32-8.19 1.15-2.28.87-4.87.62-7.37a.9.9 0 0 0-.18-.52c-.6-.62-1.21-1.68-1.87-1.73-1.12-.08-1.23 1.17-1.33 2.08s0 1.66-.1 2.49a9.4 9.4 0 0 1-6.82 7.93c-.9.28-1.46 0-1.45-1a30.71 30.71 0 0 1 .08-5c.66-3.81.47-7.67 1.56-11.48a157.43 157.43 0 0 1 5-15.85 85.52 85.52 0 0 1 4.4-8.29c.46-.83.88-.92 1.2.12 1.21 4 2.2 8 1.84 12.23-.24 2.79-.21 5.52 2 7.68.74.7 1.39.71 1.73-.19a11.82 11.82 0 0 0 1.14-4.2c-.12-4.15-.55-8.28-.85-12.43-.09-1.19-.16-2.39-.28-3.59a28.67 28.67 0 0 0-.51-3.83c-.93-3.76-2.06-7.47-2.94-11.25a56.63 56.63 0 0 1-1.45-8.44c-.37-4.77-.71-9.56.48-14.29a34 34 0 0 1 1.9-5.87c.39 1.78.77 3.57 1.15 5.35a23.49 23.49 0 0 0 3.37 8.75c3.79 5.37 7.95 8.32 15.54 7.12 1.93-.31 5.49-3.18 5.35-6.06-.08-1.89.67-2.9 2.46-4 8.5-5.23 17.79-8.08 27.46-9.92a56.73 56.73 0 0 1 8.24-.76c2.22-.08 2.79.86 2 2.88a6.28 6.28 0 0 1-3 3.49c-1.57.8-2.9 1-4.26-.43-.8-.82-1.85-2-3.08-.91s0 2.22.51 3.22c2.22 4.4 5.8 4.22 9.2 2s4.84-5.13 5.52-8.84c1-5.51.59-11 .26-16.56-.42-7.16-1.15-14.39 1.33-21.81a81.42 81.42 0 0 0 .94 8.35 63 63 0 0 0 2.76 9.53c1.56 4 3.62 7.88 5.25 11.89 3 7.3 4.59 14.84 3.11 22.74a35.12 35.12 0 0 1-2 6.63c-1.2 3-2.92 5.8-3.93 8.85a96.59 96.59 0 0 0-2.65 11.4 13.54 13.54 0 0 0 .35 4.12c.29 2.29.58 4.57 1 6.83a25.92 25.92 0 0 0 1.23 4.23c.15.43.77.68 1.18 1a5.89 5.89 0 0 0 1-1.45 5.66 5.66 0 0 0-.06-1.63c0-5-.18-9.95.14-14.9.29-4.49 2.84-8.19 5.53-11.61 4.31-5.47 7.55-11.36 8.39-18.39.14-1.21.6-1.41 1.62-.59 3.33 2.64 6.6 5.36 9.9 8 1 .79.56 1-.4 1.31a3.35 3.35 0 0 1-3.8-.88c-.19-.2-.38-.4-.59-.59-.62-.56-1.31-1.29-2.14-.59s-.17 1.49.22 2.22c.53 1 1 2 1.53 2.95a4.11 4.11 0 0 0 4.5 2 19 19 0 0 0 10.52-6.3 63.24 63.24 0 0 0 9.78-16.34c1.62-3.68 2.24-7.79 3.32-11.7a3.56 3.56 0 0 1 .89-1.66c.23 3 .81 6.06.62 9.06-.47 7.41-3.1 14.19-6.74 20.63-1.58 2.8-3.05 5.68-4.37 8.61a99.91 99.91 0 0 0-4.47 11c-1.28 4-2.42 8.13-1.37 12.5.56 2.32.63 4.75 1.11 7.09.24 1.21.58 2.48 2.44 2.46.6 0 1.18 1.25 1.84 1.85a1.58 1.58 0 0 0 1.17.47 1.28 1.28 0 0 0 .58-1.06 30.86 30.86 0 0 0-1.27-6.48c-1.35-3.45-.46-6.7.38-10.14.6 1.29 1.24 2.57 1.79 3.89a111.76 111.76 0 0 1 7.14 27.27c.66 4.57 1.39 9.13 2.06 13.69a3 3 0 0 1-.14.92 3.69 3.69 0 0 1-.55-.57c-.4-.72-.78-1.45-1.15-2.19-.52-1.06-1-2.56-2.39-2.21s-1.09 2-1 3.13a8.37 8.37 0 0 0 .66 2.67c2.12 5.31 8.65 9.15 14.2 7.78 2.94-.73 6.14-1.47 8.41-3.91a6.87 6.87 0 0 1 1.09-.84c8.28-5.81 12.81-14.07 15.45-23.57.17-.62.28-1.26.45-1.89a1.92 1.92 0 0 1 .27-.45c.16.18.44.35.46.53.11 1.85.3 3.7.24 5.54-.14 4.7-.26 9.42-2 13.92-.6 1.53-.73 3.25-1.23 4.83-1 3.25-2.1 6.5-3.31 9.69a12.7 12.7 0 0 1-2.16 3.53c-3.42 4-6.82 8.05-10.43 11.88-2.5 2.66-5.33 5-8 7.49a12.88 12.88 0 0 0-1.58 1.55 51.71 51.71 0 0 0-7.58 12.83c-1.48 4-1.22 8-.49 12 .18 1 .3 2 .56 3 .1.38.51.92.82.95a1.43 1.43 0 0 0 1.07-.7 4.81 4.81 0 0 0 .72-2c.15-2.3.22-4.61.23-6.92a10.19 10.19 0 0 1 2.72-6.76c0 4.63-.2 8.66 0 12.66a99.28 99.28 0 0 1-.77 19.35c-.8 6-2 12-3 18a9.58 9.58 0 0 1-.29 1 8.7 8.7 0 0 0-.15-.89 14 14 0 0 1 .33-8.13c.65-2.16.9-4.47 1.75-6.62a1.64 1.64 0 0 0-.93-2.31c-1-.33-1.5.38-1.92 1.17-2.12 4-4.39 8-4.42 12.69 0 5.31 1.29 10.28 5.08 14.25a26.18 26.18 0 0 0 4.11 3.28 6.87 6.87 0 0 0 5.76 1.29 16.13 16.13 0 0 1 3-.22c3.34-.15 6.26-1.59 9.09-3.15 3.58-2 6.51-4.84 9.43-7.64a44.8 44.8 0 0 0 3.91-5c.74-.93 1.56-1.79 2.35-2.68zM383.2 360c-.34-1.81-.6-3.64-1.06-5.41-.13-.48-.93-1.13-1.33-1.08s-.87.8-1.18 1.32a2.92 2.92 0 0 0-.13 1.09 33.09 33.09 0 0 1-.65 5.48c-1.6 5.56-4.53 7.37-9.35 5.37-2.14-.89-3.48-3-4.42-5.16a25.46 25.46 0 0 1-1.23-18.56 5.61 5.61 0 0 0 .25-2.19 3.41 3.41 0 0 0-2.46-2.75 2.3 2.3 0 0 0-2.74.8 33.39 33.39 0 0 0-3.2 4.14c-2.82 4.7-3.51 10.07-4.65 15.3a19.71 19.71 0 0 0 0 9.07 61 61 0 0 0 11.35 23.17 59.51 59.51 0 0 1 4.8 7.42 87.9 87.9 0 0 1 4 8.22c3.09 7.11 6.11 14.24 7.48 22 .86 4.9 1.06 9.71-.47 14.5-.56 1.76-1.21 3.5-1.75 5.27-.48 1.56-.05 1.89 1.58 1.73a3.54 3.54 0 0 0 3.34-2.8c1.25-4.44 2.68-8.85 3.65-13.35a37 37 0 0 0 .61-8.55 76.4 76.4 0 0 0-1-9 39.72 39.72 0 0 0-1.43-7.31 68.24 68.24 0 0 0-10.07-19c-3.79-5.06-5.87-10.84-7.21-16.94a2.41 2.41 0 0 1 0-1.1c0-.17.47-.44.62-.38.94.36 1.83.87 2.79 1.2a8.61 8.61 0 0 0 8.23-1c3.57-2.82 6.16-6.44 5.63-11.5zm81-44a41.2 41.2 0 0 0-2.66-16.39c-2.38-6.66-6-12.65-11.87-17a8.21 8.21 0 0 0-6-1.63 2 2 0 0 0-1.77 2.8 6.84 6.84 0 0 0 1 1.66c3.58 4.91 4.59 10.62 4.92 16.48.26 4.48-1.22 8.73-2.1 13.07a13.08 13.08 0 0 1-5.69 8.48c-1.65 1.14-3.56 1.79-5.41.39a6.21 6.21 0 0 1-2.68-4.37 15.47 15.47 0 0 0-.38-2.73 8.19 8.19 0 0 0-1.06-1.79 8.33 8.33 0 0 0-1.79 1.46 3 3 0 0 0-.39 1.85 32 32 0 0 0 .57 4.38 8.81 8.81 0 0 0 14 4.94 19 19 0 0 0 7.48-13.38c.25-2.1.85-4.16 1.31-6.23a3.46 3.46 0 0 1 .38-.74c.25.24.58.42.73.71a5.92 5.92 0 0 1 .71 1.78 61.79 61.79 0 0 1 1 7.12c.34 8.05-1.56 15.75-4.16 23.28-2.8 8.09-6.44 15.92-6.78 24.71a30.64 30.64 0 0 0 1.17 10.67c.44 1.35 1.1 2.85 2.7 3.22.86.2 1.24-1.62.87-4.16a27.64 27.64 0 0 1 2.3-16c2.43-5.17 5.27-10.15 7.93-15.22a10.15 10.15 0 0 0 .59-1.25c2.88-8.21 5.24-16.53 5.04-26.11zm-46.93-53.58c0 .73.06 1.57 0 2.4-.28 3.73-3.13 7.16-6.26 7.57s-6.14-1.72-7.62-5.27a26.88 26.88 0 0 1-2.08-9.39 48.33 48.33 0 0 1 3.14-19.79 3.05 3.05 0 0 0-1.32-3.83c-1.3-.86-2.4-.71-3.7.57a12.1 12.1 0 0 0-1.61 1.89c-1.69 2.54-3.41 5.06-4.95 7.68a49.94 49.94 0 0 0-6 15.14 33.91 33.91 0 0 0 1.93 20.91 41.46 41.46 0 0 1 1.65 4.11 23.87 23.87 0 0 1 1.11 11.48c-.62 3.54-1.47 7.05-2.32 10.55a73.73 73.73 0 0 0-1.2 30.41 11 11 0 0 0 1.47 3.51 1.28 1.28 0 0 0 2.46-.69 68.33 68.33 0 0 0-.24-9.61c-.7-5 .23-9.82 1.24-14.54 1.4-6.56 4.27-12.75 5.36-19.43.82-5 1.45-10 .12-15.1-1.05-4-1.8-8.11-2.72-12.16-.46-2.06.09-4 .6-6 .08-.28.47-.48.71-.72.06.25.12.5.19.74.38 1.52.75 3 1.15 4.56a14.6 14.6 0 0 0 7.48 9.17 5.88 5.88 0 0 0 4.77.83 29 29 0 0 1 3.23-.71 8.79 8.79 0 0 0 6.49-5.54 15.12 15.12 0 0 0-.44-13.15c-.37-.71-.72-1.68-1.8-1.31s-1.21 1.22-1 2.27.04 2.24.12 3.45zm28.29-18.48c0 1.83-.1 3.14 0 4.42a43.8 43.8 0 0 0 1 8.22 88.67 88.67 0 0 0 4.13 10.55 8.55 8.55 0 0 0 2.24 2.72 1.86 1.86 0 0 0 1.74.24 2 2 0 0 0 .46-1.7 76.93 76.93 0 0 0-1.72-7.54 40.08 40.08 0 0 1 .28-25.56 69.42 69.42 0 0 0 3.83-20c.26-6 .34-12-1.57-17.81-.95-2.89-2.08-5.72-3-8.63a44.75 44.75 0 0 0-9-15.76 5.43 5.43 0 0 1-1.18-1.53c-.7-2.08-2-2.72-4.22-2.61-2.64.13-3.46.83-2.55 3.16 4.19 10.71 4.3 21.63 1.86 32.71-1.24 5.65-3.33 10.7-8.66 13.87-3 1.79-6.74.9-8.07-2.3a20.74 20.74 0 0 1-.83-2.92c-.11-.45 0-1-.19-1.36a10.93 10.93 0 0 0-1.34-1.57c-.38.55-.8 1.09-1.13 1.68-.11.21 0 .54 0 .82a15.56 15.56 0 0 0 2.46 8.67c1.59 2.75 3.91 3.29 6.81 3.1 5.76-.38 9.09-4.33 11.83-8.54 1.7-2.62 2.4-6 3.07-9.14.87-4.14 1.27-8.38 1.88-12.58a5.2 5.2 0 0 1 .25-.76 4.07 4.07 0 0 1 .75.59 29.12 29.12 0 0 1 5.66 18.5c-.09 5.2-1.39 10.4-2.27 15.58-.88 5.32-3.43 10.39-2.56 15.48zm-97.32 9c.63 1.73 1.17 3.35 1.81 4.93 1.14 2.83 2.35 5.52 4.95 7.51a7 7 0 0 0 8 .62 7.91 7.91 0 0 0 3.63-4 10.54 10.54 0 0 0-.83-7.83c-.43-.92-1.23-1.59-2.19-1.14-.42.2-.56 1.24-.6 1.91 0 1 .27 2 .16 3a3.92 3.92 0 0 1-3.37 3.23 4 4 0 0 1-4.19-2.63 72.85 72.85 0 0 1-3.08-9.15 38.9 38.9 0 0 1-1-6.56 22 22 0 0 1 0-5.25c.54-3.64 1.34-7.24 2-10.86a4.26 4.26 0 0 0 .07-1.38 2.88 2.88 0 0 0-2.3-2.48 2.45 2.45 0 0 0-2.86 1.11 42 42 0 0 0-7.21 13.64c-.89 3.19-2.09 6.5-2 9.73.12 5.2-.41 10.57 1.69 15.6.74 1.77 1.23 3.64 1.91 5.44.81 2.16 1.6 4.33 2.58 6.42 1.62 3.42 3.56 6.7 5 10.19a73.52 73.52 0 0 1 4.28 14.26 33.85 33.85 0 0 1-1.93 20.61 20.65 20.65 0 0 0-1.07 3.43 1.32 1.32 0 0 0 .38 1.19 1.27 1.27 0 0 0 1.21-.3 28.45 28.45 0 0 0 3.69-4.77 28.11 28.11 0 0 0 2.87-13.16c0-3.2.42-6.38-.25-9.65a100.62 100.62 0 0 0-4.68-14.74c-1.12-3-2.38-6-3.36-9.06-2.05-6.37-4.06-12.8-3.35-19.89zm34.32-23.17h.39c-.36-3.29-.54-6.61-1.1-9.87-.89-5.09-1.85-10.18-3.11-15.18a117.37 117.37 0 0 1-3.44-16.77 36.88 36.88 0 0 1 .05-4.7 2.09 2.09 0 0 1 .32-.7 2.74 2.74 0 0 1 .68.63 3.48 3.48 0 0 1 .25 1.07c.38 2.61 1.9 4.49 3.72 6.3 3.13 3.1 8.12 1.53 10.13-1 1.53-1.91 2.19-4.61 2.94-7.05.39-1.27-1.26-3.45-2.24-3.34-1.7.19-1.36 1.7-1.64 2.79a.83.83 0 0 0 0 .27 5.25 5.25 0 0 1-2 3.8c-2 1.83-4.42 1.38-5.69-1a13.16 13.16 0 0 1-1-2.57 47.48 47.48 0 0 1 .2-26.24 9 9 0 0 0-.06-4.89c-.37-1.45-1.45-1.73-2.42-.61a24.72 24.72 0 0 0-3.27 4.43c-1.47 2.77-2.45 5.82-4 8.52-3.27 5.34-4.27 11.43-4.97 17.42a45.72 45.72 0 0 0 3.82 23.51 146.69 146.69 0 0 1 6.26 16.56 51.36 51.36 0 0 1 2 18.87c-.1 1.28-.45 2.55-.58 3.83 0 .38.28 1.13.47 1.15.46 0 1.2-.16 1.36-.48 1-2.14 2.38-4.27 2.79-6.55.47-2.66.1-5.48.1-8.23z"/><path class="b" d="M406.61 511.72c-.55 5-1.25 10.08-1.61 15.13-.38 5.43-.47 10.87-.66 16.31-.31 8.8.64 17.54 1.76 26.23a59.2 59.2 0 0 0 3.08 11.19c3 8.74 6.14 17.41 9.16 26.13.87 2.52 1.53 5.12 2.27 7.69a3.78 3.78 0 0 1 0 1 6.12 6.12 0 0 1-1.05-.22 8.37 8.37 0 0 0-1.51-.68c-3.38-.52-4.57-3.21-5.57-5.84-1.64-4.31-2.81-8.8-4.51-13.08-2.93-7.42-4.55-15.21-6.67-22.85a76 76 0 0 1-2.11-12.57 256 256 0 0 1-1.06-32.65c.07-2.73 2.45-19.48 1.41-25a22.5 22.5 0 0 0-6-11.91 19.85 19.85 0 0 0-6.05-4.27c-1.54-.67-3.62-.46-5.39-.17-1.37.23-2 0-2.53-1.23-1.46-3.3-1.45-3.4 2.23-3.63a21.21 21.21 0 0 1 15.28 4.71 24.59 24.59 0 0 1 7.92 12.24 48.77 48.77 0 0 1 1.61 13.47z"/><path class="c" d="M387.22 102.94c.44 3.92.75 7.85 1.37 11.74.43 2.68 2 4.91 3.65 7.06 1.52 2 1.35 2.46-.94 2.85a67 67 0 0 0-15.75 5.11c-1.17.52-1.32.14-1.54-.92a20.84 20.84 0 0 1 .91-10.63 54.14 54.14 0 0 1 11.66-19.84 6.66 6.66 0 0 1 1.26-.86c0 .53.05 1 0 1.57-.06 1.29-.16 2.58-.24 3.87zm10.99 543.47c-3.29-6.65-6.3-12.75-9.33-18.84-.28-.57-.67-1.1-1-1.66-1.18-2-1.12-2.33 1-2.79 3.15-.67 6.34-1.26 9.53-1.72 1.78-.25 2.07.08 1.94 1.71-.34 4.22-.73 8.44-1.12 12.65-.23 3.34-.63 6.67-1.02 10.65zM485.51 175c.33 3-1.13 5.68-2.77 8.3-1.52 2.42-2.94 4.91-4.45 7.34a4.89 4.89 0 0 1-1.2 1 11.76 11.76 0 0 1-.51-1.28c-.78-2.85-1.54-5.7-2.31-8.55a1.47 1.47 0 0 1 .83-2 29.7 29.7 0 0 0 9.2-7.4 7 7 0 0 1 1.05-.82 5.19 5.19 0 0 1 .36 1.29 17.65 17.65 0 0 1-.2 2.12zm-177.15 98.29a17.52 17.52 0 0 0 7.12 5.14c1.35.48 1.7 1.37 1.73 2.76.1 5.91.33 11.81.51 17.7-2.39-2.43-7.45-16.11-9.36-25.6zm179.8 20.31c.13-2.29.29-4.58.35-6.88 0-1 .52-1.33 1.39-1.72 2.93-1.3 5.79-2.77 8.68-4.17a6.6 6.6 0 0 1 .63-.2 3.23 3.23 0 0 1-.2.77c-.58 1.16-1.12 2.34-1.79 3.44-2 3.29-3.75 6.79-6.67 9.45a11.71 11.71 0 0 1-1.28 1c-.74.5-1.2.36-1.17-.63v-1.11zM326.47 185.82c-.33-4.51-.65-9-1-13.59 1.24 1.32 2.37 2.61 3.61 3.8a2.53 2.53 0 0 1 .62 3c-.92 2.28-1.88 4.53-2.83 6.79zm146.1 203.57a1.66 1.66 0 0 1-.19.34l-6.47 6a.9.9 0 0 1-.52.17c-.41.05-.83.08-1.25.11a6.14 6.14 0 0 1 .23-1.05c.23-.6.6-1.16.78-1.77a4.37 4.37 0 0 1 4.15-3.43 23.25 23.25 0 0 0 2.65-.65c.18-.05.41.17.62.28z"/><path class="b" d="M415.05 458.67c1.19.18 3 .4 4.78.76a1.47 1.47 0 0 1 .95 1 1 1 0 0 1-1.2 1.1l-7.07-1.06c-.64-.1-1.35-.19-1.25-1.11s.92-.65 1.5-.68 1.1-.01 2.29-.01zm-13.84 1.54c-1.29 0-2.58.06-3.86 0a1.22 1.22 0 0 1-.94-.73 1.37 1.37 0 0 1 .63-1 2.67 2.67 0 0 1 1.32-.34c2.21 0 4.41-.11 6.61-.06.4 0 .78.52 1.17.79-.36.45-.67 1.22-1.08 1.28a30.86 30.86 0 0 1-3.85.06zm-16.95 2.17c-.21-.15-.84-.44-.81-.63.07-.44.39-1.13.72-1.21 2.24-.51 4.51-.94 6.79-1.29.39-.06.85.37 1.27.57-.3.48-.53 1.29-.91 1.37-2.26.48-4.55.81-7.06 1.19zm47.58 1.55c-.57.32-1.21 1-1.67.9a48.65 48.65 0 0 1-5.22-1.66c-.25-.09-.6-.65-.52-.79.27-.53.83-1.45 1.07-1.39 2 .53 4 1.23 5.92 1.93.16.08.2.45.42 1.01z"/><path class="c" d="M328.38 381.14c2.71.13 4.14 1.42 4.38 4.13a33.27 33.27 0 0 0 .91 4 2.11 2.11 0 0 1-.1.73c-.18-.14-.44-.25-.54-.44-1.28-2.32-2.53-4.66-3.8-7-.23-.47-.55-.92-.85-1.42z"/><path class="b" d="M379.84 462.75c-.51.47-.76.9-1.1 1-2 .51-4.06 1-6.11 1.38-.26.05-.59-.24-.88-.37.15-.27.25-.73.47-.8 2.09-.65 4.19-1.26 6.31-1.8.29-.09.69.29 1.31.59zm133.64-145.62l.1-.5c0 .16-.09.31-.13.47z"/><path class="a" d="M393.34 732c-.13-1.86-.32-4.43-.48-7a9.29 9.29 0 0 1 .06-1.29 4.08 4.08 0 0 1 1.24.38 21 21 0 0 0 7.75 3.55c3.06.75 6.15 1.15 9.25.07.95-.32 2-.35 3-.66a39.72 39.72 0 0 0 3.77-1.54c.4-.19.67-.65 1.06-.89 1.2-.74 2.42-1.43 3.64-2.14a24.82 24.82 0 0 0-.8 3.77c-.2 3-.33 6.06-.29 9.09 0 2.67.16 2.66-2.55 1.87-1.59-.46-3.23-.8-4.79-1.34-5.29-1.84-10.56-.73-15.78.22-1.47.26-2.78 1.37-4.17 2.1-.82.43-1.18.2-1.13-.75.05-1.59.11-3.16.22-5.44z"/><path class="c" d="M486.67 529a2.31 2.31 0 0 1-.28-.74 18.53 18.53 0 0 0-2.88-10.52c-.6-1-.28-1.51.75-1.82.79-.25 1.55-.61 2.34-.86a15.72 15.72 0 0 0 10.68-10.67c.13-.41.34-.81.51-1.21a5.8 5.8 0 0 1 1 1.2c1.89 4.28 5.34 7 9.29 9.12a5.73 5.73 0 0 1 .77.63 9.26 9.26 0 0 1-.92.62c-3.19 1.64-6.46 3.12-9.55 4.93a58.48 58.48 0 0 0-6.7 4.81c-1.51 1.2-2.83 2.64-4.25 4-.21.16-.43.29-.76.51zm-188.34-17.92a13.87 13.87 0 0 1 2 2.2 13.12 13.12 0 0 0 6.14 5.37 16.43 16.43 0 0 0 3.66 1c2 .37 2 .53 1.1 2.23-1.19 2.18-2.29 4.41-3.36 6.65a15.49 15.49 0 0 0-.67 2.38l-.57 2a17.51 17.51 0 0 1-1.5-1.2 53.1 53.1 0 0 0-15.59-11.27c-.21-.1-.38-.82-.33-.85 3.41-2.05 6.75-4.16 8.35-8.08.1-.16.44-.24.77-.43z"/><path d="M383.2 360c.53 5.05-2.06 8.67-5.64 11.44a8.61 8.61 0 0 1-8.23 1c-1-.33-1.85-.84-2.79-1.2-.15-.06-.58.21-.62.38a2.41 2.41 0 0 0 0 1.1c1.34 6.1 3.42 11.88 7.21 16.94a68.24 68.24 0 0 1 10.07 19 39.72 39.72 0 0 1 1.43 7.31 76.4 76.4 0 0 1 1 9 37 37 0 0 1-.61 8.55c-1 4.5-2.4 8.91-3.65 13.35a3.54 3.54 0 0 1-3.34 2.8c-1.63.16-2.06-.17-1.58-1.73.54-1.77 1.19-3.51 1.75-5.27 1.53-4.79 1.33-9.6.47-14.5-1.37-7.73-4.39-14.86-7.48-22a87.9 87.9 0 0 0-4-8.22 59.51 59.51 0 0 0-4.8-7.42 61 61 0 0 1-11.39-23.1 19.71 19.71 0 0 1 0-9.07c1.14-5.23 1.83-10.6 4.65-15.3a33.39 33.39 0 0 1 3.2-4.14 2.3 2.3 0 0 1 2.74-.8 3.41 3.41 0 0 1 2.46 2.75 5.61 5.61 0 0 1-.25 2.19 25.46 25.46 0 0 0 1.23 18.56c.94 2.14 2.28 4.27 4.42 5.16 4.82 2 7.75.19 9.35-5.37a33.09 33.09 0 0 0 .65-5.48 2.92 2.92 0 0 1 .13-1.09c.31-.52.73-1.25 1.18-1.32s1.2.6 1.33 1.08c.51 1.77.77 3.6 1.11 5.4zm80.96-44c.2 9.58-2.17 17.9-5.08 26.12a10.15 10.15 0 0 1-.59 1.25c-2.66 5.07-5.5 10.05-7.93 15.22a27.64 27.64 0 0 0-2.3 16c.37 2.54 0 4.36-.87 4.16-1.6-.37-2.26-1.87-2.7-3.22a30.64 30.64 0 0 1-1.17-10.67c.34-8.79 4-16.62 6.78-24.71 2.6-7.53 4.5-15.23 4.16-23.28a61.79 61.79 0 0 0-1-7.12 5.92 5.92 0 0 0-.71-1.78c-.15-.29-.48-.47-.73-.71a3.46 3.46 0 0 0-.38.74c-.46 2.07-1.06 4.13-1.31 6.23a19 19 0 0 1-7.48 13.38 8.81 8.81 0 0 1-14-4.94 32 32 0 0 1-.57-4.38 3 3 0 0 1 .39-1.85 8.33 8.33 0 0 1 1.79-1.46 8.19 8.19 0 0 1 1.06 1.79 15.47 15.47 0 0 1 .38 2.73 6.21 6.21 0 0 0 2.68 4.37c1.85 1.4 3.76.75 5.41-.39a13.08 13.08 0 0 0 5.71-8.48c.88-4.34 2.36-8.59 2.1-13.07-.33-5.86-1.34-11.57-4.92-16.48a6.84 6.84 0 0 1-1-1.66 2 2 0 0 1 1.77-2.8 8.21 8.21 0 0 1 6 1.63c5.86 4.39 9.49 10.38 11.87 17a41.2 41.2 0 0 1 2.64 16.38zm-46.93-53.58c-.08-1.21-.09-2.32-.25-3.41s0-1.92 1-2.27 1.43.6 1.8 1.31a15.12 15.12 0 0 1 .44 13.15 8.79 8.79 0 0 1-6.49 5.54 29 29 0 0 0-3.23.71 5.88 5.88 0 0 1-4.77-.83 14.6 14.6 0 0 1-7.48-9.17c-.4-1.52-.77-3-1.15-4.56-.07-.24-.13-.49-.19-.74-.24.24-.63.44-.71.72-.51 1.95-1.06 3.9-.6 6 .92 4.05 1.67 8.14 2.72 12.16 1.33 5.07.7 10.07-.12 15.1-1.09 6.68-4 12.87-5.36 19.43-1 4.72-1.94 9.55-1.24 14.54a68.33 68.33 0 0 1 .24 9.61 1.28 1.28 0 0 1-2.46.69 11 11 0 0 1-1.47-3.51 73.73 73.73 0 0 1 1.2-30.41c.85-3.5 1.7-7 2.32-10.55a23.87 23.87 0 0 0-1.11-11.48 41.46 41.46 0 0 0-1.65-4.11 33.91 33.91 0 0 1-1.93-20.91 49.94 49.94 0 0 1 6-15.14c1.54-2.62 3.26-5.14 4.95-7.68a12.1 12.1 0 0 1 1.61-1.89c1.3-1.28 2.4-1.43 3.7-.57a3.05 3.05 0 0 1 1.32 3.83 48.33 48.33 0 0 0-3.14 19.79 26.88 26.88 0 0 0 2.08 9.39c1.48 3.55 4.49 5.67 7.62 5.27s6-3.84 6.26-7.57c.15-.86.09-1.71.09-2.44zm28.29-18.48c-.87-5.09 1.68-10.16 2.59-15.5.88-5.18 2.18-10.38 2.27-15.58a29.12 29.12 0 0 0-5.66-18.5 4.07 4.07 0 0 0-.75-.59 5.2 5.2 0 0 0-.25.76c-.61 4.2-1 8.44-1.88 12.58-.67 3.14-1.37 6.52-3.07 9.14-2.74 4.21-6.07 8.16-11.83 8.54-2.9.19-5.22-.35-6.81-3.1a15.56 15.56 0 0 1-2.46-8.67c0-.28-.12-.61 0-.82.33-.59.75-1.13 1.13-1.68a10.93 10.93 0 0 1 1.34 1.57c.21.37.08.91.19 1.36a20.74 20.74 0 0 0 .83 2.92c1.33 3.2 5.08 4.09 8.07 2.3 5.33-3.17 7.42-8.22 8.66-13.87 2.44-11.08 2.33-22-1.86-32.71-.91-2.33-.09-3 2.55-3.16 2.21-.11 3.52.53 4.22 2.61a5.43 5.43 0 0 0 1.18 1.53 44.75 44.75 0 0 1 9 15.76c.89 2.91 2 5.74 3 8.63 1.91 5.81 1.83 11.79 1.57 17.81a69.42 69.42 0 0 1-3.83 20 40.08 40.08 0 0 0-.28 25.56 76.93 76.93 0 0 1 1.72 7.54 2 2 0 0 1-.46 1.7 1.86 1.86 0 0 1-1.74-.24 8.55 8.55 0 0 1-2.24-2.72 88.67 88.67 0 0 1-4.13-10.55 43.8 43.8 0 0 1-1-8.22c-.17-1.26-.07-2.57-.07-4.4zm-97.32 8.97c-.71 7.08 1.3 13.52 3.35 19.93 1 3.06 2.24 6 3.36 9.06a100.62 100.62 0 0 1 4.68 14.74c.67 3.27.24 6.45.25 9.65a28.11 28.11 0 0 1-2.84 13.16 28.45 28.45 0 0 1-3.69 4.77 1.27 1.27 0 0 1-1.21.3 1.32 1.32 0 0 1-.38-1.19 20.65 20.65 0 0 1 1.07-3.43 33.85 33.85 0 0 0 1.93-20.61 73.52 73.52 0 0 0-4.31-14.29c-1.47-3.49-3.41-6.77-5-10.19-1-2.09-1.77-4.26-2.58-6.42-.68-1.8-1.17-3.67-1.91-5.44-2.1-5-1.57-10.4-1.69-15.6-.08-3.23 1.12-6.54 2-9.73a42 42 0 0 1 7.19-13.62 2.45 2.45 0 0 1 2.86-1.11 2.88 2.88 0 0 1 2.3 2.48 4.26 4.26 0 0 1-.07 1.38c-.68 3.62-1.48 7.22-2 10.86a22 22 0 0 0 0 5.25 38.9 38.9 0 0 0 1 6.56 72.85 72.85 0 0 0 3.08 9.15 4 4 0 0 0 4.19 2.63 3.92 3.92 0 0 0 3.37-3.23c.11-1-.2-2-.16-3 0-.67.18-1.71.6-1.91 1-.45 1.76.22 2.19 1.14a10.54 10.54 0 0 1 .83 7.83 7.91 7.91 0 0 1-3.63 4 7 7 0 0 1-8-.62c-2.6-2-3.81-4.68-4.95-7.51-.66-1.64-1.2-3.26-1.83-4.99zm34.32-23.17c0 2.75.37 5.57-.11 8.23-.41 2.28-1.75 4.41-2.79 6.55-.16.32-.9.51-1.36.48-.19 0-.5-.77-.47-1.15.13-1.28.48-2.55.58-3.83a51.36 51.36 0 0 0-2-18.87 146.69 146.69 0 0 0-6.26-16.56 45.72 45.72 0 0 1-3.82-23.51c.69-6 1.68-12.05 4.84-17.48 1.57-2.7 2.55-5.75 4-8.52a24.72 24.72 0 0 1 3.27-4.43c1-1.12 2.05-.84 2.42.61a9 9 0 0 1 .06 4.89 47.48 47.48 0 0 0-.2 26.24 13.16 13.16 0 0 0 1 2.57c1.27 2.41 3.69 2.86 5.69 1a5.25 5.25 0 0 0 2-3.8.83.83 0 0 1 0-.27c.28-1.09-.06-2.6 1.64-2.79 1-.11 2.63 2.07 2.24 3.34-.75 2.44-1.41 5.14-2.94 7.05-2 2.5-7 4.07-10.13 1-1.82-1.81-3.34-3.69-3.72-6.3a3.48 3.48 0 0 0-.25-1.07 2.74 2.74 0 0 0-.68-.63 2.09 2.09 0 0 0-.32.7 36.88 36.88 0 0 0-.05 4.7 117.37 117.37 0 0 0 3.44 16.77c1.26 5 2.22 10.09 3.11 15.18.56 3.26.74 6.58 1.1 9.87z"/></svg>