<svg xmlns="http://www.w3.org/2000/svg" viewBox="0 0 800 800"><defs><style>.a{fill:#fff}.b{fill:#e83131}.c{fill:#fca14f}</style></defs><path class="a" d="M256.5 55.63l.47-.08a4.58 4.58 0 0 0 0-1.78 10.09 10.09 0 0 0-2.11-3.48c-1.17-1-1.48.86-2.24 1.31-5 3-8.31 7.79-11.69 12.33-3 4.06-5.3 8.69-7.76 13.15a71.87 71.87 0 0 0-3.81 8.15c-1.43 3.62-2.61 7.33-3.87 11a6.68 6.68 0 0 0-.42 2c-.06 4.41-.22 8.82-.07 13.22a51.11 51.11 0 0 0 2.6 15c2.65 7.71 7.27 14.23 11.81 20.83 3.92 5.7 8.9 10.51 13.36 15.75s8.71 10.23 13.18 15.24 6.83 10.82 9.74 16.5c2.78 5.41 5.11 11.06 7.64 16.6a125.77 125.77 0 0 1 7.56 20.51c.67 2.61 1.6 5.16 2.14 7.79 1.69 8.24 3.35 16.49 4.82 24.78 1 5.81 1.84 11.67 2.59 17.53.61 4.76 1 9.55 1.48 14.33.28 2.58.66 5.15 1 7.74.33 2.78.59 5.57.94 8.35.51 4.17 1.07 8.34 1.62 12.52.49 3.75 1 7.5 1.48 11.24a94.56 94.56 0 0 0 4.31 17.84c2.83 8.31 5.51 16.68 8.39 25 1.28 3.67 2.95 7.2 4.39 10.81.64 1.58 1 3.26 1.78 4.78 1.19 2.41 2.56 4.73 3.89 7.07 2.46 4.35 4.78 8.78 7.45 13 2.95 4.65 6.21 9.09 9.36 13.61 1.48 2.13 3 4.23 4.54 6.33 1.75 2.44 3.42 4.94 5.28 7.29 1.42 1.8 3.14 3.37 4.63 5.13 2.55 3 3.23 3.18 7 1.63a15.37 15.37 0 0 1 8.21-1.36q2.69.39 5.34.92a17.78 17.78 0 0 1 11.44 7.17c4.63 6.54 5.47 13.89 3.16 21.53-.75 2.46-1 5.28-3.17 7-2.66 2.21-2.13 4.65-1.13 7.34.66 1.77 1.07 3.64 1.66 5.44 1 3 1.66 6.27 3.18 9 1.65 3 4.05 5.67 6.25 8.38 1.25 1.55 2.79 2.87 4.12 4.36 2.2 2.46 4.26 5.06 6.53 7.45a79.07 79.07 0 0 0 5.9 5.53c3.19 2.74 6.46 5.39 9.71 8.05 3.64 3 7.22 6 11 8.84 4.16 3.13 8.51 6 12.74 9 2.59 1.86 5.1 3.82 7.66 5.71.73.53 1.59.87 2.3 1.41 5.17 3.93 10.45 7.74 15.44 11.88 6.85 5.7 13.49 11.66 20.21 17.52.68.59 1.26 1.29 1.92 1.91 2.92 2.73 6 5.3 8.76 8.19a146.47 146.47 0 0 1 15.46 18.35c2.31 3.38 4.72 6.68 6.91 10.14 1.6 2.54 2.92 5.25 4.32 7.91 2.29 4.34 4.59 8.67 5.91 13.43 1.15 4.15 2.36 8.28 3.47 12.44.87 3.29 1.79 6.58 2.36 9.92s.81 6.94 1.15 10.42c.26 2.68.62 5.38.64 8.07 0 4.41 0 8.83-.28 13.23-.31 4.87-.9 9.74-1.46 14.6a43.72 43.72 0 0 1-1.29 8.27c-.88 2.76-.28 5.8-2 8.4-.86 1.32.22 2.46 1.88 2.32 1.85-.17 2.74-1.51 3.64-2.85.6-.91 1.1-1.9 1.74-2.78 3.62-5 6-10.58 8.56-16.1 1.21-2.64 2.81-5.27 2.93-8.41a9 9 0 0 1 1.33-3.32c1.2-2.43 2.4-4.84 2.53-7.65a11.63 11.63 0 0 1 .78-2.88c.53-1.72 1.19-3.4 1.64-5.13.67-2.6 1.24-5.24 1.81-7.86.44-2 .94-4.08 1.2-6.14.5-3.77.82-7.57 1.25-11.35.28-2.48.79-4.94.91-7.43.26-5.29.41-10.59.48-15.89a78.74 78.74 0 0 0-.22-10.76c-.91-7.35-2.2-14.64-3.33-22a29.15 29.15 0 0 0-.63-3.85c-2.81-9.29-5.05-18.79-9.64-27.45-1.92-3.63-3.85-7.26-5.88-10.83-1.18-2.08-2.56-4.05-3.86-6.06a80.68 80.68 0 0 0-4.76-7.24c-2.7-3.32-5.66-6.42-8.57-9.56q-7.75-8.37-15.61-16.66c-4.55-4.8-9.18-9.52-13.74-14.3-2.62-2.75-5-5.84-7.81-8.3-5.81-5-10.64-10.87-16.06-16.2-3.36-3.3-6.45-6.87-9.69-10.28-1.17-1.23-2.6-2.24-3.67-3.55-2.66-3.25-5.09-6.67-7.76-9.9-6.26-7.58-12.6-15.08-18.89-22.63-1.29-1.54-2.4-3.23-3.76-4.69a106.19 106.19 0 0 1-12.76-16.72c-3.29-5.27-6.68-10.49-9.76-15.89-3-5.22-6.17-10.41-8.27-16-3.12-8.3-7.3-16.32-8.13-25.38-3-8.22-2.75-16.95-4-25.45a43.86 43.86 0 0 1-.27-5.38c-.08-4.3-.12-8.6-.19-12.9v-.3c-.54-5.18-1.11-10.35-1.6-15.53-.57-6.07-.93-12.17-1.62-18.23-.8-7-1.81-14-2.83-21-1.34-9.09-4.8-17.59-7.53-26.28-1.28-4.09-3.14-8-4.82-12a145.81 145.81 0 0 0-14.36-26c-2.89-4.19-5.44-8.58-8.89-12.42-3.75-4.16-6.95-8.8-11.18-12.53-.82-.72-1.73-1.35-2.52-2.1-2.6-2.47-5.14-5-7.76-7.45-3.37-3.15-6.83-6.21-10.21-9.35-6.32-5.85-12.51-11.84-18.94-17.56a151 151 0 0 1-16-16.64c-7.15-8.66-13.82-17.7-19-27.72-1.89-3.64-4-7.2-5.53-11a151.41 151.41 0 0 1-5.5-15.89c-1.46-4.53-2.1-9.31-3.03-14.02zm205.44 665.06c-.06 4.63 1.29 8.91 2.7 13.23 1.58 4.88 5.06 8.23 8.53 11.67 1.66 1.66 3.91 1.92 5.82 2.91a13.83 13.83 0 0 0 11.6.44c9.49-3.5 13.14-13.82 11.93-22.33-1.32-9.27-4.93-17.91-8.23-26.6-2.44-6.43-5.21-12.75-7.41-19.26a126 126 0 0 1-3.29-13.64c-.24-1.09-.55-2-1.61-2.3a2.54 2.54 0 0 0-2.94 1 19.37 19.37 0 0 0-1.92 2.69c-1.52 2.71-3 5.46-4.42 8.22a40.39 40.39 0 0 0-2.35 4.87c-1.39 3.85-2.76 7.73-3.85 11.68-.94 3.44-1.54 7-2.19 10.5-.58 3.15-1.09 6.32-1.54 9.49-.35 2.45-.56 4.94-.83 7.43zM402.52 558.4l.5-.06c0-1.5.06-3 0-4.51-.06-1.2-.13-2.54-1.6-2.93a2.59 2.59 0 0 0-2.79 1.37 48.27 48.27 0 0 0-3.4 5c-2.91 5.37-5.85 10.73-8.47 16.24a118.3 118.3 0 0 0-4.84 12.29 51.87 51.87 0 0 0-2.76 11c-.36 3.16-1.3 6.26-1 9.51.21 2.79.47 5.59.55 8.4a26.17 26.17 0 0 0 5.05 15.38 50.49 50.49 0 0 0 3.69 3.92 12.63 12.63 0 0 0 7.78 4c5.1.72 9.84.11 14.32-2.86a15.16 15.16 0 0 0 6-6.88 22.4 22.4 0 0 0 1-13c-1.16-5.73-3.25-11.28-5-16.88-1.12-3.53-2.36-7-3.61-10.49-2-5.41-2.74-11.08-3.66-16.7-.86-4.26-1.28-8.54-1.76-12.8zm-101.06-56.13c.2 2.33.27 4.69.63 7a63.82 63.82 0 0 0 2 9.83c1.68 5.19 5.06 9.11 8.88 12.46 1.72 1.51 3.6 3.25 5.63 3.77 6 1.55 12 1.13 16.83-3.92a16.73 16.73 0 0 0 4.76-9.5c.93-6.8-.42-13.2-2.3-19.52s-4-12.45-6-18.66c-1.62-4.94-3.27-9.84-4.44-15-1.43-6.35-2.45-12.68-1.84-19.24.21-2.22-.29-2.76-2.15-2.19a3.65 3.65 0 0 0-1.82 1.08c-2.3 2.95-5 5.7-6.65 9.07-2.61 5.28-5.41 10.42-7.58 16a96.27 96.27 0 0 0-5.95 28.82z"/><path d="M256.5 55.63c.93 4.71 1.57 9.49 2.86 14.1a151.41 151.41 0 0 0 5.5 15.89c1.53 3.79 3.64 7.35 5.53 11 5.2 10 11.87 19.06 19 27.72a151 151 0 0 0 16 16.64c6.43 5.72 12.62 11.71 18.94 17.56 3.38 3.14 6.84 6.2 10.21 9.35 2.62 2.44 5.16 5 7.76 7.45.79.75 1.7 1.38 2.52 2.1 4.23 3.73 7.43 8.37 11.18 12.53 3.45 3.84 6 8.23 8.89 12.42a145.81 145.81 0 0 1 14.36 26c1.68 4 3.54 7.88 4.82 12 2.73 8.69 6.19 17.19 7.53 26.28 1 7 2 14 2.83 21 .69 6.06 1.05 12.16 1.62 18.23.49 5.18 1.06 10.35 1.6 15.53v.3c.07 4.3.11 8.6.19 12.9a43.86 43.86 0 0 0 .27 5.38c1.27 8.5 1 17.23 4 25.45.83 9.06 5 17.08 8.13 25.38 2.1 5.59 5.29 10.78 8.27 16 3.08 5.4 6.47 10.62 9.76 15.89a106.19 106.19 0 0 0 12.76 16.72c1.36 1.46 2.47 3.15 3.76 4.69 6.29 7.55 12.63 15.05 18.89 22.63 2.67 3.23 5.1 6.65 7.76 9.9 1.07 1.31 2.5 2.32 3.67 3.55 3.24 3.41 6.33 7 9.69 10.28 5.42 5.33 10.25 11.23 16.06 16.2 2.86 2.46 5.19 5.55 7.81 8.3 4.56 4.78 9.19 9.5 13.74 14.3q7.86 8.28 15.61 16.66c2.91 3.14 5.87 6.24 8.57 9.56a80.68 80.68 0 0 1 4.76 7.24c1.3 2 2.68 4 3.86 6.06 2 3.57 4 7.2 5.88 10.83 4.59 8.66 6.83 18.16 9.64 27.45a29.15 29.15 0 0 1 .63 3.85c1.13 7.32 2.42 14.61 3.33 22a78.74 78.74 0 0 1 .22 10.76c-.07 5.3-.22 10.6-.48 15.89-.12 2.49-.63 5-.91 7.43-.43 3.78-.75 7.58-1.25 11.35-.26 2.06-.76 4.1-1.2 6.14-.57 2.62-1.14 5.26-1.81 7.86-.45 1.73-1.11 3.41-1.64 5.13a11.63 11.63 0 0 0-.78 2.88c-.13 2.81-1.33 5.22-2.53 7.65a9 9 0 0 0-1.33 3.32c-.12 3.14-1.72 5.77-2.93 8.41-2.53 5.52-4.94 11.14-8.56 16.1-.64.88-1.14 1.87-1.74 2.78-.9 1.34-1.79 2.68-3.64 2.85-1.66.14-2.74-1-1.88-2.32 1.7-2.6 1.1-5.64 2-8.4a43.72 43.72 0 0 0 1.29-8.27c.56-4.86 1.15-9.73 1.46-14.6.29-4.4.33-8.82.28-13.23 0-2.69-.38-5.39-.64-8.07-.34-3.48-.56-7-1.15-10.42s-1.49-6.63-2.36-9.92c-1.11-4.16-2.32-8.29-3.47-12.44-1.32-4.76-3.62-9.09-5.91-13.43-1.4-2.66-2.72-5.37-4.32-7.91-2.19-3.46-4.6-6.76-6.91-10.14A146.47 146.47 0 0 0 509.14 604c-2.76-2.89-5.84-5.46-8.76-8.19-.66-.62-1.24-1.32-1.92-1.91-6.72-5.9-13.36-11.9-20.21-17.56-5-4.14-10.27-8-15.44-11.88-.71-.54-1.57-.88-2.3-1.41-2.56-1.89-5.07-3.85-7.66-5.71-4.23-3-8.58-5.91-12.74-9-3.75-2.82-7.33-5.87-11-8.84-3.25-2.66-6.52-5.31-9.71-8.05a79.07 79.07 0 0 1-5.9-5.53c-2.27-2.39-4.33-5-6.53-7.45-1.33-1.49-2.87-2.81-4.12-4.36-2.2-2.71-4.6-5.35-6.25-8.38-1.52-2.76-2.19-6-3.18-9-.59-1.8-1-3.67-1.66-5.44-1-2.69-1.53-5.13 1.13-7.34 2.12-1.76 2.42-4.58 3.17-7 2.31-7.64 1.47-15-3.16-21.53a17.78 17.78 0 0 0-11.44-7.17q-2.65-.52-5.34-.92a15.37 15.37 0 0 0-8.21 1.36c-3.73 1.55-4.41 1.38-7-1.63-1.49-1.76-3.21-3.33-4.63-5.13-1.86-2.35-3.53-4.85-5.28-7.29-1.52-2.1-3.06-4.2-4.54-6.33-3.15-4.52-6.41-9-9.36-13.61-2.67-4.21-5-8.64-7.45-13-1.33-2.34-2.7-4.66-3.89-7.07-.75-1.52-1.14-3.2-1.78-4.78-1.44-3.61-3.11-7.14-4.39-10.81-2.88-8.29-5.56-16.66-8.39-25a94.56 94.56 0 0 1-4.38-17.77c-.51-3.74-1-7.49-1.48-11.24-.55-4.18-1.11-8.35-1.62-12.52-.35-2.78-.61-5.57-.94-8.35-.31-2.59-.69-5.16-1-7.74-.51-4.78-.87-9.57-1.48-14.33-.75-5.86-1.55-11.72-2.59-17.53-1.47-8.29-3.13-16.54-4.82-24.78-.54-2.63-1.47-5.18-2.14-7.79a125.77 125.77 0 0 0-7.56-20.51c-2.53-5.54-4.86-11.19-7.64-16.6-2.91-5.68-5.39-11.63-9.74-16.5s-8.83-10.12-13.18-15.24-9.44-10-13.36-15.75c-4.54-6.6-9.16-13.12-11.81-20.83a51.11 51.11 0 0 1-2.6-15c-.15-4.4 0-8.81.07-13.22a6.68 6.68 0 0 1 .42-2c1.26-3.68 2.44-7.39 3.87-11a71.87 71.87 0 0 1 3.81-8.15c2.46-4.46 4.74-9.09 7.76-13.15 3.38-4.54 6.68-9.32 11.69-12.33.76-.45 1.07-2.31 2.24-1.31a10.09 10.09 0 0 1 2.11 3.48 4.58 4.58 0 0 1 0 1.78zm137.28 389.74l.67.27v-.24h-.72c.5-1.16-.3-1.81-.92-2.6-4.65-5.9-10.72-10.18-16.76-14.42-4.82-3.39-9.89-6.41-14.86-9.58-1.43-.91-2.94-1.7-4.33-2.66-2.71-1.86-5.37-3.8-8.05-5.7a2.91 2.91 0 0 0-.81-.44c-.26-.07-.71-.09-.81.05s-.39.8-.26 1a24 24 0 0 0 2.19 3.16c2.68 3.1 5.54 6.06 8.11 9.25a130.67 130.67 0 0 0 14.27 14.92c2.22 2 4.44 4 7.92 2.94 1-.3 2.16.18 3.25.36a41.36 41.36 0 0 1 11.11 3.69zm171.9 228.77a41 41 0 0 0 .78-20.77 96.25 96.25 0 0 0-4.25-12.82c-3.17-8.21-4.6-16.78-5.75-25.43q-.75-5.67-1.58-11.33c-1.2-8.28-5.19-15.08-11.24-20.72-3.29-3.06-6.64-6.07-10.08-9-5.27-4.43-8.85-10.05-11.82-16.13-1.14-2.34-2.15-4.75-3.28-7.1-1.73-3.63-3.62-7.24-7-9.63-4.22-3-8.61-5.78-13-8.55-1.85-1.17-3.94-2-5.81-3.1-6.22-3.8-12.95-6.87-18.25-12.07-2.83-2.77-6.36-4.89-8-8.73a3.35 3.35 0 0 0-.52-.73c-3.83-4.63-5.94-10.18-8.19-15.62-1.68-4.08-3.1-8.26-4.78-12.33a20.64 20.64 0 0 0-2.58-4.39c-4.6-6.16-11.07-10-17.48-13.94a123.26 123.26 0 0 1-11.7-7.87 41.68 41.68 0 0 1-13.72-19.7c-.42-1.22-.69-2.49-1.12-3.7-.85-2.35-2-4.62-2.62-7A31.71 31.71 0 0 0 391 405.12a39.36 39.36 0 0 1-11.5-12.94 40.76 40.76 0 0 1-4.92-24.35 38.1 38.1 0 0 0-3.44-20.78c-.73-1.53-1.37-2.23-3.13-1.78-4.36 1.12-8.74 2.16-12.76 4.3-1.77.95-3.63 1.7-5.43 2.58-3.59 1.77-7.36 3.26-10.7 5.42a76.73 76.73 0 0 0-13.6 11.27c-.83.85-2.18 1.61-2.34 2.58s.86 2.12 1.4 3.17a79 79 0 0 0 16.32 22.05A142.38 142.38 0 0 0 356 409c3.42 2.4 7.11 4.42 10.68 6.61l14.85 9.1a9.44 9.44 0 0 1 1.17.94c3.14 2.79 6.22 5.65 9.43 8.36 5.88 5 9.41 11.6 12.67 18.38 2.95 6.13 4.13 12.8 5.17 19.43a41.17 41.17 0 0 1-2.56 21.18c-1.28 2.82-2.25 5.75-4.2 8.24-2.16 2.73-2.07 3 .84 4.71.26.15.54.26.8.41a63.39 63.39 0 0 0 16.15 7.13 49.57 49.57 0 0 0 11.21 1.8c4.13.09 8.16.08 12-1.68 1.6-.72 2.88-.13 3.87 1.33a26.44 26.44 0 0 0 2.77 3.55q3.75 3.88 7.65 7.62c1.88 1.8 3.79 3.58 5.83 5.19 2.82 2.23 5.79 4.28 8.69 6.41 4.51 3.32 9 6.65 13.54 9.94 3.64 2.65 7.47 5.05 10.93 7.9 4.47 3.67 8.77 7.58 12.94 11.6 4.88 4.71 10.21 9 14.33 14.47 3.17 4.25 6.69 8.22 10 12.34 6.17 7.64 10.23 16.47 14.18 25.35 1.84 4.12 3.58 8.27 5.36 12.41a11.82 11.82 0 0 1 .48 1.1c1.25 4 2.29 8.11 3.77 12a101.31 101.31 0 0 1 5.83 24.43 37.92 37.92 0 0 0 1.3 4.89zM562 685.57c-.09-1.54-.07-2.75-.25-3.93-1-6.44-1.84-12.91-3.08-19.29a112.53 112.53 0 0 0-3.73-14.47c-1.91-5.69-4.36-11.2-6.56-16.79-.8-2-1.46-4.15-2.38-6.14-2.07-4.44-4.45-8.74-6.36-13.24a61.23 61.23 0 0 0-7.9-13.73c-2.68-3.48-5-7.25-7.92-10.53-4.31-4.88-8.9-9.52-13.53-14.1-3.19-3.16-6.63-6.06-10-9-1.49-1.33-3-2.66-4.6-3.87-4.22-3.19-8.5-6.33-12.75-9.48-3.79-2.8-7.56-5.61-11.37-8.38-4.19-3.05-8.54-5.91-12.58-9.14-4.54-3.62-9-7.36-12.39-12.2a3.38 3.38 0 0 0-4.16-1.45 11.51 11.51 0 0 1-2.91.64c-3.18 0-6.37-.12-9.55-.16a2.88 2.88 0 0 0-1 .36 2.46 2.46 0 0 0 .32.78 52.89 52.89 0 0 0 4.34 5c3.83 3.51 7.79 6.88 11.74 10.27 1.9 1.63 3.87 3.18 5.84 4.72 2.85 2.22 5.76 4.35 8.57 6.6 3.43 2.75 6.76 5.63 10.19 8.38 4.68 3.77 9.44 7.43 14.1 11.21 2.8 2.28 5.46 4.72 8.2 7.05 3.9 3.32 7.85 6.57 11.71 9.92 5 4.34 9.74 9 14.89 13.09a83 83 0 0 1 14.79 15.7A101.28 101.28 0 0 1 543 629c1.27 2.6 2.94 5 4 7.72q3.53 9.09 6.56 18.36a118 118 0 0 1 5.14 23.69c.89 7.9.62 15.8.72 23.7 0 1.28-.15 2.55-.23 3.83 1.82-.59.69-2.77 2-3.69.22-.16.15-.76.16-1.16.21-5.45.42-10.81.65-15.88zm-313.74-594c.38 7.06.05 14.26 3.22 20.9.54 5.81 3.54 10.83 5.56 16.11 1.88 4.91 4.9 9.38 7.48 14 1.07 1.92 2.35 3.72 3.46 5.62 1.86 3.2 3.64 6.44 5.5 9.64 2.56 4.4 5.82 8.39 7.64 13.22a10.88 10.88 0 0 0 1.32 2.35.77.77 0 0 0 1.38-.68 29 29 0 0 0-1.22-4.64c-1.82-4.45-3.77-8.84-5.67-13.26-1.1-2.57-2.11-5.19-3.3-7.72-1.4-3-3-5.83-4.39-8.81a63.32 63.32 0 0 1-3.11-7.82c-.87-2.86-1.39-5.84-2-8.78-1.57-7.22-2.26-14.54-.79-21.8a13.31 13.31 0 0 0-1.34-9.74c-.15-.26-.28-.53-.42-.8a94.21 94.21 0 0 1-7.39-19.62 16.75 16.75 0 0 0-.94-2.53 1 1 0 0 0-.56-.57c-.17 0-.48.28-.57.51a46.08 46.08 0 0 0-1.67 4.51 61.47 61.47 0 0 0-2.22 19.88zm84.51 218.27c.28 3.08.57 6.16.83 9.25.09 1 .48 1.49 1.54 1 .45-.21.93-.37 1.39-.57 2.57-1.1 5.11-2.3 7.73-3.29 2.23-.84 4.56-1.45 6.84-2.14 1-.29 1.36-.7.68-1.7a12.15 12.15 0 0 1-2-7.44c0-.49-.17-1-.21-1.48-.37-4.08-1.11-8.17-1-12.24a99.89 99.89 0 0 1 2-17c1.18-5.88 1.45-11.93 2.41-17.85.94-5.72.15-11.4.06-17.09a4.85 4.85 0 0 0-.43-1.32 7 7 0 0 0-.71 1.2 6.62 6.62 0 0 0-.07 1.19c-.67 4.86-1 9.81-2.11 14.56-1.42 5.82-3.42 11.52-5.41 17.19-2.52 7.18-5 14.4-8 21.35-2.42 5.26-3.15 10.68-3.57 16.35zm-15.57 10.53c.15 2.79.29 5.59.47 8.39.07 1 .33 1.43 1.47.72 2.62-1.66 5.35-3.16 8-4.71 2-1.14 2-1.18 1.5-3.27a42.57 42.57 0 0 1 1.36-24.8c3.47-9.71 7-19.39 10.36-29.16 1.76-5.21 3.08-10.57 4.55-15.88a18.74 18.74 0 0 0 .5-3.26c0-.29-.32-.6-.49-.91-.24.15-.59.23-.71.44-.54 1-1.07 1.93-1.52 2.93-1.2 2.64-2.32 5.31-3.54 7.93-.6 1.26-1.42 2.41-2 3.67-2.82 5.87-5.57 11.77-8.42 17.63-1.74 3.6-3.88 7-5.35 10.73a118.78 118.78 0 0 0-3.7 12 56 56 0 0 0-2.48 17.55zm9.06-132.88h.26c-.49-3.36-.7-6.78-1.51-10.05-1.22-4.94-2.82-9.8-4.34-14.67a5.48 5.48 0 0 0-1.41-2.22c-2.5-2.38-5.07-4.68-7.65-7-.25-.22-.72-.2-1.08-.29a3.06 3.06 0 0 0-.19 1.09A16.29 16.29 0 0 0 311 156c1.33 4.08 2.73 8.13 3.93 12.24a38.63 38.63 0 0 1 1.07 5.87c.71 5.35 1.71 10.7 1.93 16.08a125.47 125.47 0 0 1-.61 16.78c-.78 8.37-1.93 16.7-3 25-.19 1.49-.7 2.92-.93 4.4-.07.46.32 1 .5 1.46.34-.32.79-.58 1-1 2-4.21 4.2-8.37 6-12.69a80.57 80.57 0 0 0 4.83-17.31 58.3 58.3 0 0 0 .62-18.54 5.4 5.4 0 0 1-.08-.8zm-58.56-77.24a57.89 57.89 0 0 0 4.72 22.23c2.56 6.17 5.61 12.14 8.45 18.19.64 1.36 1.31 2.7 1.94 4.05a116.94 116.94 0 0 1 4.85 10.65c2.58 7.49 4 15.3 5.43 23.09.74 4 1.37 8.09 2.08 12.13a4.12 4.12 0 0 0 .49 1.07 4.28 4.28 0 0 0 .76-1.14 6.67 6.67 0 0 0 .08-1.79c-.08-2.1-.1-4.21-.29-6.29-.47-5.09-.94-10.18-1.57-15.24-.37-3-1.09-5.91-1.59-8.88a77.28 77.28 0 0 0-4.91-16.32c-1.65-4.05-4-7.83-4.83-12.22-.57-3-1.55-6-2.06-9.06a13.72 13.72 0 0 1 0-5.6 4.13 4.13 0 0 0-1-4.05c-2.74-3.58-5.36-7.24-7.93-10.94-1.13-1.64-2-3.47-3-5.18-.22-.36-.71-.54-1.07-.81a4.19 4.19 0 0 0-.48 1.3c-.1 1.56-.07 3.21-.07 4.81zm73.37 87.09c-.57-3.35-.93-6.75-1.77-10-1.4-5.48-4.5-10.2-7.36-15a10.09 10.09 0 0 0-2.31-2.35c-.3-.25-.88-.17-1.33-.24a3.27 3.27 0 0 0 0 1.13c1.52 3.76 2 7.73 2.6 11.7a83.62 83.62 0 0 1-1 29.84c-.46 2.13-.92 4.26-1.43 6.37a17.05 17.05 0 0 1-.81 2.27c-.54 1.39-1.11 2.78-1.68 4.17-1.78 4.34-3.34 8.78-5.4 13-2.55 5.19-5.52 10.18-8.28 15.27a7.88 7.88 0 0 0-.72 1.93c-.07.29.2.66.32 1a3.79 3.79 0 0 0 1-.39 4.27 4.27 0 0 0 .74-.93q6.88-9.22 13.77-18.47a9 9 0 0 0 .55-1.07c1.34-2.34 2.69-4.67 4-7 1-1.83 2.39-3.56 3-5.53 1.76-5.41 4-10.67 5-16.35.54-3.13 1.27-6.15 1.11-9.35zm40.15 121.86c-7.81-.46-15.38 1.09-22.76 3.29a98.63 98.63 0 0 0-14.23 5.59 57.44 57.44 0 0 0-17.44 12.58 9.18 9.18 0 0 0-1.35 1.59 1.8 1.8 0 0 0 .08 1.32 1.35 1.35 0 0 0 1 0c2.41-1.33 4.79-2.74 7.19-4.08 3-1.7 6-3.55 9.15-5s6.73-2.53 10.12-3.75c6.54-2.34 13.39-3.36 20.2-4.38 5.07-.77 10.18-.33 15.26.29 4.38.53 4.67.2 3.92-4.33-.05-.3-.17-.58-.19-.88-.12-1.6-1-2.27-2.56-2.25-2.78.04-5.61.01-8.39.01zm2.39 15.07v-.12c-.7.05-1.4.07-2.1.15a86 86 0 0 0-19.16 4.64c-1 .35-2.5.25-2.64 1.89a18.34 18.34 0 0 0 3.15-.1c3.22-.63 6.39-1.62 9.63-2a110.61 110.61 0 0 1 11.38-.58c2.7-.05 5.4.19 8.09.26a2.35 2.35 0 0 0 1.24-.33 9.58 9.58 0 0 0-.41-3.53c-.22-.51-1.5-.79-2.3-.77-2.3.04-4.59.3-6.88.49zm-37.1 74.83c-.07.07-.2.15-.19.2a1.62 1.62 0 0 0 .19.4c.07-.06.2-.14.19-.19a1.69 1.69 0 0 0-.19-.41zm115.43 311.59c.27-2.49.48-5 .83-7.46.45-3.17 1-6.34 1.54-9.49.65-3.52 1.25-7.06 2.19-10.5 1.09-4 2.46-7.83 3.85-11.68a40.39 40.39 0 0 1 2.35-4.87c1.44-2.76 2.9-5.51 4.42-8.22a19.37 19.37 0 0 1 1.92-2.69 2.54 2.54 0 0 1 2.94-1c1.06.35 1.37 1.21 1.61 2.3a126 126 0 0 0 3.29 13.64c2.2 6.51 5 12.83 7.41 19.26 3.3 8.69 6.91 17.33 8.23 26.6 1.21 8.51-2.44 18.83-11.93 22.33a13.83 13.83 0 0 1-11.6-.44c-1.91-1-4.16-1.25-5.82-2.91-3.47-3.44-6.95-6.79-8.53-11.67-1.41-4.29-2.76-8.57-2.7-13.2zm5.49 1.22c-.54 6.65 3.7 14.62 8.4 19.12a12.74 12.74 0 0 0 14.52 1.6 15.74 15.74 0 0 0 3.75-2.9 17.46 17.46 0 0 0 2.3-4.1 4.57 4.57 0 0 0 0-1.66 4.19 4.19 0 0 0-1.29.46 13.21 13.21 0 0 1-10.53 3 16.12 16.12 0 0 1-8.74-4.19c-4-3.33-5.1-8.25-7.16-12.64l-.93-1.94c-.12.73-.26 1.46-.35 2.2a7.49 7.49 0 0 0 .03 1.05zM402.52 558.4c.52 4.26.9 8.54 1.59 12.78.92 5.62 1.7 11.29 3.66 16.7 1.25 3.48 2.49 7 3.61 10.49 1.78 5.6 3.87 11.15 5 16.88a22.4 22.4 0 0 1-1 13 15.16 15.16 0 0 1-6 6.88c-4.48 3-9.22 3.58-14.32 2.86a12.63 12.63 0 0 1-7.78-4 50.49 50.49 0 0 1-3.69-3.92 26.17 26.17 0 0 1-5.05-15.38c-.08-2.81-.34-5.61-.55-8.4-.25-3.25.69-6.35 1-9.51a51.87 51.87 0 0 1 2.76-11 118.3 118.3 0 0 1 4.84-12.29c2.62-5.51 5.56-10.87 8.47-16.24a48.27 48.27 0 0 1 3.4-5 2.59 2.59 0 0 1 2.79-1.37c1.47.39 1.54 1.73 1.6 2.93.07 1.5 0 3 0 4.51zM383.2 613a23.49 23.49 0 0 0 6 15.29c3.67 4.27 8.05 5 12.95 4.1 2.56-.48 5.3-1.42 6.24-4.47.13-.41.24-.82.35-1.23a4.09 4.09 0 0 0-1.39.23c-3.21 1.9-6.61 1.22-10 .72a10.32 10.32 0 0 1-5.69-3.11 29.16 29.16 0 0 1-7.62-12c-.27-.82-.59-1.61-.88-2.42zm-81.74-110.73a96.27 96.27 0 0 1 5.93-28.77c2.17-5.62 5-10.76 7.58-16 1.67-3.37 4.35-6.12 6.65-9.07a3.65 3.65 0 0 1 1.82-1.08c1.86-.57 2.36 0 2.15 2.19-.61 6.56.41 12.89 1.84 19.24 1.17 5.14 2.82 10 4.44 15 2 6.21 4.11 12.4 6 18.66s3.23 12.72 2.3 19.52a16.73 16.73 0 0 1-4.76 9.5c-4.82 5.05-10.79 5.47-16.83 3.92-2-.52-3.91-2.26-5.63-3.77-3.82-3.35-7.2-7.27-8.88-12.46a63.82 63.82 0 0 1-2-9.83c-.34-2.32-.41-4.72-.61-7.05zm22.19 28.51l6.48-2.44a5.94 5.94 0 0 0 3.73-4.48c.12-.5.15-1 .23-1.53a8 8 0 0 0-1.29.48 14.48 14.48 0 0 1-2.83 1.62 32.33 32.33 0 0 1-5.35.82c-4.65.42-8.38-1.41-11.07-5.8-1.57-2.57-3.24-5.08-4.89-7.59a6 6 0 0 0-.92-.9c-.08.43-.32.93-.21 1.27 1.06 3.14 1.8 6.51 3.35 9.3 2.85 5.14 6.79 8.85 12.77 9.25z"/><path class="b" d="M565.68 674.14a37.92 37.92 0 0 1-1.21-4.86 101.31 101.31 0 0 0-5.83-24.43c-1.48-3.92-2.52-8-3.77-12a11.82 11.82 0 0 0-.48-1.1c-1.78-4.14-3.52-8.29-5.36-12.41-3.95-8.88-8-17.71-14.18-25.35-3.34-4.12-6.86-8.09-10-12.34-4.12-5.51-9.45-9.76-14.33-14.47-4.17-4-8.47-7.93-12.94-11.6-3.46-2.85-7.29-5.25-10.93-7.9-4.53-3.29-9-6.62-13.54-9.94-2.9-2.13-5.87-4.18-8.69-6.41-2-1.61-3.95-3.39-5.83-5.19q-3.9-3.74-7.65-7.62a26.44 26.44 0 0 1-2.77-3.55c-1-1.46-2.27-2.05-3.87-1.33-3.86 1.76-7.89 1.77-12 1.68a49.57 49.57 0 0 1-11.21-1.8 63.39 63.39 0 0 1-16.19-7.09c-.26-.15-.54-.26-.8-.41-2.91-1.71-3-2-.84-4.71 2-2.49 2.92-5.42 4.2-8.24a41.17 41.17 0 0 0 2.52-21.19c-1-6.63-2.22-13.3-5.17-19.43C401.5 445.64 398 439 392.09 434c-3.21-2.71-6.29-5.57-9.43-8.36a9.44 9.44 0 0 0-1.17-.94l-14.85-9.1c-3.57-2.19-7.26-4.21-10.68-6.61a142.38 142.38 0 0 1-15-12.39 79 79 0 0 1-16.32-22.05c-.54-1-1.56-2.22-1.4-3.17s1.51-1.73 2.34-2.58a76.73 76.73 0 0 1 13.6-11.27c3.34-2.16 7.11-3.65 10.7-5.42 1.8-.88 3.66-1.63 5.43-2.58 4-2.14 8.4-3.18 12.76-4.3 1.76-.45 2.4.25 3.13 1.78a38.1 38.1 0 0 1 3.44 20.78 40.76 40.76 0 0 0 4.92 24.35A39.36 39.36 0 0 0 391 405.12a31.71 31.71 0 0 1 12.69 18.37c.61 2.41 1.77 4.68 2.62 7 .43 1.21.7 2.48 1.12 3.7a41.68 41.68 0 0 0 13.72 19.7 123.26 123.26 0 0 0 11.7 7.87c6.41 3.95 12.88 7.78 17.48 13.94a20.64 20.64 0 0 1 2.58 4.39c1.68 4.07 3.1 8.25 4.78 12.33 2.25 5.44 4.36 11 8.19 15.62a3.35 3.35 0 0 1 .52.73c1.67 3.84 5.2 6 8 8.73 5.3 5.2 12 8.27 18.25 12.07 1.87 1.15 4 1.93 5.81 3.1 4.38 2.77 8.77 5.54 13 8.55 3.34 2.39 5.23 6 7 9.63 1.13 2.35 2.14 4.76 3.28 7.1 3 6.08 6.55 11.7 11.82 16.13 3.44 2.89 6.79 5.9 10.08 9 6.05 5.64 10 12.44 11.24 20.72q.82 5.65 1.58 11.33c1.15 8.65 2.58 17.22 5.75 25.43a96.25 96.25 0 0 1 4.25 12.82 41 41 0 0 1-.78 20.76z"/><path class="a" d="M562 685.57c-.2 5.07-.41 10.47-.64 15.87 0 .4.06 1-.16 1.16-1.29.92-.16 3.1-2 3.69.08-1.28.24-2.55.23-3.83-.1-7.9.17-15.8-.72-23.7a118 118 0 0 0-5.14-23.69q-3-9.26-6.56-18.36c-1-2.68-2.71-5.12-4-7.72a101.28 101.28 0 0 0-9.37-15.67 83 83 0 0 0-14.79-15.7c-5.15-4.13-9.91-8.75-14.89-13.09-3.86-3.35-7.81-6.6-11.71-9.92-2.74-2.33-5.4-4.77-8.2-7.05-4.66-3.78-9.42-7.44-14.1-11.21-3.43-2.75-6.76-5.63-10.19-8.38-2.81-2.25-5.72-4.38-8.57-6.6-2-1.54-3.94-3.09-5.84-4.72-3.95-3.39-7.91-6.76-11.74-10.27a52.89 52.89 0 0 1-4.34-5 2.46 2.46 0 0 1-.32-.78 2.88 2.88 0 0 1 1-.36c3.18 0 6.37.18 9.55.16a11.51 11.51 0 0 0 2.91-.64 3.38 3.38 0 0 1 4.16 1.45c3.35 4.84 7.85 8.58 12.39 12.2 4 3.23 8.39 6.09 12.58 9.14 3.81 2.77 7.58 5.58 11.37 8.38 4.25 3.15 8.53 6.29 12.75 9.48 1.6 1.21 3.11 2.54 4.6 3.87 3.36 3 6.8 5.88 10 9 4.63 4.58 9.22 9.22 13.53 14.1 2.9 3.28 5.24 7 7.92 10.53a61.23 61.23 0 0 1 7.9 13.73c1.91 4.5 4.29 8.8 6.36 13.24.92 2 1.58 4.1 2.38 6.14 2.2 5.59 4.65 11.1 6.56 16.79a112.53 112.53 0 0 1 3.73 14.47c1.24 6.38 2.1 12.85 3.08 19.29.18 1.25.16 2.43.28 4z"/><path class="b" d="M248.23 91.54a61.47 61.47 0 0 1 2.22-19.88 46.08 46.08 0 0 1 1.67-4.51c.09-.23.4-.53.57-.51a1 1 0 0 1 .56.57 16.75 16.75 0 0 1 .94 2.53 94.21 94.21 0 0 0 7.39 19.62c.14.27.27.54.42.8a13.31 13.31 0 0 1 1.29 9.72c-1.47 7.26-.78 14.58.79 21.8.63 2.94 1.15 5.92 2 8.78a63.32 63.32 0 0 0 3.11 7.82c1.37 3 3 5.84 4.39 8.81 1.19 2.53 2.2 5.15 3.3 7.72 1.9 4.42 3.85 8.81 5.67 13.26a29 29 0 0 1 1.22 4.64.77.77 0 0 1-1.38.68 10.88 10.88 0 0 1-1.32-2.35c-1.82-4.83-5.08-8.82-7.64-13.22-1.86-3.2-3.64-6.44-5.5-9.64-1.11-1.9-2.39-3.7-3.46-5.62-2.58-4.63-5.6-9.1-7.48-14-2-5.28-5-10.3-5.56-16.11-3.15-6.65-2.82-13.85-3.2-20.91zm84.51 218.27c.42-5.67 1.15-11.09 3.48-16.4 3-7 5.51-14.17 8-21.35 2-5.67 4-11.37 5.41-17.19 1.15-4.75 1.44-9.7 2.11-14.56a6.62 6.62 0 0 1 .07-1.19 7 7 0 0 1 .71-1.2 4.85 4.85 0 0 1 .43 1.32c.09 5.69.88 11.37-.06 17.09-1 5.92-1.23 12-2.41 17.85a99.89 99.89 0 0 0-2 17c-.1 4.07.64 8.16 1 12.24 0 .5.22 1 .21 1.48a12.15 12.15 0 0 0 2 7.44c.68 1 .29 1.41-.68 1.7-2.28.69-4.61 1.3-6.84 2.14-2.62 1-5.16 2.19-7.73 3.29-.46.2-.94.36-1.39.57-1.06.5-1.45.05-1.54-1-.2-3.04-.51-6.15-.77-9.23z"/><path class="c" d="M317.2 320.37a56 56 0 0 1 2.42-17.51 118.78 118.78 0 0 1 3.7-12c1.47-3.7 3.61-7.13 5.35-10.73 2.85-5.86 5.6-11.76 8.42-17.63.61-1.26 1.43-2.41 2-3.67 1.22-2.62 2.34-5.29 3.54-7.93.45-1 1-2 1.52-2.93.12-.21.47-.29.71-.44.17.31.51.62.49.91a18.74 18.74 0 0 1-.5 3.26c-1.47 5.31-2.79 10.67-4.55 15.88-3.3 9.73-6.86 19.42-10.3 29.12a42.57 42.57 0 0 0-1.29 24.8c.5 2.09.48 2.13-1.5 3.27-2.69 1.55-5.42 3.05-8 4.71-1.14.71-1.4.29-1.47-.72-.25-2.76-.39-5.6-.54-8.39zm9.06-132.88a5.4 5.4 0 0 0 0 .9 58.3 58.3 0 0 1-.62 18.54 80.57 80.57 0 0 1-4.83 17.31c-1.77 4.32-3.94 8.48-6 12.69-.19.39-.64.65-1 1-.18-.48-.57-1-.5-1.46.23-1.48.74-2.91.93-4.4 1.05-8.34 2.2-16.67 3-25a125.47 125.47 0 0 0 .61-16.78c-.22-5.38-1.22-10.73-1.93-16.08a38.63 38.63 0 0 0-1.07-5.87c-1.2-4.11-2.6-8.16-3.93-12.24a16.29 16.29 0 0 1-.62-1.68 3.06 3.06 0 0 1 .19-1.09c.36.09.83.07 1.08.29 2.58 2.29 5.15 4.59 7.65 7a5.48 5.48 0 0 1 1.41 2.22c1.52 4.87 3.12 9.73 4.34 14.67.81 3.27 1 6.69 1.51 10.05zm-58.56-77.24v-4.81a4.19 4.19 0 0 1 .48-1.3c.36.27.85.45 1.07.81 1 1.71 1.9 3.54 3 5.18 2.57 3.7 5.19 7.36 7.93 10.94a4.13 4.13 0 0 1 1 4.05 13.72 13.72 0 0 0 0 5.6c.51 3.05 1.49 6 2.06 9.06.82 4.39 3.18 8.17 4.83 12.22a77.28 77.28 0 0 1 4.91 16.32c.5 3 1.22 5.9 1.59 8.88.63 5.06 1.1 10.15 1.57 15.24.19 2.08.21 4.19.29 6.29a6.67 6.67 0 0 1-.08 1.79 4.28 4.28 0 0 1-.76 1.14 4.12 4.12 0 0 1-.49-1.07c-.71-4-1.34-8.1-2.08-12.13-1.44-7.79-2.85-15.6-5.43-23.09a116.94 116.94 0 0 0-4.85-10.65c-.63-1.35-1.3-2.69-1.94-4.05-2.84-6-5.89-12-8.45-18.19a57.89 57.89 0 0 1-4.65-22.23z"/><path class="b" d="M341.07 197.34c.16 3.2-.57 6.22-1.09 9.3-1 5.68-3.19 10.94-5 16.35-.64 2-2 3.7-3 5.53-1.33 2.35-2.68 4.68-4 7a9 9 0 0 1-.55 1.07q-6.87 9.25-13.77 18.47a4.27 4.27 0 0 1-.74.93 3.79 3.79 0 0 1-1 .39c-.12-.33-.39-.7-.32-1a7.88 7.88 0 0 1 .72-1.93c2.76-5.09 5.73-10.08 8.28-15.27 2.06-4.21 3.62-8.65 5.4-13 .57-1.39 1.14-2.78 1.68-4.17a17.05 17.05 0 0 0 .81-2.27c.51-2.11 1-4.24 1.43-6.37a83.62 83.62 0 0 0 1-29.84c-.57-4-1.08-7.94-2.6-11.7a3.27 3.27 0 0 1 0-1.13c.45.07 1 0 1.33.24a10.09 10.09 0 0 1 2.31 2.35c2.86 4.79 6 9.51 7.36 15 .82 3.3 1.18 6.71 1.75 10.05z"/><path class="a" d="M381.22 319.2h8.42c1.58 0 2.44.65 2.56 2.25 0 .3.14.58.19.88.75 4.53.46 4.86-3.92 4.33-5.08-.62-10.19-1.06-15.26-.29-6.81 1-13.66 2-20.2 4.38-3.39 1.22-6.85 2.28-10.12 3.75s-6.12 3.28-9.15 5c-2.4 1.34-4.78 2.75-7.19 4.08a1.35 1.35 0 0 1-1 0 1.8 1.8 0 0 1-.08-1.32 9.18 9.18 0 0 1 1.35-1.59 57.44 57.44 0 0 1 17.44-12.58 98.63 98.63 0 0 1 14.23-5.59c7.35-2.21 14.92-3.76 22.73-3.3zm12.55 126.18a40.85 40.85 0 0 0-11.06-3.66c-1.09-.18-2.3-.66-3.25-.36-3.48 1.08-5.7-.92-7.92-2.94a130.67 130.67 0 0 1-14.27-14.92c-2.57-3.19-5.43-6.15-8.11-9.25a24 24 0 0 1-2.19-3.16c-.13-.22.07-.74.26-1s.55-.12.81-.05a2.91 2.91 0 0 1 .77.46c2.68 1.9 5.34 3.84 8.05 5.7 1.39 1 2.9 1.75 4.33 2.66 5 3.17 10 6.19 14.86 9.58 6 4.24 12.11 8.52 16.76 14.42.62.79 1.42 1.44.92 2.6zm-10.16-111.11c2.29-.19 4.58-.45 6.87-.5.8 0 2.08.26 2.3.77a9.58 9.58 0 0 1 .41 3.53 2.35 2.35 0 0 1-1.24.33c-2.69-.07-5.39-.31-8.09-.26a110.61 110.61 0 0 0-11.38.58c-3.24.39-6.41 1.38-9.63 2a18.34 18.34 0 0 1-3.15.1c.14-1.64 1.64-1.54 2.64-1.89a86 86 0 0 1 19.16-4.64c.7-.08 1.4-.1 2.1-.15z"/><path class="a" d="M393.73 445.44h.72v.24l-.68-.27zm-47.22-36.34a1.69 1.69 0 0 1 .19.41c0 .05-.12.13-.19.19a1.62 1.62 0 0 1-.19-.4c-.01-.05.12-.13.19-.2z"/><path class="c" d="M467.43 721.91a7.49 7.49 0 0 1 0-1c.09-.74.23-1.47.35-2.2l.93 1.94c2.06 4.39 3.19 9.31 7.16 12.64a16.12 16.12 0 0 0 8.74 4.19 13.21 13.21 0 0 0 10.53-3 4.19 4.19 0 0 1 1.29-.46 4.57 4.57 0 0 1 0 1.66 17.46 17.46 0 0 1-2.3 4.1 15.74 15.74 0 0 1-3.75 2.9 12.74 12.74 0 0 1-14.52-1.6c-4.73-4.55-8.97-12.52-8.43-19.17zM383.2 613v-2.9c.29.81.61 1.6.88 2.42a29.16 29.16 0 0 0 7.62 12 10.32 10.32 0 0 0 5.69 3.11c3.35.5 6.75 1.18 10-.72a4.09 4.09 0 0 1 1.39-.23c-.11.41-.22.82-.35 1.23-.94 3-3.68 4-6.24 4.47-4.9.92-9.28.17-12.95-4.1A23.49 23.49 0 0 1 383.2 613zm-59.55-82.22c-6-.4-9.92-4.11-12.77-9.25-1.55-2.79-2.29-6.16-3.35-9.3-.11-.34.13-.84.21-1.27a6 6 0 0 1 .92.9c1.65 2.51 3.32 5 4.89 7.59 2.69 4.39 6.42 6.22 11.07 5.8a32.33 32.33 0 0 0 5.35-.82 14.48 14.48 0 0 0 2.83-1.62 8 8 0 0 1 1.29-.48c-.08.51-.11 1-.23 1.53a5.94 5.94 0 0 1-3.73 4.48z"/></svg>