<svg xmlns="http://www.w3.org/2000/svg" viewBox="0 0 800 800"><defs><style>.b{fill:#fca14f}.c{fill:#fff}</style></defs><path d="M425.33 548.86c-5.62 0-11.28-.38-16.86.09-7.67.65-15.38 1.16-22.84 3.51-5.23 1.65-10.69 2.55-16 3.83-1.5.36-2.95.92-4.44 1.35-1.24.37-2.5.67-3.73 1-3.26 1-6.65 1.64-9.7 3a12.09 12.09 0 0 0-5.19 4.5c-5.64 9.72-14.13 16.45-23.26 22.4-3 1.95-6.8 2.65-10.26 3.81-1.49.5-3.11.6-4.58 1.13-7.89 2.83-15.79 5.62-23.61 8.65-6.71 2.61-13.43 5.27-19.91 8.4a44.81 44.81 0 0 0-10 6.84 105.22 105.22 0 0 0-11.58 11.74 66.6 66.6 0 0 0-6.81 10.94c-2.92 5.4-5.08 11.17-9.5 15.74-2.51 2.6-3.91 6.21-7.29 8.11a3.1 3.1 0 0 0-1 2 14.78 14.78 0 0 0-.23 3.92c.65 5.86 1 11.79 2.2 17.55a116.92 116.92 0 0 0 9.33 28.73c2.55 5.16 5.47 10.13 8.21 15.2a23 23 0 0 1 1.27 2.87c1 2.7.09 3.93-2.59 3.19a14.13 14.13 0 0 1-5.68-2.54c-4-3.57-8-7.09-10.7-11.93-3.41-6.2-7.28-12.14-10.87-18.24a85.8 85.8 0 0 1-8-18.37c-1-3.13-2.15-6.18-3.27-9.25-.36-1-.84-2-2.22-1.74s-1.63 1.24-1.5 2.37c.35 2.87.74 5.73 1.15 8.58a107.06 107.06 0 0 0 6.52 25c3.15 7.76 7.14 15.17 10.77 22.73.17.35.49.62.66 1 .72 1.49 2.26 3.07.76 4.64s-3.25.36-4.84-.06a6.77 6.77 0 0 1-2.24-1.54c-8.43-6.92-14.49-15.71-20-25-3.95-6.65-8-13.24-10.66-20.54-2.26-6.28-4.21-12.68-6.13-19.07-.48-1.59-.8-2.69-2.68-3.34-3.08-1.06-4.6-4-5.43-6.84a99.69 99.69 0 0 1-3.68-39.3c1-9 2.39-17.91 4.07-26.78a107.31 107.31 0 0 1 4.36-15 118.79 118.79 0 0 1 18.46-33.63c2.48-3.22 4.57-6.75 7.22-9.8 5.35-6.12 10.77-12.19 16.51-17.93 5.12-5.11 8.45-10.91 9.37-18.09.07-.52.28-1 .33-1.54.54-6.25 4.48-10 9.37-13.23 7-4.58 13.85-9.48 21-13.84 7.57-4.6 12.27-11.66 17.21-18.6a4.55 4.55 0 0 0 .41-5.43c-1.79-3.06-2-6.45-2.12-9.89a94.07 94.07 0 0 1 1.57-22.72c2.78-13.69 9.54-24.79 21.24-32.66 1.61-1.09 3.44-1.87 5-3a7.5 7.5 0 0 0 2.24-2.63c4.25-8.18 10.39-14.76 17.35-20.64 2.79-2.36 5.69-4.59 8.6-6.79 1-.79 1.72-1.4 1.16-2.88-3.34-8.8-2.51-17.74-1-26.76a100.57 100.57 0 0 1 7.28-23.08c2.05-4.77 3.48-9.81 5.33-14.67 2-5.24 4.28-10.37 6.19-15.63 1.25-3.43 2.63-7 3-10.56A196.39 196.39 0 0 0 344 235c-.12-4.91-1.48-9.83-2.51-14.69-2-9.54-8.05-16.67-14.53-23.45-2-2.06-4.56-3.54-6.48-5.64-2.89-3.18-5.51-6.62-8.09-10.07a2.7 2.7 0 0 1 .15-2.49 2.61 2.61 0 0 1 2.25-.88 29.32 29.32 0 0 1 4.69 1.78c3.12 1.35 6.1 3.15 9.34 4.05 9.92 2.75 18.54 7.8 26.76 13.8a123.64 123.64 0 0 1 22.45 21.38c3.45 4.18 6.84 8.47 7.89 14.25 1 5.25 3.35 10.22 4.43 15.46 1.45 7.08 1.37 14.29 1 21.55-.37 7.81-2.25 15.31-3.86 22.83-1.76 8.25-1.66 16.63-2.77 24.91a5.19 5.19 0 0 0 .05 1.18c.74 7.94.77 7.78 8.65 9.13a29.58 29.58 0 0 1 8 3c1.66.84 2.92 1.18 4.7.29 9.78-4.89 19.33-3.59 28.54 1.59 3.52 2 6.83 4.36 10.24 6.56 2.5 1.63 3.09 1.61 4-1.07 1.64-5.12 3.28-10.26 4.4-15.51 1.17-5.5 1.88-11.12 2.51-16.72.68-6 1.23-12 1.48-18 .24-5.74-.1-11.51 0-17.27a116.62 116.62 0 0 1 6.14-35.12c2-5.94 5.9-10.83 9.69-15.65 4.52-5.75 9.45-11.19 14.42-16.56 2.29-2.47 5.17-4.37 7.67-6.65 2.71-2.47 5.23-5.14 7.95-7.59 3.81-3.41 7.64-6.83 11.67-10 1.35-1.06 3.33-1.43 5.09-1.79a2.9 2.9 0 0 1 2.28 1c.3.38 0 1.55-.34 2.11a73.5 73.5 0 0 1-5.54 7.63c-3.29 3.75-4.36 8.36-5.37 12.94-1.54 7-3 14.09-4 21.21a114.34 114.34 0 0 0 0 33.35 223.85 223.85 0 0 0 10 38.8c2.2 6.31 4.55 12.55 6 19.08 1.24 5.63 2.55 11.26 3.52 16.94a26.27 26.27 0 0 1-.06 7.46c-1.08 8.7-2 17.47-6.85 25.16-.49.77-.64 1.74-1.12 2.52-1 1.58-.37 2.6.89 3.7 9.53 8.27 13 18.9 11 31.09a42.75 42.75 0 0 1-5.06 13.95c-3.2 5.57-8.22 9.81-13.63 13.29-7.48 4.82-15.34 9.05-20.89 16.36-4.42 5.84-9 11.56-13.57 17.29-1.92 2.4-2.17 4.76 0 7 4.21 4.38 4.27 10.28 5.94 15.6a1.28 1.28 0 0 1 .07.39c-.08 11.3-1.06 22.37-9.25 31.24a19.21 19.21 0 0 1-5.17 4.18c-4.19 2.12-6.08 6-8.2 9.72-4.46 7.94-10.25 14.66-18.91 18.05-3.19 1.25-6.91 1.26-10.41 1.59a41.69 41.69 0 0 1-5.89-.27zM307.8 455.28a57.48 57.48 0 0 1 2.89-23.28c2.38-6.88 5.75-13.19 11.62-17.88 3.06-2.43 5.82-5 6.95-9.13 1.17-4.33 2.55-4.57 7.06-3.13a14.12 14.12 0 0 0 6.08.89 44.54 44.54 0 0 0 9-2.58 58.81 58.81 0 0 0 27.32-20.45 6.59 6.59 0 0 0 .65-1.69 10.89 10.89 0 0 0-1.89-.06c-3.74.53-7.46 1.14-11.2 1.64a12.66 12.66 0 0 1-3.53.06c-.64-.1-1.59-.69-1.7-1.2a2.24 2.24 0 0 1 1.08-1.79c3.24-1.73 6.52-3.37 9.83-4.95 4.54-2.16 9.16-4.58 12-8.67 3.46-5 5.95-10.75 8.69-16.25.94-1.88.45-2.79-1.65-2.92-5.86-.39-11.55-2.24-17.54-1.69s-12 1.53-17.48 4.1c-4 1.87-7.86 3.91-11.15 7.14-2.72 2.66-3.84 6.22-6.32 8.9a53.92 53.92 0 0 1-5.09 4.82 1.71 1.71 0 0 1-2.49-2.19c.46-1.21 1.31-2.26 1.89-3.43 1.4-2.8 2.75-5.62 4.09-8.45.11-.21.14-.68.05-.73a1.84 1.84 0 0 0-1-.22 8.45 8.45 0 0 0-1.06.5c-4.95 1.76-8.65 5.4-12.62 8.59a60.14 60.14 0 0 0-14.55 16.39c-3.86 6.62-6.18 13.88-8.15 21.23-2.95 11-5.43 22.16-8.65 33.09-2.44 8.27-5.67 16.31-8.71 24.39a28 28 0 0 1-3.44 6.15 41.19 41.19 0 0 1-4.67 5.31c-.41.42-1.38.28-2.1.4-.05-.72-.39-1.59-.11-2.14 1-2 2.26-3.85 3.27-5.83a8.32 8.32 0 0 0 .95-3.28 10.51 10.51 0 0 0-.73-2.92 24.92 24.92 0 0 0-1.55 2.34c-.49.93-.68 2-1.25 2.89-4.54 6.72-8.1 14.13-13.82 20-1.81 1.87-3.94 3.42-5.89 5.14-3.52 3.12-7 6.31-10.55 9.4-3.35 2.91-7 5.43-9.34 9.43-2.72 4.78-5.55 9.51-8.41 14.21a34 34 0 0 1-3.57 5.12c-6.22 6.91-12.62 13.65-18.8 20.59-4.79 5.38-9.53 10.83-13.95 16.51a79.28 79.28 0 0 0-12.25 21.43c-2.92 8-4.86 16.3-7.54 24.37s-2.22 16.37-1.85 24.59c.31 7 1.48 14 2.37 21.06a29.65 29.65 0 0 0 1.23 4.54 1.47 1.47 0 0 0 2.41 1c1.89-1.06 3.78-.67 5.74-.31a29.73 29.73 0 0 1 12.36 5.67c2.23 1.65 3.17 1.66 5.1-.18a15.6 15.6 0 0 0 1.54-1.79c3-3.86 6.85-6.1 11.84-5.79 2.07.12 2.37-.79 2.36-2.55-.06-5.51-.08-11 .09-16.53.39-12.59 2.58-24.74 9.11-35.78 2-3.38 3.58-7.11 6-10.14 6.88-8.56 13.54-17.33 22-24.53 3.59-3.05 6.58-6.84 10.29-9.72 9.71-7.55 19-15.68 29.35-22.39a27 27 0 0 0 4.25-2.82c7-6.7 14.06-13.32 18.4-22.29 2.85-5.9 6.08-11.64 7.67-18a29.79 29.79 0 0 1 6.43-12.83c2.34-2.65 4.6-5.36 6.94-8a54.17 54.17 0 0 1 11.95-10c4.65-2.91 9.54-5.45 14.32-8.15 3-1.69 2.94-1.69 2.46-5.15-1.27-9.35-.63-18.64 4.61-26.6a57.58 57.58 0 0 1 15.83-16.09 13.17 13.17 0 0 0 2-1.27 19.66 19.66 0 0 1 10-5.18c4.35-.93 8.67-2.12 13.17-.82 3.52 1 7.13 1.76 10.6 2.92 3.09 1 6.52 1.85 9 3.82a40.28 40.28 0 0 1 10.56 12 15.83 15.83 0 0 1 2.07 5.07c1.42 10.59-2 18-11.75 23.57-5 2.82-10.65 4.37-16.11 6.2-4 1.35-8 2.67-10.65 6.24a4.4 4.4 0 0 0-.44 1c.35.07.74.28 1.05.19 1.5-.44 3-.89 4.48-1.47 2.43-1 4.76-2.68 7.23-2.91 5.19-.47 10-2.23 14.89-3.56 7.51-2 13.6-6 17-13.31a35.22 35.22 0 0 0 2-4.25c1.21-4 4.38-7.57 2.8-12.31-.51-1.55.62-2.33 2.36-2 2.08.38 3.89 2.71 4.33 5.45a22.09 22.09 0 0 1-1.86 12.22 32.31 32.31 0 0 1-11 14.03c-5.36 3.9-10.94 7.24-17.4 8.87A64.12 64.12 0 0 0 401.81 469a40.25 40.25 0 0 0-8.54 9.13c-3.31 4.92-7.1 9-12.55 11.45s-10.43 2.36-15.17-1.38a59.71 59.71 0 0 1-4.7-4.16 12.42 12.42 0 0 1-3.59-8.46c-.42-5.74.75-11.23 2-16.73a5.7 5.7 0 0 0-.16-1.77 5.1 5.1 0 0 0-1.53.19c-9.23 4.1-17.18 10-21.87 19-5 9.61-9.05 19.71-13.4 29.66-2.37 5.4-4.35 11-8.35 15.5-1.48 1.67-2.86 3.43-4.17 5.22A65.18 65.18 0 0 1 297 539.28c-6.9 5.39-14.26 10.18-21.42 15.24-2.87 2-5.86 3.94-8.55 6.2-4.61 3.87-9.28 7.73-13.49 12-7.78 7.94-15.65 15.79-20.77 26a86 86 0 0 0-8.95 28.3 7.13 7.13 0 0 0 .26 1.86 9.22 9.22 0 0 0 1.79-1.25c5.56-6.25 11.12-12.37 18-17.4a129.22 129.22 0 0 1 20.32-12.34 138.35 138.35 0 0 1 20-7.88 157.56 157.56 0 0 1 22.09-5.44 13.41 13.41 0 0 0 2.68-.63c8.84-3.33 16.39-8.72 23.32-15a17.11 17.11 0 0 0 4.28-6.84 37.3 37.3 0 0 1 6-10 23.78 23.78 0 0 1 8.21-6.6c1.6-.76 2.87-2.25 4.24-3.47a7.28 7.28 0 0 0 2.28-7.87c-1.42-4.87-.17-9.3 1.51-13.8 2.56-6.88 7.68-11.78 12.81-16.64a9.77 9.77 0 0 1 4.58-2.11 3.42 3.42 0 0 1 3 1.06c.74 1.17-.36 2.11-1.44 2.77s-2.39 1.56-3.59 2.32c-3.64 2.32-4.88 6.39-7.16 9.71a9.71 9.71 0 0 0-2 5.4c-.11 4.31-.49 8.62-.6 12.93-.12 4.59.19 9.23-2.38 13.38a4.88 4.88 0 0 0-.35 1.46 8.14 8.14 0 0 0 1.82.18 7.72 7.72 0 0 0 1.44-.6c7.33-2.39 14.62-4.9 22-7.06a108.37 108.37 0 0 1 12.29-2.52 146 146 0 0 1 15.1-2.17c4.15-.26 8.36.4 12.55.56 3.81.15 7.57 0 10.69-2.7s6.2-5.17 9.21-7.87c3.3-3 5.18-6.91 7-10.85a22.65 22.65 0 0 0 1.73-5.94c.73-4.83-2.09-8.14-5.18-11.31-5.32-5.36-6.98-11.46-4.06-18.36 2.39-5.63 7.05-9.08 12.18-11.78a9.12 9.12 0 0 0 5.17-6.44c1.6-7.74 6.32-13.79 10.71-19.92s10.61-10.9 17.18-14.78a54.3 54.3 0 0 0 13.5-10.63c4-4.52 7.86-8.88 9.7-15 2.54-8.39.25-15.49-4.23-22.3-1.68-2.55-2.6-2.53-5.17-.69-.52.37-.9.95-1.41 1.34-3.32 2.53-6.23 5.63-10.43 6.86a15.77 15.77 0 0 0-3.43 2 16.1 16.1 0 0 0 4.24.24 25.49 25.49 0 0 0 4.67-1.88 36.31 36.31 0 0 1 5-2.1c2-.54 3.37 1.06 2.57 3-1.41 3.51-3.48 6.48-7.49 7.47-1.14.29-2.23.81-3.39 1-3.71.67-7.44 1.7-11.17 1.75-6.33.07-12.4-1.76-18.34-3.88a13.79 13.79 0 0 1-3.12-1.56c-6-4.19-11-9.06-13.09-16.51-1.74-6.29-4.13-12.41-6.06-18.65a4.76 4.76 0 0 0-2.75-3.44 25.84 25.84 0 0 1-5.55-3.62 45.75 45.75 0 0 0-18-9.37 16.42 16.42 0 0 0-5-.31 3.12 3.12 0 0 0-2.23 1.21c-1.73 3.08-3.9 6.11-4.75 9.45-1.68 6.67-2.1 13.44 2.23 19.6a12.81 12.81 0 0 1 1.71 4.35 13 13 0 0 1 0 3.29 11.51 11.51 0 0 1-3.25-.31c-3.85-1.53-5.64-4.87-7.15-8.45a3.16 3.16 0 0 0-1.53-1.51c-.22-.1-1 .69-1.33 1.21-1.95 3.26-3.92 6.51-5.74 9.84a54 54 0 0 1-13.56 16.08c-8 6.53-17.51 10.05-27.52 11.85-3.56.64-6.82 1.15-9.56 3.6a13 13 0 0 1-1.37.77 69.07 69.07 0 0 0-7.34 5.24c-10.37 9.46-15.07 21.69-15.78 35.34-.38 7.39-3 13.71-6.4 19.91-.65 1.17-1.58 2.87-3.23 2-.53-.3-.47-2.43-.08-3.5a41.43 41.43 0 0 0 2.13-17.49zm120.66-29.59c.41-7.4-3.26-12.75-8.12-17.35-1.41-1.35-3.69-1.8-5.6-2.59a1.1 1.1 0 0 0-1 .25c-.15.22 0 .74.17 1.06a6.27 6.27 0 0 0 .74.91c4.25 5.95 3.69 11.15-1.33 16.53-3.35 3.57-7.78 4.81-12.08 6.25-6.38 2.13-11.12 5.85-13.14 12.4-1.66 5.39-2.93 10.89-4.53 16.29-2.12 7.17-6.4 10.32-13.71 10.31h-.79c-2.11.12-2.9 1.15-2.15 3.07 1.21 3.08 4.25 5.93 8.8 4.79a13.36 13.36 0 0 0 10.12-9.42 49.29 49.29 0 0 1 10.79-18.09 19.38 19.38 0 0 1 6.21-4.64 134.88 134.88 0 0 1 14.37-5.13c7.67-2.33 11.11-6.72 11.25-14.64zm85.37-88.88c-.05-3.7-.1-3.62-3.51-3.47a49.65 49.65 0 0 1-8.18-.25c-7.6-.93-15.32-1.3-22.39-4.77-3.05-1.49-6.17-2.82-9.29-4.17-2-.88-2.59-.55-3 1.48-.56 2.81-1 5.65-1.81 8.41a3.52 3.52 0 0 0 1.19 4.1c10.32 9.55 22.32 13.1 36.14 10.44 1.8-.35 3.6-.68 5.42-.9 2-.24 3.37-.93 3.7-3.24.37-2.58 1.14-5.09 1.73-7.63zm-25.66 41.58a10.82 10.82 0 0 0 3-.9c5.92-3.46 10.58-8.08 12.91-14.72a13.47 13.47 0 0 0 .37-1.83 8.1 8.1 0 0 0-1.84 0A43.88 43.88 0 0 1 478 359a64.85 64.85 0 0 1-14.72-7.27c-3.66-2.53-3.71-2.24-6.63.9-1.43 1.53-1.64 2.82-.41 4.45 1.5 2 2.68 4.3 4.46 6a96.56 96.56 0 0 0 11.47 9.56 32.38 32.38 0 0 0 16 5.75zm18.56-56.52l3.93-.28c3.1-.25 3.35-.33 2.75-3.21-.83-4-2-7.85-3.11-11.77-.46-1.7-1.68-1.17-2.86-1a59.85 59.85 0 0 1-9.31.82 73.91 73.91 0 0 1-26.3-5.91c-1.82-.79-2.44-.35-2.54 1.56a24.31 24.31 0 0 1 0 3.52 4.72 4.72 0 0 0 2.51 5.59 31.77 31.77 0 0 0 3.4 1.92c4.72 2 9.37 4.15 14.23 5.68a57.76 57.76 0 0 0 17.3 3.08zM382 262.82l.4-.07-.89-3.64c-1 .54-2 1.08-3 1.64a6.82 6.82 0 0 0-1.3.86c-8 7.5-17.74 11.9-28.09 15.12a3.83 3.83 0 0 0-2.19 1.45c-2.66 5.1-5.21 10.27-7.71 15.45-.46.95.16 1.46 1.18 1.36a7.71 7.71 0 0 0 1.94-.3c5.85-2.29 12-4.07 17.42-7.09 5.68-3.14 10.73-7.42 16-11.31 2.18-1.62 5-3.13 6-5.37s.24-5.36.24-8.1zm-44.53 56.05c1.57 0 3.15.12 4.7 0a56.87 56.87 0 0 0 21.68-6.62c3.54-1.88 6.69-4.49 10-6.8a1.82 1.82 0 0 0 .62-1c.81-3.17 1.62-6.33 2.33-9.52a5.7 5.7 0 0 0-.25-1.88 6.16 6.16 0 0 0-2.17.42c-2.4 1.59-4.55 3.62-7.08 4.94-9.76 5.08-20 8.57-31.23 7.83-.72-.05-2 .45-2.16 1-1 3-1.78 6-2.48 9.07-.35 1.57.5 2.52 2.14 2.57 1.31.03 2.61-.01 3.91-.01zm160-25.31c2.09-.11 4.19-.19 6.27-.37 1.25-.1 1.93-.74 1.51-2.12-1.15-3.74-2.33-7.48-3.42-11.25-.57-2-1.59-2.46-3.72-2.34a66.15 66.15 0 0 1-12.43-.28c-4.64-.62-9.18-1.95-13.77-3-2.35-.52-3.18-.05-2.73 2.23a31.51 31.51 0 0 1 .44 8.1c-.11 1.77.87 2.55 2.41 3.06 3 1 5.89 2.19 8.88 3.12 5.35 1.72 10.8 3.13 16.52 2.85zm-144.85-34.25c.09 2.23.89 2.77 3.14 1.65 6.33-3.16 12.56-6.47 17.46-11.79a20.75 20.75 0 0 1 3.88-3.23 3 3 0 0 0 1.27-4.06c-1.46-3.35-3.06-6.65-4.6-10-.65-1.4-1.19-1.13-2.27-.2-4.86 4.14-9.23 8.92-15.14 11.73a3.21 3.21 0 0 0-1.62 1.95c-.8 4.64-1.43 9.31-2.12 13.95zm135.66 5.46c2.43-.12 4.52-.3 6.61-.32 1.8 0 2.24-1 2.11-2.53q-.39-4.69-.76-9.39c-.21-2.53-.51-2.65-3.2-2.8-3.78-.21-7.57-.46-11.31-1-2.57-.39-5-1.38-7.58-2-2.35-.59-3.16-.13-3.55 2.29-.52 3.23-.79 6.5-1.22 9.75a2.28 2.28 0 0 0 1.68 2.72c5.67 2.02 11.35 4.02 17.22 3.28zm-14.21 226.35a49.83 49.83 0 0 0-.83-5.37c-.55-2.14-1.36-4.23-2.12-6.31-.16-.44-.62-.77-.93-1.16-.46.4-1.16.7-1.34 1.19-.64 1.85-1.11 3.75-1.64 5.64-.64 2.25-1.23 4.53-2 6.75-.18.52-.94 1.25-1.33 1.19a3.47 3.47 0 0 1-1.76-1.2c-.33-.35-.37-1-.6-1.43-1.52-3.2-1.19-6.62-1.27-10 0-1.71-.82-2.19-2.07-1.1-1.05.91-1.67 2.29-2.66 3.3-2.36 2.41-2 4.93-.45 7.5a25.08 25.08 0 0 0 2.52 3.5A31 31 0 0 1 463.9 504a12.52 12.52 0 0 0 1 2.11c1.31 2.23 1.61 2.27 3.37.49 4.25-4.31 5.62-9.6 5.8-15.48zM335.62 331.93c-4.58-.31-4.8 0-3.95 4 .18.9.33 1.8.52 2.7 1.14 5.66 1.2 5.84 6.7 4.05 3.92-1.27 8.28-1.65 11.48-4.72 4.9-4.72 11-6.82 17.48-8.23 1.92-.43 3.85-.83 5.7-1.44 1.4-.47 1.62-2.79.62-4.85-.91-1.86-1.82-.65-2.77 0a60.47 60.47 0 0 1-18.29 7.78 46.17 46.17 0 0 1-17.49.71zM185.18 675.48h.24a18.18 18.18 0 0 1 .17-2.35c.51-2.48-.9-4-2.69-5.21-2.39-1.67-4.17.33-6.11 1.2-1.66.74-1.19 2.16-.8 3.39 1.8 5.71 2.8 11.61 5.1 17.24a97.67 97.67 0 0 0 9.23 17.2 3.77 3.77 0 0 0 .87.7c.19-.41.54-.81.54-1.21a5.79 5.79 0 0 0-.37-1.92A101.68 101.68 0 0 1 186.2 684c-.42-2.81-.69-5.67-1.02-8.52zM492.55 238.9c1.8 0 2.72-.68 2.76-2.57 0-2.22.16-4.45.4-6.66.29-2.64.28-2.75-2.29-3.54a75 75 0 0 1-8.57-2.73c-2-.88-2.86-.42-3.75 1.23-1.42 2.65-3 5.23-4.39 7.89-1.17 2.21-1 2.84 1.27 3.39 4.82 1.16 9.71 2.01 14.57 2.99zM273 422.13a38 38 0 0 0 5.2 17.41 21.46 21.46 0 0 0 2 2.54 14.12 14.12 0 0 0 1.34-3.53 7.75 7.75 0 0 0-.83-3.31c-.53-1.33-1.37-2.53-1.85-3.87-2.3-6.39-1.51-12.8.73-18.91 1.29-3.49 3.18-7.17 5.84-9.65 2.37-2.21 2.59-4.66 3.19-7.23.25-1.06-.56-1.36-1.46-.84a13.68 13.68 0 0 0-1.56 1.19c-8.43 6.66-12.07 15.6-12.6 26.2zm91.57-204.92a3.85 3.85 0 0 0-.39-1.16c-2-2.56-4.07-5.1-6.16-7.61-.86-1-1.89-1.19-2.31.31a15.46 15.46 0 0 1-5.34 7.59 2.87 2.87 0 0 0-.65 2.36c.73 3.18 1.71 6.3 2.5 9.47.45 1.83 1.32 2 2.79 1.06 4.06-2.64 7.3-5.95 9-10.6.14-.49.36-.96.55-1.42zm-162 454.35a12.12 12.12 0 0 0 .38 2.28c1.58 4.86 3 9.77 4.9 14.53 1.57 4 3.62 7.85 5.5 11.74.18.37.67.59 1 .87a4.09 4.09 0 0 0 .07-1.15c-.45-2-.82-4.12-1.47-6.1a55.83 55.83 0 0 1-2.8-16.2c-.1-3.4-.39-6.81-.44-10.21 0-1.57-.68-2.07-2.13-2.07-2.77.02-5.03 2.61-5.03 6.31zm303.32-474.88c-.22-.25-.45-.59-.52-.56a4 4 0 0 0-1.31.73q-5.15 5.1-10.24 10.27a34.48 34.48 0 0 0-3.12 3.51c-.89 1.21-1.09 2.38.81 3 1.49.49 2.91 1.19 4.38 1.74 2.41.89 2.52.81 3.41-1.52q3-7.91 6-15.79c.21-.47.42-.95.59-1.38zm-158.58 3.7a11.44 11.44 0 0 0-2-1.84 185.1 185.1 0 0 0-8.13-4.62 7.87 7.87 0 0 0-2-.43 9.15 9.15 0 0 0 .88 2q2.64 3.62 5.41 7.12c1 1.26 2.08 2.45 3.13 3.67.77-1.45 1.56-2.88 2.31-4.34a9.73 9.73 0 0 0 .4-1.56z"/><path d="M534.16 502.59c.46-7.72.45-15.51 1.49-23.15 1.63-12.07 3.21-24.24 9.62-35 1.27-2.13 1.2-2.46-1.08-2.86-3.85-.68-7.76-1.11-11.66-1.42-1.59-.13-3-.15-3.09-2.1a2.48 2.48 0 0 1 2.69-2.74c2.48 0 5 0 7.45.24 2.87.25 5.72.67 8.58 1.05 2.25.31 3-1.48 3.7-2.91.83-1.72-1.06-2.15-2-2.79a15 15 0 0 0-2.94-1c-1.9-.74-2.59-1.91-2.2-3.6s1.5-2.51 3.57-2.13 3.8 1 5.7 1.5a11.31 11.31 0 0 0 2.26.65 3.76 3.76 0 0 0 2.07-.54c.17-.11-.11-1.2-.4-1.71a25 25 0 0 0-1.68-2.19c-2.75-3.65-5.55-7.27-8.2-11a3.17 3.17 0 0 1 .69-4.54c1.72-1.09 3.06-.08 4.14 1.1 1.58 1.74 2.87 3.76 4.51 5.43 2 2 2.16 1.78 3.6-.62 4.17-6.94 7.2-14.53 12.48-20.84 2.87-3.43 5.63-6.84 9.22-9.58 5.2-4 10.14-8.29 15.28-12.34a72.11 72.11 0 0 1 18.81-10.5 4.91 4.91 0 0 0 3.6-4.88c.67-10.32-1-20.39-2.94-30.44-.54-2.84-1.13-5.66-1.5-8.52-.1-.74.55-1.58.85-2.38a7.37 7.37 0 0 1 1.83 1.31 9.06 9.06 0 0 1 1.35 2.82c1.45 5.3 3.05 10.58 4.16 15.95s1.67 10.61 2.46 15.92c.08.52 0 1 .11 1.57.65 5.15.85 5.28 5.81 4.18 2-.45 4.1-.91 6.17-1.18 1.37-.17 2.73.18 3 1.86s-.76 2.39-2.15 2.82c-3.63 1.13-7.24 2.32-10.88 3.39-2.22.65-3.36 2.12-4.28 4.2-3.06 6.95-5.89 14-10.36 20.26a83.46 83.46 0 0 1-13.46 15.31c-5.77 4.91-11.22 10.21-17.08 15-2.8 2.29-6.24 3.81-9.39 5.68-.56.33-1.15.64-1.7 1-2.2 1.46-2.22 1.58-.51 3.46a23.24 23.24 0 0 0 3 3.09c8.29 6.21 16.62 12.37 26.41 16.13 1.72.66 3.73 1.14 4.34 3.33a28.26 28.26 0 0 1-5.3-.23 44.93 44.93 0 0 1-7.08-2.37c-6.29-2.58-12.55-5.27-18.81-7.94-2.4-1-4.77-2.12-7.18-3.11a3.75 3.75 0 0 0-1.45 0 4.1 4.1 0 0 0 .59 1.34c1.49 1.47 3.13 2.79 4.55 4.32 3.48 3.73 6.88 7.56 10.31 11.34.88 1 1.76 1.94 2.69 2.85a2.64 2.64 0 0 1 .35 3.86 3.5 3.5 0 0 1-4.56 1 3.67 3.67 0 0 1-1.12-1.1c-3-4.89-8.32-7.08-12.65-10.42a7.29 7.29 0 0 0-1.4-.69c-1.21-.58-1.71-.08-1.74 1.14-.09 3.4-.26 6.81-.25 10.21 0 6.69.19 13.37.22 20.06a211.58 211.58 0 0 1-2.18 33.34 43.31 43.31 0 0 1-10.51 22.74c-2.78 3.13-5.86 6-8.82 8.94-2.57 2.56-2.72 2.64-.61 5.47 2.72 3.66 5.21 7.58 9.25 10.06a3.67 3.67 0 0 1 1.46 1.28c2.29 5 7 7.34 11 10.44a75.33 75.33 0 0 0 17.4 10.59c1.22.51 2.17 1.7 3.25 2.57-1.38 1.67-3 .66-4.27.07-4.88-2.24-9.75-4.53-14.47-7.09a84.43 84.43 0 0 1-14.56-10c-3.56-3-7.86-5.21-11.87-7.7-.33-.21-1 0-1.39.12a1.34 1.34 0 0 0 0 1c.79 1.2 1.72 2.31 2.5 3.52 1.06 1.63 2.11 3.28 3 5 1.41 2.65 2.71 5.36 4 8.05a7.45 7.45 0 0 1 1.15 2.88 3.32 3.32 0 0 1-1.26 2.51 3.18 3.18 0 0 1-2.82-.09c-1-.7-1.66-2-2.5-3-3.55-4.21-7-8.5-10.7-12.58-2.29-2.52-2.44-2.34-4.24.38a69.39 69.39 0 0 1-14.59 15.8 143.67 143.67 0 0 1-13.45 9.56A125 125 0 0 1 468 606.57c-9.51 3-19.19 5.39-28.78 8.08-5.85 1.64-5.93 1.84-3.3 6.78a184.27 184.27 0 0 0 13.56 21.65c3 4.06 7.27 7.15 11 10.64 2 1.88 4.1 3.68 6.09 5.58.32.3.34.92.49 1.39-.57.16-1.25.59-1.7.42a27.86 27.86 0 0 1-5.73-2.55 156.72 156.72 0 0 1-13.66-9.9c-2.35-2-3.72-5.06-5.83-7.37-4.05-4.45-8.3-8.71-12.5-13a4.28 4.28 0 0 0-1.31-.61 6.37 6.37 0 0 0 0 1.45c1.68 6.46 3.4 12.92 5.05 19.39a10 10 0 0 1 .32 3.48 2.65 2.65 0 0 1-2.65 2.46 2.37 2.37 0 0 1-2.6-1.93 23.73 23.73 0 0 1-1.07-3.78c-.54-4.4-2.51-8.23-4.52-12.06-1.46-2.77-1.75-2.86-3.52-.4-3.38 4.68-6.56 9.5-10.1 14a57.77 57.77 0 0 1-7.34 7.58 101.41 101.41 0 0 1-10.13 8 39.16 39.16 0 0 1-9.29 5c-8.19 2.76-16.22 6.07-24.75 7.75-3.72.73-7.48 1.3-11.19 2.09-2.49.52-2.77.84-2.08 3.16 2.19 7.43 4.57 14.8 8.95 21.32 2.71 4 5.24 8.18 8.12 12.08 1.54 2.08 3.72 3.68 5.46 5.63a28 28 0 0 1 2.91 4.14 1.48 1.48 0 0 1-.22 1.4c-.22.21-1 .08-1.37-.13-3.44-1.86-7-3.52-9.17-7.09-1-1.61-3-2.56-4.18-4.1-4-5.18-7.81-10.49-11.7-15.76-.08-.1-.11-.24-.2-.33a30.24 30.24 0 0 1-6.77-10.31c-.56-1.36-1.86-1.61-2.76-.27a8.77 8.77 0 0 0-1.66 3.77c-.51 5.49-.76 11-1.14 16.49a5.26 5.26 0 0 1-.42 1.89c-.61 1.29-1.15 2.92-3 2.45a3.15 3.15 0 0 1-2.62-3.43 61.93 61.93 0 0 0 0-7.08 27.13 27.13 0 0 0-1.06-4.45 24.8 24.8 0 0 0-3.67 2c-6.35 4.92-13.82 7.41-21.26 10-15 5.2-29.86 4.63-44.75-.29-1.53-.5-3.59-1.06-3.1-2.85s2.66-1 4.15-.85c6.77.64 13.54 1.89 20.31 1.89a59.52 59.52 0 0 0 25.84-5.66c5.3-2.52 10.91-4.41 15.9-7.59.78-.49 1.55-1 2.31-1.5 3.63-2.51 4-3.44 2.52-7.51a18 18 0 0 0-2.51-4.88 4.65 4.65 0 0 0-3-1.18c-8.48-.86-17-1.47-25.44-2.49-2.8-.34-5.49-1.63-8.19-2.6-.42-.16-.61-1-.9-1.49a4.64 4.64 0 0 1 1.36-.52 30.19 30.19 0 0 1 3.15.15l23.52 1.68a9.27 9.27 0 0 0 1.57.1c1.23-.14 2.45-.36 3.68-.55a20.15 20.15 0 0 0-1.64-3.44c-2.16-3-4.52-5.79-6.66-8.76a7.56 7.56 0 0 1-.66-2.73c1-.07 2.29-.59 2.89-.15a34.12 34.12 0 0 1 5.81 5.18c2.3 2.68 4.25 5.65 6.36 8.5.67.9 1.16 2.42 2.65 1.59s.53-2.09.21-3.16c-.46-1.51-1.13-3-1.44-4.49a5.18 5.18 0 0 1 .29-3 2.73 2.73 0 0 1 4.81-.48 19.38 19.38 0 0 1 1.88 3.44 26.21 26.21 0 0 0 1.48 3.22 23.32 23.32 0 0 0 2.59 2.78c.2-1.1.49-2.19.6-3.3.43-4.18.76-8.37 1.22-12.54.25-2.27 1.46-3.43 3.12-3.28 2 .19 3 1.58 2.78 4 0 .52-.29 1-.3 1.55 0 1.83-.11 3.67 0 5.5a7.07 7.07 0 0 0 .83 2.07 9.47 9.47 0 0 0 1.68-1.37c4.88-6.17 9.82-12.29 14.54-18.59 4.32-5.78 10.22-9.71 15.67-14.21 4.83-4 10.39-6.56 16-9.06 5.25-2.35 10.64-4.39 16-6.52 2.42-1 2.59-1.38.52-3-3.11-2.4-6.33-4.65-9.56-6.87-2.32-1.6-3.19-3-2.37-4.33s3.17-1.63 5.3-.35c4.16 2.51 8.42 4.87 11.75 8.54a7.74 7.74 0 0 0 2.69 2.25 4.91 4.91 0 0 0 3.21-.29c.31-.13.37-1.69.06-2.38-.58-1.3-1.64-2.39-2.25-3.68a5.86 5.86 0 0 1-.71-3.31 4.08 4.08 0 0 1 2-2.56c.61-.27 2 .45 2.58 1.12a30.77 30.77 0 0 1 2.76 4.29c.54.9.95 1.89 1.55 2.74a6.51 6.51 0 0 0 1.44 1.13 5.75 5.75 0 0 0 .36-1.69c-.41-4-.88-8.06-1.33-12.1a8.27 8.27 0 0 1-.12-1.56 3.45 3.45 0 0 1 3.11-3c1.65 0 2.23 1.07 2.53 2.49.43 2 .82 4.11 1.42 6.12.52 1.78 1.41 1.89 2.71.47a8.51 8.51 0 0 0 1.09-1.62c7.16-12.65 18-21.29 30.47-28.21a83.39 83.39 0 0 1 22.3-8.63 58.66 58.66 0 0 0 6.66-2.36l14.8-5.32a2.78 2.78 0 0 0 .73-.29c.79-.63 1.55-1.3 2.32-1.95-.75-.65-1.39-1.6-2.26-1.92-4.41-1.65-8.85-3.25-13.34-4.64a82.09 82.09 0 0 0-9.15-2.15c-1.79-.34-2.53-1.29-2.37-3s1.48-2.09 2.88-1.89a49.27 49.27 0 0 1 8.51 1.55c7.2 2.39 14.58 4.38 21.17 8.37a4.12 4.12 0 0 0 2.51.54c.67-.09 1.24-.84 1.85-1.3a16.51 16.51 0 0 0-1.16-1.46c-1.49-1.48-3.07-2.87-4.51-4.39-1.63-1.73-1.82-3.38-.56-4.45 1.53-1.28 2.8-.57 4.17.53 2.56 2 5.28 3.85 7.91 5.79a2.08 2.08 0 0 0 2.86-.1c1-.86.27-1.57-.12-2.39q-4.34-9-8.58-18.13c-.87-1.87-.41-3.41 1-4s2.71.14 3.67 2c1.6 3.16 3.18 6.33 4.86 9.44.33.61 1.08 1 1.63 1.51a6.93 6.93 0 0 0 1-2c.72-5.46 1.55-10.92 1.93-16.41.32-4.43.07-8.91.07-13.37zm-12 59a4.68 4.68 0 0 0-.43-1.12c-.87-1.15-4.22-2-5.72-1.44-4.13 1.67-8.19 3.49-12.34 5.1-4.62 1.8-9.29 3.46-14 5.1-5.79 2-11.68 3.81-17.39 6-3.39 1.32-6.52 3.31-9.78 5a60.36 60.36 0 0 0-22.39 19.82c-1.57 2.24-3.22 4.43-4.84 6.64a12.44 12.44 0 0 0-1.12 1.6c-.47 1-.05 1.55 1 1.47a12.36 12.36 0 0 0 2.69-.55c10.42-3 21-5.49 31.18-9.22 13.66-5 26.76-11.39 37.88-21.11 5.14-4.49 10.2-9.06 13.85-14.93.45-.75.9-1.55 1.37-2.34zM345.55 675.1a22.89 22.89 0 0 0 3.21-.31c7.33-2 14.73-3.79 21.94-6.16a76.24 76.24 0 0 0 14.76-6.35c13.07-7.63 21.87-19.33 29.44-32.11 1-1.71 1.07-3.13-.4-4.53s-2.39-3.57-5.13-2.58c-4.67 1.69-9.49 3-14.05 4.92-4.21 1.78-8.13 4.23-12.23 6.27-6.65 3.31-12.12 8.21-17.64 13-8.48 7.39-14.52 16.81-21.13 25.74-.28.37-.48 1.27-.31 1.4a5.69 5.69 0 0 0 1.54.71zm211.29-219.4h.16v-8.24c0-1.6-.17-3.11-2.25-3.6s-2.85.95-3.6 2.28c-1.34 2.39-2.51 4.87-3.78 7.31-2.14 4.15-2.35 8.84-3.7 13.18-2.81 9-2.79 18.33-3.45 27.57-.72 10.18-1.12 20.38-1.72 30.57-.22 3.79-.64 7.57-.91 11.36a7.3 7.3 0 0 0 .34 1.81c.59-.19 1.36-.21 1.74-.61 3.21-3.27 6.8-6.28 9.39-10a40.14 40.14 0 0 0 6.92-19.45c.91-10 1.43-20.12 1.65-30.2.09-7.32-.52-14.68-.79-21.98zm60.32-88.14c-.53-1.39-1.4-.95-2.19-.48-7.08 4.24-14.16 8.46-21.19 12.76a12.22 12.22 0 0 0-2.22 2.21c-5.34 5.58-10.65 11.2-16 16.76-4.93 5.1-6.56 11.82-9 18.13-.41 1 .29 1.58 1.23 1.05 2.72-1.54 5.39-3.19 8-4.84 1.1-.68 2.05-1.8 3.23-2.15a13.51 13.51 0 0 0 6.29-4.45 36.57 36.57 0 0 1 4.69-4.18 95.87 95.87 0 0 0 17-16.75 29.43 29.43 0 0 0 2.84-3.71c2.23-4.15 4.31-8.38 6.45-12.57.34-.58.59-1.18.87-1.78zM425.14 166.47c.92-11.24 1.89-22.48 2.73-33.73.37-5.09.42-10.21.71-15.31a28.25 28.25 0 0 1 .8-5.42c.34-1.31 1.27-2.4 2.9-2a2.59 2.59 0 0 1 1.94 3c-.15 2.08-.56 4.15-.66 6.24-.32 6.79-.52 13.58-.85 20.37-.1 2-.56 3.89-.72 5.85-.59 7.31-1.12 14.63-1.7 21.95l-4 50.15c-.43 5.49-.87 11-1.35 16.46a18.65 18.65 0 0 1-.73 4.22c-.44 1.31-1.6 1.42-2.34.24a10.75 10.75 0 0 1-1.25-3.25c-.21-.87-7.21-34-8.79-42.91-.88-4.89-1.82-9.78-2.67-14.67-.93-5.3-1.86-10.59-2.66-15.9-2-13.09-3.86-26.19-5.76-39.29a13.09 13.09 0 0 1-.18-3.12 2.45 2.45 0 0 1 2.67-2.35 2.2 2.2 0 0 1 2.21 2.29q.24 2.75.62 5.48c1.27 9.21 2.57 18.42 3.83 27.63a10.65 10.65 0 0 0 2.74 5.45c2.9 3.51 5.31 7.44 7.86 11.24.87 1.3 1.51 2.76 2.33 4.1a5.07 5.07 0 0 0 1.11 1c.34-.5.94-1 1-1.49.11-2.09 0-4.19 0-6.28zM362 183.33a7.2 7.2 0 0 1-.18 1.16c-.24.69-.54 1.36-.82 2a6.79 6.79 0 0 1-2-1c-4.23-4.48-8.54-8.89-12.53-13.58q-8.62-10.19-16.84-20.73c-4.34-5.56-8.35-11.37-12.59-17-4.4-5.87-8.88-11.67-13.33-17.5a28 28 0 0 1-1.9-2.51c-1-1.7-.73-3.31.64-4.15 1.63-1 2.81-.07 3.71 1.11 2.14 2.81 4.12 5.74 6.24 8.57 3.69 4.92 7.41 9.83 11.2 14.68a9.16 9.16 0 0 0 2.7 2.2c3.32 1.85 6.69 3.61 10.07 5.35a4.47 4.47 0 0 0 1.45.19 4.76 4.76 0 0 0-.15-1.75c-3.26-6.56-6.62-13.08-9.86-19.66a10.51 10.51 0 0 1-1.12-4.12 3.43 3.43 0 0 1 1.39-2.48c1.19-.78 2.34 0 3 1.08 1 1.7 1.81 3.49 2.67 5.26q3.07 6.36 6.12 12.74c2.83 5.89 5.69 11.77 8.5 17.67 3.72 7.81 7.48 15.59 11 23.47a46.76 46.76 0 0 1 2.63 9zm178.76-69.17a22.34 22.34 0 0 1-2 3c-2.87 3-5.83 6-8.77 9l-15.91 16.23c-.28.28-.47.65-.75.91-3.56 3.24-7.3 6.31-10.66 9.74-5.14 5.23-9.92 10.8-15 16.06-3.54 3.65-7.33 7.07-11.11 10.48-.64.58-1.78.62-2.68.91a11.15 11.15 0 0 1 .14-2.53c3.24-11 8.86-21 14.05-31.14 1.83-3.59 3.2-7.42 4.82-11.12a61.11 61.11 0 0 1 2.85-5.94c1.83-3.15 3.82-6.21 5.79-9.28.75-1.16 1.44-2.94 3.26-1.89s.72 2.48.14 3.8q-2.76 6.3-5.48 12.61a5.08 5.08 0 0 0-.42 1.1c-.1.61-.1 1.24-.14 1.86a4.93 4.93 0 0 0 1.82-.14c2.34-1.14 4.56-2.56 7-3.57a29.16 29.16 0 0 1 7.37-2.3 4.32 4.32 0 0 0 3.23-1.68c1.54-1.95 2.89-4.21 4.83-5.68 4.8-3.62 8.91-8 13.59-11.76a3.23 3.23 0 0 1 2.46-.5c.55.11.94 1.05 1.57 1.83zm-157.16 24.9c-.42 1.9-.8 3.79-1.27 5.65a17.75 17.75 0 0 1-.91 2.28 9 9 0 0 1-1.9-1.84c-2.76-5.05-5.65-10.05-8.07-15.26-5.57-12-10.91-24.1-16.31-36.18a10.44 10.44 0 0 1-.87-3c-.17-1.6.43-2.89 2.17-3.22s2.24.92 2.75 2.2c1.62 4 3.39 7.94 4.88 12 1.34 3.64 4.48 5.71 6.84 8.46a1.09 1.09 0 0 0 1 .22 1.2 1.2 0 0 0 .37-1c-.35-2.33-.71-4.67-1.19-7-1.94-9.48-3.88-19-5.92-28.44-.55-2.55-1.47-5-2.19-7.53-.33-1.13-.63-2.27-.86-3.43a2.62 2.62 0 0 1 2-3.35 2.67 2.67 0 0 1 3.3 2.08c.42 1.51.64 3.07 1 4.6Q372 83 375.6 99.71c1.55 7.16 3.2 14.31 4.67 21.49 1.2 5.9 2.21 11.8 3.33 17.86zm106.34-44.3a33.41 33.41 0 0 1-2 3.17c-7.83 9.67-15.63 19.37-23.58 28.94a109 109 0 0 1-8.45 8.75c-.83.79-2.52 1.76-3.18 1.42a3.38 3.38 0 0 1-1.61-4c1.22-4 2.14-8.16 3.85-12 6.08-13.5 13.46-26.37 19.94-39.68a8.45 8.45 0 0 0 1.19-2.46c.47-4.35 3.32-7.65 4.87-11.52.56-1.38 1.12-3 3-2.3s1.53 2.26 1 3.68c-2.44 7-4.66 14.19-8.34 20.76-1.86 3.32-3.49 6.77-5.18 10.17-.59 1.18-.21 1.85 1.14 1.52 4.29-1.06 8.75-1.78 11.26-6.17a6.79 6.79 0 0 1 2.09-2.3 2.93 2.93 0 0 1 2.45-.48c.73.42 1.02 1.56 1.55 2.5z"/><path d="M307.8 455.28a41.43 41.43 0 0 1-2.18 17.45c-.39 1.07-.45 3.2.08 3.5 1.65.91 2.58-.79 3.23-2 3.43-6.2 6-12.52 6.4-19.91.71-13.65 5.41-25.88 15.78-35.34a69.07 69.07 0 0 1 7.34-5.24 13 13 0 0 0 1.37-.77c2.74-2.45 6-3 9.56-3.6 10-1.8 19.49-5.32 27.52-11.85a54 54 0 0 0 13.56-16.08c1.82-3.33 3.79-6.58 5.74-9.84.32-.52 1.11-1.31 1.33-1.21a3.16 3.16 0 0 1 1.53 1.51c1.51 3.58 3.3 6.92 7.15 8.45a11.51 11.51 0 0 0 3.25.31 13 13 0 0 0 0-3.29 12.81 12.81 0 0 0-1.71-4.35c-4.33-6.16-3.91-12.93-2.23-19.6.85-3.34 3-6.37 4.75-9.45a3.12 3.12 0 0 1 2.23-1.21 16.42 16.42 0 0 1 5 .31 45.75 45.75 0 0 1 18 9.37 25.84 25.84 0 0 0 5.55 3.62 4.76 4.76 0 0 1 2.75 3.44c1.93 6.24 4.32 12.36 6.06 18.65C452 385.64 457 390.51 463 394.7a13.79 13.79 0 0 0 3.09 1.67c5.94 2.12 12 3.95 18.34 3.88 3.73-.05 7.46-1.08 11.17-1.75 1.16-.21 2.25-.73 3.39-1 4-1 6.08-4 7.49-7.47.8-2-.55-3.58-2.57-3a36.31 36.31 0 0 0-5 2.1 25.49 25.49 0 0 1-4.67 1.88 16.1 16.1 0 0 1-4.24-.24 15.77 15.77 0 0 1 3.43-2c4.2-1.23 7.11-4.33 10.43-6.86.51-.39.89-1 1.41-1.34 2.57-1.84 3.49-1.86 5.17.69 4.48 6.81 6.77 13.91 4.23 22.3-1.84 6.08-5.71 10.44-9.7 15a54.3 54.3 0 0 1-13.51 10.64c-6.57 3.88-12.7 8.54-17.18 14.78s-9.11 12.18-10.71 19.92a9.12 9.12 0 0 1-5.17 6.44c-5.13 2.7-9.79 6.15-12.18 11.78-2.92 6.89-1.24 13 3.94 18.32 3.09 3.17 5.91 6.48 5.18 11.31a22.65 22.65 0 0 1-1.73 5.94c-1.8 3.94-3.68 7.89-7 10.85-3 2.7-6.16 5.23-9.21 7.87s-6.88 2.85-10.69 2.7c-4.19-.16-8.4-.82-12.55-.56a146 146 0 0 0-15.1 2.17 108.37 108.37 0 0 0-12.29 2.52c-7.4 2.16-14.69 4.67-22 7.06a7.72 7.72 0 0 1-1.44.6 8.14 8.14 0 0 1-1.82-.18 4.88 4.88 0 0 1 .35-1.46c2.57-4.15 2.26-8.79 2.38-13.38.11-4.31.49-8.62.6-12.93a9.71 9.71 0 0 1 2-5.4c2.28-3.32 3.52-7.39 7.16-9.71 1.2-.76 2.37-1.58 3.59-2.32s2.18-1.6 1.44-2.77a3.42 3.42 0 0 0-3-1.06 9.77 9.77 0 0 0-4.58 2.11c-5.13 4.86-10.25 9.76-12.81 16.64-1.68 4.5-2.93 8.93-1.51 13.8a7.28 7.28 0 0 1-2.28 7.87c-1.37 1.22-2.64 2.71-4.24 3.47a23.78 23.78 0 0 0-8.21 6.6 37.3 37.3 0 0 0-6 10 17.11 17.11 0 0 1-4.28 6.84c-6.93 6.28-14.48 11.67-23.32 15a13.41 13.41 0 0 1-2.68.63 157.56 157.56 0 0 0-21.97 5.35 138.35 138.35 0 0 0-20 7.88 129.22 129.22 0 0 0-20.32 12.34c-6.86 5-12.42 11.15-18 17.4a9.22 9.22 0 0 1-1.83 1.28 7.13 7.13 0 0 1-.26-1.86 86 86 0 0 1 8.95-28.3c5.12-10.2 13-18 20.77-26 4.21-4.3 8.88-8.16 13.49-12 2.69-2.26 5.68-4.17 8.55-6.2 7.16-5.06 14.52-9.85 21.42-15.24a65.18 65.18 0 0 0 12.86-12.63c1.31-1.79 2.69-3.55 4.17-5.22 4-4.52 6-10.1 8.35-15.5 4.35-9.95 8.4-20.05 13.4-29.66 4.69-9 12.64-14.91 21.87-19a5.1 5.1 0 0 1 1.53-.19 5.7 5.7 0 0 1 .16 1.77c-1.28 5.5-2.45 11-2 16.73a12.42 12.42 0 0 0 3.59 8.46 59.71 59.71 0 0 0 4.7 4.16c4.74 3.74 9.85 3.76 15.17 1.38s9.28-6.6 12.55-11.48a40.25 40.25 0 0 1 8.54-9.13 64.12 64.12 0 0 1 23.75-11.82c6.46-1.63 12-5 17.4-8.87a32.31 32.31 0 0 0 10.94-14.05 22.09 22.09 0 0 0 1.86-12.25c-.44-2.74-2.25-5.07-4.33-5.45-1.74-.31-2.87.47-2.36 2 1.58 4.74-1.59 8.29-2.8 12.31a35.22 35.22 0 0 1-2 4.25c-3.39 7.35-9.48 11.28-17 13.31-4.92 1.33-9.7 3.09-14.89 3.56-2.47.23-4.8 2-7.23 2.91-1.46.58-3 1-4.48 1.47-.31.09-.7-.12-1.05-.19a4.4 4.4 0 0 1 .44-1c2.68-3.57 6.62-4.89 10.65-6.24 5.46-1.83 11.16-3.38 16.11-6.2 9.79-5.57 13.17-13 11.75-23.57a15.83 15.83 0 0 0-2.07-5.07 40.28 40.28 0 0 0-10.56-12c-2.43-2-5.86-2.8-9-3.82-3.47-1.16-7.08-1.89-10.6-2.92-4.5-1.3-8.82-.11-13.17.82a19.66 19.66 0 0 0-10 5.18 13.17 13.17 0 0 1-2 1.27 57.58 57.58 0 0 0-15.83 16.09c-5.24 8-5.88 17.25-4.61 26.6.48 3.46.53 3.46-2.46 5.15-4.78 2.7-9.67 5.24-14.32 8.15a54.17 54.17 0 0 0-11.95 10c-2.34 2.64-4.6 5.35-6.94 8a29.79 29.79 0 0 0-6.43 12.83c-1.59 6.39-4.82 12.13-7.67 18-4.34 9-11.41 15.59-18.4 22.29a27 27 0 0 1-4.25 2.82c-10.36 6.71-19.64 14.84-29.35 22.39-3.71 2.88-6.7 6.67-10.29 9.72-8.45 7.2-15.11 16-22 24.53-2.43 3-4 6.76-6 10.14-6.53 11-8.72 23.19-9.11 35.78-.17 5.51-.15 11-.09 16.53 0 1.76-.29 2.67-2.36 2.55-5-.31-8.83 1.93-11.84 5.79a15.6 15.6 0 0 1-1.54 1.79c-1.93 1.84-2.87 1.83-5.1.18a29.73 29.73 0 0 0-12.43-5.63c-2-.36-3.85-.75-5.74.31a1.47 1.47 0 0 1-2.41-1 29.65 29.65 0 0 1-1.23-4.54c-.89-7-2.06-14-2.37-21.06-.37-8.22-.82-16.51 1.85-24.59s4.62-16.39 7.54-24.37a79.28 79.28 0 0 1 12.25-21.43c4.42-5.68 9.16-11.13 13.95-16.51 6.18-6.94 12.58-13.68 18.8-20.59a34 34 0 0 0 3.57-5.12c2.86-4.7 5.69-9.43 8.41-14.21 2.29-4 6-6.52 9.34-9.43 3.56-3.09 7-6.28 10.55-9.4 1.95-1.72 4.08-3.27 5.89-5.14 5.72-5.89 9.28-13.3 13.82-20 .57-.86.76-2 1.25-2.89a24.92 24.92 0 0 1 1.55-2.34 10.51 10.51 0 0 1 .73 2.92 8.32 8.32 0 0 1-.95 3.28c-1 2-2.28 3.83-3.27 5.83-.28.55.06 1.42.11 2.14.72-.12 1.69 0 2.1-.4a41.19 41.19 0 0 0 4.67-5.31 28 28 0 0 0 3.44-6.15c3-8.08 6.27-16.12 8.71-24.39 3.22-10.93 5.7-22.08 8.65-33.09 2-7.35 4.29-14.61 8.15-21.23a60.14 60.14 0 0 1 14.55-16.39c4-3.19 7.67-6.83 12.62-8.59a8.45 8.45 0 0 1 1.06-.5 1.84 1.84 0 0 1 1 .22c.09.05.06.52-.05.73-1.34 2.83-2.69 5.65-4.09 8.45-.58 1.17-1.43 2.22-1.89 3.43a1.71 1.71 0 0 0 2.49 2.19 53.92 53.92 0 0 0 5.09-4.82c2.48-2.68 3.6-6.24 6.32-8.9 3.29-3.23 7.18-5.27 11.15-7.14 5.48-2.57 11.43-3.55 17.48-4.1s11.68 1.3 17.54 1.69c2.1.13 2.59 1 1.65 2.92-2.74 5.5-5.23 11.21-8.69 16.25-2.8 4.09-7.42 6.51-12 8.67-3.31 1.58-6.59 3.22-9.83 4.95a2.24 2.24 0 0 0-1.08 1.79c.11.51 1.06 1.1 1.7 1.2a12.66 12.66 0 0 0 3.53-.06c3.74-.5 7.46-1.11 11.2-1.64a10.89 10.89 0 0 1 1.89.06 6.59 6.59 0 0 1-.65 1.69 58.81 58.81 0 0 1-27.32 20.45 44.54 44.54 0 0 1-9 2.58 14.12 14.12 0 0 1-6.08-.89c-4.51-1.44-5.89-1.2-7.06 3.13-1.13 4.14-3.89 6.7-6.95 9.13-5.87 4.69-9.24 11-11.62 17.88a57.48 57.48 0 0 0-2.72 23.29zM189.41 636.76a13.34 13.34 0 0 0 2.91 10.24c1.71 2.19 3.34 2.61 5.88 1.61 4.17-1.64 6.65-4.73 6.79-9.22.16-5.36 0-10.72-.12-16.08a65.83 65.83 0 0 1 1.34-17.15c.61-2.55 1.33-5.08 1.74-7.66.16-1-.23-3-.61-3a7.84 7.84 0 0 0-4.05.51c-.67.27-1 1.44-1.46 2.22a100 100 0 0 0-9.43 22c-1.65 5.35-3.03 10.77-2.99 16.53zM169 637c.42 1.77.87 3.53 1.26 5.31a5.22 5.22 0 0 0 4.87 4.39 5.91 5.91 0 0 0 6.06-2.82 27.75 27.75 0 0 0 2.63-5.66c1.51-4.34.93-8.91.44-13.25a54.45 54.45 0 0 1 1.74-19.75c.91-3.55 1.88-7.08 2.71-10.64.5-2.13-.35-3-2.43-2.58a3.53 3.53 0 0 0-1.76.77c-1.73 1.75-3.83 3.34-5 5.44-6.45 12.09-9.12 25.24-10.52 38.79z" fill="#e83131"/><path class="b" d="M428.46 425.69c-.14 7.92-3.58 12.27-11.29 14.62a134.88 134.88 0 0 0-14.37 5.13 19.38 19.38 0 0 0-6.21 4.64 49.29 49.29 0 0 0-10.79 18.09 13.36 13.36 0 0 1-10.12 9.42c-4.55 1.14-7.59-1.71-8.8-4.79-.75-1.92 0-2.95 2.15-3.07h.79c7.31 0 11.59-3.14 13.71-10.31 1.6-5.4 2.87-10.9 4.53-16.29 2-6.55 6.76-10.27 13.14-12.4 4.3-1.44 8.73-2.68 12.08-6.25 5-5.38 5.58-10.58 1.33-16.53a6.27 6.27 0 0 1-.74-.91c-.16-.32-.32-.84-.17-1.06a1.1 1.1 0 0 1 1-.25c1.91.79 4.19 1.24 5.6 2.59 4.9 4.62 8.57 9.97 8.16 17.37z"/><path class="c" d="M513.83 336.81c-.59 2.54-1.36 5.05-1.73 7.63-.33 2.31-1.68 3-3.7 3.24-1.82.22-3.62.55-5.42.9-13.82 2.66-25.82-.89-36.14-10.44a3.52 3.52 0 0 1-1.19-4.1c.77-2.76 1.25-5.6 1.81-8.41.41-2 1-2.36 3-1.48 3.12 1.35 6.24 2.68 9.29 4.17 7.07 3.47 14.79 3.84 22.39 4.77a49.65 49.65 0 0 0 8.18.25c3.41-.15 3.46-.23 3.51 3.47zm-25.66 41.58a32.38 32.38 0 0 1-16.05-5.8 96.56 96.56 0 0 1-11.47-9.59c-1.78-1.66-3-4-4.46-6-1.23-1.63-1-2.92.41-4.45 2.92-3.14 3-3.43 6.63-.9A64.85 64.85 0 0 0 478 359a43.88 43.88 0 0 0 24.69 1.94 8.1 8.1 0 0 1 1.84 0 13.47 13.47 0 0 1-.37 1.83c-2.33 6.64-7 11.26-12.91 14.72a10.82 10.82 0 0 1-3.08.9zm18.56-56.52a57.76 57.76 0 0 1-17.31-3.12c-4.86-1.53-9.51-3.72-14.23-5.68a31.77 31.77 0 0 1-3.4-1.92 4.72 4.72 0 0 1-2.51-5.59 24.31 24.31 0 0 0 0-3.52c.1-1.91.72-2.35 2.54-1.56a73.91 73.91 0 0 0 26.3 5.91 59.85 59.85 0 0 0 9.31-.82c1.18-.13 2.4-.66 2.86 1 1.06 3.92 2.28 7.81 3.11 11.77.6 2.88.35 3-2.75 3.21zM382 262.82c0 2.74.81 5.84-.23 8.1s-3.82 3.75-6 5.37c-5.25 3.89-10.3 8.17-16 11.31-5.44 3-11.57 4.8-17.42 7.09a7.71 7.71 0 0 1-1.94.3c-1 .1-1.64-.41-1.18-1.36 2.5-5.18 5.05-10.35 7.71-15.45a3.83 3.83 0 0 1 2.19-1.45c10.35-3.22 20-7.62 28.09-15.12a6.82 6.82 0 0 1 1.3-.86c1-.56 2-1.1 3-1.64l.89 3.64zm-44.52 56.05h-3.91c-1.64-.05-2.49-1-2.14-2.57.7-3.05 1.5-6.1 2.48-9.07.17-.52 1.44-1 2.16-1 11.27.74 21.47-2.75 31.23-7.83 2.53-1.32 4.68-3.35 7.08-4.94a6.16 6.16 0 0 1 2.17-.42 5.7 5.7 0 0 1 .25 1.88c-.71 3.19-1.52 6.35-2.33 9.52a1.82 1.82 0 0 1-.62 1c-3.3 2.31-6.45 4.92-10 6.8a56.87 56.87 0 0 1-21.68 6.62c-1.55.14-3.13 0-4.7 0zm159.95-25.31c-5.72.28-11.17-1.13-16.56-2.82-3-.93-5.9-2.14-8.88-3.12-1.54-.51-2.52-1.29-2.41-3.06a31.51 31.51 0 0 0-.44-8.1c-.45-2.28.38-2.75 2.73-2.23 4.59 1 9.13 2.35 13.77 3a66.15 66.15 0 0 0 12.43.28c2.13-.12 3.15.38 3.72 2.34 1.09 3.77 2.27 7.51 3.42 11.25.42 1.38-.26 2-1.51 2.12-2.08.15-4.18.23-6.27.34zm-144.81-34.25c.69-4.64 1.32-9.29 2.12-13.92a3.21 3.21 0 0 1 1.62-1.95c5.91-2.81 10.28-7.59 15.14-11.73 1.08-.93 1.62-1.2 2.27.2 1.54 3.32 3.14 6.62 4.6 10a3 3 0 0 1-1.27 4.06 20.75 20.75 0 0 0-3.88 3.23c-4.9 5.32-11.13 8.63-17.46 11.79-2.25 1.09-3.05.55-3.14-1.68zm135.66 5.46c-5.87.74-11.55-1.26-17.22-3.33a2.28 2.28 0 0 1-1.68-2.72c.43-3.25.7-6.52 1.22-9.75.39-2.42 1.2-2.88 3.55-2.29 2.54.64 5 1.63 7.58 2 3.74.57 7.53.82 11.31 1 2.69.15 3 .27 3.2 2.8l.76 9.39c.13 1.54-.31 2.52-2.11 2.53-2.09.07-4.18.25-6.61.37z"/><path class="b" d="M474.07 491.12c-.18 5.86-1.55 11.17-5.76 15.44-1.76 1.78-2.06 1.74-3.37-.49a12.52 12.52 0 0 1-1-2.11 31 31 0 0 0-6.27-10.34 25.08 25.08 0 0 1-2.52-3.5c-1.56-2.57-1.91-5.09.45-7.5 1-1 1.61-2.39 2.66-3.3 1.25-1.09 2-.61 2.07 1.1.08 3.38-.25 6.8 1.27 10 .23.47.27 1.08.6 1.43a3.47 3.47 0 0 0 1.76 1.2c.39.06 1.15-.67 1.33-1.19.73-2.22 1.32-4.5 2-6.75.53-1.89 1-3.79 1.64-5.64.18-.49.88-.79 1.34-1.19.31.39.77.72.93 1.16.76 2.08 1.57 4.17 2.12 6.31a49.83 49.83 0 0 1 .75 5.37z"/><path class="c" d="M335.62 331.93a46.17 46.17 0 0 0 17.49-.72 60.47 60.47 0 0 0 18.29-7.78c1-.63 1.86-1.84 2.77 0 1 2.06.78 4.38-.62 4.85-1.85.61-3.78 1-5.7 1.44-6.46 1.41-12.58 3.51-17.48 8.23-3.2 3.07-7.56 3.45-11.48 4.72-5.5 1.79-5.56 1.61-6.7-4.05-.19-.9-.34-1.8-.52-2.7-.85-4.03-.67-4.3 3.95-3.99z"/><path class="b" d="M185.18 675.48c.33 2.85.6 5.71 1 8.54a101.68 101.68 0 0 0 5.16 20.47 5.79 5.79 0 0 1 .37 1.92c0 .4-.35.8-.54 1.21a3.77 3.77 0 0 1-.87-.7 97.67 97.67 0 0 1-9.23-17.2c-2.3-5.63-3.3-11.53-5.1-17.24-.39-1.23-.86-2.65.8-3.39 1.94-.87 3.72-2.87 6.11-1.2 1.79 1.24 3.2 2.73 2.69 5.21a18.18 18.18 0 0 0-.17 2.35z"/><path class="c" d="M492.55 238.9c-4.86-1-9.75-1.83-14.57-3-2.32-.55-2.44-1.18-1.27-3.39 1.41-2.66 3-5.24 4.39-7.89.89-1.65 1.8-2.11 3.75-1.23a75 75 0 0 0 8.57 2.73c2.57.79 2.58.9 2.29 3.54-.24 2.21-.36 4.44-.4 6.66-.04 1.9-.96 2.59-2.76 2.58z"/><path class="b" d="M273 422.13c.54-10.6 4.18-19.54 12.58-26.2a13.68 13.68 0 0 1 1.56-1.19c.9-.52 1.71-.22 1.46.84-.6 2.57-.82 5-3.19 7.23-2.66 2.48-4.55 6.16-5.84 9.65-2.24 6.11-3 12.52-.73 18.91.48 1.34 1.32 2.54 1.85 3.87a7.75 7.75 0 0 1 .83 3.31 14.12 14.12 0 0 1-1.34 3.53 21.46 21.46 0 0 1-2-2.54 38 38 0 0 1-5.18-17.41z"/><path class="c" d="M364.56 217.21c-.19.46-.41.93-.59 1.42-1.67 4.65-4.91 8-9 10.6-1.47 1-2.34.77-2.79-1.06-.79-3.17-1.77-6.29-2.5-9.47a2.87 2.87 0 0 1 .65-2.36 15.46 15.46 0 0 0 5.34-7.59c.42-1.5 1.45-1.34 2.31-.31 2.09 2.51 4.13 5.05 6.16 7.61a3.85 3.85 0 0 1 .42 1.16z"/><path class="b" d="M202.55 671.56c0-3.7 2.26-6.29 5-6.31 1.45 0 2.11.5 2.13 2.07 0 3.4.34 6.81.44 10.21a55.83 55.83 0 0 0 2.8 16.2c.65 2 1 4.06 1.47 6.1a4.09 4.09 0 0 1-.07 1.15c-.35-.28-.84-.5-1-.87-1.88-3.89-3.93-7.72-5.5-11.74-1.86-4.76-3.32-9.67-4.9-14.53a12.12 12.12 0 0 1-.37-2.28z"/><path class="c" d="M505.89 196.68c-.17.43-.38.91-.56 1.39q-3 7.89-6 15.79c-.89 2.33-1 2.41-3.41 1.52-1.47-.55-2.89-1.25-4.38-1.74-1.9-.63-1.7-1.8-.81-3a34.48 34.48 0 0 1 3.12-3.51q5.08-5.18 10.24-10.27a4 4 0 0 1 1.31-.73c.04-.04.27.3.49.55zm-158.58 3.7a9.73 9.73 0 0 1-.42 1.58c-.75 1.46-1.54 2.89-2.31 4.34-1.05-1.22-2.14-2.41-3.13-3.67q-2.76-3.51-5.41-7.12a9.15 9.15 0 0 1-.88-2 7.87 7.87 0 0 1 2 .43c2.75 1.48 5.47 3 8.13 4.62a11.44 11.44 0 0 1 2.02 1.82z"/><path class="b" d="M522.12 561.61c-.47.79-.92 1.59-1.4 2.36-3.65 5.87-8.71 10.44-13.85 14.93-11.12 9.72-24.22 16.1-37.87 21.1-10.15 3.73-20.76 6.2-31.18 9.22a12.36 12.36 0 0 1-2.69.55c-1 .08-1.45-.51-1-1.47a12.44 12.44 0 0 1 1.12-1.6c1.62-2.21 3.27-4.4 4.84-6.64a60.36 60.36 0 0 1 22.39-19.82c3.26-1.65 6.39-3.64 9.78-5 5.71-2.23 11.6-4 17.39-6 4.68-1.64 9.35-3.3 14-5.1 4.15-1.61 8.21-3.43 12.34-5.1 1.5-.61 4.85.29 5.72 1.44a4.68 4.68 0 0 1 .41 1.13zM345.55 675.1a5.69 5.69 0 0 1-1.54-.69c-.17-.13 0-1 .31-1.4 6.61-8.93 12.65-18.35 21.13-25.74 5.52-4.81 11-9.71 17.64-13 4.1-2 8-4.49 12.23-6.27 4.56-1.92 9.38-3.23 14.05-4.92 2.74-1 3.68 1.2 5.13 2.58s1.41 2.82.4 4.53c-7.57 12.78-16.37 24.48-29.44 32.11a76.24 76.24 0 0 1-14.76 6.35c-7.21 2.37-14.61 4.16-21.94 6.16a22.89 22.89 0 0 1-3.21.29zm211.29-219.4c.27 7.33.88 14.66.73 22-.22 10.08-.74 20.16-1.65 30.2a40.14 40.14 0 0 1-6.92 19.43c-2.59 3.71-6.18 6.72-9.39 10-.38.4-1.15.42-1.74.61a7.3 7.3 0 0 1-.34-1.81c.27-3.79.69-7.57.91-11.36.6-10.19 1-20.39 1.72-30.57.66-9.24.64-18.55 3.45-27.57 1.35-4.34 1.56-9 3.7-13.18 1.27-2.44 2.44-4.92 3.78-7.31.75-1.33 1.48-2.79 3.6-2.28s2.21 2 2.25 3.6v8.24zm60.32-88.14c-.28.6-.53 1.2-.82 1.78-2.14 4.19-4.22 8.42-6.45 12.57a29.43 29.43 0 0 1-2.84 3.71 95.87 95.87 0 0 1-17 16.75 36.57 36.57 0 0 0-4.69 4.18A13.51 13.51 0 0 1 579 411c-1.18.35-2.13 1.47-3.23 2.15-2.66 1.65-5.33 3.3-8 4.84-.94.53-1.64 0-1.23-1.05 2.47-6.31 4.1-13 9-18.13 5.37-5.56 10.68-11.18 16-16.76a12.22 12.22 0 0 1 2.22-2.21c7-4.3 14.11-8.52 21.19-12.76.81-.47 1.68-.91 2.21.48z"/><path d="M189.41 636.76c0-5.76 1.34-11.18 3-16.6a100 100 0 0 1 9.43-22c.46-.78.79-2 1.46-2.22a7.84 7.84 0 0 1 4.05-.51c.38.06.77 2 .61 3-.41 2.58-1.13 5.11-1.74 7.66a65.83 65.83 0 0 0-1.34 17.15c.13 5.36.28 10.72.12 16.08-.14 4.49-2.62 7.58-6.79 9.22-2.54 1-4.17.58-5.88-1.61a13.34 13.34 0 0 1-2.92-10.17zm5.27.12c0 3.25 1.46 5.73 2.18 5.06a7.57 7.57 0 0 0 2.46-4.49c.11-1.94-2.33-.77-3.45-1.54-.15-.11-1.02.82-1.19.97zM169 637c1.42-13.59 4.09-26.74 10.58-38.83 1.13-2.1 3.23-3.69 5-5.44a3.53 3.53 0 0 1 1.76-.77c2.08-.41 2.93.45 2.43 2.58-.83 3.56-1.8 7.09-2.71 10.64a54.45 54.45 0 0 0-1.82 19.82c.49 4.34 1.07 8.91-.44 13.25a27.75 27.75 0 0 1-2.63 5.66 5.91 5.91 0 0 1-6.06 2.82 5.22 5.22 0 0 1-4.87-4.39c-.39-1.77-.84-3.53-1.24-5.34zm5.85-2a11.13 11.13 0 0 0 1.61 3.43c.49.54 2.47-2.39 2.56-4.38 0-.52.13-1.2-.14-1.53a4.89 4.89 0 0 0-1.92-1.5c-1.1-.4-1.71.32-1.87 1.38-.09.67-.15 1.33-.26 2.6z"/><path class="c" d="M194.68 636.88c.17-.15 1-1.08 1.19-1 1.12.77 3.56-.4 3.45 1.54a7.57 7.57 0 0 1-2.46 4.49c-.72.7-2.2-1.78-2.18-5.03zM174.83 635c.11-1.3.13-2 .24-2.6.16-1.06.77-1.78 1.87-1.38a4.89 4.89 0 0 1 1.92 1.5c.27.33.17 1 .14 1.53-.09 2-2.07 4.92-2.56 4.38a11.13 11.13 0 0 1-1.61-3.43z"/></svg>