<svg xmlns="http://www.w3.org/2000/svg" viewBox="0 0 800 800"><defs><style>.a{fill:#bee0b9;}</style></defs><title>sacrifice</title><path class="a" d="M170.6,745.58C167.4,733.9,166.24,78.16,169.17,57c7.08-1.72,14.44-1,21.68-1,40.75-.16,81.5-.09,122.25-.06q86.77.06,173.55.16,53.18.06,106.35.2c10.5,0,27,.43,37.45.88,6.52.27,1.37,25,1.43,31.76.12,12.73,0,25.45,0,38.18q0,93,0,186.1,0,127.35,0,254.7c0,63.22,0,104.95-.08,168.17,0,2.94.29,5.94-1.09,9.23-8.27,1.7-16.82.8-25.27.83q-91.51.38-183,.3c-73,0-145.92-.53-218.88-.21C192.59,746.33,181.77,744.32,170.6,745.58Zm162.49-200.3c.17,1.08.37,1.84.41,2.61,1.05,20.82,2.43,41.68-.07,62.43-2.12,17.54-6,34.82-13.7,50.87-4,8.34-7.86,16.47-6.72,26.08a17.8,17.8,0,0,1-.66,5.9c-1.26,5.44.87,8.64,6,10.51,8.77,3.16,17.63,5.93,26.67,8.26,20.55,5.29,41.46,6.57,62.51,5.81A409.86,409.86,0,0,0,469,710.37a123.92,123.92,0,0,0,21.78-5.93c2.5-1,6.55-1.87,5.55-5.84-2.82-11.13-1.15-23-7.56-33.66-8.76-14.61-12.69-31.19-15.13-48a148.15,148.15,0,0,1,6.1-69.38,8.87,8.87,0,0,1,6.44-6.31c10.89-3,20.05-9.23,28.79-16.08a340.6,340.6,0,0,0,28.78-25.85,278,278,0,0,0,29-33.67c3.36-4.58,2.06-7.07-3.32-9.12-6-2.29-12.39-2.73-18.51-4.31-27.85-7.2-56.4-9.8-84.88-11.38-49.41-2.74-98.79-1.91-148.07,4.2a739,739,0,0,0-81.44,14.44c-8.89,2.13-10.72,6.82-4.27,13.06,9.95,9.64,18.73,20.36,29.16,29.59C282.56,520.87,305.63,536.16,333.09,545.28ZM504.73,379.94c-1.93-11.68-11.63-19.95-14.52-31.56a13.44,13.44,0,0,1,2.12-.88c11.82-2.64,21.74,2.09,31.31,8.12,1.85,1.16,3.51,2.73,5.49,3.53,2.84,1.15,4.25-.25,3.61-3.21a15.16,15.16,0,0,0-1.84-3.72c-8.75-15.92-12.46-32.64-7.2-50.47a121.29,121.29,0,0,0,4.42-29.36c.43-10.18-2.21-19.67-9-27.65-2.74-3.25-3.46-6.58-2.81-10.94,2.36-16,4.35-32-1.71-47.67-3.74-9.66-9.21-18.49-13.3-28-4.2-9.73-9.52-19.37-4.66-30.6.87-2-.23-3.87-2.75-4.75-7.74,4.47-16.37,6-25.36,6.7a81.21,81.21,0,0,0-25.36,6.17c-19.75,8.3-35.5,21.37-48.08,38.67-4.64,6.37-8.78,13.06-13.2,20-4.16-2.61-8-4.73-12.29-5.56a3.34,3.34,0,0,1-2.76-2.65c-5-14.93-16-25.34-27.16-35.46-5.33-4.83-7-10.34-6.36-17,.47-5.27,4.07-8.82,9.58-9.58,7.19-1,11.46,1.15,13.54,6.75,2.43,6.51,1.17,12.06-4.1,16.68-1.39,1.21-2.6,2.67-1.48,4.65,1,1.76,2.93,2.74,4.56,1.78,4.53-2.67,9.48-4.8,11.47-10.55,3.15-9.1-1.86-14.72-7.81-20-10-8.93-27.75-3.75-31.54,9-2.76,9.29,1.92,16,7.82,21.9,8.81,8.86,18.1,17.26,23.47,28.88,1.16,2.52,3.29,5.21-.24,8.19-6.29-3.92-11.73-8.47-15.42-15.1-5.28-9.48-10.3-19.07-19.06-26.21-9.2-7.49-19.44-5.88-25.58,4-5.19,8.36-3.52,16.65-.62,24.6,3.51,9.58,15.33,13.37,23.88,8.67,2.5-1.37,4-3.29,3.13-6.29s-3.15-3-5.75-2.43c-9.51,2-17-3.06-18.2-12.56a14.35,14.35,0,0,1,5.14-13.32c4.27-3.51,8.75-1.78,12.72.74,6.51,4.11,11.13,10,14.74,16.76,4.45,8.39,8,17.92,16.57,22.76,6.71,3.78,8,8.94,8.3,15.69-1.42.33-2.54.71-3.7.86-33.62,4.21-54.92,25.93-73.43,51.62-7.85,10.89-13.55,23.45-24.91,31.58a2.65,2.65,0,0,0-.88,2.7A2.81,2.81,0,0,0,258,297c6.87.35,11.69,4.19,16.25,8.9a178.53,178.53,0,0,0,28.18,23.7c15.59,10.61,32.71,16.1,51.14,17.66,5,.43,8.08,2.25,10.65,6,4.34,6.36,10.27,10.94,16.73,15,11.79,7.32,25.25,8.95,38.46,11.4,18.55,3.45,36.67,7.7,49.19,23.68,1.44,1.83,3.63,1.82,5.45,1,2.36-1.05,1.79-3.26,1.2-5.2a84.88,84.88,0,0,1-3.18-30,13.55,13.55,0,0,1,4.4-9.72,14.85,14.85,0,0,1,6.6,4.35q7.53,7.65,15.41,14.94C500,380.08,501.7,382.61,504.73,379.94ZM258.41,599.64c.38,9.83,2.38,19.07,11.8,25a17.72,17.72,0,0,0,25.27-6.72c4.13-7.65,2.72-15.73,1.47-23.29-3.27-19.78-11.29-38.36-16.16-57.78a4.89,4.89,0,0,0-4.73-3.9c-3.12-.11-3.26,2.39-3.68,4.48-2.75,13.81-6.63,27.32-10.57,40.82C259.81,585.13,259.17,592.26,258.41,599.64ZM539,556.6c0,1.39-1.25,2.79-1.19,4.18.42,9,8.76,16.47,18.18,16,9.88-.49,13.49-7.6,13.39-17-.18-17-5.66-32.82-12.28-48.29-.9-2.11-1.71-4.2-4.49-3.88s-3,2.7-3.63,4.81c-3.07,10-5.44,20.31-9.05,30.22C538.26,547,538.25,551.71,539,556.6ZM309.63,399a32.06,32.06,0,0,0-.23-3.46,523.89,523.89,0,0,0-12.74-53.75c-.52-1.78-1.41-3.46-3.58-3.37-2.69.11-2.83,2.54-3.25,4.36-3.29,14.09-6.66,28.16-9.6,42.32a48.12,48.12,0,0,0-.68,13.61c.88,10.27,7.49,15.45,17.87,14.61C305.09,412.72,309.83,407,309.63,399ZM497.91,620.8c.52,5.09,2.08,10.07,7.11,13.14a12.16,12.16,0,0,0,13.54-.5c5-3.37,6.38-9.47,5.45-14.84-2.43-14-5-28-10.26-41.33-.82-2.09-1.46-4.78-4.69-4.53s-4.21,3-4.52,5.44c-.65,5.33-2.09,10.49-3,15.75C500.12,602.7,499.15,611.55,497.91,620.8Zm13.7-199.47c.32,2.28.55,4,.82,5.8,1.13,7.42,6,11.8,12.14,11,7.49-1,12-6.51,11.54-14-1.06-16.06-6.12-31.47-7.6-47.46a13.21,13.21,0,0,0-.57-2.31c-.53-1.92-1.66-3.28-3.78-3.06s-2.24,2-2.49,3.55c-1.34,8.42-4.43,16.4-6.17,24.7C514,406.92,512.83,414.37,511.61,421.33ZM346.93,410.05a23.52,23.52,0,0,0,2.57,12.11,9.55,9.55,0,0,0,6.47,5.63c9.89,2.48,18.55-5.08,16.65-15.23-2.36-12.63-5.77-25.06-7.59-37.82a27.54,27.54,0,0,0-1.67-5.68,4.64,4.64,0,0,0-4.58-3.18c-2.4,0-2.46,1.93-2.95,3.71-1.48,5.34-2.45,10.8-3.82,16.17C350,393.77,346.76,401.6,346.93,410.05Zm66.62,7.81c-.29,8.94,2.62,13,8.19,13.1,6.94.13,11.9-4.79,10.86-11.85-1.37-9.19-3.49-18.28-5.52-27.36-.45-2-1.42-4.58-4.17-4.3s-3.16,2.52-3.25,4.91a24.14,24.14,0,0,1-.85,4.05C417.22,404.14,413.05,411.28,413.55,417.86ZM210.77,213.37c9.42-10.27,21.07-17.47,33-24.31s26-8.55,38.46-13.56c-.39-3.37-2-3.87-3.95-3.68a44.86,44.86,0,0,0-9.91,1.73,173.86,173.86,0,0,0-43.78,20.86c-5.68,3.84-10.05,8.82-14,14.26C209.5,210.06,208.94,211.36,210.77,213.37Zm26.3,20.84a250.73,250.73,0,0,1,21.21-22.66c8.07-7.6,16.54-14.77,27-19.06,1.63-.67,3.42-1.88,2.4-4.06s-3.08-2.21-5.1-1.33c-.72.31-1.31.91-2,1.25a95.12,95.12,0,0,0-23.32,16.26c-8,7.32-15.41,15.35-20.89,24.88C235.46,231.05,233.78,232.88,237.07,234.21ZM374.73,119.07c3.64.58,6.67-.52,9.55-2.32a46.44,46.44,0,0,1,9-4.46c11.25-4,22.94-5.92,34.72-7.44,2.24-.28,5.42.28,5.06-3.32-.31-3.1-3.18-2.44-5.24-2.25-13.26,1.24-26.25,3.77-38.47,9.24C383.88,111,378.33,113.57,374.73,119.07ZM267.12,247.73c4-2.21,6.09-5.82,8.21-9.33,7.27-12,15-23.67,24.9-33.74,3.44-3.49,1-5-2.18-5.81C283.39,212.72,272.77,228.71,267.12,247.73ZM381.35,133.2a7.09,7.09,0,0,0,6.18.1,31.55,31.55,0,0,1,10.32-2.12c10.28-.7,20.49-2.5,30.85-1.49,1.64.16,3.34,0,3.78-2,.5-2.24-.93-3.3-2.87-3.71a14.4,14.4,0,0,0-4.11-.48c-8.49.7-17,1.21-25.44,2.4A42.88,42.88,0,0,0,381.35,133.2Zm12.69-42c-7.47-5.34-33.58,8.88-35.72,19.09C369.29,102.73,381.48,97.51,394,91.15Z"/><path d="M333.09,545.28c-27.46-9.12-50.53-24.41-71.69-43.15-10.43-9.23-19.21-19.95-29.16-29.59-6.45-6.24-4.62-10.93,4.27-13.06A739,739,0,0,1,318,445c49.28-6.11,98.66-6.94,148.07-4.2,28.48,1.58,57,4.18,84.88,11.38,6.12,1.58,12.49,2,18.51,4.31,5.38,2.05,6.68,4.54,3.32,9.12a278,278,0,0,1-29,33.67A340.6,340.6,0,0,1,515,525.17c-8.74,6.85-17.9,13-28.79,16.08a8.87,8.87,0,0,0-6.44,6.31,148.15,148.15,0,0,0-6.1,69.38c2.44,16.81,6.37,33.39,15.13,48,6.41,10.7,4.74,22.53,7.56,33.66,1,4-3.05,4.88-5.55,5.84A123.92,123.92,0,0,1,469,710.37a409.86,409.86,0,0,1-61.46,7.38c-21.05.76-42-.52-62.51-5.81-9-2.33-17.9-5.1-26.67-8.26-5.17-1.87-7.3-5.07-6-10.51a17.8,17.8,0,0,0,.66-5.9c-1.14-9.61,2.71-17.74,6.72-26.08,7.72-16.05,11.58-33.33,13.7-50.87,2.5-20.75,1.12-41.61.07-62.43C333.46,547.12,333.26,546.36,333.09,545.28Zm96,7.48c-1.74-10,0-19.32-.89-28.58-.39-4.19.86-6.28,5.33-6.55,5.73-.35,11.46-1,17.15-1.85,32.67-4.6,64-13.46,93.18-29.25,8.76-4.74,16-11,19.17-18.66-24.22,9-49.4,11.2-74.39,13.85-25.21,2.69-50.6,3.82-75.92,5.63,1.26,9.26,2.83,11.13,10.9,13.16,4.91,1.24,6.18,4,3.16,8.11-6.26,8.47-7.9,17.54-4.7,27.58.63,2,1.68,4.39-.47,6.07-2.31,1.81-4.34.22-6.54-.86a28.36,28.36,0,0,1-5.15-2.83c-5.16-4-10.29-3.26-15.43.09-1.82,1.2-3.65,2.39-5.57,3.41a2.73,2.73,0,0,1-3.33-.21c-1.08-1-.86-2-.38-3.23.89-2.2,2-4.42,2.33-6.72,1.22-9.12,5.54-19-5.38-25.61-1.23-.75-1.38-2.37-.87-3.81s1.89-1.9,3.34-2a53.66,53.66,0,0,0,7.09-.54c6.1-1.27,9.39-5.78,9.38-12.91-27.08-1.61-54.25-2.5-81.28-5-26.79-2.49-53.28-7.68-80-11.44,4.17,6.68,8.77,12.23,16,15,8.5,3.24,17.14,6.2,25.35,10.07a236.32,236.32,0,0,0,75.72,21.61c5.71.63,11.44,1,17.18,1.41,3.62.24,4.43,1.89,4.29,5.46-.36,8.86-.12,17.75-.12,27.29C395.63,553.6,411.7,554.6,429.1,552.76Zm-28.16,25.58c4.31-.61,5.6,2,6.49,5,3.24,11.11,8.79,21.27,13.71,31.61,7,14.63,18.85,25.51,31.63,35,7.86,5.84,17.24,9.16,27.41,12.32-3-7.79-5.62-14.63-7.18-21.82a5.88,5.88,0,0,0-1.69-3.06c-17.54-17.09-23.15-39.1-25.58-62.4-.64-6.21.44-12.53-.8-19.17-27.18,4.75-54,4-80.52-1.16a13.43,13.43,0,0,0-.75,2.44c-1.43,28.55-10.39,54.24-28.79,76.39a6.43,6.43,0,0,0-1.15,2.66c-2.14,9.61-3.4,19.49-8.55,28.4C364.74,648.57,386.43,616.83,400.94,578.34Zm-81.07,97.55c-.58,6-.93,11.28-1.64,16.54-.57,4.16,1,6.3,5.07,7.16a67.85,67.85,0,0,1,9.7,2.85c22.31,8.46,45.58,10.36,69.11,9.93a361.79,361.79,0,0,0,62.66-6.92,171.56,171.56,0,0,0,24.86-6.83c.39-7.51-1.56-14.14-2.52-20.89C431.08,695.76,375.52,697.29,319.87,675.89ZM563.49,461.15c-53.43-13.77-106.49-16.44-160-15.83-58.72.68-130.74,9.12-157.75,19,6.79,4.31,13.3.73,20.09-1,22.77-5.74,46.19-7.4,69.39-10.28,27.21-3.37,54.6-4.14,82-3.72,13.3.21,26.63.26,39.9,1.08,20.4,1.26,40.58,4.79,60.89,7A138.11,138.11,0,0,1,544.78,463C551,465,556.51,464.6,563.49,461.15ZM404.17,499.5l-11,7c7.19,9,15.42,10.72,24.13.79C412.18,506.06,407.29,504.59,404.17,499.5ZM483,538.23c-5.88-1.75-10.7,1.88-16.1,2.8-9.69,1.67-19.27,4-29.06,5.13-3.27.39-4.41,2.21-2.47,5.63C451.9,549.41,467.08,542.64,483,538.23Zm-145.93,3.11c11.28,4.11,22.46,8.53,35.15,8.88,0-2.2.94-3.89-1-5.69C359.91,545.31,348.86,540.3,337.11,541.34Z"/><path d="M504.73,379.94c-3,2.67-4.7.14-6.26-1.31q-7.87-7.29-15.41-14.94a14.85,14.85,0,0,0-6.6-4.35,13.55,13.55,0,0,0-4.4,9.72,84.88,84.88,0,0,0,3.18,30c.59,1.94,1.16,4.15-1.2,5.2-1.82.82-4,.83-5.45-1-12.52-16-30.64-20.23-49.19-23.68-13.21-2.45-26.67-4.08-38.46-11.4-6.46-4-12.39-8.6-16.73-15-2.57-3.78-5.61-5.6-10.65-6-18.43-1.56-35.55-7.05-51.14-17.66a178.53,178.53,0,0,1-28.18-23.7c-4.56-4.71-9.38-8.55-16.25-8.9a2.81,2.81,0,0,1-2.42-1.51,2.65,2.65,0,0,1,.88-2.7c11.36-8.13,17.06-20.69,24.91-31.58,18.51-25.69,39.81-47.41,73.43-51.62,1.16-.15,2.28-.53,3.7-.86-.28-6.75-1.59-11.91-8.3-15.69-8.6-4.84-12.12-14.37-16.57-22.76-3.61-6.78-8.23-12.65-14.74-16.76-4-2.52-8.45-4.25-12.72-.74A14.35,14.35,0,0,0,301,166.07c1.19,9.5,8.69,14.52,18.2,12.56,2.6-.54,4.84-.64,5.75,2.43s-.63,4.92-3.13,6.29c-8.55,4.7-20.37.91-23.88-8.67-2.9-8-4.57-16.24.62-24.6,6.14-9.88,16.38-11.49,25.58-4,8.76,7.14,13.78,16.73,19.06,26.21,3.69,6.63,9.13,11.18,15.42,15.1,3.53-3,1.4-5.67.24-8.19-5.37-11.62-14.66-20-23.47-28.88-5.9-5.93-10.58-12.61-7.82-21.9,3.79-12.77,21.58-17.95,31.54-9,5.95,5.33,11,10.95,7.81,20-2,5.75-6.94,7.88-11.47,10.55-1.63,1-3.56,0-4.56-1.78-1.12-2,.09-3.44,1.48-4.65,5.27-4.62,6.53-10.17,4.1-16.68-2.08-5.6-6.35-7.74-13.54-6.75-5.51.76-9.11,4.31-9.58,9.58-.59,6.66,1,12.17,6.36,17,11.15,10.12,22.2,20.53,27.16,35.46a3.34,3.34,0,0,0,2.76,2.65c4.33.83,8.13,2.95,12.29,5.56,4.42-7,8.56-13.66,13.2-20,12.58-17.3,28.33-30.37,48.08-38.67a81.21,81.21,0,0,1,25.36-6.17c9-.69,17.62-2.23,25.36-6.7,2.52.88,3.62,2.73,2.75,4.75-4.86,11.23.46,20.87,4.66,30.6,4.09,9.47,9.56,18.3,13.3,28,6.06,15.69,4.07,31.72,1.71,47.67-.65,4.36.07,7.69,2.81,10.94,6.74,8,9.38,17.47,9,27.65a121.29,121.29,0,0,1-4.42,29.36c-5.26,17.83-1.55,34.55,7.2,50.47a15.16,15.16,0,0,1,1.84,3.72c.64,3-.77,4.36-3.61,3.21-2-.8-3.64-2.37-5.49-3.53-9.57-6-19.49-10.76-31.31-8.12a13.44,13.44,0,0,0-2.12.88C493.1,360,502.8,368.26,504.73,379.94Zm.85-51.39c-6.25,1.27-8.63,4.21-9.17,11.64,2.12-.14,4.23.27,6.28-1a17.55,17.55,0,0,1,2.79-10.71Zm-45.43-191c-8.71.25-16.58,3.26-24.06,7.47-9.17,5.17-17.88,11-25.12,18.74-4.7,5-9.33,10.12-12.33,16.48,5.49-2.89,12-3,16.26-8.08,8.58-10.14,19.55-17,31.19-23.27a42.8,42.8,0,0,0,14-11.42,1.47,1.47,0,0,0,.48-.12c.06,0,0-.24,0-.38Zm48.21,47.66c-13.2,5.35-26,5.74-37.83-1.22-11.3-6.64-20.5-15.56-22.56-29.94l-12.68,7.11c.58,4.88-2.64,8.58-3.89,12.93a116.25,116.25,0,0,0-4.16,35.67c.43,15.55,3.18,30.63,9.58,44.91.95,2.13,1.88,4.51,5.06,4.12,4.13-.49,8.37-.46,12.4-1.38,24.23-5.53,40.74-21.13,52.62-42,2.51-4.4,5.52-9.38,5.48-14.67C512.34,195.7,510.66,190.69,508.36,185.22ZM317.16,330.9c5.89,2.26,10.68,6.13,16.89,5.93,20.32-.68,36.63-10.6,51.73-23,6.15-5.06,11.06-11.39,15.8-17.76,3.58-4.83,3.14-6.42-1.5-9.38-12.18-7.77-24.47-15.3-37-22.47a198.42,198.42,0,0,0-39.35-17.62c-2.08-.65-4.47-1.56-6.23.19-5.71,5.66-11.63,11.19-15.33,18.5C324,280.1,333.73,303.54,317.16,330.9ZM380.88,360c8.25,6.8,8.47,6.81,16.44,4.31,8.42-2.65,21.47-2.19,28.24,8.15,2.4,3.67,6.07,3.7,10.12,3.6,1.3-6.93,5.38-11.23,11.29-14.57,5.65-3.19,11.25-4.69,17.62-3.65,2.55.42,4.91-.3,5.9-2.91.88-2.31-.42-4-2.08-5.71-4.32-4.34-8.45-8.85-12.94-13.6C433,350.5,407.77,356.48,380.88,360Zm133.75-41.27c.22-.59.3-.77.36-1,1-3,1-5.4-1.46-8.09-5.79-6.42-2.64-19.78,3.9-27.25,5.25-6,5.92-7.65,3.8-15.15-6.57,10.35-11.42,21.65-20.21,30.15s-17.29,17.42-27.4,24.56c3,6.15,7.79,10.84,10,17.1a3.48,3.48,0,0,0,4.27,2.39c2.07-.46,1.92-2.09,2.29-3.64,2.93-12.3,8.3-17.13,20.62-18.71C511.93,319,513.1,318.88,514.63,318.73Zm-178.51-84C359,246.77,379.18,260.89,400,274c1.12-2.79-.94-4.22-2.21-5.86-1.82-2.35-4-4.45-5.72-6.84-7.84-10.68-16.32-20.91-22.92-32.47-1-1.68-1.83-3.63-4.4-3.28C355.17,226.86,345.78,228.9,336.12,234.78Zm-58.31,64.88c8.34,10.41,17.49,18.93,28.77,25.17,6.16-7.48,9.21-15.37,6.83-24.94-2.11-8.47-5.29-15.73-13.66-20.24-6.15-3.31-6.34-3.94-9.21,2.45A55.34,55.34,0,0,1,277.81,299.66ZM375,207.23c2.72,11.3,9.43,20.25,16,29,16.37,22,31.77,44.79,49.12,66.09a74.53,74.53,0,0,0,17.35,15.88C432.06,279.62,403.46,243.45,375,207.23ZM465,304.74c17.8-13.35,45.25-55.69,43.12-65.79-7,9.91-13.84,20.08-22.51,28.81-8.89,8.94-20.19,14.39-31.26,20.39C457,294.41,461.26,299.15,465,304.74Zm-2.71-155.47c-2.05,10.51,5.09,15.82,11.29,21,8.64,7.22,18.72,8.35,29.69,4.45-2.59-9-9.29-15.63-10.94-24.53-3.16,1.07-6.13,3.06-7.18-1.88-.36-1.75-2.27-1.43-3.52-1.36A125.79,125.79,0,0,0,462.25,149.27Zm-40.74,96.14c-5.95-21.75-11-43.37-6.07-66.13-8.61,9.11-14.29,19.85-20.89,30.23C404.22,221.22,411.87,233.9,421.51,245.41Zm79.05-8.35c-8.67,7.75-16.86,15-26.74,19.76s-20.17,7.78-32.1,7.7l8.77,17.41C468.32,277.49,496.94,252,500.56,237.06ZM367.32,334C378.6,338,414,316,423,303.82c-4.58-2.94-7.95-7.54-13.17-9.68C399.05,311.19,384.51,323.86,367.32,334ZM342.41,217.74c-19.73,1.19-60.09,42.68-61.36,56.52,7-4.06,13.17-8.73,17.75-15.44A69.36,69.36,0,0,1,321.18,238C329.91,232.93,337.06,226.59,342.41,217.74ZM438.77,319.8c-4.16-3.82-6.9-8.54-11.93-11.28-13.37,15.53-30.72,24.55-50.34,31.25C385.53,343.08,430.23,328.43,438.77,319.8Zm2,58.59,9.89,3.93c-2.9-7.45,1.56-11.68,5.61-16.63C448,367.85,445,370.34,440.78,378.39Z"/><path d="M258.41,599.64c.76-7.38,1.4-14.51,3.4-21.4,3.94-13.5,7.82-27,10.57-40.82.42-2.09.56-4.59,3.68-4.48a4.89,4.89,0,0,1,4.73,3.9c4.87,19.42,12.89,38,16.16,57.78,1.25,7.56,2.66,15.64-1.47,23.29a17.72,17.72,0,0,1-25.27,6.72C260.79,618.71,258.79,609.47,258.41,599.64Zm7.42-3.58c-1.84,9.49,1.27,19.23,6.9,23.38,4,2.95,6.95,3,12.75-.37C271.87,617.3,268.3,607.58,265.83,596.06Z"/><path d="M539.89,542.58c3.61-9.91,6-20.17,9.05-30.22.64-2.11.85-4.49,3.63-4.81s3.59,1.77,4.49,3.88c6.62,15.47,12.1,31.31,12.28,48.29.1,9.45-3.51,16.56-13.39,17-9.42.48-19-7-19.37-16C536.52,559.39,538.26,547,539.89,542.58Z"/><path d="M309.63,399c.2,7.94-4.54,13.69-12.21,14.32-10.38.84-17-4.34-17.87-14.61a48.12,48.12,0,0,1,.68-13.61c2.94-14.16,6.31-28.23,9.6-42.32.42-1.82.56-4.25,3.25-4.36,2.17-.09,3.06,1.59,3.58,3.37a523.89,523.89,0,0,1,12.74,53.75A32.06,32.06,0,0,1,309.63,399Zm-23.91-7.68c-2,8.69,1.5,15.14,8.4,16.29,5.18.87,7.59-.85,8.27-6.24C294.12,403,289.7,397.69,285.72,391.35Z"/><path d="M497.91,620.8c1.24-9.25,2.21-18.1,3.67-26.87.87-5.26,2.31-10.42,3-15.75.31-2.47,1.17-5.19,4.52-5.44s3.87,2.44,4.69,4.53c5.23,13.31,7.83,27.35,10.26,41.33.93,5.37-.41,11.47-5.45,14.84a12.16,12.16,0,0,1-13.54.5C500,630.87,498.43,625.89,497.91,620.8Z"/><path d="M511.61,421.33c1.22-7,2.34-14.41,3.89-21.77,1.74-8.3,4.83-16.28,6.17-24.7.25-1.59.49-3.35,2.49-3.55s3.25,1.14,3.78,3.06a13.21,13.21,0,0,1,.57,2.31c1.48,16,6.54,31.4,7.6,47.46.49,7.47-4.05,13-11.54,14-6.17.81-11-3.57-12.14-11C512.16,425.37,511.93,423.61,511.61,421.33Zm6.27-.32c-.39,7.18,1.84,11.05,6.42,10.89,3.92-.14,5.57-2.76,5.73-7C525,426.28,521.3,424.29,517.88,421Z"/><path d="M346.93,410.05c-.17-8.45,3-16.28,5.08-24.29,1.37-5.37,2.34-10.83,3.82-16.17.49-1.78.55-3.71,2.95-3.71a4.64,4.64,0,0,1,4.58,3.18,27.54,27.54,0,0,1,1.67,5.68c1.82,12.76,5.23,25.19,7.59,37.82,1.9,10.15-6.76,17.71-16.65,15.23a9.55,9.55,0,0,1-6.47-5.63A23.52,23.52,0,0,1,346.93,410.05Zm18.64,5.38c-6.87,1.64-10.67-1.24-12.5-8.21-.29,11,1.68,15,6.87,15.29C364.45,422.74,366,420.36,365.57,415.43Z"/><path d="M413.55,417.86c-.5-6.58,3.67-13.72,5.26-21.45a24.14,24.14,0,0,0,.85-4.05c.09-2.39.6-4.65,3.25-4.91s3.72,2.27,4.17,4.3c2,9.08,4.15,18.17,5.52,27.36,1,7.06-3.92,12-10.86,11.85C416.17,430.85,413.26,426.8,413.55,417.86Z"/><path d="M210.77,213.37c-1.83-2-1.27-3.31-.25-4.7,4-5.44,8.35-10.42,14-14.26a173.86,173.86,0,0,1,43.78-20.86,44.86,44.86,0,0,1,9.91-1.73c2-.19,3.56.31,3.95,3.68-12.47,5-26.47,6.66-38.46,13.56S220.19,203.1,210.77,213.37Z"/><path d="M237.07,234.21c-3.29-1.33-1.61-3.16-.71-4.72,5.48-9.53,12.9-17.56,20.89-24.88a95.12,95.12,0,0,1,23.32-16.26c.71-.34,1.3-.94,2-1.25,2-.88,4.06-.91,5.1,1.33s-.77,3.39-2.4,4.06c-10.47,4.29-18.94,11.46-27,19.06A250.73,250.73,0,0,0,237.07,234.21Z"/><path d="M374.73,119.07c3.6-5.5,9.15-8.09,14.64-10.55,12.22-5.47,25.21-8,38.47-9.24,2.06-.19,4.93-.85,5.24,2.25.36,3.6-2.82,3-5.06,3.32-11.78,1.52-23.47,3.42-34.72,7.44a46.44,46.44,0,0,0-9,4.46C381.4,118.55,378.37,119.65,374.73,119.07Z"/><path d="M267.12,247.73c5.65-19,16.27-35,30.93-48.88,3.19.84,5.62,2.32,2.18,5.81-9.93,10.07-17.63,21.73-24.9,33.74C273.21,241.91,271.13,245.52,267.12,247.73Z"/><path d="M381.35,133.2a42.88,42.88,0,0,1,18.71-7.28c8.43-1.19,16.95-1.7,25.44-2.4a14.4,14.4,0,0,1,4.11.48c1.94.41,3.37,1.47,2.87,3.71-.44,2-2.14,2.14-3.78,2-10.36-1-20.57.79-30.85,1.49a31.55,31.55,0,0,0-10.32,2.12A7.09,7.09,0,0,1,381.35,133.2Z"/><path d="M394,91.15c-12.56,6.36-24.75,11.58-35.72,19.09C360.46,100,386.57,85.81,394,91.15Z"/><path class="a" d="M429.1,552.76c-17.4,1.84-33.47.84-50.91-1.35,0-9.54-.24-18.43.12-27.29.14-3.57-.67-5.22-4.29-5.46-5.74-.36-11.47-.78-17.18-1.41a236.32,236.32,0,0,1-75.72-21.61c-8.21-3.87-16.85-6.83-25.35-10.07-7.19-2.75-11.79-8.3-16-15,26.74,3.76,53.23,9,80,11.44,27,2.52,54.2,3.41,81.28,5,0,7.13-3.28,11.64-9.38,12.91a53.66,53.66,0,0,1-7.09.54c-1.45.1-2.79.46-3.34,2s-.36,3.06.87,3.81c10.92,6.65,6.6,16.49,5.38,25.61-.3,2.3-1.44,4.52-2.33,6.72-.48,1.21-.7,2.25.38,3.23a2.73,2.73,0,0,0,3.33.21c1.92-1,3.75-2.21,5.57-3.41,5.14-3.35,10.27-4.09,15.43-.09a28.36,28.36,0,0,0,5.15,2.83c2.2,1.08,4.23,2.67,6.54.86,2.15-1.68,1.1-4.1.47-6.07-3.2-10-1.56-19.11,4.7-27.58,3-4.11,1.75-6.87-3.16-8.11-8.07-2-9.64-3.9-10.9-13.16,25.32-1.81,50.71-2.94,75.92-5.63,25-2.65,50.17-4.84,74.39-13.85-3.17,7.68-10.41,13.92-19.17,18.66-29.15,15.79-60.51,24.65-93.18,29.25-5.69.81-11.42,1.5-17.15,1.85-4.47.27-5.72,2.36-5.33,6.55C429.06,533.44,427.36,542.73,429.1,552.76Z"/><path class="a" d="M400.94,578.34c-14.51,38.49-36.2,70.23-75.77,86.26,5.15-8.91,6.41-18.79,8.55-28.4a6.43,6.43,0,0,1,1.15-2.66c18.4-22.15,27.36-47.84,28.79-76.39a13.43,13.43,0,0,1,.75-2.44c26.56,5.14,53.34,5.91,80.52,1.16,1.24,6.64.16,13,.8,19.17,2.43,23.3,8,45.31,25.58,62.4A5.88,5.88,0,0,1,473,640.5c1.56,7.19,4.21,14,7.18,21.82-10.17-3.16-19.55-6.48-27.41-12.32-12.78-9.51-24.66-20.39-31.63-35-4.92-10.34-10.47-20.5-13.71-31.61C406.54,580.31,405.25,577.73,400.94,578.34Z"/><path class="a" d="M319.87,675.89c55.65,21.4,111.21,19.87,167.24,1.84,1,6.75,2.91,13.38,2.52,20.89a171.56,171.56,0,0,1-24.86,6.83,361.79,361.79,0,0,1-62.66,6.92c-23.53.43-46.8-1.47-69.11-9.93a67.85,67.85,0,0,0-9.7-2.85c-4.05-.86-5.64-3-5.07-7.16C318.94,687.17,319.29,681.86,319.87,675.89Zm129.38,16.29c-3.67.09-6,2.07-6,6.1,0,3.32,2,5,5.26,5a6.9,6.9,0,0,0,6.64-6.74C455.18,692.51,452.48,692.3,449.25,692.18Zm-33.8,14.55c3.33-.42,6.48-1.18,6.65-5.3.15-3.66-2.19-5.43-5.57-5.45s-6.76,1-7.1,4.8S412,706.24,415.45,706.73ZM479.7,684c-4.05.46-5.8,3.11-5.59,6.54s3.4,4.85,6.44,4.88c3.66,0,5.15-2.62,5-6C485.3,685.78,482.83,684.37,479.7,684ZM366.39,698.82c.2-3.26-3.19-6.53-6.59-6.56-2.85,0-5,1.16-5.37,4.26-.38,2.88,3,6.5,6.17,6.63S365.59,701.42,366.39,698.82Zm29.73-3.28c-3.24.63-6.31,2-6.23,5.39.1,4.1,3.85,5.29,7.23,5.7,3.13.37,4.78-2,4.81-4.79C402,698.14,399.45,696.32,396.12,695.54Zm-52.71-7.07c-3.23.07-5.61,1.43-5.19,4.93s2.56,5.88,6.3,5.87c3.34,0,5.18-2.44,5.24-5.38C349.83,690,347.09,688.49,343.41,688.47ZM466,689.62c-3.84,0-7.4,3.19-7.22,6.13.2,3.14,2.52,4.34,5.11,4.77s6.74-3.68,6.66-6.38C470.42,691,468.3,689.81,466,689.62Zm-27.08,9.85c-.32-3.2-2.62-4.57-5.63-4.69s-4.89,1.8-5,4.76c-.11,3.59,2.24,5.55,5.54,5.73C437.36,705.47,438.22,702.55,438.87,699.47ZM378,705.83c3.34-.09,5.72-1.16,5.7-4.38,0-3.69-2.28-5.87-6-6-3.16-.11-5.81,1.65-5.73,4.71C372.1,703.68,374.82,705.63,378,705.83Zm-44.19-16.27c.27-3.48-2.27-5.12-5.42-5.28a4.11,4.11,0,0,0-4.51,4.45c.09,3.89,2.74,5.7,6.13,6C333.14,695,333.92,692.61,333.85,689.56Z"/><path class="a" d="M563.49,461.15c-7,3.45-12.48,3.83-18.71,1.86A138.11,138.11,0,0,0,518,457.42c-20.31-2.19-40.49-5.72-60.89-7-13.27-.82-26.6-.87-39.9-1.08-27.42-.42-54.81.35-82,3.72-23.2,2.88-46.62,4.54-69.39,10.28-6.79,1.71-13.3,5.29-20.09,1,27-9.9,99-18.34,157.75-19C457,444.71,510.06,447.38,563.49,461.15Z"/><path class="a" d="M404.17,499.5c3.12,5.09,8,6.56,13.13,7.81-8.71,9.93-16.94,8.22-24.13-.79Z"/><path class="a" d="M483,538.23c-16,4.41-31.14,11.18-47.63,13.56-1.94-3.42-.8-5.24,2.47-5.63,9.79-1.16,19.37-3.46,29.06-5.13C472.34,540.11,477.16,536.48,483,538.23Z"/><path class="a" d="M322.05,536.84c11.54.28,37.86,8.47,49.22,7.69,1.93,1.8,1,3.49,1,5.69C358.28,550.22,333.33,540.94,322.05,536.84Z"/><path class="a" d="M508.36,185.22c2.3,5.47,4,10.48,4,15.54,0,5.29-3,10.27-5.48,14.67-11.88,20.86-28.39,36.46-52.62,42-4,.92-8.27.89-12.4,1.38-3.18.39-4.11-2-5.06-4.12-6.4-14.28-9.15-29.36-9.58-44.91a116.25,116.25,0,0,1,4.16-35.67c1.25-4.35,4.47-8,3.89-12.93L448,154.06c2.06,14.38,11.26,23.3,22.56,29.94C482.38,191,495.16,190.57,508.36,185.22Zm-72.18.63h0c0,3.37-.41,6.8.07,10.11,2,13.47,2.67,27.33,11.56,38.79,4.42,5.7,14.8,10.32,19.75,8.45a18.66,18.66,0,0,0,8.69-28.5A228.5,228.5,0,0,0,460.08,195c-6.65-7.45-10-17.07-16.12-24.89-1.18-1.52-2.06-3.74-4.53-3.14s-3.09,3-3.19,5.19C436.05,176.72,436.18,181.28,436.18,185.85Z"/><path class="a" d="M317.16,330.9c16.57-27.36,6.79-50.8-15-65.62,3.7-7.31,9.62-12.84,15.33-18.5,1.76-1.75,4.15-.84,6.23-.19A198.42,198.42,0,0,1,363,264.21c12.57,7.17,24.86,14.7,37,22.47,4.64,3,5.08,4.55,1.5,9.38-4.74,6.37-9.65,12.7-15.8,17.76-15.1,12.41-31.41,22.33-51.73,23C327.84,337,323.05,333.16,317.16,330.9Zm58.39-30.21c-.7-5.06-1.35-10.5-4.77-14.81-8-10.05-17.62-18.06-29.63-23a25.05,25.05,0,0,1-6.71-3.75c-3.56-3.05-7.81-3.74-12.12-4.3-2.33-.31-5.21-.54-6.24,2.13-1.13,3,1.8,4,3.64,5.32,7.22,5.36,12.34,12,14.35,21.06a46.33,46.33,0,0,0,4.7,12.79c3.57,6.22,5.48,13.56,12.45,17.65,5.19,3,10.49,4.69,15.73,1.92C372.49,312.79,375.18,307.38,375.55,300.69Z"/><path class="a" d="M380.88,360c26.89-3.52,52.16-9.5,74.59-24.38,4.49,4.75,8.62,9.26,12.94,13.6,1.66,1.68,3,3.4,2.08,5.71-1,2.61-3.35,3.33-5.9,2.91-6.37-1-12,.46-17.62,3.65-5.91,3.34-10,7.64-11.29,14.57-4.05.1-7.72.07-10.12-3.6-6.77-10.34-19.82-10.8-28.24-8.15C389.35,366.81,389.13,366.8,380.88,360Zm52.18,0c-.25-3.08-2.1-4.38-4.76-4.48-2.31-.08-4.62.6-4.66,3.43a5.06,5.06,0,0,0,4.68,5.26C431.23,364.6,432.26,362.18,433.06,360Zm7.54-10.14c-2.45.12-4.16,1.18-4.36,3.77-.23,2.86,1.32,4.54,4.08,4.64,2.53.09,3.9-1.49,4-4S443.07,350.28,440.6,349.86Zm12.35-6c-2.51.44-4.48,1.75-4.41,4.58.06,2.63,2.06,3.9,4.47,3.77,2.64-.15,3.57-2.23,3.67-4.58S455.44,344,453,343.86Z"/><path class="a" d="M514.63,318.73c-1.53.15-2.7.25-3.87.4-12.32,1.58-17.69,6.41-20.62,18.71-.37,1.55-.22,3.18-2.29,3.64a3.48,3.48,0,0,1-4.27-2.39c-2.17-6.26-7-10.95-10-17.1,10.11-7.14,18.59-16,27.4-24.56s13.64-19.8,20.21-30.15c2.12,7.5,1.45,9.14-3.8,15.15-6.54,7.47-9.69,20.83-3.9,27.25,2.42,2.69,2.51,5.12,1.46,8.09C514.93,318,514.85,318.14,514.63,318.73Z"/><path class="a" d="M336.12,234.78c9.66-5.88,19.05-7.92,28.67-9.26,2.57-.35,3.44,1.6,4.4,3.28,6.6,11.56,15.08,21.79,22.92,32.47,1.76,2.39,3.9,4.49,5.72,6.84,1.27,1.64,3.33,3.07,2.21,5.86C379.18,260.89,359,246.77,336.12,234.78Z"/><path class="a" d="M277.81,299.66a55.34,55.34,0,0,0,12.73-17.56c2.87-6.39,3.06-5.76,9.21-2.45,8.37,4.51,11.55,11.77,13.66,20.24,2.38,9.57-.67,17.46-6.83,24.94C295.3,318.59,286.15,310.07,277.81,299.66Zm28.5,1c-.09-4.43-3.61-7.42-8.43-7.22-4.14.17-6.12,2.32-6.14,6.42,0,5.07,3.32,9.08,7.53,9C303.07,308.8,306.4,304.93,306.31,300.69Z"/><path class="a" d="M375,207.23c28.44,36.22,57,72.39,82.43,111a74.53,74.53,0,0,1-17.35-15.88c-17.35-21.3-32.75-44.07-49.12-66.09C384.45,227.48,377.74,218.53,375,207.23Z"/><path class="a" d="M465,304.74c-3.7-5.59-7.92-10.33-10.65-16.59,11.07-6,22.37-11.45,31.26-20.39,8.67-8.73,15.55-18.9,22.51-28.81C510.21,249.05,482.76,291.39,465,304.74Zm1.86-8.54c1.78-1,4.89-1,4.6-4.18a4.64,4.64,0,0,0-4.86-4.31c-2.51,0-3.89,1.94-4.05,4.3C462.33,294.65,464.07,295.84,466.82,296.2Z"/><path class="a" d="M462.25,149.27A125.79,125.79,0,0,1,481.59,147c1.25-.07,3.16-.39,3.52,1.36,1.05,4.94,4,2.95,7.18,1.88,1.65,8.9,8.35,15.49,10.94,24.53-11,3.9-21.05,2.77-29.69-4.45C467.34,165.09,460.2,159.78,462.25,149.27ZM489,160a6.37,6.37,0,0,0-6.36-6.14c-3.2-.14-6.4,1.15-6.53,5.33C476,163,479.35,167,482.83,167,487.24,167.1,488.48,164.1,489,160Z"/><path class="a" d="M421.51,245.41c-9.64-11.51-17.29-24.19-27-35.9,6.6-10.38,12.28-21.12,20.89-30.23C410.53,202,415.56,223.66,421.51,245.41Z"/><path class="a" d="M500.56,237.06c-3.62,14.92-32.24,40.43-50.07,44.87l-8.77-17.41c11.93.08,22.31-3,32.1-7.7S491.89,244.81,500.56,237.06ZM450.68,274.2c3.2,2.11,6,2.46,7.82-.83a3.41,3.41,0,0,0-2.08-5.24C451.8,266.9,451.47,270.53,450.68,274.2Z"/><path class="a" d="M367.32,334c17.19-10.12,31.73-22.79,42.5-39.84,5.22,2.14,8.59,6.74,13.17,9.68C414,316,378.6,338,367.32,334Z"/><path class="a" d="M342.41,217.74c-5.35,8.85-12.5,15.19-21.23,20.29a69.36,69.36,0,0,0-22.38,20.79c-4.58,6.71-10.76,11.38-17.75,15.44C282.32,260.42,322.68,218.93,342.41,217.74Z"/><path class="a" d="M438.77,319.8c-8.54,8.63-53.24,23.28-62.27,20,19.62-6.7,37-15.72,50.34-31.25C431.87,311.26,434.61,316,438.77,319.8Z"/><path class="a" d="M460.07,137.48a42.8,42.8,0,0,1-14,11.42c-11.64,6.26-22.61,13.13-31.19,23.27-4.26,5-10.77,5.19-16.26,8.08,3-6.36,7.63-11.49,12.33-16.48,7.24-7.7,15.95-13.57,25.12-18.74,7.48-4.21,15.35-7.22,24.06-7.47Z"/><path class="a" d="M440.78,378.39c4.23-8.05,7.24-10.54,15.5-12.7-4,4.95-8.51,9.18-5.61,16.63Z"/><path class="a" d="M505.48,328.48a17.55,17.55,0,0,0-2.79,10.71c-2.05,1.27-4.16.86-6.28,1,.54-7.43,2.92-10.37,9.17-11.64Z"/><path class="a" d="M505.58,328.55l-.1-.07Z"/><path class="a" d="M460.15,137.56l.43-.58c0,.14,0,.34,0,.38a1.47,1.47,0,0,1-.48.12Z"/><path class="a" d="M265.83,596.06c2.47,11.52,6,21.24,19.65,23-5.8,3.41-8.75,3.32-12.75.37C267.1,615.29,264,605.55,265.83,596.06Z"/><path class="a" d="M559.92,568.26c-5.84,5.59-18.16,4.46-18.16-12.83C549.32,566.27,552.34,565.29,559.92,568.26Z"/><path class="a" d="M285.72,391.35c4,6.34,8.4,11.61,16.67,10-.68,5.39-3.09,7.11-8.27,6.24C287.22,406.49,283.72,400,285.72,391.35Z"/><path class="a" d="M517.88,421c3.42,3.28,7.12,5.27,12.15,3.9-.16,4.23-1.81,6.85-5.73,7C519.72,432.06,517.49,428.19,517.88,421Z"/><path class="a" d="M365.57,415.43c.39,4.93-1.12,7.31-5.63,7.08-5.19-.28-7.16-4.32-6.87-15.29C354.9,414.19,358.7,417.07,365.57,415.43Z"/><path d="M449.25,692.18c3.23.12,5.93.33,5.89,4.36a6.9,6.9,0,0,1-6.64,6.74c-3.26,0-5.29-1.68-5.26-5C443.27,694.25,445.58,692.27,449.25,692.18Z"/><path d="M415.45,706.73c-3.49-.49-6.35-2.26-6-6s3.78-4.82,7.1-4.8,5.72,1.79,5.57,5.45C421.93,705.55,418.78,706.31,415.45,706.73Z"/><path d="M479.7,684c3.13.4,5.6,1.81,5.81,5.41.19,3.39-1.3,6-5,6-3,0-6.21-1.31-6.44-4.88S475.65,684.43,479.7,684Z"/><path d="M366.39,698.82c-.8,2.6-2.54,4.46-5.79,4.33s-6.55-3.75-6.17-6.63c.4-3.1,2.52-4.27,5.37-4.26C363.2,692.29,366.59,695.56,366.39,698.82Z"/><path d="M396.12,695.54c3.33.78,5.84,2.6,5.81,6.3,0,2.84-1.68,5.16-4.81,4.79-3.38-.41-7.13-1.6-7.23-5.7C389.81,697.52,392.88,696.17,396.12,695.54Z"/><path d="M343.41,688.47c3.68,0,6.42,1.55,6.35,5.42-.06,2.94-1.9,5.37-5.24,5.38-3.74,0-5.89-2.44-6.3-5.87S340.18,688.54,343.41,688.47Z"/><path d="M466,689.62c2.35.19,4.47,1.34,4.55,4.52.08,2.7-4.12,6.81-6.66,6.38s-4.91-1.63-5.11-4.77C458.55,692.81,462.11,689.63,466,689.62Z"/><path d="M438.87,699.47c-.65,3.08-1.51,6-5.08,5.8-3.3-.18-5.65-2.14-5.54-5.73.1-3,1.93-4.88,5-4.76S438.55,696.27,438.87,699.47Z"/><path d="M378,705.83c-3.22-.2-5.94-2.15-6-5.66-.08-3.06,2.57-4.82,5.73-4.71,3.73.12,6,2.3,6,6C383.76,704.67,381.38,705.74,378,705.83Z"/><path d="M333.85,689.56c.07,3.05-.71,5.44-3.8,5.17-3.39-.3-6-2.11-6.13-6a4.11,4.11,0,0,1,4.51-4.45C331.58,684.44,334.12,686.08,333.85,689.56Z"/><path d="M436.18,185.85c0-4.57-.13-9.13.06-13.68.1-2.16.6-4.57,3.19-5.19s3.35,1.62,4.53,3.14c6.11,7.82,9.47,17.44,16.12,24.89a228.5,228.5,0,0,1,16.14,19.69,18.66,18.66,0,0,1-8.69,28.5c-4.95,1.87-15.33-2.75-19.75-8.45-8.89-11.46-9.59-25.32-11.56-38.79-.48-3.31-.07-6.74-.07-10.11Zm15.95,44.85c5.41,6.2,11.39,7.7,16.21,4.7a10.51,10.51,0,0,0,3.87-12.54C468.29,231.71,460.32,230.6,452.13,230.7Z"/><path d="M375.55,300.69c-.37,6.69-3.06,12.1-8.6,15-5.24,2.77-10.54,1.12-15.73-1.92-7-4.09-8.88-11.43-12.45-17.65a46.33,46.33,0,0,1-4.7-12.79c-2-9-7.13-15.7-14.35-21.06-1.84-1.37-4.77-2.37-3.64-5.32,1-2.67,3.91-2.44,6.24-2.13,4.31.56,8.56,1.25,12.12,4.3a25.05,25.05,0,0,0,6.71,3.75c12,4.94,21.65,12.95,29.63,23C374.2,290.19,374.85,295.63,375.55,300.69Zm-20.09,8.59c5,1.78,8,1.83,10.56-1.33,3.7-4.51,3.11-9.13.85-14.09C365.48,300.35,363.85,306.54,355.46,309.28Z"/><path d="M433.06,360c-.8,2.18-1.83,4.6-4.74,4.21a5.06,5.06,0,0,1-4.68-5.26c0-2.83,2.35-3.51,4.66-3.43C431,355.62,432.81,356.92,433.06,360Z"/><path d="M440.6,349.86c2.47.42,3.86,1.74,3.74,4.36s-1.49,4.14-4,4c-2.76-.1-4.31-1.78-4.08-4.64C436.44,351,438.15,350,440.6,349.86Z"/><path d="M453,343.86c2.49.14,3.84,1.35,3.73,3.77s-1,4.43-3.67,4.58c-2.41.13-4.41-1.14-4.47-3.77C448.47,345.61,450.44,344.3,453,343.86Z"/><path d="M306.31,300.69c.09,4.24-3.24,8.11-7,8.19-4.21.09-7.55-3.92-7.53-9,0-4.1,2-6.25,6.14-6.42C302.7,293.27,306.22,296.26,306.31,300.69Z"/><path d="M466.82,296.2c-2.75-.36-4.49-1.55-4.31-4.19.16-2.36,1.54-4.28,4.05-4.3a4.64,4.64,0,0,1,4.86,4.31C471.71,295.2,468.6,295.24,466.82,296.2Z"/><path d="M489,160c-.5,4.11-1.74,7.11-6.15,7-3.48-.06-6.86-4-6.74-7.84.13-4.18,3.33-5.47,6.53-5.33A6.37,6.37,0,0,1,489,160Z"/><path d="M450.68,274.2c.79-3.67,1.12-7.3,5.74-6.07a3.41,3.41,0,0,1,2.08,5.24C456.64,276.66,453.88,276.31,450.68,274.2Z"/><path class="a" d="M452.13,230.7c8.19-.1,16.16,1,20.08-7.84a10.51,10.51,0,0,1-3.87,12.54C463.52,238.4,457.54,236.9,452.13,230.7Z"/><path class="a" d="M355.46,309.28c8.39-2.74,10-8.93,11.41-15.42,2.26,5,2.85,9.58-.85,14.09C363.42,311.11,360.45,311.06,355.46,309.28Z"/><path d="M163.9,748.76a24.94,24.94,0,0,1-1.34-12.34c.78-7.48.49-15.08.52-22.63.2-47.9.52-95.8.48-143.69q-.09-140.73-.52-281.45c0-15.1,0-30.21-.07-45.31q-.41-85.36-.84-170.71c0-6.93,0-13.85,0-20.9a23.64,23.64,0,0,1,11.68-1.6c15.45,1.34,31,.94,46.46,1q104.06.39,208.12.38c65.38,0,130.76-.37,196.13-.61,2.58,0,5.15-.39,7.73-.49,3.92-.15,5.83,1.57,5.63,5.72-2.3,47.87-.88,95.77-1,143.65-.27,96,0,192.06.11,288.09.09,73.14.48,146.27.28,219.41,0,12.38-.65,24.8-.42,37.2.08,4.34-1.83,5.57-5.71,5.52-13.72-.18-27.44,0-41.15-.42-37.14-1.26-74.29-.5-111.43-.59q-129.1-.29-258.2-.23Zm6.7-5.57c11.17-1.26,22,.75,33,.7,73-.31,145.92.16,218.88.21q91.53.07,183-.3c8.45,0,17,.87,25.27-.82,1.38-3.29,1.09-6.29,1.09-9.24q.06-94.82.08-189.64,0-127.35,0-254.71,0-93,0-186.1c0-12.72.08-25.45,0-38.17-.06-6.73-.87-7.63-7.39-7.9-10.49-.45-21-.83-31.49-.88q-53.18-.23-106.35-.2Q399.88,56.05,313.1,56c-40.75,0-81.5-.1-122.25.06-7.24,0-14.6-.72-21.68,1C166.24,78.16,167.4,731.51,170.6,743.19Z"/></svg>