<svg xmlns="http://www.w3.org/2000/svg" viewBox="0 0 800 800"><defs><style>.a{fill:#a3786f}.b{fill:#fff}.c{fill:#e83131}.d{fill:#fca14f}</style></defs><path d="M563 265.14c-.36 5.64-.37 10.27-1 14.8-1.06 7.38-3.66 14.34-6.71 21.11-.85 1.9-2.11 3.61-3.11 5.44-2.15 3.95-4.6 7.78-6.28 11.92a34.66 34.66 0 0 0-2.13 9.92 38.73 38.73 0 0 0 .45 9.24c.59 3.93 1.72 7.77 2.43 11.69.83 4.62 1.62 9.24.6 14-.85 4-.73 8.2-2 12-1.72 5.36-3 11-6.45 15.68a4.87 4.87 0 0 0-.75 5.44c2.25 5.25 2.32 10.88 2.31 16.53 0 5.22-1.6 10.06-2.73 15-1.23 5.35-2.93 10.64-3.58 16.06a44.75 44.75 0 0 0 1.11 17.29 61.27 61.27 0 0 1 2.27 19.27 31.65 31.65 0 0 1-4.06 13.35 3.63 3.63 0 0 0-.38 2 51.44 51.44 0 0 0 5.25 17.12 10.54 10.54 0 0 0 1.6 2.18c1.59 1.8 3.11 3.68 4.86 5.31a68.18 68.18 0 0 0 6.69 5.53 37.06 37.06 0 0 0 13.82 6.3c2.14.46 2.35 1 2.54 3.1.76 8.57 2.78 16.77 7.06 24.33 1.86 3.3 3.56 6.69 5.3 10.06 1.45 2.8 4.11 4.38 6.48 6.15 2 1.51 4.53.53 6-2 1.12-1.9 1.59-4.06.54-6a25 25 0 0 0-4.07-5.87c-2.71-2.76-5.13-5.51-6-9.48a8.55 8.55 0 0 1 .07-4.71 33 33 0 0 1 2.42-5.81c3.12-5.25 1.83-9.69-2.56-13.61-.37-.33-.95-.63-1-1a3.81 3.81 0 0 1 0-2.5 2.72 2.72 0 0 1 2.28-.83c6.19 1 10.3 4.85 13.39 10a8.53 8.53 0 0 1 .7 6.15c-.91 4.88.65 8.78 4.09 12.22 2.09 2.1 4.37 4.18 4.86 7.41.06.38.58.69.89 1 .33-.35.86-.64.95-1a46.42 46.42 0 0 0 1.37-6.73c.42-5 2.69-8.9 7.28-10.89a22 22 0 0 0 7.29-5.66c2-2.18 4-4.52 4.84-7.52a7.65 7.65 0 0 1 .87-1.91c.78-1.26 2.13-1.27 2.79.09a11.14 11.14 0 0 1 1.23 4 28.33 28.33 0 0 1-6.72 20.86c-2.63 3.11-4.47 6.55-4.58 10.84 0 1.68-1.11 3.34-1.7 5-.17.45-.33.91-.5 1.36a6.65 6.65 0 0 0 1.47.07 22.42 22.42 0 0 0 10.44-4.91c1.61-1.34 3.1-2.81 4.71-4.15a5.79 5.79 0 0 1 2.08-1.1c4.49-1.21 8.84-1.37 12.87 1.55a28.73 28.73 0 0 0 4.44 2.47 8.56 8.56 0 0 0 6.15.65c1.06-.29 2.1-.28 2.56.86a2.33 2.33 0 0 1-1.16 3.07c-4.41 2.62-8.83 5.13-14.24 5a20.65 20.65 0 0 0-3.87.51 10 10 0 0 0-7.44 5.11c-2.69 4.9-7.06 6-12.09 6.31a60.16 60.16 0 0 0-7 1c-1.27.22-1.16 1-.36 1.63a24.11 24.11 0 0 0 4.52 3.42c3.5 1.66 7 3.3 11.07 3.58a21.18 21.18 0 0 1 7.12 2.21c3.91 1.8 5.85 5.26 7 9.24a46.17 46.17 0 0 0 2 5.64 7.18 7.18 0 0 0 4.42 4.23c.48.15.91.42 1.38.59 1.1.38 2.16.87 1.95 2.26a2.48 2.48 0 0 1-2.46 2.25 28.33 28.33 0 0 1-4.12 0c-1.79-.14-3.57-.45-5.36-.69a8 8 0 0 1-4.76-2.28c-2.5-2.45-5.22-4.67-7.78-7.06a8 8 0 0 0-6.41-1.94c-3.86.27-7.58.24-10.92-2.18-1.25-.9-1.86-.53-2.24 1.14a63.9 63.9 0 0 0-1.45 7.34c-.26 2.24 1.28 3.93 2.54 5.58 1.52 2 3.1 3.81 3.82 6.36 1.42 5 .88 9.93-.45 14.8a65.71 65.71 0 0 1-2.75 7.3c-.76 1.92-1.92 2.46-3.76 1.87-1.35-.42-1.9-1.58-1.7-3.38a52 52 0 0 0 .61-6.56c-.08-4-2.8-6.73-5.38-9.4-1.25-1.3-2.84-2.29-3.94-3.69a12.14 12.14 0 0 1-2.74-8.06c.05-1.7.21-3.4.27-5.1a4.86 4.86 0 0 0-.19-2.06 30.07 30.07 0 0 0-1.8-3.1 17.37 17.37 0 0 1-1.48 2.72c-1.28 1.63-2.65 3.2-4.08 4.7a9.28 9.28 0 0 1-2.18 1.58c-3.7 2.13-4.65 5.71-3.9 9.36 1 5-1.64 8-4.61 11-4 4-9.25 5.42-14.64 6.35a3.19 3.19 0 0 1-3.66-2c-.58-1.53.35-2.46 1.41-3.3a9.63 9.63 0 0 1 1-.68c5.54-3.42 7.8-8.73 6.52-15.11-.55-2.72-1.28-5.36-.24-8.24a11.48 11.48 0 0 1 4.17-6c1.15-.8 2.39-1.46 3.57-2.23 3.67-2.41 5.51-6 6.28-10.18.33-1.76-.82-3.09-2.08-4.1a12.39 12.39 0 0 0-10.14-2.75 31.07 31.07 0 0 0-14.31 6.34c-1.08.87-2.38 1.47-3.47 2.34a1.59 1.59 0 0 0-.41 1.46c2.52 4.89 1.91 9.91.78 15-.6 2.64-1.33 5.25-1.86 7.9-1.39 6.86-2.56 13.76-4.07 20.59-1.28 5.79-.66 11.54-.19 17.31.19 2.3.32 4.6.48 6.89.1 1.47-.63 2-2 2.38-9.83 2.91-20 4-30.09 5.29-6.14.8-12.33 1.19-18.51 1.69-5.28.42-10.57.89-15.86 1a131.46 131.46 0 0 1-21.81-.88c-5.45-.75-11-1-16.41-1.7s-10.84-1.86-16.25-2.79a22.2 22.2 0 0 0-4.16-.6 3.39 3.39 0 0 1-3.29-2.18c-1.84-3.86-3.48-7.82-5.26-11.71-2.62-5.73-5.34-11.42-7.92-17.17-1-2.17-1.71-4.45-2.5-6.71-.93-2.69-1.18-2.74-3.82-2-6.61 2-13.27 3.78-19.89 5.72-2.39.7-4.69 1.71-7.1 2.37-7.14 2-14.27 4-21.48 5.65-5.91 1.43-11.91 2.66-17.91 3.49-7.2 1-14.47 1.62-21.73 2.13a193.35 193.35 0 0 1-27.86-.39c-4.29-.31-8.55-1-12.83-1.36-3.47-.33-7-.41-10.42-.79-2.57-.29-5.11-.86-7.65-1.37-5.57-1.12-11.15-2.2-16.7-3.43-6.14-1.36-12.25-2.87-18.36-4.32-4-.94-8-1.83-11.93-2.84-3.09-.8-6.16-1.66-9.19-2.66-4.75-1.56-9.47-3.23-14.18-4.91-4.89-1.75-9.76-3.56-14.64-5.36-4.11-1.52-8.27-2.94-12.33-4.6-4.62-1.89-9.17-4-13.75-6-.92-.4-1.89-.69-2.76-1.17-1.37-.75-3.38-1.34-3.85-2.5-1-2.5-2.05-5.3-.39-8.07.61-1 1.07-2.13 1.71-3.12 2-3 4.83-3.75 8.13-2.89 1.54.41 2.06.21 2.3-1.51a13.63 13.63 0 0 1 2.4-6.64c1.19-1.57 1.7-3.64 2.84-5.25 4.16-5.87 8.68-11.42 14.57-15.72 2.26-1.65 4.38-3.48 6.59-5.21a21.47 21.47 0 0 1 6.22-3.87c2.17-.74 4.14-2.06 6.31-2.76a50.59 50.59 0 0 1 8.1-1.94c3.72-.55 7.49-.91 11.25-1.11 2.87-.15 5.78.18 8.66.08a43.19 43.19 0 0 0 5.26-.82c-.83-1.4-1.7-2.8-2.51-4.23-1.18-2.08-2.4-4.15-3.47-6.29-.51-1-1.06-1.64-2.25-1.59-4.55.22-7.67-2.47-10.53-5.43-1.79-1.85-3.18-4.06-4.84-6a2.57 2.57 0 0 0-1.76-.79c-5.31 0-9.47-2.24-13.2-6-3.39-3.39-7.24-6.45-11.84-8.06a14.43 14.43 0 0 0-12.75 1.14 12.09 12.09 0 0 0-2.93 3.32c-.91 1.27-1.83 2.31-3.56 2.41a2.9 2.9 0 0 1-3.31-3.44 3.31 3.31 0 0 1 .27-.86c2.5-5.81 5-11.73 9.59-16.17 4.43-4.27 9.7-7.38 16.19-7.6a9.83 9.83 0 0 0 2.1-.19c3.76-.94 7.36-.16 10.93.94 5.23 1.62 10.66 2.52 15.68 4.83 1.55.71 2.06.24 1.69-1.45-1.83-8.14-1.47-16.31-.55-24.52.28-2.46 0-5 .35-7.46.75-4.83 1.76-9.61 2.7-14.41a49.14 49.14 0 0 1 1.29-5.55 146.57 146.57 0 0 1 8.23-20.57 86 86 0 0 1 4.46-7.79c2.4-3.8 4.94-7.51 7.4-11.27a15.76 15.76 0 0 0 .95-1.88 1.52 1.52 0 0 0 .24-.84c-.24-1.18-4.5-2.85-5.6-2.25-6 3.25-12.3 5.41-19.17 4.16s-13.28-3.74-18.13-9.19c-1.52-1.7-3.48-3.07-4.78-4.91a33.41 33.41 0 0 1-6.16-18.84c-.11-4.6-.16-9.26 1.06-13.66 2.23-8.12 6.72-14.44 15.36-16.94 5-1.44 10-2.7 15.25-2.46a27.27 27.27 0 0 1 9.11 1.53c2.31.93 4.79 1.44 7.18 2.16a14.22 14.22 0 0 0 8.37 0c9.67-3.25 19.29-2.24 28.6 1 4.12 1.43 8.36 3.37 11.55 6.77a2.35 2.35 0 0 0 3.43.33 43 43 0 0 1 15.59-6.21c7.24-1.39 13.68.71 19.29 5.42.54.45 1 1.05 1.5 1.48 1.44 1.11 2.68 1.83 4.75.62s4.54-1.46 6.87-2.05a41.74 41.74 0 0 1 6.74-1.44 72.3 72.3 0 0 1 9.54-.08c4.49.22 9 .7 13.45 1 1.56.11 1.68-.2 1.16-1.68-1.8-5.2-3.16-10.44-2.84-16.08a94.14 94.14 0 0 1 3.76-20.61 173.18 173.18 0 0 0 4.23-20.86c.77-5 1.27-9.91 1.56-14.89a30 30 0 0 0-.41-7.45c-1.87-9.42-4.25-18.76-5.83-28.23a105.52 105.52 0 0 1-1.34-28.13c.46-4.59 1.13-9.12 1.9-13.66a7.18 7.18 0 0 1 .26-1.47c2.24-5.77 4.4-11.58 6.81-17.29s6.39-10.36 10.6-14.82c1.37-1.45 2.71-2.95 4.15-4.34a100.87 100.87 0 0 1 19-14.55c1.21-.71 2.43-1.39 3.65-2.07 1.48-.83 3.13-1.52 2.91-3.69 2.2-2.71 3.27-6.14 5.82-8.68a22.54 22.54 0 0 1 14.84-6.82 1.31 1.31 0 0 0 .57-.18c4.46-2.5 9.51-2.49 14.29-2.51A14.85 14.85 0 0 1 451 125.4a18.48 18.48 0 0 1 4.47 6.28 1.93 1.93 0 0 0 2.29 1.36c6.94-.36 13.43 1.64 19.9 3.82a82.17 82.17 0 0 1 12.94 6.19 4.05 4.05 0 0 0 2.52.17 10.6 10.6 0 0 0 2.79-1.1 31.46 31.46 0 0 1 12.64-3.3 13.81 13.81 0 0 1 11.91 5.1 17 17 0 0 1 3.82 9c.46 3.21.5 3.06 3.62 3.05a25.31 25.31 0 0 1 14.28 3.77 41.6 41.6 0 0 1 11.69 11.51 9.09 9.09 0 0 1 1.22 2.73c1.09 3.91 3 7.51 3.34 11.73.33 4.55 1.44 9 2 13.59a35.55 35.55 0 0 1 .38 7.49c-.39 4.68-.2 9.41-1.33 14a56.92 56.92 0 0 0-1.11 6.5 19.29 19.29 0 0 0-.23 5c.78 5.56 1.83 11.07 2.64 16.62.88 5.74 1.57 11.49 2.22 16.23zm24.74 349l1.21-.62a9.66 9.66 0 0 0 4.73-7.28 5.81 5.81 0 0 1 .21-1.19 4.52 4.52 0 0 1 3-3.08c1.64-.43 2.57.71 3.47 1.84q3.43 4.31 6.92 8.55a7.24 7.24 0 0 0 1.07.91c.3-.38.78-.72.86-1.14.67-3.79 2.28-7.47.73-11.49-.74-1.89.43-3.14 2.47-3a11 11 0 0 1 4.12.68c4.9 2.35 10.1 1 15.14 1.45.21 0 .44-.21.66-.32-.21-.18-.39-.47-.63-.53-1.93-.5-3.88-.91-5.81-1.42-3.26-.88-5.9-2.92-8.53-4.9a41.31 41.31 0 0 1-4.92-4.33 2.24 2.24 0 0 1 .06-3.48c2.89-2.28 5.62-4.91 9.68-5a9.54 9.54 0 0 0 2.57-.66c3.38-1.11 5.28-3.82 7.07-6.63a3.8 3.8 0 0 0 .3-.84 4.11 4.11 0 0 0-1 .28c-4.77 2.7-10.07 3.27-15.37 3.63-3.44.23-4.9-2.16-3.29-5a3.27 3.27 0 0 1 1-1 5.65 5.65 0 0 0 2.4-5.21 40.48 40.48 0 0 0-.54-4.77c0-.22-.23-.41-.35-.62a6 6 0 0 0-.45.71 26 26 0 0 1-1.68 3.76c-1 1.48-2.37 2.68-3.36 4.16-1.87 2.82-2.75 2.93-4.75.3-.36-.47-.59-1-1-1.51a4.83 4.83 0 0 0-1.39-1.42c-2.23-1.11-4.51-2.1-6.78-3.13a1.21 1.21 0 0 0-.16-.16h-.13l.33.08c-.37 1.83 1 3 1.87 4.21a7.83 7.83 0 0 1 1.14 6c-.12.79-.46 1.54-.59 2.33-.75 4.51-7.5 9.43-13.27 6a24.72 24.72 0 0 1-5.65-4.41 81.56 81.56 0 0 1-8-9.72 93.89 93.89 0 0 1-9.52-18.68 35.17 35.17 0 0 1-2.61-9.84 3.21 3.21 0 0 0-1.25-2.17c-2.2-1.37-4.53-2.52-6.82-3.74a5.78 5.78 0 0 0-.83-.28 3.47 3.47 0 0 0 .11 1c1.53 3.37 3.4 6.63 4.56 10.13a95.61 95.61 0 0 0 7 16.53c2.9 5.22 5.07 10.83 9.62 15.1 2.43 2.29.94 5.42-2.23 6.58-4.5 1.64-8.87 3.62-13.25 5.56-.63.28-1 1.12-1.46 1.75 0 .06.56.76.72.71.66-.21 1.24-.65 1.89-.91 2.09-.84 4-2.35 6.4-2.17l1.32-.5a.69.69 0 0 1 .46-.13l3.2-.35 1.69-.17 5.06-.08c2.71.59 5.44 1.15 8.15 1.79a3 3 0 0 1 1.54.83c1.79 2.15 3.46 4.38 5.24 6.53a6.83 6.83 0 0 1 1.3 4.5c.08 4.08-2.15 7.17-4.26 10.33-.88 1.32-1.74 2.66-2.6 4l-.26.51-.25 1.33-.42.46-1.14 5c.49 1 .71.34 1-.15l3.53-5zM257.29 485.2a.42.42 0 0 1-.33-.14l-1.54-.43-.89-.23-.92-.37h-1.22l-.9-.09a6.27 6.27 0 0 0-5.16-.07l-1.49.21-1.54.46-.83.16-1 .34-.79.2a.35.35 0 0 0-.48.21 39 39 0 0 0-5.76 3c-4.79 2.86-7.92 7-10.37 11.77-.61 1.19-.14 1.5.92 1.3 1.67-.32 3.3-.84 5-1.14a1.89 1.89 0 0 1 1.58.43 2 2 0 0 1-.07 1.67 3.63 3.63 0 0 1-1.16 1.34c-3.86 2.89-8 4.74-13 4.3-8.52-.75-16.75-3.05-25-5a34.67 34.67 0 0 0-12.46-1c-3.29.4-5.73 2.66-8.1 4.8-.53.48-.35 1 .46 1.29a15.4 15.4 0 0 1 4.11 1.59c3.59 2.54 7.14 5.16 10.48 8a18.39 18.39 0 0 0 8.67 4.45c2.19.4 2.9 0 3.62-2 .57-1.6.92-3.29 1.61-4.84 2.29-5.16 6.26-6.14 11.14-4.39 2.28.82 2.35 2.65.42 4.24-.91.76-2.09 1.36-2.66 2.32-1.21 2.06-.05 6.68 1.93 7.95a15.71 15.71 0 0 0 8.74 2.82 52.29 52.29 0 0 0 10.66-1.58c5.45-1.27 10.9-2.64 16.23-4.36 7.18-2.3 14-.45 20.94 1.1 1.06.24 2.42.43 3 1.15 2.27 2.63 4.36 1.73 7 .5 6.42-3 13-5.68 19.51-8.55.52-.22 1.2-1 1.13-1.41a10 10 0 0 0-1.2-3.65c-.89-1.46-2.15-1.55-3.7-.54a31.16 31.16 0 0 1-11.5 5 49.19 49.19 0 0 1-8.34.38 3.77 3.77 0 0 1-1.9-.82c-1-.73-1.77-3-1-3.75s1.85-1.31 2.51-1.08c2.94 1 5.75-.12 8.61-.18s4.94-1.54 7.18-2.85a6 6 0 0 0 3-4c.23-1.08.59-2.13.89-3.19 2.35-8.22-.16-15.13-5.79-21.16a6.82 6.82 0 0 0-5.06-2.35c-5.2.08-10.17 1-14.22 4.72-1.16 1.06-3.2 1.87-3.42 3-.24 1.33 1.22 2.92 1.79 4.45a10.13 10.13 0 0 1 .79 3.43c0 .62-.82 1.23-1.27 1.85a9.42 9.42 0 0 1-1.45-1.28c-1.56-2.07-3.06-4.18-4.58-6.28l-.88-.5-.95-.68zm291.87-311.51l-.38-.48c-3-5.7-7.82-9-13.92-11-2.89-.92-5.74-.36-8.56-.88-1.38-.26-1.8.38-1.84 1.58-.05 1.6-.17 3.2-.18 4.8 0 1.85.18 1.95 2.07 1.89 5.1-.14 10.16-.21 15 1.88a32.92 32.92 0 0 1 7.26 4.63c.49.47 1 1 1.5 1.38.17.14.62.21.73.1a.9.9 0 0 0 .18-.77 8.33 8.33 0 0 0-.76-1.23zM542.65 302c-1.15 3.07-1.9 6.26-2.85 9.38a18.67 18.67 0 0 0-.69 6.77 3.29 3.29 0 0 0 .42 1c.22-.26.56-.47.67-.77a79 79 0 0 1 3.8-9.09 117.53 117.53 0 0 0 5.16-12.49 61.84 61.84 0 0 0 3.56-26.92c-.61-7.18-1.49-14.34-2.22-21.52-.23-2.28-.32-4.57-.56-6.85-.65-6.15-1.53-12.27-1.47-18.49 0-5.36 1.22-10.64.77-16a42.78 42.78 0 0 0-2.46-12c-1.46-3.73-4.47-6.29-7.82-8.38-3-1.89-6.47-2-9.86-2.13-3.63-.15-3.42-.33-3.14 3.39a3.19 3.19 0 0 0 .15.59 95.92 95.92 0 0 0 5.11 14.68c2.94 6.78 6.43 13.36 8.1 20.65.63 2.73 1.2 5.48 1.93 8.18a75.35 75.35 0 0 1 2.36 19.63c0 6.18-.34 12.41-2.82 18.28-1.4 3.29-2.67 6.65-3.78 10.05-1 3-3.27 5-4.87 7.52a20.31 20.31 0 0 1-6.95 7.2c-1.35.77-2.35 2.12-3.55 3.17a39.48 39.48 0 0 1-4.84 4 3.32 3.32 0 0 1-4.78-.92c-2.52-3.51-6.11-5.5-9.94-7-2.18-.83-4.79-1.53-7-1.11-7.6 1.46-15 3.49-20.51 9.67-1.67 1.89-3.75 3.17-6.28 1.11-.21-.17-.58-.12-.86-.22-3.09-1.15-6.15-2.4-9.28-3.42-3.74-1.21-5.6-4.08-6.84-7.44-2.93-7.88-3.94-16.16-4.28-24.46-.29-7.12 1.15-14.16 2.71-21.09 1.23-5.45 2.84-10.82 4.44-16.18a48.73 48.73 0 0 1 3.09-8.11c2.81-5.53 5.9-10.92 8.85-16.38 1.34-2.47 2.62-5 3.9-7.46.11-.22 0-.56 0-.84a1.88 1.88 0 0 0-.79.06 38 38 0 0 0-4.77 2.53c-3.28 2.28-6.54 4.6-9.61 7.16s-5.76 5.51-8.79 8.1a112.25 112.25 0 0 0-13.62 14.3c-3.55 4.32-6.92 8.81-10.14 13.38-2.93 4.16-5.69 8.46-8.29 12.84-2.18 3.7-4 7.62-6 11.4-3.69 6.88-7.53 13.68-11.11 20.61-3.22 6.22-6.16 12.57-9.24 18.86-.48 1-1 2-1.52 2.94a5 5 0 0 1-5.57 2.48 8.28 8.28 0 0 1-6.15-5.13c-.67-1.45-1.22-2.95-2-4.94-.67 1.78-1.19 3.06-1.64 4.36-.73 2.08-1.3 4.22-2.15 6.25-2 4.79-3.86 9.55-4.61 14.81-.66 4.65.27 8.84 1.58 13.18 1.71 5.67 5 10.67 6.53 16.41a30.26 30.26 0 0 1-.74 19 3.05 3.05 0 0 1-2.13 1.78C368 378.31 368 377 368 376a4 4 0 0 1 .07-1.2c.91-3 .08-6-.18-9a11.74 11.74 0 0 0-1.2-3.37c-.13-.29-.59-.45-.89-.67a3 3 0 0 0-.47.75c-.45 1.84-1 3.67-1.27 5.54-.93 6.31-1.84 12.62-2.59 19-.5 4.25-1.05 8.51.33 12.78 2 6 3.08 12.25 1.92 18.64-1 5.5-1.58 11.15-3.22 16.46-1.82 5.9-4.71 11.47-7 17.24-2.2 5.58-4.34 11.2-6.27 16.87-1.49 4.36.16 8.28 2.48 11.93a3.9 3.9 0 0 0 1.62 1.2 43.54 43.54 0 0 1 14 10.09 9.13 9.13 0 0 1 1.67 3.1c2.4 7-.24 13.64-6.82 17.74-.85.53-2.43 1.11-2.94.71-1.24-.94.29-1.86.67-2.79a10.05 10.05 0 0 1 .82-1.26 10.26 10.26 0 0 0 1-8.38 5.6 5.6 0 0 0-1.84-3 26 26 0 0 0-5.32-2.74c-3.14-1.25-6.34-2.4-9.57-3.43-1.14-.37-2.38-.9-3.55.45a192.56 192.56 0 0 1-17.66 17.56 17.88 17.88 0 0 1-2.6 2c-4.79 2.88-9.55 5.8-14.41 8.53-7.32 4.1-15.07 7.4-22.13 12q-3.89 2.52-7.75 5.09a16.65 16.65 0 0 0-5.28 6.45c-1.08 2-.45 3.5 1.7 4.08 4.71 1.28 9.45 2.46 14.12 3.86 3.74 1.12 7.48 2.33 10.16 5.49 4.54 5.33 5.69 11.58 4.88 18.29a16 16 0 0 1-1.78 4.75c-.24.51-1 .76-1.59 1.13a7.36 7.36 0 0 1-.88-1.46 15.61 15.61 0 0 1-.52-2.64 16.54 16.54 0 0 0-6.85-11.83c-4.49-3.18-9.39-4.67-15-3.34-7.56 1.8-14.38.15-19.9-5.42-1.45-1.46-2.38-1.13-3.83-.5-8.46 3.65-17.1 6.27-26.51 4.53-2.27-.42-2.86.16-2.1 2.42 1.73 5.11 3.52 10.24 5.74 15.16a102.05 102.05 0 0 0 6.14 10.66 34.53 34.53 0 0 0 2.8 3.89c1.2 1.45 2.49 2.84 3.81 4.18 4.2 4.28 8.31 8.65 12.69 12.72 3.06 2.85 6.65 5.14 9.76 7.93a8.37 8.37 0 0 0 6 2.25c4.39 0 8.79-.13 13.19-.27 3.18-.09 6.36-.24 9.54-.43 6.59-.41 13.19-.68 19.76-1.36 5-.52 9.87-1.58 14.8-2.42 5.12-.86 10.24-1.67 15.33-2.64q12.79-2.44 25.56-5.09c6.53-1.35 13.05-2.82 19.56-4.28 1.36-.31 2.66-.87 4-1.19 4-.93 8-1.75 12-2.72 1.55-.37 3-1.16 4.55-1.51 3.47-.79 7-1.37 10.46-2.13 2.34-.51 4.62-1.32 7-1.75 7.27-1.33 14.56-2.53 21.84-3.8 3.93-.69 7.83-1.58 11.79-2.06 5.46-.66 10.94-1.07 16.43-1.48 7.47-.56 14.94-1.35 22.42-1.42 11.6-.11 23.21.43 34.56 3.2 1.8.44 2.59 0 3.19-1.55 2-5 4.34-9.92 5.79-15.08a44.21 44.21 0 0 0 1.42-12.46c-.11-8.59-2.5-16.8-5.52-24.79-1.87-4.95-4-9.81-6-14.7-.72-1.74-1.49-3.46-2.29-5.17-.14-.29-.53-.46-.8-.68a4.41 4.41 0 0 0-.21.87 23.69 23.69 0 0 1-3.41 11.38c-.83 1.36-2.23 2.49-2.67 3.94-1 3.21-3.5 5.34-5 8.13-.46.84-1.24 2.09-2.22 1.39-.64-.45-.72-2-.69-3a6 6 0 0 1 .94-2.18c3.66-7.54 4.7-15.67 5.31-23.88.19-2.59-.11-5.24.24-7.8a38.4 38.4 0 0 1 2-8.42c1.2-3.15 3.34-6 4.35-9.16a33.79 33.79 0 0 0 1.66-10.3c0-4-1-7.94-1.48-11.92a90 90 0 0 1-1.11-9.21 117.13 117.13 0 0 1 1.84-21.22c.45-2.87.67-5.79 1.35-8.6a22.23 22.23 0 0 0-.33-11.84c-.24-.81-.54-.68-1-.31a3.25 3.25 0 0 0-.94 1.13c-1 2.71-2.17 5.39-3 8.17a40.94 40.94 0 0 0-1.86 14.79 1.81 1.81 0 0 1-1.38 2 1.71 1.71 0 0 1-2.34-.72 7.3 7.3 0 0 1-1.08-3c-.13-3.59-.15-7.18 0-10.76.25-6.64 1.17-13.2 3.8-19.36 1.17-2.73 2.82-5.26 4.23-7.89 2.22-4.13 4.57-8.2 6.59-12.42a83.18 83.18 0 0 0 3.51-9.26A51.88 51.88 0 0 0 536.8 359c.06-6.38-1.79-12.47-2.36-18.75-.33-3.67-1.66-7.24-2-10.91-.69-7.44.79-14.76 2.16-22 .74-3.91 4.09-6.49 6.29-9.65.63-.91 2.08-1.76 3.18-.85 1.33 1.1-.09 2.08-.66 3-.11.17-.19.35-.29.53zM356.59 412.24a13.63 13.63 0 0 0 0-1.81q-1.14-8.61-2.34-17.21c-.3-2.13-.41-2.19-2.42-1.22s-4.06 2.16-6.18 3c-2.32.94-4.74 1.6-7.11 2.41a18.88 18.88 0 0 1-2.51 1q-5.43 1.05-10.9 1.91a29.81 29.81 0 0 1-23-5.38c-2.75-2-5.56-3.92-8.27-6a2.08 2.08 0 0 0-3.14.14c-1.9 1.78-4 3.35-5.86 5.16a54.72 54.72 0 0 1-14 9.5 47.34 47.34 0 0 1-6 2 49.33 49.33 0 0 1-13 2.28 32.11 32.11 0 0 1-12.93-2.17c-1.6-.57-2.66-.27-3.86 1.17a88 88 0 0 0-10 14.93c-2.25 4.23-4.25 8.6-6.07 13-1.48 3.59-2.11 7.57-3.86 11-2.08 4.07-2.33 8.48-3.21 12.73a62.8 62.8 0 0 0-1.51 17.32 17.62 17.62 0 0 1 0 3.91c-.59 3.88.2 7.72.22 11.58 0 2.23.17 4.46.29 6.69 0 .85-.18 1.86 1.1 2.09a2 2 0 0 0 2.45-1.21c.8-1.71 1.75-3.36 2.54-5.08a25.2 25.2 0 0 1 10.14-11.14 22.29 22.29 0 0 1 5-2.76c6.79-2 13.71-2.89 20.7-1.06a2.11 2.11 0 0 0 2.76-1.06c2-3.53 5.08-6.1 8.14-8.58 2.21-1.79 4.8-3.58 7.49-4.18 3.32-.74 6.79-1.42 10.39-.59a56.47 56.47 0 0 1 7.68 2.39 17 17 0 0 1 9.33 8.45c4 8.31 6.19 17 2.09 26.06a2 2 0 0 0 .55 2.65c2.29 2 4.07 4.41 4 7.72 0 .74.46 1.09 1.21.88a5.3 5.3 0 0 0 1.41-.52c4.5-2.77 9-5.51 13.47-8.4a26.32 26.32 0 0 0 5.6-4.48c2.8-3.25 5.2-6.85 7.83-10.25a5.23 5.23 0 0 0 .95-5 20.38 20.38 0 0 1-.1-11.25 89.83 89.83 0 0 1 5.16-13.39c2.19-4.57 5-8.82 6.59-13.75 1.52-4.71 4.28-9 5.83-13.72a61.27 61.27 0 0 0 3.35-19.76zm-102.86-16.8c3.56.5 7-.61 10.57-1.27a35.28 35.28 0 0 0 14.39-6.35c5.63-4.09 11.92-6.39 18.51-8 3.16-.78 6.46-1 9.67-1.56a14.55 14.55 0 0 1 9.6 1.54c1.15.59 2.33 1.42 2 2.6-.42 1.43-1.91 1-3.12.75a31 31 0 0 0-9-.22 3 3 0 0 0-1 .44c.14.24.22.58.43.72a32.71 32.71 0 0 0 5.26 3.43 51.15 51.15 0 0 0 14.11 3.86c4.74.58 9.32.82 13.91-.57a21.43 21.43 0 0 1 4.33-1.23c3.38-.24 5.94-2.24 8.77-3.68a2.55 2.55 0 0 0 1.25-1.53c.5-2.66.86-5.34 1.23-8 .14-1.05 0-1.71-1.45-1.45a27.81 27.81 0 0 1-12.18 0c-3.57-.91-7.3-1.35-10.77-2.55A108.18 108.18 0 0 1 307.46 361a22.75 22.75 0 0 0-16.36-3.47 11.06 11.06 0 0 0-5.86 2.84c-.88.82-.93 1.37-.37 2.51a41.13 41.13 0 0 1 2.25 6.46c.11.39-.32 1.11-.7 1.43a1.34 1.34 0 0 1-1.31-.07 9.52 9.52 0 0 1-2.61-2.82 16.81 16.81 0 0 0-5.81-7c-5.52-4.14-11.2-7.72-18.05-9-8.19-1.57-16.31-1.59-24.12 1.87a16 16 0 0 0-3.21 2.1 30.52 30.52 0 0 0-8.45 10.38c-.64 1.24-1.34 3.22-3.12 2.62s-1.62-2.58-1.7-4.18a4.09 4.09 0 0 1 .26-1.46c.84-2.56 1.59-5.17 2.63-7.65.55-1.31.23-1.69-.93-2.2-5.39-2.35-11-2.24-16.45-.85-6.39 1.62-11.74 4.71-13.28 11.89a2.76 2.76 0 0 1-.32.84c-2.56 4.54-2.62 9.31-1.68 14.29.7 3.76 1.94 7.12 4.86 9.71a30 30 0 0 1 3.78 3.4c2.62 3.26 6.53 4.17 10 5.73 2.91 1.29 6 .82 9.07-.08a21.51 21.51 0 0 0 9.4-5.11A51.23 51.23 0 0 1 244.8 381a26.93 26.93 0 0 1 8.2-1.64 31.89 31.89 0 0 1 12.3 2.14 5.8 5.8 0 0 1 3.68 3.72c.45 1.5-.46 2.57-1.81 2a24.23 24.23 0 0 0-15.64-.48c-3.73 1-7.38 2.4-11.05 3.67-.44.15-.77.61-1.15.92a6.2 6.2 0 0 0 1.22 1.09 29 29 0 0 0 13.18 3.02zM458.65 261.9c.17 3.18.15 6.4.55 9.55.49 3.85 1.23 7.68 2.07 11.47.39 1.75 1.05 1.87 2.09.55 4.4-5.6 10.65-8.64 16.55-12.17a2.73 2.73 0 0 1 1.12-.42c4.56-.54 9.13-1.47 13.69-1.46a45.42 45.42 0 0 1 27.59 9.48c.67.5 1.17.83 1.6-.15 1.94-4.48 5.46-8.18 6.34-13.19a33.22 33.22 0 0 1 1.58-5.76c2.81-7.57 2.77-15.44 2.33-23.31-.17-3.07-1.1-6.09-1.57-9.15a75.14 75.14 0 0 0-6.6-20.5 110.26 110.26 0 0 1-3.9-9.41c-.83-2.3-.67-2.43-3.16-2.32-6.12.27-11.07-2.26-15.32-6.37-1.62-1.56-1.45-1.67-3.27-.35-3.7 2.67-7.08 5.86-11.69 7.08a14.2 14.2 0 0 1-7.65.05c-2.92-.81-2.91-.92-4.62 1.48a12 12 0 0 0-1 1.84c-1.43 3-2.84 5.93-4.27 8.89a139.31 139.31 0 0 0-10.43 30.93c-1.63 7.62-2.74 15.34-2.03 23.24zM532.43 616c2.46.14 4.79.08 6.78-1.75 1.75-1.62 3.92-2.81 4.69-5.32.28-.89.25-1.26-.78-1.32-2.68-.13-5.36-.32-8-.51-3.77-.25-7.54-.45-11.3-.8-4.68-.44-9.33-1.29-14-1.46-10.19-.36-20.4-.66-30.59-.51a187.67 187.67 0 0 0-32.51 3.07c-4.81.93-9.5 2.57-14.33 3.28-8.77 1.27-17.1 4.12-25.56 6.52-6.74 1.92-13.39 4.14-20.1 6.16-4.9 1.47-9.8 2.92-14.73 4.22-7.43 2-14.88 3.8-22.33 5.68a17.52 17.52 0 0 1-1.79.25c-6.54.82-13.15 1.26-19.6 2.54-9.12 1.82-18.31 1.93-27.49 1.88-8.19 0-16.39-.72-24.56-1.33-9-.68-17.93-1.69-26.66-4.13a20.39 20.39 0 0 0-2.38-.25c-3-.45-6.2-.59-9.13-1.46q-10.78-3.18-21.68-5.88c-6.59-1.64-13-3.92-19.51-5.9-2.77-.84-5.57-1.6-8.34-2.45-1.71-.53-3.39-1.15-5.07-1.78-4.09-1.53-8.2-3-12.26-4.66-5.84-2.36-11.64-4.83-17.47-7.22a3.14 3.14 0 0 0-1.14 0c.06.36 0 .82.18 1a22.43 22.43 0 0 0 3.71 3.88 110.89 110.89 0 0 0 19.51 11c6 2.48 11.84 5.24 17.88 7.59 4.93 1.91 10 3.49 15.08 5 4.79 1.46 9.62 2.74 14.47 4q7.84 2 15.77 3.74c4.39 1 8.82 1.81 13.25 2.58 4.12.72 8.27 1.24 12.4 1.91 2.87.47 5.7 1.23 8.58 1.53 4.07.42 8.17.57 12.27.75 5.77.26 11.55.54 17.34.64 3.3.05 6.61-.13 9.9-.37 6.09-.45 12.21-.75 18.25-1.62 5.74-.82 11.4-2.21 17.06-3.5 5.45-1.25 10.86-2.67 16.29-4 3.19-.81 6.36-1.66 9.54-2.51 1.83-.5 3.69-.94 5.48-1.56 8.32-2.84 16.49-6.12 25.08-8.16 2.8-.66 5.59-1.38 8.37-2.14 6-1.62 11.93-3.34 17.92-4.91 3.57-.94 7.25-1.5 10.78-2.58a26.32 26.32 0 0 1 6.75-1.22c2.27-.08 4.53-.69 6.8-.84 3-.21 6-.17 9-.27 3.3-.12 6.6-.47 9.89-.36 7.69.25 15.38.69 23.07 1.08q6 .32 12 .71c7.66.56 15.44 1.14 23.22 1.76zm-173-397.3h.34c0 2.08-.15 4.18 0 6.25.42 4.58.81 9.17 1.57 13.7 1.06 6.32 2.22 12.63 3.73 18.85 1.93 8 4.16 15.86 6.4 23.75 2 7 4.16 13.91 6.33 20.84a20.34 20.34 0 0 0 1.75 3.49c.49.92 1.2 1.15 1.84.2a44 44 0 0 0 3.46-5.56c1.53-3.24 2.69-6.65 4.16-9.92 1.94-4.29 4.07-8.48 6-12.76 3.21-7 6.08-14.18 9.58-21 3.41-6.66 7.39-13 11.19-19.5a113 113 0 0 1 6.48-10.45c4.17-5.61 8.55-11.07 13.06-16.4 3.56-4.2 7.32-8.25 11.23-12.12 3.61-3.58 7.46-6.93 11.37-10.19 2.51-2.1 5.38-3.77 8-5.75a49.77 49.77 0 0 1 13.57-7c3.3-1.16 4.64-3 5.12-6 .12-.79.36-1.55.5-2.34.27-1.46 0-1.84-1.3-1.32-3.22 1.32-6.43 2.72-9.58 4.21a39.2 39.2 0 0 0-3.52 2.29c-3.87 2.42-7.83 4.72-11.63 7.26-3 2-5.73 4.32-8.64 6.42-8.89 6.43-16.4 14.33-23.81 22.33a49.58 49.58 0 0 0-4 4.79q-3.11 4.38-6 8.93c-4.42 7-8.9 14-13.1 21.18-2.67 4.55-4.9 9.37-7.26 14.09-1.21 2.42-2.37 4.87-3.39 7.37s-1.78 4.87-2.61 7.33c-1.31 3.89-2.49 7.82-3.91 11.66a38.14 38.14 0 0 1-3.13 6.73c-.95 1.55-3.35 1.89-4.19.74-1.14-1.56-2.66-2.92-2.7-5.2a41.5 41.5 0 0 0-.91-6.54c-1-5.78-2.53-11.52-3.1-17.34a122.18 122.18 0 0 0-2.88-16.23 84.85 84.85 0 0 1-1.74-12.49 92.71 92.71 0 0 1-.18-15.27c.17-2.19-.13-4.41.06-6.59a62.07 62.07 0 0 1 1.22-8.26c.88-3.89 1.6-7.91 3.15-11.54a76.05 76.05 0 0 1 10.29-17.92c3.82-4.76 7.77-9.51 12.76-13.06 4.29-3.06 8.39-6.4 13.13-8.88 4.39-2.29 8.76-4.41 13.64-5.28 1.11-.19 1.62-.65 1.79-1.62a17.27 17.27 0 0 0 .23-2.39c.14-3.55 0-3.49-3.52-2.62-6.52 1.57-12.27 4.93-18 8.16a88.25 88.25 0 0 0-19.27 14.77c-4.07 4.14-8.24 8.15-11.43 13.08a60.58 60.58 0 0 0-6.53 13.42 95.07 95.07 0 0 0-4.23 18.35c-.49 3.75-.95 7.53-1.42 11.3zM484 619.46c-7.88.23-13.79.31-19.69.62-5 .26-10 .53-14.92 1.26-5.12.76-10.15 2.07-15.22 3.14-2 .42-2.42 1.15-2.12 3.34a13.52 13.52 0 0 1 .17 2.1c-.13 4.79-.22 9.58-.48 14.36-.08 1.56.26 2.5 1.87 2.8 5.88 1.09 11.73 2.43 17.64 3.22 4.73.64 9.54.64 14.31.9a85.2 85.2 0 0 0 24.93-2.52 51.24 51.24 0 0 0 15.39-6.48c5.69-3.67 10.51-8.67 12.83-15.39a34.88 34.88 0 0 0 1-5.54 41.3 41.3 0 0 0-5.27-.85c-5.81-.2-11.62-.2-17.43-.37-5.01-.16-10.01-.45-13.01-.59zm-33.44-453.3a39.54 39.54 0 0 0-3.43-17.84 17.86 17.86 0 0 0-9.91-10c-2.1-.86-4.47-1-6.66-1.72-1.43-.44-1.65.31-1.54 1.29a18.84 18.84 0 0 1-.76 7.39 2.83 2.83 0 0 0 0 .59c-.33 4.26-.6 8.53-1 12.79s-1.12 8.71-1.57 13.08q-.58 5.67-.88 11.36c-.31 6.09-.49 12.19-.71 18.29a2.41 2.41 0 0 0 0 .6c.06.26.11.66.27.73a.9.9 0 0 0 .79-.2c2.06-2 4.07-4.11 6.15-6.12 3.22-3.12 6.44-6.22 9.73-9.26 2.35-2.17 4.84-4.18 7.2-6.33a3.55 3.55 0 0 0 1.19-1.93c.37-4.21.71-8.46 1.1-12.72zm-238.5 394.52c-3.9-.29-3.9-.29-3.32 3.19a15.48 15.48 0 0 0 .48 2.65c2.35 6.6 4.69 13.23 8.46 19.2 2.08 3.29 4.28 6.52 6.64 9.62 2.7 3.57 5.52 7.08 8.52 10.4 2.12 2.35 4.64 4.34 7 6.52.73.68 1.31 1.53 2.06 2.17 4.55 3.88 9.13 7.72 13.7 11.57 1.44 1.21 2.71 3 4.36 3.5a118.9 118.9 0 0 0 12.04 2.14c.23 0 .49-.17.75-.26-.16-.24-.27-.56-.49-.69a52.4 52.4 0 0 1-4.68-2.67c-5.47-4-10.95-7.93-16.2-12.23a95.38 95.38 0 0 1-11.57-11.25c-2.61-3-6-5.33-7.95-8.93-1.6-2.88-3.77-5.46-5.14-8.43-2-4.26-5.19-7.84-6.41-12.5-.85-3.29-2-6.49-3-9.73-.44-1.41-.36-3.4-1.29-4.11s-2.86-.16-3.96-.16zm56-30.91c-.42-.44-.62-.85-.94-1a16.42 16.42 0 0 0-4.24-1.38c-7-.53-13.79.34-20.05 3.69s-12.46 6.76-19.47 8.32l-.29.07c-1.05.25-1.2 1-.87 1.84a8.91 8.91 0 0 0 .83 1.59c1.7 2.58 3.39 5.17 5.17 7.69a1.72 1.72 0 0 0 1.43.43c3.33-.65 6.65-1.31 9.94-2.11a25.68 25.68 0 0 0 13.62-8.2 39.09 39.09 0 0 1 6.56-5.58c2.07-1.52 4.38-2.72 6.57-4.09.55-.31 1.06-.76 1.73-1.27zm74.31-177.17c-4.06.23-7.27.21-10.42.66-3.35.48-6.64 1.38-9.94 2.15a6.81 6.81 0 0 0-1.51.79 6.56 6.56 0 0 0 1.14 1.64c1.57 1.23 3.24 2.34 4.86 3.5a18.12 18.12 0 0 0 3.16 2.23 92.36 92.36 0 0 0 9 3.43 34 34 0 0 0 15.95 1.41c1-.17 1.68-.55 1.9-1.57s.51-2.14.66-3.22c.29-2.08.45-4.18.76-6.26.37-2.55.27-3-2.38-3.39-4.68-.65-9.37-.97-13.18-1.37zM169 586.52a4 4 0 0 0 5.41 3.92A8.87 8.87 0 0 0 179 586c1.45-3.07 2.67-6.26 4.34-9.2s3.84-5.74 5.79-8.6c.4-.59.79-1.2 1.18-1.79a19 19 0 0 0-2.27.27 8 8 0 0 0-1.65.71 40.48 40.48 0 0 0-13.66 10.51 16.3 16.3 0 0 0-3.73 8.62zM460.37 138l-.07.26c-1.17.11-2.9-.19-3.37.44-.65.87-.36 2.45-.47 3.73v.3c-.08 1.36.5 2 1.92 2a18.46 18.46 0 0 1 4.47.37A61.38 61.38 0 0 1 476 150c.61.34 1.29.56 1.9.91a2.25 2.25 0 0 0 2.53-.12c1.78-1.08 3.58-2.14 5.38-3.18 1.35-.77 1.39-.81.06-1.6a57.88 57.88 0 0 0-18.21-6.69c-2.39-.5-4.85-.87-7.29-1.32zM356 618.42a16.89 16.89 0 0 0-8.5 2.05c-3.1 1.54-5 4.15-6.56 7.11-.23.45 0 1.13 0 1.7a9.23 9.23 0 0 0 1.4-.09c6.26-1.28 12.54-2.51 18.77-3.92 2.72-.61 5.36-1.58 8-2.44.4-.12 1-.35.12-.91a22.38 22.38 0 0 0-13.23-3.5zm34.92-9.42h-1.5c-4.46.54-10.47 3.51-11.63 9.37-.45 2.25-.26 2.48 1.91 1.85 3.27-1 6.53-2 9.8-2.92 4.23-1.22 8.48-2.36 12.71-3.58a10.09 10.09 0 0 0 1.6-.82c1.22-.6.8-1-.1-1.57-3.97-2.33-8.49-1.75-12.79-2.33zm51.13-6.23a10.4 10.4 0 0 0-1.1-.56c-1.88-.63-3.77-1.26-5.67-1.86-6.73-2.13-12.86-.76-18.27 3.55-1.4 1.1-2.21 3-3.13 4.63-.41.72-.1 1.4.95 1.23a6.54 6.54 0 0 0 1.47-.33c4.15-1.71 8.9-1.51 12.82-4a4.19 4.19 0 0 1 1.44-.38l10.3-1.84a9.7 9.7 0 0 0 1.19-.4zm-124.67 30v.09c1 0 2 0 3-.17 3.94-.55 7.88-1.14 11.81-1.74a3.29 3.29 0 0 0 .76-.31c-.19-.31-.31-.72-.58-.92a19.67 19.67 0 0 0-12.26-4c-5.6 0-9.9 2.68-13.68 6.46-.56.55-.42 1.11.48 1.16a18.39 18.39 0 0 0 2.1 0c2.79-.17 5.58-.34 8.37-.56zm177.2-33.46l13.88.83a5.26 5.26 0 0 0 .89-.08c-.07-.27-.06-.63-.23-.81-1-1.07-1.88-2.41-3.12-3.1a21.74 21.74 0 0 0-16.46-2.28c-2.26.58-4.74 1.12-6 3.56-.73 1.39-.65 1.78 1 1.84 3.26.13 6.56.05 10.04.05zm31.61-4.12a4.49 4.49 0 0 1-1.19.14c-3.58-.61-5.76 1.55-7.88 3.9-.69.77-.58 1.16.42 1.34.4.07.79.17 1.18.2 5.63.45 11.25.9 16.88 1.31a22.58 22.58 0 0 0 3.29 0c1.05-.06 1.15-.61.5-1.36-3.49-4.02-7.8-6.08-13.2-5.52zM454 601.51v-.3c6.45-.52 12.9-1 19.35-1.58a11.56 11.56 0 0 0 1.9-.5 13 13 0 0 0-1.38-1.82c-.33-.31-.92-.34-1.38-.51a23.37 23.37 0 0 0-13.78-1.11 9.47 9.47 0 0 0-5.8 3.71 6.71 6.71 0 0 0-.64 1.91zm-171.4 24.9c-1.07.07-3.16.22-5.25.39a2.56 2.56 0 0 0-.74.3 3.09 3.09 0 0 0 .52.66 31.46 31.46 0 0 1 4.24 3.31 5.35 5.35 0 0 0 4.24 1.73c3.89.11 7.77.33 11.65.46a5.69 5.69 0 0 0 1.52-.36 6 6 0 0 0-1-1.33c-4.25-3.14-8.98-4.79-15.21-5.16zm274.64-51.7a24.43 24.43 0 0 1-.23 3c-.23 1.13.2 1.64 1.19 1.27 2.41-.89 4.76-1.93 7.09-3 .18-.08.25-.94.06-1.23-2.2-3.32-4.45-6.59-6.71-9.87-.14-.21-.44-.31-.66-.46a6.85 6.85 0 0 0-.13.79q-.34 4.73-.64 9.5zm-72.52-414.77a2.49 2.49 0 0 0-3.28-2 16.21 16.21 0 0 0-4 2.79 6.46 6.46 0 0 0-1 2.08 21.54 21.54 0 0 0 2.12-.44q2.67-.84 5.31-1.77a4.51 4.51 0 0 0 .85-.66zM418.79 132c-2.79.14-4.34 2.16-6 4a.69.69 0 0 0-.09.53 1.22 1.22 0 0 0 .78.2c.75-.23 1.47-.59 2.22-.83 1.89-.6 3.79-1.17 5.69-1.73.66-.2 1.34-.34 2-.5a12.11 12.11 0 0 0-2-1.19 17.57 17.57 0 0 0-2.6-.48zm132.41 46.86l.14.11v-.17z"/><path class="a" d="M136 268.42a9.16 9.16 0 0 1-1.3.63 8.26 8.26 0 0 1-.93-1.63c-.05-.13.26-.41.4-.61z"/><path class="b" d="M543.12 300.4c.1-.18.18-.36.29-.53.57-.95 2-1.93.66-3-1.1-.91-2.55-.06-3.18.85-2.2 3.16-5.55 5.74-6.29 9.65-1.37 7.25-2.85 14.57-2.16 22 .34 3.67 1.67 7.24 2 10.91.57 6.28 2.42 12.37 2.36 18.75a51.88 51.88 0 0 1-2.67 16.19 83.18 83.18 0 0 1-3.51 9.26c-2 4.22-4.37 8.29-6.59 12.42-1.41 2.63-3.06 5.16-4.23 7.89-2.63 6.16-3.55 12.72-3.8 19.36-.14 3.58-.12 7.17 0 10.76a7.3 7.3 0 0 0 1.08 3 1.71 1.71 0 0 0 2.34.72 1.81 1.81 0 0 0 1.38-2 40.94 40.94 0 0 1 1.86-14.79c.81-2.78 1.94-5.46 3-8.17a3.25 3.25 0 0 1 .94-1.13c.43-.37.73-.5 1 .31a22.23 22.23 0 0 1 .33 11.84c-.68 2.81-.9 5.73-1.35 8.6a117.13 117.13 0 0 0-1.84 21.22 90 90 0 0 0 1.11 9.21c.52 4 1.46 7.95 1.48 11.92a33.79 33.79 0 0 1-1.66 10.3c-1 3.19-3.15 6-4.35 9.16a38.4 38.4 0 0 0-2 8.42c-.35 2.56 0 5.21-.24 7.8-.61 8.21-1.65 16.34-5.31 23.88a6 6 0 0 0-.94 2.18c0 1 .05 2.54.69 3 1 .7 1.76-.55 2.22-1.39 1.54-2.79 4.06-4.92 5-8.13.44-1.45 1.84-2.58 2.67-3.94a23.69 23.69 0 0 0 3.41-11.38 4.41 4.41 0 0 1 .21-.87c.27.22.66.39.8.68.8 1.71 1.57 3.43 2.29 5.17 2 4.89 4.14 9.75 6 14.7 3 8 5.41 16.2 5.52 24.79a44.21 44.21 0 0 1-1.48 12.46c-1.45 5.16-3.84 10.06-5.79 15.08-.6 1.56-1.39 2-3.19 1.55-11.35-2.77-23-3.31-34.56-3.2-7.48.07-14.95.86-22.42 1.42-5.49.41-11 .82-16.43 1.48-4 .48-7.86 1.37-11.79 2.06-7.28 1.27-14.57 2.47-21.84 3.8-2.35.43-4.63 1.24-7 1.75-3.48.76-7 1.34-10.46 2.13-1.55.35-3 1.14-4.55 1.51-4 1-8 1.79-12 2.72-1.36.32-2.66.88-4 1.19-6.51 1.46-13 2.93-19.56 4.28q-12.76 2.64-25.56 5.09c-5.09 1-10.21 1.78-15.33 2.64-4.93.84-9.84 1.9-14.8 2.42-6.57.68-13.17.95-19.76 1.36-3.18.19-6.36.34-9.54.43-4.4.14-8.8.25-13.19.27a8.37 8.37 0 0 1-6-2.25c-3.11-2.79-6.7-5.08-9.76-7.93-4.38-4.07-8.49-8.44-12.69-12.72a65.532 65.532 0 0 1-3.81-4.18 34.53 34.53 0 0 1-2.8-3.89 102.05 102.05 0 0 1-6.14-10.66c-2.22-4.92-4-10-5.74-15.16-.76-2.26-.17-2.84 2.1-2.42 9.41 1.74 18.05-.88 26.51-4.53 1.45-.63 2.38-1 3.83.5 5.52 5.57 12.34 7.22 19.9 5.42 5.6-1.33 10.5.16 15 3.34a16.54 16.54 0 0 1 6.85 11.83 15.61 15.61 0 0 0 .52 2.64 7.36 7.36 0 0 0 .88 1.46c.55-.37 1.35-.62 1.59-1.13a16 16 0 0 0 1.78-4.75c.81-6.71-.34-13-4.88-18.29-2.68-3.16-6.42-4.37-10.16-5.49-4.67-1.4-9.41-2.58-14.12-3.86-2.15-.58-2.78-2.05-1.7-4.08a16.65 16.65 0 0 1 5.28-6.45q3.87-2.56 7.75-5.09c7.06-4.58 14.81-7.88 22.13-12 4.86-2.73 9.62-5.65 14.41-8.53a17.88 17.88 0 0 0 2.6-2 192.56 192.56 0 0 0 17.66-17.56c1.17-1.35 2.41-.82 3.55-.45 3.23 1 6.43 2.18 9.57 3.43a26 26 0 0 1 5.32 2.74 5.6 5.6 0 0 1 1.84 3 10.26 10.26 0 0 1-1 8.38 10.05 10.05 0 0 0-.82 1.26c-.38.93-1.91 1.85-.67 2.79.51.4 2.09-.18 2.94-.71 6.58-4.1 9.22-10.7 6.82-17.74a9.13 9.13 0 0 0-1.67-3.1 43.54 43.54 0 0 0-14-10.09 3.9 3.9 0 0 1-1.62-1.2c-2.32-3.65-4-7.57-2.48-11.93 1.93-5.67 4.07-11.29 6.27-16.87 2.28-5.77 5.17-11.34 7-17.24 1.64-5.31 2.22-11 3.22-16.46 1.16-6.39 0-12.59-1.92-18.64-1.38-4.27-.83-8.53-.33-12.78.75-6.34 1.66-12.65 2.59-19 .27-1.87.82-3.7 1.27-5.54a3 3 0 0 1 .47-.75c.3.22.76.38.89.67a11.74 11.74 0 0 1 1.2 3.37c.26 3 1.09 5.95.18 9a4 4 0 0 0 0 1.19c0 1 .07 2.35 1.26 2.34a3.05 3.05 0 0 0 2.13-1.78 30.26 30.26 0 0 0 .74-19c-1.56-5.74-4.82-10.74-6.53-16.41-1.31-4.34-2.24-8.53-1.58-13.18.75-5.26 2.6-10 4.61-14.81.85-2 1.42-4.17 2.15-6.25.45-1.3 1-2.58 1.64-4.36.81 2 1.36 3.49 2 4.94a8.28 8.28 0 0 0 6.15 5.13 5 5 0 0 0 5.57-2.48c.55-1 1-1.94 1.52-2.94 3.08-6.29 6-12.64 9.24-18.86 3.58-6.93 7.42-13.73 11.11-20.61 2-3.78 3.84-7.7 6-11.4 2.6-4.38 5.36-8.68 8.29-12.84 3.22-4.57 6.59-9.06 10.14-13.38a112.25 112.25 0 0 1 13.62-14.3c3-2.59 5.74-5.55 8.79-8.1s6.33-4.88 9.61-7.16a38 38 0 0 1 4.77-2.53 1.88 1.88 0 0 1 .79-.06c0 .28.11.62 0 .84-1.28 2.5-2.56 5-3.9 7.46-2.95 5.46-6 10.85-8.85 16.38a48.73 48.73 0 0 0-3.09 8.11c-1.6 5.36-3.21 10.73-4.44 16.18-1.56 6.93-3 14-2.71 21.09.34 8.3 1.35 16.58 4.28 24.46 1.24 3.36 3.1 6.23 6.84 7.44 3.13 1 6.19 2.27 9.28 3.42.28.1.65.05.86.22 2.53 2.06 4.61.78 6.28-1.11 5.47-6.18 12.91-8.21 20.51-9.67 2.2-.42 4.81.28 7 1.11 3.83 1.46 7.42 3.45 9.94 7a3.32 3.32 0 0 0 4.78.92 39.48 39.48 0 0 0 4.84-4c1.2-1 2.2-2.4 3.55-3.17a20.31 20.31 0 0 0 6.95-7.2c1.6-2.51 3.89-4.54 4.87-7.52 1.11-3.4 2.38-6.76 3.78-10.05 2.48-5.87 2.83-12.1 2.82-18.28a75.35 75.35 0 0 0-2.36-19.63c-.73-2.7-1.3-5.45-1.93-8.18-1.67-7.29-5.16-13.87-8.1-20.65a95.92 95.92 0 0 1-5.11-14.68 3.19 3.19 0 0 1-.15-.59c-.28-3.72-.49-3.54 3.14-3.39 3.39.15 6.84.24 9.86 2.13 3.35 2.09 6.36 4.65 7.82 8.38a42.78 42.78 0 0 1 2.46 12c.45 5.4-.72 10.68-.77 16-.06 6.22.82 12.34 1.47 18.49.24 2.28.33 4.57.56 6.85.73 7.18 1.61 14.34 2.22 21.52a61.84 61.84 0 0 1-3.56 26.92 117.53 117.53 0 0 1-5.16 12.51 79 79 0 0 0-3.8 9.09c-.11.3-.45.51-.67.77a3.29 3.29 0 0 1-.42-1 18.67 18.67 0 0 1 .69-6.77c1-3.12 1.7-6.31 2.85-9.38zm-40 199.46c1.18-.07 2.37-.11 3.56-.21 1.58-.13 2-1.14 1.8-2.53a6.52 6.52 0 0 0-.53-1.71c-2.54-5.64-5.85-10.92-7.81-16.86-1.18-3.6-2.92-7-4-10.65-2.32-7.55-4.44-15.17-6.52-22.8-1.25-4.63-2.2-9.34-3.41-14-1-4-2.3-7.88-3.3-11.86-1.23-4.85-2.25-9.76-3.41-14.63-1.19-5.06-2.5-10.1-3.66-15.17-1.56-6.83-2.91-13.71-4.54-20.53-1.72-7.19-3.75-14.3-5.46-21.49-1.14-4.81-1.08-9.91-3.82-14.32-.36-.6-.08-1.79-1.22-1.45-.56.17-1 1-1.3 1.67a7.91 7.91 0 0 0-.21 1.79c-.49 2.85-.9 5.73-1.51 8.56-.69 3.22-1.71 6.38-2.31 9.61a175.52 175.52 0 0 1-4.47 19.54q-3.58 11.79-7.29 23.54c-1.21 3.81-2.47 7.61-3.87 11.36-1.14 3.08-2.67 6-3.73 9.11a191.45 191.45 0 0 1-7.59 19.86c-2.77 5.88-5.26 11.88-8.42 17.57-3.88 7-7.74 14-11.67 20.95-2.31 4.09-4.75 8.12-7.12 12.18-1.66 2.86-3.56 5.61-4.92 8.6a68.7 68.7 0 0 1-8 13c-5.85 7.71-12 15.22-18 22.8-2.31 2.9-5 5.53-6.94 8.67-2.64 4.34-6.62 7.45-9.59 11.48a121.39 121.39 0 0 1-8.15 9.17c-2.47 2.74-4.94 5.49-7.45 8.2-1.48 1.61-3 3.09-3.28 5.5-.18 1.74 0 2.26 1.69 2.21a6.56 6.56 0 0 0 2.89-.67 26.07 26.07 0 0 0 5.76-3.78c3.59-3.58 7.82-6.16 12.1-8.74a36.78 36.78 0 0 1 9.17-3.66c4.71-1.35 9.48-1.37 14.28-1.61a14.88 14.88 0 0 1 9.77 3c1.17.84 2 .76 2.82-.27 1.2-1.48 2.41-2.95 3.51-4.5 2.76-3.88 5.54-7.74 8.15-11.72 1.88-2.86 4.66-4.65 7.27-6.61a35.11 35.11 0 0 1 7-4.08 37.31 37.31 0 0 1 18.12-2.78 26.76 26.76 0 0 1 8.31 2.24c2.59 1.11 3.61 1 5-1.43 1.1-1.89 2.18-3.79 3.26-5.7a15.07 15.07 0 0 1 9.24-7.17c4.14-1.21 8.39-1.89 12.73-1 2.74.59 5.48 1.16 8.24 1.64a2.38 2.38 0 0 0 1.83-.37c.73-.67.4-1.5-.33-2.05a2 2 0 0 1-.87-2.31c1.11-4.18 2.38-8.16 5.91-11.17a18.79 18.79 0 0 1 12.33-4.42zm-93.3-119.24a55.16 55.16 0 0 0 1.56 5.42c1.66 4.16 4.31 7.44 8.81 8.74a7 7 0 0 0 3.24.18c5-1.07 9.2-5.92 10.2-11 .83-4.19.3-8.36.3-12.53 0-5.5-.35-10.91 1.75-16.27a27.5 27.5 0 0 1 5.59-9.45 58 58 0 0 0 4.16-4.72 2.32 2.32 0 0 0 .33-2.11 2.51 2.51 0 0 0-2.07-.64 8.7 8.7 0 0 0-2.78 1 50.38 50.38 0 0 0-14.26 11.38c-4.28 4.73-8.59 9.54-11.23 15.51a8.27 8.27 0 0 1-.86 1.23 27.91 27.91 0 0 0-4.74 13.26zm-25.56 72.23c-.06 3.77.18 4.61 3.24 7.52 2.78 2.65 5.92 4.47 10 3.07 4.68-1.61 8.63-7.55 8.07-12.46a58.75 58.75 0 0 0-1.57-8.55 32.37 32.37 0 0 1 .69-20 42.8 42.8 0 0 0 1.86-5.38 10.68 10.68 0 0 0-.4-3.4 20.86 20.86 0 0 0-2.75.84 5.75 5.75 0 0 0-1.9 1.41 59.84 59.84 0 0 0-4.92 6c-2.6 3.9-5.1 7.88-7.37 12-3.12 5.66-5.21 11.65-4.95 18.95zm110-124.63l-.09-.72c-4.22.7-8.45 1.36-12.65 2.17a2.34 2.34 0 0 0-1.56 1.45 1.91 1.91 0 0 0 1.7 2.12 8.55 8.55 0 0 0 2.09.12c4.09-.13 8.18-.27 12.27-.45q6.44-.27 12.87-.62c3.77-.2 7.52-1.12 11.33-.21.49.12 1.48-.59 1.77-1.15.83-1.62-.1-3.22-2.14-3.36a107.46 107.46 0 0 0-11.06-.26c-4.79.16-9.65.6-14.49.91zm-19.08 8.18c-1.36.05-1.84 1-1.53 1.84a9.27 9.27 0 0 0 2 2.85 8.75 8.75 0 0 0 1.79 1.07c4.56 2.86 9 5.83 13.68 8.56 4.3 2.53 8.76 4.79 13.14 7.19 1.57.86 2.73.81 3.49-.27s.47-2.28-1-3.25q-4.12-2.7-8.37-5.23c-5.05-3-10.12-6-15.24-8.9-2.34-1.33-4.81-2.46-7.23-3.67a2.86 2.86 0 0 0-.69-.19zm-4.33-7.89a70.8 70.8 0 0 0 6.58-3.25q7.69-4.85 15.2-10a45 45 0 0 0 5.17-4.52c.36-.33.67-1.23.48-1.51a2.12 2.12 0 0 0-1.63-.93 14.22 14.22 0 0 0-4.21 1.41c-4.29 2.51-8.55 5.08-12.69 7.81-3.5 2.3-6.85 4.83-10.19 7.36a2.19 2.19 0 0 0-.63 2c.33.62 1.22 1.03 1.96 1.63zm16.43 38.12a8.32 8.32 0 0 0-.51-1.5 67.44 67.44 0 0 0-3.49-5.94c-2.34-3.35-4.81-6.6-7.32-9.81-.4-.52-1.32-.63-2-.93a7.79 7.79 0 0 0-.76 2c-.23 2.74 1.57 4.6 3 6.65 2.12 3.1 5 5.66 6.3 9.35a4.79 4.79 0 0 0 2.34 2.15c1.52.78 2.56-.08 2.48-1.97z"/><path class="c" d="M356.59 412.24a61.27 61.27 0 0 1-3.42 19.76c-1.55 4.7-4.31 9-5.83 13.72-1.6 4.93-4.4 9.18-6.59 13.75a89.83 89.83 0 0 0-5.16 13.39 20.38 20.38 0 0 0 .1 11.25 5.23 5.23 0 0 1-.95 5c-2.63 3.4-5 7-7.83 10.25a26.32 26.32 0 0 1-5.6 4.48c-4.43 2.89-9 5.63-13.47 8.4a5.3 5.3 0 0 1-1.41.52c-.75.21-1.22-.14-1.21-.88 0-3.31-1.73-5.68-4-7.72a2 2 0 0 1-.55-2.65c4.1-9.07 1.92-17.75-2.09-26.06a17 17 0 0 0-9.33-8.45 56.47 56.47 0 0 0-7.68-2.39c-3.6-.83-7.07-.15-10.39.59-2.69.6-5.28 2.39-7.49 4.18-3.06 2.48-6.14 5.05-8.14 8.58a2.11 2.11 0 0 1-2.76 1.06c-7-1.83-13.91-.95-20.7 1.06a22.29 22.29 0 0 0-5 2.76A25.2 25.2 0 0 0 217 494c-.79 1.72-1.74 3.37-2.54 5.08a2 2 0 0 1-2.45 1.21c-1.28-.23-1.06-1.24-1.1-2.09-.12-2.23-.27-4.46-.29-6.69 0-3.86-.81-7.7-.22-11.58a17.62 17.62 0 0 0 0-3.91 62.8 62.8 0 0 1 1.52-17.32c.88-4.25 1.13-8.66 3.21-12.73 1.75-3.42 2.38-7.4 3.86-11 1.82-4.43 3.82-8.8 6.07-13a88 88 0 0 1 10-14.93c1.2-1.44 2.26-1.74 3.86-1.17a32.11 32.11 0 0 0 12.95 2.13 49.33 49.33 0 0 0 13-2.28 47.34 47.34 0 0 0 6-2 54.72 54.72 0 0 0 14-9.5c1.86-1.81 4-3.38 5.86-5.16a2.08 2.08 0 0 1 3.14-.14c2.71 2 5.52 4 8.27 6a29.81 29.81 0 0 0 23 5.38q5.47-.85 10.9-1.91a18.88 18.88 0 0 0 2.51-1c2.37-.81 4.79-1.47 7.11-2.41 2.12-.85 4.11-2 6.18-3s2.12-.91 2.42 1.22q1.18 8.61 2.34 17.21a13.63 13.63 0 0 1-.01 1.83z"/><path class="b" d="M253.73 395.44a29 29 0 0 1-13.18-3 6.2 6.2 0 0 1-1.22-1.09c.38-.31.71-.77 1.15-.92 3.67-1.27 7.32-2.63 11.05-3.67a24.23 24.23 0 0 1 15.64.48c1.35.52 2.26-.55 1.81-2a5.8 5.8 0 0 0-3.68-3.72 31.89 31.89 0 0 0-12.3-2.14 26.93 26.93 0 0 0-8.2 1.64 51.23 51.23 0 0 0-19.38 12.17 21.51 21.51 0 0 1-9.4 5.11c-3.09.9-6.16 1.37-9.07.08-3.51-1.56-7.42-2.47-10-5.73a30 30 0 0 0-3.78-3.4c-2.92-2.59-4.16-5.95-4.86-9.71-.94-5-.88-9.75 1.68-14.29a2.76 2.76 0 0 0 .32-.84c1.54-7.18 6.89-10.27 13.28-11.89 5.49-1.39 11.06-1.5 16.45.85 1.16.51 1.48.89.93 2.2-1 2.48-1.79 5.09-2.63 7.65a4.09 4.09 0 0 0-.26 1.46c.08 1.6 0 3.62 1.7 4.18s2.48-1.38 3.12-2.62a30.52 30.52 0 0 1 8.45-10.38 16 16 0 0 1 3.21-2.1c7.81-3.46 15.93-3.44 24.12-1.87 6.85 1.32 12.53 4.9 18.05 9a16.81 16.81 0 0 1 5.81 7 9.52 9.52 0 0 0 2.61 2.82 1.34 1.34 0 0 0 1.31.07c.38-.32.81-1 .7-1.43a41.13 41.13 0 0 0-2.25-6.46c-.56-1.14-.51-1.69.37-2.51a11.06 11.06 0 0 1 5.86-2.84 22.75 22.75 0 0 1 16.32 3.46 108.18 108.18 0 0 0 22.81 11.3c3.47 1.2 7.2 1.64 10.77 2.55a27.81 27.81 0 0 0 12.18 0c1.41-.26 1.59.4 1.45 1.45-.37 2.67-.73 5.35-1.23 8a2.55 2.55 0 0 1-1.25 1.53c-2.83 1.44-5.39 3.44-8.77 3.68a21.43 21.43 0 0 0-4.33 1.23c-4.59 1.39-9.17 1.15-13.91.57a51.15 51.15 0 0 1-14.11-3.86 32.71 32.71 0 0 1-5.26-3.43c-.21-.14-.29-.48-.43-.72a3 3 0 0 1 1-.44 31 31 0 0 1 9 .22c1.21.26 2.7.68 3.12-.75.35-1.18-.83-2-2-2.6a14.55 14.55 0 0 0-9.6-1.54c-3.21.6-6.51.78-9.67 1.56-6.59 1.65-12.88 4-18.51 8a35.28 35.28 0 0 1-14.39 6.35c-3.57.73-7.04 1.84-10.6 1.34zM458.65 261.9c-.71-7.87.4-15.62 2-23.24a139.31 139.31 0 0 1 10.43-30.93c1.43-3 2.84-5.93 4.27-8.89a12 12 0 0 1 1-1.84c1.71-2.4 1.7-2.29 4.62-1.48a14.2 14.2 0 0 0 7.65-.05c4.61-1.22 8-4.41 11.69-7.08 1.82-1.32 1.65-1.21 3.27.35 4.25 4.11 9.2 6.64 15.32 6.37 2.49-.11 2.33 0 3.16 2.32 1.15 3.19 2.46 6.34 3.9 9.41a75.14 75.14 0 0 1 6.6 20.5c.47 3.06 1.4 6.08 1.57 9.15.44 7.87.48 15.74-2.33 23.31a33.22 33.22 0 0 0-1.58 5.76c-.88 5-4.4 8.71-6.34 13.19-.43 1-.93.65-1.6.15a45.42 45.42 0 0 0-27.59-9.48c-4.56 0-9.13.92-13.69 1.46a2.73 2.73 0 0 0-1.12.42c-5.9 3.53-12.15 6.57-16.55 12.17-1 1.32-1.7 1.2-2.09-.55-.84-3.79-1.58-7.62-2.07-11.47-.37-3.15-.35-6.37-.52-9.55zm56.06-1a12.14 12.14 0 0 0 2.59-.47c2.56-.93 2.9-2 1.5-4.31a19.43 19.43 0 0 1-1.25-2c-2-4.49-2.16-9.26-2-14.08.12-4.44 1.93-8.36 3.7-12.27 2.15-4.78 1.52-4.82-3.11-7-.53-.25-1.16-.31-1.72-.52a6.56 6.56 0 0 1-1.89-.88c-3.61-3.08-6.72-6.6-8.24-11.2-.92-2.74-1.56-5.58-2.38-8.35-.62-2.06-2.09-2.63-3.51-1.09a12.13 12.13 0 0 0-2.59 4.62 35.56 35.56 0 0 1-6.84 12.83 31.46 31.46 0 0 1-12.63 9.32c-5.15 2-5.13 2.13-3.91 7.69a12 12 0 0 0 .36 1.46 15.62 15.62 0 0 1 .6 8c-1.1 6.9-3 13.42-7.64 18.91-1.47 1.76-1.28 2.39.42 4a2.85 2.85 0 0 0 4 .36c.65-.45 1.24-1 1.85-1.48a18.79 18.79 0 0 1 6.95-4c4.65-1.27 9.24-2.78 14.16-1.81a1.54 1.54 0 0 0 .6 0c3.11-.64 6.15 0 9.21.5 3.71.55 7.44 1.1 11.77 1.77zM260 486.94c1.52 2.1 3 4.21 4.58 6.28a9.42 9.42 0 0 0 1.42 1.28c.45-.62 1.27-1.23 1.27-1.85a10.13 10.13 0 0 0-.79-3.43c-.57-1.53-2-3.12-1.79-4.45.22-1.18 2.26-2 3.42-3 4-3.69 9-4.64 14.22-4.72a6.82 6.82 0 0 1 5.06 2.35c5.63 6 8.14 12.94 5.79 21.16-.3 1.06-.66 2.11-.89 3.19a6 6 0 0 1-3 4c-2.24 1.31-4.47 2.79-7.18 2.85s-5.67 1.21-8.61.18c-.66-.23-1.91.46-2.51 1.08s0 3 1 3.75a3.77 3.77 0 0 0 1.9.82 49.19 49.19 0 0 0 8.34-.38 31.16 31.16 0 0 0 11.5-5c1.55-1 2.81-.92 3.7.54a10 10 0 0 1 1.2 3.65c.07.41-.61 1.19-1.13 1.41-6.49 2.87-13.09 5.53-19.51 8.55-2.61 1.23-4.7 2.13-7-.5-.62-.72-2-.91-3-1.15-6.91-1.55-13.76-3.4-20.94-1.1-5.33 1.72-10.78 3.09-16.23 4.36a52.29 52.29 0 0 1-10.66 1.58 15.71 15.71 0 0 1-8.74-2.82c-2-1.27-3.14-5.89-1.93-7.95.57-1 1.75-1.56 2.66-2.32 1.93-1.59 1.86-3.42-.42-4.24-4.88-1.75-8.85-.77-11.14 4.39-.69 1.55-1 3.24-1.61 4.84-.72 2-1.43 2.42-3.62 2a18.39 18.39 0 0 1-8.67-4.45c-3.34-2.86-6.89-5.48-10.48-8a15.4 15.4 0 0 0-4.11-1.59c-.81-.26-1-.81-.46-1.29 2.37-2.14 4.81-4.4 8.1-4.8a34.67 34.67 0 0 1 12.46 1c8.25 2 16.48 4.29 25 5 5 .44 9.17-1.41 13-4.3a3.63 3.63 0 0 0 1.16-1.34 2 2 0 0 0 .07-1.67 1.89 1.89 0 0 0-1.58-.43c-1.67.3-3.3.82-5 1.14-1.06.2-1.53-.11-.92-1.3 2.45-4.82 5.58-8.91 10.37-11.77a39 39 0 0 1 5.76-3l.48-.21.78-.2 1-.34.83-.16 1.54-.46 1.49-.21 5.16.07.9.09.13.2.13-.19h1l.92.37.89.23 1.54.43a.41.41 0 0 0 .32.14c.29.18.57.37.85.56l.95.68zM532.43 616c-7.78-.57-15.56-1.15-23.34-1.69q-6-.4-12-.71c-7.69-.39-15.38-.83-23.07-1.08-3.29-.11-6.59.24-9.89.36-3 .1-6 .06-9 .27-2.27.15-4.53.76-6.8.84a26.32 26.32 0 0 0-6.75 1.22c-3.53 1.08-7.21 1.64-10.78 2.58-6 1.57-11.94 3.29-17.92 4.91-2.78.76-5.57 1.48-8.37 2.14-8.59 2-16.76 5.32-25.08 8.16-1.79.62-3.65 1.06-5.48 1.56-3.18.85-6.35 1.7-9.54 2.51-5.43 1.37-10.84 2.79-16.29 4-5.66 1.29-11.32 2.68-17.06 3.5-6 .87-12.16 1.17-18.25 1.62-3.29.24-6.6.42-9.9.37-5.79-.1-11.57-.38-17.34-.64-4.1-.18-8.2-.33-12.27-.75-2.88-.3-5.71-1.06-8.58-1.53-4.13-.67-8.28-1.19-12.4-1.91-4.43-.77-8.86-1.62-13.25-2.58q-7.92-1.74-15.77-3.74c-4.85-1.23-9.68-2.51-14.47-4-5.07-1.54-10.15-3.12-15.08-5-6-2.35-11.9-5.11-17.88-7.59a110.89 110.89 0 0 1-19.51-11 22.43 22.43 0 0 1-3.71-3.88c-.2-.23-.12-.69-.18-1a3.14 3.14 0 0 1 1.14 0c5.83 2.39 11.63 4.86 17.47 7.22 4.06 1.63 8.17 3.13 12.26 4.66 1.68.63 3.36 1.25 5.07 1.78 2.77.85 5.57 1.61 8.34 2.45 6.5 2 12.92 4.26 19.51 5.9q10.9 2.71 21.68 5.88c2.93.87 6.08 1 9.13 1.46a20.39 20.39 0 0 1 2.38.25c8.73 2.44 17.68 3.45 26.66 4.13 8.17.61 16.37 1.28 24.56 1.33 9.18 0 18.37-.06 27.49-1.88 6.45-1.28 13.06-1.72 19.6-2.54a17.52 17.52 0 0 0 1.79-.25c7.45-1.88 14.9-3.71 22.33-5.68 4.93-1.3 9.83-2.75 14.73-4.22 6.71-2 13.36-4.24 20.1-6.16 8.46-2.4 16.79-5.25 25.56-6.52 4.83-.71 9.52-2.35 14.33-3.28a187.67 187.67 0 0 1 32.51-3.07c10.19-.15 20.4.15 30.59.51 4.68.17 9.33 1 14 1.46 3.76.35 7.53.55 11.3.8 2.68.19 5.36.38 8 .51 1 .06 1.06.43.78 1.32-.77 2.51-2.94 3.7-4.69 5.32-1.87 1.68-4.2 1.77-6.66 1.68zM359.4 218.65c.47-3.77.93-7.55 1.42-11.31a95.07 95.07 0 0 1 4.23-18.34 60.58 60.58 0 0 1 6.57-13.43c3.19-4.93 7.36-8.94 11.43-13.08a88.25 88.25 0 0 1 19.27-14.77c5.69-3.23 11.44-6.59 18-8.16 3.56-.87 3.66-.93 3.52 2.62a17.27 17.27 0 0 1-.23 2.39c-.17 1-.68 1.43-1.79 1.62-4.88.87-9.25 3-13.64 5.28-4.74 2.48-8.84 5.82-13.13 8.88-5 3.55-8.94 8.3-12.76 13.06A76.05 76.05 0 0 0 372 191.32c-1.55 3.63-2.27 7.65-3.15 11.54a62.07 62.07 0 0 0-1.22 8.26c-.19 2.18.11 4.4-.06 6.59a92.71 92.71 0 0 0 .18 15.27 84.85 84.85 0 0 0 1.78 12.45 122.18 122.18 0 0 1 2.88 16.23c.57 5.82 2.06 11.56 3.1 17.34a41.5 41.5 0 0 1 .91 6.54c0 2.28 1.56 3.64 2.7 5.2.84 1.15 3.24.81 4.19-.74a38.14 38.14 0 0 0 3.13-6.73c1.42-3.84 2.6-7.77 3.91-11.66.83-2.46 1.63-4.93 2.61-7.33s2.18-4.95 3.39-7.37c2.36-4.72 4.59-9.54 7.26-14.09 4.2-7.16 8.68-14.15 13.1-21.18q2.85-4.54 6-8.93a49.58 49.58 0 0 1 4-4.79c7.41-8 14.92-15.9 23.81-22.33 2.91-2.1 5.66-4.43 8.64-6.42 3.8-2.54 7.76-4.84 11.63-7.26a39.2 39.2 0 0 1 3.52-2.29c3.15-1.49 6.36-2.89 9.58-4.21 1.26-.52 1.57-.14 1.3 1.32-.14.79-.38 1.55-.5 2.34-.48 3.07-1.82 4.86-5.12 6a49.77 49.77 0 0 0-13.57 7c-2.62 2-5.49 3.65-8 5.75-3.91 3.26-7.76 6.61-11.37 10.19-3.91 3.87-7.67 7.92-11.23 12.12-4.51 5.33-8.89 10.79-13.06 16.4a113 113 0 0 0-6.53 10.47c-3.8 6.47-7.78 12.84-11.19 19.5-3.5 6.86-6.37 14-9.58 21-2 4.28-4.09 8.47-6 12.76-1.47 3.27-2.63 6.68-4.16 9.92a44 44 0 0 1-3.46 5.56c-.64.95-1.35.72-1.84-.2a20.34 20.34 0 0 1-1.75-3.49c-2.17-6.93-4.33-13.86-6.33-20.84-2.24-7.89-4.47-15.78-6.4-23.75-1.51-6.22-2.67-12.53-3.73-18.85-.76-4.53-1.15-9.12-1.57-13.7-.18-2.07 0-4.17 0-6.25z"/><path class="b" d="M484 619.46c3 .14 8 .43 13 .59 5.81.17 11.62.17 17.43.37a41.3 41.3 0 0 1 5.27.85 34.88 34.88 0 0 1-1 5.54c-2.32 6.72-7.14 11.72-12.83 15.39a51.24 51.24 0 0 1-15.39 6.48 85.2 85.2 0 0 1-24.93 2.52c-4.77-.26-9.58-.26-14.31-.9-5.91-.79-11.76-2.13-17.64-3.22-1.61-.3-1.95-1.24-1.87-2.8.26-4.78.35-9.57.48-14.36a13.52 13.52 0 0 0-.17-2.1c-.3-2.19.15-2.92 2.12-3.34 5.07-1.07 10.1-2.38 15.22-3.14 4.93-.73 9.94-1 14.92-1.26 5.88-.31 11.79-.39 19.7-.62z"/><path class="d" d="M570.23 584.57l-1.69.17-3.2.35a.69.69 0 0 0-.46.13l-1.32.5c-2.44-.18-4.31 1.33-6.4 2.17-.65.26-1.23.7-1.89.91-.16.05-.76-.65-.72-.71.43-.63.83-1.47 1.46-1.75 4.38-1.94 8.75-3.92 13.25-5.56 3.17-1.16 4.66-4.29 2.23-6.58-4.55-4.27-6.72-9.88-9.62-15.1a95.61 95.61 0 0 1-7-16.53c-1.16-3.5-3-6.76-4.56-10.13a3.47 3.47 0 0 1-.11-1 5.78 5.78 0 0 1 .83.28c2.29 1.22 4.62 2.37 6.82 3.74a3.21 3.21 0 0 1 1.25 2.17 35.17 35.17 0 0 0 2.61 9.84 93.89 93.89 0 0 0 9.52 18.68 81.56 81.56 0 0 0 8 9.72 24.72 24.72 0 0 0 5.65 4.41c5.77 3.39 12.52-1.53 13.27-6 .13-.79.47-1.54.59-2.33a7.83 7.83 0 0 0-1.14-6c-.85-1.22-2.24-2.38-1.87-4.21v.05c2.27 1 4.55 2 6.78 3.13a4.83 4.83 0 0 1 1.39 1.42c.36.47.59 1 1 1.51 2 2.63 2.88 2.52 4.75-.3 1-1.48 2.38-2.68 3.36-4.16a26 26 0 0 0 1.68-3.76 6 6 0 0 1 .45-.71c.12.21.32.4.35.62a40.48 40.48 0 0 1 .54 4.77 5.65 5.65 0 0 1-2.4 5.21 3.27 3.27 0 0 0-1 1c-1.61 2.84-.15 5.23 3.29 5 5.3-.36 10.6-.93 15.37-3.63a4.11 4.11 0 0 1 1-.28 3.8 3.8 0 0 1-.3.84c-1.79 2.81-3.69 5.52-7.07 6.63a9.54 9.54 0 0 1-2.57.66c-4.06.09-6.79 2.72-9.68 5a2.24 2.24 0 0 0-.06 3.48 41.31 41.31 0 0 0 4.92 4.33c2.63 2 5.27 4 8.53 4.9 1.93.51 3.88.92 5.81 1.42.24.06.42.35.63.53-.22.11-.45.34-.66.32-5-.45-10.24.9-15.14-1.45a11 11 0 0 0-4.12-.68c-2-.1-3.21 1.15-2.47 3 1.55 4-.06 7.7-.73 11.49-.08.42-.56.76-.86 1.14a7.24 7.24 0 0 1-1.07-.91q-3.48-4.24-6.92-8.55c-.9-1.13-1.83-2.27-3.47-1.84a4.52 4.52 0 0 0-3 3.08 5.81 5.81 0 0 0-.21 1.19 9.66 9.66 0 0 1-4.73 7.28l-1.21.62-.64.57c-1.18 1.65-2.35 3.31-3.53 5l-1 .16 1.14-5 .42-.46c.08-.44.17-.89.25-1.33l.26-.51c.86-1.33 1.72-2.67 2.6-4 2.11-3.16 4.34-6.25 4.26-10.33a6.83 6.83 0 0 0-1.3-4.5c-1.78-2.15-3.45-4.38-5.24-6.53a3 3 0 0 0-1.54-.83c-2.71-.64-5.44-1.2-8.15-1.79a6.36 6.36 0 0 0-5.21.03zm38.07 3.34a19.49 19.49 0 0 0-1.24-4.25c-1.82-3.43-6.93-5.11-10-1.7a8.21 8.21 0 0 0 1.39 11.9c1.89 1.33 4 1.82 6.2.5a6.88 6.88 0 0 0 3.65-6.45z"/><path class="b" d="M450.53 166.16c-.39 4.26-.73 8.51-1.2 12.76a3.55 3.55 0 0 1-1.19 1.93c-2.36 2.15-4.85 4.16-7.2 6.33-3.29 3-6.51 6.14-9.73 9.26-2.08 2-4.09 4.09-6.15 6.12a.9.9 0 0 1-.79.2c-.16-.07-.21-.47-.27-.73a2.41 2.41 0 0 1 0-.6c.22-6.1.4-12.2.71-18.29q.29-5.69.88-11.36c.45-4.37 1.13-8.72 1.57-13.08s.7-8.53 1-12.79a2.83 2.83 0 0 1 0-.59 18.84 18.84 0 0 0 .76-7.39c-.11-1 .11-1.73 1.54-1.29 2.19.68 4.56.86 6.66 1.72a17.86 17.86 0 0 1 9.91 10 39.54 39.54 0 0 1 3.5 17.8zM212.06 560.68c1.1 0 3-.55 3.93.16s.85 2.7 1.29 4.11c1 3.24 2.19 6.44 3 9.73 1.22 4.66 4.45 8.24 6.41 12.5 1.37 3 3.54 5.55 5.14 8.43 2 3.6 5.34 5.92 7.95 8.93a95.38 95.38 0 0 0 11.57 11.25c5.25 4.3 10.73 8.25 16.2 12.23a52.4 52.4 0 0 0 4.68 2.67c.22.13.33.45.49.69-.26.09-.52.29-.75.26a118.9 118.9 0 0 1-12.09-2.14c-1.65-.45-2.92-2.29-4.36-3.5-4.57-3.85-9.15-7.69-13.7-11.57-.75-.64-1.33-1.49-2.06-2.17-2.32-2.18-4.84-4.17-7-6.52-3-3.32-5.82-6.83-8.52-10.4-2.36-3.1-4.56-6.33-6.64-9.62-3.77-6-6.11-12.6-8.46-19.2a15.48 15.48 0 0 1-.48-2.65c-.5-3.48-.5-3.48 3.4-3.19z"/><path class="c" d="M268.05 529.77c-.67.51-1.18 1-1.74 1.31-2.19 1.37-4.5 2.57-6.57 4.09a39.09 39.09 0 0 0-6.56 5.58 25.68 25.68 0 0 1-13.62 8.2c-3.29.8-6.61 1.46-9.94 2.11a1.72 1.72 0 0 1-1.43-.43c-1.78-2.52-3.47-5.11-5.17-7.69a8.91 8.91 0 0 1-.83-1.59c-.33-.87-.18-1.59.87-1.84l.29-.07c7-1.56 13.22-5 19.47-8.32s13.06-4.22 20.05-3.69a16.42 16.42 0 0 1 4.24 1.38c.32.11.52.52.94.96zm74.32-177.17c3.81.38 8.5.72 13.14 1.37 2.65.37 2.75.84 2.38 3.39-.31 2.08-.47 4.18-.76 6.26-.15 1.08-.43 2.14-.66 3.22s-.87 1.4-1.9 1.57a34 34 0 0 1-15.95-1.41 92.36 92.36 0 0 1-9-3.43 18.12 18.12 0 0 1-3.16-2.23c-1.62-1.16-3.29-2.27-4.86-3.5a6.56 6.56 0 0 1-1.14-1.64 6.81 6.81 0 0 1 1.51-.79c3.3-.77 6.59-1.67 9.94-2.15 3.19-.45 6.4-.43 10.46-.66z"/><path class="d" d="M169 586.52a16.3 16.3 0 0 1 3.79-8.63 40.48 40.48 0 0 1 13.66-10.51 8 8 0 0 1 1.65-.71 19 19 0 0 1 2.27-.27c-.39.59-.78 1.2-1.18 1.79-2 2.86-4.09 5.6-5.79 8.6s-2.89 6.13-4.34 9.2a8.87 8.87 0 0 1-4.65 4.45 4 4 0 0 1-5.41-3.92z"/><path class="b" d="M460.37 138c2.44.43 4.9.8 7.33 1.3a57.88 57.88 0 0 1 18.21 6.7c1.33.79 1.29.83-.06 1.6-1.8 1-3.6 2.1-5.38 3.18a2.25 2.25 0 0 1-2.53.12c-.61-.35-1.29-.57-1.9-.91a61.38 61.38 0 0 0-13.19-4.84 18.46 18.46 0 0 0-4.47-.37c-1.42 0-2-.68-1.92-2v-.3c.11-1.28-.18-2.86.47-3.73.47-.63 2.2-.33 3.37-.44z"/><path class="d" d="M356 618.42a22.38 22.38 0 0 1 13.27 3.5c.87.56.28.79-.12.91-2.66.86-5.3 1.83-8 2.44-6.23 1.41-12.51 2.64-18.77 3.92a9.23 9.23 0 0 1-1.4.09c0-.57-.25-1.25 0-1.7 1.52-3 3.46-5.57 6.56-7.11a16.89 16.89 0 0 1 8.46-2.05zm34.92-9.42c4.3.54 8.82-.09 12.79 2.33.9.55 1.32 1 .1 1.57a10.09 10.09 0 0 1-1.6.82c-4.23 1.22-8.48 2.36-12.71 3.58-3.27.94-6.53 2-9.8 2.92-2.17.63-2.36.4-1.91-1.85 1.16-5.86 7.17-8.83 11.63-9.37h1.5z"/><path class="b" d="M548.63 176.15a32.92 32.92 0 0 0-7.26-4.63c-4.86-2.09-9.92-2-15-1.88-1.89.06-2.07 0-2.07-1.89 0-1.6.13-3.2.18-4.8 0-1.2.46-1.84 1.84-1.58 2.82.52 5.67 0 8.56.88 6.1 1.93 10.89 5.26 13.92 11l.38.48 1.12 1.94z"/><path class="d" d="M442.05 602.81a9.7 9.7 0 0 1-1.19.48l-10.3 1.84a4.19 4.19 0 0 0-1.44.38c-3.92 2.45-8.67 2.25-12.82 4a6.54 6.54 0 0 1-1.47.33c-1.05.17-1.36-.51-.95-1.23.92-1.63 1.73-3.53 3.13-4.63 5.41-4.31 11.54-5.68 18.27-3.55 1.9.6 3.79 1.23 5.67 1.86a10.4 10.4 0 0 1 1.1.52zm-124.67 29.97c-2.79.19-5.58.39-8.37.56a18.39 18.39 0 0 1-2.1 0c-.9-.05-1-.61-.48-1.16 3.78-3.78 8.08-6.41 13.68-6.46a19.67 19.67 0 0 1 12.26 4c.27.2.39.61.58.92a3.29 3.29 0 0 1-.76.31c-3.93.6-7.87 1.19-11.81 1.74-1 .14-2 .12-3 .17zm177.2-33.46c-3.48 0-6.78.08-10.07 0-1.62-.06-1.7-.45-1-1.84 1.26-2.44 3.74-3 6-3.56a21.74 21.74 0 0 1 16.49 2.24c1.24.69 2.12 2 3.12 3.1.17.18.16.54.23.81a5.26 5.26 0 0 1-.89.08zm31.61-4.12c5.4-.56 9.71 1.5 13.2 5.51.65.75.55 1.3-.5 1.36a22.58 22.58 0 0 1-3.29 0c-5.63-.41-11.25-.86-16.88-1.31-.39 0-.78-.13-1.18-.2-1-.18-1.11-.57-.42-1.34 2.12-2.35 4.3-4.51 7.88-3.9a4.49 4.49 0 0 0 1.19-.12zM454 601.51l-1.74-.2a6.71 6.71 0 0 1 .64-1.91 9.47 9.47 0 0 1 5.8-3.71 23.37 23.37 0 0 1 13.78 1.11c.46.17 1.05.2 1.38.51a13 13 0 0 1 1.38 1.82 11.56 11.56 0 0 1-1.9.5c-6.45.55-12.9 1.06-19.35 1.58zm-171.43 24.9c6.23.37 11 2 15.14 5.16a6 6 0 0 1 1 1.33 5.69 5.69 0 0 1-1.52.36c-3.88-.13-7.76-.35-11.65-.46a5.35 5.35 0 0 1-4.24-1.73 31.46 31.46 0 0 0-4.24-3.31 3.09 3.09 0 0 1-.52-.66 2.56 2.56 0 0 1 .74-.3c2.13-.17 4.22-.32 5.29-.39z"/><path class="b" d="M557.21 574.71q.3-4.77.61-9.53a6.85 6.85 0 0 1 .13-.79c.22.15.52.25.66.46 2.26 3.28 4.51 6.55 6.71 9.87.19.29.12 1.15-.06 1.23-2.33 1.07-4.68 2.11-7.09 3-1 .37-1.42-.14-1.19-1.27a24.43 24.43 0 0 0 .23-2.97zm-72.49-414.77a4.51 4.51 0 0 1-.94.63q-2.64.93-5.31 1.77a21.54 21.54 0 0 1-2.12.44 6.46 6.46 0 0 1 1-2.08 16.21 16.21 0 0 1 4-2.79 2.49 2.49 0 0 1 3.37 2.03zM418.79 132a17.57 17.57 0 0 1 2.62.5 12.11 12.11 0 0 1 2 1.19c-.67.16-1.35.3-2 .5-1.9.56-3.8 1.13-5.69 1.73-.75.24-1.47.6-2.22.83a1.22 1.22 0 0 1-.78-.2.69.69 0 0 1 .09-.53c1.64-1.87 3.19-3.89 5.98-4.02z"/><path class="a" d="M251.49 483.93l-5.16-.07a6.27 6.27 0 0 1 5.16.07zm297.14-307.78l1.65-.52a8.33 8.33 0 0 1 .76 1.23.9.9 0 0 1-.18.77c-.11.11-.56 0-.73-.1-.53-.42-1.01-.91-1.5-1.38zm21.6 408.42a6.36 6.36 0 0 1 5.06-.08zm-4.89.52l3.2-.35zm-320.5-101.02l-1.54.46zM543.12 300.4l-.47 1.56zM257 485.06l-1.54-.43zm-2.47-.66l-.92-.37zm309.03 101.32l1.32-.5zm24.17 28.36l1.21-.62zm-5.14 5.69l1-.16c-.29.5-.51 1.12-1 .16zM260 486.94l-.88-.5zm-1.87-1.18zm-15.66-1.07l-1 .34zm342.19 127.77l-.26.51zm-.51 1.84l-.42.46zm2.93.36l.64-.57zm-37.92-440.97l-.38-.48z"/><path class="b" d="M595.68 561.66l-.33-.08s.11-.05.13 0a1.21 1.21 0 0 1 .16.16z"/><path class="a" d="M551.2 178.86l.16-.06-.02.17-.14-.11zM252.65 484.03l-.13.19-.13-.2.26.01zm-11.99 1.2l-.48.21a.35.35 0 0 1 .48-.21z"/><path d="M503.16 499.86a18.79 18.79 0 0 0-12.38 4.47c-3.53 3-4.8 7-5.91 11.17a2 2 0 0 0 .87 2.31c.73.55 1.06 1.38.33 2.05a2.38 2.38 0 0 1-1.83.37c-2.76-.48-5.5-1.05-8.24-1.64-4.34-.92-8.59-.24-12.73 1a15.07 15.07 0 0 0-9.24 7.17c-1.08 1.91-2.16 3.81-3.26 5.7-1.42 2.44-2.44 2.54-5 1.43a26.76 26.76 0 0 0-8.31-2.24 37.31 37.31 0 0 0-18.12 2.78 35.11 35.11 0 0 0-7 4.08c-2.61 2-5.39 3.75-7.27 6.61-2.61 4-5.39 7.84-8.15 11.72-1.1 1.55-2.31 3-3.51 4.5-.83 1-1.65 1.11-2.82.27a14.88 14.88 0 0 0-9.77-3c-4.8.24-9.57.26-14.28 1.61a36.78 36.78 0 0 0-9.17 3.66c-4.28 2.58-8.51 5.16-12.1 8.74a26.07 26.07 0 0 1-5.76 3.78 6.56 6.56 0 0 1-2.89.67c-1.7.05-1.87-.47-1.69-2.21.24-2.41 1.8-3.89 3.28-5.5 2.51-2.71 5-5.46 7.45-8.2a121.39 121.39 0 0 0 8.14-9.16c3-4 6.95-7.14 9.59-11.48 1.9-3.14 4.63-5.77 6.94-8.67 6-7.58 12.16-15.09 18-22.8a68.7 68.7 0 0 0 8-13c1.36-3 3.26-5.74 4.92-8.6 2.37-4.06 4.81-8.09 7.12-12.18 3.93-7 7.79-14 11.67-20.95 3.16-5.69 5.65-11.69 8.42-17.57a191.45 191.45 0 0 0 7.59-19.86c1.06-3.1 2.59-6 3.73-9.11 1.4-3.75 2.66-7.55 3.87-11.36q3.7-11.75 7.29-23.54a175.52 175.52 0 0 0 4.52-19.53c.6-3.23 1.62-6.39 2.31-9.61.61-2.83 1-5.71 1.51-8.56a7.91 7.91 0 0 1 .21-1.79c.29-.64.74-1.5 1.3-1.67 1.14-.34.86.85 1.22 1.45 2.74 4.41 2.68 9.51 3.82 14.32 1.71 7.19 3.74 14.3 5.46 21.49 1.63 6.82 3 13.7 4.54 20.53 1.16 5.07 2.47 10.11 3.66 15.17 1.16 4.87 2.18 9.78 3.41 14.63 1 4 2.28 7.89 3.3 11.86 1.21 4.65 2.16 9.36 3.41 14 2.08 7.63 4.2 15.25 6.52 22.8 1.11 3.63 2.85 7.05 4 10.65 2 5.94 5.27 11.22 7.81 16.86a6.52 6.52 0 0 1 .53 1.71c.21 1.39-.22 2.4-1.8 2.53-1.14.03-2.33.07-3.51.14zM425 526.28c-1.09.44-2.2.86-3.27 1.35-.2.09-.26.48-.39.73.28.08.59.28.83.21 2-.56 3.95-1.18 5.93-1.78a18.83 18.83 0 0 1 3.22-.48c3.09.07 6.17.24 9.25.44 1.35.08 2.68.32 4 .49l.66-4.39c0-.3.07-.6.13-.89.29-1.52-.44-2-1.83-1.81-2 .3-3.94.55-5.88 1-4.46.92-8.48 3.18-12.65 5.13zm-16.8-38.12c.95-.7 1.87-1.44 2.85-2.09a32.65 32.65 0 0 1 5.32-3.34c4.42-1.83 8.9-3.66 13.89-2.81a6.8 6.8 0 0 0 .9 0 2.26 2.26 0 0 0 2.4-1.81c.8-2.47 1.7-4.9 2.47-7.37.62-2 .43-2.22-1.67-2.34a41.52 41.52 0 0 0-15.09 2.1 8.5 8.5 0 0 0-5.7 5 16.58 16.58 0 0 1-1.2 2.07l-5.83 10.11c-1.08 1.09-2.23 2.15-2.23 3.87 2 .26 2.34-1.74 3.54-2.56.2-.2.24-.57.35-.83zm41.2 35.15a44.29 44.29 0 0 0 4.48-3.51 23.06 23.06 0 0 0 3.9-4.87c2.48-4.33 6.48-7 10.39-9.66 1.52-1 3.47-1.47 5.23-2.16.87-.33 1.76-.6 2.65-.9-.84-.65-1.64-1.37-2.53-1.94a5.65 5.65 0 0 0-1.72-.52 39.67 39.67 0 0 0-13.13-.49 23.08 23.08 0 0 0-5.25 1.25 3.89 3.89 0 0 0-2.87 4c0 3.79-.43 7.58-.67 11.37l-.48 7.43zm-7.16-32.59v-.28l-5.32.74c-2.84.41-4.59 2.16-5.75 4.65-.51 1.08-1.1 2.13-1.57 3.23-1.35 3.13-2.65 6.27-4 9.41-.33.78.15.86.71.74a5.28 5.28 0 0 0 1.11-.45c4.26-2 8.8-2.43 13.43-2.32 1.08 0 2.15.37 3.24.49 1.26.13 2.18-.19 2-1.77-.33-3.89 1.1-7.67.6-11.59-.28-2.21-.31-2.58-2.4-2.84a16.34 16.34 0 0 0-2.05-.01zm-45.78 28.78c-2.82.33-6.08.69-9.32 1.14-.37.05-.72.62-1 1-1.63 2.24-3.28 4.48-4.86 6.76-.74 1.06-1.35 2.21-2 3.33a2.64 2.64 0 0 0-.19.56c.26 0 .56.14.78.05a41.49 41.49 0 0 1 12.43-2.87 124.68 124.68 0 0 1 14.34-.16c2.44.07 2.44.35 3.53-1.92.21-.45.38-.93.57-1.39.37-.85 1.24-1.91 1-2.51a5.26 5.26 0 0 0-2.36-2.08c-.93-.54-2.05-.71-3-1.16-3.11-1.38-6.38-.4-9.92-.75zM420 498.32c5.23-.07 5.23-.07 6.54-3.38.69-1.77 1.44-3.51 2.09-5.29.59-1.58 1.12-3.19 1.61-4.81.28-.89-.11-1.41-1.07-1.19a32.18 32.18 0 0 0-6.07 1.56c-9.26 4.14-17.28 9.93-23.21 18.32a2.8 2.8 0 0 0-.26.72 3.69 3.69 0 0 0 .82-.12c2.7-1 5.33-2.28 8.09-3.06 4.34-1.22 8.75-2.07 11.46-2.75zm-13.7 36.22a3.4 3.4 0 0 0-1-.42c-1.2-.06-2.41 0-3.61-.07-9.29-.48-18.08 1.19-26.13 6-3.28 2-6.29 4.25-8.28 7.63a3.56 3.56 0 0 0-.24.74 3.11 3.11 0 0 0 .81-.12c3-1.12 5.85-2.51 8.89-3.36 6.79-1.89 13.59-4 20.81-2.53a12.69 12.69 0 0 1 1.76.31 1.74 1.74 0 0 0 2.46-.91c1.21-2.07 2.56-4.06 3.85-6.09.22-.29.38-.65.7-1.18zm37.19-91.33c-.79.14-1.57.33-2.36.43-3.29.43-5.87 2.45-8.74 3.82a16 16 0 0 0-8 8.56c-.47 1.11-.52 1.82.83 1.75 2.83-.15 5.19 1.23 7.67 2.2 1.48.58 2.85 1.45 4.32 2.08 1.68.73 2 .61 2.7-1.11s1.17-3.6 1.72-5.41q1.61-5.31 3.18-10.62c.35-1.12-.01-1.77-1.3-1.7zm-44.75 71.14a30.43 30.43 0 0 1 12 2.19c1.2.5 2.3 1.23 3.51 1.69a1.53 1.53 0 0 0 1.42-.42c2.21-4.14 4.39-8.3 6.46-12.51 1-1.94.7-2.3-1.48-1.91-2.73.49-5.39 1.39-8.13 1.84a38 38 0 0 0-18 8.38c-.2.16-.27.48-.4.72.23.12.47.35.69.33 1.36-.07 2.65-.2 3.95-.31zm53.07-28.43v1.91c.55-.48 1.12-.94 1.66-1.43 1.65-1.47 3.28-3 4.92-4.42 2.64-2.36 5.44-4.39 9.19-4.51.69 0 1.38-.27 2.08-.31 1.42-.07 1.91-.81 1.76-2.16-.28-2.49-.56-5-.75-7.47-.09-1.21-.71-1.26-1.62-1-1.25.36-2.48.81-3.75 1.05-3.65.68-6.74 2.54-9.69 4.62a6.15 6.15 0 0 0-3 5.17c-.07 2.78-.5 5.57-.78 8.55zm22.61-23v2.11c.1 2.32.3 2.53 2.42 1.49a12 12 0 0 1 7.3-1.12 37.19 37.19 0 0 1 5.53 1.25c1.38.44 1.32-.1 1-1.06-1.27-4.42-2.56-8.84-3.81-13.27-.26-.92-.62-1.44-1.67-1-1.9.87-3.88 1.59-5.72 2.57-3.47 1.91-5.05 5.05-5.03 9.01zm-20.17 31.93a30.34 30.34 0 0 1 9-1c3.36.25 6.74 0 10 1 1 .34 1.48-.08 1-.92-1.46-2.68-1.08-5.66-1.49-8.49-.78-5.46-.52-4.83-5.71-3.28a3.74 3.74 0 0 0-.8.4c-5.05 2.97-9.66 6.33-11.98 12.27zm21.31-19c.25 1.79.46 3.57.76 5.35a19.9 19.9 0 0 0 .62 2.26c.7-.47 1.4-.94 2.09-1.43a6.15 6.15 0 0 1 1.19-.89c4.41-1.71 8.5-4.56 13.58-4 .92.1 1-.32.73-1.06-.85-2.45-1.51-5.07-5-4.91-.17 0-.36-.2-.54-.22a51.89 51.89 0 0 0-7.72-.65c-4.27.23-5.85 1.99-5.69 5.52zm-32.63-37h1.28c2.37 0 2.39 0 3-2.3s1.27-4.84 2-7.23c.38-1.28.09-1.7-1.3-1.86-4.12-.5-7.51 1.64-11.16 2.82-.16.05-.3.28-.38.45-1.64 3.64-3.28 7.27-4.86 10.93 0 .07.6.62.85.57.46-.1.83-.56 1.29-.71 3.09-1.05 5.87-3.15 9.35-2.67zm-78.45 116.49c6.93-.68 13.16-2.74 19.76-1.51 2.16.41 4.3.42 6.2 1.72a1.61 1.61 0 0 0 1.49.05c2.1-2.39 4.23-4.76 5.51-7.75.3-.7.36-1.16-.57-1.12-2.39.11-4.86-.09-7.14.45-4.84 1.15-9.86 1.49-14.55 3.35a64.62 64.62 0 0 0-10.7 4.81zM471 437.32c.26 1.67.52 3.35.77 5 .19 1.24.8 1.68 2.08 1.34a13.73 13.73 0 0 1 8.81.59 3.15 3.15 0 0 0 1.47.24c.26 0 .71-.56.66-.76-1-4.08-2-8.16-3.11-12.21a1.9 1.9 0 0 0-1.38-1.17 11.3 11.3 0 0 0-7.21 2.52c-1.24 1.13-2.59 2.42-2.09 4.45zm-1.35 21.89h.15c-.27-2.08-.59-4.16-.76-6.25-.12-1.41-.71-1.6-2-1.29-4.66 1.14-7.72 4.38-10.76 7.77a10.7 10.7 0 0 0-2.53 6.57 5.82 5.82 0 0 0 .22 1.4c.45-.15 1-.18 1.34-.47 3.58-3.42 8-4.4 12.73-4.43 1.35 0 1.83-.5 1.68-1.77-.09-.52-.09-1.03-.12-1.53zm-28.44 52.09c-4.58.45-8.76.1-12.54 2.09a25.3 25.3 0 0 1-3.23 1.57c-4.47 1.61-6.37 5.5-8.36 9.31a2 2 0 0 0 0 .81 6.51 6.51 0 0 0 .78-.27c3.37-1.75 6.71-3.53 10.09-5.25a36.34 36.34 0 0 1 16.65-4.19 1.53 1.53 0 0 0 1.12-.87 1.78 1.78 0 0 0-1.22-2.38c-1.25-.39-2.5-.63-3.29-.82zm40.57-18.76a6.76 6.76 0 0 0-.9 0c-2.16.28-2.48.68-2 2.82.61 2.94 1.29 5.86 2 8.79a7.67 7.67 0 0 0 .45 1.43c.69 1.59 1.21 1.67 2.18.29.8-1.15 1.31-2.57 2.3-3.49 3.13-2.93 6.21-6 10.65-7a3.06 3.06 0 0 0 .74-.38 4.16 4.16 0 0 0-.9-.53 47.29 47.29 0 0 0-14.52-1.93zm-13.18-78.35c.24 2.38.37 4.27.65 6.13.07.44.73 1.19 1 1.14 2.63-.51 4.76 1.11 7.15 1.52a16.18 16.18 0 0 0 1.71.09 6.18 6.18 0 0 0 0-1.66c-.71-3-1.49-6-2.26-9-1-3.84-1.71-4.18-5.09-2.07A13.06 13.06 0 0 0 469 413a2.35 2.35 0 0 0-.4 1.19zm32.13 75.95c-.18-.47-.24-.67-.32-.85-1-2.36-2-4.75-3.17-7.08a1.77 1.77 0 0 0-1.38-.78 26 26 0 0 0-14.71 5.36c-.34.25-.48.79-.71 1.2.39 0 .78.06 1.17.06a53 53 0 0 1 7.13.06c3.73.51 7.41 1.41 11.11 2.13a3.21 3.21 0 0 0 .88-.1zm-52.54-9.22h-.14a11.1 11.1 0 0 0-.05-2.38c-.09-.46-.6-1.13-1-1.17a23.75 23.75 0 0 0-5.94-.2 5.61 5.61 0 0 0-3.29 2.23A34.43 34.43 0 0 0 435 485a1.85 1.85 0 0 0 0 1.31c.06.13.73.11 1.1 0 3.23-.69 6.44-1.19 9.68 0 1.14.41 1.65-.16 1.78-1.27.22-1.37.44-2.74.63-4.12zm1.75-20.2c-.22-.66.81-2.27-.87-1.81-1.85.51-3.88 1.37-4.75 3.24-1.39 3-2.44 6.13-3.64 9.2-.27.68-.22 1.13.66 1.21 1.78.15 3.57.28 5.34.52 1.5.19 2.18-.35 2.3-1.89.26-3.49.63-6.97.96-10.47zm13.33-24.38v.09h1.51c1.91 0 2 0 1.81-1.91-.31-3.09-.79-6.16-1.14-9.24-.15-1.23-.57-1.29-1.52-.63-5.44 3.8-5.49 3.86-6.11 10.36-.23 2.32-.21 2.29 2.18 1.68a23.39 23.39 0 0 1 3.27-.35zm4.64 9.6c-.05-3.29-1-4.53-3.64-4.68a22.82 22.82 0 0 0-5.3.61 2.36 2.36 0 0 0-2 2.25c-.23 1.77-.68 3.51-.91 5.28a18.48 18.48 0 0 0 0 2.88 16.82 16.82 0 0 0 2.56-1.35c2.46-1.91 4.93-3.69 8.19-4 .49-.06.93-.82 1.1-.99zm-8.39-26.14h.15a2.46 2.46 0 0 0-.07.6c0 .46.14.91.21 1.37a6.37 6.37 0 0 0 1.4-.34c3.21-1.6 3.61-2.43 3-6-.13-.79-.2-1.59-.26-2.38-.34-4.47-.63-8.94-1-13.4a33.18 33.18 0 0 0-.76-3.8c0-.2-.06-.4-.08-.6a.56.56 0 0 1 0 .12v.89q-1.29 11.74-2.59 23.54zM449.11 405a8.11 8.11 0 0 1-1.33.07c-1.69-.21-2.45.55-3 2.16-1 3-2.3 5.95-3.44 8.93a4.5 4.5 0 0 0-.14 1.11c.42-.15 1-.18 1.23-.48a14.36 14.36 0 0 1 9-5c.52-.09 1.32-.44 1.43-.82.41-1.51 1.17-3.32.66-4.55-.36-.87-2.55-1-3.94-1.42a1.2 1.2 0 0 0-.47 0zm17.62-16.35h-.25c.14 1.19.28 2.37.43 3.56.49 3.94.47 3.88 4.24 2.63 1.07-.36 1.48-.66 1.2-1.84-.65-2.81-1.18-5.64-1.75-8.46s-1.18-2.9-3.39-1.21a2.11 2.11 0 0 0-.84 2.35c.2 1 .24 2 .36 2.99zm11 124.73c1.3.28 1.7-.36 1.35-1.47a45.38 45.38 0 0 0-1.76-4.73 1.5 1.5 0 0 0-1.38-.47 24.59 24.59 0 0 0-9.16 5.43 3.67 3.67 0 0 0-.54 1 4.52 4.52 0 0 0 1.14.12 24.73 24.73 0 0 1 10.38.14zm-29.17-58.89c2.22 0 2.27 0 2.62-2.18q.87-5.61 1.62-11.23a10 10 0 0 0-.18-2.16 24.46 24.46 0 0 0-1.91 1.75c-.23.26-.17.77-.29 1.14q-1.69 5.42-3.4 10.82c-.45 1.52-.16 1.88 1.57 1.88zm16.18-93.09l-.28.06v3.72c0 1.24.19 2.57.29 3.85.24 3 .48 5.93.73 8.89.08 1.06.53 1.31 1.59.94 1.3-.47 2.08-.9 1.51-2.55s-.72-3.5-1.18-5.23c-.8-3.22-1.73-6.44-2.63-9.66zm10.29 42.68c-.4-1.77-.64-3.14-1-4.48-.44-1.54-1.17-1.8-2.26-.74s-1.67 2.53-3.46 2.59c-.17 0-.47.61-.47.94a27.81 27.81 0 0 0 .23 3.28c.11.92.56 1 1.46.67 1.37-.55 2.85-.8 4.25-1.29a5 5 0 0 0 1.28-.95zm-18.73-14.46a2 2 0 0 0-1.63-2.2c-2.64-.81-3.2-.53-3.85 2.23a7.89 7.89 0 0 0-.41 1.73c0 .41.28 1.06.6 1.18 1.44.55 2.94.94 4.42 1.39zm-4.3 28.15c.11-1.14-.2-1.65-1.34-1.19a7.21 7.21 0 0 0-2.07 1.1c-1.49 1.28-2.91 2.65-4.31 4-.11.12.09.81.17.82 1.95.12 3.9.19 5.85.26zm1.48-16.55l.78-.17a9.72 9.72 0 0 1-.55-1 4.86 4.86 0 0 0-3.93-2.84c-1.36-.27-2.21.66-2.36 2.55-.11 1.48 1 .85 1.65.94 1.42.2 2.81.3 4.45.52zm3.62-22.93l-.74-1.66c-.71.48-1.65.8-2.08 1.46a9.61 9.61 0 0 0-.93 2.83c-.6 2.24-.42 2.4 1.8 2.4a1.35 1.35 0 0 0 1.57-1.36c.18-1.09.28-2.19.42-3.67zm-28.73 84.94c-.29-.1-.56-.23-.85-.3a38.71 38.71 0 0 0-4.32-.93 3.21 3.21 0 0 0-3.78 2.86c0 .17.43.65.58.61 2.58-.65 5.15-1.35 7.73-2zm49.1-15.61a25.48 25.48 0 0 0-3.41 1 2.23 2.23 0 0 0-.73 3.51 1 1 0 0 0 .91 0c1.13-1.95 3.1-2.75 5-3.73.19-.1.26-.44.39-.67a5.43 5.43 0 0 0-.56-.09c-.31-.04-.61-.02-1.56-.02zm-3.1-21.24a15.28 15.28 0 0 0-2.9-.42 1.76 1.76 0 0 0-1.29.88c-.19.48.07 1.13.13 1.7a10 10 0 0 0 1.53-.56c.8-.41 1.52-.93 2.57-1.6zm-16.63-56.88c-.08-.31-.24-1-.41-1.72-.36.66-.75 1.31-1.05 2a3.49 3.49 0 0 0-.37 1.43 4.07 4.07 0 0 0 .46 1.24 4.77 4.77 0 0 0 1.17-1.05 6 6 0 0 0 .2-1.9zm-3.19 59.35a2.12 2.12 0 0 0-.53-.46c-.08 0-.38.16-.42.3-.38 1.42-.75 2.84-1.07 4.27 0 .22.17.49.26.74.22-.15.58-.26.64-.46.4-1.42.73-2.86 1.12-4.39z"/><path d="M409.82 380.62a27.91 27.91 0 0 1 4.74-13.26 8.27 8.27 0 0 0 .86-1.23c2.64-6 6.95-10.78 11.23-15.51a50.38 50.38 0 0 1 14.26-11.38 8.7 8.7 0 0 1 2.78-1 2.51 2.51 0 0 1 2.07.64 2.32 2.32 0 0 1-.33 2.11 58 58 0 0 1-4.16 4.72 27.5 27.5 0 0 0-5.59 9.45c-2.1 5.36-1.76 10.77-1.75 16.27 0 4.17.53 8.34-.3 12.53-1 5.09-5.21 9.94-10.2 11a7 7 0 0 1-3.24-.18c-4.5-1.3-7.15-4.58-8.81-8.74a55.16 55.16 0 0 1-1.56-5.42zm7.2-7.32c-2.59 4.65-2.61 8.86.11 13.17 2 3.1 6.53 3.94 8.86 1.13 2.14-2.56 3-5.82 3.31-9.14.09-.85-.42-1-1.12-.59a8.88 8.88 0 0 0-.75.5c-2.58 2-7.38.89-9.22-2.68-.36-.69-.7-1.41-1.21-2.39zm-32.76 79.55c-.3-7.3 1.83-13.29 4.95-18.94 2.27-4.1 4.77-8.08 7.37-12a59.84 59.84 0 0 1 4.92-6 5.75 5.75 0 0 1 1.9-1.41 20.86 20.86 0 0 1 2.75-.84 10.68 10.68 0 0 1 .4 3.4 42.8 42.8 0 0 1-1.86 5.38 32.37 32.37 0 0 0-.69 20 58.75 58.75 0 0 1 1.57 8.55c.56 4.91-3.39 10.85-8.07 12.46-4.08 1.4-7.22-.42-10-3.07-3.06-2.92-3.3-3.76-3.24-7.53zm16.82-2.07s-.15-.61-.31-1.25a15.19 15.19 0 0 0-1.56 1.18c-2.38 2.37-6.56 2.06-9-.68-.31-.35-.68-.65-1-1-.14.47-.3.94-.42 1.42-.75 3.18 1.15 6.08 4.11 7.59 1.27.64 2.94 1.18 4.28.07 2.07-1.69 4.06-3.55 3.9-7.33zm93.22-122.56c4.84-.31 9.68-.75 14.53-.91a107.46 107.46 0 0 1 11.06.26c2 .14 3 1.74 2.14 3.36-.29.56-1.28 1.27-1.77 1.15-3.81-.91-7.56 0-11.33.21q-6.44.36-12.87.62c-4.09.18-8.18.32-12.27.45a8.55 8.55 0 0 1-2.09-.12 1.91 1.91 0 0 1-1.7-2.12 2.34 2.34 0 0 1 1.56-1.45c4.2-.81 8.43-1.47 12.65-2.17zm-19.08 8.18a2.86 2.86 0 0 1 .72.19c2.42 1.21 4.89 2.34 7.23 3.67 5.12 2.91 10.19 5.9 15.24 8.9q4.24 2.52 8.37 5.23c1.48 1 1.77 2.18 1 3.25s-1.92 1.13-3.49.27c-4.38-2.4-8.84-4.66-13.14-7.19-4.63-2.73-9.12-5.7-13.68-8.56a8.75 8.75 0 0 1-1.79-1.07 9.27 9.27 0 0 1-2-2.85c-.3-.85.18-1.79 1.54-1.84zm-4.33-7.89c-.74-.6-1.63-1-1.92-1.68a2.19 2.19 0 0 1 .63-2c3.34-2.53 6.69-5.06 10.19-7.36 4.14-2.73 8.4-5.3 12.69-7.81a14.22 14.22 0 0 1 4.21-1.41 2.12 2.12 0 0 1 1.63.93c.19.28-.12 1.18-.48 1.51a45 45 0 0 1-5.17 4.52q-7.5 5.17-15.2 10a70.8 70.8 0 0 1-6.58 3.3zm16.43 38.12c.08 1.89-1 2.75-2.45 2a4.79 4.79 0 0 1-2.34-2.15c-1.3-3.69-4.18-6.25-6.3-9.35-1.41-2.05-3.21-3.91-3-6.65a7.79 7.79 0 0 1 .76-2c.67.3 1.59.41 2 .93 2.51 3.21 5 6.46 7.32 9.81a67.44 67.44 0 0 1 3.49 5.94 8.32 8.32 0 0 1 .52 1.47zm27.39-105.73c-4.33-.67-8.06-1.22-11.78-1.84-3.06-.5-6.1-1.14-9.21-.5a1.54 1.54 0 0 1-.6 0c-4.92-1-9.51.54-14.16 1.81a18.79 18.79 0 0 0-6.95 4c-.61.49-1.2 1-1.85 1.48a2.85 2.85 0 0 1-4-.36c-1.7-1.57-1.89-2.2-.42-4 4.6-5.49 6.54-12 7.64-18.91a15.62 15.62 0 0 0-.6-8 12 12 0 0 1-.36-1.46c-1.22-5.56-1.24-5.65 3.91-7.69a31.46 31.46 0 0 0 12.63-9.32 35.56 35.56 0 0 0 6.84-12.83 12.13 12.13 0 0 1 2.59-4.62c1.42-1.54 2.89-1 3.51 1.09.82 2.77 1.46 5.61 2.38 8.35 1.52 4.6 4.63 8.12 8.24 11.2a6.56 6.56 0 0 0 1.89.88c.56.21 1.19.27 1.72.52 4.63 2.15 5.26 2.19 3.11 7-1.77 3.91-3.58 7.83-3.7 12.27-.13 4.82 0 9.59 2 14.08a19.43 19.43 0 0 0 1.25 2c1.4 2.27 1.06 3.38-1.5 4.31a12.14 12.14 0 0 1-2.58.54zM478 248.19c2.2-2.15 4.41-4.29 6.6-6.44 4.45-4.36 9.12-8.46 14.64-11.39 3.25-1.73 6.71-3.07 10.09-4.56 1.57-.69 1.66-.79.26-1.85a29.26 29.26 0 0 1-9-11.74 15.45 15.45 0 0 0-1.27-2c-.47.57-1 1.12-1.38 1.72-.56.82-1.07 1.69-1.58 2.54a38.13 38.13 0 0 1-16.94 15.12c-2 1-2.18 1-1.63 3 1.35 5.13.85 10.15.21 15.6zm130.3 339.72a6.88 6.88 0 0 1-3.66 6.45c-2.17 1.32-4.31.83-6.2-.5a8.21 8.21 0 0 1-1.39-11.9c3.08-3.41 8.19-1.73 10 1.7a19.49 19.49 0 0 1 1.25 4.25z"/><path class="b" d="M449.4 523.31c.12-1.87.3-4.63.48-7.39.24-3.79.67-7.58.67-11.37a3.89 3.89 0 0 1 2.87-4 23.08 23.08 0 0 1 5.25-1.25 39.67 39.67 0 0 1 13.13.49 5.65 5.65 0 0 1 1.72.52c.89.57 1.69 1.29 2.53 1.94-.89.3-1.78.57-2.65.9-1.76.69-3.71 1.11-5.23 2.16-3.91 2.7-7.91 5.33-10.39 9.66a23.06 23.06 0 0 1-3.9 4.87 44.29 44.29 0 0 1-4.48 3.47zm-42.86-35.69l5.83-10.11a16.58 16.58 0 0 0 1.2-2.07 8.5 8.5 0 0 1 5.7-5 41.52 41.52 0 0 1 15.09-2.1c2.1.12 2.29.34 1.67 2.34-.77 2.47-1.67 4.9-2.47 7.37a2.26 2.26 0 0 1-2.4 1.81 6.8 6.8 0 0 1-.9 0c-5-.85-9.47 1-13.89 2.81a32.65 32.65 0 0 0-5.32 3.34c-1 .65-1.9 1.39-2.85 2.09zm35.7 3.1a16.34 16.34 0 0 1 2.1 0c2.09.26 2.12.63 2.4 2.84.5 3.92-.93 7.7-.6 11.59.14 1.58-.78 1.9-2 1.77-1.09-.12-2.16-.47-3.24-.49-4.63-.11-9.17.33-13.43 2.32a5.28 5.28 0 0 1-1.11.45c-.56.12-1 0-.71-.74 1.31-3.14 2.61-6.28 4-9.41.47-1.1 1.06-2.15 1.57-3.23 1.16-2.49 2.91-4.24 5.75-4.65l5.32-.74zm-45.78 28.78c3.58.35 6.81-.63 9.88.76 1 .45 2.11.62 3 1.16a5.26 5.26 0 0 1 2.36 2.08c.24.6-.63 1.66-1 2.51-.19.46-.36.94-.57 1.39-1.09 2.27-1.09 2-3.53 1.92a124.68 124.68 0 0 0-14.34.16 41.49 41.49 0 0 0-12.43 2.87c-.22.09-.52 0-.78-.05a2.64 2.64 0 0 1 .19-.56c.65-1.12 1.26-2.27 2-3.33 1.58-2.28 3.23-4.52 4.86-6.76.28-.39.63-1 1-1 3.28-.46 6.54-.82 9.36-1.15zM420 498.32c-2.73.64-7.14 1.53-11.46 2.75-2.76.78-5.39 2-8.09 3.06a3.69 3.69 0 0 1-.82.12 2.8 2.8 0 0 1 .26-.72c5.93-8.39 13.95-14.18 23.21-18.32a32.18 32.18 0 0 1 6.07-1.56c1-.22 1.35.3 1.07 1.19-.49 1.62-1 3.23-1.61 4.81-.65 1.78-1.4 3.52-2.09 5.29-1.29 3.31-1.29 3.31-6.54 3.38zm-13.68 36.22c-.3.53-.48.89-.69 1.22-1.29 2-2.64 4-3.85 6.09a1.74 1.74 0 0 1-2.46.91 12.69 12.69 0 0 0-1.76-.31c-7.22-1.5-14 .64-20.81 2.53-3 .85-5.93 2.24-8.89 3.36a3.11 3.11 0 0 1-.81.12 3.56 3.56 0 0 1 .24-.74c2-3.38 5-5.66 8.28-7.63 8.05-4.85 16.84-6.52 26.13-6 1.2.06 2.41 0 3.61.07a3.4 3.4 0 0 1 1.01.38zm37.19-91.33c1.29-.07 1.65.58 1.32 1.7q-1.57 5.31-3.18 10.62c-.55 1.81-1 3.65-1.72 5.41s-1 1.84-2.7 1.11c-1.47-.63-2.84-1.5-4.32-2.08-2.48-1-4.84-2.35-7.67-2.2-1.35.07-1.3-.64-.83-1.75a16 16 0 0 1 8-8.56c2.87-1.37 5.45-3.39 8.74-3.82.79-.1 1.57-.29 2.36-.43zm-44.75 71.14c-1.3.11-2.59.24-3.89.31-.22 0-.46-.21-.69-.33.13-.24.2-.56.4-.72a38 38 0 0 1 18-8.38c2.74-.45 5.4-1.35 8.13-1.84 2.18-.39 2.44 0 1.48 1.91-2.07 4.21-4.25 8.37-6.46 12.51a1.53 1.53 0 0 1-1.42.42c-1.21-.46-2.31-1.19-3.51-1.69a30.43 30.43 0 0 0-12.04-2.19zm53.07-28.43c.28-3 .71-5.77.76-8.56a6.15 6.15 0 0 1 3-5.17c2.95-2.08 6-3.94 9.69-4.62 1.27-.24 2.5-.69 3.75-1.05.91-.25 1.53-.2 1.62 1 .19 2.49.47 5 .75 7.47.15 1.35-.34 2.09-1.76 2.16-.7 0-1.39.29-2.08.31-3.75.12-6.55 2.15-9.19 4.51-1.64 1.46-3.27 2.95-4.92 4.42-.54.49-1.11 1-1.66 1.43zm22.61-23.02c0-4 1.53-7.1 5.09-9 1.84-1 3.82-1.7 5.72-2.57 1.05-.48 1.41 0 1.67 1 1.25 4.43 2.54 8.85 3.81 13.27.28 1 .34 1.5-1 1.06a37.19 37.19 0 0 0-5.53-1.25 12 12 0 0 0-7.3 1.12c-2.12 1-2.32.83-2.42-1.49-.06-.73-.04-1.43-.04-2.14zm-20.17 31.93c2.32-5.94 6.93-9.3 12-12.24a3.74 3.74 0 0 1 .8-.4c5.19-1.55 4.93-2.18 5.71 3.28.41 2.83 0 5.81 1.49 8.49.46.84 0 1.26-1 .92-3.26-1.08-6.64-.79-10-1a30.34 30.34 0 0 0-9 .95zm21.31-19.01c-.16-3.53 1.42-5.29 5.75-5.54a51.89 51.89 0 0 1 7.72.65c.18 0 .37.23.54.22 3.45-.16 4.11 2.46 5 4.91.25.74.19 1.16-.73 1.06-5.08-.57-9.17 2.28-13.58 4a6.15 6.15 0 0 0-1.19.89c-.69.49-1.39 1-2.09 1.43a19.9 19.9 0 0 1-.62-2.26c-.38-1.79-.55-3.57-.8-5.36zM443 438.85c-3.43-.48-6.21 1.62-9.29 2.67-.46.15-.83.61-1.29.71-.25 0-.88-.5-.85-.57 1.58-3.66 3.22-7.29 4.86-10.93.08-.17.22-.4.38-.45 3.65-1.18 7-3.32 11.16-2.82 1.39.16 1.68.58 1.3 1.86-.7 2.39-1.3 4.82-2 7.23s-.65 2.28-3 2.3zm-78.52 116.49a64.62 64.62 0 0 1 10.7-4.81c4.69-1.86 9.71-2.2 14.55-3.35 2.28-.54 4.75-.34 7.14-.45.93 0 .87.42.57 1.12-1.28 3-3.41 5.36-5.51 7.75a1.61 1.61 0 0 1-1.49-.05c-1.9-1.3-4-1.31-6.2-1.72-6.6-1.23-12.83.83-19.76 1.51zM471 437.32c-.45-2 .9-3.37 2.09-4.43a11.3 11.3 0 0 1 7.21-2.52 1.9 1.9 0 0 1 1.38 1.17c1.12 4 2.13 8.13 3.11 12.21.05.2-.4.73-.66.76a3.15 3.15 0 0 1-1.47-.24 13.73 13.73 0 0 0-8.81-.59c-1.28.34-1.89-.1-2.08-1.34-.3-1.67-.56-3.34-.77-5.02zm-1.4 21.89c0 .5 0 1 .09 1.51.15 1.27-.33 1.76-1.68 1.77-4.72 0-9.15 1-12.73 4.43-.31.29-.89.32-1.34.47a5.82 5.82 0 0 1-.22-1.4 10.7 10.7 0 0 1 2.53-6.57c3-3.39 6.1-6.63 10.76-7.77 1.27-.31 1.86-.12 2 1.29.17 2.09.49 4.17.76 6.25zm-28.39 52.09c.77.19 2 .43 3.27.82a1.78 1.78 0 0 1 1.22 2.38 1.53 1.53 0 0 1-1.12.87 36.34 36.34 0 0 0-16.65 4.19c-3.38 1.72-6.72 3.5-10.09 5.25a6.51 6.51 0 0 1-.78.27 2 2 0 0 1 0-.81c2-3.81 3.89-7.7 8.36-9.31a25.3 25.3 0 0 0 3.23-1.57c3.8-1.99 7.98-1.64 12.56-2.09zm40.57-18.76a47.29 47.29 0 0 1 14.43 1.95 4.16 4.16 0 0 1 .9.53 3.06 3.06 0 0 1-.74.38c-4.44 1-7.52 4.05-10.65 7-1 .92-1.5 2.34-2.3 3.49-1 1.38-1.49 1.3-2.18-.29a7.67 7.67 0 0 1-.45-1.43c-.66-2.93-1.34-5.85-2-8.79-.44-2.14-.12-2.54 2-2.82a6.76 6.76 0 0 1 .99-.02zm-13.18-78.35a2.35 2.35 0 0 1 .4-1.19 13.06 13.06 0 0 1 2.8-2.66c3.38-2.11 4.1-1.77 5.09 2.07.77 3 1.55 6 2.26 9a6.18 6.18 0 0 1 0 1.66 16.18 16.18 0 0 1-1.71-.09c-2.39-.41-4.52-2-7.15-1.52-.26.05-.92-.7-1-1.14-.29-1.86-.45-3.75-.69-6.13zm32.13 75.95a3.21 3.21 0 0 1-.88.1c-3.7-.72-7.38-1.62-11.11-2.13a53 53 0 0 0-7.13-.06c-.39 0-.78 0-1.17-.06.23-.41.37-.95.71-1.2a26 26 0 0 1 14.71-5.36 1.77 1.77 0 0 1 1.38.78c1.13 2.33 2.13 4.72 3.17 7.08.08.18.14.38.32.85zm-52.54-9.22c-.19 1.38-.41 2.75-.56 4.14-.13 1.11-.64 1.68-1.78 1.27-3.24-1.18-6.45-.68-9.68 0-.37.08-1 .1-1.1 0a1.85 1.85 0 0 1 0-1.31 34.43 34.43 0 0 1 2.75-5.62 5.61 5.61 0 0 1 3.29-2.23 23.75 23.75 0 0 1 5.94.2c.38 0 .89.71 1 1.17a11.1 11.1 0 0 1 .05 2.38zm1.75-20.2c-.33 3.5-.7 7-1 10.47-.12 1.54-.8 2.08-2.3 1.89-1.77-.24-3.56-.37-5.34-.52-.88-.08-.93-.53-.66-1.21 1.2-3.07 2.25-6.22 3.64-9.2.87-1.87 2.9-2.73 4.75-3.24 1.72-.46.69 1.15.91 1.81zM425 526.28c4.14-1.95 8.16-4.21 12.68-5.17 1.94-.41 3.92-.66 5.88-1 1.39-.21 2.12.29 1.83 1.81-.06.29-.09.59-.13.89l-.66 4.39c-1.35-.17-2.68-.41-4-.49-3.08-.2-6.16-.37-9.25-.44a18.83 18.83 0 0 0-3.22.48zm38.27-89.94a23.39 23.39 0 0 0-3.26.35c-2.39.61-2.41.64-2.18-1.68.62-6.5.67-6.56 6.11-10.36.95-.66 1.37-.6 1.52.63.35 3.08.83 6.15 1.14 9.24.19 1.91.1 1.92-1.81 1.91h-1.51zm4.64 9.6c-.17.17-.61.93-1.12 1-3.26.32-5.73 2.1-8.19 4a16.82 16.82 0 0 1-2.56 1.35 18.48 18.48 0 0 1 0-2.88c.23-1.77.68-3.51.91-5.28a2.36 2.36 0 0 1 2-2.25 22.82 22.82 0 0 1 5.3-.61c2.68.14 3.61 1.38 3.66 4.67zm-8.39-26.14q1.31-11.76 2.62-23.54v-.89a.56.56 0 0 0 0-.12c0 .2 0 .4.08.6a33.18 33.18 0 0 1 .76 3.8c.38 4.46.67 8.93 1 13.4.06.79.13 1.59.26 2.38.57 3.59.17 4.42-3 6a6.37 6.37 0 0 1-1.4.34c-.07-.46-.16-.91-.21-1.37a2.46 2.46 0 0 1 .07-.6zM449.11 405a1.2 1.2 0 0 1 .46 0c1.39.43 3.58.55 3.94 1.42.51 1.23-.25 3-.66 4.55-.11.38-.91.73-1.43.82a14.36 14.36 0 0 0-9 5c-.25.3-.81.33-1.23.48a4.5 4.5 0 0 1 .14-1.11c1.14-3 2.44-5.9 3.44-8.93.54-1.61 1.3-2.37 3-2.16a8.11 8.11 0 0 0 1.34-.07zm17.62-16.33c-.12-1-.16-2-.36-2.95a2.11 2.11 0 0 1 .84-2.35c2.21-1.69 2.84-1.49 3.39 1.21s1.1 5.65 1.75 8.46c.28 1.18-.13 1.48-1.2 1.84-3.77 1.25-3.75 1.31-4.24-2.63-.15-1.19-.29-2.37-.43-3.56zm11.03 124.73a24.73 24.73 0 0 0-10.35-.17 4.52 4.52 0 0 1-1.14-.12 3.67 3.67 0 0 1 .54-1 24.59 24.59 0 0 1 9.16-5.43 1.5 1.5 0 0 1 1.38.47 45.38 45.38 0 0 1 1.76 4.73c.35 1.12-.05 1.8-1.35 1.52zm-29.17-58.89c-1.73 0-2-.36-1.54-1.86q1.71-5.41 3.4-10.82c.12-.37.06-.88.29-1.14a24.46 24.46 0 0 1 1.91-1.75 10 10 0 0 1 .18 2.16q-.75 5.63-1.62 11.23c-.35 2.19-.4 2.18-2.62 2.18zm16.18-93.09c.9 3.22 1.83 6.44 2.67 9.68.46 1.73.6 3.55 1.18 5.23s-.21 2.08-1.51 2.55c-1.06.37-1.51.12-1.59-.94-.25-3-.49-5.93-.73-8.89-.1-1.28-.24-2.57-.29-3.85s0-2.48 0-3.72zm10.29 42.68a5 5 0 0 1-1.27 1c-1.4.49-2.88.74-4.25 1.29-.9.36-1.35.25-1.46-.67a27.81 27.81 0 0 1-.23-3.28c0-.33.3-.93.47-.94 1.79-.06 2.41-1.58 3.46-2.59s1.82-.8 2.26.74c.38 1.35.62 2.68 1.02 4.45zm-18.73-14.46l-.87 4.33c-1.48-.45-3-.84-4.42-1.39-.32-.12-.59-.77-.6-1.18a7.89 7.89 0 0 1 .41-1.73c.65-2.76 1.21-3 3.85-2.23a2 2 0 0 1 1.63 2.2zM452 417.77l-1.7 5c-1.95-.07-3.9-.14-5.85-.26-.08 0-.28-.7-.17-.82 1.4-1.38 2.82-2.75 4.31-4a7.21 7.21 0 0 1 2.07-1.1c1.18-.47 1.49.04 1.34 1.18zm1.52-16.55c-1.64-.18-3-.32-4.41-.52-.65-.09-1.76.54-1.65-.94.15-1.89 1-2.82 2.36-2.55a4.86 4.86 0 0 1 3.93 2.84 9.72 9.72 0 0 0 .55 1zm3.62-22.93c-.15 1.48-.24 2.58-.38 3.67a1.35 1.35 0 0 1-1.57 1.36c-2.22 0-2.4-.16-1.8-2.4a9.61 9.61 0 0 1 .93-2.83c.43-.66 1.37-1 2.08-1.46zm-28.73 84.94l-.64.2c-2.58.69-5.15 1.39-7.73 2-.15 0-.62-.44-.58-.61a3.21 3.21 0 0 1 3.78-2.86 38.71 38.71 0 0 1 4.32.93c.29.11.56.24.85.34zm49.1-15.61h1.55a5.43 5.43 0 0 1 .56.09c-.13.23-.2.57-.39.67-1.85 1-3.82 1.78-5 3.73a1 1 0 0 1-.91 0 2.23 2.23 0 0 1 .73-3.51 25.48 25.48 0 0 1 3.46-.98zm-3.1-21.24c-1.05.67-1.77 1.19-2.53 1.6a10 10 0 0 1-1.53.56c-.06-.57-.32-1.22-.13-1.7a1.76 1.76 0 0 1 1.29-.88 15.28 15.28 0 0 1 2.9.42z"/><path class="a" d="M406.54 487.62l1.66.54c-.11.26-.15.63-.35.77-1.2.82-1.56 2.82-3.54 2.56 0-1.72 1.15-2.78 2.23-3.87zM425 526.28l3.1.51c-2 .6-3.94 1.22-5.93 1.78-.24.07-.55-.13-.83-.21.13-.25.19-.64.39-.73 1.1-.49 2.21-.91 3.27-1.35zm32.74-156.78a6 6 0 0 1-.2 1.89 4.77 4.77 0 0 1-1.17 1.05 4.07 4.07 0 0 1-.46-1.24 3.49 3.49 0 0 1 .37-1.43c.3-.68.69-1.33 1.05-2zm-3.19 59.35c-.39 1.53-.72 3-1.12 4.39-.06.2-.42.31-.64.46-.09-.25-.31-.52-.26-.74.32-1.43.69-2.85 1.07-4.27 0-.14.34-.34.42-.3a2.12 2.12 0 0 1 .53.46z"/><path class="d" d="M417 373.3c.49 1 .83 1.69 1.19 2.39 1.84 3.57 6.64 4.65 9.22 2.68a8.88 8.88 0 0 1 .75-.5c.7-.42 1.21-.26 1.12.59-.33 3.32-1.17 6.58-3.31 9.14-2.33 2.81-6.9 2-8.86-1.13-2.7-4.31-2.68-8.47-.11-13.17zm-15.92 77.48c.16 3.78-1.83 5.64-3.91 7.36-1.34 1.11-3 .57-4.28-.07-3-1.51-4.86-4.41-4.11-7.59.12-.48.28-1 .42-1.42.34.32.71.62 1 1 2.43 2.74 6.61 3.05 9 .68a15.19 15.19 0 0 1 1.56-1.18c.17.61.33 1.25.32 1.22zM478 248.19c.66-5.45 1.16-10.47-.2-15.54-.55-2.06-.39-2.08 1.63-3a38.13 38.13 0 0 0 16.94-15.12c.51-.85 1-1.72 1.58-2.54.41-.6.91-1.15 1.38-1.72a15.45 15.45 0 0 1 1.27 2 29.26 29.26 0 0 0 9 11.74c1.4 1.06 1.31 1.16-.26 1.85-3.38 1.49-6.84 2.83-10.09 4.56-5.52 2.93-10.19 7-14.64 11.39-2.22 2.09-4.43 4.19-6.61 6.38z"/></svg>