<svg xmlns="http://www.w3.org/2000/svg" viewBox="0 0 800 800"><defs><style>.cls-2,.cls-3{fill:#00f}.cls-2{mix-blend-mode:difference}.cls-4{mix-blend-mode:darken}.cls-5{fill:red}</style></defs><g style="isolation:isolate"><g id="Layer_1" data-name="Layer 1"><path class="cls-2" d="M136.99 319.96l.53 5.9-.05 5.9-.01 5.9-.48 5.89.35 5.9-.26 5.9.16 5.9-.38 5.9.45 5.91-.26 5.89-.01 5.9-.06 5.91-.11 5.9.05 5.9.02 5.91.09 5.9.45 5.9-.33 5.91.55 5.9-.49 5.91-.02 5.91.37 5.91-.21 5.91.67 5.89-.06 5.9.15 5.91-.07 5.9-.07 6.11 6.31.03 6.09.25 6.06.68 6.09.13 6.1-.02 6.08.31 6.1-.19 6.09.17 6.09.01 6.08-.26 6.09.08 6.09-.34 6.09.03 6.08-.2 6.09-.07 6.08-.42 6.11.45 6.07-.46 6.09-.04 6.08-.22 6.09-.27 6.08-.41 6.1.45 6.09-.05 6.08-.7 6.09.56 6.09-.13 6.09-.03 6.09-.09 6.09.01 5.89.01-.27-5.62-.66-5.81-.09-5.85-.01-5.84-.37-5.82-.16-5.83-.33-5.83-.2-5.83-.5-5.9-5.87.42-5.8.33-5.82.28-5.82-.24-5.8-.52-5.82-.16-5.81-.29-5.87-.65v-5.77l-.24-5.67-.06-5.67.2-5.68-.2-5.67-.1-5.68-1.47-3.29-3.51-.95-5.64-.73-5.66.27-5.66.05-5.65-.07-5.65-.5-5.66.03-5.65-.29-5.66.13.06-5.93-.42-5.91-.24-5.92-.5-5.91-1.18-5.82-1.14-5.8-.96-5.81-6.32-.36-6.37-.11-6.33.87-6.37.11-6.37-.16-6.32-.46-3.56-1.21-1.35-4.13-.67-5.47.22-5.51-.08-5.51-.08-5.49-1.56-3.59-3.75-.95M139.47 541.63l-.04 6.03-.46 6.02-.4 6.02.36 6.04-.53 6.01-.1 6.03-.41 6.02-.17 6.02-.07 6.03.41 6.04-.28 6.02-.09 6.03-.32 6.02.22 6.03-.18 6.03-.39 6.02.13 6.03-.15 6.03.23 6.02-.39 6.03.44 6.03-.21 6.03.37 6.02-.48 6.03-.02 6.03.61 6.02-.01 5.9 5.8.12 5.92.26 5.92-.57 5.92-.08 5.92.26 5.92.08 5.93.08 5.92-.01 5.92.08 5.92-.05 5.92-.38 5.92-.1 5.93.48 5.92.07 5.92-.05 5.92.08 5.92-.32 5.93.09 5.92-.18 5.92.38 5.92.06 5.92-.11 5.93-.13 5.92.34 5.91.34 5.93-.25 5.92.01 5.92.17 5.92.2 5.92.42 5.93-.55 6.14.64-.54-6.39.14-6.19-.44-6.17-.47-6.17-.23-6.18-1.08-6.11-.61-6.15-.5-6.27-6-.43h-5.92l-5.92-.05-5.9-.35-5.89-.75-5.9-.38-5.91-.18-4.76-1.03-1.2-4.56.11-5.63-.66-5.6.23-5.63-.31-5.61-.27-5.61-.39-5.6-6.1-.24-6.1-.19-6.09-.19-6.11.06-6.1-.02-6.1-.19-6.1.06-5.07-1.55-.96-4.58.91-5.89-.27-5.95.08-5.94-.57-5.91-.87-5.87-1.94-5.16-6.96-1.82-5.8.56-5.82-.14-5.82-.09-5.81.39-5.8.43-5.63-.16-.6-6.06-.26-6.27.17-6.27-.58-6.25-1.95-6.46-5.06-.33-6.55.14-6.47.98-6.52.45-6.51.52-6.54.26"/><path class="cls-3" d="M134.6 94.98l.49 5.9.03 5.91-.06 5.91.11 5.91.64 5.9-.17 5.92-.11 5.91.27 5.91.19 5.91-.03 5.91-.04 5.91.17 5.91-.32 5.92.01 5.91-.03 5.92.49 5.92-.14 5.91.14 5.92-.28 5.92.44 5.91-.47 5.92.13 5.91.38 5.91.04 5.92-.21 5.92.23 5.91.18 5.9.27 5.79 5.88.26 6.01-.13 6 .24 5.99.55 6.01-.32 6 .33 6.01-.43 6 .58 6-.2 6-.4 6.01.58 6.01-.26 6 .21 6-.53 6.01.3 6-.26 6.02-.02 6.01.43 6-.46 6.01.08 6.01.06 6.01-.51 6.01-.04 6.01.09 6.01.3 6.01.04 6-.56 6.01.05 6.01.16 6.01.06 6 .1 5.99-.19-.25-6.16-.83-6.14-.47-6.16-.39-6.17-.1-6.19-.76-6.15-.67-6.14.07-6.21-1.31-2.59-3.42-1.29-6.05.39h-6.06l-6.04.66-6.06-.17-6.05.41-6.06-.04-6 .35-.26-5.73-.35-5.76-.52-5.75-.36-5.75-.66-5.73-.13-5.78-1.47-3.99-4.45-1.61-5.79.3-5.77-.37-5.78.13-5.78-.38-5.78.13-5.77-.56-5.78.04-5.73-.08-.99-5.59-.14-5.72-.06-5.7-.39-5.69-.84-5.65-.25-5.72-.99-2.95-3.23-.96-6.03.07-6.02-.35-6.01-.28-6-.71-6.05.24-6.16-.37-.56-5.47-.32-5.24-.08-5.26.54-5.25.36-6.35-2.99-5.4-5.08-.67-5.14-.43-6.56-.13-6.56.18-6.56.54-6.57-.52-6.5.34"/><g class="cls-4"><path class="cls-5" d="M171.48 176.3l-3.78 4.83-3.88 4.78-3.34 5.18-2.68 5.54-2.48 5.62-1.77 5.88-1.36 5.97-1.8 5.89-.54 6.13-1.17 6.03-1.02 6.06-.16 6.34-.16 6.32.26 6.32.8 6.29 1.59 5.98 2.61 5.6 2.77 5.52 3.66 4.98 4.35 4.36 4.41 4.28 4.9 3.72 5.25 3.26 5.89 1.88 6.3 1.74 6.37 1.56 6.5.95 5.78.06 5.78.02 5.64-1.26 5.46-1.69 5.1-2.57 4.36-3.78 3.56-4.55 2.91-5.02 2.4-5.3 1.72-5.58 1.46-5.85.31-6.05 1.12-5.94-.17-6.03.33-6.03-.44-6.02-1.25-5.91-1.04-5.93-1.81-5.74-1.34-5.9-2.23-5.6-2.56-5.47-2.98-5.25-3.12-4.73-3.21-4.68-3.74-4.26-4.16-3.84-4.18-3.83-4.66-3.25-5.11-2.48-5.37-1.77-5.45-1.54-5.65-.47-5.63.55-5.59.92-5.07 2.48-4.94 2.74-3.93 4.06-3.22 4.58-2.79 4.89-1.5 5.49"/></g><path class="cls-3" d="M505.06 602.59c.87 7.26.25 14.52.12 21.83a2.29 2.29 0 0 0 2.25 2.25c5.23.25 10.45.69 15.68.84 5.46.15 9.37.67 14.65 1s10.57-.11 15.85.24a117.77 117.77 0 0 0 14.55.24c10.12-.6 20.18-.36 30.32-.29 5.51 0 10.93-.82 16.44-.88 4.62 0 9.37.27 14 0 11.78-.76 23.52-1.07 35.34-.95a2.28 2.28 0 0 0 2.25-2.25c0-7.37 0-14.11-1.6-21.33a2.27 2.27 0 0 0-2.17-1.65c-5.37-.06-10.61.47-16 .7-4.77.21-9.61-.15-14.4-.08-10.17.15-20.28.19-30.43.14-9.77 0-19.7-.37-29.44-1.08-10.08-.73-20.36-1.6-30.42-.72-11.31 1-23 .35-34.41.17-2.9 0-2.9 4.46 0 4.5 10.26.16 20.66.5 30.89 0 5.07-.24 9.82-.85 14.9-.46 5.49.41 10.93.3 16.41.79 9.58.86 19.23.79 28.84 1.18 9.93.4 19.76-.32 29.69-.11 11.48.24 22.88-.67 34.34-.54l-2.17-1.66c1.51 6.84 1.41 12.69 1.44 20.14l2.25-2.25c-10.09-.1-20.31-.25-30.39.46s-20.24.64-30.36 1.27-20.24-.63-30.31-.09-20.22-.11-30.42 0c-5.66 0-11-.72-17.24-.85-6-.11-12-.61-18.07-.9l2.25 2.25c.13-7.31.75-14.57-.12-21.83-.34-2.84-4.84-2.87-4.5 0z"/><path class="cls-3" d="M505.07 626c.28 6.83.44 13.6.3 20.44a2.31 2.31 0 0 0 2.25 2.25c10.17.94 20.57 1.21 30.77 1.28s20.28.84 30.41.86c20.28 0 40.58 1.06 60.86.35 11.8-.42 23.61-.42 35.41-1.31a2.3 2.3 0 0 0 2.17-2.85c-1-6.78-.87-13.86-1.26-21.23a2.29 2.29 0 0 0-2.25-2.25c-20 .47-40.05.07-60 0-20.13-.13-40.27 0-60.39-.15-11.72-.12-23.41.16-35.13 0-2.9 0-2.9 4.46 0 4.5 20 .28 40-.66 60 0 10.18.35 20.29-.41 30.47-.07 5.32.18 10.58.11 15.89.4 4.64.25 9.34-.5 14-.38 11.67.28 23.41.51 35.11.23l-2.25-2.25c.4 7.49.35 15 1.42 22.43l2.17-2.85c-41.14 3.1-82.25.76-123.42.15-11.32-.17-22.75-.29-34-1.33l2.25 2.25c.14-6.84 0-13.61-.3-20.44-.12-2.88-4.62-2.9-4.5 0z"/><path class="cls-3" d="M505.82 647.6a167.24 167.24 0 0 0 .67 20.87 2.3 2.3 0 0 0 1.65 2.17c10.09 1.43 20.36 1 30.53 1.47s20.05.88 30.09 1.14c20.17.51 40.38.37 60.53.82 5.79.13 11.61-.22 17.4-.27s11.86-.16 17.76-.6a2.26 2.26 0 0 0 2.16-1.65 89.48 89.48 0 0 0 0-24.41 2.27 2.27 0 0 0-2.17-1.65c-10.29-.7-20.72.77-31 1.26-5.35.26-10.59-.26-15.95-.09s-10.86-.14-16.31-.18c-9.81-.08-19.79 0-29.59-.62s-19.68.66-29.49-.05c-11.16-.8-22.29-.25-33.46-.19-2.89 0-2.9 4.52 0 4.5 40.09-.24 80.22.83 120.27 1.38 11.89.16 23.7-2.32 35.56-1.51l-2.17-1.65a81.52 81.52 0 0 1 0 22l2.17-1.65c-10 .74-20 .51-29.94.84-5.27.18-10.49-.4-15.75-.34-4.76 0-9.53.29-14.29.23-10.09-.11-20.18-.48-30.26-.72s-20.06.16-30-.54c-11.63-.81-24-.33-34.85-1.87l1.66 2.17a167.24 167.24 0 0 1-.67-20.87c.12-2.9-4.38-2.89-4.5 0z"/><g class="cls-4"><path class="cls-5" d="M509.52 683.04l5.81.12 5.8.38 5.8.25 5.81.17 5.82-.37 5.81.21 5.8.3 5.82-.14 5.8.45 5.81-.03 5.81.07 5.82.33 5.58-.11 5.59-.59 5.59.18 6.24-.08 6.24.31 6.23.15 6.22.58 6.24-.28 6.21.7 6.23.04 6.25-.17 6.19.87 6.25-.07 6.03.06.17-5.19.44-5.36-.42-5.21-6.02-.24-6.15-.1-6.15-.08-6.16.07-6.15-.11-6.13-.7-6.15-.23-6.16.28-6.15.06-6.26.19-6.26-.21-6.25.06-6.25.17h-5.82l-5.82-.26-5.82.04-5.81-.57-5.83.31-5.81-.43-5.82-.22-5.83.31-5.82-.14-5.82-.48-5.82.01-5.82.27-5.87.02.08 7.25.39 7.21"/><path class="cls-5" d="M509.52 685.29c20.81.42 41.57 1 62.38 1.39 9.94.2 19.75-.33 29.68-.24 4.56 0 9.22.2 13.77.51 5.3.37 10.56.1 15.84.69s11.61-.3 16.24.35c5.63.79 11.21.58 16.89.63a2.29 2.29 0 0 0 2.25-2.25c.17-5.32.62-10.44.19-15.76a2.32 2.32 0 0 0-2.25-2.25c-20-.82-40.09-1.24-60.12-.9-10 .17-20.21.22-30.25-.13s-20.42-1-30.6-.94c-11.67.09-23.3 0-35 0a2.28 2.28 0 0 0-2.25 2.25c.05 4.84.21 9.63.47 14.46.15 2.88 4.65 2.9 4.5 0-.26-4.83-.42-9.62-.47-14.46l-2.25 2.25c21.15-.07 42.23.62 63.34.88 10.16.13 20.32.13 30.48.22 9.82.08 19.55-.94 29.34.17 10.76 1.22 21.95.27 32.79.71l-2.25-2.25c.43 5.32 0 10.44-.19 15.76l2.25-2.25c-5.14 0-10.33.28-14.78-.34-5.18-.73-10.3-.15-15.52-.38-9.85-.44-19.7-.87-29.59-1.36s-19.66.72-29.51.24c-10.18-.49-20.37-.28-30.55-.73-5.84-.26-11.61.2-17.44 0s-11.6-.63-17.41-.75c-2.9-.06-2.9 4.44 0 4.5z"/></g></g></g></svg>