<svg xmlns="http://www.w3.org/2000/svg" viewBox="0 0 800 800"><defs><style>.a{fill:#abcad2;}</style></defs><title>show-lights</title><path d="M160.68,750c-1.84-4.36-1.27-8.83-1.12-13.18,1.15-32.77.89-65.56,1-98.34q.25-72.13.35-144.27c0-52.17-.55-104.34.18-156.5.33-24,1-48.08.91-72.06-.09-34.15.35-68.31,0-102.47-.39-34.59,0-69.18.07-103.78,0-8.62.85-9.41,9-9.4,128.58.17,257.16.11,385.73.68,26.33.11,52.67.45,79,.45,1.38,0,2.83-.15,3.14.1,1.57,233.38,1.53,466,1.75,698.77ZM485.47,494.6c-7.9,2.78-15.67,5.94-24.31,2.38-3.82-1.57-6.92-4.33-11.18-6.62-1.22,7.31-2.26,13.81-3.39,20.28-.44,2.51.59,4.2,2.45,5.71,6.93,5.63,21.15,6.2,28.48,1.12a4.22,4.22,0,0,0,1.8-2.3c2.07-6.87,4.88-13.53,6.05-20.67l.18-.34ZM284.28,381.7c-.48-.4-1-.69-1.39,0-.1.17.29.62.46.94,1,6,4.25,11.26,5.53,17.13,1.22,5.58,4.52,8.87,9.23,12.16,14.56,10.18,32.86,5.35,44.79-6.42,2.35-2.32,1.44-4.84,1.07-7.31-1.1-7.33-2.36-14.64-3.57-21.95-.22-1.34-.19-2.83-2.4-3.73a34.09,34.09,0,0,1-16.33,10.89C308.86,387.35,296.51,387.38,284.28,381.7Zm-13.22-38.78c-.49-.31-1-.52-1.36.12-.08.16.31.56.48.85q4.2,12.54,8.41,25.06a3.87,3.87,0,0,0,1.6,2.42c13.82,8.22,27.93,11.11,43.45,4.23,11.5-5.11,15-10.35,12.73-22.43-.74-3.94-1.14-8-2.09-11.84-.87-3.55-.55-7.45-2.6-11.15C313.55,346.22,294.37,354.78,271.06,342.92Zm208.11-66c-2.53,0-4.57,1.37-6.72,2.44-17.85,8.9-36.12,9.27-54.87,3.07-5.08-1.67-8.77-5.86-14.28-7.5,0,10,.35,19.41-.13,28.82-.27,5.24,1.75,8.86,5.37,12a44.15,44.15,0,0,0,17.35,9.31c16.09,4.42,30-1.52,43.56-8.93,2.06-1.12,4.77-1.75,5.22-5.19,1.43-11.13,4.25-22.06,5.23-33.27.37-.42.5-.87,0-1.21C479.78,276.41,479.41,276.78,479.17,277ZM632.71,58H168.83c.57,167.86-3,335.2-.62,502.35,19.7,2.82,37.63-1.67,54.7-8.8,12.87-5.38,21-15.43,19.91-30.61-.24-3.4-.85-6.77-1.16-10.16-.16-1.77-.46-3.91,2-4.37,2.05-.39,3.27,1.19,4.4,2.64,1,1.22.53,2.7.78,4.06,2.39,12.92,8,24.29,18.78,31.95,14.93,10.57,32.58,13.45,50.3,14.75,8.78.64,9.72.16,12.74,8.5,1.23,3.37,1.64,7.07,3,10.35q19.24,45.2,38.82,90.24c1.41,3.22,1.87,7.18,5.72,10.38-.43-6.87-2.71-12.27-4.6-17.67C356.59,612.9,340.27,564,323.94,515c-15.09-45.18-30.91-90.11-46.47-135.13-9.91-28.68-20.39-57.17-29.78-86-11.14-34.21-23.11-68.13-35-102.08-11.54-33-21.52-66.53-35.27-98.74-2-4.62-2.53-9.73-.05-14.63,3.37-6.69,11.4-9.18,17.36-5.34,5.5,3.53,6.43,11,2.26,17-2.48,3.52-5.4,5-9.46,3.25-.65-3.62,2.28-4.24,3.86-5.86,2.67-2.73,3-5.83.16-8.44s-6-1.89-8.35,1.06c-1.73,2.13-1.78,4.65-1.75,7.39.09,6.92,5.92,10.2,9.16,15C199.48,115.56,211.15,125,227.5,127a139.3,139.3,0,0,0,16.85.81c18.2,0,33.82-5.64,45.21-20.78,4.33-5.76,5.78-14.93,2.38-21.56-1.6-3.12-4.61-4.47-7.56-3.24-3.69,1.54-1.92,4.68-.72,7.2s3.77,4.24,3.8,7.36c-1.93,2.52-3.86,2.25-6.17.46-5.45-4.21-7.7-11.69-5-17.14,2.4-4.81,7.28-6.19,14.81-4.2,2,.53,3.78,1.58,6.14-.14,5-3.61,11-3.82,13.89-1.16,3.22,3,4.63,11.41,2.76,15.82-1.29,3-3.24,4.87-6.7,4.73-1.81-3.58.73-6.37,1.15-9.43.38-2.8-.39-5.54-3.38-6.2A3.63,3.63,0,0,0,300.77,83c-.53,6.41-1.44,13.14,3.47,18.37,5.5,5.84,11.14,11.72,18.44,15.33,20.73,10.27,40.95,8.15,60.17-3.79,8.43-5.23,14.76-12.4,13-23.72-.87-5.7-3.27-7.18-9.18-4.86-.25,2.43,1.68,3.88,2.69,5.76.88,1.64,1.5,3.39-.35,4.87s-3.36.62-4.92-.5c-4-2.89-5.77-8.24-3.95-12.17,2.43-5.24,7.41-7.36,13.71-5.43,3.11,1,5.57,2,8.87-.42a9.16,9.16,0,0,1,13.11,2.7C418.74,84,417.28,92.34,413,95c-1.73,1.07-3.61,1.81-5.54.26-1.63-3.48,1.62-5.57,2.32-8.35.49-1.91.65-3.71-1.41-4.67-1.87-.87-3,.59-4,1.83-2.35,3-3,13.88-.74,16.75,12.22,15.76,28.41,24.52,48.31,23.82,21.89-.76,40.94-9.28,56.24-25.38,3-3.17,4.83-12.52,3.18-16.52-.89-2.15-2.39-3.23-4.71-2.7s-2.79,2.33-2.56,4.2a51.82,51.82,0,0,0,1.51,6.44c.41,1.64.68,3.23-1.36,4-1.77.68-3.07-.07-4.27-1.35-3.15-3.36-4.08-11-1.8-15.35,2.05-3.89,7.39-5.78,12.66-4.84,2.57.46,3.91,2.77,6.57,3.59,5.34-2.68,11-5,16.13.85,2.52,2.92,2.33,10.6-.48,14.28-2.17,2.84-4.74,5.45-8.93,3.5-.62-3.62,2.19-5.76,2.87-8.63.42-1.78,1-3.69-.95-4.88-2.45-1.47-3.69.6-4.89,2.12A11.68,11.68,0,0,0,519,89.53c-.31,2-.56,4.22-1.69,5.71-2.66,3.53-1.36,6.29.85,9.2,5.54,7.32,12.62,12.91,20.29,17.77a40.88,40.88,0,0,0,27.24,6c18.25-2.38,34.42-10.5,48.37-22.6,5-4.37,6.24-10.6,6.21-17,0-2.26-.83-4.5-3.68-4.71s-5.16.53-6.31,3.5-.37,5.5,1.88,7.65c1.47,1.41,2.17,3,.72,4.76-1.19,1.4-2.91,1.22-4.48.64a9,9,0,0,1-4.77-3.5A12.72,12.72,0,0,1,604,82.25c3.28-4.4,10.48-6.71,15.64-5,4.89,1.61,7.3,5.48,7.22,11.9,0,1.78-.48,3.56-.66,5.35-.88,8.47-6.47,15.06-9.09,22.82q-18.75,55.4-37.32,110.85-13,38.88-25.59,77.9c-12.14,37.6-25.52,74.78-37.53,112.43-11.41,35.8-23.79,71.3-35.62,107q-22.69,68.38-45.18,136.85c-3.5,10.65-6.7,21.39-10.25,32.76,3.16-1.31,3.12-3.6,3.82-5.35a138.89,138.89,0,0,0,5.44-14.7c.75-2.75,4.77-12.87,5.9-16,6.72-18.42,14.61-36.39,21.07-54.92,4.63-13.27,10.1-26.25,14.9-39.46,1.48-4.08,3.74-5.69,8-5.52,4,.17,8.18.26,12-.74,23-6,36.84-22.35,47-42.62,2.27-4.52,3.29-9.49,4.61-14.34.65-2.38,1.64-5,4.65-4.55,3.18.48,3.76,3.21,3.57,6,0,.61-.11,1.21-.14,1.81-.32,6.68.3,13,3.66,19.18,2.61,4.77,5.33,9.43,8.2,14,7,11.18,16.83,17.5,30.11,18.19,3.11.55,6.54-.28,9.48.64,8.52,2.65,16.9,1.1,25.83.61C634.89,390.93,633.12,225.07,632.71,58ZM510.61,561.36c20.61,16.21,22.83,35.38,12.16,57.64,18.29-2.58,36.06-5.25,52.79,5.84-8.6-24.37.13-43.65,16.39-61.7-23.06-5.86-32.57-24.27-41.57-44.08C540.06,536.81,529.51,552.59,510.61,561.36ZM274.69,624.5c-3.07-24.25,2.55-44.74,21.13-61.23-20-4.27-37.31-11.25-47.34-30.37-3,9.45-8.46,15.57-15,20.7-6.3,5-13.9,7.78-22,10.58,18.23,13.65,19.48,31.13,13.92,51.11C243.78,608.8,259,614.46,274.69,624.5Zm35-436.64c-11.6,13.22-24.55,21.88-40.83,24.53s-31.88-.06-47-10c3.12,12.58,7.69,23.24,11.46,34.15a3.4,3.4,0,0,0,1.53,1.75c5.19,2.56,10.4,5.11,15.67,7.52,17.5,8,48.49.07,63.18-18.43,1-1.28,2-2.56,1.75-4.32C313.64,211.87,311.79,200.66,309.69,187.86Zm-7.1-39.64c-3.36,2.72-5.86,4.95-8.57,6.89-7.94,5.66-15.22,12-25.06,15-20.36,6.25-39.14,4.46-56.73-7.82-1.25-.87-2.39-2.18-4.59-1.93.64,6.26,4.13,11.67,5.22,17.67,1.54,8.47,6.95,13.77,13.49,18.59a51.33,51.33,0,0,0,31.07,9.87c20.25-.08,36.75-8.67,48.78-25.36a6.48,6.48,0,0,0,1.41-5.47C306,167,304.43,158.34,302.59,148.22Zm14.84,85.19c-23.82,23.07-49.91,28.68-80.46,14.78,4.55,13.17,8.77,25.41,13,37.63.18.54.6,1.29,1,1.39,6.7,1.54,11.68,7.12,18.71,7.86,23.58,2.5,40.13-7,52.65-23.74a4.75,4.75,0,0,0,.82-4C321.35,256.51,319.51,245.65,317.43,233.41Zm170.75-7.53c-28.32,19.78-56.46,21.06-85.16,1.63,0,9.79.3,18.62-.11,27.42-.29,6.37,2.7,10.84,7.08,14.55a36.42,36.42,0,0,0,16.15,7.71c15.6,3.35,30.52,1.95,45.13-4.9,7.25-3.39,12.27-7.18,12.68-16.07C484.4,246.48,487.5,237,488.18,225.88ZM193,118c3.91,15.22,7.76,29.46,22.51,38.22,13.49,8,26.92,12.64,42.84,9.28,16.24-3.43,28.84-12.67,40.9-23.14,1.06-.92,2.21-2,1.95-3.55-1.5-9.24-3.08-18.46-4.7-28.1C263.52,141.46,229.57,142.68,193,118Zm302.35,68.35C482.7,192.46,471,197.88,458,199.11c-19.77,1.87-38.68.47-53.3-15.53a1.65,1.65,0,0,0-2.38-.42c0,10,0,20.24,0,30.45a8.54,8.54,0,0,0,4,7.1c11.36,7.57,23.5,12.82,37.53,13.1,16.74.34,30.33-8.07,44.43-15.16a4.15,4.15,0,0,0,2.19-3.38C492.07,206,493.63,196.71,495.36,186.36ZM317.11,192,316,193c1.45,8.85,3,17.69,4.31,26.57.75,4.94,3.52,8.14,7.44,11.05,13.72,10.19,40,10.57,56.51-.33,5.38-3.56,11.92-7.94,12.56-14.6,1.14-12,.32-24.23.32-37.86C372.56,199.39,347.53,211.56,317.11,192Zm253.3,47.21C542.09,250.68,516,253.73,493,229.6c-1.88,11.22-3.63,21.48-5.29,31.76-.27,1.69-.86,3.36.53,5.13,5.26,6.7,11,12.68,19.37,15.51,17.27,5.88,33.55,2.7,49.31-5.33,1.4-.72,1.8-2.05,2.24-3.41C562.74,262.4,566.33,251.55,570.41,239.18ZM254,297c3,8.82,6.15,16.25,7.85,24,2.23,10.19,9.37,14.7,17.94,18.17,17.76,7.2,40.49-3.64,50.36-17.86,1.53-2.2,1.4-4.47,1-6.9-1.59-8.9-3-17.82-4.71-26.7-.48-2.56-.09-5.48-1.8-7.58C304.92,301,282.31,308.09,254,297ZM584.66,196.91l-1.22-1.22c-7.72,4.14-16.12,6.07-24.47,8.19-16.63,4.23-32.89,5.25-48.31-4.33-3.74-2.33-6.72-5.5-11.08-9.13-1.59,9.74-3.06,18.52-4.4,27.32a3.79,3.79,0,0,0,.91,2.79c4.15,4.27,7,9.67,12.33,13,8.18,5,17,7,26.35,7.31,13.35.39,24.91-5.55,36.84-10.22a4,4,0,0,0,2.37-2.56ZM505.6,152.56c-1.38,9.05-2.6,16.93-3.75,24.82-.22,1.51.88,2.6,1.54,3.83,7.22,13.52,25.36,21.21,42.65,18.26a174.68,174.68,0,0,0,37.38-11.13c3.44-1.42,5.17-3.08,6.18-6.38,2.34-7.68,4.9-15.29,7.34-23,.38-1.2,1.58-2.47-.44-4-10.56,6-22.31,9.43-34.33,11.77C541.79,170.71,522.53,169.27,505.6,152.56Zm49.66,132.68c-25.92,10.33-49.14,10.93-69.37-9.23a7.69,7.69,0,0,0-1.06,1.92c-1.85,11.3-3.64,22.61-5.45,33.92a5.73,5.73,0,0,0,.94,4.58c4.91,6.53,10.42,12,18.79,14.23,14.92,3.9,28.62.85,41.81-6.28a4.36,4.36,0,0,0,2.45-2.46C547.19,310.13,551,298.34,555.26,285.24Zm-153.19-174c0,7.55.13,13.55-.05,19.55a10.57,10.57,0,0,0,3.17,8c12.24,13.19,27.42,19.37,45.23,18.78,15.48-.51,29.87-5.24,44-11.56,6.53-2.93,9.74-6.62,10-13.7s2.72-14.05,2.6-22.89c-15.39,14-32.77,20.71-51.87,22.41C434.92,133.69,417.94,125.73,402.07,111.25ZM512.51,110c-1.5,9.5-2.42,18-4.31,26.26-1.22,5.33.68,8.72,4.11,12.22,11.86,12.09,26.68,13.6,42.38,12.25,15.9-1.36,30.08-8.24,44.61-14a3.21,3.21,0,0,0,2.11-2c2.89-8.44,5.77-16.89,8.7-25.49-3-.58-4.66.76-6.32,1.74a140.87,140.87,0,0,1-24.49,11.39c-17,6.05-32.8,3.57-47.75-5.79C524.75,122.41,518.84,117,512.51,110ZM330.91,280c1.39,10.67,1.3,20.94,3.54,31,.39,1.75.19,3.83,1.7,5,5.16,4.13,10,9.13,16.66,10.54,16.26,3.46,30.53-1.11,42.92-11.95,2.06-1.81,2.75-4.22,2.67-7-.27-9-.26-18.09-.52-27.14-.08-2.61.61-5.47-1.06-8C371.58,289.78,351.5,292.18,330.91,280ZM501.09,151.34c-33.8,15-66.68,22.57-99-4.49,0,6.25.19,11.4-.06,16.53-.19,4.08,1.26,7.22,3.67,10.44,11.46,15.27,27.45,19.05,45.34,18.58,15.58-.41,29.17-6.83,42.67-13.65a6.64,6.64,0,0,0,3.93-5.55C498.55,166.05,499.86,159,501.09,151.34Zm-97.23,170c-.88,11.15.43,21.12.09,31.07-.16,4.66,1.79,8,5,11,11.76,11.17,25.64,12.41,40.39,8.39,9.89-2.7,19.3-6.45,18.45-19.57,0-.38.24-.77.29-1.16,1.14-8.88,3.49-17.61,3.89-27.51C448.85,335.72,426.38,339.77,403.86,321.33Zm73.25,4.11c-2.06,12.64-3.74,24.72-6.1,36.66-1.19,6.06.81,9.72,5.69,13,12.89,8.68,37.13,7.69,49-2.37a5.52,5.52,0,0,0,1.63-2.45q5.7-17.43,11.22-34.91c.13-.4-.34-1-.53-1.48C516.43,342.57,495.94,344.34,477.11,325.44Zm-80.23-180.7-1.67-1.08c-26,21.64-54,27.16-85.29,10.61,1.18,8.28,2.2,15.6,3.27,22.91a6.67,6.67,0,0,0,1.86,3.67c11.89,12.77,34.73,17.33,50.68,10.18,10.56-4.74,19.52-11.83,28.42-19,1.4-1.13,2.73-2.45,2.73-4.48Q396.9,156.14,396.88,144.74Zm.65,82.78c-22.92,21.25-47.32,22.57-74,9.93,1.37,8.58,2.82,16.44,3.86,24.36.94,7.15,5.08,11.42,11.37,14.18a49,49,0,0,0,56.21-12.06c1.51-1.67,2.66-3.34,2.63-5.81C397.47,248.3,397.53,238.47,397.53,227.52Zm-1.32-115-1.45-.8c-13.06,11.89-28.2,18.12-45.89,18.38s-32.56-6.11-45.66-18c.68,8,2.2,15.26,3,22.61.62,5.79,3.83,9.64,8,12.81A43,43,0,0,0,327,154.09c25.57,8.17,50.32-1.71,67.6-19.25,1.44-1.46,1.61-3.12,1.6-5C396.2,124.08,396.21,118.28,396.21,112.48ZM337.39,326.84c1.95,11.76,3.64,22.17,5.46,32.56.15.87,1.11,1.61,1.75,2.36,7.08,8.21,16.21,10.88,26.83,10.9,10.47,0,17.46-5.21,24.26-12.33,4.51-4.71,2.42-9.73,2.86-14.66a87,87,0,0,0-.07-10.83c-.15-4,.52-8.15-.55-12C378.63,334.58,359.39,341,337.39,326.84Zm67.14,42.75c0,11.83,0,22.39,0,33a3.37,3.37,0,0,0,.76,2.19c6.52,6.11,13.13,11.61,23.16,10.65,9.85-.94,18.62-4.55,27.42-8.61,2.62-1.2,3.65-2.56,4-5.18,1-7.14,2.21-14.26,3.27-21.39.26-1.77,1.26-3.73-.58-5.47C442.64,384.05,423.54,384.65,404.53,369.59Zm-5.11-1-1.56-.61c-15.93,16.13-33.76,14.41-52.89,5,1.64,9.45,3.09,17.93,4.62,26.4a5.76,5.76,0,0,0,1.25,2.69c14.5,16,32.42,16.65,46.26,4.09a6.12,6.12,0,0,0,2.36-5.09C399.36,390.27,399.42,379.43,399.42,368.59Zm123.16,13.73c-18.94,8.26-37,9.49-53.74-5.16-1.24,7-2.28,12.94-3.35,18.86-2.22,12.3,5.08,22,17.53,23.7,10.25,1.4,19.38-2.13,28.55-5.78a4.35,4.35,0,0,0,2.45-2.49C518,402.34,520.09,392.67,522.58,382.32ZM295.76,418.77c2.84,8.74,5.25,15.75,7.39,22.84,1.55,5.13,3.82,8.72,9.49,10.88,17.52,6.67,24.74,2.47,35.91-8.78a7.28,7.28,0,0,0,2.09-6.63c-1.49-8.17-3-16.36-4.69-25.82C330.91,425.68,314.71,428.48,295.76,418.77Zm108.93-4.13c0,9.08,0,16.89,0,24.7a5.58,5.58,0,0,0,1.63,4.32c11.3,11.21,32.95,11.74,44.92,1a4.17,4.17,0,0,0,1.54-2.46c1.54-9,3.11-18,4.87-28.27C439.79,423,422.71,428.44,404.69,414.64Zm57.48.63c-1.25,8-2.26,15-3.46,22-1.64,9.52,1.45,15.16,10.64,18.32,8.67,3,17,1.11,25.27-2.06,4-1.55,6.79-3.6,8-8,1.79-6.58,4.2-13,6.31-19.48.4-1.24,1.38-2.58-.13-3.79C492.39,428,476.34,431.12,462.17,415.27Zm-109.28-1c-.48,6.43,1.59,11.61,1.92,17,.67,10.84,7.9,16.25,16.67,20,9.33,4,18.07,2.12,25.89-4.25,1.06-.87,2.37-1.46,2.37-3.2,0-9.72,0-19.44,0-30.29C383.83,424,368.79,425.25,352.89,414.3Zm97.53,39.87c-15.72,7.69-30.58,8.08-45.29-2.67,0,9.62,0,18,0,26.37a5.14,5.14,0,0,0,2.63,4.45c6.33,4.14,12.89,7.35,20.82,6.06,7.18-1.17,14.58-4.09,17.63-10C449.73,471.53,449.83,463,450.42,454.17Zm-97.92-4.88c-12.36,13.1-26,16.6-41.82,9.91.34,4.48,6,22.74,7.78,25.77a5.58,5.58,0,0,0,1,1.45c7.41,6,24.2,6,31.13-.55,2.71-2.58,7.13-4.95,6.56-9.46C356.06,467.69,354.23,459.07,352.5,449.29Zm103.22,5.58c-1.32,7.92-2.37,14.85-3.66,21.73a7.64,7.64,0,0,0,2,7.09c7.31,8.18,17.39,10.32,27.7,5.1,2.7-1.37,6.65-1.34,7.87-4.87,2.7-7.85,5.16-15.78,8.07-24.76C482.4,466,468.75,466.43,455.72,454.87Zm-97.24-2.56c1.29,7.27,2.4,13.55,3.55,19.83.29,1.57.39,3.34,1.2,4.61,4.62,7.16,20,12.89,28.08,10.13,3.42-1.16,8.21-2.42,8.55-6.64.65-8.24.19-16.56.19-26C385.06,464.21,371.88,462,358.48,452.31Zm-36.11,44c1.42,4.27,3.05,7.78,3.71,11.47,1.58,8.86,7.45,12.12,15.55,12.76,7.45.58,13.73-2.24,19.07-7.2,4.09-3.79,1.12-8.26.7-12.44a57,57,0,0,0-1.23-7.71c-.47-1.95.3-4.58-2.44-5.56C347.82,498.05,340.7,499.88,322.37,496.3Zm122.37-6.74c-13.48,8.66-26.15,7.91-39.07.31,0,6.08,0,11.07,0,16.06a6.48,6.48,0,0,0,2.66,5.13,24.22,24.22,0,0,0,30.47,1.35c1.13-.8,2.52-1.39,2.78-3C442.58,503.21,443.56,497,444.74,489.56ZM405.89,519c0,6.89,0,12.91,0,18.93,0,1.6,0,3.34,1.18,4.56,3.9,3.93,8.58,6,14.16,4.92,6.19-1.19,12.67-3,15.18-9.27,2-5,2.47-10.82,2.61-17.61C427.72,524.41,417,524.53,405.89,519Zm-74.52,5.8c2.58,7.37,4.75,13.59,6.95,19.79a3.52,3.52,0,0,0,1,1.47c7,5.84,22.57,3.41,27.73-4.26a4.21,4.21,0,0,0,.88-3.34c-1.25-6.07-1.58-12.33-3.54-18.4-5.45,1.25-9.58,5.16-15,6.16C343.69,527.25,338.28,526.07,331.37,524.8Zm113.28-4c-1.3,7.44-2.4,13.74-3.53,20a4.63,4.63,0,0,0,.69,3.41c5.78,9.42,22.93,7.46,26.8.67,3.33-5.85,4.54-12.92,7.2-21C464.22,528.69,454.46,527.62,444.65,520.76Zm-10,29.44c-9.74,5.78-18.89,6.87-28.49,1.25,0,7.67.12,14.1-.05,20.52a6.44,6.44,0,0,0,4.17,6.62,18.53,18.53,0,0,0,12.37,1.31c4.8-1.15,8.18-3.53,8.66-9.28C431.81,564.25,433.31,558,434.62,550.2Zm-64.95-33.09c.9,5.2,1.92,9.08,2.18,13,.72,10.52,6.26,12.21,14.79,14.42,4.6,1.19,13.6-2.87,13.84-6.33.51-7.42.16-14.91.16-23.48C390.42,522.71,380.78,523.06,369.67,517.11ZM343.21,556c.09,5.49,2.86,9.61,4.28,14.14a15.9,15.9,0,0,0,14.83,11c5,.08,12.14-4.13,11.69-7.43-1.1-8.22-2.17-16.49-4.61-25.41C361.85,556.49,352.72,556.94,343.21,556Zm56.51-66.1c-12.4,8.55-23.55,4.36-35.29-1.9,1.07,6.05,1.93,10.77,2.73,15.5.23,1.39.39,2.79,1.46,3.85,7.15,7.1,19.53,8.36,27.77,2.7,1.76-1.21,4.05-2.35,4.11-4.88C400.61,500.45,400.91,495.66,399.72,489.93Zm65.35,65.89c-9.57,3.25-17.53,1.75-25.67-3-1.44,8.2-2.71,15.44-4,22.68a3.6,3.6,0,0,0,.78,2.78,10.88,10.88,0,0,0,10.88,5.06c4.42-.62,9.42-1.51,11.27-6.52C460.74,570.25,462.63,563.51,465.07,555.82Zm-89.88-5.74c1,5.82,1.94,10.92,2.81,16,1.56,9.25,13.35,14.23,21,8.89a4,4,0,0,0,2-3.46c0-7.73,0-15.46,0-23.52C390.64,552.2,390.64,552.2,375.19,550.08Zm18.19,152.5,1.62-.25c-1.69-20-6.48-39.48-9.4-59.67a41.44,41.44,0,0,1-12,3.51C380.31,665.24,386.84,683.91,393.38,702.58ZM360,606.31c2.36,0,4.48,1.18,6.75,1.72,5.59,1.31,12.37-1.85,12-5.87-.54-6.07-2-12.06-3.23-19-6.85,5.74-14.32,4.82-22.33,4.52C355.68,594.38,357.78,600.15,360,606.31Zm48.58,95.4c3.64-19.25,7.67-38.4,10.18-58.23H407.23C406.86,663,407.61,682.31,408.61,701.71Zm6.17-.27A410,410,0,0,0,435,644.21c-3.67,2.51-6.92.22-10.94-.11C421,663.32,417.88,682.38,414.78,701.44Zm-13,.29V638.5c-3.55,2.65-7.19,2.79-10.85,4.12C395,662.42,397.71,682.18,401.75,701.73Zm5.37-116.11c-1.81,4.36-.22,8.35-.42,12.28-.26,5.09,3.26,6.51,7.12,7.34,4.69,1,11.57-1.24,12.24-4.2,1.13-5,2.58-10,2.3-15.7C421.22,589.37,414.41,587.91,407.12,585.62Zm-21.79,23.81c1.14,6.83,2.07,13,3.21,19.05.7,3.76,3.95,5.49,7,5.53s6-2.59,6.09-5.63c.17-6.91.88-13.9-.5-21.62C396.34,610.31,391.28,609.45,385.33,609.43Zm68.9-20.66c-7.75,2.35-14.1,1.54-20.14-1.87-2.06,3.64-1.69,7.59-2.58,11.25-1,4.14-1.22,8.12,4,9.71,4.68,1.43,12.78-1.43,14.16-5.14C451.25,598.45,452.52,594.05,454.23,588.77Zm-90.4,26.74c.69,5.84,3.53,10.39,4.44,15.4,1,5.43,5.35,6.11,9.2,6.7s7-1.61,6.41-5.89c-.91-6.46-1.54-13-3.76-19.61C374.94,614.79,370,617.55,363.83,615.51ZM407,610.6c0,6.87.12,12.86,0,18.85-.11,4.21,2.61,5.68,5.91,6.28s7-.37,7.88-3.9c1.58-6.5,3.1-13.12,3.07-20.49C417.88,612.94,412.58,614,407,610.6Zm39,3.27a24.84,24.84,0,0,1-16.55,0c-1,5.24-1.87,10.13-2.84,15-.76,3.83-.67,7.36,3.6,9,3.11,1.21,8.09-1.71,9.48-5.55C441.68,626.74,443.52,621,446,613.87Zm-45-32.1c-6.79,4.74-13,3.73-19.41,1.25-.36,5.09.88,9.38,1.76,13.62s5.89,6.28,11.36,5.47c4.59-.69,7.33-3,6.95-8.05C401.36,590.48,401.23,586.89,401,581.77Z"/><path class="a" d="M632.71,58c.41,167.09,2.18,333,1,499.44-8.93.49-17,2.18-25.83.6-2.88-.52-6.31-1.68-9.48-1.85-13.28-.69-23.14-7-30.11-18.19-2.87-4.6-5.59-9.26-8.2-14-3.36-6.16-4-12.5-3.66-19.18,0-.6.1-1.2.14-1.81.19-2.84-.39-5.57-3.57-6-3-.46-4,2.17-4.65,4.55-1.32,4.85-2.34,9.82-4.61,14.34-10.15,20.27-24,36.61-47,42.62-3.81,1-8,.91-12,.74-4.3-.17-6.56,1.44-8,5.52-4.8,13.21-10.27,26.19-14.9,39.46-6.46,18.53-14.35,36.5-21.07,54.92-1.13,3.09-5.15,13.21-5.9,16a138.89,138.89,0,0,1-5.44,14.7c-.7,1.75-.66,4-3.82,5.35,3.55-11.37,6.75-22.11,10.25-32.76q22.5-68.44,45.18-136.85c11.83-35.67,24.21-71.17,35.62-107,12-37.65,25.39-74.83,37.53-112.43q12.6-39,25.59-77.9,18.51-55.47,37.32-110.85c2.62-7.76,8.21-14.35,9.09-22.82.18-1.79.64-3.57.66-5.35.08-6.42-2.33-10.29-7.22-11.9-5.16-1.7-12.36.61-15.64,5a12.72,12.72,0,0,0-.36,14.67,9,9,0,0,0,4.77,3.5c1.57.58,3.29.76,4.48-.64,1.45-1.72.75-3.35-.72-4.76-2.25-2.15-3-4.62-1.88-7.65s3.5-3.71,6.31-3.5,3.66,2.45,3.68,4.71c0,6.4-1.16,12.63-6.21,17-14,12.1-30.12,20.22-48.37,22.6a40.88,40.88,0,0,1-27.24-6c-7.67-4.86-14.75-10.45-20.29-17.77-2.21-2.91-3.51-5.67-.85-9.2,1.13-1.49,1.38-3.75,1.69-5.71A11.68,11.68,0,0,1,521.18,84c1.2-1.52,2.44-3.59,4.89-2.12,2,1.19,1.37,3.1.95,4.88-.68,2.87-3.49,5-2.87,8.63,4.19,1.95,6.76-.66,8.93-3.5,2.81-3.68,3-11.36.48-14.28-5.09-5.87-10.79-3.53-16.13-.85-2.66-.82-4-3.13-6.57-3.59-5.27-.94-10.61.95-12.66,4.84-2.28,4.33-1.35,12,1.8,15.35,1.2,1.28,2.5,2,4.27,1.35,2-.79,1.77-2.38,1.36-4a51.82,51.82,0,0,1-1.51-6.44c-.23-1.87.37-3.7,2.56-4.2s3.82.55,4.71,2.7c1.65,4-.17,13.35-3.18,16.52-15.3,16.1-34.35,24.62-56.24,25.38-19.9.7-36.09-8.06-48.31-23.82-2.23-2.87-1.61-13.73.74-16.75,1-1.24,2.12-2.7,4-1.83,2.06,1,1.9,2.76,1.41,4.67-.7,2.78-3.95,4.87-2.32,8.35,1.93,1.55,3.81.81,5.54-.26,4.26-2.65,5.72-11,2.86-15.88a9.16,9.16,0,0,0-13.11-2.7c-3.3,2.42-5.76,1.38-8.87.42-6.3-1.93-11.28.19-13.71,5.43-1.82,3.93-.07,9.28,3.95,12.17,1.56,1.12,3.13,1.92,4.92.5s1.23-3.23.35-4.87c-1-1.88-2.94-3.33-2.69-5.76,5.91-2.32,8.31-.84,9.18,4.86,1.71,11.32-4.62,18.49-13,23.72-19.22,11.94-39.44,14.06-60.17,3.79-7.3-3.61-12.94-9.49-18.44-15.33-4.91-5.23-4-12-3.47-18.37A3.63,3.63,0,0,1,305,79.51c3,.66,3.76,3.4,3.38,6.2-.42,3.06-3,5.85-1.15,9.43,3.46.14,5.41-1.69,6.7-4.73,1.87-4.41.46-12.85-2.76-15.82-2.9-2.66-8.9-2.45-13.89,1.16-2.36,1.72-4.11.67-6.14.14-7.53-2-12.41-.61-14.81,4.2-2.72,5.45-.47,12.93,5,17.14,2.31,1.79,4.24,2.06,6.17-.46,0-3.12-2.62-4.88-3.8-7.36s-3-5.66.72-7.2c2.95-1.23,6,.12,7.56,3.24,3.4,6.63,1.95,15.8-2.38,21.56-11.39,15.14-27,20.75-45.21,20.78A139.3,139.3,0,0,1,227.5,127c-16.35-1.94-28-11.42-36.88-24.51-3.24-4.8-9.07-8.08-9.16-15,0-2.74,0-5.26,1.75-7.39,2.38-3,5.44-3.76,8.35-1.06s2.51,5.71-.16,8.44c-1.58,1.62-4.51,2.24-3.86,5.86,4.06,1.74,7,.27,9.46-3.25,4.17-5.92,3.24-13.43-2.26-17-6-3.84-14-1.35-17.36,5.34-2.48,4.9-1.92,10,.05,14.63,13.75,32.21,23.73,65.75,35.27,98.74,11.88,34,23.85,67.87,35,102.08,9.39,28.84,19.87,57.33,29.78,86,15.56,45,31.38,89.95,46.47,135.13,16.33,48.93,32.65,97.86,49.69,146.55,1.89,5.4,11.15,26.61,11.58,33.48-3.85-3.2-11.29-23-12.7-26.19q-19.65-45-38.82-90.24c-1.39-3.28-1.8-7-3-10.35-3-8.34-4-7.86-12.74-8.5-17.72-1.3-35.37-4.18-50.3-14.75-10.82-7.66-16.39-19-18.78-31.95-.25-1.36.18-2.84-.78-4.06-1.13-1.45-2.35-3-4.4-2.64-2.46.46-2.16,2.6-2,4.37.31,3.39.92,6.76,1.16,10.16,1.07,15.18-7,25.23-19.91,30.61-17.07,7.13-35,11.62-54.7,8.8-2.34-167.15,1.19-334.49.62-502.35Z"/><path class="a" d="M510.61,561.36c18.9-8.77,29.45-24.55,39.77-42.3,9,19.81,18.51,38.22,41.57,44.08-16.26,18.05-25,37.33-16.39,61.7-16.73-11.09-34.5-8.42-52.79-5.84C533.44,596.74,531.22,577.57,510.61,561.36Z"/><path class="a" d="M274.69,624.5c-15.66-10-30.91-15.7-49.24-9.21,5.56-20,4.31-37.46-13.92-51.11,8.09-2.8,15.69-5.61,22-10.58,6.5-5.13,12-11.25,15-20.7,10,19.12,27.32,26.1,47.34,30.37C277.24,579.76,271.62,600.25,274.69,624.5Z"/><path class="a" d="M309.69,187.86c2.1,12.8,3.95,24,5.78,35.22.29,1.76-.73,3-1.75,4.32C299,245.9,268,253.86,250.54,245.83c-5.27-2.41-10.48-5-15.67-7.52a3.4,3.4,0,0,1-1.53-1.75c-3.77-10.91-8.34-21.57-11.46-34.15,15.1,9.92,30.56,12.65,47,10S298.09,201.08,309.69,187.86Z"/><path class="a" d="M302.59,148.22c1.84,10.12,3.39,18.82,5,27.49a6.48,6.48,0,0,1-1.41,5.47c-12,16.69-28.53,25.28-48.78,25.36a51.33,51.33,0,0,1-31.07-9.87c-6.54-4.82-11.95-10.12-13.49-18.59-1.09-6-4.58-11.41-5.22-17.67,2.2-.25,3.34,1.06,4.59,1.93,17.59,12.28,36.37,14.07,56.73,7.82,9.84-3,17.12-9.39,25.06-15C296.73,153.17,299.23,150.94,302.59,148.22Z"/><path class="a" d="M317.43,233.41c2.08,12.24,3.92,23.1,5.78,34a4.75,4.75,0,0,1-.82,4c-12.52,16.73-29.07,26.24-52.65,23.74-7-.74-12-6.32-18.71-7.86-.43-.1-.85-.85-1-1.39-4.26-12.22-8.48-24.46-13-37.63C267.52,262.09,293.61,256.48,317.43,233.41Z"/><path class="a" d="M488.18,225.88c-.68,11.09-3.78,20.6-4.23,30.34-.41,8.89-5.43,12.68-12.68,16.07-14.61,6.85-29.53,8.25-45.13,4.9A36.42,36.42,0,0,1,410,269.48c-4.38-3.71-7.37-8.18-7.08-14.55.41-8.8.11-17.63.11-27.42C431.72,246.94,459.86,245.66,488.18,225.88Z"/><path class="a" d="M193,118c36.56,24.67,70.51,23.45,103.5-7.29,1.62,9.64,3.2,18.86,4.7,28.1.26,1.57-.89,2.63-1.95,3.55-12.06,10.47-24.66,19.71-40.9,23.14-15.92,3.36-29.35-1.28-42.84-9.28C200.77,147.47,196.92,133.23,193,118Z"/><path class="a" d="M495.36,186.36c-1.73,10.35-3.29,19.63-4.8,28.91a4.15,4.15,0,0,1-2.19,3.38c-14.1,7.09-27.69,15.5-44.43,15.16-14-.28-26.17-5.53-37.53-13.1a8.54,8.54,0,0,1-4-7.1c-.06-10.21,0-20.42,0-30.45a1.65,1.65,0,0,1,2.38.42c14.62,16,33.53,17.4,53.3,15.53C471,197.88,482.7,192.46,495.36,186.36Z"/><path class="a" d="M317.11,192c30.42,19.59,55.45,7.42,80-14.15,0,13.63.82,25.84-.32,37.86-.64,6.66-7.18,11-12.56,14.6-16.48,10.9-42.79,10.52-56.51.33-3.92-2.91-6.69-6.11-7.44-11.05C319,210.68,317.44,201.84,316,193Z"/><path class="a" d="M479.9,277.68c-1,11.21-3.8,22.14-5.23,33.27-.45,3.44-3.16,4.07-5.22,5.19-13.57,7.41-27.47,13.35-43.56,8.93a44.15,44.15,0,0,1-17.35-9.31c-3.62-3.12-5.64-6.74-5.37-12,.48-9.41.13-18.86.13-28.82,5.51,1.64,9.2,5.83,14.28,7.5,18.75,6.2,37,5.83,54.87-3.07,2.15-1.07,4.19-2.4,6.72-2.44Z"/><path class="a" d="M570.41,239.18c-4.08,12.37-7.67,23.22-11.23,34.08-.44,1.36-.84,2.69-2.24,3.41-15.76,8-32,11.21-49.31,5.33-8.34-2.83-14.11-8.81-19.37-15.51-1.39-1.77-.8-3.44-.53-5.13,1.66-10.28,3.41-20.54,5.29-31.76C516,253.73,542.09,250.68,570.41,239.18Z"/><path class="a" d="M254,297c28.33,11.1,50.94,4.05,70.61-16.87,1.71,2.1,1.32,5,1.8,7.58,1.67,8.88,3.12,17.8,4.71,26.7.43,2.43.56,4.7-1,6.9-9.87,14.22-32.6,25.06-50.36,17.86-8.57-3.47-15.71-8-17.94-18.17C260.13,313.24,256.93,305.81,254,297Z"/><path class="a" d="M584.66,196.91,574,228.05a4,4,0,0,1-2.37,2.56c-11.93,4.67-23.49,10.61-36.84,10.22-9.39-.27-18.17-2.28-26.35-7.31-5.38-3.32-8.18-8.72-12.33-13a3.79,3.79,0,0,1-.91-2.79c1.34-8.8,2.81-17.58,4.4-27.32,4.36,3.63,7.34,6.8,11.08,9.13,15.42,9.58,31.68,8.56,48.31,4.33,8.35-2.12,16.75-4,24.47-8.19Z"/><path class="a" d="M505.6,152.56c16.93,16.71,36.19,18.15,56.57,14.2,12-2.34,23.77-5.73,34.33-11.77,2,1.55.82,2.82.44,4-2.44,7.66-5,15.27-7.34,23-1,3.3-2.74,5-6.18,6.38A174.68,174.68,0,0,1,546,199.47c-17.29,2.95-35.43-4.74-42.65-18.26-.66-1.23-1.76-2.32-1.54-3.83C503,169.49,504.22,161.61,505.6,152.56Z"/><path class="a" d="M555.26,285.24c-4.24,13.1-8.07,24.89-11.89,36.68a4.36,4.36,0,0,1-2.45,2.46c-13.19,7.13-26.89,10.18-41.81,6.28-8.37-2.19-13.88-7.7-18.79-14.23a5.73,5.73,0,0,1-.94-4.58c1.81-11.31,3.6-22.62,5.45-33.92a7.69,7.69,0,0,1,1.06-1.92C506.12,296.17,529.34,295.57,555.26,285.24Z"/><path class="a" d="M402.07,111.25c15.87,14.48,32.85,22.44,53.05,20.64,19.1-1.7,36.48-8.39,51.87-22.41.12,8.84-2.35,15.78-2.6,22.89s-3.46,10.77-10,13.7c-14.11,6.32-28.5,11.05-44,11.56-17.81.59-33-5.59-45.23-18.78a10.57,10.57,0,0,1-3.17-8C402.2,124.8,402.07,118.8,402.07,111.25Z"/><path class="a" d="M512.51,110c6.33,7,12.24,12.4,19,16.65,15,9.36,30.72,11.84,47.75,5.79a140.87,140.87,0,0,0,24.49-11.39c1.66-1,3.28-2.32,6.32-1.74-2.93,8.6-5.81,17.05-8.7,25.49a3.21,3.21,0,0,1-2.11,2c-14.53,5.73-28.71,12.61-44.61,14-15.7,1.35-30.52-.16-42.38-12.25-3.43-3.5-5.33-6.89-4.11-12.22C510.09,128,511,119.51,512.51,110Z"/><path class="a" d="M330.91,280c20.59,12.16,40.67,9.76,65.91-7.61,1.67,2.55,1,5.41,1.06,8,.26,9.05.25,18.1.52,27.14.08,2.82-.61,5.23-2.67,7-12.39,10.84-26.66,15.41-42.92,11.95-6.65-1.41-11.5-6.41-16.66-10.54-1.51-1.2-1.31-3.28-1.7-5C332.21,301,332.3,290.69,330.91,280Z"/><path class="a" d="M501.09,151.34c-1.23,7.62-2.54,14.71-3.46,21.86a6.64,6.64,0,0,1-3.93,5.55C480.2,185.57,466.61,192,451,192.4c-17.89.47-33.88-3.31-45.34-18.58-2.41-3.22-3.86-6.36-3.67-10.44.25-5.13.06-10.28.06-16.53C434.41,173.91,467.29,166.32,501.09,151.34Z"/><path class="a" d="M403.86,321.33c22.52,18.44,45,14.39,68.12,2.26-.4,9.9-2.75,18.63-3.89,27.51,0,.39-.32.78-.29,1.16.85,13.12-8.56,16.87-18.45,19.57-14.75,4-28.63,2.78-40.39-8.39-3.22-3.05-5.17-6.38-5-11C404.29,342.45,403,332.48,403.86,321.33Z"/><path class="a" d="M477.11,325.44c18.83,18.9,39.32,17.13,60.89,8.45.19.49.66,1.08.53,1.48q-5.53,17.47-11.22,34.91a5.52,5.52,0,0,1-1.63,2.45c-11.85,10.06-36.09,11-49,2.37-4.88-3.28-6.88-6.94-5.69-13C473.37,350.16,475.05,338.08,477.11,325.44Z"/><path class="a" d="M396.88,144.74q0,11.4,0,22.79c0,2-1.33,3.35-2.73,4.48-8.9,7.19-17.86,14.28-28.42,19-16,7.15-38.79,2.59-50.68-10.18a6.67,6.67,0,0,1-1.86-3.67c-1.07-7.31-2.09-14.63-3.27-22.91,31.24,16.55,59.27,11,85.29-10.61Z"/><path class="a" d="M397.53,227.52c0,10.95-.06,20.78,0,30.6,0,2.47-1.12,4.14-2.63,5.81A49,49,0,0,1,338.73,276c-6.29-2.76-10.43-7-11.37-14.18-1-7.92-2.49-15.78-3.86-24.36C350.21,250.09,374.61,248.77,397.53,227.52Z"/><path class="a" d="M396.21,112.48c0,5.8,0,11.6,0,17.39,0,1.85-.16,3.51-1.6,5-17.28,17.54-42,27.42-67.6,19.25a43,43,0,0,1-12.79-6.63c-4.21-3.17-7.42-7-8-12.81-.78-7.35-2.3-14.63-3-22.61,13.1,11.91,28,18.28,45.66,18s32.83-6.49,45.89-18.38Z"/><path class="a" d="M337.39,326.84c22,14.15,41.24,7.74,60.54-4,1.07,3.83.4,7.94.55,12a87,87,0,0,1,.07,10.83c-.44,4.93,1.65,9.95-2.86,14.66-6.8,7.12-13.79,12.35-24.26,12.33-10.62,0-19.75-2.69-26.83-10.9-.64-.75-1.6-1.49-1.75-2.36C341,349,339.34,338.6,337.39,326.84Z"/><path class="a" d="M271.06,342.92c23.31,11.86,42.49,3.3,60.62-12.74,2.05,3.7,1.73,7.6,2.6,11.15,1,3.88,1.35,7.9,2.09,11.84,2.28,12.08-1.23,17.32-12.73,22.43-15.52,6.88-29.63,4-43.45-4.23a3.87,3.87,0,0,1-1.6-2.42q-4.23-12.52-8.41-25.06Z"/><path class="a" d="M404.53,369.59c19,15.06,38.11,14.46,58.08,5.15,1.84,1.74.84,3.7.58,5.47-1.06,7.13-2.27,14.25-3.27,21.39-.37,2.62-1.4,4-4,5.18-8.8,4.06-17.57,7.67-27.42,8.61-10,1-16.64-4.54-23.16-10.65a3.37,3.37,0,0,1-.76-2.19C404.52,392,404.53,381.42,404.53,369.59Z"/><path class="a" d="M399.42,368.59c0,10.84-.06,21.68,0,32.52a6.12,6.12,0,0,1-2.36,5.09c-13.84,12.56-31.76,11.87-46.26-4.09a5.76,5.76,0,0,1-1.25-2.69c-1.53-8.47-3-16.95-4.62-26.4,19.13,9.37,37,11.09,52.89-5Z"/><path class="a" d="M284.28,381.69c12.23,5.69,24.58,5.66,37.39,1.73A34.09,34.09,0,0,0,338,372.53c2.21.9,2.18,2.39,2.4,3.73,1.21,7.31,2.47,14.62,3.57,21.95.37,2.47,1.28,5-1.07,7.31-11.93,11.77-30.23,16.6-44.79,6.42-4.71-3.29-8-6.58-9.23-12.16-1.28-5.87-4.52-11.15-5.53-17.13Z"/><path class="a" d="M522.58,382.32c-2.49,10.35-4.62,20-8.56,29.13a4.35,4.35,0,0,1-2.45,2.49c-9.17,3.65-18.3,7.18-28.55,5.78-12.45-1.71-19.75-11.4-17.53-23.7,1.07-5.92,2.11-11.85,3.35-18.86C485.61,391.81,503.64,390.58,522.58,382.32Z"/><path class="a" d="M295.76,418.77c18.95,9.71,35.15,6.91,50.19-7.51,1.72,9.46,3.2,17.65,4.69,25.82a7.28,7.28,0,0,1-2.09,6.63c-11.17,11.25-18.39,15.45-35.91,8.78-5.67-2.16-7.94-5.75-9.49-10.88C301,434.52,298.6,427.51,295.76,418.77Z"/><path class="a" d="M404.69,414.64c18,13.8,35.1,8.31,53-.67-1.76,10.23-3.33,19.25-4.87,28.27a4.17,4.17,0,0,1-1.54,2.46c-12,10.7-33.62,10.17-44.92-1a5.58,5.58,0,0,1-1.63-4.32C404.67,431.53,404.69,423.72,404.69,414.64Z"/><path class="a" d="M462.17,415.27c14.17,15.85,30.22,12.74,46.62,7,1.51,1.21.53,2.55.13,3.79-2.11,6.49-4.52,12.9-6.31,19.48-1.2,4.44-4,6.49-8,8-8.28,3.17-16.6,5-25.27,2.06-9.19-3.16-12.28-8.8-10.64-18.32C459.91,430.31,460.92,423.29,462.17,415.27Z"/><path class="a" d="M352.89,414.3c15.9,10.95,30.94,9.71,46.83-.75,0,10.85,0,20.57,0,30.29,0,1.74-1.31,2.33-2.37,3.2-7.82,6.37-16.56,8.27-25.89,4.25-8.77-3.77-16-9.18-16.67-20C354.48,425.91,352.41,420.73,352.89,414.3Z"/><path class="a" d="M450.42,454.17c-.59,8.79-.69,17.36-4.2,24.19-3.05,5.93-10.45,8.85-17.63,10-7.93,1.29-14.49-1.92-20.82-6.06a5.14,5.14,0,0,1-2.63-4.45c0-8.37,0-16.75,0-26.37C419.84,462.25,434.7,461.86,450.42,454.17Z"/><path class="a" d="M352.5,449.29c1.73,9.78,3.56,18.4,4.65,27.12.57,4.51-3.85,6.88-6.56,9.46-6.93,6.57-23.72,6.57-31.13.55a5.58,5.58,0,0,1-1-1.45c-1.8-3-7.44-21.29-7.78-25.77C326.54,465.89,340.14,462.39,352.5,449.29Z"/><path class="a" d="M455.72,454.87c13,11.56,26.68,11.13,42,4.29-2.91,9-5.37,16.91-8.07,24.76-1.22,3.53-5.17,3.5-7.87,4.87-10.31,5.22-20.39,3.08-27.7-5.1a7.64,7.64,0,0,1-2-7.09C453.35,469.72,454.4,462.79,455.72,454.87Z"/><path class="a" d="M358.48,452.31c13.4,9.71,26.58,11.9,41.57,1.94,0,9.43.46,17.75-.19,26-.34,4.22-5.13,5.48-8.55,6.64-8.1,2.76-23.46-3-28.08-10.13-.81-1.27-.91-3-1.2-4.61C360.88,465.86,359.77,459.58,358.48,452.31Z"/><path class="a" d="M322.37,496.3c18.33,3.58,25.45,1.75,35.36-8.68,2.74,1,2,3.61,2.44,5.56a57,57,0,0,1,1.23,7.71c.42,4.18,3.39,8.65-.7,12.44-5.34,5-11.62,7.78-19.07,7.2-8.1-.64-14-3.9-15.55-12.76C325.42,504.08,323.79,500.57,322.37,496.3Z"/><path class="a" d="M485.37,494.5c-1.17,7.14-4,13.8-6.05,20.67a4.22,4.22,0,0,1-1.8,2.3C470.19,522.55,456,522,449,516.35c-1.86-1.51-2.89-3.2-2.45-5.71,1.13-6.47,2.17-13,3.39-20.28,4.26,2.29,7.36,5.05,11.18,6.62,8.64,3.56,16.41.4,24.31-2.38Z"/><path class="a" d="M444.74,489.56c-1.18,7.41-2.16,13.65-3.17,19.88-.26,1.58-1.65,2.17-2.78,3a24.22,24.22,0,0,1-30.47-1.35,6.48,6.48,0,0,1-2.66-5.13c0-5,0-10,0-16.06C418.59,497.47,431.26,498.22,444.74,489.56Z"/><path class="a" d="M405.89,519c11.08,5.53,21.83,5.41,33.15,1.53-.14,6.79-.6,12.58-2.61,17.61-2.51,6.24-9,8.08-15.18,9.27-5.58,1.08-10.26-1-14.16-4.92-1.22-1.22-1.17-3-1.18-4.56C405.87,531.91,405.89,525.89,405.89,519Z"/><path class="a" d="M331.37,524.8c6.91,1.27,12.32,2.45,18,1.42,5.43-1,9.56-4.91,15-6.16,2,6.07,2.29,12.33,3.54,18.4a4.21,4.21,0,0,1-.88,3.34c-5.16,7.67-20.69,10.1-27.73,4.26a3.52,3.52,0,0,1-1-1.47C336.12,538.39,334,532.17,331.37,524.8Z"/><path class="a" d="M444.65,520.76c9.81,6.86,19.57,7.93,31.16,3.11-2.66,8.08-3.87,15.15-7.2,21-3.87,6.79-21,8.75-26.8-.67a4.63,4.63,0,0,1-.69-3.41C442.25,534.5,443.35,528.2,444.65,520.76Z"/><path class="a" d="M434.62,550.2c-1.31,7.75-2.81,14-3.34,20.42-.48,5.75-3.86,8.13-8.66,9.28a18.53,18.53,0,0,1-12.37-1.31,6.44,6.44,0,0,1-4.17-6.62c.17-6.42.05-12.85.05-20.52C415.73,557.07,424.88,556,434.62,550.2Z"/><path class="a" d="M369.67,517.11c11.11,5.95,20.75,5.6,31-2.38,0,8.57.35,16.06-.16,23.48-.24,3.46-9.24,7.52-13.84,6.33-8.53-2.21-14.07-3.9-14.79-14.42C371.59,526.19,370.57,522.31,369.67,517.11Z"/><path class="a" d="M343.21,556c9.51.91,18.64.46,26.19-7.69,2.44,8.92,3.51,17.19,4.61,25.41.45,3.3-6.67,7.51-11.69,7.43a15.9,15.9,0,0,1-14.83-11C346.07,565.64,343.3,561.52,343.21,556Z"/><path class="a" d="M399.72,489.93c1.19,5.73.89,10.52.78,15.27-.06,2.53-2.35,3.67-4.11,4.88-8.24,5.66-20.62,4.4-27.77-2.7-1.07-1.06-1.23-2.46-1.46-3.85-.8-4.73-1.66-9.45-2.73-15.5C376.17,494.29,387.32,498.48,399.72,489.93Z"/><path class="a" d="M465.07,555.82c-2.44,7.69-4.33,14.43-6.74,21-1.85,5-6.85,5.9-11.27,6.52a10.88,10.88,0,0,1-10.88-5.06,3.6,3.6,0,0,1-.78-2.78c1.29-7.24,2.56-14.48,4-22.68C447.54,557.57,455.5,559.07,465.07,555.82Z"/><path class="a" d="M375.19,550.08c15.45,2.12,15.45,2.12,25.8-2.06,0,8.06,0,15.79,0,23.52a4,4,0,0,1-2,3.46c-7.63,5.34-19.42.36-21-8.89C377.13,561,376.21,555.9,375.19,550.08Z"/><path class="a" d="M393.38,702.58c-6.54-18.67-13.07-37.34-19.74-56.41a41.44,41.44,0,0,0,12-3.51c2.92,20.19,7.71,39.68,9.4,59.67Z"/><path class="a" d="M360,606.31c-2.25-6.16-4.35-11.93-6.8-18.65,8,.3,15.48,1.22,22.33-4.52,1.23,7,2.69,13,3.23,19,.36,4-6.42,7.18-12,5.87C364.51,607.49,362.39,606.31,360,606.31Z"/><path class="a" d="M408.61,701.71c-1-19.4-1.75-38.76-1.38-58.23h11.56C416.28,663.31,412.25,682.46,408.61,701.71Z"/><path class="a" d="M414.78,701.44c3.1-19.06,6.19-38.12,9.31-57.34,4,.33,7.27,2.62,10.94.11A410,410,0,0,1,414.78,701.44Z"/><path class="a" d="M401.75,701.73c-4-19.55-6.74-39.31-10.85-59.11,3.66-1.33,7.3-1.47,10.85-4.12Z"/><path class="a" d="M407.12,585.62c7.29,2.29,14.1,3.75,21.24-.28.28,5.69-1.17,10.71-2.3,15.7-.67,3-7.55,5.2-12.24,4.2-3.86-.83-7.38-2.25-7.12-7.34C406.9,594,405.31,590,407.12,585.62Z"/><path class="a" d="M385.33,609.43c5.95,0,11,.88,15.82-2.67,1.38,7.72.67,14.71.5,21.62-.07,3-3.13,5.66-6.09,5.63s-6.32-1.77-7-5.53C387.4,622.39,386.47,616.26,385.33,609.43Z"/><path class="a" d="M454.23,588.77c-1.71,5.28-3,9.68-4.57,14-1.38,3.71-9.48,6.57-14.16,5.14-5.21-1.59-5-5.57-4-9.71.89-3.66.52-7.61,2.58-11.25C440.13,590.31,446.48,591.12,454.23,588.77Z"/><path class="a" d="M363.83,615.51c6.21,2,11.11-.72,16.29-3.4,2.22,6.58,2.85,13.15,3.76,19.61.6,4.28-2.69,6.46-6.41,5.89s-8.2-1.27-9.2-6.7C367.36,625.9,364.52,621.35,363.83,615.51Z"/><path class="a" d="M407,610.6c5.62,3.35,10.92,2.34,16.82.74,0,7.37-1.49,14-3.07,20.49-.86,3.53-4.46,4.53-7.88,3.9s-6-2.07-5.91-6.28C407.08,623.46,407,617.47,407,610.6Z"/><path class="a" d="M446,613.87c-2.43,7.16-4.27,12.87-6.31,18.5-1.39,3.84-6.37,6.76-9.48,5.55-4.27-1.67-4.36-5.2-3.6-9,1-4.86,1.85-9.75,2.84-15A24.84,24.84,0,0,0,446,613.87Z"/><path class="a" d="M401,581.77c.27,5.12.4,8.71.66,12.29.38,5.05-2.36,7.36-6.95,8.05-5.47.81-10.5-1.37-11.36-5.47s-2.12-8.53-1.76-13.62C388,585.5,394.17,586.51,401,581.77Z"/><path class="a" d="M485.47,494.6c0-.15.06-.29.08-.44l-.18.34Z"/><path class="a" d="M283.35,382.65c-.17-.32-.56-.77-.46-.94.38-.7.91-.41,1.39,0Z"/><path class="a" d="M270.18,343.89c-.17-.29-.56-.69-.48-.85.34-.64.87-.43,1.36-.12Z"/><path class="a" d="M479.17,277c.24-.17.61-.54.7-.48.53.34.4.79,0,1.21Z"/></svg>