<svg xmlns="http://www.w3.org/2000/svg" viewBox="0 0 800 800"><defs><style>.a{fill:#e2a1b4;}</style></defs><title>slot-machine</title><path d="M161.84,399.94q0-171.37,0-342.76c0-6.19,1.13-7.39,6.68-7.15,29.84,1.26,59.7.72,89.55.81q103.11.33,206.23.38c50.7,0,101.39-.43,152.09-.64,5.2,0,10.4.09,15.6.17,6.6.11,7.44.88,7.36,7.67-.08,8-.51,16-.54,24-.35,85.78-.83,171.57-.9,257.35q-.15,165.36.24,330.72,0,35.78,0,71.55c0,7.11-1.34,8-8.54,7.93-34.46-.33-68.92-.62-103.38-.65q-178-.15-356-.06c-10.8,0-9.67.44-9.49-9.67,1.35-78.35.64-156.7.73-235q.06-52.32,0-104.63Zm3.52-4.83h-.18c0,76.77.14,153.54-.09,230.31-.07,19.85.44,39.46,5.46,58.87s13,36.85,31.76,46.5c18.09,9.29,38,13.24,57.94,14.08,29.6,1.24,59.29.5,88.94.51,57.52,0,115.06-.73,172.57.26,25.5.44,49.1-5.55,72.34-14.37,8.15-3.09,15.58-7.79,20.64-15.69,13-20.3,19.11-42.51,19.25-66.42.14-22-.2-44.09-.19-66.13,0-101.63.35-203.26.07-304.88-.13-46.25,2.27-92.54-.93-138.75-.58-8.33-.12-16.73-1.92-25C627.67,99,620.84,85.74,607.6,76.73c-22.43-15.25-48.26-21-74.51-21.28-81.37-.9-162.75-.39-244.13-.2-17.4,0-34.92-1.55-52.19,1.2-15.28,2.43-30.05,6.71-42.35,17-8.23,6.91-13.44,15.88-17.67,25.41-5.51,12.4-11.3,24.93-11.32,38.84Q165.24,266.42,165.36,395.11Z"/><path class="a" d="M165.36,395.11q0-128.69.07-257.38c0-13.91,5.81-26.44,11.32-38.84,4.23-9.53,9.44-18.5,17.67-25.41,12.3-10.32,27.07-14.6,42.35-17C254,53.7,271.56,55.29,289,55.25c81.38-.19,162.76-.7,244.13.2,26.25.29,52.08,6,74.51,21.28,13.24,9,20.07,22.24,23.42,37.65,1.8,8.29,1.34,16.69,1.92,25,3.2,46.21.8,92.5.93,138.75.28,101.62,0,203.25-.07,304.88,0,22,.33,44.09.19,66.13-.14,23.91-6.26,46.12-19.25,66.42-5.06,7.9-12.49,12.6-20.64,15.69-23.24,8.82-46.84,14.81-72.34,14.37-57.51-1-115-.25-172.57-.26-29.65,0-59.34.73-88.94-.51-20-.84-39.85-4.79-57.94-14.08-18.79-9.65-26.7-27-31.76-46.5s-5.53-39-5.46-58.87c.23-76.77.09-153.54.09-230.31ZM315.27,525l-1-1c1.69-11.57.76-23.11-.11-34.7-1.56-20.91-8.16-40.25-17.06-59-5-10.46-8.71-21.43-16.21-30.63-7.74-9.49-9.91-9.93-19.68-2.6-3.31,2.48-4.63,5.9-6.16,9.35-2.25,5.07-2.08,10.49-1.94,16.21-5.87-.4-11.51-1.3-16.77.87-13.41,5.53-18.6,26.43-6.32,39.26a7.88,7.88,0,0,0,4.76,2.4c9.4,1,19.57-9.15,18.52-18.49-.69-6.08-4.35-10.36-8.95-10.49s-9.29,4.08-9.67,9c-.18,2.25-.61,5.43,2.71,5.68,3.13.23,3.05-2.1,2.5-4.63a3.7,3.7,0,0,1,2.43-4.35c1.66-.61,3.1.2,4.18,1.58,2.27,2.91,1.57,9.32-1.35,12.25-3.27,3.3-9.6,4-12.61,1.2-5.56-5.22-4.9-12-3.9-18.57.78-5.15,4.14-8.58,9-10.37,9.33-3.45,14.65-1.29,20.87,8.48,1.46,2.3,2.72,5.15,5.82,2.66,2.6-2.08,1.55-4.56-.55-6.71-3.39-3.45-4.66-7.91-5.37-12.49s2.75-8.55,6.67-8.16c3,.31,5,2.49,6.71,4.71,8.31,10.6,12.59,22.34,11.61,36.13-1.55,21.65-8.69,41.38-19.6,59.82-5.93,10-6.35,9.79-18.24,7.22-9.63-2.08-21.19,2.68-24.78,11-2.4,5.6-2.28,12-2.88,18-1.07,10.87-.21,21.79,3.84,31.9,6.49,16.22,18.75,25.09,38.13,19.88,9-2.42,16.05-7.35,22.91-13.06,10,9,18.83,13.89,27.67,13.91,13.22,0,22.24-4.51,29.54-20.66a59.87,59.87,0,0,0,3.64-39.63c-2.83-11.91-14.14-22-27.1-16.09A4.18,4.18,0,0,1,315.27,525ZM497.64,383.27c2.88,2.9,7.5,3.94,9.09,1,.76-.95-2.49-1.56-1.71-3.32,7.85,2.07,14.62,6.28,21.56,10.12,6.3,3.49,8.93,3,12.74-2.66,2.17-.86,4,.28,5.76,1.07a55.39,55.39,0,0,0,23.78,4.79c7.37,0,9.26-2.31,6.62-9.1-3.56-9.15-8-17.89-14.19-25.64a83.05,83.05,0,0,0-12.5-13c4.77-1.18,7.34.85,9.9,2.75,1.65,1.22,3.43,2.78,5.33,1.19,2.28-1.9.51-4-.56-5.89-.7-1.2-1.75-2.22-2.37-3.45-4.18-8.42-12.65-13.58-15.84-23.2-2.79-8.39-9.73-14.91-17.17-20.32-5.34-3.9-11.35-6.66-17-10.3,1.35-5,2.66-9.79,4-14.6l1.28-.22C521.3,285.19,530,294.9,541,302c10.49,6.8,17.07,16,21.76,27.14.71,1.68.53,4.48,3.52,3.88s2.65-3.23,2.21-5.34c-1.87-9.18-3.55-18.36-7.6-27a143.48,143.48,0,0,0-18.92-30c7.11,2.8,13.95,5.95,19.64,11,6.86,6.08,14.46,11.54,19,19.76,9,16.15,9.3,33.37,5.05,50.77a119.67,119.67,0,0,0-2.51,40.58c1,10,4,19.73,8.15,30A47.21,47.21,0,0,0,601,409.07c7.83-17.4,10.7-35.58,6.9-54.43-5.18-25.7-12.79-50.35-32.78-69.64,14.52-1.24,21.33,9,28.68,18.08,3.78-2.05,3.2-4.59,2.41-7.46-1.84-6.69-7.58-10.48-11.52-15.54-11.19-14.41-25.84-23-44.23-25.61-8.69-1.25-17.45-1.89-26.11-3.45-6.84-1.24-14-3.24-18.47-7.85-8.78-9.14-19.24-15-30.59-19.45-9-3.54-13.78-10.32-18-18.76,16.32-11.18,27.73-26.43,38-42.71A51.33,51.33,0,0,0,501,150.43c1.42-4.5-1-7-5.64-5.68-2.8.79-22.69,6.89-27.55,9.93-1.79,1.12-9.26,5.54-11,4.06-1.56-1.36,3.61-7.88,4.1-10,2.05-8.91,4-17.85,4.78-27,.33-4,1.2-8.61-3-10.84-3.88-2.07-6.7,1.81-9.22,3.92-4.69,3.93-8.74,8.62-13.11,12.94a192.34,192.34,0,0,0-23.32,28.07c-4.32-9.5-4.49-9.68-9.32-10.22-5-12.33-6.6-26.13-16.22-35.65-2.71-.35-3.53,2.32-5.82,1.63-4.58-7.11-8.29-14.95-13.67-21.71-4.16-5.22-7.43-4.73-9.73,1.36a87.54,87.54,0,0,0-5.69,32.9c0,2.19.36,4.4-.54,6.51-1.51,1.05-3.67.26-5.22,2.1-1.65,10,1.76,19.82,3.27,30.1a9.83,9.83,0,0,0-5.91,2.11c-8.54-9.45-17.39-18.16-29.83-21.45-10.46-2.76-21.05-1.13-31.59.41-12.44,1.82-24.78,1.8-36.39-4.07-1.91-1-4-3.16-5.55-.2a4.64,4.64,0,0,0,2.32,6.57c3.14,1.54,5.43,4.07,7.94,6.34,6.41,5.79,13.27,10.23,22.18,11.8,10.8,1.91,21.5,3.28,32.53,2.07-7.69,1.39-14.29,5-20.63,9.17C277,183.71,267.61,193.83,262.4,208c-3.9,10.63-2.6,21.34-3.23,32.05-.75,12.6-.88,25.31-6.39,37-1.28,2.74-2.54,5.39-.07,7.65,2.86,2.63,5.18-.06,7.32-1.71,21.61-16.71,30.94-38.95,29.57-66-.38-7.59-1.17-15.18-1.19-22.78,0-11.62,13.95-22.63,25.56-20.53-16.09,13.45-20.44,23-13.87,32.14,5.48-7.83,12.4-13.52,21.54-16.31,10.15-3.1,20.68-1.19,26.32,5.64-11.84,6.71-15.93,19-20.89,30.36-5.82,13.32-14.76,22.72-27.47,29.62-7,3.81-14.7,7.57-19.24,14.88-7.3,11.77-5.3,29.6,5.07,40.75,3.7,4,5.24,7.64,4.63,13.24-1.65,15.17,6.45,29.29,22.5,33.8,5.39,1.52,10.71,3.33,16.06,5,1.9.6,3.87,1.13,5.1,2.9,3.41,4.93,7.23,9.53,10.4,14.68,7.25,11.81,14.38,24.24,31.62,23.22.61,12.19-1.84,23-11.21,31.12-2.39,2.07-4.43,4.59-7.2,6.24s-2.88,3.79-.48,5.72c8,6.42,9.66,15.26,9.69,24.71,0,6.21-.38,12.42-.33,18.63,0,5,.69,10.15,3.48,14.44,8.82,13.56,9.16,28.21,5.95,43.33-.95,4.47-1,8.79.68,13,1.87,4.68,5.38,6.11,10.21,4.51,5.81-1.92,8.44-6.18,8.78-14.19.2-4.79-.64-9.56.28-14.39,2.54-13.37,12.28-21.72,21.57-30a17.41,17.41,0,0,1,16.35-4c6.56,1.87,11.57,9.27,11,16.1-.67,7.67-7.88,15.66-14.61,16.24-3.48.3-5.69-1.46-7.22-4.34-1.7-3.2-2.35-6.84-.13-9.64,2-2.56,5.19-4.54,8.94-2.19.35,2.21-3.13,4.3.24,6.59,3.14-2.07,6.61-4.06,4.67-8.74-2.12-5.12-6.13-6.31-11.31-4.17-3.83,1.58-6.1,4.57-7.69,8-2.86,6.21-.78,11.86,3.08,16.8,3.27,4.19,8.61,4.61,14.94,2.16,3.53-1.37,5.86-4.16,8.39-6.63,8.45-8.25,7-25.66-2.47-32.69C432.78,494,419.79,496,410.84,505c-2.64,2.66-5.14,5.46-8.29,8.82-2.41-8.12-7-14.27-10.6-20.93a32.35,32.35,0,0,1-3.74-10.73c-.33-2.19-.53-4.69,2.69-4.91,5.93-.41,4.19-3.47,2.2-6.39-9.43-13.85-11.43-31.73,9-44,2.92-1.75,3-3.27,1.18-6.24-3.91-6.4-6-13.33-2.62-20.81,12.39,3.43,16.74,3,31.31-6.45,4.15,18.72,8.88,37.11,20.82,53.95,11.44-13.71,15.2-28.94,17.29-45.49,10.48,9,19.24,19.32,31.61,24.82,2.69-1.72,2.81-4.08,2.94-6.52.31-5.46-1.48-10.69-1.7-16.06-.31-7.31-4.58-13.56-5.2-20.74Zm15.74,111.31c-1.07.1-1.88.95-2.82,1.73-7.72,6.32-15.3,12.79-23.48,18.57-8.44,6-16.91,12-24.56,19-15.76,14.28-33.07,26.52-49.92,39.36-20.8,15.85-42.53,30.53-61.32,48.9-4.34,4.24-4.41,5.06.29,8.58,29.69,22.24,59.13,44.83,89.72,65.85,3.74,2.57,6.42,2.16,9.62-.33,5.47-4.24,10.34-9.17,15.95-13.28Q488.55,667,509.41,650c19.84-16.14,39.73-32.25,60.33-47.45,10-7.34,19.56-15.19,28.86-23.32,3.75-3.28,9.27-5.12,10.82-11.29C578.32,542.42,545.27,519.39,513.38,494.58ZM412.54,425.31c-3.62,1.59-2.92,4-2.89,6.06.12,7.82-.34,15.49-3.87,22.72a17.78,17.78,0,0,0-1.63,6.33c-.43,6,3,10.6,8.12,11.52,4.72.84,7.33-1.85,8.32-5.83C424.27,451.38,421.42,437.88,412.54,425.31Zm-62.08,27.93c-3.76-.25-4.77,1.77-5.65,3.41-3.49,6.55-6.56,13.31-7.5,20.78a24.78,24.78,0,0,0,1.13,12.4c1.53,3.87,3.95,7.29,8.57,7.24,3.85,0,8.62-6.06,8.18-10.63C354.1,475.21,348.77,464.72,350.46,453.24Zm-145-94.93c-6.75,13.38,2.5,50.44,17,68.14,5.08-2.61,2.4-5.75.57-8.75-7.11-11.68-12.8-23.95-15-37.57C207,372.89,206.35,365.58,205.48,358.31Zm19.57-4.22c-2.63,1.2-2.53,3.36-2.85,5.28-3.09,18.57-1.8,36.67,5.85,54.08.92,2.1,1.28,5.4,4.59,4,2.72-1.16,1.35-3.68.43-5.7-7.3-15.88-9.14-32.56-7.12-49.78C226.25,359.37,226.72,356.81,225.05,354.09Zm24.58,8c-3.71,5.52-5.64,11.74-7.43,17.93a68.21,68.21,0,0,0-1.42,33.73c.4,1.86,1,3.67,3.42,3.17,2.11-.43,2.83-2.2,2.76-4.09a28.14,28.14,0,0,0-1-4,68.34,68.34,0,0,1,1.33-30.12C248.66,373.42,251.91,368.21,249.63,362.11Zm307.69,84.17c-3.42,18.16-10.3,34.58-23.57,48.92C547.75,492.75,564.44,457.56,557.32,446.28Zm-36.16,36.88c6.73-2.16,10-16.52,8.26-31.79-1.54-13.45-2.44-15.66-7.41-16.17C525.78,451.17,526.36,467,521.16,483.16Zm-37.09-39c-1.25,4.11,2.34,5.63,4.39,7.52,7.83,7.26,15,15,18.41,25.36.79,2.38,2,3.24,4.32,2.15C511.2,467,494.86,445.8,484.07,444.13Zm12.48,49.78,1.83-2.41c-7.07-13-20.06-18.63-32.66-24.66-1.74-.82-3.89-2.84-5.87,1.26C472.43,476.1,486.46,482.12,496.55,493.91Z"/><path d="M497.75,383.29c.62,7.18,4.89,13.43,5.2,20.74.22,5.37,2,10.6,1.7,16.06-.13,2.44-.25,4.8-2.94,6.52-12.37-5.5-21.13-15.84-31.61-24.82-2.09,16.55-5.85,31.78-17.29,45.49-11.94-16.84-16.67-35.23-20.82-53.95-14.57,9.49-18.92,9.88-31.31,6.45-3.36,7.48-1.29,14.41,2.62,20.81,1.81,3,1.74,4.49-1.18,6.24-20.45,12.31-18.45,30.19-9,44,2,2.92,3.73,6-2.2,6.39-3.22.22-3,2.72-2.69,4.91A32.35,32.35,0,0,0,392,492.9c3.63,6.66,8.19,12.81,10.6,20.93,3.15-3.36,5.65-6.16,8.29-8.82,9-9,21.94-11,30.47-4.72,9.51,7,10.92,24.44,2.47,32.69-2.53,2.47-4.86,5.26-8.39,6.63-6.33,2.45-11.67,2-14.94-2.16-3.86-4.94-5.94-10.59-3.08-16.8,1.59-3.46,3.86-6.45,7.69-8,5.18-2.14,9.19-.95,11.31,4.17,1.94,4.68-1.53,6.67-4.67,8.74-3.37-2.29.11-4.38-.24-6.59-3.75-2.35-6.9-.37-8.94,2.19-2.22,2.8-1.57,6.44.13,9.64,1.53,2.88,3.74,4.64,7.22,4.34,6.73-.58,13.94-8.57,14.61-16.24.6-6.83-4.41-14.23-11-16.1a17.41,17.41,0,0,0-16.35,4c-9.29,8.29-19,16.64-21.57,30-.92,4.83-.08,9.6-.28,14.39-.34,8-3,12.27-8.78,14.19-4.83,1.6-8.34.17-10.21-4.51-1.68-4.19-1.63-8.51-.68-13,3.21-15.12,2.87-29.77-5.95-43.33-2.79-4.29-3.44-9.4-3.48-14.44,0-6.21.35-12.42.33-18.63,0-9.45-1.72-18.29-9.69-24.71-2.4-1.93-2.35-4,.48-5.72s4.81-4.17,7.2-6.24c9.37-8.11,11.82-18.93,11.21-31.12-17.24,1-24.37-11.41-31.62-23.22-3.17-5.15-7-9.75-10.4-14.68-1.23-1.77-3.2-2.3-5.1-2.9-5.35-1.69-10.67-3.5-16.06-5-16.05-4.51-24.15-18.63-22.5-33.8.61-5.6-.93-9.26-4.63-13.24-10.37-11.15-12.37-29-5.07-40.75,4.54-7.31,12.22-11.07,19.24-14.88,12.71-6.9,21.65-16.3,27.47-29.62,5-11.34,9.05-23.65,20.89-30.36-5.64-6.83-16.17-8.74-26.32-5.64-9.14,2.79-16.06,8.48-21.54,16.31-6.57-9.16-2.22-18.69,13.87-32.14-11.61-2.1-25.58,8.91-25.56,20.53,0,7.6.81,15.19,1.19,22.78,1.37,27-8,49.26-29.57,66-2.14,1.65-4.46,4.34-7.32,1.71-2.47-2.26-1.21-4.91.07-7.65,5.51-11.73,5.64-24.44,6.39-37,.63-10.71-.67-21.42,3.23-32.05,5.21-14.2,14.61-24.32,26.82-32.45,6.34-4.22,12.94-7.78,20.63-9.17-11,1.21-21.73-.16-32.53-2.07-8.91-1.57-15.77-6-22.18-11.8-2.51-2.27-4.8-4.8-7.94-6.34a4.64,4.64,0,0,1-2.32-6.57c1.51-3,3.64-.77,5.55.2,11.61,5.87,23.95,5.89,36.39,4.07,10.54-1.54,21.13-3.17,31.59-.41,12.44,3.29,21.29,12,29.83,21.45a9.83,9.83,0,0,1,5.91-2.11c-1.51-10.28-4.92-20.1-3.27-30.1,1.55-1.84,3.71-1,5.22-2.1.9-2.11.58-4.32.54-6.51a87.54,87.54,0,0,1,5.69-32.9c2.3-6.09,5.57-6.58,9.73-1.36,5.38,6.76,9.09,14.6,13.67,21.71,2.29.69,3.11-2,5.82-1.63,9.62,9.52,11.2,23.32,16.22,35.65,4.83.54,5,.72,9.32,10.22a192.34,192.34,0,0,1,23.32-28.07c4.37-4.32,8.42-9,13.11-12.94,2.52-2.11,5.34-6,9.22-3.92,4.2,2.23,3.33,6.85,3,10.84-.76,9.14-2.73,18.08-4.78,27-.49,2.15-1.66,8.52-1.66,8.52s6.75-1.43,8.54-2.55c4.86-3,24.75-9.14,27.55-9.93,4.59-1.3,7.06,1.18,5.64,5.68a51.33,51.33,0,0,1-5.82,11.82c-10.24,16.28-21.65,31.53-38,42.71,4.25,8.44,9,15.22,18,18.76,11.35,4.46,21.81,10.31,30.59,19.45,4.43,4.61,11.63,6.61,18.47,7.85,8.66,1.56,17.42,2.2,26.11,3.45,18.39,2.63,33,11.2,44.23,25.61,3.94,5.06,9.68,8.85,11.52,15.54.79,2.87,1.37,5.41-2.41,7.46-7.35-9.1-14.16-19.32-28.68-18.08,20,19.29,27.6,43.94,32.78,69.64,3.8,18.85.93,37-6.9,54.43a47.21,47.21,0,0,1-9.63,13.66c-4.13-10.23-7.16-19.94-8.15-30a119.67,119.67,0,0,1,2.51-40.58c4.25-17.4,3.95-34.62-5.05-50.77-4.58-8.22-12.18-13.68-19-19.76-5.69-5.05-12.53-8.2-19.64-11a143.48,143.48,0,0,1,18.92,30c4.05,8.65,5.73,17.83,7.6,27,.44,2.11.87,4.72-2.21,5.34s-2.81-2.2-3.52-3.88C558.08,318.05,551.5,308.82,541,302c-11-7.12-19.71-16.83-24.68-29.48l-1.28.22c-1.3,4.81-2.61,9.62-4,14.6,5.64,3.64,11.65,6.4,17,10.3,7.44,5.41,14.38,11.93,17.17,20.32,3.19,9.62,11.66,14.78,15.84,23.2.62,1.23,1.67,2.25,2.37,3.45,1.07,1.87,2.84,4,.56,5.89-1.9,1.59-3.68,0-5.33-1.19-2.56-1.9-5.13-3.93-9.9-2.75a83.05,83.05,0,0,1,12.5,13c6.23,7.75,10.63,16.49,14.19,25.64,2.64,6.79.75,9.06-6.62,9.1a55.39,55.39,0,0,1-23.78-4.79c-1.71-.79-3.59-1.93-5.76-1.07-3.81,5.62-6.44,6.15-12.74,2.66-6.94-3.84-13.71-8.05-21.56-10.12-.78,1.76,2.47,2.37,1.71,3.32-1.59,2.9-6.21,1.86-9.09-1l-.24.08ZM508,294.06c-3.23,4.37-5.5,8.48-9.35,11.15-6.36,4.4-6.4,4.51-1.57,10.84a252.38,252.38,0,0,0,41.36,43.23c6.44,5.23,12.41,11.34,21.28,15.78-5.52-13.05-16.18-20.85-22.66-31,2-3.51,5.63-2.74,7.33-5-3.42-10.16-14.64-13-19.77-20.68.9-3.54,4-1.59,5.19-3.76C524.35,306.11,517.07,299.58,508,294.06ZM457,275.51a14.29,14.29,0,0,0,1.71.44c18,2.4,31.77,19.62,19.17,40-4.76,7.7-12.3,12.51-19,18.16-12.42,10.5-24.6,21.06-29.87,37.28a25.92,25.92,0,0,1-3.74,7.47c-8.64,11.6-19.86,14.93-31.41,3.65-2.42-2.36-3.47-5.31-4.71-8.24-1.63-3.84-3.15-7.72-4.66-11.43-2.18.69-2.44,1.73-2.24,2.7,1.27,6.23,2,12.65,5.92,18,7.71,10.56,25.25,17.06,36.8,6.57,4.82-4.38,8.12-9.78,10.79-15.62,6.8-14.84,16.36-27.08,30.11-36.5,10.16-7,19-15.64,22.65-28.56,6.38-22.85-10.27-38-32.42-39A5.43,5.43,0,0,0,457,275.51ZM488.28,360c11.41,6.16,20.92,14,33.5,15,1.16-2-1.26-3.78.8-5.6,5.66-2.26,8.7,2.8,12.49,5.5,3.95,2.82,7.54,6.11,13.07,6.25-21.84-16.62-43.41-33.48-62.77-53.46-4.48,5.73-10,9.4-14.79,14.09,3.41,7.94,8.93,14.17,14.48,20.14C487.06,362.18,487.36,360.05,488.28,360ZM371.51,103.9c1.18,30.75,13,57.49,30.84,82.12,4.2-1.07,7.21-4,10.9-5.92-1.53-5.79.1-11.82-3.06-17.08-5.46,2.64-5.75,2.36-6.76-3.3a137.27,137.27,0,0,0-9.82-30.84c-1.69,1.59-3,3.28-6,2.84C382.89,122.44,379.4,112,371.51,103.9ZM292.82,309.31c1.36-2.93,1.66-3.1-1.5-8.82a22.67,22.67,0,0,1,8.53-30.65,229.89,229.89,0,0,0,22.2-15.33c4.93-3.71,9.78-8,11.61-14.1a154.42,154.42,0,0,1,8.87-24.06c5.94-12.11,15.58-16.68,28.85-14.63,5.72.89,10,4,14.1,7.45,2,1.74,3.89,3.25,6.81,1.51-2.4-4.24-5.86-7.29-9.36-10.22-8-6.75-20.2-8.28-29.21-2.82-9.82,6-16.72,14.32-20,25.86-3.6,12.53-10.49,23.21-21.55,30.88-7.23,5-14.83,9.49-22.3,14C277.18,276,280.43,303.36,292.82,309.31Zm77.33,45.93c15.64,4.33,30.85,3,45.11-4.75,18.67-10.16,33.36-23.84,35.92-46.43,1.47-13,1.44-26-1.3-38.87a149.56,149.56,0,0,0-8.65-27.13c-5,4.1-4.46,8.59-3,13.61,3.68,12.71,6.94,25.37,7,38.92.05,21.46-6.21,39.91-24.3,52C405.83,352.6,388.3,355.93,370.15,355.24Zm27.13-148.63c2-4.36,5.49-7.12,8.35-10.42,11.74-13.53,33.74-7.73,39.09,6.95,5.1,14,15.17,23.45,28.37,29.93a94.54,94.54,0,0,1,18.61,12c12.26,10.17,16.06,29.66,5,42.89-3,3.6-3.22,7-.93,11.58,10.84-11.06,15.43-24,12.76-38.5-2.73-14.87-13.8-23.24-27.11-28.85-8.5-3.57-16.38-8-22.85-14.81-5.32-5.61-8.43-12.58-12.4-19-7.44-12-15.06-16-28.42-13a30.32,30.32,0,0,0-21.27,16.68C395.78,203.42,394.6,204.91,397.28,206.61Zm41.89,20.75c-2.5,1.76-4.11,3.53-6.08,4.17-10.93,3.53-20.65,9.59-30.46,15.19-15.29,8.74-27.22,20.94-32.1,38.58a42.63,42.63,0,0,0-.49,22.26c3-6.89,5.62-13.34,11.06-17.91,3.84-3.22,5.41-7,5.47-12,.09-8.14,2.8-11.29,10.67-13.77a44.91,44.91,0,0,1,4.53-1.56c5.7-1.11,9.23-4.47,10.77-10,1.69-6.1,5.56-9.16,12-9.82C432.81,241.66,437.17,237,439.17,227.36ZM332.36,279.71a14.33,14.33,0,0,0-7,2.3c-14.08,7.73-23.6,19.1-28.87,34.44-4.89,14.19.51,33.95,20.1,37.27,8.06,1.37,16.27,3.78,22.31,10.5,4.46,5,7.77,10.65,11.29,16.21,3.33,5.25,6.56,10.55,11.79,14.22,7.76,5.44,16,5,23-1.26,1.38-1.23,3-2.31,1.11-4.33-15,5.9-22.58,3-31.27-11.16A143.57,143.57,0,0,0,342,360.63c-6.63-7.84-15.74-11.18-25.6-13.1-8.57-1.68-13.17-7.36-15.24-15.74-1.42-5.74,0-11,.81-16.55,2.13-14.7,11.56-23.2,24-29.33C328.56,284.6,331.2,283.4,332.36,279.71Zm54.32-84.86c-10.64-24.93-18.74-50.31-22.82-76.94-1.45,3.86-1.15,7.62-1.3,11.37-.21,5.31,3.72,11.31-2.5,15.72-.44.31-.44,1.54-.33,2.3,1.07,7.09-.37,14.46,2.43,21.35.64,1.58.92,3.5-.28,4.56-5.8,5.13-.2,9.89.31,14.77.17,1.61,1.88,1.83,3.35,1.89C372.69,190.18,379.8,190.71,386.68,194.85Zm-35.33,48.47c-13.52,17.81-17.41,37.93-17.42,59.16,0,19.35,8.16,34.66,23.16,46.53,2.12,1.68,4.34,3.32,6.78,3-30-33.32-28.9-68.77-7.66-106ZM385.57,400c-3.81,2.19-3.89,2.2-3.46,4.9a45.47,45.47,0,0,1,.71,6.52c.18,12.31-4,23.53-8.5,34.65-1.79,4.44-4,8.24-1.27,13.42,2.29,4.32,3.66,9.6,2.83,14.53-3.33,20,8,36.38,12.71,55a10.45,10.45,0,0,0,1.61-2.36c2.95-10.52,2.24-20.58-4.5-29.57a22,22,0,0,1-4-7.94c-1.62-6.6-3.95-13.23-4.19-19.92-.49-13.87-1.55-28.16,8.8-39.78,1-1.17,2.06-2.56,1.54-4.34A66.52,66.52,0,0,1,385.57,400Zm112.62,12.62c-1.08-14.28-3-28.34-14.48-38.57a109.34,109.34,0,0,1-16.31-17.42c-.95-1.32-1.76-3.1-4.55-2.82C470.88,375.88,483.48,394.79,498.19,412.64ZM421.71,179.18c11.75-16.58,23.61-33,30.9-53.33a11.88,11.88,0,0,0-6.17,3.61c-9.9,9.34-17.55,20.63-26.64,30.67a4.24,4.24,0,0,0-.81,4.43C420.28,169.2,420.57,174,421.71,179.18Zm27.19,198c-.17,18.92,3,37.32,7.58,55.61,4.79-8.81,6.45-18.38,8.28-27.88,1.14-6-.74-10.65-5.24-14.92C455.52,386.16,452.4,381.45,448.9,377.14ZM362.55,230c.77-7.22,5.31-8.61,10.58-9.58,6.69-1.24,13.12.35,19.67.9,9.67.8,19.24,2.45,28.86-1.91,5-2.25,11.37-5.19,16.46,2-1-7.88-3.28-9.94-10-9.51a20,20,0,0,0-5.84,1.23c-9.52,3.69-19.13,5.5-29.28,2.66-2.24-.62-4.8-.35-7.18-.14-7,.6-14.08.24-20.7,3S357.78,224.18,362.55,230Zm126.74-78.22c-9.2,2.94-17.74,7.11-26.41,11.07-9.74,4.46-10.95,13.57-15.29,22.93C464,175.84,478,165.6,489.29,151.78ZM264,258.07c1.3-.13,1.66-1.27,2.06-2.39,6.47-17.94,2.38-37.22,7.23-55.42-4.75,5-6.69,11.26-7.87,17.68-2.28,12.36-.36,25-2.5,37.45A2.13,2.13,0,0,0,264,258.07Zm90.61-29.9c-2.13,9.64-1,12,5.51,13.14,6.06,1.05,9.09,4,9.82,10.36.29,2.54,1.06,4.08,3.65,4.66,2.1.47,4.12,1.25,6.13,1.87,2.54-1.37,2.49-3.07,1.45-5.52a26.7,26.7,0,0,0-14.72-14.92C361.79,235.83,357.55,233.38,354.63,228.17Zm236.7,177.35c1.69-4.22,1.28-7.42,1-10.54-.93-10.16-2.06-20.32,1-30.34,2.54-8.4,2-16.75-.1-25.16C587.76,361,583.75,382.43,591.33,405.52ZM330.88,156.79c-4.6-5.31-11.48-7.89-20.08-8.73-12.65-1.22-24.93,2.44-37.51,2.75C292,156.63,312.22,149,330.88,156.79ZM536.31,258c17.77,4.21,34.8,10.19,49.81,21C573.69,262.3,555.24,259.6,536.31,258Zm16,44.21q-15-15.08-30-30.16C527.31,287,538.94,295.56,552.35,302.25ZM347.09,185.53c-6-10.63-26.71-7.57-35.21,1.23C324,182.45,335.15,180,347.09,185.53ZM387.36,196l-.17.31.29,0Z"/><path d="M315.27,525a4.18,4.18,0,0,0,1.19-.15c13-5.89,24.27,4.18,27.1,16.09a59.87,59.87,0,0,1-3.64,39.63c-7.3,16.15-16.32,20.7-29.54,20.66-8.84,0-17.67-5-27.67-13.91-6.86,5.71-13.9,10.64-22.91,13.06-19.38,5.21-31.64-3.66-38.13-19.88-4-10.11-4.91-21-3.84-31.9.6-6,.48-12.39,2.88-18,3.59-8.35,15.15-13.11,24.78-11,11.89,2.57,12.31,2.81,18.24-7.22,10.91-18.44,18-38.17,19.6-59.82,1-13.79-3.3-25.53-11.61-36.13C270,414.14,268,412,265,411.65c-3.92-.39-7.35,3.72-6.67,8.16s2,9,5.37,12.49c2.1,2.15,3.15,4.63.55,6.71-3.1,2.49-4.36-.36-5.82-2.66-6.22-9.77-11.54-11.93-20.87-8.48-4.83,1.79-8.19,5.22-9,10.37-1,6.59-1.66,13.35,3.9,18.57,3,2.83,9.34,2.1,12.61-1.2,2.92-2.93,3.62-9.34,1.35-12.25-1.08-1.38-2.52-2.19-4.18-1.58a3.7,3.7,0,0,0-2.43,4.35c.55,2.53.63,4.86-2.5,4.63-3.32-.25-2.89-3.43-2.71-5.68.38-4.93,5.08-9.14,9.67-9s8.26,4.41,8.95,10.49c1.05,9.34-9.12,19.52-18.52,18.49a7.88,7.88,0,0,1-4.76-2.4c-12.28-12.83-7.09-33.73,6.32-39.26,5.26-2.17,10.9-1.27,16.77-.87-.14-5.72-.31-11.14,1.94-16.21,1.53-3.45,2.85-6.87,6.16-9.35,9.77-7.33,11.94-6.89,19.68,2.6,7.5,9.2,11.25,20.17,16.21,30.63,8.9,18.79,15.5,38.13,17.06,59,.87,11.59,1.8,23.13.11,34.7-.63.54-.84,1.19-.2,1.79C314.12,525.81,314.84,525.22,315.27,525Zm-66.77.83c-8.5-3.83-14.84-2.42-19.47,4.81-5.36,8.36-6.8,17.79-5.95,27.59a5.21,5.21,0,0,0,1,2.73c7.06,8.49,16.05,13.4,27.18,12.27,15.81-1.6,25.8-19.85,19.85-35.31-2.87-7.43-6.35-9.09-13.93-6.71-2.07.64-4,1.9-6.32,1.59C246.59,532.2,245.69,529.88,248.5,525.78Zm44.11-85.92a423.25,423.25,0,0,1-21,80.67c6.79-.63,10.51,3.67,14.05,7.74,9-2.92,10.23-3,17.59-.56C312.36,510.75,305.71,456,292.61,439.86Zm-3.72,92.3c5.67,11.45,5.51,22.82,3,34.44-.93,4.38,1.6,6.91,6.92,7.79,11.52,1.92,25.21-8.46,26.31-20.17.59-6.29.14-12.45-4.44-17.51-2.77-3.05-6-4.06-9.65-1.84-3.36,2-7.17,2.41-10.82,3.39-2.23.6-4.55.45-5.49-2.24s1.57-3,3.26-4.3C295,530.19,292.45,531,288.89,532.16Z"/><path d="M513.38,494.58c31.89,24.81,64.94,47.84,96,73.37-1.55,6.17-7.07,8-10.82,11.29-9.3,8.13-18.91,16-28.86,23.32-20.6,15.2-40.49,31.31-60.33,47.45q-20.88,17-42.55,32.9c-5.61,4.11-10.48,9-15.95,13.28-3.2,2.49-5.88,2.9-9.62.33-30.59-21-60-43.61-89.72-65.85-4.7-3.52-4.63-4.34-.29-8.58,18.79-18.37,40.52-33.05,61.32-48.9,16.85-12.84,34.16-25.08,49.92-39.36,7.65-6.92,16.12-13,24.56-19,8.18-5.78,15.76-12.25,23.48-18.57C511.5,495.53,512.31,494.68,513.38,494.58Zm.07,11.49c-2.58.42-4.76-.56-6.47.75-7.59,5.78-16,10.62-23.19,16.7-25,21.26-51,41.21-77.1,61-13.05,9.92-26.43,19.43-38.8,30.23-3.39,3-6.57,6.41-4.91,11.32a26.24,26.24,0,0,0,8.44,12.09c10.54,8.28,21.43,16.09,32.22,24,8.37,6.16,16.53,12.65,25.27,18.24,13.19,8.43,21.68,8.51,30.62,1.3,14.89-12,30.65-22.87,45.23-35.3,20.83-17.76,42.61-34.34,64.38-50.93,8.27-6.31,16.72-12.42,24.13-19.75,4.89-4.83,4.51-8.75-.64-13.12-4.11-3.49-8.07-7.17-12.35-10.44-17.14-13.08-34.18-26.33-51.73-38.83C524,510.18,519.46,505.48,513.45,506.07Z"/><path d="M412.54,425.31c8.88,12.57,11.73,26.07,8,40.8-1,4-3.6,6.67-8.32,5.83-5.16-.92-8.55-5.55-8.12-11.52a17.78,17.78,0,0,1,1.63-6.33c3.53-7.23,4-14.9,3.87-22.72C409.62,429.28,408.92,426.9,412.54,425.31Zm-3.8,34.41c-.27,4.31.32,7.43,4.57,7.69,2.78.17,4.62-4.48,3.69-9.35C414.7,460.3,412.09,460.9,408.74,459.72Z"/><path d="M350.46,453.24c-1.69,11.48,3.64,22,4.73,33.2.44,4.57-4.33,10.59-8.18,10.63-4.62.05-7-3.37-8.57-7.24a24.78,24.78,0,0,1-1.13-12.4c.94-7.47,4-14.23,7.5-20.78C345.69,455,346.7,453,350.46,453.24Zm-8.83,26.87c-.62,3.69-.8,7.29,2,10.4a3.69,3.69,0,0,0,4.32,1.24c2.23-1,4.2-2.33,3.21-5.83C346.27,487,344.06,483.77,341.63,480.11Z"/><path d="M205.48,358.31c.87,7.27,1.52,14.58,2.66,21.82,2.15,13.62,7.84,25.89,15,37.57,1.83,3,4.51,6.14-.57,8.75C208,408.75,198.73,371.69,205.48,358.31Z"/><path d="M225.05,354.09c1.67,2.72,1.2,5.28.9,7.86-2,17.22-.18,33.9,7.12,49.78.92,2,2.29,4.54-.43,5.7-3.31,1.42-3.67-1.88-4.59-4-7.65-17.41-8.94-35.51-5.85-54.08C222.52,357.45,222.42,355.29,225.05,354.09Z"/><path d="M249.63,362.11c2.28,6.1-1,11.31-2.32,16.59A68.34,68.34,0,0,0,246,408.82a28.14,28.14,0,0,1,1,4c.07,1.89-.65,3.66-2.76,4.09-2.44.5-3-1.31-3.42-3.17A68.21,68.21,0,0,1,242.2,380C244,373.85,245.92,367.63,249.63,362.11Z"/><path d="M557.32,446.28c7.12,11.28-9.57,46.47-23.57,48.92C547,480.86,553.9,464.44,557.32,446.28Z"/><path d="M521.16,483.16c5.2-16.14,4.62-32,.85-48,5,.51,5.87,2.72,7.41,16.17C531.18,466.64,527.89,481,521.16,483.16Z"/><path d="M484.07,444.13c10.79,1.67,27.13,22.9,27.12,35-2.32,1.09-3.53.23-4.32-2.15-3.43-10.41-10.58-18.1-18.41-25.36C486.41,449.76,482.82,448.24,484.07,444.13Z"/><path d="M496.55,493.91c-10.09-11.79-24.12-17.81-36.7-25.81,2-4.1,4.13-2.08,5.87-1.26,12.6,6,25.59,11.63,32.66,24.66Z"/><path class="a" d="M508,294.06c9.11,5.52,16.39,12.05,21.81,20.59-1.18,2.17-4.29.22-5.19,3.76,5.13,7.63,16.35,10.52,19.77,20.68-1.7,2.24-5.35,1.47-7.33,5,6.48,10.14,17.14,17.94,22.66,31-8.87-4.44-14.84-10.55-21.28-15.78A252.38,252.38,0,0,1,497,316.05c-4.83-6.33-4.79-6.44,1.57-10.84C502.46,302.54,504.73,298.43,508,294.06Z"/><path class="a" d="M457,275.51a5.43,5.43,0,0,1-.87-5.11c22.15,1,38.8,16.18,32.42,39C485,322.35,476.09,331,465.93,338c-13.75,9.42-23.31,21.66-30.11,36.5-2.67,5.84-6,11.24-10.79,15.62-11.55,10.49-29.09,4-36.8-6.57-3.94-5.37-4.65-11.79-5.92-18-.2-1,.06-2,2.24-2.7,1.51,3.71,3,7.59,4.66,11.43,1.24,2.93,2.29,5.88,4.71,8.24,11.55,11.28,22.77,7.95,31.41-3.65a25.92,25.92,0,0,0,3.74-7.47c5.27-16.22,17.45-26.78,29.87-37.28,6.67-5.65,14.21-10.46,19-18.16,12.6-20.36-1.21-37.58-19.17-40A14.29,14.29,0,0,1,457,275.51Z"/><path class="a" d="M488.28,360c-.92.05-1.22,2.18-3.22,1.91-5.55-6-11.07-12.2-14.48-20.14,4.79-4.69,10.31-8.36,14.79-14.09,19.36,20,40.93,36.84,62.77,53.46-5.53-.14-9.12-3.43-13.07-6.25-3.79-2.7-6.83-7.76-12.49-5.5-2.06,1.82.36,3.62-.8,5.6C509.2,374,499.69,366.16,488.28,360Z"/><path class="a" d="M371.51,103.9c7.89,8.06,11.38,18.54,16.14,27.82,3,.44,4.27-1.25,6-2.84a137.27,137.27,0,0,1,9.82,30.84c1,5.66,1.3,5.94,6.76,3.3,3.16,5.26,1.53,11.29,3.06,17.08-3.69,2-6.7,4.85-10.9,5.92C384.49,161.39,372.69,134.65,371.51,103.9Z"/><path class="a" d="M292.82,309.31c-12.39-5.95-15.64-33.27-3-40.92,7.47-4.52,15.07-9,22.3-14,11.06-7.67,17.95-18.35,21.55-30.88,3.32-11.54,10.22-19.91,20-25.86,9-5.46,21.17-3.93,29.21,2.82,3.5,2.93,7,6,9.36,10.22-2.92,1.74-4.76.23-6.81-1.51-4.13-3.49-8.38-6.56-14.1-7.45-13.27-2.05-22.91,2.52-28.85,14.63a154.42,154.42,0,0,0-8.87,24.06c-1.83,6.14-6.68,10.39-11.61,14.1a229.89,229.89,0,0,1-22.2,15.33,22.67,22.67,0,0,0-8.53,30.65C294.48,306.21,294.18,306.38,292.82,309.31Z"/><path class="a" d="M370.15,355.24c18.15.69,35.68-2.64,50.74-12.68,18.09-12.06,24.35-30.51,24.3-52,0-13.55-3.29-26.21-7-38.92-1.45-5-2-9.51,3-13.61a149.56,149.56,0,0,1,8.65,27.13c2.74,12.84,2.77,25.91,1.3,38.87-2.56,22.59-17.25,36.27-35.92,46.43C401,358.24,385.79,359.57,370.15,355.24Z"/><path class="a" d="M397.28,206.61c-2.68-1.7-1.5-3.19-.83-4.55a30.32,30.32,0,0,1,21.27-16.68c13.36-3,21,1,28.42,13,4,6.42,7.08,13.39,12.4,19,6.47,6.81,14.35,11.24,22.85,14.81,13.31,5.61,24.38,14,27.11,28.85,2.67,14.48-1.92,27.44-12.76,38.5-2.29-4.61-2.08-8,.93-11.58,11.09-13.23,7.29-32.72-5-42.89a94.54,94.54,0,0,0-18.61-12c-13.2-6.48-23.27-15.95-28.37-29.93-5.35-14.68-27.35-20.48-39.09-6.95C402.77,199.49,399.26,202.25,397.28,206.61Z"/><path class="a" d="M439.17,227.36c-2,9.67-6.36,14.3-14.65,15.15-6.42.66-10.29,3.72-12,9.82-1.54,5.53-5.07,8.89-10.77,10a44.91,44.91,0,0,0-4.53,1.56c-7.87,2.48-10.58,5.63-10.67,13.77-.06,5-1.63,8.77-5.47,12-5.44,4.57-8.08,11-11.06,17.91a42.63,42.63,0,0,1,.49-22.26c4.88-17.64,16.81-29.84,32.1-38.58,9.81-5.6,19.53-11.66,30.46-15.19C435.06,230.89,436.67,229.12,439.17,227.36Z"/><path class="a" d="M332.36,279.71c-1.16,3.69-3.8,4.89-6.45,6.2-12.43,6.13-21.86,14.63-24,29.33-.8,5.53-2.23,10.81-.81,16.55,2.07,8.38,6.67,14.06,15.24,15.74,9.86,1.92,19,5.26,25.6,13.1a143.57,143.57,0,0,1,12.83,17.27c8.69,14.13,16.31,17.06,31.27,11.16,1.9,2,.27,3.1-1.11,4.33-7,6.24-15.23,6.7-23,1.26-5.23-3.67-8.46-9-11.79-14.22-3.52-5.56-6.83-11.24-11.29-16.21-6-6.72-14.25-9.13-22.31-10.5-19.59-3.32-25-23.08-20.1-37.27,5.27-15.34,14.79-26.71,28.87-34.44A14.33,14.33,0,0,1,332.36,279.71Z"/><path class="a" d="M386.68,194.85c-6.88-4.14-14-4.67-21.14-5-1.47-.06-3.18-.28-3.35-1.89-.51-4.88-6.11-9.64-.31-14.77,1.2-1.06.92-3,.28-4.56-2.8-6.89-1.36-14.26-2.43-21.35-.11-.76-.11-2,.33-2.3,6.22-4.41,2.29-10.41,2.5-15.72.15-3.75-.15-7.51,1.3-11.37C367.94,144.54,376,169.92,386.68,194.85Z"/><path class="a" d="M351.35,243.32l4.86,2.67c-21.24,37.23-22.34,72.68,7.66,106-2.44.34-4.66-1.3-6.78-3-15-11.87-23.18-27.18-23.16-46.53C333.94,281.25,337.83,261.13,351.35,243.32Z"/><path class="a" d="M385.57,400a66.52,66.52,0,0,0,2.26,25.07c.52,1.78-.5,3.17-1.54,4.34-10.35,11.62-9.29,25.91-8.8,39.78.24,6.69,2.57,13.32,4.19,19.92a22,22,0,0,0,4,7.94c6.74,9,7.45,19.05,4.5,29.57a10.45,10.45,0,0,1-1.61,2.36c-4.72-18.58-16-35-12.71-55,.83-4.93-.54-10.21-2.83-14.53-2.73-5.18-.52-9,1.27-13.42,4.48-11.12,8.68-22.34,8.5-34.65a45.47,45.47,0,0,0-.71-6.52C381.68,402.22,381.76,402.21,385.57,400Z"/><path class="a" d="M498.19,412.64c-14.71-17.85-27.31-36.76-35.34-58.81,2.79-.28,3.6,1.5,4.55,2.82a109.34,109.34,0,0,0,16.31,17.42C495.22,384.3,497.11,398.36,498.19,412.64Z"/><path class="a" d="M421.71,179.18c-1.14-5.2-1.43-10-2.72-14.62a4.24,4.24,0,0,1,.81-4.43c9.09-10,16.74-21.33,26.64-30.67a11.88,11.88,0,0,1,6.17-3.61C445.32,146.22,433.46,162.6,421.71,179.18Z"/><path class="a" d="M448.9,377.14c3.5,4.31,6.62,9,10.62,12.81,4.5,4.27,6.38,8.95,5.24,14.92-1.83,9.5-3.49,19.07-8.28,27.88C451.87,414.46,448.73,396.06,448.9,377.14Z"/><path class="a" d="M362.55,230c-4.77-5.82-3.94-8.62,2.56-11.36s13.74-2.44,20.7-3c2.38-.21,4.94-.48,7.18.14,10.15,2.84,19.76,1,29.28-2.66a20,20,0,0,1,5.84-1.23c6.73-.43,9,1.63,10,9.51-5.09-7.14-11.48-4.2-16.46-2-9.62,4.36-19.19,2.71-28.86,1.91-6.55-.55-13-2.14-19.67-.9C367.86,221.39,363.32,222.78,362.55,230Z"/><path class="a" d="M489.29,151.78c-11.27,13.82-25.32,24.06-41.7,34,4.34-9.36,5.55-18.47,15.29-22.93C471.55,158.89,480.09,154.72,489.29,151.78Z"/><path class="a" d="M264,258.07a2.13,2.13,0,0,1-1.08-2.68c2.14-12.41.22-25.09,2.5-37.45,1.18-6.42,3.12-12.64,7.87-17.68-4.85,18.2-.76,37.48-7.23,55.42C265.68,256.8,265.32,257.94,264,258.07Z"/><path class="a" d="M354.63,228.17c2.92,5.21,7.16,7.66,11.84,9.59a26.7,26.7,0,0,1,14.72,14.92c1,2.45,1.09,4.15-1.45,5.52-2-.62-4-1.4-6.13-1.87-2.59-.58-3.36-2.12-3.65-4.66-.73-6.32-3.76-9.31-9.82-10.36C353.63,240.17,352.5,237.81,354.63,228.17Z"/><path class="a" d="M591.33,405.52c-7.58-23.09-3.57-44.55,1.87-66,2.07,8.41,2.64,16.76.1,25.16-3,10-1.9,20.18-1,30.34C592.61,398.1,593,401.3,591.33,405.52Z"/><path class="a" d="M330.88,156.79c-18.66-7.77-38.84-.16-57.59-6,12.58-.31,24.86-4,37.51-2.75C319.4,148.9,326.28,151.48,330.88,156.79Z"/><path class="a" d="M536.31,258c18.93,1.56,37.38,4.26,49.81,21C571.11,268.23,554.08,262.25,536.31,258Z"/><path class="a" d="M552.35,302.25c-13.41-6.69-25-15.28-30-30.16Q537.36,287.18,552.35,302.25Z"/><path class="a" d="M383.19,238.49c10,3.57,20.11.77,26.12-7-1.73-5.17-6.5-4.73-10.82-3.78C391.81,229.21,385.55,231.62,383.19,238.49Z"/><path class="a" d="M347.09,185.53c-11.94-5.54-23-3.08-35.21,1.23C320.38,178,341.07,174.9,347.09,185.53Z"/><polygon class="a" points="387.36 195.97 387.48 196.31 387.19 196.28 387.36 195.97"/><polygon class="a" points="497.75 383.29 497.4 383.35 497.64 383.27 497.75 383.29"/><path class="a" d="M248.5,525.78c-2.81,4.1-1.91,6.42,2.41,7,2.35.31,4.25-1,6.32-1.59,7.58-2.38,11.06-.72,13.93,6.71,5.95,15.46-4,33.71-19.85,35.31-11.13,1.13-20.12-3.78-27.18-12.27a5.21,5.21,0,0,1-1-2.73c-.85-9.8.59-19.23,5.95-27.59C233.66,523.36,240,522,248.5,525.78Z"/><path class="a" d="M292.61,439.86c13.1,16.15,19.75,70.89,10.68,87.85-7.36-2.4-8.58-2.36-17.59.56-3.54-4.07-7.26-8.37-14.05-7.74A423.25,423.25,0,0,0,292.61,439.86Z"/><path class="a" d="M288.89,532.16c3.56-1.19,6.15-2,9.12-.44-1.69,1.27-4.17,1.7-3.26,4.3s3.26,2.84,5.49,2.24c3.65-1,7.46-1.34,10.82-3.39,3.63-2.22,6.88-1.21,9.65,1.84,4.58,5.06,5,11.22,4.44,17.51-1.1,11.71-14.79,22.09-26.31,20.17-5.32-.88-7.85-3.41-6.92-7.79C294.4,555,294.56,543.61,288.89,532.16Z"/><path class="a" d="M315.27,525c-.43.27-1.15.86-1.24.77-.64-.6-.43-1.25.2-1.79Z"/><path class="a" d="M513.45,506.07c6-.59,10.57,4.11,15.1,7.34,17.55,12.5,34.59,25.75,51.73,38.83,4.28,3.27,8.24,7,12.35,10.44,5.15,4.37,5.53,8.29.64,13.12-7.41,7.33-15.86,13.44-24.13,19.75-21.77,16.59-43.55,33.17-64.38,50.93-14.58,12.43-30.34,23.3-45.23,35.3-8.94,7.21-17.43,7.13-30.62-1.3-8.74-5.59-16.9-12.08-25.27-18.24-10.79-8-21.68-15.76-32.22-24A26.24,26.24,0,0,1,363,626.11c-1.66-4.91,1.52-8.36,4.91-11.32,12.37-10.8,25.75-20.31,38.8-30.23,26.11-19.83,52.1-39.78,77.1-61,7.15-6.08,15.6-10.92,23.19-16.7C508.69,505.51,510.87,506.49,513.45,506.07Zm-93.6,142c3.64.7,6.28-.78,8.84-2.36,11.14-6.85,23.48-11.1,35.64-15.45,14.85-5.31,30.35-8.72,45.3-13.88,14.28-4.92,26.16-12.71,33.91-26.11,5.29-9.16,3-18.52-5.58-24.57-5.77-4.1-12.38-3.71-18.72-4.91,0-1.74,0-3.14,0-4.53-.18-7.36-10-17.52-17.36-17.79a30.85,30.85,0,0,0-22,7.92c-9.44,8.12-14.47,19.09-19.63,29.88-10.6,22.18-20.45,44.74-37.57,63C420.67,641.48,418.13,644.1,419.85,648.1ZM470,661.92c-1.44-2.06-3-2.18-4.16-1.46-5,3.2-10.88,3.78-16.23,5.87a21.45,21.45,0,0,0-5.93,3.94c-2.7,2.33-3.56,5.28-1.58,8.55s4.66,5.14,8.83,3.76c4.33-1.43,7.34-7,6.45-12.28C462.32,668.76,466.91,666.63,470,661.92Zm27.28-132.66c6.8-3.87,14.11-6.19,21.17-9.12,1.37-.57,1.62-2.28,1.33-3.7-.62-3-1.6-5.65-4.93-6.9a6.44,6.44,0,0,0-6.58,1.29c-2.69,2.25-1.27,5.4-.27,8.4C503.14,521.19,496.69,521.11,497.23,529.26Z"/><path class="a" d="M408.74,459.72c3.35,1.18,6,.58,8.26-1.66.93,4.87-.91,9.52-3.69,9.35C409.06,467.15,408.47,464,408.74,459.72Z"/><path class="a" d="M341.63,480.11c2.43,3.66,4.64,6.93,9.55,5.81,1,3.5-1,4.85-3.21,5.83a3.69,3.69,0,0,1-4.32-1.24C340.83,487.4,341,483.8,341.63,480.11Z"/><path d="M419.85,648.1c-1.72-4,.82-6.62,2.83-8.76,17.12-18.3,27-40.86,37.57-63,5.16-10.79,10.19-21.76,19.63-29.88a30.85,30.85,0,0,1,22-7.92c7.34.27,17.18,10.43,17.36,17.79,0,1.39,0,2.79,0,4.53,6.34,1.2,13,.81,18.72,4.91,8.53,6,10.87,15.41,5.58,24.57-7.75,13.4-19.63,21.19-33.91,26.11-14.95,5.16-30.45,8.57-45.3,13.88-12.16,4.35-24.5,8.6-35.64,15.45C426.13,647.32,423.49,648.8,419.85,648.1Zm77.38-101.31c-1.88-1.28-3.34-.84-4.85-.4-8.24,2.39-13.36,8.46-17.81,15.23-8.07,12.27-12.28,26.48-19.68,39.1-3.23,5.52-6.45,11.08-8.65,17.26,1.62.27,2.58.11,3.2-.85,5.72-8.89,12.33-17.21,16.69-27,4.65-10.37,8.68-21,15.73-30.22C486.08,554.42,491.74,551,497.23,546.79Z"/><path d="M470,661.92c-3,4.71-7.63,6.84-12.62,8.38.89,5.32-2.12,10.85-6.45,12.28-4.17,1.38-6.82-.44-8.83-3.76s-1.12-6.22,1.58-8.55a21.45,21.45,0,0,1,5.93-3.94c5.35-2.09,11.23-2.67,16.23-5.87C466.91,659.74,468.51,659.86,470,661.92Z"/><path d="M497.23,529.26c-.54-8.15,5.91-8.07,10.72-10-1-3-2.42-6.15.27-8.4a6.44,6.44,0,0,1,6.58-1.29c3.33,1.25,4.31,3.91,4.93,6.9.29,1.42,0,3.13-1.33,3.7C511.34,523.07,504,525.39,497.23,529.26Z"/><path class="a" d="M497.23,546.79c-5.49,4.16-11.15,7.63-15.37,13.17-7.05,9.23-11.08,19.85-15.73,30.22-4.36,9.74-11,18.06-16.69,27-.62,1-1.58,1.12-3.2.85,2.2-6.18,5.42-11.74,8.65-17.26,7.4-12.62,11.61-26.83,19.68-39.1,4.45-6.77,9.57-12.84,17.81-15.23C493.89,546,495.35,545.51,497.23,546.79Z"/></svg>