<svg id="Layer_1" data-name="Layer 1" xmlns="http://www.w3.org/2000/svg" xmlns:xlink="http://www.w3.org/1999/xlink" viewBox="0 0 800 800"><defs><style>.cls-1,.cls-3,.cls-5{fill:none;}.cls-2{fill:#fff;}.cls-3{stroke:#000;}.cls-3,.cls-5{stroke-linejoin:bevel;stroke-width:8px;}.cls-4{clip-path:url(#clip-path);}.cls-5{stroke:#fff;}.cls-6{fill:blue;}</style><clipPath id="clip-path"><polygon class="cls-1" points="469.2 531.18 469.55 538.01 469.23 545.04 469.2 552.07 469.68 559.09 469.51 566.12 469.75 573.14 469.61 580.17 469.28 587.19 469.53 594.22 469.77 601.25 469.04 608.28 469.17 615.32 463.77 619.64 456.86 622.12 449.89 624.45 442.83 626.62 435.51 627.68 428.27 629.12 420.91 629.63 413.61 630.91 406.21 630.99 398.83 630.91 391.46 630.47 384.1 630.1 376.71 629.98 369.44 628.68 362.13 627.65 354.81 626.68 347.58 625.12 340.79 622.11 333.96 619.46 328.51 615.32 328.51 608.29 327.9 601.26 328.4 594.24 327.9 587.22 328.73 580.19 328.31 573.16 328.13 566.14 328.19 559.11 328.55 552.09 327.88 545.06 328.04 538.02 328.02 530.75 335.31 530.83 342.37 531.31 349.42 530.83 356.48 531.39 363.53 531.04 370.58 531.44 377.64 530.56 384.7 530.82 391.75 531.41 398.81 530.82 405.87 530.92 412.92 530.74 419.98 530.96 427.03 531.06 434.09 531.38 441.15 531.48 448.2 531.1 455.26 530.96 462.33 530.53 469.2 531.18"/></clipPath></defs><title>soupbowl</title><polygon class="cls-2" points="154.34 349.16 160.41 352.37 167.51 353.78 174.69 354.73 181.77 356.58 188.98 357.4 196.22 357.89 203.48 358.13 210.7 358.78 217.93 359.37 225.17 359.86 232.43 360.02 239.65 360.72 246.91 360.85 254.14 361.66 261.4 361.77 268.64 362.29 275.92 361.75 283.16 362.47 290.4 363.03 297.65 363.25 304.91 363.45 312.16 363.66 319.42 363.61 326.68 363.54 333.94 363.23 341.19 363.63 348.45 363.97 355.7 364.06 362.96 364.05 370.22 363.88 377.48 363.78 384.74 363.98 392 364.06 399.27 364.41 406.53 363.77 413.79 364.31 421.04 363.73 428.31 364.6 435.57 364.14 442.82 363.81 450.08 363.45 457.34 363.59 464.6 363.63 471.87 363.72 479.13 363.8 486.38 363.38 493.63 362.68 500.88 362.6 508.13 362.25 515.4 362.6 522.66 362.67 529.89 361.69 537.13 361.33 544.39 361.16 551.63 360.62 558.91 361 566.14 360.33 573.37 359.74 580.62 359.41 587.84 358.64 595.09 358.28 602.28 357.37 609.53 356.93 616.77 356.39 623.93 355.17 631.02 353.64 638.13 352.33 643.76 349.16 638.05 346.24 631.05 344.42 623.88 343.35 616.69 342.42 609.48 341.75 602.31 340.56 595.07 340.15 587.86 339.24 580.6 339.07 573.37 338.49 566.12 338.22 558.9 337.4 551.66 336.85 544.38 337.04 537.15 336.36 529.88 336.57 522.62 336.41 515.38 335.88 508.13 335.75 500.89 334.94 493.61 335.65 486.37 334.86 479.13 334.56 471.86 335.01 464.61 334.77 457.35 334.71 450.1 334.13 442.83 334.44 435.58 334.66 428.32 334.1 421.06 334.38 413.8 334.06 406.53 334.45 399.27 333.6 392.01 334.2 384.75 334.16 377.49 333.76 370.23 333.76 362.98 334.63 355.71 334.42 348.45 334.13 341.2 334.87 333.93 334.51 326.69 335.18 319.43 335.23 312.15 334.62 304.91 335.49 297.66 335.79 290.38 335.26 283.16 336.36 275.9 336.13 268.65 336.61 261.38 336.29 254.14 336.95 246.87 336.93 239.63 337.37 232.39 337.76 225.14 338.1 217.91 338.87 210.69 339.56 203.46 340.05 196.28 341.17 189.05 341.73 181.84 342.57 174.66 343.52 167.5 344.56 160.45 346.12 154.34 349.16"/><polygon class="cls-3" points="154.34 349.16 160.41 352.37 167.51 353.78 174.69 354.73 181.77 356.58 188.98 357.4 196.22 357.89 203.48 358.13 210.7 358.78 217.93 359.37 225.17 359.86 232.43 360.02 239.65 360.72 246.91 360.85 254.14 361.66 261.4 361.77 268.64 362.29 275.92 361.75 283.16 362.47 290.4 363.03 297.65 363.25 304.91 363.45 312.16 363.66 319.42 363.61 326.68 363.54 333.94 363.23 341.19 363.63 348.45 363.97 355.7 364.06 362.96 364.05 370.22 363.88 377.48 363.78 384.74 363.98 392 364.06 399.27 364.41 406.53 363.77 413.79 364.31 421.04 363.73 428.31 364.6 435.57 364.14 442.82 363.81 450.08 363.45 457.34 363.59 464.6 363.63 471.87 363.72 479.13 363.8 486.38 363.38 493.63 362.68 500.88 362.6 508.13 362.25 515.4 362.6 522.66 362.67 529.89 361.69 537.13 361.33 544.39 361.16 551.63 360.62 558.91 361 566.14 360.33 573.37 359.74 580.62 359.41 587.84 358.64 595.09 358.28 602.28 357.37 609.53 356.93 616.77 356.39 623.93 355.17 631.02 353.64 638.13 352.33 643.76 349.16 638.05 346.24 631.05 344.42 623.88 343.35 616.69 342.42 609.48 341.75 602.31 340.56 595.07 340.15 587.86 339.24 580.6 339.07 573.37 338.49 566.12 338.22 558.9 337.4 551.66 336.85 544.38 337.04 537.15 336.36 529.88 336.57 522.62 336.41 515.38 335.88 508.13 335.75 500.89 334.94 493.61 335.65 486.37 334.86 479.13 334.56 471.86 335.01 464.61 334.77 457.35 334.71 450.1 334.13 442.83 334.44 435.58 334.66 428.32 334.1 421.06 334.38 413.8 334.06 406.53 334.45 399.27 333.6 392.01 334.2 384.75 334.16 377.49 333.76 370.23 333.76 362.98 334.63 355.71 334.42 348.45 334.13 341.2 334.87 333.93 334.51 326.69 335.18 319.43 335.23 312.15 334.62 304.91 335.49 297.66 335.79 290.38 335.26 283.16 336.36 275.9 336.13 268.65 336.61 261.38 336.29 254.14 336.95 246.87 336.93 239.63 337.37 232.39 337.76 225.14 338.1 217.91 338.87 210.69 339.56 203.46 340.05 196.28 341.17 189.05 341.73 181.84 342.57 174.66 343.52 167.5 344.56 160.45 346.12 154.34 349.16"/><polygon class="cls-2" points="327.93 561.3 334.21 564.72 341.29 566 348.31 567.86 355.53 568.35 362.7 569.32 369.95 569.14 377.14 570.07 384.38 569.57 391.6 570.18 398.83 570.22 406.06 570.55 413.27 569.9 420.5 569.79 427.7 569.08 434.92 568.86 442.17 568.74 449.25 567.07 456.41 566.23 463.44 564.72 469.8 561.3 463.35 558.2 456.37 556.57 449.29 555.17 442.12 554.34 434.95 553.37 427.74 552.8 420.5 552.79 413.28 552.58 406.06 552.02 398.83 552.14 391.6 552.56 384.38 552.89 377.13 552.39 369.94 553.24 362.69 553.29 355.5 554.03 348.32 554.83 341.14 555.8 334.26 558.08 327.93 561.3"/><polygon class="cls-3" points="327.93 561.3 334.21 564.72 341.29 566 348.31 567.86 355.53 568.35 362.7 569.32 369.95 569.14 377.14 570.07 384.38 569.57 391.6 570.18 398.83 570.22 406.06 570.55 413.27 569.9 420.5 569.79 427.7 569.08 434.92 568.86 442.17 568.74 449.25 567.07 456.41 566.23 463.44 564.72 469.8 561.3 463.35 558.2 456.37 556.57 449.29 555.17 442.12 554.34 434.95 553.37 427.74 552.8 420.5 552.79 413.28 552.58 406.06 552.02 398.83 552.14 391.6 552.56 384.38 552.89 377.13 552.39 369.94 553.24 362.69 553.29 355.5 554.03 348.32 554.83 341.14 555.8 334.26 558.08 327.93 561.3"/><polygon class="cls-2" points="469.36 531.03 469.71 538.01 469.7 545.04 469.53 552.07 469.06 559.09 469.1 566.12 468.95 573.14 469.08 580.17 469.77 587.19 469.44 594.22 469.1 601.25 469.32 608.28 469.47 615.32 463.92 619.96 456.99 622.48 449.85 624.29 442.81 626.54 435.59 628.12 428.21 628.65 420.92 629.8 413.59 630.63 406.21 630.9 398.83 630.7 391.45 630.83 384.09 630.35 376.69 630.2 369.44 628.67 362.15 627.58 354.75 626.93 347.57 625.15 340.76 622.17 333.73 619.94 328.75 615.32 328.06 608.29 327.79 601.26 328.39 594.24 328.75 587.22 328.7 580.19 328.45 573.16 328.44 566.14 328.75 559.11 327.87 552.09 328.01 545.06 328.01 538.02 328.43 531.16 335.31 531.47 342.37 531.26 349.42 531.23 356.48 531.29 363.53 530.54 370.58 531.43 377.64 531.22 384.7 530.86 391.75 531.07 398.81 531.08 405.87 530.79 412.92 531.27 419.98 530.91 427.03 531 434.09 530.68 441.15 530.86 448.2 531.44 455.26 530.5 462.33 530.69 469.36 531.03"/><polygon class="cls-3" points="469.36 531.03 469.71 538.01 469.7 545.04 469.53 552.07 469.06 559.09 469.1 566.12 468.95 573.14 469.08 580.17 469.77 587.19 469.44 594.22 469.1 601.25 469.32 608.28 469.47 615.32 463.92 619.96 456.99 622.48 449.85 624.29 442.81 626.54 435.59 628.12 428.21 628.65 420.92 629.8 413.59 630.63 406.21 630.9 398.83 630.7 391.45 630.83 384.09 630.35 376.69 630.2 369.44 628.67 362.15 627.58 354.75 626.93 347.57 625.15 340.76 622.17 333.73 619.94 328.75 615.32 328.06 608.29 327.79 601.26 328.39 594.24 328.75 587.22 328.7 580.19 328.45 573.16 328.44 566.14 328.75 559.11 327.87 552.09 328.01 545.06 328.01 538.02 328.43 531.16 335.31 531.47 342.37 531.26 349.42 531.23 356.48 531.29 363.53 530.54 370.58 531.43 377.64 531.22 384.7 530.86 391.75 531.07 398.81 531.08 405.87 530.79 412.92 531.27 419.98 530.91 427.03 531 434.09 530.68 441.15 530.86 448.2 531.44 455.26 530.5 462.33 530.69 469.36 531.03"/><g class="cls-4"><polyline class="cls-2" points="461.05 552.56 457.16 559.19 452.58 565.35 448.09 571.82 442.28 567.8 436.8 563.74 431.03 560.05 426.39 565.84 421.83 571.69 416.67 577.23 411.15 572.61 405.62 568.23 400.62 563.14 395.38 568.13 390.31 573.17 385.11 578.09 379.87 573.04 374.91 567.7 370.14 562.28 364.78 566.58 358.99 570.39 353.58 575.07 349.03 568.83 344.04 563.16 339.82 556.98 334.07 560.34 328.5 564.13 322.6 566.64 317.93 560.75 314.24 553.85 310.24 547.15 313.86 554.08 318.19 560.57 322.43 567.17 328.2 563.6 333.99 560.21 339.87 556.78 344.68 562.68 349.21 568.69 353.59 575.06 359.25 570.75 364.59 566.35 370.15 562.17 375.07 567.55 379.98 572.93 385.11 578.09 390.75 573.65 395.24 568 400.61 562.84 405.74 568.09 411.27 572.46 416.62 576.68 421.28 571.21 426.09 565.59 431.09 560.38 436.78 563.77 442.38 567.64 448.06 571.72 452.43 565.24 456.85 558.98 461.21 552.81 467.17 555.49 473.06 558.53 478.84 561.86"/><polyline class="cls-3" points="461.05 552.56 457.16 559.19 452.58 565.35 448.09 571.82 442.28 567.8 436.8 563.74 431.03 560.05 426.39 565.84 421.83 571.69 416.67 577.23 411.15 572.61 405.62 568.23 400.62 563.14 395.38 568.13 390.31 573.17 385.11 578.09 379.87 573.04 374.91 567.7 370.14 562.28 364.78 566.58 358.99 570.39 353.58 575.07 349.03 568.83 344.04 563.16 339.82 556.98 334.07 560.34 328.5 564.13 322.6 566.64 317.93 560.75 314.24 553.85 310.24 547.15 313.86 554.08 318.19 560.57 322.43 567.17 328.2 563.6 333.99 560.21 339.87 556.78 344.68 562.68 349.21 568.69 353.59 575.06 359.25 570.75 364.59 566.35 370.15 562.17 375.07 567.55 379.98 572.93 385.11 578.09 390.75 573.65 395.24 568 400.61 562.84 405.74 568.09 411.27 572.46 416.62 576.68 421.28 571.21 426.09 565.59 431.09 560.38 436.78 563.77 442.38 567.64 448.06 571.72 452.43 565.24 456.85 558.98 461.21 552.81 467.17 555.49 473.06 558.53 478.84 561.86"/><polyline class="cls-2" points="461.14 577.08 456.86 583.45 452.89 590.03 447.91 595.57 442.18 592.42 436.49 588.64 431.02 584.45 426.19 590.14 421.55 595.91 416.63 601.25 410.92 597.34 405.77 592.52 400.62 587.82 395.55 592.76 390.51 597.86 385.1 602.9 380.23 597.15 375.17 591.92 370.17 586.44 364.68 590.91 359.1 595 353.62 599.34 349.14 593.2 344 587.65 339.83 581.42 333.91 584.53 328.54 588.66 322.58 591.16 318.01 585.15 313.69 578.65 309.62 571.98 314.2 578.34 318.33 584.94 322.56 591.24 328.29 588.23 334.11 584.87 339.76 581.71 344.36 587.38 348.51 593.7 353.63 599.28 359.23 595.18 364.87 591.16 370.13 586.87 375.08 592.01 379.65 597.71 385.11 602.58 390.53 597.88 395.53 592.75 400.63 587.91 405.58 592.73 410.89 597.37 416.66 601.58 421.41 595.79 426.42 590.33 430.95 584.08 436.61 588.46 442.3 592.23 447.89 595.5 452.55 589.79 456.95 583.51 461.05 576.75 467 580.27 473.04 583.04 478.87 586.27"/><polyline class="cls-3" points="461.14 577.08 456.86 583.45 452.89 590.03 447.91 595.57 442.18 592.42 436.49 588.64 431.02 584.45 426.19 590.14 421.55 595.91 416.63 601.25 410.92 597.34 405.77 592.52 400.62 587.82 395.55 592.76 390.51 597.86 385.1 602.9 380.23 597.15 375.17 591.92 370.17 586.44 364.68 590.91 359.1 595 353.62 599.34 349.14 593.2 344 587.65 339.83 581.42 333.91 584.53 328.54 588.66 322.58 591.16 318.01 585.15 313.69 578.65 309.62 571.98 314.2 578.34 318.33 584.94 322.56 591.24 328.29 588.23 334.11 584.87 339.76 581.71 344.36 587.38 348.51 593.7 353.63 599.28 359.23 595.18 364.87 591.16 370.13 586.87 375.08 592.01 379.65 597.71 385.11 602.58 390.53 597.88 395.53 592.75 400.63 587.91 405.58 592.73 410.89 597.37 416.66 601.58 421.41 595.79 426.42 590.33 430.95 584.08 436.61 588.46 442.3 592.23 447.89 595.5 452.55 589.79 456.95 583.51 461.05 576.75 467 580.27 473.04 583.04 478.87 586.27"/><polyline class="cls-2" points="461.39 601.71 456.56 607.71 452.28 614.06 447.96 620.25 442.19 616.85 436.79 612.68 431.07 609.18 426.03 614.46 421.95 620.72 416.7 626.41 411.35 621.28 405.79 616.96 400.61 611.95 395.29 616.97 390.65 622.47 385.1 627.22 379.99 621.85 374.7 616.82 370.11 611.43 364.85 615.59 359.18 619.58 353.7 623.31 348.55 618.13 343.9 612.19 339.78 606.09 334.16 609.4 328.45 612.98 322.58 615.63 318.45 609.33 313.95 602.95 310.25 596.07 313.75 603.08 317.95 609.65 322.31 616.47 328.41 612.91 334.25 609.56 339.77 606.11 344.61 611.66 348.68 618.03 353.61 623.83 359.51 620.02 365.03 615.82 370.17 610.89 374.89 616.64 380.12 621.72 385.11 627.1 390.42 622.22 395.7 617.38 400.62 612.16 405.63 617.13 411.3 621.35 416.66 625.99 421.89 620.67 426.73 615.04 431 608.79 436.32 613.34 442.02 617.11 448.11 620.85 452.85 614.46 456.61 607.74 461.17 601.58 466.91 604.9 472.92 607.75 478.8 610.87"/><polyline class="cls-3" points="461.39 601.71 456.56 607.71 452.28 614.06 447.96 620.25 442.19 616.85 436.79 612.68 431.07 609.18 426.03 614.46 421.95 620.72 416.7 626.41 411.35 621.28 405.79 616.96 400.61 611.95 395.29 616.97 390.65 622.47 385.1 627.22 379.99 621.85 374.7 616.82 370.11 611.43 364.85 615.59 359.18 619.58 353.7 623.31 348.55 618.13 343.9 612.19 339.78 606.09 334.16 609.4 328.45 612.98 322.58 615.63 318.45 609.33 313.95 602.95 310.25 596.07 313.75 603.08 317.95 609.65 322.31 616.47 328.41 612.91 334.25 609.56 339.77 606.11 344.61 611.66 348.68 618.03 353.61 623.83 359.51 620.02 365.03 615.82 370.17 610.89 374.89 616.64 380.12 621.72 385.11 627.1 390.42 622.22 395.7 617.38 400.62 612.16 405.63 617.13 411.3 621.35 416.66 625.99 421.89 620.67 426.73 615.04 431 608.79 436.32 613.34 442.02 617.11 448.11 620.85 452.85 614.46 456.61 607.74 461.17 601.58 466.91 604.9 472.92 607.75 478.8 610.87"/><polygon points="464.99 558.32 464.87 564.4 465.72 570.73 464.97 576.75 458.48 577.46 454.49 583 450.51 588.81 447.14 594.67 441.57 591.78 436.05 588.19 430.23 584.89 425.02 590.16 419.4 594.86 414.31 600.52 409.04 596.24 403.76 592.49 398.26 588.9 393.5 593.06 388.01 596.06 383.27 599.79 378.17 595.75 372.66 591.98 367.26 587.95 359.85 592.23 352.26 596.05 347.86 591.8 343.53 587.47 339.36 582.72 333.36 584.96 327.27 586.06 327.1 578.74 326.92 571.4 327.21 564.04 332.97 561.46 338.12 558.51 344.06 564.31 349.34 570.82 358.81 569.72 367.76 564.79 372.45 569.56 377.54 574.13 382.75 578.99 388.15 574.31 393.73 570.28 398.76 565.6 404.23 569.23 410.29 571.89 415.81 575.99 421.04 571.21 425.78 566.26 430.83 561.96 437.2 563.97 443.54 566.63 449.85 569.87 454.54 563.78 458.78 557.61 464.99 558.32"/><polygon points="468.18 607.26 461.42 607.44 457.15 611.64 453.06 616.23 449.15 620.59 443.09 618.31 436.6 616.38 430.26 614.1 423.04 618.22 416.27 623.16 410.36 620.18 404.18 617.92 398.35 615.45 393.35 620.2 388.81 625.69 383.68 630.26 378.86 625.36 374.51 619.76 370.19 614.5 363.63 618.17 356.46 621.31 349.85 625.73 345.63 619.62 342.55 612.96 338.26 607.05 332.88 611.24 327.36 615.04 334.63 617.35 342.04 619.51 349.3 622.14 356.6 624.62 364.04 626.7 371.34 629.07 378.06 629.55 384.84 629.81 391.63 629.88 398.39 630.66 405.2 630.44 411.99 630.68 418.8 630.83 425.62 630.53 432.44 630.91 439.36 631.48 444.87 627.52 450.76 624.5 456.72 621.59 462.38 618.13 467.84 614.85 468.18 607.26"/></g><polyline class="cls-5" points="400.27 578.77 393.1 578.11 385.9 578.35 378.76 577.55 371.58 577.11 364.55 575.54 357.37 574.91 350.34 573.43 343.25 572.16 336.45 569.74 329.46 568.06 322.73 565.53 316.1 562.76 309.2 560.71 302.66 557.74 296.11 554.8 289.83 551.3 283.52 547.88 277.09 544.68 271.13 540.67 264.77 537.3 258.63 533.53 253.2 528.79 247.4 524.56 241.8 520.06 236.45 515.27 230.68 510.93 225.86 505.58 220.61 500.67 215.46 495.65 211.1 489.91 206.59 484.33 201.98 478.82 197.29 473.36 193.34 467.35 189.69 461.16 185.56 455.27 182.23 448.9 178.23 442.89 175.42 436.26 172.84 429.55 169.66 423.11 166.69 416.55 164.97 409.54 162.12 402.9 160.75 395.83 159.34 388.79 157.95 381.75 156.72 374.68 156.35 367.5 155.64 360.37 155.54 353.19"/><polyline class="cls-5" points="644.78 353.19 644.88 360.37 644.42 367.52 643.59 374.65 642.74 381.78 641.29 388.81 639.48 395.75 637.93 402.77 636.17 409.74 633.6 416.46 630.78 423.07 628.42 429.87 625.1 436.25 621.51 442.48 618.88 449.22 614.63 455.06 611.44 461.54 607.5 467.56 603.14 473.28 598.41 478.71 593.91 484.3 589.33 489.81 584.96 495.54 579.66 500.41 575.03 505.94 569.5 510.55 564.29 515.5 558.8 520.13 553.49 525 547.28 528.71 541.4 532.82 535.69 537.17 529.7 541.14 523.36 544.53 517.22 548.25 510.67 551.22 504.61 555.17 497.8 557.55 491.46 560.99 484.63 563.28 477.77 565.41 471.11 568.15 464.08 569.73 457.09 571.34 450.25 573.65 443.18 574.94 436.04 575.83 428.95 577.01 421.76 577.29 414.65 578.49 407.45 578.49 400.27 578.22"/><polygon class="cls-6" points="399.27 364.12 406.53 364.1 413.79 364.15 421.04 364.13 428.3 363.8 435.56 364.08 442.81 363.54 450.07 363.62 457.34 364.27 464.6 363.85 471.85 363.6 479.11 363.51 486.38 363.75 493.62 363.27 500.87 362.86 508.12 362.63 515.38 362.75 522.61 361.76 529.89 362.31 537.12 361.45 544.39 361.66 551.61 360.85 558.86 360.57 566.13 360.66 573.32 359.37 580.58 359.26 587.82 358.88 595.04 358.16 602.26 357.47 609.44 356.47 616.7 356.13 623.9 355.23 631.12 354.44 638.11 352.42 644.68 349.18 643.89 356.37 643.31 363.51 642.65 370.66 642.07 377.83 639.95 384.74 638.39 391.73 637.4 398.9 634.71 405.59 632.1 412.28 630.38 419.31 626.78 425.59 624.22 432.31 621.25 438.87 617.09 444.78 613.5 450.98 610.05 457.28 606.28 463.41 601.6 468.88 597.84 475.04 592.83 480.23 588.34 485.83 584.1 491.67 578.87 496.61 574.12 502.03 568.28 506.31 563.37 511.58 557.95 516.3 552.12 520.52 546.29 524.71 540.45 528.88 534.75 533.26 528.84 537.37 522.74 541.18 516.16 544.14 510.1 548.06 503.52 550.98 496.86 553.69 490.26 556.52 483.71 559.48 476.75 561.37 470.09 564.1 463.25 566.32 456.18 567.72 449.26 569.72 442.05 570.23 435.11 572.28 427.95 573.05 420.82 574 413.62 574.1 406.44 574.19 399.27 574.46 392.1 574.05 384.91 574.26 377.77 573.43 370.56 573.25 363.47 572.04 356.42 570.65 349.45 568.92 342.34 567.81 335.44 565.79 328.56 563.75 321.74 561.51 314.76 559.68 308.37 556.29 301.68 553.68 295.07 550.88 288.72 547.51 282.11 544.64 276.13 540.61 270.15 536.65 263.68 533.43 258.04 528.96 251.99 525.07 246.53 520.38 241 515.82 235.09 511.68 229.73 506.88 224.97 501.47 219.65 496.63 215.02 491.13 209.95 486.04 205.69 480.24 200.54 475.16 196.88 468.93 192.22 463.43 188.67 457.17 184.76 451.15 181.45 444.77 177.86 438.56 174.2 432.37 171.79 425.57 168.57 419.14 165.99 412.44 163.22 405.79 161.27 398.86 159.69 391.84 158.57 384.74 156.88 377.76 155.79 370.67 155.24 363.51 154.38 356.38 154.37 349.2 160.41 352.54 167.51 354.02 174.68 355.1 181.82 356.48 189.06 356.91 196.32 357.16 203.5 358.27 210.7 359.27 217.99 358.93 225.23 359.34 232.44 360.21 239.67 360.93 246.95 360.57 254.16 361.69 261.43 361.62 268.68 361.83 275.92 362.49 283.18 362.31 290.44 362.47 297.68 362.85 304.94 362.88 312.18 363.61 319.43 363.48 326.69 363.17 333.94 363.66 341.2 363.75 348.45 364.11 355.71 364.05 362.96 364.44 370.23 363.92 377.48 364.58 384.74 363.89 392.01 363.87 399.27 364.12"/><polygon class="cls-3" points="399.27 364.12 406.53 364.1 413.79 364.15 421.04 364.13 428.3 363.8 435.56 364.08 442.81 363.54 450.07 363.62 457.34 364.27 464.6 363.85 471.85 363.6 479.11 363.51 486.38 363.75 493.62 363.27 500.87 362.86 508.12 362.63 515.38 362.75 522.61 361.76 529.89 362.31 537.12 361.45 544.39 361.66 551.61 360.85 558.86 360.57 566.13 360.66 573.32 359.37 580.58 359.26 587.82 358.88 595.04 358.16 602.26 357.47 609.44 356.47 616.7 356.13 623.9 355.23 631.12 354.44 638.11 352.42 644.68 349.18 643.89 356.37 643.31 363.51 642.65 370.66 642.07 377.83 639.95 384.74 638.39 391.73 637.4 398.9 634.71 405.59 632.1 412.28 630.38 419.31 626.78 425.59 624.22 432.31 621.25 438.87 617.09 444.78 613.5 450.98 610.05 457.28 606.28 463.41 601.6 468.88 597.84 475.04 592.83 480.23 588.34 485.83 584.1 491.67 578.87 496.61 574.12 502.03 568.28 506.31 563.37 511.58 557.95 516.3 552.12 520.52 546.29 524.71 540.45 528.88 534.75 533.26 528.84 537.37 522.74 541.18 516.16 544.14 510.1 548.06 503.52 550.98 496.86 553.69 490.26 556.52 483.71 559.48 476.75 561.37 470.09 564.1 463.25 566.32 456.18 567.72 449.26 569.72 442.05 570.23 435.11 572.28 427.95 573.05 420.82 574 413.62 574.1 406.44 574.19 399.27 574.46 392.1 574.05 384.91 574.26 377.77 573.43 370.56 573.25 363.47 572.04 356.42 570.65 349.45 568.92 342.34 567.81 335.44 565.79 328.56 563.75 321.74 561.51 314.76 559.68 308.37 556.29 301.68 553.68 295.07 550.88 288.72 547.51 282.11 544.64 276.13 540.61 270.15 536.65 263.68 533.43 258.04 528.96 251.99 525.07 246.53 520.38 241 515.82 235.09 511.68 229.73 506.88 224.97 501.47 219.65 496.63 215.02 491.13 209.95 486.04 205.69 480.24 200.54 475.16 196.88 468.93 192.22 463.43 188.67 457.17 184.76 451.15 181.45 444.77 177.86 438.56 174.2 432.37 171.79 425.57 168.57 419.14 165.99 412.44 163.22 405.79 161.27 398.86 159.69 391.84 158.57 384.74 156.88 377.76 155.79 370.67 155.24 363.51 154.38 356.38 154.37 349.2 160.41 352.54 167.51 354.02 174.68 355.1 181.82 356.48 189.06 356.91 196.32 357.16 203.5 358.27 210.7 359.27 217.99 358.93 225.23 359.34 232.44 360.21 239.67 360.93 246.95 360.57 254.16 361.69 261.43 361.62 268.68 361.83 275.92 362.49 283.18 362.31 290.44 362.47 297.68 362.85 304.94 362.88 312.18 363.61 319.43 363.48 326.69 363.17 333.94 363.66 341.2 363.75 348.45 364.11 355.71 364.05 362.96 364.44 370.23 363.92 377.48 364.58 384.74 363.89 392.01 363.87 399.27 364.12"/><polyline class="cls-2" points="399.27 349.34 392.02 349.33 384.76 349.45 377.51 349.29 370.26 348.69 363.01 349.27 355.75 348.91 348.5 349.34 341.25 348.95 334 349.41 326.74 349.26 319.49 349.46 312.24 350.01 304.98 349.78 297.73 350.04 290.47 349.77 283.22 350.08 275.96 349.77 268.7 349.78 261.47 350.39 254.21 350.42 246.98 350.98 239.72 350.97 232.49 351.62 225.24 351.77 218.01 352.2 210.74 352.01 203.5 352.41 196.27 352.91 189.07 353.77 181.8 353.85 174.69 355.44"/><polyline class="cls-3" points="399.27 349.34 392.02 349.33 384.76 349.45 377.51 349.29 370.26 348.69 363.01 349.27 355.75 348.91 348.5 349.34 341.25 348.95 334 349.41 326.74 349.26 319.49 349.46 312.24 350.01 304.98 349.78 297.73 350.04 290.47 349.77 283.22 350.08 275.96 349.77 268.7 349.78 261.47 350.39 254.21 350.42 246.98 350.98 239.72 350.97 232.49 351.62 225.24 351.77 218.01 352.2 210.74 352.01 203.5 352.41 196.27 352.91 189.07 353.77 181.8 353.85 174.69 355.44"/><polyline class="cls-2" points="621.51 355.36 614.34 355.01 607.17 354.67 600.05 353.81 592.87 353.7 585.72 353.26 578.59 352.16 571.4 352.32 564.23 352.28 557.07 351.89 549.9 351.57 542.73 351.39 535.56 351.32 528.4 350.83 521.25 349.98 514.07 350.06 506.9 349.85 499.73 349.63 492.55 349.63 485.37 350.2 478.21 349.54 471.04 349.5 463.87 348.95 456.69 349.41 449.51 349.16 442.33 349.37 435.16 349.41 427.99 348.84 420.81 348.78 413.63 348.94 406.46 348.61 399.27 349.31"/><polyline class="cls-3" points="621.51 355.36 614.34 355.01 607.17 354.67 600.05 353.81 592.87 353.7 585.72 353.26 578.59 352.16 571.4 352.32 564.23 352.28 557.07 351.89 549.9 351.57 542.73 351.39 535.56 351.32 528.4 350.83 521.25 349.98 514.07 350.06 506.9 349.85 499.73 349.63 492.55 349.63 485.37 350.2 478.21 349.54 471.04 349.5 463.87 348.95 456.69 349.41 449.51 349.16 442.33 349.37 435.16 349.41 427.99 348.84 420.81 348.78 413.63 348.94 406.46 348.61 399.27 349.31"/><polygon points="579.98 359.35 572.8 357.86 565.62 355.94 558.49 353.81 551.26 352.07 544.02 352.1 536.79 351.96 529.55 351.7 522.32 351.52 515.09 351.2 507.84 351.45 500.62 350.57 493.38 350.79 486.15 350.46 478.9 350.61 471.68 350.1 464.43 350.36 457.21 349.61 449.95 350.28 442.73 349.53 435.49 349.29 428.25 349.42 421 349.42 413.76 349.54 406.59 348.93 399.44 349.19 392.3 349.99 385.13 349.86 377.99 350.62 370.82 350.52 363.67 350.77 356.49 350.41 349.34 351.07 342.19 351.54 335.01 351.12 327.85 351.24 320.69 351.44 313.55 352.21 306.38 352.19 299.22 352.61 292.06 352.68 284.89 352.61 277.74 353.55 270.57 353.23 263.42 353.81 256.24 353.41 249.08 353.54 241.92 353.88 234.78 354.87 227.6 354.8 220.44 355.29 213.62 355.01 220.6 356.63 228.11 357.14 235.48 358.55 242.82 360.13 250.25 361.18 257.47 361.23 264.69 360.89 271.9 361.64 279.12 361.33 286.33 361.58 293.55 361.74 300.76 361.8 307.98 361.03 315.19 361.01 322.4 361.77 329.62 361.04 336.83 361.87 344.04 361.27 351.25 361.68 358.47 361.84 365.68 361.75 372.9 361.66 380.11 361.87 387.33 361.92 394.54 361.79 401.76 362.12 408.98 362.11 416.19 361.81 423.41 362.33 430.63 361.96 437.85 362.36 445.07 361.67 452.29 362.56 459.5 361.62 466.72 362.15 473.94 361.97 481.16 361.92 488.38 361.93 495.59 362.27 502.82 362.09 510.04 361.86 517.27 362.39 524.23 361.84 531.2 361.28 538.18 360.94 545.19 361.31 552.13 360.32 559.12 360.25 566.11 360 573.11 360.03 579.98 359.35"/><polygon class="cls-2" points="394.72 574.96 397.14 568.39 399.13 562.01 402.42 556.2 406.68 551.09 410.73 545.79 416.06 541.7 422.45 538.38 428.14 533.9 432.59 528.18 436.69 522.23 439.45 515.54 440.75 508.44 441.5 501.27 440.36 494.16 439.61 486.97 436.98 480.25 435.63 473.19 434.53 466.1 433.64 458.98 434.4 451.85 435.68 444.82 438.37 438.15 443.08 432.72 447.99 427.49 453.83 423.28 460.39 420.34 466.66 416.19 472.45 411.45 476.98 405.52 481.09 399.32 484.22 392.55 486.94 385.55 488.27 378.15 489.1 370.69 489.05 363.14 497.91 363.54 506.71 363.39 507.02 370.56 507.04 377.91 506.26 385.22 504.37 392.33 502.29 399.38 499.33 406.14 494.74 411.91 490.04 417.48 484.72 422.56 478.24 426.03 472.03 429.61 466.32 433.91 460.64 438.33 456.64 444.32 453.41 450.75 452.4 457.86 452.16 464.97 452.79 472.07 454.23 479.07 455.83 486.04 457.69 492.95 458.64 500.12 458.94 507.28 458.83 514.45 457.29 521.49 454.06 527.9 450.54 534.14 445.97 539.72 440.52 544.47 434.11 547.81 428.14 552.9 422.97 558.73 418.5 565.2 415.27 572.37 414.76 573.78 408.12 574.43 401.43 574.06 394.72 574.96"/><polygon class="cls-3" points="394.72 574.96 397.14 568.39 399.13 562.01 402.42 556.2 406.68 551.09 410.73 545.79 416.06 541.7 422.45 538.38 428.14 533.9 432.59 528.18 436.69 522.23 439.45 515.54 440.75 508.44 441.5 501.27 440.36 494.16 439.61 486.97 436.98 480.25 435.63 473.19 434.53 466.1 433.64 458.98 434.4 451.85 435.68 444.82 438.37 438.15 443.08 432.72 447.99 427.49 453.83 423.28 460.39 420.34 466.66 416.19 472.45 411.45 476.98 405.52 481.09 399.32 484.22 392.55 486.94 385.55 488.27 378.15 489.1 370.69 489.05 363.14 497.91 363.54 506.71 363.39 507.02 370.56 507.04 377.91 506.26 385.22 504.37 392.33 502.29 399.38 499.33 406.14 494.74 411.91 490.04 417.48 484.72 422.56 478.24 426.03 472.03 429.61 466.32 433.91 460.64 438.33 456.64 444.32 453.41 450.75 452.4 457.86 452.16 464.97 452.79 472.07 454.23 479.07 455.83 486.04 457.69 492.95 458.64 500.12 458.94 507.28 458.83 514.45 457.29 521.49 454.06 527.9 450.54 534.14 445.97 539.72 440.52 544.47 434.11 547.81 428.14 552.9 422.97 558.73 418.5 565.2 415.27 572.37 414.76 573.78 408.12 574.43 401.43 574.06 394.72 574.96"/><polygon points="489.19 363.11 482.14 362.72 475.03 362.54 467.91 363.1 460.79 362.79 453.67 362.72 446.55 363.03 439.44 362.74 432.32 363.07 425.2 362.78 418.08 362.71 410.97 362.56 403.85 362.44 396.73 362.81 389.62 362.36 382.5 363.15 375.38 362.96 368.27 362.47 361.15 362.57 354.04 362.72 346.92 363.09 339.8 362.56 332.68 362.69 325.57 362.19 318.45 362.4 311.33 362.49 304.21 362.5 297.09 362.9 289.97 362.01 282.85 362.67 275.73 362.44 268.61 362.12 261.49 362.56 254.37 362.26 247.25 362.67 240.13 362.1 233 362.44 225.88 362.1 218.76 361.7 211.65 361.71 204.52 362.06 197.39 362.36 190.26 361.99 183.04 361.15 175.94 359.56 168.82 358.04 161.57 357.26 154.12 355.51 156.49 362.94 158.19 370.19 161.01 377.12 162.78 384.34 164.3 391.64 166.7 398.69 168.63 405.87 170.92 412.95 172.88 420.13 174.59 427.38 176.91 434.46 179.33 441.47 183.72 446.95 188.09 452.51 192.74 457.83 197.43 463.12 201.76 468.7 206.04 474.33 210.55 479.78 215.16 485.14 219.98 490.31 224.24 495.97 229.25 500.99 233.33 506.8 237.63 512.42 242.22 517.91 249.09 521.06 255.23 525.29 261.48 529.33 268 532.92 274.21 537.02 280.98 540.21 287.4 543.95 293.66 547.99 300.04 551.83 306.5 555.42 313.13 557.74 320.12 558.96 326.91 560.93 333.66 563.08 340.51 564.81 347.51 565.98 354.18 568.41 361.08 569.97 368.07 571.21 374.76 573.79 381.32 573.26 387.81 573.56 394.03 573.75 396.91 566.53 400.07 559.18 402.26 551.47 405.39 544.15 411.04 539.62 417.08 535.55 422.94 531.22 428.94 527.08 430.94 520.71 433.21 514.43 436.14 508.4 438.35 502.08 437.27 495.3 437.11 488.45 436.68 481.62 435.95 474.83 435.46 468 434.14 461.25 433.48 454.43 433.66 446.73 433.04 438.97 438.86 434.19 444.75 429.68 450.92 425.54 456.15 420.2 461.9 415.42 467.24 410.18 472.97 405.36 478.61 400.28 480.9 392.8 482.24 385.15 485.1 377.95 486.85 370.41 489.19 363.11"/><polygon class="cls-3" points="489.19 363.11 482.14 362.72 475.03 362.54 467.91 363.1 460.79 362.79 453.67 362.72 446.55 363.03 439.44 362.74 432.32 363.07 425.2 362.78 418.08 362.71 410.97 362.56 403.85 362.44 396.73 362.81 389.62 362.36 382.5 363.15 375.38 362.96 368.27 362.47 361.15 362.57 354.04 362.72 346.92 363.09 339.8 362.56 332.68 362.69 325.57 362.19 318.45 362.4 311.33 362.49 304.21 362.5 297.09 362.9 289.97 362.01 282.85 362.67 275.73 362.44 268.61 362.12 261.49 362.56 254.37 362.26 247.25 362.67 240.13 362.1 233 362.44 225.88 362.1 218.76 361.7 211.65 361.71 204.52 362.06 197.39 362.36 190.26 361.99 183.04 361.15 175.94 359.56 168.82 358.04 161.57 357.26 154.12 355.51 156.49 362.94 158.19 370.19 161.01 377.12 162.78 384.34 164.3 391.64 166.7 398.69 168.63 405.87 170.92 412.95 172.88 420.13 174.59 427.38 176.91 434.46 179.33 441.47 183.72 446.95 188.09 452.51 192.74 457.83 197.43 463.12 201.76 468.7 206.04 474.33 210.55 479.78 215.16 485.14 219.98 490.31 224.24 495.97 229.25 500.99 233.33 506.8 237.63 512.42 242.22 517.91 249.09 521.06 255.23 525.29 261.48 529.33 268 532.92 274.21 537.02 280.98 540.21 287.4 543.95 293.66 547.99 300.04 551.83 306.5 555.42 313.13 557.74 320.12 558.96 326.91 560.93 333.66 563.08 340.51 564.81 347.51 565.98 354.18 568.41 361.08 569.97 368.07 571.21 374.76 573.79 381.32 573.26 387.81 573.56 394.03 573.75 396.91 566.53 400.07 559.18 402.26 551.47 405.39 544.15 411.04 539.62 417.08 535.55 422.94 531.22 428.94 527.08 430.94 520.71 433.21 514.43 436.14 508.4 438.35 502.08 437.27 495.3 437.11 488.45 436.68 481.62 435.95 474.83 435.46 468 434.14 461.25 433.48 454.43 433.66 446.73 433.04 438.97 438.86 434.19 444.75 429.68 450.92 425.54 456.15 420.2 461.9 415.42 467.24 410.18 472.97 405.36 478.61 400.28 480.9 392.8 482.24 385.15 485.1 377.95 486.85 370.41 489.19 363.11"/><polyline class="cls-6" points="117.32 180.27 121.89 174.18 127.37 168.72 130.75 175.21 133.79 181.67 136.35 188.35 139.47 194.77 142.37 201.29 145.96 207.49 149.28 213.81 151.64 220.58 155.31 226.73 158.41 233.16 161.48 239.6 164.65 245.99 167.84 252.37 170.31 259.1 173.65 265.41 177.1 271.67 179.88 278.25 182.98 284.67 185.98 291.15 188.91 297.66 191.8 304.19 194.82 310.65 197.99 317.05 201.2 323.43 204.67 329.68 207.71 336.14 210.91 342.52 213.97 348.97 216.47 355.69 220.27 361.78 222.58 368.58 225.85 374.94 228.72 381.48 232.26 387.7 234.99 394.31 237.93 400.82 241.54 407.01 244.38 413.58 247.42 420.04"/><polyline class="cls-3" points="117.32 180.27 121.89 174.18 127.37 168.72 130.75 175.21 133.79 181.67 136.35 188.35 139.47 194.77 142.37 201.29 145.96 207.49 149.28 213.81 151.64 220.58 155.31 226.73 158.41 233.16 161.48 239.6 164.65 245.99 167.84 252.37 170.31 259.1 173.65 265.41 177.1 271.67 179.88 278.25 182.98 284.67 185.98 291.15 188.91 297.66 191.8 304.19 194.82 310.65 197.99 317.05 201.2 323.43 204.67 329.68 207.71 336.14 210.91 342.52 213.97 348.97 216.47 355.69 220.27 361.78 222.58 368.58 225.85 374.94 228.72 381.48 232.26 387.7 234.99 394.31 237.93 400.82 241.54 407.01 244.38 413.58 247.42 420.04"/><polygon class="cls-2" points="268.77 473.2 259.2 474.29 256.12 467.83 252.45 461.63 249.25 455.16 245.34 449.09 242.11 442.65 238.65 436.33 235.81 429.68 231.82 423.64 228.7 417.14 224.81 411.05 221.49 404.67 218.31 398.19 214.91 391.84 211.54 385.48 208.66 378.85 204.71 372.8 201.87 366.15 197.94 360.09 194.83 353.59 191.68 347.1 188.02 340.89 184.34 334.69 181.24 328.18 177.46 322.03 174.75 315.31 170.84 309.24 167.78 302.7 164.25 296.42 160.8 290.09 157.76 283.55 153.7 277.55 150.66 271.01 146.8 264.89 143.75 258.35 140.65 251.84 136.76 245.74 133.65 239.24 130.03 233 126.8 226.56 123.65 220.07 120.15 213.77 116.18 207.71 113.03 201.23 109.98 194.68 106.54 188.34 102.82 181.95 110 180.94 117.25 179.55 120.54 186.25 123.72 192.67 126.97 199.06 130.04 205.54 133.06 212.05 136.96 218.11 140.08 224.57 143.24 231 146.38 237.45 150.16 243.56 152.85 250.24 156.66 256.35 160.18 262.6 162.83 269.3 166.79 275.32 169.8 281.83 172.87 288.31 176.47 294.52 179.62 300.95 182.44 307.57 186.23 313.68 189.22 320.2 192.55 326.55 196.35 332.66 199.35 339.18 202.84 345.45 206.36 351.7 209.51 358.14 212.07 364.89 215.68 371.09 219.49 377.2 222.03 383.96 226.05 389.96 229.16 396.42 232.59 402.73 235.84 409.12 238.61 415.75 241.94 422.11 245.06 428.57 248.85 434.69 252.38 440.94 254.96 447.68 258.84 453.75 262.15 460.12 265.43 466.5 268.77 473.2"/><polygon class="cls-3" points="268.77 473.2 259.2 474.29 256.12 467.83 252.45 461.63 249.25 455.16 245.34 449.09 242.11 442.65 238.65 436.33 235.81 429.68 231.82 423.64 228.7 417.14 224.81 411.05 221.49 404.67 218.31 398.19 214.91 391.84 211.54 385.48 208.66 378.85 204.71 372.8 201.87 366.15 197.94 360.09 194.83 353.59 191.68 347.1 188.02 340.89 184.34 334.69 181.24 328.18 177.46 322.03 174.75 315.31 170.84 309.24 167.78 302.7 164.25 296.42 160.8 290.09 157.76 283.55 153.7 277.55 150.66 271.01 146.8 264.89 143.75 258.35 140.65 251.84 136.76 245.74 133.65 239.24 130.03 233 126.8 226.56 123.65 220.07 120.15 213.77 116.18 207.71 113.03 201.23 109.98 194.68 106.54 188.34 102.82 181.95 110 180.94 117.25 179.55 120.54 186.25 123.72 192.67 126.97 199.06 130.04 205.54 133.06 212.05 136.96 218.11 140.08 224.57 143.24 231 146.38 237.45 150.16 243.56 152.85 250.24 156.66 256.35 160.18 262.6 162.83 269.3 166.79 275.32 169.8 281.83 172.87 288.31 176.47 294.52 179.62 300.95 182.44 307.57 186.23 313.68 189.22 320.2 192.55 326.55 196.35 332.66 199.35 339.18 202.84 345.45 206.36 351.7 209.51 358.14 212.07 364.89 215.68 371.09 219.49 377.2 222.03 383.96 226.05 389.96 229.16 396.42 232.59 402.73 235.84 409.12 238.61 415.75 241.94 422.11 245.06 428.57 248.85 434.69 252.38 440.94 254.96 447.68 258.84 453.75 262.15 460.12 265.43 466.5 268.77 473.2"/><polyline class="cls-6" points="77.53 205.78 80.72 198.92 84.37 192.72 88.98 197.62 94.25 202.46 98.33 208.38 103.69 213.14 108.07 218.81 113.06 223.91 117.63 229.4 122.37 234.72 127.55 239.65 132.6 244.71 137.09 250.26 141.92 255.52 146.69 260.82 151.73 265.88 156.33 271.34 160.85 276.88 165.76 282.06 171.11 286.84 175.73 292.29 180.14 297.92 184.97 303.18 189.92 308.32 195.16 313.2 199.57 318.84 204.69 323.84 209.37 329.23 214.21 334.49 218.56 340.17 223.64 345.19 228.33 350.58 232.94 356.04 237.97 361.11 242.79 366.38 247.95 371.34 252.46 376.9 257.04 382.38 262.09 387.45 266.74 392.89 271.99 397.77"/><polyline class="cls-3" points="77.53 205.78 80.72 198.92 84.37 192.72 88.98 197.62 94.25 202.46 98.33 208.38 103.69 213.14 108.07 218.81 113.06 223.91 117.63 229.4 122.37 234.72 127.55 239.65 132.6 244.71 137.09 250.26 141.92 255.52 146.69 260.82 151.73 265.88 156.33 271.34 160.85 276.88 165.76 282.06 171.11 286.84 175.73 292.29 180.14 297.92 184.97 303.18 189.92 308.32 195.16 313.2 199.57 318.84 204.69 323.84 209.37 329.23 214.21 334.49 218.56 340.17 223.64 345.19 228.33 350.58 232.94 356.04 237.97 361.11 242.79 366.38 247.95 371.34 252.46 376.9 257.04 382.38 262.09 387.45 266.74 392.89 271.99 397.77"/><polygon class="cls-2" points="307.03 442.74 298.53 446.48 293.66 441.42 288.63 436.26 282.94 431.77 278.31 426.2 273.27 421.07 268.05 416.1 263.02 410.94 258.14 405.63 252.61 400.99 247.91 395.52 242.3 390.95 237.84 385.22 232.57 380.3 227.74 374.96 222.6 369.91 217.35 364.98 211.93 360.2 207.32 354.63 201.86 349.9 196.77 344.81 191.62 339.77 187 334.21 181.8 329.22 176.47 324.36 171.39 319.26 166.59 313.86 161.48 308.79 156.48 303.59 151.22 298.66 145.84 293.85 141.01 288.49 135.69 283.62 131.16 277.95 126.05 272.87 120.97 267.76 115.37 263.17 110.45 257.9 105.26 252.9 100.56 247.41 95.54 242.24 90.34 237.24 85 232.38 79.9 227.28 75.05 221.93 69.57 217.2 64.65 211.8 71.19 208.84 77.57 205.91 82.66 210.88 87.36 216.3 92.58 221.23 97.8 226.16 102.17 231.89 107.57 236.65 112.42 241.94 117.76 246.73 122.64 251.98 127.11 257.62 132.66 262.22 137.44 267.57 142.76 272.4 147.13 278.14 152.64 282.78 157.41 288.13 162.28 293.4 167.15 298.66 172.56 303.4 177.37 308.73 182.04 314.18 187.18 319.18 192.2 324.3 197 329.63 201.92 334.85 207.5 339.43 211.95 345.1 217.01 350.19 222.18 355.16 226.92 360.56 232.53 365.11 237.22 370.55 242.34 375.58 246.81 381.24 252.04 386.15 257.48 390.86 261.77 396.69 267.31 401.32 271.88 406.87 277.05 411.85 281.82 417.23 286.75 422.45 292.1 427.25 297.34 432.17 302.03 437.63 307.03 442.74"/><polygon class="cls-3" points="307.03 442.74 298.53 446.48 293.66 441.42 288.63 436.26 282.94 431.77 278.31 426.2 273.27 421.07 268.05 416.1 263.02 410.94 258.14 405.63 252.61 400.99 247.91 395.52 242.3 390.95 237.84 385.22 232.57 380.3 227.74 374.96 222.6 369.91 217.35 364.98 211.93 360.2 207.32 354.63 201.86 349.9 196.77 344.81 191.62 339.77 187 334.21 181.8 329.22 176.47 324.36 171.39 319.26 166.59 313.86 161.48 308.79 156.48 303.59 151.22 298.66 145.84 293.85 141.01 288.49 135.69 283.62 131.16 277.95 126.05 272.87 120.97 267.76 115.37 263.17 110.45 257.9 105.26 252.9 100.56 247.41 95.54 242.24 90.34 237.24 85 232.38 79.9 227.28 75.05 221.93 69.57 217.2 64.65 211.8 71.19 208.84 77.57 205.91 82.66 210.88 87.36 216.3 92.58 221.23 97.8 226.16 102.17 231.89 107.57 236.65 112.42 241.94 117.76 246.73 122.64 251.98 127.11 257.62 132.66 262.22 137.44 267.57 142.76 272.4 147.13 278.14 152.64 282.78 157.41 288.13 162.28 293.4 167.15 298.66 172.56 303.4 177.37 308.73 182.04 314.18 187.18 319.18 192.2 324.3 197 329.63 201.92 334.85 207.5 339.43 211.95 345.1 217.01 350.19 222.18 355.16 226.92 360.56 232.53 365.11 237.22 370.55 242.34 375.58 246.81 381.24 252.04 386.15 257.48 390.86 261.77 396.69 267.31 401.32 271.88 406.87 277.05 411.85 281.82 417.23 286.75 422.45 292.1 427.25 297.34 432.17 302.03 437.63 307.03 442.74"/><polygon class="cls-2" points="103.27 181.85 107.3 176.91 111.21 171.75 119.1 169.69 127.1 169.1 122.4 174.66 117.03 179.99 109.97 180.66 103.27 181.85"/><polygon class="cls-3" points="103.27 181.85 107.3 176.91 111.21 171.75 119.1 169.69 127.1 169.1 122.4 174.66 117.03 179.99 109.97 180.66 103.27 181.85"/><polygon class="cls-2" points="64.53 212.09 67.36 205.65 69.26 199.21 76.82 195.79 84.52 191.95 80.89 199 77.46 205.68 70.97 208.4 64.53 212.09"/><polygon class="cls-3" points="64.53 212.09 67.36 205.65 69.26 199.21 76.82 195.79 84.52 191.95 80.89 199 77.46 205.68 70.97 208.4 64.53 212.09"/><polygon points="189.96 355.54 197.56 355.64 204.85 355.32 212.13 355.37 219.42 355.32 226.7 354.89 233.98 354.7 241.28 355.07 248.55 354.37 255.83 354.17 263.12 354.18 270.4 353.85 277.69 353.6 284.97 353.39 292.26 353.14 299.53 353.24 301.83 359.83 304.15 366.44 307.35 372.72 309.27 379.5 312.1 385.92 314.83 392.38 316.81 399.13 319.36 405.67 322.21 412.06 318.48 418 314.84 424.04 310.66 429.71 306.87 435.65 302.85 441.44 299.08 447.38 294.93 453.07 291.27 459.1 287.35 464.95 283.01 470.53 279.04 476.34 275.35 482.35 271.4 488.19 267.44 494.02 263.57 500.42 259.79 493.88 256.38 487.58 252.22 481.74 248.82 475.44 245.13 469.32 240.98 463.47 237.62 457.15 234.02 450.97 229.96 445.07 226.78 438.64 222.54 432.84 218.89 426.69 215.11 420.62 212.01 414.13 207.94 408.22 204.33 402.05 201.92 395.57 200.33 388.84 198.46 382.19 196.72 375.5 194.6 368.93 192.65 362.29 189.96 355.54"/><polygon class="cls-3" points="189.96 355.54 197.56 355.64 204.85 355.32 212.13 355.37 219.42 355.32 226.7 354.89 233.98 354.7 241.28 355.07 248.55 354.37 255.83 354.17 263.12 354.18 270.4 353.85 277.69 353.6 284.97 353.39 292.26 353.14 299.53 353.24 301.83 359.83 304.15 366.44 307.35 372.72 309.27 379.5 312.1 385.92 314.83 392.38 316.81 399.13 319.36 405.67 322.21 412.06 318.48 418 314.84 424.04 310.66 429.71 306.87 435.65 302.85 441.44 299.08 447.38 294.93 453.07 291.27 459.1 287.35 464.95 283.01 470.53 279.04 476.34 275.35 482.35 271.4 488.19 267.44 494.02 263.57 500.42 259.79 493.88 256.38 487.58 252.22 481.74 248.82 475.44 245.13 469.32 240.98 463.47 237.62 457.15 234.02 450.97 229.96 445.07 226.78 438.64 222.54 432.84 218.89 426.69 215.11 420.62 212.01 414.13 207.94 408.22 204.33 402.05 201.92 395.57 200.33 388.84 198.46 382.19 196.72 375.5 194.6 368.93 192.65 362.29 189.96 355.54"/></svg>