<svg xmlns="http://www.w3.org/2000/svg" viewBox="0 0 800 800"><defs><style>.cls-2{fill:#00f}.cls-3{fill:red}.cls-4{mix-blend-mode:darken}</style></defs><g style="isolation:isolate"><g id="Layer_1" data-name="Layer 1"><path class="cls-2" d="M111.29 235.56c.8 1.84 2 3.52 2.77 5.36s1.28 3.82 2.09 5.66 1.35 3.79 2.15 5.62 2 3.53 2.77 5.36 1.36 3.79 2.17 5.62 2 3.49 2.85 5.33 1.21 3.85 2 5.68 1.59 3.68 2.4 5.52 2 3.51 2.79 5.34 1.33 3.81 2.14 5.64 1.61 3.68 2.43 5.51 1.92 3.54 2.74 5.37 1.61 3.67 2.43 5.5 1.37 3.79 2.19 5.62 2 3.49 2.84 5.32 1.49 3.73 2.31 5.56 1.52 3.72 2.34 5.55 1.49 3.73 2.31 5.56 2.15 3.43 3 5.26 1.37 3.78 2.2 5.61 1.9 3.55 2.72 5.37 1.2 3.87 2 5.69 2 3.51 2.81 5.34 1.67 3.65 2.5 5.48 1.44 3.75 2.27 5.57 1.49 3.74 2.32 5.56 2.27 3.38 3.11 5.2 1.64 3.66 2.47 5.49 1.57 3.69 2.41 5.52 1.62 3.66 2.46 5.49 1.24 3.84 2.08 5.67 1.67 3.65 2.5 5.47 1.71 3.63 2.55 5.45 1.77 3.61 2.61 5.43 1.58 3.69 2.42 5.51 1.73 3.63 2.57 5.45 1.78 3.59 2.62 5.41 2.11 3.45 3 5.27 1.39 3.78 2.23 5.6 1.52 3.72 2.37 5.54 1.9 3.54 2.74 5.36 2 3.51 2.8 5.33 1.14 3.9 2 5.72 2 3.48 2.88 5.3 1.43 3.76 2.28 5.57 2.25 3.38 3.1 5.2 1.28 3.83 2.13 5.65 1.56 3.7 2.42 5.51 2.17 3.41 3 5.23 1.41 3.77 2.27 5.58 1.75 3.61 2.61 5.43 2 3.48 2.88 5.29 1.78 3.6 2.64 5.41 1.57 3.7 2.43 5.51 1.57 3.7 2.44 5.51 1.83 3.57 2.69 5.38 1.31 3.82 2.17 5.63 2.14 3.46 3 5.27c.32 1.57-1.15 2.1-.23 3.41 2-.11 4.28-.48 6.28-.59s4-.18 6-.29 4-.14 6-.24 4-.39 6-.49 4-.31 6-.41 4 .21 6 .12 4-.16 6-.25 4-.48 6-.57 4-.28 6-.37 4-.11 6-.19 4 .11 6 0 4-.55 6-.63 4-.29 6-.36 4 .27 6 .2 4-.38 6-.45 4-.17 6-.24 4-.28 6-.34l6-.15c2-.06 4 .29 6 .24s4-.44 6-.49 4 .13 6 .08 4-.31 6-.36 4-.22 6-.26 4 0 6-.08 4 .09 6 0 4-.32 6-.36 4 .1 6 .07 4 .15 6 .12 4 0 6 0 4-.49 6-.51 4 0 6 0 4-.23 6-.25 4 .23 6 .21 4-.32 6-.34 4 .59 6 .58 4-.39 6-.4 4 .13 6 .12 4 .16 6 .15 4-.08 6-.09 4-.12 6-.13 4 .1 6 .1 4-.44 6-.44 4 .12 6 .12 4 .11 6 .12h6c2 0 4 0 6 .06s4 .23 6 .24 4-.29 6-.27 4 .32 6 .34 4-.24 6-.22 4 .44 6 .47 4-.46 6-.43 4 .36 6 .39 4 .22 6 .25 4-.17 6-.14 4 .16 6 .19 4-.2 6-.16 4 0 6 0 4 0 6 .06 4 .57 6 .61 4-.43 6-.39 4 .2 6 .24 4 .48 6 .52 4 .14 6 .19 4 0 6 .1 4 .26 6 .31 4 0 6 0 4-.26 6-.21 4 .14 6 .19 4 .47 6 .53 4-.32 6-.26 4.23.51 6.24.57c-.89-1.74-1.87-3.75-2.8-5.59s-2.06-3.41-3-5.26-1.56-3.66-2.45-5.5-1.83-3.54-2.71-5.39-1.59-3.66-2.46-5.5-2-3.45-2.9-5.3-1.57-3.67-2.42-5.52-1.27-3.81-2.11-5.66-2-3.47-2.86-5.32-1.44-3.74-2.27-5.59-1.56-3.69-2.38-5.54-1.75-3.6-2.57-5.45-1.31-3.8-2.12-5.65-2.11-3.45-2.92-5.3-1.26-3.82-2.06-5.68-1.47-3.73-2.26-5.59-1.77-3.6-2.57-5.45-1.34-3.79-2.13-5.65-1.91-3.55-2.69-5.4-1.61-3.68-2.4-5.54-1.74-3.62-2.52-5.47-1.42-3.76-2.19-5.62-1.51-3.72-2.28-5.58-1.66-3.66-2.43-5.52-1.42-3.77-2.18-5.63l-2.28-5.58c-.76-1.86-1.2-3.86-2-5.72s-1.59-3.7-2.34-5.56-2-3.54-2.73-5.4-1.2-3.86-1.95-5.72-1.83-3.61-2.57-5.47-1.08-3.91-1.83-5.77-1.39-3.78-2.13-5.64-1.43-3.77-2.17-5.63-1.72-3.65-2.45-5.52-1.22-3.85-1.94-5.71-1.46-3.76-2.18-5.63-1.55-3.72-2.27-5.59-1.35-3.8-2.06-5.67-1.59-3.71-2.3-5.57l-2.16-5.64c-.72-1.9-1.36-3.81-2.06-5.68s-1.88-3.62-2.57-5.48-1-3.94-1.7-5.81-1.73-3.68-2.42-5.54-1-4-1.65-5.81-1.4-3.81-2.07-5.66l-2-5.68c-.69-1.94-1.5-3.79-2.15-5.64s-1.15-3.91-1.78-5.76-1.77-3.72-2.38-5.55c-.67-2-1.17-3.94-1.77-5.77-.65-2-1.2-4-1.77-5.76-.64-2.06-1.6-3.88-2.11-5.66-.63-2.16-1.14-4.12-1.57-5.83a39.3 39.3 0 0 1-.7-6.25c-1-.58-1.39-.22-2.37.33a26.65 26.65 0 0 1-2.62 5.08 37.78 37.78 0 0 1-4 4.14 44.74 44.74 0 0 1-4.12 4 52.24 52.24 0 0 1-4.78 3.19 57.29 57.29 0 0 1-5 2.82c-1.68.84-3.57 1.29-5.37 2s-3.49 1.51-5.35 2-3.72.77-5.61 1.15-3.74.57-5.65.77-3.77.92-5.69.94a60.06 60.06 0 0 1-6-.44c-2-.17-4-.53-5.95-.88s-3.94-.81-5.85-1.33-3.8-1.31-5.66-2-3.67-1.61-5.45-2.47-3.77-1.51-5.44-2.53a52 52 0 0 1-4.74-3.69 45.25 45.25 0 0 1-4.76-3.66 35 35 0 0 1-3.91-4.58 23.11 23.11 0 0 1-2.72-5.06 33.87 33.87 0 0 1-3.49 4.3c-1.32 1.34-3.15 2.2-4.71 3.43a55.43 55.43 0 0 1-4.67 3.4c-1.6 1-3.3 1.89-5.06 2.8s-3.31 1.93-5.12 2.71-3.55 1.44-5.41 2.09-3.7 1-5.59 1.52-3.59 1.56-5.5 2-3.84.52-5.76.81-3.83.54-5.77.72-3.86.4-5.8.46-3.88.06-5.82 0-3.92-.57-5.87-.75-3.95-.26-5.88-.56-3.88-.77-5.79-1.19-3.86-.85-5.73-1.39-3.7-1.41-5.53-2.07-3.78-1.18-5.55-2-3.79-1.34-5.48-2.27-3.19-2.43-4.79-3.5-3.52-2-5-3.18a49.88 49.88 0 0 1-4.38-4 37.77 37.77 0 0 1-3.38-5c-1.18-.52-1.39-.16-2.56.39a25.8 25.8 0 0 1-3.29 4.65 35.74 35.74 0 0 1-4.37 3.83 45 45 0 0 1-4.54 3.61 57.81 57.81 0 0 1-5.14 2.71c-1.69.86-3.34 1.91-5.18 2.65s-3.54 1.55-5.42 2.15-3.78.84-5.68 1.3-3.72 1.12-5.65 1.46-3.89.1-5.83.32-3.84.41-5.79.5-3.86.19-5.8.15-4.18.34-6.23.16-4.06-1.06-6.09-1.36-4.21-.07-6.22-.5-3.94-1.38-5.92-1.93-4-1-6-1.67-3.9-1.45-5.79-2.24-3.94-1.42-5.76-2.34-3.43-2.42-5.18-3.47-3.74-1.89-5.39-3.07-3.08-2.83-4.62-4.15-3.51-2.32-4.9-3.78c-.17-.14-.1-.42-.27-.28-1.34 1.45-2.82 3-4.44 4.45s-3 2.87-4.68 4.22-3.46 2.31-5.22 3.53-3.55 2.16-5.37 3.27-3.28 2.69-5.16 3.66-3.86 1.69-5.8 2.51-3.92 1.51-5.92 2.17-4.08 1-6.13 1.45a59.75 59.75 0 0 1-6.15 1.35 53 53 0 0 1-6.3.11 51.9 51.9 0 0 1-5.7-.45 56.79 56.79 0 0 1-5.67-.77c-1.87-.41-3.71-.92-5.53-1.49s-3.56-1.38-5.34-2.09-3.57-1.37-5.28-2.21-3.57-1.47-5.22-2.41-3.13-2.26-4.71-3.3-3.39-1.88-4.9-3-3-2.52-4.37-3.72-2.67-2.85-4-4.13-2.83-2.69-4-4.05"/><path class="cls-3" d="M110.94 236.66c13.77 15.64 34.67 27.68 55.82 28.22 9.75.25 19.7-3 28.46-7.07 10.83-5 19.8-12.27 28-20.8h-2.12c15.91 18.24 41.27 25.07 64.65 25.92 11.71.43 23.62-2.47 34.46-6.63 9.4-3.6 19.3-11.19 23.16-20.65l-2.74.36c5.16 9.44 15.56 16.83 25.31 21.1 10.9 4.76 23.08 6.86 34.94 7.37a94.55 94.55 0 0 0 21.56-1.82c3-.57 6.13-.81 9-1.83 2.7-1 5.39-2.27 8.06-3.35 10.28-4.16 18.77-9.07 25.43-18.18l-2.74-.35c3.94 9.42 12.08 16.85 21.29 21 9.63 4.33 19.89 7.06 30.57 7 19.41-.17 43-9.59 50.44-29 .69-1.81-2.21-2.59-2.89-.8-6.88 18-29.69 26.57-47.55 26.78-4.26.05-8.45-1-12.66-1.44-4.79-.55-8.75-2.34-13.27-3.9-9.71-3.37-19-10.78-23-20.43a1.52 1.52 0 0 0-2.74-.36c-6.69 9.15-16 13.86-26.34 17.83-2.21.85-4.48 2.12-6.74 2.81s-5.17.85-7.63 1.34a89.21 89.21 0 0 1-20.76 1.71c-10.23-.43-21-2.13-30.54-5.81-10.31-4-21.73-11.32-27.12-21.17a1.52 1.52 0 0 0-2.74.36c-4.49 11-16.4 16.7-26.89 20.28a113.1 113.1 0 0 1-14.62 3.76 68.32 68.32 0 0 1-16.28.92c-21.41-.76-45.06-8.44-59.45-24.94a1.5 1.5 0 0 0-2.12 0 99.37 99.37 0 0 1-24.86 19c-8.71 4.67-19.58 8.22-29.51 8-20.33-.48-40.5-12.35-53.7-27.35-1.28-1.45-3.39.68-2.12 2.13z"/><g class="cls-4"><path class="cls-3" d="M108.68 234.74a326.88 326.88 0 0 1 16.3 49c4 16.82 5.36 35.1 5.83 52.33.25 9-.22 17.9-.08 26.92.15 9.94.49 19.93.45 29.88a193 193 0 0 0 6.45 49.13 245.3 245.3 0 0 0 8.3 27.17c1.66 4.31 3.45 8.55 5.44 12.72s2.73 8.67 4.67 12.61a1.48 1.48 0 0 0 1.3.74c28-1.57 56-2.46 84-3.72 28.39-1.28 56.62-1.54 85-2.14 56.1-1.2 112.37-1.36 168.56.18 31.92.88 63.62.74 95.5 2.12a1.51 1.51 0 0 0 1.3-2.25 135.83 135.83 0 0 1-9.7-22.81c-2.41-7.56-5.31-15-6.76-22.8-1.5-8-3.52-15.73-4.81-23.8-1.58-9.88-2.63-19.82-4-29.71-2.41-16.84-1.93-33.86-2.79-50.82-.8-15.79-.71-31.79-.15-47.6.62-17.71 2.48-35.74.86-53.45-.17-1.9-3.17-1.92-3 0 1.47 16-.16 32.24-.74 48.23-.3 8.09-.91 16.47-.49 24.53s-.55 15.91 0 23.83c.62 8.65.39 17.38 1.09 26 .68 8.39 1.18 16.85 1.69 25.23.57 9.51 2.26 19.24 3.73 28.66.68 4.33 1.18 8.69 1.84 13s2.18 8.11 3.18 12.24c1 4.35 1.38 8.81 2.8 13.09s3 8.42 4.26 12.7a138.3 138.3 0 0 0 10.47 25l1.29-2.26c-22.6-1-45.1-1.26-67.66-1.84-22.78-.58-45.72.25-68.47-1.22-5.25-.33-10.52.61-15.8.34-6-.3-12.08.24-18.07-.1-11.21-.64-22.6-.52-33.86-.4-5.24.06-10.58 0-15.8.36-6 .38-12.11-.53-18.07.05-5.39.53-11.11.29-16.55.37-5.76.09-11.55.33-17.31.28-10.84-.1-22-.71-32.75.61-5.71.69-11.88 0-17.67.17s-11.52.65-17.29.94c-22.85 1.15-45.63 1.14-68.43 2.89-5 .38-10 .61-15 .73-1.53 0-7.73 1.12-8.83.3s-1.65-4.71-2.15-6c-4-10.73-10-20.66-12.65-31.95-2.48-10.71-6-21.05-7.64-32-1.76-11.83-2.1-23.48-2.37-35.37-.16-7.31-.15-14.61-.26-21.92s.33-14.31.28-21.43c-.08-12.54-1.33-24.85-2.6-37.28-2.6-25.24-10.23-48.94-19.84-72.29-.73-1.76-3.63-1-2.9.8z"/></g><g class="cls-4"><path class="cls-3" d="M252.21 256.83a38 38 0 0 1-5.2 18.49 1.5 1.5 0 0 0 2.59 1.51 41.2 41.2 0 0 0 5.61-20c.07-1.93-2.93-1.93-3 0z"/></g><g class="cls-4"><path class="cls-3" d="M275.71 260.86a53.47 53.47 0 0 1-7.12 21.19c-1 1.66 1.58 3.16 2.59 1.52a56.77 56.77 0 0 0 7.53-22.71c.23-1.91-2.77-1.89-3 0z"/></g><g class="cls-4"><path class="cls-3" d="M299.58 260.82c.16 7 .26 14.36-4 20.21-1.14 1.56 1.46 3.06 2.59 1.51 4.62-6.33 4.6-14.16 4.42-21.72 0-1.92-3-1.93-3 0z"/></g><g class="cls-4"><path class="cls-3" d="M322.61 252.82a76 76 0 0 1-1.71 23.73c-.45 1.87 2.44 2.67 2.89.8a78.74 78.74 0 0 0 1.82-24.53c-.15-1.91-3.15-1.93-3 0z"/></g><g class="cls-4"><path class="cls-3" d="M371.34 257.41a47.62 47.62 0 0 1-7.68 18.69c-1.08 1.61 1.52 3.11 2.59 1.52a49.22 49.22 0 0 0 8-19.41c.33-1.89-2.56-2.7-2.89-.8z"/></g><g class="cls-4"><path class="cls-3" d="M390.6 262.83a37.91 37.91 0 0 1-6.11 20.17c-1 1.63 1.56 3.14 2.59 1.51a41 41 0 0 0 6.52-21.67 1.5 1.5 0 0 0-3 0z"/></g><g class="cls-4"><path class="cls-3" d="M412.5 262.83a31.5 31.5 0 0 1-5 21.19c-1 1.63 1.55 3.13 2.59 1.51a34 34 0 0 0 5.37-22.7c-.21-1.9-3.21-1.92-3 0z"/></g><g class="cls-4"><path class="cls-3" d="M433.37 259.84a27.91 27.91 0 0 1-5.24 19.91c-1.12 1.57 1.48 3.07 2.59 1.51a30.4 30.4 0 0 0 5.65-21.42c-.18-1.9-3.19-1.92-3 0z"/></g><g class="cls-4"><path class="cls-3" d="M213.76 226.68c11.64 2.82 23.85.59 35.18-2.74a105.07 105.07 0 0 0 17.11-7.28c5.93-3 12.13-5.43 18.09-8.39Q294.79 203 305.59 198c6.69-3 13.13-6.91 20.39-8.47 8.82-1.9 16.68 2.89 19.21 11.64 2.42 8.39-.67 17.33-2.9 25.45a1.51 1.51 0 0 0 2.9.8c3.67-13.41 7.53-28.39-5-38.44-10.76-8.62-26.88 2.24-37 6.83-14.91 6.79-29.31 14.93-44.48 21.07-13.78 5.58-29.27 10.51-44.18 6.9-1.88-.46-2.68 2.44-.8 2.89z"/></g><g class="cls-4"><path class="cls-3" d="M354.59 199.68c17.09 9.28 35.43 16.43 54.64 20.1a129.06 129.06 0 0 0 13.32 1.42c4.86.41 9.57 1.3 14.48 1.1 10.81-.45 24.7-.85 30.77 10.27.92 1.7 3.51.18 2.59-1.51C466 223 456.91 219.91 448.26 219c-5.1-.53-10 .36-15.06.24-5.32-.13-10.66-1.15-16-1.54-10.5-.78-20.79-4-30.74-7.34-5.44-1.84-11.08-3-16.07-6-4.6-2.76-9.6-4.69-14.32-7.26-1.7-.92-3.21 1.67-1.51 2.59z"/></g><g class="cls-4"><path class="cls-2" d="M170.13 551.93a19.59 19.59 0 0 1 6.14-17.71c4.46-4.06 11.75-5.13 17.59-4.76 5.24.33 11.63 1.09 15.67 4.72 4.45 4 4.93 10.45 4.64 16.07-.24 4.82.41 9.58.58 14.4.21 5.86.2 11.73.48 17.58.49 10.11 1.08 20.1 1.76 30.25.12 1.91 3.13 1.93 3 0-.28-4.12-.13-8.36-.55-12.45a44.43 44.43 0 0 1-.55-8.78c.28-3.35-.52-6.65-.69-10-.2-3.92.14-7.82-.09-11.73-.39-6.65-1.1-13.38-.88-20 .16-5-.36-10.92-3.43-15.12-6.3-8.63-20.75-9-30.19-7-11.42 2.47-18.43 14-16.37 25.3.34 1.9 3.23 1.09 2.89-.8z"/></g><g class="cls-4"><path class="cls-3" d="M189 551.17c-2.89 8.14-18.82 51.54 2.42 47.87 9.87-1.7 12.44-10.6 10.9-19.64-1.73-10.19-6-20.46-10.42-29.76-.83-1.74-3.42-.22-2.59 1.51 3.92 8.21 19.93 43 2.67 44.67-12.79 1.25-8-16.19-6.22-23.36a206.07 206.07 0 0 1 6.17-20.46c.65-1.83-2.25-2.61-2.89-.8z"/></g></g></g></svg>