<svg xmlns="http://www.w3.org/2000/svg" viewBox="0 0 800 800"><defs><style>.a{fill:#bda5ca;}</style></defs><title>sun-sets</title><path d="M636.92,750c-9.38,0-18.92,0-28.46,0q-104-.35-208-.68-116.9-.37-233.78-.65c-5,0-6.66-1.92-6.5-6.81,2.09-65.91,1.06-131.85,1.51-197.78.41-60.94.13-121.89.17-182.83q.07-107.61.17-215.2,0-43.77-.06-87.53c0-7.76.75-8.72,8.4-8.48,39.34,1.26,78.69,1.17,118,1.29Q444,51.8,599.55,52c11.39,0,22.79.06,34.17-.24,4.32-.11,6.22,1.07,6.14,5.67-1.52,89.53-.9,179.07-1,268.6q-.27,182.28-.29,364.55c0,16.19.12,32.37.11,48.56C638.64,742.66,639.08,746.32,636.92,750Zm-235.81-75.5c12.19-10,24.11-19.69,35.87-29.54,23.26-19.5,46.21-39.37,69.7-58.59,28.4-23.24,55.53-48,84.84-70.18,12.09-9.14,23.41-19.29,35-29,5-4.22,7.64-9.07,7.64-16.29q-.21-191.25.16-382.49c0-10.3,0-20.61,0-31.73-156.63,0-312.11-1.59-468.06-.66v7.36q-.22,201.72-.54,403.45c0,4.11,1.53,6.63,4.46,9.08,18.31,15.34,35.75,31.66,54.65,46.37,17.62,13.71,34.1,28.89,50.88,43.65,21,18.44,42.69,36,63.19,55,12.88,11.93,26.51,23,39.82,34.5C386.13,661.71,393.54,668,401.11,674.49Z"/><path class="a" d="M401.11,674.49c-7.57-6.47-15-12.78-22.36-19.13-13.31-11.46-26.94-22.57-39.82-34.5-20.5-19-42.22-36.53-63.19-55C259,551.13,242.48,536,224.86,522.24c-18.9-14.71-36.34-31-54.65-46.37-2.93-2.45-4.47-5-4.46-9.08q.41-201.72.54-403.45V56c156-.93,311.43.61,468.06.66,0,11.12,0,21.43,0,31.73q-.17,191.25-.16,382.49c0,7.22-2.61,12.07-7.64,16.29-11.62,9.74-22.94,19.89-35,29-29.31,22.17-56.44,46.94-84.84,70.18C483.19,605.58,460.24,625.45,437,645,425.22,654.8,413.3,664.46,401.11,674.49ZM447.74,531.1l1.14.89a22.58,22.58,0,0,0,2.95,16.71c5.55,9.24,6.27,19.26,4.86,29.53-.71,5.12-2.29,10.11-3.4,15.17-.44,2-1.74,4.19.62,5.92a5.73,5.73,0,0,0,4.73-4.93,21.59,21.59,0,0,1,5.27-10.57,23.69,23.69,0,0,0,4-8c3.57-10.59,3.4-21.13.55-31.85-2.61-9.79.55-17.4,9.63-23.78,1.31,5.53-.47,10.27-2.81,14.86-1,1.87-2.1,3.77.13,5.27,2.51,1.68,4-.29,5.37-2.1,4.3-5.73,9-11.23,10.14-18.19,1.89-1.53,4.07.28,5.35-1.46,3.9-10.33,7.11-15.15,13.57-20.49,2,1.37,2.79,5.29,6,3.85s1-4.64.92-7c-.27-5.63-.74-11.45,2.76-16.19s4.72-9.51,3.34-15c6.32-4.38,11.23-9.9,16.66-14.85C554,435.6,566.35,420.37,575,402.8c14.22-28.95,21.94-59.86,24.21-92.08,1.11-15.78,0-31.47-.83-47.23-.7-13.62-4.49-26.36-8.55-38.92-7.41-22.94-21.38-42.29-37.27-60.08-18.74-21-39.93-38.74-66.31-49.92a182.75,182.75,0,0,0-67.4-14.45c-21.05-.53-41.77,2.54-62.32,7a116.43,116.43,0,0,0-35.11,14.22,270.34,270.34,0,0,0-46.54,35.4c-19.49,18.35-35.48,39.22-44.54,64.81-1.25,3.51-1.71,6.83.55,9.68a2.93,2.93,0,0,0,3.54-1.4A185.79,185.79,0,0,1,279,184.43a200.7,200.7,0,0,1,67.43-32.58c15.31-4.07,30.79-3.9,46.35-4.34,24.89-.7,46.65,7.22,65.81,22.85A38,38,0,0,1,469,184c1,2.19,2.13,4.69,0,6.67-4.43,4.08-6.6,8.84-5,14.75-4.08,1.06-7.4-3.7-12,.37,6.8,6.45,16,6.37,23.74,9.72-10.09,18.66-2.21,33.46,9.54,48.12-1.58,5.14-3.64,10.78-3.91,16.84-.09,2-.79,4.4,1.89,4.82,3.22.5,3-2.21,3.33-4.42,1.05-8,2.83-15.82,8.16-23.18,1.34,10.76,2.55,20.36-5.22,29-3.63,4-5.78,10.26-4,15.76,3.43,10.44-2.3,17.29-8.24,24-4.83,5.44-8.08,11.47-8.9,18.54-1.78,15.32,10.55,29.19,26.28,22,3.8-1.73,7.75-1.54,11.75-1,4.27.55,6.45,2.77,6.09,7.22-.72,8.84-5,15.81-12.59,19.82-3.56,1.89-6.55,4.16-8.15,7.24-1.85,3.58-4.14,4.23-7.54,4-2.16-.13-4.94-.57-6,1.77-3,6.87-10.85,10.14-12.51,17.82a23.11,23.11,0,0,0-11.24,5.59,22.47,22.47,0,0,1-20.75,4.76c-2.1-.53-4.06-1.26-5,1.33s.43,4.06,3,4.84,5.41,1.09,6.82,4c-10.08,3.74-29.09,2.51-38.73-2.44-1.47-.75-2.95-1.82-4.27-.18s-.55,3.45.73,4.84c2,2.15,4.68,3.71,5.36,7.17-9,2.65-18.14,2.32-27.25,2-40.83-1.51-75.21-18.3-104.91-45.25-19.58-17.76-32.07-40.51-42.27-64.59-.65-1.52-.62-3.71-3.22-3.89-2.36,1.74-2.41,4.28-2.16,6.9,2.23,23.65,10,45.58,21.7,66,10.48,18.4,25.53,33.06,41.3,47,7.91,7,16,13.55,25.24,18.88a149.3,149.3,0,0,0,25.36,12.06c16.55,5.8,33.11,11.73,50.88,12.92,3.33.23,7-.66,10.21,1.32-3.68,6.29-9.31,11-11.22,17.87-2.16,7.72-2.37,15.74-2.44,23.74,0,2,.24,3.89,2.47,4s2.69-1.94,2.8-3.82a41.67,41.67,0,0,1,.34-5.38c1.09-5.62,3.1-10.66,9.39-13.06.37,2.65.39,5.08,1.09,7.31,3.47,11.12,4.18,21.94-2.69,32.18a2.45,2.45,0,0,0,.44,3.28,2.89,2.89,0,0,0,3.84.37,13.86,13.86,0,0,0,4.36-4c4.32-6.81,7.86-13.87,8.37-22.14.13-2-.24-4.42,2.24-6a45.18,45.18,0,0,1,2.85,18.26C418,566,419.55,572,421.18,578c.63,2.31,1.25,5.18,5.15,4.81,1.17-3.9,0-7.6-.34-11.28-.21-2.39-.92-4.72.39-7,5.78-10.06,7.32-20.79,6-32.3-.82-7.28,1.63-10.64,8.54-15.35-.4,3.83-2.95,6.61-3.75,10.14-1.54,6.83-.94,13.5.34,20.18.49,2.59-1.59,7.24,3,7s2.23-4.65,2.38-7.26C443.27,541.26,442.32,535.25,447.74,531.1ZM376,327.86c1.87-2.84,0-5.29-.84-7.83-3.64-10.36-7.57-20.74-5-32,2.48-10.64,5.91-20.85,17.06-25.87,1.79-.81,4.21-1.27,3.74-3.89-.55-3.1-3.25-2.18-5.35-2.32-7.61-.51-15.4-1.41-21.81-5.52a58.94,58.94,0,0,1-22.09-25.36c-1-2.16-1.85-4-5.79-3.35-2.25,25.26-18.4,37.64-42.34,42.1-.48,3,.95,4.3,3.48,4.55,3.46.33,5.94,2.22,8,4.72a27.89,27.89,0,0,1,6.49,18.15c.09,7.85-1.73,15.42-3.26,23-.65,3.3-1.43,6.64.85,9.65,3.61-.75,3.6-.77,5.22-2.37,6.61-6.52,14.62-10.52,23.84-10.61,12.5-.13,23.21,4.75,31.71,14.1C371.62,326.83,373,328.9,376,327.86Zm-38.52-1.06c-1.77.47-2.21,1.84-2.5,3.2-2.23,10.71-4.48,21.41-6.56,32.15a13.18,13.18,0,0,0,.29,5.33c1.25,5.48,4.85,8.13,10.15,7.76,5.55-.39,8.57-3.35,9-9.23a24.56,24.56,0,0,0-.51-7.71c-2.24-8.48-4.32-17-5.79-25.65C341.12,330,340.41,327.6,337.52,326.8Zm-47.39-33a19.86,19.86,0,0,0-7.82,6.4c-3.95,5.5-7.8,11-10.54,17.28a33.77,33.77,0,0,0-2.64,16.25c.25,3.67,1.42,6.28,5,7.07s7.28.13,9.69-3.06a12.88,12.88,0,0,0,2.8-9.44c-1-9.66.65-19,3.49-28.23C290.69,298.26,292.3,296.56,290.13,293.8Zm179.19-10.44c-.92.12-1.69,0-2,.3-11.37,10.6-19.78,22.81-20.21,39-.11,4.23,1.54,8,6.29,8.85s7.19-2.52,8.84-6.38a11.38,11.38,0,0,0,1-6.42c-1.8-10.52,1.36-20.06,5.7-29.36C469.76,287.51,470.66,285.79,469.32,283.36Zm-87.91,8.07a8.51,8.51,0,0,0,1.31,8.63c4.64,6.32,5.77,13.45,5.38,20.95a26.73,26.73,0,0,0,1.74,10.5c1.05,3,2.64,5.46,6.1,5.73,3.61.28,6-1.8,7.71-4.69a17.83,17.83,0,0,0,.85-16.64c-2.19-5.16-5.69-9.57-8.4-14.41C392.88,295.75,387.5,293.88,381.41,291.43Z"/><path d="M447.74,531.1c-5.42,4.15-4.47,10.16-4.81,15.87-.15,2.61,2.19,7-2.38,7.26s-2.54-4.45-3-7c-1.28-6.68-1.88-13.35-.34-20.18.8-3.53,3.35-6.31,3.75-10.14-6.91,4.71-9.36,8.07-8.54,15.35,1.31,11.51-.23,22.24-6,32.3-1.31,2.29-.6,4.62-.39,7,.32,3.68,1.51,7.38.34,11.28-3.9.37-4.52-2.5-5.15-4.81-1.63-6-3.22-12-2.81-18.26a45.18,45.18,0,0,0-2.85-18.26c-2.48,1.58-2.11,4-2.24,6-.51,8.27-4,15.33-8.37,22.14a13.86,13.86,0,0,1-4.36,4,2.89,2.89,0,0,1-3.84-.37,2.45,2.45,0,0,1-.44-3.28c6.87-10.24,6.16-21.06,2.69-32.18-.7-2.23-.72-4.66-1.09-7.31-6.29,2.4-8.3,7.44-9.39,13.06a41.67,41.67,0,0,0-.34,5.38c-.11,1.88-.48,3.93-2.8,3.82s-2.48-2-2.47-4c.07-8,.28-16,2.44-23.74,1.91-6.84,7.54-11.58,11.22-17.87-3.2-2-6.88-1.09-10.21-1.32-17.77-1.19-34.33-7.12-50.88-12.92a149.3,149.3,0,0,1-25.36-12.06c-9.2-5.33-17.33-11.91-25.24-18.88-15.77-13.9-30.82-28.56-41.3-47-11.65-20.46-19.47-42.39-21.7-66-.25-2.62-.2-5.16,2.16-6.9,2.6.18,2.57,2.37,3.22,3.89,10.2,24.08,22.69,46.83,42.27,64.59,29.7,26.95,64.08,43.74,104.91,45.25,9.11.34,18.22.67,27.25-2-.68-3.46-3.39-5-5.36-7.17-1.28-1.39-2.11-3.13-.73-4.84s2.8-.57,4.27.18c9.64,4.95,28.65,6.18,38.73,2.44-1.41-2.94-4.32-3.27-6.82-4s-3.9-2.24-3-4.84,2.87-1.86,5-1.33a22.47,22.47,0,0,0,20.75-4.76,23.11,23.11,0,0,1,11.24-5.59c1.66-7.68,9.53-10.95,12.51-17.82,1-2.34,3.8-1.9,6-1.77,3.4.2,5.69-.45,7.54-4,1.6-3.08,4.59-5.35,8.15-7.24,7.58-4,11.87-11,12.59-19.82.36-4.45-1.82-6.67-6.09-7.22-4-.51-7.95-.7-11.75,1-15.73,7.17-28.06-6.7-26.28-22,.82-7.07,4.07-13.1,8.9-18.54,5.94-6.7,11.67-13.55,8.24-24-1.8-5.5.35-11.72,4-15.76,7.77-8.65,6.56-18.25,5.22-29-5.33,7.36-7.11,15.16-8.16,23.18-.29,2.21-.11,4.92-3.33,4.42-2.68-.42-2-2.78-1.89-4.82.27-6.06,2.33-11.7,3.91-16.84-11.75-14.66-19.63-29.46-9.54-48.12-7.76-3.35-16.94-3.27-23.74-9.72,4.64-4.07,8,.69,12-.37-1.57-5.91.6-10.67,5-14.75,2.16-2,1.05-4.48,0-6.67a38,38,0,0,0-10.49-13.65c-19.16-15.63-40.92-23.55-65.81-22.85-15.56.44-31,.27-46.35,4.34A200.7,200.7,0,0,0,279,184.43a185.79,185.79,0,0,0-44.54,45.41,2.93,2.93,0,0,1-3.54,1.4c-2.26-2.85-1.8-6.17-.55-9.68,9.06-25.59,25.05-46.46,44.54-64.81a270.34,270.34,0,0,1,46.54-35.4,116.43,116.43,0,0,1,35.11-14.22c20.55-4.47,41.27-7.54,62.32-7a182.75,182.75,0,0,1,67.4,14.45c26.38,11.18,47.57,28.94,66.31,49.92,15.89,17.79,29.86,37.14,37.27,60.08,4.06,12.56,7.85,25.3,8.55,38.92.8,15.76,1.94,31.45.83,47.23-2.27,32.22-10,63.13-24.21,92.08-8.63,17.57-20.94,32.8-35.53,46.06-5.43,4.95-10.34,10.47-16.66,14.85,1.38,5.5.13,10.33-3.34,15s-3,10.56-2.76,16.19c.11,2.4,2.26,5.59-.92,7s-4-2.48-6-3.85c-6.46,5.34-9.67,10.16-13.57,20.49-1.28,1.74-3.46-.07-5.35,1.46-1.11,7-5.84,12.46-10.14,18.19-1.35,1.81-2.86,3.78-5.37,2.1-2.23-1.5-1.09-3.4-.13-5.27,2.34-4.59,4.12-9.33,2.81-14.86-9.08,6.38-12.24,14-9.63,23.78,2.85,10.72,3,21.26-.55,31.85a23.69,23.69,0,0,1-4,8,21.59,21.59,0,0,0-5.27,10.57,5.73,5.73,0,0,1-4.73,4.93c-2.36-1.73-1.06-3.92-.62-5.92,1.11-5.06,2.69-10,3.4-15.17,1.41-10.27.69-20.29-4.86-29.53A22.58,22.58,0,0,1,448.88,532c.25-.77.68-1.58-.34-2.3C448.25,530.19,448,530.65,447.74,531.1Zm-49.92-48.78c2.67.21,4.31-1.67,6.27-3,3.54-2.42,5.68-6.15,8.74-9,1.28-1.19,2.76-1.91,4.22-.51a3,3,0,0,1,.11,4.33,17.87,17.87,0,0,1-2.51,2.56,16.66,16.66,0,0,0-6,13.21c0,9.7-3.18,17.67-10.21,24.58-3.69,3.62-8.11,7.51-8.12,14.28C396.48,524.55,400,518,407,515.22c-3.54,9.82-5.93,19.32.15,30.33C410.49,535,419,528.43,419.61,518c.12-2,.68-3.65,3.15-3.38,2.23.25,3,1.77,2.91,3.81-.23,5,.39,10.14-2.21,14.65-4.11,7.1-1,13.45,1.18,20.73,4-5.56,3.51-10.88,2.62-16.27-1.25-7.58-.36-14.5,5.05-20.62,3-3.37,6.08-6.86,7.05-11.65.59-2.95,3.11-3.12,5.64-3,3.36,5.54,1.54,11.46,1.93,17.13-.25.17,0,.35.06.06,3.89-2.18,3.35-6.29,4.22-9.76.45-1.79.75-3.69,3-3.9s2.86,1.69,3.51,3.37c2.49,6.46,1.11,12.69-1.58,18.6-2.58,5.65-3.06,11.11-.29,16.69,4.17,8.42,7.9,16.93,6.55,26.86,2.34-.65,2.21-2.28,2.57-3.52,2.42-8.27.46-16.32-1.95-24.11-2.94-9.54.5-17.22,7-23.23,5.14-4.75,6.56-9.62,5.21-15.95a20.48,20.48,0,0,1-.54-3.54c-.06-1.5.42-2.85,2.13-3.11a3,3,0,0,1,3.31,2,17.32,17.32,0,0,1,.71,3.48c1.25,6.38,3,12.66,2.81,19.31,3.62-4.61,2.2-9.31,1-13.92-2.62-10.32-2.84-19.85,7.76-26.26.65-.39,1.05-1.2,1.65-1.72,1.83-1.58,3.26-4.87,6.34-2.61,2.61,1.91.72,4.27-.23,6.42-2.08,4.68-2.63,9.36-.08,14.25,2.72-1.45,3.48-3.81,3.76-6.12.45-3.76.29-7.58.67-11.35.22-2.27-.16-5.1,2.56-6.25,2.89-1.23,2.75,3,4.13,3.11,6.93-5.23,6.38-12.29,6.16-19.28-.12-3.63-4.41-9-8.07-10.14-4.44-1.42-5.86,1.91-7.93,4.62-1.35,1.77-2.15,4.91-5.06,4.43-3.61-.6-2.33-4.05-2.89-6.39a8.08,8.08,0,0,0-.95-1.73c-8.57,1-18.27-3.71-24.48,6-4.28-3.22-2.39-6.29-1.3-9.17.55-1.44,1.83-2.54.9-4.36-1.89-3.69-3.63-7.46-5.6-11.58l-9.53,6.47c1.3,3.17,2.9,6-1.16,7.92-8.87,4.23-17.77,8.13-28,7.1-4.14-.41-8.33-.44-12.6-.65,2.35,5.46,9.19,4.29,12.41,8.25-.62,4.79-4.6,5-7.65,5.74-9.28,2.17-14.54,8.31-17.74,16.77-.53.1-1.14.17-.37.85Zm128.69-43.81a26.24,26.24,0,0,0,7.15-5.76c4.47-5.11,8.32-10.74,12.7-15.88,12.43-14.59,20.34-31.3,25.25-49.67,8.06-30.2,9.76-61.05,8.66-92-1-27.52-8.13-53.49-22.59-77.27-12.23-20.11-27.76-37-47.4-50-4.46-3-8.54-6.28-13.73-8.32-9.11-3.58-18.24-7.07-27.6-9.82-11.29-3.31-22.76-5.85-34.64-6-16-.19-31.9,1.94-47.65,4.29-17.79,2.65-35.11,7.44-51,16.45-1.95,1.11-4.09,1.94-4.66,4.54,2.25,1.1,3.85-.17,5.47-.54,20.42-4.64,40.62-9.59,62.06-7,27.86,3.35,52.86,11.82,71.93,33.78,6.28-3.95,6.5-11.1,9-17.18,5.22,2.28,4.57,6.29,4.19,9.86a83.78,83.78,0,0,1-4.42,18.58c-2.87,8.2-.21,15.64,6.2,18.57,12.9,5.92,26.24,6,39.67,2.39,3.36-.92,5.68-.67,7.83,2.05a38.54,38.54,0,0,1-7.66,12.11c-10.65,11.48-18.3,24.41-21,40.09-1.5,8.61-2.46,17.48-7,25.28a20.08,20.08,0,0,0-2.41,13.31c1.69,11.37-3,19.95-10.53,27.91-6,6.31-8.87,14.16-7,23.08,1.59,7.37,6.66,10.41,13.78,7.94,5.65-1.95,11.11-4.44,16.59-6.85a15.8,15.8,0,0,1,10.5-.92c3.6.9,6.16,3.13,6.55,6.9s.45,7.71-4,9.74c-1.71.79-4.07,1.38-2.51,4.58,2.79.78,5.23-.11,7.29-2.28,3.56-3.77,5.63-8.07,5.44-13.47-.18-4.91-2.08-9.33-3.26-14a22.62,22.62,0,0,1,1-14.09c.59-1.53,1.58-3.62,3.91-2.84s2.15,2.66,1.52,4.51a18.76,18.76,0,0,0-.64,10.62c1.38,5.82,2.68,11.66,4.23,17.43,2.08,7.68-1.87,20.63-8.94,22.85a48.31,48.31,0,0,0-22.57,14.54c-2.37,2.67-6.52,3.81-8.91,6.87-4,5.15-2.66,9.76,3.3,12.18,4.41,1.79,9,2.92,13.14,5.63C520.23,424.91,523.75,431,526.51,438.51ZM305,443.62c.5,2.87,2.29,3.17,3.51,4.11,20.51,15.93,41.18,31.64,67.37,37.25,9.73,2.09,9.49,4.3,16.4-5.42,5.31-7.49,9-16.42,19.2-19.65C374.1,465.53,338.84,459.43,305,443.62Zm213.73-2.91c2-2.11,1.06-3.48.51-5-2.5-6.71-7.86-10.56-14.11-12.78-7-2.47-13.09-5.56-16.78-12.32a2.38,2.38,0,0,0-2.64-.94c-6.59,6.68-4,15.68,5.73,18.49S511.94,431.65,518.77,440.71Zm-44.92-19.88c-2.82,1.45-3,3.65-3,5.86,0,6.52,6.28,12.9,13.5,13.62,6.92.68,13.64-1,21.92-1.42-5.79-3.54-11-5.24-15.86-4.85-9,.73-13.13-3.82-15.67-11.3A17.59,17.59,0,0,0,473.85,420.83ZM519.6,215.44a163,163,0,0,1-33.18,1.7c-2.2-.12-4.44-.32-4.21,3.45a50.45,50.45,0,0,1,28.73,4.58C514.09,222.42,517.9,220.45,519.6,215.44Zm-13.52,16.62c-4.8-7.66-22.39-9.15-28-2.37,5.23-1.89,9.84-1.68,14.54-1.36C497.1,228.65,500.78,232.37,506.08,232.06ZM492.84,490.33c-5,4.2-5.38,14.7-.75,21.38C492.26,504.57,496.14,497.78,492.84,490.33Z"/><path d="M376,327.86c-3,1-4.42-1-6-2.79-8.5-9.35-19.21-14.23-31.71-14.1-9.22.09-17.23,4.09-23.84,10.61-1.62,1.6-1.61,1.62-5.22,2.37-2.28-3-1.5-6.35-.85-9.65,1.53-7.62,3.35-15.19,3.26-23a27.89,27.89,0,0,0-6.49-18.15c-2.09-2.5-4.57-4.39-8-4.72-2.53-.25-4-1.57-3.48-4.55,23.94-4.46,40.09-16.84,42.34-42.1,3.94-.6,4.8,1.19,5.79,3.35a58.94,58.94,0,0,0,22.09,25.36c6.41,4.11,14.2,5,21.81,5.52,2.1.14,4.8-.78,5.35,2.32.47,2.62-2,3.08-3.74,3.89-11.15,5-14.58,15.23-17.06,25.87-2.61,11.24,1.32,21.62,5,32C376.09,322.57,377.91,325,376,327.86Zm-60.2-19.94c1.5-2.11,3.14-4.14,4.49-6.34a136.13,136.13,0,0,1,15.56-20.16,73.06,73.06,0,0,1,33.89-21.71c-14.51-5.74-22.94-16.28-31-29.13-4.84,18.39-16.45,29-33,35.28,2.62,3.88,5.27,6.55,6.91,10,4.81,10.14,4.1,20.5,2,31a2.19,2.19,0,0,0-.43,3C315.31,309.65,315.57,308.78,315.84,307.92Z"/><path d="M337.52,326.8c2.89.8,3.6,3.19,4.05,5.85,1.47,8.65,3.55,17.17,5.79,25.65a24.56,24.56,0,0,1,.51,7.71c-.4,5.88-3.42,8.84-9,9.23-5.3.37-8.9-2.28-10.15-7.76a13.18,13.18,0,0,1-.29-5.33c2.08-10.74,4.33-21.44,6.56-32.15C335.31,328.64,335.75,327.27,337.52,326.8Z"/><path d="M290.13,293.8c2.17,2.76.56,4.46,0,6.27-2.84,9.2-4.51,18.57-3.49,28.23a12.88,12.88,0,0,1-2.8,9.44c-2.41,3.19-6,3.87-9.69,3.06s-4.78-3.4-5-7.07a33.77,33.77,0,0,1,2.64-16.25c2.74-6.27,6.59-11.78,10.54-17.28A19.86,19.86,0,0,1,290.13,293.8Z"/><path d="M469.32,283.36c1.34,2.43.44,4.15-.42,6-4.34,9.3-7.5,18.84-5.7,29.36a11.38,11.38,0,0,1-1,6.42c-1.65,3.86-4,7.24-8.84,6.38s-6.4-4.62-6.29-8.85c.43-16.21,8.84-28.42,20.21-39C467.63,283.34,468.4,283.48,469.32,283.36Z"/><path d="M381.41,291.43c6.09,2.45,11.47,4.32,14.69,10.07,2.71,4.84,6.21,9.25,8.4,14.41a17.83,17.83,0,0,1-.85,16.64c-1.67,2.89-4.1,5-7.71,4.69-3.46-.27-5.05-2.7-6.1-5.73A26.73,26.73,0,0,1,388.1,321c.39-7.5-.74-14.63-5.38-20.95A8.51,8.51,0,0,1,381.41,291.43Zm15.72,39.67c4.06-4,4.16-4.29,3-10.58-1.57,2.83-4.63,2-6.51,3.61C393.86,327,394,329.51,397.13,331.1Z"/><path class="a" d="M526.51,438.51c-2.76-7.55-6.28-13.6-12.64-17.78-4.11-2.71-8.73-3.84-13.14-5.63-6-2.42-7.3-7-3.3-12.18,2.39-3.06,6.54-4.2,8.91-6.87a48.31,48.31,0,0,1,22.57-14.54c7.07-2.22,11-15.17,8.94-22.85-1.55-5.77-2.85-11.61-4.23-17.43a18.76,18.76,0,0,1,.64-10.62c.63-1.85.68-3.76-1.52-4.51s-3.32,1.31-3.91,2.84a22.62,22.62,0,0,0-1,14.09c1.18,4.62,3.08,9,3.26,14,.19,5.4-1.88,9.7-5.44,13.47-2.06,2.17-4.5,3.06-7.29,2.28-1.56-3.2.8-3.79,2.51-4.58,4.4-2,4.34-5.94,4-9.74s-3-6-6.55-6.9a15.8,15.8,0,0,0-10.5.92c-5.48,2.41-10.94,4.9-16.59,6.85-7.12,2.47-12.19-.57-13.78-7.94-1.91-8.92,1-16.77,7-23.08,7.56-8,12.22-16.54,10.53-27.91A20.08,20.08,0,0,1,497.32,287c4.5-7.8,5.46-16.67,7-25.28,2.73-15.68,10.38-28.61,21-40.09A38.54,38.54,0,0,0,533,209.56c-2.15-2.72-4.47-3-7.83-2.05-13.43,3.66-26.77,3.53-39.67-2.39-6.41-2.93-9.07-10.37-6.2-18.57A83.78,83.78,0,0,0,483.69,168c.38-3.57,1-7.58-4.19-9.86-2.5,6.08-2.72,13.23-9,17.18-19.07-22-44.07-30.43-71.93-33.78-21.44-2.59-41.64,2.36-62.06,7-1.62.37-3.22,1.64-5.47.54.57-2.6,2.71-3.43,4.66-4.54,15.85-9,33.17-13.8,51-16.45,15.75-2.35,31.62-4.48,47.65-4.29,11.88.14,23.35,2.68,34.64,6,9.36,2.75,18.49,6.24,27.6,9.82,5.19,2,9.27,5.36,13.73,8.32,19.64,13,35.17,29.89,47.4,50,14.46,23.78,21.6,49.75,22.59,77.27,1.1,31-.6,61.83-8.66,92-4.91,18.37-12.82,35.08-25.25,49.67-4.38,5.14-8.23,10.77-12.7,15.88A26.24,26.24,0,0,1,526.51,438.51Zm27.27-169.68a19.56,19.56,0,0,0-5.86,25.93,173.66,173.66,0,0,1,11.82,27.41c7.29,20.86,5.66,39.54-12.59,54.72a62.64,62.64,0,0,0-15,17.78c-3.26,5.92-4.22,12.27-4.54,19.23,3.11-.67,3.72-2.35,4.61-3.58A196.28,196.28,0,0,1,553,385.67c5.73-5.66,11-12.35,12.82-20.59,3.2-14.82,4.26-29.75-1.5-44.26-3.33-8.37-5.08-17.18-7.86-25.7A50.7,50.7,0,0,1,554.36,281C554.22,277.14,555.64,273.15,553.78,268.83ZM533,256.4c2.11-2.58,1.75-4.83,1.55-6.92-.62-6.5,2.43-11.49,6.34-16.18,1.54-1.83,3.16-3.59,4.66-5.44,8-9.85,5.87-20.83-4.93-27.75-5.15-3.3-11.45-3.25-16.52-6.37-1.11-2.9,2.28-5.89-.61-8.83-4.53.92-4.67,5.16-5.11,8.2-.49,3.37,2.18,5.88,5.43,7,2.81,1,5.79,1.51,8.58,2.55,10.6,3.95,12.56,10.49,5.42,19.13a32.55,32.55,0,0,0-7.34,15.47C529.41,243.46,527.22,250.14,533,256.4ZM505.6,288.22a3.27,3.27,0,0,0-2.18,2.94c-.77,6.11-1.95,12.21-2.19,18.34-.32,8.11-.39,16.27,2.17,24.2,1.39,4.3,4.48,5.73,8.49,6.25s5-2.61,6.52-5.06a10.28,10.28,0,0,0-.36-11.87c-6.43-8.91-8.38-19.12-9.84-29.59C507.94,291.54,508.2,289.35,505.6,288.22ZM517,249.61c-1.48,1.08-1.16,2.06-1,3,.9,8.11,1.61,16.17-.73,24.22a18,18,0,0,0,1.1,12.27c2.24,5.25,7.21,6.52,11.58,2.85a10.59,10.59,0,0,0,3.94-8.37,52.4,52.4,0,0,0-8.19-28.2C522,252.84,520,250.42,517,249.61Z"/><path class="a" d="M446.93,519.45c-.39-5.67,1.43-11.59-1.93-17.13-2.53-.14-5.05,0-5.64,3-1,4.79-4.07,8.28-7.05,11.65-5.41,6.12-6.3,13-5.05,20.62.89,5.39,1.41,10.71-2.62,16.27-2.17-7.28-5.29-13.63-1.18-20.73,2.6-4.51,2-9.69,2.21-14.65.1-2-.68-3.56-2.91-3.81-2.47-.27-3,1.42-3.15,3.38-.63,10.4-9.12,17-12.42,27.52-6.08-11-3.69-20.51-.15-30.33-7,2.78-10.56,9.33-16.77,13.54,0-6.77,4.43-10.66,8.12-14.28,7-6.91,10.19-14.88,10.21-24.58a16.66,16.66,0,0,1,6-13.21,17.87,17.87,0,0,0,2.51-2.56,3,3,0,0,0-.11-4.33c-1.46-1.4-2.94-.68-4.22.51-3.06,2.85-5.2,6.58-8.74,9-2,1.34-3.6,3.22-6.27,3l-.06-.05c3.2-8.46,8.46-14.6,17.74-16.77,3.05-.72,7-.95,7.65-5.74-3.22-4-10.06-2.79-12.41-8.25,4.27.21,8.46.24,12.6.65,10.22,1,19.12-2.87,28-7.1,4.06-1.93,2.46-4.75,1.16-7.92l9.53-6.47c2,4.12,3.71,7.89,5.6,11.58.93,1.82-.35,2.92-.9,4.36-1.09,2.88-3,5.95,1.3,9.17,6.21-9.69,15.91-5,24.48-6a8.08,8.08,0,0,1,.95,1.73c.56,2.34-.72,5.79,2.89,6.39,2.91.48,3.71-2.66,5.06-4.43,2.07-2.71,3.49-6,7.93-4.62,3.66,1.17,7.95,6.51,8.07,10.14.22,7,.77,14.05-6.16,19.28-1.38-.14-1.24-4.34-4.13-3.11-2.72,1.15-2.34,4-2.56,6.25-.38,3.77-.22,7.59-.67,11.35-.28,2.31-1,4.67-3.76,6.12-2.55-4.89-2-9.57.08-14.25.95-2.15,2.84-4.51.23-6.42-3.08-2.26-4.51,1-6.34,2.61-.6.52-1,1.33-1.65,1.72-10.6,6.41-10.38,15.94-7.76,26.26,1.17,4.61,2.59,9.31-1,13.92.23-6.65-1.56-12.93-2.81-19.31a17.32,17.32,0,0,0-.71-3.48,3,3,0,0,0-3.31-2c-1.71.26-2.19,1.61-2.13,3.11a20.48,20.48,0,0,0,.54,3.54c1.35,6.33-.07,11.2-5.21,15.95-6.48,6-9.92,13.69-7,23.23,2.41,7.79,4.37,15.84,1.95,24.11-.36,1.24-.23,2.87-2.57,3.52,1.35-9.93-2.38-18.44-6.55-26.86-2.77-5.58-2.29-11,.29-16.69,2.69-5.91,4.07-12.14,1.58-18.6-.65-1.68-1.17-3.59-3.51-3.37s-2.57,2.11-3,3.9c-.87,3.47-.33,7.58-4.22,9.76Zm0-36c1.24,2.74-1.26,4.19-2.2,6.15-1.2,2.51-2.8,4.87-.41,7.83,3.71-.11,7-1.19,9.1-3.63.7-3.11-3.81-2.46-2.41-5.25,2.48-4.92-1.67-4.27-4.17-5,.9-2.65,3.76-2.73,5.61-4.13,2.59-2,5.64-3.87,6.34-6.9,1.11-4.86,4.5-7.12,8.09-9.61,1.45-1,4.12-1.14,3.62-4.42-10.43-1-12.82,8.82-19.1,15.07-.4-3.76-2.21-5.61-4.13-7.44,10.06-5.51,10.06-5.51,7.44-11.09,6.93-5.83,6.93-5.83,5.71-10.05-2.63.52-4.5,2.45-6.7,3.71-3.64,2.08-7.14,4.32-11.47,4.89-2.89.38-7.12-1.64-8.23,2.65-1.18,4.58,4.41,3.6,6.55,6.5-9.45,5.8-14.07,15.31-18.93,24.66-1.14,2.18-1.87,4.39.48,5.78,2.59,1.53,3.25-1.16,4.25-2.78,2.63-4.24,5.21-8.55,10.81-10.19.06,4-5.19,7.38-.33,11.23C440.85,489.27,441.78,483.57,446.94,483.42ZM475.58,481c.09,1.71.18,2.69.18,3.67,0,1.79-.28,3.82,1.9,4.57,2.72.93,3.27-1.41,4.27-3.09a18.66,18.66,0,0,1,8.59-7.21c10.21-4.76,12.14-15.31,16.94-24-9.17,3.59-9.9,16-20.6,19.06,2.16-4.15.84-6.36-3.65-6.61,8.11-6.62,8.11-6.62,6.78-10.54-14.22,6.72-23.88,18.17-32.27,30.91-1.45,2.21-.68,4.16,2,5.47C464.89,489.49,468.15,483.16,475.58,481Zm-60.7,16.82c-3.19,4.37-3.69,9.83-5.47,14.77-.82,2.3-1.05,4.56,1.48,5.63s3.58-1.22,4.41-3c2.74-5.78,7.08-10,12.26-13.6,1.95-1.35,4.41-2.63,4.5-5.94-5.82-.39-8.81,4.61-13.4,6.09C417.78,500.46,418,498.47,414.88,497.78Zm47.47,12.45c9.19-6.4,9.46-9.16,1.49-13.82C462.41,500.82,458.21,504.61,462.35,510.23Z"/><path class="a" d="M305,443.62c33.8,15.81,69.06,21.91,106.48,16.29-10.22,3.23-13.89,12.16-19.2,19.65-6.91,9.72-6.67,7.51-16.4,5.42-26.19-5.61-46.86-21.32-67.37-37.25C307.33,446.79,305.54,446.49,305,443.62Z"/><path class="a" d="M518.77,440.71c-6.83-9.06-17.47-9.69-27.29-12.52s-12.32-11.81-5.73-18.49a2.38,2.38,0,0,1,2.64.94c3.69,6.76,9.81,9.85,16.78,12.32,6.25,2.22,11.61,6.07,14.11,12.78C519.83,437.23,520.76,438.6,518.77,440.71Z"/><path class="a" d="M473.85,420.83a17.59,17.59,0,0,1,.91,1.91c2.54,7.48,6.66,12,15.67,11.3,4.86-.39,10.07,1.31,15.86,4.85-8.28.41-15,2.1-21.92,1.42-7.22-.72-13.53-7.1-13.5-13.62C470.88,424.48,471,422.28,473.85,420.83Z"/><path class="a" d="M519.6,215.44c-1.7,5-5.51,7-8.66,9.73a50.45,50.45,0,0,0-28.73-4.58c-.23-3.77,2-3.57,4.21-3.45A163,163,0,0,0,519.6,215.44Z"/><path class="a" d="M506.08,232.06c-5.3.31-9-3.41-13.5-3.73-4.7-.32-9.31-.53-14.54,1.36C483.69,222.91,501.28,224.4,506.08,232.06Z"/><path class="a" d="M492.84,490.33c3.3,7.45-.58,14.24-.75,21.38C487.46,505,487.85,494.53,492.84,490.33Z"/><path class="a" d="M447.74,531.1c.26-.45.51-.91.8-1.41,1,.72.59,1.53.34,2.3Z"/><path class="a" d="M397.82,482.32l-.43.8c-.77-.68-.16-.75.37-.85Z"/><path class="a" d="M447,519.51c-.1.29-.31.11-.06-.06Z"/><path class="a" d="M314.66,306.86c2.14-10.5,2.85-20.86-2-31-1.64-3.45-4.29-6.12-6.91-10,16.53-6.23,28.14-16.89,33-35.28,8.07,12.85,16.5,23.39,31,29.13a73.06,73.06,0,0,0-33.89,21.71,136.13,136.13,0,0,0-15.56,20.16c-1.35,2.2-3,4.23-4.49,6.34Z"/><path class="a" d="M315.84,307.92c-.27.86-.53,1.73-1.61,2a2.19,2.19,0,0,1,.43-3Z"/><path class="a" d="M397.13,331.1c-3.09-1.59-3.27-4.15-3.51-7,1.88-1.64,4.94-.78,6.51-3.61C401.29,326.81,401.19,327.13,397.13,331.1Z"/><path d="M553.78,268.83c1.86,4.32.44,8.31.58,12.14a50.7,50.7,0,0,0,2.06,14.15c2.78,8.52,4.53,17.33,7.86,25.7,5.76,14.51,4.7,29.44,1.5,44.26C564,373.32,558.69,380,553,385.67a196.28,196.28,0,0,0-20.74,24.65c-.89,1.23-1.5,2.91-4.61,3.58.32-7,1.28-13.31,4.54-19.23a62.64,62.64,0,0,1,15-17.78C565.4,361.71,567,343,559.74,322.17a173.66,173.66,0,0,0-11.82-27.41A19.56,19.56,0,0,1,553.78,268.83Z"/><path d="M533,256.4c-5.73-6.26-3.54-12.94-2.53-19.09a32.55,32.55,0,0,1,7.34-15.47c7.14-8.64,5.18-15.18-5.42-19.13-2.79-1-5.77-1.54-8.58-2.55-3.25-1.17-5.92-3.68-5.43-7,.44-3,.58-7.28,5.11-8.2,2.89,2.94-.5,5.93.61,8.83,5.07,3.12,11.37,3.07,16.52,6.37,10.8,6.92,12.94,17.9,4.93,27.75-1.5,1.85-3.12,3.61-4.66,5.44-3.91,4.69-7,9.68-6.34,16.18C534.7,251.57,535.06,253.82,533,256.4Z"/><path d="M505.6,288.22c2.6,1.13,2.34,3.32,2.61,5.21,1.46,10.47,3.41,20.68,9.84,29.59a10.28,10.28,0,0,1,.36,11.87c-1.54,2.45-2.6,5.57-6.52,5.06s-7.1-1.95-8.49-6.25c-2.56-7.93-2.49-16.09-2.17-24.2.24-6.13,1.42-12.23,2.19-18.34A3.27,3.27,0,0,1,505.6,288.22Z"/><path d="M517,249.61c2.93.81,5,3.23,6.65,5.81a52.4,52.4,0,0,1,8.19,28.2,10.59,10.59,0,0,1-3.94,8.37c-4.37,3.67-9.34,2.4-11.58-2.85a18,18,0,0,1-1.1-12.27c2.34-8.05,1.63-16.11.73-24.22C515.88,251.67,515.56,250.69,517,249.61Z"/><path d="M446.94,483.42c-5.16.15-6.09,5.85-10.08,8-4.86-3.85.39-7.18.33-11.23-5.6,1.64-8.18,5.95-10.81,10.19-1,1.62-1.66,4.31-4.25,2.78-2.35-1.39-1.62-3.6-.48-5.78,4.86-9.35,9.48-18.86,18.93-24.66-2.14-2.9-7.73-1.92-6.55-6.5,1.11-4.29,5.34-2.27,8.23-2.65,4.33-.57,7.83-2.81,11.47-4.89,2.2-1.26,4.07-3.19,6.7-3.71,1.22,4.22,1.22,4.22-5.71,10.05,2.62,5.58,2.62,5.58-7.44,11.09,1.92,1.83,3.73,3.68,4.13,7.44,6.28-6.25,8.67-16.1,19.1-15.07.5,3.28-2.17,3.42-3.62,4.42-3.59,2.49-7,4.75-8.09,9.61-.7,3-3.75,4.94-6.34,6.9-1.85,1.4-4.71,1.48-5.61,4.13Z"/><path d="M475.58,481c-7.43,2.2-10.69,8.53-15.83,12.27-2.71-1.31-3.48-3.26-2-5.47,8.39-12.74,18-24.19,32.27-30.91,1.33,3.92,1.33,3.92-6.78,10.54,4.49.25,5.81,2.46,3.65,6.61,10.7-3.09,11.43-15.47,20.6-19.06-4.8,8.65-6.73,19.2-16.94,24a18.66,18.66,0,0,0-8.59,7.21c-1,1.68-1.55,4-4.27,3.09-2.18-.75-1.88-2.78-1.9-4.57C475.76,483.65,475.67,482.67,475.58,481Z"/><path d="M414.88,497.78c3.08.69,2.9,2.68,3.78,4,4.59-1.48,7.58-6.48,13.4-6.09-.09,3.31-2.55,4.59-4.5,5.94-5.18,3.59-9.52,7.82-12.26,13.6-.83,1.75-1.92,4-4.41,3s-2.3-3.33-1.48-5.63C411.19,507.61,411.69,502.15,414.88,497.78Z"/><path d="M446.85,483.51c2.5.74,6.65.09,4.17,5-1.4,2.79,3.11,2.14,2.41,5.25-2.09,2.44-5.39,3.52-9.1,3.63-2.39-3-.79-5.32.41-7.83.94-2,3.44-3.41,2.2-6.15Z"/><path d="M462.35,510.23c-4.14-5.62.06-9.41,1.49-13.82C471.81,501.07,471.54,503.83,462.35,510.23Z"/></svg>