<svg xmlns="http://www.w3.org/2000/svg" viewBox="0 0 800 800"><defs><style>.a{fill:#fca14f}.b{fill:#e83131}.c{fill:#fff}</style></defs><path d="M381.12 549.12c-.1 4.16-.18 8.32-.3 12.48-.13 4.42-2.37 8.15-4.08 12a46.57 46.57 0 0 1-2.52 4.45c-2.42 4.09-6 7-9.75 9.8-1.5 1.1-2.83 2.45-4.24 3.69a6.47 6.47 0 0 1-1.06.91c-3.83 2.15-6 5.7-8 9.41-3.17 5.87-3.05 12.22-2.85 18.6.05 1.5 0 3 0 4.52a5.65 5.65 0 0 0 0 1.42c1 3.2.47 6.44.07 9.61a51.42 51.42 0 0 1-2 8.85c-1.75 5.62-3.61 11.3-7.34 15.9-3.4 4.18-7.4 7.86-11.2 11.69a44.54 44.54 0 0 1-4.13 3.49 2 2 0 0 1-2.84.07 1.53 1.53 0 0 1-.57-2c.8-1.72 1.6-3.44 2.35-5.18a103.32 103.32 0 0 0 4.15-9.94 36.22 36.22 0 0 0 1.22-8.12c.33-4.55.49-9.11-.6-13.61-.55-2.28-1.15-4.56-1.56-6.87-.46-2.59-.71-5.23-1.07-7.84a55.4 55.4 0 0 0-1.11-7.3c-1-3.42-.4-6.77-.09-10.14.39-4.11 2.49-7.65 4-11.42 2.05-5 5.8-8.6 9.05-12.63a1.73 1.73 0 0 1 .4-.41c3.23-1.93 5.16-5 6.8-8.19 1.36-2.69 2.64-5.44 3.78-8.23 1.39-3.39 1.46-6.9 1.36-10.58a67.7 67.7 0 0 1 1.12-16.43c.21-.93.46-1.78-1.11-1.27-4.37 1.42-8.19.22-11.6-2.64a22.1 22.1 0 0 1-1.8-1.82c-.55-.59-1.09-1.2-1.63-1.8a14.3 14.3 0 0 1-1.88 1.7c-2.52 1.66-5.06 3.31-7.66 4.84-4.52 2.66-9.68 3.7-14.48 5.65-4.1 1.66-8.5 2.8-11.95 5.83a45.12 45.12 0 0 0-8.8 10.39c-3.42 5.57-6.84 11.17-10.58 16.52-3.14 4.5-7.57 7.63-12.47 10.08-1.35.67-2.61 1.5-3.92 2.24-.74.41-1.49.79-2.25 1.15-.93.44-1.88.82-2.8 1.26a11 11 0 0 1-1.48.84c-2.25.69-4.5 1.44-6.8 1.92-4.25.88-8.55 1.57-12.82 2.39A2.5 2.5 0 0 1 233 593c-.66-1.29-.59-2.35.66-3.23a15.08 15.08 0 0 1 2-1.51c2.56-1.24 5.3-2.17 7.73-3.62a64.81 64.81 0 0 0 7.07-5.23 44.94 44.94 0 0 0 9.07-9.75c1.12-1.64 2.36-3.2 3.51-4.82a33.25 33.25 0 0 0 3.85-8.2c2.37-6.66 4.39-13.44 7.89-19.71A36.93 36.93 0 0 1 287 523.42c3.49-2.26 7.34-4 10.79-6.32 3-2.05 5.76-4.59 8.6-6.93.59-.48.87-1 0-1.55-3.11-1.91-4.06-5.14-4.85-8.37-.35-1.46-.69-2.1-2.45-2.34-5.13-.69-8.25-4.17-9.12-9.51-.37-2.25-.38-2.47-2.58-2.39-4.92.19-9.92.18-14.72 1.1a16.53 16.53 0 0 0-10 5.55c-2.45 3-5.7 5.29-8.38 8.09-3.63 3.79-8.43 5.64-12.82 8.16a10.64 10.64 0 0 1-4.08 1c-3.37.38-6.75.76-10.14.86-2.34.06-4.7-.56-7-.53-6.07.06-12.12.34-17.6 3.48-1.4.81-2.86 1.48-4.28 2.25a8 8 0 0 0-3.59 3.54 3.89 3.89 0 0 1-1.49 1.62c-.78.44-2.33 1-2.49.77a4.31 4.31 0 0 1-1-3c1.14-4.38 2.09-8.89 5.57-12.26.64-.62.84-1.68 1.37-2.45a46.1 46.1 0 0 1 10.67-11.27c2.17-1.57 4.41-2.92 7.22-3.09a19.37 19.37 0 0 0 3.57-.93q9.72-2.58 19.44-5.14a11.08 11.08 0 0 0 6.52-4.23 30.65 30.65 0 0 1 2-2.76c2.75-3 5.57-5.93 8.36-8.88a15.51 15.51 0 0 0 1.4-1.41c2.66-3.68 6.41-5.43 10.73-6.19 1.78-.31 3.56-.55 5.34-.85 1.36-.23 1.42-.39.41-1.49-1.62-1.77-3.11-3.57-3.5-6.07a7.7 7.7 0 0 1 .64-5.25c1-1.73 1.4-3.24-.59-4.95-2.44-2.08-3.48-5-3.64-8.36a10.11 10.11 0 0 1 2.61-7.14c.7-.87 1.23-1.34-.37-1.92-4.43-1.63-8.71-3.67-13.19-5.16a29.57 29.57 0 0 0-14.84-.78c-4.63.84-8.71 3.23-13.26 4.24-1.48.33-3 .7-4.4 1.15-3.2 1-6.28.06-9.21-.82a95 95 0 0 1-19.67-8.92c-3.72-2.13-7.5-4.18-11.68-5.1-5.49-1.2-11.07-1.94-16.42.83a2.7 2.7 0 0 1-1.36.32c-1.18-.1-2.57.23-3.24-1.22a3.19 3.19 0 0 1 1.47-3.64c3-1.94 6.09-3.88 9.26-5.57 5.76-3.07 11.95-3.21 18.22-2.23 2.62.4 5.2 1.09 7.83 1.42a24.58 24.58 0 0 0 4.52-.19c4-.26 7.94-.42 11.89-.85 6.53-.74 12.83-2.74 19.2-4.54 4.34-1.24 8.86-2 13.47-1.18a14.2 14.2 0 0 0 3.68-.07c3.09-.29 6 .5 9 1.14 1.79.38 1.72.29 1.48-1.5a11.27 11.27 0 0 1 2.28-9.1 16.9 16.9 0 0 0 2.77-3.57c.67-1.57-1.39-2.23-1.85-3.56-1.76-5-1.6-9.68 1.54-14.08.28-.39.63-.72.87-1.13.41-.67.05-1-.59-1.24a5 5 0 0 0-.56-.09c-3.08-.46-6.18-.8-9.23-1.42a22.75 22.75 0 0 1-13.76-8.4c-2.89-3.64-5.86-7.22-9-10.67a20.46 20.46 0 0 0-14-6.68 87.28 87.28 0 0 1-10.36-1.78c-2.38-.49-4.71-1.25-7.06-1.92a24.3 24.3 0 0 1-10.53-6 34.38 34.38 0 0 1-4.78-6.25c-3.39-5.36-4.61-11.6-6.74-17.47a3.24 3.24 0 0 1-.26-1.39c.11-.82.11-1.93.62-2.37.74-.63 1.68-.1 2.59.39a8.65 8.65 0 0 1 2.91 2.6 26.13 26.13 0 0 0 11.4 9.1 21.36 21.36 0 0 0 7.77 1.18c6.36 0 12.71-.17 18.94 1.41 3.2.81 6.52 1.35 9.54 2.61 3.8 1.57 7.6 3.16 10.9 5.92 7.94 6.63 16.72 11.79 27.19 13.3a66.79 66.79 0 0 0 7.09.37 1.08 1.08 0 0 0 1.29-1.15c.08-1.13.29-2.26.34-3.39a8.53 8.53 0 0 1 6.52-7.65c.37-.07.74-.18 1.11-.25 3.41-.68 3.24-.71 3.82-4.26a14.45 14.45 0 0 1 6.34-10.29c.32-.2.61-.46.94-.64 1.14-.62 1.31-1.11.42-2.35-3.87-5.37-9-9.23-14.55-12.57a22.29 22.29 0 0 1-5.9-5.66c-4.8-6.14-7.51-13.33-9.21-20.87a23.92 23.92 0 0 0-9.58-14.64c-2.21-1.61-4.17-3.56-6.33-5.24a15.89 15.89 0 0 0-4.29-2.75c-4.49-1.54-8.12-4.45-11.89-7.11-3.38-2.38-5.8-5.71-8-9.14a55.13 55.13 0 0 1-3.12-6c-2.06-4.38-2.28-9.16-2.85-13.85a5.07 5.07 0 0 1 .19-2.52 2.91 2.91 0 0 1 1.68-1.59 2.25 2.25 0 0 1 1.82 1 11.44 11.44 0 0 1 1.3 3.12c1.49 5.12 5.39 8 9.86 10 3.86 1.72 8.09 2.61 12.15 3.92s8.39 2.48 12.37 4.21c2.81 1.23 5.28 3.25 7.84 5a41 41 0 0 1 5.44 4 48.1 48.1 0 0 1 8.42 10.66c1.25 2.2 2.78 4.24 4.13 6.39a21.81 21.81 0 0 1 1.87 3.5 36.13 36.13 0 0 0 4 6.81c3 4.42 7.18 7.52 11 11.08a40.47 40.47 0 0 0 4.64 3.25c2.32 1.62 4.69 3.19 6.92 4.93 1.93 1.51 3.7 3.22 5.53 4.85.52.47.87.52 1.37-.09 1-1.17 2-2.27 3-3.38 3-3.23 6.61-3.54 10.44-2.17 1.22.44 1.69.26 2.19-.73.21-.42.5-.81.7-1.23a10.51 10.51 0 0 1 9.5-6.21c2.17-.14 2.26-.2 1.61-2.26a57.7 57.7 0 0 0-8.26-17.39 83.4 83.4 0 0 1-6.18-9.19 71.51 71.51 0 0 1-5.36-11.92c-.85-2.61-.72-5.61-.66-8.43.13-6.19 1.69-12.19 2.74-18.25 1.08-6.21 1.26-12.34-1.41-18.17a29.25 29.25 0 0 0-8.35-10.6c-5.13-4.18-10-8.75-12.47-15.23-.56-1.49-1.26-2.93-1.76-4.44-1.45-4.37-.92-8.76 0-13.16.38-1.86.47-3.79 1-5.6a58 58 0 0 1 2.79-8 16.3 16.3 0 0 1 3.15-4.31 2.39 2.39 0 0 1 2.24-.45 2.9 2.9 0 0 1 .9 2.42 31 31 0 0 0-.49 13.44 5.58 5.58 0 0 0 1.92 3.68 40.61 40.61 0 0 1 2.88 3.11c5.51 5.66 12.14 9.91 18.35 14.69a40 40 0 0 1 12.58 16.93 27.94 27.94 0 0 1 2.14 12c-.23 5.12-.06 10.26 0 15.39a12.38 12.38 0 0 0 .34 3.1c2.06 7.62 4.52 15 9.09 21.66 2.3 3.36 5 6.44 7.12 9.85 4.46 7 9.11 14 11 22.38a26.91 26.91 0 0 0 1.43 3.66c1.09-.53 2.23-1 3.26-1.59 4.18-2.51 8-1.6 11.54 1.24 1.16.94 1.72.7 2.89 0a26.79 26.79 0 0 1 7-3c4.86-1.18 8.44 1 11 5.11a4.43 4.43 0 0 0 .94.82 5.66 5.66 0 0 0 .43-1 44.89 44.89 0 0 0-.8-21.14c-1.13-3.91-2-7.91-2.86-11.89-.66-3-.09-6.09.54-9a55.83 55.83 0 0 1 9.72-21.37c5.58-7.65 11.66-14.93 17.52-22.38a29.62 29.62 0 0 0 6.27-13.21 28.67 28.67 0 0 0-.06-8.77c-.77-5.42-2.09-10.77-2.27-16.28a25.62 25.62 0 0 1 .22-4.8 46.26 46.26 0 0 1 1.69-7.78 39.14 39.14 0 0 1 3.34-6.54 24.76 24.76 0 0 1 2.81-3.92 8.06 8.06 0 0 1 2.71-2c1.69-.71 3 .53 2.6 2.37-.29 1.29-.84 2.53-1.08 3.83a19.68 19.68 0 0 0-.56 5 55.43 55.43 0 0 0 2.11 11.43 20.22 20.22 0 0 0 3.16 6.54 49.28 49.28 0 0 1 4.13 7.07 12.47 12.47 0 0 1 1.1 3.81c.67 4.7 1.25 9.4 1.82 14.11a6.88 6.88 0 0 1 0 2.56c-1 3.55-1.85 7.15-3.12 10.6s-2.88 6.55-4.35 9.82a5.4 5.4 0 0 1-.4.75c-2 3-4 5.89-5.87 8.94-2.14 3.56-4.36 7.1-5.24 11.29-.39 1.82-1.57 3.52-1.77 5.34a101.18 101.18 0 0 0-.75 13.35c.13 5.2 1 10.38 1.25 15.59.28 5.88.25 11.77.23 17.66a16.56 16.56 0 0 1-.86 3.57c-.22.92-.37 1.85-.57 2.77-.26 1.17.11 1.81 1.4 1.86a7.53 7.53 0 0 1 1.92.39c3.32 1 6.08 2.75 6.89 6.46.3 1.35.83 1.8 2.35 1.44 2.83-.67 5.47.67 7.9 1.77 1.29.59 2 2.62 2.79 4.1s.7 1.55 2.1.54c3.07-2.21 6.13-4.44 9.23-6.59a24.52 24.52 0 0 0 6.87-7.85 54.33 54.33 0 0 0 6.62-17.48 33.49 33.49 0 0 1 7.63-16 63 63 0 0 1 7.51-7.72 54.58 54.58 0 0 1 9.69-5.84 23.19 23.19 0 0 0 11.14-12.08 66.33 66.33 0 0 0 3.16-10.33c1.6-6.36 3.05-12.74 6.65-18.38a23.23 23.23 0 0 1 6.55-6.26 34.3 34.3 0 0 1 18.6-6.18 26.83 26.83 0 0 0 4.14-.94c1.91-.42 3 0 3.56 1.32a3.3 3.3 0 0 1-1.41 4c-2.79 1.34-4.88 3.54-7.25 5.42-5.77 4.59-9.58 10.28-10 17.76a95.5 95.5 0 0 1-2 16.09 49.54 49.54 0 0 1-4.22 11.71c-2.18 4.21-4.45 8.35-7.84 11.75a21 21 0 0 1-2 2c-4.69 3.52-9.55 6.82-14.06 10.56a27.43 27.43 0 0 0-8 10.93c-1.89 4.67-2.26 9.6-3 14.46A31.31 31.31 0 0 1 507 301.12c-2.54 1.8-4.95 3.78-7.39 5.72a6.14 6.14 0 0 0-1 1.31 6.11 6.11 0 0 0 1.27.6 15.78 15.78 0 0 1 7.25 4.11c2.33 2.17 3.94 4.56 4.17 7.79 0 .56.22 1.11.3 1.67.12.86.58 1 1.4.93 4.79-.6 9.6-1.11 14.39-1.73 4.39-.56 8.75-1.4 13.16-1.78 7.09-.63 12.68-4.76 18.7-7.82 2.35-1.19 4-3.68 6-5.61.26-.25.32-.77.61-.94 3.52-2.15 5.7-5.85 9.07-8.05 4.73-3.1 9.51-6.24 15.13-7.62a6.62 6.62 0 0 1 2-.3c5.57.28 11.14.54 16.7.94 3.48.26 6.93.78 10.39 1.11a22.82 22.82 0 0 0 14.13-3.38c.32-.2.7-.3 1-.5.71-.44 1.34-1.25 2.27-.54s1.7 1.73 1.31 2.94c-.55 1.69-.86 3.48-2.25 4.83-2.44 2.38-4.79 4.85-7.15 7.31-1.85 1.93-4.4 2.55-6.68 3.69a42.77 42.77 0 0 1-11.14 3.31 17.17 17.17 0 0 1-3.12.29 35.79 35.79 0 0 0-17.64 4.85 19.65 19.65 0 0 0-8 7.58c-3.89 7.29-9.78 12.73-16 17.87a20.86 20.86 0 0 1-6.91 3.85 76.12 76.12 0 0 0-8.75 3.4c-3.36 1.55-7 1.52-10.5 2.16-3.81.69-7.6 1.55-11.4 2.38-.76.16-.78.64-.32 1.24.79 1 1.51 2.15 2.29 3.21a15.85 15.85 0 0 1 2.94 13.94c-.08.31.36.83.66 1.14s.55.11.83.12c8.21.43 15.64 3.52 23 6.72 4.62 2 9.33 3.84 14.48 3.62a43 43 0 0 0 15.8-3.64 13.33 13.33 0 0 1 3-1 54.29 54.29 0 0 1 19.23-.53 43.1 43.1 0 0 1 7 2.23c1.61.57 3.17 1.24 4.74 1.91a9.77 9.77 0 0 1 1.7 1c2.45 1.75 4.93 3.48 7.34 5.3a30.43 30.43 0 0 1 8.39 8.79 4.93 4.93 0 0 1 .67 1.55 2 2 0 0 1-2.47 2.49c-.73-.11-1.71-.2-2.11-.69-2.08-2.5-5-3-7.9-3.45-3.44-.53-6.91-.87-10.38-1.14a13.58 13.58 0 0 0-3.62.43c-3.24.65-6.51 1.22-9.68 2.14a12.61 12.61 0 0 0-4.68 2.53c-5 4.41-11.06 6.47-17.07 8.74-1.37.52-3 .37-4.5.58-4.27.6-8.38-.13-12.55-1.13a164.91 164.91 0 0 1-16.18-5.23 28.07 28.07 0 0 0-10.63-1.58 4 4 0 0 0-1.21.44 4 4 0 0 0 .62.87c2.42 1.91 3.13 4.64 3.64 7.46a3.43 3.43 0 0 0 .06.57c2 4.65-.44 8-3.36 11.13-.67.72-.77 1.18-.21 1.92a15.43 15.43 0 0 1 .86 1.48 11.55 11.55 0 0 1-4.22 16.13c-1.65.94-1.7 1-.73 2.5s2.09 2.92 3.07 4.43c1.89 2.93 3.73 5.9 5.57 8.87a16.68 16.68 0 0 1 1.07 2 19 19 0 0 0 13.73 11.27c1.75.41 3.53.71 5.3 1.08a40.4 40.4 0 0 1 17.57 9 32.67 32.67 0 0 1 4.37 5.24c1.39 1.8 2.71 3.65 4 5.51a8.54 8.54 0 0 1 .84 1.78 141.82 141.82 0 0 0 9.32 19.8 24.93 24.93 0 0 0 14.86 12.06 16 16 0 0 0 4.21.34c1.91 0 3.89 1.48 4.16 3.15.33 2-.68 3.51-3 4q-5.25 1.2-10.55 2.12a10.26 10.26 0 0 1-3.1-.24 34.76 34.76 0 0 1-6.41-1.09 16.29 16.29 0 0 1-6.16-3.3 116 116 0 0 1-9.21-10.81c-2.79-3.59-5.08-7.58-8-11.07a27.74 27.74 0 0 0-16.47-9.95c-3.26-.61-6.54-1.14-9.75-1.94-5.4-1.33-11-2.07-15.72-5.44-1.65-1.18-3.78-1.66-5.67-2.51a25.88 25.88 0 0 1-7.52-5.48c-.71-.7-1.34-.71-1.75.24-1.1 2.53-3.43 3.19-5.76 3.66-1.47.29-1.82.87-1.72 2.29a9.48 9.48 0 0 1-6.15 9.17 8.57 8.57 0 0 1-3.08.08c-1.67-.12-1.75-.16-1.57 1.61.28 2.82.6 5.65 1.08 8.44 1 5.69 1.92 11.4 3.18 17a35.09 35.09 0 0 0 8.78 16.67c2 2.12 4.39 3.88 6.56 5.86 4.61 4.21 9.63 8.1 12.62 13.72 2.53 4.75 4.6 9.74 6.87 14.63a1.7 1.7 0 0 1 .17.54c.79 5.53 1.61 11 2.34 16.58.58 4.41.46 9 1.67 13.22 1.77 6.16 3.55 12.46 7.91 17.5.8.92 1.93 1.56 2.7 2.5a23.27 23.27 0 0 1 3 4.42c.66 1.39-.23 2.28-1.71 1.83-2.9-.86-5.81-1.75-8.63-2.86-1.1-.43-1.88-1.59-2.94-2.19-4.42-2.49-7.45-6.48-10.6-10.21-2.23-2.63-3.61-6-5.34-9-2.91-5.12-3.66-10.95-5.4-16.45-.51-1.61-1.19-3.17-1.79-4.75-2.2-5.77-4.64-11.4-8.65-16.2a20.07 20.07 0 0 0-4.72-4c-6.12-4-12.2-8-18-12.43a24.47 24.47 0 0 1-7.8-9.63c-2-4.57-4.09-9.11-6.05-13.7-.53-1.25-.92-1-1.83-.38a18.82 18.82 0 0 1-5.16 2.84c-2.3.62-4.81 1-7.16-.21-1.06-.54-1.73-.27-2.25.85-2.28 4.8-6.29 6.84-11.43 7-.93 0-.81.46-.58 1.08a84 84 0 0 1 3.22 9.09c.56 2.26.38 4.71.47 7.07a44.57 44.57 0 0 1-2.84 17.56 62.44 62.44 0 0 1-4.41 9.44 46.1 46.1 0 0 0-6 21.68 27.37 27.37 0 0 0 2.94 12.67c1.06 2.21 2.48 4.26 3.54 6.47 3.25 6.84 6.77 13.6 7.85 21.25a16.88 16.88 0 0 0 .89 3.87c1 2.67.79 5.4.81 8.15a41.37 41.37 0 0 1-3.85 17.37 40.92 40.92 0 0 1-4.16 6.74c-.54.79-1.48 1.68-2.67 1.07a2.59 2.59 0 0 1-1.35-2.89c.52-4-.15-7.88-.93-11.8-1.39-7-5.51-12.55-9.47-18.2-3.41-4.88-7.07-9.61-9.62-15.05a64.67 64.67 0 0 1-3.88-8.8 49.52 49.52 0 0 1-2-10.85c-.33-5.48-.2-11-.08-16.48a37.31 37.31 0 0 1 1-5.57c.85-4.73 1.72-9.46 2.52-14.2.35-2.06.39-4.18.86-6.2a16.41 16.41 0 0 0-.3-9.24 2.8 2.8 0 0 1-.23-.82c-.12-6.44-4-11.35-6.74-16.72-.37-.73-.78-1-1.55-.43-1.81 1.33-3.73.95-5.71.37-2.67-.77-5.26-1.58-6.94-4-.54-.8-1.16-.84-1.81 0-3.84 4.91-8.62 4.12-13.57 2.2-.18-.07-.34-.18-.52-.25-1.65-.68-1.64-.67-1.58 1.17v2.57zM336.77 317a3.66 3.66 0 0 0 1.35.06 16.45 16.45 0 0 1 5.55-.71c2.1 0 4.08-.63 4.81-3.1a17.87 17.87 0 0 1 1.45-2.77 5.37 5.37 0 0 0 .33-1 3.14 3.14 0 0 0-1.24.13 482.26 482.26 0 0 0-10.7 5.87 7.44 7.44 0 0 0-1.5 1.6l-.43.14.28.19zm163.7 92.81a82.7 82.7 0 0 0-1.33-18.11 114.36 114.36 0 0 0-4.57-18.18c-1.88-5.55-4.43-10.88-6.79-16.26-.91-2.07-2.11-4-3.21-6a48.28 48.28 0 0 0-3.37-5.91c-3.66-4.84-7.47-9.56-11.29-14.28a5.09 5.09 0 0 0-2.09-1.34 60.55 60.55 0 0 0-18.75-4.18 132.12 132.12 0 0 0-14.49.13c-6.93.41-13.63 2.07-20.27 3.93-4.82 1.34-9.67 2.71-13.87 5.65-1.58 1.1-2.37.86-3.68-.57a6.08 6.08 0 0 0-1.62-1.55c-4.31-2-8.62-4-13-5.72a48.87 48.87 0 0 0-11.24-2.82 75.78 75.78 0 0 0-16.13-.69c-4 .26-7.9.88-11.85 1.38-4.16.53-8.07 2-12 3.31a7.4 7.4 0 0 0-3.68 2.52c-2.13 2.79-4.66 5.3-6.52 8.25-3.51 5.58-7.65 10.81-10 17.07-2.52 6.65-5.26 13.22-7.56 19.93s-3.28 13.45-4.22 20.32a39.62 39.62 0 0 0-.46 5.65c0 4.45.07 8.92.38 13.36.49 7.1 1.13 14.21 3.69 20.95 1.25 3.28 2.63 6.51 3.95 9.76a24.05 24.05 0 0 0 1.76 4.16c3.93 6 8.07 11.94 11.95 18a54.91 54.91 0 0 0 13.09 13.75c5.52 4.25 11.48 7.93 17.35 11.7a33.33 33.33 0 0 0 6.63 3.23c3.56 1.3 7.27 2.17 10.83 3.48 5.75 2.1 11.77 2.87 17.73 3.94a69.87 69.87 0 0 0 16.66.47c6.05-.38 12.05-1.51 18.06-2.35a31.15 31.15 0 0 0 4.2-.81 152.8 152.8 0 0 0 20.55-7.46c1.21-.54 2.36-1.2 3.58-1.69a53.63 53.63 0 0 0 14.27-8.16 143.81 143.81 0 0 0 12.59-12.35 74.49 74.49 0 0 0 6.5-8.28c3.22-4.56 6.76-9 9.27-13.94 4-7.82 6-16.37 7.44-25 .75-5.1 1.04-10.24 1.51-15.33zM343.78 201.42c-.48 3.58-1.24 9.41-2 15.23-.63 4.48-.66 8.95 1.07 13.18s3.67 8.3 5.72 12.34c1.06 2.11 2.72 3.91 3.79 6a97.41 97.41 0 0 1 6.56 15.95 60.25 60.25 0 0 1 2.95 18.72c-.06 3.6-.16 7.2-.32 10.8-.06 1.35.32 1.58 1.63 1.24 3.84-1 7.72-1.84 11.59-2.71 2-.45 4.08-.77 6.09-1.27.5-.13 1.23-.73 1.24-1.12a91.27 91.27 0 0 0-.11-10.2 91.25 91.25 0 0 0-1.82-10.07 53.09 53.09 0 0 0-4.43-13.47A101.89 101.89 0 0 0 365.13 239a112.05 112.05 0 0 1-8.78-12.53c-3-4.91-4.37-10.3-5.59-15.72-1.36-6-1.07-12.26-.46-18.43a37.72 37.72 0 0 0-2.36-16.2 17.76 17.76 0 0 0-2.71-5.58c-2.66-3.18-5.67-6.07-8.64-9a21.35 21.35 0 0 0-3.42-2.51c-2.12-1.39-4.28-2.75-6.45-4.08a7.36 7.36 0 0 0-1.5-.51 5.13 5.13 0 0 0 0 1.35 31.15 31.15 0 0 0 7.34 14c3.55 3.77 5.7 8.31 7.87 12.78 2.47 5.13 3.31 10.81 3.35 18.85zm120.41-51.08a29.19 29.19 0 0 0-.44 2.89c-.1 3.41-.14 6.82-.22 10.23-.22 9.63-3.61 18.12-9.26 25.79-.9 1.21-2.14 2.18-3 3.4-5.16 7.12-11.45 13.37-16 20.94a43.35 43.35 0 0 0-2.49 4.78 43.9 43.9 0 0 0-2.26 5.83 26 26 0 0 0-1.3 6.64c-.07 4.08.32 8.16.47 12.24q.24 6.82.39 13.65a26.09 26.09 0 0 1-.08 5.08c-.78 4.37-1.74 8.72-2.7 13.05-.51 2.3-1.52 4.54-1.7 6.86a18.29 18.29 0 0 1-2 6.13 26.43 26.43 0 0 1-1.17 2.6c-.74 1.3 0 1.83 1.07 1.85 4.16.1 8 1.62 11.87 2.75a4.84 4.84 0 0 0 3 .14c.5-.21.47-1.63.68-2.51a2.86 2.86 0 0 1 .07-.28c1.54-5 3.07-10 5.68-14.54a20.93 20.93 0 0 0 2.54-6c1.06-5.27 1.9-10.49 1.43-16a177.57 177.57 0 0 0-3.17-20.77 41.36 41.36 0 0 1 .33-18.3c1.17-4.83 2.81-9.6 6.11-13.6 1.61-1.95 2.59-4.45 4.27-6.32a57.63 57.63 0 0 0 9.44-13.78c1.94-4.07 3.52-8.24 3.58-12.79.12-6.95-2.26-13.3-5.14-19.96zm-43.05 449.53h.35c0 2-.15 4 0 6 .24 2.63.66 5.24 1.12 7.84.35 2 .85 3.88 1.31 5.81 1 4.24 1.85 8.51 3.07 12.68a52 52 0 0 0 6.31 13.33c1.6 2.54 3.41 5 5.24 7.33a11 11 0 0 0 2.33 1.78 15.55 15.55 0 0 0 .23-3c-.51-4.22-.78-8.43-2.62-12.45-2-4.38-3.42-9-5.16-13.54-.55-1.41-1.49-2.66-2-4.08a80.83 80.83 0 0 1-2.79-10.37c-1.21-5.73-.3-11.18 1.28-16.51 1.47-5 3.73-9.71 5.59-14.58 1.68-4.42 4.35-8.48 5.12-13.21.6-3.63 1.32-7.39.94-11a32.51 32.51 0 0 0-3.26-10.51c-4-8.2-7-16.57-6.56-25.85a26.28 26.28 0 0 1 .48-3.64c.24-1.24-.27-1.58-1.37-1.31s-2.17.73-3.29.92q-7.59 1.26-15.18 2.38c-.94.13-1.41.48-1.32 1.43.19 2.16.25 4.35.63 6.48.46 2.6 1.2 5.15 1.8 7.73a29.72 29.72 0 0 0 6.42 12.8c3.23 3.81 5.89 8 6.89 12.92.56 2.77.73 5.62 1 8.43.4 3.66-.54 7.15-1.61 10.56-1.2 3.79-3 7.42-3.88 11.26-.73 3.34-.72 6.9-1.07 10.37zm110.36-9.18l.57-.12c-.93-4.54-1.79-9.08-2.81-13.59-1.61-7.07-5.69-12.78-10.36-18.08-2.94-3.34-6.14-6.46-9.3-9.6a21.1 21.1 0 0 1-4.66-6.74 25 25 0 0 0-1.95-3.13c-2-3.13-4.09-6.17-4.74-9.94-.83-4.75-1.92-9.47-2.49-14.26a54.68 54.68 0 0 0-3.18-14.37 17.36 17.36 0 0 0-1.79-3.45c-2.89-4.09-5.87-8.11-8.79-12.19-.29-.4-.4-.88-1-.33l-5.67 5.56c-1.15 1.12-2.26 2.3-3.51 3.3-1.4 1.12-3 2-4.4 3.11-1.65 1.3-1.62 1.8 0 3.16a32.53 32.53 0 0 1 9.62 14.86 116.4 116.4 0 0 1 4.29 18.23c1.05 6.2 4.65 10.43 9.3 14.07a40.35 40.35 0 0 0 5.7 3.71c3.3 1.79 7.12 2.65 9.82 5.52a2.73 2.73 0 0 0 1.2.74c2.57.75 4.39 2.61 6.31 4.27 1 .86 1.61 2.15 2.63 3a13.38 13.38 0 0 1 4.34 6.55c1.51 4.69 2.93 9.4 4.44 14.1.92 2.87 1.9 5.73 2.89 8.58s2.07 5.87 3.18 8.78c.13.34.68.51 1 .77a2.87 2.87 0 0 0 .35-1c-.11-2.84-.21-5.68-.42-8.52a21.19 21.19 0 0 0-.57-2.99zM333 641.38h-.26c.09 1.13.13 2.27.29 3.39a4.2 4.2 0 0 0 .58 1.16 5.69 5.69 0 0 0 .71-.86 31 31 0 0 0 3.18-12.56c.15-2.64-.25-5.3-.28-7.95-.11-8.32.79-16.46 4.51-24.08a29.75 29.75 0 0 1 6.62-9.15c3.49-3.12 6.52-6.81 10.6-9.25a1.56 1.56 0 0 0 .41-.4c1.84-2.15 3.66-4.33 5.5-6.47 4.68-5.45 6.19-12.07 6.74-18.93.45-5.67.45-11.37.69-17.06a12.74 12.74 0 0 1 .36-2.82c1.61-5.73 2.64-11.64 5.58-16.94 1.05-1.91.72-2.52-1.31-3.07-3.76-1-7.53-2-11.32-2.86a1.46 1.46 0 0 0-1.27.58c-2.07 4.65-4.2 9.29-6 14a21.87 21.87 0 0 0-1.33 11.27 50.27 50.27 0 0 1 .64 12.73c-.18 1.79-.08 3.61-.21 5.4a12.17 12.17 0 0 1-.59 3.31c-1.14 3-2.34 5.94-3.65 8.86-1.67 3.73-3.57 7.32-7.2 9.62a4 4 0 0 0-1.1 1.27c-1.59 2.46-3 5-4.74 7.38a44.52 44.52 0 0 0-7.2 15c-1.43 5.61-2.92 11.21-2.56 17.09.28 4.53-.13 9.09 1.17 13.56a75.18 75.18 0 0 1 1.44 7.78zm223.69-447c-.08-.21-.1-.47-.21-.52a.56.56 0 0 0-.5.13c-1.26 1.53-2.81 2.92-3.69 4.65a65.87 65.87 0 0 0-4.46 12.27 53.49 53.49 0 0 1-4.18 11.18 32.61 32.61 0 0 1-11.84 12.78 26.52 26.52 0 0 1-3.88 2.32 23.28 23.28 0 0 0-12.15 10.66 50.35 50.35 0 0 0-4.83 11.21 63.35 63.35 0 0 1-5.08 12.62c-4 7.73-10.11 13.39-16.88 18.54a75.4 75.4 0 0 0-7.8 6.56c-4 4-7.83 8.25-11.73 12.39-1.88 2-1.87 2 .27 3.43a17.16 17.16 0 0 1 1.71 1.5c2.47 2.22 4.91 4.47 7.42 6.63.37.32 1.46.48 1.57.3a34.82 34.82 0 0 0 2.95-5.12c2.59-6 7.36-10.27 11.92-14.68 3.07-3 6.28-5.8 9.15-9a29.48 29.48 0 0 0 7.46-14.79c.81-4.51 2-8.89 4.67-12.7 1.16-1.62 2.11-3.39 3.27-5a61.19 61.19 0 0 1 5-6.44c2.45-2.61 5.16-5 7.8-7.39a55.33 55.33 0 0 1 5.59-4.82 32.15 32.15 0 0 0 7.23-6.37c2.94-3.7 6.15-7.32 7.28-12.05a101.31 101.31 0 0 0 2.62-19.17c.11-2.63-.28-5.33 1.07-7.81a4.86 4.86 0 0 0 .21-1.32zM510 436.64a12.28 12.28 0 0 0-.71 1.4c-1.22 3.29-2.33 6.62-3.66 9.86-1 2.37-2.19 4.64-3.33 6.94-.4.8-.45 1.16.58 1.67a41.63 41.63 0 0 1 8.77 5.57 83.85 83.85 0 0 1 10 10.78c1.74 2.12 3.35 4.35 5.13 6.44 2.88 3.41 6.23 6 11 6.38 3.12.22 6.24.55 9.33 1.05a91.66 91.66 0 0 1 14.61 3.6 33.67 33.67 0 0 1 11.95 7.46 24.66 24.66 0 0 1 2.63 2.58 73.08 73.08 0 0 1 8.7 13.23 36.85 36.85 0 0 0 3.11 4.71c.14.2.66.14 1 .21 0-.33.09-.76-.08-1a15.49 15.49 0 0 1-2.54-6.17 7.8 7.8 0 0 0-.64-1.89c-2.58-5.16-5.09-10.35-7.81-15.44-2.46-4.59-5.8-8.56-10.5-10.92a84.5 84.5 0 0 0-13.15-5.31c-7.13-2.17-12.15-6.77-16.12-12.76-1.36-2.05-2.21-4.44-3.61-6.45-2.45-3.49-5.09-6.86-7.76-10.18a51.33 51.33 0 0 0-4.49-4.72c-3.22-3.08-7.48-4.39-11.25-6.56a9.21 9.21 0 0 0-1.16-.48zm94-136.94c-6 .31-10.94.62-15.69 2.66a51 51 0 0 0-12.93 8.14 99.16 99.16 0 0 1-14.91 10.81 70 70 0 0 1-6.48 3.51 41.63 41.63 0 0 1-8.52 3 93.25 93.25 0 0 1-13.82 1.65 172.58 172.58 0 0 0-17.75 2.11c-5.34.78-10 3.59-14.84 5.59a18.19 18.19 0 0 0-3.42 2c-.51.36-1 .89-.43 1.68.91 1.3 1.77 2.65 2.61 4 1.4 2.24 2.83 4.47 4.11 6.78 1.1 2 .95 1.94 2.55.54a20.35 20.35 0 0 1 9.41-5c3.16-.62 6.29-1.36 9.45-1.94 3.34-.62 6.7-1.61 10-1.56 4.83.09 9.44-1 14.09-1.74a26.52 26.52 0 0 0 7.57-2.39 35.64 35.64 0 0 0 12.29-10.84c3.14-4.27 6.12-8.65 9.08-13.05a20.72 20.72 0 0 1 5.51-5.22c4.92-3.49 10.72-4.05 16.41-5.05 5-.88 10-1.9 15-2.89.28-.06.5-.47.75-.72a2.87 2.87 0 0 0-.73-.39c-3.43-.6-6.87-1.22-9.38-1.68zm-357.41-78.6c-.12.34-.46.8-.34 1a44.56 44.56 0 0 0 2.74 4.62c2 2.76 5 4.35 7.74 6.15 2.15 1.39 4.65 2.45 6.34 4.27 3.8 4.07 8.35 7.48 11.34 12.29 1.95 3.14 4.2 6.15 5.69 9.5s2.06 7.09 3.3 10.57c2.48 6.92 6.28 12.92 12.51 17.17 5.34 3.64 10.53 7.43 14.14 13 2.43 3.75 4.75 7.54 5.89 11.91.55 2.1.83 4.28 1.42 6.37s.94 2.13 2.57.75c4-3.36 8-6.69 12.68-9.12 1.09-.57 1.3-1.1 1-2.21a40.75 40.75 0 0 0-5.94-11.54c-2.44-3.43-6.07-5.65-9.37-8.16-4.76-3.6-10.15-6.34-14.38-10.64-2.13-2.15-4.19-4.37-6.36-6.47-1.62-1.58-3.46-2.94-5-4.55a69.07 69.07 0 0 1-9.43-11.66c-2.33-3.78-4.89-7.47-6.72-11.49a33.83 33.83 0 0 0-12.27-14.56c-3.19-2.49-7.06-3.61-10.68-5.21a55.78 55.78 0 0 0-6.87-1.99zm363.61 167a28.78 28.78 0 0 0-20.19-.58 57.16 57.16 0 0 1-9.42 2.07 38.66 38.66 0 0 1-15.8-.89c-3.44-1-6.86-2.07-10.26-3.2-1.52-.51-3-1.22-4.45-1.84a48.31 48.31 0 0 0-14.34-3.43c-4.26-.39-8.52-.54-12.73.63-3 .84-6.06 1.52-9.11 2.18-1 .21-1.21.77-1.13 1.62.12 1.32.26 2.64.4 4 .39 3.49.77 7 1.2 10.46 0 .36.46 1 .64 1 2.8-.33 5.81.16 8.25-1.64 4.48-3.32 9.82-3.1 14.93-3.87a3.08 3.08 0 0 1 1.11.16c3.83 1 7.66 1.94 11.48 2.95a12.37 12.37 0 0 1 2.38.89 37.69 37.69 0 0 0 16.66 4.18 31 31 0 0 0 13.81-2.59c5-2.32 9.91-4.68 15-6.72 1.66-.66 3.17-1.68 4.8-2.43 2.06-.98 4.18-1.82 6.77-2.91zM202.61 313a4.46 4.46 0 0 0-.91.07 2.41 2.41 0 0 0-.67.32 3.73 3.73 0 0 0 .52.6 40.81 40.81 0 0 0 14.37 7.18c3.46 1 7 1.87 10.41 2.89a40 40 0 0 1 14.12 7.75 30.28 30.28 0 0 1 6 6.31c3.09 4.67 6.94 8.32 12.14 10.27a42.11 42.11 0 0 0 10.15 2.61 32.92 32.92 0 0 1 13.13 4.25 66.76 66.76 0 0 1 8.47 6.16c1.44 1.18 1.32 1.38 2.2-.34 2.61-5.08 4.59-10.49 7.81-15.26.69-1-.06-1.59-.85-2-2.27-1.19-4.52-2.41-6.85-3.47a35.7 35.7 0 0 0-6.09-2.33 49.36 49.36 0 0 0-14.08-1.59c-3 .13-6 0-9-.17a27.48 27.48 0 0 1-8.32-1.58c-1.83-.67-3.83-.79-5.45-2.12-5.34-4.37-10.95-8.44-16-13.11-4.12-3.8-8.8-5.35-14.14-5.73-3.3-.23-6.56-.67-9.92-.21-2.15.24-4.37-.32-7.04-.5zM340.9 501.5a12.08 12.08 0 0 0-1.26-1.16c-4.12-2.84-8.27-5.64-12.38-8.5-1.77-1.22-1.78-1.28-3.17.29a26.71 26.71 0 0 0-5.93 11.81c-1.75 7.45-5.19 13.65-11.86 17.66A57.66 57.66 0 0 1 296 527c-4.34 1.52-7.84 4.08-11.34 6.85a26.84 26.84 0 0 0-8.39 11.53c-2 5-3.74 10.13-5.64 15.18-.57 1.5-1.28 3-1.87 4.44a5.51 5.51 0 0 0-.19 1.3c.43 0 1 .14 1.28-.09 1.95-1.61 4.17-3.06 5.69-5 2.77-3.59 5-7.63 7.69-11.26 2.26-3 4.45-6.11 7.48-8.53 7.08-5.64 15.15-9.22 23.71-11.84 3.94-1.21 7.82-2.7 10.91-5.38a29.81 29.81 0 0 0 7.52-10.61c1.81-4.07 3.66-8.1 7.18-11.05a8.16 8.16 0 0 0 .87-1.04zm-113.25-1.9v.24c2.08-.13 4.18-.13 6.24-.42 7.36-1 13.19-5.15 18.6-9.81a46.75 46.75 0 0 1 10.21-7.14 51 51 0 0 1 13.46-4.41 70 70 0 0 1 13.54-1 40.72 40.72 0 0 0 14.51-2c3.73-1.29 3.83-1.69 1.51-4.82-3-4-6-8-7.56-12.93a11.92 11.92 0 0 0-.92-1.77c-.32-.62-.62-.85-1.19-.15a22.65 22.65 0 0 1-14.31 9.53c-4.23 1-8.47 2.1-12.77 2.75a18.68 18.68 0 0 0-10.63 5.6c-2.49 2.47-4.63 5.32-7.26 7.62s-6.16 4.14-8.86 6.61c-3.12 2.85-7.06 3.07-10.72 4.13a36.78 36.78 0 0 1-7.59 1c-4.45.3-7.77 2.79-11 5.44a2.87 2.87 0 0 0-.49.9 6.8 6.8 0 0 0 1.06.2zm57.66-92.37a35.25 35.25 0 0 0-.07-6.32c-.61-3.45.05-3.32-3.35-1.86-5.2 2.24-10.65 2.52-16.13 2.58-4.62 0-8.77-2.07-13.06-3.5a17.75 17.75 0 0 0-4.09-1 29.38 29.38 0 0 0-13.26 2.46c-3 1.19-6 2.34-8.95 3.58a38.24 38.24 0 0 1-11.84 2.7c-2.87.22-5.81-.29-8.71-.47a16.34 16.34 0 0 0-1.7-.11c-.23 0-.44.22-.66.34.14.22.22.54.42.66 1.16.64 2.33 1.27 3.53 1.84a31.56 31.56 0 0 0 17.56 3.4 48 48 0 0 0 8.07-1.6c5-1.5 10.05-1.52 15.19-1.36a29 29 0 0 1 13.74 3.37 55.9 55.9 0 0 0 11 4.53 17.26 17.26 0 0 0 11.92-.75 1.55 1.55 0 0 0 .74-1.2c-.08-2.36-.23-4.71-.35-7.29zm118.61-109c-.57 0-1.14-.08-1.71-.07-1.85 0-1.77 0-1.67 1.94.14 2.56.15 5.12.22 7.68 0 1.14-.33 2.56.22 3.33s2 .68 3 1 1.74.73 2.62 1c1.23.45 2.88 1.52 3.62 1.09.95-.57 1.19-2.35 1.72-3.62 1.34-3.24 2.65-6.49 4-9.72.46-1.11.05-1.64-1-1.75-3.66-.2-7.34-.52-11.02-.85zm-7.77 4.6h-.39c.07-.56.15-1.12.2-1.68.22-2.92 0-3.25-3-3.3-1.79 0-3.58.21-5.37.35-2.26.18-4.51.38-6.77.57-1 .09-1.41.5-.8 1.47.25.4.51.79.8 1.17 2.54 3.3 5.12 6.58 6.68 10.49.41 1 1.06 1.17 2 .95a45 45 0 0 1 5-1c1.33-.15 1.77-.65 1.71-2-.14-2.27-.06-4.63-.06-6.99zm20.45 11.66l1.17-.49 15.43-6.37c1.13-.47 2.23-1 3.32-1.56a6.47 6.47 0 0 0 1.1-.87 5.05 5.05 0 0 0-1.18-.69c-4.55-1.22-9.12-2.37-13.66-3.61a1.23 1.23 0 0 0-1.73.88q-2.19 5.52-4.39 11a4.18 4.18 0 0 0-.32 1.08c-.03.25.16.46.26.66zm-35.88-2.18a3.11 3.11 0 0 0 1-.41c.09-.09-.06-.54-.2-.76-2-3.19-4.12-6.35-6.1-9.58a2 2 0 0 0-2.84-.92 27.6 27.6 0 0 1-2.65.91c-3.8 1.2-7.6 2.39-11.39 3.6a2.71 2.71 0 0 0-.67.47 2.77 2.77 0 0 0 .73.53c3.89 1.22 7.76 2.48 11.68 3.57 3.42 1 6.93 1.76 10.44 2.62zm-16.86 4.78l.09-.44c3.29.71 6.62 1.29 9.86 2.18a2.48 2.48 0 0 0 2.93-1 1.05 1.05 0 0 0-.21-1 4.24 4.24 0 0 0-1.33-.43c-5.38-1.46-10.78-2.82-16.11-4.43-4.43-1.33-4.39-1.46-6.63 2.39 0 .08-.11.15-.17.23-.57.85-.17 1.19.68 1.28 1.29.13 2.59.22 3.88.37 2.34.27 4.68.58 7.01.88zm50.71 5.17a14.6 14.6 0 0 0-1.23-1 30.09 30.09 0 0 0-23.76-3.2 39.14 39.14 0 0 0-6.2 2.74.85.85 0 0 0-.22.78 3.44 3.44 0 0 0 4.07.53 14 14 0 0 1 6.83-2.6c6-.77 11.66 0 16.86 3.26.16.1.35.32.48.29.93-.2 1.85-.44 3.17-.77zm113.9 44c-.25-1.49-.43-2.33-.54-3.17a10.34 10.34 0 0 0-11-8.84c-.32 0-.62.37-.93.56a4.31 4.31 0 0 0 .86.63 10.78 10.78 0 0 1 4.61 4.08c2.12 3 2.74 6.37 2.84 9.93 0 .5.2 1.26.54 1.42a1.52 1.52 0 0 0 1.48-.33c.9-1.48 1.6-3.1 2.14-4.23zM465 319.39a11.12 11.12 0 0 0-1-1 90.06 90.06 0 0 0-16.84-10 1.57 1.57 0 0 0-.79-.26 2.3 2.3 0 0 0-1.27.51c-.15.16.08.82.3 1.14 1.26 1.78 2.62 3.48 3.83 5.29a3.67 3.67 0 0 0 2.88 1.55c4.28.48 8.51.8 12.89 2.77zm-20.73-4c-1.53-1.59-2.82-3-4.17-4.28-.15-.14-.7.08-1 .22q-8.82 3.81-17.62 7.66c-.21.1-.33.43-.49.66.3.11.63.38.88.32 2.28-.55 4.53-1.19 6.81-1.75a49.53 49.53 0 0 1 5-1.11c3.17-.48 6.37-.83 9.56-1.26a5.06 5.06 0 0 0 1.07-.49zm62 6.66a16.79 16.79 0 0 0-.74-2.38c-2-4.12-7.73-7.33-12.17-6.84a1.62 1.62 0 0 0-1 .83c-.07.13.38.76.69.85a15.41 15.41 0 0 1 7.64 5.61c1 1.32 1.84 2.85 2.8 4.26.69 1 1.56 1 2.09-.08a13.93 13.93 0 0 0 .77-2.3zm-239 47.32c.22 2.18.73 4.15 2.81 5.28 1.18.64 1.34.5 1.41-.9.22-4.06 1-7.88 4.5-10.55 1-.76.35-.8-.34-1.17a3.78 3.78 0 0 0-3.74.07c-3.04 1.45-4.19 4.1-4.6 7.24zM465.68 529a22.33 22.33 0 0 0 4.33-2c2.15-1.59 2.82-5.1 1.78-7.66a4 4 0 0 0-.6-.79c-.18.22-.44.4-.53.65a8.29 8.29 0 0 1-3.41 3.69c-2.22 1.51-4.49 2.84-7.29 2.87a3.63 3.63 0 0 0-1.19.45c.3.36.52.92.9 1 1.86.66 3.77 1.18 6.01 1.79zm-183.27-72.2a22.93 22.93 0 0 0 2.93-2c.68-.6-.15-.63-.55-.68a8 8 0 0 1-6.6-4.7c-.57-1.18-.93-2.46-1.48-3.64a1.07 1.07 0 0 0-1-.34c-1.17.64-2.42 3.7-2.13 5 .83 3.62 4.35 6.37 8.83 6.4zM411.55 265c-2.49.31-4.74 1.09-6.22 3.13a55.23 55.23 0 0 0-2.91 4.86c-.06.1 0 .39 0 .41a.67.67 0 0 0 .52 0c.46-.34.87-.72 1.31-1.09a9.46 9.46 0 0 1 6.29-2.26 14.79 14.79 0 0 1 6.09 1.17 2.7 2.7 0 0 0 1 0c0-.36.13-.8 0-1.08-.52-.91-1.27-1.69-1.69-2.63-.88-1.91-2.64-2.18-4.39-2.51zm-116.42 52.13a28.53 28.53 0 0 0 .91 2.92c.16.4.65.66 1 1a7.28 7.28 0 0 0 .5-1.15 14.7 14.7 0 0 1 6.13-8.6c.46-.32 1.17-1.1 1.06-1.28a3.21 3.21 0 0 0-1.51-1.47 5.19 5.19 0 0 0-6.19 2.82 44.7 44.7 0 0 0-1.9 5.76zm91.45-47.28c.05.62.06 1 .13 1.37.22 1.19.63 1.37 1.46.52 1.66-1.68 3.63-1.4 5.58-.93 1.18.29 2.28.94 3.45 1.32a1.1 1.1 0 0 0 .91-.55 5.07 5.07 0 0 0-5-5.84 8.63 8.63 0 0 0-6 2.82c-.33.34-.4.98-.53 1.29zM269.67 394a10.84 10.84 0 0 0 1.14 0c1.74-.16 1.9-.53 1-2.11a24.31 24.31 0 0 1-1.64-3c-.91-2.14.11-4 .89-6a3.23 3.23 0 0 0 0-1.2c-.36.06-.8 0-1.06.22-2.43 1.79-4.32 4-4.67 7.12a4.27 4.27 0 0 0 4.34 4.97zm259.91 42.52a5.29 5.29 0 0 0 5.6-6.74 17 17 0 0 0-2.13-4.24c-.19-.33-.75-.45-1.13-.67a4.87 4.87 0 0 0-.41 1.22 12.65 12.65 0 0 1-3.73 8.88 4 4 0 0 0-.59 1.12 6 6 0 0 0 1 .41 8.23 8.23 0 0 0 1.39-.01zM387.87 542.68a6.71 6.71 0 0 0 6-4.48 5 5 0 0 0 0-1.39 4.94 4.94 0 0 0-1.23.2c-3.36 1.41-6.68 2.13-10-.23-.79-.57-1.32 0-1.39.72a3 3 0 0 0 .38 1.82 7.33 7.33 0 0 0 6.24 3.36zm-41.41-10.78a29.6 29.6 0 0 0 4.46-2.3c.54-.4.44-1.68.63-2.56a15.94 15.94 0 0 0-2 .05c-1.12.16-2.21.47-3.33.62a10.27 10.27 0 0 1-7.68-2.24 3.67 3.67 0 0 0-1-.36 2.89 2.89 0 0 0 0 1.09 9.17 9.17 0 0 0 1 2c1.92 2.47 4.81 2.8 7.92 3.7zm-13.35-250.32c-2.87 0-4.08 1-5.17 3.15a3.74 3.74 0 0 0 .82 4.81c1.1 1.12 1.62 1.11 2.21-.38a6.48 6.48 0 0 1 4.17-3.86 8.47 8.47 0 0 0 1.56-1 6.79 6.79 0 0 0-1.33-1.71 12.08 12.08 0 0 0-2.26-1.01zM537 412.43a9 9 0 0 0-5.88-8.52 3.71 3.71 0 0 0-1 0c0 .33 0 .74.16 1 2.86 3.48 3.86 7.3 2.12 11.62-.32.79.06 1 .77 1 2.25-.13 3.97-2.37 3.83-5.1zm-266.75 19.8c.07 3.5 1.65 5.66 4.13 6.12 1 .18 1.56-.05 1.14-1.15-1-2.72-.5-5.39.17-8.06.22-.89.46-1.78.7-2.67-.88.37-1.75.77-2.65 1.12-2.29.91-2.83 3.03-3.46 4.64zm81.25-153.85c1.18.35 1.63 0 1.33-.9a4 4 0 0 0-1.1-1.84 5 5 0 0 0-8 2.05c-.42 1.11-.66 3.11-.07 3.61 1 .82 2.17-.49 3.11-1.26.15-.12.3-.23.44-.36 1.34-1.24 2.71-2.21 4.32-1.3zm96 257.23c.57 0 1.14.09 1.71.07 2-.07 5.14-2.53 5.38-4.4a6.68 6.68 0 0 0-.48-2.11 5.28 5.28 0 0 0-1.74.53c-2.27 1.8-4.61 3.28-7.71 2.89a1 1 0 0 0-.83.51c-.26.88 1 2.48 2 2.54.51 0 1.08-.03 1.65-.03zm24.3-242.18c-.12-2.37-.57-3.41-2-4.7-1.83-1.61-5.54-1.18-6.81.85a1.1 1.1 0 0 0 .38 1 11.78 11.78 0 0 1 6.67 4.52c.22.3.95.62 1.13.49a2.88 2.88 0 0 0 .79-1.29c.04-.3-.13-.59-.18-.87zm-188.26 36l.31.1v1.7c.09 1.43 1.05 1.53 2.21 1.52s1.26-.61 1.23-1.63a9.08 9.08 0 0 1 2.16-5.67 14.45 14.45 0 0 1 1.21-1.27 9.74 9.74 0 0 0-1.86-.52 3.73 3.73 0 0 0-4 2.13 37.47 37.47 0 0 0-1.28 3.62zm118.63 209.91l-.12-.34a3.5 3.5 0 0 0-.82-.2 4.94 4.94 0 0 0-1 .19c.13.33.16.8.4 1 1.85 1.46 3.68 3 6.12 3.35 2 .29 3-.89 2.35-2.75a14.11 14.11 0 0 1-.63-2.17c-.19-1.19-.7-1-1.56-.63-1.54.62-3.16 1.05-4.74 1.55zm50.9-260.43c-2.07-.21-1.47 1.64-2 2.55-.72 1.26.66 1.49 1.29 1.56a7.42 7.42 0 0 1 3.93 2c1.31 1.08 1.87.82 2.18-.9a3.89 3.89 0 0 0-.07-1.63c-.64-2.38-2.46-3.55-5.33-3.58zm48.05 213.91a5.17 5.17 0 0 0 4.14-2.07 4.19 4.19 0 0 0 .23-4.95c-.68-.81-1.14-1-1.87.1a55 55 0 0 1-3.8 4.84 11.93 11.93 0 0 1-1.68 1.37c.81.23 1.61.48 2.42.7a2.1 2.1 0 0 0 .56.01zM306 497.24c-.2.66-.61 1.27-.45 1.61a27 27 0 0 0 2.75 5.15c1.13 1.47 2.24 1.24 3.41-.33a17.56 17.56 0 0 0 1.32-2.16c.5-.92.25-1.35-.86-1.36a7.36 7.36 0 0 1-5.09-2.07c-.27-.24-.57-.45-1.08-.84zm209.28-21c-.28-.52-.76-1.5-1.33-2.44-.16-.28-.55-.42-.83-.62a3.4 3.4 0 0 0-.55.92 8.25 8.25 0 0 1-3.13 5.17c-1 .77-.8 1.25.44 1.66 2.59.88 5.45-1.3 5.42-4.65zm-215.41 16.97l1.22-.47a6 6 0 0 0-.76-1.19c-1.44-1.43-3.45-2.32-4.18-4.44a4.87 4.87 0 0 0-.76-1.09c-.37.4-.88.73-1.06 1.2a2.7 2.7 0 0 0 0 1.59c.82 2.82 2.32 4.06 5.54 4.4zm-25.59-33.81a3.12 3.12 0 0 0-.5-.14c-.06 0-.14.1-.21.16a3.12 3.12 0 0 0 .5.14c.06.01.14-.1.21-.16zM169.16 282.07l-1.43.7a3.86 3.86 0 0 1-.23-.51c.45-.31.92-.57 1.39-.84z"/><path class="a" d="M500.47 409.77c-.51 5.09-.76 10.23-1.57 15.27-1.4 8.64-3.46 17.19-7.44 25-2.51 4.94-6 9.38-9.27 13.94a74.49 74.49 0 0 1-6.5 8.28 143.81 143.81 0 0 1-12.59 12.35 53.63 53.63 0 0 1-14.27 8.16c-1.22.49-2.37 1.15-3.58 1.69a152.8 152.8 0 0 1-20.55 7.46 31.15 31.15 0 0 1-4.2.81c-6 .84-12 2-18.06 2.35a69.87 69.87 0 0 1-16.66-.47c-6-1.07-12-1.84-17.73-3.94-3.56-1.31-7.27-2.18-10.83-3.48a33.33 33.33 0 0 1-6.63-3.23c-5.87-3.77-11.83-7.45-17.35-11.7a54.91 54.91 0 0 1-13.09-13.75c-3.88-6-8-11.95-11.95-18a24.05 24.05 0 0 1-1.76-4.16c-1.32-3.25-2.7-6.48-3.95-9.76-2.56-6.74-3.2-13.85-3.69-20.95-.31-4.44-.35-8.91-.38-13.36a39.62 39.62 0 0 1 .46-5.65c.94-6.87 2-13.75 4.22-20.32s5-13.28 7.56-19.93c2.37-6.26 6.51-11.49 10-17.07 1.86-2.95 4.39-5.46 6.52-8.25a7.4 7.4 0 0 1 3.68-2.52c3.95-1.3 7.86-2.78 12-3.31 4-.5 7.89-1.12 11.85-1.38a75.78 75.78 0 0 1 16.13.69 48.87 48.87 0 0 1 11.24 2.82c4.4 1.75 8.71 3.75 13 5.72a6.08 6.08 0 0 1 1.62 1.55c1.31 1.43 2.1 1.67 3.68.57 4.2-2.94 9.05-4.31 13.87-5.65 6.64-1.86 13.34-3.52 20.27-3.93a132.12 132.12 0 0 1 14.49-.13 60.55 60.55 0 0 1 18.75 4.18 5.09 5.09 0 0 1 2.09 1.34c3.82 4.72 7.63 9.44 11.29 14.28a48.28 48.28 0 0 1 3.37 5.91c1.1 2 2.3 3.93 3.21 6 2.36 5.38 4.91 10.71 6.79 16.26a114.36 114.36 0 0 1 4.57 18.18 82.7 82.7 0 0 1 1.39 18.13zm-59.82-65.25l-7.44 1.35c-.28.05-.57.05-.85.1-4.86.82-9.72 1.63-14.57 2.47a3.76 3.76 0 0 0-1.32.52 44.93 44.93 0 0 1-10.58 4.71 7.28 7.28 0 0 0-4.7 4.57 23.09 23.09 0 0 0-1.21 12c.59 4.44 2.87 8.17 5.37 11.77a20.66 20.66 0 0 0 2.17 3c1.86 1.87 3.9 3.55 5.77 5.41a5.6 5.6 0 0 1 1.43 2.41c.58 2.18 1 4.42 1.41 6.65.93 5.32 1.73 10.69 4.5 15.45a61.44 61.44 0 0 0 4.54 6.84c1.72 2.24 3.83 4.2 5.57 6.43 1.91 2.47 3.44 5.24 5.43 7.62a14.51 14.51 0 0 1 2.75 5.2 3.53 3.53 0 0 1-.85 3.93c-1.23 1.18-2.5 1-3.95.58a27.35 27.35 0 0 1-9.59-5.47 48.26 48.26 0 0 0-4.43-3.53 77.6 77.6 0 0 0-8.71-5.38c-5.17-2.52-9.84-1.35-14.22 2.38a5.12 5.12 0 0 0-1.7 4.05c-.12 6.23 7.31 9 11.83 7.07a11.74 11.74 0 0 0 5.4-4.48c.69-1.08 1-.8 1.9-.25 3.28 2 5.29 5.13 7.63 7.95 4.48 5.41 9.83 8.19 17 6.61 4.15-.91 7.9-5.39 8.63-9.58.69-4-1-7.5-1.85-11.08-.66-2.68-2.83-5.1-4.65-7.38a49.16 49.16 0 0 0-6.64-7.37c-2.3-1.93-4.1-4.45-6.13-6.71-3.35-3.73-6.06-7.71-6.42-13-.25-3.7-1.08-7.28-3.57-10.25-1.1-1.31-2-2.82-3.11-4.06-3-3.28-6-6.65-6.8-11.17-.5-2.84-.23-5.83-.27-8.76a1.2 1.2 0 0 1 .32-.77c1.52-1.69 2.8-3.79 4.67-4.92 3.9-2.38 7.86-4.69 12.73-5.06 6.14-.46 12.25-1.28 18.41-.32a67.37 67.37 0 0 0 7.56 1.06 50.85 50.85 0 0 1 14.89 3.28c4.36 1.55 8.69 3.21 13 4.85 1.33.51 2.58 1.22 3.92 1.64a6.33 6.33 0 0 0 2.15-.11 5.87 5.87 0 0 0-.84-1.9c-2.14-2.12-4.13-4.38-7-5.68-2.66-1.2-5.11-2.87-7.79-4-3.9-1.68-8-2.86-11.86-4.65-5.66-2.69-11.66-3.54-17.93-4.02zm-17.53 136.24c-.46-1.66.37-2.34 1.78-3 2-1 3.9-1.8 6.18-1.37a5.56 5.56 0 0 0 2-.18c1.16-.24 2-.46 1.57 1.38s.72 2.56 2.56 2.24a3.51 3.51 0 0 0 2.66-1.9c1.93-3.61.26-9.55-3.31-11.52-1-.58-2.14-1-3.18-.13a3 3 0 0 0-1 3.06c.42 2 0 2.51-2 2.19a6.06 6.06 0 0 1-1.89-.61c-3.18-1.67-6.45-3.22-9.5-5.11a13.78 13.78 0 0 0-13-1.12 7.75 7.75 0 0 1-6.57-.35c-6.21-3.06-12.55-1.91-18.44.5-3.5 1.43-7.29 2.56-10.4 5-1 .84-2.61 1-3.95 1.52-.66.24-1.06.08-1.19-.69a6.39 6.39 0 0 0-.54-1.9 2.33 2.33 0 0 0-2.9-1.1 8.76 8.76 0 0 0-5.12 9.25 7.08 7.08 0 0 0 3.23 4.84 3.2 3.2 0 0 0 3.95-.41c1-1.22.56-2.26-.47-3.23-.23-.21-.26-.65-.38-1a5.11 5.11 0 0 1 1.25-.32c1.61 0 3.29.4 4.81.07a7.55 7.55 0 0 1 6.9 1.45 2.89 2.89 0 0 1 1.29 2.15 15.88 15.88 0 0 0 2 5.52c1.16 2 3.32 3.45 3.52 6 0 .32.44.6.64.92 1.74 2.9 7.5 3.58 10.15 2.57 2.47-.94 5-1.78 7.39-2.87a4.61 4.61 0 0 1 3.53-.16 70.69 70.69 0 0 0 8 2c3.32.58 5.93-.87 7.68-3.65 1.85-3.02 3.69-6.17 2.75-10.04zm-103.34-85.59c0-1.61.08-3.23 0-4.82a1.86 1.86 0 0 0-1-1.39c-1-.26-3.22 1.06-3.67 2.09-2.39 5.44-5.12 10.76-5.52 16.87a33.25 33.25 0 0 1-.81 3.6 73.36 73.36 0 0 0-1.42 8.66c-.17 3 .27 6.05.36 9.09a39 39 0 0 0 4.48 16.85 8.25 8.25 0 0 0 5.93 4.8 5.14 5.14 0 0 1 1.55.7 3.06 3.06 0 0 0 3 .06 8.57 8.57 0 0 1 2.16-.66 12.46 12.46 0 0 0 6.82-3.85c1.9-1.95 3.48-4.22 3.55-7.24a19 19 0 0 0-2.7-10c-3-5.36-6.38-10.51-8.72-16.27a50.13 50.13 0 0 1-4.01-18.49zm34.94-9.17c-.11-1.21-.18-2.06-.25-2.92s.16-1.28 1-1.38a34.61 34.61 0 0 0 9.66-2.27c.93-.39 1.49.12 1.68 1a50 50 0 0 1 .94 5c.18 1.49 0 3 .23 4.51a2.06 2.06 0 0 0 1.08 1.46 2.2 2.2 0 0 0 1.67-.59 4 4 0 0 0 1.69-3.44 70.32 70.32 0 0 0-.86-8.73c-.36-1.69-.22-2.68 1.21-3.55a28.4 28.4 0 0 0 3.3-2.22 3 3 0 0 0 .75-3.85c-.72-1.21-1.6-1.38-3.45-.44-1.34.69-2.49 1.83-3.89 2.3-4.3 1.45-8.66 2.77-13.05 3.94a24.56 24.56 0 0 1-5.92.74c-7.34.11-14.45-1.55-21.61-2.87-1.09-.2-2.11-.54-2.75.62-.72 1.33.19 2.21 1.15 2.84a40.76 40.76 0 0 0 4.4 2.53c2.33 1.14 2.9 2.16 2.21 4.78-.45 1.73-1.15 3.4-1.6 5.14a13.72 13.72 0 0 0-.54 3.91c.07 1.31 1.78 2.11 2.48 1.26a13.67 13.67 0 0 0 2.68-4.25A31.38 31.38 0 0 0 338 383c.15-1.5.77-1.84 2.22-1.69 2.53.25 5.09.28 7.63.35a2 2 0 0 1 2.2 2.08c.17 2.84.31 5.68-.66 8.45a4.12 4.12 0 0 0-.32 2.18c.19.72.79 1.73 1.36 1.84a2.4 2.4 0 0 0 2-1.09c1.43-3 3.04-6 2.29-9.12zm38.5-30.28a6.53 6.53 0 0 0-3.58-4.29c-2.65-1.22-5.44-2.19-8-3.62-3.34-1.88-7-2.3-10.63-2.8a60.24 60.24 0 0 0-16.75.26c-5 .74-10 2.22-15 3.38a7.33 7.33 0 0 0-1 .46c-1.66.68-3.3 1.43-5 2a45.87 45.87 0 0 0-8.62 3.55c-1.68 1-3.63 1.59-5.39 2.49a24.69 24.69 0 0 0-3.78 2.37c-.82.64-1.55 1.57-.74 2.7a2.07 2.07 0 0 0 2.79.57 61.29 61.29 0 0 1 6.31-2.44c5.36-1.57 10.74-3.07 16.16-4.44 4.11-1 8.27-2 12.45-2.71a70.16 70.16 0 0 1 11.9-1.2c4.63 0 9.25.73 13.87 1.21.92.09 1.87.82 2.69.66 2.7-.54 4.49 1.17 6.53 2.27a27.54 27.54 0 0 0 2.67 1.62 2.21 2.21 0 0 0 3.12-2.08zm36.62 24.65a44.64 44.64 0 0 1-1 5c-.45 1.66-.1 3.07 1.16 3.69 1.06.52 1.9.1 2.84-1.61 1.34-2.44 2.4-5 1.8-7.85-.3-1.45.46-1.56 1.57-1.45 2.45.25 4.91.5 7.36.66s3.43.78 3.71 3.32a15.18 15.18 0 0 1-.81 7.85 3.86 3.86 0 0 0-.24 2.41 1.62 1.62 0 0 0 2.87.67c1.78-2.45 3.68-4.9 3.13-8.27-.25-1.49-.34-3-.54-4.51-.12-.93-.09-1.69 1-2 1.55-.41 3.07-.9 4.6-1.37 2.16-.65 2.46-.52 2.64 1.81s.07 4.53.27 6.78a3.06 3.06 0 0 0 1.15 2c.89.58 1.52-.2 2.05-.95a8.56 8.56 0 0 0 1.81-6.14 24.34 24.34 0 0 0-.94-4.14c-.44-1.39-.34-2.36 1.17-3a6.48 6.48 0 0 0 2.06-1.47c1.18-1.18 1.48-2.76.8-3.57s-2.63-.92-4-.08c-.24.15-.42.41-.67.53a17.5 17.5 0 0 1-3.58 1.65c-6 1.4-12 2.74-18.25 2.07-3.11-.34-6.25-.44-9.34-.93-2.76-.43-5.45-1.25-8.18-1.88a2.4 2.4 0 0 0-1.39-.08c-.43.21-1 .84-1 1.14.34 1.46.55 3.08 2.06 3.89a13.68 13.68 0 0 0 3.88 1.68c1.42.26 1.66 1 1.74 2.13a9.28 9.28 0 0 1 .27 1.98zm-32.1 74.15c-.43 3 1.4 5.12 3.7 6.7 1 .7 2.6 1.66 3.92.5s.56-2.41-.07-3.62c-.09-.16-.12-.35-.2-.53-1.17-2.54-2.08-5-.38-7.79.65-1.05.1-2.23-1-2.95a1.88 1.88 0 0 0-2.54.5c-1.94 1.91-3.82 3.92-3.43 7.15z"/><path class="b" d="M343.78 201.42c0-8-.88-13.72-3.39-18.88-2.17-4.47-4.32-9-7.87-12.78a31.15 31.15 0 0 1-7.34-14 5.13 5.13 0 0 1 0-1.35 7.36 7.36 0 0 1 1.5.51c2.17 1.33 4.33 2.69 6.45 4.08a21.35 21.35 0 0 1 3.42 2.51c3 2.92 6 5.81 8.64 9a17.76 17.76 0 0 1 2.71 5.58 37.72 37.72 0 0 1 2.36 16.2c-.61 6.17-.9 12.38.46 18.43 1.22 5.42 2.64 10.81 5.59 15.72a112.05 112.05 0 0 0 8.82 12.56 101.89 101.89 0 0 1 10.57 17.07 53.09 53.09 0 0 1 4.43 13.47 91.25 91.25 0 0 1 1.87 10.05 91.27 91.27 0 0 1 .11 10.2c0 .39-.74 1-1.24 1.12-2 .5-4.06.82-6.09 1.27-3.87.87-7.75 1.72-11.59 2.71-1.31.34-1.69.11-1.63-1.24.16-3.6.26-7.2.32-10.8a60.25 60.25 0 0 0-2.95-18.72 97.41 97.41 0 0 0-6.56-15.95c-1.07-2.1-2.73-3.9-3.79-6-2-4-4-8.14-5.72-12.34s-1.7-8.7-1.07-13.18c.75-5.83 1.51-11.66 1.99-15.24zm120.41-51.08c2.88 6.67 5.26 13 5.17 19.94-.06 4.55-1.64 8.72-3.58 12.79a57.63 57.63 0 0 1-9.44 13.78c-1.68 1.87-2.66 4.37-4.27 6.32-3.3 4-4.94 8.77-6.11 13.6a41.36 41.36 0 0 0-.33 18.3 177.57 177.57 0 0 1 3.17 20.77c.47 5.55-.37 10.77-1.43 16a20.93 20.93 0 0 1-2.54 6c-2.61 4.58-4.14 9.56-5.68 14.54a2.86 2.86 0 0 0-.07.28c-.21.88-.18 2.3-.68 2.51a4.84 4.84 0 0 1-3-.14c-3.91-1.13-7.71-2.65-11.87-2.75-1.1 0-1.81-.55-1.07-1.85a26.43 26.43 0 0 0 1.17-2.6 18.29 18.29 0 0 0 2-6.13c.18-2.32 1.19-4.56 1.7-6.86 1-4.33 1.92-8.68 2.7-13.05a26.09 26.09 0 0 0 .08-5.08q-.15-6.83-.39-13.65c-.15-4.08-.54-8.16-.47-12.24a26 26 0 0 1 1.3-6.64 43.9 43.9 0 0 1 2.26-5.83 43.35 43.35 0 0 1 2.49-4.78c4.56-7.57 10.85-13.82 16-20.94.89-1.22 2.13-2.19 3-3.4 5.65-7.67 9-16.16 9.26-25.79.08-3.41.12-6.82.22-10.23a29.19 29.19 0 0 1 .41-2.87zm-43.05 449.53c.35-3.47.34-7 1.15-10.39.92-3.84 2.68-7.47 3.88-11.26 1.07-3.41 2-6.9 1.61-10.56-.31-2.81-.48-5.66-1-8.43-1-5-3.66-9.11-6.89-12.92a29.72 29.72 0 0 1-6.42-12.8c-.6-2.58-1.34-5.13-1.8-7.73-.38-2.13-.44-4.32-.63-6.48-.09-.95.38-1.3 1.32-1.43q7.59-1.12 15.18-2.38c1.12-.19 2.19-.64 3.29-.92s1.61.07 1.37 1.31a26.28 26.28 0 0 0-.48 3.64c-.43 9.28 2.54 17.65 6.56 25.85a32.51 32.51 0 0 1 3.26 10.51c.38 3.59-.34 7.35-.94 11-.77 4.73-3.44 8.79-5.12 13.21-1.86 4.87-4.12 9.61-5.59 14.58-1.58 5.33-2.49 10.78-1.28 16.51a80.83 80.83 0 0 0 2.79 10.37c.5 1.42 1.44 2.67 2 4.08 1.74 4.5 3.14 9.16 5.16 13.54 1.84 4 2.11 8.23 2.62 12.45a15.55 15.55 0 0 1-.23 3 11 11 0 0 1-2.33-1.78c-1.83-2.38-3.64-4.79-5.24-7.33a52 52 0 0 1-6.38-13.33c-1.2-4.18-2-8.44-3-12.68-.46-1.93-1-3.85-1.31-5.81-.46-2.6-.88-5.21-1.12-7.84-.18-2 0-4 0-6zm110.36-9.18a21.19 21.19 0 0 1 .66 3c.21 2.84.31 5.68.42 8.52a2.87 2.87 0 0 1-.35 1c-.36-.26-.91-.43-1-.77-1.11-2.91-2.16-5.84-3.18-8.78s-2-5.71-2.89-8.58c-1.51-4.7-2.93-9.41-4.44-14.1a13.38 13.38 0 0 0-4.34-6.55c-1-.82-1.64-2.11-2.63-3-1.92-1.66-3.74-3.52-6.31-4.27a2.73 2.73 0 0 1-1.2-.74c-2.7-2.87-6.52-3.73-9.82-5.52a40.35 40.35 0 0 1-5.7-3.71c-4.65-3.64-8.25-7.87-9.3-14.07a116.4 116.4 0 0 0-4.29-18.23 32.53 32.53 0 0 0-9.66-14.89c-1.63-1.36-1.66-1.86 0-3.16 1.4-1.12 3-2 4.4-3.11 1.25-1 2.36-2.18 3.51-3.3l5.67-5.56c.56-.55.67-.07 1 .33 2.92 4.08 5.9 8.1 8.79 12.19a17.36 17.36 0 0 1 1.79 3.45 54.68 54.68 0 0 1 3.18 14.37c.57 4.79 1.66 9.51 2.49 14.26.65 3.77 2.77 6.81 4.74 9.94a25 25 0 0 1 1.95 3.13 21.1 21.1 0 0 0 4.66 6.74c3.16 3.14 6.36 6.26 9.3 9.6 4.67 5.3 8.75 11 10.36 18.08 1 4.51 1.88 9 2.81 13.59zM333 641.38a75.18 75.18 0 0 0-1.42-7.79c-1.3-4.47-.89-9-1.17-13.56-.36-5.88 1.13-11.48 2.56-17.09a44.52 44.52 0 0 1 7.2-15c1.7-2.37 3.15-4.92 4.74-7.38a4 4 0 0 1 1.1-1.27c3.63-2.3 5.53-5.89 7.2-9.62 1.31-2.92 2.51-5.88 3.65-8.86a12.17 12.17 0 0 0 .59-3.31c.13-1.79 0-3.61.21-5.4a50.27 50.27 0 0 0-.64-12.73 21.87 21.87 0 0 1 1.27-11.19c1.84-4.75 4-9.39 6-14a1.46 1.46 0 0 1 1.27-.58c3.79.9 7.56 1.84 11.32 2.86 2 .55 2.36 1.16 1.31 3.07-2.94 5.3-4 11.21-5.58 16.94a12.74 12.74 0 0 0-.36 2.82c-.24 5.69-.24 11.39-.69 17.06-.55 6.86-2.06 13.48-6.74 18.93-1.84 2.14-3.66 4.32-5.5 6.47a1.56 1.56 0 0 1-.41.4c-4.08 2.44-7.11 6.13-10.6 9.25a29.75 29.75 0 0 0-6.62 9.15c-3.72 7.62-4.62 15.76-4.51 24.08 0 2.65.43 5.31.28 7.95a31 31 0 0 1-3.18 12.56 5.69 5.69 0 0 1-.71.86 4.2 4.2 0 0 1-.58-1.16c-.16-1.12-.2-2.26-.29-3.39zm223.65-447.01a4.86 4.86 0 0 1-.29 1.35c-1.35 2.48-1 5.18-1.07 7.81a101.31 101.31 0 0 1-2.62 19.17c-1.13 4.73-4.34 8.35-7.28 12.05a32.15 32.15 0 0 1-7.23 6.37 55.33 55.33 0 0 0-5.59 4.82c-2.64 2.42-5.35 4.78-7.8 7.39a61.19 61.19 0 0 0-5 6.44c-1.16 1.62-2.11 3.39-3.27 5-2.72 3.81-3.86 8.19-4.67 12.7a29.48 29.48 0 0 1-7.46 14.79c-2.87 3.15-6.08 6-9.15 9-4.56 4.41-9.33 8.64-11.92 14.68a34.82 34.82 0 0 1-2.95 5.12c-.11.18-1.2 0-1.57-.3-2.51-2.16-4.95-4.41-7.42-6.63a17.16 17.16 0 0 0-1.71-1.5c-2.14-1.47-2.15-1.44-.27-3.43 3.9-4.14 7.7-8.39 11.73-12.39a75.4 75.4 0 0 1 7.8-6.56c6.77-5.15 12.84-10.81 16.88-18.54a63.35 63.35 0 0 0 5.08-12.62 50.35 50.35 0 0 1 4.83-11.21 23.28 23.28 0 0 1 12.15-10.66 26.52 26.52 0 0 0 3.88-2.32 32.61 32.61 0 0 0 11.84-12.78 53.49 53.49 0 0 0 4.18-11.18 65.87 65.87 0 0 1 4.46-12.27c.88-1.73 2.43-3.12 3.69-4.65a.56.56 0 0 1 .5-.13c.15.01.17.27.25.48zM510 436.64a9.21 9.21 0 0 1 1.22.51c3.77 2.17 8 3.48 11.25 6.56a51.33 51.33 0 0 1 4.49 4.72c2.67 3.32 5.31 6.69 7.76 10.18 1.4 2 2.25 4.4 3.61 6.45 4 6 9 10.59 16.12 12.76a84.5 84.5 0 0 1 13.15 5.31c4.7 2.36 8 6.33 10.5 10.92 2.72 5.09 5.23 10.28 7.81 15.44a7.8 7.8 0 0 1 .64 1.89 15.49 15.49 0 0 0 2.54 6.17c.17.21.06.64.08 1-.34-.07-.86 0-1-.21a36.85 36.85 0 0 1-3.17-4.74 73.08 73.08 0 0 0-8.75-13.23 24.66 24.66 0 0 0-2.63-2.58 33.67 33.67 0 0 0-11.95-7.46 91.66 91.66 0 0 0-14.61-3.6c-3.09-.5-6.21-.83-9.33-1.05-4.73-.35-8.08-3-11-6.38-1.78-2.09-3.39-4.32-5.13-6.44a83.85 83.85 0 0 0-10-10.78 41.63 41.63 0 0 0-8.77-5.57c-1-.51-1-.87-.58-1.67 1.14-2.3 2.36-4.57 3.33-6.94 1.33-3.24 2.44-6.57 3.66-9.86a12.28 12.28 0 0 1 .76-1.4zm93.93-136.94c2.51.46 6 1.08 9.39 1.73a2.87 2.87 0 0 1 .73.39c-.25.25-.47.66-.75.72-5 1-10 2-15 2.89-5.69 1-11.49 1.56-16.41 5.05a20.72 20.72 0 0 0-5.51 5.22c-3 4.4-5.94 8.78-9.08 13.05a35.64 35.64 0 0 1-12.3 10.84 26.52 26.52 0 0 1-7.6 2.41c-4.65.79-9.26 1.83-14.09 1.74-3.34-.05-6.7.94-10 1.56-3.16.58-6.29 1.32-9.45 1.94a20.35 20.35 0 0 0-9.41 5c-1.6 1.4-1.45 1.44-2.55-.54-1.28-2.31-2.71-4.54-4.11-6.78-.84-1.35-1.7-2.7-2.61-4-.56-.79-.08-1.32.43-1.68a18.19 18.19 0 0 1 3.42-2c4.89-2 9.5-4.81 14.84-5.59a172.58 172.58 0 0 1 17.75-2.11 93.25 93.25 0 0 0 13.82-1.65 41.63 41.63 0 0 0 8.52-3 70 70 0 0 0 6.48-3.51 99.16 99.16 0 0 0 14.91-10.81 51 51 0 0 1 12.93-8.14c4.72-2.11 9.64-2.43 15.65-2.73zm-357.34-78.6a55.78 55.78 0 0 1 6.79 2c3.62 1.6 7.49 2.72 10.68 5.21a33.83 33.83 0 0 1 12.27 14.56c1.83 4 4.39 7.71 6.72 11.49a69.07 69.07 0 0 0 9.43 11.64c1.58 1.61 3.42 3 5 4.55 2.17 2.1 4.23 4.32 6.36 6.47 4.23 4.3 9.62 7 14.38 10.64 3.3 2.51 6.93 4.73 9.37 8.16a40.75 40.75 0 0 1 5.94 11.54c.34 1.11.13 1.64-1 2.21-4.65 2.43-8.68 5.76-12.68 9.12-1.63 1.38-2 1.37-2.57-.75s-.87-4.27-1.42-6.37c-1.14-4.37-3.46-8.16-5.89-11.91-3.61-5.58-8.8-9.37-14.14-13-6.23-4.25-10-10.25-12.51-17.17-1.24-3.48-1.8-7.23-3.3-10.57s-3.74-6.36-5.69-9.5c-3-4.81-7.54-8.22-11.34-12.29-1.69-1.82-4.19-2.88-6.34-4.27-2.78-1.8-5.75-3.39-7.74-6.15a44.56 44.56 0 0 1-2.74-4.62c-.04-.19.3-.65.42-.99zM610.2 388.14c-2.59 1.09-4.71 1.93-6.77 2.87-1.63.75-3.14 1.77-4.8 2.43-5.09 2-10 4.4-15 6.72a31 31 0 0 1-13.81 2.59 37.69 37.69 0 0 1-16.66-4.18 12.37 12.37 0 0 0-2.38-.89c-3.82-1-7.65-2-11.48-2.95a3.08 3.08 0 0 0-1.11-.16c-5.11.77-10.45.55-14.93 3.87-2.44 1.8-5.45 1.31-8.25 1.64-.18 0-.6-.6-.64-1-.43-3.48-.81-7-1.2-10.46-.14-1.32-.28-2.64-.4-4-.08-.85.13-1.41 1.13-1.62 3.05-.66 6.11-1.34 9.11-2.18 4.21-1.17 8.47-1 12.73-.63a48.31 48.31 0 0 1 14.34 3.43c1.48.62 2.93 1.33 4.45 1.84 3.4 1.13 6.82 2.21 10.26 3.2a38.66 38.66 0 0 0 15.8.89 57.16 57.16 0 0 0 9.42-2.07 28.78 28.78 0 0 1 20.19.66zM202.61 313c2.67.22 4.89.78 7 .49 3.36-.46 6.62 0 9.92.21 5.34.38 10 1.93 14.14 5.73 5.06 4.67 10.67 8.74 16 13.11 1.62 1.33 3.62 1.45 5.45 2.12a27.48 27.48 0 0 0 8.32 1.58c3 .15 6 .3 9 .17a49.36 49.36 0 0 1 14.12 1.59 35.7 35.7 0 0 1 6.09 2.33c2.33 1.06 4.58 2.28 6.85 3.47.79.42 1.54 1 .85 2-3.22 4.77-5.2 10.18-7.81 15.26-.88 1.72-.76 1.52-2.2.34a66.76 66.76 0 0 0-8.47-6.16 32.92 32.92 0 0 0-13.13-4.24 42.11 42.11 0 0 1-10.12-2.61c-5.2-2-9.05-5.6-12.14-10.27a30.28 30.28 0 0 0-6-6.31 40 40 0 0 0-14.15-7.81c-3.45-1-7-1.89-10.41-2.89a40.81 40.81 0 0 1-14.37-7.11 3.73 3.73 0 0 1-.52-.6 2.41 2.41 0 0 1 .67-.32 4.46 4.46 0 0 1 .91-.08zM340.9 501.5a8.16 8.16 0 0 1-.84 1c-3.52 3-5.37 7-7.18 11.05a29.81 29.81 0 0 1-7.52 10.61c-3.09 2.68-7 4.17-10.91 5.38-8.56 2.62-16.63 6.2-23.71 11.84-3 2.42-5.22 5.51-7.48 8.53-2.72 3.63-4.92 7.67-7.69 11.26-1.52 2-3.74 3.42-5.69 5-.27.23-.85.07-1.28.09a5.51 5.51 0 0 1 .19-1.3c.59-1.49 1.3-2.94 1.87-4.44 1.9-5 3.68-10.15 5.64-15.18a26.84 26.84 0 0 1 8.39-11.53c3.5-2.77 7-5.33 11.34-6.85a57.66 57.66 0 0 0 10.27-5.35c6.67-4 10.11-10.21 11.86-17.66a26.71 26.71 0 0 1 5.93-11.81c1.39-1.57 1.4-1.51 3.17-.29 4.11 2.86 8.26 5.66 12.38 8.5a12.08 12.08 0 0 1 1.26 1.15zm-113.25-1.9l-14.21-.42a6.8 6.8 0 0 1-1.06-.2 2.87 2.87 0 0 1 .49-.9c3.27-2.65 6.59-5.14 11-5.44a36.78 36.78 0 0 0 7.59-1c3.66-1.06 7.6-1.28 10.72-4.13 2.7-2.47 6.09-4.19 8.86-6.61s4.77-5.15 7.26-7.62a18.68 18.68 0 0 1 10.63-5.6c4.3-.65 8.54-1.71 12.77-2.75a22.65 22.65 0 0 0 14.31-9.53c.57-.7.87-.47 1.19.15a11.92 11.92 0 0 1 .92 1.77c1.52 4.9 4.58 8.9 7.56 12.93 2.32 3.13 2.22 3.53-1.51 4.82a40.72 40.72 0 0 1-14.51 2 70 70 0 0 0-13.54 1 51 51 0 0 0-13.46 4.41 46.75 46.75 0 0 0-10.21 7.14c-5.41 4.66-11.24 8.78-18.6 9.81-2.06.29-4.16.29-6.24.42zm57.66-92.37c.12 2.58.27 4.93.3 7.29a1.55 1.55 0 0 1-.74 1.2 17.26 17.26 0 0 1-11.92.75 55.9 55.9 0 0 1-11-4.53 29 29 0 0 0-13.66-3.37c-5.14-.16-10.19-.14-15.19 1.36a48 48 0 0 1-8.07 1.6 31.56 31.56 0 0 1-17.59-3.36c-1.2-.57-2.37-1.2-3.53-1.84-.2-.12-.28-.44-.42-.66.22-.12.43-.34.66-.34a16.34 16.34 0 0 1 1.7.11c2.9.18 5.84.69 8.71.47a38.24 38.24 0 0 0 11.84-2.7c3-1.24 6-2.39 8.95-3.58a29.38 29.38 0 0 1 13.26-2.46 17.75 17.75 0 0 1 4.09 1c4.29 1.43 8.44 3.54 13.06 3.5 5.48-.06 10.93-.34 16.13-2.58 3.4-1.46 2.74-1.59 3.35 1.86a35.25 35.25 0 0 1 .07 6.28z"/><path class="a" d="M403.92 298.26c3.68.33 7.36.65 11 1 1.08.11 1.49.64 1 1.75-1.36 3.23-2.67 6.48-4 9.72-.53 1.27-.77 3.05-1.72 3.62-.74.43-2.39-.64-3.62-1.09-.88-.32-1.73-.74-2.62-1s-2.54-.34-3-1-.19-2.19-.22-3.33c-.07-2.56-.08-5.12-.22-7.68-.1-1.94-.18-1.94 1.67-1.94.57 0 1.14 0 1.71.07zm-7.77 4.6c0 2.36-.08 4.72 0 7.07.06 1.33-.38 1.83-1.71 2a45 45 0 0 0-5 1c-1 .22-1.61.09-2-.95-1.56-3.91-4.14-7.19-6.68-10.49-.29-.38-.55-.77-.8-1.17-.61-1-.19-1.38.8-1.47 2.26-.19 4.51-.39 6.77-.57 1.79-.14 3.58-.38 5.37-.35 3 .05 3.24.38 3 3.3 0 .56-.13 1.12-.2 1.68z"/><path class="b" d="M416.6 314.52c-.1-.2-.29-.41-.26-.6a4.18 4.18 0 0 1 .32-1.08q2.19-5.52 4.39-11a1.23 1.23 0 0 1 1.73-.88c4.54 1.24 9.11 2.39 13.66 3.61a5.05 5.05 0 0 1 1.18.69 6.47 6.47 0 0 1-1.1.87 45.57 45.57 0 0 1-3.32 1.56L417.77 314zm-35.88-2.18c-3.51-.86-7-1.62-10.47-2.59-3.92-1.09-7.79-2.35-11.68-3.57a2.77 2.77 0 0 1-.73-.53 2.71 2.71 0 0 1 .67-.47c3.79-1.21 7.59-2.4 11.39-3.6a27.6 27.6 0 0 0 2.65-.91 2 2 0 0 1 2.84.92c2 3.23 4.07 6.39 6.1 9.58.14.22.29.67.2.76a3.11 3.11 0 0 1-.97.41z"/><path class="a" d="M363.86 317.12c-2.33-.3-4.67-.61-7-.89-1.29-.15-2.59-.24-3.88-.37-.85-.09-1.25-.43-.68-1.28.06-.08.12-.15.17-.23 2.24-3.85 2.2-3.72 6.63-2.39 5.33 1.61 10.73 3 16.11 4.43a4.24 4.24 0 0 1 1.33.43 1.05 1.05 0 0 1 .21 1 2.48 2.48 0 0 1-2.93 1c-3.24-.89-6.57-1.47-9.86-2.18z"/><path class="b" d="M414.57 322.29c-1.32.33-2.24.57-3.17.77-.13 0-.32-.19-.48-.29-5.2-3.23-10.9-4-16.86-3.26a14 14 0 0 0-6.83 2.6 3.44 3.44 0 0 1-4.07-.53.85.85 0 0 1 .22-.78 39.14 39.14 0 0 1 6.2-2.74 30.09 30.09 0 0 1 23.76 3.2 14.6 14.6 0 0 1 1.23 1.03z"/><path class="c" d="M528.47 366.31c-.54 1.13-1.24 2.75-2.11 4.28a1.52 1.52 0 0 1-1.48.33c-.34-.16-.52-.92-.54-1.42-.1-3.56-.72-7-2.84-9.93a10.78 10.78 0 0 0-4.61-4.08 4.31 4.31 0 0 1-.86-.63c.31-.19.61-.53.93-.56a10.34 10.34 0 0 1 11 8.84c.04.86.26 1.68.51 3.17z"/><path class="b" d="M465 319.39c-4.42-2-8.65-2.29-12.85-2.78a3.67 3.67 0 0 1-2.88-1.55c-1.21-1.81-2.57-3.51-3.83-5.29-.22-.32-.45-1-.3-1.14a2.3 2.3 0 0 1 1.27-.51 1.57 1.57 0 0 1 .79.26 90.06 90.06 0 0 1 16.84 10 11.12 11.12 0 0 1 .96 1.01z"/><path class="a" d="M444.31 315.36a5.06 5.06 0 0 1-1.09.46c-3.19.43-6.39.78-9.56 1.26a49.53 49.53 0 0 0-5 1.11c-2.28.56-4.53 1.2-6.81 1.75-.25.06-.58-.21-.88-.32.16-.23.28-.56.49-.66q8.81-3.85 17.62-7.66c.33-.14.88-.36 1-.22 1.41 1.31 2.7 2.69 4.23 4.28z"/><path class="c" d="M506.35 322a13.93 13.93 0 0 1-.67 2.25c-.53 1.09-1.4 1.11-2.09.08-1-1.41-1.75-2.94-2.8-4.26a15.41 15.41 0 0 0-7.64-5.61c-.31-.09-.76-.72-.69-.85a1.62 1.62 0 0 1 1-.83c4.44-.49 10.15 2.72 12.17 6.84a16.79 16.79 0 0 1 .72 2.38zm-239.04 47.34c.41-3.14 1.56-5.79 4.64-7.27a3.78 3.78 0 0 1 3.74-.07c.69.37 1.33.41.34 1.17-3.48 2.67-4.28 6.49-4.5 10.55-.07 1.4-.23 1.54-1.41.9-2.12-1.13-2.59-3.1-2.81-5.28zM465.68 529c-2.24-.65-4.15-1.17-6-1.79-.38-.13-.6-.69-.9-1a3.63 3.63 0 0 1 1.19-.45c2.8 0 5.07-1.36 7.29-2.87a8.29 8.29 0 0 0 3.41-3.69c.09-.25.35-.43.53-.65a4 4 0 0 1 .6.79c1 2.56.37 6.07-1.78 7.66a22.33 22.33 0 0 1-4.34 2zm-183.27-72.16c-4.48 0-8-2.78-8.81-6.37-.29-1.27 1-4.33 2.13-5a1.07 1.07 0 0 1 1 .34c.55 1.18.91 2.46 1.48 3.64a8 8 0 0 0 6.6 4.7c.4.05 1.23.08.55.68a22.93 22.93 0 0 1-2.95 2.01zM411.55 265c1.75.29 3.51.56 4.39 2.55.42.94 1.17 1.72 1.69 2.63.16.28 0 .72 0 1.08a2.7 2.7 0 0 1-1 0 14.79 14.79 0 0 0-6.09-1.17 9.46 9.46 0 0 0-6.29 2.26c-.44.37-.85.75-1.31 1.09a.67.67 0 0 1-.52 0c-.06 0-.1-.31 0-.41a55.23 55.23 0 0 1 2.91-4.86c1.48-2.04 3.73-2.82 6.22-3.17zm-116.42 52.13a44.7 44.7 0 0 1 1.88-5.78 5.19 5.19 0 0 1 6.19-2.82 3.21 3.21 0 0 1 1.51 1.47c.11.18-.6 1-1.06 1.28a14.7 14.7 0 0 0-6.13 8.6A7.28 7.28 0 0 1 297 321c-.33-.32-.82-.58-1-1a28.53 28.53 0 0 1-.87-2.87zm91.45-47.28c.13-.31.2-1 .56-1.29a8.63 8.63 0 0 1 6-2.82 5.07 5.07 0 0 1 5 5.84 1.1 1.1 0 0 1-.91.55c-1.17-.38-2.27-1-3.45-1.32-1.95-.47-3.92-.75-5.58.93-.83.85-1.24.67-1.46-.52-.1-.37-.11-.75-.16-1.37zM269.67 394a4.27 4.27 0 0 1-4.39-4.91c.35-3.12 2.24-5.33 4.67-7.12.26-.2.7-.16 1.06-.22a3.23 3.23 0 0 1 0 1.2c-.78 1.93-1.8 3.84-.89 6a24.31 24.31 0 0 0 1.64 3c.94 1.58.78 1.95-1 2.11a10.84 10.84 0 0 1-1.09-.06zm259.91 42.49a8.23 8.23 0 0 1-1.36 0 6 6 0 0 1-1-.41 4 4 0 0 1 .59-1.12 12.65 12.65 0 0 0 3.73-8.88 4.87 4.87 0 0 1 .41-1.22c.38.22.94.34 1.13.67a17 17 0 0 1 2.13 4.24 5.29 5.29 0 0 1-5.63 6.72zm-141.71 106.2a7.36 7.36 0 0 1-6.25-3.37 3 3 0 0 1-.38-1.82c.07-.74.6-1.29 1.39-.72 3.29 2.36 6.61 1.64 10 .23a4.94 4.94 0 0 1 1.23-.2 5 5 0 0 1 0 1.39 6.73 6.73 0 0 1-5.99 4.49zm-41.41-10.79c-3.11-.93-6-1.23-7.84-3.74a9.17 9.17 0 0 1-1-2 2.89 2.89 0 0 1 0-1.09 3.67 3.67 0 0 1 1 .36 10.27 10.27 0 0 0 7.68 2.24c1.12-.15 2.21-.46 3.33-.62a15.94 15.94 0 0 1 2-.05c-.19.88-.09 2.16-.63 2.56a29.6 29.6 0 0 1-4.54 2.34zm-13.35-250.32a12.08 12.08 0 0 1 2.26 1 6.79 6.79 0 0 1 1.33 1.71 8.47 8.47 0 0 1-1.56 1 6.48 6.48 0 0 0-4.17 3.86c-.59 1.49-1.11 1.5-2.21.38a3.74 3.74 0 0 1-.82-4.81c1.06-2.13 2.3-3.15 5.17-3.14zM537 412.43c.11 2.73-1.61 5-3.88 5.05-.71 0-1.09-.19-.77-1 1.74-4.32.74-8.14-2.12-11.62-.18-.22-.11-.63-.16-1a3.71 3.71 0 0 1 1 0 9 9 0 0 1 5.93 8.57zm-266.72 19.8c.63-1.61 1.17-3.73 3.49-4.64.9-.35 1.77-.75 2.65-1.12-.24.89-.48 1.78-.7 2.67-.67 2.67-1.2 5.34-.17 8.06.42 1.1-.14 1.33-1.14 1.15-2.48-.46-4.06-2.62-4.13-6.12zm81.25-153.85c-1.61-.91-3 .06-4.28 1.3-.14.13-.29.24-.44.36-.94.77-2.14 2.08-3.11 1.26-.59-.5-.35-2.5.07-3.61a5 5 0 0 1 8-2.05 4 4 0 0 1 1.1 1.84c.29.89-.16 1.25-1.34.9z"/><path class="b" d="M336.82 317a7.44 7.44 0 0 1 1.5-1.6c3.54-2 7.11-4 10.7-5.87a3.14 3.14 0 0 1 1.24-.13 5.37 5.37 0 0 1-.33 1 17.87 17.87 0 0 0-1.45 2.77c-.73 2.47-2.71 3.12-4.81 3.1a16.45 16.45 0 0 0-5.55.71 3.66 3.66 0 0 1-1.35-.06z"/><path class="c" d="M447.48 535.61h-1.7c-1-.06-2.23-1.66-2-2.54a1 1 0 0 1 .83-.51c3.1.39 5.44-1.09 7.71-2.89a5.28 5.28 0 0 1 1.74-.53 6.68 6.68 0 0 1 .48 2.11c-.24 1.87-3.34 4.33-5.38 4.4-.57 0-1.14 0-1.71-.07zm24.3-242.18c.05.28.22.6.13.83a2.88 2.88 0 0 1-.79 1.29c-.18.13-.91-.19-1.13-.49a11.78 11.78 0 0 0-6.67-4.52 1.1 1.1 0 0 1-.38-1c1.27-2 5-2.46 6.81-.85 1.46 1.31 1.91 2.37 2.03 4.74zm-188.26 35.98a37.47 37.47 0 0 1 1.31-3.64 3.73 3.73 0 0 1 4-2.13 9.74 9.74 0 0 1 1.86.52 14.45 14.45 0 0 0-1.21 1.27 9.08 9.08 0 0 0-2.16 5.67c0 1 0 1.62-1.23 1.63s-2.12-.09-2.21-1.52v-1.7zm118.65 209.93c1.58-.5 3.2-.93 4.75-1.56.86-.35 1.37-.56 1.56.63a14.11 14.11 0 0 0 .63 2.17c.63 1.86-.34 3-2.35 2.75-2.44-.35-4.27-1.89-6.12-3.35-.24-.19-.27-.66-.4-1a4.94 4.94 0 0 1 1-.19 3.5 3.5 0 0 1 .82.2zm50.9-260.43c2.87 0 4.69 1.2 5.34 3.56a3.89 3.89 0 0 1 .07 1.63c-.31 1.72-.87 2-2.18.9a7.42 7.42 0 0 0-3.93-2c-.63-.07-2-.3-1.29-1.56.52-.89-.08-2.74 1.99-2.53zm48.05 213.91a2.1 2.1 0 0 1-.56 0c-.81-.22-1.61-.47-2.42-.7a11.93 11.93 0 0 0 1.68-1.37 55 55 0 0 0 3.8-4.84c.73-1.08 1.19-.91 1.87-.1a4.19 4.19 0 0 1-.23 4.95 5.17 5.17 0 0 1-4.14 2.06zM306 497.24c.49.39.79.6 1.06.85a7.36 7.36 0 0 0 5.09 2.07c1.11 0 1.36.44.86 1.36a17.56 17.56 0 0 1-1.32 2.16c-1.17 1.57-2.28 1.8-3.41.33a27 27 0 0 1-2.73-5.16c-.14-.34.27-.95.45-1.61zm209.3-20.96c0 3.35-2.83 5.53-5.4 4.69-1.24-.41-1.42-.89-.44-1.66a8.25 8.25 0 0 0 3.13-5.17 3.4 3.4 0 0 1 .55-.92c.28.2.67.34.83.62.57.94 1.03 1.92 1.33 2.44zm-215.43 16.93c-3.22-.34-4.72-1.58-5.52-4.4a2.7 2.7 0 0 1 0-1.59c.18-.47.69-.8 1.06-1.2a4.87 4.87 0 0 1 .76 1.09c.73 2.12 2.74 3 4.18 4.44a6 6 0 0 1 .76 1.19zm-25.59-33.8c-.07 0-.15.16-.21.15a3.12 3.12 0 0 1-.5-.14c.07-.06.15-.17.21-.16a2.38 2.38 0 0 1 .5.15zM336.77 317l-.1.38-.28-.19.43-.14z"/><path d="M440.65 344.52c6.27.48 12.27 1.33 18 4 3.84 1.79 8 3 11.86 4.65 2.68 1.16 5.13 2.83 7.79 4 2.86 1.3 4.85 3.56 7 5.68a5.87 5.87 0 0 1 .84 1.9 6.33 6.33 0 0 1-2.15.11c-1.34-.42-2.59-1.13-3.92-1.64-4.32-1.64-8.65-3.3-13-4.85a50.85 50.85 0 0 0-14.93-3.27 67.37 67.37 0 0 1-7.56-1.06c-6.16-1-12.27-.14-18.41.32-4.87.37-8.83 2.68-12.73 5.06-1.87 1.13-3.15 3.23-4.67 4.92a1.2 1.2 0 0 0-.32.77c0 2.93-.23 5.92.27 8.76.79 4.52 3.77 7.89 6.8 11.17 1.16 1.24 2 2.75 3.11 4.06 2.49 3 3.32 6.55 3.57 10.25.36 5.25 3.07 9.23 6.42 13 2 2.26 3.83 4.78 6.13 6.71a49.16 49.16 0 0 1 6.64 7.37c1.82 2.28 4 4.7 4.65 7.38.86 3.58 2.54 7.08 1.85 11.08-.73 4.19-4.48 8.67-8.63 9.58-7.17 1.58-12.52-1.2-17-6.61-2.34-2.82-4.35-6-7.63-7.95-.92-.55-1.21-.83-1.9.25a11.74 11.74 0 0 1-5.4 4.48c-4.52 1.93-11.95-.84-11.83-7.07a5.12 5.12 0 0 1 1.7-4.05c4.38-3.73 9.05-4.9 14.22-2.38a77.6 77.6 0 0 1 8.71 5.38 48.26 48.26 0 0 1 4.43 3.53 27.35 27.35 0 0 0 9.59 5.47c1.45.45 2.72.6 3.95-.58a3.53 3.53 0 0 0 .85-3.93 14.51 14.51 0 0 0-2.75-5.2c-2-2.38-3.52-5.15-5.43-7.62-1.74-2.23-3.85-4.19-5.57-6.43a61.44 61.44 0 0 1-4.54-6.84c-2.77-4.76-3.57-10.13-4.5-15.45-.39-2.23-.83-4.47-1.41-6.65a5.6 5.6 0 0 0-1.43-2.41c-1.87-1.86-3.91-3.54-5.77-5.41a20.66 20.66 0 0 1-2.17-3c-2.5-3.6-4.78-7.33-5.37-11.77a23.09 23.09 0 0 1 1.21-12 7.28 7.28 0 0 1 4.7-4.57 44.93 44.93 0 0 0 10.55-4.66 3.76 3.76 0 0 1 1.32-.52c4.85-.84 9.71-1.65 14.57-2.47.28-.05.57-.05.85-.1zm-17.53 136.24c.94 3.87-.9 7-2.84 10.08-1.75 2.78-4.36 4.23-7.68 3.65a70.69 70.69 0 0 1-8-2 4.61 4.61 0 0 0-3.53.16c-2.4 1.09-4.92 1.93-7.39 2.87-2.65 1-8.41.33-10.15-2.57-.2-.32-.62-.6-.64-.92-.2-2.57-2.36-4-3.52-6a15.88 15.88 0 0 1-2-5.52 2.89 2.89 0 0 0-1.29-2.15 7.55 7.55 0 0 0-6.9-1.45c-1.52.33-3.2-.06-4.81-.07a5.11 5.11 0 0 0-1.25.32c.12.33.15.77.38 1 1 1 1.48 2 .47 3.23a3.2 3.2 0 0 1-3.95.41 7.08 7.08 0 0 1-3.23-4.84 8.76 8.76 0 0 1 5.12-9.25 2.33 2.33 0 0 1 2.9 1.1 6.39 6.39 0 0 1 .54 1.9c.13.77.53.93 1.19.69 1.34-.48 2.9-.68 3.95-1.52 3.11-2.47 6.9-3.6 10.4-5 5.89-2.41 12.23-3.56 18.44-.5a7.75 7.75 0 0 0 6.57.35 13.78 13.78 0 0 1 13 1.12c3.05 1.89 6.32 3.44 9.5 5.11a6.06 6.06 0 0 0 1.89.61c2 .32 2.42-.16 2-2.19a3 3 0 0 1 1-3.06c1-.87 2.14-.45 3.18.13 3.57 2 5.24 7.91 3.31 11.52a3.51 3.51 0 0 1-2.66 1.9c-1.84.32-2.93-.45-2.56-2.24s-.41-1.62-1.57-1.38a5.56 5.56 0 0 1-2 .18c-2.28-.43-4.19.41-6.18 1.37-1.32.62-2.15 1.3-1.69 2.96zm-20-3.93c6.16.14 11.72-2.3 17.49-3.77.15 0 .25-.26.37-.4-.19-.16-.35-.44-.56-.48-2-.38-3.93-.63-5.87-1.08a5.71 5.71 0 0 0-5.28 1.48c-2.24 2-4.9 2.15-7.48 1.67a52 52 0 0 1-8.38-2.59 14.74 14.74 0 0 0-11.87.55c-.29.14-.47.54-.7.82a5.42 5.42 0 0 0 .73.35 55.93 55.93 0 0 0 6.86 1.81c4.89.7 9.8 1.11 14.7 1.64zm6.95 9.77c3 0 3.58-.36 4.79-2.56a7.61 7.61 0 0 0 .44-1.54 9.68 9.68 0 0 0-1.59-.18c-4.35.25-8.7.81-13 .74-5.29-.09-10.63-.25-15.73-2a1.19 1.19 0 0 0-1 .12c-.17.16-.09.72 0 1 2.78 5.7 9.24 8.2 14 5a10 10 0 0 1 8.72-1.31c1.21.39 2.54.56 3.38.73zm-90.29-91.43a50.13 50.13 0 0 0 3.94 18.49c2.34 5.76 5.71 10.91 8.72 16.27a19 19 0 0 1 2.7 10c-.07 3-1.65 5.29-3.55 7.24a12.46 12.46 0 0 1-6.82 3.85 8.57 8.57 0 0 0-2.16.66 3.06 3.06 0 0 1-3-.06 5.14 5.14 0 0 0-1.55-.7 8.25 8.25 0 0 1-5.93-4.8 39 39 0 0 1-4.48-16.85c-.09-3-.53-6.08-.36-9.09a73.36 73.36 0 0 1 1.42-8.66 33.25 33.25 0 0 0 .81-3.6c.4-6.11 3.13-11.43 5.52-16.87.45-1 2.63-2.35 3.67-2.09a1.86 1.86 0 0 1 1 1.39c.15 1.59.07 3.21.07 4.82zm7.32 49.12c-5.22-.17-9.11-2.46-11.5-7.17-.38-.75-.67-1.56-1.1-2.29a7 7 0 0 0-1-1.15c-.1.51-.39 1.07-.27 1.53a20.43 20.43 0 0 0 4.24 8.55c1.52 1.71 3.27 2.84 5.72 1.85 1.29-.52 2.64-.88 4-1.31l.06-.09zM354.72 386c.75 3.16-.86 6.16-2.24 9.17a2.4 2.4 0 0 1-2 1.09c-.57-.11-1.17-1.12-1.36-1.84a4.12 4.12 0 0 1 .32-2.18c1-2.77.83-5.61.66-8.45a2 2 0 0 0-2.2-2.08c-2.54-.07-5.1-.1-7.63-.35-1.45-.15-2.07.19-2.22 1.69a31.38 31.38 0 0 1-1.06 6.44 13.67 13.67 0 0 1-2.68 4.25c-.7.85-2.41.05-2.48-1.26a13.72 13.72 0 0 1 .54-3.91c.45-1.74 1.15-3.41 1.6-5.14.69-2.62.12-3.64-2.21-4.78a40.76 40.76 0 0 1-4.4-2.53c-1-.63-1.87-1.51-1.15-2.84.64-1.16 1.66-.82 2.75-.62 7.16 1.32 14.27 3 21.61 2.87a24.56 24.56 0 0 0 5.92-.74c4.39-1.17 8.75-2.49 13.05-3.94 1.4-.47 2.55-1.61 3.89-2.3 1.85-.94 2.73-.77 3.45.44a3 3 0 0 1-.75 3.85 28.4 28.4 0 0 1-3.3 2.22c-1.43.87-1.57 1.86-1.21 3.55a70.32 70.32 0 0 1 .86 8.73 4 4 0 0 1-1.69 3.44 2.2 2.2 0 0 1-1.67.59 2.06 2.06 0 0 1-1.08-1.46c-.19-1.49-.05-3-.23-4.51a50 50 0 0 0-.94-5c-.19-.85-.75-1.36-1.68-1a34.61 34.61 0 0 1-9.66 2.27c-.87.1-1.09.62-1 1.38s.08 1.7.19 2.95zm38.5-30.32a2.21 2.21 0 0 1-3.12 2.08 27.54 27.54 0 0 1-2.67-1.62c-2-1.1-3.83-2.81-6.53-2.27-.82.16-1.77-.57-2.69-.66-4.62-.48-9.24-1.18-13.87-1.21a70.16 70.16 0 0 0-11.89 1.19c-4.18.69-8.34 1.67-12.45 2.71-5.42 1.37-10.8 2.87-16.16 4.44a61.29 61.29 0 0 0-6.31 2.44 2.07 2.07 0 0 1-2.79-.57c-.81-1.13-.08-2.06.74-2.7a24.69 24.69 0 0 1 3.78-2.37c1.76-.9 3.71-1.47 5.39-2.49a45.87 45.87 0 0 1 8.62-3.55c1.7-.6 3.34-1.35 5-2a7.33 7.33 0 0 1 1-.46c5-1.16 9.92-2.64 15-3.38A60.24 60.24 0 0 1 371 345c3.61.5 7.29.92 10.63 2.8 2.54 1.43 5.33 2.4 8 3.62a6.53 6.53 0 0 1 3.59 4.26z"/><path d="M429.84 380.33a9.28 9.28 0 0 0-.12-1.94c-.08-1.12-.32-1.87-1.74-2.13a13.68 13.68 0 0 1-3.88-1.68c-1.51-.81-1.72-2.43-2.06-3.89-.07-.3.53-.93 1-1.14a2.4 2.4 0 0 1 1.39.08c2.73.63 5.42 1.45 8.18 1.88 3.09.49 6.23.59 9.34.93 6.24.67 12.26-.67 18.25-2.07a17.5 17.5 0 0 0 3.58-1.65c.25-.12.43-.38.67-.53 1.33-.84 3.25-.79 4 .08s.38 2.39-.8 3.57a6.48 6.48 0 0 1-2.06 1.47c-1.51.62-1.61 1.59-1.17 3a24.34 24.34 0 0 1 .94 4.14 8.56 8.56 0 0 1-1.81 6.14c-.53.75-1.16 1.53-2.05.95a3.06 3.06 0 0 1-1.15-2c-.2-2.25-.09-4.53-.27-6.78s-.48-2.46-2.64-1.81c-1.53.47-3.05 1-4.6 1.37-1.13.29-1.16 1.05-1 2 .2 1.5.29 3 .54 4.51.55 3.37-1.35 5.82-3.13 8.27a1.62 1.62 0 0 1-2.87-.67 3.86 3.86 0 0 1 .24-2.41 15.18 15.18 0 0 0 .81-7.85c-.28-2.54-1.15-3.16-3.71-3.32s-4.91-.41-7.36-.66c-1.11-.11-1.87 0-1.57 1.45.6 2.88-.46 5.41-1.8 7.85-.94 1.71-1.78 2.13-2.84 1.61-1.26-.62-1.61-2-1.16-3.69a44.64 44.64 0 0 0 .85-5.08zm-32.1 74.15c-.39-3.23 1.49-5.24 3.45-7.19a1.88 1.88 0 0 1 2.54-.5c1.08.72 1.63 1.9 1 2.95-1.7 2.76-.79 5.25.38 7.79.08.18.11.37.2.53.63 1.21 1.3 2.55.07 3.62s-2.89.2-3.92-.5c-2.32-1.58-4.15-3.66-3.72-6.7z"/><path class="b" d="M403.13 476.83c-4.9-.53-9.81-.94-14.69-1.64a55.93 55.93 0 0 1-6.86-1.81 5.42 5.42 0 0 1-.73-.35c.23-.28.41-.68.7-.82a14.74 14.74 0 0 1 11.87-.55 52 52 0 0 0 8.38 2.59c2.58.48 5.24.36 7.48-1.67a5.71 5.71 0 0 1 5.28-1.48c1.94.45 3.91.7 5.87 1.08.21 0 .37.32.56.48-.12.14-.22.36-.37.4-5.77 1.47-11.33 3.94-17.49 3.77zm6.95 9.77c-.84-.17-2.17-.34-3.44-.71a10 10 0 0 0-8.72 1.31c-4.72 3.16-11.18.66-14-5-.14-.3-.22-.86 0-1a1.19 1.19 0 0 1 1-.12c5.1 1.79 10.44 2 15.73 2 4.34.07 8.69-.49 13-.74a9.68 9.68 0 0 1 1.59.18 7.61 7.61 0 0 1-.44 1.54c-1.14 2.18-1.74 2.51-4.72 2.54z"/><path class="c" d="M327.12 444.3c-1.32.43-2.67.79-4 1.31-2.45 1-4.2-.14-5.72-1.85a20.43 20.43 0 0 1-4.24-8.55c-.12-.46.17-1 .27-1.53a7 7 0 0 1 1 1.15c.43.73.72 1.54 1.1 2.29 2.39 4.71 6.28 7 11.5 7.17z"/><path class="c" d="M327.1 444.29l.08-.08-.06.09-.02-.01z"/></svg>