<svg id="Layer_1" data-name="Layer 1" xmlns="http://www.w3.org/2000/svg" viewBox="0 0 800 800"><defs><style>.cls-1,.cls-4,.cls-5{fill:none;stroke-width:8px;}.cls-1,.cls-5{stroke:#000;}.cls-1{stroke-linejoin:bevel;}.cls-2{fill:#fff;}.cls-3{fill:blue;}.cls-4{stroke:#fff;}.cls-4,.cls-5{stroke-linejoin:round;}</style></defs><title>tears</title><polyline class="cls-1" points="420.37 394.24 426.74 396.51 433.25 398.32 439.88 399.65 446.62 400.09 453.35 399.9 460.13 399.57 466.56 397.39 472.68 394.4"/><polyline class="cls-1" points="423.92 361.58 430.99 361.37 438.06 361.14 445.11 361.68 452.18 361.43 459.15 362.73 466.26 362.92 472.98 365.23 479.98 366.44 486.45 369.33 492.21 373.39"/><polyline class="cls-1" points="603.5 368.93 596.92 366.49 590.08 364.92 583.36 362.82 576.31 362.54 569.36 361.78 562.38 362.06 555.35 362.53 548.87 365.25 542.56 368.26 537.36 372.98 531.97 377.61 526.24 381.92 520.32 385.97 517.37 392.47 516.3 399.5 515.52 406.63 515.77 413.8 516.11 420.95 516.33 428.13 517.09 435.26 517.67 442.41 518.82 449.5 519.8 456.6 520.42 463.75 521.41 470.85 522.56 477.94 523.64 485.03"/><polygon points="489.24 223.97 482.93 220.19 477.38 215.3 470.8 211.97 464.77 207.77 458.61 203.76 452.01 200.54 445.55 197.04 438.98 193.78 432 191.4 425.3 188.44 418.51 185.67 411.58 183.3 404.68 180.84 397.83 178.16 390.5 175.87 382.84 174.92 375.42 173 367.79 172.25 360.19 171.42 352.56 170.94 344.91 171.35 337.31 171.6 329.86 173.11 322.54 175.15 315.37 177.62 308.29 180.31 301.36 183.37 294.22 185.97 287.76 189.25 281.46 192.84 275.13 196.36 268.79 199.87 263.05 204.34 256.54 207.65 250.94 212.28 245.3 216.82 239.4 221.03 234.06 225.93 228.72 230.82 223.23 235.56 218.35 240.92 213.22 246.03 208.39 251.42 203.99 257.18 199.49 262.84 195.14 268.62 190.44 274.17 187.06 280.61 183.2 286.72 179.28 292.81 175.98 299.25 172.99 305.85 169.55 312.23 166.51 318.81 163.84 325.54 162.05 332.38 159.88 339.07 158.11 345.89 156.62 352.79 156.4 359.86 155.88 366.86 156.26 373.87 156.66 380.88 158.2 387.74 160.4 394.39 163.54 400.64 166.76 406.92 170.94 412.6 176.02 417.47 180.91 422.51 185.73 427.62 189.89 433.3 192.94 440.17 195.93 447.08 197.35 454.48 198.49 461.91 199.08 469.39 199.66 476.12 201.14 482.75 201.1 489.54 202.63 496.16 203.47 502.86 203.66 509.63 204.4 516.35 205.67 524.56 208.98 532.12 213.24 537.49 219.28 540.74 225.5 543.6 232.05 545.67 238.22 548.71 245.51 551.73 252.1 556.08 259.13 559.88 263.62 564.49 270.22 565.6 276.65 567.25 283.26 567.94 289.81 569.12 296.46 569.41 303.29 568.59 310.15 568.23 316.9 566.88 323.51 564.96 329.64 561.82 335.96 559.07 341.27 554.28 344.85 548.13 347.03 541.38 348.92 534.53 350.69 527.69 352.03 520.9 353.75 514.23 355.73 507.62 357.99 501.1 359.9 494.47 361.44 487.75 362.84 480.98 364.88 475.24 364.94 469.18 364.73 462.06 362.18 455.38 360.26 448.51 358.28 441.61 358.75 434.37 361.54 428.72 364.66 423.31 368.98 417.4 373.44 411.6 377.77 405.7 381.53 399.42 386.02 393.63 390.2 387.63 393.83 381.26 398.49 375.59 401.92 369.07 406.39 363.28 410.04 356.75 412.42 349.62 415.52 342.76 419.9 336.63 426.7 333.73 434.15 333.33 441.53 333.51 449.11 333.19 456.58 331.85 464.01 330.27 471.2 327.81 477.99 324.4 484.92 321.29 491.1 316.89 496.94 312.41 501.98 307.04 506.26 301.05 509.34 294.38 513.05 288.01 514.78 280.86 515.93 273.63 516.08 266.34 515.94 258.97 513.2 252.12 510.62 245.24 506.14 239.09 500.99 233.52 495.26 228.55 489.24 223.97"/><polygon class="cls-2" points="315.37 421.03 322.72 420.31 330.03 419.56 337.08 417.5 343.66 414.23 350.39 411.32 356.79 407.73 362.8 403.5 368.44 398.82 373.66 393.67 378.69 388.36 383.75 383.07 388.17 377.23 392.78 371.55 396.8 365.44 400.9 359.39 404.72 353.16 408.96 347.16 412.31 340.65 415.45 334.04 418.47 327.38 421.91 320.91 424.46 313.93 429.9 317.47 435.77 320.08 441.08 323.39 438.86 329.69 436.31 336.34 433.67 342.95 430.64 349.4 427.59 355.85 424.07 362.05 420.41 368.16 416.81 374.31 412.4 379.93 408.61 385.98 404.42 391.76 399.27 396.75 394.38 401.92 389.26 406.85 383.75 411.95 377.94 416.73 371.92 421.25 365.28 424.82 358.69 428.44 351.69 431.18 344.75 434.03 337.67 436.6 330.2 437.65 322.95 439.65 315.78 439.92 315.78 433.73 314.98 427.4 315.37 421.03"/><polygon class="cls-1" points="315.37 421.03 322.72 420.31 330.03 419.56 337.08 417.5 343.66 414.23 350.39 411.32 356.79 407.73 362.8 403.5 368.44 398.82 373.66 393.67 378.69 388.36 383.75 383.07 388.17 377.23 392.78 371.55 396.8 365.44 400.9 359.39 404.72 353.16 408.96 347.16 412.31 340.65 415.45 334.04 418.47 327.38 421.91 320.91 424.46 313.93 429.9 317.47 435.77 320.08 441.08 323.39 438.86 329.69 436.31 336.34 433.67 342.95 430.64 349.4 427.59 355.85 424.07 362.05 420.41 368.16 416.81 374.31 412.4 379.93 408.61 385.98 404.42 391.76 399.27 396.75 394.38 401.92 389.26 406.85 383.75 411.95 377.94 416.73 371.92 421.25 365.28 424.82 358.69 428.44 351.69 431.18 344.75 434.03 337.67 436.6 330.2 437.65 322.95 439.65 315.78 439.92 315.78 433.73 314.98 427.4 315.37 421.03"/><polygon class="cls-2" points="348.19 432.93 350.5 439.85 351.01 447.08 351.76 454.23 352.89 461.38 352.56 468.6 352.63 475.82 351.33 482.94 350.75 490.14 348.58 497.05 347.05 504.09 344.46 510.81 342.15 517.63 339.6 524.4 335.71 530.51 332.63 537.05 328.74 543.13 324.44 548.94 320 554.63 315.2 559.77 322.23 559.95 329.34 560.25 336.38 559.72 340.95 554.29 346.13 549.05 349.9 542.74 353.95 536.63 357.02 529.97 360 523.3 362.66 516.51 365.19 509.67 367.96 502.85 369.33 495.64 370.19 488.36 371.49 481.17 372.44 473.9 372.81 466.58 372.8 459.26 372.87 451.92 371.61 444.67 370.46 437.46 370.02 430.12 368.04 422.59 361.45 426.32 355.03 430.02 348.19 432.93"/><polygon class="cls-1" points="348.19 432.93 350.5 439.85 351.01 447.08 351.76 454.23 352.89 461.38 352.56 468.6 352.63 475.82 351.33 482.94 350.75 490.14 348.58 497.05 347.05 504.09 344.46 510.81 342.15 517.63 339.6 524.4 335.71 530.51 332.63 537.05 328.74 543.13 324.44 548.94 320 554.63 315.2 559.77 322.23 559.95 329.34 560.25 336.38 559.72 340.95 554.29 346.13 549.05 349.9 542.74 353.95 536.63 357.02 529.97 360 523.3 362.66 516.51 365.19 509.67 367.96 502.85 369.33 495.64 370.19 488.36 371.49 481.17 372.44 473.9 372.81 466.58 372.8 459.26 372.87 451.92 371.61 444.67 370.46 437.46 370.02 430.12 368.04 422.59 361.45 426.32 355.03 430.02 348.19 432.93"/><polyline class="cls-1" points="429.17 397.13 426.95 402.47 425.68 408.14"/><line class="cls-1" x1="447.75" y1="400.63" x2="448.14" y2="410.07"/><line class="cls-1" x1="464.62" y1="397.89" x2="468.07" y2="407.23"/><polyline class="cls-3" points="553.53 423.09 551.04 430.48 547.84 437.62 545.57 445.06 551.44 442.02 558.08 441.05 564.68 440.39 571.15 441.89 576.37 445.87 580.45 451.15 584.86 445.65 590.49 441.5 595.92 437.16 602.45 434.73 609.33 435.4 614.46 440.06 611.35 434.48 607.74 429.19 604.8 423.51 601.8 417.85"/><polyline class="cls-1" points="553.53 423.09 551.04 430.48 547.84 437.62 545.57 445.06 551.44 442.02 558.08 441.05 564.68 440.39 571.15 441.89 576.37 445.87 580.45 451.15 584.86 445.65 590.49 441.5 595.92 437.16 602.45 434.73 609.33 435.4 614.46 440.06 611.35 434.48 607.74 429.19 604.8 423.51 601.8 417.85"/><polyline class="cls-3" points="559.72 404.23 557.8 410.56 555.27 416.69 553.76 422.99 560.84 421.29 568.43 421.79 575.08 425.1 579.44 430.87 582.98 424.81 587.9 419.52 594.44 416.63 601.09 417.09 598.83 411.33 595.44 405.99 593.16 400.08"/><polyline class="cls-1" points="559.72 404.23 557.8 410.56 555.27 416.69 553.76 422.99 560.84 421.29 568.43 421.79 575.08 425.1 579.44 430.87 582.98 424.81 587.9 419.52 594.44 416.63 601.09 417.09 598.83 411.33 595.44 405.99 593.16 400.08"/><polyline class="cls-1" points="577.14 404.19 578.21 410.86 578.22 417.62 579.05 424.32 579.06 431.08 580.16 437.7 579.72 444.41 580.49 451.06"/><polyline points="225.45 336.35 225.23 335.9 229.92 330.21 234.19 324.21 238.16 317.99 242.89 312.33 246.83 306.09 251.44 300.33 255.31 294.05 260 288.36 264.48 282.52 268.46 276.31 272.69 270.28 277.3 264.52 281.74 258.65 285.79 252.48 289.73 246.23 294.57 240.63 298.01 234.39 299.96 227.58 300.97 220.53 299.4 213.6 297.77 206.68 294.07 200.56 289.18 195.34 283.28 191.29 276.61 188.64 269.49 187.84 267.95 187.58 261.11 188.65 254.31 189.93 248.24 193.23 242.19 196.47 237.13 201.1 231.99 205.73 228.35 211.64 226.7 218.35 225.88 224.88 226.36 225.02 226.05 218.05 223.24 211.62 219.43 205.81 214.82 200.65 209.28 196.49 203.64 192.4 197.13 189.89 190.34 188.44 183.45 187.75 181.92 188.03"/><polyline class="cls-4" points="225.45 336.35 225.23 335.9 229.92 330.21 234.19 324.21 238.16 317.99 242.89 312.33 246.83 306.09 251.44 300.33 255.31 294.05 260 288.36 264.48 282.52 268.46 276.31 272.69 270.28 277.3 264.52 281.74 258.65 285.79 252.48 289.73 246.23 294.57 240.63 298.01 234.39 299.96 227.58 300.97 220.53 299.4 213.6 297.77 206.68 294.07 200.56 289.18 195.34 283.28 191.29 276.61 188.64 269.49 187.84 267.95 187.58 261.11 188.65 254.31 189.93 248.24 193.23 242.19 196.47 237.13 201.1 231.99 205.73 228.35 211.64 226.7 218.35 225.88 224.88 226.36 225.02 226.05 218.05 223.24 211.62 219.43 205.81 214.82 200.65 209.28 196.49 203.64 192.4 197.13 189.89 190.34 188.44 183.45 187.75 181.92 188.03"/><polygon points="288.99 234.21 292.78 228.29 294.96 221.58 295.24 214.55 294.38 207.61 291.99 201.04 288.82 194.75 283.72 189.88 278.22 185.39 271.42 183.36 264.5 181.74 262.95 181.97 256.14 182.85 249.58 184.73 242.88 186.54 237.09 190.34 232.23 195.2 227.25 199.92 224.04 205.98 221.66 212.34 220.44 219.06 221.58 219.11 220.21 212.25 218.4 205.54 214.25 199.95 210.21 194.23 204.39 190.33 198.52 186.64 192.22 183.63 185.32 182.52 178.45 181.14 176.91 181.72 169.95 182.93 163.14 185 157.44 189.29 152.34 194.25 149.05 200.56 146.31 207.12 145.34 214.2 146.4 221.25 148.41 228.03 152.03 234.12 155.99 240.34 160.75 245.99 164.65 252.25 169.38 257.92 173.37 264.12 177.9 269.93 182 276.05 186.45 281.91 190.13 288.34 194.54 294.23 198.72 300.3 202.95 306.33 207.55 312.1 211.8 318.11 215.77 324.34 220.4 330.1 220.57 330.14 224.4 323.83 229.08 318.13 233.54 312.27 237.91 306.34 241.84 300.1 246.06 294.06 250.22 287.99 255.15 282.48 258.79 276.02 263.13 270.07 267.64 264.24 272.19 258.44 276.33 252.35 280.62 246.36 284.93 240.38 288.99 234.21"/><polygon class="cls-5" points="288.99 234.21 292.78 228.29 294.96 221.58 295.24 214.55 294.38 207.61 291.99 201.04 288.82 194.75 283.72 189.88 278.22 185.39 271.42 183.36 264.5 181.74 262.95 181.97 256.14 182.85 249.58 184.73 242.88 186.54 237.09 190.34 232.23 195.2 227.25 199.92 224.04 205.98 221.66 212.34 220.44 219.06 221.58 219.11 220.21 212.25 218.4 205.54 214.25 199.95 210.21 194.23 204.39 190.33 198.52 186.64 192.22 183.63 185.32 182.52 178.45 181.14 176.91 181.72 169.95 182.93 163.14 185 157.44 189.29 152.34 194.25 149.05 200.56 146.31 207.12 145.34 214.2 146.4 221.25 148.41 228.03 152.03 234.12 155.99 240.34 160.75 245.99 164.65 252.25 169.38 257.92 173.37 264.12 177.9 269.93 182 276.05 186.45 281.91 190.13 288.34 194.54 294.23 198.72 300.3 202.95 306.33 207.55 312.1 211.8 318.11 215.77 324.34 220.4 330.1 220.57 330.14 224.4 323.83 229.08 318.13 233.54 312.27 237.91 306.34 241.84 300.1 246.06 294.06 250.22 287.99 255.15 282.48 258.79 276.02 263.13 270.07 267.64 264.24 272.19 258.44 276.33 252.35 280.62 246.36 284.93 240.38 288.99 234.21"/><polyline class="cls-1" points="548.47 400.03 554.9 402.18 561.51 403.89 568.33 404.32 575.17 404.2 581.84 402.64 588.51 401.34 595.07 399.49 601.59 397.39"/></svg>