<svg xmlns="http://www.w3.org/2000/svg" viewBox="0 0 800 800"><defs><style>.cls-2{fill:#00f}.cls-4{mix-blend-mode:darken}.cls-5{fill:red}</style></defs><g style="isolation:isolate"><g id="Layer_1" data-name="Layer 1"><path class="cls-2" d="M362.54 248.19c-.12-2-.6-4-.73-6s-.15-4-.32-6-.54-4-.77-6-.43-4-.75-6-.85-3.91-1.27-5.86-1-3.86-1.54-5.78-1.05-3.85-1.74-5.73-1.38-3.74-2.24-5.56-1.62-3.65-2.63-5.34-2.21-3.31-3.37-4.9-2.64-3-3.95-4.45-2.51-3.06-3.94-4.43-2.67-3-4.21-4.24-3.45-2-5.08-3.13-3.31-2.14-5-3.15-3.24-2.32-5-3.21-3.56-1.75-5.39-2.53-3.68-1.48-5.56-2.14-3.74-1.34-5.66-1.89-3.85-1-5.79-1.39-3.89-.86-5.84-1.18-4-.36-5.93-.59-3.93-.76-5.91-.88-4 .35-6 .34-4 0-5.94.05-4 0-5.95.19-3.87.61-5.81.91-3.92.35-5.84.75-3.81 1-5.7 1.44-3.82.94-5.69 1.53-3.56 1.69-5.4 2.37-3.68 1.31-5.48 2.08-3.68 1.37-5.43 2.23-3.58 1.65-5.28 2.61-3.13 2.4-4.78 3.46-3.41 1.94-5 3.1-2.91 2.62-4.41 3.88-3 2.46-4.45 3.81-2.76 2.76-4.07 4.21-2.8 2.76-4 4.3-2.31 3.16-3.4 4.79-2.36 3.15-3.33 4.86-1.78 3.5-2.63 5.26-1.39 3.66-2.14 5.47-1.27 3.68-1.92 5.53-1.3 3.67-1.85 5.54-1.06 3.76-1.52 5.66-1 3.78-1.33 5.7-.83 3.82-1.13 5.75-.4 3.88-.63 5.83-.36 3.88-.53 5.83-.53 3.87-.65 5.83-.46 3.89-.53 5.84.11 3.92.09 5.87.17 3.91.18 5.86-.35 3.92-.3 5.87.49 3.91.53 5.87-.21 3.92-.19 5.89 0 3.92 0 5.89-.11 3.91-.11 5.88.49 3.92.49 5.88-.42 3.92-.43 5.89.37 3.92.36 5.88-.28 3.93-.3 5.89 0 3.93 0 5.89v5.89c0 1.96-.46 3.92-.49 5.88s.58 3.94.56 5.9l-.09 5.88c0 2-.06 3.94-.09 5.89s-.64 3.93-.67 5.88.23 3.94.21 5.89-.24 3.93-.25 5.88.11 3.94.09 5.89-.27 3.94-.28 5.89.06 3.94.06 5.89v11.77c0 1.95.08 3.94.11 5.88s.2 4.07.25 6c2.67.94 2.87 0 5.7.05s2.83.27 5.66.31 2.84-.1 5.67-.06 2.84-.31 5.67-.21c2 .19 3.91.78 5.88.94s4-.21 6-.06 3.91.74 5.88.87 3.95.21 5.93.33 4-.17 5.94-.07 3.94.38 5.92.46 3.94.32 5.92.39 4 .1 5.93.16 4 .32 5.93.37 4-.46 5.94-.42 3.95.4 5.93.42 4-.09 5.93-.07 3.95.38 5.93.39 4 0 5.93 0 4 .07 5.94.06 3.95-.31 5.93-.32 3.95-.36 5.93-.37 3.95.06 5.93 0 4 .13 5.94.11l5.93-.08c2 0 4-.21 5.93-.23 3 .05 3 .32 6 .39s3-.07 6 0 3 .55 6 .62 3-.54 6-.47 3 .09 6 .16 3 0 6 .1 3 .74 6 .82 3.19.83 6 0c.08-2 .15-4.19.23-6.22s-.06-4.05 0-6.08.24-4 .3-6.07 0-4.05.1-6.08.56-4 .61-6.06.13-4 .17-6.08-.15-4.05-.11-6.08-.34-4.06-.31-6.08.67-4.05.69-6.07-.62-4.06-.61-6.09.13-4.05.14-6.07.26-4.05.26-6.08-.23-4.05-.24-6.08.55-4 .54-6.08-.49-4.05-.5-6.07.25-4.06.22-6.08-.21-4.05-.24-6.08-.07-4-.11-6.07.16-4.06.11-6.09-.06-4.05-.11-6.07-.48-4-.54-6.07.08-4.06 0-6.08-.17-4-.25-6.07-.53-4-.61-6.06.21-4.07.12-6.09.12-4.06 0-6.09-.55-4-.65-6 .08-4.06 0-6.08-.66-4-.77-6 .17-4.09.05-6.11z"/><path class="cls-2" d="M364 248.19c-1.39-14.37-2.43-28.67-7.44-42.36-4.47-12.23-13.31-24.67-24.58-31.46-5.89-3.55-11.35-7.47-17.75-10.11a102.82 102.82 0 0 0-20.7-6.06 115.62 115.62 0 0 0-44.56.73c-26.78 5.87-55.08 22.47-67.73 47.75-7.4 14.78-10.93 31.43-12.45 47.74-.42 4.53-1.2 9.08-1.26 13.63-.07 4.9.18 9.77 0 14.67-.13 3.93.44 7.8.33 11.75-.15 5-.46 10.2-.11 15.2.61 8.62 0 17.33.07 26 0 4.79-.7 9.71-.5 14.47s.46 9.27.38 14c-.07 4.94-.49 9.76-.5 14.71 0 5.22-.16 10.49-.37 15.7-.41 10.47 0 21 .39 31.51a1.54 1.54 0 0 0 1.1 1.45c2.43.65 4.28.09 6.8.12s4.89.31 7.36.28 4.69-.19 7-.24c3.13-.07 6.13.94 9.26 1 15.25.14 30.61 2.48 45.93 2.41 14.28-.06 28.7.85 43 0 8.4-.52 16.8 0 25.22-.35a119.49 119.49 0 0 1 17.54.53c5.55.61 11.25 0 16.87.08s11.57 2.1 16.94.79a1.52 1.52 0 0 0 1.1-1.45c1.17-30.48 2-60.89 1.27-91.29-.35-15.19-.16-30.39-.77-45.58s-1.77-30.39-1.92-45.54a1.5 1.5 0 0 0-3 0c.15 15.16 1.31 30.37 1.92 45.54s.42 30.39.77 45.58c.69 30.39-.1 60.82-1.27 91.29l1.1-1.45c-4.75 1.16-10.68-.81-15.61-.88-5.46-.08-11.24.61-16.61 0-12.51-1.39-25.53-.71-38.11-.6-6.93.06-13.82.62-20.76.64-7.26 0-14.51-.7-21.75-.72-15.06 0-30.54.07-45.52-1.85-3.74-.48-7.36-.13-11.11-.72a39.07 39.07 0 0 0-7.57-.2c-2.74.08-5.53.15-8.27 0s-6.4.49-9.06-.23l1.1 1.45c-.63-17.06 0-34.09-.18-51.13-.08-7.79 1.26-15.46.42-23.31-.36-3.34.28-6.69.33-10.05.07-4.59 0-9.16.22-13.74.27-6.87-.3-13.75-.32-20.6 0-4.25 0-8.51.17-12.75.11-4-.47-7.82-.33-11.75.31-8.86.08-17.5 1-26.35 1-9.35 2.13-18.36 4.66-27.46a115.87 115.87 0 0 1 7.9-21.37c3.16-6.21 7.78-11.65 12.53-16.68a93 93 0 0 1 35.4-23.24c7.25-2.72 14.1-5.49 21.88-6.44s15.17-1.1 22.88-1.63c6.68-.46 14.47 1.18 21 2.63a88.16 88.16 0 0 1 20 7c13.59 6.75 26.9 17.58 33.39 31.61 6.93 15 8.21 31.21 9.78 47.42.32 1.81 3.33 1.83 3.1-.09z"/><path d="M340.3 251.59c-.12-2-.37-4.08-.53-6.14s-.4-4.08-.62-6.12-.29-4.11-.62-6.13-.74-4-1.22-6-1.25-3.89-1.91-5.84a53.4 53.4 0 0 0-2.23-5.7c-.85-1.8-1.3-3.79-2.34-5.44s-2.72-2.89-3.95-4.41a53.22 53.22 0 0 0-3.58-4.69 57 57 0 0 0-4.69-3.59c-1.53-1.22-3.15-2.29-4.8-3.36s-3.11-2.44-4.85-3.35-3.56-1.67-5.38-2.43-3.63-1.5-5.5-2.12-3.73-1.28-5.64-1.76-3.87-.67-5.81-1-3.91-.38-5.86-.59-3.89-.66-5.85-.73-3.93.2-5.89.26-3.91.23-5.86.44-3.95.58-5.94.92-4.06.19-6 .66-3.85 1.2-5.77 1.8-3.77 1.39-5.64 2.12-3.66 1.65-5.48 2.5-3.58 1.8-5.33 2.79-3.41 2.08-5.08 3.21-3.28 2.29-4.84 3.54-3.07 2.56-4.52 4-3.28 2.44-4.6 3.95-2.3 3.32-3.46 5-2.51 3.17-3.51 4.92-1.74 3.44-2.55 5.17-1.66 3.48-2.34 5.27-1.27 3.63-1.83 5.47-1.07 3.69-1.51 5.55-.56 3.8-.9 5.69-.61 3.78-.86 5.68-.41 3.81-.58 5.72-.75 3.78-.86 5.7-.07 3.84-.11 5.75 0 3.84 0 5.76.06 3.84.11 5.74.25 3.95.28 6 .29 4 .3 6-.49 4-.49 6 .55 4 .55 6-.15 4-.15 6-.24 4-.25 6 0 4 0 6-.1 4-.12 6 .16 4 .13 6 .15 4 .12 6 0 4-.05 6-.64 4-.66 6 .53 4 .51 6-.16 4-.18 6-.09 4-.11 6 .07 4 .06 6-.5 4-.5 6 .23 4.05.24 6-.12 4.06-.1 6 .12 4.07.15 6c0 2.09.22 3.89.26 5.81 2.75.93 2.85-.07 5.75 0s2.91.08 5.82.12 2.91 0 5.82.09c2 .19 4 .89 5.94 1.05s4-.25 6-.11 4 .22 6 .34 4 .44 6 .54 4 0 6 .1 4 .34 6 .4 4 .38 6 .42 4 .06 6 .09 4 0 6 0 4 .1 6 .1 4-.33 6-.33 4 .43 6 .42 4-.54 6-.56 4 .55 6 .53 4-.09 6-.11 4-.36 6-.38c3.08.05 3.07.32 6.15.4s3.08-.3 6.16-.23 3.07.14 6.14.21 3.08.06 6.16.13l6.15.16c3.08.08 3.24 1.28 6.19.41.08-2 0-4.13.05-6.18s.57-4 .63-6.05-.17-4-.12-6.07.06-4 .1-6.07.43-4 .46-6.05-.08-4-.05-6.07-.41-4-.39-6.07.34-4 .36-6.07.19-4 .2-6.07-.16-4-.15-6.06 0-4.05-.05-6.07.06-4.05.05-6.08.22-4 .2-6.07-.08-4-.1-6.07.06-4.06 0-6.08-.15-4.05-.18-6.07-.12-4.05-.16-6.07-.28-4.05-.32-6.07-.13-4.05-.19-6.06.24-4.07.18-6.08-.27-4.06-.34-6.07-.61-4-.69-6.05.48-4.09.39-6.09-.63-4-.73-6-.08-4.07-.18-6.06-.4-4.07-.51-6.06z" fill="#fff"/><path class="cls-2" d="M341.8 251.59c-.88-12.19-2-23.93-6.71-35.32-1.14-2.75-2-5.66-3.85-8s-3.8-4.56-5.67-6.82c-3.51-4.24-8.91-7.21-13.39-10.31-10.06-7-22.17-8.55-33.93-10.1-6.07-.8-12.41-.1-18.45.79-6.71 1-12.63 2-19 4.54-11.27 4.45-20.55 11-29.66 18.86-4.06 3.49-7.63 8.77-10.14 13.49a78.8 78.8 0 0 0-7.7 20.55c-3.12 14.79-3.75 29.85-3.05 44.9.59 12.52.13 25 0 37.57-.1 7 .17 14 .11 21 0 3.52-.81 7-.62 10.52s.35 6.94.26 10.51c-.33 14-.57 27.87 0 41.86a1.54 1.54 0 0 0 1.1 1.44c2.61.67 4.91.08 7.59.05s5.17 0 7.73.13c3.35.12 6.56 1.1 9.91 1.14 3.51.05 7-.06 10.5.2 14.12 1.06 28.51 2.14 42.68 1.67 3.31-.11 6.44-.13 9.74.05 3.55.18 6.93-.55 10.49-.23 6.37.56 12.71-.4 19.07.05 5.59.4 11.36 0 17 .16 2.73.05 5.46.06 8.18.19s5.29 1 8.11.39a1.51 1.51 0 0 0 1.1-1.44c.26-13.09 1.81-26.43.88-39.52-.46-6.53.38-13.16.23-19.72s.15-13.16.18-19.74c.14-26.33-1.09-52.66-2.63-78.87-.11-1.91-3.12-1.93-3 0 1.54 26.19 2.84 52.56 2.63 78.87-.05 6.58-.34 13.15-.18 19.74s-.65 13.18-.23 19.72c.84 13.11-.61 26.41-.88 39.52l1.1-1.45c-2.63.53-6.59-.48-9.33-.55l-7.24-.16c-5.45-.12-11 .25-16.44-.18-6.18-.49-12.34.53-18.53 0-3.56-.31-6.95.41-10.49.23-3.3-.18-6.43-.16-9.74-.05A321.21 321.21 0 0 1 229 405.8c-3.75-.36-7.48-.48-11.23-.47-3.35 0-6.38-.81-9.67-1-2.51-.16-5.06-.06-7.57-.12-2.71-.05-6.12.67-8.7 0l1.1 1.45c-.46-11.49-.05-22.88-.11-34.33 0-5.51.5-11.05 0-16.54-.48-5.69.56-11.52.43-17.28-.27-11.26.71-22.57.35-33.8-.39-12.41-.91-24.95-.7-37.43.25-14.65 3-30.21 9.37-43.46 5.34-11.2 14.45-19.75 24.85-26.32 20.26-12.81 47.68-16.73 70.5-8.8a70.44 70.44 0 0 1 17.82 9.37c3 2.09 6.12 4.17 8.35 7.07 1.73 2.25 4.18 4.48 5.68 6.82 3.47 5.36 5.76 13.41 7 19.62 1.37 6.86 1.77 14.07 2.27 21 .2 1.93 3.2 1.94 3.06.01z"/><path class="cls-2" d="M214.42 200c-1.89 26.68-3.13 53.43-4 80.22-.43 13.36-.26 26.77-.21 40.15 0 6.54.34 13.18 0 19.7-.41 6.87.09 13.57.1 20.46 0 15.14-.06 30.34.64 45.46.09 1.92 3.09 1.93 3 0-1.25-26.73-.75-53.59-.7-80.31s.48-53.5 1.56-80.3c.61-15.17 1.6-30.23 2.67-45.38.14-1.93-2.87-1.92-3 0zM239 185c.21 7.6-.52 15.09-.47 22.69 0 7.35-.26 14.61-.62 21.94-.18 3.81.4 7.56.19 11.35s-.35 7.54-.36 11.35c0 7.32-.15 14.62-.26 21.94-.21 15.12.7 30.25.62 45.39-.08 14.83 1.52 29.85.82 44.64-.39 8.18.8 16.75 1.26 24.94.49 8.52.8 17.16 1 25.7 0 1.93 3 1.94 3 0-.7-29.74-3-59.43-3.13-89.22 0-7.57-.19-15.13-.33-22.7s.35-15.19 0-22.7c-.33-7.31-.32-14.63 0-21.94s.79-15.32.18-22.7a68 68 0 0 1 .47-12.1c.41-4.24 0-8.59.13-12.86.2-8.61.75-17.13.52-25.72-.05-1.93-3.05-1.94-3 0zM270.38 178c-1 15.56-1.46 31.1-1.89 46.68s.86 31.8-.6 47.46c-.71 7.68.67 15.63.23 23.36a68.77 68.77 0 0 0 0 11.3c.42 3.91-.37 7.64 0 11.51s.43 7.83.61 11.84-.38 8.06-.14 12.06c.23 3.75.95 7.54.87 11.29a103.21 103.21 0 0 0-.07 12.06c.81 8.78 1.24 17.51 1.28 26.34 0 9.07 1.14 18 1.28 27.1 0 1.93 3 1.93 3 0-.13-7.82-1-15.52-1.23-23.33s-.2-15.57-.58-23.35c-.78-15.83-1.72-31.58-1.42-47.44.08-3.84-.87-7.47-.48-11.3.42-4.05-.31-8-.29-12.05 0-7.76.68-15.61.08-23.36s.31-15.61.27-23.35.17-15.58.24-23.36c.16-17.85.7-35.64 1.86-53.46.13-1.92-2.87-1.92-3 0zM295.32 183c.29 7.5.33 15 .58 22.5.23 7.3-.63 14.44-.23 21.75.42 7.49-.49 15-.11 22.5.36 7.26.5 14.49.29 21.76-.21 7.45.25 15 .57 22.49s-.1 15 .33 22.5c.83 14.73.65 29.52 1.49 44.23.47 8.28.23 16.49.79 24.74.57 8.5 1.07 17 1.16 25.48a1.5 1.5 0 0 0 3 0c-.08-7.5-.34-15-1-22.48a72.25 72.25 0 0 1-.31-10.5c.23-3.83-.72-7.42-.63-11.23.33-14.71-.67-29.54-1.17-44.24-.26-7.51-.22-15-.47-22.5s-.11-15.06-.5-22.5c-.38-7.24-.15-14.49-.17-21.75 0-7.51-.49-15-.17-22.5.17-4-.21-8-.41-12-.22-4.24.52-8.49.53-12.75 0-8.49-.27-17-.6-25.5-.07-1.93-3.07-1.94-3 0zM321.38 194c-.95 28.25-2.45 56.48-2 84.77.21 14.11-.34 28.25-.08 42.39s.74 28.21 1.12 42.39c.42 16.11.93 32.37 2.5 48.38.19 1.91 3.19 1.93 3 0-2.75-28-2.69-56.58-3.69-84.71s.47-56.55.94-84.78c.13-8.07-.15-16.14.17-24.24s.81-16.12 1.08-24.2c.07-1.94-2.93-1.93-3 0z"/><path class="cls-2" d="M189.66 347.16c26.43 2.16 52.86 2.33 79.37 3.11 24.54.71 49-.56 73.55-.69a1.5 1.5 0 0 0 0-3c-24.54.13-49 1.4-73.55.69-26.51-.78-52.94-.95-79.37-3.11-1.92-.15-1.91 2.85 0 3zM189.59 273.22c6.57 0 13.2-.82 19.75-.61s13.14.16 19.75-.09c13.13-.49 26.37-.55 39.51-.45s26.35.44 39.5.62 26.35-.11 39.51.19c1.93.05 1.93-2.95 0-3-13.16-.3-26.33 0-39.51-.19s-26.3-.55-39.5-.62-26.38 0-39.51.45c-6.61.24-13.14.3-19.75.09s-13.18.62-19.75.61a1.5 1.5 0 0 0 0 3z"/><g class="cls-4"><path class="cls-5" d="M364.79 140.16c-2 .31-3.9 1-5.84 1.36s-3.91.89-5.81 1.41-3.86 1.08-5.74 1.71-3.66 1.63-5.5 2.36-3.87 1.13-5.66 2-3.6 1.77-5.34 2.71-3.23 2.41-4.91 3.45-3.49 2-5.11 3.08-3.14 2.47-4.69 3.7-3.46 2.11-4.93 3.43-2.94 2.75-4.31 4.16-2.44 3.21-3.71 4.71-2.4 3.19-3.57 4.78-2.32 3.23-3.39 4.9-2.5 3.16-3.45 4.89-1.42 3.75-2.26 5.54-2.22 3.39-3 5.23-.94 3.91-1.57 5.79-1.31 3.76-1.83 5.68-1.07 3.84-1.5 5.78-1 3.87-1.3 5.83-.66 3.94-.9 5.91-.46 4-.59 6-.32 4-.31 6 .73 4 .9 6 .35 4 .71 5.93.27 4.05.84 6a51.32 51.32 0 0 0 2.11 5.65 46.7 46.7 0 0 0 2.71 5.38 46 46 0 0 0 3.51 4.9 45 45 0 0 0 3.95 4.54 51.52 51.52 0 0 0 4.74 3.71 57.86 57.86 0 0 0 5.44 3.37c1.81 1.08 3.7 2 5.65 3s3.64 2.28 5.64 3.09 4.07 1.32 6.1 2 4 1.57 6 2.21c1.84.58 3.86.65 5.76 1.18s3.78.9 5.69 1.36 3.65 1.5 5.57 1.89 3.85.69 5.78 1 3.88.55 5.82.77 3.91.14 5.86.26 3.9.29 5.85.29 3.93.14 5.86 0 3.85-.82 5.78-1.09 3.93-.22 5.83-.65 3.69-1.32 5.54-1.92a55 55 0 0 0 10.8-4.78c1.74-1 3.7-1.62 5.29-2.75s3.15-2.48 4.63-3.76 2.92-2.73 4.27-4.15 2.31-3.26 3.54-4.78 2.75-2.91 3.85-4.52 2.23-3.32 3.22-5 2-3.42 2.86-5.15 1.82-3.52 2.59-5.31 1-3.83 1.67-5.67 1.4-3.67 1.94-5.55 1.51-3.68 1.93-5.59.75-3.88 1-5.82.12-4 .28-5.9.36-3.92.39-5.88 0-3.93-.12-5.89-.13-3.94-.35-5.94-.39-3.92-.75-5.85-.66-3.89-1.15-5.8-1.62-3.61-2.23-5.48-.76-3.89-1.49-5.73-1.5-3.64-2.34-5.42-1.7-3.55-2.65-5.28-2.18-3.27-3.23-4.95-1.84-3.48-3-5.1-2.56-3.09-3.9-4.68-2.66-3-4.11-4.49-3.05-2.63-4.59-4-2.76-3-4.39-4.24-3.55-2-5.28-3.07-3.4-2.21-5.22-3.11a59.13 59.13 0 0 0-5.47-2.71 55.83 55.83 0 0 0-5.94-1.42 49.73 49.73 0 0 0-6-1.07 41.41 41.41 0 0 0-12.11-.25"/></g><g class="cls-4"><path class="cls-2" d="M580 556.55a25.35 25.35 0 0 0-5.4 1.2 22.77 22.77 0 0 0-5.19 1.86 19.16 19.16 0 0 0-4.17 3.58 16.76 16.76 0 0 0-3.29 4.34 16.3 16.3 0 0 0-1.56 5.25 13.77 13.77 0 0 0 .62 5.39 14.26 14.26 0 0 0 2.57 5.48 17.82 17.82 0 0 0 4.88 3.62 20 20 0 0 0 5.5 2.68 25.22 25.22 0 0 0 6.14.06 32.71 32.71 0 0 0 6.09-.48 45.61 45.61 0 0 0 5.8-2c1.73-.63 3.36-1.45 5-2.25s3.58-1.12 5.16-2.06 3.3-2.13 4.79-3.22c-.92-1.41-2.37-2.75-3.28-4.16s-1.87-2.79-2.79-4.2-1.64-3.25-2.73-4.67a23.64 23.64 0 0 0-3.65-4 20.65 20.65 0 0 0-4.56-2.57 35.26 35.26 0 0 0-4.91-1.74c-1.67-.49-3.35-1-5-1.37"/><path class="cls-2" d="M580 555.05c-7.48 1-13.86 3.61-18.28 10-4.22 6.08-3.73 15.59 1.86 20.75 12.46 11.51 32.17 4.12 44.15-4.48a1.51 1.51 0 0 0 .53-2c-3.54-4.81-6.45-10.4-10.3-14.93-4.4-5.17-11.21-6.89-17.54-8.49-1.88-.47-2.68 2.42-.8 2.89 6.53 1.66 13.26 3.38 17.33 9.19 3 4.25 5.63 8.66 8.72 12.86l.54-2.06c-4.7 3.38-10 5.53-15.34 7.65s-13.54 3.78-19 1.18c-7.29-3.49-12.9-10.92-8.64-19.25 3.28-6.42 9.93-9.33 16.76-10.24 1.89-.25 1.91-3.25 0-3z"/></g><path class="cls-5" d="M568.24 421.22a117.61 117.61 0 0 1 29.7 23.21c3.91 4.28 7.18 9.36 10.84 13.9 4.13 5.13 7.16 11.62 9.68 17.66s6 12.15 7.21 18.76 3.1 13.05 3.65 19.85a112.63 112.63 0 0 1-.52 23.29c-.82 6.63-2.87 12.3-5.11 18.56-4.61 12.89-14.38 23.24-26.44 29.42-6.75 3.46-14.12 6.57-21.85 5-8.59-1.72-16.43-8.24-15.95-17.71.46-8.82 9.54-14.72 17.37-16 8.43-1.44 16.25 2.41 22 8.56 9.34 10 12.44 24.37 12.14 37.69-.17 7.51-4.69 16-10.11 21.16-5.77 5.45-14.08 7.5-21.3 10.26-11.97 4.54-24.55 10.22-26.55 24.3-.26 1.89 2.63 2.71 2.9.8 2.63-18.79 24.48-20.76 38.4-27.61 6.48-3.19 10.85-7.54 14.69-13.6 3.95-6.25 4.88-12.58 4.7-19.79-.34-13.91-4.52-29-15.83-38.26-5-4-11.6-7.67-18.2-7-7.46.73-13.67 3.41-18.72 9.05-4.63 5.15-5.36 11.86-3 18.24 2.24 6.15 7.2 9.52 13.12 11.82 13.89 5.41 30.13-3.94 40.26-12.9a61.4 61.4 0 0 0 13-16.7c1.62-3 2.46-6.24 3.64-9.38 1.27-3.42 2.81-7 3.39-10.62a108.12 108.12 0 0 0 1.33-25.59 82 82 0 0 0-1.1-10.73c-.87-4.06-2.16-8-2.83-12.15-1.37-8.26-5.74-16.55-9.17-24.13-3.24-7.17-7.87-13.39-12.75-19.48-2.64-3.31-4.73-6.78-7.7-9.84s-6.09-5.74-9.14-8.51a105.86 105.86 0 0 0-20.16-14.09c-1.69-.93-3.21 1.66-1.51 2.59z"/><g class="cls-4"><path class="cls-5" d="M571.94 419.76c1.82-13.11 2.22-29.17-9.92-37.73-15-10.58-39.84-7.24-47.67-26.76a1.5 1.5 0 0 0-2.94.4c-.3 4.51-3.13 8.77-2.58 13.31.44 3.63 2.76 6.92 5.12 9.59 6.77 7.64 16.68 13.94 17.86 24.86.2 1.9 3.2 1.92 3 0a29.19 29.19 0 0 0-11-19.2c-4.13-3.21-9-7.87-11.05-12.73-2.26-5.27 1.27-10.45 1.62-15.83l-2.95.4a27.91 27.91 0 0 0 12.76 14.69c6.75 3.76 14.86 5.14 22.15 7.55 8.93 2.95 16.86 6.14 21 15.11 3.64 7.91 2.86 17.12 1.69 25.54-.26 1.89 2.63 2.7 2.89.8z"/></g><g class="cls-4"><path class="cls-5" d="M567.34 419c-8.57 4.42-16.68 9.7-26.26 11.67-10.8 2.23-21.22-.81-28.6-9-5.16-5.7-9.32-12.33-16.71-15.35a22.35 22.35 0 0 0-18.36.5l2 2c4.92-8.25 13.79-10.93 22.62-12.56 3.33-.61 6.39-1.9 9.85-1 2.38.59 3.84 2.21 5.76 3.58a52.38 52.38 0 0 0 9 5.05c5.63 2.48 12.06 2.49 17.85 1.65 4.46-.66 8.86-1.14 13 1.26a17.44 17.44 0 0 1 8.88 12.94c.27 1.9 3.16 1.09 2.89-.8a19.88 19.88 0 0 0-16.61-16.78 29.73 29.73 0 0 0-8.86.29c-7.61 1.23-13.42-.07-20.14-3.63-3.72-2-6.75-5.42-10.91-6.46-4.89-1.22-10.18.7-15 1.53-8.18 1.41-16.57 6.2-20.89 13.45-.82 1.38.76 2.65 2.05 2.05 9.55-4.45 18.8-.2 25.27 7.15 5.17 5.89 9.55 12.51 17.15 15.37 17.61 6.62 32.24-2.49 47.52-10.37 1.72-.89.2-3.48-1.52-2.59z"/></g><g class="cls-4"><path class="cls-5" d="M494.85 393.52c-5.62-1.56-11.24-2.81-16.79-4.6l-.79 2.89c6.71 1.5 13-1.06 17.17-6.5 4.31-5.65 4.24-12.33.41-18.32l-2.35 1.82a34 34 0 0 0 19.8 9.12c1.92.2 1.9-2.8 0-3a30.94 30.94 0 0 1-17.68-8.24c-1.21-1.12-3.31.33-2.36 1.82 3.12 4.87 3.44 10.25-.2 14.95-3.41 4.42-8.45 6.7-14 5.46a1.5 1.5 0 0 0-.79 2.89c5.55 1.79 11.16 3 16.78 4.6a1.5 1.5 0 0 0 .8-2.89z"/></g><g class="cls-4"><path class="cls-5" d="M481.19 391.25a21.84 21.84 0 0 0 6.38.63 42.25 42.25 0 0 0 6.33-1.06c2-.48 3.93-1.7 6-2.31s4.18-1 6.2-1.56a61.21 61.21 0 0 1 6.21-1.55 26.12 26.12 0 0 1 6.43-.35c2.12.21 3.87 1.28 5.79 2.33a20.52 20.52 0 0 1 2.55 4.81c1.15 2.5 1 2.55 2.19 5s4.83 3.63 2.48 5.06c-2.77 1.69-3.08-1.36-6-2.78s-2.81-1.63-5.69-3.12c-2.08-1.08-2.17-.91-4.21-2.06s-1.7-2.08-4-2.31c-3.67-.36-3.6.7-7.24 1.28s-3.64.95-7.33 1c-2.72 0-2.65-.7-5.32-1.21l-5.35-1c-2.71-.49-2.74-.34-5.42-.8z"/><path class="cls-5" d="M480.79 392.7c11 2.2 20.54-3.68 31.15-5.7 3.86-.74 9.23-1.19 12 2.27 1.08 1.33 1.68 3.37 2.35 4.92a23.9 23.9 0 0 0 2.37 4.94c.12.15 1.68 1.45 1.7 1.75 0 .51-2.64-1.86-2.49-1.74-3.18-2.47-7.23-3.78-10.69-5.78s-5.13-3.58-9.43-2.5c-5 1.26-9 2.28-14.14 1.1-4-.93-8-1.51-12.07-2.15-1.88-.31-2.7 2.58-.79 2.89 4.67.74 9.19 1.81 13.78 2.77 4.85 1 9.34-.81 14-1.71 3.51-.69 6.08 1.64 9 3.12 2.44 1.22 5.06 2.46 7.37 3.92s5.81 5.9 8.47 1.95a2.53 2.53 0 0 0 .31-2.41c-.29-.84-1.11-1.31-1.65-1.95a16.62 16.62 0 0 1-2.67-4.46c-1.82-4.2-2.81-7.72-7.35-9.48-5.89-2.28-12.14 0-17.94 1.45-7.72 1.94-14.37 5.54-22.58 3.91-1.79-.38-2.6 2.51-.7 2.89z"/></g><path class="cls-2" d="M559.78 592.81c-1 1.79-1.57 3.79-2.43 5.63a34.76 34.76 0 0 0-2.26 5.64 21.19 21.19 0 0 0-.88 6 8.06 8.06 0 0 0 1.18 4.29 3.81 3.81 0 0 0 3.65 2c2.27-.28 3.58-2.69 3.47-5s-1.27-4.37-2-6.56a23.06 23.06 0 0 1-.7-5.94c-.07-2-.19-4-.15-6"/><path class="cls-2" d="M559.13 592.43c-2.14 4.37-11.35 22.9-1.19 24.61 3.36.56 5.35-2.76 5.32-5.7 0-2.38-1.33-4.52-2-6.76-1-3.63-.84-8-.83-11.72a.75.75 0 0 0-1.5 0 79.28 79.28 0 0 0 .31 9c.27 2.51 1.29 4.64 2 7l.51 2.47q-7.66 2.05-6.76-2.8a16.79 16.79 0 0 1 1.27-5.7 89.29 89.29 0 0 1 4.15-9.65c.43-.86-.86-1.62-1.29-.76zM570.44 602a21.41 21.41 0 0 1 .39 5.26 26 26 0 0 1-.2 5.29 28.72 28.72 0 0 1-1.7 5c-.91 2.1-2.4 4.53-1.35 6.57 1.19 2.32 5.14 2.4 7 .54s2.05-4.95 1.44-7.48a64.64 64.64 0 0 0-2.12-8.18 74.37 74.37 0 0 0-3.4-7.08"/><path class="cls-2" d="M569.71 602.16a28 28 0 0 1-.13 11.45c-.69 2.69-2.68 5.16-3 7.93-.38 3.41 2 5.6 5.46 5.1 10.77-1.56 1.64-20.17-.91-25.11-.44-.85-1.74-.1-1.29.76a48.38 48.38 0 0 1 4.5 11c.49 2 1.27 4.48 1.19 6.59-.2 6-9 8.34-6.26-1.26.73-2.51 2-4.68 2.28-7.37a34 34 0 0 0-.4-9.44c-.18-.94-1.62-.54-1.45.4z"/><path class="cls-5" d="M490.93 414.45c-.91 1.31-2.34 2.72-3.1 4.48a15.93 15.93 0 0 0-1.47 5.3 7.28 7.28 0 0 0 1.6 5.18c1.22 1.33 4 1.71 5.09.28.92-1.18.3-3-.16-4.46-.61-1.84-1.06-3.8-1.57-5.68a10.72 10.72 0 0 1-.47-5.73"/><path class="cls-5" d="M490.28 414.07c-2.28 3.08-4.52 6.14-4.67 10.16-.11 2.7.88 5.89 3.66 6.83 1.94.66 4.3.15 4.89-2.05.45-1.65-.45-3.55-.9-5.09-.91-3.1-2.24-6.68-1.69-9.9.16-.94-1.28-1.35-1.45-.4a14.14 14.14 0 0 0 .47 6.13c.34 1.33.69 2.67 1.07 4 .31 1.09 1.34 3.16 1.11 4.27-.9 4.32-4.86.51-5.38-1.22a9.32 9.32 0 0 1 .33-5.5c.78-2.53 2.32-4.39 3.86-6.47.57-.78-.73-1.53-1.3-.76z"/></g></g></svg>