<svg xmlns="http://www.w3.org/2000/svg" viewBox="0 0 800 800"><defs><style>.a{fill:#e83131;}.b{fill:#fca14f;}.c{fill:#fff;}</style></defs><title>three_of_a_kind</title><path d="M322.84,339.9c-1.6-3.63-3.32-7.22-4.77-10.91-1.55-3.95-3-8-4.21-12-.92-3.17-1.33-6.5-2-9.76-.09-.45-.28-.88-.37-1.33-.14-.75-.58-.89-1.19-.6-1.17.57-2.31,1.19-3.47,1.76-3.41,1.65-6.79,3.34-10.24,4.9-3,1.35-5.76.76-8.33-1.2-.68-.51-.82-1-.34-1.61a15,15,0,0,1,2.19-2.49,60.11,60.11,0,0,0,14.28-16.91c2.09-3.6,4.29-7.15,6.28-10.8a22.57,22.57,0,0,0,1.32-4.15c-1.35.44-2.71.83-4,1.32-2.59,1-5.16,2-7.75,2.94a13,13,0,0,0-4.37,2.78c-3.85,3.59-7.84,7.06-11.94,10.37-3.39,2.72-6.94,5.26-10.57,7.66-3.86,2.55-7.9,4.83-11.86,7.23-1.19.72-2.32,1.53-3.55,2.16-2.3,1.19-4.64,2.29-7,3.38-1.65.78-3.38,1.4-5,2.24-1.86,1-3.08.39-3.15-1.71a23.13,23.13,0,0,1,.14-4.16c1.32-9.1,3.18-18.09,6.66-26.64,2.65-6.51,5.6-12.91,8.4-19.37a9.76,9.76,0,0,0,.36-1.2,4.38,4.38,0,0,0-1.3,0c-5.34,1.76-10.92,2-16.44,2.56-4.06.39-8.13.71-12.19.84a19.29,19.29,0,0,1-5.76-.71c-2.6-.74-2.91-2.46-1.24-4.59a38.82,38.82,0,0,0,2.9-4.36,87.82,87.82,0,0,1,11-14.67c2.85-3.17,5.9-6.15,8.86-9.22a8.75,8.75,0,0,0,1.26-1.47c.1-.15-.23-.83-.45-.88a74.84,74.84,0,0,1-15.26-4.91c-4.28-2-8.59-3.93-12.79-6.08-2.78-1.43-5.4-3.19-8.09-4.79-3.34-2-6.65-4-10-6a7.45,7.45,0,0,1-3.31-4,1.58,1.58,0,0,1,.66-2.15,9.23,9.23,0,0,1,1-.56c8.64-4.07,17.35-8,26.5-10.73,3.18-1,6.48-1.54,9.73-2.25q4.6-1,9.22-1.95a20.73,20.73,0,0,1,3.57-.57c6.3-.19,12.6-.3,18.91-.44a3.65,3.65,0,0,0,1.1,0,.9.9,0,0,0,.45-.71,3.84,3.84,0,0,0-.71-1.19A15.3,15.3,0,0,1,264.55,166a4.8,4.8,0,0,0,.5-4.53c-2-6.19-1.77-12.38,1.85-18.12,1.19-1.88,2.3-3.81,3.39-5.75a14.59,14.59,0,0,0,.42-14.12c-.55-1.16-.92-2.42-1.43-3.61-2.72-6.4.09-15.1,4.83-19.58a42.22,42.22,0,0,1,12.08-7.7c2.1-.95,4-2.34,6.15-3.17,3.18-1.25,6.48-2.21,9.74-3.26a11.82,11.82,0,0,0,7.48-6.54c.76-1.68,1.51-3.38,2.1-5.12,1.49-4.38,4.72-7,8.72-8.84a17.21,17.21,0,0,1,9.51-1.39c2.19.28,2.3.23,2.95-1.91a16.75,16.75,0,0,1,7.22-9.85,15.47,15.47,0,0,1,14.7-.9,25.8,25.8,0,0,0,15.4,1.84c4.54-.86,9-1.93,13.58-2.84,7.46-1.51,14.39-.57,20.27,4.71a4.6,4.6,0,0,0,4.51,1.09,46.82,46.82,0,0,1,10.5-.89c3.91.13,7.29,2.15,10.05,4.82,1.1,1.06,1.51,2.91,2,4.47a29.8,29.8,0,0,1,.53,3.57,6.09,6.09,0,0,0,5.27,5.34,40.25,40.25,0,0,0,5.27.41c6.21.24,12.23,1.53,17.48,4.86,6.32,4,8.78,10,6.56,17.24-2.39,2.38-1,4,.78,6.08,3,3.43,3.38,7.9,3.83,12.25.16,1.47.24,3,.47,4.42.8,4.94,4.1,7.94,8.11,10.38,2.06,1.25,4.22,2.36,6.18,3.76,4.88,3.51,9.1,11.1,7.55,17.69a11.81,11.81,0,0,1-3.32,6,28.09,28.09,0,0,1-10.15,6.57c-4,1.41-6.5,4.14-6.17,8.82a37.46,37.46,0,0,1-.45,5.25c-.29,4-2.44,6.95-5.19,9.52a6.76,6.76,0,0,1-3.19,1.44,2.58,2.58,0,0,0-2,1.57c-2.33,4.57-6.05,7.52-10.74,9.57-4.22,1.85-8.29,4-11.43,7.63a13.09,13.09,0,0,0-3,8.73c-.19,6.68-.24,13.36-.71,20a37.91,37.91,0,0,1-2,8.91c-1.2,3.71-4.14,6.21-7.3,8.14-3,1.81-5.93,3.67-9.47,4.51-2.8.67-5.31.12-7.91-.46a16.1,16.1,0,0,0-10.28.74c-5.78,2.47-10.74,6.05-15.67,9.85a23.48,23.48,0,0,1-9.94,4.05c-1.72.33-3.42.82-5.15,1.09-1.45.23-2.93.26-4.4.37-.63,0-1.28,0-1.91.08-.83.06-1.08.39-.74,1.27,1.58,4,3.27,7.85,6.38,11a47.79,47.79,0,0,1,4.12,5.14,1.17,1.17,0,0,1-.7,2,8.76,8.76,0,0,1-4.31.07c-3.2-1.18-6.24-2.77-9.35-4.18-.33-.15-.67-.27-1-.4a4.77,4.77,0,0,0,.12,1.27,24.68,24.68,0,0,0,5.08,8.24c2.84,3,5.86,5.88,8.87,8.74a9,9,0,0,0,2.38,1.38,4.39,4.39,0,0,1,2.77,3.52c.25,1.66,0,2.33-1.59,2.24a26,26,0,0,1-6.29-.93,47.34,47.34,0,0,1-24.15-17.38,6.63,6.63,0,0,0-1-.81c1.05,3.25,1.87,6.06,3.82,8.55,2.17,2.77,4,5.73,6.76,8.07a5.74,5.74,0,0,1,1.49,3.15c.43,2.27-1.1,3.68-3.24,2.91a86.48,86.48,0,0,1-9.68-4.07c-1.5-.77-2.62-2.29-3.95-3.43a4.7,4.7,0,0,0-1.15-.55,4.34,4.34,0,0,0-.12,1.07,43,43,0,0,0,.77,4.37,147.06,147.06,0,0,0,8.53,25,88.9,88.9,0,0,0,5.52,9.65c.95,1.54,1.53,1.41,2.13-.31a33.38,33.38,0,0,0,1.18-19.16,6.1,6.1,0,0,1,0-3.2,2.3,2.3,0,0,1,4-.95,15.6,15.6,0,0,1,2.77,3.78,58,58,0,0,1,3.95,8.56,35.57,35.57,0,0,1,2,9.72,92.5,92.5,0,0,1-.9,12.74,15.61,15.61,0,0,1-1.29,4.51,2.41,2.41,0,0,0,.64,3c3.16,3.27,6.33,6.52,9.41,9.87,6,6.51,12.81,12.07,19.63,17.64,2.14,1.75,4.41,3.35,6.64,5a4.1,4.1,0,0,0,1,.36,5.41,5.41,0,0,0,0-1.06,94.9,94.9,0,0,1-2.16-22.91c.15-3.05.61-6.08.9-9.13.09-.92,0-1.87.18-2.77a2.59,2.59,0,0,0-1.21-2.86c-5.55-3.79-6.32-9.4-5.28-15.3a35.91,35.91,0,0,1,8.69-18.29,78.28,78.28,0,0,0,9.83-12.75c3.09-5.26,3.93-10.9,3.48-16.86a18.25,18.25,0,0,1-.1-2.76,2.35,2.35,0,0,1,1.94-2.1,2.11,2.11,0,0,1,2.42.88,35,35,0,0,1,7.59,15.28,57.39,57.39,0,0,1,1.16,20.44c-1.53,10.67-5.34,20.35-12.64,28.51-2,2.22-3.83,4.56-6.62,5.8-1,.43-.87,1.13-.78,1.82.45,3.68.78,7.39,1.46,11a118.85,118.85,0,0,0,7.6,25.84c1.19,2.71,2.26,5.48,3.38,8.22.34.82.68,1.11,1.61.48a31.14,31.14,0,0,1,5.72-3.42,76.35,76.35,0,0,1,8.45-2.58c1.15-.32,2.4-.28,3.55-.59,4-1.05,7.89-.41,11.81.42a58.78,58.78,0,0,1,13.06,4.61c3.14,1.51,6.29,3.14,8.77,5.71a2.08,2.08,0,0,0,.38.4c3.55,2.09,6.35,5.06,9.16,8a104,104,0,0,1,6.92,7.92c2.16,2.76,4.06,5.73,6.07,8.61.74,1.07,1.15.77,1.72-.22,2.29-4,4.67-8,7-12a3.31,3.31,0,0,1,.5-.68c3.5-3.55,6.83-7.32,10.61-10.57a25.29,25.29,0,0,1,7.49-4.07c3.79-1.45,7.74-2.5,11.64-3.63a23.32,23.32,0,0,1,8.8-.39c4.86.48,9.84.86,14.38,2.81a104.22,104.22,0,0,1,11,5.86c1.67,1,3.1,2.35,4.68,3.48a31.91,31.91,0,0,1,8.6,8.54c1.09,1.69,2.59,3,3.72,4.73,2.6,4,3.15,8.44,4.11,12.84a25.71,25.71,0,0,1,.15,9.38c-.42,2.83-.48,5.72-.72,8.58a4,4,0,0,0,.91,2.48c3.82,6.37,7.23,12.83,8.12,20.46.65,5.57-.31,10.88-1.18,16.25a5.65,5.65,0,0,0,.69,4.18c2.5,4.25,3.16,9,3.67,13.85.88,8.36-1,16.36-3.15,24.32a98.16,98.16,0,0,1-7.64,18.77c-3.58,7-7.33,13.92-11,20.89-1.68,3.2-3.24,6.45-5,9.6-1.36,2.41-2.92,4.72-4.49,7-3.44,5-6.94,10.06-10.44,15.07-2.49,3.57-4.92,7.18-7.57,10.63-2.88,3.74-6,7.28-8.95,11-2.25,2.82-4.4,5.73-6.54,8.63a159.78,159.78,0,0,1-12.49,15.6,82.4,82.4,0,0,1-8.88,8.35c-1.64,1.29-2.45,1.42-4.18.28a11.78,11.78,0,0,0-1.09-.84c-.94-.45-1.57-.31-2.27.71-1.83,2.65-3.89,5.14-5.86,7.7l-.07.09-1,1-.11.14-1.35,2.1c-.2,0-.29.1-.28.3l-.66.87c-.92.84-.31,1.4.48,1.42,3.24.06,6.55.68,9.62-1a.59.59,0,0,1,.43-.07l1.19-.55h0l1.1-.62,1-.6,1.25-.5h0l.67-.32a.79.79,0,0,1,.46-.19l1.16-.57,1.11-.51,2.78-.62h0l2.43.45,0,0,.18,1.46c-.32.52-.64,1-1,1.55l-.38.42-.57.64-.09.11-.58.55-.41.42-.48.58-.16.13-.66.53-.4.37-.73.72-.39.32-1,.72-.17.1-1.11,1h0l-1.44,1.07-.77.48-.84.68-.83.45a.3.3,0,0,1-.28.09l-.83.45a.3.3,0,0,1-.26.15.25.25,0,0,0-.34.2.81.81,0,0,1-.45.27l0,0-.89.58-.8.45a.29.29,0,0,1-.26.15.19.19,0,0,0-.3.13l-.86.39-.83.36a.39.39,0,0,1-.31.18l-2.41.87-.86.3-.86.29a.59.59,0,0,1-.41.18l-1.78.48a.7.7,0,0,1-.42.11l-.72.45a.44.44,0,0,1-.34.12l-1.83.28a23.09,23.09,0,0,1-8,2.21,45.73,45.73,0,0,0-4.86,1,30.71,30.71,0,0,0-7.76,3.29c-4.88,3.35-9.78,6.68-14.64,10.06-1.36,1-2.59,2.1-3.92,3.1-3.9,2.94-8,5.65-11.68,8.82-4.91,4.21-10.11,8.16-14,13.44a11,11,0,0,0-1.26,1.82c-2.46,5.23-7.29,6-12.08,5.73-5.3-.32-10.12-2.57-14.65-5.49-5.44-3.5-10.78-7.23-16.87-9.59q-7.89-3.06-15.83-6a16.38,16.38,0,0,0-2.46-.35c-1.89-.38-3.81-.71-5.66-1.23a1.55,1.55,0,0,1-.83-2.48,6.67,6.67,0,0,1,2-2.24c5.63-3.4,6.47-8.8,5.8-14.53-.48-4.11-1.43-8.24-4.29-11.58-3.7-4.32-9.52-5.91-14-3.42a24.48,24.48,0,0,0-4,3.37c-.35.31-.56.76-.89,1.08a3.1,3.1,0,0,1-3.83.44,2.88,2.88,0,0,1-.42-3.77,40,40,0,0,1,3.34-3.68,35.83,35.83,0,0,0,3.43-3.55c1.92-2.71,3.71-5.52,5.43-8.37a17.42,17.42,0,0,0,2.58-9c0-2,0-3.9.05-5.84a7.16,7.16,0,0,0-1.77-5.13c-2.5-4-6.11-4.56-9.66-1.81a9.46,9.46,0,0,0-2.78,4c-.88,2-.7,2.57,1.14,3.88,1,.74,1.86,1.5,1.58,2.91-1,1.65-2.49,1.67-4.13,1a6.08,6.08,0,0,1-4.07-7.06c1.07-5.56,4.47-9.24,9.7-11.21,2.6-1,5.12-.32,7.52.88a12.36,12.36,0,0,1,1.7,1c1,.72,1.5.23,1.85-.69.51-1.29,1-2.59,1.5-3.89a22.76,22.76,0,0,1,9.29-11.48c4.33-2.67,9.17-4.3,14.55-3,7.3,1.7,12.52,10.06,12.83,15.62.22,3.9.27,7.9-2.16,11.25-2.28,3.13-4.64,6.2-8.85,7.1-2.68.57-5-.27-7.22-1.36-4.82-2.34-7.6-9.19-5.49-14s7.84-8.38,13.46-6.29a7.69,7.69,0,0,0,1.35.27,11.86,11.86,0,0,0,1,2.26c1.64,2.3,1,4.57,0,6.82-.84,1.83-4.5,3.08-6.29,2.25-1.38-.64-1.43-1.61-.14-2.64.57-.46,1.14-.93,1.67-1.45s1.37-1.34.66-2.11a3,3,0,0,0-2.19-.7,5.61,5.61,0,0,0-4.4,8.21,19.64,19.64,0,0,0,2.4,3,3.19,3.19,0,0,0,3.32.85c3.92-.76,8-5.07,8.44-9a12.5,12.5,0,0,0-1.12-7.56c-1.63-3-3.23-6.11-7.07-6.88-4.82-2.07-9.32-.6-13,2.22a21.08,21.08,0,0,0-8.1,12.3,23.41,23.41,0,0,0-.52,4.94c0,3.14.42,6.3.18,9.41-.46,5.94-1.49,11.78-5.1,16.8-.11.15-.2.31-.3.46-.9,1.47-.83,1.53.8,1.91a33.53,33.53,0,0,1,4.52,1.34,16.78,16.78,0,0,1,9.69,9.78c2.54,6.31,3.79,12.78,1.8,19.51-.34,1.15-.83,2.26-1.22,3.39-.32.92,0,1.44,1,1.4,2.78-.1,5.55-.24,8.33-.31a73,73,0,0,0,21.44-4.19c6.75-2.27,13.51-4.54,20.18-7a101.38,101.38,0,0,0,18.42-9.6c4.05-2.56,7.92-5.42,11.77-8.28a3.77,3.77,0,0,0,.87-2.38,110.94,110.94,0,0,1,3.79-19.62,40.06,40.06,0,0,1,7.51-14.15c1.9-2.24,4.21-4.13,6.33-6.18l.68-.42a.47.47,0,0,1,.34-.2l2.28.18c-.56,2-1.11,4.05-1.69,6.08a78.94,78.94,0,0,0-3.09,16c-.17,2.3-.11,4.61-.11,6.91,0,.28.3.55.46.83a3,3,0,0,0,.68-.4,231.07,231.07,0,0,0,18.15-20.27l.17-.22c2.08-2.88,2.1-3.18-.5-5.68-3-2.89-6.13-5.65-9.12-8.55-2-1.94-3.89-4-5.73-6.06-4-4.51-8-9-11.87-13.63-5-6.08-10-12.2-14.72-18.48-5.82-7.68-11.61-15.43-16.07-24-3.92-7.54-8.23-14.93-11-23.05-.65-1.92-1.7-3.71-2.41-5.62a55.88,55.88,0,0,1-3.84-18.38c-.05-2.31-.51-4.61-.59-6.93a12,12,0,0,1,.47-4.65,5.17,5.17,0,0,0-.4-4.45,57.18,57.18,0,0,1-4.55-16.82c-.48-4.23-.69-8.47.53-12.65a2.88,2.88,0,0,0-.21-2.11c-1.05-1.59-1.21-4-3.76-4.31-1.84-.2-3.69-.42-5.54-.5a1.53,1.53,0,0,0-1.19.77c-2.83,7.4-11.3,11-19.14,10.59-3.14-.16-6.28-.56-9.4-1a15.84,15.84,0,0,1-4.27-1.23c-4.54-2.08-9.12-4.1-13.51-6.49a34.17,34.17,0,0,0-14.78-4.44,19.31,19.31,0,0,0-10.18,2.3c-2.15,1.17-3.42,1.13-4.48-.22a3.74,3.74,0,0,1,.4-5.28c2.69-2.25,5.54-4.31,8.36-6.4,1.19-.88,2.51-1.59,3.72-2.45,5-3.55,10.86-4.59,16.79-5.3a10,10,0,0,0,1.66-.17c4.35-1.35,8.78-1,13.21-.6s8.87.67,13.27,1.31a32.74,32.74,0,0,1,6.87,2.09,42.83,42.83,0,0,1,6.8,3.15,35.84,35.84,0,0,1,4.88,4c.92.8,3.65,1.17,4.54.42.22-.18.21-.81.09-1.16a45.55,45.55,0,0,1-2.63-12.19c-.33-5.83-.43-11.61.92-17.41a52.06,52.06,0,0,1,3.38-10.84c.59-1.24.08-1.89-.8-2.57-2.41-1.88-4.81-3.79-7.21-5.68l-.44-.35c-1.19-1-2.23-2.46-3.6-2.9s-2.89.42-4.35.42c-5.07,0-10.15.33-15.12-1.42-3.74-1.31-7.75-1.86-11.48-3.18a46.81,46.81,0,0,1-7.33-3.88c-1.12-.65-2.3-1.47-1.76-3.06.45-1.3,1.95-1.68,3.81-1.43,3.58.46,7.16.88,10.76,1.15a26.62,26.62,0,0,0,9.84-1.46,4.83,4.83,0,0,0,1.09-.68,6.74,6.74,0,0,0-.75-.76c-1.26-.94-2.63-1.76-3.81-2.79q-10-8.82-19.92-17.73a31,31,0,0,1-2.61-2.87c-5-5.83-11.66-9.7-17.66-14.34a112.91,112.91,0,0,0-10.76-7.36c-4.44-2.66-9.09-5-13.64-7.46a52.93,52.93,0,0,0-5.12-2.78c-4.88-2-9.85-3.78-14.75-5.73a1.9,1.9,0,0,0-2.21.46c-3.12,2.54-6.48,4.64-10.54,5.33-6,1-11.94,1.29-17.75-1-3-1.21-6.07-2.21-9-3.51a59.28,59.28,0,0,1-6-3.34c-2-1.17-4-2.34-5.88-3.67-2.84-2-6.14-2.57-9.41-3.12-2.6-.42-5.24-1.2-7.91-.22a2.39,2.39,0,0,1-1.37.12c-.94-.25-1.84-.64-2.75-1a9,9,0,0,1,1.38-2.21c4.22-3.75,9.27-5.91,14.57-7.73,4.4-1.51,9-2.08,13.42-3.42s8.8-.95,13.25-.78a49,49,0,0,1,18.58,4.17,25.08,25.08,0,0,1,9.38,6.77,5.93,5.93,0,0,0,4.83,2.19,63.83,63.83,0,0,1,8.8,1.05c4.56.8,9.09,1.73,13.61,2.7,2.16.46,4.27,1.15,6.4,1.74l.95.24Zm-44.9-185.31.5-.55a8.83,8.83,0,0,1,.23-9.37l.42-.63c.55-.95,1-1.94,1.66-2.84a36.65,36.65,0,0,0,2.27-3.06,21,21,0,0,0,1.48-16.9c-1.55-4.79-1.33-9.38,2.09-13a25.76,25.76,0,0,1,10.16-7.11c3.76-1.28,7.57-2.44,11.32-3.76a45.72,45.72,0,0,0,5.85-2.5,8.67,8.67,0,0,0,4.37-5.18c.52-1.58,1.17-3.11,1.8-4.65,2-4.84,5.18-7,10.38-7.13.29,0,.83-.21.85-.36A13.48,13.48,0,0,1,334,71.49c.38-.58.23-1.18-.46-1.27-2.56-.33-5.08-1.12-7.71-.32-4.68,1.43-7.91,4.27-9.29,9.06a16.42,16.42,0,0,1-3.4,6.91A21.51,21.51,0,0,1,302,92.71a40.28,40.28,0,0,0-5.32,1.48,84.49,84.49,0,0,0-15.74,8.23c-3.14,2-4.9,5.27-6.09,8.73-1.29,3.72-.53,7.31,1.29,10.72a16.43,16.43,0,0,1,2.32,9.55A28,28,0,0,1,273,145.49a15.58,15.58,0,0,0-2.8,11.84c.2,1.45.47,1.56,1.75.76s2.47-1.6,3.71-2.4l.71-.45a.45.45,0,0,1,.34-.18l1.25-.49Zm36.53,189a.44.44,0,0,1-.36-.13l-1.86-.45a.41.41,0,0,1-.36-.11c-1.72-1.24-3.72-1-5.65-1.07a.61.61,0,0,1-.47-.13l-1.77-.43a.65.65,0,0,1-.45-.09l-1.75-.46a.85.85,0,0,1-.51-.2c-2.32-.29-4.65-.59-7-.85-.22,0-.46.15-.69.23.16.2.28.51.48.57,1.12.33,2.26.6,3.39.89,4.51,1.94,9.05,3.81,13.51,5.83,8.45,3.82,17.09,7.26,24.61,12.86,5.72,4.27,11.29,8.69,15.79,14.31,1.68,2.08,3.38,4.14,5.2,6.1,2.07,2.24,4.21,4.43,6.45,6.5,3.13,2.88,6.32,5.71,9.59,8.43,3.64,3,7.42,5.85,11.09,8.83.78.63,1.36,1.19,2.4.52a4,4,0,0,1,4.51,0,85.33,85.33,0,0,1,9.49,6.65c2.47,2.12,2.45,4.33.6,6.67-.72.9-.1,1.08.41,1.44,2.63,1.89,5.27,3.76,7.9,5.66a181.51,181.51,0,0,1,23.71,21c3.36,3.45,6.7,6.92,10.15,10.29,5.74,5.62,11.59,11.15,17.35,16.77a44.41,44.41,0,0,1,8,10.21,7.4,7.4,0,0,1,1,2.84c.15,1.78-.86,2.54-2.58,2.09a13.15,13.15,0,0,1-2.58-1,69.53,69.53,0,0,0-17-5.9c-3.68-.84-7.5-1.13-11.25-1.65-7.87-1.1-15.74-2.22-23.73-1.35-.63,0-1.27-.06-1.91,0a3.15,3.15,0,0,0-.76.23c.26.23.49.61.78.66a17,17,0,0,0,2.15.18c3.56.59,7.12,1.13,10.68,1.77,6.47,1.16,13,2,19.37,3.66,8.16,2.07,16.21,4.64,24.25,7.2a69.72,69.72,0,0,1,15.53,6.63c.26.16.84.23,1,.08a1.27,1.27,0,0,0,.12-1c-.93-3-1.74-6-2.9-8.95-1.82-4.59-4.77-8.53-7.59-12.54-.85-1.21-1.38-2.69-3.34-1.69a1.74,1.74,0,0,1-1.31-.25c-1.2-.65-2.37-1.36-3.51-2.09a33.81,33.81,0,0,1-5-3.41,19.1,19.1,0,0,1-4.66-8.12,3,3,0,0,1-.06-2.13c1.09-1.74.42-2.88-.91-4a16.89,16.89,0,0,1-1.2-1.53c-2.62-2.86-5.07-5.93-7.94-8.52-6.45-5.81-13.19-11.3-19.66-17.09A37.9,37.9,0,0,1,414.65,412c-1.13-3.12-2.2-6.27-3.06-9.47-1.22-4.56-2.43-9.14-3.27-13.77-1-5.69-1.64-11.45-2.43-17.17a14.4,14.4,0,0,0-.66,4c.09,4.17.14,8.35.52,12.49a62.15,62.15,0,0,0,4,17.54,36.32,36.32,0,0,1,1.54,6.67c.29,1.5-.56,2.45-1.86,3.06s-2.06-.29-2.73-1.2a57.26,57.26,0,0,0-8.95-9.78c-1.91-1.6-3.67-3.38-5.52-5.06-3.13-2.87-6.29-5.72-9.43-8.59-2.51-2.31-5.08-4.56-7.49-7-3.4-3.4-6.66-6.94-10-10.38-1.49-1.52-3.15-2.86-4.61-4.39a133.59,133.59,0,0,1-15.52-20.19c-2.73-4.26-4.7-9-6.94-13.57-1-2.07-1.52-4.45-2.82-6.3-3-4.32-6.22-8.51-9.63-12.52-1.52-1.79-3.68-3.05-5.63-4.46-.34-.25-1,0-1.56-.05a4.26,4.26,0,0,0,0,1.29,117.53,117.53,0,0,0,3.95,11.28c2.25,5,4.87,9.78,7.51,14.57,2,3.7,3.34,7.85,6.44,10.94.9.89.45,1.91-.23,2.77a1.84,1.84,0,0,1-2.69.49c-1.61-1.08-3.21-2.19-4.82-3.28a19.65,19.65,0,0,0-2.77-1.81c-3.19-1.47-6.43-2.84-9.65-4.24Zm-59.17-40-1.05,1.71c.57-.22,1.15-.43,1.71-.68.15-.07.26-.25.39-.38a14,14,0,0,1,4.3-2.8,24.36,24.36,0,0,0,4.91-2.55q8.19-5.49,16.27-11.15a62.89,62.89,0,0,0,5.09-4.3,7.13,7.13,0,0,0,.95-1.27,9.55,9.55,0,0,0-1.72-.41c-1.2,0-2.42.09-3.61,0a7,7,0,0,1-2.37-.65c-1.88-.93-2.17-2.45-.79-4.05a12.2,12.2,0,0,1,1.29-1c3.89-3.4,8-6.63,11.61-10.28,2.59-2.6,4.61-5.76,6.84-8.71.82-1.09,1.49-2.28,2.24-3.43-1.42-.36-2.83-.78-4.26-1.07-1.62-.32-2.67.29-3.67,1.73-2.84,4.11-5.85,8.11-8.92,12.06-6.36,8.18-13.72,15.55-19.58,24.15C261.88,294.89,258.52,299.17,255.3,303.54Zm104-21.6-.51-1.47a.35.35,0,0,0-.22-.43c-1.22-.56-1.05-1.77-1.35-2.78-.81-2.78-1.24-5.81-4.72-6.78-.58-.16-1-.78-1.58-1.11a15.87,15.87,0,0,0-2.21-1.13c-.27-.11-.88,0-.94.13-1,2.45-2.63,4.81-1.41,7.66.55,1.28,1.18,2.53,1.75,3.79.4.89.67,2-.3,2.48a5.05,5.05,0,0,1-2.58.12c-.31,0-.61-.39-.9-.63-1.21-1-2.39-2-3.64-3-1.85-1.41-3.62-2.88-4.52-5.13-.44-1.11-1-.85-1.59-.16q-2.07,2.25-4.19,4.46a28.54,28.54,0,0,1-7.77,5.77c-1.82.91-3.16.32-3.39-1.71a7,7,0,0,1,.73-3.43,45.36,45.36,0,0,0,3.69-17.86,1.91,1.91,0,0,0-.43-1.16c-.09-.11-.75,0-1,.25-3.37,3.5-7.9,4.65-12.28,6.07a15.48,15.48,0,0,1-3,.68c-1.72.18-2.73-1-2.14-2.57a10.11,10.11,0,0,1,1.62-2.52c1.45-1.91,3-3.74,4.4-5.68a15.4,15.4,0,0,0,1.22-2.63c-1,.06-2,.16-3,.16s-1.36.76-1.79,1.5a97.07,97.07,0,0,1-10.42,14.71c-1.37,1.62-3,3-4.49,4.53a5.82,5.82,0,0,0-.48.63,3.84,3.84,0,0,0,.89.33,11.16,11.16,0,0,0,6.41-1.34c4.51-2.13,9-4.22,13.62-6.19,3.38-1.46,6,.41,5.85,4.09a9.77,9.77,0,0,1-.47,3c-1.2,3.2-2.19,6.55-3.89,9.48-3.4,5.84-7.22,11.43-10.85,17.14a9,9,0,0,0-.6,1.38,7.44,7.44,0,0,0,1.52-.45,79.73,79.73,0,0,0,7.41-4.39c3.05-2.22,5.9-4.73,8.8-7.16,1.13-.95,2.1-2.09,3.23-3.05,2.48-2.09,3.63-1.91,5.3.75.3.47.56,1,.82,1.45,2.72,5.33,6.58,9.83,10.46,14.31a14.12,14.12,0,0,0,1.06,1.24,4.18,4.18,0,0,0,.87.52,2.67,2.67,0,0,0-.13-1,12.16,12.16,0,0,0-.85-1.38c-.59-1.32-1.17-2.65-1.78-4-2-4.34-2.12-9-2-13.62a3.17,3.17,0,0,1,1.95-3.1c.85-.36,2.82.58,3.56,1.65.31.45.51,1,.81,1.45a23.71,23.71,0,0,0,2,3c3,3.41,6,6.76,9,10.13a6.64,6.64,0,0,0,.85,1,3.12,3.12,0,0,0,1,.34,4.33,4.33,0,0,0-.16-1.16c-.13-.31-.48-.53-.73-.79s-.65-.47-.78-.78c-1.53-3.86-3.21-7.68-4.46-11.63a14.79,14.79,0,0,1-.11-5.52c.15-1.61,1.39-2.16,3-1.93,2.13.31,3.2,2.06,4.72,3.2l.94.75ZM454.46,129.4a8.63,8.63,0,0,0-2.37-8.18c-1.58-1.69-3.24-3.31-5-4.85a13.56,13.56,0,0,1-4.48-12.77,3.43,3.43,0,0,0-.64-2.82c-2.52-3.47-11-5.42-14.53-3.22a1.09,1.09,0,0,0,.12,1c1.09.86,2.34,1.52,3.36,2.45,2.45,2.24,4.94,4.46,5.89,7.89,1.6,5.73,0,10.57-3.89,14.8a30,30,0,0,1-9.6,6.47,58.3,58.3,0,0,1-11.74,4.21c-5.75,1.35-11.68,2-17.25,4.07-.34.13-.73.13-1.08.23-2.85.81-5.77,1.43-8.52,2.47-4.24,1.61-8.39,3.48-12.54,5.32a28,28,0,0,0-8.51,5.68,5,5,0,0,0-.58.84,5,5,0,0,0,1.09,0c.45-.08.87-.31,1.32-.39,4.65-.8,9.28-2,13.95-2.25,5.45-.33,10.94.08,16.4.27,4.07.14,8.15.72,12.2.56a33.55,33.55,0,0,0,9.48-1.73,18.22,18.22,0,0,0,9.32-7.62c2.84-4.36,7.36-6.51,12-8.08,2.62-.88,5.67-.69,8.52-.69,2.12,0,4.08-.08,5.6-1.77l.83-.84a.47.47,0,0,1,.15-.34Zm134.7,325.24c-.29-2.52-.42-4.74-.81-6.92-.89-4.94-2.31-9.72-5.7-13.62-2.13-2.44-4.1-5.13-6.62-7.1a54.58,54.58,0,0,0-12.27-7.51,65.51,65.51,0,0,0-6.92-2.86c-2.47-.71-5.09-.86-7.63-1.36-4.6-.91-9.15-1.31-13.58.73a6.82,6.82,0,0,1-1.32.44,32.34,32.34,0,0,0-14.61,6.88,45,45,0,0,0-10.43,12.5q-3.57,6.4-7.11,12.83c-.56,1-1.17,1.94-2.5,1.88s-1.81-1.1-2.36-2.09c-1.47-2.67-2.91-5.35-4.51-7.94a41.2,41.2,0,0,0-3.72-5.16c-2.56-3-5.13-6-7.93-8.81a51.9,51.9,0,0,0-7.05-5.75c-3.5-2.41-7-5.06-10.83-6.7-7-3-14.44-4.61-22.19-3.1a29.41,29.41,0,0,0-13.44,6.17,1.88,1.88,0,0,0-.3,2.92c.62.8,1.26,1.6,1.91,2.38,2.08,2.48,3.81,5.41,6.31,7.34a171.39,171.39,0,0,1,17.2,15.77,11.7,11.7,0,0,0,1.63,1.52,4.88,4.88,0,0,0,1.46.45,7,7,0,0,0,.38-1.53,6.64,6.64,0,0,0-.31-1.34,53.92,53.92,0,0,0-4.49-13.36,3.31,3.31,0,0,1,1-4.4c1.12-.66,2.12-.47,3.56,1.24a140.41,140.41,0,0,1,8.95,11.3A43.44,43.44,0,0,1,470,449.3a65.08,65.08,0,0,1,3.6,16.47,2.25,2.25,0,0,0,.63,1.45,84.33,84.33,0,0,1,11.1,12c3.82,4.76,7.74,9.44,11.36,14.35,1.64,2.21,2.2,2.92,4.26-.25.1-.16.18-.33.27-.49A26.51,26.51,0,0,0,504.76,479a8.45,8.45,0,0,1,.08-1.95,2.08,2.08,0,0,1,3.17-1.46,4.66,4.66,0,0,1,1.9,2.52,33.83,33.83,0,0,1,.88,7.68,30,30,0,0,1-2.21,10.54,24.62,24.62,0,0,1-5.81,8.74c-3.7,3.49-8.49,5.27-13.11,7.12a25.86,25.86,0,0,0-8.89,5.37c-3.47,3.39-4.35,7.39-3.63,12a5.84,5.84,0,0,1,.16,2.18c-.16.63-.67,1.48-1.2,1.63a2.11,2.11,0,0,1-1.88-.72,13.2,13.2,0,0,1-1.36-3.28c-1.14-3.46-1.29-7,.36-10.26a29.4,29.4,0,0,1,7.31-9.3c1.7-1.42,1.62-1.57-.14-3-4-3.19-8.9-4.74-13.25-7.29a11.72,11.72,0,0,0-2.24-1c-6.42-2.1-12.9-4-19.24-6.3a166.74,166.74,0,0,0-21.65-6,65.79,65.79,0,0,0-6.56-1c-1.7-.19-2,.2-1.39,1.91a29.66,29.66,0,0,0,1.49,3.6c1.95,4,3.91,8,5.94,11.9s3.93,8.23,6.42,12c4.86,7.33,10,14.48,15.22,21.54,3.58,4.83,7.5,9.4,11.3,14.06,2.11,2.58,4.27,5.11,6.43,7.64,2.35,2.74,4.74,5.45,7.07,8.2,3.89,4.57,7.61,9.3,11.66,13.73,3.38,3.69,7.07,7.1,9.94,11.23.8,1.16,1.54,1.12,2.48.35.64-.53,1.27-1.08,1.86-1.67,3-3,6.05-6,9-9,3.67-3.8,7.26-7.68,10.92-11.49,2-2.13,4.27-4.09,6.22-6.31,4.1-4.64,8-9.43,12.1-14.12,5.4-6.22,10.91-12.34,16.24-18.62,3.17-3.73,6.15-7.64,9.08-11.56,3-4.07,6-8.18,8.86-12.42,3.43-5.16,6.85-10.35,9.9-15.74a117.52,117.52,0,0,0,8-18,13.2,13.2,0,0,0,1-2.59C587.92,464.64,588.54,459.5,589.16,454.64Zm7.65,38.75a34.24,34.24,0,0,0-5.3-17.53,5.11,5.11,0,0,0-1.21-1,8.82,8.82,0,0,0-.7,1.17c-1.05,2.56-2.11,5.11-3.09,7.69a82.15,82.15,0,0,1-6,12.17c-2.32,4-4.9,7.82-7.39,11.71-1.49,2.34-2.9,4.75-4.56,7-3,4-6.16,7.86-9.23,11.8-1.93,2.48-3.72,5.07-5.75,7.47-3.22,3.81-6.58,7.5-9.9,11.24-3.07,3.45-6.17,6.89-9.23,10.35-1.35,1.53-2.61,3.12-3.94,4.66a84.67,84.67,0,0,1-5.85,6.66c-4.67,4.37-9,9-13.23,13.81-1.95,2.22-4,4.4-6.1,6.45-2.53,2.43-5.22,4.71-7.86,7-1.18,1-2.38,2.06-3.65,3-1.5,1.1-2.53.8-3.82-.63-4.82-5.38-9.7-10.7-14.52-16.07-1.85-2.07-3.59-4.23-5.39-6.34-2.34-2.75-4.67-5.5-7-8.23s-4.92-5.46-7.26-8.3c-2.12-2.56-4-5.31-6.1-7.9-4.47-5.53-9.21-10.84-13.09-16.84-1-1.47-2.19-2.76-3.17-4.22-2.31-3.46-4.56-7-6.81-10.47a57.52,57.52,0,0,1-3-5c-1.85-3.63-3.53-7.34-5.33-11-.57-1.16-1.29-2.25-2-3.35-.13-.21-.4-.33-.61-.5-.19.28-.56.57-.53.83.11,1.38.29,2.75.52,4.12.86,5.21,1.92,10.35,4.28,15.16,2.08,4.23,3.84,8.63,5.9,12.88s4.27,8.61,6.63,12.79c2.63,4.66,5.65,9.12,8.26,13.8,5,9,11.06,17.33,17.17,25.59,3.46,4.69,7.48,8.95,11,13.56a217.82,217.82,0,0,0,16.22,18.64c5.16,5.3,10.59,10.33,15.89,15.5,2.52,2.46,2.51,2.48,5.27.31a13.06,13.06,0,0,0,1.22-1.13l20-19.69a34.43,34.43,0,0,0,3.75-3.69,175.15,175.15,0,0,1,14.13-16.76c2.37-2.47,4.47-5.19,6.59-7.89,3.42-4.34,6.65-8.83,10.14-13.11a199.16,199.16,0,0,0,16.14-22.2c3.13-5.14,6.42-10.2,8.59-15.87,1.9-5,4.07-9.9,5.84-14.94a51.58,51.58,0,0,0,2-8.64C595.6,502.34,596.26,497.21,596.81,493.39ZM420.48,535.44c.16,4,1.37,7.65,2.28,11.42a77,77,0,0,0,4.2,12c3.18,7.39,6.32,14.84,10.73,21.65,1.95,3,3.52,6.29,5.54,9.26,3.64,5.35,7.33,10.68,11.28,15.81Q462.57,616,471,626.11c4,4.77,8.09,9.43,12.4,13.88,3.41,3.51,7.33,6.52,10.84,10,6.23,6.08,12.88,11.67,19.57,17.23,1.81,1.5,1.8,1.52,3.7.18a11.87,11.87,0,0,0,1.52-1.21,162.27,162.27,0,0,0,15.67-18.36c3-3.91,6.1-7.68,9.16-11.5,1.28-1.59,2.64-3.11,3.85-4.74,3.76-5.06,7.56-10.08,11.15-15.25,4.85-7,9.87-13.92,14.21-21.23,5.57-9.4,10.89-18.95,15.53-28.88,4-8.58,7.68-17.19,9.58-26.54a58.55,58.55,0,0,0,.64-17.91,19.43,19.43,0,0,0-.64-3,3.86,3.86,0,0,0-.55-.93,4.19,4.19,0,0,0-.78,1,167.79,167.79,0,0,1-8.61,19.85c-1.85,3.49-4,6.84-6,10.23-.86,1.42-2,2.68-2.74,4.16-2.93,6-7.58,10.68-11.42,16-3.41,4.72-7.21,9.15-10.86,13.7-3.12,3.89-6.23,7.8-9.42,11.64-3.67,4.4-7.43,8.73-11.15,13.09-.66.77-1.26,1.6-2,2.31-6.82,6.68-13.62,13.39-20.53,20-3.27,3.12-6.75,6-10.19,9-1.2,1-2.32,1-3.22,0-1.91-2-3.77-4-5.67-6-7.21-7.6-14.45-15.16-21.6-22.81a114,114,0,0,1-8.39-9.62c-5.85-7.87-12.66-15-17.95-23.29-2.77-4.37-5.87-8.54-8.63-12.92-3.29-5.25-6.34-10.64-9.55-15.93-2.54-4.21-5.19-8.34-6.85-13A19.08,19.08,0,0,0,421,533Zm3.36-312.61c.18,4.79-.26,9.51-2.6,13.77-1.93,3.52-4.67,6.24-8.94,6.73a62.07,62.07,0,0,1-7.7.59,43.06,43.06,0,0,0-15,2.29,18.81,18.81,0,0,0-7.4,4.77,55.85,55.85,0,0,1-7.93,7.31,23.38,23.38,0,0,1-7.63,3.11c-2.95.75-6.2.55-8.45-1.59-2.8-2.68-6.05-3.66-9.66-4.21a24.58,24.58,0,0,1-3.69-1.07c-.83-.26-1,0-.76.77a11,11,0,0,0,3.6,5.19,46.6,46.6,0,0,0,6.15,4.23c2.83,1.53,5.78,2.91,9.12,3.1a33.75,33.75,0,0,0,11-1.44,24.71,24.71,0,0,0,6.52-3c3.36-2.13,6.49-4.61,9.75-6.9,6.13-4.3,12.7-7,20.32-4.86A13.1,13.1,0,0,0,421.37,250c5.14-3.15,8.79-7.37,9.33-13.66.22-2.59.41-5.17.59-7.76.44-6.17-.3-12.36.94-18.53a16.56,16.56,0,0,1,5.54-9.31c3.69-3.3,8.11-5.51,12.5-7.66a15.32,15.32,0,0,0,5.62-4.37,8.08,8.08,0,0,0,1.36-8.33c-1.22-3.32-3.73-5.46-6.61-7.25a1.84,1.84,0,0,0-1.28-.2c-1.61.42-3.2.93-4.79,1.4l2.84,3.63c.17.22.48.4.53.63.32,1.5,1.09,3.11.78,4.48a9.68,9.68,0,0,1-5.68,7.06,42.56,42.56,0,0,0-6.76,3.85c-6.55,4.6-10.55,10.77-11.17,18.91-.11,1.48-.42,2.94-.61,4.41C424.27,219.16,424.06,221,423.84,222.83Zm-70,28.2c4.28,0,7.34-1.49,9.75-4.89A30.91,30.91,0,0,0,369,230.6c.09-.95-.16-1.41-1.17-1.35a11.43,11.43,0,0,1-1.94,0c-1.49-.17-2,.35-2.25,1.93a16.48,16.48,0,0,1-5,10c-2.38,2.15-5.31,3.64-8.59,3.13a47.8,47.8,0,0,1-7.95-2.32c-2.71-.93-5.29-2.28-8-3a31.65,31.65,0,0,0-18.57.77A28.59,28.59,0,0,1,304,241.17c-3.14-.27-6.46-.42-8.53-3.27a19.28,19.28,0,0,1-3.07-5.8,48.12,48.12,0,0,1-1.21-7.9c-.39-3.13-.81-6.25-1-9.39-.15-2.66.19-5.36,0-8a88,88,0,0,0-1.35-11,21.24,21.24,0,0,0-2.62-6.66c-2.09-3.47-4.65-6.65-6.82-10.08a11.5,11.5,0,0,1-2-5.41c-.39-5.71,4.77-10.11,9.49-11.57a74.37,74.37,0,0,1,8.65-1.87c1-.18,1.66-.56,1.82-1.42.35-1.81.55-3.66.72-5.5,0-.23-.51-.7-.8-.71a4.65,4.65,0,0,0-1.62.34,81,81,0,0,0-20,8.89c-3.31,2.15-6.25,4.89-7.16,8.89-1.15,5.09.71,9.26,4.83,12.43a31.24,31.24,0,0,1,2.65,2c5.34,5.18,7.69,11.75,8.12,19,.39,6.47.16,13,.33,19.46.13,5,.77,10,3.4,14.43,1,1.73,2.53,3.17,3.65,4.86,3,4.61,7.85,5.5,12.69,5.55,3.46,0,6.94-1,10.4-1.66,4.71-.91,9.29-2.63,14.18-2.47,6.24.22,12.35.72,17.71,4.65A11.92,11.92,0,0,0,353.88,251Zm5.41-118.76c-.77,4.54,1,8.44,2.78,12.32.42.9,1,1.61,2.17,1,2.61-1.38,5.19-2.81,7.84-4.11a1.82,1.82,0,0,0,1.1-2.45,72.53,72.53,0,0,0-2-7.22c-1-2.56-2.63-4.89-3.7-7.43-1.64-3.93-4.38-7.08-7-10.3-2.46-3-5.06-5.9-7.51-8.92-3.87-4.76-4.9-9.94-2.52-15.8a18.3,18.3,0,0,1,10.09-10.09c3.78-1.68,7.8-2.08,11.88-2.53a31.41,31.41,0,0,1,11.52,1,20.55,20.55,0,0,0,2.16.52c.84.12,1.16-.27,1-1.15-1-5-4.13-7.05-9.13-5.94a15.25,15.25,0,0,0-2.37.77,12.94,12.94,0,0,1-7.37.62c-3.81-.75-7.54-1.88-11.32-2.74-6.18-1.41-12.11-.68-17.2,3.19-3.52,2.68-4.31,5.49-2.41,9.2.63,1.24,1.28,2.48,1.82,3.76a9.89,9.89,0,0,1,.35,7.06c-.58,1.75-1.42,3.42-2.11,5.14-.75,1.9-1.58,3.77-2.17,5.72-1.08,3.59.17,5.87,3.65,7.25,5.9,2.34,11.4,5.37,15.91,9.93a12.65,12.65,0,0,1,3,4.23A47.39,47.39,0,0,1,359.29,132.27Zm37,44.84c2,.31,4.08.29,5.88,1a65.7,65.7,0,0,1,7.3,4c3.57,2,7.3,3.49,11.53,3.22a9.31,9.31,0,0,0,5.74-2.5,31.5,31.5,0,0,0,6.29-7.36,12.18,12.18,0,0,1,10.11-6.43,7.1,7.1,0,0,0,1.36-.26c2.88-.72,3.49-1.84,2.45-4.6-1-2.6-3-4.44-5-6.22a1.5,1.5,0,0,0-1.41,0,43.53,43.53,0,0,1-12,6.33c-6.68,2.5-13.47,4.14-20.64,3.47-4.22-.4-8.44-.87-12.64-1.45-6.79-.93-13.56-2-20.33-3a48.21,48.21,0,0,0-21.67,1.77c-3.19,1-3.12,1-1.84,4a1.78,1.78,0,0,0,1.81,1.32c1.11,0,2.22.18,3.33.19,5.08.06,9.47,2.16,13.8,4.52a90.3,90.3,0,0,0,8.87,4.53,9.8,9.8,0,0,0,7.87-.14A27.42,27.42,0,0,1,396.27,177.11ZM307.5,133.27c-.1,4.13.39,6,2.32,7.85a40.84,40.84,0,0,0,5.31,4,17.93,17.93,0,0,1,8.2,13.24c.31,2.66.52,5.33.77,8a10.39,10.39,0,0,0,3.07,6.4,29,29,0,0,0,5.56,4.59c4.23,2.53,7.39,6.08,10.27,9.95A47.18,47.18,0,0,1,348.83,198a8.93,8.93,0,0,0,.63,1.23c.08.14.36.33.41.3s.45-.35.44-.52c0-1.38-.19-2.77-.11-4.14a55.27,55.27,0,0,0-1.48-15.69,85.8,85.8,0,0,0-12.52-28.86c-3.75-5.51-7.71-10.88-11.47-16.39a46,46,0,0,1-6.67-13.05,19.5,19.5,0,0,1,.2-12c.18-.55.33-1.45,0-1.77-1.12-1.21-2.35-2.36-4.21-2.41-2.23-.07-3.42.83-3.36,3a24.23,24.23,0,0,0,.78,5.48,17,17,0,0,1-1.77,13.14A15.87,15.87,0,0,0,307.5,133.27Zm99.26,321.37c-.57,4.33.62,9,2.26,13.54.47,1.3,1.12,2.54,1.57,3.85.61,1.78.9,2,2.75,1.78a28.49,28.49,0,0,1,4.68-.38c5.16.29,10.33.63,15.47,1.12,3.49.33,7,.83,10.4,1.48,4.16.77,8.29,1.78,12.43,2.67a2.82,2.82,0,0,0,.76-.06,2.32,2.32,0,0,0-.33-.71c-4.56-4.73-9.11-9.48-13.72-14.16-1.49-1.51-3.21-2.79-4.73-4.28-3.49-3.41-6.8-7-10.42-10.3-5.06-4.59-10.33-8.95-15.52-13.39-1.45-1.25-1.89-1.18-2.46.63C408.09,442.16,406.35,447.92,406.76,454.64Zm89.09,211.78c0-.65,0-1.3,0-1.94a3.15,3.15,0,0,0-.43-.91c-.29.2-.67.32-.84.59-.6.93-1.05,2-1.7,2.85a88.27,88.27,0,0,1-18.6,18.57c-1.66,1.22-1.83,1.63-1,3.41a29.83,29.83,0,0,1,1.82,3.73c.35,1.08.75,2.61.26,3.4-1.3,2.09-2.68,4.32-5.05,5.41-2.77,1.27-5.59,2.48-8.47,3.49a4.43,4.43,0,0,1-5.86-3.11c-.39-1.53-.78-1.54-1.91-.7A98.65,98.65,0,0,1,437.34,711a131.29,131.29,0,0,1-23.41,8.59,31.94,31.94,0,0,0-3.42,1.15c-.23.08-.38.37-.57.56.24.22.43.57.71.64,1.69.49,3.41.87,5.1,1.37A42.62,42.62,0,0,0,428.11,725,50.88,50.88,0,0,0,446,721.25a28.79,28.79,0,0,0,7.82-4.13c3.1-2.49,6.52-4.58,9.79-6.85,3.66-2.53,7.36-5,10.94-7.63,2.46-1.81,5.14-3.53,7-5.86,4.7-5.83,9-11.94,11.76-19A43.17,43.17,0,0,0,495.85,666.42ZM361.7,222.67c1.86,0,3.71,0,5.57,0,7.2.15,13.9-2,20.48-4.54A38.27,38.27,0,0,0,399,211.65c1.82-1.56,3.78-3,5.68-4.45,4.9-3.82,9.57-7.84,13-13.12,1.67-2.55,1.73-2.5-1.29-3-.18,0-.36-.09-.54-.11a1.66,1.66,0,0,0-1.94,1,24.56,24.56,0,0,1-3.84,5.09,92.08,92.08,0,0,1-22.31,16.34,64.61,64.61,0,0,1-10.9,4.65c-4.46,1.32-8.83,2.62-13.51,2.46a24.55,24.55,0,0,0-3.6-.24c-4.76.58-9.18-1.08-13.58-2.29s-8.63-3.24-12.91-5c-.77-.3-1.47-.79-2.22-1.15-3.54-1.73-5.75-4.9-8.39-7.63-4.42-4.58-7.52-10-10.22-15.7a46.44,46.44,0,0,1-2.4-7.08c-1.27-4.46-2.29-9-1.84-13.66.55-5.61,1.43-11.18,2.25-16.76.4-2.74.44-2.84-1.86-4.25-1.27-.79-1.49-.76-1.87.68-.76,3-1.45,5.94-2.11,8.93-1.47,6.58-2,13.17-.38,19.82,1.23,4.95,2.46,9.91,4.81,14.47a65.89,65.89,0,0,0,12.23,17,49.58,49.58,0,0,0,21,12.33C348.6,222,355,223.26,361.7,222.67ZM213.8,208.56a3.8,3.8,0,0,0-.79-.05,7.31,7.31,0,0,0-1,.15,3,3,0,0,0,.63.74c2.36,1.46,4.7,3,7.11,4.32a109.84,109.84,0,0,0,18.66,8.53c3.23,1.1,6.69,1.5,9.9,2.64,2.23.8,3.58,0,5.23-1.22,3.86-2.88,7.76-5.73,11.86-8.23,3.3-2,6.94-3.49,10.41-5.23.27-.13.42-.5.62-.75a3,3,0,0,0-.75-.25c-2.12-.15-4.24-.32-6.36-.41-8.41-.35-16.81-.77-25.22-1-6.11-.14-12.22,0-18.33.1C221.86,208,218,208.33,213.8,208.56ZM451.43,101.12a9.64,9.64,0,0,0-1.94,0,4.43,4.43,0,0,0-1.27.73,6.5,6.5,0,0,0,.81,1c1.8,1.44,3.7,2.76,5.42,4.29a16.57,16.57,0,0,1,5.1,9,75.72,75.72,0,0,1,.92,8.82,12.3,12.3,0,0,0,6.17,10c3.57,2.12,7.35,4,10.67,6.41,4.84,3.58,4.45,6.73.66,10.58a7.4,7.4,0,0,1-2,1.4c-3.32,1.65-6.67,3.23-10,4.88-2.1,1-2.68,2-2.19,4.22a11.67,11.67,0,0,1-2.31,10.19,1.7,1.7,0,0,0-.2,2c1,2.27,1.92,4.59,2.82,6.92.27.71.64.55,1,.16a9.74,9.74,0,0,0,2.32-5.56c.25-2.67.39-5.35.62-8a7.94,7.94,0,0,1,3.32-6.16c1.67-1.15,3.47-2.13,5.23-3.15a70.76,70.76,0,0,0,6.92-4.05c2.28-1.71,4.61-3.67,4.1-7.08a14.85,14.85,0,0,0-7.72-11.52,47.77,47.77,0,0,1-6.41-3.89c-3.86-3-6.91-6.75-7.92-11.72-.73-3.54-1.32-7.11-1.8-10.68a7.51,7.51,0,0,0-1.8-4A13,13,0,0,0,451.43,101.12ZM395.26,85.05a25.87,25.87,0,0,0-11.43,3,14.68,14.68,0,0,0-4.68,3.85c-4.1,5-4.93,10.8-3.47,17,.11.46.58.83.89,1.24a5.91,5.91,0,0,0,1-.88c2.29-3.24,4.42-6.62,6.87-9.74,1.7-2.16,3.6-4.33,6.46-5a18.19,18.19,0,0,1,12.21,1.24,4.48,4.48,0,0,1,1.88,6.08c-1.18,1.87-2.52,3.63-3.74,5.47-.66,1-1.22,2-1.83,3.08a21.4,21.4,0,0,0,4.27,1.08c4.82.24,11.05-3.88,12.83-8.34,1.32-3.32,0-6.15-1.83-8.81a17.77,17.77,0,0,0-6.76-5.62C403.92,86.61,399.9,84.84,395.26,85.05ZM366.72,64.62l.09-.22c1.37-.15,2.76-.22,4.13-.45q7.24-1.26,14.48-2.61c4.77-.89,8.49,1.07,11.47,4.51s3.12,7.58,2.49,11.84c-.34,2.26-.23,2.29,2,2.77,1.34.28,2.1-.07,2.41-1.46a66.81,66.81,0,0,0,1.61-6.75,13.63,13.63,0,0,0-2.93-10.18,15.73,15.73,0,0,0-15.22-6.2c-2.09.29-4.15.82-6.22,1.26-3.51.76-7,1.7-10.52,2.25a33.07,33.07,0,0,1-8.53.45c-2.87-.32-5.66-1.47-8.48-2.24-1.07-.29-2.17-.48-3.24-.8a8.54,8.54,0,0,0-7.15,1.43c-1.48,1-2.47,2.69-3.62,4.13-.16.2,0,.68.07,1,0,.09.48.07.73,0a3.9,3.9,0,0,0,.8-.25c6.1-2.37,12.2-1.23,18.31,0C361.87,63.6,364.29,64.12,366.72,64.62Zm-2.5,403.26V468a20.81,20.81,0,0,0-2.5,0,5.92,5.92,0,0,0-1.44.55,10.66,10.66,0,0,0,.77,1.09c2.44,2.9,5,5.7,7.32,8.7a30.16,30.16,0,0,0,9.27,8.23c3.67,2,7.48,3.51,11.51,1.09a37.69,37.69,0,0,0,5.23-4.05c.65-.56.72-1.36-.55-1.4a22.44,22.44,0,0,0-3.84-.06c-2.82.41-5.63,1-8.43,1.56a2,2,0,0,1-2.41-.8,2.33,2.33,0,0,1,.31-2.84,3.57,3.57,0,0,1,1.33-1c2.08-.76,4.18-1.51,6.3-2.12,1.78-.51,3.61-.81,5.4-1.25a4.5,4.5,0,0,0,1.08-.65,3.53,3.53,0,0,0-.73-.76c-3.73-2.09-7.49-4.25-11.76-4.84C375.48,468.78,369.84,468.42,364.22,467.88Zm-122.39-209,0,.13c3.65-.53,7.34-.85,10.93-1.63a115.11,115.11,0,0,0,22-6.71,103.94,103.94,0,0,0,9.43-5.28c.79-.45.87-1,.39-1.83-1.21-2.07-2.4-4.15-3.45-6.3-.55-1.1-.94-1.69-2.23-.89-1.89,1.17-3.87,2.19-5.8,3.28-6.85,3.84-13.73,7.63-20.54,11.53-4,2.3-7.92,4.75-11.86,7.15a1.23,1.23,0,0,0-.31.36c.12.1.24.28.36.28A10.19,10.19,0,0,0,241.83,258.92ZM460.88,90.82a16.82,16.82,0,0,0-.66-2.32,10.71,10.71,0,0,0-6-5.91,30.44,30.44,0,0,0-9.67-2.34,78.75,78.75,0,0,1-8.29-.7c-4-.73-7.71-2.48-9.67-6.29-1-1.9-1.15-4.23-1.57-6.38-.29-1.49-.59-2.8-2.06-3.7-4-2.45-8.18-1.76-12.38-.8-.31.07-.78.7-.72.95a2.32,2.32,0,0,0,.92,1.21c.23.16.71,0,1.08-.07,5.11-.32,9.47,2.48,9.94,8.44a4.51,4.51,0,0,0,.57,2.36c2,2.5,3.85,5.17,6.67,6.9a19.9,19.9,0,0,0,10.36,2.63,16.58,16.58,0,0,1,7.29,1.5c2.84,1.43,5.36,3.33,6.12,6.73.54,2.4.52,2.4,2.77,2.63.37,0,.73.11,1.1.16,2.39.36,2.95.05,3.61-2.18C460.59,92.76,460.69,91.83,460.88,90.82ZM257.18,326.26c-1.55.16-3.1.3-4.65.51-.86.11-.78.52-.25,1.05,2.79,2.7,4.32,6.18,6,9.59a23.15,23.15,0,0,0,1.94,3c2.82,4,7.65,4.61,11.56,6.78a1.67,1.67,0,0,0,.81.1,22,22,0,0,0,11-3.1,2.56,2.56,0,0,0,.52-.52c-.22-.15-.42-.38-.66-.43-1.08-.22-2.17-.4-3.26-.59-3.92-.66-7.8-1.71-11.83-1.2a2.13,2.13,0,0,1-2.62-1.51,2.5,2.5,0,0,1,1.18-2.84,9.55,9.55,0,0,1,5.39-2c3.14-.22,6.28-.38,9.42-.61a3.79,3.79,0,0,0,1.15-.52c-.21-.28-.37-.65-.66-.82-1.81-1.09-3.54-2.49-5.51-3.12C270.38,328,264,326,257.18,326.26ZM418,345.35c-.11-4-.5-8.11-2.73-11.84a22.84,22.84,0,0,1-1.59-3.81c-1-2.65-1.64-2.86-3.37-.65a52.2,52.2,0,0,0-9,16.14c-1,3.15-1.57,6.35.22,9.41a16.71,16.71,0,0,0,2.14,2.41c.36-.83.74-1.65,1.07-2.49.21-.51.3-1.08.53-1.58,1-2.1,1.84-4.25,3-6.26a2.66,2.66,0,0,1,3.27-1.41c1.23.67,1.09,1.85.95,3-.28,2.2-.66,4.38-.93,6.58-.13,1-.35,2.78-.08,2.87,1.36.45,1.64-1.09,2.4-1.8a13.09,13.09,0,0,1,1-1c2.19-1.65,2.74-4.06,3-6.57C417.92,347.39,417.92,346.46,418,345.35Zm13.94-234.86a8.3,8.3,0,0,0-1.24-2.26,73.54,73.54,0,0,0-5.86-5.45c-1.94-1.59-2-1.49-3.05.92a31.84,31.84,0,0,0-1.4,3.31,8.65,8.65,0,0,1-3.5,4.5,7,7,0,0,0-1.79,1.68c-1.55,2.3-3,4.68-4.46,7-.37.59-.38,1.07.46,1.12,2.19.13,4.4.49,6.57-.22a8.28,8.28,0,0,1,2.11-.61c4-.17,6.92-2.49,9.55-5.11A7.25,7.25,0,0,0,431.92,110.49ZM359.83,91.16a14.81,14.81,0,0,0,5.25,10c.62.53.89.38,1.24-.23,1.19-2.08,2.78-4,3.54-6.24,1.06-3.11,3.06-5.45,5.15-7.76A52.25,52.25,0,0,1,379,83.43a6.59,6.59,0,0,0,.81-1.06,4.42,4.42,0,0,0-1.4-.59,38.92,38.92,0,0,0-15.18,2.49,2.53,2.53,0,0,0-1.41,1.21C361,87.33,360.46,89.26,359.83,91.16ZM399,126.91c.9.3,1.29-.21,1.64-1a12.25,12.25,0,0,1,1.42-2.39c.88-1.14.45-1.48-.75-1.85a31.35,31.35,0,0,1-14-8.74c-1.11-1.19-2.18-3.48-3.75-3-1.36.43-2.18,2.58-3.24,4-.06.08-.16.15-.16.23,0,.59-.24,1.34,0,1.74a15.29,15.29,0,0,0,3,3.6c4.34,3.24,9.33,5.27,14.34,7.22A6.24,6.24,0,0,0,399,126.91Zm-9.62,7.85c1.95-.49,3.84-.95,5.72-1.45.24-.06.42-.34.62-.51a2.17,2.17,0,0,0-.53-.52c-2.66-1.28-5.34-2.54-8-3.81a19.31,19.31,0,0,1-3.94-2,42.62,42.62,0,0,1-6.77-6.14c-3.13-3.88-6.22-7.9-6.45-13.26a4.23,4.23,0,0,0-.32-1,5.76,5.76,0,0,0-1,.82c-.68.87-1.22,1.87-2,2.67a1.79,1.79,0,0,0-.16,2.68c1.27,1.69,2.42,3.48,3.69,5.17,1.44,1.93,2.91,3.84,4.45,5.69,3.8,4.52,8.87,7.52,13.45,11.1A5.14,5.14,0,0,0,389.39,134.76Zm3.27,592.46-1.5.59a4.1,4.1,0,0,0,.83.64c2.38,1,4.87,1.82,7.13,3,3.75,2,7.29,4.44,11,6.44a44.73,44.73,0,0,0,7.65,3.14c1.79.58,2.8-.67,1.92-2.33a7.41,7.41,0,0,0-2.7-2.6,51.36,51.36,0,0,0-12.32-5.73C400.62,729.25,396.49,728.23,392.66,727.22ZM467,665.85c-1.12,3.51-2.54,7-3.33,10.71a38.24,38.24,0,0,0,.64,17.05c.91,3.8,1,4,4.66,1.72l.24-.15c1-.63,1.35-1.31.6-2.49a22.93,22.93,0,0,1-3.4-12.71C466.42,675.27,466.75,670.57,467,665.85Zm-25.34-526c.23-1.06-.22-1.45-1.18-1.06-1.62.64-3.19,1.4-4.79,2.1a2.67,2.67,0,0,0-1.55,2.66,38.33,38.33,0,0,1-2.32,10.77c-.25.69-.37,1.43-.57,2.14-.32,1.1.33,1.15,1,.8,1.63-.86,3.22-1.79,4.79-2.76a1.92,1.92,0,0,0,.8-1.07C439.11,148.88,440.36,144.35,441.62,139.82ZM322,114.39c.35,1.88.68,3.76,1.07,5.64.07.3.41.54.63.81a5.36,5.36,0,0,0,.7-.73c1.79-2.77,2.89-6,5.23-8.42a2,2,0,0,0,.33-1.52,17.08,17.08,0,0,1,0-7.66c0-.2-.1-.46-.15-.69a2.16,2.16,0,0,0-.67.36q-2.1,2.19-4.16,4.42C323,108.79,321.51,111.16,322,114.39Zm143.07,346a32.42,32.42,0,0,0-3.09-13.7c-.37-.8-.81-1.56-1.22-2.35a20.69,20.69,0,0,0,.14,2.74c.67,3.49.89,6.94-.46,10.34-1.24,3.11.27,5.34,2.41,7.33a11.09,11.09,0,0,0,1.62,1c.11-.6.26-1.19.32-1.79C464.89,462.79,465,461.59,465.05,460.39ZM361.15,342.74c-1,3.24-1.6,6.65-3.21,9.46-1.36,2.38-1.35,3.93.42,5.74a9.85,9.85,0,0,1,.67.89c.68.84,1.07.43,1.28-.35C361.75,353.3,362.73,348.08,361.15,342.74Zm22.72,71.44,0,.2c3.19-.45,6.37-.89,9.55-1.36.23,0,.43-.28.64-.43a2.81,2.81,0,0,0-.48-.59c-1.35-1-2.78-1.81-4.06-2.85-.84-.68-1.36-.51-2.15.05a60.33,60.33,0,0,1-5.13,3.21,22.43,22.43,0,0,1-3,1.19c1.18.17,2.36.36,3.54.52C383.13,414.17,383.5,414.16,383.87,414.18ZM494.38,694.3l.08.31c2.4-.57,4.84-1.06,7.21-1.76a15.46,15.46,0,0,0,2.87-1.56l-3-.61a4.3,4.3,0,0,1-.81-.16c-2.65-1-5-1-6.57,1.85-.12.22-.44.32-.64.51-.39.36-.74.75-1.11,1.12.48.1,1,.21,1.46.29A3.37,3.37,0,0,0,494.38,694.3ZM396,101.6a15.26,15.26,0,0,0-2.64,1.11c-2.47,1.5-2.5,2.38-.34,4.2,1.06.9,1.6.86,2.39-.33s1.47-2.35,2.15-3.55S398,101.55,396,101.6Z"/><path d="M477.8,267.11c.71-4.74,1.36-9.68,2.21-14.59,1-5.56,2.17-11.08,3.14-16.64.74-4.27-.12-8.48-.75-12.7-.88-5.86-3.28-11.16-5.84-16.41a7.08,7.08,0,0,1-.79-2c-.31-2.16.8-3,2.94-2.53,2.78.58,4.29,2.82,6.15,4.54a76.17,76.17,0,0,1,11.42,13.94,29.59,29.59,0,0,1,1.71,2.86,119.92,119.92,0,0,1,8.75,22.8,96.12,96.12,0,0,1,3.46,16.56c.68,7.27-.27,14.27-4.26,20.29-4.17,6.29-12.94,9.93-21.08,3.85-3.59-2.69-5.15-6.14-5.71-10.33C478.74,273.61,478.28,270.51,477.8,267.11Zm28.2,1.53a5.75,5.75,0,0,0,0-1.1,8.07,8.07,0,0,0-.37-1.18,7.78,7.78,0,0,0-.75.77,21.54,21.54,0,0,1-7.21,6.42c-4.37,2.37-8.83,3.36-13.32.18a3.74,3.74,0,0,0-1-.32,4.43,4.43,0,0,0-.07,1.08,36.49,36.49,0,0,0,1,4,9,9,0,0,0,8,6.44,10.1,10.1,0,0,0,10.07-4.5A23.07,23.07,0,0,0,506,268.64Z"/><path d="M473.11,311.14c.91,9.1,2.1,18.24,7.19,26.2,2.43,3.81,5.49,7.21,8.3,10.77,6.57,8.32,8.55,17.54,5.13,27.65-1.88,5.53-8.81,10.92-15.58,9.43a8.71,8.71,0,0,1-2.84-1,25.48,25.48,0,0,1-9.58-10.93A24,24,0,0,1,464,367.4a100.77,100.77,0,0,1-1-23.54,127.82,127.82,0,0,1,5.4-30A21.46,21.46,0,0,1,470,310a5.3,5.3,0,0,1,1.68-1.75c1-.67,1.59-.32,1.58.84C473.3,309.77,473.18,310.42,473.11,311.14Zm17.82,54.14a17.71,17.71,0,0,1-1.25,3,10.65,10.65,0,0,1-2.24,2.45c-5.4,4.4-11.25,4.43-15.88-.33-1-1-1.85-2.08-2.78-3.11a5.27,5.27,0,0,0-.63-.52,3,3,0,0,0-.09.92,21.46,21.46,0,0,0,7.36,11.51c3.55,2.93,6.23,2.82,10.13.36C491,376.15,491.35,370.89,490.93,365.28Z"/><path class="a" d="M384.59,638.76c3.84.77,5.44,3.83,7.07,6.88a12.5,12.5,0,0,1,1.12,7.56c-.46,3.91-4.52,8.22-8.44,9a3.19,3.19,0,0,1-3.32-.85,19.64,19.64,0,0,1-2.4-3,5.61,5.61,0,0,1,4.4-8.21,3,3,0,0,1,2.19.7c.71.77,0,1.53-.66,2.11s-1.1,1-1.67,1.45c-1.29,1-1.24,2,.14,2.64,1.79.83,5.45-.42,6.29-2.25,1-2.25,1.63-4.52,0-6.82a11.86,11.86,0,0,1-1-2.26c.61-1.83-.64-2.92-1.63-4.13C385.93,640.65,385.28,639.69,384.59,638.76Z"/><path class="a" d="M346.46,667.62c.28-1.41-.56-2.17-1.58-2.91-1.84-1.31-2-1.9-1.14-3.88a9.46,9.46,0,0,1,2.78-4c3.55-2.75,7.16-2.16,9.66,1.81-1.09,0-2.18.08-3.28.14-2.94.16-3.79,1.17-3.4,4C349.81,665.13,349,666.36,346.46,667.62Z"/><path class="b" d="M525,681.59l-2.43-.45A1.58,1.58,0,0,1,525,681.59Z"/><path class="b" d="M522.6,681.13l-2.78.62Z"/><path class="b" d="M476.24,650l-2.28-.18C474.76,649.37,475.61,648.3,476.24,650Z"/><path class="b" d="M497.17,700.44l1.83-.28Z"/><path class="b" d="M525.2,683.08l-.18-1.46C525.84,682,525.77,682.52,525.2,683.08Z"/><path class="b" d="M500.48,699.48l1.78-.48Z"/><path class="b" d="M499.34,700l.72-.45Z"/><path class="b" d="M518.71,682.26l-1.16.57Z"/><path class="b" d="M516.44,683.33l-1.25.5Z"/><path class="b" d="M502.67,698.82l.86-.29Z"/><path class="b" d="M514.21,684.43l-1.1.62Z"/><path class="b" d="M513.12,685l-1.19.55Z"/><path class="b" d="M509.36,696.15l.8-.45Z"/><path class="b" d="M512.14,694.48,513,694Z"/><path class="b" d="M513.25,693.94l.83-.45Z"/><path class="b" d="M514.92,692.81l.77-.48Z"/><path class="b" d="M519.38,689.42l.39-.32Z"/><polygon class="b" points="518.25 690.24 518.41 690.14 518.4 690.3 518.25 690.24"/><polygon class="b" points="517.13 691.26 517.14 691.25 517.19 691.35 517.13 691.26"/><path class="b" d="M520.5,688.38l.4-.37Z"/><polygon class="b" points="521.56 687.48 521.72 687.35 521.72 687.53 521.56 687.48"/><path class="b" d="M522.2,686.77l.41-.42Z"/><path class="b" d="M511.54,694.83a.25.25,0,0,1,.34-.2l-.1.22Z"/><polygon class="b" points="511.05 695.12 511.09 695.1 511.1 695.22 511.05 695.12"/><polygon class="b" points="523.2 685.8 523.28 685.7 523.34 685.83 523.2 685.8"/><path class="b" d="M508.8,696.43a.19.19,0,0,1,.3-.13l-.1.2Z"/><path class="b" d="M523.85,685.05l.38-.42Z"/><path class="b" d="M502.06,684.34c0-.2.08-.3.28-.3l0,.25Z"/><path class="b" d="M517.09,683l-.67.32Z"/><polygon class="b" points="504.82 680.78 504.89 680.69 504.96 680.82 504.82 680.78"/><path class="b" d="M473.62,650.05l-.68.42Z"/><polygon class="b" points="503.69 681.94 503.8 681.8 503.85 681.95 503.69 681.94"/><path class="a" d="M589.16,454.64c-.62,4.86-1.24,10-1.95,15.12a13.2,13.2,0,0,1-1,2.59,117.52,117.52,0,0,1-8,18c-3.05,5.39-6.47,10.58-9.9,15.74-2.81,4.24-5.81,8.35-8.86,12.42-2.93,3.92-5.91,7.83-9.08,11.56-5.33,6.28-10.84,12.4-16.24,18.62-4.06,4.69-8,9.48-12.1,14.12-1.95,2.22-4.18,4.18-6.22,6.31-3.66,3.81-7.25,7.69-10.92,11.49-3,3-6,6-9,9-.59.59-1.22,1.14-1.86,1.67-.94.77-1.68.81-2.48-.35-2.87-4.13-6.56-7.54-9.94-11.23-4-4.43-7.77-9.16-11.66-13.73-2.33-2.75-4.72-5.46-7.07-8.2-2.16-2.53-4.32-5.06-6.43-7.64-3.8-4.66-7.72-9.23-11.3-14.06-5.23-7.06-10.36-14.21-15.22-21.54-2.49-3.75-4.34-7.95-6.42-12s-4-7.92-5.94-11.9a29.66,29.66,0,0,1-1.49-3.6c-.58-1.71-.31-2.1,1.39-1.91a65.79,65.79,0,0,1,6.56,1,166.74,166.74,0,0,1,21.65,6c6.34,2.3,12.82,4.2,19.24,6.3a11.72,11.72,0,0,1,2.24,1c4.35,2.55,9.24,4.1,13.25,7.29,1.76,1.41,1.84,1.56.14,3a29.4,29.4,0,0,0-7.31,9.3c-1.65,3.22-1.5,6.8-.36,10.26a13.2,13.2,0,0,0,1.36,3.28,2.11,2.11,0,0,0,1.88.72c.53-.15,1-1,1.2-1.63a5.84,5.84,0,0,0-.16-2.18c-.72-4.57.16-8.57,3.63-12a25.86,25.86,0,0,1,8.89-5.37c4.62-1.85,9.41-3.63,13.11-7.12a24.62,24.62,0,0,0,5.81-8.74,30,30,0,0,0,2.21-10.54,33.83,33.83,0,0,0-.88-7.68,4.66,4.66,0,0,0-1.9-2.52,2.08,2.08,0,0,0-3.17,1.46,8.45,8.45,0,0,0-.08,1.95,26.51,26.51,0,0,1-3.56,13.83c-.09.16-.17.33-.27.49-2.06,3.17-2.62,2.46-4.26.25-3.62-4.91-7.54-9.59-11.36-14.35a84.33,84.33,0,0,0-11.1-12,2.25,2.25,0,0,1-.63-1.45A65.08,65.08,0,0,0,470,449.3a43.44,43.44,0,0,0-5.08-9.86,140.41,140.41,0,0,0-8.95-11.3c-1.44-1.71-2.44-1.9-3.56-1.24a3.31,3.31,0,0,0-1,4.4,53.92,53.92,0,0,1,4.49,13.36,6.64,6.64,0,0,1,.31,1.34,7,7,0,0,1-.38,1.53,4.88,4.88,0,0,1-1.46-.45,11.7,11.7,0,0,1-1.63-1.52,171.39,171.39,0,0,0-17.2-15.77c-2.5-1.93-4.23-4.86-6.31-7.34-.65-.78-1.29-1.58-1.91-2.38a1.88,1.88,0,0,1,.3-2.92A29.41,29.41,0,0,1,441.07,411c7.75-1.51,15.16.12,22.19,3.1,3.87,1.64,7.33,4.29,10.83,6.7a51.9,51.9,0,0,1,7.05,5.75c2.8,2.77,5.37,5.8,7.93,8.81a41.2,41.2,0,0,1,3.72,5.16c1.6,2.59,3,5.27,4.51,7.94.55,1,1,2,2.36,2.09s1.94-.87,2.5-1.88q3.54-6.42,7.11-12.83a45,45,0,0,1,10.43-12.5,32.34,32.34,0,0,1,14.61-6.88,6.82,6.82,0,0,0,1.32-.44c4.43-2,9-1.64,13.58-.73,2.54.5,5.16.65,7.63,1.36a65.51,65.51,0,0,1,6.92,2.86A54.58,54.58,0,0,1,576,427c2.52,2,4.49,4.66,6.62,7.1,3.39,3.9,4.81,8.68,5.7,13.62C588.74,449.9,588.87,452.12,589.16,454.64Z"/><path class="a" d="M596.81,493.39c-.55,3.82-1.21,8.95-2.06,14.05a51.58,51.58,0,0,1-2,8.64c-1.77,5-3.94,9.94-5.84,14.94-2.17,5.67-5.46,10.73-8.59,15.87a199.16,199.16,0,0,1-16.14,22.2c-3.49,4.28-6.72,8.77-10.14,13.11-2.12,2.7-4.22,5.42-6.59,7.89a175.15,175.15,0,0,0-14.13,16.76,34.43,34.43,0,0,1-3.75,3.69l-20,19.69a13.06,13.06,0,0,1-1.22,1.13c-2.76,2.17-2.75,2.15-5.27-.31-5.3-5.17-10.73-10.2-15.89-15.5A217.82,217.82,0,0,1,469,596.91c-3.56-4.61-7.58-8.87-11-13.56-6.11-8.26-12.16-16.57-17.17-25.59-2.61-4.68-5.63-9.14-8.26-13.8-2.36-4.18-4.53-8.47-6.63-12.79s-3.82-8.65-5.9-12.88c-2.36-4.81-3.42-9.95-4.28-15.16-.23-1.37-.41-2.74-.52-4.12,0-.26.34-.55.53-.83.21.17.48.29.61.5.68,1.1,1.4,2.19,2,3.35,1.8,3.65,3.48,7.36,5.33,11a57.52,57.52,0,0,0,3,5c2.25,3.51,4.5,7,6.81,10.47,1,1.46,2.21,2.75,3.17,4.22,3.88,6,8.62,11.31,13.09,16.84,2.09,2.59,4,5.34,6.1,7.9,2.34,2.84,4.85,5.52,7.26,8.3s4.7,5.48,7,8.23c1.8,2.11,3.54,4.27,5.39,6.34,4.82,5.37,9.7,10.69,14.52,16.07,1.29,1.43,2.32,1.73,3.82.63,1.27-.92,2.47-1.94,3.65-3,2.64-2.32,5.33-4.6,7.86-7,2.14-2.05,4.15-4.23,6.1-6.45,4.22-4.79,8.56-9.44,13.23-13.81a84.67,84.67,0,0,0,5.85-6.66c1.33-1.54,2.59-3.13,3.94-4.66,3.06-3.46,6.16-6.9,9.23-10.35,3.32-3.74,6.68-7.43,9.9-11.24,2-2.4,3.82-5,5.75-7.47,3.07-3.94,6.23-7.81,9.23-11.8,1.66-2.22,3.07-4.63,4.56-7,2.49-3.89,5.07-7.73,7.39-11.71a82.15,82.15,0,0,0,6-12.17c1-2.58,2-5.13,3.09-7.69a8.82,8.82,0,0,1,.7-1.17,5.11,5.11,0,0,1,1.21,1A34.24,34.24,0,0,1,596.81,493.39Z"/><path class="a" d="M420.48,535.44,421,533a19.08,19.08,0,0,1,1.1,2.16c1.66,4.67,4.31,8.8,6.85,13,3.21,5.29,6.26,10.68,9.55,15.93,2.76,4.38,5.86,8.55,8.63,12.92,5.29,8.3,12.1,15.42,17.95,23.29a114,114,0,0,0,8.39,9.62c7.15,7.65,14.39,15.21,21.6,22.81,1.9,2,3.76,4,5.67,6,.9.93,2,1,3.22,0,3.44-2.94,6.92-5.87,10.19-9,6.91-6.6,13.71-13.31,20.53-20,.73-.71,1.33-1.54,2-2.31,3.72-4.36,7.48-8.69,11.15-13.09,3.19-3.84,6.3-7.75,9.42-11.64,3.65-4.55,7.45-9,10.86-13.7,3.84-5.3,8.49-10,11.42-16,.72-1.48,1.88-2.74,2.74-4.16,2-3.39,4.18-6.74,6-10.23a167.79,167.79,0,0,0,8.61-19.85,4.19,4.19,0,0,1,.78-1,3.86,3.86,0,0,1,.55.93,19.43,19.43,0,0,1,.64,3,58.55,58.55,0,0,1-.64,17.91c-1.9,9.35-5.57,18-9.58,26.54-4.64,9.93-10,19.48-15.53,28.88-4.34,7.31-9.36,14.23-14.21,21.23-3.59,5.17-7.39,10.19-11.15,15.25-1.21,1.63-2.57,3.15-3.85,4.74-3.06,3.82-6.21,7.59-9.16,11.5a162.27,162.27,0,0,1-15.67,18.36,11.87,11.87,0,0,1-1.52,1.21c-1.9,1.34-1.89,1.32-3.7-.18-6.69-5.56-13.34-11.15-19.57-17.23-3.51-3.43-7.43-6.44-10.84-10-4.31-4.45-8.43-9.11-12.4-13.88Q462.6,616,454.51,605.57c-3.95-5.13-7.64-10.46-11.28-15.81-2-3-3.59-6.24-5.54-9.26-4.41-6.81-7.55-14.26-10.73-21.65a77,77,0,0,1-4.2-12C421.85,543.09,420.64,539.41,420.48,535.44Z"/><path class="c" d="M316.34,344c3.22,1.4,6.46,2.77,9.65,4.24a19.65,19.65,0,0,1,2.77,1.81c1.61,1.09,3.21,2.2,4.82,3.28a1.84,1.84,0,0,0,2.69-.49c.68-.86,1.13-1.88.23-2.77-3.1-3.09-4.4-7.24-6.44-10.94-2.64-4.79-5.26-9.6-7.51-14.57a117.53,117.53,0,0,1-3.95-11.28,4.26,4.26,0,0,1,0-1.29c.53,0,1.22-.2,1.56.05,1.95,1.41,4.11,2.67,5.63,4.46,3.41,4,6.62,8.2,9.63,12.52,1.3,1.85,1.8,4.23,2.82,6.3,2.24,4.57,4.21,9.31,6.94,13.57a133.59,133.59,0,0,0,15.52,20.19c1.46,1.53,3.12,2.87,4.61,4.39,3.36,3.44,6.62,7,10,10.38,2.41,2.41,5,4.66,7.49,7,3.14,2.87,6.3,5.72,9.43,8.59,1.85,1.68,3.61,3.46,5.52,5.06a57.26,57.26,0,0,1,8.95,9.78c.67.91,1.35,1.85,2.73,1.2s2.15-1.56,1.86-3.06a36.32,36.32,0,0,0-1.54-6.67,62.15,62.15,0,0,1-4-17.54c-.38-4.14-.43-8.32-.52-12.49a14.4,14.4,0,0,1,.66-4c.79,5.72,1.41,11.48,2.43,17.17.84,4.63,2.05,9.21,3.27,13.77.86,3.2,1.93,6.35,3.06,9.47a37.9,37.9,0,0,0,10.58,15.39c6.47,5.79,13.21,11.28,19.66,17.09,2.87,2.59,5.32,5.66,7.94,8.52a16.89,16.89,0,0,0,1.2,1.53c1.33,1.14,2,2.28.91,4a3,3,0,0,0,.06,2.13,19.1,19.1,0,0,0,4.66,8.12,33.81,33.81,0,0,0,5,3.41c1.14.73,2.31,1.44,3.51,2.09a1.74,1.74,0,0,0,1.31.25c2-1,2.49.48,3.34,1.69,2.82,4,5.77,8,7.59,12.54,1.16,2.91,2,5.95,2.9,8.95a1.27,1.27,0,0,1-.12,1c-.14.15-.72.08-1-.08a69.72,69.72,0,0,0-15.53-6.63c-8-2.56-16.09-5.13-24.25-7.2-6.36-1.61-12.9-2.5-19.37-3.66-3.56-.64-7.12-1.18-10.69-1.77-.08-.34-.16-.69-.25-1,8-.87,15.86.25,23.73,1.35,3.75.52,7.57.81,11.25,1.65a69.53,69.53,0,0,1,17,5.9,13.15,13.15,0,0,0,2.58,1c1.72.45,2.73-.31,2.58-2.09a7.4,7.4,0,0,0-1-2.84,44.41,44.41,0,0,0-8-10.21c-5.76-5.62-11.61-11.15-17.35-16.77-3.45-3.37-6.79-6.84-10.15-10.29a181.51,181.51,0,0,0-23.71-21c-2.63-1.9-5.27-3.77-7.9-5.66-.51-.36-1.13-.54-.41-1.44,1.85-2.34,1.87-4.55-.6-6.67a85.33,85.33,0,0,0-9.49-6.65,4,4,0,0,0-4.51,0c-1,.67-1.62.11-2.4-.52-3.67-3-7.45-5.82-11.09-8.83-3.27-2.72-6.46-5.55-9.59-8.43-2.24-2.07-4.38-4.26-6.45-6.5-1.82-2-3.52-4-5.2-6.1-4.5-5.62-10.07-10-15.79-14.31-7.52-5.6-16.16-9-24.61-12.86-4.46-2-9-3.89-13.51-5.83a5.48,5.48,0,0,1,1.46-.79,12.9,12.9,0,0,1,2.33-.05.85.85,0,0,0,.5.2l1.76.46a.65.65,0,0,0,.45.09l1.77.43a.6.6,0,0,0,.46.13l5.66,1.07a.41.41,0,0,0,.36.11l1.86.45a.44.44,0,0,0,.36.13Z"/><path class="c" d="M423.84,222.83c.22-1.84.43-3.67.66-5.5.19-1.47.5-2.93.61-4.41.62-8.14,4.62-14.31,11.17-18.91a42.56,42.56,0,0,1,6.76-3.85,9.68,9.68,0,0,0,5.68-7.06c.31-1.37-.46-3-.78-4.48-.05-.23-.36-.41-.53-.63l-2.84-3.63c1.59-.47,3.18-1,4.79-1.4a1.84,1.84,0,0,1,1.28.2c2.88,1.79,5.39,3.93,6.61,7.25a8.08,8.08,0,0,1-1.36,8.33,15.32,15.32,0,0,1-5.62,4.37c-4.39,2.15-8.81,4.36-12.5,7.66a16.56,16.56,0,0,0-5.54,9.31c-1.24,6.17-.5,12.36-.94,18.53-.18,2.59-.37,5.17-.59,7.76-.54,6.29-4.19,10.51-9.33,13.66a13.1,13.1,0,0,1-10.89,1.59c-7.62-2.15-14.19.56-20.32,4.86-3.26,2.29-6.39,4.77-9.75,6.9a24.71,24.71,0,0,1-6.52,3,33.75,33.75,0,0,1-11,1.44c-3.34-.19-6.29-1.57-9.12-3.1a46.6,46.6,0,0,1-6.15-4.23,11,11,0,0,1-3.6-5.19c-.27-.75-.07-1,.76-.77a24.58,24.58,0,0,0,3.69,1.07c3.61.55,6.86,1.53,9.66,4.21,2.25,2.14,5.5,2.34,8.45,1.59a23.38,23.38,0,0,0,7.63-3.11,55.85,55.85,0,0,0,7.93-7.31,18.81,18.81,0,0,1,7.4-4.77,43.06,43.06,0,0,1,15-2.29,62.07,62.07,0,0,0,7.7-.59c4.27-.49,7-3.21,8.94-6.73C423.58,232.34,424,227.62,423.84,222.83Z"/><path class="c" d="M453,131.29c-1.52,1.69-3.48,1.77-5.6,1.77-2.85,0-5.9-.19-8.52.69-4.64,1.57-9.16,3.72-12,8.08a18.22,18.22,0,0,1-9.32,7.62,33.55,33.55,0,0,1-9.48,1.73c-4.05.16-8.13-.42-12.2-.56-5.46-.19-10.95-.6-16.4-.27-4.67.28-9.3,1.45-13.95,2.25-.45.08-.87.31-1.32.39a5,5,0,0,1-1.09,0,5,5,0,0,1,.58-.84,28,28,0,0,1,8.51-5.68c4.15-1.84,8.3-3.71,12.54-5.32,2.75-1,5.67-1.66,8.52-2.47.35-.1.74-.1,1.08-.23,5.57-2.11,11.5-2.72,17.25-4.07a58.3,58.3,0,0,0,11.74-4.21,30,30,0,0,0,9.6-6.47c3.89-4.23,5.49-9.07,3.89-14.8-1-3.43-3.44-5.65-5.89-7.89-1-.93-2.27-1.59-3.36-2.45a1.09,1.09,0,0,1-.12-1c3.49-2.2,12-.25,14.53,3.22a3.43,3.43,0,0,1,.64,2.82,13.56,13.56,0,0,0,4.48,12.77c1.72,1.54,3.38,3.16,5,4.85a8.63,8.63,0,0,1,2.37,8.18l-.46.71a.47.47,0,0,0-.15.34Z"/><path class="c" d="M353.88,251a11.92,11.92,0,0,1-7.39-2.1c-5.36-3.93-11.47-4.43-17.71-4.65-4.89-.16-9.47,1.56-14.18,2.47-3.46.66-6.94,1.7-10.4,1.66-4.84,0-9.65-.94-12.69-5.55-1.12-1.69-2.62-3.13-3.65-4.86-2.63-4.43-3.27-9.4-3.4-14.43-.17-6.49.06-13-.33-19.46-.43-7.21-2.78-13.78-8.12-19a31.24,31.24,0,0,0-2.65-2c-4.12-3.17-6-7.34-4.83-12.43.91-4,3.85-6.74,7.16-8.89a81,81,0,0,1,20-8.89,4.65,4.65,0,0,1,1.62-.34c.29,0,.82.48.8.71-.17,1.84-.37,3.69-.72,5.5-.16.86-.86,1.24-1.82,1.42a74.37,74.37,0,0,0-8.65,1.87c-4.72,1.46-9.88,5.86-9.49,11.57a11.5,11.5,0,0,0,2,5.41c2.17,3.43,4.73,6.61,6.82,10.08a21.24,21.24,0,0,1,2.62,6.66,88,88,0,0,1,1.35,11c.19,2.65-.15,5.35,0,8,.18,3.14.6,6.26,1,9.39a48.12,48.12,0,0,0,1.21,7.9,19.28,19.28,0,0,0,3.07,5.8c2.07,2.85,5.39,3,8.53,3.27a28.59,28.59,0,0,0,11.47-1.46,31.65,31.65,0,0,1,18.57-.77c2.75.71,5.33,2.06,8,3a47.8,47.8,0,0,0,7.95,2.32c3.28.51,6.21-1,8.59-3.13a16.48,16.48,0,0,0,5-10c.24-1.58.76-2.1,2.25-1.93a11.43,11.43,0,0,0,1.94,0c1-.06,1.26.4,1.17,1.35a30.91,30.91,0,0,1-5.38,15.54C361.22,249.54,358.16,251,353.88,251Z"/><path class="c" d="M359.29,132.27a47.39,47.39,0,0,0-1.54-7,12.65,12.65,0,0,0-3-4.23c-4.51-4.56-10-7.59-15.91-9.93-3.48-1.38-4.73-3.66-3.65-7.25.59-2,1.42-3.82,2.17-5.72.69-1.72,1.53-3.39,2.11-5.14a9.89,9.89,0,0,0-.35-7.06c-.54-1.28-1.19-2.52-1.82-3.76-1.9-3.71-1.11-6.52,2.41-9.2,5.09-3.87,11-4.6,17.2-3.19,3.78.86,7.51,2,11.32,2.74A12.94,12.94,0,0,0,375.6,72a15.25,15.25,0,0,1,2.37-.77c5-1.11,8.18,1,9.13,5.94.16.88-.16,1.27-1,1.15a20.55,20.55,0,0,1-2.16-.52,31.41,31.41,0,0,0-11.52-1c-4.08.45-8.1.85-11.88,2.53a18.3,18.3,0,0,0-10.09,10.09c-2.38,5.86-1.35,11,2.52,15.8,2.45,3,5,5.91,7.51,8.92,2.63,3.22,5.37,6.37,7,10.3,1.07,2.54,2.69,4.87,3.7,7.43a72.53,72.53,0,0,1,2,7.22,1.82,1.82,0,0,1-1.1,2.45c-2.65,1.3-5.23,2.73-7.84,4.11-1.16.61-1.75-.1-2.17-1C360.27,140.71,358.52,136.81,359.29,132.27Z"/><path class="c" d="M396.27,177.11a27.42,27.42,0,0,0-9.2,2.44,9.8,9.8,0,0,1-7.87.14,90.3,90.3,0,0,1-8.87-4.53c-4.33-2.36-8.72-4.46-13.8-4.52-1.11,0-2.22-.17-3.33-.19a1.78,1.78,0,0,1-1.81-1.32c-1.28-3-1.35-3,1.84-4a48.21,48.21,0,0,1,21.67-1.77c6.77,1,13.54,2.06,20.33,3,4.2.58,8.42,1,12.64,1.45,7.17.67,14-1,20.64-3.47a43.53,43.53,0,0,0,12-6.33,1.5,1.5,0,0,1,1.41,0c2,1.78,4,3.62,5,6.22,1,2.76.43,3.88-2.45,4.6a7.1,7.1,0,0,1-1.36.26A12.18,12.18,0,0,0,433,175.49a31.5,31.5,0,0,1-6.29,7.36,9.31,9.31,0,0,1-5.74,2.5c-4.23.27-8-1.18-11.53-3.22a65.7,65.7,0,0,0-7.3-4C400.35,177.4,398.24,177.42,396.27,177.11Z"/><path class="c" d="M307.5,133.27a15.87,15.87,0,0,1,2.24-6.92,17,17,0,0,0,1.77-13.14,24.23,24.23,0,0,1-.78-5.48c-.06-2.2,1.13-3.1,3.36-3,1.86,0,3.09,1.2,4.21,2.41.29.32.14,1.22,0,1.77a19.5,19.5,0,0,0-.2,12,46,46,0,0,0,6.67,13.05c3.76,5.51,7.72,10.88,11.47,16.39a85.8,85.8,0,0,1,12.52,28.86,55.27,55.27,0,0,1,1.48,15.69c-.08,1.37.1,2.76.11,4.14,0,.17-.26.39-.44.52s-.33-.16-.41-.3a8.93,8.93,0,0,1-.63-1.23A47.18,47.18,0,0,0,343,187.28c-2.88-3.87-6-7.42-10.27-9.95a29,29,0,0,1-5.56-4.59,10.39,10.39,0,0,1-3.07-6.4c-.25-2.67-.46-5.34-.77-8a17.93,17.93,0,0,0-8.2-13.24,40.84,40.84,0,0,1-5.31-4C307.89,139.29,307.4,137.4,307.5,133.27Z"/><path class="a" d="M406.76,454.64c-.41-6.72,1.33-12.48,3.14-18.21.57-1.81,1-1.88,2.46-.63,5.19,4.44,10.46,8.8,15.52,13.39,3.62,3.27,6.93,6.89,10.42,10.3,1.52,1.49,3.24,2.77,4.73,4.28,4.61,4.68,9.16,9.43,13.72,14.16a2.32,2.32,0,0,1,.33.71,2.82,2.82,0,0,1-.76.06c-4.14-.89-8.27-1.9-12.43-2.67-3.44-.65-6.91-1.15-10.4-1.48-5.14-.49-10.31-.83-15.47-1.12a28.49,28.49,0,0,0-4.68.38c-1.85.21-2.14,0-2.75-1.78-.45-1.31-1.1-2.55-1.57-3.85C407.38,463.61,406.19,459,406.76,454.64Z"/><path class="c" d="M495.85,666.42a43.17,43.17,0,0,1-2.55,11.32c-2.76,7.1-7.06,13.21-11.76,19-1.87,2.33-4.55,4.05-7,5.86-3.58,2.63-7.28,5.1-10.94,7.63-3.27,2.27-6.69,4.36-9.79,6.85a28.79,28.79,0,0,1-7.82,4.13A50.88,50.88,0,0,1,428.11,725a42.62,42.62,0,0,1-12.36-1.69c-1.69-.5-3.41-.88-5.1-1.37-.28-.07-.47-.42-.71-.64.19-.19.34-.48.57-.56a31.94,31.94,0,0,1,3.42-1.15A131.29,131.29,0,0,0,437.34,711a98.65,98.65,0,0,0,16.74-9.75c1.13-.84,1.52-.83,1.91.7a4.43,4.43,0,0,0,5.86,3.11c2.88-1,5.7-2.22,8.47-3.49,2.37-1.09,3.75-3.32,5.05-5.41.49-.79.09-2.32-.26-3.4a29.83,29.83,0,0,0-1.82-3.73c-.86-1.78-.69-2.19,1-3.41A88.27,88.27,0,0,0,492.86,667c.65-.88,1.1-1.92,1.7-2.85.17-.27.55-.39.84-.59a3.15,3.15,0,0,1,.43.91C495.89,665.12,495.85,665.77,495.85,666.42Z"/><path class="b" d="M340.43,304.09c-3.88-4.48-7.74-9-10.46-14.31-.26-.49-.52-1-.82-1.45-1.67-2.66-2.82-2.84-5.3-.75-1.13,1-2.1,2.1-3.23,3.05-2.9,2.43-5.75,4.94-8.8,7.16a79.73,79.73,0,0,1-7.41,4.39,7.44,7.44,0,0,1-1.52.45,9,9,0,0,1,.6-1.38c3.63-5.71,7.45-11.3,10.85-17.14,1.7-2.93,2.69-6.28,3.89-9.48a9.77,9.77,0,0,0,.47-3c.14-3.68-2.47-5.55-5.85-4.09-4.58,2-9.11,4.06-13.62,6.19a11.16,11.16,0,0,1-6.41,1.34,3.84,3.84,0,0,1-.89-.33,5.82,5.82,0,0,1,.48-.63c1.5-1.51,3.12-2.91,4.49-4.53a97.07,97.07,0,0,0,10.42-14.71c.43-.74.74-1.5,1.79-1.5s2-.1,3-.16a15.4,15.4,0,0,1-1.22,2.63c-1.4,1.94-2.95,3.77-4.4,5.68a10.11,10.11,0,0,0-1.62,2.52c-.59,1.58.42,2.75,2.14,2.57a15.48,15.48,0,0,0,3-.68c4.38-1.42,8.91-2.57,12.28-6.07.21-.21.87-.36,1-.25a1.91,1.91,0,0,1,.43,1.16A45.36,45.36,0,0,1,320,278.62a7,7,0,0,0-.73,3.43c.23,2,1.57,2.62,3.39,1.71A28.54,28.54,0,0,0,330.4,278q2.12-2.21,4.19-4.46c.63-.69,1.15-.95,1.59.16.9,2.25,2.67,3.72,4.52,5.13,1.25.95,2.43,2,3.64,3,.29.24.59.61.9.63a5.05,5.05,0,0,0,2.58-.12c1-.51.7-1.59.3-2.48-.57-1.26-1.2-2.51-1.75-3.79-1.22-2.85.42-5.21,1.41-7.66.06-.16.67-.24.94-.13a15.87,15.87,0,0,1,2.21,1.13c.55.33,1,.95,1.58,1.11,3.48,1,3.91,4,4.72,6.78.3,1,.13,2.22,1.35,2.77.07.15.15.3.22.44.17.49.34,1,.5,1.47l-1.06-.1c-1.52-1.14-2.59-2.89-4.72-3.2-1.63-.23-2.87.32-3,1.93a14.79,14.79,0,0,0,.11,5.52c1.25,4,2.93,7.77,4.46,11.63.13.31.51.52.78.78l-.92.57c-3-3.37-6.06-6.72-9-10.13a23.71,23.71,0,0,1-2-3c-.3-.47-.5-1-.81-1.45-.74-1.07-2.71-2-3.56-1.65a3.17,3.17,0,0,0-1.95,3.1c-.1,4.65,0,9.28,2,13.62.61,1.31,1.19,2.64,1.77,3.95Z"/><path class="c" d="M275.66,155.69c-1.24.8-2.47,1.61-3.71,2.4s-1.55.69-1.75-.76a15.58,15.58,0,0,1,2.8-11.84,28,28,0,0,0,5.41-14.07,16.43,16.43,0,0,0-2.32-9.55c-1.82-3.41-2.58-7-1.29-10.72,1.19-3.46,2.95-6.69,6.09-8.73a84.49,84.49,0,0,1,15.74-8.23A40.28,40.28,0,0,1,302,92.71a21.51,21.51,0,0,0,11.17-6.84,16.42,16.42,0,0,0,3.4-6.91c1.38-4.79,4.61-7.63,9.29-9.06,2.63-.8,5.15,0,7.71.32.69.09.84.69.46,1.27a13.48,13.48,0,0,0-2.66,6.05c0,.15-.56.35-.85.36-5.2.09-8.43,2.29-10.38,7.13-.63,1.54-1.28,3.07-1.8,4.65a8.67,8.67,0,0,1-4.37,5.18,45.72,45.72,0,0,1-5.85,2.5c-3.75,1.32-7.56,2.48-11.32,3.76a25.76,25.76,0,0,0-10.16,7.11c-3.42,3.63-3.64,8.22-2.09,13a21,21,0,0,1-1.48,16.9,36.65,36.65,0,0,1-2.27,3.06c-.62.9-1.11,1.89-1.66,2.84l-.42.63a8.81,8.81,0,0,0-.23,9.36c-.17.19-.34.37-.5.56l0,0-1.25.49a.45.45,0,0,0-.34.18Z"/><path class="c" d="M361.7,222.67c-6.67.59-13.1-.71-19.42-2.59a49.58,49.58,0,0,1-21-12.33,65.89,65.89,0,0,1-12.23-17c-2.35-4.56-3.58-9.52-4.81-14.47-1.65-6.65-1.09-13.24.38-19.82.66-3,1.35-6,2.11-8.93.38-1.44.6-1.47,1.87-.68,2.3,1.41,2.26,1.51,1.86,4.25-.82,5.58-1.7,11.15-2.25,16.76-.45,4.65.57,9.2,1.84,13.66a46.44,46.44,0,0,0,2.4,7.08c2.7,5.68,5.8,11.12,10.22,15.7,2.64,2.73,4.85,5.9,8.39,7.63.75.36,1.45.85,2.22,1.15,4.28,1.71,8.48,3.73,12.91,5s8.82,2.87,13.58,2.29a24.55,24.55,0,0,1,3.6.24c4.68.16,9.05-1.14,13.51-2.46a64.61,64.61,0,0,0,10.9-4.65A92.08,92.08,0,0,0,410,197.07a24.56,24.56,0,0,0,3.84-5.09,1.66,1.66,0,0,1,1.94-1c.18,0,.36.08.54.11,3,.53,3,.48,1.29,3-3.44,5.28-8.11,9.3-13,13.12-1.9,1.48-3.86,2.89-5.68,4.45a38.27,38.27,0,0,1-11.21,6.49c-6.58,2.57-13.28,4.69-20.48,4.54C365.41,222.64,363.56,222.67,361.7,222.67Z"/><path class="c" d="M213.8,208.56c4.19-.23,8.06-.54,11.94-.62,6.11-.12,12.22-.24,18.33-.1,8.41.19,16.81.61,25.22,1,2.12.09,4.24.26,6.36.41a3,3,0,0,1,.75.25c-.2.25-.35.62-.62.75-3.47,1.74-7.11,3.21-10.41,5.23-4.1,2.5-8,5.35-11.86,8.23-1.65,1.23-3,2-5.23,1.22-3.21-1.14-6.67-1.54-9.9-2.64a109.84,109.84,0,0,1-18.66-8.53c-2.41-1.36-4.75-2.86-7.11-4.32a3,3,0,0,1-.63-.74,7.31,7.31,0,0,1,1-.15A3.8,3.8,0,0,1,213.8,208.56Z"/><path class="c" d="M451.43,101.12a13,13,0,0,1,10.46,4.82,7.51,7.51,0,0,1,1.8,4c.48,3.57,1.07,7.14,1.8,10.68,1,5,4.06,8.69,7.92,11.72a47.77,47.77,0,0,0,6.41,3.89,14.85,14.85,0,0,1,7.72,11.52c.51,3.41-1.82,5.37-4.1,7.08a70.76,70.76,0,0,1-6.92,4.05c-1.76,1-3.56,2-5.23,3.15a7.94,7.94,0,0,0-3.32,6.16c-.23,2.68-.37,5.36-.62,8a9.74,9.74,0,0,1-2.32,5.56c-.33.39-.7.55-1-.16-.9-2.33-1.8-4.65-2.82-6.92a1.7,1.7,0,0,1,.2-2,11.67,11.67,0,0,0,2.31-10.19c-.49-2.22.09-3.18,2.19-4.22,3.32-1.65,6.67-3.23,10-4.88a7.4,7.4,0,0,0,2-1.4c3.79-3.85,4.18-7-.66-10.58-3.32-2.45-7.1-4.29-10.67-6.41a12.3,12.3,0,0,1-6.17-10,75.72,75.72,0,0,0-.92-8.82,16.57,16.57,0,0,0-5.1-9c-1.72-1.53-3.62-2.85-5.42-4.29a6.5,6.5,0,0,1-.81-1,4.43,4.43,0,0,1,1.27-.73A9.64,9.64,0,0,1,451.43,101.12Z"/><path class="c" d="M395.26,85.05c4.64-.21,8.66,1.56,12.65,3.62a17.77,17.77,0,0,1,6.76,5.62c1.84,2.66,3.15,5.49,1.83,8.81-1.78,4.46-8,8.58-12.83,8.34a21.4,21.4,0,0,1-4.27-1.08c.61-1,1.17-2.09,1.83-3.08,1.22-1.84,2.56-3.6,3.74-5.47a4.48,4.48,0,0,0-1.88-6.08,18.19,18.19,0,0,0-12.21-1.24c-2.86.7-4.76,2.87-6.46,5-2.45,3.12-4.58,6.5-6.87,9.74a5.91,5.91,0,0,1-1,.88c-.31-.41-.78-.78-.89-1.24-1.46-6.19-.63-12,3.47-17a14.68,14.68,0,0,1,4.68-3.85A25.87,25.87,0,0,1,395.26,85.05Z"/><path class="c" d="M255.3,303.54c3.22-4.37,6.58-8.65,9.63-13.13,5.86-8.6,13.22-16,19.58-24.15,3.07-3.95,6.08-7.95,8.92-12.06,1-1.44,2.05-2,3.67-1.73,1.43.29,2.84.71,4.26,1.07-.75,1.15-1.42,2.34-2.24,3.43-2.23,2.95-4.25,6.11-6.84,8.71-3.64,3.65-7.72,6.88-11.61,10.28a12.2,12.2,0,0,0-1.29,1c-1.38,1.6-1.09,3.12.79,4.05a7,7,0,0,0,2.37.65c1.19.1,2.41,0,3.61,0a9.55,9.55,0,0,1,1.72.41,7.13,7.13,0,0,1-.95,1.27,62.89,62.89,0,0,1-5.09,4.3q-8.07,5.67-16.27,11.15a24.36,24.36,0,0,1-4.91,2.55,14,14,0,0,0-4.3,2.8Z"/><path class="c" d="M366.72,64.62c-2.43-.5-4.85-1-7.28-1.5-6.11-1.23-12.21-2.37-18.31,0a3.9,3.9,0,0,1-.8.25c-.25,0-.7.06-.73,0-.11-.31-.23-.79-.07-1,1.15-1.44,2.14-3.18,3.62-4.13a8.54,8.54,0,0,1,7.15-1.43c1.07.32,2.17.51,3.24.8,2.82.77,5.61,1.92,8.48,2.24a33.07,33.07,0,0,0,8.53-.45c3.53-.55,7-1.49,10.52-2.25,2.07-.44,4.13-1,6.22-1.26a15.73,15.73,0,0,1,15.22,6.2,13.63,13.63,0,0,1,2.93,10.18A66.81,66.81,0,0,1,403.83,79c-.31,1.39-1.07,1.74-2.41,1.46-2.27-.48-2.38-.51-2-2.77.63-4.26.47-8.42-2.49-11.84s-6.7-5.4-11.47-4.51-9.65,1.77-14.48,2.61c-1.37.23-2.76.3-4.13.45Z"/><path class="b" d="M364.22,467.88c5.62.54,11.26.9,16.85,1.67,4.27.59,8,2.75,11.76,4.84a3.53,3.53,0,0,1,.73.76,4.5,4.5,0,0,1-1.08.65c-1.79.44-3.62.74-5.4,1.25-2.12.61-4.22,1.36-6.3,2.12a3.57,3.57,0,0,0-1.33,1,2.33,2.33,0,0,0-.31,2.84,2,2,0,0,0,2.41.8c2.8-.58,5.61-1.15,8.43-1.56a22.44,22.44,0,0,1,3.84.06c1.27,0,1.2.84.55,1.4a37.69,37.69,0,0,1-5.23,4.05c-4,2.42-7.84.95-11.51-1.09a30.16,30.16,0,0,1-9.27-8.23c-2.31-3-4.88-5.8-7.32-8.7a10.66,10.66,0,0,1-.77-1.09,5.92,5.92,0,0,1,1.44-.55,20.81,20.81,0,0,1,2.5,0Z"/><path class="c" d="M241.83,258.92a10.19,10.19,0,0,1-1.1.09c-.12,0-.24-.18-.36-.28a1.23,1.23,0,0,1,.31-.36c3.94-2.4,7.85-4.85,11.86-7.15,6.81-3.9,13.69-7.69,20.54-11.53,1.93-1.09,3.91-2.11,5.8-3.28,1.29-.8,1.68-.21,2.23.89,1.05,2.15,2.24,4.23,3.45,6.3.48.81.4,1.38-.39,1.83a103.94,103.94,0,0,1-9.43,5.28,115.11,115.11,0,0,1-22,6.71c-3.59.78-7.28,1.1-10.93,1.63Z"/><path class="c" d="M460.88,90.82c-.19,1-.29,1.94-.55,2.82-.66,2.23-1.22,2.54-3.61,2.18-.37,0-.73-.12-1.1-.16-2.25-.23-2.23-.23-2.77-2.63-.76-3.4-3.28-5.3-6.12-6.73a16.58,16.58,0,0,0-7.29-1.5,19.9,19.9,0,0,1-10.36-2.63c-2.82-1.73-4.67-4.4-6.67-6.9a4.51,4.51,0,0,1-.57-2.36c-.47-6-4.83-8.76-9.94-8.44-.37,0-.85.23-1.08.07a2.32,2.32,0,0,1-.92-1.21c-.06-.25.41-.88.72-.95,4.2-1,8.36-1.65,12.38.8,1.47.9,1.77,2.21,2.06,3.7.42,2.15.6,4.48,1.57,6.38,2,3.81,5.64,5.56,9.67,6.29a78.75,78.75,0,0,0,8.29.7,30.44,30.44,0,0,1,9.67,2.34,10.71,10.71,0,0,1,6,5.91A16.82,16.82,0,0,1,460.88,90.82Z"/><path class="b" d="M257.18,326.26c6.83-.25,13.2,1.76,19.53,3.8,2,.63,3.7,2,5.51,3.12.29.17.45.54.66.82a3.79,3.79,0,0,1-1.15.52c-3.14.23-6.28.39-9.42.61a9.55,9.55,0,0,0-5.39,2,2.5,2.5,0,0,0-1.18,2.84,2.13,2.13,0,0,0,2.62,1.51c4-.51,7.91.54,11.83,1.2,1.09.19,2.18.37,3.26.59.24,0,.44.28.66.43a2.56,2.56,0,0,1-.52.52,22,22,0,0,1-11,3.1,1.67,1.67,0,0,1-.81-.1c-3.91-2.17-8.74-2.77-11.56-6.78a23.15,23.15,0,0,1-1.94-3c-1.67-3.41-3.2-6.89-6-9.59-.53-.53-.61-.94.25-1.05C254.08,326.56,255.63,326.42,257.18,326.26Z"/><path class="b" d="M418,345.35c-.06,1.11-.06,2-.17,3-.3,2.51-.85,4.92-3,6.57a13.09,13.09,0,0,0-1,1c-.76.71-1,2.25-2.4,1.8-.27-.09-.05-1.88.08-2.87.27-2.2.65-4.38.93-6.58.14-1.1.28-2.28-.95-3a2.66,2.66,0,0,0-3.27,1.41c-1.13,2-2,4.16-3,6.26-.23.5-.32,1.07-.53,1.58-.33.84-.71,1.66-1.07,2.49a16.71,16.71,0,0,1-2.14-2.41c-1.79-3.06-1.22-6.26-.22-9.41a52.2,52.2,0,0,1,9-16.14c1.73-2.21,2.39-2,3.37.65a22.84,22.84,0,0,0,1.59,3.81C417.48,337.24,417.87,341.35,418,345.35Z"/><path class="c" d="M431.92,110.49a7.25,7.25,0,0,1-2.61,4.9c-2.63,2.62-5.53,4.94-9.55,5.11a8.28,8.28,0,0,0-2.11.61c-2.17.71-4.38.35-6.57.22-.84,0-.83-.53-.46-1.12,1.48-2.34,2.91-4.72,4.46-7a7,7,0,0,1,1.79-1.68,8.65,8.65,0,0,0,3.5-4.5,31.84,31.84,0,0,1,1.4-3.31c1-2.41,1.11-2.51,3.05-.92a73.54,73.54,0,0,1,5.86,5.45A8.3,8.3,0,0,1,431.92,110.49Z"/><path class="c" d="M359.83,91.16c.63-1.9,1.2-3.83,1.94-5.68a2.53,2.53,0,0,1,1.41-1.21,38.92,38.92,0,0,1,15.18-2.49,4.42,4.42,0,0,1,1.4.59,6.59,6.59,0,0,1-.81,1.06A52.25,52.25,0,0,0,375,86.9c-2.09,2.31-4.09,4.65-5.15,7.76-.76,2.22-2.35,4.16-3.54,6.24-.35.61-.62.76-1.24.23A14.81,14.81,0,0,1,359.83,91.16Z"/><path class="c" d="M399,126.91a6.24,6.24,0,0,1-1.41-.19c-5-2-10-4-14.34-7.22a15.29,15.29,0,0,1-3-3.6c-.28-.4-.06-1.15,0-1.74,0-.08.1-.15.16-.23,1.06-1.39,1.88-3.54,3.24-4,1.57-.49,2.64,1.8,3.75,3a31.35,31.35,0,0,0,14,8.74c1.2.37,1.63.71.75,1.85a12.25,12.25,0,0,0-1.42,2.39C400.3,126.7,399.91,127.21,399,126.91Z"/><path class="c" d="M389.39,134.76a5.14,5.14,0,0,1-1.22-.51c-4.58-3.58-9.65-6.58-13.45-11.1-1.54-1.85-3-3.76-4.45-5.69-1.27-1.69-2.42-3.48-3.69-5.17a1.79,1.79,0,0,1,.16-2.68c.75-.8,1.29-1.8,2-2.67a5.76,5.76,0,0,1,1-.82,4.23,4.23,0,0,1,.32,1c.23,5.36,3.32,9.38,6.45,13.26a42.62,42.62,0,0,0,6.77,6.14,19.31,19.31,0,0,0,3.94,2c2.67,1.27,5.35,2.53,8,3.81a2.17,2.17,0,0,1,.53.52c-.2.17-.38.45-.62.51C393.23,133.81,391.34,134.27,389.39,134.76Z"/><path class="c" d="M392.66,727.22c3.83,1,8,2,12,3.19A51.36,51.36,0,0,1,417,736.14a7.41,7.41,0,0,1,2.7,2.6c.88,1.66-.13,2.91-1.92,2.33a44.73,44.73,0,0,1-7.65-3.14c-3.75-2-7.29-4.41-11-6.44-2.26-1.22-4.75-2-7.13-3a4.1,4.1,0,0,1-.83-.64Z"/><path class="b" d="M467,665.85c-.21,4.72-.54,9.42-.59,14.13a22.93,22.93,0,0,0,3.4,12.71c.75,1.18.43,1.86-.6,2.49l-.24.15c-3.68,2.24-3.75,2.08-4.66-1.72a38.24,38.24,0,0,1-.64-17.05C464.42,672.89,465.84,669.36,467,665.85Z"/><path class="c" d="M441.62,139.82c-1.26,4.53-2.51,9.06-3.81,13.58a1.92,1.92,0,0,1-.8,1.07c-1.57,1-3.16,1.9-4.79,2.76-.68.35-1.33.3-1-.8.2-.71.32-1.45.57-2.14a38.33,38.33,0,0,0,2.32-10.77,2.67,2.67,0,0,1,1.55-2.66c1.6-.7,3.17-1.46,4.79-2.1C441.4,138.37,441.85,138.76,441.62,139.82Z"/><path class="c" d="M322,114.39c-.47-3.23,1-5.6,3-7.79q2.06-2.23,4.16-4.42a2.16,2.16,0,0,1,.67-.36c.05.23.2.49.15.69a17.08,17.08,0,0,0,0,7.66,2,2,0,0,1-.33,1.52c-2.34,2.45-3.44,5.65-5.23,8.42a5.36,5.36,0,0,1-.7.73c-.22-.27-.56-.51-.63-.81C322.66,118.15,322.33,116.27,322,114.39Z"/><path class="b" d="M465.05,460.39c-.09,1.2-.16,2.4-.28,3.59-.06.6-.21,1.19-.32,1.79a11.09,11.09,0,0,1-1.62-1c-2.14-2-3.65-4.22-2.41-7.33,1.35-3.4,1.13-6.85.46-10.34a20.69,20.69,0,0,1-.14-2.74c.41.79.85,1.55,1.22,2.35A32.42,32.42,0,0,1,465.05,460.39Z"/><path class="b" d="M361.15,342.74c1.58,5.34.6,10.56-.84,15.74-.21.78-.6,1.19-1.28.35a9.85,9.85,0,0,0-.67-.89c-1.77-1.81-1.78-3.36-.42-5.74C359.55,349.39,360.11,346,361.15,342.74Z"/><path class="b" d="M383.87,414.18c-.37,0-.74,0-1.11-.06-1.18-.16-2.36-.35-3.54-.52a22.43,22.43,0,0,0,3-1.19,60.33,60.33,0,0,0,5.13-3.21c.79-.56,1.31-.73,2.15-.05,1.28,1,2.71,1.89,4.06,2.85a2.81,2.81,0,0,1,.48.59c-.21.15-.41.4-.64.43-3.18.47-6.36.91-9.55,1.36Z"/><path class="b" d="M494.38,694.3a3.37,3.37,0,0,1-.55,0c-.49-.08-1-.19-1.46-.29.37-.37.72-.76,1.11-1.12.2-.19.52-.29.64-.51,1.58-2.84,3.92-2.85,6.57-1.85a4.3,4.3,0,0,0,.81.16l3,.61a15.46,15.46,0,0,1-2.87,1.56c-2.37.7-4.81,1.19-7.21,1.76Z"/><path class="c" d="M396,101.6c2.08,0,2.26.22,1.56,1.43s-1.38,2.41-2.15,3.55-1.33,1.23-2.39.33c-2.16-1.82-2.13-2.7.34-4.2A15.26,15.26,0,0,1,396,101.6Z"/><path class="b" d="M301.29,340.51a12.9,12.9,0,0,0-2.33.05,5.48,5.48,0,0,0-1.46.79c-1.13-.29-2.27-.56-3.39-.89-.2-.06-.32-.37-.48-.57.23-.08.47-.26.69-.23C296.64,339.92,299,340.22,301.29,340.51Z"/><path class="b" d="M311.89,342.89l-5.66-1.07C308.17,341.9,310.17,341.65,311.89,342.89Z"/><path class="b" d="M340.43,304.09l.94-.58a11.84,11.84,0,0,1,.86,1.39,2.67,2.67,0,0,1,.13,1,4.18,4.18,0,0,1-.87-.52A14.12,14.12,0,0,1,340.43,304.09Z"/><path class="b" d="M354.93,299.07l.92-.57c.25.26.6.48.73.79a4.33,4.33,0,0,1,.16,1.16,3.12,3.12,0,0,1-1-.34A6.64,6.64,0,0,1,354.93,299.07Z"/><path class="b" d="M255.3,303.54l1.05.65c-.13.13-.24.31-.39.38-.56.25-1.14.46-1.71.68Z"/><path class="b" d="M303.55,341.17l-1.76-.46Z"/><path class="b" d="M305.77,341.69l-1.77-.43Z"/><path class="b" d="M314.11,343.45l-1.86-.45Z"/><path class="b" d="M316.34,344l-1.87-.39Z"/><path class="b" d="M358.24,281.84l1.06.1-.12.65Z"/><path class="c" d="M322.84,339.9l.67.61-.95-.24C322.65,340.15,322.74,340,322.84,339.9Z"/><path class="b" d="M276.71,155.06l1.25-.49Z"/><path class="b" d="M453,131.29l.83-.84Z"/><path class="b" d="M358.8,280.47c-.07-.14-.15-.29-.22-.44A.36.36,0,0,1,358.8,280.47Z"/><path class="b" d="M278.67,144.67l.42-.63Z"/><path class="b" d="M275.66,155.69l.71-.45Z"/><path class="b" d="M277.94,154.59c.16-.19.33-.37.5-.56C278.27,154.22,278.1,154.4,277.94,154.59Z"/><path class="b" d="M454,130.11l.46-.71Z"/><path class="b" d="M506,268.64a23.07,23.07,0,0,1-3.67,11.82,10.1,10.1,0,0,1-10.07,4.5,9,9,0,0,1-8-6.44,36.49,36.49,0,0,1-1-4,4.43,4.43,0,0,1,.07-1.08,3.74,3.74,0,0,1,1,.32c4.49,3.18,8.95,2.19,13.32-.18a21.54,21.54,0,0,0,7.21-6.42,7.78,7.78,0,0,1,.75-.77,8.07,8.07,0,0,1,.37,1.18A5.75,5.75,0,0,1,506,268.64Z"/><path class="b" d="M490.93,365.28c.42,5.61,0,10.87-5.38,14.28-3.9,2.46-6.58,2.57-10.13-.36a21.46,21.46,0,0,1-7.36-11.51,3,3,0,0,1,.09-.92,5.27,5.27,0,0,1,.63.52c.93,1,1.81,2.11,2.78,3.11,4.63,4.76,10.48,4.73,15.88.33a10.65,10.65,0,0,0,2.24-2.45A17.71,17.71,0,0,0,490.93,365.28Z"/></svg>