<svg xmlns="http://www.w3.org/2000/svg" viewBox="0 0 800 800"><defs><style>.a{fill:#98323e;}</style></defs><title>trapdoor</title><path class="a" d="M638.39,399.66q0-113.71,0-227.43c0-36,.1-72,.59-108,.19-13.4.77-13.32-12.4-13.32q-171.93,0-343.87-.14c-37.39-.08-74.79.69-112.17-.76-8-.31-9.95,1.7-9.58,8.56,1.18,22,.81,44.11,1.52,66.17,1.41,43.35.4,86.76.41,130.15q0,192.15.08,384.3c0,34.77.4,69.55-.69,104.32-.1,3.36,1.37,4.84,4.56,4.92,2.61.06,5.23.13,7.84.13q101.32.07,202.66.16c51.47.1,102.93.45,154.4.6,31,.09,61.94-.48,92.89.52,14,.46,14.11.6,14.1-13.55C638.73,624.09,638.51,399.66,638.39,399.66Z"/><path d="M638.75,736.31c0,14.15-.12,14-14.1,13.55-30.95-1-61.92-.43-92.89-.52-51.47-.15-102.93-.5-154.4-.6q-101.33-.21-202.66-.16c-2.61,0-5.23-.07-7.84-.13-3.19-.08-5.87-1.56-5.76-4.92,1.08-34.77,1.06-662.9-.12-684.94-.37-6.86,1.56-8.87,9.58-8.56,37.38,1.45,74.78.68,112.17.76q171.95.32,343.87.14c13.17,0,12.59-.08,12.4,13.32-.49,36-.55,72-.59,108q-.1,113.72,0,227.43C638.51,399.66,638.73,624.09,638.75,736.31ZM462.31,400.78l-.08.08c-2.23-6.12-7.9-9.46-11.72-14.3s-9-7.17-15.71-6.94c-19.47.67-37.47,4.5-51.15,19.89-4.39,4.94-7,10-4.6,16.92,1.46,4.13,2,8.59,3.15,12.85.53,2,.39,4.54,3.11,5.17,1.54-.64,2.14-2,2.89-3.13a61.46,61.46,0,0,1,28.13-23.68C431.05,401.38,446.44,399.41,462.31,400.78Zm6.8-162V239c4,0,8,.11,12.06,0,14.46-.47,29,1.28,43.37-.73,25.63-3.58,51.39-6.43,75.82-16.05,15.6-6.13,32.38-20.92,33.52-40.32.86-14.65.71-29.24.94-43.86.22-14.25-.07-28.49.49-42.76.34-8.62-1.06-17.54-1.17-26.36-.18-13.33-.23-13.33-13.33-13.34-86,0-172.1-.39-258.15.08-33.09.18-66.27-2.7-99.28,2.32-14.5,2.21-29,4.25-43.42,7.12-10.2,2-19.42,6.55-28,12.25a44.41,44.41,0,0,0-17.32,21.17,122.69,122.69,0,0,0-8,41.24c-.49,28.94-.17,57.9-.15,86.85a48.26,48.26,0,0,0,.39,7.22c.38,2.49,1.75,3.89,4.64,3.3,8.73-1.79,17.56-.21,26.32-.24,36.38-.11,72.77.46,109.15,1,38.34.55,76.69-.22,115,.9C437.73,239.18,453.43,238.8,469.11,238.8ZM329,535c0,8.64.06,17.28,0,25.92-.19,21.91-.52,43.83-.63,65.74,0,7.84,1,8.67,8.88,8.24,27.71-1.49,55.45-1.56,83.18-2.34,7.83-.22,15.68,0,23.52,0,6.77,0,7.52-.79,7.58-7.7,0-1.4,0-2.81-.07-4.22-.94-29.54,1.44-59.07.16-88.62-.26-5.82,1.69-7.55,7.54-7.51,4.62,0,9.23.57,13.85.56q52.16-.14,104.3-.43c5.67,0,7-1.36,7.11-7.24.55-29.34,3-58.64,1.36-88-.25-4.4,1.44-6.74,6.18-6.84,11.66-.24,23.26-1.57,34.94-1.39,6.84.1,7.84-.89,7.85-7.53q.06-80.24,0-160.47c0-7-.64-7.66-7.55-7.69-37.6-.19-75.2-.25-112.8-.54-5.15,0-7.52,1.84-8.71,6.88-4.75,20.13-1.56,39.09,7.58,57.33a141.2,141.2,0,0,0,8.51,15.25c2.28,3.43,1.6,6-1.81,8.71-5.68,4.45-12.37,7.58-17.18,13.17-12.72,14.77-20.74,31.47-21.06,51.32-.29,18.2-1.8,17-16.84,12.68-25.07-7.16-63.54,6.5-75.88,33.59-3.44,7.57-7.28,7.88-14.32,3.09-11.25-7.65-23.46-12.28-37.38-11.17-8.22.66-8.84,1.18-8.82,9.36C328.59,475.1,329.81,505,329,535ZM166.5,498.25h.08q0,14.78,0,29.56.09,103.13.21,206.27c0,10,.68,10.57,10.62,10.58q64.23.12,128.47.18c13.93,0,14,2,13.95-13.75-.1-49.64,1.34-99.29-.8-148.93-1.61-37.55-2.49-75.12-5-112.62-1.64-24.26-3-48.52-7.09-72.56-1.89-11.07-3.3-22.25-4.86-33.38-2.7-19.34-5.55-38.39-14.37-56.23-9-18.19-19.63-34.61-38.52-43.93-2.85-1.41-4.18-4.68-7.89-5.14a548.84,548.84,0,0,0-64.33-3.7c-10.43-.06-10.43-.12-10.44,10.24ZM509.16,329.94c-9.56-2.29-16.61-6.52-24.29-9.32a6,6,0,0,0-5.21.67c-17.28,10-27.6,24.74-30.57,44.56A12.58,12.58,0,0,0,453,377.29c5.12,5.12,10,10.47,15.11,15.58,1.46,1.45,2.58,3.68,5.8,3.63C475.78,369.9,486.14,347.46,509.16,329.94Zm-.63-9.3a3.63,3.63,0,0,0-.26-3.64c-11.46-21-16-43.11-11.48-66.83.31-1.61.35-3.2-1.11-4.42-4.47-3.75-17.79-.94-20,4.44-6,14.94-6.53,30.14-1,45.29,1.87,5.19,3.1,11.26,8.3,14.31A110.24,110.24,0,0,0,508.53,320.64ZM433.4,370.27c-2.19-5.91-7-8.18-9.57-12.09-7.57-11.44-18.48-11.51-29.85-8.83-25.39,6-30.59,24.31-17.81,47C390.07,376.77,410.83,372.21,433.4,370.27Zm39-54.62a148.43,148.43,0,0,0-25.52-11.21,5.83,5.83,0,0,0-3.51.44c-16,5.69-22.63,21.45-21.66,37.24a3.8,3.8,0,0,0,.81,2.22c5.69,6.07,11.46,12.09,18.21,19.17C445.6,343.21,455.2,327.45,472.37,315.65Zm-4.27-70.41c-6.8-1.44-12.79-.73-18.7-.89-3.7-.1-6.09,1.64-7.65,4.8-1,2-2,4-2.82,6-4.23,10.33-2.47,20.27,1,30.54,2.8,8.29,9.75,10,16.25,12.88,2.2,1,4.38,2,6.63,2.88,1.44.54,3,1.47,5.07-.67C461,282.92,461.75,264.41,468.1,245.24ZM375.42,434.82c-1.94-7.57-3.75-15.13-5.86-22.6-.61-2.15-2.58-3.62-4.58-4.62-8.42-4.25-17.25-6.69-26.75-4.82-8.86,1.75-10.1,3.45-10,12.59,0,2.61.14,5.22.2,7.83.09,3.47,1.48,5.17,5.29,4.53,12.37-2.07,23.93.46,34.87,6.4C370.28,435.05,372,436.43,375.42,434.82ZM413.93,334.3c2.32-14.83,7.61-26.78,19.93-34.57-3.68-4.36-8.33-5.41-12.38-7.36-9.42-4.54-16.35-2.63-21.49,6.57-3.33,6-5.92,13.26-2,19.37C401.67,324,407.68,328.2,413.93,334.3Zm-48.82,24.22c9.2-14.37,23.37-18.4,39.06-19.65-8.89-15.36-20.15-20-33.79-14.67-7,2.72-12.53,9.5-11.73,15.15C359.58,345.84,362.08,351.93,365.11,358.52Zm-.46,38.18c.44-6.72-3.31-19.88-6-22.56C352.44,368,340,366,332.1,369.86c-1.45.71-3.19,1.35-3.43,3.11a83.49,83.49,0,0,0,.34,23.78C341.5,392.26,353.11,393.07,364.65,396.7Zm68.6-151.45c-6.59-1.52-12.23-1.66-17.88-.3-1,.24-1.89,1.46-2.53,2.42-5.83,8.72-6.49,18.1-2.4,27.51,3.7,8.49,12.59,8.57,20.36,11.34C426.83,272.39,427.8,259.08,433.25,245.25ZM354.81,361.1c.2-7.59-2.59-12.91-3.59-18.58-.76-4.32-3.56-6.72-7.64-7.49-4.85-.9-9.65-.73-13.81,2.43a3.18,3.18,0,0,0-1.13,2c-.45,7.14-.9,14.28.11,21.53C337.81,362.46,345.81,356.4,354.81,361.1Zm47-76.45c-6.55-4-12.67-5.88-18.45-8.45a4.29,4.29,0,0,0-4,.57c-4.62,2.72-8.21,14-5.25,18.36,3.64,5.4,8.52,9.74,14.5,14.59C390,299.27,394,291.44,401.81,284.65Zm2.11-40.21c-7.42.27-14.12-3.1-18.8,2.74-4.42,5.5-3.64,12.16-.76,18.32,1.84,4,10.35,7.39,16.14,6.62C398.8,263.15,399.6,254.29,403.92,244.44ZM378.11,312c-4.75-5.06-8.51-8.89-12.05-12.91-2.55-2.9-5.42-3.18-8.68-1.72-3.73,1.68-8.08,3.79-7.85,8.19.32,6.25,2.54,12.3,6,19C361.54,317.43,369.12,314.78,378.11,312Zm-51,5.07v2.41c.06,8.61.05,8.57,8.64,6.95a44.07,44.07,0,0,1,6-.43c2.4-.11,4-1.14,3.42-3.73-.9-4.31-1.62-8.7-3.63-12.66s-5.79-4.59-9.81-3.94-4.7,3.74-4.6,7.2C327.19,314.24,327.15,315.64,327.14,317Zm43.74-45.47c-5.34-5.12-12.75-5.78-18.74-9.23-1.52-.87-3.05.42-4.09,1.77s-1.35,3.05-.15,4.42a175.31,175.31,0,0,0,16.79,17Zm-14.37-16.92a100.32,100.32,0,0,0,17.33,7.76c.29-4.92.53-9.07.78-13.21,0-.4.13-.79.16-1.19.18-2.53-1.23-3.48-3.53-3.93C362.61,242.41,360.22,244,356.51,254.65Zm-18.35,18.29c1.57,7.82,4.25,14.16,7.69,21.48,2.71-3.4,6.19-4,8.23-7.63C348.89,282.55,345.66,276.33,338.16,272.94Zm-8.56,2.7c-3.49,5.15-2.18,10-2.16,14.62,0,6.72,2,7.61,8.39,3.81C334,288.33,335,281.59,329.6,275.64Z"/><path class="a" d="M469.11,238.8c-15.68,0-31.38.38-47.05-.08-38.34-1.12-76.69-.35-115-.9-36.38-.52-72.77-1.09-109.15-1-8.76,0-17.59-1.55-26.32.24-2.89.59-4.26-.81-4.64-3.3a48.26,48.26,0,0,1-.39-7.22c0-28.95-.34-57.91.15-86.85a122.69,122.69,0,0,1,8-41.24A44.41,44.41,0,0,1,192,77.3c8.57-5.7,17.79-10.21,28-12.25,14.39-2.87,28.92-4.91,43.42-7.12,33-5,66.19-2.14,99.28-2.32,86-.47,172.1-.11,258.15-.08,13.1,0,13.15,0,13.33,13.34.11,8.82,1.51,17.74,1.17,26.36-.56,14.27-.27,28.51-.49,42.76-.23,14.62-.08,29.21-.94,43.86-1.14,19.4-17.92,34.19-33.52,40.32-24.43,9.62-50.19,12.47-75.82,16.05-14.39,2-28.91.26-43.37.73-4,.13-8,0-12.06,0Zm-71-49.34c4.18-6.91,10.71-10.79,15.91-16,1.74-1.76,3.76-3.06,6.46-2.37,13.35,3.4,27.13,3,40.68,4.67,20.39,2.49,40.77,4.1,61.33,2.25,6-.55,12-.5,18.07-.61a135,135,0,0,0,41.92-7.69c2.59-.9,5.29-2,5.46-4.95.24-4.4,2.57-7.45,5.2-10.54,3-3.57,2.91-7-1.1-9.75a22.33,22.33,0,0,1-7.38-7.82c-2.74-5.17-7.16-7.33-12.57-8.23a427,427,0,0,0-77.46-5.6,283.56,283.56,0,0,0-70.24,10c-3.88,1.06-6.35,0-8.9-2.93a173.33,173.33,0,0,0-12.16-12.54c-2.5-2.39-5.51-4.22-9.25-3.43-11.45,2.43-23.24,2.16-34.69,4.19-37.77,6.71-75.91,11.29-113.44,19.46-10,2.18-20.2,3.57-29.91,7-2.28.81-5.35,1-5.73,5.88Q303.76,171.21,398.08,189.46Z"/><path class="a" d="M329,535c.78-30-.44-59.9-.52-89.86,0-8.18.6-8.7,8.82-9.36,13.92-1.11,26.13,3.52,37.38,11.17,7,4.79,10.88,4.48,14.32-3.09,12.34-27.09,50.81-40.75,75.88-33.59,15,4.3,16.55,5.52,16.84-12.68.32-19.85,8.34-36.55,21.06-51.32,4.81-5.59,11.5-8.72,17.18-13.17,3.41-2.67,4.09-5.28,1.81-8.71a141.2,141.2,0,0,1-8.51-15.25c-9.14-18.24-12.33-37.2-7.58-57.33,1.19-5,3.56-6.92,8.71-6.88,37.6.29,75.2.35,112.8.54,6.91,0,7.55.68,7.55,7.69q0,80.23,0,160.47c0,6.64-1,8.94-7.88,8.83-11.68-.17-23.25-.15-34.91.09-4.74.1-6.43,2.44-6.18,6.84,1.66,29.37-.81,58.67-1.36,88-.1,5.88-1.44,7.21-7.11,7.24q-52.16.27-104.3.43c-4.62,0-9.23-.53-13.85-.56-5.85,0-7.8,1.69-7.54,7.51,1.28,29.55-1.1,59.08-.16,88.62,0,1.41.08,2.82.07,4.22-.06,6.91-.81,7.69-7.58,7.7-7.84,0-15.69-.22-23.52,0-27.73.78-55.47.85-83.18,2.34-7.92.43-8.91-.4-8.88-8.24.11-21.91.44-43.83.63-65.74C329.09,552.28,329,543.64,329,535ZM522.7,373.88c-3.29,2.92-2.9,6.44-4,9.33-7.64,20.93-13.6,42.39-20.35,63.61-2.55,8-3,16.18-.51,24.3a23.46,23.46,0,0,0,17.62,16.49c8.79,2.15,16.51-.53,22.67-7.64,7.28-8.4,6.67-18.09,5.27-28-3.2-22.51-9.16-44.39-15.54-66.15C526.74,381.9,525.66,377.86,522.7,373.88ZM381.16,472.81c-2.67,1-3,3.38-3.31,5.5-1.62,11.62-6.05,22.47-9,33.73-3.72,14.17-8.54,28.09-10,42.78-.71,7,0,13.86,4.65,19.42,6.55,7.89,20.07,10.12,30,5.45,11.28-5.28,14.81-12,12.62-24.86-4.49-26.44-13.58-51.64-21.12-77.25C384.45,475.7,384,473.62,381.16,472.81ZM569.42,332.73a65.71,65.71,0,0,0,.74,7.17c1.62,7.87,5.06,14.6,13.27,17.23,8.45,2.72,15.29-.78,21.25-6.6a22.11,22.11,0,0,0,4.34-6.45c3.37-7,3.11-14.32,2.14-21.83-2.51-19.52-1.41-38.5,9.36-55.86,1.7-2.74,5.32-6.09,2-9s-6.71.6-9.33,2.85c-12.09,10.41-22.66,22.22-30.82,36C575.67,307.46,569.52,319,569.42,332.73Z"/><path class="a" d="M166.5,498.25V264.84c0-10.36,0-10.3,10.44-10.24a548.84,548.84,0,0,1,64.33,3.7c3.71.46,5,3.73,7.89,5.14,18.89,9.32,29.52,25.74,38.52,43.93,8.82,17.84,11.67,36.89,14.37,56.23,1.56,11.13,3,22.31,4.86,33.38,4.09,24,5.45,48.3,7.09,72.56,2.54,37.5,3.42,75.07,5,112.62,2.14,49.64.7,99.29.8,148.93,0,15.75,0,13.75-13.95,13.75q-64.23,0-128.47-.18c-9.94,0-10.61-.58-10.62-10.58q-.15-103.14-.21-206.27,0-14.77,0-29.56Zm46.69-52.06.8.8a97.6,97.6,0,0,1-25.45,34,29.19,29.19,0,0,0-4.06,4.4,3,3,0,0,0,0,3.92c1.07,1.18,2.53,1,3.91.42a23.89,23.89,0,0,0,7.4-5.1c3.84-3.71,7.77-7.32,11.73-11,2.14,2.35,1.3,4.63,1.26,6.73-.17,9.25-.58,18.5,2.44,27.47.82,2.43,1,5.22,5.06,5.38,2.1-5.28,1.29-10.7.58-15.89-2.36-17.48.87-34,7.63-50,7.73-18.31,16.48-36.26,19.83-56.12.18-1,.19-2.59,2.6-2.45,3.81,10.11,7.39,20.55,11.69,30.69,2.76,6.54,1.56,11-3.66,15.86-12.83,11.91-20.19,26.79-22.14,44.33a246,246,0,0,0-1.16,33.12c.11,4.81-.36,9.69,1.15,14.38,1.77,5.49,4.61,6.56,8.76,2.71,5.43-5,11-10,15.6-15.92,5.19-6.64,8.39-14.47,12.74-21.54a1.82,1.82,0,0,1,1.15,2.19c-.64,11.25-1.64,22.4-4.74,33.35-3.88,13.74-8.57,27.24-12.36,41a105.38,105.38,0,0,1-17.34,35.46,7.46,7.46,0,0,1-4.84,3.25c-15.76,2.74-25.54,12.89-32,26.6a134.62,134.62,0,0,0-13.26,49.16c-.25,3.7,2,5,4.93,5.66a31.21,31.21,0,0,0,10.82,0,14.52,14.52,0,0,1,11.15,2.94c10,7.18,21.32,9.11,32.58,4.18,6.48-2.84,11.86-3.24,18.27-.52,5.93,2.51,8.32,1,10.48-5.11a117,117,0,0,0,6-24c2.65-21-3.19-38.52-20.93-51.16-1.69-1.21-3.19-2.57-3.37-4.76-.65-8-2.38-16-.23-24,2.35-8.72,5.14-17.33,7.84-26,.36-1.17.32-3,2.86-2.92,1.18,3.2,2.37,6.58,3.68,9.91,3.77,9.64,8.7,18.6,16.23,25.84,4.14,4,8,3,9.4-2.45,3.79-15.06,6.74-30.28,4.24-45.92-2.34-14.65-5.95-28.92-17-39.71-3.69-3.58-4.93-7.26-4.8-12.23.38-13.87.14-27.7-2.66-41.42-4-19.43-11.41-37.67-18.38-56.09-2-5.31-4-10.61-6.08-15.95,2.55-.79,3.59.31,4.71,1.11,5.06,3.62,10.13,7.25,15.15,10.94,2,1.46,4,3,6.55,1.61s2.8-3.77,2.64-6.27a57.55,57.55,0,0,0-.71-7.2c-5.67-29.33-21.83-52.34-43.95-71.47-4.25-3.68-5.87-7.06-4.95-12.38a44.24,44.24,0,0,1,8.83-19.57c1.19-1.55,2.33-3.53.63-5.49-1.42-1.63-3.29-1.11-5.07-.64-4.85,1.27-9.65,2.65-14.71,3.13-15.4,1.46-18.31,6.44-12.44,20.74q.12.29.21.57c4.44,14.64,10.51,28.67,16,42.91,3.83,9.9,9.12,19.27,11.08,29.88,2.81,15.22,2.29,30-5.63,43.83-8.17,14.27-17.84,27.22-31.86,36.39-1.88,1.23-3.81,3-2.37,5.45,1.67,2.82,3.87.75,5.76-.1C205.49,451.26,208.54,447.36,213.19,446.19Z"/><path class="a" d="M509.16,329.94c-23,17.52-33.38,40-35.23,66.56-3.22.05-4.34-2.18-5.8-3.63-5.12-5.11-10-10.46-15.11-15.58a12.58,12.58,0,0,1-3.93-11.44c3-19.82,13.29-34.58,30.57-44.56a6,6,0,0,1,5.21-.67C492.55,323.42,499.6,327.65,509.16,329.94Z"/><path class="a" d="M462.31,400.78c-15.87-1.37-31.26.6-46,6.86a61.46,61.46,0,0,0-28.13,23.68c-.75,1.16-1.35,2.49-2.89,3.13-2.72-.63-2.58-3.21-3.11-5.17-1.16-4.26-1.69-8.72-3.15-12.85-2.44-6.88.21-12,4.6-16.92,13.68-15.39,31.68-19.22,51.15-19.89,6.71-.23,11.78,2,15.71,6.94s9.49,8.18,11.72,14.3Z"/><path class="a" d="M508.53,320.64A110.24,110.24,0,0,1,483,309.79c-5.2-3.05-6.43-9.12-8.3-14.31-5.49-15.15-5-30.35,1-45.29,2.17-5.38,15.49-8.19,20-4.44,1.46,1.22,1.42,2.81,1.11,4.42-4.56,23.72,0,45.86,11.48,66.83A3.63,3.63,0,0,1,508.53,320.64Z"/><path class="a" d="M433.4,370.27c-22.57,1.94-43.33,6.5-57.23,26.06-12.78-22.67-7.58-41,17.81-47,11.37-2.68,22.28-2.61,29.85,8.83C426.43,362.09,431.21,364.36,433.4,370.27Z"/><path class="a" d="M472.37,315.65c-17.17,11.8-26.77,27.56-31.67,47.86-6.75-7.08-12.52-13.1-18.21-19.17a3.8,3.8,0,0,1-.81-2.22c-1-15.79,5.65-31.55,21.66-37.24a5.83,5.83,0,0,1,3.51-.44A148.43,148.43,0,0,1,472.37,315.65Z"/><path class="a" d="M468.1,245.24c-6.35,19.17-7.12,37.68-.22,55.54-2.08,2.14-3.63,1.21-5.07.67-2.25-.86-4.43-1.9-6.63-2.88-6.5-2.9-13.45-4.59-16.25-12.88-3.47-10.27-5.23-20.21-1-30.54.84-2,1.85-4,2.82-6,1.56-3.16,3.95-4.9,7.65-4.8C455.31,244.51,461.3,243.8,468.1,245.24Z"/><path class="a" d="M375.42,434.82c-3.45,1.61-5.14.23-6.84-.69-10.94-5.94-22.5-8.47-34.87-6.4-3.81.64-5.2-1.06-5.29-4.53-.06-2.61-.17-5.22-.2-7.83-.09-9.14,1.15-10.84,10-12.59,9.5-1.87,18.33.57,26.75,4.82,2,1,4,2.47,4.58,4.62C371.67,419.69,373.48,427.25,375.42,434.82Z"/><path class="a" d="M413.93,334.3c-6.25-6.1-12.26-10.29-15.93-16-3.93-6.11-1.34-13.4,2-19.37,5.14-9.2,12.07-11.11,21.49-6.57,4,1.95,8.7,3,12.38,7.36C421.54,307.52,416.25,319.47,413.93,334.3Z"/><path class="a" d="M365.11,358.52c-3-6.59-5.53-12.68-6.46-19.17-.8-5.65,4.76-12.43,11.73-15.15,13.64-5.32,24.9-.69,33.79,14.67C388.48,340.12,374.31,344.15,365.11,358.52Z"/><path class="a" d="M364.65,396.7c-11.54-3.63-23.15-4.44-35.64.05a83.49,83.49,0,0,1-.34-23.78c.24-1.76,2-2.4,3.43-3.11,7.86-3.83,20.34-1.83,26.52,4.28C361.34,376.82,365.09,390,364.65,396.7Z"/><path class="a" d="M433.25,245.25c-5.45,13.83-6.42,27.14-2.45,41-7.77-2.77-16.66-2.85-20.36-11.34-4.09-9.41-3.43-18.79,2.4-27.51.64-1,1.54-2.18,2.53-2.42C421,243.59,426.66,243.73,433.25,245.25Z"/><path class="a" d="M354.81,361.1c-9-4.7-17,1.36-26.06-.08-1-7.25-.56-14.39-.11-21.53a3.18,3.18,0,0,1,1.13-2c4.16-3.16,9-3.33,13.81-2.43,4.08.77,6.88,3.17,7.64,7.49C352.22,348.19,355,353.51,354.81,361.1Z"/><path class="a" d="M401.81,284.65C394,291.44,390,299.27,388.6,309.72c-6-4.85-10.86-9.19-14.5-14.59-3-4.4.63-15.64,5.25-18.36a4.29,4.29,0,0,1,4-.57C389.14,278.77,395.26,280.64,401.81,284.65Z"/><path class="a" d="M403.92,244.44c-4.32,9.85-5.12,18.71-3.42,27.68-5.79.77-14.3-2.66-16.14-6.62-2.88-6.16-3.66-12.82.76-18.32C389.8,241.34,396.5,244.71,403.92,244.44Z"/><path class="a" d="M378.11,312c-9,2.81-16.57,5.46-22.63,12.52-3.41-6.66-5.63-12.71-6-19-.23-4.4,4.12-6.51,7.85-8.19,3.26-1.46,6.13-1.18,8.68,1.72C369.6,303.08,373.36,306.91,378.11,312Z"/><path class="a" d="M327.15,317c0-1.4,0-2.8,0-4.2-.1-3.46.45-6.54,4.6-7.2s7.74-.12,9.81,3.94,2.73,8.35,3.63,12.66c.54,2.59-1,3.62-3.42,3.73a44.07,44.07,0,0,0-6,.43c-8.59,1.62-8.58,1.66-8.64-6.95C327.14,318.64,327.14,317.84,327.15,317Z"/><path class="a" d="M370.88,271.57l-6.19,13.95a175.31,175.31,0,0,1-16.79-17c-1.2-1.37-1-3,.15-4.42s2.57-2.64,4.09-1.77C358.13,265.79,365.54,266.45,370.88,271.57Z"/><path class="a" d="M356.51,254.65c3.71-10.68,6.1-12.24,14.74-10.57,2.3.45,3.71,1.4,3.53,3.93,0,.4-.14.79-.16,1.19-.25,4.14-.49,8.29-.78,13.21A100.32,100.32,0,0,1,356.51,254.65Z"/><path class="a" d="M338.16,272.94c7.5,3.39,10.73,9.61,15.92,13.85-2,3.67-5.52,4.23-8.23,7.63C342.41,287.1,339.73,280.76,338.16,272.94Z"/><path class="a" d="M329.6,275.64c5.39,5.95,4.35,12.69,6.23,18.43-6.4,3.8-8.37,2.91-8.39-3.81C327.42,285.68,326.11,280.79,329.6,275.64Z"/><path class="a" d="M462.23,400.86l.08-.08Z"/><path d="M398.08,189.46q-94.3-18.35-187.8-39.09c.38-4.91,3.45-5.07,5.73-5.88,9.71-3.42,19.9-4.81,29.91-7,37.53-8.17,75.67-12.75,113.44-19.46,11.45-2,23.24-1.76,34.69-4.19,3.74-.79,6.75,1,9.25,3.43a173.33,173.33,0,0,1,12.16,12.54c2.55,3,5,4,8.9,2.93a283.56,283.56,0,0,1,70.24-10,427,427,0,0,1,77.46,5.6c5.41.9,9.83,3.06,12.57,8.23a22.33,22.33,0,0,0,7.38,7.82c4,2.74,4.12,6.18,1.1,9.75-2.63,3.09-5,6.14-5.2,10.54-.17,2.93-2.87,4.05-5.46,4.95a135,135,0,0,1-41.92,7.69c-6,.11-12.08.06-18.07.61-20.56,1.85-40.94.24-61.33-2.25-13.55-1.66-27.33-1.27-40.68-4.67-2.7-.69-4.72.61-6.46,2.37C408.79,178.67,402.26,182.55,398.08,189.46Zm188.68-41c-2-2.24-4.14-3.95-5.32-6.17-2.68-5-6.82-6.54-12.19-7.38-23.72-3.69-47.6-4.33-71.53-4.72-13.44-.22-26.3,2.55-38.89,7-10.94,3.84-13.17,15.3-4.2,22.66,6.85,5.62,15.14,8.37,23.8,9.31,25.49,2.78,51,.79,76.49-.53a76.91,76.91,0,0,0,20.61-4.32c2.06-.69,4.28-1.25,5.35-3.55C582.75,156.8,584.68,152.85,586.76,148.51Zm-333.49-5.27-.09,1.31c2,.1,4,.14,5.95.3,22.7,1.87,45.42-.2,68.13.17,16.68.27,33.38-.05,50.07-.17,2.56,0,5.91.46,7-2.38,2.38-6.27,3.2-13,5.61-19.92C343.81,128.38,298.43,135.11,253.27,143.24ZM269,154.62c39.64,8.78,79.14,17.74,120.51,25.22a136.17,136.17,0,0,1-5.81-23.11c-.49-2.93-3-2.56-5.3-2.51-31.88.74-63.76,1.73-95.65.43C278.16,154.46,273.57,154.62,269,154.62ZM396,135.8c-4.6,5.19-4.79,9.8-.77,10.64a44.91,44.91,0,0,0,18.24-.28C408.16,141.62,401.36,140.3,396,135.8Zm2.71,42.2c4.92-5.49,11.31-8.87,15.15-15.71-1.65-.2-2.29-.48-2.76-.3-3.71,1.43-7.47,2.77-11,4.49C393.72,169.5,393.43,171.44,398.67,178Zm14.46-25.07c-5.9.32-11.82.53-17.71,1-2.76.22-3.71,2.1-3.07,4.76.53,2.21,2,3.05,4.07,2.34C402.18,159,408.09,157.23,413.13,152.93Zm-2.26-15.84c-1.45-5.32-5.37-7.92-9-10.75a2.55,2.55,0,0,0-4.08.66c-1.23,1.81-1,3.54.95,4.52C402.7,133.49,406.81,135.24,410.87,137.09Z"/><path d="M522.7,373.88c3,4,4,8,5.2,12,6.38,21.76,12.34,43.64,15.54,66.15,1.4,9.87,2,19.56-5.27,28-6.16,7.11-13.88,9.79-22.67,7.64a23.46,23.46,0,0,1-17.62-16.49c-2.51-8.12-2-16.27.51-24.3,6.75-21.22,12.71-42.68,20.35-63.61C519.8,380.32,519.41,376.8,522.7,373.88Zm-16,84.92c-2.52,6.64-1.47,13.17,2.61,16.77,3.78,3.36,9.24,3.7,14.89.91C514.65,474.32,508.68,468.6,506.72,458.8Z"/><path d="M381.16,472.81c2.79.81,3.29,2.89,3.84,4.77,7.54,25.61,16.63,50.81,21.12,77.25,2.19,12.91-1.34,19.58-12.62,24.86-10,4.67-23.49,2.44-30-5.45-4.61-5.56-5.36-12.45-4.65-19.42,1.49-14.69,6.31-28.61,10-42.78,3-11.26,7.39-22.11,9-33.73C378.15,476.19,378.49,473.85,381.16,472.81Zm8.69,93.67C377.8,569.92,369.1,568,367.6,553c-2.4,8.54-.25,15.8,4.53,18.31C377.36,574.07,385.48,572.25,389.85,566.48Z"/><path d="M569.42,332.73c.1-13.7,6.25-25.27,12.94-36.53,8.16-13.74,18.73-25.55,30.82-36,2.62-2.25,6-5.77,9.33-2.85s-.29,6.26-2,9c-10.77,17.36-11.87,36.34-9.36,55.86,1,7.51,1.23,14.79-2.14,21.83a22.11,22.11,0,0,1-4.34,6.45c-6,5.82-12.8,9.32-21.25,6.6-8.21-2.63-11.65-9.36-13.27-17.23A65.71,65.71,0,0,1,569.42,332.73Zm9.25-8.16c-2.1,8-3.25,16.2,3.39,22.78,2.86,2.84,6.88,3.68,11.92.59C582.66,343.57,580.35,334.42,578.67,324.57Z"/><path d="M213.19,446.19c-4.65,1.17-7.7,5.07-11.92,6.95-1.89.85-4.09,2.92-5.76.1-1.44-2.44.49-4.22,2.37-5.45,14-9.17,23.69-22.12,31.86-36.39,7.92-13.84,8.44-28.61,5.63-43.83-2-10.61-7.25-20-11.08-29.88-5.52-14.24-11.59-28.27-16-42.91q-.09-.28-.21-.57c-5.87-14.3-3-19.28,12.44-20.74,5.06-.48,9.86-1.86,14.71-3.13,1.78-.47,3.65-1,5.07.64,1.7,2,.56,3.94-.63,5.49A44.24,44.24,0,0,0,230.81,296c-.92,5.32.7,8.7,4.95,12.38,22.12,19.13,38.28,42.14,43.95,71.47a57.55,57.55,0,0,1,.71,7.2c.16,2.5-.15,4.94-2.64,6.27s-4.56-.15-6.55-1.61c-5-3.69-10.09-7.32-15.15-10.94-1.12-.8-2.16-1.9-4.71-1.11,2,5.34,4.07,10.64,6.08,15.95,7,18.42,14.42,36.66,18.38,56.09,2.8,13.72,3,27.55,2.66,41.42-.13,5,1.11,8.65,4.8,12.23,11.1,10.79,14.71,25.06,17,39.71,2.5,15.64-.45,30.86-4.24,45.92-1.38,5.5-5.26,6.43-9.4,2.45-7.53-7.24-12.46-16.2-16.23-25.84-1.31-3.33-2.5-6.71-3.68-9.91-2.54,0-2.5,1.75-2.86,2.92-2.7,8.63-5.49,17.24-7.84,26-2.15,7.95-.42,16,.23,24,.18,2.19,1.68,3.55,3.37,4.76,17.74,12.64,23.58,30.12,20.93,51.16a117,117,0,0,1-6,24c-2.16,6.16-4.55,7.62-10.48,5.11-6.41-2.72-11.79-2.32-18.27.52-11.26,4.93-22.59,3-32.58-4.18A14.52,14.52,0,0,0,202.17,689a31.21,31.21,0,0,1-10.82,0c-3-.66-5.18-2-4.93-5.66a134.62,134.62,0,0,1,13.26-49.16c6.51-13.71,16.29-23.86,32-26.6a7.46,7.46,0,0,0,4.84-3.25,105.38,105.38,0,0,0,17.34-35.46c3.79-13.75,8.48-27.25,12.36-41,3.1-11,4.1-22.1,4.74-33.35a1.82,1.82,0,0,0-1.15-2.19c-4.35,7.07-7.55,14.9-12.74,21.54-4.62,5.91-10.17,10.87-15.6,15.92-4.15,3.85-7,2.78-8.76-2.71-1.51-4.69-1-9.57-1.15-14.38a246,246,0,0,1,1.16-33.12c1.95-17.54,9.31-32.42,22.14-44.33,5.22-4.85,6.42-9.32,3.66-15.86-4.3-10.14-7.88-20.58-11.69-30.69-2.41-.14-2.42,1.42-2.6,2.45-3.35,19.86-12.1,37.81-19.83,56.12-6.76,16-10,32.57-7.63,50,.71,5.19,1.52,10.61-.58,15.89-4.05-.16-4.24-2.95-5.06-5.38-3-9-2.61-18.22-2.44-27.47,0-2.1.88-4.38-1.26-6.73-4,3.71-7.89,7.32-11.73,11a23.89,23.89,0,0,1-7.4,5.1c-1.38.58-2.84.76-3.91-.42a3,3,0,0,1,0-3.92,29.19,29.19,0,0,1,4.06-4.4A97.6,97.6,0,0,0,214,447C214.1,446.34,213.9,446,213.19,446.19Zm-5.66,190.9c-3.38,3.64-4.27,7.67-5.48,11.41-2.94,9.14-6.63,18.13-6.73,28,0,2.77.45,5.08,3.75,4.81,8.83-.72,17.58-1.95,25.67-5.9,3.32-1.62,3.45-3.94,1.63-6.91-3.87-6.34-7.56-12.78-11.39-19.14C212.64,645.46,211.34,640.92,207.53,637.09Zm32.62-116.58c20.44-12.23,38.57-57.79,22.89-82.84-2.72,2.87-2.86,2.89-2.37,7.22,2.79,24.12-4.34,45.22-19.37,63.91C238.28,512.55,238.39,516.31,240.15,520.51Zm-9.58-205.6c-6.1,21,20.1,61.93,42.52,66.53.33-4.51-1.6-7.62-5.58-9.72-3.05-1.6-5.37-4.13-7.71-6.64a114,114,0,0,1-25.84-45C233.36,318.14,233.22,315.66,230.57,314.91ZM216.85,623.59c-3.75,2.94-2,5.35-1.19,7.66,3.92,11.3,11.08,20.89,16.59,31.36,4.8,9.12,12.56,15.57,21.28,20.77a78.45,78.45,0,0,0,11,4.88c1.31.53,2.83.58,3.64-1.07s-.06-2.71-1.24-3.61a29.09,29.09,0,0,0-3-2C248,672.39,236.34,659.17,227.81,643,224.41,636.55,220.65,630.28,216.85,623.59Zm72.9-39.16c3.32-4.8,1.56-8.61-.7-12.61-7.49-13.27-11-27.47-9.26-42.75.43-3.77,1.34-7.49,1.89-11.26.38-2.64.45-5.28-3-6.1C266.73,529.16,272.78,570.29,289.75,584.43Zm-64.44-295c-4.9,1.61-9.12,2.25-8.31,7.06a39.08,39.08,0,0,0,5.74,14.9C223.67,303.5,224.42,297.07,225.31,289.46Zm9.48,401.46c-7.8-6.48-10.94-7.17-16.09-3.5C223.5,691.16,228.72,691.54,234.79,690.92Z"/><path class="a" d="M586.76,148.51c-2.08,4.34-4,8.29-5.88,12.26-1.07,2.3-3.29,2.86-5.35,3.55a76.91,76.91,0,0,1-20.61,4.32c-25.48,1.32-51,3.31-76.49.53-8.66-.94-16.95-3.69-23.8-9.31-9-7.36-6.74-18.82,4.2-22.66,12.59-4.41,25.45-7.18,38.89-7,23.93.39,47.81,1,71.53,4.72,5.37.84,9.51,2.36,12.19,7.38C582.62,144.56,584.78,146.27,586.76,148.51Zm-19.19,1c-1.2-2.53-3.58-2.86-5.65-3.23-17.37-3.11-34.51-7.61-52.11-9.34-7.57-.75-15.28-.88-22.44,2.63-5.5,2.7-8.61,7.41-8.16,12.22.51,5.42,4.27,9.54,10.3,11.18s12.31,1.59,18.54,1c19.08-1.67,37.18-8.21,56-11.23C565.61,152.57,567.18,152,567.57,149.55Z"/><path class="a" d="M253.27,143.24c45.16-8.13,90.54-14.86,136.66-20.69-2.41,6.9-3.23,13.65-5.61,19.92-1.08,2.84-4.43,2.36-7,2.38-16.69.12-33.39.44-50.07.17-22.71-.37-45.43,1.7-68.13-.17-2-.16-4-.2-5.95-.3Z"/><path class="a" d="M269,154.62c4.58,0,9.17-.16,13.75,0,31.89,1.3,63.77.31,95.65-.43,2.27-.05,4.81-.42,5.3,2.51a136.17,136.17,0,0,0,5.81,23.11C348.13,172.36,308.63,163.4,269,154.62Z"/><path class="a" d="M396,135.8c5.4,4.5,12.2,5.82,17.47,10.36a44.91,44.91,0,0,1-18.24.28C391.17,145.6,391.36,141,396,135.8Z"/><path class="a" d="M398.67,178c-5.24-6.56-4.95-8.5,1.35-11.52,3.57-1.72,7.33-3.06,11-4.49.47-.18,1.11.1,2.76.3C410,169.13,403.59,172.51,398.67,178Z"/><path class="a" d="M413.13,152.93c-5,4.3-10.95,6-16.71,8.1-2,.71-3.54-.13-4.07-2.34-.64-2.66.31-4.54,3.07-4.76C401.31,153.46,407.23,153.25,413.13,152.93Z"/><path class="a" d="M410.87,137.09c-4.06-1.85-8.17-3.6-12.17-5.57-2-1-2.18-2.71-.95-4.52a2.55,2.55,0,0,1,4.08-.66C405.5,129.17,409.42,131.77,410.87,137.09Z"/><path class="a" d="M506.72,458.8c2,9.8,7.93,15.52,17.5,17.68-5.65,2.79-11.11,2.45-14.89-.91C505.25,472,504.2,465.44,506.72,458.8Z"/><path class="a" d="M389.85,566.48c-4.37,5.77-12.49,7.59-17.72,4.85-4.78-2.51-6.93-9.77-4.53-18.31C369.1,568,377.8,569.92,389.85,566.48Z"/><path class="a" d="M578.67,324.57c1.68,9.85,4,19,15.31,23.37-5,3.09-9.06,2.25-11.92-.59C575.42,340.77,576.57,332.6,578.67,324.57Z"/><path class="a" d="M207.53,637.09c3.81,3.83,5.11,8.37,7.45,12.26,3.83,6.36,7.52,12.8,11.39,19.14,1.82,3,1.69,5.29-1.63,6.91-8.09,4-16.84,5.18-25.67,5.9-3.3.27-3.78-2-3.75-4.81.1-9.86,3.79-18.85,6.73-28C203.26,644.76,204.15,640.73,207.53,637.09Z"/><path class="a" d="M240.15,520.51c-1.76-4.2-1.87-8,1.15-11.71,15-18.69,22.16-39.79,19.37-63.91-.49-4.33-.35-4.35,2.37-7.22C278.72,462.72,260.59,508.28,240.15,520.51Z"/><path class="a" d="M230.57,314.91c2.65.75,2.79,3.23,3.39,5.2a114,114,0,0,0,25.84,45c2.34,2.51,4.66,5,7.71,6.64,4,2.1,5.91,5.21,5.58,9.72C250.67,376.84,224.47,335.87,230.57,314.91Z"/><path class="a" d="M216.85,623.59c3.8,6.69,7.56,13,11,19.41,8.53,16.17,20.16,29.39,36.07,38.63a29.09,29.09,0,0,1,3,2c1.18.9,2,2,1.24,3.61s-2.33,1.6-3.64,1.07a78.45,78.45,0,0,1-11-4.88c-8.72-5.2-16.48-11.65-21.28-20.77-5.51-10.47-12.67-20.06-16.59-31.36C214.86,628.94,213.1,626.53,216.85,623.59Z"/><path class="a" d="M289.75,584.43c-17-14.14-23-55.27-11.06-72.72,3.44.82,3.37,3.46,3,6.1-.55,3.77-1.46,7.49-1.89,11.26-1.74,15.28,1.77,29.48,9.26,42.75C291.31,575.82,293.07,579.63,289.75,584.43Z"/><path class="a" d="M225.31,289.46c-.89,7.61-1.64,14-2.57,22a39.08,39.08,0,0,1-5.74-14.9C216.19,291.71,220.41,291.07,225.31,289.46Z"/><path class="a" d="M234.79,690.92c-6.07.62-11.29.24-16.09-3.5C223.85,683.75,227,684.44,234.79,690.92Z"/><path class="a" d="M213.19,446.19c.71-.18.91.15.8.8Z"/><path d="M567.57,149.55c-.39,2.4-2,3-3.53,3.27-18.81,3-36.91,9.56-56,11.23-6.23.55-12.44.62-18.54-1s-9.79-5.76-10.3-11.18c-.45-4.81,2.66-9.52,8.16-12.22,7.16-3.51,14.87-3.38,22.44-2.63,17.6,1.73,34.74,6.23,52.11,9.34C564,146.69,566.37,147,567.57,149.55Z"/></svg>