<svg id="Layer_1" data-name="Layer 1" xmlns="http://www.w3.org/2000/svg" xmlns:xlink="http://www.w3.org/1999/xlink" viewBox="0 0 800 800"><defs><style>.cls-1,.cls-4,.cls-6{fill:none;}.cls-2,.cls-5{fill:#fff;}.cls-2,.cls-4{stroke:#000;stroke-width:8px;}.cls-2,.cls-4,.cls-6{stroke-linejoin:bevel;}.cls-3{fill:url(#New_Pattern_3);}.cls-6{stroke:#fff;stroke-width:3px;}</style><pattern id="New_Pattern_3" data-name="New Pattern 3" width="64" height="95" patternTransform="translate(-91 -119)" patternUnits="userSpaceOnUse" viewBox="0 0 64 95"><rect class="cls-1" width="64" height="95"/><circle class="cls-2" cx="83.2" cy="112" r="17"/><circle class="cls-2" cx="71.2" cy="97" r="17"/><circle class="cls-2" cx="31.2" cy="97" r="17"/><circle class="cls-2" cx="19.2" cy="112" r="17"/><circle class="cls-2" cx="7.2" cy="97" r="17"/><circle class="cls-2" cx="56.8" cy="78" r="17"/><circle class="cls-2" cx="44.8" cy="93" r="17"/><circle class="cls-2" cx="32.8" cy="78" r="17"/><circle class="cls-2" cx="-7.2" cy="78" r="17"/><circle class="cls-2" cx="-19.2" cy="93" r="17"/><circle class="cls-2" cx="82.4" cy="59" r="17"/><circle class="cls-2" cx="70.4" cy="74" r="17"/><circle class="cls-2" cx="58.4" cy="59" r="17"/><circle class="cls-2" cx="18.4" cy="59" r="17"/><circle class="cls-2" cx="6.4" cy="74" r="17"/><circle class="cls-2" cx="-5.6" cy="59" r="17"/><circle class="cls-2" cx="84" cy="40" r="17"/><circle class="cls-2" cx="44" cy="40" r="17"/><circle class="cls-2" cx="32" cy="55" r="17"/><circle class="cls-2" cx="20" cy="40" r="17"/><circle class="cls-2" cx="-20" cy="40" r="17"/><circle class="cls-2" cx="69.6" cy="21" r="17"/><circle class="cls-2" cx="57.6" cy="36" r="17"/><circle class="cls-2" cx="45.6" cy="21" r="17"/><circle class="cls-2" cx="5.6" cy="21" r="17"/><circle class="cls-2" cx="-6.4" cy="36" r="17"/><circle class="cls-2" cx="-18.4" cy="21" r="17"/><circle class="cls-2" cx="83.2" cy="17" r="17"/><circle class="cls-2" cx="71.2" cy="2" r="17"/><circle class="cls-2" cx="31.2" cy="2" r="17"/><circle class="cls-2" cx="19.2" cy="17" r="17"/><circle class="cls-2" cx="7.2" cy="2" r="17"/><circle class="cls-2" cx="56.8" cy="-17" r="17"/><circle class="cls-2" cx="44.8" cy="-2" r="17"/><circle class="cls-2" cx="32.8" cy="-17" r="17"/><circle class="cls-2" cx="-7.2" cy="-17" r="17"/><circle class="cls-2" cx="-19.2" cy="-2" r="17"/></pattern></defs><title>urn</title><polygon class="cls-3" points="527.33 496.82 528.67 503.54 530.2 510.12 532.48 516.5 534.28 523 531.35 529.69 528.9 536.6 525.8 543.23 522.76 549.89 519.73 556.56 517.57 563.59 513.91 569.99 511.91 577.09 508.68 583.67 505.92 590.45 503.33 597.3 499.88 603.79 497.48 610.72 494.87 617.57 491.86 624.24 489.08 631.02 485.93 637.64 483.39 644.64 476.69 649.4 471.12 655.49 463.86 656.28 456.77 657.15 449.63 657.64 442.62 659.12 435.45 659.36 428.4 660.64 421.23 660.84 414.22 662.37 407.16 663.58 400 663.51 392.91 663.44 385.85 662.65 378.89 661.09 371.86 660.12 364.8 659.32 357.69 658.94 350.69 657.66 343.57 657.34 336.59 655.81 329.67 654.94 326.65 650.01 324.07 644.49 327.13 637.45 330.02 630.51 332.5 623.4 336.17 616.77 339 609.79 341.12 602.41 347.38 599.74 353.25 596.65 359.18 593.66 365 590.43 371.14 587.97 377.64 586.74 384.12 584.97 390.76 584.12 397.25 582.45 403.83 581.21 410.55 580.61 416.36 575.54 422.9 571.47 428.84 566.59 435.29 562.18 436.15 554.86 437.86 547.83 439.51 540.79 440.66 533.66 441.96 526.54 442.68 519.31 444.43 512.28 447.13 505.54 450.27 498.98 453.01 492.27 455.88 485.6 457.96 478.6 460.78 471.8 467.53 468.57 474.06 465.13 480.49 461.49 486.96 458.38 493.71 462.95 500.32 468.05 507.63 472.25 512.42 478.51 517.52 484.48 521.89 491.04 527.33 496.82"/><polyline class="cls-4" points="552.16 173.37 553.22 180.38 553.62 187.44 555.29 194.31 558.15 200.77 560.71 207.31 564.29 213.35 568.37 219.05 572.82 224.46 577.45 229.78 583.38 233.61 589.06 237.74 595.36 240.83 601.68 243.97 601.77 251.23 601.3 258.44 600.44 265.62 599.74 272.8 599.18 280.01 598.01 287.14 596.82 294.27 595.61 301.38 594.98 308.59 593.35 315.64 592.76 322.87 591.04 329.9 589.51 336.96 588.41 344.1 586.24 351.02 584.92 358.12 583.73 365.26 582 372.27 580.13 379.25 577.87 386.13 576.03 393.11 574.82 400.26 572.67 407.16 570.21 413.96 568.82 421.08 566.75 428 564.96 435 562.36 441.76 559.79 448.52 557.81 455.47 555.82 462.42 553.73 469.33 551.15 476.07 548.64 482.85 546.87 489.87 543.84 496.46 541.41 503.26 538.99 510.07 536.98 517.03 534.5 523.82 531.79 530.52 529.01 537.19 526.19 543.85 523.77 550.66 520.47 557.12 517.96 563.9 515.58 570.73 512.98 577.47 509.99 584.05 506.77 590.54 504.35 597.36 501.61 604.06 498.58 610.62 495.59 617.2 492.48 623.73 489.47 630.31 486.76 637.02 483.69 643.57 480.5 650.09 473.75 653.33 466.98 656.46 459.79 658.49 452.42 659.71 445.14 661.56 437.63 661.72 430.23 662.7 422.79 663.38 415.31 663.33 407.85 664.11 400.36 664.11 399.64 663.69 392.17 663.63 384.68 664.15 377.19 663.89 369.77 662.68 362.34 661.94 354.96 660.82 347.53 660.03 340.25 658.36 333.04 656.41 326.22 653.39 319.54 650.07 317.01 643.25 313.22 637.04 310.85 630.19 307.36 623.83 304.88 617.02 301.21 610.75 298.7 603.95 295.65 597.4 293.21 590.58 289.79 584.18 287.31 577.38 284.45 570.75 282.18 563.87 278.85 557.42 276.83 550.44 274.02 543.78 271.19 537.13 268.52 530.41 266.25 523.55 262.96 517.06 260.99 510.09 258.1 503.45 255.8 496.6 253.29 489.82 250.81 483.03 248.8 476.09 246.72 469.17 244.66 462.25 241.67 455.63 239.72 448.67 237.78 441.7 235.25 434.92 233.65 427.86 231.59 420.94 229.15 414.13 227.54 407.08 225.51 400.15 223.77 393.14 221.48 386.27 219.66 379.28 218.76 372.06 216.57 365.16 215.17 358.08 213.62 351.02 211.45 344.1 210.69 336.88 209.02 329.85 207.91 322.71 206.1 315.7 205.44 308.49 204.38 301.35 202.86 294.28 202.41 287.06 201.05 279.96 200.44 272.76 199.73 265.58 199.25 258.38 198.23 251.22 198.5 244.1 204.71 240.98 210.92 237.7 217.13 234.32 222.56 229.79 227.5 224.75 231.66 219.07 235.95 213.5 239.01 207.18 242.1 200.87 244.24 194.17 246.38 187.43 247.31 180.43 247.3 173.39"/><polygon class="cls-4" points="601.94 244.01 594.83 245.07 587.71 246.38 580.54 247.44 573.33 248.23 566.2 249.51 559 250.32 551.83 251.37 544.63 252.25 537.46 253.25 530.27 254.24 523.03 254.62 515.8 255.15 508.61 256.06 501.36 256.35 494.17 257.33 486.92 257.61 479.68 257.79 472.47 258.73 465.21 258.52 457.99 259.3 450.72 258.82 443.5 259.67 436.25 259.68 429 259.96 421.75 259.73 414.5 259.62 407.25 259.73 400.01 259.5 392.75 260.3 385.51 259.91 378.26 259.73 371.01 259.43 363.77 259.15 356.51 259.31 349.28 258.79 342.02 258.88 334.82 257.88 327.6 257.26 320.33 257.49 313.13 256.49 305.89 256.22 298.64 256.05 291.43 255.33 284.23 254.44 276.99 254.07 269.75 253.72 262.59 252.52 255.37 251.96 248.21 250.75 241.01 250.04 233.76 249.6 226.59 248.56 219.43 247.44 212.3 246.2 205.13 245.18 198.04 244.01 199.04 251.63 199.3 259.33 200.12 266.95 206.99 268.71 214.18 269.19 221.17 270.94 228.33 271.57 235.39 272.88 242.59 273.17 249.67 274.39 256.75 275.57 263.88 276.46 271.03 277.05 278.22 277.27 285.32 278.4 292.51 278.51 299.65 279.26 306.77 280.26 313.96 280.18 321.12 280.63 328.29 280.91 335.44 281.62 342.59 282.19 349.78 281.88 356.94 282.72 364.11 282.9 371.28 283.25 378.47 282.6 385.64 283.43 392.82 282.79 400 282.74 407.18 283.13 414.35 282.47 421.53 282.44 428.71 282.71 435.87 281.86 443.05 281.79 450.23 281.84 457.41 281.8 464.58 281.59 471.71 280.59 478.9 280.66 486.01 279.4 493.22 279.64 500.36 278.99 507.48 278.03 514.67 277.83 521.77 276.78 528.92 276.21 536.09 275.78 543.22 274.99 550.36 274.29 557.47 273.44 564.59 272.52 571.64 271.09 578.76 270.25 585.93 269.78 592.92 268.07 600.05 267.02 600.22 259.3 601.44 251.68 601.94 244.01"/><polyline class="cls-4" points="356.93 259.1 349.9 258.82 342.87 258.45 335.97 256.97 328.93 256.45 322.09 254.77 315.29 252.96 308.81 250.16 302.41 247.28 296.08 244.27 290.01 240.74 284.12 236.94 278.48 232.75 273.01 228.32 268.52 222.88 263.49 217.97 258.95 212.59 255.02 206.74 251.74 200.51 248.74 194.18 245.89 187.49 247.16 194.83 248.94 201.79 251.33 208.6 254.62 215.03 258.56 221.09 262.14 227.37 266.64 233.02 271.2 238.61 275.7 244.25 280.77 249.41 285.84 254.55"/><polyline class="cls-4" points="444.03 258.84 437.07 257.76 430.27 255.92 423.35 254.61 416.65 252.44 409.96 250.31 403.12 248.57 396.68 245.71 390.31 242.72 383.64 240.35 377.35 237.17 371.47 233.26 365.53 229.47 360 225.13 354.26 221.03 349.13 216.21 343.91 211.46 339.46 205.98 335.21 200.37 331.55 194.38 327.68 188.5 325.03 182.11 326.64 188.83 329.9 195.05 332.73 201.45 336.23 207.51 339.78 213.55 344.65 218.64 348.82 224.25 353.83 229.12 358.81 234.01 363.79 238.96 369.64 242.82 375.44 246.7 381.06 250.92 387.26 254.18 393.73 256.89 400.05 259.86"/><polyline class="cls-4" points="542.01 251.88 534.93 251.18 527.82 250.67 520.81 249.43 513.85 247.94 506.82 246.68 500.01 244.56 493.38 241.94 486.5 239.97 480.02 236.97 473.59 233.88 467.77 229.69 461.35 226.57 455.78 222.09 450.07 217.88 443.94 214.14 438.85 209.14 433.66 204.26 428.92 198.94 424.25 193.56 419.81 188 415.72 181.8 419.41 188.24 423.67 193.93 427.69 199.79 432.47 205.05 436.67 210.78 441.86 215.66 446.73 220.8 451.64 225.93 456.84 230.77 462.16 235.49 468.24 239.22 473.94 243.45 480.14 246.89 486.25 250.46 492.41 254.02 499.13 256.34"/><polyline class="cls-4" points="571.45 223.02 564.29 222.4 557.25 220.92 550.26 219.23 543.62 216.49 536.77 214.19 530.58 210.47 524.44 206.7 518.75 202.25 513.64 197.16 508.56 192.01 504.52 186.02 501.18 180.04 504.95 185.76 509.35 191.44 513.4 197.44 518.81 202.24 523.56 207.7 529.19 212.22 534.94 216.59 540.99 220.54 547.56 223.54 553.9 227.03 560.8 229.18 567.83 230.77 574.9 231.98 581.98 233.51"/><polyline class="cls-4" points="206.97 329.32 214.06 328.81 221.18 329.01 228.26 329.75 235.37 330.28 242.29 332.03 249.35 333.01 256.1 335.36 263.14 336.57 269.79 339.15 276.35 341.9 283.14 344.09 289.44 347.44 295.94 350.36 302.12 353.9 307.82 358.19 313.67 362.22 319.67 366.09 325.14 370.67 329.91 375.99 335.06 380.88 339.64 386.31 344.43 391.79 349.56 396.95 354.54 402.24 359.46 407.59 364.4 412.95 370.23 417.37 375.63 422.21 380.92 427.2 386.96 431.25 393.13 435.05 399.41 438.61 406.02 441.53 412.76 444.18 419.7 446.32 426.89 447.37 434.08 448.32 441.31 448.9 448.54 449.51 455.73 450.73 462.96 451.48 470.26 452.47 477.55 453.81 484.34 456.78 491.17 459.7 497.38 463.77 503.26 468.32 508.8 473.31 513.44 479.13 518.13 484.86 522.58 490.8 526.54 497.08 530.62 503.31 533.22 510.3 536.83 516.81"/><polyline class="cls-4" points="204.02 308.48 211.34 308.48 218.72 308.15 226.03 308.97 233.31 310.06 240.63 310.73 247.82 312.3 255.2 312.93 262.26 315.06 269.35 317.02 276.27 319.5 283.23 321.88 290.39 323.78 297.02 327.02 303.45 330.62 309.93 334.09 316.44 337.53 322.5 341.71 328.71 345.68 334.1 350.73 339.75 355.44 344.81 360.78 349.74 366.23 354.77 371.48 359.64 376.88 364.83 381.97 369.53 387.52 374.68 392.66 380.19 397.41 385.52 402.34 391.25 406.78 396.94 411.28 403.05 415.18 409.2 419.03 415.79 422.11 422.57 424.81 429.64 426.59 436.84 427.69 444.02 428.8 451.23 429.78 458.52 429.84 465.79 429.98 472.97 431.39 480 431.82 486.97 433.08 493.36 436.17 500.13 438.29 506.24 441.85 511.76 446.27 517.49 450.4 522.56 455.31 527.64 460.24 531.38 466.28 536.08 471.58 539.38 477.84 542.97 483.89 546.34 490.06"/><polygon points="559.94 448.42 561.6 441.29 561.74 433.94 562.74 426.65 562.51 419.31 561.89 412 561.13 404.7 559.67 397.51 558.23 390.3 555.69 383.4 553.07 376.55 549.94 369.93 547.02 363.18 542.7 357.21 539.46 350.57 534.98 344.74 530 339.34 525.33 333.96 529.25 328.31 533.33 322.43 535.63 315.65 537.99 308.95 540.85 302.38 542.52 295.44 543.45 288.35 544.93 281.4 546.22 274.13 553.6 274.3 560.79 273.08 568.02 272.62 575.32 272.94 582.55 272.47 589.78 271.77 596.93 271.06 596.01 278.43 594.61 285.79 593 293.12 592.57 300.63 590.6 307.9 589.5 315.31 588.63 322.76 587.01 330.09 585.99 337.52 584.83 344.92 584 352.38 582.57 359.74 581.37 366.7 579.28 373.43 577.36 380.21 575.4 386.97 573.64 393.79 572.24 400.69 570.4 407.49 568.95 414.38 567.43 421.26 565.24 427.96 563.67 434.83 562.37 441.78 559.94 448.42"/><polygon class="cls-4" points="559.94 448.42 561.6 441.29 561.74 433.94 562.74 426.65 562.51 419.31 561.89 412 561.13 404.7 559.67 397.51 558.23 390.3 555.69 383.4 553.07 376.55 549.94 369.93 547.02 363.18 542.7 357.21 539.46 350.57 534.98 344.74 530 339.34 525.33 333.96 529.25 328.31 533.33 322.43 535.63 315.65 537.99 308.95 540.85 302.38 542.52 295.44 543.45 288.35 544.93 281.4 546.22 274.13 553.6 274.3 560.79 273.08 568.02 272.62 575.32 272.94 582.55 272.47 589.78 271.77 596.93 271.06 596.01 278.43 594.61 285.79 593 293.12 592.57 300.63 590.6 307.9 589.5 315.31 588.63 322.76 587.01 330.09 585.99 337.52 584.83 344.92 584 352.38 582.57 359.74 581.37 366.7 579.28 373.43 577.36 380.21 575.4 386.97 573.64 393.79 572.24 400.69 570.4 407.49 568.95 414.38 567.43 421.26 565.24 427.96 563.67 434.83 562.37 441.78 559.94 448.42"/><polyline class="cls-4" points="524.88 276.67 525.45 283.82 524.98 291 523.19 297.97 521.78 305.03 519.12 311.72 515.95 318.16 512.21 324.27 508.04 330.07 504.06 335.99 509.37 340.74 514.13 346.09 519.15 351.24 523.43 357.02 527.16 363.15 530.29 369.62 533.51 376.01 536.67 382.45 539 389.24 541.86 395.85 543.11 402.95 544.88 409.9 546.43 416.9 547.77 423.97 548.66 431.1 548.25 438.32 548.85 445.47 549.31 452.64 549.02 459.82 548.52 466.98 547.97 474.14 546.9 481.24"/><polyline class="cls-4" points="507.03 276.65 507.01 284.14 505.56 291.49 503.88 298.76 500.97 305.65 498.59 312.69 495.19 319.31 491.89 326.01 487.35 331.95 483.34 337.95 488.75 342.14 493.64 347.26 498.07 352.76 502.73 358.07 506.73 363.89 510.35 369.95 513.74 376.14 516.59 382.58 520.03 388.77 521.89 395.61 524.8 402.08 526.25 409.01 527.51 415.95 529.09 422.82 530.52 429.75 530.71 436.82 531.94 443.81 531.56 450.89 532.23 457.96 531.43 465"/><polyline class="cls-4" points="488.93 276.65 487.72 283.54 486.04 290.33 484.22 297.09 481.64 303.6 479.01 310.08 476.45 316.62 473.35 322.94 469.01 328.5 465.44 334.56 461.26 339.94 466.65 344.64 472.09 349.52 477.49 354.49 482.17 360.13 486.6 365.97 491.02 371.84 493.97 378.61 497.83 384.85 501.11 391.41 503.42 398.38 505.77 405.31 508.55 412.14 509.94 419.36 511.66 426.5 512.08 433.85 512.59 441.16 513.1 448.45"/><polyline class="cls-4" points="469.4 280.68 467.73 287.59 466.08 294.45 464.2 301.28 461.15 307.67 457.88 313.94 454.36 320.04 450.72 326.08 446.46 331.7 442.89 337.87 437.9 343.03 444.37 346.78 449.99 351.62 455.49 356.56 460.63 361.86 465.43 367.45 470.23 373.08 474.72 378.98 478.72 385.24 481.36 392.22 485.28 398.58 487.48 405.68 489.79 412.72 491.44 419.94 493.56 427.08 494.08 434.5"/><polyline class="cls-4" points="452.19 282.7 449.43 289.52 447.62 296.69 443.88 303.06 440.82 309.72 437.42 316.23 433.35 322.34 429.99 328.93 425.24 334.57 420.41 340.12 416.28 345.93 422.19 349.85 428.36 353.75 433.94 358.46 439.15 363.56 444.79 368.22 449.75 373.59 453.87 379.65 458.11 385.57 462.54 391.41 465.4 398.17 468.86 404.59 471.51 411.39 473.6 418.37 475.52 425.4 477.64 432.41"/><polyline class="cls-4" points="435.64 282.51 433.24 289.42 429.77 295.83 426.45 302.33 422.63 308.54 418.87 314.79 415.44 321.25 411.04 327.08 406.56 332.84 402.57 338.98 397.8 344.5 392.9 350.03 399.51 353.28 406.18 356.28 412.47 360.03 417.94 364.92 423.84 369.23 428.92 374.48 433.85 379.82 439.14 384.92 442.88 391.23 446.75 397.41 450.61 403.63 453.52 410.35 455.74 417.31 457.94 424.29 459.34 431.47"/><polyline class="cls-4" points="417.87 282.6 415.03 289.16 411.96 295.62 408.42 301.83 404.59 307.87 401.12 314.12 397.51 320.29 392.92 325.82 389.24 331.97 384.79 337.57 380.07 342.95 375.99 348.86 371.13 353.95 377.68 356.93 384.51 359.62 390.64 363.65 396.59 367.89 402.75 371.82 408.42 376.43 413.78 381.39 419.27 386.26 423.74 392.07 428.22 397.84 431.93 404.14 435.79 410.32 438.97 416.88 441.92 423.57 444.09 430.54"/><polyline class="cls-4" points="398.62 282.49 396.43 289.19 392.73 295.18 389.7 301.49 386.66 307.82 383.01 313.81 379.49 319.87 375.82 325.84 372.01 331.73 368.1 337.56 363.71 343.05 359.55 348.7 354.52 353.64 349.97 359.01 356.67 361.34 363.03 364.4 369.47 367.31 375.73 370.61 381.33 374.97 387.21 378.86 393.15 382.71 398.67 387.15 403.44 392.41 408.22 397.6 413.03 402.77 417.33 408.37 421.35 414.18 424.86 420.31 428.76 426.25"/><polyline class="cls-4" points="364.11 382 370.41 384.66 376.11 388.47 381.99 391.96 387.24 396.33 392.89 400.27 397.59 405.28 401.97 410.6 405.03 416.76"/><polyline class="cls-4" points="380.32 282.93 377.52 289.91 374.45 296.78 371.11 303.52 366.9 309.8 363.33 316.41 359.99 323.18 355.71 329.38 351.6 335.7 346.53 341.3 341.47 346.85 336.44 352.48"/><polyline class="cls-4" points="360.87 282.86 358.97 289.7 356.3 296.27 353.21 302.67 349.87 308.93 346.41 315.13 342.45 321.02 338.39 326.83 334.67 332.91 330 338.28 325.24 343.56"/><polyline class="cls-4" points="343.25 282.04 340.54 288.4 338.95 295.19 336.01 301.45 332.73 307.55 329.43 313.62 325.55 319.34 321.57 325.01 316.81 330.03 311.89 334.87"/><polyline class="cls-4" points="326.38 282.26 323.95 288.66 321.36 294.97 317.89 300.86 314.58 306.8 311.24 312.75 307.17 318.24 302.38 323.11 297.95 328.33"/><polyline class="cls-4" points="309.64 280.59 308.04 287.45 304.61 293.6 300.46 299.29 297.04 305.53 291.88 310.46 287.72 316.16 283.32 321.7"/><polyline class="cls-4" points="292.66 278.72 290.37 286.14 286.44 292.86 281.9 299.18 276.81 305.06 270.81 310.03 265.51 315.7"/><polygon points="246.93 311.37 252.25 306.8 257.67 302.06 262.26 296.51 266.53 290.74 270.64 284.84 274.56 278.67 267.39 277.63 260.21 277.21 253.09 276.14 245.95 275.3 238.76 274.87 231.6 274.22 224.46 273.42 217.26 273.03 210.19 271.45 202.71 270.72 204.36 278.15 205.23 285.36 206.09 292.58 206.74 299.83 208.25 306.7 216 307.1 223.99 307.8 232 307.71 240.1 307.6 246.93 311.37"/><polygon class="cls-4" points="246.93 311.37 252.25 306.8 257.67 302.06 262.26 296.51 266.53 290.74 270.64 284.84 274.56 278.67 267.39 277.63 260.21 277.21 253.09 276.14 245.95 275.3 238.76 274.87 231.6 274.22 224.46 273.42 217.26 273.03 210.19 271.45 202.71 270.72 204.36 278.15 205.23 285.36 206.09 292.58 206.74 299.83 208.25 306.7 216 307.1 223.99 307.8 232 307.71 240.1 307.6 246.93 311.37"/><polygon points="526.62 496.87 522.7 490.84 518.74 484.82 514.09 479.31 509.2 474.03 503.75 469.35 498.53 464.34 492.19 460.78 485.07 459.62 477.89 459.08 471.54 462.46 465.58 466.43 461.33 472.24 457.1 478.16 453.42 484.47 450.45 491.14 448.2 498.08 445.68 504.96 444.07 512.1 443.16 519.36 441.81 526.54 441.2 533.84 439.3 540.91 438.13 548.15 434.95 554.77 431.77 561.29 427.86 567.49 421.96 571.85 415.95 575.91 409.69 579.12 402.87 580.87 396.01 582.34 389.02 583 382.05 583.88 375.09 584.87 368.17 586.21 361.63 588.84 354.94 591.03 349.46 595.46 343.96 599.78 339.38 605.11 335.51 610.97 332.19 617.14 329.39 623.57 326.8 630.07 324.35 636.64 322.35 643.37 320 650.2 317.1 643.39 314.81 636.53 311.87 629.94 309.16 623.25 306.28 616.63 303.46 609.99 300.58 603.38 298.28 596.52 295.1 590.02 292.86 583.15 289.6 576.68 287.47 569.77 284.79 563.07 281.69 556.53 279.72 549.55 276.85 542.93 274.15 536.23 271.63 529.47 268.93 522.77 266.92 515.82 264.18 509.13 262.14 502.19 259.59 495.44 257.21 488.62 254.58 481.9 251.73 475.25 249.42 468.41 247.67 461.37 244.68 454.76 242.6 447.84 240.25 441.01 238.09 434.12 235.65 427.31 233.38 420.46 231.22 413.57 229.3 406.61 227.09 399.72 225.05 392.79 223.9 385.63 221.42 378.81 219.86 371.75 218.33 364.7 217.2 357.56 215.91 350.46 214.57 343.36 213.77 336.17 214.01 328.96 221.2 329.5 228.2 331.33 235.31 332.5 242.21 334.59 249.14 336.52 255.99 338.73 262.84 340.91 269.81 342.81 276.29 346.02 283.03 348.55 289.37 351.99 295.84 355.14 302.08 358.73 308.64 361.79 314.45 366.09 320.32 370.25 326 374.67 332 378.69 336.97 383.95 342.75 388.32 347.49 393.78 352.52 398.95 357.11 404.55 360.9 410.88 365.85 416.34 371.04 421.54 376.56 426.38 382.01 431.37 388.12 435.52 394.76 438.75 401.3 442.14 408.26 444.58 415.14 447.2 422.26 449.06 429.36 451.08 436.7 451.95 444.02 452.8 451.2 453.52 458.35 454.46 465.52 455.21 472.61 456.73 479.85 456.96 486.95 458.24 492.99 461.66 499.12 465.16 504.47 469.76 509.87 474.31 514.16 479.93 519.25 484.85 523.21 490.7 526.62 496.87"/><polygon class="cls-4" points="526.62 496.87 522.7 490.84 518.74 484.82 514.09 479.31 509.2 474.03 503.75 469.35 498.53 464.34 492.19 460.78 485.07 459.62 477.89 459.08 471.54 462.46 465.58 466.43 461.33 472.24 457.1 478.16 453.42 484.47 450.45 491.14 448.2 498.08 445.68 504.96 444.07 512.1 443.16 519.36 441.81 526.54 441.2 533.84 439.3 540.91 438.13 548.15 434.95 554.77 431.77 561.29 427.86 567.49 421.96 571.85 415.95 575.91 409.69 579.12 402.87 580.87 396.01 582.34 389.02 583 382.05 583.88 375.09 584.87 368.17 586.21 361.63 588.84 354.94 591.03 349.46 595.46 343.96 599.78 339.38 605.11 335.51 610.97 332.19 617.14 329.39 623.57 326.8 630.07 324.35 636.64 322.35 643.37 320 650.2 317.1 643.39 314.81 636.53 311.87 629.94 309.16 623.25 306.28 616.63 303.46 609.99 300.58 603.38 298.28 596.52 295.1 590.02 292.86 583.15 289.6 576.68 287.47 569.77 284.79 563.07 281.69 556.53 279.72 549.55 276.85 542.93 274.15 536.23 271.63 529.47 268.93 522.77 266.92 515.82 264.18 509.13 262.14 502.19 259.59 495.44 257.21 488.62 254.58 481.9 251.73 475.25 249.42 468.41 247.67 461.37 244.68 454.76 242.6 447.84 240.25 441.01 238.09 434.12 235.65 427.31 233.38 420.46 231.22 413.57 229.3 406.61 227.09 399.72 225.05 392.79 223.9 385.63 221.42 378.81 219.86 371.75 218.33 364.7 217.2 357.56 215.91 350.46 214.57 343.36 213.77 336.17 214.01 328.96 221.2 329.5 228.2 331.33 235.31 332.5 242.21 334.59 249.14 336.52 255.99 338.73 262.84 340.91 269.81 342.81 276.29 346.02 283.03 348.55 289.37 351.99 295.84 355.14 302.08 358.73 308.64 361.79 314.45 366.09 320.32 370.25 326 374.67 332 378.69 336.97 383.95 342.75 388.32 347.49 393.78 352.52 398.95 357.11 404.55 360.9 410.88 365.85 416.34 371.04 421.54 376.56 426.38 382.01 431.37 388.12 435.52 394.76 438.75 401.3 442.14 408.26 444.58 415.14 447.2 422.26 449.06 429.36 451.08 436.7 451.95 444.02 452.8 451.2 453.52 458.35 454.46 465.52 455.21 472.61 456.73 479.85 456.96 486.95 458.24 492.99 461.66 499.12 465.16 504.47 469.76 509.87 474.31 514.16 479.93 519.25 484.85 523.21 490.7 526.62 496.87"/><polygon class="cls-5" points="352.03 500.96 344.75 499.81 337.57 498.11 331.13 494.46 325.54 489.68 320.65 484.16 317.01 477.69 315.17 470.52 314.14 463.19 314.89 455.53 317.98 448.52 321.25 441.68 326.27 435.95 332.05 430.91 339.32 428.32 337.19 427.63 329.85 429 322.49 430.24 315.96 433.85 309.52 437.64 304.84 443.47 300.32 449.33 297.39 456.13 294.73 463.12 294.74 470.61 295.62 477.94 297.25 485.15 299.87 492.16 304.72 497.85 310.04 502.96 315.84 507.59 322.41 511.19 329.74 512.82 337.19 513.36 344.12 512.91 350.68 510.68 357.11 508.23 363.26 504.94 368.07 499.9 372.26 494.86 366.29 498.37 359.12 499.54 352.03 500.96"/><polygon class="cls-6" points="352.03 500.96 344.75 499.81 337.57 498.11 331.13 494.46 325.54 489.68 320.65 484.16 317.01 477.69 315.17 470.52 314.14 463.19 314.89 455.53 317.98 448.52 321.25 441.68 326.27 435.95 332.05 430.91 339.32 428.32 337.19 427.63 329.85 429 322.49 430.24 315.96 433.85 309.52 437.64 304.84 443.47 300.32 449.33 297.39 456.13 294.73 463.12 294.74 470.61 295.62 477.94 297.25 485.15 299.87 492.16 304.72 497.85 310.04 502.96 315.84 507.59 322.41 511.19 329.74 512.82 337.19 513.36 344.12 512.91 350.68 510.68 357.11 508.23 363.26 504.94 368.07 499.9 372.26 494.86 366.29 498.37 359.12 499.54 352.03 500.96"/><polygon class="cls-5" points="268.12 413.07 268.4 406.19 269.67 399.44 273.04 393.37 278.56 389.26 284.88 386.98 279.16 383.3 274.5 378.26 271.65 372.03 269.15 365.71 267.67 359.1 266.74 358.9 265.81 365.72 263.78 372.26 260.36 378.21 255.82 383.37 249.9 387.06 256.49 389.05 261.46 393.7 264.8 399.61 266.63 406.18 267.21 412.91 268.12 413.07"/><polygon class="cls-6" points="268.12 413.07 268.4 406.19 269.67 399.44 273.04 393.37 278.56 389.26 284.88 386.98 279.16 383.3 274.5 378.26 271.65 372.03 269.15 365.71 267.67 359.1 266.74 358.9 265.81 365.72 263.78 372.26 260.36 378.21 255.82 383.37 249.9 387.06 256.49 389.05 261.46 393.7 264.8 399.61 266.63 406.18 267.21 412.91 268.12 413.07"/><polygon class="cls-5" points="320.3 587.49 319.29 580.07 315.7 573.36 308.59 570.57 314.85 565.98 318.29 559.27 319.69 551.92 320.13 552.09 321.81 559.45 325.99 565.74 331.8 570.45 325.49 574 321.93 580.25 320.18 587.52 320.3 587.49"/><polygon class="cls-6" points="320.3 587.49 319.29 580.07 315.7 573.36 308.59 570.57 314.85 565.98 318.29 559.27 319.69 551.92 320.13 552.09 321.81 559.45 325.99 565.74 331.8 570.45 325.49 574 321.93 580.25 320.18 587.52 320.3 587.49"/><polygon class="cls-5" points="417.14 477.07 416.08 484.13 413.81 490.89 408.94 495.99 402.41 498.83 408.38 503.12 412.74 508.85 415.11 515.61 417.13 522.47 417.81 522.58 419.08 515.5 421.42 508.62 425.88 502.82 431.64 499.18 425.22 496.53 420.76 490.88 418.19 484.18 417.68 477 417.14 477.07"/><polygon class="cls-6" points="417.14 477.07 416.08 484.13 413.81 490.89 408.94 495.99 402.41 498.83 408.38 503.12 412.74 508.85 415.11 515.61 417.13 522.47 417.81 522.58 419.08 515.5 421.42 508.62 425.88 502.82 431.64 499.18 425.22 496.53 420.76 490.88 418.19 484.18 417.68 477 417.14 477.07"/><polyline class="cls-5" points="211.87 246.1 211.78 254.37 212.41 262.65 212.64 270.92"/><polyline class="cls-4" points="211.87 246.1 211.78 254.37 212.41 262.65 212.64 270.92"/><polyline class="cls-5" points="224.41 246.97 225.18 253.42 224.41 259.87 224.31 266.33 224.5 272.79"/><polyline class="cls-4" points="224.41 246.97 225.18 253.42 224.41 259.87 224.31 266.33 224.5 272.79"/><polyline class="cls-5" points="237.48 249.84 237.57 257.77 237.6 265.71 236.81 273.66"/><polyline class="cls-4" points="237.48 249.84 237.57 257.77 237.6 265.71 236.81 273.66"/><polyline class="cls-5" points="250.26 250.7 249.56 258.64 250.08 266.58 250.07 274.52"/><polyline class="cls-4" points="250.26 250.7 249.56 258.64 250.08 266.58 250.07 274.52"/><polyline class="cls-5" points="262.12 251.57 262.43 259.17 262.36 266.78 262.63 274.39"/><polyline class="cls-4" points="262.12 251.57 262.43 259.17 262.36 266.78 262.63 274.39"/><polyline class="cls-5" points="275.18 253.44 274.58 261.04 274.43 268.65 275.2 276.26"/><polyline class="cls-4" points="275.18 253.44 274.58 261.04 274.43 268.65 275.2 276.26"/><polyline class="cls-5" points="287.09 254.3 287.76 261.91 286.92 269.51 287.62 277.12"/><polyline class="cls-4" points="287.09 254.3 287.76 261.91 286.92 269.51 287.62 277.12"/><polyline class="cls-5" points="299.77 255.17 299.8 262.77 300.02 270.38 300.35 277.99"/><polyline class="cls-4" points="299.77 255.17 299.8 262.77 300.02 270.38 300.35 277.99"/><polyline class="cls-5" points="312.16 256.04 312.18 263.64 312.16 271.25 312.63 278.86"/><polyline class="cls-4" points="312.16 256.04 312.18 263.64 312.16 271.25 312.63 278.86"/><polyline class="cls-5" points="324.6 256.9 325.02 264.84 324.63 272.78 324.76 280.72"/><polyline class="cls-4" points="324.6 256.9 325.02 264.84 324.63 272.78 324.76 280.72"/><polyline class="cls-5" points="337.9 257.77 337.78 265.71 337.11 273.65 337.26 281.59"/><polyline class="cls-4" points="337.9 257.77 337.78 265.71 337.11 273.65 337.26 281.59"/><polyline class="cls-5" points="349.75 258.64 350.46 266.57 350.32 274.51 349.66 282.46"/><polyline class="cls-4" points="349.75 258.64 350.46 266.57 350.32 274.51 349.66 282.46"/><polyline class="cls-5" points="362.5 259.5 362.31 266.77 362.8 274.05 362.72 281.32"/><polyline class="cls-4" points="362.5 259.5 362.31 266.77 362.8 274.05 362.72 281.32"/><polyline class="cls-5" points="374.97 260.37 375.07 267.97 375.01 275.58 375.57 283.19"/><polyline class="cls-4" points="374.97 260.37 375.07 267.97 375.01 275.58 375.57 283.19"/><polyline class="cls-5" points="387.29 259.24 387.6 266.84 387.7 274.45 387.81 282.06"/><polyline class="cls-4" points="387.29 259.24 387.6 266.84 387.7 274.45 387.81 282.06"/><polyline class="cls-5" points="400.48 260.1 399.99 267.37 399.8 274.65 399.9 281.92"/><polyline class="cls-4" points="400.48 260.1 399.99 267.37 399.8 274.65 399.9 281.92"/><polyline class="cls-5" points="588.27 247.1 588.49 254.37 588.27 261.65 588.46 268.92"/><polyline class="cls-4" points="588.27 247.1 588.49 254.37 588.27 261.65 588.46 268.92"/><polyline class="cls-5" points="575.82 247.97 575.45 255.24 575.22 262.51 575.94 269.79"/><polyline class="cls-4" points="575.82 247.97 575.45 255.24 575.22 262.51 575.94 269.79"/><polyline class="cls-5" points="562.91 248.84 563.47 256.77 562.65 264.71 562.97 272.66"/><polyline class="cls-4" points="562.91 248.84 563.47 256.77 562.65 264.71 562.97 272.66"/><polyline class="cls-5" points="551.09 249.7 550.79 257.64 551.01 265.58 550.97 273.52"/><polyline class="cls-4" points="551.09 249.7 550.79 257.64 551.01 265.58 550.97 273.52"/><polyline class="cls-5" points="537.61 252.57 537.61 260.17 538.18 267.78 538.51 275.39"/><polyline class="cls-4" points="537.61 252.57 537.61 260.17 538.18 267.78 538.51 275.39"/><polyline class="cls-5" points="525.49 253.44 526.02 261.37 525.07 269.31 525.9 277.26"/><polyline class="cls-4" points="525.49 253.44 526.02 261.37 525.07 269.31 525.9 277.26"/><polyline class="cls-5" points="513.5 254.3 513.19 261.57 513.12 268.85 513.36 276.12"/><polyline class="cls-4" points="513.5 254.3 513.19 261.57 513.12 268.85 513.36 276.12"/><polyline class="cls-5" points="500.55 255.17 500.75 262.44 500.23 269.71 500.35 276.99"/><polyline class="cls-4" points="500.55 255.17 500.75 262.44 500.23 269.71 500.35 276.99"/><polyline class="cls-5" points="487.59 256.04 488.27 263.31 487.77 270.58 488.04 277.86"/><polyline class="cls-4" points="487.59 256.04 488.27 263.31 487.77 270.58 488.04 277.86"/><polyline class="cls-5" points="475.64 256.9 475.85 264.17 475.14 271.45 475.28 278.72"/><polyline class="cls-4" points="475.64 256.9 475.85 264.17 475.14 271.45 475.28 278.72"/><polyline class="cls-5" points="463.04 257.77 462.82 265.04 462.69 272.31 463.12 279.59"/><polyline class="cls-4" points="463.04 257.77 462.82 265.04 462.69 272.31 463.12 279.59"/><polyline class="cls-5" points="450.48 258.64 450.52 265.91 450.3 273.18 450.33 280.46"/><polyline class="cls-4" points="450.48 258.64 450.52 265.91 450.3 273.18 450.33 280.46"/><polyline class="cls-5" points="437.98 259.5 437.98 266.77 437.55 274.05 437.95 281.32"/><polyline class="cls-4" points="437.98 259.5 437.98 266.77 437.55 274.05 437.95 281.32"/><polyline class="cls-5" points="425.3 260.37 425.71 267.64 425.71 274.92 425.18 282.19"/><polyline class="cls-4" points="425.3 260.37 425.71 267.64 425.71 274.92 425.18 282.19"/><polyline class="cls-5" points="413 259.24 412.39 267.17 412.54 275.12 412.73 283.06"/><polyline class="cls-4" points="413 259.24 412.39 267.17 412.54 275.12 412.73 283.06"/><polyline class="cls-5" points="597.3 150.27 592.9 155.56 588.12 160.51 583.82 165.89 579.04 170.84 574.57 176.06 569.38 180.64 565.24 186.19 560.27 191 554.03 193.94 546.88 195.53 539.65 196.88 532.3 197.29 525.01 198.4 517.67 198.83 510.31 199.17 503.01 200.16 495.67 200.73 488.32 201.03 480.96 201.2 473.59 201.11 466.23 201.33 458.89 202.04 451.54 202.59 444.18 202.5 436.81 202.02 429.46 203.09 422.1 203.14 414.73 202.41 407.37 203.1 400 202.97 392.64 202.53 385.28 202.5 377.91 203.05 370.56 202.31 363.2 202.14 355.84 202.25 348.48 201.89 341.1 202.48 333.77 201.49 326.42 201.16 319.06 201.04 311.69 201.05 304.33 200.83 297 200 289.67 199.32 282.33 198.84 275 198.28 267.67 197.57 260.39 196.56 252.99 196.27 245.94 194.03 239.3 191.31 235.25 185.76 230.27 180.99 225.85 175.71 221.18 170.67 216.09 166 211.58 160.81 207.23 155.45 202.6 150.36"/><polyline class="cls-4" points="597.3 150.27 592.9 155.56 588.12 160.51 583.82 165.89 579.04 170.84 574.57 176.06 569.38 180.64 565.24 186.19 560.27 191 554.03 193.94 546.88 195.53 539.65 196.88 532.3 197.29 525.01 198.4 517.67 198.83 510.31 199.17 503.01 200.16 495.67 200.73 488.32 201.03 480.96 201.2 473.59 201.11 466.23 201.33 458.89 202.04 451.54 202.59 444.18 202.5 436.81 202.02 429.46 203.09 422.1 203.14 414.73 202.41 407.37 203.1 400 202.97 392.64 202.53 385.28 202.5 377.91 203.05 370.56 202.31 363.2 202.14 355.84 202.25 348.48 201.89 341.1 202.48 333.77 201.49 326.42 201.16 319.06 201.04 311.69 201.05 304.33 200.83 297 200 289.67 199.32 282.33 198.84 275 198.28 267.67 197.57 260.39 196.56 252.99 196.27 245.94 194.03 239.3 191.31 235.25 185.76 230.27 180.99 225.85 175.71 221.18 170.67 216.09 166 211.58 160.81 207.23 155.45 202.6 150.36"/><polygon points="218.28 156.07 225.2 157.16 232.47 157.72 239.68 158.84 246.97 159.21 254.2 160.25 261.49 160.53 268.73 161.58 276.06 161.3 283.31 162.04 290.57 162.97 297.89 162.55 305.17 163.07 312.44 163.71 319.76 163.28 327.03 164.08 334.32 163.98 341.63 163.77 348.92 164.01 356.2 164.92 363.5 164.96 370.8 164.68 378.1 164.5 385.39 165.15 392.7 164.56 400 164.97 407.29 164.48 414.59 164.51 421.88 164.82 429.19 165.16 436.48 164.91 443.76 164.05 451.06 164.02 458.35 163.87 465.65 164.02 472.93 163.47 480.24 163.62 487.54 163.5 494.85 163.61 502.13 163.09 509.41 162.53 516.68 161.88 523.96 161.45 531.28 161.61 538.55 160.96 545.79 160.02 553.09 159.79 560.3 158.57 567.57 157.98 574.84 157.41 581.59 156.07 574.76 155.28 567.61 153.78 560.33 153.17 553.03 152.91 545.8 151.92 538.55 151.05 531.27 150.5 523.97 150.43 516.71 149.61 509.42 149.36 502.14 149.01 494.83 149.06 487.53 149.11 480.24 148.85 472.95 148.74 465.68 147.89 458.38 148.11 451.09 147.49 443.79 147.84 436.5 147.88 429.21 147.23 421.91 146.84 414.61 147.1 407.3 147.19 400 147.63 392.7 147.47 385.41 147.68 378.12 147.54 370.82 147.12 363.53 147.95 356.23 147.45 348.94 147.87 341.63 147.5 334.34 147.92 327.07 148.7 319.77 148.98 312.48 149.17 305.19 149.4 297.9 149.73 290.59 149.63 283.29 149.76 276.03 150.61 268.76 151.16 261.49 151.69 254.19 151.94 246.94 152.68 239.7 153.55 232.39 153.78 225.22 155.16 218.28 156.07"/><polygon class="cls-4" points="597.97 150.45 591.64 153.91 584.76 155.74 577.71 156.77 570.72 158.17 563.59 158.54 556.48 158.96 549.4 159.75 542.28 160.03 535.19 160.59 528.12 161.59 521.01 161.93 513.88 161.81 506.77 162.14 499.68 162.97 492.59 163.69 485.46 163.81 478.33 163.7 471.24 164.37 464.12 164.52 456.98 163.8 449.86 164.2 442.75 165.06 435.62 164.48 428.5 164.33 421.38 165.06 414.26 164.98 407.13 164.66 400 165.3 392.88 165.13 385.75 165.01 378.63 164.84 371.5 164.77 364.38 164.88 357.26 164.34 350.14 164.02 343.01 164.58 335.91 163.72 328.79 163.55 321.65 164.03 314.53 163.92 307.44 162.92 300.32 162.84 293.19 162.87 286.09 162.24 278.97 162.05 271.9 161.03 264.77 160.94 257.66 160.58 250.55 160.22 243.44 159.69 236.39 158.67 229.33 157.72 222.24 156.97 215.21 155.83 208.29 154.09 202.3 150.45 208.33 146.89 215.23 145.09 222.3 144.19 229.4 143.66 236.44 142.68 243.48 141.46 250.56 140.74 257.65 140.01 264.75 139.5 271.88 139.37 278.98 138.87 286.12 139.02 293.22 138.59 300.32 138.09 307.44 137.79 314.56 137.7 321.66 137.02 328.77 136.65 335.9 137.14 343.02 137.07 350.14 136.74 357.25 136.31 364.37 135.76 371.49 136 378.62 136.35 385.74 136.03 392.87 135.92 400 135.93 407.12 135.86 414.25 135.75 421.38 135.6 428.49 136.33 435.62 135.99 442.74 136.35 449.87 136.28 456.99 136.5 464.09 137.12 471.21 137.29 478.35 136.84 485.45 137.42 492.58 137.51 499.69 137.8 506.81 138.14 513.93 138.35 521.03 138.78 528.11 139.69 535.22 140.04 542.36 140.08 549.39 141.42 556.5 141.75 563.61 142.23 570.65 143.34 577.68 144.42 584.78 145.13 591.79 146.52 597.97 150.45"/><polygon points="236.63 160.54 240.35 166.08 244.31 171.62 247.78 177.51 252.16 182.74 256.76 187.78 261.22 192.91 266.16 197.73 273.58 198.39 281.03 197.96 288.41 198.52 283.33 193.16 278.56 187.4 274.54 181.07 270.89 174.53 267.5 167.86 263.6 161.79 256.97 160.92 250.19 160.53 243.37 160.93 236.63 160.54"/><polygon class="cls-4" points="236.63 160.54 240.35 166.08 244.31 171.62 247.78 177.51 252.16 182.74 256.76 187.78 261.22 192.91 266.16 197.73 273.58 198.39 281.03 197.96 288.41 198.52 283.33 193.16 278.56 187.4 274.54 181.07 270.89 174.53 267.5 167.86 263.6 161.79 256.97 160.92 250.19 160.53 243.37 160.93 236.63 160.54"/><polygon points="310.73 199.26 305.64 194.62 302.49 188.21 299.21 181.94 296.43 175.41 292.94 169.18 290.99 162.55 297.72 162.11 304.51 162.41 311.3 162.64 317.96 163.67 319.56 169.95 321.56 176.42 323.41 182.94 326.49 189.01 329.1 195.22 332.85 200.46 325.49 200.15 318.09 199.75 310.73 199.26"/><polygon class="cls-4" points="310.73 199.26 305.64 194.62 302.49 188.21 299.21 181.94 296.43 175.41 292.94 169.18 290.99 162.55 297.72 162.11 304.51 162.41 311.3 162.64 317.96 163.67 319.56 169.95 321.56 176.42 323.41 182.94 326.49 189.01 329.1 195.22 332.85 200.46 325.49 200.15 318.09 199.75 310.73 199.26"/><polygon points="345.41 164.66 346.78 171.98 347.8 179.73 349.26 187.42 351.95 194.78 355.17 201.49 362.54 201.96 369.92 202.93 377.34 202.48 375.15 195.61 374.77 187.99 373.71 180.45 373.5 172.84 372.29 165.57 365.63 165.05 358.82 165.28 352.05 164.21 345.41 164.66"/><polygon class="cls-4" points="345.41 164.66 346.78 171.98 347.8 179.73 349.26 187.42 351.95 194.78 355.17 201.49 362.54 201.96 369.92 202.93 377.34 202.48 375.15 195.61 374.77 187.99 373.71 180.45 373.5 172.84 372.29 165.57 365.63 165.05 358.82 165.28 352.05 164.21 345.41 164.66"/><polygon points="426.55 165.74 425.69 172.85 425.66 180.47 424.63 188.01 423.28 195.49 421.83 203.03 414.41 202.88 407 203.24 399.9 202.69 399.74 195.48 399.69 187.95 399.43 180.43 399.15 172.9 399.25 165.07 406.37 165.27 413.16 165.65 419.95 165.36 426.55 165.74"/><polygon class="cls-4" points="426.55 165.74 425.69 172.85 425.66 180.47 424.63 188.01 423.28 195.49 421.83 203.03 414.41 202.88 407 203.24 399.9 202.69 399.74 195.48 399.69 187.95 399.43 180.43 399.15 172.9 399.25 165.07 406.37 165.27 413.16 165.65 419.95 165.36 426.55 165.74"/><polygon points="562.57 158.47 559.23 164.75 555.63 170.79 551.3 176.36 547 181.91 543.05 187.75 538.01 192.68 532.99 197.96 539.82 196.25 546.57 194.51 553.25 192.48 560.02 190.97 564.61 185.68 569.45 180.56 573.47 174.74 578.4 169.69 582.87 164.24 587.18 159.18 579.21 158.84 570.9 158.52 562.57 158.47"/><polygon class="cls-4" points="562.57 158.47 559.23 164.75 555.63 170.79 551.3 176.36 547 181.91 543.05 187.75 538.01 192.68 532.99 197.96 539.82 196.25 546.57 194.51 553.25 192.48 560.02 190.97 564.61 185.68 569.45 180.56 573.47 174.74 578.4 169.69 582.87 164.24 587.18 159.18 579.21 158.84 570.9 158.52 562.57 158.47"/><polygon points="535.52 161.14 532.48 168.3 528.29 174.55 524.74 181.15 520.38 187.24 515.82 193.15 510.76 198.72 503.32 198.68 495.92 199.2 488.5 199.79 492.95 194.38 496.93 188.68 500.25 182.56 503.06 176.18 505.34 169.6 508.39 163.63 515.02 162.53 521.84 162.42 528.63 161.86 535.52 161.14"/><polygon class="cls-4" points="535.52 161.14 532.48 168.3 528.29 174.55 524.74 181.15 520.38 187.24 515.82 193.15 510.76 198.72 503.32 198.68 495.92 199.2 488.5 199.79 492.95 194.38 496.93 188.68 500.25 182.56 503.06 176.18 505.34 169.6 508.39 163.63 515.02 162.53 521.84 162.42 528.63 161.86 535.52 161.14"/><polygon points="453.99 165.39 452.91 172.81 450.79 180.17 449.04 187.58 447.46 195.06 444.07 201.55 451.43 201 458.88 201.46 466.22 200.4 470.08 195.39 472.85 189.4 475.76 183.42 477.7 177.06 479.66 170.73 480.96 164.59 474.3 164.44 467.52 165.14 460.73 165.35 453.99 165.39"/><polygon class="cls-4" points="453.99 165.39 452.91 172.81 450.79 180.17 449.04 187.58 447.46 195.06 444.07 201.55 451.43 201 458.88 201.46 466.22 200.4 470.08 195.39 472.85 189.4 475.76 183.42 477.7 177.06 479.66 170.73 480.96 164.59 474.3 164.44 467.52 165.14 460.73 165.35 453.99 165.39"/></svg>