<svg xmlns="http://www.w3.org/2000/svg" xmlns:xlink="http://www.w3.org/1999/xlink" viewBox="0 0 800 800"><defs><style>.cls-1,.cls-4,.cls-8{fill:none;}.cls-2{isolation:isolate;}.cls-3{fill:#fff;}.cls-4{stroke:#000;stroke-width:8px;}.cls-4,.cls-8{stroke-linejoin:bevel;}.cls-5{mix-blend-mode:multiply;}.cls-6{clip-path:url(#clip-path);}.cls-7{fill:blue;}.cls-8{stroke:blue;}</style><clipPath id="clip-path"><polyline class="cls-1" points="397.82 439.37 401.18 438.11 404.54 436.84 407.95 435.75 411.32 434.5 414.7 433.29 418.08 432.1 421.51 431.05 424.88 429.82 428.26 428.59 431.64 427.43 435.04 426.29 438.38 424.95 441.76 423.76 445.17 422.66 448.56 421.48 451.95 420.31 455.28 418.97 458.68 417.82 462.04 416.55 465.46 415.45 468.87 414.32 472.2 412.98 475.65 411.96 479.01 410.69 482.43 409.55 485.75 408.38 485.87 411.89 485.92 415.47 485.71 419.06 485.78 422.64 485.72 426.23 485.87 429.82 485.85 433.41 485.88 436.99 485.88 440.58 485.79 444.17 485.86 447.76 485.72 451.35 485.85 454.94 485.84 458.52 485.88 462.11 485.84 465.7 485.89 469.29 485.69 472.88 485.91 476.47 485.73 480.06 485.88 483.65 485.92 487.24 485.79 490.83 485.8 494.42 485.86 498.01 485.75 501.59 485.82 505.18 485.86 508.77 485.82 512.36 485.92 515.95 485.8 519.54 485.83 523.14 485.87 526.73 485.74 530.32 485.69 533.92 485.88 537.51 485.83 541.1 485.87 544.7 485.76 548.27 482.45 549.58 479.04 550.71 475.68 551.97 472.25 553 468.85 554.17 465.54 555.57 462.15 556.74 458.76 557.91 455.36 559.05 452 560.28 448.56 561.32 445.19 562.55 441.83 563.8 438.47 565.07 435.09 566.25 431.67 567.36 428.32 568.65 424.93 569.83 421.52 570.96 418.16 572.22 414.76 573.36 411.37 574.54 408 575.79 404.58 576.88 401.22 578.18 397.77 579.21"/></clipPath></defs><title>waterfall</title><g class="cls-2"><g id="Layer_1" data-name="Layer 1"><polygon class="cls-3" points="398.22 516.11 401.58 517.49 405 518.57 408.36 519.83 411.72 521.09 415.12 522.21 418.51 523.4 421.87 524.64 425.28 525.77 428.64 527 432.04 528.14 435.46 529.22 438.8 530.53 442.18 531.73 445.56 532.92 448.97 534.04 452.33 535.29 455.69 536.55 459.1 537.67 462.47 538.91 465.93 539.9 469.3 541.12 472.67 542.36 476.02 543.65 479.43 544.77 482.84 545.93 486.33 547.15 482.83 548.34 479.43 549.44 476.1 550.8 472.71 551.97 469.33 553.15 465.88 554.17 462.54 555.47 459.13 556.58 455.77 557.84 452.38 558.99 448.98 560.13 445.64 561.43 442.25 562.62 438.83 563.71 435.51 565.06 432.09 566.15 428.73 567.42 425.3 568.48 421.94 569.74 418.53 570.85 415.18 572.15 411.77 573.27 408.4 574.5 405 575.65 401.65 576.99 398.22 578.02 394.87 576.78 391.45 575.7 388.07 574.49 384.7 573.27 381.31 572.1 377.94 570.87 374.58 569.64 371.13 568.64 367.79 567.31 364.38 566.21 361.03 564.94 357.66 563.71 354.26 562.58 350.84 561.5 347.52 560.12 344.07 559.13 340.74 557.79 337.36 556.59 333.95 555.46 330.55 554.31 327.2 553.01 323.81 551.84 320.36 550.83 317.03 549.48 313.61 548.34 310.3 547.15 313.6 545.96 316.95 544.69 320.37 543.6 323.73 542.32 327.11 541.14 330.54 540.08 333.9 538.83 337.32 537.75 340.68 536.49 344.02 535.19 347.45 534.15 350.82 532.9 354.18 531.67 357.57 530.5 360.96 529.33 364.38 528.25 367.75 527.01 371.08 525.65 374.48 524.5 377.88 523.34 381.25 522.14 384.62 520.9 388.01 519.72 391.42 518.58 394.79 517.32 398.22 516.11"/><polygon class="cls-4" points="398.22 516.11 401.58 517.49 405 518.57 408.36 519.83 411.72 521.09 415.12 522.21 418.51 523.4 421.87 524.64 425.28 525.77 428.64 527 432.04 528.14 435.46 529.22 438.8 530.53 442.18 531.73 445.56 532.92 448.97 534.04 452.33 535.29 455.69 536.55 459.1 537.67 462.47 538.91 465.93 539.9 469.3 541.12 472.67 542.36 476.02 543.65 479.43 544.77 482.84 545.93 486.33 547.15 482.83 548.34 479.43 549.44 476.1 550.8 472.71 551.97 469.33 553.15 465.88 554.17 462.54 555.47 459.13 556.58 455.77 557.84 452.38 558.99 448.98 560.13 445.64 561.43 442.25 562.62 438.83 563.71 435.51 565.06 432.09 566.15 428.73 567.42 425.3 568.48 421.94 569.74 418.53 570.85 415.18 572.15 411.77 573.27 408.4 574.5 405 575.65 401.65 576.99 398.22 578.02 394.87 576.78 391.45 575.7 388.07 574.49 384.7 573.27 381.31 572.1 377.94 570.87 374.58 569.64 371.13 568.64 367.79 567.31 364.38 566.21 361.03 564.94 357.66 563.71 354.26 562.58 350.84 561.5 347.52 560.12 344.07 559.13 340.74 557.79 337.36 556.59 333.95 555.46 330.55 554.31 327.2 553.01 323.81 551.84 320.36 550.83 317.03 549.48 313.61 548.34 310.3 547.15 313.6 545.96 316.95 544.69 320.37 543.6 323.73 542.32 327.11 541.14 330.54 540.08 333.9 538.83 337.32 537.75 340.68 536.49 344.02 535.19 347.45 534.15 350.82 532.9 354.18 531.67 357.57 530.5 360.96 529.33 364.38 528.25 367.75 527.01 371.08 525.65 374.48 524.5 377.88 523.34 381.25 522.14 384.62 520.9 388.01 519.72 391.42 518.58 394.79 517.32 398.22 516.11"/><polygon class="cls-3" points="398.22 376.31 394.84 377.44 391.44 378.58 388.09 379.85 384.68 380.98 381.26 382.06 377.88 383.25 374.55 384.59 371.19 385.86 367.77 386.92 364.37 388.06 360.99 389.24 357.65 390.56 354.26 391.73 350.84 392.8 347.48 394.07 344.11 395.29 340.71 396.45 337.31 397.58 333.92 398.76 330.52 399.93 327.17 401.21 323.81 402.47 320.39 403.57 317.03 404.84 313.6 405.92 310.33 407.15 313.58 408.4 316.99 409.51 320.36 410.74 323.77 411.86 327.16 413.01 330.5 414.35 333.89 415.49 337.28 416.67 340.67 417.85 344.05 419.01 347.44 420.19 350.81 421.4 354.17 422.66 357.61 423.7 360.94 425.03 364.38 426.08 367.76 427.27 371.08 428.63 374.48 429.8 377.86 430.99 381.28 432.07 384.63 433.38 388.02 434.57 391.45 435.64 394.83 436.85 398.22 437.98 401.6 436.86 404.95 435.58 408.41 434.61 411.76 433.33 415.14 432.16 418.49 430.86 421.91 429.78 425.32 428.65 428.65 427.32 432.04 426.16 435.41 424.95 438.82 423.83 442.22 422.7 445.54 421.33 448.98 420.3 452.32 418.99 455.73 417.87 459.08 416.57 462.54 415.6 465.91 414.36 469.29 413.16 472.66 411.92 476.08 410.83 479.46 409.61 482.79 408.23 486.25 407.15 482.86 405.91 479.42 404.86 476.09 403.54 472.72 402.31 469.29 401.25 465.92 400.01 462.57 398.74 459.14 397.67 455.77 396.45 452.4 395.25 449.03 394.02 445.65 392.83 442.25 391.69 438.85 390.55 435.51 389.24 432.11 388.11 428.71 386.94 425.29 385.88 421.96 384.5 418.55 383.38 415.14 382.28 411.82 380.9 408.4 379.8 405.02 378.59 401.65 377.31 398.22 376.31"/><polygon class="cls-4" points="398.22 376.31 394.84 377.44 391.44 378.58 388.09 379.85 384.68 380.98 381.26 382.06 377.88 383.25 374.55 384.59 371.19 385.86 367.77 386.92 364.37 388.06 360.99 389.24 357.65 390.56 354.26 391.73 350.84 392.8 347.48 394.07 344.11 395.29 340.71 396.45 337.31 397.58 333.92 398.76 330.52 399.93 327.17 401.21 323.81 402.47 320.39 403.57 317.03 404.84 313.6 405.92 310.33 407.15 313.58 408.4 316.99 409.51 320.36 410.74 323.77 411.86 327.16 413.01 330.5 414.35 333.89 415.49 337.28 416.67 340.67 417.85 344.05 419.01 347.44 420.19 350.81 421.4 354.17 422.66 357.61 423.7 360.94 425.03 364.38 426.08 367.76 427.27 371.08 428.63 374.48 429.8 377.86 430.99 381.28 432.07 384.63 433.38 388.02 434.57 391.45 435.64 394.83 436.85 398.22 437.98 401.6 436.86 404.95 435.58 408.41 434.61 411.76 433.33 415.14 432.16 418.49 430.86 421.91 429.78 425.32 428.65 428.65 427.32 432.04 426.16 435.41 424.95 438.82 423.83 442.22 422.7 445.54 421.33 448.98 420.3 452.32 418.99 455.73 417.87 459.08 416.57 462.54 415.6 465.91 414.36 469.29 413.16 472.66 411.92 476.08 410.83 479.46 409.61 482.79 408.23 486.25 407.15 482.86 405.91 479.42 404.86 476.09 403.54 472.72 402.31 469.29 401.25 465.92 400.01 462.57 398.74 459.14 397.67 455.77 396.45 452.4 395.25 449.03 394.02 445.65 392.83 442.25 391.69 438.85 390.55 435.51 389.24 432.11 388.11 428.71 386.94 425.29 385.88 421.96 384.5 418.55 383.38 415.14 382.28 411.82 380.9 408.4 379.8 405.02 378.59 401.65 377.31 398.22 376.31"/><polygon class="cls-3" points="301.09 317.3 301.22 320.92 301.41 324.53 301.84 328.12 302.19 331.71 302.77 335.29 303.55 338.82 304.43 342.32 305.42 345.8 306.6 349.22 307.89 352.59 309.14 355.99 310.64 359.28 312.45 362.41 314.15 365.6 315.96 368.73 318.01 371.71 320.11 374.64 322.29 377.52 324.66 380.25 326.96 383.03 329.41 385.7 332.15 388.06 334.78 390.53 337.5 392.92 340.5 394.95 343.38 397.12 346.43 399.07 349.46 401.04 352.66 402.73 355.88 404.35 359.19 405.79 362.46 407.34 365.93 408.39 369.3 409.69 372.78 410.66 376.29 411.55 379.82 412.3 383.41 412.73 386.98 413.29 390.58 413.67 394.19 413.78 397.8 413.82 401.41 413.8 405.02 413.56 408.62 413.31 412.2 412.78 415.77 412.23 419.33 411.59 422.83 410.7 426.31 409.72 429.69 408.4 433.1 407.23 436.49 405.96 439.74 404.38 443 402.81 446.15 401.03 449.22 399.12 452.18 397.06 455.11 394.94 458.1 392.9 460.74 390.43 463.43 388.02 466.19 385.68 468.69 383.07 471.02 380.31 473.39 377.58 475.44 374.59 477.53 371.65 479.7 368.76 481.41 365.56 483.19 362.42 484.82 359.2 486.3 355.91 487.73 352.59 488.94 349.19 490.01 345.75 491.11 342.3 491.97 338.8 492.65 335.25 493.26 331.69 493.85 328.13 494.21 324.53 494.24 320.91 494.52 317.3 494.37 313.69 494.2 310.07 493.84 306.47 493.36 302.89 492.64 299.35 491.9 295.81 491.05 292.31 490.17 288.8 488.99 285.38 487.82 281.96 486.42 278.63 484.96 275.32 483.27 272.12 481.52 268.96 479.52 265.95 477.59 262.9 475.46 259.98 473.3 257.09 471.02 254.29 468.63 251.57 466.16 248.93 463.47 246.52 460.85 244.03 457.99 241.82 455.12 239.62 452.27 237.4 449.18 235.52 446.15 233.55 442.92 231.92 439.71 230.26 436.46 228.68 433.07 227.43 429.75 225.98 426.26 225.03 422.82 223.92 419.3 223.12 415.76 222.41 412.19 221.82 408.61 221.37 405.03 220.9 401.41 220.88 397.8 220.66 394.19 220.77 390.58 221.03 386.98 221.27 383.41 221.87 379.83 222.38 376.27 223.01 372.77 223.93 369.32 225 365.88 226.09 362.49 227.35 359.12 228.65 355.84 230.19 352.7 231.97 349.5 233.66 346.44 235.57 343.43 237.55 340.47 239.62 337.56 241.76 334.86 244.17 332.05 246.44 329.5 249 326.97 251.59 324.53 254.25 322.2 257.02 320.1 259.96 318.02 262.91 316.08 265.96 314.12 268.99 312.29 272.11 310.74 275.38 309.17 278.63 307.83 281.99 306.6 285.39 305.38 288.79 304.55 292.31 303.62 295.8 302.87 299.33 302.28 302.9 301.78 306.48 301.54 310.08 301.25 313.69 301.09 317.3"/><polygon class="cls-4" points="301.09 317.3 301.22 320.92 301.41 324.53 301.84 328.12 302.19 331.71 302.77 335.29 303.55 338.82 304.43 342.32 305.42 345.8 306.6 349.22 307.89 352.59 309.14 355.99 310.64 359.28 312.45 362.41 314.15 365.6 315.96 368.73 318.01 371.71 320.11 374.64 322.29 377.52 324.66 380.25 326.96 383.03 329.41 385.7 332.15 388.06 334.78 390.53 337.5 392.92 340.5 394.95 343.38 397.12 346.43 399.07 349.46 401.04 352.66 402.73 355.88 404.35 359.19 405.79 362.46 407.34 365.93 408.39 369.3 409.69 372.78 410.66 376.29 411.55 379.82 412.3 383.41 412.73 386.98 413.29 390.58 413.67 394.19 413.78 397.8 413.82 401.41 413.8 405.02 413.56 408.62 413.31 412.2 412.78 415.77 412.23 419.33 411.59 422.83 410.7 426.31 409.72 429.69 408.4 433.1 407.23 436.49 405.96 439.74 404.38 443 402.81 446.15 401.03 449.22 399.12 452.18 397.06 455.11 394.94 458.1 392.9 460.74 390.43 463.43 388.02 466.19 385.68 468.69 383.07 471.02 380.31 473.39 377.58 475.44 374.59 477.53 371.65 479.7 368.76 481.41 365.56 483.19 362.42 484.82 359.2 486.3 355.91 487.73 352.59 488.94 349.19 490.01 345.75 491.11 342.3 491.97 338.8 492.65 335.25 493.26 331.69 493.85 328.13 494.21 324.53 494.24 320.91 494.52 317.3 494.37 313.69 494.2 310.07 493.84 306.47 493.36 302.89 492.64 299.35 491.9 295.81 491.05 292.31 490.17 288.8 488.99 285.38 487.82 281.96 486.42 278.63 484.96 275.32 483.27 272.12 481.52 268.96 479.52 265.95 477.59 262.9 475.46 259.98 473.3 257.09 471.02 254.29 468.63 251.57 466.16 248.93 463.47 246.52 460.85 244.03 457.99 241.82 455.12 239.62 452.27 237.4 449.18 235.52 446.15 233.55 442.92 231.92 439.71 230.26 436.46 228.68 433.07 227.43 429.75 225.98 426.26 225.03 422.82 223.92 419.3 223.12 415.76 222.41 412.19 221.82 408.61 221.37 405.03 220.9 401.41 220.88 397.8 220.66 394.19 220.77 390.58 221.03 386.98 221.27 383.41 221.87 379.83 222.38 376.27 223.01 372.77 223.93 369.32 225 365.88 226.09 362.49 227.35 359.12 228.65 355.84 230.19 352.7 231.97 349.5 233.66 346.44 235.57 343.43 237.55 340.47 239.62 337.56 241.76 334.86 244.17 332.05 246.44 329.5 249 326.97 251.59 324.53 254.25 322.2 257.02 320.1 259.96 318.02 262.91 316.08 265.96 314.12 268.99 312.29 272.11 310.74 275.38 309.17 278.63 307.83 281.99 306.6 285.39 305.38 288.79 304.55 292.31 303.62 295.8 302.87 299.33 302.28 302.9 301.78 306.48 301.54 310.08 301.25 313.69 301.09 317.3"/><polygon points="397.8 241.72 401.43 241.64 405.04 241.97 408.63 242.42 412.22 242.86 415.8 243.43 419.33 244.2 422.89 244.9 426.38 245.88 429.77 247.16 433.19 248.37 436.54 249.73 439.81 251.31 443.01 252.99 446.23 254.65 449.34 256.51 452.38 258.48 455.35 260.57 458.22 262.77 460.98 265.12 463.68 267.54 466.16 270.19 468.7 272.77 471.16 275.42 473.43 278.24 475.6 281.14 477.73 284.07 479.67 287.12 481.57 290.2 483.38 293.34 484.94 296.61 486.56 299.85 487.91 303.21 489.18 306.61 490.12 310.11 491.3 313.54 491.99 317.1 492.81 320.63 493.31 324.22 493.93 327.8 493.43 331.4 492.75 334.96 492.15 338.54 491.09 342.01 490.26 345.53 489 348.93 487.89 352.38 486.48 355.72 485.01 359.03 483.23 362.19 481.49 365.36 479.71 368.51 477.84 371.62 475.63 374.49 473.38 377.33 471.09 380.12 468.64 382.79 466.16 385.42 463.7 388.09 460.98 390.48 458.12 392.71 455.23 394.89 452.32 397.04 449.35 399.13 446.15 400.82 443.07 402.73 439.83 404.37 436.51 405.82 433.2 407.28 429.76 408.42 426.37 409.7 422.89 410.71 419.35 411.5 415.79 412.17 412.22 412.75 408.65 413.36 405.04 413.66 401.42 413.84 397.8 413.97 394.18 413.87 390.56 413.66 386.95 413.32 383.38 412.71 379.81 412.13 376.25 411.49 372.72 410.67 369.25 409.61 365.82 408.44 362.42 407.22 359.05 405.88 355.75 404.39 352.53 402.73 349.4 400.89 346.25 399.11 343.31 396.98 340.35 394.9 337.46 392.72 334.67 390.42 331.94 388.03 329.32 385.53 326.89 382.84 324.41 380.2 322.22 377.31 319.97 374.49 317.86 371.54 315.96 368.46 314.11 365.35 312.28 362.23 310.75 358.95 309.22 355.67 307.69 352.38 306.6 348.93 305.4 345.51 304.5 342.01 303.43 338.54 302.88 334.95 302.12 331.41 301.78 327.8 302.25 324.21 302.9 320.65 303.62 317.1 304.43 313.57 305.5 310.12 306.52 306.64 307.68 303.21 309.06 299.86 310.71 296.63 312.29 293.37 313.96 290.15 315.89 287.09 317.76 283.98 319.92 281.07 322.18 278.24 324.47 275.44 326.92 272.77 329.42 270.16 332.06 267.68 334.69 265.2 337.4 262.79 340.34 260.68 343.23 258.49 346.27 256.51 349.34 254.58 352.57 252.94 355.77 251.23 359.08 249.77 362.4 248.33 365.79 247.04 369.24 245.94 372.71 244.89 376.26 244.17 379.78 243.28 383.36 242.72 386.95 242.25 390.57 242.05 394.17 241.65 397.8 241.72"/><polygon class="cls-4" points="397.8 241.72 401.43 241.64 405.04 241.97 408.63 242.42 412.22 242.86 415.8 243.43 419.33 244.2 422.89 244.9 426.38 245.88 429.77 247.16 433.19 248.37 436.54 249.73 439.81 251.31 443.01 252.99 446.23 254.65 449.34 256.51 452.38 258.48 455.35 260.57 458.22 262.77 460.98 265.12 463.68 267.54 466.16 270.19 468.7 272.77 471.16 275.42 473.43 278.24 475.6 281.14 477.73 284.07 479.67 287.12 481.57 290.2 483.38 293.34 484.94 296.61 486.56 299.85 487.91 303.21 489.18 306.61 490.12 310.11 491.3 313.54 491.99 317.1 492.81 320.63 493.31 324.22 493.93 327.8 493.43 331.4 492.75 334.96 492.15 338.54 491.09 342.01 490.26 345.53 489 348.93 487.89 352.38 486.48 355.72 485.01 359.03 483.23 362.19 481.49 365.36 479.71 368.51 477.84 371.62 475.63 374.49 473.38 377.33 471.09 380.12 468.64 382.79 466.16 385.42 463.7 388.09 460.98 390.48 458.12 392.71 455.23 394.89 452.32 397.04 449.35 399.13 446.15 400.82 443.07 402.73 439.83 404.37 436.51 405.82 433.2 407.28 429.76 408.42 426.37 409.7 422.89 410.71 419.35 411.5 415.79 412.17 412.22 412.75 408.65 413.36 405.04 413.66 401.42 413.84 397.8 413.97 394.18 413.87 390.56 413.66 386.95 413.32 383.38 412.71 379.81 412.13 376.25 411.49 372.72 410.67 369.25 409.61 365.82 408.44 362.42 407.22 359.05 405.88 355.75 404.39 352.53 402.73 349.4 400.89 346.25 399.11 343.31 396.98 340.35 394.9 337.46 392.72 334.67 390.42 331.94 388.03 329.32 385.53 326.89 382.84 324.41 380.2 322.22 377.31 319.97 374.49 317.86 371.54 315.96 368.46 314.11 365.35 312.28 362.23 310.75 358.95 309.22 355.67 307.69 352.38 306.6 348.93 305.4 345.51 304.5 342.01 303.43 338.54 302.88 334.95 302.12 331.41 301.78 327.8 302.25 324.21 302.9 320.65 303.62 317.1 304.43 313.57 305.5 310.12 306.52 306.64 307.68 303.21 309.06 299.86 310.71 296.63 312.29 293.37 313.96 290.15 315.89 287.09 317.76 283.98 319.92 281.07 322.18 278.24 324.47 275.44 326.92 272.77 329.42 270.16 332.06 267.68 334.69 265.2 337.4 262.79 340.34 260.68 343.23 258.49 346.27 256.51 349.34 254.58 352.57 252.94 355.77 251.23 359.08 249.77 362.4 248.33 365.79 247.04 369.24 245.94 372.71 244.89 376.26 244.17 379.78 243.28 383.36 242.72 386.95 242.25 390.57 242.05 394.17 241.65 397.8 241.72"/><polygon class="cls-3" points="309.86 407.39 309.69 410.89 309.85 414.47 309.72 418.06 309.8 421.64 309.92 425.23 309.89 428.82 309.79 432.41 309.74 435.99 309.89 439.58 309.92 443.17 309.85 446.76 309.91 450.35 309.81 453.94 309.78 457.52 309.9 461.11 309.72 464.7 309.88 468.29 309.87 471.88 309.73 475.47 309.71 479.06 309.88 482.65 309.77 486.24 309.69 489.83 309.87 493.42 309.84 497.01 309.75 500.59 309.8 504.18 309.84 507.77 309.85 511.36 309.78 514.95 309.85 518.54 309.7 522.14 309.76 525.73 309.77 529.32 309.8 532.92 309.9 536.51 309.75 540.1 309.89 543.7 309.72 547.35 313.21 548.41 316.58 549.65 319.96 550.84 323.3 552.17 326.69 553.34 330.1 554.46 333.44 555.75 336.86 556.86 340.28 557.94 343.59 559.32 347.03 560.34 350.41 561.55 353.78 562.78 357.19 563.88 360.56 565.11 363.93 566.37 367.29 567.61 370.71 568.72 374.12 569.84 377.45 571.18 380.83 572.38 384.21 573.6 387.59 574.81 391.05 575.81 394.38 577.19 397.84 578.36 397.88 574.71 397.89 571.13 397.73 567.54 397.81 563.96 397.91 560.37 397.68 556.78 397.74 553.19 397.82 549.61 397.91 546.02 397.92 542.43 397.87 538.84 397.84 535.25 397.76 531.66 397.75 528.08 397.76 524.49 397.91 520.9 397.85 517.31 397.8 513.72 397.73 510.13 397.73 506.54 397.71 502.95 397.81 499.36 397.87 495.77 397.75 492.18 397.69 488.59 397.87 485.01 397.72 481.42 397.7 477.83 397.72 474.24 397.69 470.65 397.7 467.06 397.92 463.46 397.68 459.87 397.85 456.28 397.69 452.68 397.85 449.09 397.89 445.5 397.9 441.9 397.72 438.36 394.41 437.12 391.02 435.96 387.69 434.63 384.27 433.54 380.91 432.26 377.52 431.1 374.12 429.95 370.71 428.83 367.34 427.6 363.95 426.45 360.57 425.26 357.23 423.95 353.8 422.9 350.47 421.55 347.08 420.38 343.68 419.23 340.32 417.96 336.88 416.93 333.54 415.6 330.11 414.54 326.78 413.18 323.33 412.18 320.01 410.79 316.62 409.6 313.16 408.58 309.86 407.39"/><polygon class="cls-4" points="309.86 407.39 309.69 410.89 309.85 414.47 309.72 418.06 309.8 421.64 309.92 425.23 309.89 428.82 309.79 432.41 309.74 435.99 309.89 439.58 309.92 443.17 309.85 446.76 309.91 450.35 309.81 453.94 309.78 457.52 309.9 461.11 309.72 464.7 309.88 468.29 309.87 471.88 309.73 475.47 309.71 479.06 309.88 482.65 309.77 486.24 309.69 489.83 309.87 493.42 309.84 497.01 309.75 500.59 309.8 504.18 309.84 507.77 309.85 511.36 309.78 514.95 309.85 518.54 309.7 522.14 309.76 525.73 309.77 529.32 309.8 532.92 309.9 536.51 309.75 540.1 309.89 543.7 309.72 547.35 313.21 548.41 316.58 549.65 319.96 550.84 323.3 552.17 326.69 553.34 330.1 554.46 333.44 555.75 336.86 556.86 340.28 557.94 343.59 559.32 347.03 560.34 350.41 561.55 353.78 562.78 357.19 563.88 360.56 565.11 363.93 566.37 367.29 567.61 370.71 568.72 374.12 569.84 377.45 571.18 380.83 572.38 384.21 573.6 387.59 574.81 391.05 575.81 394.38 577.19 397.84 578.36 397.88 574.71 397.89 571.13 397.73 567.54 397.81 563.96 397.91 560.37 397.68 556.78 397.74 553.19 397.82 549.61 397.91 546.02 397.92 542.43 397.87 538.84 397.84 535.25 397.76 531.66 397.75 528.08 397.76 524.49 397.91 520.9 397.85 517.31 397.8 513.72 397.73 510.13 397.73 506.54 397.71 502.95 397.81 499.36 397.87 495.77 397.75 492.18 397.69 488.59 397.87 485.01 397.72 481.42 397.7 477.83 397.72 474.24 397.69 470.65 397.7 467.06 397.92 463.46 397.68 459.87 397.85 456.28 397.69 452.68 397.85 449.09 397.89 445.5 397.9 441.9 397.72 438.36 394.41 437.12 391.02 435.96 387.69 434.63 384.27 433.54 380.91 432.26 377.52 431.1 374.12 429.95 370.71 428.83 367.34 427.6 363.95 426.45 360.57 425.26 357.23 423.95 353.8 422.9 350.47 421.55 347.08 420.38 343.68 419.23 340.32 417.96 336.88 416.93 333.54 415.6 330.11 414.54 326.78 413.18 323.33 412.18 320.01 410.79 316.62 409.6 313.16 408.58 309.86 407.39"/><polyline points="397.8 413.27 401.46 413.41 405.13 413.25 408.78 412.93 412.43 412.7 416.1 412.56 419.76 412.35 423.4 411.91 427.03 411.44 430.69 411.14 434.33 410.71 437.95 410.19 441.6 409.79 445.24 409.38 448.87 408.88 452.49 408.3 456.13 407.83 459.71 407.09 463.35 406.62 466.99 406.11 470.58 405.37 474.22 404.87 477.81 404.25 474.27 403.3 470.68 402.55 467.1 401.74 463.53 400.87 459.95 400.03 456.4 399.05 452.8 398.29"/><polyline class="cls-4" points="397.8 413.27 401.46 413.41 405.13 413.25 408.78 412.93 412.43 412.7 416.1 412.56 419.76 412.35 423.4 411.91 427.03 411.44 430.69 411.14 434.33 410.71 437.95 410.19 441.6 409.79 445.24 409.38 448.87 408.88 452.49 408.3 456.13 407.83 459.71 407.09 463.35 406.62 466.99 406.11 470.58 405.37 474.22 404.87 477.81 404.25 474.27 403.3 470.68 402.55 467.1 401.74 463.53 400.87 459.95 400.03 456.4 399.05 452.8 398.29"/><polygon class="cls-3" points="310.25 474.8 311.86 471.71 314.13 469.06 316.58 466.56 319.58 464.74 322.68 463.13 325.98 461.96 329.36 461.06 332.84 460.66 336.33 460.38 339.84 460.43 343.34 460.72 346.79 461.34 350.33 462.03 353.89 462.64 357.35 463.66 360.85 464.53 364.33 465.49 367.75 466.63 371.19 467.72 374.71 468.53 378.22 469.32 381.82 469.44 385.38 468.92 388.53 467.18 391.33 464.93 393.71 462.22 395.78 459.29 397.78 456.3 397.81 459.79 397.8 463.29 397.8 466.79 397.71 470.29 397.78 473.8 397.82 477.3 395.75 480.17 393.41 482.81 390.8 485.17 387.91 487.17 384.66 488.51 381.15 488.9 377.66 488.46 374.16 488.04 370.78 487.06 367.35 486.23 363.97 485.24 360.61 484.19 357.16 483.46 353.73 482.62 350.26 481.98 346.81 481.27 343.32 480.85 339.83 480.58 336.33 480.48 332.83 480.53 329.35 481.03 325.98 481.98 322.62 482.99 319.48 484.57 316.66 486.66 314.11 489.04 311.8 491.68 310.25 494.79 310.25 491.47 310.31 488.14 310.11 484.81 310.15 481.48 310.15 478.14 310.25 474.8"/><polygon class="cls-4" points="310.25 474.8 311.86 471.71 314.13 469.06 316.58 466.56 319.58 464.74 322.68 463.13 325.98 461.96 329.36 461.06 332.84 460.66 336.33 460.38 339.84 460.43 343.34 460.72 346.79 461.34 350.33 462.03 353.89 462.64 357.35 463.66 360.85 464.53 364.33 465.49 367.75 466.63 371.19 467.72 374.71 468.53 378.22 469.32 381.82 469.44 385.38 468.92 388.53 467.18 391.33 464.93 393.71 462.22 395.78 459.29 397.78 456.3 397.81 459.79 397.8 463.29 397.8 466.79 397.71 470.29 397.78 473.8 397.82 477.3 395.75 480.17 393.41 482.81 390.8 485.17 387.91 487.17 384.66 488.51 381.15 488.9 377.66 488.46 374.16 488.04 370.78 487.06 367.35 486.23 363.97 485.24 360.61 484.19 357.16 483.46 353.73 482.62 350.26 481.98 346.81 481.27 343.32 480.85 339.83 480.58 336.33 480.48 332.83 480.53 329.35 481.03 325.98 481.98 322.62 482.99 319.48 484.57 316.66 486.66 314.11 489.04 311.8 491.68 310.25 494.79 310.25 491.47 310.31 488.14 310.11 484.81 310.15 481.48 310.15 478.14 310.25 474.8"/><polygon points="310.25 502.8 310.12 498.54 309.78 494.29 313.09 492.97 316.46 491.85 319.77 490.57 323.14 489.46 326.42 488.1 329.81 487.04 333.08 485.63 336.42 484.42 339.81 483.39 343.53 483.83 347.29 484.2 351.03 484.68 354.78 485.06 358.53 485.45 362.27 485.9 366.02 486.33 369.76 486.85 373.03 488.15 376.3 489.5 379.51 491 382.8 492.4 385.83 491.04 388.83 489.71 391.86 488.22 391.83 491.84 392.14 495.38 392.19 498.92 392.37 502.46 392.52 506 392.57 509.54 392.64 513.08 392.82 516.62 393.04 520.15 393.16 523.7 393.24 527.24 393.39 530.77 393.55 534.31 393.67 537.86 393.64 541.4 393.73 544.94 394.03 548.48 394.08 552.03 394.05 555.57 394.31 559.11 394.42 562.65 394.47 566.2 394.61 569.75 394.86 573.37 391.41 572.24 388.03 571.15 384.64 570.08 381.24 569.03 377.78 568.18 374.38 567.17 371.01 566.03 367.64 564.89 364.23 563.92 360.82 562.93 357.39 561.97 354 560.91 350.6 559.89 347.21 558.81 343.83 557.7 340.44 556.65 337.05 555.57 333.64 554.56 330.23 553.53 326.86 552.39 323.4 551.53 320.03 550.39 316.64 549.31 313.23 548.29 309.84 547.27 309.95 543.6 309.88 539.89 309.88 536.18 309.89 532.48 310 528.77 310.11 525.06 309.99 521.35 309.97 517.64 310.19 513.94 310.04 510.23 310.06 506.51 310.25 502.8"/><polygon class="cls-4" points="310.25 502.8 310.12 498.54 309.78 494.29 313.09 492.97 316.46 491.85 319.77 490.57 323.14 489.46 326.42 488.1 329.81 487.04 333.08 485.63 336.42 484.42 339.81 483.39 343.53 483.83 347.29 484.2 351.03 484.68 354.78 485.06 358.53 485.45 362.27 485.9 366.02 486.33 369.76 486.85 373.03 488.15 376.3 489.5 379.51 491 382.8 492.4 385.83 491.04 388.83 489.71 391.86 488.22 391.83 491.84 392.14 495.38 392.19 498.92 392.37 502.46 392.52 506 392.57 509.54 392.64 513.08 392.82 516.62 393.04 520.15 393.16 523.7 393.24 527.24 393.39 530.77 393.55 534.31 393.67 537.86 393.64 541.4 393.73 544.94 394.03 548.48 394.08 552.03 394.05 555.57 394.31 559.11 394.42 562.65 394.47 566.2 394.61 569.75 394.86 573.37 391.41 572.24 388.03 571.15 384.64 570.08 381.24 569.03 377.78 568.18 374.38 567.17 371.01 566.03 367.64 564.89 364.23 563.92 360.82 562.93 357.39 561.97 354 560.91 350.6 559.89 347.21 558.81 343.83 557.7 340.44 556.65 337.05 555.57 333.64 554.56 330.23 553.53 326.86 552.39 323.4 551.53 320.03 550.39 316.64 549.31 313.23 548.29 309.84 547.27 309.95 543.6 309.88 539.89 309.88 536.18 309.89 532.48 310 528.77 310.11 525.06 309.99 521.35 309.97 517.64 310.19 513.94 310.04 510.23 310.06 506.51 310.25 502.8"/><polyline points="447.92 533.67 445.54 536.53 443.26 539.47 440.79 542.25 438.45 545.14 436.13 548.05 433.83 550.97 431.48 553.86 429.06 556.68 426.69 559.55 424.26 562.37 422.03 565.35 419.55 568.14 417.2 571.03"/><polyline class="cls-4" points="447.92 533.67 445.54 536.53 443.26 539.47 440.79 542.25 438.45 545.14 436.13 548.05 433.83 550.97 431.48 553.86 429.06 556.68 426.69 559.55 424.26 562.37 422.03 565.35 419.55 568.14 417.2 571.03"/><polygon points="463.06 539.05 460.89 541.79 458.83 544.65 456.53 547.32 454.51 550.21 452.32 552.97 450.03 555.65 447.99 558.53 445.8 561.3 449.11 560.08 452.42 558.86 455.79 557.8 459.09 556.54 462.43 555.4 465.76 554.22 469.15 553.21 472.48 552.06 475.82 550.89 479.15 549.73 482.49 548.56 485.77 547.3 482.54 546.15 479.35 544.82 476.1 543.64 472.8 542.6 469.59 541.31 466.3 540.21 463.06 539.05"/><polygon class="cls-4" points="463.06 539.05 460.89 541.79 458.83 544.65 456.53 547.32 454.51 550.21 452.32 552.97 450.03 555.65 447.99 558.53 445.8 561.3 449.11 560.08 452.42 558.86 455.79 557.8 459.09 556.54 462.43 555.4 465.76 554.22 469.15 553.21 472.48 552.06 475.82 550.89 479.15 549.73 482.49 548.56 485.77 547.3 482.54 546.15 479.35 544.82 476.1 543.64 472.8 542.6 469.59 541.31 466.3 540.21 463.06 539.05"/><g class="cls-5"><g class="cls-6"><polygon class="cls-7" points="474.94 430.91 474.47 433.85 472.72 436.23 470.05 437.46 467.35 436.26 465.5 433.9 465.02 430.91 465.7 427.17 467 423.59 468.44 420.07 470.05 416.71 471.57 420.11 472.9 423.67 474.33 427.2 474.94 430.91"/><polygon class="cls-8" points="474.94 430.91 474.47 433.85 472.72 436.23 470.05 437.46 467.35 436.26 465.5 433.9 465.02 430.91 465.7 427.17 467 423.59 468.44 420.07 470.05 416.71 471.57 420.11 472.9 423.67 474.33 427.2 474.94 430.91"/><polygon class="cls-7" points="475.11 464.87 474.42 467.79 472.73 470.2 470.05 471.28 467.27 470.31 465.5 467.86 465.16 464.87 465.93 461.2 467.11 457.59 468.42 454.02 470.05 450.6 471.59 454.06 472.93 457.61 474.3 461.16 475.11 464.87"/><polygon class="cls-8" points="475.11 464.87 474.42 467.79 472.73 470.2 470.05 471.28 467.27 470.31 465.5 467.86 465.16 464.87 465.93 461.2 467.11 457.59 468.42 454.02 470.05 450.6 471.59 454.06 472.93 457.61 474.3 461.16 475.11 464.87"/><polygon class="cls-7" points="474.99 430.91 474.48 433.86 472.82 436.35 470.05 437.37 467.33 436.28 465.6 433.87 465.06 430.91 465.79 427.2 467.15 423.65 468.43 420.07 470.05 416.61 471.57 420.12 473.12 423.58 474.39 427.18 474.99 430.91"/><polygon class="cls-8" points="474.99 430.91 474.48 433.86 472.82 436.35 470.05 437.37 467.33 436.28 465.6 433.87 465.06 430.91 465.79 427.2 467.15 423.65 468.43 420.07 470.05 416.61 471.57 420.12 473.12 423.58 474.39 427.18 474.99 430.91"/><polygon class="cls-7" points="475.07 498.82 474.4 501.74 472.76 504.18 470.05 505.32 467.22 504.33 465.57 501.78 464.96 498.82 465.93 495.15 466.99 491.5 468.59 488.05 470.05 484.5 471.61 488.01 472.9 491.57 474.2 495.14 475.07 498.82"/><polygon class="cls-8" points="475.07 498.82 474.4 501.74 472.76 504.18 470.05 505.32 467.22 504.33 465.57 501.78 464.96 498.82 465.93 495.15 466.99 491.5 468.59 488.05 470.05 484.5 471.61 488.01 472.9 491.57 474.2 495.14 475.07 498.82"/><polygon class="cls-7" points="475.02 464.87 474.59 467.86 472.88 470.37 470.05 471.44 467.24 470.34 465.54 467.84 465.03 464.87 465.74 461.13 466.99 457.54 468.61 454.1 470.05 450.56 471.65 454.03 472.91 457.62 474.31 461.16 475.02 464.87"/><polygon class="cls-8" points="475.02 464.87 474.59 467.86 472.88 470.37 470.05 471.44 467.24 470.34 465.54 467.84 465.03 464.87 465.74 461.13 466.99 457.54 468.61 454.1 470.05 450.56 471.65 454.03 472.91 457.62 474.31 461.16 475.02 464.87"/><polygon class="cls-7" points="474.97 532.77 474.6 535.77 472.86 538.26 470.05 539.38 467.29 538.2 465.59 535.73 465.17 532.77 465.91 529.1 467.06 525.48 468.45 521.94 470.05 518.48 471.65 521.94 472.92 525.52 474.36 529.05 474.97 532.77"/><polygon class="cls-8" points="474.97 532.77 474.6 535.77 472.86 538.26 470.05 539.38 467.29 538.2 465.59 535.73 465.17 532.77 465.91 529.1 467.06 525.48 468.45 521.94 470.05 518.48 471.65 521.94 472.92 525.52 474.36 529.05 474.97 532.77"/><polygon class="cls-7" points="475 498.82 474.6 501.81 472.79 504.22 470.05 505.23 467.23 504.31 465.66 501.75 465.06 498.82 465.78 495.1 467.02 491.51 468.48 488 470.05 484.5 471.56 488.03 473 491.54 474.26 495.13 475 498.82"/><polygon class="cls-8" points="475 498.82 474.6 501.81 472.79 504.22 470.05 505.23 467.23 504.31 465.66 501.75 465.06 498.82 465.78 495.1 467.02 491.51 468.48 488 470.05 484.5 471.56 488.03 473 491.54 474.26 495.13 475 498.82"/><polygon class="cls-7" points="475.09 566.73 474.49 569.68 472.87 572.22 470.05 573.19 467.26 572.19 465.61 569.68 465.17 566.73 465.79 563.01 467.14 559.46 468.56 555.94 470.05 552.49 471.55 555.94 473.09 559.41 474.2 563.05 475.09 566.73"/><polygon class="cls-8" points="475.09 566.73 474.49 569.68 472.87 572.22 470.05 573.19 467.26 572.19 465.61 569.68 465.17 566.73 465.79 563.01 467.14 559.46 468.56 555.94 470.05 552.49 471.55 555.94 473.09 559.41 474.2 563.05 475.09 566.73"/><polygon class="cls-7" points="475.08 532.77 474.41 535.69 472.76 538.14 470.05 539.28 467.34 538.14 465.58 535.73 465.07 532.77 465.72 529.04 467.17 525.52 468.46 521.95 470.05 518.48 471.54 521.99 473.02 525.49 474.35 529.05 475.08 532.77"/><polygon class="cls-8" points="475.08 532.77 474.41 535.69 472.76 538.14 470.05 539.28 467.34 538.14 465.58 535.73 465.07 532.77 465.72 529.04 467.17 525.52 468.46 521.95 470.05 518.48 471.54 521.99 473.02 525.49 474.35 529.05 475.08 532.77"/><polygon class="cls-7" points="475.04 566.73 474.57 569.71 472.82 572.17 470.05 573.26 467.24 572.21 465.69 569.65 464.96 566.73 465.78 563.01 467.14 559.47 468.53 555.93 470.05 552.51 471.66 555.89 472.98 559.46 474.34 563.01 475.04 566.73"/><polygon class="cls-8" points="475.04 566.73 474.57 569.71 472.82 572.17 470.05 573.26 467.24 572.21 465.69 569.65 464.96 566.73 465.78 563.01 467.14 559.47 468.53 555.93 470.05 552.51 471.66 555.89 472.98 559.46 474.34 563.01 475.04 566.73"/><polygon class="cls-7" points="475.06 430.91 474.49 433.86 472.84 436.37 470.05 437.32 467.32 436.3 465.69 433.83 464.97 430.91 465.72 427.18 467.18 423.66 468.62 420.15 470.05 416.73 471.68 420.07 473.12 423.58 474.21 427.23 475.06 430.91"/><polygon class="cls-8" points="475.06 430.91 474.49 433.86 472.84 436.37 470.05 437.32 467.32 436.3 465.69 433.83 464.97 430.91 465.72 427.18 467.18 423.66 468.62 420.15 470.05 416.73 471.68 420.07 473.12 423.58 474.21 427.23 475.06 430.91"/><polygon class="cls-7" points="439.17 430.91 438.57 433.89 436.78 436.3 434.05 437.38 431.35 436.27 429.66 433.84 429.04 430.91 429.92 427.24 430.97 423.58 432.59 420.14 434.05 416.64 435.66 420.08 437.12 423.58 438.17 427.25 439.17 430.91"/><polygon class="cls-8" points="439.17 430.91 438.57 433.89 436.78 436.3 434.05 437.38 431.35 436.27 429.66 433.84 429.04 430.91 429.92 427.24 430.97 423.58 432.59 420.14 434.05 416.64 435.66 420.08 437.12 423.58 438.17 427.25 439.17 430.91"/><polygon class="cls-7" points="475.16 464.87 474.55 467.84 472.77 470.24 470.05 471.44 467.24 470.35 465.65 467.8 465.11 464.87 465.92 461.19 467.14 457.6 468.62 454.1 470.05 450.55 471.54 454.08 473.04 457.57 474.29 461.16 475.16 464.87"/><polygon class="cls-8" points="475.16 464.87 474.55 467.84 472.77 470.24 470.05 471.44 467.24 470.35 465.65 467.8 465.11 464.87 465.92 461.19 467.14 457.6 468.62 454.1 470.05 450.55 471.54 454.08 473.04 457.57 474.29 461.16 475.16 464.87"/><polygon class="cls-7" points="439.07 464.87 438.39 467.78 436.74 470.2 434.05 471.3 431.32 470.25 429.64 467.8 429.04 464.87 429.93 461.19 431.11 457.59 432.52 454.06 434.05 450.7 435.61 454.05 437.1 457.54 438.37 461.14 439.07 464.87"/><polygon class="cls-8" points="439.07 464.87 438.39 467.78 436.74 470.2 434.05 471.3 431.32 470.25 429.64 467.8 429.04 464.87 429.93 461.19 431.11 457.59 432.52 454.06 434.05 450.7 435.61 454.05 437.1 457.54 438.37 461.14 439.07 464.87"/><polygon class="cls-7" points="475.04 430.91 474.42 433.83 472.85 436.39 470.05 437.41 467.26 436.37 465.52 433.89 465.17 430.91 465.9 427.23 467.13 423.64 468.62 420.15 470.05 416.72 471.53 420.13 473.11 423.59 474.26 427.22 475.04 430.91"/><polygon class="cls-8" points="475.04 430.91 474.42 433.83 472.85 436.39 470.05 437.41 467.26 436.37 465.52 433.89 465.17 430.91 465.9 427.23 467.13 423.64 468.62 420.15 470.05 416.72 471.53 420.13 473.11 423.59 474.26 427.22 475.04 430.91"/><polygon class="cls-7" points="457.15 447.89 456.48 450.83 454.79 453.29 452.05 454.27 449.34 453.25 447.51 450.88 447.13 447.89 447.9 444.21 449.06 440.59 450.42 437.04 452.05 433.69 453.54 437.1 455 440.61 456.36 444.16 457.15 447.89"/><polygon class="cls-8" points="457.15 447.89 456.48 450.83 454.79 453.29 452.05 454.27 449.34 453.25 447.51 450.88 447.13 447.89 447.9 444.21 449.06 440.59 450.42 437.04 452.05 433.69 453.54 437.1 455 440.61 456.36 444.16 457.15 447.89"/><polygon class="cls-7" points="439.15 430.91 438.4 433.82 436.78 436.3 434.05 437.38 431.33 436.29 429.51 433.9 429.11 430.91 429.81 427.2 431.14 423.65 432.58 420.13 434.05 416.68 435.69 420.06 437.13 423.58 438.17 427.25 439.15 430.91"/><polygon class="cls-8" points="439.15 430.91 438.4 433.82 436.78 436.3 434.05 437.38 431.33 436.29 429.51 433.9 429.11 430.91 429.81 427.2 431.14 423.65 432.58 420.13 434.05 416.68 435.69 420.06 437.13 423.58 438.17 427.25 439.15 430.91"/><polygon class="cls-7" points="474.96 498.82 474.6 501.81 472.78 504.21 470.05 505.3 467.26 504.28 465.51 501.81 465 498.82 465.9 495.14 467.01 491.51 468.42 487.97 470.05 484.52 471.59 488.01 473.07 491.51 474.36 495.1 474.96 498.82"/><polygon class="cls-8" points="474.96 498.82 474.6 501.81 472.78 504.21 470.05 505.3 467.26 504.28 465.51 501.81 465 498.82 465.9 495.14 467.01 491.51 468.42 487.97 470.05 484.52 471.59 488.01 473.07 491.51 474.36 495.1 474.96 498.82"/><polygon class="cls-7" points="439.01 498.82 438.49 501.77 436.82 504.25 434.05 505.28 431.24 504.3 429.48 501.82 428.95 498.82 429.75 495.09 431.19 491.57 432.49 488 434.05 484.58 435.61 488 437.02 491.53 438.37 495.09 439.01 498.82"/><polygon class="cls-8" points="439.01 498.82 438.49 501.77 436.82 504.25 434.05 505.28 431.24 504.3 429.48 501.82 428.95 498.82 429.75 495.09 431.19 491.57 432.49 488 434.05 484.58 435.61 488 437.02 491.53 438.37 495.09 439.01 498.82"/><polygon class="cls-7" points="475.12 464.87 474.56 467.84 472.77 470.25 470.05 471.26 467.22 470.37 465.56 467.84 465.09 464.87 465.84 461.17 467.19 457.62 468.43 454.02 470.05 450.71 471.69 454.01 473.07 457.56 474.18 461.2 475.12 464.87"/><polygon class="cls-8" points="475.12 464.87 474.56 467.84 472.77 470.25 470.05 471.26 467.22 470.37 465.56 467.84 465.09 464.87 465.84 461.17 467.19 457.62 468.43 454.02 470.05 450.71 471.69 454.01 473.07 457.56 474.18 461.2 475.12 464.87"/><polygon class="cls-7" points="457.18 481.84 456.43 484.77 454.78 487.24 452.05 488.35 449.29 487.26 447.71 484.75 446.95 481.84 447.74 478.11 449.16 474.58 450.6 471.07 452.05 467.6 453.58 471.04 454.93 474.59 456.21 478.17 457.18 481.84"/><polygon class="cls-8" points="457.18 481.84 456.43 484.77 454.78 487.24 452.05 488.35 449.29 487.26 447.71 484.75 446.95 481.84 447.74 478.11 449.16 474.58 450.6 471.07 452.05 467.6 453.58 471.04 454.93 474.59 456.21 478.17 457.18 481.84"/><polygon class="cls-7" points="438.95 464.87 438.44 467.79 436.81 470.29 434.05 471.35 431.34 470.23 429.71 467.78 429.01 464.87 429.74 461.14 430.98 457.54 432.59 454.09 434.05 450.47 435.5 454.1 437 457.58 438.2 461.19 438.95 464.87"/><polygon class="cls-8" points="438.95 464.87 438.44 467.79 436.81 470.29 434.05 471.35 431.34 470.23 429.71 467.78 429.01 464.87 429.74 461.14 430.98 457.54 432.59 454.09 434.05 450.47 435.5 454.1 437 457.58 438.2 461.19 438.95 464.87"/><polygon class="cls-7" points="475.13 532.77 474.57 535.76 472.81 538.2 470.05 539.17 467.31 538.17 465.69 535.69 465.07 532.77 465.72 529.04 467.04 525.47 468.54 521.98 470.05 518.4 471.66 521.94 473.1 525.45 474.27 529.08 475.13 532.77"/><polygon class="cls-8" points="475.13 532.77 474.57 535.76 472.81 538.2 470.05 539.17 467.31 538.17 465.69 535.69 465.07 532.77 465.72 529.04 467.04 525.47 468.54 521.98 470.05 518.4 471.66 521.94 473.1 525.45 474.27 529.08 475.13 532.77"/><polygon class="cls-7" points="439.09 532.77 438.55 535.75 436.77 538.15 434.05 539.18 431.26 538.23 429.52 535.76 429.06 532.77 429.79 529.06 431.18 525.52 432.55 521.98 434.05 518.56 435.61 521.96 437.13 525.44 438.26 529.08 439.09 532.77"/><polygon class="cls-8" points="439.09 532.77 438.55 535.75 436.77 538.15 434.05 539.18 431.26 538.23 429.52 535.76 429.06 532.77 429.79 529.06 431.18 525.52 432.55 521.98 434.05 518.56 435.61 521.96 437.13 525.44 438.26 529.08 439.09 532.77"/><polygon class="cls-7" points="475.11 498.82 474.56 501.8 472.75 504.17 470.05 505.37 467.28 504.25 465.6 501.77 465.02 498.82 465.89 495.14 467.19 491.57 468.51 488.01 470.05 484.5 471.66 487.98 472.99 491.54 474.17 495.16 475.11 498.82"/><polygon class="cls-8" points="475.11 498.82 474.56 501.8 472.75 504.17 470.05 505.37 467.28 504.25 465.6 501.77 465.02 498.82 465.89 495.14 467.19 491.57 468.51 488.01 470.05 484.5 471.66 487.98 472.99 491.54 474.17 495.16 475.11 498.82"/><polygon class="cls-7" points="457.02 515.8 456.57 518.78 454.86 521.28 452.05 522.27 449.31 521.2 447.55 518.77 447.06 515.8 447.81 512.09 449.18 508.55 450.46 504.97 452.05 501.5 453.6 504.99 454.98 508.52 456.27 512.1 457.02 515.8"/><polygon class="cls-8" points="457.02 515.8 456.57 518.78 454.86 521.28 452.05 522.27 449.31 521.2 447.55 518.77 447.06 515.8 447.81 512.09 449.18 508.55 450.46 504.97 452.05 501.5 453.6 504.99 454.98 508.52 456.27 512.1 457.02 515.8"/><polygon class="cls-7" points="439.1 498.82 438.51 501.78 436.85 504.29 434.05 505.41 431.26 504.28 429.62 501.77 428.96 498.82 429.93 495.15 431.09 491.54 432.4 487.96 434.05 484.63 435.49 488.06 436.96 491.55 438.28 495.12 439.1 498.82"/><polygon class="cls-8" points="439.1 498.82 438.51 501.78 436.85 504.29 434.05 505.41 431.26 504.28 429.62 501.77 428.96 498.82 429.93 495.15 431.09 491.54 432.4 487.96 434.05 484.63 435.49 488.06 436.96 491.55 438.28 495.12 439.1 498.82"/><polygon class="cls-7" points="475.04 566.73 474.46 569.66 472.83 572.18 470.05 573.17 467.31 572.12 465.53 569.71 465.05 566.73 465.72 562.99 467.01 559.41 468.56 555.94 470.05 552.5 471.61 555.91 473.09 559.41 474.35 563.01 475.04 566.73"/><polygon class="cls-8" points="475.04 566.73 474.46 569.66 472.83 572.18 470.05 573.17 467.31 572.12 465.53 569.71 465.05 566.73 465.72 562.99 467.01 559.41 468.56 555.94 470.05 552.5 471.61 555.91 473.09 559.41 474.35 563.01 475.04 566.73"/><polygon class="cls-7" points="439.08 566.73 438.53 569.69 436.74 572.07 434.05 573.33 431.23 572.22 429.55 569.7 429.11 566.73 429.89 563.04 431.16 559.47 432.48 555.91 434.05 552.33 435.65 555.89 437.08 559.41 438.2 563.05 439.08 566.73"/><polygon class="cls-8" points="439.08 566.73 438.53 569.69 436.74 572.07 434.05 573.33 431.23 572.22 429.55 569.7 429.11 566.73 429.89 563.04 431.16 559.47 432.48 555.91 434.05 552.33 435.65 555.89 437.08 559.41 438.2 563.05 439.08 566.73"/><polygon class="cls-7" points="475.13 532.77 474.59 535.76 472.76 538.14 470.05 539.19 467.22 538.28 465.51 535.76 465 532.77 465.79 529.06 467.1 525.49 468.56 521.99 470.05 518.5 471.68 521.93 473.09 525.46 474.17 529.11 475.13 532.77"/><polygon class="cls-8" points="475.13 532.77 474.59 535.76 472.76 538.14 470.05 539.19 467.22 538.28 465.51 535.76 465 532.77 465.79 529.06 467.1 525.49 468.56 521.99 470.05 518.5 471.68 521.93 473.09 525.46 474.17 529.11 475.13 532.77"/><polygon class="cls-7" points="457.09 549.75 456.39 552.66 454.77 555.13 452.05 556.36 449.23 555.24 447.54 552.73 447.1 549.75 447.91 546.07 449.07 542.46 450.41 538.9 452.05 535.46 453.67 538.91 455.01 542.47 456.21 546.07 457.09 549.75"/><polygon class="cls-8" points="457.09 549.75 456.39 552.66 454.77 555.13 452.05 556.36 449.23 555.24 447.54 552.73 447.1 549.75 447.91 546.07 449.07 542.46 450.41 538.9 452.05 535.46 453.67 538.91 455.01 542.47 456.21 546.07 457.09 549.75"/><polygon class="cls-7" points="438.96 532.77 438.58 535.76 436.78 538.16 434.05 539.24 431.22 538.28 429.65 535.71 429 532.77 429.71 529.03 431.05 525.48 432.62 522.01 434.05 518.43 435.52 522 436.97 525.5 438.25 529.09 438.96 532.77"/><polygon class="cls-8" points="438.96 532.77 438.58 535.76 436.78 538.16 434.05 539.24 431.22 538.28 429.65 535.71 429 532.77 429.71 529.03 431.05 525.48 432.62 522.01 434.05 518.43 435.52 522 436.97 525.5 438.25 529.09 438.96 532.77"/><polygon class="cls-7" points="475.04 566.73 474.43 569.65 472.83 572.18 470.05 573.19 467.37 572.05 465.7 569.64 465.16 566.73 465.74 563 467.07 559.43 468.4 555.87 470.05 552.45 471.57 555.93 473.04 559.43 474.22 563.05 475.04 566.73"/><polygon class="cls-8" points="475.04 566.73 474.43 569.65 472.83 572.18 470.05 573.19 467.37 572.05 465.7 569.64 465.16 566.73 465.74 563 467.07 559.43 468.4 555.87 470.05 552.45 471.57 555.93 473.04 559.43 474.22 563.05 475.04 566.73"/><polygon class="cls-7" points="439.17 566.73 438.53 569.69 436.74 572.06 434.05 573.1 431.32 572.11 429.64 569.67 429.09 566.73 429.81 563.02 431.14 559.46 432.53 555.93 434.05 552.4 435.58 555.93 436.97 559.46 438.24 563.04 439.17 566.73"/><polygon class="cls-8" points="439.17 566.73 438.53 569.69 436.74 572.06 434.05 573.1 431.32 572.11 429.64 569.67 429.09 566.73 429.81 563.02 431.14 559.46 432.53 555.93 434.05 552.4 435.58 555.93 436.97 559.46 438.24 563.04 439.17 566.73"/><polygon class="cls-7" points="439.14 430.91 438.48 433.86 436.8 436.33 434.05 437.34 431.33 436.28 429.66 433.84 428.96 430.91 429.71 427.17 431.13 423.64 432.55 420.12 434.05 416.61 435.54 420.13 436.91 423.67 438.37 427.18 439.14 430.91"/><polygon class="cls-8" points="439.14 430.91 438.48 433.86 436.8 436.33 434.05 437.34 431.33 436.28 429.66 433.84 428.96 430.91 429.71 427.17 431.13 423.64 432.55 420.12 434.05 416.61 435.54 420.13 436.91 423.67 438.37 427.18 439.14 430.91"/><polygon class="cls-7" points="438.95 464.87 438.44 467.8 436.82 470.3 434.05 471.3 431.28 470.3 429.68 467.79 428.96 464.87 429.87 461.18 431.09 457.58 432.59 454.09 434.05 450.64 435.5 454.1 436.92 457.61 438.3 461.16 438.95 464.87"/><polygon class="cls-8" points="438.95 464.87 438.44 467.8 436.82 470.3 434.05 471.3 431.28 470.3 429.68 467.79 428.96 464.87 429.87 461.18 431.09 457.58 432.59 454.09 434.05 450.64 435.5 454.1 436.92 457.61 438.3 461.16 438.95 464.87"/><polygon class="cls-7" points="438.98 430.91 438.47 433.85 436.72 436.23 434.05 437.48 431.27 436.35 429.51 433.9 429.17 430.91 429.7 427.17 431.11 423.63 432.42 420.06 434.05 416.6 435.54 420.13 436.91 423.66 438.4 427.18 438.98 430.91"/><polygon class="cls-8" points="438.98 430.91 438.47 433.85 436.72 436.23 434.05 437.48 431.27 436.35 429.51 433.9 429.17 430.91 429.7 427.17 431.11 423.63 432.42 420.06 434.05 416.6 435.54 420.13 436.91 423.66 438.4 427.18 438.98 430.91"/><polygon class="cls-7" points="421.12 447.89 420.54 450.86 418.75 453.25 416.05 454.42 413.37 453.22 411.53 450.87 411.15 447.89 411.92 444.22 413.2 440.64 414.49 437.07 416.05 433.61 417.63 437.07 419.07 440.58 420.2 444.22 421.12 447.89"/><polygon class="cls-8" points="421.12 447.89 420.54 450.86 418.75 453.25 416.05 454.42 413.37 453.22 411.53 450.87 411.15 447.89 411.92 444.22 413.2 440.64 414.49 437.07 416.05 433.61 417.63 437.07 419.07 440.58 420.2 444.22 421.12 447.89"/><polygon class="cls-7" points="439.05 498.82 438.54 501.79 436.78 504.2 434.05 505.3 431.36 504.15 429.48 501.82 429.02 498.82 429.71 495.08 431.08 491.53 432.53 488.02 434.05 484.65 435.64 487.99 437 491.54 438.29 495.12 439.05 498.82"/><polygon class="cls-8" points="439.05 498.82 438.54 501.79 436.78 504.2 434.05 505.3 431.36 504.15 429.48 501.82 429.02 498.82 429.71 495.08 431.08 491.53 432.53 488.02 434.05 484.65 435.64 487.99 437 491.54 438.29 495.12 439.05 498.82"/><polygon class="cls-7" points="439.15 464.87 438.47 467.81 436.75 470.21 434.05 471.48 431.37 470.19 429.67 467.79 429.02 464.87 429.93 461.19 431.15 457.6 432.6 454.09 434.05 450.56 435.68 454.02 436.99 457.59 438.22 461.19 439.15 464.87"/><polygon class="cls-8" points="439.15 464.87 438.47 467.81 436.75 470.21 434.05 471.48 431.37 470.19 429.67 467.79 429.02 464.87 429.93 461.19 431.15 457.6 432.6 454.09 434.05 450.56 435.68 454.02 436.99 457.59 438.22 461.19 439.15 464.87"/><polygon class="cls-7" points="420.99 481.84 420.39 484.75 418.77 487.22 416.05 488.42 413.25 487.31 411.53 484.82 411.01 481.84 411.7 478.1 413.04 474.54 414.51 471.03 416.05 467.56 417.53 471.06 419.13 474.51 420.25 478.15 420.99 481.84"/><polygon class="cls-8" points="420.99 481.84 420.39 484.75 418.77 487.22 416.05 488.42 413.25 487.31 411.53 484.82 411.01 481.84 411.7 478.1 413.04 474.54 414.51 471.03 416.05 467.56 417.53 471.06 419.13 474.51 420.25 478.15 420.99 481.84"/><polygon class="cls-7" points="439.15 532.77 438.53 535.74 436.84 538.23 434.05 539.22 431.33 538.15 429.5 535.76 429.08 532.77 429.84 529.08 431.13 525.5 432.62 522.01 434.05 518.5 435.61 521.96 436.94 525.51 438.18 529.11 439.15 532.77"/><polygon class="cls-8" points="439.15 532.77 438.53 535.74 436.84 538.23 434.05 539.22 431.33 538.15 429.5 535.76 429.08 532.77 429.84 529.08 431.13 525.5 432.62 522.01 434.05 518.5 435.61 521.96 436.94 525.51 438.18 529.11 439.15 532.77"/><polygon class="cls-7" points="439.02 498.82 438.57 501.8 436.88 504.33 434.05 505.33 431.22 504.32 429.54 501.8 428.93 498.82 429.83 495.12 430.99 491.5 432.43 487.98 434.05 484.43 435.53 488.04 436.98 491.55 438.17 495.15 439.02 498.82"/><polygon class="cls-8" points="439.02 498.82 438.57 501.8 436.88 504.33 434.05 505.33 431.22 504.32 429.54 501.8 428.93 498.82 429.83 495.12 430.99 491.5 432.43 487.98 434.05 484.43 435.53 488.04 436.98 491.55 438.17 495.15 439.02 498.82"/><polygon class="cls-7" points="421.16 515.8 420.45 518.73 418.74 521.14 416.05 522.28 413.27 521.24 411.63 518.74 410.93 515.8 411.91 512.12 412.99 508.47 414.48 504.98 416.05 501.63 417.5 505.03 419.05 508.5 420.32 512.09 421.16 515.8"/><polygon class="cls-8" points="421.16 515.8 420.45 518.73 418.74 521.14 416.05 522.28 413.27 521.24 411.63 518.74 410.93 515.8 411.91 512.12 412.99 508.47 414.48 504.98 416.05 501.63 417.5 505.03 419.05 508.5 420.32 512.09 421.16 515.8"/><polygon class="cls-7" points="438.95 566.73 438.44 569.66 436.78 572.12 434.05 573.12 431.3 572.14 429.55 569.7 429.01 566.73 429.72 562.99 431.07 559.44 432.45 555.89 434.05 552.57 435.66 555.89 437.11 559.4 438.37 563 438.95 566.73"/><polygon class="cls-8" points="438.95 566.73 438.44 569.66 436.78 572.12 434.05 573.12 431.3 572.14 429.55 569.7 429.01 566.73 429.72 562.99 431.07 559.44 432.45 555.89 434.05 552.57 435.66 555.89 437.11 559.4 438.37 563 438.95 566.73"/><polygon class="cls-7" points="439.09 532.77 438.59 535.76 436.88 538.27 434.05 539.21 431.23 538.27 429.51 535.76 429.1 532.77 429.87 529.09 431.17 525.52 432.5 521.96 434.05 518.43 435.59 521.97 437.08 525.46 438.21 529.1 439.09 532.77"/><polygon class="cls-8" points="439.09 532.77 438.59 535.76 436.88 538.27 434.05 539.21 431.23 538.27 429.51 535.76 429.1 532.77 429.87 529.09 431.17 525.52 432.5 521.96 434.05 518.43 435.59 521.97 437.08 525.46 438.21 529.1 439.09 532.77"/><polygon class="cls-7" points="420.99 549.75 420.39 552.66 418.81 555.17 416.05 556.29 413.22 555.26 411.52 552.73 410.97 549.75 411.88 546.07 413.12 542.48 414.42 538.9 416.05 535.5 417.55 538.96 419.04 542.45 420.31 546.04 420.99 549.75"/><polygon class="cls-8" points="420.99 549.75 420.39 552.66 418.81 555.17 416.05 556.29 413.22 555.26 411.52 552.73 410.97 549.75 411.88 546.07 413.12 542.48 414.42 538.9 416.05 535.5 417.55 538.96 419.04 542.45 420.31 546.04 420.99 549.75"/><polygon class="cls-7" points="439 566.73 438.56 569.71 436.83 572.18 434.05 573.14 431.29 572.16 429.57 569.69 429.14 566.73 429.81 563.02 431.17 559.47 432.54 555.93 434.05 552.4 435.52 555.95 437.1 559.41 438.28 563.03 439 566.73"/><polygon class="cls-8" points="439 566.73 438.56 569.71 436.83 572.18 434.05 573.14 431.29 572.16 429.57 569.69 429.14 566.73 429.81 563.02 431.17 559.47 432.54 555.93 434.05 552.4 435.52 555.95 437.1 559.41 438.28 563.03 439 566.73"/></g></g></g></g></svg>