<svg xmlns="http://www.w3.org/2000/svg" viewBox="0 0 800 800"><defs><style>.a{fill:#e2a1b4;}</style></defs><title>western-depression</title><path d="M162.58,50.09c8.9,0,18.06-.23,27.19,0,48.42,1.44,96.85,1,145.28,1.17q91.26.31,182.53.44,55.81.13,111.64.2a14.21,14.21,0,0,0,3-.11c5.87-1.19,7.52,0,7.24,6.24-1.49,33.8-.64,67.62-1,101.43-.49,42.22-.15,84.45-.2,126.68q-.13,109.88-.28,219.74c0,51.63.28,103.26,0,154.89-.08,13.74-.15,27.52-.59,41.29-.39,12.11-.27,24.41.32,36.63.53,11.15,0,11.29-11,11.27q-63.61-.12-127.23-.14-94.26-.06-188.51-.09-71.15-.06-142.28-.2c-8.2,0-8.15-.08-8.14-8.2q.19-93,.36-186.08c.15-53.23.51-106.45.59-159.67.07-56.63-.11-113.26-.13-169.89q0-83.74,0-167.49C161.39,55.68,160.93,53,162.58,50.09Zm3.09,49.06v603c14,2.35,459.59,1.84,467.23-.65V99.15Z"/><path class="a" d="M165.67,99.15H632.9V701.49c-7.64,2.49-453.28,3-467.23.65ZM496.29,377.46c-3.64,12.61-10.76,22.3-23.14,26.66-8.37,2.93-14.21,7.59-17.44,15.85a36.67,36.67,0,0,1-13.06,16.76c-6.56,4.7-14,7.74-20.89,11.73-6.41,3.71-13,7.15-18,12.74-7.77,8.66-6.81,17.84,2.39,24.7,2.32,1.73,4.76,3.3,7.26,5-2.81,3.06-6.19,3.08-9.55,2.32-5.51-1.25-10.36-.73-13.83,4.15-9.94-3.7-14.32-2.08-19.13,6.92-3.07,5.74-8.72,6.64-13.34,2.14s-8.87-4.76-14.95-1.35c-3.23-1.8-6.45-3.43-10-.94-.84.58-1.39.16-2.11-.17-12.87-5.8-26.07-10.93-38-18.69a197.47,197.47,0,0,1-26.91-21.4c-11.87-11.07-21.48-23.5-28.13-38.35-2.7-6-5.37-12.24-9.89-17.55-2.49,3.12-2.68,6.19-2.21,9.43q1.24,8.61,2.37,17.23c3.42,26.69,13.44,50.45,31.59,70.49C272.74,520,288.87,531.86,305,543.67c9.86,7.22,20.65,12.93,31.38,18.65,11.53,6.14,24.28,9,37,11.56a114.71,114.71,0,0,0,31.58,2c15.5-1.21,30.16-5.25,44.8-10.18,24.4-8.23,46.53-20.09,65.13-38.09,3.29-3.18,7.46-5.47,10.44-8.73,14.45-15.75,25.11-34,33.89-53.43,10.52-23.25,16.57-47.56,16.31-73.15-.23-23.4-8.22-45.06-16.41-66.57-1.16-3.06-1.7-5,.73-8,6.44-7.8,8.93-16.45,3.2-26-.9-1.48-2.09-3.28-.41-4.94,4.07-4,6.48-9.43,11.8-12.55,5.82-3.41,11.3-7.68,14.1-14.25,4.55-10.63-1.45-24.35-12.27-29.67a54.76,54.76,0,0,0-12.95-4.65c-8.1-1.64-12.73-6.78-15.94-13.81a24.09,24.09,0,0,0-1.3-2.71c-3.53-5.71-7.76-10.64-14.43-12.84-11-3.63-24.7.52-32.6,9.39a84.49,84.49,0,0,0-10.38,14.59c-2.36,4.15-5,4.51-8.69,2.06-5.56-3.63-11.46-6.75-18-7.89-8.92-1.55-18.15-3.22-23.76,7-1.12,2-3,1.89-4.7,1.1-10.37-4.68-21.36-4.54-32.39-4.45a188.18,188.18,0,0,0-57.1,9.46c-4.79,1.57-9.93,3.52-13.52,9.48,7.44.54,13.71,1,20,1.44,16,1.12,31.89,3.34,47,8.58C418,254.13,437,264,453.87,278c21.4,17.83,37.17,38.93,42,67,.29,1.67.56,3-.6,4.43C487.68,359.1,488.32,368.51,496.29,377.46ZM426.44,290.6c1.63-3.06-.31-4.35-1.56-5.75A35.37,35.37,0,0,0,413,276c-16.12-7.29-32.33-10.43-49.8-4.2-9.59,3.42-18.74,8.16-28.7,10.37-5,1.11-6.88,3.93-7.29,8.51-.14,1.59-.4,3.16-.55,4.75-2.11,21.47-8.36,41.73-16.64,61.62-5.63,13.51-14.4,24.81-22.14,36.88-6,9.34-9.37,19.33-6.34,30.7,1.93,7.23,8.39,10.82,15.18,7.76a30.18,30.18,0,0,0,6.57-4.14c4.23-3.46,8.5-6.63,14.28-6.89,2.24-.1,3.76-1.23,3.72-3.72-4.91-3.41-9.8-2.61-16.63,2.64-2.53,1.94-4.91,4.18-7.69,5.67-5,2.7-9,.76-10.53-4.69a18.5,18.5,0,0,1,.5-12.38c2.81-6.6,5.74-13.16,10.11-19,13.21-17.63,21.82-37.47,27.74-58.57,3.62-12.91,6.48-26,7.48-39.4.17-2.28.93-3.74,3.45-4,7.1-.86,13.16-4.61,19.52-7.43,21.29-9.43,41.84-8.65,61.86,3.6C420.26,286,422.56,289.18,426.44,290.6ZM355.91,458.83a58.26,58.26,0,0,0,.59,7.74c1.71,8.16,8.31,12.69,16.26,11.42,6.9-1.1,12.18-8.49,11-16a63.43,63.43,0,0,0-3.38-13.28c-4.71-12-6.73-24.15-3.09-36.81.54-1.86.91-3.61-1.23-4.61-2-.91-2.89.65-3.86,1.9C360.84,423.79,356.78,440.77,355.91,458.83Zm38.73-150.16c.66,6.25.14,12.09-2.44,17.68-.81,1.76-1.48,3.53.67,4.65,2.51,1.31,3.64-.58,4.51-2.48,1.94-4.21,3.87-8.65,3.12-13.27-1-6.34.54-10.77,6.72-13.18.26-.1.35-.67.55-1.09-.79-3.63-3-2.91-5.39-1.74-7.64,3.79-15.88,5.66-24.21,6.6-11.93,1.34-24,2.18-34.87-4.82-1.75-1.12-4-2-6.14-.53-1.66,3.93,1.61,5.4,3.81,6.32,4.36,1.81,4.53,4.81,4.16,8.7-.42,4.36-2.6,7.93-4.41,11.69-1.06,2.22-1.84,4.17,1.46,4.79,8.78-4.22,7.4-13,9.35-20.91,3.32,1.64,6.83.14,10,1.8,2.13,8.68-1.31,16-5.65,22.52,2.05,2.23,3.66,2.22,5,1.1,7.4-6.25,6.67-15.2,7.19-23.78,3.49-.79,6.57-1.19,9.64-.39,2.65,5.88.79,11.18-1.43,16.39-.89,2.08-2.29,4.42.45,5.68s3.58-1.71,4.67-3.44c3.8-6.06,3.54-12.94,3.59-19.73A19.87,19.87,0,0,1,394.64,308.67ZM279.37,339.48c6.75,2,6.75,2,10-24.46,3.49-.17,6.82-2.45,11-1.27.67,5.47,1.07,10.81-.82,16-.77,2.13-2,4.66.76,5.69,3.06,1.13,3.17-2.16,4.07-4,3.2-6.47,1.16-13.34,1.28-19.93,9.93-5.42,9.93-5.42,6.73-9-11.66,4.86-23.59,7.91-36.54,7.39s-24.54-5.39-36.8-9.09c-.91,5.09,2.52,5.82,4.64,7.05,6.55,3.81,7.16,4.82,4.94,12.17a49.31,49.31,0,0,1-2.52,6.08c-.78,1.71-2.94,3.53-.43,5.15,2.94,1.89,3.59-1.33,4.86-2.85,3.78-4.54,4-10.26,4.82-16.23L267,315.3a20.47,20.47,0,0,1-1.15,12.62c-1.14,2.74-3,5.16-4.62,7.7-.8,1.28-1.39,2.59.1,3.69,1.14.84,2.33.34,3.23-.56,2.23-2.23,4.48-4.25,5.91-7.36,2.27-5,1.59-10.12,2.06-15.67,3.5-.1,6.79-.49,9.7.47C285.8,324.69,281.73,332,279.37,339.48Zm131,31.13a68.45,68.45,0,0,0-5.18-27.26c-.78-2-1.72-3.74-4.15-3.58-2.71.17-2.81,2.31-3,4.36a55.6,55.6,0,0,1-8.16,23.44c-2.76,4.57-5.24,9.35-5.83,14.88-.82,7.67,2.22,13.08,8.74,15,5.43,1.6,11.6-2.1,14.56-8.63A38.61,38.61,0,0,0,410.34,370.61ZM273,275.47c-19.24-.89-34.82,10.76-52.51,15.16a1.86,1.86,0,0,0-1.21,2.41,2.58,2.58,0,0,0,2.54,2.12c2.88.2,5.48-.89,8.13-1.8,10.19-3.47,19.87-8.33,30.47-10.68,18.71-4.15,36-.57,52.2,9.18,1.38.83,2.68,2.22,4.18.64,1.63-1.73.59-3.4-.81-4.66a21.81,21.81,0,0,0-3.92-2.73C299.93,278.27,286.6,276.18,273,275.47Z"/><path d="M496.29,377.46c-8-8.95-8.61-18.36-1-28,1.16-1.46.89-2.76.6-4.43-4.87-28.1-20.64-49.2-42-67C437,264,418,254.13,397.49,247c-15.12-5.24-31-7.46-47-8.58-6.28-.44-12.55-.9-20-1.44,3.59-6,8.73-7.91,13.52-9.48a188.18,188.18,0,0,1,57.1-9.46c11-.09,22-.23,32.39,4.45,1.73.79,3.58.95,4.7-1.1,5.61-10.18,14.84-8.51,23.76-7,6.56,1.14,12.46,4.26,18,7.89,3.73,2.45,6.33,2.09,8.69-2.06a84.49,84.49,0,0,1,10.38-14.59c7.9-8.87,21.62-13,32.6-9.39,6.67,2.2,10.9,7.13,14.43,12.84a24.09,24.09,0,0,1,1.3,2.71c3.21,7,7.84,12.17,15.94,13.81a54.76,54.76,0,0,1,12.95,4.65c10.82,5.32,16.82,19,12.27,29.67-2.8,6.57-8.28,10.84-14.1,14.25-5.32,3.12-7.73,8.52-11.8,12.55-1.68,1.66-.49,3.46.41,4.94,5.73,9.52,3.24,18.17-3.2,26-2.43,3-1.89,4.91-.73,8,8.19,21.51,16.18,43.17,16.41,66.57.26,25.59-5.79,49.9-16.31,73.15-8.78,19.41-19.44,37.68-33.89,53.43-3,3.26-7.15,5.55-10.44,8.73-18.6,18-40.73,29.86-65.13,38.09-14.64,4.93-29.3,9-44.8,10.18a114.71,114.71,0,0,1-31.58-2c-12.74-2.54-25.49-5.42-37-11.56-10.73-5.72-21.52-11.43-31.38-18.65-16.11-11.81-32.24-23.63-45.72-38.52-18.15-20-28.17-43.8-31.59-70.49q-1.11-8.62-2.37-17.23c-.47-3.24-.28-6.31,2.21-9.43,4.52,5.31,7.19,11.51,9.89,17.55,6.65,14.85,16.26,27.28,28.13,38.35a197.47,197.47,0,0,0,26.91,21.4c11.92,7.76,25.12,12.89,38,18.69.72.33,1.27.75,2.11.17,3.58-2.49,6.8-.86,10,.94,6.08-3.41,10.46-3,14.95,1.35s10.27,3.6,13.34-2.14c4.81-9,9.19-10.62,19.13-6.92,3.47-4.88,8.32-5.4,13.83-4.15,3.36.76,6.74.74,9.55-2.32-2.5-1.72-4.94-3.29-7.26-5-9.2-6.86-10.16-16-2.39-24.7,5-5.59,11.63-9,18-12.74,6.91-4,14.33-7,20.89-11.73A36.67,36.67,0,0,0,455.71,420c3.23-8.26,9.07-12.92,17.44-15.85C485.53,399.76,492.65,390.07,496.29,377.46Zm36.45-97.74v-.28l.08.2c8.12,9.93,14,21.33,20.6,32.71,5-4.76,5.66-9.64,4.15-15C555.28,289.26,542.66,280.33,532.74,279.72Zm-204,231.57c-.42-.23-1.06-.75-1.2-.63-1,.73,0,1.06.43,1.49,2.09,8.33,3.78,16.45,10.16,23.34,16.53,17.84,35.78,29.72,60.5,31.35,8.1.53,16-.81,24.33-2.87-3.78-3.72-7.79-3.56-11.79-3.56-12.88,0-25.54-1.17-37.1-7.61-3.48-1.94-6.94-3.93-10.28-6.1-10.92-7.11-19.83-16.3-25.29-28.1C336.27,513.79,334.17,510.87,328.74,511.29ZM498.29,388.38c-.54.42-1.18.68-1.4,1.15-4.52,9.64-11.82,16.28-21.23,21.19-4.87,2.54-9.69,5.79-12,11.3-5.34,12.52-14.89,20.58-27.24,25.61A106,106,0,0,0,414.49,460c-4.16,3-7.24,7-6.47,12.7s4.74,8.48,9.79,10.14a112.58,112.58,0,0,1,10.76,3.67c6.11,2.74,13,4.3,17.11,10.4,3.32,4.89,3.73,11.17.76,15.76-2.48,3.81-7.84,5.72-12.73,4.53-5.62-1.36-9.2-7.23-9-14.41.12-3.84,1.9-8-1.53-11.29-1.52.14-2.75,1-2.41,2.22,1.29,4.74-.08,9.68,1,14.31,1.36,5.58,2.67,11.88,9.78,12.94,7.75,1.16,15.22.89,19.89-7.25,2.8-4.87,7.32-8.38,11.46-12a14.14,14.14,0,0,1,11.73-3.46c2.23.35,4.44.79,3.54,4.36-9.16-1.23-14.53,4.09-18.94,11-.11.17-.22.33-.34.49-5.36,7.35-12.83,11.87-20.95,15.41-10.93,4.76-27-4.23-27.71-20.5-.4-9.07-.85-9.05-9.72-9.65-5.3-.35-6.47,1.54-4.95,6.86,3,10.44,9.63,18.11,17.49,25.15,6.85,6.15,14.38,11.69,17.8,21,1.14,3.08,1,6.58,2.87,9.49,1.21-.23,2.22-.33,3.16-.61a182.5,182.5,0,0,0,52.69-25.43c7.19-5.08,14.59-10.22,19.23-17.79,6.65-10.84,7.59-23.05,5.85-35.42-.74-5.18-2.52-10.15-6.88-13.62a34.87,34.87,0,0,0-27-7.41c-10.77,1.37-16.44,7.58-17.94,18.66-.06.45-.69.82-1.07,1.25-6-7-4.58-18.42,3.34-24.29,8.95-6.64,19.44-9.9,30.41-8.77,18.23,1.88,30.34,12.2,36.25,29.59,1.39,4.1,2.49,8.3,4,13.24,11.47-15.5,19.45-31.67,23.26-49.67a17.36,17.36,0,0,0-6.84-3.36c-23.83-6.5-47.08-4.15-69.91,4.51-4.1,1.56-8.1,3.39-12.17,5-1.29.53-2.73,1.2-3.73-.43s.08-2.72,1.22-3.56c3.83-2.85,7.4-6.08,11.56-7.89.69-17.65,7.16-31.6,23.24-39.88-1-2.49-1.8-4.52-2.7-6.49C499.47,389,498.82,388.78,498.29,388.38Zm64,40c4.69-20.38,6.93-40.6,2.21-61.54a197.1,197.1,0,0,0-44.14-87.37c-1.68-1.93-3.38-3.28-6.06-3.23-7.27.15-14.32-1.39-21.35-2.95-10.9-2.41-22.13-3.94-32.56-7.69-15.72-5.64-23.51-18.26-25.46-34.9-25.45-6.5-50.77-7.49-76.59.17,2.48,1.66,4.73,1.45,6.91,1.57A98.37,98.37,0,0,1,387.71,236c24.94,7.39,47.9,18.72,67.5,36.16,3.87,3.44,7.25,7.46,11.25,10.74a94.61,94.61,0,0,1,23.7,28c4.75,8.72,7.52,18.18,11,27.92,5.53-5.5,7.08-12.53,10.68-18.93,3.94,3.2,2.81,6.66,2.29,9.82-1.56,9.57-8.08,16.31-13.69,23.58-6.74,8.74-5.64,13.08,3.74,18.48,4,2.28,8.69,3.14,12,6.61,4.45,4.64,6.68,10.35,8.2,16.44,1.75,7.05,5.87,11.66,13.26,12.91,1.12.19,2.46,0,3.05,1.89-3.75,2.83-7.42,2.82-11.82.79a27.94,27.94,0,0,1-16.06-18.92c-1.32-4.78-5.12-7-9.85-8.74C507.92,406.1,539.88,424.39,562.28,428.4Zm.83-195.69c0,1.72,1.17,2.86,2.16,4,1.24,1.46,2.44,2.94.51,4.61-1.71,1.48-3.27.58-4.82-.6a81.51,81.51,0,0,1-10.45-9.82c-6.1-6.6-8.34-15.39-13.3-22.61-4.74-6.91-11.34-9.74-19.15-7.66A32,32,0,0,0,502.38,210c-8.27,8.86-12.75,20.67-23.17,28.48,8.56,13.21,17.78,24.86,34.65,27.15,14.66,2,29.11,4.79,41.53,14.25a45.09,45.09,0,0,1,18.9-15.55c7.59-3.49,11.33-9.16,9.91-15.27C582.44,241.49,572.88,231.5,563.11,232.71Zm-81.83-3.09c-8.88-8-19.39-11.64-30.4-10.36-9.09,1.05-12.88,6.36-8.47,15.17a36.36,36.36,0,0,0,10.76,13.33c8.38,6.31,18.18,8.92,28.07,11.39a1.73,1.73,0,0,0,2.12-1.13,43.75,43.75,0,0,0-5-7c-6.62-8.29-6.21-12.54,1.53-19.18A11.68,11.68,0,0,0,481.28,229.62ZM402.85,554c-1.21-2-3-2.4-4.74-3.15-8-3.36-15.91-6.9-22.86-12.43-8.38-6.68-13.43-15.61-18.56-24.62-2-3.49-4.54-6.44-9.12-4.56-2.81,1.15-2.71,6.55,0,10.79.1.17.23.33.33.5,9.24,15.64,22.94,25.74,39.8,31.82A35.57,35.57,0,0,0,402.85,554Zm6-17.61c.46-1.76-.54-2.61-1.44-3.31a48.05,48.05,0,0,1-15.94-22.58,18.07,18.07,0,0,0-3-5.11c-2.93-3.65-7.26-4.48-10.5-2-3.67,2.78-3,6.18-.94,9.55a52.66,52.66,0,0,0,19.18,18.16C400.08,533.27,403.63,537.17,408.85,536.38ZM535.48,425.05c-6.33-4.13-11.64-7.35-16.67-10.95s-9.17-8.7-13.69-13.23c-2.85,1-5.32,1.9-7.07,4.57,9.57,4.24,17.51,9.82,20.61,20.52C524,424.84,529,425.55,535.48,425.05ZM491.24,413.6c9.53,0,15.26,6.16,20.77,12.73C509.57,416.61,499.54,410.43,491.24,413.6ZM376,521.18l-6.42,2.89c4.13,6.55,6,6.71,10.88,1.33A9.25,9.25,0,0,0,376,521.18Zm8.9,8.38-6.43,4.27c6.32,5,6.43,5,11,.36A11.49,11.49,0,0,0,384.91,529.56Z"/><path d="M426.44,290.6c-3.88-1.42-6.18-4.63-9.37-6.58-20-12.25-40.57-13-61.86-3.6-6.36,2.82-12.42,6.57-19.52,7.43-2.52.3-3.28,1.76-3.45,4-1,13.42-3.86,26.49-7.48,39.4-5.92,21.1-14.53,40.94-27.74,58.57-4.37,5.84-7.3,12.4-10.11,19a18.5,18.5,0,0,0-.5,12.38c1.52,5.45,5.5,7.39,10.53,4.69,2.78-1.49,5.16-3.73,7.69-5.67,6.83-5.25,11.72-6.05,16.63-2.64,0,2.49-1.48,3.62-3.72,3.72-5.78.26-10.05,3.43-14.28,6.89a30.18,30.18,0,0,1-6.57,4.14c-6.79,3.06-13.25-.53-15.18-7.76-3-11.37.36-21.36,6.34-30.7,7.74-12.07,16.51-23.37,22.14-36.88,8.28-19.89,14.53-40.15,16.64-61.62.15-1.59.41-3.16.55-4.75.41-4.58,2.28-7.4,7.29-8.51,10-2.21,19.11-6.95,28.7-10.37,17.47-6.23,33.68-3.09,49.8,4.2a35.37,35.37,0,0,1,11.91,8.87C426.13,286.25,428.07,287.54,426.44,290.6Z"/><path d="M355.91,458.83c.87-18.06,4.93-35,16.28-49.65,1-1.25,1.9-2.81,3.86-1.9,2.14,1,1.77,2.75,1.23,4.61-3.64,12.66-1.62,24.79,3.09,36.81A63.43,63.43,0,0,1,383.75,462c1.19,7.52-4.09,14.91-11,16-7.95,1.27-14.55-3.26-16.26-11.42A58.26,58.26,0,0,1,355.91,458.83Zm7.66,7.48c1.64,4.89,4.16,6.33,8.44,5.29,4-1,6-4.52,5.26-9.41C373.58,466.23,369.42,468.77,363.57,466.31Z"/><path d="M394.64,308.67a19.87,19.87,0,0,0-9.64,2.56c-.05,6.79.21,13.67-3.59,19.73-1.09,1.73-1.82,4.75-4.67,3.44s-1.34-3.6-.45-5.68c2.22-5.21,4.08-10.51,1.43-16.39-3.07-.8-6.15-.4-9.64.39-.52,8.58.21,17.53-7.19,23.78-1.34,1.12-2.95,1.13-5-1.1,4.34-6.52,7.78-13.84,5.65-22.52-3.18-1.66-6.69-.16-10-1.8-1.95,7.89-.57,16.69-9.35,20.91-3.3-.62-2.52-2.57-1.46-4.79,1.81-3.76,4-7.33,4.41-11.69.37-3.89.2-6.89-4.16-8.7-2.2-.92-5.47-2.39-3.81-6.32,2.18-1.47,4.39-.59,6.14.53,10.91,7,22.94,6.16,34.87,4.82,8.33-.94,16.57-2.81,24.21-6.6,2.36-1.17,4.6-1.89,5.39,1.74-.2.42-.29,1-.55,1.09-6.18,2.41-7.75,6.84-6.72,13.18.75,4.62-1.18,9.06-3.12,13.27-.87,1.9-2,3.79-4.51,2.48-2.15-1.12-1.48-2.89-.67-4.65C394.78,320.76,395.3,314.92,394.64,308.67Z"/><path d="M279.37,339.48c2.36-7.45,6.43-14.79,2.9-23.29-2.91-1-6.2-.57-9.7-.47-.47,5.55.21,10.7-2.06,15.67-1.43,3.11-3.68,5.13-5.91,7.36-.9.9-2.09,1.4-3.23.56-1.49-1.1-.9-2.41-.1-3.69,1.59-2.54,3.48-5,4.62-7.7A20.47,20.47,0,0,0,267,315.3l-11.62-3.06c-.81,6-1,11.69-4.82,16.23-1.27,1.52-1.92,4.74-4.86,2.85-2.51-1.62-.35-3.44.43-5.15a49.31,49.31,0,0,0,2.52-6.08c2.22-7.35,1.61-8.36-4.94-12.17-2.12-1.23-5.55-2-4.64-7.05,12.26,3.7,24,8.58,36.8,9.09s24.88-2.53,36.54-7.39c3.2,3.58,3.2,3.58-6.73,9-.12,6.59,1.92,13.46-1.28,19.93-.9,1.81-1,5.1-4.07,4-2.75-1-1.53-3.56-.76-5.69,1.89-5.22,1.49-10.56.82-16-4.22-1.18-7.55,1.1-11,1.27C286.12,341.44,286.12,341.44,279.37,339.48Z"/><path d="M410.34,370.61a38.61,38.61,0,0,1-3,18.22c-3,6.53-9.13,10.23-14.56,8.63-6.52-1.93-9.56-7.34-8.74-15,.59-5.53,3.07-10.31,5.83-14.88A55.6,55.6,0,0,0,398,344.13c.2-2.05.3-4.19,3-4.36,2.43-.16,3.37,1.59,4.15,3.58A68.45,68.45,0,0,1,410.34,370.61Zm-21.49,14.86c.14,4.66,3,6.62,6.11,6.67,3.42.05,5.72-2.53,6.33-6.61C397.17,389,393.3,386.9,388.85,385.47Z"/><path d="M273,275.47c13.6.71,26.93,2.8,39.07,9.64a21.81,21.81,0,0,1,3.92,2.73c1.4,1.26,2.44,2.93.81,4.66-1.5,1.58-2.8.19-4.18-.64-16.21-9.75-33.49-13.33-52.2-9.18-10.6,2.35-20.28,7.21-30.47,10.68-2.65.91-5.25,2-8.13,1.8a2.58,2.58,0,0,1-2.54-2.12,1.86,1.86,0,0,1,1.21-2.41C238.18,286.23,253.76,274.58,273,275.47Z"/><path class="a" d="M498.29,388.38c.53.4,1.18.63,1.39,1.08.9,2,1.68,4,2.7,6.49-16.08,8.28-22.55,22.23-23.24,39.88-4.16,1.81-7.73,5-11.56,7.89-1.14.84-2.19,2-1.22,3.56s2.44,1,3.73.43c4.07-1.66,8.07-3.49,12.17-5,22.83-8.66,46.08-11,69.91-4.51a17.36,17.36,0,0,1,6.84,3.36c-3.81,18-11.79,34.17-23.26,49.67-1.47-4.94-2.57-9.14-4-13.24-5.91-17.39-18-27.71-36.25-29.59-11-1.13-21.46,2.13-30.41,8.77-7.92,5.87-9.29,17.31-3.34,24.29.38-.43,1-.8,1.07-1.25,1.5-11.08,7.17-17.29,17.94-18.66a34.87,34.87,0,0,1,27,7.41c4.36,3.47,6.14,8.44,6.88,13.62,1.74,12.37.8,24.58-5.85,35.42-4.64,7.57-12,12.71-19.23,17.79A182.5,182.5,0,0,1,437,561.17c-.94.28-1.95.38-3.16.61-1.86-2.91-1.73-6.41-2.87-9.49-3.42-9.3-10.95-14.84-17.8-21-7.86-7-14.53-14.71-17.49-25.15-1.52-5.32-.35-7.21,4.95-6.86,8.87.6,9.32.58,9.72,9.65.71,16.27,16.78,25.26,27.71,20.5,8.12-3.54,15.59-8.06,20.95-15.41.12-.16.23-.32.34-.49,4.41-6.92,9.78-12.24,18.94-11,.9-3.57-1.31-4-3.54-4.36A14.14,14.14,0,0,0,463,501.63c-4.14,3.66-8.66,7.17-11.46,12-4.67,8.14-12.14,8.41-19.89,7.25-7.11-1.06-8.42-7.36-9.78-12.94-1.13-4.63.24-9.57-1-14.31-.34-1.26.89-2.08,2.41-2.22,3.43,3.32,1.65,7.45,1.53,11.29-.22,7.18,3.36,13,9,14.41,4.89,1.19,10.25-.72,12.73-4.53,3-4.59,2.56-10.87-.76-15.76-4.15-6.1-11-7.66-17.11-10.4a112.58,112.58,0,0,0-10.76-3.67c-5.05-1.66-9-4.41-9.79-10.14s2.31-9.71,6.47-12.7a106,106,0,0,1,21.89-12.32c12.35-5,21.9-13.09,27.24-25.61,2.35-5.51,7.17-8.76,12-11.3,9.41-4.91,16.71-11.55,21.23-21.19C497.11,389.06,497.75,388.8,498.29,388.38Z"/><path class="a" d="M562.28,428.4c-22.4-4-54.36-22.3-59.28-45.7,4.73,1.74,8.53,4,9.85,8.74a27.94,27.94,0,0,0,16.06,18.92c4.4,2,8.07,2,11.82-.79-.59-1.93-1.93-1.7-3.05-1.89-7.39-1.25-11.51-5.86-13.26-12.91-1.52-6.09-3.75-11.8-8.2-16.44-3.33-3.47-8.05-4.33-12-6.61-9.38-5.4-10.48-9.74-3.74-18.48,5.61-7.27,12.13-14,13.69-23.58.52-3.16,1.65-6.62-2.29-9.82-3.6,6.4-5.15,13.43-10.68,18.93-3.5-9.74-6.27-19.2-11-27.92a94.61,94.61,0,0,0-23.7-28c-4-3.28-7.38-7.3-11.25-10.74-19.6-17.44-42.56-28.77-67.5-36.16a98.37,98.37,0,0,0-22.47-3.49c-2.18-.12-4.43.09-6.91-1.57,25.82-7.66,51.14-6.67,76.59-.17,1.95,16.64,9.74,29.26,25.46,34.9,10.43,3.75,21.66,5.28,32.56,7.69,7,1.56,14.08,3.1,21.35,2.95,2.68-.05,4.38,1.3,6.06,3.23a197.1,197.1,0,0,1,44.14,87.37C569.21,387.8,567,408,562.28,428.4Z"/><path class="a" d="M563.11,232.71c9.77-1.21,19.33,8.78,21.09,16.39,1.42,6.11-2.32,11.78-9.91,15.27a45.09,45.09,0,0,0-18.9,15.55c-12.42-9.46-26.87-12.25-41.53-14.25-16.87-2.29-26.09-13.94-34.65-27.15,10.42-7.81,14.9-19.62,23.17-28.48a32,32,0,0,1,15.68-9.39c7.81-2.08,14.41.75,19.15,7.66,5,7.22,7.2,16,13.3,22.61A81.51,81.51,0,0,0,561,240.74c1.55,1.18,3.11,2.08,4.82.6,1.93-1.67.73-3.15-.51-4.61C564.28,235.57,563.15,234.43,563.11,232.71Z"/><path class="a" d="M481.28,229.62a11.68,11.68,0,0,1-1.38,2.21c-7.74,6.64-8.15,10.89-1.53,19.18a43.75,43.75,0,0,1,5,7,1.73,1.73,0,0,1-2.12,1.13c-9.89-2.47-19.69-5.08-28.07-11.39a36.36,36.36,0,0,1-10.76-13.33c-4.41-8.81-.62-14.12,8.47-15.17C461.89,218,472.4,221.66,481.28,229.62Z"/><path class="a" d="M328.74,511.29c5.43-.42,7.53,2.5,9.76,7.31,5.46,11.8,14.37,21,25.29,28.1,3.34,2.17,6.8,4.16,10.28,6.1,11.56,6.44,24.22,7.62,37.1,7.61,4,0,8-.16,11.79,3.56-8.35,2.06-16.23,3.4-24.33,2.87-24.72-1.63-44-13.51-60.5-31.35-6.38-6.89-8.07-15-10.16-23.34A10.49,10.49,0,0,0,328.74,511.29Z"/><path class="a" d="M402.85,554a35.57,35.57,0,0,1-15.18-1.65c-16.86-6.08-30.56-16.18-39.8-31.82-.1-.17-.23-.33-.33-.5-2.68-4.24-2.78-9.64,0-10.79,4.58-1.88,7.13,1.07,9.12,4.56,5.13,9,10.18,17.94,18.56,24.62,6.95,5.53,14.85,9.07,22.86,12.43C399.88,551.59,401.64,552,402.85,554Z"/><path class="a" d="M408.85,536.38c-5.22.79-8.77-3.11-12.64-5.33A52.66,52.66,0,0,1,377,512.89c-2.06-3.37-2.73-6.77.94-9.55,3.24-2.44,7.57-1.61,10.5,2a18.07,18.07,0,0,1,3,5.11,48.05,48.05,0,0,0,15.94,22.58C408.31,533.77,409.31,534.62,408.85,536.38Z"/><path class="a" d="M532.74,279.72c9.92.61,22.54,9.54,24.83,17.66,1.51,5.33.88,10.21-4.15,15-6.58-11.38-12.48-22.78-20.6-32.71Z"/><path class="a" d="M535.48,425.05c-6.51.5-11.47-.21-16.82.91-3.1-10.7-11-16.28-20.61-20.52,1.75-2.67,4.22-3.61,7.07-4.57,4.52,4.53,8.54,9.53,13.69,13.23S529.15,420.92,535.48,425.05Z"/><path class="a" d="M491.24,413.6c8.3-3.17,18.33,3,20.77,12.73C506.5,419.76,500.77,413.56,491.24,413.6Z"/><path class="a" d="M376,521.18a9.25,9.25,0,0,1,4.46,4.22c-4.85,5.38-6.75,5.22-10.88-1.33Z"/><path class="a" d="M384.91,529.56a11.49,11.49,0,0,1,4.56,4.63c-4.56,4.63-4.67,4.63-11-.36Z"/><path class="a" d="M328,512.15c-.42-.43-1.39-.76-.43-1.49.14-.12.78.4,1.2.63A10.49,10.49,0,0,1,328,512.15Z"/><polygon class="a" points="532.82 279.64 532.74 279.44 532.74 279.72 532.82 279.64"/><path class="a" d="M363.57,466.31c5.85,2.46,10-.08,13.7-4.12.74,4.89-1.28,8.44-5.26,9.41C367.73,472.64,365.21,471.2,363.57,466.31Z"/><path class="a" d="M388.85,385.47c4.45,1.43,8.32,3.5,12.44.06-.61,4.08-2.91,6.66-6.33,6.61C391.82,392.09,389,390.13,388.85,385.47Z"/></svg>