<svg xmlns="http://www.w3.org/2000/svg" viewBox="0 0 800 800"><defs><style>.a{fill:#fff}.b{fill:#fca14f}.c{fill:#e83131}</style></defs><path d="M568.43 560.59c-5-.72-10.23-1.62-15.5-2.19-6.47-.7-13.06-1.59-19.38.6a61.08 61.08 0 0 0-10.22 5.06c-4 2.34-7.67 5.57-11.92 7.36-10.18 4.27-20.19 4-28.44-6.81a49.79 49.79 0 0 1-5.87-10.52 7 7 0 0 0-2.48-3.28 46.85 46.85 0 0 1-12.18-10.29 10.94 10.94 0 0 0-2.05-1.45 17.47 17.47 0 0 0-.45 2.22 10.07 10.07 0 0 0 0 3.24c.47 1.82-.34 2.84-1.65 3.87a16.65 16.65 0 0 0-2.93 3q-6.52 8.61-12.93 17.3c-2.77 3.78-5.38 7.68-8.18 11.43a7.23 7.23 0 0 1-2.92 2.44q-12.44 4.84-25 9.44c-11.15 4.1-22.36 8-33.22 12.88-8.34 3.76-17 6.77-25.45 10.37-6.72 2.86-13.33 6-19.87 9.27-2.38 1.19-4.82 1.3-7.29 1.49a1.76 1.76 0 0 1-2.05-2.27c1.25-5 .37-10 .56-15 .26-6.54.35-13.08.46-19.63.06-4 0-8 0-12.08q.11-17.19.23-34.38c.06-7 .27-14 .28-21 0-6.53-.23-13.06-.19-19.59.07-14.95.28-29.91.37-44.87.05-8.3 0-16.61 0-24.91 0-1.74.05-3.49.05-5.23 0-1.14-.4-1.55-1.62-1.08-6.3 2.42-12.62 4.76-18.93 7.15s-12.65 4.72-18.92 7.24c-8.3 3.33-16.54 6.82-24.81 10.25a4.56 4.56 0 0 1-.58.3c-1.94.46-4.09 2.64-5.76 1-2.07-2-4.18-4.39-4-7.85.23-3.91.25-7.84.22-11.75q-.06-10.32-.3-20.62c-.2-8.84-.51-17.68-.66-26.52 0-2-.38-3.15-2.49-3.88-3.7-1.28-5.39-4.7-6.79-8a77 77 0 0 1-3.07-10 29.88 29.88 0 0 0-5.41-11.3 19.45 19.45 0 0 0-5.66-4.31c-2.75-1.51-6-2.17-8.58-3.92-4-2.73-8.14-5.49-10.19-10.23a5.55 5.55 0 0 1-.57-1.18c-.57-3.48-3.34-4.59-6.12-5.57-7.3-2.6-11.59-7.86-13.48-15.18-.67-2.63-.87-5.38-1.48-8-1.08-4.73-4.48-7.84-7.79-11.06a93 93 0 0 1-8.18-8.9c-5.56-7-6.2-14.86-3.48-23.17.34-1 .54-2.1.85-3.14a20.46 20.46 0 0 1 2.68-5.87c3-4.33 6.46-8.22 9.62-12.37 2.37-3.11 3.41-7 3.94-11a136.32 136.32 0 0 1 2.8-16.38 30.25 30.25 0 0 1 5.85-11.5 19.53 19.53 0 0 1 6.64-4.64 4.16 4.16 0 0 0 2.46-3.42 23.51 23.51 0 0 1 6-11.12c3.46-3.58 7.79-6.09 13.12-5.49a13.08 13.08 0 0 0 11-4 25.75 25.75 0 0 0 4.39-6c3.69-6.67 8.11-12.74 14.35-17.19a15.37 15.37 0 0 1 8.65-3.28c2.79-.08 5.56-1 8.39-.25 3.11.87 6.48 1.2 8.57 4.23a2.48 2.48 0 0 0 1.67.64c6 .49 11.9 1.16 17.54 3.45 4.72 1.91 9.2 1 13.47-1.54 4-2.38 7.94-5.12 12.22-7 7.19-3.06 14.69-4.88 22.54-2.17a13.35 13.35 0 0 1 5.84 3.47c.58.65 1.18.94 1.86 0 1.35-1.82 2.91-3.51 4.08-5.43a10.29 10.29 0 0 1 5.63-4.21c3-1.15 6.21-2 9.24-3.21 12.6-4.92 25.16-9.92 37.74-14.9l35.3-13.89c3.54-1.4 7.11-2.73 10.64-4.18 1.4-.58 2.7-1.38 4-2.09 2.39-1.27 4.89 0 4.87 2.7-.05 5.65-.26 11.3-.37 17-.05 2.73-.06 5.45-.05 8.17 0 4.36.05 8.73.07 13.09q.06 10 .1 20 0 9.15.06 18.32c0 10.49 0 21 .12 31.46.05 5.55.27 11.09.42 16.64 0 2 .69 2.51 2.6 1.81 4.6-1.71 9.18-3.46 13.77-5.19 10.81-4.09 21.63-8.14 32.42-12.29 4.78-1.84 9.48-3.88 14.21-5.85 2.49-1 5-2.14 7.48-3.14a3.36 3.36 0 0 1 1.91-.12c2 .53 3.81 3.71 3.65 5.79-.2 2.69-.24 5.41-.19 8.11.16 8.29.43 16.57.56 24.86 0 2.7-.32 5.41-.31 8.11 0 2.18.6 4.38.36 6.51-.63 5.68.24 11.32.07 17s0 11.12.08 16.68.41 11.09.41 16.63a79.19 79.19 0 0 1-.74 9.08 4.64 4.64 0 0 1-1.12 1.92c-3.83 5-7.76 10-11.5 15.07-3.35 4.57-6.51 9.28-9.74 13.95a6.08 6.08 0 0 0-.47 1.07c.38-.08.95 0 1.11-.25 3.23-4.56 8.2-4.46 12.74-4a29.81 29.81 0 0 1 12.93 4.32c2.39 1.48 4.7 3.13 7.17 4.46a11.9 11.9 0 0 0 9.16 1.16c1.26-.35 2.56-.58 3.79-1a19 19 0 0 1 14.57.35c1.26.56 2.75.59 4 1.14 3.8 1.65 6.08 4.87 8 8.31a18.8 18.8 0 0 1 2.42 5.36c.6 3 2.3 4.58 4.95 5.78a16.59 16.59 0 0 1 7.17 6.93c2.85 4.65 5.62 9.34 8.76 13.79a38.41 38.41 0 0 0 10.8 9.91c3.73 2.42 7.75 4.4 11.58 6.68a12.88 12.88 0 0 1 3.55 2.86c5.39 6.87 8.38 15.7 3.13 24.57-1.16 2-2.6 3.76-3.87 5.66a89.92 89.92 0 0 0-5.86 9 14.34 14.34 0 0 0-1.53 6.91 52.11 52.11 0 0 0 1.8 11.59 25.23 25.23 0 0 1-1.3 18.09 12.61 12.61 0 0 1-7.16 6.38 39.78 39.78 0 0 1-15 3.09c-2 0-2.94.73-4.15 2.32a29 29 0 0 0-5.53 14.8c-.36 3.27.5 6.71 1.09 10 .85 4.72 2.44 9.37 1.78 14.23-.69 5.08-2.18 9.72-5.88 13.81a26.58 26.58 0 0 1-12 7.46c-3.33 1.07-7.12 1-11.1 1.5zM264.64 440a16.5 16.5 0 0 0 3.49-.51c7.66-2.89 15.27-5.87 22.91-8.81 6.29-2.43 12.61-4.8 18.89-7.28 1.9-.75 3.7-1.65 4.6-3.82a13.62 13.62 0 0 1 2.62-3.73c4.86-5.29 9.8-10.51 14.69-15.78 3.3-3.54 6.57-7.11 9.85-10.67a59.16 59.16 0 0 0-9.45 2.94c-6.89 2.72-13.76 5.51-20.63 8.3-8.78 3.58-17.51 7.29-26.34 10.71a18 18 0 0 0-10.27 9.14c-3.31 6.56-7.17 12.85-10.29 19.54l-.09.27zm178.5 112.89a10.13 10.13 0 0 0-2.43.24c-2.36.85-4.65 1.89-7 2.73-4.52 1.61-9.09 3-13.59 4.69-8.29 3.05-16.54 6.22-24.82 9.31-7.35 2.75-14.75 5.37-22.07 8.23-4.86 1.9-9.53 4.31-14.43 6.11a10.51 10.51 0 0 0-5 4q-6.4 8.69-12.82 17.36c-2 2.73-4 5.49-5.91 8.26-.19.27-.14.71-.21 1.07a3.69 3.69 0 0 0 .95-.1c3-1.09 6-2.1 8.88-3.33 5.22-2.19 10.34-4.59 15.57-6.75 6.65-2.74 13.38-5.3 20.05-8 12.24-4.95 24.4-10.09 36.72-14.83a13.59 13.59 0 0 0 6.92-5.59 49.17 49.17 0 0 1 3.92-5.63c3.95-4.63 8.06-9.12 12.07-13.7 1.12-1.29 2.09-2.7 3.14-4.06l.36-.38-.35-.06zm9-431.14v-15.07c0-1.81-.34-2-1.91-1.28-3.83 1.81-7.83 3.38-11.4 5.63-5.15 3.25-10.07 6.89-14.93 10.57-3.47 2.63-6.73 5.54-10 8.42-5.64 4.95-11.53 9.67-16.76 15a140.46 140.46 0 0 0-18.77 24.66c-.8 1.29-1.34 2.73-2 4.09-2.4 4.76-5.29 9.34-7.12 14.31-3.3 9-6 18.15-8.89 27.25a11.36 11.36 0 0 0-.38 2.26c-.88 8.12-1.77 16.23-2.59 24.35a135.25 135.25 0 0 0-.52 20.23 73.75 73.75 0 0 1-.46 9.38 3.65 3.65 0 0 1-2.47 3.2c-3.75 1.47-7.48 3-11.25 4.39-6.53 2.44-13.09 4.81-19.63 7.25-6.33 2.35-12.67 4.68-19 7.16-6.88 2.71-13.66 5.69-20.57 8.32-2.67 1-3.88 2.61-3.84 5.35.11 7.73-.24 15.51 2.16 23 1.61 5.08 2.79 10.37 5 15.16a49.12 49.12 0 0 0 14.91 18.28c3.19 2.46 6.51 4.75 9.82 7.05a52.64 52.64 0 0 0 24.61 9.29c2.87.31 5.85-.23 8.76-.52s5.58-.81 8.38-1.11a2 2 0 0 1 1.71.63c.74 1.53 2 2.9 1.63 4.84a19 19 0 0 0-.3 3.91c.18 6.08-.3 12.15.88 18.24 1 5.21.87 10.63 1.56 15.92 1.1 8.54 2.09 17.12 3.8 25.55s4.26 16.68 6.46 25a42 42 0 0 0 1.93 6.59c2.37 5.26 4.85 10.5 7.57 15.59a98.62 98.62 0 0 0 7.07 11.38c3.07 4.2 6.44 8.21 9.91 12.09s8.36 6.6 12.8 9.55a72.32 72.32 0 0 0 24.19 10.41c5.09 1.15 10.34 1.57 15.51 2.3 1.18.17 2.38.23 3.56.34 0-1.14.07-2.29.15-3.44.09-1.41.3-2.82.32-4.23q.14-12.6.22-25.21c.06-6.78.16-13.55.16-20.32 0-15-.06-29.91 0-44.86 0-6.87.29-13.74.28-20.62 0-8.16-.29-16.33-.32-24.49 0-9 .12-17.91.09-26.87 0-9.5-.18-19-.32-28.49a3.64 3.64 0 0 1 2.13-3.68 45 45 0 0 0 5.56-3.38c3.81-2.71 7.58-5.48 11.27-8.35a61.05 61.05 0 0 0 6.41-5.6 131.06 131.06 0 0 0 13.68-15.79c3.57-5.07 7.77-9.79 10.68-15.21 4.48-8.32 8.34-17 12-25.73A117.23 117.23 0 0 0 519 247.7a147.81 147.81 0 0 0 3.1-16.7c.83-6.48 2-12.94 1.69-19.53-.11-2.29-.2-2.44-2.15-1.69q-11.92 4.53-23.82 9.11c-8.24 3.19-16.48 6.38-24.67 9.69-4.44 1.79-8.72 4-13.19 5.69a23 23 0 0 1-6.72 1.24c-2.1.13-2.72-1.06-2.35-3.26.31-1.8.42-3.63.58-5.45.06-.76 0-1.53.06-2.29.23-3.69.68-7.37.7-11.06.06-12-.05-24-.06-36q-.01-27.87.01-55.7zm5.37 327.77v9.5q0 15.24.08 30.47a3.86 3.86 0 0 0 .42 2.18 44.93 44.93 0 0 0 10.44 10.25 95 95 0 0 0 15.95 8.78 92.91 92.91 0 0 0 28.6 7.43c8.34.76 16.54 2 24.9-.51a72.53 72.53 0 0 0 18.44-8.89 22.86 22.86 0 0 0 3.58-3.32c2.2-2.2 4.68-4.22 6.46-6.73 3.79-5.33 7.34-10.84 10.7-16.44a45.57 45.57 0 0 0 4-8.92c1.28-3.79 1.82-7.84 3.21-11.57 1.92-5.14 1.34-10.52 2.21-15.75.19-1.15-.42-1.81-1.66-1.93a50.22 50.22 0 0 1-6.14-.75c-4.2-.93-6.85 1.16-9.07 4.28a18.21 18.21 0 0 1-2.1 2.9c-7.72 7.17-18.39 10.1-28.28 3.42a9.34 9.34 0 0 0-9.69-.61 33.29 33.29 0 0 0-7.34 5.37 11.48 11.48 0 0 1-7 3c-3.67.45-7.32 1-11 1.67-6.77 1.17-12.34 4.7-17.4 9.16-2.59 2.27-4.53 4.9-5 8.5a10.41 10.41 0 0 1-3.36 6.91c-1.23 1-2.67.73-3.06-.81a12.44 12.44 0 0 1-.12-3.56c0-.86.34-1.71.38-2.57a56.31 56.31 0 0 1 7.24-24.5c3.62-6.58 8-12.72 14-17.51.51-.4.88-1 1.42-1.34 1.23-.72 1-1.61.79-2.8-.52-2.54-1.21-5.16-1-7.7.3-4.49-1.83-7.39-5.05-10-2.18-1.76-4.38-3.48-5.56-6.26-2.08-4.89-2.44-9.53 0-14.44 2.29-4.51 2.93-9.1-1.21-13.22-.9-.9-1.28-1.29-2.56-.55a90 90 0 0 0-16.94 13.21 22.62 22.62 0 0 0-2.81 3.55c-1.65 2.44-3 5.1-4.88 7.35a6.26 6.26 0 0 0-1.59 4.39c.06 12.84.04 25.59.04 38.36zm-108-56.58c-.73 1-1.44 1.92-2.08 2.88-1.15 1.72-2.21 3.51-3.38 5.21-2.79 4-5.71 8-8.4 12.08-3.16 4.82-6.14 9.75-9.14 14.66a5 5 0 0 0-.71 2.43q-.19 13.1-.28 26.18-.18 19.49-.32 39-.13 21.27-.22 42.54c0 11 .06 22 0 33.05 0 4.25-.34 8.51-.32 12.76 0 7.8.23 15.6.36 23.46.36-.13.6-.14.72-.27q11-11.86 22-23.75c2.42-2.59 4.86-5.11 3.65-9.12a1.16 1.16 0 0 1 0-.32c.07-6.54.22-13.07.21-19.6 0-11.79-.17-23.57-.23-35.36v-26.85c0-6.55-.22-13.1-.22-19.64 0-6.21.22-12.42.2-18.62 0-8.62-.17-17.25-.34-25.86-.19-11.57.72-23.15-1.5-34.86zM207.3 260.42a61 61 0 0 0 16.7 42.32c.31.31.55.68.83 1A62.14 62.14 0 0 0 243 319.45c3.69 2 7.49 3.87 11.29 5.71a1.94 1.94 0 0 0 1.7-.28 12 12 0 0 0 1.92-2.21c2.74-3.67 5.45-7.36 8.17-11s5.38-7.13 7.95-10.78c.73-1 .8-2.52 2.26-3s1.62-1 .39-2.18c-3.1-2.91-6.15-5.89-9-9a26.44 26.44 0 0 1-3.86-5.56c-3-5.79-5.72-11.71-6.25-18.37a2.44 2.44 0 0 0-1-1.79c-3.47-1.52-6.92-3.36-10.93-2.5a56.15 56.15 0 0 0-6 1.62c-6.35 2.08-11.38 0-14.1-3.76a26.9 26.9 0 0 1-2.83-4.39c-1.83-4-5-5.87-9.19-6.27-1.18-.12-2.38 0-3.54-.12-1.31-.15-1.66.33-1.73 1.6-.25 4.37-.63 8.83-.95 13.25zm381.3 221h.16c-.29 3.26-.57 6.52-.89 9.78-.18 1.95 0 4-.7 5.8-3.2 8.08-6.46 16.08-11.5 23.35-3.75 5.4-8.64 9.17-13.9 12.52s-10.75 6-17.07 7c-5.46.83-11 1.43-16.26.27-6.43-1.42-13-3.2-18-8.1-1.79-1.74-2-1.56-3.15.76-.2.39-.4.78-.58 1.18-2.18 4.86-5.69 8.77-9.15 12.7a9.23 9.23 0 0 1-2.94 2c-3.33 1.59-6.59 3.37-10.48 3.34-1.49 0-1.78 1.06-1.05 2.26a64.91 64.91 0 0 0 4.06 6.25 19.39 19.39 0 0 0 4.23 4c2.85 2 6 2.34 9.57 2.36 5 0 9.08-1.72 13-4.55a65.21 65.21 0 0 1 14.32-8.38c6.59-2.57 13.38-4 20.46-3 5.36.76 10.68 1.85 16 2.76a11.15 11.15 0 0 0 2.88.19c2.71-.24 5.4-.63 8.11-.92 4.79-.51 12.82-5.35 14.42-11.85a20 20 0 0 0 .45-9.58 77 77 0 0 1-1.69-8.34c-.39-3.22-1.05-6.62-.42-9.71.9-4.4 1.12-9 3.51-13.15 1.09-1.91 2.5-3.5 3.62-5.33 1.88-3.06 3.91-6 5.66-9.17a37 37 0 0 0 2.09-5.43c1.05-2.93-.57-5.51-1-8.27-.93-5.47-4.92-7.93-9.3-10.09a1.26 1.26 0 0 0-2 .92c-1.3 5.66-4.15 11.1-2.48 17.2a5.21 5.21 0 0 1 .02 1.18zm-261.53-249h-.15v32.1q0 5.9.32 11.78c.11 2.23.46 2.35 2.6 1.47s4.43-1.83 6.67-2.66c4-1.48 8-2.85 12-4.37.69-.26 1.58-1 1.67-1.61a36 36 0 0 0 .1-5.2c-.06-3.25-.23-6.51-.21-9.77 0-4.78.3-9.56.29-14.34 0-7.52-.25-15-.26-22.55s.2-15.24.18-22.87c0-9.15-.19-18.3-.29-27.45 0-3.27 0-6.54-.06-9.81a9.54 9.54 0 0 0-.37-1.81 5.91 5.91 0 0 0-1.42 1.12c-2.67 4-5.34 8-7.92 12q-6 9.5-12 19.08a6.11 6.11 0 0 0-1 2.67c-.17 2.71-.18 5.43-.18 8.15q.01 16.97.03 34zm-5.58-8.19h.2v-18.35c0-1-.18-2.4-.83-3-2.91-2.62-6-5-9.1-7.44a1.64 1.64 0 0 0-1.58.29 12.31 12.31 0 0 0-2.77 7.16 15.86 15.86 0 0 0 1.5 7.63c2.43 5 2 10.2 1 15.38-.31 1.69-.73 3.65-1.82 4.84-2.92 3.18-6.07 6.18-10.2 7.93-2.48 1-4.89 2.26-6.26 5a11.79 11.79 0 0 0-.63 9.15 14.79 14.79 0 0 1 .59 6.08 24.22 24.22 0 0 1-4.85 12 10.41 10.41 0 0 0-1.33 2.25 23.09 23.09 0 0 0-2.26 8.79c-.09 4 1.63 7.38 3.29 10.82.59 1.21 1.46 1.09 2.46.72 2.66-1 5.32-1.93 8-2.93 7.35-2.77 14.66-5.63 22-8.29 1.83-.66 2.17-1.61 2.13-3.39-.12-5.89-.1-11.78 0-17.67.1-7.73.35-15.45.46-23.18.05-4.7 0-9.28 0-13.86zm-47.31 109.6h-.37v-9.5c0-2.29-.1-4.58-.21-6.87a3.67 3.67 0 0 0-.47-1.09 3.33 3.33 0 0 0-.71.63c-.84 1.41-1.56 2.89-2.48 4.24-6.47 9.54-13 19-19.45 28.58a5.21 5.21 0 0 0-.8 2.73c0 3.48 0 7 .14 10.45q.42 16 .88 32 .45 15.82.93 31.64c.08 2.73.27 5.45.44 8.17a3.19 3.19 0 0 0 .33.83 3 3 0 0 0 .77-.48c2.4-2.81 4.83-5.6 7.16-8.47 4.39-5.42 8.75-10.87 13-16.37a5.28 5.28 0 0 0 1-3q.17-8.5.06-17c-.08-6.33-.37-12.65-.42-19s.11-12.62.13-18.94.07-12.38.07-18.62zm2-152.4v.11c.76.05 1.53.11 2.29.14a13.52 13.52 0 0 1 12.44 9.32c1.67 5.32-.08 10.25-2.67 14.68a121.77 121.77 0 0 1-9.14 12.73 60.15 60.15 0 0 0-6.94 10.25c-.33.68-.82 1.29-1.15 2-1.11 2.24-2.32 4.44-3.22 6.75a69.72 69.72 0 0 0-3.33 11.88 38.1 38.1 0 0 0 2.45 23.89c.58 1.28 1.24 2.54 1.71 3.86 1.23 3.54 3.67 6.12 6.49 8.4.29.24.78.23 1.17.34a7.58 7.58 0 0 0 .13-.94v-2c-.43-6.14 1.82-11.43 4.82-16.64 2.62-4.53 4.64-9.23 2.84-14.87-1.55-4.86.08-11.57 5.36-14.59 2.74-1.57 5.36-3.34 8.11-4.9a13.65 13.65 0 0 0 6-17.69c-.6-1.4-1.21-2.79-1.81-4.19a16.23 16.23 0 0 1 .24-12.74c1.44-3.58 4.08-6.67 6-10.09 1.21-2.16 2.63-4.45 3-6.81.73-5.39-5.6-9.52-10.52-7.11-1.37.67-2.68 1.46-4 2.24a10.56 10.56 0 0 1-11.44.06c-4.57-2.62-6.64-2.16-10.1 2a10.41 10.41 0 0 0-1.12 1.19c-.54.9-1 1.86-1.45 2.8.85-.05 1.7-.1 2.55-.13.38-.02.82-.01 1.26-.01zm210.66 281.76c2.57-1.26 4.85-2.26 7-3.46 5-2.77 10.55-3.29 16-4 4.11-.51 7.9-1.25 10.8-4.58a16.34 16.34 0 0 1 4.09-3.24c3.31-1.91 6.86-2.93 10.65-1.57s7.57 2.75 11.27 4.32c4.75 2 9.09.93 12.87-1.94 2.19-1.66 3.71-4.22 5.49-6.41 2.43-3 5.41-5.2 9.28-5.55a48.31 48.31 0 0 1 8.14.3c3.9.31 7.7.67 11.57-.84 4.79-1.87 5.45-6.77 2.74-10.1a54 54 0 0 0-3.72-4.13c-3.78-3.75-5.86-8-4.72-13.52.82-4-.94-6.89-4.62-8.64a18.17 18.17 0 0 0-8.94-1.51 2.76 2.76 0 0 0-.75.25 3.15 3.15 0 0 0 .35.52 17.69 17.69 0 0 1 1.74 2c2.65 4.15 6.53 7.58 6.81 13.08a11.24 11.24 0 0 1-2.94 8.91 13.92 13.92 0 0 1-9.9 4.45c-5.75.22-11.41 1.6-17.21 1a45.32 45.32 0 0 0-7.08.13c-2.69.15-5.38.43-8.07.68a3.63 3.63 0 0 0-1.27.3 10.53 10.53 0 0 1-5.66 1.12 6 6 0 0 0-2.57.42c-4.81 1.72-9.59 3.51-14.38 5.28-.82.31-1.62.66-2.41 1-3.17 1.4-6.35 2.77-8.88 5.24-.94.91-1.86 1.84-2.86 2.68-5.66 4.83-9.66 10.86-12.82 17.81zm146.38-37.51c.07-5.16-3.1-10.89-6.25-12.52-7.55-3.91-14.89-8.09-20.93-14.28a28.27 28.27 0 0 1-6.75-9.82 29.7 29.7 0 0 0-5.52-8.82 20.71 20.71 0 0 0-20.55-7.05A20.85 20.85 0 0 0 562.1 379a1.38 1.38 0 0 0-.41 1.06 6 6 0 0 0 6.1 3.72 11.23 11.23 0 0 1 2.56-.29 41.07 41.07 0 0 1 17.65 5.29c3.29 1.88 6.87 3.62 9.48 6.25a94.62 94.62 0 0 1 9.69 12.26c3.44 4.85 5.36 10.44 7.3 16a12.14 12.14 0 0 1 .38 7.07c-1 3.9-1.95 7.81-3.24 11.61a53.06 53.06 0 0 1-9.1 16.09c-1.11 1.36-1.23 1.92.11 3.05a17 17 0 0 1 6.26 10 55.44 55.44 0 0 1 1 7.1 15 15 0 0 1-.7 4.81 39.06 39.06 0 0 1-2.13 5.46c-.47 1 0 1.07.79 1.09a13.53 13.53 0 0 0 12.21-6.26c2.69-4 2.21-8.25 1.17-12.6-1.32-5.52-2.65-11.13-1.73-16.8a30 30 0 0 1 3.26-9.8c1.93-3.47 4.75-6.45 7.19-9.63 2.28-2.83 2.88-6.25 3.28-8.8zm-466.86-157.1c.41 1.84.5 4.74 1.71 7.06a34.45 34.45 0 0 0 8.59 10.59 54.57 54.57 0 0 1 6.72 6.62 15.7 15.7 0 0 1 4.09 8c.36 2.7.51 5.44 1.06 8.1 1 4.78 4 8.19 8.11 10.59 2 1.18 2.64.63 2.93-1.86a33.37 33.37 0 0 1 5.48-15.5c1.54-2.25 1.48-2.48-.92-3.75a20.24 20.24 0 0 1-2.87-1.55c-2.77-2.09-6-3.84-8.06-6.52-5.06-6.67-9.38-13.78-10.78-22.38a44.51 44.51 0 0 1 1.11-20.37c2.61-8.49 6-16.75 11.33-24.13a27.74 27.74 0 0 1 9.42-8.82c3.77-2 5.35-5.21 6.48-9a1.88 1.88 0 0 0-.75-2.24c-4.26-3.67-12.4-3.4-16.13-.11a19.84 19.84 0 0 0-5.38 8.7 73.45 73.45 0 0 0-3.84 17.52 29.2 29.2 0 0 1-7.33 16.73 70.53 70.53 0 0 0-7.29 9.62 27.28 27.28 0 0 0-3.68 12.7zm291.33 85h-.08v8.19c0 2.35.09 2.44 2.48 1.71 3.42-1.05 6.84-2.14 10.2-3.41 5.3-2 10.54-4.15 15.79-6.29a7.49 7.49 0 0 0 2.45-1.5c1.83-1.84 3.53-3.8 5.31-5.7 6.32-6.76 12.71-13.47 18.95-20.3a56 56 0 0 0 4.34-6.06 3 3 0 0 0 .23-.77 2.54 2.54 0 0 0-.92 0c-1.67.77-3.27 1.73-5 2.39-10.66 4.13-21.37 8.13-32 12.32-6.68 2.63-13.26 5.55-19.91 8.25a2.45 2.45 0 0 0-1.88 2.63c.1 2.85.04 5.69.04 8.53zM524.48 371h3.75c1 0 1.66-.57.83-1.31a18.77 18.77 0 0 0-5-3.44c-1-.4-2.56.15-3.64.71-4.12 2.17-8.28 2.15-12.63.89-2.7-.79-5.53-1.14-8.21-2a4.24 4.24 0 0 0-4 .81 24.09 24.09 0 0 0-4.16 3.64c-2.87 3.31-2.82 5.23-.08 8.67.61.77 1.27 1.5 1.92 2.25a12.11 12.11 0 0 1 3.19 8.65 19.29 19.29 0 0 1-2.57 8.67c-2.83 5.26-1.6 9.73 3 13.58 5.05 4.21 8.16 9.57 8.05 16.42a19.68 19.68 0 0 0 .15 3.26c.15 1 .57 1.55 1.76.83a58.13 58.13 0 0 1 6.89-3.74 69.41 69.41 0 0 1 7.15-2.33c1.29-.4 1.77-1.19 1.31-2.46a38.37 38.37 0 0 1-1.61-4.29 23.62 23.62 0 0 0-7.42-12A40.11 40.11 0 0 1 502.72 393c-2-4.89-2.25-9.7 1.47-14.06.63-.75 1.05-1.67 1.63-2.46a8.06 8.06 0 0 1 1.92-2.2c3.58-2.17 7.4-3.74 11.69-3.64 1.73.02 3.46.24 5.05.36zM201.4 231a34.76 34.76 0 0 0 1.89 4.43c1.63 2.75 3.89 4.31 7.37 3.52a9.22 9.22 0 0 1 3.81.3c1.49.3 2.91.93 4.4 1.24a9.77 9.77 0 0 1 5.83 3.39 68.92 68.92 0 0 1 5.56 7.64c1.16 1.92 2.53 3 4.72 2.79a26.53 26.53 0 0 0 4.15-.74c2.63-.67 5.23-1.44 7.85-2.15a9.55 9.55 0 0 1 7.5 1.33c3 1.74 3.28 1.61 3.53-1.93.07-1 0-2 .17-3a31 31 0 0 1 .93-5.46c1.18-3.65 1.29-3.63-2.64-4.5a10.31 10.31 0 0 0-2.57-.38c-3.91.18-7.81.44-11.72.67a27.18 27.18 0 0 1-10.93-1.44 17.94 17.94 0 0 1-4.83-2.57 51.52 51.52 0 0 1-5-4.71 6 6 0 0 1-1.35-1.83 18 18 0 0 1-1.35-11.78c.77-3 1.92-6 2.89-8.95.32-1 .61-1.94.92-2.91a17.84 17.84 0 0 0-2.86 1.45 5.35 5.35 0 0 0-1.54 2c-.68 1.48-1 3.17-1.83 4.52a28.44 28.44 0 0 1-4.57 5.81c-1.91 1.75-4.37 2.87-6.43 4.47a8.64 8.64 0 0 0-2.59 3.18 34.16 34.16 0 0 0-1.31 5.61zm71.9-74.29c-.71.23-1.45.41-2.13.7-3.36 1.4-6 3.77-8.77 6.09-4.57 3.82-6.47 8.84-8 14.2-.38 1.34.18 1.73 1.48 1.7a9.06 9.06 0 0 1 5.87 1.64c2 1.45 2.17 1.37 3.23-1a23.72 23.72 0 0 1 10-11.17 10.18 10.18 0 0 1 6-1.41 7 7 0 0 0 3.39-.67 33.17 33.17 0 0 1 13.52-3.51c5.1-.15 10.11-1.29 15.29-.73 4.9.53 9.76.75 13.92 3.79 1.28.94 2 .46 2.94-.69 2.87-3.56 5.88-7 8.83-10.5a9.33 9.33 0 0 0 1.52-2.11 1.66 1.66 0 0 0-.26-1.57 19 19 0 0 0-9.68-3.47c-6.15-.21-11.49 2.12-16.71 4.91-4.41 2.36-8.33 5.63-13.23 7.06a20.72 20.72 0 0 1-10 .57c-5.77-1.04-11.1-4.03-17.21-3.79zM480.91 545.4c4.54-.1 8.46-.66 11.74-3.48 4.45-3.82 7.05-8.82 9.14-14.14a13.12 13.12 0 0 0 .34-2.92c.16-1.22-.4-1.68-1.56-2-2.07-.6-4.05-1.5-6.11-2.16a4 4 0 0 0-2.1 0c-2 .51-3.9 1.34-5.9 1.69-2.88.5-5.85.52-8.73 1-4.19.73-8.15-1-12.27-.91-.09 0-.19-.1-.29-.13-2.08-.62-4.16-1.27-6.26-1.82-.32-.09-1.1.33-1.1.49.06 2.28-.13 4.66.49 6.8.35 1.2 2 2.11 3.19 3a35.14 35.14 0 0 1 8.27 8.28c2.78 3.9 6.62 6.19 11.15 6.3zM244.82 358.82h-.61c0-2.84-.06-5.67 0-8.5a3.09 3.09 0 0 0-2.32-3.41c-5.56-2.11-9.87-6.09-13.51-10.54a50.38 50.38 0 0 1-9.12-16.07c-.71-2.17-1.33-4.37-1.91-6.57s-1.06-4.2-1.51-6.31c-.36-1.7-.53-3.44-.93-5.13-.13-.57-.7-1-1.06-1.56a7.53 7.53 0 0 0-1.12 1.14c-.94 1.47-1.85 3-2.7 4.49-2.93 5.26-4.72 10.76-3.22 16.88a9.61 9.61 0 0 1 .23 1.61c.52 6.62 4.75 10.4 10.2 13.18 2.5 1.28 5.16 2.23 7.66 3.52a19.33 19.33 0 0 1 4.6 3 35 35 0 0 1 10.1 18.33 26.36 26.36 0 0 0 4.06 9.86 6.21 6.21 0 0 0 .85.85 4.52 4.52 0 0 0 .28-1.11c.04-4.48.03-9.1.03-13.66zm279.42-11.17c-1.83.5-3.66.86-5.38 1.51-2.21.84-2.47 1.64-1.37 3.73.7 1.35 1.73 2.54 2.34 3.92s1.34 2.43 3.28 2.4a11 11 0 0 1 4.32 1.34 3.55 3.55 0 0 0 3.07.19 18.27 18.27 0 0 1 9.33-.85c8.09 1.17 15.58 3.8 21.78 9.32 1.26 1.12 2.25.91 3.52.36a26.08 26.08 0 0 1 5.13-2c3.08-.59 6.22-.85 9.34-1.18 1.69-.17 1.95-.44 1-1.87-1-1.64-2-3.51-3.42-4.7a16.9 16.9 0 0 0-15.85-3.63c-1.88.5-3.75 1.37-5.64 1.43-3.43.1-7.1.39-10.27-.64-3.73-1.21-7.13-3.58-10.48-5.74s-7.11-2.36-10.7-3.59zM257.38 151c-2.45.77-5.25 1.19-7.54 2.49a24.55 24.55 0 0 0-7.24 5.84c-3.52 4.52-6.35 9.59-9.68 14.27-2.47 3.48-5.4 6.71-9.71 7.86-3.55.94-7.24 1.4-10.88 2a10.93 10.93 0 0 0-8.86 8.1c-.35 1.6 0 2.36 1.65 2.73a24.39 24.39 0 0 1 10.08 4.28c.78.62.79-.15.85-.68.11-1.07-.12-2.37.41-3.15 2.72-4.06 5.64-8 8.52-11.93a5.42 5.42 0 0 1 1.29-1c1.23-.9 2.52-1.73 3.68-2.71a33.9 33.9 0 0 1 18.15-8.07 3 3 0 0 0 2.77-2.17c2-4.88 4.67-9.27 9.65-11.84 1.17-.6 2-2 2.87-3 .75-.88.18-1.4-.67-1.64-1.65-.46-3.33-.85-5.34-1.38zm-20.23 59.64c.25-5.15 3.34-11.94 7-15.32s8.39-1.63 9 2.63c.45 3.23 2.86 5.26 5.09 7.35 1.08 1 1.85.67 2.71-.34a16.55 16.55 0 0 0 4.13-10.77 7.24 7.24 0 0 0-2.72-5.72c-3.37-3-7.17-3.4-11.27-1.71-1.31.54-2.6 1.13-3.91 1.65-6.51 2.57-11.66 6.43-14.7 13.12-3.3 7.28-2.44 15.27 3.13 21.25 1 1.12 2.62 1.75 3.95 2.61a22.34 22.34 0 0 0 .06-4.69c-.62-3.38-1.62-6.7-2.47-10.05zm310 188.46c.3 3.28.3 3.45 3.58 3.41a17.22 17.22 0 0 0 6.36-1.07c4.75-2 7.23-5 4.17-11.2a20.33 20.33 0 0 0-9.67-9.72c-3.92-1.89-7.94-3.2-12.29-2-3.13.86-6.22 1.93-9.26 3.08-3.33 1.26-5.51 3.9-7 7-1 2-2.08 4.07-1.27 6.56.42 1.3 1 1.8 2 .85 2.37-2.2 5.47-3.6 7.11-6.61a3.28 3.28 0 0 1 1.46-1.2 31.92 31.92 0 0 1 4.81-2 28.24 28.24 0 0 1 7-1.38c5-.05 6.83 2.9 5.15 7.48-.85 2.21-1.43 4.53-2.11 6.81zM498 356.32c-2.31-.87-4.6.75-7.05 1.49-1.55.47-3 1.23-4.53 1.85-8.56 3.52-17.14 7-25.66 10.62-1.15.49-2.8.77-3 2.54 1.13-.13 2.25-.26 3.38-.36s2.17-.13 3.26-.22c1.61-.13 3.22-.41 4.83-.41 3.12 0 6.24.11 9.35.22a11.42 11.42 0 0 1 2.25.33c.89.2 1.49 0 1.73-.94 1.22-4.64 4.39-7.64 8.37-9.95 1.39-.81 2.7-2 4.2-2.3a18.67 18.67 0 0 1 11.85 1 22.71 22.71 0 0 0 4.39 1.24 3.67 3.67 0 0 0 1.89-.06c.34-.11.82-.85.72-1.06a21.6 21.6 0 0 0-5.9-8.12c-.63-.51-1.21-.52-1.59.24-1.66 3.31-4.73 3.79-8.49 3.89zM249.87 218.1a16.25 16.25 0 0 1-2.24.16c-1.54 0-1.84.74-1.63 2.05a40.66 40.66 0 0 1 .6 4.51c.07 1.49.84 1.8 2.11 1.78a21.31 21.31 0 0 0 10.55-3 118.11 118.11 0 0 0 11.21-7.8 74.66 74.66 0 0 0 6.35-5.59c1.2-1.15 1.12-2.18.11-3-1.73-1.46-3.5-2.89-5.09-4.49-.85-.86-1.25-1.06-1.75.17a27.3 27.3 0 0 1-8.61 10.89c-3.13 2.49-6.55 4.72-11.61 4.32zM554.35 411c.68-1.58-.5-1.45-1.3-1.27-3.53.77-6.65-.62-9.75-1.86a32.46 32.46 0 0 1-6.63-3.41c-1.54-1.08-2.65-2.78-3.91-4.25s-1.61-1.62-3.12-.43c-1.11.86-2.31 1.59-3.39 2.47a1.19 1.19 0 0 0-.26 1.13 36.22 36.22 0 0 0 4 5.06c5.88 5.46 13.45 7.16 20.94 8.92 2.34.56 2.35.38 2.65-2.21.22-1.45.53-2.83.77-4.15zm-20.08 13.12l.07.31c2.32-.49 4.64-1 6.95-1.5a3.56 3.56 0 0 0 .92-.49 4 4 0 0 0-.73-.57c-2.17-1-4.37-1.88-6.54-2.87s-4.27-2.05-6.42-3.05c-.69-.32-1.52-.23-1.29.68.67 2.61 1.56 5.17 2.36 7.75l4.36-.27c.1-.06.21-.04.32-.04zm-284.58-212c.68-.19 1.72-.5 2.77-.75 1.38-.32 1.12-.88.41-1.75-1.36-1.64-2.61-3.36-3.9-5-.45-.6-.86-1.21-1.29-1.81-.61.56-1.45 1-1.78 1.7a9.44 9.44 0 0 0-.91 3.41c-.12 2.32 1.89 4.19 4.7 4.15zM538.07 394.9c-.21 1.62.72 2.6 1.89 3.48.7.53.9.18 1-.47.32-1.68.67-3.35.95-5 .05-.31-.11-.92-.27-.95-1.26-.34-3.46 1.54-3.57 2.94zm-22.2 6.1c-.4-2.37-.69-4.23-1-6.07a2 2 0 0 0-.6-.93 8 8 0 0 0-2.2 1.22c-.23.19-.16 1.07.09 1.4 1.05 1.44 2.26 2.75 3.71 4.38zM257.78 231c5.26 1.28 5.26 1.28 7.21-2.86z"/><path d="M239 645.32c.41-6 .8-11.25 1.11-16.47.35-6.18 2.19-12 4.27-17.72.48-1.33.75-2.73 1.12-4.09s.72-2.54 1.08-3.81c-1.12.69-2.22 1.39-3.35 2-2.74 1.6-5.41 3.31-8.23 4.73-5.92 3-11.76 6.13-18.17 8-3.55 1.05-7 2.53-10.42 3.88-1 .39-1.92.55-2.68-.33s-.17-1.73.32-2.63c.86-1.56 1.14-3.57 3.52-3.72.32 0 .63-.56.91-.89 6-7.37 11.33-15.16 13.72-24.55 1.55-6.11 3.26-12.2 4.39-18.4 1.22-6.73 3.8-12.92 6.6-19a48.21 48.21 0 0 1 5.47-9.88c4.46-5.71 8.24-12 14.07-16.6a4.57 4.57 0 0 0 1-.85c.42-.62.75-1.31 1.12-2-.71.12-1.42.23-2.13.37-7.45 1.47-15 2.67-22.34 4.51C224 529.51 218 532 213.27 537c-3.18 3.4-4.51 7.65-6.08 11.82-.61 1.63-.81 3.46-1.65 4.94-.56 1-2 2.16-2.94 2.06a3 3 0 0 1-2.33-3.15 77.65 77.65 0 0 1 1.52-17.14c1.82-8.12 6.24-14.74 10.22-21.69a14.66 14.66 0 0 1 2.08-2.46c.52-.56 1.29-.95 1.64-1.59 1.66-3.08 4.65-4.79 7.11-7 .4-.37.85-.68 1.22-1.09 2.85-3.18 6.44-5.38 10.05-7.56q4-2.43 8-5c5.43-3.48 11.31-6.07 17.16-8.72 1.86-.85 3.46-2.29 5.34-3.08a63.88 63.88 0 0 0 13.39-7.1 118.91 118.91 0 0 0 11.47-10.07c3.82-3.64 6.19-8.38 8.95-12.8A59.85 59.85 0 0 1 310.17 433c.58-.49 1.28-.85 1.84-1.36 1.47-1.32 2.34-.71 3.85.88 1.08 1.15.36 2.24-.48 3.13a54 54 0 0 0-10.64 17.05c-1.87 4.64-4 9.2-5.77 13.87-1 2.63-1.46 5.47-2.35 8.15-1.9 5.78-4.05 11.47-5.85 17.28-1.61 5.18-2.9 10.47-4.27 15.72-.41 1.58-.52 3.23-.92 4.81a24 24 0 0 0-.69 9.4 12.07 12.07 0 0 1 0 3.6c-1 6.5.2 12.77 1.73 19 1 4.23 1.55 8.58 2.46 12.83 1.06 4.89 2.41 9.71 3.43 14.6.73 3.5 1.17 7.07 1.62 10.61.35 2.71.65 5.43.75 8.15.14 3.92 0 7.85.13 11.77.32 7.93-2 15.36-4.63 22.6-2.23 6.1-5.41 11.87-8.22 17.76-3.81 8-8 15.73-10.13 24.43-2.32 9.56-1.14 18.81 1.73 28a14.16 14.16 0 0 1 .75 2.82c.12 1.37.52 2.91-.92 3.91-1.07.75-4 .35-5.28-.63a5 5 0 0 1-.46-.46c-4.66-4.9-9.63-9.55-13.91-14.77a54.88 54.88 0 0 1-11.76-23.43c-.36-1.7-1.24-3.3-1.51-5-.67-4.32-1.2-8.72-1.67-12.4zm39.48-127.19a9.14 9.14 0 0 0-.5 1.17c-1.63 6.34-3.21 12.68-4.87 19-.85 3.27-2.28 6.44-2.68 9.75a53.5 53.5 0 0 1-4.17 14.74c-3.87 9-8 17.92-15.24 24.9-4 3.84-8.06 7.56-12.15 11.27-1.36 1.23-2.88 2.28-4.33 3.41a11.38 11.38 0 0 0 3.56-1.41c6.1-3.89 12.27-7.67 18-12.14 4.74-3.69 8.87-7.7 11.23-13.29 1.82-4.3 3.8-8.55 5.29-13a90.43 90.43 0 0 0 2.75-11.42c1.43-7.26 3.12-14.49 3.06-22v-11.09c.05-.19.1-.39.16-.58a.62.62 0 0 1 .11-.17v.25c0 .07-.14.48-.23.61zm4.43 38.31l-.64.16c-.33 4.44-.78 8.87-1 13.31-.48 12 .69 24-1.29 35.92a111.19 111.19 0 0 1-4.64 19.34c-1.5 4.21-2.94 8.44-4.41 12.66-1.62 4.62-3 9.35-4.91 13.84-3.06 7.13-3.3 14.6-3.2 22.12 0 1.71 1.21 3.41 1.87 5.12.07.18.16.35.24.52 0-.24.07-.48.08-.72a26.36 26.36 0 0 1 .11-3c.78-5.16.91-10.57 2.61-15.43a188.35 188.35 0 0 1 9.54-21.47 154.86 154.86 0 0 0 8-18.13 62.64 62.64 0 0 0 3.56-18.86c.24-8.81 0-17.61-2.06-26.29-1.46-6.28-2.57-12.7-3.87-19.09zm4.86-74.36a11.17 11.17 0 0 0-.86 1.06A70.25 70.25 0 0 1 272 500.28a39.73 39.73 0 0 1-6 4.5 99.75 99.75 0 0 1-10.2 4.34c-2.31.91-4.72 1.58-7.07 2.41-3.87 1.38-7.64 3.28-11.63 4.1a51.29 51.29 0 0 0-13.84 4.69 36.76 36.76 0 0 0-5.43 4c-.27.21-.29.75-.42 1.14a4.64 4.64 0 0 0 1.45-.08 46.77 46.77 0 0 1 5.36-2.24c7-1.85 14.11-3.72 21.24-5.19a81.36 81.36 0 0 0 17.42-5.29c4.57-2.09 8.62-4.73 11.72-9 2.27-3.14 4.6-6.25 6.79-9.45 2.55-3.74 5.32-7.42 6.37-12.13z"/><path class="a" d="M452.18 121.75v55.67c0 12 .12 24 .06 36 0 3.69-.47 7.37-.7 11.06-.05.76 0 1.53-.06 2.29-.16 1.82-.27 3.65-.58 5.45-.37 2.2.25 3.39 2.35 3.26a23 23 0 0 0 6.72-1.24c4.47-1.71 8.75-3.9 13.19-5.69 8.19-3.31 16.43-6.5 24.67-9.69q11.88-4.6 23.82-9.11c2-.75 2-.6 2.15 1.69.32 6.59-.86 13.05-1.69 19.53a147.81 147.81 0 0 1-3.1 16.7 117.23 117.23 0 0 1-5.23 16.77c-3.63 8.73-7.49 17.41-12 25.73-2.91 5.42-7.11 10.14-10.68 15.21a131.06 131.06 0 0 1-13.68 15.79 61.05 61.05 0 0 1-6.41 5.6c-3.69 2.87-7.46 5.64-11.27 8.35a45 45 0 0 1-5.56 3.38 3.64 3.64 0 0 0-2.13 3.68c.14 9.5.28 19 .32 28.49 0 9-.13 17.91-.09 26.87 0 8.16.3 16.33.32 24.49 0 6.88-.26 13.75-.28 20.62v44.86c0 6.77-.1 13.54-.16 20.32l-.22 25.21c0 1.41-.23 2.82-.32 4.23-.08 1.15-.1 2.3-.15 3.44-1.18-.11-2.38-.17-3.56-.34-5.17-.73-10.42-1.15-15.51-2.3a72.32 72.32 0 0 1-24.19-10.41c-4.44-3-9.2-5.53-12.8-9.55s-6.84-7.89-9.91-12.09a98.62 98.62 0 0 1-7.07-11.38c-2.72-5.09-5.2-10.33-7.57-15.59a42 42 0 0 1-1.93-6.59c-2.2-8.33-4.74-16.59-6.46-25s-2.7-17-3.8-25.55c-.69-5.29-.55-10.71-1.56-15.92-1.18-6.09-.7-12.16-.88-18.24a19 19 0 0 1 .3-3.91c.35-1.94-.89-3.31-1.63-4.84a2 2 0 0 0-1.68-.67c-2.8.3-5.58.82-8.38 1.11s-5.89.83-8.76.52a52.64 52.64 0 0 1-24.54-9.23c-3.31-2.3-6.63-4.59-9.82-7.05a49.12 49.12 0 0 1-14.91-18.28c-2.23-4.79-3.41-10.08-5-15.16-2.4-7.51-2.05-15.29-2.16-23 0-2.74 1.17-4.33 3.84-5.35 6.91-2.63 13.69-5.61 20.57-8.32 6.29-2.48 12.63-4.81 19-7.16 6.54-2.44 13.1-4.81 19.63-7.25 3.77-1.41 7.5-2.92 11.25-4.39a3.65 3.65 0 0 0 2.47-3.2 73.75 73.75 0 0 0 .46-9.38 135.25 135.25 0 0 1 .53-20.19c.82-8.12 1.71-16.23 2.59-24.35a11.36 11.36 0 0 1 .38-2.26c2.92-9.1 5.59-18.29 8.89-27.25 1.83-5 4.72-9.55 7.12-14.31.69-1.36 1.23-2.8 2-4.09a140.46 140.46 0 0 1 18.8-24.74c5.23-5.35 11.12-10.07 16.76-15 3.28-2.88 6.54-5.79 10-8.42 4.86-3.68 9.78-7.32 14.93-10.57 3.57-2.25 7.57-3.82 11.4-5.63 1.57-.74 1.89-.53 1.91 1.28v15.07zm-35.79 135.48c-.34-7.48-.52-13.16-.89-18.82a26 26 0 0 0-1.18-6.43c-2.37-7-4.81-14-7.52-20.88-.71-1.8-2.42-3.26-3.86-4.69a1.6 1.6 0 0 0-2.58.08 3.51 3.51 0 0 0-.32 2.66c2.14 5.58 4.59 11 6.62 16.67a55.55 55.55 0 0 1 3.56 17.59c.17 6.85-.39 13.72-.28 20.58s-1.74 13.37-3.37 19.92c-1.47 5.88-3.19 11.69-4.78 17.54-1.32 4.83-2.57 9.68-3.92 14.49-.91 3.26-2.32 6.42-2.83 9.72-.92 5.91-2.89 11.55-3.64 17.53-1.1 8.73-1.78 17.34.38 25.94a110.45 110.45 0 0 0 4 14.1 129.5 129.5 0 0 0 7.12 14.3 20.25 20.25 0 0 0 3.8 4.44c.85.83 1.78.65 2.27-.63a5.68 5.68 0 0 0-.49-5.32 24.83 24.83 0 0 1-1.9-3c-2.24-5-5.45-9.67-6.51-15.23-.32-1.69-.9-3.34-1.37-5a69.15 69.15 0 0 1-1.93-26.86c1-8.83 3.44-17.31 5.93-25.78.86-2.93 1.75-5.85 2.56-8.79 1.48-5.35 3-10.7 4.34-16.08 1.83-7.18 3.89-14.32 5.19-21.59 1.1-6.02 1.21-12.16 1.6-16.46zm32.74 273.29c.05-2.39-2.19-4.82-4.39-4.77-1.73 0-3.25 2-3.28 4.2 0 2.68 1.55 4.53 4 4.63 2.01.08 3.61-1.68 3.67-4.06zm-5.65-416.3c-1.81 0-3.08 1.9-3.1 4.64 0 2.27 1.19 3.8 3.06 3.89s4.13-2.1 4.21-4.23a4.68 4.68 0 0 0-4.17-4.3zM292.12 309.91c0-2.52-1.55-4.57-3.33-4.46a4.27 4.27 0 0 0-3.6 4.35c.07 1.8 1.62 3.6 3.14 3.66a3.54 3.54 0 0 0 3.79-3.55zm217.49-88.1c0 2.43 1.46 4.36 3.39 4.4 1.73 0 3.6-2 3.57-3.93s-1.76-4.07-3.45-4.07a4 4 0 0 0-3.51 3.6z"/><path class="b" d="M457.55 449.52V411.2a6.26 6.26 0 0 1 1.59-4.39c1.87-2.25 3.23-4.91 4.88-7.35a22.62 22.62 0 0 1 2.81-3.55 90 90 0 0 1 16.94-13.21c1.28-.74 1.66-.35 2.56.55 4.14 4.12 3.5 8.71 1.21 13.22-2.49 4.91-2.13 9.55 0 14.44 1.18 2.78 3.38 4.5 5.56 6.26 3.22 2.6 5.35 5.5 5.05 10-.17 2.54.52 5.16 1 7.7.24 1.19.44 2.08-.79 2.8-.54.32-.91.94-1.42 1.34-6 4.79-10.39 10.93-14 17.51a56.31 56.31 0 0 0-7.24 24.5c0 .86-.35 1.71-.38 2.57a12.44 12.44 0 0 0 .12 3.56c.39 1.54 1.83 1.85 3.06.81a10.41 10.41 0 0 0 3.36-6.91c.48-3.6 2.42-6.23 5-8.5 5.06-4.46 10.63-8 17.4-9.16 3.65-.64 7.3-1.22 11-1.67a11.48 11.48 0 0 0 7-3 33.29 33.29 0 0 1 7.34-5.37 9.34 9.34 0 0 1 9.69.61c9.89 6.68 20.56 3.75 28.28-3.42a18.21 18.21 0 0 0 2.1-2.9c2.22-3.12 4.87-5.21 9.07-4.28a50.22 50.22 0 0 0 6.14.75c1.24.12 1.85.78 1.66 1.93-.87 5.23-.29 10.61-2.21 15.75-1.39 3.73-1.93 7.78-3.21 11.57a45.57 45.57 0 0 1-4 8.92c-3.36 5.6-6.91 11.11-10.7 16.44-1.78 2.51-4.26 4.53-6.46 6.73a22.86 22.86 0 0 1-3.58 3.32 72.53 72.53 0 0 1-18.44 8.89c-8.36 2.47-16.56 1.27-24.9.51a92.91 92.91 0 0 1-28.58-7.43 95 95 0 0 1-15.95-8.78A44.93 44.93 0 0 1 458 491.67a3.86 3.86 0 0 1-.42-2.18q-.06-15.23-.08-30.47v-9.5zm-108.04-56.58c2.22 11.71 1.31 23.29 1.53 34.83.17 8.61.3 17.24.34 25.86 0 6.2-.21 12.41-.2 18.62 0 6.54.19 13.09.22 19.64v26.85c.06 11.79.2 23.57.23 35.36 0 6.53-.14 13.06-.21 19.6a1.16 1.16 0 0 0 0 .32c1.21 4-1.23 6.53-3.65 9.12q-11 11.85-22 23.75c-.12.13-.36.14-.72.27-.13-7.86-.32-15.66-.36-23.46 0-4.25.3-8.51.32-12.76 0-11-.06-22 0-33.05q.06-21.27.22-42.54.14-19.49.32-39 .11-13.08.28-26.18a5 5 0 0 1 .71-2.43c3-4.91 6-9.84 9.14-14.66 2.69-4.1 5.61-8 8.4-12.08 1.17-1.7 2.23-3.49 3.38-5.21.61-.93 1.32-1.85 2.05-2.85z"/><path class="c" d="M207.3 260.42c.32-4.44.69-8.88.93-13.33.07-1.27.42-1.75 1.73-1.6 1.16.15 2.36 0 3.54.12 4.2.4 7.36 2.29 9.19 6.27a26.9 26.9 0 0 0 2.83 4.39c2.72 3.72 7.75 5.84 14.1 3.76a56.15 56.15 0 0 1 6-1.62c4-.86 7.46 1 10.93 2.5a2.44 2.44 0 0 1 1 1.79c.53 6.66 3.25 12.58 6.25 18.37a26.44 26.44 0 0 0 3.86 5.56c2.87 3.13 5.92 6.11 9 9 1.23 1.16 1.06 1.69-.39 2.18s-1.53 2-2.26 3c-2.57 3.65-5.29 7.19-7.95 10.78s-5.43 7.37-8.17 11a12 12 0 0 1-1.92 2.21 1.94 1.94 0 0 1-1.7.28c-3.8-1.84-7.6-3.67-11.29-5.71a62.14 62.14 0 0 1-18.2-15.69c-.28-.34-.52-.71-.83-1a61 61 0 0 1-16.69-42.32z"/><path class="a" d="M588.6 481.37a5.21 5.21 0 0 0 0-1.31c-1.67-6.1 1.18-11.54 2.48-17.2a1.26 1.26 0 0 1 2-.92c4.38 2.16 8.37 4.62 9.3 10.09.47 2.76 2.09 5.34 1 8.27a37 37 0 0 1-2.09 5.43c-1.75 3.13-3.78 6.11-5.66 9.17-1.12 1.83-2.53 3.42-3.62 5.33-2.39 4.16-2.61 8.75-3.51 13.15-.63 3.09 0 6.49.42 9.71a77 77 0 0 0 1.69 8.34 20 20 0 0 1-.45 9.58c-1.6 6.5-9.63 11.34-14.42 11.85-2.71.29-5.4.68-8.11.92a11.15 11.15 0 0 1-2.88-.19c-5.35-.91-10.67-2-16-2.76-7.08-1-13.87.42-20.46 3A65.21 65.21 0 0 0 514 562.2c-3.91 2.83-8 4.58-13 4.55-3.52 0-6.72-.41-9.57-2.36a19.39 19.39 0 0 1-4.23-4 64.91 64.91 0 0 1-4.06-6.25c-.73-1.2-.44-2.27 1.05-2.26 3.89 0 7.15-1.75 10.48-3.34a9.23 9.23 0 0 0 2.94-2c3.46-3.93 7-7.84 9.15-12.7.18-.4.38-.79.58-1.18 1.18-2.32 1.36-2.5 3.15-.76 5 4.9 11.54 6.68 18 8.1 5.27 1.16 10.8.56 16.26-.27 6.32-.95 11.88-3.64 17.07-7s10.15-7.12 13.9-12.52c5-7.27 8.3-15.27 11.5-23.35.69-1.75.52-3.85.7-5.8.32-3.26.6-6.52.89-9.78z"/><path class="b" d="M327.07 232.35v-34.07c0-2.72 0-5.44.18-8.15a6.11 6.11 0 0 1 1-2.67q5.93-9.57 12-19.08c2.58-4 5.25-8 7.92-12a5.91 5.91 0 0 1 1.42-1.12 9.54 9.54 0 0 1 .37 1.81c.05 3.27 0 6.54.06 9.81.1 9.15.27 18.3.29 27.45 0 7.63-.2 15.25-.18 22.87s.24 15 .26 22.55c0 4.78-.25 9.56-.29 14.34 0 3.26.15 6.52.21 9.77a36 36 0 0 1-.1 5.2c-.09.62-1 1.35-1.67 1.61-4 1.52-8 2.89-12 4.37-2.24.83-4.45 1.75-6.67 2.66s-2.49.76-2.6-1.47q-.28-5.88-.32-11.78v-32.1z"/><path class="c" d="M321.49 224.16c0 4.58.05 9.16 0 13.74-.11 7.73-.36 15.45-.46 23.18-.08 5.89-.1 11.78 0 17.67 0 1.78-.3 2.73-2.13 3.39-7.39 2.66-14.7 5.52-22 8.29-2.65 1-5.31 2-8 2.93-1 .37-1.87.49-2.46-.72-1.66-3.44-3.38-6.79-3.29-10.82a23.09 23.09 0 0 1 2.26-8.79 10.41 10.41 0 0 1 1.33-2.25 24.22 24.22 0 0 0 4.85-12 14.79 14.79 0 0 0-.59-6.08 11.79 11.79 0 0 1 .63-9.15c1.37-2.7 3.78-3.91 6.26-5 4.13-1.75 7.28-4.75 10.2-7.93 1.09-1.19 1.51-3.15 1.82-4.84 1-5.18 1.42-10.33-1-15.38a15.86 15.86 0 0 1-1.5-7.63 12.31 12.31 0 0 1 2.77-7.16 1.64 1.64 0 0 1 1.58-.29c3.09 2.4 6.19 4.82 9.1 7.44.65.59.81 2 .83 3 .07 6.11 0 12.23 0 18.35z"/><path class="b" d="M274.18 333.76v18.64c0 6.21-.18 12.6-.18 18.94s.34 12.65.42 19q.1 8.51-.06 17a5.28 5.28 0 0 1-1 3c-4.28 5.5-8.64 10.95-13 16.37-2.33 2.87-4.76 5.66-7.16 8.47a3 3 0 0 1-.77.48 3.19 3.19 0 0 1-.33-.83c-.17-2.72-.36-5.44-.44-8.17q-.49-15.81-.93-31.64-.45-16-.88-32c-.09-3.48-.18-7-.14-10.45a5.21 5.21 0 0 1 .8-2.73c6.45-9.55 13-19 19.45-28.58.92-1.35 1.64-2.83 2.48-4.24a3.33 3.33 0 0 1 .71-.63 3.67 3.67 0 0 1 .47 1.09c.11 2.29.19 4.58.21 6.87v9.5z"/><path class="a" d="M276.15 181.36h-1.31c-.85 0-1.7.08-2.55.13.48-.94.91-1.9 1.45-2.8a10.41 10.41 0 0 1 1.12-1.19c3.46-4.17 5.53-4.63 10.1-2a10.56 10.56 0 0 0 11.44-.06c1.31-.78 2.62-1.57 4-2.24 4.92-2.41 11.25 1.72 10.52 7.11-.33 2.36-1.75 4.65-3 6.81-1.91 3.42-4.55 6.51-6 10.09a16.23 16.23 0 0 0-.24 12.74c.6 1.4 1.21 2.79 1.81 4.19a13.65 13.65 0 0 1-6 17.69c-2.75 1.56-5.37 3.33-8.11 4.9-5.28 3-6.91 9.73-5.36 14.59 1.8 5.64-.22 10.34-2.84 14.87-3 5.21-5.25 10.5-4.82 16.64v2a7.58 7.58 0 0 1-.13.94c-.39-.11-.88-.1-1.17-.34-2.82-2.28-5.26-4.86-6.49-8.4-.47-1.32-1.13-2.58-1.71-3.86a38.1 38.1 0 0 1-2.45-23.89 69.72 69.72 0 0 1 3.33-11.88c.9-2.31 2.11-4.51 3.22-6.75.33-.67.82-1.28 1.15-2a60.15 60.15 0 0 1 6.94-10.25 121.77 121.77 0 0 0 9.14-12.73c2.59-4.43 4.34-9.36 2.67-14.68a13.52 13.52 0 0 0-12.48-9.39c-.76 0-1.53-.09-2.29-.14zm210.69 281.83c3.2-6.95 7.15-13 12.86-17.77 1-.84 1.92-1.77 2.86-2.68 2.53-2.47 5.71-3.84 8.88-5.24.79-.36 1.59-.71 2.41-1 4.79-1.77 9.57-3.56 14.38-5.28a6 6 0 0 1 2.57-.42 10.53 10.53 0 0 0 5.66-1.12 3.63 3.63 0 0 1 1.27-.3c2.69-.25 5.38-.53 8.07-.68a45.32 45.32 0 0 1 7.08-.13c5.8.57 11.46-.81 17.21-1a13.92 13.92 0 0 0 9.9-4.45 11.24 11.24 0 0 0 2.94-8.91c-.28-5.5-4.16-8.93-6.81-13.08a17.69 17.69 0 0 0-1.74-2 3.15 3.15 0 0 1-.35-.52 2.76 2.76 0 0 1 .75-.25 18.17 18.17 0 0 1 8.94 1.51c3.68 1.75 5.44 4.67 4.62 8.64-1.14 5.55.94 9.77 4.72 13.52a54 54 0 0 1 3.72 4.13c2.71 3.33 2.05 8.23-2.74 10.1-3.87 1.51-7.67 1.15-11.57.84a48.31 48.31 0 0 0-8.14-.3c-3.87.35-6.85 2.57-9.28 5.55-1.78 2.19-3.3 4.75-5.49 6.41-3.78 2.87-8.12 4-12.87 1.94-3.7-1.57-7.48-3-11.27-4.32s-7.34-.34-10.65 1.57a16.34 16.34 0 0 0-4.09 3.24c-2.9 3.33-6.69 4.07-10.8 4.58-5.47.68-11 1.2-16 4-2.19 1.16-4.47 2.16-7.04 3.42z"/><path class="c" d="M443.09 552.86c-1 1.35-2 2.76-3.14 4-4 4.58-8.12 9.07-12.07 13.7a49.17 49.17 0 0 0-3.92 5.63 13.59 13.59 0 0 1-6.92 5.59c-12.32 4.74-24.48 9.88-36.72 14.83-6.67 2.71-13.4 5.27-20.05 8-5.23 2.16-10.35 4.56-15.57 6.75-2.91 1.23-5.91 2.24-8.88 3.33a3.69 3.69 0 0 1-.95.1c.07-.36 0-.8.21-1.07 1.95-2.77 3.9-5.53 5.91-8.26q6.39-8.7 12.82-17.36a10.51 10.51 0 0 1 5-4c4.9-1.8 9.57-4.21 14.43-6.11 7.32-2.86 14.72-5.48 22.07-8.23 8.28-3.09 16.53-6.26 24.82-9.31 4.5-1.65 9.07-3.08 13.59-4.69 2.36-.84 4.65-1.88 7-2.73a10.13 10.13 0 0 1 2.43-.24z"/><path class="a" d="M633.22 425.68c-.4 2.55-1 6-3.22 8.86-2.44 3.18-5.26 6.16-7.19 9.63a30 30 0 0 0-3.26 9.8c-.92 5.67.41 11.28 1.73 16.8 1 4.35 1.52 8.6-1.17 12.6a13.53 13.53 0 0 1-12.21 6.26c-.77 0-1.26-.06-.79-1.09a39.06 39.06 0 0 0 2.13-5.46 15 15 0 0 0 .7-4.81 55.44 55.44 0 0 0-1-7.1 17 17 0 0 0-6.26-10c-1.34-1.13-1.22-1.69-.11-3.05a53.06 53.06 0 0 0 9.1-16.09c1.29-3.8 2.26-7.71 3.24-11.61a12.14 12.14 0 0 0-.38-7.07c-1.94-5.58-3.86-11.17-7.3-16a94.62 94.62 0 0 0-9.71-12.35c-2.61-2.63-6.19-4.37-9.48-6.25a41.07 41.07 0 0 0-17.69-5.29 11.23 11.23 0 0 0-2.56.29 6 6 0 0 1-6.1-3.72 1.38 1.38 0 0 1 .41-1.06 22.22 22.22 0 0 1 26-3.57 21.12 21.12 0 0 1 5.69 4.81 29.7 29.7 0 0 1 5.52 8.82 28.27 28.27 0 0 0 6.75 9.82c6 6.19 13.38 10.37 20.93 14.28 3.13 1.66 6.3 7.39 6.23 12.55zm-466.86-157.1a27.28 27.28 0 0 1 3.64-12.64 70.53 70.53 0 0 1 7.29-9.62 29.2 29.2 0 0 0 7.33-16.73 73.45 73.45 0 0 1 3.84-17.52 19.84 19.84 0 0 1 5.38-8.7c3.73-3.29 11.87-3.56 16.13.11a1.88 1.88 0 0 1 .75 2.24c-1.13 3.75-2.71 7-6.48 9a27.74 27.74 0 0 0-9.42 8.82c-5.29 7.38-8.72 15.64-11.33 24.13a44.51 44.51 0 0 0-1.07 20.33c1.4 8.6 5.72 15.71 10.78 22.38 2 2.68 5.29 4.43 8.06 6.52a20.24 20.24 0 0 0 2.87 1.55c2.4 1.27 2.46 1.5.92 3.75a33.37 33.37 0 0 0-5.48 15.5c-.29 2.49-.92 3-2.93 1.86-4.11-2.4-7.11-5.81-8.11-10.59-.55-2.66-.7-5.4-1.06-8.1a15.7 15.7 0 0 0-4.09-8 54.57 54.57 0 0 0-6.72-6.62 34.45 34.45 0 0 1-8.59-10.59c-1.21-2.34-1.3-5.24-1.71-7.08z"/><path class="c" d="M264.67 440c3.12-6.68 7-13 10.29-19.53a18 18 0 0 1 10.31-9.14c8.83-3.42 17.56-7.13 26.34-10.71 6.87-2.79 13.74-5.58 20.63-8.3a59.16 59.16 0 0 1 9.45-2.94c-3.28 3.56-6.55 7.13-9.85 10.67-4.89 5.27-9.83 10.49-14.69 15.78a13.62 13.62 0 0 0-2.62 3.73c-.9 2.17-2.7 3.07-4.6 3.82-6.28 2.48-12.6 4.85-18.89 7.28-7.64 2.94-15.25 5.92-22.91 8.81a16.5 16.5 0 0 1-3.49.51zm193.02-86.43c0-2.84.06-5.68 0-8.51a2.45 2.45 0 0 1 1.88-2.63c6.65-2.7 13.23-5.62 19.91-8.25 10.64-4.19 21.35-8.19 32-12.32 1.71-.66 3.31-1.62 5-2.39a2.54 2.54 0 0 1 .92 0 3 3 0 0 1-.23.77 56 56 0 0 1-4.34 6.06c-6.24 6.83-12.63 13.54-18.95 20.3-1.78 1.9-3.48 3.86-5.31 5.7a7.49 7.49 0 0 1-2.45 1.5c-5.25 2.14-10.49 4.28-15.79 6.29-3.36 1.27-6.78 2.36-10.2 3.41-2.39.73-2.45.64-2.48-1.71v-8.19z"/><path class="a" d="M524.48 371c-1.59-.13-3.32-.35-5.05-.4-4.29-.1-8.11 1.47-11.69 3.64a8.06 8.06 0 0 0-1.92 2.2c-.58.79-1 1.71-1.63 2.46-3.72 4.36-3.46 9.17-1.47 14.06a40.11 40.11 0 0 0 10.48 14.82 23.62 23.62 0 0 1 7.42 12 38.37 38.37 0 0 0 1.61 4.29c.46 1.27 0 2.06-1.31 2.46a69.41 69.41 0 0 0-7.15 2.33 58.13 58.13 0 0 0-6.89 3.74c-1.19.72-1.61.15-1.76-.83a19.68 19.68 0 0 1-.15-3.26c.11-6.85-3-12.21-8.05-16.42-4.61-3.85-5.84-8.32-3-13.58a19.29 19.29 0 0 0 2.57-8.67 12.11 12.11 0 0 0-3.19-8.65c-.65-.75-1.31-1.48-1.92-2.25-2.74-3.44-2.79-5.36.08-8.67a24.09 24.09 0 0 1 4.16-3.64 4.24 4.24 0 0 1 4-.81c2.68.84 5.51 1.19 8.21 2 4.35 1.26 8.51 1.28 12.63-.89 1.08-.56 2.68-1.11 3.64-.71a18.77 18.77 0 0 1 5 3.44c.83.74.18 1.31-.83 1.31zM201.4 231a34.16 34.16 0 0 1 1.32-5.53 8.64 8.64 0 0 1 2.59-3.18c2.06-1.6 4.52-2.72 6.43-4.47a28.44 28.44 0 0 0 4.57-5.81c.86-1.35 1.15-3 1.83-4.52a5.35 5.35 0 0 1 1.54-2 17.84 17.84 0 0 1 2.86-1.45c-.31 1-.6 1.94-.92 2.91-1 3-2.12 5.92-2.89 8.95a18 18 0 0 0 1.35 11.78 6 6 0 0 0 1.35 1.83 51.52 51.52 0 0 0 5 4.71 17.94 17.94 0 0 0 4.83 2.57 27.18 27.18 0 0 0 10.93 1.44c3.91-.23 7.81-.49 11.72-.67a10.31 10.31 0 0 1 2.57.38c3.93.87 3.82.85 2.64 4.5a31 31 0 0 0-.93 5.46c-.13 1-.1 2-.17 3-.25 3.54-.48 3.67-3.53 1.93a9.55 9.55 0 0 0-7.5-1.33c-2.62.71-5.22 1.48-7.85 2.15a26.53 26.53 0 0 1-4.15.74c-2.19.19-3.56-.87-4.72-2.79a68.92 68.92 0 0 0-5.56-7.64 9.77 9.77 0 0 0-5.83-3.39c-1.49-.31-2.91-.94-4.4-1.24a9.22 9.22 0 0 0-3.81-.3c-3.48.79-5.74-.77-7.37-3.52a34.76 34.76 0 0 1-1.9-4.51zm71.9-74.25c6.11-.24 11.44 2.75 17.18 3.86a20.72 20.72 0 0 0 10-.57c4.9-1.43 8.82-4.7 13.23-7.06 5.22-2.79 10.56-5.12 16.71-4.91a19 19 0 0 1 9.68 3.47 1.66 1.66 0 0 1 .26 1.57 9.33 9.33 0 0 1-1.52 2.11c-2.95 3.5-6 6.94-8.83 10.5-.92 1.15-1.66 1.63-2.94.69-4.16-3-9-3.26-13.92-3.79-5.18-.56-10.19.58-15.29.73a33.17 33.17 0 0 0-13.52 3.51 7 7 0 0 1-3.39.67 10.18 10.18 0 0 0-6 1.41 23.72 23.72 0 0 0-10 11.17c-1.06 2.34-1.27 2.42-3.23 1a9.06 9.06 0 0 0-5.87-1.64c-1.3 0-1.86-.36-1.48-1.7 1.55-5.36 3.45-10.38 8-14.2 2.77-2.32 5.41-4.69 8.77-6.09.71-.32 1.45-.48 2.16-.73zM480.91 545.4c-4.53-.11-8.37-2.4-11.15-6.33a35.14 35.14 0 0 0-8.27-8.28c-1.19-.86-2.84-1.77-3.19-3-.62-2.14-.43-4.52-.49-6.8 0-.16.78-.58 1.1-.49 2.1.55 4.18 1.2 6.26 1.82.1 0 .2.14.29.13 4.12-.12 8.08 1.64 12.27.91 2.88-.5 5.85-.52 8.73-1 2-.35 3.92-1.18 5.9-1.69a4 4 0 0 1 2.1 0c2.06.66 4 1.56 6.11 2.16 1.16.33 1.72.79 1.56 2a13.12 13.12 0 0 1-.34 2.92c-2.09 5.32-4.69 10.32-9.14 14.14-3.28 2.85-7.2 3.41-11.74 3.51zM244.82 358.82v13.7a4.52 4.52 0 0 1-.28 1.11 6.21 6.21 0 0 1-.85-.85 26.36 26.36 0 0 1-4.06-9.86 35 35 0 0 0-10.1-18.33 19.33 19.33 0 0 0-4.6-3c-2.5-1.29-5.16-2.24-7.66-3.52-5.45-2.78-9.68-6.56-10.2-13.18a9.61 9.61 0 0 0-.23-1.61c-1.5-6.12.29-11.62 3.22-16.88.85-1.53 1.76-3 2.7-4.49a7.53 7.53 0 0 1 1.12-1.14c.36.52.93 1 1.06 1.56.4 1.69.57 3.43.93 5.13.45 2.11.95 4.22 1.51 6.31s1.2 4.4 1.91 6.57a50.38 50.38 0 0 0 9.12 16.07c3.64 4.45 7.95 8.43 13.51 10.54a3.09 3.09 0 0 1 2.32 3.41c-.08 2.83 0 5.66 0 8.5zm279.42-11.17c3.59 1.23 7.41 1.47 10.74 3.62s6.75 4.53 10.48 5.74c3.17 1 6.84.74 10.27.64 1.89-.06 3.76-.93 5.64-1.43a16.9 16.9 0 0 1 15.85 3.63c1.45 1.19 2.39 3.06 3.42 4.7.91 1.43.65 1.7-1 1.87-3.12.33-6.26.59-9.34 1.18a26.08 26.08 0 0 0-5.13 2c-1.27.55-2.26.76-3.52-.36-6.2-5.52-13.69-8.15-21.78-9.32a18.27 18.27 0 0 0-9.33.85 3.55 3.55 0 0 1-3.07-.19 11 11 0 0 0-4.32-1.34c-1.94 0-2.61-.89-3.28-2.4s-1.64-2.57-2.34-3.92c-1.1-2.09-.84-2.89 1.37-3.73 1.68-.68 3.51-1.04 5.34-1.54zM257.38 151c2 .52 3.69.91 5.34 1.38.85.24 1.42.76.67 1.64-.9 1.07-1.7 2.44-2.87 3-5 2.57-7.66 7-9.65 11.84a3 3 0 0 1-2.77 2.17 33.9 33.9 0 0 0-18.1 8.12c-1.16 1-2.45 1.81-3.68 2.71a5.42 5.42 0 0 0-1.29 1c-2.88 3.94-5.8 7.87-8.52 11.93-.53.78-.3 2.08-.41 3.15-.06.53-.07 1.3-.85.68a24.39 24.39 0 0 0-10.08-4.28c-1.69-.37-2-1.13-1.65-2.73a10.93 10.93 0 0 1 8.86-8.1c3.64-.6 7.33-1.06 10.88-2 4.31-1.15 7.24-4.38 9.71-7.86 3.33-4.68 6.16-9.75 9.68-14.27a24.55 24.55 0 0 1 7.24-5.84c2.24-1.34 5.04-1.76 7.49-2.54z"/><path class="a" d="M237.15 210.65c.84 3.35 1.81 6.67 2.47 10.06a22.34 22.34 0 0 1-.06 4.69c-1.33-.86-2.91-1.49-3.95-2.61-5.57-6-6.43-14-3.13-21.25 3-6.69 8.19-10.55 14.7-13.12 1.31-.52 2.6-1.11 3.91-1.65 4.1-1.69 7.9-1.28 11.27 1.71a7.24 7.24 0 0 1 2.72 5.72A16.55 16.55 0 0 1 261 205c-.86 1-1.63 1.36-2.71.34-2.23-2.09-4.64-4.12-5.09-7.35-.59-4.26-5.33-6-9-2.63s-6.8 10.14-7.05 15.29zm310.04 188.46c.68-2.28 1.26-4.6 2.08-6.82 1.68-4.58-.17-7.53-5.15-7.48a28.24 28.24 0 0 0-7 1.38 31.92 31.92 0 0 0-4.81 2 3.28 3.28 0 0 0-1.46 1.2c-1.64 3-4.74 4.41-7.11 6.61-1 .95-1.55.45-2-.85-.81-2.49.31-4.57 1.27-6.56 1.5-3.08 3.68-5.72 7-7 3-1.15 6.13-2.22 9.26-3.08 4.35-1.2 8.37.11 12.29 2a20.33 20.33 0 0 1 9.67 9.72c3.06 6.21.58 9.17-4.17 11.2a17.22 17.22 0 0 1-6.36 1.07c-3.21.06-3.21-.11-3.51-3.39zM498 356.32c3.72-.1 6.79-.58 8.48-3.91.38-.76 1-.75 1.59-.24a21.6 21.6 0 0 1 5.9 8.12c.1.21-.38.95-.72 1.06a3.67 3.67 0 0 1-1.89.06 22.71 22.71 0 0 1-4.39-1.24 18.67 18.67 0 0 0-11.85-1c-1.5.33-2.81 1.49-4.2 2.3-4 2.31-7.15 5.31-8.37 9.95-.24.95-.84 1.14-1.73.94a11.42 11.42 0 0 0-2.25-.33c-3.11-.11-6.23-.23-9.35-.22-1.61 0-3.22.28-4.83.41-1.09.09-2.18.12-3.26.22s-2.25.23-3.38.36c.21-1.77 1.86-2.05 3-2.54 8.52-3.62 17.1-7.1 25.66-10.62 1.51-.62 3-1.38 4.53-1.85 2.5-.72 4.79-2.34 7.06-1.47z"/><path class="a" d="M249.87 218.1c5.06.4 8.48-1.83 11.61-4.34a27.3 27.3 0 0 0 8.61-10.89c.5-1.23.9-1 1.75-.17 1.59 1.6 3.36 3 5.09 4.49 1 .85 1.09 1.88-.11 3a74.66 74.66 0 0 1-6.35 5.59 118.11 118.11 0 0 1-11.21 7.8 21.31 21.31 0 0 1-10.55 3c-1.27 0-2-.29-2.11-1.78a40.66 40.66 0 0 0-.6-4.51c-.21-1.31.09-2.1 1.63-2.05a16.25 16.25 0 0 0 2.24-.14zM554.35 411c-.24 1.37-.55 2.75-.72 4.15-.3 2.59-.31 2.77-2.65 2.21-7.49-1.76-15.06-3.46-20.94-8.92a36.22 36.22 0 0 1-4-5.06 1.19 1.19 0 0 1 .26-1.13c1.08-.88 2.28-1.61 3.39-2.47 1.51-1.19 1.76-1.16 3.12.43s2.37 3.17 3.91 4.25a32.46 32.46 0 0 0 6.63 3.41c3.1 1.24 6.22 2.63 9.75 1.86.75-.23 1.9-.36 1.25 1.27zm-20.08 13.07h-.32l-4.36.27c-.8-2.58-1.69-5.14-2.36-7.75-.23-.91.6-1 1.29-.68 2.15 1 4.27 2.06 6.42 3.05s4.37 1.9 6.54 2.87a4 4 0 0 1 .73.57 3.56 3.56 0 0 1-.92.49c-2.31.52-4.63 1-6.95 1.5zm-284.58-212c-2.81 0-4.82-1.83-4.7-4.25a9.44 9.44 0 0 1 .91-3.41c.33-.69 1.17-1.14 1.78-1.7.43.6.84 1.21 1.29 1.81 1.29 1.69 2.54 3.41 3.9 5 .71.87 1 1.43-.41 1.75-1.05.3-2.09.61-2.77.8zM538.07 394.9c.11-1.4 2.31-3.28 3.59-3 .16 0 .32.64.27.95-.28 1.69-.63 3.36-.95 5-.12.65-.32 1-1 .47-1.19-.82-2.12-1.8-1.91-3.42zm-22.2 6.1c-1.45-1.67-2.66-3-3.75-4.38-.25-.33-.32-1.21-.09-1.4a8 8 0 0 1 2.2-1.22 2 2 0 0 1 .6.93c.35 1.88.64 3.74 1.04 6.07zM257.78 231l7.22-2.9c-2 4.14-2 4.14-7.22 2.9zm6.86 209l-.06.3.09-.27zm178.5 112.89v-.48l.35.06-.36.38z"/><path class="c" d="M282.9 556.44c1.3 6.39 2.41 12.81 3.92 19.14 2.07 8.68 2.3 17.48 2.06 26.29a62.64 62.64 0 0 1-3.56 18.86 154.86 154.86 0 0 1-8 18.13 188.35 188.35 0 0 0-9.54 21.47c-1.7 4.86-1.83 10.27-2.61 15.43a26.36 26.36 0 0 0-.11 3c0 .24-.05.48-.08.72-.08-.17-.17-.34-.24-.52-.66-1.71-1.85-3.41-1.87-5.12-.1-7.52.14-15 3.2-22.12 1.93-4.49 3.29-9.22 4.91-13.84 1.47-4.22 2.91-8.45 4.41-12.66a111.19 111.19 0 0 0 4.61-19.39c2-11.94.81-24 1.29-35.92.18-4.44.63-8.87 1-13.31zm-4.45-38.34v11.09c.06 7.47-1.63 14.7-3.06 22a90.43 90.43 0 0 1-2.75 11.42c-1.49 4.41-3.47 8.66-5.29 13-2.36 5.59-6.49 9.6-11.23 13.29-5.74 4.47-11.91 8.25-18 12.14a11.38 11.38 0 0 1-3.56 1.41c1.45-1.13 3-2.18 4.33-3.41 4.09-3.71 8.18-7.43 12.15-11.27 7.2-7 11.37-15.91 15.24-24.9a53.5 53.5 0 0 0 4.17-14.74c.4-3.31 1.83-6.48 2.68-9.75 1.66-6.32 3.24-12.66 4.87-19a9.14 9.14 0 0 1 .5-1.17zm9.31-36.02c-1.05 4.71-3.82 8.39-6.38 12.14-2.19 3.2-4.52 6.31-6.79 9.45-3.1 4.3-7.15 6.94-11.72 9a81.36 81.36 0 0 1-17.42 5.33c-7.13 1.47-14.19 3.34-21.24 5.19a46.77 46.77 0 0 0-5.36 2.24 4.64 4.64 0 0 1-1.45.08c.13-.39.15-.93.42-1.14a36.76 36.76 0 0 1 5.43-4 51.29 51.29 0 0 1 13.84-4.69c4-.82 7.76-2.72 11.63-4.1 2.35-.83 4.76-1.5 7.07-2.41a99.75 99.75 0 0 0 10.2-4.34 39.73 39.73 0 0 0 6-4.5 70.25 70.25 0 0 0 14.92-17.14 11.17 11.17 0 0 1 .85-1.11z"/><path class="a" d="M278.47 518.13c.09-.18.2-.35.27-.53s0-.17 0-.25a.62.62 0 0 0-.11.17c-.06.19-.11.39-.16.58z"/><path d="M416.39 257.23c-.38 4.3-.5 10.44-1.57 16.41-1.3 7.27-3.36 14.41-5.19 21.59-1.37 5.38-2.86 10.73-4.34 16.08-.81 2.94-1.7 5.86-2.56 8.79-2.49 8.47-5 16.95-5.93 25.78a69.15 69.15 0 0 0 1.93 26.86c.47 1.67 1 3.32 1.37 5 1.06 5.56 4.27 10.19 6.51 15.23a24.83 24.83 0 0 0 1.9 3 5.68 5.68 0 0 1 .49 5.32c-.49 1.28-1.42 1.46-2.27.63a20.25 20.25 0 0 1-3.8-4.44 129.5 129.5 0 0 1-7.12-14.3 110.45 110.45 0 0 1-4-14.1c-2.16-8.6-1.48-17.21-.38-25.94.75-6 2.72-11.62 3.64-17.53.51-3.3 1.92-6.46 2.83-9.72 1.35-4.81 2.6-9.66 3.92-14.49 1.59-5.85 3.31-11.66 4.78-17.54 1.63-6.55 3.49-13 3.37-19.92s.45-13.73.28-20.58a55.55 55.55 0 0 0-3.56-17.59c-2-5.62-4.48-11.09-6.62-16.67a3.51 3.51 0 0 1 .32-2.66 1.6 1.6 0 0 1 2.58-.08c1.44 1.43 3.15 2.89 3.86 4.69C409.51 218 412 225 414.32 232a26 26 0 0 1 1.18 6.43c.37 5.64.55 11.32.89 18.8zm32.74 273.29c-.06 2.38-1.66 4.14-3.7 4.06-2.42-.1-4-2-4-4.63 0-2.21 1.55-4.16 3.28-4.2 2.23-.05 4.47 2.38 4.42 4.77zm-5.65-416.3a4.68 4.68 0 0 1 4.17 4.3c-.08 2.13-2.26 4.32-4.21 4.23s-3.07-1.62-3.06-3.89c.02-2.74 1.29-4.65 3.1-4.64zM292.12 309.91a3.54 3.54 0 0 1-3.79 3.55c-1.52-.06-3.07-1.86-3.14-3.66a4.27 4.27 0 0 1 3.6-4.35c1.78-.11 3.32 1.94 3.33 4.46zm217.49-88.1a4 4 0 0 1 3.51-3.6c1.69 0 3.42 2 3.45 4.07s-1.84 4-3.57 3.93c-1.93-.04-3.41-1.97-3.39-4.4z"/></svg>